<svg width="11" height="13" viewBox="0 0 11 13" fill="none" xmlns="http://www.w3.org/2000/svg">
<path fill-rule="evenodd" clip-rule="evenodd" d="M5.50262 12.5C5.39774 12.5009 5.29622 12.4645 5.21757 12.3978C3.72845 11.1061 1.06079 8.18754 0.507686 5.44886C0.463058 5.22306 0.617332 5.00528 0.852321 4.9624C1.08728 4.91952 1.31399 5.06776 1.35862 5.29351C1.78409 7.37412 3.74969 9.91255 5.51112 11.523C8.48935 8.66171 9.8253 6.33589 9.63811 4.38603C9.39899 2.36209 7.62271 0.829421 5.50262 0.817575C4.58219 0.841537 3.69147 1.13539 2.94985 1.6596C2.47598 1.98931 2.15773 2.48623 2.06489 3.0412C1.933 3.72792 2.37971 4.26752 3.08173 4.75804C3.34099 4.29374 3.69908 3.88705 4.13264 3.56441C4.68755 3.08565 5.46708 2.92962 6.17482 3.15565C6.76376 3.34231 7.21287 3.80467 7.36615 4.38198C7.63579 5.36895 7.02162 6.37908 5.99436 6.63817C5.52419 6.75676 5.02469 6.69987 4.59638 6.47889L4.46874 6.4217C4.21772 6.30724 3.93267 6.17644 3.61781 6.01293C3.61995 6.21941 3.63554 6.42557 3.66461 6.63015C3.6949 6.85217 3.53369 7.0563 3.30298 7.08796C3.07035 7.11954 2.85513 6.96396 2.82221 6.74055C2.76528 6.34863 2.76528 5.95109 2.82221 5.55922C1.83514 4.93786 0.99695 4.07947 1.22673 2.87364C1.36911 2.11814 1.8115 1.44533 2.46054 0.997427C3.3448 0.374307 4.40638 0.0262232 5.50262 7.62939e-06C8.06854 -0.00427151 10.2204 1.85995 10.4805 4.31248C10.6932 6.5852 9.16584 9.21762 5.80045 12.3855C5.7205 12.4596 5.61363 12.5007 5.50262 12.5ZM3.80074 5.18726C4.12835 5.35891 4.47724 5.52651 4.83037 5.68592L4.95801 5.74313C5.33992 5.94249 5.80721 5.91222 6.15783 5.66548C6.49611 5.39396 6.64037 4.95902 6.52796 4.54954C6.43394 4.25717 6.1947 4.02884 5.88977 3.94051C5.46737 3.8012 4.99942 3.89709 4.67296 4.18982C4.3063 4.45346 4.00781 4.79475 3.80074 5.18726Z" fill="#1E1E1E"/>
</svg>
