<svg width="15" height="12" viewBox="0 0 15 12" fill="none" xmlns="http://www.w3.org/2000/svg">
<path fill-rule="evenodd" clip-rule="evenodd" d="M9.3616 11.085C9.31674 11.085 9.27192 11.0767 9.22997 11.0602L5.14612 9.66763L4.27831 9.36684L4.33176 9.52753C4.48148 9.97418 4.33877 10.4666 3.97402 10.7636C3.69432 10.9791 3.34106 11.0751 2.99106 11.0314C2.52631 10.9803 2.11793 10.7005 1.90118 10.2857C1.64084 9.77721 1.77327 9.15594 2.21783 8.79827C2.26514 8.75917 2.31618 8.72494 2.37006 8.69532L0.391831 8.04434C0.222795 7.9891 0.108033 7.83131 0.108033 7.65289L0.108033 4.45158C0.10767 4.27438 0.22033 4.11704 0.387734 4.06016L9.22997 1.00717C9.27192 0.990665 9.31674 0.982454 9.3616 0.982454C10.1484 0.984903 10.7846 1.6239 10.7846 2.41212L10.7846 9.65525C10.7846 10.4435 10.1484 11.0825 9.3616 11.085ZM3.76837 8.39452C3.90816 8.39203 4.04759 8.4143 4.17962 8.46043L5.41344 8.87247L9.42333 10.2403C9.73051 10.2086 9.96368 9.94819 9.96205 9.63879L9.96205 2.41212C9.96368 2.10271 9.73051 1.84229 9.42333 1.81058L0.930583 4.74412L0.930583 7.35214L3.29949 8.13492C3.4537 8.19057 3.59439 8.27914 3.71077 8.39452L3.76837 8.39452ZM3.35704 9.27209L3.29537 9.27209L3.03219 9.32153C2.92729 9.33472 2.82737 9.37264 2.7402 9.43278C2.61271 9.55556 2.57772 9.74637 2.65377 9.9066C2.74634 10.0718 2.9137 10.1814 3.10206 10.1991C3.23368 10.2189 3.36815 10.1864 3.47632 10.1085C3.57669 10.024 3.61331 9.88515 3.56682 9.76237C3.50019 9.5922 3.4192 9.42825 3.32418 9.27209L3.35704 9.27209Z" fill="#00A3E0"/>
<path fill-rule="evenodd" clip-rule="evenodd" d="M10.3577 4.1709C10.1834 4.17008 10.0287 4.05965 9.97117 3.89488C9.89552 3.68017 10.0078 3.44491 10.2216 3.36912C10.2232 3.36831 10.2245 3.36785 10.2262 3.36749L12.0604 2.73707C12.2722 2.65507 12.5103 2.76097 12.5922 2.97319C12.6736 3.18576 12.5684 3.42391 12.3561 3.50592C12.3471 3.50963 12.3372 3.5129 12.3278 3.5158L10.4935 4.14614C10.4499 4.16183 10.4042 4.17049 10.3577 4.1709Z" fill="#00A3E0"/>
<path fill-rule="evenodd" clip-rule="evenodd" d="M12.1915 9.3289C12.1479 9.33471 12.1035 9.33471 12.0599 9.3289L10.2256 8.69439C10.008 8.62849 9.8855 8.39819 9.95131 8.18067C10.0175 7.96269 10.247 7.83992 10.4641 7.90582C10.474 7.90872 10.4835 7.91203 10.4929 7.91575L12.3272 8.54609C12.5431 8.61697 12.6608 8.84973 12.5896 9.06608C12.5337 9.23788 12.372 9.35281 12.1915 9.34954L12.1915 9.3289Z" fill="#00A3E0"/>
<path fill-rule="evenodd" clip-rule="evenodd" d="M13.6968 6.44531L10.3573 6.44531C10.1303 6.44531 9.94604 6.26072 9.94604 6.03326C9.94604 5.80581 10.1303 5.62127 10.3573 5.62127L13.6968 5.62127C13.9239 5.62127 14.1081 5.80581 14.1081 6.03326C14.1081 6.26071 13.9239 6.44531 13.6968 6.44531Z" fill="#00A3E0"/>
</svg>
