<svg width="100%" height="100%" viewBox="0 0 160 150" fill="none" xmlns="http://www.w3.org/2000/svg">
<path fill-rule="evenodd" clip-rule="evenodd" d="M29.3343 97.3398C26.697 97.3398 24.5565 95.1972 24.5565 92.5583C24.5997 61.9024 49.4715 37.0896 80.1053 37.1323C105.727 37.1702 127.991 54.7644 133.962 79.6973C134.741 82.2219 133.332 84.8993 130.809 85.679C128.292 86.4577 125.611 85.0473 124.832 82.5233C124.776 82.332 124.728 82.1408 124.694 81.9448C119.32 57.1457 94.8771 41.4017 70.0964 46.7802C48.6543 51.4321 33.5004 70.6089 33.9203 92.5583C33.9203 95.1256 31.8995 97.2345 29.3343 97.3398Z"/>
<path fill-rule="evenodd" clip-rule="evenodd" d="M155.223 117.219H4.77797C2.14064 117.219 0 115.077 0 112.438C0.0479419 103.067 5.37489 94.5228 13.7594 90.3492C16.1197 89.1776 18.9861 90.139 20.1614 92.5008C21.332 94.8625 20.3717 97.7312 18.0115 98.9071C14.4238 100.714 11.681 103.856 10.3671 107.657H149.681C147.597 101.503 141.841 97.3534 135.348 97.3297H29.3342C26.6969 97.3297 24.5563 95.1876 24.5563 92.5482C24.5563 89.9093 26.6969 87.7672 29.3342 87.7672H135.348C148.954 87.7961 159.976 98.8212 160 112.438C160 115.077 157.859 117.219 155.223 117.219Z"/>
<path fill-rule="evenodd" clip-rule="evenodd" d="M80.0265 46.6133C77.3891 46.6133 75.2487 44.4712 75.2487 41.8323V23.7598C75.2487 21.1209 77.3891 18.9788 80.0265 18.9788C82.6633 18.9788 84.8044 21.1209 84.8044 23.7598V41.8323C84.8044 44.4712 82.6633 46.6133 80.0265 46.6133Z"/>
<path fill-rule="evenodd" clip-rule="evenodd" d="M80.0246 28.5482C77.3873 28.5482 75.2473 26.406 75.2473 23.7671C75.2473 21.1277 77.3873 18.9861 80.0246 18.9861C82.6619 18.9861 84.8019 16.8435 84.8019 14.2046C84.8019 11.5652 82.6619 9.42358 80.0246 9.42358C77.3873 9.42358 75.2473 11.5652 75.2473 14.2046C75.1993 14.6018 75.1993 15.0033 75.2473 15.4C75.9111 17.9578 74.3775 20.5634 71.8213 21.2283C71.8165 21.2283 71.8118 21.2331 71.8076 21.2331C69.2514 21.888 66.6473 20.3486 65.9929 17.7903C65.9882 17.7766 65.9829 17.757 65.9786 17.7428C64.1063 10.0453 68.8214 2.28555 76.5132 0.411076C84.205 -1.46287 91.9589 3.26071 93.8313 10.9535C95.7042 18.6511 90.9844 26.4114 83.2974 28.2848C82.2411 28.5435 81.1567 28.6767 80.0725 28.6914L80.0246 28.5482Z"/>
<path fill-rule="evenodd" clip-rule="evenodd" d="M80.1684 85.1562C73.967 85.1562 68.9412 80.1259 68.9412 73.9204C68.9412 67.7148 73.967 62.6851 80.1684 62.6851C86.3692 62.6851 91.3953 67.7148 91.3953 73.9204C91.3953 80.1259 86.3692 85.1562 80.1684 85.1562ZM80.1684 72.2472C79.2701 72.2182 78.5253 72.9262 78.4963 73.825C78.4963 73.8535 78.4963 73.8872 78.4963 73.9204C78.4963 74.8434 79.2464 75.5937 80.1684 75.5937C81.0903 75.5937 81.8401 74.8434 81.8401 73.9204C81.8401 72.9979 81.0903 72.2472 80.1684 72.2472Z"/>
<path fill-rule="evenodd" clip-rule="evenodd" d="M105.059 85.1562C98.8586 85.1562 93.832 80.1259 93.832 73.9204C93.832 67.7148 98.8586 62.6851 105.059 62.6851C111.261 62.6851 116.287 67.7148 116.287 73.9204C116.287 80.1259 111.261 85.1562 105.059 85.1562ZM105.059 72.2472C104.137 72.2472 103.387 72.9979 103.387 73.9204C103.387 74.8434 104.137 75.5937 105.059 75.5937C105.981 75.5937 106.732 74.8434 106.732 73.9204C106.732 72.9979 105.981 72.2472 105.059 72.2472Z"/>
<path fill-rule="evenodd" clip-rule="evenodd" d="M55.2777 85.1562C49.0763 85.1562 44.0503 80.1259 44.0503 73.9204C44.0503 67.7148 49.0763 62.6851 55.2777 62.6851C61.4785 62.6851 66.505 67.7148 66.505 73.9204C66.4808 80.1164 61.469 85.132 55.2777 85.1562ZM55.2777 72.2472C54.3557 72.2182 53.586 72.95 53.5575 73.8724C53.5575 73.8872 53.5575 73.9061 53.5575 73.9204C53.715 74.8576 54.6044 75.4887 55.5405 75.3307C56.2618 75.2111 56.8302 74.6426 56.9497 73.9204C56.9497 72.9979 56.1996 72.2472 55.2777 72.2472Z"/>
<path fill-rule="evenodd" clip-rule="evenodd" d="M80.1679 149.367C77.5311 149.367 75.3901 147.225 75.3901 144.586V112.314C75.3901 109.675 77.5311 107.533 80.1679 107.533C82.8053 107.533 84.9459 109.675 84.9459 112.314V144.586C84.9459 147.225 82.8053 149.367 80.1679 149.367Z"/>
<path fill-rule="evenodd" clip-rule="evenodd" d="M45.3407 140.414C44.6864 140.409 44.0368 140.275 43.4299 140.032C41.0223 138.979 39.9134 136.183 40.9454 133.768L50.8826 110.579C51.6617 108.055 54.337 106.645 56.8548 107.42C59.3773 108.199 60.7913 110.876 60.0126 113.401C59.9172 113.716 59.7882 114.022 59.6254 114.309L49.7362 137.497C48.986 139.266 47.2568 140.414 45.3407 140.414Z"/>
<path fill-rule="evenodd" clip-rule="evenodd" d="M114.663 140.414C112.747 140.414 111.018 139.267 110.268 137.498L100.331 114.309C99.2073 111.919 100.23 109.074 102.619 107.946C105.008 106.822 107.855 107.85 108.977 110.241C109.03 110.35 109.078 110.465 109.121 110.58L119.01 133.768C120.042 136.183 118.934 138.98 116.526 140.032C115.934 140.271 115.303 140.405 114.663 140.414Z"/>
</svg>
