<svg width="100%" height="100%" viewBox="0 0 80 79" fill="none" xmlns="http://www.w3.org/2000/svg">
<path fill-rule="evenodd" clip-rule="evenodd" d="M32.8677 77.8919C31.1465 77.8621 29.7738 76.4434 29.8036 74.7232C29.8334 73.0034 31.2544 71.6331 32.9756 71.6629C35.9744 71.4342 38.8881 70.5486 41.5061 69.0693C38.7798 69.2306 36.0545 68.8008 33.5106 67.809C31.028 67.2294 29.4862 64.75 30.0658 62.2706C30.416 60.7802 31.4822 59.56 32.9144 59.0138C35.327 57.8567 37.9496 57.1924 40.6223 57.0602C39.2554 56.7355 37.9482 56.198 36.7503 55.4665C35.27 54.6803 34.2116 53.2832 33.8529 51.6468C33.639 48.6871 35.6845 46.0393 38.6075 45.4986C40.085 45.0426 41.6063 44.735 43.147 44.5804C38.762 44.8625 34.3587 44.7862 29.9861 44.3524C25.7198 43.9358 22.9546 41.4893 23.1351 38.2832C23.162 36.7264 24.0517 34.0002 28.7833 32.7736C41.1389 29.5831 54.0202 28.9683 66.623 30.9682C67.6777 31.1285 68.7154 31.3759 69.7296 31.7072C71.0935 30.9558 72.1988 29.814 72.906 28.4289C73.7851 27.1851 73.8138 25.5296 72.9783 24.2557L71.5328 24.8536C64.2858 27.22 56.7238 28.496 49.1001 28.6394L46.5395 28.8132C40.2931 29.2348 34.0462 29.6872 27.809 29.5792L25.2831 29.5354C19.8568 29.4414 12.3684 29.5298 8.21148 26.3735C6.19731 25.2451 5.22775 22.8774 5.87739 20.6633C7.79094 14.6531 25.0913 13.5819 30.3353 13.3924C37.5457 13.1434 44.8462 13.1141 52.1735 13.3033C59.1677 13.1255 66.1283 14.3039 72.671 16.7737C72.851 16.4517 72.9416 16.0879 72.9387 15.719C72.9608 14.4422 71.4644 12.5783 68.36 11.7144C58.4846 8.59218 48.2 6.96443 37.8411 6.8868C26.4755 6.62661 15.133 8.07849 4.20112 11.1949C2.56426 11.6784 0.845706 10.7605 0.337243 9.13422C-0.16749 7.49114 0.757693 5.7503 2.40113 5.24488C13.9006 1.95217 25.8313 0.405192 37.7933 0.655417C48.7727 0.732454 59.68 2.45465 70.148 5.76397C74.9406 6.77544 78.5464 10.744 79.0861 15.6075C79.1289 17.2904 78.6511 18.9446 77.7251 20.3503C80.2262 23.4514 80.5977 27.7582 78.6595 31.2389C77.7445 33.0834 76.413 34.6919 74.7722 35.938C76.0203 38.2582 76.257 40.9895 75.4212 43.4883C73.4294 48.4565 69.5947 52.4637 64.7149 54.6737C63.9789 55.0221 63.2218 55.3313 62.4527 55.6001C62.1159 57.746 61.1365 59.7389 59.6396 61.3146C57.3568 63.6187 54.6423 65.4556 51.6538 66.7216C49.8411 74.1361 37.8881 78.0098 32.9279 78.0174L32.8677 77.8919ZM46.0394 57.6835C46.9636 57.9877 47.8392 58.4223 48.6373 58.9748C49.1949 59.3749 49.7014 59.8443 50.1418 60.3714C51.8808 59.5718 53.4717 58.4827 54.8453 57.1508C52.813 57.4269 50.783 57.5476 48.7852 57.6375C47.9112 57.6537 46.9748 57.6997 46.0394 57.6835ZM41.7888 50.9432C43.9951 51.4434 46.2665 51.5987 48.5186 51.4024C49.735 51.4235 50.8914 51.2877 52.0164 51.1826L51.1743 51.168C48.0883 50.5102 44.9046 50.434 41.7888 50.9432ZM46.3953 44.325C48.3382 44.3679 50.275 44.558 52.1877 44.8928C55.5797 45.2219 58.7177 46.824 60.9693 49.3752L62.1009 48.896C65.3739 47.4143 67.9931 44.7896 69.466 41.5158C69.8298 40.6738 69.8463 39.7229 69.5119 38.8685C65.6896 40.3654 61.7301 41.4964 57.6927 42.2465L56.2205 42.5949C52.3999 43.4596 48.5212 44.0485 44.6166 44.3568L46.3953 44.325ZM32.4015 38.1947C39.8696 38.7328 47.3758 38.1593 54.673 36.4932L56.2072 36.1771C48.2157 35.7631 40.2089 36.4421 32.4015 38.1947ZM13.4296 22.2895C17.3186 23.2544 21.3268 23.6389 25.3263 23.4302L27.946 23.4756C33.9026 23.5788 40.0241 23.1555 45.9273 22.728L48.676 22.5262C53.8516 22.3224 59.0061 21.7138 64.0869 20.7061C60.0708 20.0442 56.009 19.7031 51.9385 19.6856C44.8277 19.5624 37.6552 19.4381 30.5684 19.7825C24.7845 19.974 19.0362 20.7939 13.4307 22.2273L13.4296 22.2895Z"/>
</svg>
