<svg width="100%" height="100%" viewBox="0 0 120 120" fill="none" xmlns="http://www.w3.org/2000/svg">
<path fill-rule="evenodd" clip-rule="evenodd" d="M101.352 119.902H18.8344C8.53595 119.902 0.186386 111.547 0.186386 101.241V18.6626C0.186386 16.0869 2.27516 13.9971 4.84822 13.9971C7.4218 13.9971 9.51068 16.0869 9.51068 18.6626V101.241C9.51068 106.396 13.6826 110.572 18.8344 110.572H101.352C106.504 110.572 110.676 106.396 110.676 101.241V18.6626C110.676 13.5067 106.504 9.33167 101.352 9.33167H4.66184C2.08878 9.33167 0 7.24138 0 4.66575C0 2.09063 2.08878 0.000770569 4.66184 0.000770569H101.352C111.651 0.000770569 120 8.35643 120 18.6626V101.241C120 111.547 111.651 119.902 101.352 119.902Z"/>
<path fill-rule="evenodd" clip-rule="evenodd" d="M43.3559 53.7539C40.7829 53.7539 38.6935 51.6636 38.6935 49.0885V27.1139C38.6935 24.5382 40.7829 22.4484 43.3559 22.4484C45.9295 22.4484 48.0181 24.5382 48.0181 27.1139V48.9018C48.1209 51.477 46.1211 53.6465 43.547 53.7493C43.4817 53.7539 43.4217 53.7539 43.3559 53.7539Z"/>
<path fill-rule="evenodd" clip-rule="evenodd" d="M76.8292 53.7539C74.2556 53.7539 72.1667 51.6636 72.1667 49.0885V27.1139C72.1667 24.5382 74.2556 22.4484 76.8292 22.4484C79.4028 22.4484 81.4914 24.5382 81.4914 27.1139V48.9018C81.5937 51.477 79.5934 53.6465 77.0203 53.7493C76.955 53.7539 76.8945 53.7539 76.8292 53.7539Z"/>
<path fill-rule="evenodd" clip-rule="evenodd" d="M84.8018 96.1016C82.2282 96.1016 80.1393 94.0113 80.1393 91.4362C80.2283 80.3558 71.3234 71.3046 60.2513 71.2156C50.8572 71.1411 42.6715 77.6074 40.5591 86.7707H71.981C74.5546 86.7707 76.6435 88.8605 76.6435 91.4362C76.6435 94.0113 74.5546 96.1016 71.981 96.1016H35.3845C32.8109 96.1016 30.722 94.0113 30.722 91.4362C30.722 75.2051 43.8739 62.0436 60.0931 62.0436C76.3124 62.0436 89.4636 75.2051 89.4636 91.4362C89.4636 94.0113 87.3748 96.1016 84.8018 96.1016Z"/>
</svg>
