<svg width="100%" height="100%" viewBox="0 0 16 16" fill="none" xmlns="http://www.w3.org/2000/svg">
<path fill-rule="evenodd" clip-rule="evenodd" d="M7.99998 16C3.58167 16 0 12.4183 0 8C0 3.58166 3.58167 0 7.99998 0C12.4183 0 16 3.58166 16 8C16 12.4183 12.4183 16 7.99998 16ZM7.99998 0.666682C3.95002 0.666682 0.666671 3.94999 0.666671 8C0.666671 12.05 3.95002 15.3333 7.99998 15.3333C12.05 15.3333 15.3333 12.05 15.3333 8C15.3333 3.94999 12.05 0.666682 7.99998 0.666682Z" fill="#DA291C"/>
<path fill-rule="evenodd" clip-rule="evenodd" d="M11.2063 10.3594H5.40956C5.2184 10.3594 5.06329 10.2071 5.06329 10.0194L4.97325 5.10395L3.44963 4.66545C3.26607 4.61276 3.1605 4.4241 3.21419 4.24392C3.26784 4.06374 3.46002 3.96009 3.64353 4.01276L5.41303 4.52267C5.55848 4.56413 5.6592 4.69365 5.66234 4.84223L5.74891 9.67612H10.9431L11.9819 6.27675H6.89854C6.70742 6.27675 6.55232 6.12445 6.55232 5.93682C6.55232 5.74917 6.70742 5.59686 6.89854 5.59686H12.4563C12.6474 5.59822 12.8016 5.75153 12.8002 5.93919C12.7998 5.97182 12.795 6.00412 12.7853 6.03539L11.5387 10.1146C11.4957 10.2598 11.36 10.3594 11.2063 10.3594Z" fill="#DA291C"/>
<path fill-rule="evenodd" clip-rule="evenodd" d="M5.80492 12C5.14906 12 4.61719 11.4779 4.61719 10.834C4.61719 10.1902 5.14906 9.668 5.80492 9.668C6.46079 9.668 6.99267 10.1902 6.99267 10.834C6.99267 11.4779 6.46079 12 5.80492 12ZM5.80492 10.3513C5.53136 10.3513 5.30975 10.5688 5.30975 10.8374C5.30975 11.1059 5.53136 11.3235 5.80492 11.3235C6.07848 11.3235 6.30011 11.1059 6.30011 10.8374C6.30011 10.8364 6.30011 10.835 6.30011 10.834C6.29835 10.5668 6.07707 10.3513 5.80492 10.3513Z" fill="#DA291C"/>
<path fill-rule="evenodd" clip-rule="evenodd" d="M10.8113 12C10.1555 12.002 9.62218 11.4812 9.62012 10.8374C9.6184 10.1935 10.1486 9.67003 10.8044 9.66799C11.4602 9.6663 11.9935 10.1867 11.9956 10.8306C11.9956 10.8316 11.9956 10.833 11.9956 10.834C11.9939 11.4758 11.4651 11.9962 10.8113 12ZM10.8113 10.3513C10.5378 10.3492 10.3147 10.5654 10.3127 10.834C10.3109 11.1026 10.5308 11.3215 10.8044 11.3235C11.0779 11.3252 11.3009 11.1093 11.303 10.8408C11.303 10.8384 11.303 10.8364 11.303 10.834C11.3013 10.5681 11.0821 10.353 10.8113 10.3513Z" fill="#DA291C"/>
<path d="M10.2 9.13333H9.37072L8.57423 8.3264L7.77775 9.13333H7L8.13616 8.03311L7.07262 7H7.87379L8.61171 7.76753L9.33558 7H10.118L9.04275 8.05791L10.2 9.13333Z" fill="#DA291C"/>
</svg>
