<svg width="100%" height="100%" viewBox="0 0 20 20" fill="none" xmlns="http://www.w3.org/2000/svg">
<rect width="20" height="20" rx="10" fill="white"/>
<path fill-rule="evenodd" clip-rule="evenodd" d="M10 20C4.47708 20 0 15.5228 0 10C0 4.4772 4.47708 0 10 0C15.5229 0 20 4.4772 20 10C20 15.5228 15.5229 20 10 20ZM10 0.833368C4.93752 0.833368 0.833339 4.93738 0.833339 10C0.833339 15.0626 4.93752 19.1666 10 19.1666C15.0625 19.1666 19.1666 15.0626 19.1666 10C19.1666 4.93738 15.0625 0.833368 10 0.833368Z" fill="#1E1E1E"/>
<path fill-rule="evenodd" clip-rule="evenodd" d="M14.1746 13.2812H6.62677C6.37787 13.2812 6.17591 13.083 6.17591 12.8386L6.05867 6.43825L4.07478 5.86729C3.83578 5.79867 3.69831 5.55302 3.76822 5.31842C3.83807 5.08381 4.08831 4.94885 4.32726 5.01743L6.63129 5.68137C6.82068 5.73536 6.95183 5.904 6.95591 6.09747L7.06863 12.3916H13.8319L15.1845 7.96533H8.56555C8.3167 7.96533 8.11475 7.76702 8.11475 7.52272C8.11475 7.27838 8.3167 7.08006 8.56555 7.08006H15.8023C16.0511 7.08183 16.2518 7.28146 16.25 7.5258C16.2495 7.56829 16.2432 7.61034 16.2306 7.65106L14.6074 12.9626C14.5515 13.1516 14.3747 13.2812 14.1746 13.2812Z" fill="#1E1E1E"/>
<path fill-rule="evenodd" clip-rule="evenodd" d="M7.14126 15.418C6.28726 15.418 5.59473 14.7381 5.59473 13.8997C5.59473 13.0614 6.28726 12.3815 7.14126 12.3815C7.99525 12.3815 8.6878 13.0614 8.6878 13.8997C8.6878 14.7381 7.99525 15.418 7.14126 15.418ZM7.14126 13.2712C6.78506 13.2712 6.49649 13.5545 6.49649 13.9041C6.49649 14.2538 6.78506 14.5371 7.14126 14.5371C7.49745 14.5371 7.78603 14.2538 7.78603 13.9041C7.78603 13.9028 7.78603 13.9011 7.78603 13.8997C7.78375 13.5518 7.49561 13.2712 7.14126 13.2712Z" fill="#1E1E1E"/>
<path fill-rule="evenodd" clip-rule="evenodd" d="M13.6604 15.418C12.8065 15.4206 12.1121 14.7425 12.1094 13.9041C12.1071 13.0658 12.7974 12.3842 13.6514 12.3815C14.5054 12.3793 15.1997 13.057 15.2025 13.8953C15.2025 13.8966 15.2025 13.8984 15.2025 13.8997C15.2002 14.7354 14.5117 15.4131 13.6604 15.418ZM13.6604 13.2712C13.3043 13.2685 13.0138 13.55 13.0111 13.8997C13.0089 14.2494 13.2952 14.5345 13.6514 14.5371C14.0076 14.5393 14.298 14.2582 14.3007 13.9086C14.3007 13.9055 14.3007 13.9028 14.3007 13.8997C14.2984 13.5536 14.013 13.2734 13.6604 13.2712Z" fill="#1E1E1E"/>
<rect x="4.10355" y="15.6826" width="16.375" height="1.375" rx="0.6875" transform="rotate(-45 4.10355 15.6826)" fill="#1E1E1E" stroke="white" stroke-width="0.5"/>
</svg>
