<svg width="100%" height="100%" viewBox="0 0 42 42" fill="none" xmlns="http://www.w3.org/2000/svg">
<path fill-rule="evenodd" clip-rule="evenodd" d="M21 42C9.40179 42 0 32.5981 0 21C0 9.40189 9.40179 0 21 0C32.598 0 42 9.40189 42 21C42 32.5981 32.598 42 21 42ZM21 1.75C10.3687 1.75 1.75001 10.3687 1.75001 21C1.75001 31.6312 10.3687 40.25 21 40.25C31.6312 40.25 40.25 31.6312 40.25 21C40.25 10.3687 31.6312 1.75 21 1.75Z"/>
<g clip-path="url(#access_denied)">
<path fill-rule="evenodd" clip-rule="evenodd" d="M20.8235 28.0387C19.5822 28.0594 18.5589 27.0677 18.5384 25.8233C18.5185 24.5798 19.5084 23.5548 20.7498 23.5349C21.9911 23.5141 23.0143 24.506 23.0349 25.7495C23.0349 25.762 23.0349 25.7738 23.0349 25.7864C23.0312 27.0145 22.0493 28.0144 20.8235 28.0387ZM20.8235 25.011C20.3967 24.9904 20.034 25.3212 20.0134 25.7487C19.9934 26.1763 20.323 26.5397 20.7498 26.5603C21.1766 26.5803 21.5393 26.2502 21.5598 25.8226C21.5606 25.8108 21.5606 25.7983 21.5606 25.7864C21.5813 25.3788 21.268 25.0325 20.861 25.0118C20.8485 25.011 20.836 25.011 20.8235 25.011Z"/>
<path fill-rule="evenodd" clip-rule="evenodd" d="M26.6489 33.5195H22.8528C22.4458 33.5195 22.1156 33.1888 22.1156 32.7811C22.1156 32.3735 22.4458 32.0426 22.8528 32.0426H26.6489C27.0845 32.0471 27.4406 31.6964 27.445 31.2598C27.445 31.2577 27.445 31.2548 27.445 31.2525V20.3233C27.445 19.8868 27.092 19.5331 26.6563 19.5331C26.6541 19.5331 26.6511 19.5331 26.6489 19.5331H15.0023C14.5666 19.5331 14.2135 19.8868 14.2135 20.3233V31.2525C14.2135 31.689 14.5666 32.0426 15.0023 32.0426H20.8256C21.2325 32.0426 21.5627 32.3735 21.5627 32.7811C21.5627 33.1888 21.2325 33.5195 20.8256 33.5195H15.0023C13.7542 33.5151 12.7429 32.5027 12.7393 31.2525V20.3233C12.7429 19.073 13.7542 18.0598 15.0023 18.0562H26.6489C27.8999 18.0562 28.9149 19.0701 28.9193 20.3233V31.2525C28.9156 32.5057 27.8999 33.5195 26.6489 33.5195Z"/>
<path fill-rule="evenodd" clip-rule="evenodd" d="M15.8778 22.2578C15.4708 22.2578 15.1406 21.927 15.1406 21.5194V14.2456C15.1406 11.1012 17.6853 8.55202 20.824 8.55202C23.9627 8.55202 26.5072 11.1012 26.5072 14.2456V18.7944C26.5072 19.2021 26.1769 19.5329 25.77 19.5329C25.3632 19.5329 25.033 19.2021 25.033 18.7944V14.2456C25.033 11.9164 23.1489 10.0289 20.824 10.0289C18.499 10.0289 16.6149 11.9164 16.6149 14.2456V21.5194C16.6149 21.927 16.2847 22.2578 15.8778 22.2578Z"/>
<path fill-rule="evenodd" clip-rule="evenodd" d="M20.825 33.5195C20.4181 33.5195 20.0879 33.1888 20.0879 32.7811V27.3017C20.0879 26.894 20.4181 26.5632 20.825 26.5632C21.232 26.5632 21.5622 26.894 21.5622 27.3017V32.7811C21.5622 33.1888 21.232 33.5195 20.825 33.5195Z"/>
</g>
<line x1="6.46967" y1="33.4697" x2="33.4697" y2="6.46967" stroke="#ED8B00" stroke-width="1.5"/>
<defs>
<clipPath id="access_denied">
<rect width="17.8839" height="25.2" fill="white" transform="translate(12.0752 8.39844)"/>
</clipPath>
</defs>
</svg>
