<svg width="100%" height="100%" viewBox="0 0 20 20" fill="none" xmlns="http://www.w3.org/2000/svg">
<path d="M0 10C0 4.47715 4.47715 0 10 0C15.5228 0 20 4.47715 20 10C20 15.5228 15.5228 20 10 20C4.47715 20 0 15.5228 0 10Z" fill="white"/>
<path fill-rule="evenodd" clip-rule="evenodd" d="M10 20C4.47708 20 0 15.5228 0 10C0 4.4772 4.47708 0 10 0C15.5229 0 20 4.4772 20 10C20 15.5228 15.5229 20 10 20ZM10 0.833368C4.93752 0.833368 0.833339 4.93738 0.833339 10C0.833339 15.0626 4.93752 19.1666 10 19.1666C15.0625 19.1666 19.1666 15.0626 19.1666 10C19.1666 4.93738 15.0625 0.833368 10 0.833368Z" fill="#1E1E1E"/>
<path fill-rule="evenodd" clip-rule="evenodd" d="M9.99306 16.1127C9.95795 16.1169 9.92205 16.1169 9.88694 16.1127L9.7808 16.0841C9.74453 16.0727 9.71024 16.0559 9.67878 16.0351C9.64332 16.0114 9.60904 15.9856 9.57681 15.9574L6.82209 13.0505L5.91201 12.0611C5.76957 11.8861 5.7953 11.6285 5.96956 11.4859C6.12667 11.3571 6.35441 11.3636 6.50378 11.501L7.42611 12.4781L10.0053 15.201L14.7108 10.2255C15.6869 9.19392 15.6869 7.57737 14.7108 6.54588C14.2737 6.07607 13.666 5.80343 13.0253 5.78952C12.0932 5.83367 11.2039 6.19425 10.5032 6.81159C10.7256 7.05485 10.9101 7.33082 11.0501 7.62926C11.3892 8.29489 11.2766 9.10193 10.7685 9.64897C10.4424 10.0227 9.9343 10.1805 9.45436 10.0578C8.9732 9.97275 8.58426 9.61787 8.45451 9.14608C8.25045 8.32842 8.86261 7.39217 9.31154 6.85251C8.52795 6.24331 7.51997 5.80995 6.97716 5.81814C6.33767 5.83119 5.73086 6.10429 5.29579 6.57446C4.73588 7.16854 4.47751 7.98579 4.59385 8.7945C4.85096 9.35954 5.17538 9.89061 5.56104 10.3767C5.69529 10.5582 5.65694 10.8142 5.47616 10.9486C5.47575 10.9486 5.47577 10.9491 5.47536 10.9491C5.29417 11.0836 5.03866 11.0451 4.90441 10.864C4.90441 10.8636 4.904 10.8636 4.904 10.8632C4.59382 10.4544 3.85521 9.39546 3.78581 8.90895C3.63356 7.85172 3.97185 6.78257 4.704 6.00618C5.29209 5.38029 6.1071 5.01759 6.96491 5.00044C7.69953 5.00044 8.94831 5.49514 9.90738 6.27193C10.7742 5.49797 11.8818 5.04868 13.0416 5.00044C13.8982 5.01759 14.7119 5.38029 15.2984 6.00618C16.5672 7.35698 16.5672 9.46333 15.2984 10.8142L10.4461 15.9451C10.411 15.9803 10.373 16.0118 10.3318 16.0392L10.2298 16.0923L10.1196 16.125L9.99306 16.1127ZM9.90331 7.38398C9.49516 7.85416 9.14012 8.53693 9.234 8.92123C9.234 8.98257 9.29515 9.14609 9.64205 9.2442C9.82046 9.29001 10.0094 9.2352 10.1359 9.10112C10.4297 8.79612 10.4893 8.33453 10.2828 7.96454C10.1889 7.75437 10.0653 7.55896 9.91551 7.38398H9.90331Z" fill="#1E1E1E"/>
</svg>
