<svg width="100%" height="100%" viewBox="0 0 20 20" fill="none" xmlns="http://www.w3.org/2000/svg">
<path d="M0 10C0 4.47715 4.47715 0 10 0C15.5228 0 20 4.47715 20 10C20 15.5228 15.5228 20 10 20C4.47715 20 0 15.5228 0 10Z" fill="white"/>
<path fill-rule="evenodd" clip-rule="evenodd" d="M10 20C4.47708 20 0 15.5228 0 10C0 4.4772 4.47708 0 10 0C15.5229 0 20 4.4772 20 10C20 15.5228 15.5229 20 10 20ZM10 0.833368C4.93752 0.833368 0.833339 4.93738 0.833339 10C0.833339 15.0626 4.93752 19.1666 10 19.1666C15.0625 19.1666 19.1666 15.0626 19.1666 10C19.1666 4.93738 15.0625 0.833368 10 0.833368Z" fill="#1E1E1E"/>
<path fill-rule="evenodd" clip-rule="evenodd" d="M9.83075 16.8564C8.6963 16.8564 7.77236 15.9464 7.75704 14.8134C6.69692 14.2906 5.78844 13.5056 5.11821 12.5327C4.94671 12.3401 4.96382 12.0453 5.15653 11.8741C5.3492 11.7029 5.64443 11.7202 5.81593 11.9123C5.83641 11.9352 5.85458 11.9604 5.87016 11.987C6.36893 12.7067 7.01328 13.3135 7.7617 13.7687V9.5383C7.10927 9.37782 6.51625 9.03501 6.05228 8.54944C5.59151 8.02798 5.38773 7.32882 5.49649 6.64183C5.64597 5.41513 6.65945 4.54293 7.78039 4.10454V3.59141C7.78039 3.334 7.98949 3.125 8.24741 3.125C8.50537 3.125 8.71447 3.334 8.71447 3.59141V3.85732C9.58775 3.723 10.4813 3.85449 11.2786 4.23509C11.6048 4.38759 11.902 4.59608 12.1566 4.85076C12.5976 4.73508 13.067 4.80925 13.4504 5.056C13.8643 5.29574 14.058 5.78873 13.9174 6.24535C13.8149 6.54196 13.5656 6.7645 13.2589 6.83305C12.8513 6.95712 12.4087 6.83723 12.1193 6.52517C12.1193 6.5672 12.1193 6.61386 12.1193 6.65583V6.79572C12.0679 7.16885 12.0399 7.54663 12.0165 7.94779V8.2276C12.0165 8.47018 11.9838 8.69401 11.9792 8.95055C12.3262 8.99535 12.6674 9.07653 12.9973 9.19313C13.8227 9.48927 14.4564 10.1618 14.7021 11.0028C14.9656 11.9179 14.7802 12.9039 14.2023 13.6614C13.6267 14.3792 12.8335 14.8914 11.9418 15.1213C11.7848 16.1325 10.9116 16.8778 9.88679 16.875L9.83075 16.8564ZM8.75652 15.1632C8.81232 15.3228 8.90332 15.4678 9.02272 15.5877C9.4688 16.0345 10.1933 16.0359 10.641 15.5905C10.7269 15.5052 10.7986 15.4067 10.8535 15.2985C10.4498 15.3377 10.043 15.3377 9.63925 15.2985C9.34203 15.2752 9.04696 15.2299 8.75652 15.1632ZM8.69111 14.1791C9.02848 14.284 9.37606 14.3531 9.72798 14.3843C10.1422 14.4198 10.5591 14.4076 10.9703 14.347V13.7267C10.9703 12.9291 10.9703 12.1315 10.9703 11.3386C10.9703 11.0681 10.9703 10.8022 10.9703 10.5364C10.9703 10.2706 10.9703 10.042 10.9703 9.79478C10.6948 9.79478 10.4146 9.79478 10.139 9.79478H9.69996C9.36722 9.79617 9.0348 9.77475 8.70514 9.72948L8.69111 14.1791ZM11.9044 9.86941C11.9044 10.0933 11.9044 10.3358 11.9044 10.5364C11.9044 10.737 11.9044 11.0775 11.9044 11.348C11.9044 12.1362 11.9044 12.9291 11.9044 13.7173V14.1231C12.4937 13.9301 13.0134 13.5681 13.399 13.083C13.7983 12.5611 13.9281 11.882 13.7493 11.25C13.5896 10.6908 13.1683 10.2439 12.619 10.0513C12.3869 9.96876 12.1477 9.90814 11.9044 9.86941ZM8.7098 8.78734C9.03597 8.83678 9.36539 8.8615 9.6953 8.86196H10.1296C10.4146 8.86196 10.7041 8.86196 10.989 8.86196C10.989 8.62407 10.989 8.3955 11.0264 8.1437V7.86847C11.0544 7.46737 11.0824 7.05694 11.1385 6.64646V6.51585C11.1682 6.14462 11.2631 5.78178 11.4187 5.4431C11.2509 5.28545 11.0584 5.15628 10.8489 5.06063C10.1855 4.73694 9.43373 4.63995 8.7098 4.7855H8.68178L8.7098 8.78734ZM7.77569 5.11662C7.08035 5.40442 6.57299 6.01777 6.42128 6.75374C6.34926 7.1754 6.471 7.60684 6.75288 7.92909C7.0325 8.2206 7.38102 8.43706 7.76636 8.55877L7.77569 5.11662ZM12.6984 5.71828C12.8339 5.94221 12.9273 5.93752 13.044 5.90956C13.044 5.88623 13.0207 5.85821 12.9599 5.81624C12.8804 5.76587 12.7914 5.7328 12.6984 5.71828Z" fill="#1E1E1E"/>
</svg>
