<svg width="100%" height="100%" viewBox="0 0 20 20" fill="none" xmlns="http://www.w3.org/2000/svg">
<path d="M0 10C0 4.47715 4.47715 0 10 0C15.5228 0 20 4.47715 20 10C20 15.5228 15.5228 20 10 20C4.47715 20 0 15.5228 0 10Z" fill="white"/>
<path fill-rule="evenodd" clip-rule="evenodd" d="M10 20C4.47708 20 0 15.5228 0 10C0 4.4772 4.47708 0 10 0C15.5229 0 20 4.4772 20 10C20 15.5228 15.5229 20 10 20ZM10 0.833368C4.93752 0.833368 0.833339 4.93738 0.833339 10C0.833339 15.0626 4.93752 19.1666 10 19.1666C15.0625 19.1666 19.1666 15.0626 19.1666 10C19.1666 4.93738 15.0625 0.833368 10 0.833368Z" fill="#1E1E1E"/>
<path fill-rule="evenodd" clip-rule="evenodd" d="M14.8001 13.7783H6.79938C6.53555 13.7783 6.32146 13.5681 6.32146 13.3091L6.19719 6.52474L4.09427 5.91952C3.84092 5.84679 3.69521 5.5864 3.76931 5.33772C3.84336 5.08904 4.10861 4.94597 4.3619 5.01867L6.80417 5.72245C7.00492 5.77968 7.14394 5.95844 7.14827 6.16351L7.26775 12.8353H14.4368L15.8706 8.14345H8.85448C8.5907 8.14345 8.37663 7.93323 8.37663 7.67428C8.37663 7.41528 8.5907 7.20506 8.85448 7.20506H16.5254C16.7892 7.20694 17.0019 7.41854 17 7.67754C16.9995 7.72258 16.9928 7.76716 16.9794 7.81032L15.2588 13.4405C15.1996 13.6408 15.0122 13.7783 14.8001 13.7783Z" fill="#1E1E1E"/>
<path fill-rule="evenodd" clip-rule="evenodd" d="M7.3444 16.043C6.43917 16.043 5.70508 15.3223 5.70508 14.4336C5.70508 13.545 6.43917 12.8243 7.3444 12.8243C8.24963 12.8243 8.98374 13.545 8.98374 14.4336C8.98374 15.3223 8.24963 16.043 7.3444 16.043ZM7.3444 13.7674C6.96683 13.7674 6.66095 14.0677 6.66095 14.4383C6.66095 14.809 6.96683 15.1093 7.3444 15.1093C7.72197 15.1093 8.02786 14.809 8.02786 14.4383C8.02786 14.4369 8.02786 14.4351 8.02786 14.4336C8.02544 14.0648 7.72002 13.7674 7.3444 13.7674Z" fill="#1E1E1E"/>
<path fill-rule="evenodd" clip-rule="evenodd" d="M14.2554 16.043C13.3502 16.0458 12.6142 15.327 12.6113 14.4383C12.609 13.5497 13.3407 12.8271 14.2459 12.8243C15.1511 12.822 15.8871 13.5403 15.89 14.4289C15.89 14.4304 15.89 14.4322 15.89 14.4336C15.8876 15.3195 15.1578 16.0378 14.2554 16.043ZM14.2554 13.7674C13.8779 13.7646 13.5701 14.063 13.5672 14.4336C13.5648 14.8043 13.8683 15.1064 14.2459 15.1093C14.6234 15.1116 14.9312 14.8137 14.9341 14.443C14.9341 14.4397 14.9341 14.4369 14.9341 14.4336C14.9317 14.0667 14.6292 13.7697 14.2554 13.7674Z" fill="#1E1E1E"/>
</svg>
