<svg width="100%" height="100%" viewBox="0 0 34 34" fill="none" xmlns="http://www.w3.org/2000/svg">
<g filter="url(#addAudiences)">
<circle cx="17" cy="16" r="11.75" fill="white" stroke="#005587" stroke-width="0.5"/>
<path d="M25 14.2017C25 14.4746 24.7805 14.6928 24.5062 14.6928H22.5309V16.6571C22.5309 16.9299 22.3114 17.1482 22.037 17.1482C21.7627 17.1482 21.5432 16.9299 21.5432 16.6571V14.6928H19.5679C19.2935 14.6928 19.0741 14.4746 19.0741 14.2017C19.0741 13.9289 19.2935 13.7107 19.5679 13.7107H21.5432V11.7464C21.5432 11.4735 21.7627 11.2553 22.037 11.2553C22.3114 11.2553 22.5309 11.4735 22.5309 11.7464V13.7107H24.5062C24.7805 13.7107 25 13.9289 25 14.2017Z" fill="#005587"/>
<path d="M19.5461 20.272C19.0128 19.9773 18.3017 19.9184 17.7091 19.8595C17.3535 19.8005 16.9387 19.8005 16.8202 19.7416C16.5239 19.5648 16.1683 18.5041 16.2869 18.2094C16.7017 17.5612 17.1757 16.5005 17.4128 15.5576C17.8276 13.9076 17.6498 12.6701 16.9387 11.7862C15.9906 10.6076 14.4498 10.6665 14.4498 10.6665C14.3906 10.6665 12.8498 10.6665 11.9017 11.7862C11.1906 12.6701 11.0128 13.9076 11.4276 15.5576C11.6646 16.5005 12.1387 17.5612 12.5535 18.2094C12.6128 18.5041 12.3165 19.5648 12.0202 19.7416C11.8424 19.8005 11.4869 19.8595 11.1313 19.8595C10.5387 19.9184 9.8276 19.9773 9.29427 20.272C8.99797 20.3898 8.93871 20.7434 9.05723 21.038C9.17575 21.3327 9.5313 21.3916 9.8276 21.2737C10.1832 21.0969 10.7757 21.038 11.2498 20.9791C11.7832 20.9202 12.198 20.9202 12.5535 20.7434C13.2646 20.3898 13.5609 19.388 13.6202 19.0934C13.7387 18.622 13.798 18.0327 13.5609 17.6202C13.2054 17.0898 12.7906 16.1469 12.6128 15.3219C12.3165 14.0255 12.3757 13.0826 12.8498 12.4933C13.4424 11.7272 14.5091 11.7272 14.5683 11.7862C14.5683 11.7862 15.635 11.7862 16.2276 12.4933C16.7017 13.0826 16.8202 14.0255 16.4646 15.3219C16.2869 16.1469 15.872 17.0898 15.5165 17.6202C15.2202 17.9737 15.3387 18.622 15.4572 19.0934C15.5165 19.388 15.8128 20.3898 16.5239 20.7434C16.8795 20.9202 17.2943 20.9791 17.8276 20.9791C18.3609 21.038 18.8943 21.0969 19.2498 21.2737C19.3091 21.3327 19.4276 21.3327 19.4869 21.3327C19.6646 21.3327 19.9017 21.2148 19.9609 21.038C19.9017 20.8023 19.8424 20.4488 19.5461 20.272Z" fill="#005587"/>
</g>
<defs>
<filter id="addAudiences" x="0" y="0" width="34" height="34" filterUnits="userSpaceOnUse" color-interpolation-filters="sRGB">
<feFlood flood-opacity="0" result="BackgroundImageFix"/>
<feColorMatrix in="SourceAlpha" type="matrix" values="0 0 0 0 0 0 0 0 0 0 0 0 0 0 0 0 0 0 127 0" result="hardAlpha"/>
<feOffset dy="1"/>
<feGaussianBlur stdDeviation="2.5"/>
<feComposite in2="hardAlpha" operator="out"/>
<feColorMatrix type="matrix" values="0 0 0 0 0.117647 0 0 0 0 0.117647 0 0 0 0 0.117647 0 0 0 0.25 0"/>
<feBlend mode="normal" in2="BackgroundImageFix" result="effect1_dropShadow_15717_64909"/>
<feBlend mode="normal" in="SourceGraphic" in2="effect1_dropShadow_15717_64909" result="shape"/>
</filter>
</defs>
</svg>
