<svg width="100%" height="100%" viewBox="0 0 13 9" fill="none" xmlns="http://www.w3.org/2000/svg">
<path fill-rule="evenodd" clip-rule="evenodd" d="M6.50162 6.41406C6.42768 6.41344 6.35492 6.3938 6.2903 6.35715L0.398326 2.78274C0.206902 2.66682 0.145151 2.41772 0.260131 2.22562C0.375111 2.03285 0.624652 1.96999 0.817241 2.08524C0.818451 2.08596 0.81971 2.08667 0.82092 2.08734L6.50974 5.53164L11.9182 2.2785C11.9666 2.2522 11.9938 2.19901 11.9873 2.1443V1.45298C11.9873 1.27002 11.78 1.11549 11.5362 1.11549H1.46697C1.27313 1.09945 1.09237 1.21397 1.02408 1.39608C0.971254 1.62066 0.746532 1.75992 0.522218 1.70714C0.297949 1.65435 0.158551 1.42954 0.211381 1.20496C0.36745 0.662998 0.866845 0.293064 1.43045 0.302205H11.4997C12.1713 0.256634 12.7528 0.764591 12.7984 1.43682C12.7992 1.44627 12.7995 1.45572 12.8 1.46522V2.1443C12.8003 2.47943 12.6224 2.78933 12.3327 2.95758L6.70478 6.35715C6.64259 6.3925 6.57313 6.41209 6.50162 6.41406Z"/>
<path fill-rule="evenodd" clip-rule="evenodd" d="M12.3937 2.2832C12.1694 2.2832 11.9873 2.10114 11.9873 1.87656V1.62443C11.9873 1.39985 12.1694 1.21773 12.3937 1.21773C12.6179 1.21773 12.8 1.39985 12.8 1.62443V1.87656C12.8 2.10114 12.6179 2.2832 12.3937 2.2832Z"/>
<path fill-rule="evenodd" clip-rule="evenodd" d="M11.6174 8.85449H1.38559C0.733395 8.85221 0.205141 8.32377 0.203125 7.67113V2.43766C0.203125 2.21308 0.385184 2.03102 0.609453 2.03102C0.833767 2.03102 1.01582 2.21308 1.01582 2.43766V7.67113C1.01582 7.87555 1.18117 8.04117 1.38559 8.04117H11.6174C11.8217 8.04117 11.9871 7.87555 11.9871 7.67113V3.81214C11.9871 3.58751 12.1691 3.40546 12.3935 3.40546C12.6178 3.40546 12.7998 3.58751 12.7998 3.81214V7.67113C12.7978 8.32377 12.2696 8.85221 11.6174 8.85449Z"/>
</svg>
