<svg width="100%" height="100%" viewBox="0 0 21 22" fill="none" xmlns="http://www.w3.org/2000/svg">
<g clip-path="url(#alert-error0)">
<path fill-rule="evenodd" clip-rule="evenodd" d="M10.5 21.5C4.70089 21.5 0 16.7991 0 11C0 5.20095 4.70089 0.5 10.5 0.5C16.299 0.5 21 5.20095 21 11C21 16.7991 16.299 21.5 10.5 21.5ZM10.5 1.375C5.18435 1.375 0.875005 5.68434 0.875005 11C0.875005 16.3156 5.18435 20.625 10.5 20.625C15.8156 20.625 20.125 16.3156 20.125 11C20.125 5.68434 15.8156 1.375 10.5 1.375Z" />
<path fill-rule="evenodd" clip-rule="evenodd" d="M10.3206 14.4766C10.0827 14.4766 9.88965 14.2834 9.88965 14.0454V4.08039C9.88965 3.84239 10.0827 3.6492 10.3206 3.6492C10.5584 3.6492 10.7515 3.84239 10.7515 4.08039V14.0454C10.7515 14.2834 10.5584 14.4766 10.3206 14.4766Z" />
<path fill-rule="evenodd" clip-rule="evenodd" d="M10.2388 18.3472C10.0578 18.3463 9.87684 18.3265 9.70018 18.2869C9.05298 18.1609 8.54409 17.6599 8.40753 17.0148C8.35664 16.4927 8.58029 15.9817 8.99785 15.6652C9.43086 15.3767 9.9251 15.1935 10.4413 15.1305H10.5232H10.5447C10.9756 15.0443 11.1393 14.9925 11.2471 14.8071C11.3668 14.6036 11.6284 14.5341 11.8331 14.6519C12.0381 14.7704 12.1093 15.0322 11.9925 15.2383C11.911 15.3801 11.8042 15.5056 11.6779 15.6091C11.7366 15.6566 11.7912 15.7083 11.8417 15.7643C12.1989 16.1253 12.3428 16.6466 12.2208 17.1398C12.0907 17.5314 11.8141 17.8574 11.4496 18.0497C11.0786 18.2528 10.6615 18.3554 10.2388 18.3472ZM10.5878 15.98C10.2108 16.0209 9.84757 16.1447 9.52352 16.3422C9.34425 16.4694 9.24042 16.6785 9.24774 16.8984C9.28651 17.1657 9.60106 17.377 9.89403 17.446C10.2737 17.531 10.671 17.4727 11.0101 17.2822C11.1777 17.1994 11.3095 17.0584 11.3806 16.8855C11.4168 16.6841 11.3487 16.478 11.1997 16.3378C11.0307 16.1667 10.8196 16.0434 10.5878 15.98Z" />
</g>
<defs>
<clipPath id="alert-error0">
<path d="M0 11C0 5.20101 4.70101 0.5 10.5 0.5C16.299 0.5 21 5.20101 21 11C21 16.799 16.299 21.5 10.5 21.5C4.70101 21.5 0 16.799 0 11Z" fill="white"/>
</clipPath>
</defs>
</svg>
