<svg width="21" height="22" viewBox="0 0 21 22" fill="none" xmlns="http://www.w3.org/2000/svg">
<path fill-rule="evenodd" clip-rule="evenodd" d="M10.5 21.5C4.70092 21.5 0 16.7991 0 11C0 5.2009 4.70092 0.5 10.5 0.5C16.2991 0.5 21 5.2009 21 11C21 16.7991 16.2991 21.5 10.5 21.5ZM10.5 1.37497C5.18436 1.37497 0.875013 5.68438 0.875013 11C0.875013 16.3157 5.18436 20.625 10.5 20.625C15.8156 20.625 20.125 16.3157 20.125 11C20.125 5.68438 15.8156 1.37497 10.5 1.37497Z" />
<path fill-rule="evenodd" clip-rule="evenodd" d="M7.20717 17.4844C6.73255 17.4844 6.34803 17.0992 6.34803 16.6237V14.9023H5.05937C4.5847 14.9023 4.2002 14.5172 4.2002 14.0416V12.3203C4.2002 12.0827 4.39262 11.8899 4.62977 11.8899C4.86691 11.8899 5.05937 12.0827 5.05937 12.3203V14.0416H6.77766C7.01476 14.0416 7.20717 14.2344 7.20717 14.472V16.6237L9.22614 14.1965C9.30776 14.098 9.42931 14.0416 9.55688 14.0416H17.0872V9.66074C17.0872 9.41975 17.0872 9.17446 17.0872 8.93779C16.9157 8.94291 16.7444 8.92874 16.576 8.89472C16.0721 8.79406 15.649 8.45365 15.4419 7.98239C15.2143 7.52538 15.3994 6.96937 15.8556 6.74132C16.0506 6.64364 16.274 6.6182 16.4858 6.66989C16.9793 6.80026 17.3969 7.13077 17.637 7.58218C17.6903 7.69104 17.7362 7.80294 17.7745 7.91786C17.9278 7.84685 18.0722 7.75732 18.204 7.65101C18.3905 7.50387 18.6607 7.53528 18.8076 7.72207C18.9545 7.90882 18.9231 8.1795 18.7367 8.32668C18.488 8.51342 18.2109 8.65848 17.9162 8.75701C17.942 9.05826 17.942 9.3595 17.942 9.64354V14.0416C17.942 14.5172 17.5576 14.9023 17.0829 14.9023H9.75879L7.86872 17.1745C7.70505 17.3712 7.46275 17.4848 7.20717 17.4844ZM16.2538 7.50904C16.2328 7.50733 16.2122 7.51505 16.198 7.53054C16.1894 7.57446 16.1894 7.62008 16.198 7.66394C16.3011 7.86921 16.4956 8.01294 16.722 8.05121C16.7727 8.06287 16.8247 8.07021 16.8767 8.07277C16.8625 8.0362 16.847 8.00006 16.8295 7.96519C16.7057 7.7522 16.5085 7.59166 16.2753 7.5133L16.2538 7.50904ZM4.62977 7.96087C4.39262 7.96087 4.2002 7.76807 4.2002 7.53054V6.29545C4.2002 5.81993 4.5847 5.43479 5.05937 5.43479H15.6352C15.8724 5.43479 16.0648 5.62755 16.0648 5.86512C16.0648 6.1027 15.8724 6.29545 15.6352 6.29545H5.05937V7.53054C5.05937 7.76807 4.86691 7.96087 4.62977 7.96087Z" />
<path fill-rule="evenodd" clip-rule="evenodd" d="M4.62977 13.9058C4.39267 13.9058 4.20022 13.713 4.20022 13.4754V12.2103C4.19804 11.8819 4.32093 11.5647 4.54386 11.3237C4.32093 11.0828 4.19804 10.7656 4.20022 10.4372V10.0585C4.19804 9.73019 4.32093 9.41298 4.54386 9.172C4.32093 8.93102 4.19804 8.61386 4.20022 8.28552V7.0203C4.20022 6.78278 4.39267 6.58997 4.62977 6.58997C4.86691 6.58997 5.0594 6.78278 5.0594 7.0203V8.28552C5.05679 8.52863 5.24665 8.73006 5.48891 8.74167H13.7881C14.0252 8.74167 14.2177 8.93447 14.2177 9.172C14.2177 9.40957 14.0252 9.60237 13.7881 9.60237H5.51037C5.26815 9.61398 5.07829 9.81536 5.08085 10.0585V10.4372C5.07829 10.6804 5.26815 10.8818 5.51037 10.8934H10.3387C10.5758 10.8934 10.7682 11.0862 10.7682 11.3237C10.7682 11.5613 10.5758 11.7541 10.3387 11.7541H5.51037C5.26815 11.7657 5.07829 11.9671 5.08085 12.2103V13.4754C5.08123 13.713 4.88926 13.9062 4.65168 13.9062C4.64439 13.9062 4.63706 13.9063 4.62977 13.9058Z" />
</svg>
