<svg width="100%" height="100%" viewBox="0 0 42 42" fill="none" xmlns="http://www.w3.org/2000/svg">
<path d="M0 21C0 9.40202 9.40202 0 21 0C32.598 0 42 9.40202 42 21C42 32.598 32.598 42 21 42C9.40202 42 0 32.598 0 21Z" fill="white"/>
<path fill-rule="evenodd" clip-rule="evenodd" d="M20.9999 42C9.40207 42 0 32.5981 0 21C0 9.40189 9.40207 0 20.9999 0C32.5981 0 42 9.40189 42 21C42 32.5981 32.5981 42 20.9999 42ZM20.9999 1.75C10.3685 1.75 1.75003 10.3687 1.75003 21C1.75003 31.6312 10.3685 40.25 20.9999 40.25C31.6312 40.25 40.25 31.6312 40.25 21C40.25 10.3687 31.6312 1.75 20.9999 1.75Z" fill="#DA291C"/>
<path fill-rule="evenodd" clip-rule="evenodd" d="M11.7248 31.041C11.5302 31.0403 11.3437 30.9615 11.2075 30.822C11.0443 30.6541 10.9707 30.4184 11.0107 30.187L11.9141 24.8952C11.9397 24.7455 12.0111 24.6082 12.1182 24.5009L25.9616 10.6326C26.8133 9.78811 28.1845 9.78811 29.0362 10.6326L31.3678 12.961C32.2107 13.8142 32.2107 15.188 31.3678 16.0412L30.3623 17.085C30.0789 17.3712 29.6177 17.3733 29.3321 17.0894C29.3306 17.088 29.3292 17.0865 29.3277 17.085C29.045 16.8004 29.045 16.3405 29.3277 16.0558L30.3623 15.0266C30.6356 14.7435 30.6356 14.2953 30.3623 14.0121L28.0308 11.6764C27.7481 11.4027 27.3008 11.4027 27.0181 11.6764L13.3131 25.3695L12.5845 29.4133L16.6209 28.7199L27.9434 17.377C28.2486 17.115 28.7092 17.1508 28.9706 17.4566C29.2046 17.7295 29.2046 18.1332 28.9706 18.4062L17.488 29.9169C17.378 30.0198 17.2417 30.0906 17.0946 30.1213L11.8122 31.0264L11.7248 31.041Z" fill="#DA291C"/>
<path fill-rule="evenodd" clip-rule="evenodd" d="M28.4899 18.623C28.2975 18.6201 28.1147 18.5412 27.9799 18.4041L23.6593 14.083C23.3766 13.7983 23.3766 13.3384 23.6593 13.0538C23.9427 12.7676 24.4039 12.7655 24.6895 13.0493C24.691 13.0508 24.6924 13.0523 24.6938 13.0538L29.0073 17.3749C29.2928 17.6587 29.295 18.1208 29.0116 18.407C28.8739 18.5463 28.6858 18.6245 28.4899 18.623Z" fill="#DA291C"/>
<path fill-rule="evenodd" clip-rule="evenodd" d="M25.5025 18.623C25.3116 18.6222 25.128 18.5463 24.9924 18.4113L22.1655 15.5793L23.2002 14.5501L25.9907 17.3748C26.2763 17.6588 26.2784 18.1208 25.995 18.407C25.8573 18.5463 25.6694 18.6245 25.4733 18.623H25.5025Z" fill="#DA291C"/>
<path fill-rule="evenodd" clip-rule="evenodd" d="M17.0366 30.0039C16.842 30.0031 16.6555 29.9243 16.5193 29.7849L12.3371 25.5951C12.0545 25.3105 12.0545 24.8507 12.3371 24.566C12.6205 24.2799 13.0817 24.2777 13.3674 24.5616C13.3688 24.5631 13.3703 24.5645 13.3717 24.566L17.5539 28.7557C17.8395 29.0396 17.8417 29.5017 17.5582 29.7878C17.4205 29.9272 17.2326 30.0053 17.0366 30.0039Z" fill="#DA291C"/>
<path fill-rule="evenodd" clip-rule="evenodd" d="M12.6572 30.668C12.4641 30.6636 12.2805 30.5818 12.1471 30.4417L11.4186 29.7117C11.157 29.4059 11.1927 28.9446 11.498 28.6825C11.7705 28.4482 12.1734 28.4482 12.4459 28.6825L13.1745 29.4124C13.4565 29.7001 13.4515 30.1629 13.1644 30.4447C13.0288 30.5774 12.8467 30.6526 12.6572 30.6534V30.668Z" fill="#DA291C"/>
</svg>
