<svg width="21" height="22" viewBox="0 0 21 22" fill="none" xmlns="http://www.w3.org/2000/svg">
<path fill-rule="evenodd" clip-rule="evenodd" d="M10.5 21.5C4.70094 21.5 0 16.7991 0 11C0 5.20093 4.70094 0.5 10.5 0.5C16.2991 0.5 21 5.20093 21 11C21 16.7991 16.2991 21.5 10.5 21.5ZM10.5 1.37501C5.18438 1.37501 0.875013 5.6844 0.875013 11C0.875013 16.3156 5.18438 20.625 10.5 20.625C15.8156 20.625 20.125 16.3156 20.125 11C20.125 5.6844 15.8156 1.37501 10.5 1.37501Z" />
<path fill-rule="evenodd" clip-rule="evenodd" d="M8.4959 15.8945C8.38071 15.8941 8.27033 15.8474 8.18966 15.7649L5.69264 13.2288C5.36191 12.8784 5.01387 12.5453 4.64899 12.2308C4.55411 12.153 4.45922 12.0666 4.36867 11.9802L4.3342 11.9456C4.1617 11.781 4.15476 11.5071 4.31908 11.3343C4.48339 11.1615 4.75685 11.1546 4.92935 11.3192L4.96379 11.3537C5.04145 11.4272 5.11474 11.5006 5.19668 11.5654C5.58524 11.8994 5.95659 12.2524 6.30934 12.6239L8.4959 14.8447L16.0602 7.13695C16.2271 6.96632 16.5001 6.96329 16.6705 7.13048C16.8408 7.29767 16.8438 7.57117 16.677 7.74183L8.80641 15.7649C8.72484 15.8483 8.61275 15.8954 8.4959 15.8945Z" />
</svg>
