<svg width="100%" height="100%" viewBox="0 0 42 42" fill="none" xmlns="http://www.w3.org/2000/svg">
<path d="M0 21C0 9.40202 9.40202 0 21 0C32.598 0 42 9.40202 42 21C42 32.598 32.598 42 21 42C9.40202 42 0 32.598 0 21Z" fill="white"/>
<path fill-rule="evenodd" clip-rule="evenodd" d="M20.9999 42C9.40188 42 0 32.5981 0 21C0 9.40189 9.40188 0 20.9999 0C32.5981 0 42 9.40189 42 21C42 32.5981 32.5981 42 20.9999 42ZM20.9999 1.75C10.3688 1.75 1.75002 10.3687 1.75002 21C1.75002 31.6312 10.3688 40.25 20.9999 40.25C31.6312 40.25 40.25 31.6312 40.25 21C40.25 10.3687 31.6312 1.75 20.9999 1.75Z" fill="#00A3E0"/>
<path fill-rule="evenodd" clip-rule="evenodd" d="M11.689 21.2051C11.3087 21.2051 11 20.8962 11 20.5156C11.0138 14.7092 15.7289 10.0127 21.5319 10.0271C24.2979 10.0333 26.9504 11.1316 28.9126 13.0834C29.1826 13.3537 29.1826 13.7922 28.9126 14.0624C28.6425 14.3327 28.2043 14.3327 27.9343 14.0624C24.371 10.4987 18.5956 10.5001 15.0345 14.0652C13.3252 15.7764 12.3648 18.0964 12.3641 20.5156C12.3641 20.8914 12.0638 21.1975 11.689 21.2051Z" fill="#00A3E0"/>
<path fill-rule="evenodd" clip-rule="evenodd" d="M14.5617 28.1484C14.3812 28.1477 14.2076 28.076 14.0795 27.9485C13.8094 27.6802 13.8073 27.2438 14.0754 26.9736C14.0767 26.9722 14.0781 26.9708 14.0795 26.9694L27.9479 13.084C28.218 12.8137 28.6562 12.8137 28.9262 13.084C29.1962 13.3542 29.1962 13.7927 28.9262 14.0629L15.0508 27.9485C14.9207 28.0774 14.745 28.1498 14.5617 28.1484Z" fill="#00A3E0"/>
<path fill-rule="evenodd" clip-rule="evenodd" d="M12.8877 25.8594C12.6336 25.8587 12.4006 25.7181 12.2815 25.494C9.52912 20.3866 11.4354 14.0133 16.5398 11.259C20.6259 9.05342 25.6739 9.79597 28.9539 13.084C29.224 13.3542 29.224 13.7927 28.9539 14.0629C28.6838 14.3332 28.2457 14.3332 27.9756 14.0629C24.4124 10.4992 18.637 10.5006 15.0758 14.0657C13.3665 15.7769 12.4062 18.0969 12.4055 20.5161C12.4068 22.0267 12.7809 23.5139 13.494 24.8459C13.6731 25.1817 13.5457 25.5995 13.2095 25.7788C13.1102 25.8312 13 25.8594 12.8877 25.8594Z" fill="#00A3E0"/>
<path fill-rule="evenodd" clip-rule="evenodd" d="M21.4994 31.0234C18.7154 31.0302 16.0437 29.9237 14.0795 27.9485C13.8094 27.6803 13.808 27.2431 14.0761 26.9729C14.344 26.7026 14.7808 26.7012 15.0509 26.9695C18.6142 30.5332 24.3895 30.5319 27.9507 26.9667C29.6599 25.2555 30.6204 22.9354 30.621 20.5162C30.6196 19.0057 30.2456 17.5185 29.5325 16.1865C29.3768 15.839 29.5318 15.4309 29.879 15.2751C30.1925 15.1344 30.5625 15.2468 30.745 15.5385C33.4919 20.6486 31.5794 27.0205 26.4728 29.7693C24.9441 30.5925 23.2356 31.0234 21.4994 31.0234Z" fill="#00A3E0"/>
</svg>
