<svg width="100%" height="100%" viewBox="0 0 32 32" fill="none" xmlns="http://www.w3.org/2000/svg">
<path fill-rule="evenodd" clip-rule="evenodd" d="M8.44574 25.058C8.26493 25.058 8.08477 25.0449 7.90589 25.0189C7.54033 24.9779 7.21909 24.7586 7.04739 24.4332C6.68964 23.7174 7.17096 22.7282 7.69776 21.7716C7.74983 21.6805 7.7953 21.6024 7.82134 21.5438L12.2116 13.084C12.3735 12.7633 12.7651 12.6346 13.0851 12.7966C13.1911 12.8501 13.2802 12.9316 13.3433 13.032C13.7576 13.727 14.4574 14.2035 15.2555 14.3335C15.6118 14.3798 15.863 14.7063 15.8168 15.0627C15.8077 15.1327 15.7875 15.2006 15.7563 15.2641L11.8538 23.2293C11.1124 24.3903 9.82202 25.0826 8.44574 25.058ZM8.23108 23.7564C9.20607 23.8553 10.1537 23.3972 10.6831 22.5721L14.2278 15.4137C13.7433 15.2197 13.301 14.9323 12.927 14.5678L8.99858 22.123C8.99858 22.1816 8.92054 22.2727 8.85542 22.3898C8.58754 22.8108 8.37746 23.2664 8.23108 23.7434V23.7564Z"/>
<path fill-rule="evenodd" clip-rule="evenodd" d="M24.2907 25.0585C22.9391 25.0657 21.678 24.3805 20.9476 23.243L16.9931 15.2257C16.8981 15.0397 16.8981 14.8194 16.9931 14.6335C17.0933 14.4469 17.2773 14.3207 17.4874 14.295C18.2848 14.1722 18.9872 13.7029 19.4061 13.0131C19.5316 12.8169 19.7522 12.7027 19.985 12.7137C20.2191 12.7227 20.4305 12.857 20.5378 13.0652L24.9281 21.5249C24.9606 21.5899 24.9996 21.6681 25.0516 21.7592C25.5785 22.7158 26.0598 23.7114 25.7021 24.4208C25.5329 24.748 25.2104 24.9688 24.8435 25.0065C24.6608 25.037 24.476 25.0546 24.2907 25.0585ZM18.5085 15.3688L22.0858 22.6182C22.6289 23.405 23.5544 23.8358 24.5053 23.744C24.3661 23.2729 24.1651 22.8219 23.9069 22.4034C23.8484 22.2863 23.7964 22.1952 23.7573 22.1301L19.8549 14.5229C19.4659 14.8904 19.0081 15.1778 18.5085 15.3688Z"/>
<path fill-rule="evenodd" clip-rule="evenodd" d="M16.3689 13.6641C14.4793 13.5475 13.042 11.9204 13.159 10.0299C13.265 8.30219 14.642 6.92475 16.3689 6.81812C16.7278 6.81812 17.0192 7.10947 17.0192 7.46887C17.0192 7.82834 16.7278 8.11968 16.3689 8.11968C15.1987 7.97949 14.1372 8.81475 13.9968 9.98516C13.8569 11.1557 14.6914 12.2182 15.8615 12.3583C17.0316 12.4985 18.0931 11.6633 18.2336 10.4928C18.2433 10.4093 18.2485 10.3252 18.2485 10.2411C18.2595 9.63523 18.0254 9.05045 17.5981 8.62071C17.3581 8.35352 17.3796 7.94207 17.6469 7.70171C17.8862 7.4863 18.2472 7.47862 18.4956 7.68363C19.1825 8.35654 19.5675 9.27927 19.5624 10.2411C19.6247 12.0684 18.1952 13.6005 16.3689 13.6641Z"/>
<path fill-rule="evenodd" clip-rule="evenodd" d="M16.3691 8.11328C16.0101 8.11328 15.7188 7.82193 15.7188 7.4626V5.90073C15.7188 5.54133 16.0101 5.24998 16.3691 5.24998C16.728 5.24998 17.0194 5.54133 17.0194 5.90073V7.4626C17.0194 7.82193 16.728 8.11328 16.3691 8.11328Z"/>
<path fill-rule="evenodd" clip-rule="evenodd" d="M19.8356 20.1719H12.9024C12.5434 20.1719 12.252 19.8802 12.252 19.5211C12.252 19.1618 12.5434 18.8703 12.9024 18.8703H19.8291C20.1881 18.8703 20.4795 19.1618 20.4795 19.5211C20.4795 19.8802 20.1881 20.1719 19.8291 20.1719H19.8356Z"/>
<path fill-rule="evenodd" clip-rule="evenodd" d="M26.379 20.1719H23.127C22.768 20.1719 22.4766 19.8802 22.4766 19.5211C22.4766 19.1618 22.768 18.8703 23.127 18.8703H26.379C26.7381 18.8703 27.0295 19.1618 27.0295 19.5211C27.0295 19.8802 26.7381 20.1719 26.379 20.1719Z"/>
<path fill-rule="evenodd" clip-rule="evenodd" d="M9.5977 20.1719H6.34569C5.98672 20.1719 5.69531 19.8802 5.69531 19.5211C5.69531 19.1618 5.98672 18.8703 6.34569 18.8703H9.5977C9.95674 18.8703 10.2482 19.1618 10.2482 19.5211C10.2482 19.8802 9.95674 20.1719 9.5977 20.1719Z"/>
<path fill-rule="evenodd" clip-rule="evenodd" d="M16.3691 21.7969C16.0101 21.7969 15.7188 21.5053 15.7188 21.1461V17.8923C15.7188 17.5329 16.0101 17.2416 16.3691 17.2416C16.728 17.2416 17.0194 17.5329 17.0194 17.8923V21.1461C17.0194 21.5053 16.728 21.7969 16.3691 21.7969Z"/>
</svg>
