<svg width="100%" height="100%" viewBox="0 0 22 21" fill="none" xmlns="http://www.w3.org/2000/svg">
<path fill-rule="evenodd" clip-rule="evenodd" d="M2.83705 20.929C2.65059 20.929 2.46479 20.9156 2.28033 20.8887C1.90334 20.8464 1.57206 20.6203 1.395 20.2847C1.02607 19.5466 1.52244 18.5264 2.06569 17.54C2.11939 17.4461 2.16628 17.3655 2.19313 17.3051L6.72055 8.58098C6.88756 8.25021 7.29132 8.11748 7.62135 8.28461C7.73066 8.33977 7.8226 8.42377 7.88761 8.52729C8.3149 9.24408 9.03655 9.73546 9.85953 9.86946C10.2271 9.91723 10.486 10.2539 10.4384 10.6215C10.429 10.6936 10.4082 10.7637 10.376 10.8292L6.35162 19.0433C5.58699 20.2405 4.25632 20.9545 2.83705 20.929ZM2.61568 19.5868C3.62113 19.6888 4.59833 19.2164 5.14433 18.3655L8.79979 10.9835C8.3001 10.7834 7.84405 10.487 7.45833 10.1111L3.40715 17.9024C3.40715 17.9628 3.32668 18.0567 3.25952 18.1775C2.98327 18.6117 2.76663 19.0815 2.61568 19.5734V19.5868Z"/>
<path fill-rule="evenodd" clip-rule="evenodd" d="M19.1762 20.9296C17.7824 20.937 16.4819 20.2304 15.7286 19.0573L11.6506 10.7895C11.5527 10.5977 11.5527 10.3706 11.6506 10.1789C11.7539 9.98645 11.9437 9.85629 12.1603 9.82982C12.9827 9.70315 13.7071 9.21924 14.139 8.50785C14.2684 8.30546 14.4959 8.18772 14.736 8.19911C14.9774 8.20836 15.1954 8.34687 15.3061 8.56154L19.8335 17.2856C19.867 17.3527 19.9073 17.4333 19.9609 17.5272C20.5043 18.5137 21.0005 19.5404 20.6317 20.2719C20.4572 20.6094 20.1246 20.837 19.7463 20.8759C19.5578 20.9074 19.3673 20.9256 19.1762 20.9296ZM13.2134 10.9371L16.9024 18.413C17.4625 19.2244 18.4169 19.6686 19.3976 19.574C19.254 19.0882 19.0467 18.6231 18.7804 18.1915C18.7201 18.0708 18.6664 17.9769 18.6262 17.9097L14.6018 10.0648C14.2007 10.4438 13.7285 10.7401 13.2134 10.9371Z"/>
<path fill-rule="evenodd" clip-rule="evenodd" d="M11.0065 9.17578C9.05792 9.05554 7.57562 7.37766 7.69633 5.42809C7.80565 3.64637 9.22567 2.2259 11.0065 2.11594C11.3767 2.11594 11.6772 2.41639 11.6772 2.78702C11.6772 3.15772 11.3767 3.45817 11.0065 3.45817C9.79977 3.3136 8.70511 4.17495 8.56029 5.38194C8.41606 6.58899 9.27662 7.68469 10.4832 7.82926C11.6899 7.97376 12.7845 7.11249 12.9294 5.90543C12.9395 5.81928 12.9448 5.7326 12.9448 5.64586C12.9562 5.02107 12.7148 4.41802 12.2741 3.97485C12.0266 3.69931 12.0488 3.27501 12.3244 3.02713C12.5712 2.80499 12.9435 2.79708 13.1997 3.00849C13.908 3.70242 14.3051 4.65399 14.2997 5.64586C14.3641 7.53028 12.8899 9.11026 11.0065 9.17578Z"/>
<path fill-rule="evenodd" clip-rule="evenodd" d="M11.0066 3.45312C10.6364 3.45312 10.3359 3.15267 10.3359 2.78211V1.17144C10.3359 0.800813 10.6364 0.50036 11.0066 0.50036C11.3767 0.50036 11.6772 0.800813 11.6772 1.17144V2.78211C11.6772 3.15267 11.3767 3.45312 11.0066 3.45312Z"/>
<path fill-rule="evenodd" clip-rule="evenodd" d="M14.5814 15.8867H7.43151C7.06125 15.8867 6.76074 15.586 6.76074 15.2156C6.76074 14.8451 7.06125 14.5445 7.43151 14.5445H14.5746C14.9449 14.5445 15.2454 14.8451 15.2454 15.2156C15.2454 15.586 14.9449 15.8867 14.5746 15.8867H14.5814Z"/>
<path fill-rule="evenodd" clip-rule="evenodd" d="M21.3291 15.8867H17.9755C17.6052 15.8867 17.3047 15.586 17.3047 15.2156C17.3047 14.8451 17.6052 14.5445 17.9755 14.5445H21.3291C21.6993 14.5445 21.9998 14.8451 21.9998 15.2156C21.9998 15.586 21.6993 15.8867 21.3291 15.8867Z"/>
<path fill-rule="evenodd" clip-rule="evenodd" d="M4.02432 15.8867H0.670696C0.300511 15.8867 0 15.586 0 15.2156C0 14.8451 0.300511 14.5445 0.670696 14.5445H4.02432C4.39458 14.5445 4.69509 14.8451 4.69509 15.2156C4.69509 15.586 4.39458 15.8867 4.02432 15.8867Z"/>
<path fill-rule="evenodd" clip-rule="evenodd" d="M11.0066 17.5664C10.6364 17.5664 10.3359 17.2657 10.3359 16.8953V13.5398C10.3359 13.1692 10.6364 12.8688 11.0066 12.8688C11.3767 12.8688 11.6772 13.1692 11.6772 13.5398V16.8953C11.6772 17.2657 11.3767 17.5664 11.0066 17.5664Z"/>
</svg>
