<svg width="100%" height="100%" viewBox="0 0 21 8" fill="none" xmlns="http://www.w3.org/2000/svg">
<path d="M1 3.5C0.723858 3.5 0.5 3.72386 0.5 4C0.5 4.27614 0.723858 4.5 1 4.5L1 3.5ZM20.3536 4.35356C20.5488 4.15829 20.5488 3.84171 20.3536 3.64645L17.1716 0.464468C16.9763 0.269205 16.6597 0.269205 16.4645 0.464467C16.2692 0.65973 16.2692 0.976312 16.4645 1.17157L19.2929 4L16.4645 6.82843C16.2692 7.02369 16.2692 7.34027 16.4645 7.53554C16.6597 7.7308 16.9763 7.7308 17.1716 7.53554L20.3536 4.35356ZM1 4.5L20 4.5L20 3.5L1 3.5L1 4.5Z" fill="#D0D0CE"/>
</svg>
