<svg width="100%" height="100%" viewBox="0 0 28 18" fill="none" xmlns="http://www.w3.org/2000/svg">
<path d="M28 5.96652C28 6.42691 27.6296 6.79523 27.1666 6.79523H23.8333V10.11C23.8333 10.5703 23.4629 10.9387 23 10.9387C22.537 10.9387 22.1667 10.5703 22.1667 10.11V6.79523H18.8333C18.3704 6.79523 18 6.42691 18 5.96652C18 5.50614 18.3704 5.13787 18.8333 5.13787H22.1667V1.82308C22.1667 1.3627 22.537 0.994428 23 0.994428C23.4629 0.994428 23.8333 1.3627 23.8333 1.82308V5.13787H27.1666C27.6296 5.13787 28 5.50614 28 5.96652Z" />
<path d="M18.7966 16.21C17.8966 15.7128 16.6966 15.6134 15.6966 15.5139C15.0966 15.4145 14.3966 15.4145 14.1966 15.315C13.6966 15.0167 13.0966 13.2268 13.2966 12.7295C13.9966 11.6357 14.7966 9.84571 15.1966 8.25462C15.8966 5.47022 15.5966 3.3819 14.3966 1.89026C12.7966 -0.0985972 10.1966 0.000821276 10.1966 0.000821276C10.0966 0.000821276 7.49657 0.000845671 5.89657 1.89026C4.69657 3.3819 4.39658 5.47022 5.09658 8.25462C5.49658 9.84571 6.29657 11.6357 6.99657 12.7295C7.09657 13.2268 6.59658 15.0167 6.09658 15.315C5.79658 15.4145 5.19658 15.5139 4.59658 15.5139C3.59658 15.6134 2.39657 15.7128 1.49657 16.21C0.996573 16.4089 0.896575 17.0056 1.09658 17.5028C1.29658 18 1.89657 18.0994 2.39657 17.9005C2.99657 17.6022 3.99657 17.5028 4.79657 17.4033C5.69657 17.3039 6.39657 17.3039 6.99657 17.0056C8.19657 16.4089 8.69657 14.7184 8.79657 14.2212C8.99657 13.4256 9.09657 12.4312 8.69657 11.7351C8.09657 10.8401 7.39658 9.24902 7.09658 7.85682C6.59658 5.66908 6.69657 4.07801 7.49657 3.08358C8.49657 1.79083 10.2966 1.79082 10.3966 1.89026C10.3966 1.89026 12.1966 1.89027 13.1966 3.08358C13.9966 4.07801 14.1966 5.66908 13.5966 7.85682C13.2966 9.24902 12.5966 10.8401 11.9966 11.7351C11.4966 12.3318 11.6966 13.4256 11.8966 14.2212C11.9966 14.7184 12.4966 16.4089 13.6966 17.0056C14.2966 17.3039 14.9966 17.4033 15.8966 17.4033C16.7966 17.5028 17.6966 17.6022 18.2966 17.9005C18.3966 18 18.5966 18 18.6966 18C18.9966 18 19.3966 17.8011 19.4966 17.5028C19.3966 17.105 19.2966 16.5084 18.7966 16.21Z" />
</svg>
