<svg width="100%" height="100%" viewBox="0 0 27 18" fill="none" xmlns="http://www.w3.org/2000/svg">
<path d="M27 5.96652C27 6.42691 26.6296 6.79523 26.1666 6.79523H22.8333V10.11C22.8333 10.5703 22.4629 10.9387 22 10.9387C21.537 10.9387 21.1667 10.5703 21.1667 10.11V6.79523H17.8333C17.3704 6.79523 17 6.42691 17 5.96652C17 5.50614 17.3704 5.13787 17.8333 5.13787H21.1667V1.82308C21.1667 1.3627 21.537 0.994428 22 0.994428C22.4629 0.994428 22.8333 1.3627 22.8333 1.82308V5.13787H26.1666C26.6296 5.13787 27 5.50614 27 5.96652Z"/>
<path d="M17.7966 16.21C16.8966 15.7128 15.6966 15.6134 14.6966 15.5139C14.0966 15.4145 13.3966 15.4145 13.1966 15.315C12.6966 15.0167 12.0966 13.2268 12.2966 12.7295C12.9966 11.6357 13.7966 9.84571 14.1966 8.25462C14.8966 5.47022 14.5966 3.3819 13.3966 1.89026C11.7966 -0.0985972 9.19657 0.000821276 9.19657 0.000821276C9.09657 0.000821276 6.49657 0.000845671 4.89657 1.89026C3.69657 3.3819 3.39658 5.47022 4.09658 8.25462C4.49658 9.84571 5.29657 11.6357 5.99657 12.7295C6.09657 13.2268 5.59658 15.0167 5.09658 15.315C4.79658 15.4145 4.19658 15.5139 3.59658 15.5139C2.59658 15.6134 1.39657 15.7128 0.496573 16.21C-0.00342721 16.4089 -0.103425 17.0056 0.0965751 17.5028C0.296575 18 0.896574 18.0994 1.39657 17.9005C1.99657 17.6022 2.99657 17.5028 3.79657 17.4033C4.69657 17.3039 5.39657 17.3039 5.99657 17.0056C7.19657 16.4089 7.69657 14.7184 7.79657 14.2212C7.99657 13.4256 8.09657 12.4312 7.69657 11.7351C7.09657 10.8401 6.39658 9.24902 6.09658 7.85682C5.59658 5.66908 5.69657 4.07801 6.49657 3.08358C7.49657 1.79083 9.29657 1.79082 9.39657 1.89026C9.39657 1.89026 11.1966 1.89027 12.1966 3.08358C12.9966 4.07801 13.1966 5.66908 12.5966 7.85682C12.2966 9.24902 11.5966 10.8401 10.9966 11.7351C10.4966 12.3318 10.6966 13.4256 10.8966 14.2212C10.9966 14.7184 11.4966 16.4089 12.6966 17.0056C13.2966 17.3039 13.9966 17.4033 14.8966 17.4033C15.7966 17.5028 16.6966 17.6022 17.2966 17.9005C17.3966 18 17.5966 18 17.6966 18C17.9966 18 18.3966 17.8011 18.4966 17.5028C18.3966 17.105 18.2966 16.5084 17.7966 16.21Z"/>
</svg>
