<svg width="100%" height="100%" viewBox="0 0 22 26" fill="none" xmlns="http://www.w3.org/2000/svg">
<path fill-rule="evenodd" clip-rule="evenodd" d="M9.34025 25.0253H9.27262C8.08058 25.0306 6.92921 24.589 6.04077 23.7863C5.46274 23.2883 5.09906 22.5821 5.02612 21.8173C5.02836 21.3673 5.22307 20.9409 5.55983 20.6466C5.88142 20.3837 6.26474 20.2081 6.67212 20.1373C7.29217 20.0043 7.92582 19.9488 8.55856 19.9701V21.4905C8.05429 21.4737 7.54996 21.5171 7.05548 21.6197C6.89236 21.6455 6.73447 21.6995 6.58951 21.7793C6.62855 22.1373 6.81419 22.4627 7.10055 22.6763C7.72285 23.229 8.52771 23.5247 9.35523 23.505C10.1857 23.5414 10.9967 23.2434 11.61 22.6763C11.9783 22.3039 12.2864 21.7946 12.1437 21.6121C12.088 21.549 12.0091 21.5133 11.9256 21.5133L11.813 19.9929C12.388 19.9496 12.9479 20.1906 13.3162 20.6391C14.0076 21.4829 13.7595 22.6687 12.6773 23.7482C11.7755 24.6027 10.5759 25.0618 9.34025 25.0253Z" />
<path fill-rule="evenodd" clip-rule="evenodd" d="M16.3078 21.4814H11.7982C11.3833 21.4814 11.0466 21.1409 11.0466 20.7212C11.0466 20.3016 11.3833 19.961 11.7982 19.961H16.8865L16.691 19.5962C16.5934 19.4289 16.4806 19.2389 16.3679 19.0261C15.3322 17.2571 14.7776 15.2434 14.7595 13.1879C14.7821 11.9336 14.7272 10.6793 14.5941 9.43263C14.54 9.01297 14.8331 8.62837 15.248 8.57364C15.6629 8.51892 16.0432 8.81531 16.0973 9.23497C16.2416 10.5448 16.3017 11.8629 16.2778 13.1803C16.298 14.9796 16.788 16.7425 17.6982 18.2887L18.0063 18.8436C18.4648 19.657 18.803 20.2499 18.4573 20.8429C18.1116 21.4358 17.3299 21.4814 16.3078 21.4814Z" />
<path fill-rule="evenodd" clip-rule="evenodd" d="M9.2496 21.4829H2.2599C1.23777 21.4829 0.486208 21.4372 0.140499 20.8367C-0.20521 20.2361 0.1405 19.6509 0.598931 18.8374L0.907065 18.2825C1.81191 16.734 2.29905 14.9727 2.3201 13.1741C2.3201 9.28206 2.32007 4.4473 7.18271 2.82807C7.86369 2.60238 8.57773 2.49134 9.29467 2.50121C10.0042 2.4967 10.7092 2.60765 11.3841 2.82807C12.5025 3.20748 13.5276 3.82397 14.3904 4.63734C14.761 4.95123 15.057 5.34662 15.2548 5.79281C15.4021 6.18502 15.2074 6.62451 14.8188 6.77346C14.431 6.92241 13.9966 6.72551 13.8493 6.33254C13.7223 6.10903 13.5569 5.91138 13.3607 5.7472C12.6648 5.08578 11.8373 4.58261 10.9331 4.27249C9.87338 3.93793 8.73853 3.93793 7.67878 4.27249C3.87581 5.54193 3.86075 9.42649 3.84575 13.1817C3.82701 15.2357 3.27532 17.2494 2.24483 19.0199L1.92177 19.5976L1.71886 19.9549H9.23463C9.64954 19.9549 9.98622 20.2954 9.98622 20.7151C9.98622 21.1347 9.64954 21.4752 9.23463 21.4752L9.2496 21.4829Z" />
<circle cx="16" cy="6.5" r="5.5" fill="#DA291C" stroke="white"/>
</svg>
