<svg width="100%" height="100%" viewBox="0 0 22 26" fill="none" xmlns="http://www.w3.org/2000/svg">
<path fill-rule="evenodd" clip-rule="evenodd" d="M9.34025 25.0253H9.27262C8.08058 25.0306 6.92921 24.589 6.04077 23.7863C5.46274 23.2883 5.09906 22.5821 5.02612 21.8173C5.02836 21.3673 5.22307 20.9409 5.55983 20.6466C5.88142 20.3837 6.26474 20.2081 6.67212 20.1373C7.29217 20.0043 7.92582 19.9488 8.55856 19.9701V21.4905C8.05429 21.4737 7.54996 21.5171 7.05548 21.6197C6.89236 21.6455 6.73447 21.6995 6.58951 21.7793C6.62855 22.1373 6.81419 22.4627 7.10055 22.6763C7.72285 23.229 8.52771 23.5247 9.35523 23.505C10.1857 23.5414 10.9967 23.2434 11.61 22.6763C11.9783 22.3039 12.2864 21.7946 12.1437 21.6121C12.088 21.549 12.0091 21.5133 11.9256 21.5133L11.813 19.9929C12.388 19.9496 12.9479 20.1906 13.3162 20.6391C14.0076 21.4829 13.7595 22.6687 12.6773 23.7482C11.7755 24.6027 10.5759 25.0618 9.34025 25.0253Z" />
<path fill-rule="evenodd" clip-rule="evenodd" d="M16.3078 21.4805H11.7982C11.3833 21.4805 11.0466 21.1399 11.0466 20.7202C11.0466 20.3006 11.3833 19.9601 11.7982 19.9601H16.8865L16.691 19.5952C16.5934 19.4279 16.4806 19.2379 16.3679 19.0251C15.3322 17.2562 14.7776 15.2425 14.7595 13.1869C14.7821 11.9326 14.7272 10.6783 14.5941 9.43166C14.54 9.012 14.8331 8.6274 15.248 8.57267C15.6629 8.51794 16.0432 8.81434 16.0973 9.234C16.2416 10.5438 16.3017 11.8619 16.2778 13.1793C16.298 14.9786 16.788 16.7415 17.6982 18.2877L18.0063 18.8426C18.4648 19.6561 18.803 20.2489 18.4573 20.8419C18.1116 21.4349 17.3299 21.4805 16.3078 21.4805Z" />
<path fill-rule="evenodd" clip-rule="evenodd" d="M9.2496 21.4805H2.2599C1.23777 21.4805 0.486208 21.4348 0.140499 20.8343C-0.20521 20.2337 0.1405 19.6484 0.598931 18.835L0.907065 18.2801C1.81191 16.7316 2.29905 14.9703 2.3201 13.1717C2.3201 9.27962 2.32007 4.44485 7.18271 2.82563C7.86369 2.59994 8.57773 2.4889 9.29467 2.49877C10.0042 2.49426 10.7092 2.60521 11.3841 2.82563C12.5025 3.20504 13.5276 3.82152 14.3904 4.6349C14.761 4.94879 15.057 5.34418 15.2548 5.79037C15.4021 6.18258 15.2074 6.62207 14.8188 6.77102C14.431 6.91997 13.9966 6.72307 13.8493 6.3301C13.7223 6.10659 13.5569 5.90894 13.3607 5.74476C12.6648 5.08334 11.8373 4.58017 10.9331 4.27005C9.87338 3.93549 8.73853 3.93549 7.67878 4.27005C3.87581 5.53949 3.86075 9.42405 3.84575 13.1792C3.82701 15.2333 3.27532 17.247 2.24483 19.0174L1.92177 19.5951L1.71886 19.9525H9.23463C9.64954 19.9525 9.98622 20.2929 9.98622 20.7126C9.98622 21.1323 9.64954 21.4728 9.23463 21.4728L9.2496 21.4805Z" />
<circle cx="16" cy="6.5" r="5.5" fill="#DA291C"/>
</svg>
