<svg width="100%" height="100%" viewBox="0 0 40 40" fill="none" xmlns="http://www.w3.org/2000/svg">
<rect width="100%" height="100%" fill="white"/>
<circle cx="20" cy="20" r="19.75" stroke="#E2EAEC" stroke-width="0.5"/>
<path fill-rule="evenodd" clip-rule="evenodd" d="M29.6225 31.2109H9.82718C9.37063 31.2109 9 30.8697 9 30.4493V21.112C9 20.6914 9.37063 20.3504 9.82718 20.3504H29.6225C30.0792 20.3504 30.4498 20.6914 30.4498 21.112V30.4493C30.4498 30.8697 30.0792 31.2109 29.6225 31.2109ZM10.6545 29.6877H28.7954V21.8737H10.6545V29.6877Z" fill="#E2EAEC"/>
<path fill-rule="evenodd" clip-rule="evenodd" d="M27.9026 21.874H11.5484C11.0918 21.874 10.7212 21.533 10.7212 21.1124V16.9388C10.7212 16.5182 11.0918 16.1772 11.5484 16.1772H27.9026C28.3593 16.1772 28.7299 16.5182 28.7299 16.9388V21.1124C28.7299 21.533 28.3593 21.874 27.9026 21.874ZM12.3757 20.3507H27.0753V17.7004H12.3757V20.3507Z" fill="#E2EAEC"/>
<path fill-rule="evenodd" clip-rule="evenodd" d="M26.7358 25.6589C25.8788 25.7024 25.0383 25.4282 24.403 24.8973C23.0448 25.9317 21.0793 25.9317 19.721 24.8973C18.366 25.934 16.4021 25.934 15.0471 24.8973C14.4086 25.4298 13.5656 25.7039 12.7061 25.6589C10.8862 25.6589 9.39722 24.0445 9.39722 22.0642C9.39722 21.6437 9.76785 21.3027 10.2245 21.3027C10.6811 21.3027 11.0517 21.6437 11.0517 22.0642C11.0517 23.1915 11.8127 24.1358 12.7061 24.1358C13.8229 24.1358 14.1207 23.6255 14.2448 23.1838C14.3448 22.8417 14.6874 22.6081 15.072 22.6203C15.4566 22.6081 15.7992 22.8417 15.8992 23.1838C16.0316 23.6255 16.3293 24.1358 17.4461 24.1358C18.5629 24.1358 18.8524 23.6255 18.9848 23.1838C19.0848 22.8417 19.4274 22.6081 19.8119 22.6203C20.1966 22.6081 20.539 22.8417 20.6392 23.1838C20.7716 23.6255 21.061 24.1358 22.1778 24.1358C23.2945 24.1358 23.5841 23.6255 23.7164 23.1838C23.8165 22.8417 24.159 22.6081 24.5436 22.6203C24.9284 22.6081 25.2708 22.8417 25.3709 23.1838C25.5033 23.6255 25.801 24.1358 26.9095 24.1358C27.8112 24.1358 28.564 23.1915 28.564 22.0642C28.564 21.6437 28.9346 21.3027 29.3911 21.3027C29.8478 21.3027 30.2184 21.6437 30.2184 22.0642C30.0447 24.0445 28.5474 25.6589 26.7358 25.6589Z" fill="#E2EAEC"/>
<path fill-rule="evenodd" clip-rule="evenodd" d="M24.8577 15.2867C23.6383 15.3789 22.5513 14.5816 22.3759 13.4665C22.3015 12.8748 22.4728 12.2789 22.8557 11.7986L22.9137 11.7072C23.1825 11.367 23.6995 11.2918 24.0692 11.5392C24.3861 11.7516 24.4978 12.1398 24.3364 12.4688L24.2703 12.5602C24.0469 12.9029 23.9808 13.0247 24.0139 13.2304C24.0469 13.436 24.0883 13.7407 24.8908 13.7407C25.1216 13.7313 25.3449 13.6627 25.536 13.5426C25.6038 13.4745 25.636 13.3832 25.627 13.2914C25.627 13.0781 25.4532 12.9029 25.1637 12.6059C24.9445 12.4021 24.7526 12.1744 24.5929 11.9281C24.229 11.3536 24.0916 10.681 24.2042 10.0241C24.277 9.60339 24.7071 9.31706 25.1637 9.38428C25.6203 9.45159 25.9314 9.84711 25.8585 10.2678C25.8032 10.5777 25.8677 10.8958 26.0405 11.1665C26.1481 11.3159 26.2697 11.4561 26.4045 11.5853C26.8951 12.0195 27.192 12.6057 27.24 13.2304C27.274 13.7375 27.0762 14.2346 26.694 14.6013C26.206 15.0464 25.5442 15.2932 24.8577 15.2867Z" fill="#E2EAEC"/>
<path fill-rule="evenodd" clip-rule="evenodd" d="M14.7413 15.2867C13.522 15.3789 12.4351 14.5816 12.2597 13.4665C12.1853 12.8748 12.3565 12.2789 12.7395 11.7986L12.7974 11.7072C13.0663 11.367 13.5832 11.2918 13.953 11.5392C14.2698 11.7516 14.3815 12.1398 14.2202 12.4688L14.1541 12.5602C13.9307 12.9029 13.8645 13.0247 13.8977 13.2304C13.9307 13.436 13.972 13.7407 14.7745 13.7407C15.0077 13.7461 15.236 13.676 15.4198 13.5426C15.4875 13.4745 15.5197 13.3832 15.5107 13.2914C15.5107 13.0781 15.3369 12.9029 15.0474 12.6059C14.8282 12.4021 14.6363 12.1744 14.4766 11.9281C14.1168 11.3523 13.9795 10.681 14.0879 10.0241C14.1606 9.60339 14.5908 9.31706 15.0474 9.38428C15.504 9.45159 15.8151 9.84711 15.7423 10.2678C15.6869 10.5777 15.7514 10.8958 15.9243 11.1665C16.0319 11.3159 16.1534 11.4561 16.2883 11.5853C16.7805 12.0188 17.0816 12.6048 17.132 13.2304C17.1593 13.7382 16.9591 14.2338 16.5778 14.6013C16.0897 15.0464 15.428 15.2932 14.7413 15.2867Z" fill="#E2EAEC"/>
<path fill-rule="evenodd" clip-rule="evenodd" d="M19.8041 13.9158C18.5839 13.9998 17.501 13.202 17.3224 12.0879C17.2488 11.4951 17.4233 10.8985 17.8105 10.42L17.8602 10.3362C18.0479 9.95291 18.5384 9.78262 18.9544 9.95584C19.3707 10.1291 19.5558 10.5802 19.3681 10.9635C19.3441 11.0108 19.3159 11.0558 19.2829 11.0978L19.225 11.1892C19.0017 11.5243 18.9355 11.6539 18.9603 11.8518C18.9852 12.0499 19.043 12.3697 19.8372 12.3697C20.0721 12.3763 20.302 12.3032 20.4824 12.1641C20.5511 12.0997 20.5816 12.0091 20.5651 11.9203C20.5651 11.707 20.3913 11.5243 20.1102 11.2349C19.8926 11.0279 19.6981 10.8007 19.5311 10.5571C19.1729 9.9806 19.0389 9.30913 19.1506 8.65302C19.2217 8.2324 19.6494 7.94431 20.106 8.00952C20.5626 8.07473 20.8762 8.46856 20.805 8.88918C20.7521 9.20238 20.8191 9.52288 20.9952 9.79546C21.0995 9.94703 21.2219 10.0875 21.3593 10.2144C21.8647 10.6435 22.1799 11.2294 22.2444 11.8594C22.2775 12.3656 22.0764 12.8611 21.6901 13.2227C21.1922 13.6828 20.5096 13.9335 19.8041 13.9158Z" fill="#E2EAEC"/>
<path fill-rule="evenodd" clip-rule="evenodd" d="M14.7321 17.7002C14.2754 17.7002 13.9048 17.3592 13.9048 16.9386V14.5243C13.9048 14.1037 14.2754 13.7627 14.7321 13.7627C15.1887 13.7627 15.5593 14.1037 15.5593 14.5243V16.9386C15.5593 17.3592 15.1887 17.7002 14.7321 17.7002Z" fill="#E2EAEC"/>
<path fill-rule="evenodd" clip-rule="evenodd" d="M19.7955 17.7002C19.3389 17.7002 18.9683 17.3592 18.9683 16.9386V13.1305C18.9683 12.7099 19.3389 12.3689 19.7955 12.3689C20.2521 12.3689 20.6228 12.7099 20.6228 13.1305V16.9386C20.6228 17.3592 20.2521 17.7002 19.7955 17.7002Z" fill="#E2EAEC"/>
<path fill-rule="evenodd" clip-rule="evenodd" d="M24.85 17.7002C24.3933 17.7002 24.0227 17.3592 24.0227 16.9386V14.5243C24.0227 14.1037 24.3933 13.7627 24.85 13.7627C25.3065 13.7627 25.6772 14.1037 25.6772 14.5243V16.9386C25.6772 17.3592 25.3065 17.7002 24.85 17.7002Z" fill="#E2EAEC"/>
</svg>
