<svg width="100%" height="100%" viewBox="0 0 50 50" fill="none" xmlns="http://www.w3.org/2000/svg">
<path fill-rule="evenodd" clip-rule="evenodd" d="M24.9999 50C11.1926 50 0 38.8073 0 25C0 11.1927 11.1926 0 24.9999 0C38.8072 0 50 11.1927 50 25C50 38.8073 38.8072 50 24.9999 50ZM24.9999 2.08334C12.3437 2.08334 2.08335 12.3437 2.08335 25C2.08335 37.6562 12.3437 47.9167 24.9999 47.9167C37.6562 47.9167 47.9167 37.6562 47.9167 25C47.9167 12.3437 37.6562 2.08334 24.9999 2.08334Z" fill="#DA291C"/>
<path fill-rule="evenodd" clip-rule="evenodd" d="M24.9945 43.8242C22.3122 43.8242 20.1302 41.3475 20.1302 38.3183C20.1302 35.2888 22.3122 32.8121 24.9945 32.8121C25.9503 32.811 26.8806 33.1215 27.6448 33.6944C28.1185 34.044 28.2185 34.7095 27.8682 35.1825C27.5181 35.6556 26.8518 35.7554 26.3782 35.4057C25.9801 35.1049 25.4936 34.9401 24.9945 34.9381C23.483 34.9381 22.259 36.4474 22.259 38.3183C22.259 40.189 23.483 41.6984 24.9945 41.6984C26.5059 41.6984 27.7299 40.1784 27.7299 38.3183C27.7332 37.9153 27.6756 37.5136 27.5596 37.1277C27.3691 36.5728 27.6651 35.968 28.2206 35.7777C28.7773 35.5864 29.383 35.8829 29.5735 36.4379C29.5798 36.4591 29.5873 36.4793 29.5927 36.5006C29.7725 37.0894 29.862 37.7027 29.8588 38.3183C29.8588 41.3475 27.6767 43.8242 24.9945 43.8242Z" fill="#DA291C"/>
<path fill-rule="evenodd" clip-rule="evenodd" d="M16.6605 40.0837C16.1496 40.0953 15.7036 39.7425 15.5961 39.244C15.1204 36.8715 16.1294 34.4468 18.1506 33.1107C18.6254 32.7642 19.2906 32.8673 19.6376 33.3414C19.9856 33.8154 19.8813 34.4798 19.4076 34.8262C19.3662 34.8562 19.3236 34.8838 19.2789 34.9071C18.0155 35.7692 17.3842 37.2966 17.6717 38.7975C17.7973 39.3694 17.4353 39.9359 16.8628 40.0625L16.6605 40.0837Z" fill="#DA291C"/>
<path fill-rule="evenodd" clip-rule="evenodd" d="M11.062 32.3358C10.9107 32.3348 10.7629 32.3029 10.6254 32.2402C10.0911 31.999 9.85382 31.3717 10.0933 30.8371C10.7649 29.399 11.9485 28.2616 13.4142 27.6483C14.8916 27.0476 16.5456 27.0476 18.023 27.6483C18.5669 27.8747 18.8245 28.4975 18.5977 29.0407C18.3711 29.5839 17.7474 29.8411 17.2035 29.6147C16.2476 29.2268 15.1789 29.2268 14.2231 29.6147C13.2502 30.0229 12.4678 30.7817 12.0305 31.7406C11.8495 32.1094 11.4728 32.3411 11.062 32.3358Z" fill="#DA291C"/>
<path fill-rule="evenodd" clip-rule="evenodd" d="M19.0768 24.9899C18.6809 24.993 18.3157 24.7762 18.1295 24.4266C17.6846 23.4263 16.9407 22.5865 16.0007 22.0243C15.2535 21.6066 14.3243 21.7054 13.6804 22.2687C13.2865 22.7056 12.6117 22.7418 12.1741 22.3485C11.7368 21.9551 11.7005 21.2813 12.0943 20.8445C13.3759 19.5625 15.3472 19.2691 16.9481 20.1216C18.2965 20.8763 19.3738 22.037 20.0241 23.4379C20.2987 23.9545 20.104 24.5965 19.5878 24.8729C19.4302 24.9538 19.2546 24.9942 19.0768 24.9899Z" fill="#DA291C"/>
<path fill-rule="evenodd" clip-rule="evenodd" d="M28.5711 37.8825C28.2092 37.8814 27.8728 37.6975 27.677 37.3935C27.3588 36.9036 27.496 36.2476 27.9857 35.9267C30.1454 34.3801 31.3938 31.862 31.3172 29.2089C31.3172 24.957 28.4859 21.5769 24.9948 21.5769C21.5035 21.5769 18.683 24.9996 18.683 29.2089C18.6053 31.8566 19.8494 34.3705 22.0038 35.916C22.4998 36.2306 22.6468 36.8875 22.3317 37.3829C22.0166 37.8781 21.3588 38.0249 20.8628 37.7103C20.8521 37.7038 20.8426 37.6975 20.833 37.6912C18.0848 35.7417 16.4882 32.5528 16.5755 29.1876C16.5755 23.809 20.3647 19.4298 25.016 19.4298C29.6674 19.4298 33.4672 23.809 33.4672 29.1876C33.5524 32.5528 31.957 35.7407 29.2097 37.6912C29.0266 37.8304 28.8 37.8984 28.5711 37.8825Z" fill="#DA291C"/>
<path fill-rule="evenodd" clip-rule="evenodd" d="M33.3711 40.084H33.1475C32.5728 39.9618 32.2055 39.3984 32.3269 38.8234C32.3269 38.8222 32.328 38.8201 32.328 38.8192C32.6239 37.3203 31.9958 35.7896 30.7315 34.9286C30.212 34.6534 30.0151 34.0092 30.2918 33.4906C30.5675 32.9728 31.2125 32.7762 31.7309 33.0515C31.7755 33.076 31.8193 33.1025 31.8596 33.1323C33.8809 34.4684 34.8899 36.893 34.4141 39.2656C34.3003 39.7482 33.8671 40.0872 33.3711 40.084Z" fill="#DA291C"/>
<path fill-rule="evenodd" clip-rule="evenodd" d="M38.9381 32.3359C38.5156 32.3391 38.1325 32.0935 37.959 31.7088C37.5193 30.7554 36.7423 29.9985 35.7769 29.5829C34.818 29.1949 33.7451 29.1949 32.786 29.5829C32.2421 29.8061 31.6205 29.5468 31.397 29.0036C31.1734 28.4605 31.4332 27.8397 31.9771 27.6165C33.4513 27.0159 35.1011 27.0159 36.5753 27.6165C38.0483 28.2223 39.2383 29.3607 39.9068 30.8054C40.1462 31.34 39.9089 31.9671 39.3746 32.2083C39.2404 32.2817 39.0915 32.3253 38.9381 32.3359Z" fill="#DA291C"/>
<path fill-rule="evenodd" clip-rule="evenodd" d="M30.9234 24.9901C30.7499 24.9922 30.5774 24.9518 30.423 24.8732C29.9068 24.5968 29.7121 23.9549 29.9866 23.4382C30.6338 22.0351 31.711 20.8744 33.0627 20.1218C34.6648 19.2757 36.6317 19.5691 37.9163 20.8446C38.3102 21.2815 38.2739 21.9554 37.8366 22.3487C37.3991 22.742 36.7243 22.7059 36.3304 22.269C35.6865 21.7057 34.7574 21.6067 34.01 22.0244C33.0692 22.5869 32.3262 23.4266 31.8813 24.4267C31.6929 24.7796 31.3235 24.9965 30.9234 24.9901Z" fill="#DA291C"/>
<path fill-rule="evenodd" clip-rule="evenodd" d="M24.6539 24.2988C24.0664 24.2988 23.5894 23.8216 23.5905 23.2349C23.5905 23.0924 23.6194 22.9521 23.6747 22.8213C24.2665 21.1153 24.4453 19.2945 24.1963 17.5066C24.1004 16.5393 23.9514 15.5934 23.7917 14.6048C23.632 13.6163 23.4938 12.734 23.3979 11.7667C23.1957 9.83431 23.1957 7.88487 23.3979 5.95245C23.4628 5.3657 23.9918 4.94163 24.5795 5.00642C25.1669 5.07121 25.5916 5.59963 25.5268 6.18626C25.3351 7.96985 25.3351 9.76953 25.5268 11.5542C25.6224 12.4577 25.7608 13.3825 25.9099 14.2647C26.059 15.1469 26.2293 16.2629 26.325 17.3047C26.6092 19.4262 26.375 21.5851 25.6438 23.5973C25.4926 24.015 25.0977 24.2946 24.6539 24.2988Z" fill="#DA291C"/>
</svg>
