<svg width="100%" height="100%" viewBox="0 0 30 30" fill="none" xmlns="http://www.w3.org/2000/svg">
<path fill-rule="evenodd" clip-rule="evenodd" d="M17.6681 24.7498H13.0472C12.7512 24.7566 12.4923 24.5521 12.4302 24.2631L12.0168 22.3409C11.9774 22.1585 12.0228 21.9681 12.1403 21.8234C12.2565 21.6804 12.4308 21.5966 12.6153 21.5953H17.5508L17.6681 20.9238C16.7982 20.9238 15.7679 20.8129 15.2003 19.747C14.3612 20.9177 13.4358 20.9792 12.2451 20.9115H12.2143C12.1284 20.9053 12.0446 20.8819 11.9675 20.8437C11.739 20.7272 11.6064 20.482 11.6344 20.2276C11.6344 20.2276 11.6344 20.1722 11.6344 20.1475C11.6314 20.1124 11.6314 20.0779 11.6344 20.0428V18.1944C11.2603 17.1982 10.7783 16.2456 10.1969 15.3542C9.45122 14.1706 9.03783 12.809 9 11.4111C9.10286 7.99415 11.8947 5.27157 15.3175 5.25C18.8033 5.25 21.7337 8.08409 21.7337 11.4111C21.6951 12.8312 21.2684 14.2137 20.4998 15.4096C19.9492 16.2598 19.4783 17.1594 19.0932 18.0959C18.9827 18.4174 18.6318 18.5893 18.3095 18.4784C18.0012 18.373 17.8283 18.046 17.9148 17.7323C18.3369 16.672 18.8639 15.6567 19.488 14.7011C20.1305 13.7085 20.4928 12.5613 20.5369 11.3803C20.5369 8.74331 18.1678 6.5007 15.3545 6.45138C12.6076 6.46002 10.3605 8.63854 10.2709 11.3803C10.3099 12.5385 10.6524 13.6667 11.2642 14.6518C11.3012 14.7073 12.9053 17.3257 12.9053 18.1637V19.6977C13.5322 19.7606 14.1281 19.4119 14.3798 18.8352C14.5263 18.5955 14.6385 18.3361 14.7129 18.0651L14.5587 17.9788C13.5514 17.2641 12.8665 16.1816 12.6523 14.966C12.5598 13.8447 13.1644 13.5613 13.4297 13.4873C14.0466 13.321 14.8116 13.7954 15.2805 14.3438C15.4466 13.8268 15.8164 13.3998 16.3046 13.1608C16.7133 13.0302 17.1609 13.1479 17.4521 13.4627C17.9622 14.027 18.1441 14.8144 17.9333 15.5452C17.7297 16.5803 17.0511 17.8186 16.1381 18.176H16.0763C16.1195 18.4162 16.1751 18.6504 16.2368 18.8721C16.4712 19.6238 16.8537 19.6854 18.0321 19.6608C18.3528 19.6608 18.7168 19.6299 18.9266 19.8764C19.0447 20.0162 19.0945 20.2017 19.0624 20.3816L18.7107 22.2977C18.6564 22.5941 18.3954 22.8079 18.0937 22.803H13.3927L13.5469 23.4929H17.6681C18.0088 23.4929 18.285 23.769 18.285 24.109C18.285 24.4492 18.0088 24.7252 17.6681 24.7252V24.7498ZM16.0085 16.3338C16.0085 16.4631 16.0085 16.5987 16.0455 16.7281C16.3722 16.3215 16.5945 15.8415 16.6933 15.3295C16.785 15.0295 16.7586 14.7054 16.6193 14.4239C16.3301 14.9236 16.1376 15.4731 16.0517 16.0442C16.0393 16.1243 16.0085 16.2167 16.0085 16.3338ZM13.8615 14.775C13.8585 14.8101 13.8585 14.8447 13.8615 14.8797C14.0106 15.5082 14.326 16.0849 14.7746 16.5495V16.3399C14.7219 16.0072 14.6222 15.6837 14.4785 15.3788C14.3346 15.1201 14.1236 14.9057 13.8677 14.7565L13.8615 14.775Z" />
</svg>
