<svg width="100%" height="100%" viewBox="0 0 21 15" fill="none" xmlns="http://www.w3.org/2000/svg">
<path d="M18.6957 0.394267L7.14205 11.7755L2.31894 7.02439C2.06419 6.77344 1.71867 6.63246 1.3584 6.63246C0.998132 6.63246 0.652617 6.77344 0.397867 7.02439C0.143117 7.27534 0 7.6157 0 7.97059C0 8.14632 0.0351364 8.32032 0.103403 8.48267C0.171669 8.64502 0.271728 8.79254 0.397867 8.91679L6.17471 14.6074C6.70607 15.1309 7.56442 15.1309 8.09578 14.6074L20.6032 2.28667C20.7302 2.16111 20.8306 2.01199 20.8987 1.84795C20.9668 1.68391 21.0012 1.50819 21 1.33096C20.9987 1.15373 20.9618 0.978506 20.8913 0.815423C20.8209 0.65234 20.7183 0.504634 20.5896 0.380846C20.0854 -0.129164 19.2271 -0.129164 18.6957 0.394267Z" fill="white"/>
</svg>
