<svg width="100%" height="100%" viewBox="0 0 15 9" fill="none" xmlns="http://www.w3.org/2000/svg">
<path fill-rule="evenodd" clip-rule="evenodd" d="M0.333266 1.42858C0.333826 1.29291 0.388763 1.16312 0.485912 1.0681C0.684296 0.87128 1.00474 0.87128 1.20312 1.0681L7.30697 7.26259L12.5869 1.93129L12.9175 1.58095C13.2338 1.23463 13.5737 0.910586 13.9348 0.611133C14.155 0.437106 14.4749 0.474174 14.6494 0.694061C14.6502 0.695181 14.6512 0.696358 14.652 0.697478C14.824 0.917812 14.7853 1.23541 14.5655 1.40832C14.241 1.6749 13.9366 1.96511 13.655 2.27655L13.304 2.64213L7.66303 8.34915C7.56666 8.44714 7.43452 8.50246 7.29683 8.50145C7.16088 8.501 7.03076 8.44613 6.93568 8.34915L0.480802 1.78907C0.38567 1.69332 0.332258 1.56358 0.333266 1.42858Z"/>
</svg>
