<svg width="100%" height="100%" viewBox="0 0 10 11" fill="none" xmlns="http://www.w3.org/2000/svg">
<path fill-rule="evenodd" clip-rule="evenodd" d="M7.40549 7.51953C7.32026 7.51828 7.23923 7.4851 7.17952 7.42734C7.05423 7.30755 7.05423 7.11396 7.17952 6.99416L9.0133 5.24599L7.17952 3.49785C7.05295 3.37833 7.05199 3.18386 7.17756 3.06342C7.17824 3.06281 7.17888 3.06221 7.17952 3.06156C7.30541 2.94238 7.50881 2.94238 7.63471 3.06156L9.69773 5.02788C9.82298 5.14767 9.82298 5.34123 9.69773 5.46106L7.63471 7.42426C7.575 7.48419 7.49237 7.51828 7.40549 7.51953Z" fill="#00A3E0"/>
<path fill-rule="evenodd" clip-rule="evenodd" d="M9.21409 5.5H5.44709C5.2639 5.5 5.11523 5.38682 5.11523 5.24739C5.11523 5.10792 5.2639 4.99474 5.44709 4.99474H9.21409C9.39732 4.99474 9.54599 5.10792 9.54599 5.24739C9.54599 5.38682 9.39732 5.5 9.21409 5.5Z" fill="#00A3E0"/>
<path fill-rule="evenodd" clip-rule="evenodd" d="M5.54508 8.7832H4.00663C3.83677 8.7832 3.69893 8.64049 3.69893 8.46468C3.69893 8.28886 3.83677 8.14615 4.00663 8.14615H5.23739V2.094H1.23739C1.06752 2.094 0.929688 1.95128 0.929688 1.77543C0.929688 1.59962 1.06752 1.45691 1.23739 1.45691H5.54508C5.71492 1.45691 5.85275 1.59962 5.85275 1.77543V8.46468C5.85275 8.64049 5.71492 8.7832 5.54508 8.7832Z" fill="#00A3E0"/>
<path fill-rule="evenodd" clip-rule="evenodd" d="M4.05852 10.2985C4.00732 10.2992 3.95643 10.2873 3.91087 10.2633L1.10878 8.79469C1.00073 8.73742 0.931931 8.6245 0.929748 8.50035V1.78126C0.927531 1.66609 0.986281 1.55856 1.08366 1.4997C1.18073 1.44243 1.30073 1.44243 1.3978 1.4997L4.1999 2.96511C4.30577 3.02591 4.37266 3.13886 4.37581 3.26266V9.98175C4.37706 10.096 4.3183 10.2019 4.22189 10.2601C4.17194 10.2876 4.11541 10.3011 4.05852 10.2985ZM1.54545 8.31156L3.74439 9.46023V3.45462L1.54545 2.30599V8.31156Z" fill="#00A3E0"/>
<path fill-rule="evenodd" clip-rule="evenodd" d="M4.05736 10.2988C4.00655 10.2992 3.95644 10.2856 3.91137 10.2593L0.3831 8.20785C0.222249 8.12929 0.147997 7.91841 0.217454 7.73656C0.28698 7.55475 0.473551 7.47081 0.634403 7.54934C0.648364 7.55617 0.662009 7.56403 0.674991 7.57303L4.20326 9.62092C4.35939 9.71134 4.42094 9.92722 4.34099 10.1037C4.2864 10.2238 4.17695 10.2995 4.05736 10.2988Z" fill="#00A3E0"/>
<path fill-rule="evenodd" clip-rule="evenodd" d="M1.17581 9.28906C1.03995 9.28906 0.929688 9.15013 0.929688 8.97898V1.00969C0.929688 0.838506 1.03995 0.699615 1.17581 0.699615C1.31173 0.699615 1.42199 0.838506 1.42199 1.00969V8.97898C1.42199 9.15013 1.31173 9.28906 1.17581 9.28906Z" fill="#00A3E0"/>
<path fill-rule="evenodd" clip-rule="evenodd" d="M4.0756 3.47852C4.00409 3.47852 3.93472 3.45075 3.88033 3.40022L0.60926 1.5733C0.459369 1.49598 0.395406 1.30156 0.466592 1.13877C0.537778 0.97598 0.716819 0.906484 0.866711 0.983803C0.87211 0.986712 0.877472 0.989658 0.882607 0.992603L4.20476 2.8489C4.30718 2.90988 4.37237 3.02537 4.37595 3.15228C4.37595 3.33235 4.24139 3.47852 4.0756 3.47852Z" fill="#00A3E0"/>
</svg>
