<svg width="100%" height="100%" viewBox="0 0 40 40" fill="none" xmlns="http://www.w3.org/2000/svg">
<rect width="100%" height="100%" fill="white"/>
<circle cx="20" cy="20" r="19.75" stroke="#E2EAEC" stroke-width="0.5"/>
<path fill-rule="evenodd" clip-rule="evenodd" d="M19.5834 12.7842C19.1234 12.7842 18.75 12.4106 18.75 11.9503V9.36507C18.75 8.90477 19.1234 8.53114 19.5834 8.53114C20.0433 8.53114 20.4167 8.90477 20.4167 9.36507V11.9503C20.4167 12.4106 20.0433 12.7842 19.5834 12.7842Z" fill="#E2EAEC"/>
<path fill-rule="evenodd" clip-rule="evenodd" d="M19.5831 21.6826H9.58314C9.12311 21.6826 8.74976 21.3091 8.74976 20.8487V9.3652C8.74976 8.90491 9.12311 8.53128 9.58314 8.53128C10.0432 8.53128 10.4165 8.90491 10.4165 9.3652V20.0147H18.7499V17.0375C18.7499 16.5772 19.1232 16.2036 19.5831 16.2036C20.0432 16.2036 20.4166 16.5772 20.4166 17.0375V20.8487C20.4166 21.3091 20.0432 21.6826 19.5831 21.6826Z" fill="#E2EAEC"/>
<path fill-rule="evenodd" clip-rule="evenodd" d="M19.583 12.7842C19.4064 12.785 19.2348 12.7292 19.0914 12.6258L14.5831 9.36498L10.0747 12.6258C9.70388 12.8926 9.18724 12.8109 8.91643 12.4422C8.6447 12.0703 8.72547 11.5491 9.09719 11.2765C9.09801 11.2765 9.09884 11.2755 9.09967 11.2748L14.0997 7.66374C14.3906 7.45357 14.7839 7.45357 15.0747 7.66374L20.0748 11.2748C20.4472 11.545 20.5306 12.067 20.2598 12.4397C20.2598 12.4406 20.2589 12.4415 20.2581 12.4422C20.1006 12.6574 19.8498 12.785 19.583 12.7842Z" fill="#E2EAEC"/>
<path fill-rule="evenodd" clip-rule="evenodd" d="M17.9583 30.2969H11.1666C10.7066 30.2969 10.3333 29.9232 10.3333 29.4629V22.9748C10.3333 22.5145 10.7066 22.1409 11.1666 22.1409C11.6266 22.1409 11.9999 22.5145 11.9999 22.9748V28.629H17.1249V20.8483C17.1249 20.388 17.4982 20.0144 17.9583 20.0144C18.4183 20.0144 18.7916 20.388 18.7916 20.8483V29.4629C18.7916 29.9232 18.4183 30.2969 17.9583 30.2969Z" fill="#E2EAEC"/>
<path fill-rule="evenodd" clip-rule="evenodd" d="M30.6665 30.2969H17.9582C17.4981 30.2969 17.1248 29.9232 17.1248 29.4629V24.0673C17.1248 23.607 17.4981 23.2333 17.9582 23.2333H29.8331V21.3152C29.8331 20.8549 30.2064 20.4813 30.6665 20.4813C31.1264 20.4813 31.4997 20.8549 31.4997 21.3152V23.2333H32.1665C32.6264 23.2333 32.9998 23.607 32.9998 24.0673C32.9998 24.5276 32.6264 24.9012 32.1665 24.9012H31.4997V29.4629C31.4997 29.9232 31.1264 30.2969 30.6665 30.2969ZM18.7915 28.629H29.8331V24.9012H18.7915V28.629Z" fill="#E2EAEC"/>
<path fill-rule="evenodd" clip-rule="evenodd" d="M24.0995 24.9004C23.6395 24.9004 23.2661 24.5267 23.2661 24.0664V21.3144C23.2661 20.8541 23.6395 20.4805 24.0995 20.4805C24.5595 20.4805 24.9329 20.8541 24.9329 21.3144V24.0664C24.9329 24.5267 24.5595 24.9004 24.0995 24.9004Z" fill="#E2EAEC"/>
<path fill-rule="evenodd" clip-rule="evenodd" d="M14.5831 19.1807C12.5814 19.1856 10.9548 17.5644 10.9497 15.5613C10.9456 13.5582 12.5648 11.9303 14.5664 11.9253C16.5681 11.9204 18.1949 13.5415 18.1998 15.5447C18.1998 15.5505 18.1998 15.5555 18.1998 15.5613C18.1957 17.5586 16.579 19.1764 14.5831 19.1807ZM14.5831 13.6016C13.5014 13.5966 12.6215 14.4705 12.6164 15.5529C12.6114 16.6355 13.4847 17.5161 14.5664 17.5211C15.6481 17.5253 16.5281 16.6521 16.5331 15.5697C16.5331 15.5672 16.5331 15.5638 16.5331 15.5613C16.5423 14.4789 15.6732 13.594 14.5915 13.5849C14.5889 13.5849 14.5856 13.5849 14.5831 13.5849V13.6016Z" fill="#E2EAEC"/>
<path fill-rule="evenodd" clip-rule="evenodd" d="M15.2 16.3779H14.5833C14.1234 16.3779 13.75 16.0043 13.75 15.544V14.71C13.75 14.2497 14.1234 13.876 14.5833 13.876C15.0433 13.876 15.4167 14.2497 15.4167 14.71C15.8009 14.8008 16.0692 15.1487 16.0584 15.544C16.0584 16.0043 15.6859 16.3779 15.225 16.3779C15.2167 16.3779 15.2083 16.3779 15.2 16.3779Z" fill="#E2EAEC"/>
<path fill-rule="evenodd" clip-rule="evenodd" d="M13.4832 24.918C13.0233 24.918 12.6499 24.5443 12.6499 24.084V22.9414C12.6499 22.4811 13.0233 22.1075 13.4832 22.1075C13.9432 22.1075 14.3166 22.4811 14.3166 22.9414V24.084C14.3166 24.5443 13.9432 24.918 13.4832 24.918Z" fill="#E2EAEC"/>
<path fill-rule="evenodd" clip-rule="evenodd" d="M15.6415 24.918C15.1815 24.918 14.8081 24.5443 14.8081 24.084V22.9414C14.8081 22.4811 15.1815 22.1075 15.6415 22.1075C16.1015 22.1075 16.4749 22.4811 16.4749 22.9414V24.084C16.4749 24.5443 16.1015 24.918 15.6415 24.918Z" fill="#E2EAEC"/>
<path fill-rule="evenodd" clip-rule="evenodd" d="M15.6415 28.1865C15.1815 28.1865 14.8081 27.813 14.8081 27.3526V26.21C14.8081 25.7497 15.1815 25.376 15.6415 25.376C16.1015 25.376 16.4749 25.7497 16.4749 26.21V27.3526C16.4749 27.813 16.1015 28.1865 15.6415 28.1865Z" fill="#E2EAEC"/>
<path fill-rule="evenodd" clip-rule="evenodd" d="M13.4832 28.1865C13.0233 28.1865 12.6499 27.813 12.6499 27.3526V26.21C12.6499 25.7497 13.0233 25.376 13.4832 25.376C13.9432 25.376 14.3166 25.7497 14.3166 26.21V27.3526C14.3166 27.813 13.9432 28.1865 13.4832 28.1865Z" fill="#E2EAEC"/>
<path fill-rule="evenodd" clip-rule="evenodd" d="M22.2084 28.1865C21.7484 28.1865 21.375 27.813 21.375 27.3526V26.21C21.375 25.7497 21.7484 25.376 22.2084 25.376C22.6684 25.376 23.0418 25.7497 23.0418 26.21V27.3526C23.0418 27.813 22.6684 28.1865 22.2084 28.1865Z" fill="#E2EAEC"/>
<path fill-rule="evenodd" clip-rule="evenodd" d="M20.0832 28.1865C19.6231 28.1865 19.2498 27.813 19.2498 27.3526V26.21C19.2498 25.7497 19.6231 25.376 20.0832 25.376C20.5431 25.376 20.9165 25.7497 20.9165 26.21V27.3526C20.9165 27.813 20.5431 28.1865 20.0832 28.1865Z" fill="#E2EAEC"/>
<path fill-rule="evenodd" clip-rule="evenodd" d="M26.4498 28.1865C25.9898 28.1865 25.6165 27.813 25.6165 27.3526V26.21C25.6165 25.7497 25.9898 25.376 26.4498 25.376C26.9098 25.376 27.2831 25.7497 27.2831 26.21V27.3526C27.2831 27.813 26.9098 28.1865 26.4498 28.1865Z" fill="#E2EAEC"/>
<path fill-rule="evenodd" clip-rule="evenodd" d="M28.5749 28.1865C28.1148 28.1865 27.7415 27.813 27.7415 27.3526V26.21C27.7415 25.7497 28.1148 25.376 28.5749 25.376C29.0348 25.376 29.4082 25.7497 29.4082 26.21V27.3526C29.4082 27.813 29.0348 28.1865 28.5749 28.1865Z" fill="#E2EAEC"/>
<path fill-rule="evenodd" clip-rule="evenodd" d="M24.3248 28.1865C23.8648 28.1865 23.4915 27.813 23.4915 27.3526V26.21C23.4915 25.7497 23.8648 25.376 24.3248 25.376C24.7849 25.376 25.1582 25.7497 25.1582 26.21V27.3526C25.1582 27.813 24.7849 28.1865 24.3248 28.1865Z" fill="#E2EAEC"/>
<path fill-rule="evenodd" clip-rule="evenodd" d="M19.583 17.8711C19.1231 17.8711 18.7497 17.4975 18.7497 17.0373C18.7497 15.3193 16.5581 13.8015 14.583 13.5847C14.1231 13.5338 13.7905 13.1192 13.8413 12.6589C13.8922 12.1986 14.3063 11.8659 14.7664 11.9167C17.4915 12.2087 20.4081 14.3268 20.4081 17.0205C20.4173 17.4808 20.0513 17.8619 19.5914 17.8711C19.5889 17.8711 19.5856 17.8711 19.583 17.8711Z" fill="#E2EAEC"/>
</svg>
