<svg width="32" height="32" viewBox="0 0 32 32" fill="none" xmlns="http://www.w3.org/2000/svg">
<circle cx="16" cy="16" r="15.75" stroke="#1E1E1E" stroke-width="0.5"/>
<path fill-rule="evenodd" clip-rule="evenodd" d="M15.6666 10.2275C15.2986 10.2275 14.9999 9.9287 14.9999 9.56046V7.49225C14.9999 7.12401 15.2986 6.82511 15.6666 6.82511C16.0346 6.82511 16.3333 7.12401 16.3333 7.49225V9.56046C16.3333 9.9287 16.0346 10.2275 15.6666 10.2275Z" fill="#1E1E1E"/>
<path fill-rule="evenodd" clip-rule="evenodd" d="M15.6665 17.3467H7.66646C7.29844 17.3467 6.99976 17.0478 6.99976 16.6795V7.49275C6.99976 7.12451 7.29844 6.82561 7.66646 6.82561C8.03448 6.82561 8.33318 7.12451 8.33318 7.49275V16.0124H14.9998V13.6306C14.9998 13.2623 15.2985 12.9635 15.6665 12.9635C16.0345 12.9635 16.3332 13.2623 16.3332 13.6306V16.6795C16.3332 17.0478 16.0345 17.3467 15.6665 17.3467Z" fill="#1E1E1E"/>
<path fill-rule="evenodd" clip-rule="evenodd" d="M15.6663 10.2275C15.525 10.2282 15.3877 10.1836 15.273 10.1008L11.6664 7.49218L8.05964 10.1008C7.763 10.3143 7.3497 10.2489 7.13305 9.95398C6.91566 9.65646 6.98028 9.23948 7.27765 9.02136C7.27831 9.02136 7.27898 9.02063 7.27964 9.02004L11.2797 6.13118C11.5124 5.96306 11.827 5.96306 12.0597 6.13118L16.0597 9.02004C16.3577 9.23618 16.4244 9.65382 16.2077 9.952C16.2077 9.95266 16.2071 9.95339 16.2064 9.95398C16.0804 10.1262 15.8798 10.2282 15.6663 10.2275Z" fill="#1E1E1E"/>
<path fill-rule="evenodd" clip-rule="evenodd" d="M14.3665 24.2373H8.93326C8.56524 24.2373 8.26654 23.9384 8.26654 23.5702V18.3797C8.26654 18.0114 8.56524 17.7125 8.93326 17.7125C9.3012 17.7125 9.59989 18.0114 9.59989 18.3797V22.903H13.6998V16.6785C13.6998 16.3102 13.9985 16.0113 14.3665 16.0113C14.7346 16.0113 15.0332 16.3102 15.0332 16.6785V23.5702C15.0332 23.9384 14.7346 24.2373 14.3665 24.2373Z" fill="#1E1E1E"/>
<path fill-rule="evenodd" clip-rule="evenodd" d="M24.5331 24.2373H14.3665C13.9985 24.2373 13.6998 23.9384 13.6998 23.5702V19.2536C13.6998 18.8854 13.9985 18.5865 14.3665 18.5865H23.8664V17.052C23.8664 16.6838 24.165 16.3848 24.5331 16.3848C24.9011 16.3848 25.1997 16.6838 25.1997 17.052V18.5865H25.7331C26.1011 18.5865 26.3998 18.8854 26.3998 19.2536C26.3998 19.6219 26.1011 19.9208 25.7331 19.9208H25.1997V23.5702C25.1997 23.9384 24.9011 24.2373 24.5331 24.2373ZM15.0331 22.903H23.8664V19.9208H15.0331V22.903Z" fill="#1E1E1E"/>
<path fill-rule="evenodd" clip-rule="evenodd" d="M19.2796 19.9209C18.9116 19.9209 18.6129 19.622 18.6129 19.2537V17.0521C18.6129 16.6839 18.9116 16.385 19.2796 16.385C19.6476 16.385 19.9463 16.6839 19.9463 17.0521V19.2537C19.9463 19.622 19.6476 19.9209 19.2796 19.9209Z" fill="#1E1E1E"/>
<path fill-rule="evenodd" clip-rule="evenodd" d="M11.6665 15.3447C10.0651 15.3487 8.76382 14.0517 8.75977 12.4492C8.75646 10.8468 10.0518 9.54442 11.6531 9.54045C13.2545 9.53648 14.5559 10.8334 14.5599 12.4359C14.5599 12.4406 14.5599 12.4446 14.5599 12.4492C14.5565 14.0471 13.2632 15.3413 11.6665 15.3447ZM11.6665 10.8814C10.8012 10.8775 10.0972 11.5766 10.0931 12.4425C10.0892 13.3086 10.7878 14.0131 11.6531 14.0171C12.5185 14.0204 13.2225 13.3219 13.2265 12.4559C13.2265 12.4539 13.2265 12.4512 13.2265 12.4492C13.2338 11.5833 12.5385 10.8754 11.6732 10.8681C11.6711 10.8681 11.6685 10.8681 11.6665 10.8681V10.8814Z" fill="#1E1E1E"/>
<path fill-rule="evenodd" clip-rule="evenodd" d="M12.16 13.1025H11.6667C11.2988 13.1025 11.0001 12.8036 11.0001 12.4354V11.7682C11.0001 11.3999 11.2988 11.101 11.6667 11.101C12.0347 11.101 12.3334 11.3999 12.3334 11.7682C12.6408 11.8409 12.8554 12.1191 12.8468 12.4354C12.8468 12.8036 12.5488 13.1025 12.18 13.1025C12.1734 13.1025 12.1667 13.1025 12.16 13.1025Z" fill="#1E1E1E"/>
<path fill-rule="evenodd" clip-rule="evenodd" d="M10.7865 19.9346C10.4186 19.9346 10.1199 19.6357 10.1199 19.2674V18.3533C10.1199 17.9851 10.4186 17.6862 10.7865 17.6862C11.1545 17.6862 11.4532 17.9851 11.4532 18.3533V19.2674C11.4532 19.6357 11.1545 19.9346 10.7865 19.9346Z" fill="#1E1E1E"/>
<path fill-rule="evenodd" clip-rule="evenodd" d="M12.5131 19.9346C12.1451 19.9346 11.8464 19.6357 11.8464 19.2674V18.3533C11.8464 17.9851 12.1451 17.6862 12.5131 17.6862C12.8812 17.6862 13.1799 17.9851 13.1799 18.3533V19.2674C13.1799 19.6357 12.8812 19.9346 12.5131 19.9346Z" fill="#1E1E1E"/>
<path fill-rule="evenodd" clip-rule="evenodd" d="M12.5131 22.5498C12.1451 22.5498 11.8464 22.251 11.8464 21.8827V20.9686C11.8464 20.6003 12.1451 20.3014 12.5131 20.3014C12.8812 20.3014 13.1799 20.6003 13.1799 20.9686V21.8827C13.1799 22.251 12.8812 22.5498 12.5131 22.5498Z" fill="#1E1E1E"/>
<path fill-rule="evenodd" clip-rule="evenodd" d="M10.7865 22.5498C10.4186 22.5498 10.1199 22.251 10.1199 21.8827V20.9686C10.1199 20.6003 10.4186 20.3014 10.7865 20.3014C11.1545 20.3014 11.4532 20.6003 11.4532 20.9686V21.8827C11.4532 22.251 11.1545 22.5498 10.7865 22.5498Z" fill="#1E1E1E"/>
<path fill-rule="evenodd" clip-rule="evenodd" d="M17.7666 22.5498C17.3985 22.5498 17.0999 22.251 17.0999 21.8827V20.9686C17.0999 20.6003 17.3985 20.3014 17.7666 20.3014C18.1346 20.3014 18.4333 20.6003 18.4333 20.9686V21.8827C18.4333 22.251 18.1346 22.5498 17.7666 22.5498Z" fill="#1E1E1E"/>
<path fill-rule="evenodd" clip-rule="evenodd" d="M16.0666 22.5498C15.6985 22.5498 15.3998 22.251 15.3998 21.8827V20.9686C15.3998 20.6003 15.6985 20.3014 16.0666 20.3014C16.4345 20.3014 16.7332 20.6003 16.7332 20.9686V21.8827C16.7332 22.251 16.4345 22.5498 16.0666 22.5498Z" fill="#1E1E1E"/>
<path fill-rule="evenodd" clip-rule="evenodd" d="M21.1597 22.5498C20.7918 22.5498 20.4931 22.251 20.4931 21.8827V20.9686C20.4931 20.6003 20.7918 20.3014 21.1597 20.3014C21.5278 20.3014 21.8264 20.6003 21.8264 20.9686V21.8827C21.8264 22.251 21.5278 22.5498 21.1597 22.5498Z" fill="#1E1E1E"/>
<path fill-rule="evenodd" clip-rule="evenodd" d="M22.8599 22.5498C22.4919 22.5498 22.1932 22.251 22.1932 21.8827V20.9686C22.1932 20.6003 22.4919 20.3014 22.8599 20.3014C23.2278 20.3014 23.5266 20.6003 23.5266 20.9686V21.8827C23.5266 22.251 23.2278 22.5498 22.8599 22.5498Z" fill="#1E1E1E"/>
<path fill-rule="evenodd" clip-rule="evenodd" d="M19.4598 22.5498C19.0918 22.5498 18.7931 22.251 18.7931 21.8827V20.9686C18.7931 20.6003 19.0918 20.3014 19.4598 20.3014C19.8278 20.3014 20.1265 20.6003 20.1265 20.9686V21.8827C20.1265 22.251 19.8278 22.5498 19.4598 22.5498Z" fill="#1E1E1E"/>
<path fill-rule="evenodd" clip-rule="evenodd" d="M15.6665 14.2969C15.2985 14.2969 14.9998 13.998 14.9998 13.6298C14.9998 12.2554 13.2465 11.0412 11.6664 10.8677C11.2985 10.827 11.0324 10.4954 11.0731 10.1272C11.1138 9.75884 11.4451 9.49272 11.8132 9.53337C13.9932 9.76693 16.3265 11.4615 16.3265 13.6164C16.3338 13.9847 16.0411 14.2895 15.6731 14.2969C15.6712 14.2969 15.6685 14.2969 15.6665 14.2969Z" fill="#1E1E1E"/>
</svg>
