<svg width="100%" height="100%" viewBox="0 0 40 40" fill="none" xmlns="http://www.w3.org/2000/svg">
<path fill-rule="evenodd" clip-rule="evenodd" d="M17.7793 23.4258H9.23331C9.00483 23.424 8.78286 23.3621 8.60063 23.2489L8.46118 23.1694C8.31856 23.0773 8.20481 22.9597 8.12866 22.8243C8.05475 22.6908 8.01076 22.5466 8 22.3998L8.00005 8.99179C7.99899 8.88662 8.02049 8.78126 8.06436 8.68223C8.18025 8.42044 8.42045 8.2099 8.72934 8.0985L8.86875 8.05415C8.9889 8.01799 9.1164 8.00024 9.24411 8.00111H17.8544C18.0377 7.99848 18.219 8.03563 18.3798 8.10727C18.5556 8.19041 18.7058 8.30541 18.8195 8.44333L18.916 8.58485C19.0222 8.71935 19.0779 8.87591 19.0769 9.03605L19.0769 22.3202C19.0757 22.5395 18.9771 22.7509 18.798 22.9128L18.5941 23.0986C18.3948 23.302 18.0965 23.4214 17.7793 23.4258ZM9.80375 21.7115H17.2303L17.2303 9.71567H9.8038L9.80375 21.7115Z" fill="#1E1E1E"/>
<path fill-rule="evenodd" clip-rule="evenodd" d="M30.7035 31.9961H22.1562C21.9277 31.9943 21.7057 31.9324 21.5235 31.8192L21.384 31.7397C21.2414 31.6477 21.1277 31.53 21.0515 31.3946C20.9776 31.2611 20.9336 31.1169 20.9229 30.9701L20.9229 20.9907C20.9218 20.8855 20.9433 20.7802 20.9872 20.6811C21.1031 20.4193 21.3433 20.2088 21.6522 20.0974L21.7916 20.053C21.9118 20.0169 22.0392 19.9991 22.167 20H30.7786C30.9619 19.9974 31.1432 20.0345 31.304 20.1062C31.4799 20.1893 31.6301 20.3043 31.7437 20.4422L31.8402 20.5837C31.9464 20.7182 32.0021 20.8748 32.0012 21.0349L32.0011 30.8905C31.9999 31.1098 31.9013 31.3212 31.7222 31.4831L31.5184 31.6689C31.319 31.8723 31.0208 31.9917 30.7035 31.9961ZM22.7266 30.2818H30.1545L30.1546 21.7146H22.7267L22.7266 30.2818Z" fill="#1E1E1E"/>
<path fill-rule="evenodd" clip-rule="evenodd" d="M17.7806 31.9961H9.23331C9.00483 31.9943 8.78286 31.9324 8.60063 31.8192L8.46118 31.7397C8.31856 31.6477 8.20481 31.53 8.12866 31.3946C8.05475 31.2611 8.01076 31.1169 8 30.9701L8.00005 26.1335C7.99899 26.0284 8.02049 25.923 8.06436 25.824C8.18025 25.5622 8.42045 25.3517 8.72934 25.2402L8.86875 25.1959C8.9889 25.1597 9.1164 25.142 9.24411 25.1429H17.8558C18.0391 25.1402 18.2203 25.1774 18.3812 25.249C18.557 25.3322 18.7072 25.4472 18.8208 25.5851L18.9173 25.7266C19.0235 25.8611 19.0792 26.0177 19.0783 26.1778L19.0783 30.8905C19.0771 31.1098 18.9784 31.3212 18.7994 31.4831L18.5955 31.6689C18.3961 31.8723 18.0979 31.9917 17.7806 31.9961ZM9.80375 30.2818H17.2317L17.2317 26.8574H9.8038L9.80375 30.2818Z" fill="#1E1E1E"/>
<path fill-rule="evenodd" clip-rule="evenodd" d="M30.7035 18.2812H22.1562C21.9277 18.2795 21.7057 18.2176 21.5235 18.1043L21.384 18.0248C21.2414 17.9328 21.1277 17.8152 21.0515 17.6798C20.9776 17.5463 20.9336 17.4021 20.9229 17.2553L20.9229 8.99011C20.9218 8.88495 20.9433 8.77959 20.9872 8.68056C21.1031 8.41877 21.3433 8.20823 21.6522 8.09683L21.7916 8.05248C21.9118 8.01632 22.0392 7.99857 22.167 7.99944H30.7786C30.9619 7.99681 31.1432 8.03396 31.304 8.1056C31.4799 8.18874 31.6301 8.30374 31.7437 8.44166L31.8402 8.58318C31.9464 8.71768 32.0021 8.87424 32.0012 9.03437L32.0011 17.1757C31.9999 17.395 31.9013 17.6064 31.7222 17.7683L31.5184 17.9541C31.319 18.1575 31.0208 18.2769 30.7035 18.2812ZM22.7266 16.567H30.1545L30.1546 9.714H22.7267L22.7266 16.567Z" fill="#1E1E1E"/>
</svg>
