<svg width="100%" height="100%" viewBox="0 0 32 32" fill="none" xmlns="http://www.w3.org/2000/svg">
<path d="M31.75 15.9712C31.75 24.6534 24.6989 31.6924 16 31.6924C7.30109 31.6924 0.25 24.6534 0.25 15.9712C0.25 7.28904 7.30109 0.25 16 0.25C24.6989 0.25 31.75 7.28904 31.75 15.9712Z" stroke="#1E1E1E" stroke-width="0.5"/>
<path fill-rule="evenodd" clip-rule="evenodd" d="M15.9996 25.8672C15.6316 25.8672 15.333 25.5687 15.333 25.2005C15.333 24.8323 15.6316 24.5339 15.9996 24.5339C20.7124 24.5339 24.5331 20.7133 24.5331 16.0005C24.5331 11.2877 20.7124 7.46711 15.9996 7.46711C15.6316 7.46711 15.333 7.16866 15.333 6.80047C15.333 6.43229 15.6316 6.13381 15.9996 6.13381C21.449 6.13381 25.8664 10.5512 25.8664 16.0005C25.8664 21.4497 21.449 25.8672 15.9996 25.8672Z" fill="#1E1E1E"/>
<path fill-rule="evenodd" clip-rule="evenodd" d="M6.97287 25.1797H6.83283C6.47493 25.103 6.24556 24.7517 6.31952 24.393L7.21285 20.0797C7.2702 19.81 7.48752 19.6032 7.75954 19.5596C7.8435 19.5434 7.92952 19.5434 8.01289 19.5596L12.3128 20.453C12.6808 20.5284 12.9181 20.8881 12.8428 21.2563C12.7675 21.6245 12.4074 21.8617 12.0395 21.7864L8.38615 21.0263L7.62618 24.6663C7.55486 24.9688 7.2835 25.1818 6.97287 25.1797Z" fill="#1E1E1E"/>
<path fill-rule="evenodd" clip-rule="evenodd" d="M16.0408 25.8671C12.3462 25.88 8.95688 23.8195 7.26754 20.5338C7.13219 20.1913 7.30018 19.8042 7.64286 19.669C7.93818 19.5524 8.27486 19.6604 8.44756 19.9271C10.6069 24.1162 15.7535 25.7614 19.9421 23.6019C22.5748 22.2449 24.3154 19.6201 24.5408 16.6672C24.5695 16.3012 24.8882 16.027 25.2542 16.0538C25.6216 16.082 25.8962 16.4025 25.8682 16.7696C25.8675 16.771 25.8675 16.7724 25.8675 16.7738C25.4455 21.8947 21.1788 25.8431 16.0408 25.8671Z" fill="#1E1E1E"/>
<path fill-rule="evenodd" clip-rule="evenodd" d="M7.87356 12.4602H7.78691C7.42292 12.4151 7.16351 12.0844 7.20688 11.7202C7.25225 11.3562 7.58296 11.0971 7.94688 11.1402C8.31492 11.1605 8.59694 11.4753 8.57694 11.8436C8.55695 12.2118 8.24153 12.4938 7.87356 12.4736V12.4602Z" fill="#1E1E1E"/>
<path fill-rule="evenodd" clip-rule="evenodd" d="M25.1995 15.9336C24.8508 15.9347 24.5608 15.6674 24.5329 15.3202C24.1548 10.6226 20.0402 7.12099 15.3422 7.49923C12.4009 7.73598 9.79014 9.47607 8.43951 12.1002C8.23953 12.4094 7.82688 12.498 7.5175 12.2982C7.25085 12.1258 7.14293 11.789 7.25953 11.4936C9.74685 6.64934 15.6902 4.73884 20.5348 7.22631C23.5735 8.7866 25.5882 11.8085 25.8595 15.2136C25.8902 15.5805 25.6175 15.9027 25.2501 15.9332C25.2489 15.9333 25.2475 15.9334 25.2462 15.9336H25.1995Z" fill="#1E1E1E"/>
<path fill-rule="evenodd" clip-rule="evenodd" d="M16.0003 16.666C15.823 16.667 15.653 16.5975 15.527 16.4727L9.10037 10.0459C8.83894 9.78452 8.83894 9.36072 9.10037 9.09931C9.36166 8.83784 9.78565 8.83784 10.047 9.09931L16.4737 15.526C16.735 15.7853 16.737 16.2074 16.4777 16.4689C16.4763 16.4701 16.475 16.4715 16.4737 16.4727C16.3477 16.5975 16.1777 16.667 16.0003 16.666Z" fill="#1E1E1E"/>
<path fill-rule="evenodd" clip-rule="evenodd" d="M15.9997 16.666C15.8223 16.667 15.6524 16.5974 15.5264 16.4726C15.265 16.2133 15.263 15.7912 15.5224 15.5298C15.5237 15.5285 15.525 15.5272 15.5264 15.5259L18.733 12.3259C18.9724 12.0463 19.3937 12.0137 19.6731 12.2531C19.9524 12.4927 19.9851 12.9135 19.7458 13.1932C19.7237 13.2193 19.6991 13.2436 19.6731 13.2659L16.4731 16.4726C16.347 16.5974 16.177 16.667 15.9997 16.666Z" fill="#1E1E1E"/>
</svg>
