<svg width="100%" height="100%" viewBox="0 0 51 52" fill="none" xmlns="http://www.w3.org/2000/svg">
<path fill-rule="evenodd" clip-rule="evenodd" d="M2.4697 51.9999C1.81677 51.9973 1.18858 51.7376 0.725269 51.2759C-0.241756 50.3023 -0.241756 48.7296 0.725269 47.756L29.9797 18.4239C30.9564 17.4454 32.5414 17.4454 33.5181 18.4239C34.495 19.4025 34.495 20.9901 33.5181 21.9686L4.23886 51.2759C3.76785 51.7428 3.13252 52.0049 2.4697 51.9999Z" fill="#1E1E1E"/>
<path fill-rule="evenodd" clip-rule="evenodd" d="M47.6215 51.9999C46.9587 52.0049 46.3233 51.7428 45.8523 51.2759L0.724993 6.06664C-0.169759 5.02066 -0.0475131 3.44297 0.996456 2.54673C1.92831 1.74558 3.30648 1.74558 4.23833 2.54673L49.3158 47.756C50.2829 48.7296 50.2829 50.3023 49.3158 51.2759C48.8649 51.7253 48.2571 51.985 47.6215 51.9999Z" fill="#1E1E1E"/>
<path fill-rule="evenodd" clip-rule="evenodd" d="M11.5394 42.8383C10.8766 42.8433 10.2412 42.5812 9.77023 42.1143C8.79358 41.1433 8.78616 39.563 9.75538 38.5844C9.76033 38.5795 9.76528 38.5745 9.77023 38.5695L33.3685 14.9539C37.3803 10.9349 41.5419 6.76577 43.3361 1.77321C43.7345 0.452625 45.1275 -0.291252 46.4433 0.108032C47.7615 0.509903 48.504 1.90306 48.1055 3.22343C48.0877 3.28091 48.0679 3.33836 48.0454 3.39582C45.9525 9.48685 41.1679 14.2549 36.9566 18.3739L13.3836 42.0145C12.9126 42.5362 12.2423 42.8359 11.5394 42.8383Z" fill="#1E1E1E"/>
</svg>
