<svg width="100%" height="100%" viewBox="0 0 20 20" fill="none" xmlns="http://www.w3.org/2000/svg">
<path d="M0 10C0 4.47715 4.47715 0 10 0C15.5228 0 20 4.47715 20 10C20 15.5228 15.5228 20 10 20C4.47715 20 0 15.5228 0 10Z" fill="white"/>
<path fill-rule="evenodd" clip-rule="evenodd" d="M10 20C4.47708 20 0 15.5228 0 10C0 4.4772 4.47708 0 10 0C15.5229 0 20 4.4772 20 10C20 15.5228 15.5229 20 10 20ZM10 0.833368C4.93752 0.833368 0.833339 4.93738 0.833339 10C0.833339 15.0626 4.93752 19.1666 10 19.1666C15.0625 19.1666 19.1666 15.0626 19.1666 10C19.1666 4.93738 15.0625 0.833368 10 0.833368Z" fill="#1E1E1E"/>
<path fill-rule="evenodd" clip-rule="evenodd" d="M15.7833 15.085H9.30774C9.05001 15.085 8.84082 14.876 8.84082 14.6187C8.84082 14.3613 9.05001 14.1524 9.30774 14.1524H15.7833C16.041 14.1524 16.2501 14.3613 16.2501 14.6187C16.2501 14.876 16.041 15.085 15.7833 15.085Z" fill="#1E1E1E"/>
<path fill-rule="evenodd" clip-rule="evenodd" d="M7.25368 15.085H4.24231C3.98458 15.085 3.77539 14.876 3.77539 14.6187C3.77539 14.3613 3.98458 14.1524 4.24231 14.1524H7.27697C7.53474 14.1524 7.74388 14.3613 7.74388 14.6187C7.74388 14.876 7.53474 15.085 7.27697 15.085H7.25368Z" fill="#1E1E1E"/>
<path fill-rule="evenodd" clip-rule="evenodd" d="M15.7833 10.8887H9.30774C9.05001 10.8887 8.84082 10.6798 8.84082 10.4224C8.84082 10.165 9.05001 9.95614 9.30774 9.95614H15.7833C16.041 9.95614 16.2501 10.165 16.2501 10.4224C16.2501 10.6798 16.041 10.8887 15.7833 10.8887Z" fill="#1E1E1E"/>
<path fill-rule="evenodd" clip-rule="evenodd" d="M15.7833 6.69238H9.30774C9.05001 6.69238 8.84082 6.48351 8.84082 6.22609C8.84082 5.96878 9.05001 5.75987 9.30774 5.75987H15.7833C16.041 5.75987 16.2501 5.96878 16.2501 6.22609C16.2501 6.48351 16.041 6.69238 15.7833 6.69238Z" fill="#1E1E1E"/>
<path fill-rule="evenodd" clip-rule="evenodd" d="M5.11051 7.76073C4.98818 7.76027 4.87048 7.71177 4.78368 7.62553L3.88727 6.73497C3.70424 6.55225 3.70424 6.2557 3.88727 6.07288C4.07034 5.89017 4.36723 5.89017 4.5502 6.07288L5.11051 6.6371L6.92664 4.82337C7.10874 4.64246 7.40288 4.64246 7.58492 4.82337C7.768 5.00475 7.76933 5.29986 7.58775 5.48268C7.58682 5.4836 7.5859 5.48453 7.58492 5.48546L5.44196 7.62553C5.35372 7.71269 5.23469 7.76166 5.11051 7.76073Z" fill="#1E1E1E"/>
<path fill-rule="evenodd" clip-rule="evenodd" d="M5.11006 11.9609C4.9868 11.959 4.86961 11.9087 4.78322 11.8211L3.88682 10.9305C3.7057 10.7487 3.7057 10.4549 3.88682 10.2731C4.0685 10.0903 4.36401 10.0889 4.54699 10.2703C4.54796 10.2712 4.54889 10.2722 4.54981 10.2731L5.11006 10.8326L6.92619 9.02354C7.12188 8.85617 7.41692 8.87902 7.5845 9.0744C7.73437 9.24872 7.73437 9.50662 7.5845 9.68099L5.44157 11.8211C5.35425 11.9101 5.23475 11.9605 5.11006 11.9609Z" fill="#1E1E1E"/>
</svg>
