<svg width="100%" height="100%" viewBox="0 0 20 20" fill="none" xmlns="http://www.w3.org/2000/svg">
<path d="M0 10C0 4.47715 4.47715 0 10 0C15.5228 0 20 4.47715 20 10C20 15.5228 15.5228 20 10 20C4.47715 20 0 15.5228 0 10Z" fill="white"/>
<path fill-rule="evenodd" clip-rule="evenodd" d="M10 20C4.47708 20 0 15.5228 0 10C0 4.4772 4.47708 0 10 0C15.5229 0 20 4.4772 20 10C20 15.5228 15.5229 20 10 20ZM10 0.833368C4.93752 0.833368 0.833339 4.93738 0.833339 10C0.833339 15.0626 4.93752 19.1666 10 19.1666C15.0625 19.1666 19.1666 15.0626 19.1666 10C19.1666 4.93738 15.0625 0.833368 10 0.833368Z" fill="#1E1E1E"/>
<path fill-rule="evenodd" clip-rule="evenodd" d="M10.7918 9.71679C10.6819 9.71639 10.5765 9.67185 10.4995 9.59307L8.89814 7.96824C8.74996 7.81976 8.6018 7.66307 8.44536 7.51872C8.28811 7.35417 8.29382 7.09315 8.45811 6.9356C8.60751 6.7925 8.84013 6.78258 9.0011 6.9125C9.16989 7.0692 9.33041 7.23007 9.4868 7.39086L10.7918 8.7188L15.5423 3.87315C15.7024 3.71024 15.9642 3.7086 16.1268 3.86901C16.2894 4.02944 16.2911 4.29172 16.1309 4.45463L11.0881 9.59307C11.0099 9.67267 10.9033 9.71761 10.7918 9.71679Z" fill="black"/>
<path fill-rule="evenodd" clip-rule="evenodd" d="M13.406 15.1855H5.41166C5.18445 15.1855 5 15.0008 5 14.7731V4.94573C5 4.71808 5.18445 4.53333 5.41166 4.53333H13.406C13.6332 4.53333 13.8176 4.71808 13.8176 4.94573C13.8176 5.17339 13.6332 5.35813 13.406 5.35813H5.82332V14.3607H12.9943V8.2449C13.0367 7.26997 13.3582 6.32806 13.9205 5.53135C14.0547 5.347 14.3128 5.30616 14.4969 5.44062C14.6808 5.57504 14.7216 5.83364 14.5874 6.01796C14.1231 6.67118 13.8547 7.44401 13.8135 8.2449V14.7731C13.8135 14.9991 13.6316 15.1831 13.406 15.1855Z" fill="black"/>
</svg>
