<svg width="100%" height="100%" viewBox="0 0 14 14" fill="none" xmlns="http://www.w3.org/2000/svg">
<path fill-rule="evenodd" clip-rule="evenodd" d="M7.75658 13.5276H6.23469C6.20394 13.5314 6.17285 13.5314 6.1421 13.5276L6.0162 13.4942C5.93286 13.4727 5.85955 13.423 5.80883 13.3533L5.7126 13.2198C5.67405 13.166 5.64999 13.1036 5.64219 13.038L5.50889 11.6691L5.17934 11.5726L5.1016 11.5392L4.8387 11.3946L3.79443 12.2033C3.77814 12.2185 3.75924 12.2311 3.7389 12.2404L3.61298 12.3072C3.56039 12.3342 3.50188 12.3483 3.44262 12.348C3.35675 12.3487 3.27193 12.3257 3.19826 12.2812L3.10201 12.2144C3.07938 12.1981 3.05827 12.1796 3.039 12.1588L1.99476 11.0013C1.98439 10.9932 1.97555 10.9832 1.96889 10.9717L1.87258 10.8381C1.80961 10.7502 1.78781 10.6393 1.81334 10.5339L1.843 10.4004C1.85815 10.3496 1.88183 10.3021 1.91336 10.2594L2.72428 9.21701L2.56872 8.89428C2.5617 8.88093 2.55577 8.86753 2.55018 8.85344L2.43543 8.51217L1.17274 8.34152C1.10683 8.33372 1.04386 8.30774 0.991263 8.26732L0.865369 8.16714C0.799459 8.1141 0.752818 8.04141 0.732073 7.95941L0.702463 7.82959C0.699114 7.80137 0.699114 7.77246 0.702463 7.74424V6.15282C0.70283 6.115 0.709127 6.07751 0.720969 6.04153L0.750567 5.94136C0.773884 5.87088 0.817628 5.80856 0.876473 5.76328L1.00237 5.66315C1.05496 5.62272 1.11793 5.59675 1.18384 5.58895L2.44654 5.41829L2.56134 5.07702C2.5669 5.06294 2.57281 5.04958 2.57984 5.03623L2.73539 4.71346L1.92442 3.67103C1.89298 3.62839 1.86924 3.5809 1.85409 3.53006L1.82445 3.39653C1.79889 3.29117 1.82073 3.18026 1.8837 3.09234L1.97998 2.9588C1.98664 2.94729 1.9955 2.93729 2.00588 2.92912L3.05014 1.77169C3.07938 1.73833 3.11454 1.71089 3.15382 1.6901L3.28343 1.62329C3.39006 1.568 3.51743 1.568 3.62405 1.62329L3.74999 1.6901C3.77037 1.69933 3.78923 1.71195 3.80553 1.72718L4.84976 2.5359L5.11267 2.39122L5.19046 2.35782L5.52001 2.2614L5.6533 0.892531C5.6611 0.826866 5.68516 0.764544 5.72367 0.710763L5.81995 0.577192C5.87071 0.507444 5.94401 0.457747 6.02732 0.436226L6.15321 0.402821C6.18396 0.399105 6.21504 0.399105 6.24583 0.402821H7.76772C7.79847 0.399105 7.82954 0.399105 7.86029 0.402821L7.98988 0.436226C8.12174 0.470365 8.22391 0.57458 8.25649 0.707012L8.28613 0.840545L8.48607 2.26879L8.77123 2.36153L8.82677 2.38379L9.12671 2.53958L10.1747 1.72718L10.2302 1.6901L10.3598 1.62329C10.4665 1.568 10.5938 1.568 10.7005 1.62329L10.8264 1.6901C10.8634 1.70938 10.8971 1.73421 10.9264 1.7643L12.0076 2.9254C12.0499 2.97179 12.0806 3.02778 12.0965 3.08862L12.1261 3.22216C12.1409 3.27933 12.1409 3.3394 12.1261 3.39653L12.0965 3.53006C12.0842 3.57719 12.0628 3.62133 12.0336 3.65992L11.2522 4.72832L11.5114 5.42201L12.7889 5.59262C12.8541 5.6001 12.9156 5.6257 12.9667 5.66682L13.0963 5.76703C13.1281 5.79333 13.1555 5.82486 13.1778 5.85973L13.2407 5.95619C13.2792 6.01593 13.2999 6.08531 13.2999 6.15653V7.748C13.3003 7.80325 13.2877 7.85814 13.2629 7.90751L13.2 8.04105C13.1752 8.09111 13.1396 8.13562 13.0963 8.17086L12.9667 8.27104C12.9156 8.3122 12.8541 8.3378 12.7889 8.34524L11.5114 8.51589L11.2522 9.20957L12.0224 10.2743C12.0516 10.3129 12.0732 10.357 12.0854 10.4041L12.115 10.5377C12.1298 10.5948 12.1298 10.6549 12.115 10.712L12.0854 10.8455C12.0694 10.9064 12.0387 10.9624 11.9965 11.0088L10.8486 12.2366C10.779 12.3098 10.6827 12.3513 10.5819 12.3517H10.4857C10.4101 12.3513 10.3365 12.3283 10.2746 12.2849L10.1821 12.2181L9.11559 11.3946L8.81565 11.5504L8.76012 11.5726L8.47501 11.6654L8.24543 13.2272C8.21284 13.3596 8.11063 13.4639 7.97881 13.498L7.84918 13.5314C7.81843 13.534 7.78733 13.5328 7.75658 13.5276ZM6.3643 12.7857H7.57147L7.77144 11.3019C7.79141 11.1616 7.88883 11.0452 8.02322 11.0013L8.50457 10.8455L8.98232 10.5933C9.11116 10.5258 9.2678 10.5403 9.38218 10.6304L10.4931 11.4947L11.3485 10.5784L10.5338 9.46554C10.4616 9.36577 10.4435 9.23632 10.4857 9.12055L10.6746 8.59009L10.9004 8.01879C10.9493 7.89269 11.0626 7.80289 11.1967 7.78508L12.5556 7.607V6.28635L11.1967 6.10831C11.0626 6.0905 10.9493 6.00074 10.9004 5.8746L10.4857 4.76169C10.4435 4.64596 10.4616 4.5165 10.5338 4.4167L11.3485 3.30379L10.4931 2.3875L9.38218 3.25185C9.2678 3.34201 9.11116 3.35647 8.98232 3.28897L8.50457 3.03668L8.02322 2.88089C7.88883 2.83711 7.79141 2.72065 7.77144 2.58042L7.57147 1.09651H6.3643L6.22358 2.54701C6.20838 2.69803 6.1025 2.82453 5.95696 2.86607L5.42744 3.02186L4.9868 3.26671C4.85645 3.33829 4.69608 3.32531 4.57946 3.2333L3.4686 2.36897L2.60947 3.31861L3.45374 4.40188C3.53305 4.50907 3.54856 4.65078 3.49449 4.7728L3.25008 5.28476L3.06492 5.82637C3.02012 5.95954 2.90386 6.05562 2.76498 6.07494L1.43565 6.24927V7.57735L2.76498 7.75168C2.90386 7.77099 3.02012 7.86704 3.06492 8.00021L3.25008 8.54186L3.49449 9.05378C3.54856 9.17584 3.53305 9.31755 3.45374 9.42474L2.60947 10.508L3.4686 11.4577L4.57946 10.5933C4.69608 10.5013 4.85645 10.4883 4.9868 10.5599L5.42744 10.8048L5.95696 10.9606C6.1025 11.0021 6.20802 11.1286 6.22358 11.2796L6.3643 12.7857Z"/>
<path fill-rule="evenodd" clip-rule="evenodd" d="M6.99744 9.55029C5.56592 9.54997 4.40535 8.38736 4.40576 6.95318C4.40609 5.51901 5.56664 4.3564 6.99816 4.35681C7.50179 4.35681 7.99434 4.5037 8.41569 4.77971C8.57495 4.90806 8.60009 5.14177 8.47162 5.30128C8.36014 5.4404 8.16535 5.47973 8.00837 5.39553C7.15449 4.83203 6.00617 5.06908 5.44369 5.92452C4.88121 6.77996 5.11782 7.93028 5.97174 8.49382C6.82563 9.05695 7.97394 8.82027 8.53642 7.96483C8.73379 7.66431 8.83967 7.31303 8.84155 6.95355C8.84192 6.81001 8.82601 6.6668 8.79342 6.52694C8.74715 6.32737 8.87154 6.12817 9.07078 6.08178H9.07115C9.27035 6.0358 9.46922 6.16007 9.51548 6.35963V6.36C9.55995 6.55479 9.58252 6.75399 9.58216 6.95355C9.58216 8.38474 8.42609 9.54621 6.99744 9.55029Z"/>
</svg>
