<svg width="100%" height="100%" viewBox="0 0 45 45" fill="none" xmlns="http://www.w3.org/2000/svg">
<path fill-rule="evenodd" clip-rule="evenodd" d="M23.9187 34.7393H21.0651C21.0075 34.7462 20.9492 34.7462 20.8915 34.7393L20.6555 34.6766C20.4992 34.6363 20.3617 34.5431 20.2667 34.4124L20.0862 34.162C20.0139 34.0611 19.9688 33.9443 19.9542 33.8211L19.7043 31.2545L19.0864 31.0737L18.9406 31.011L18.4476 30.7397L16.4897 32.2561C16.4591 32.2847 16.4237 32.3082 16.3855 32.3257L16.1494 32.4509C16.0508 32.5017 15.9411 32.5281 15.83 32.5274C15.669 32.5288 15.51 32.4857 15.3718 32.4022L15.1914 32.2769C15.1489 32.2464 15.1094 32.2116 15.0732 32.1726L13.1153 30.0025C13.0958 29.9872 13.0792 29.9684 13.0668 29.9469L12.8862 29.6964C12.7681 29.5316 12.7272 29.3236 12.7751 29.1261L12.8307 28.8757C12.8591 28.7804 12.9035 28.6913 12.9626 28.6113L14.4831 26.6568L14.1914 26.0517C14.1783 26.0267 14.1672 26.0016 14.1567 25.9751L13.9415 25.3353L11.574 25.0153C11.4504 25.0007 11.3323 24.952 11.2337 24.8762L10.9977 24.6883C10.8741 24.5889 10.7866 24.4526 10.7477 24.2988L10.6922 24.0554C10.6859 24.0025 10.6859 23.9483 10.6922 23.8954V20.9115C10.6929 20.8406 10.7047 20.7703 10.7269 20.7028L10.7824 20.515C10.8261 20.3828 10.9081 20.266 11.0185 20.1811L11.2545 19.9933C11.3531 19.9175 11.4712 19.8688 11.5948 19.8542L13.9624 19.5342L14.1776 18.8944C14.188 18.8679 14.1991 18.8429 14.2123 18.8179L14.504 18.2127L12.9834 16.2581C12.9244 16.1782 12.8799 16.0891 12.8515 15.9938L12.7959 15.7434C12.748 15.5459 12.789 15.3379 12.907 15.1731L13.0876 14.9227C13.1 14.9011 13.1167 14.8823 13.1361 14.867L15.0941 12.6969C15.1489 12.6343 15.2149 12.5829 15.2885 12.5439L15.5315 12.4186C15.7314 12.3149 15.9703 12.3149 16.1702 12.4186L16.4063 12.5439C16.4445 12.5612 16.4799 12.5848 16.5105 12.6134L18.4684 14.1298L18.9613 13.8585L19.1072 13.7958L19.7251 13.6151L19.975 11.0484C19.9897 10.9253 20.0348 10.8085 20.107 10.7076L20.2875 10.4572C20.3827 10.3264 20.5201 10.2332 20.6763 10.1929L20.9124 10.1302C20.97 10.1233 21.0283 10.1233 21.086 10.1302H23.9396C23.9972 10.1233 24.0555 10.1233 24.1131 10.1302L24.3561 10.1929C24.6033 10.2569 24.7949 10.4523 24.856 10.7006L24.9116 10.951L25.2865 13.6289L25.8212 13.8028L25.9253 13.8445L26.4877 14.1366L28.4526 12.6134L28.5568 12.5439L28.7997 12.4186C28.9997 12.3149 29.2385 12.3149 29.4385 12.4186L29.6746 12.5439C29.744 12.58 29.8071 12.6266 29.862 12.683L31.8894 14.8601C31.9686 14.947 32.0261 15.052 32.056 15.1661L32.1115 15.4165C32.1393 15.5237 32.1393 15.6363 32.1115 15.7434L32.056 15.9938C32.033 16.0822 31.9928 16.1649 31.938 16.2373L30.473 18.2405L30.959 19.5412L33.3543 19.8611C33.4766 19.8751 33.5918 19.9231 33.6876 20.0002L33.9306 20.1881C33.9903 20.2374 34.0417 20.2966 34.0834 20.3619L34.2014 20.5428C34.2736 20.6548 34.3125 20.7849 34.3125 20.9184V23.9024C34.3132 24.006 34.2896 24.109 34.2431 24.2015L34.125 24.4519C34.0786 24.5458 34.0119 24.6292 33.9306 24.6953L33.6876 24.8831C33.5918 24.9603 33.4766 25.0083 33.3543 25.0223L30.959 25.3422L30.473 26.6429L31.9171 28.6392C31.9719 28.7115 32.0123 28.7943 32.0352 28.8826L32.0908 29.133C32.1185 29.2402 32.1185 29.3529 32.0908 29.4599L32.0352 29.7103C32.0053 29.8244 31.9477 29.9294 31.8686 30.0164L29.7162 32.3187C29.5857 32.4558 29.4051 32.5337 29.2162 32.5343H29.0358C28.8941 32.5337 28.756 32.4905 28.64 32.4092L28.4665 32.284L26.4668 30.7397L25.9044 31.0319L25.8003 31.0737L25.2657 31.2475L24.8353 34.1759C24.7742 34.4242 24.5825 34.6197 24.3354 34.6836L24.0923 34.7462C24.0346 34.7511 23.9763 34.749 23.9187 34.7393ZM21.3082 33.3481H23.5716L23.9465 30.5659C23.984 30.303 24.1667 30.0846 24.4186 30.0025L25.3212 29.7103L26.2169 29.2374C26.4585 29.1108 26.7522 29.1379 26.9667 29.3069L29.0496 30.9276L30.6535 29.2095L29.126 27.1228C28.9907 26.9358 28.9566 26.693 29.0358 26.476L29.3899 25.4814L29.8134 24.4102C29.905 24.1737 30.1175 24.0054 30.3688 23.972L32.9169 23.6381V21.1618L30.3688 20.828C30.1175 20.7946 29.905 20.6263 29.8134 20.3898L29.0358 18.3031C28.9566 18.0861 28.9907 17.8434 29.126 17.6562L30.6535 15.5695L29.0496 13.8515L26.9667 15.4721C26.7522 15.6412 26.4585 15.6683 26.2169 15.5417L25.3212 15.0687L24.4186 14.7766C24.1667 14.6945 23.984 14.4762 23.9465 14.2132L23.5716 11.4309H21.3082L21.0443 14.1506C21.0158 14.4337 20.8173 14.6709 20.5444 14.7488L19.5515 15.0409L18.7253 15.5C18.4809 15.6342 18.1803 15.6099 17.9616 15.4374L15.8787 13.8167L14.2679 15.5973L15.8509 17.6285C15.9996 17.8294 16.0286 18.0951 15.9273 18.3239L15.469 19.2839L15.1218 20.2994C15.0378 20.5491 14.8198 20.7292 14.5594 20.7654L12.0669 21.0923V23.5825L14.5594 23.9093C14.8198 23.9456 15.0378 24.1256 15.1218 24.3753L15.469 25.3909L15.9273 26.3508C16.0286 26.5796 15.9996 26.8453 15.8509 27.0463L14.2679 29.0774L15.8787 30.858L17.9616 29.2374C18.1803 29.0649 18.4809 29.0405 18.7253 29.1748L19.5515 29.6339L20.5444 29.926C20.8173 30.0038 21.0151 30.2411 21.0443 30.5242L21.3082 33.3481Z" fill="#1E1E1E"/>
<path fill-rule="evenodd" clip-rule="evenodd" d="M22.4952 27.2822C19.8111 27.2816 17.635 25.1017 17.6358 22.4126C17.6364 19.7236 19.8125 17.5437 22.4965 17.5445C23.4409 17.5445 24.3644 17.8199 25.1544 18.3374C25.453 18.578 25.5002 19.0162 25.2593 19.3153C25.0503 19.5762 24.685 19.6499 24.3907 19.492C22.7897 18.4355 20.6366 18.88 19.5819 20.4839C18.5273 22.0878 18.9709 24.2447 20.572 25.3013C22.1731 26.3572 24.3261 25.9134 25.3808 24.3095C25.7508 23.746 25.9494 23.0874 25.9529 22.4133C25.9536 22.1442 25.9238 21.8757 25.8627 21.6134C25.7759 21.2392 26.0091 20.8657 26.3827 20.7788H26.3834C26.7569 20.6926 27.1298 20.9256 27.2165 21.2997V21.3004C27.2999 21.6657 27.3422 22.0392 27.3415 22.4133C27.3415 25.0968 25.1739 27.2746 22.4952 27.2822Z" fill="#1E1E1E"/>
</svg>
