<svg width="100%" height="100%" viewBox="0 0 26 24" fill="none" xmlns="http://www.w3.org/2000/svg">
<path d="M9.58862 18.9767C9.02266 19.5426 8.24448 19.8963 7.39555 19.8963C6.54662 19.8963 5.76845 19.5426 5.2025 18.9767C4.63655 18.4107 4.28281 17.6325 4.28281 16.7836C4.28281 15.9347 4.63655 15.1565 5.2025 14.5905L7.39555 12.3975L11.7817 16.7836L9.58862 18.9767ZM14.8237 11.973C14.6114 11.7608 14.187 11.7608 13.9748 11.973L11.3572 14.5905L9.58862 12.8219L12.2062 10.2044C12.4184 9.99217 12.4184 9.5677 12.2062 9.35546C11.9939 9.14323 11.5694 9.14323 11.3572 9.35546L8.7397 11.973L7.89076 11.1241L7.4663 10.6996C7.25406 10.4874 6.82961 10.4874 6.61738 10.6996C6.40515 10.9118 6.40515 11.3363 6.61738 11.5485L4.42431 13.7416C3.57538 14.5905 3.15091 15.6517 3.15091 16.7836C3.15091 17.7033 3.43389 18.6229 3.99984 19.4011L0.462641 22.9383C0.250409 23.1506 0.250409 23.575 0.462641 23.7872C0.604129 23.9287 0.745621 23.9995 0.887109 23.9995C1.0286 23.9995 1.17009 23.9287 1.31158 23.7872L4.84878 20.25C5.62696 20.816 6.47588 21.099 7.4663 21.099C8.5982 21.099 9.73012 20.6745 10.5083 19.8256L12.7013 17.6325C12.8428 17.774 12.9843 17.8447 13.1258 17.8447C13.2673 17.8447 13.4088 17.774 13.5503 17.6325C13.7625 17.4203 13.7625 16.9958 13.5503 16.7836L13.1258 16.3591L12.2769 15.5102L14.8944 12.8927C15.0359 12.6097 15.0359 12.1852 14.8237 11.973Z" />
<path d="M15.4241 5.02275C15.99 4.4568 16.7682 4.10309 17.6171 4.10309C18.4661 4.10309 19.2442 4.4568 19.8102 5.02275C20.3761 5.5887 20.7299 6.36689 20.7299 7.21582C20.7299 8.06475 20.3761 8.84294 19.8102 9.40889L17.6171 11.6019L13.231 7.21582L15.4241 5.02275ZM17.5464 13.2998C17.7586 13.512 18.1831 13.512 18.3953 13.2998C18.6075 13.0876 18.6075 12.6631 18.3953 12.4509L20.5884 10.2578C21.4373 9.40888 21.8618 8.34772 21.8618 7.21582C21.8618 6.29615 21.5788 5.37647 21.0129 4.59828L24.5501 1.06108C24.7623 0.848848 24.7623 0.424397 24.5501 0.212165C24.4086 0.0706768 24.2671 -8.01473e-05 24.1256 -8.01597e-05C23.9841 -8.0172e-05 23.8426 0.0706767 23.7011 0.212165L20.1639 3.74937C19.3857 3.18341 18.5368 2.90043 17.5464 2.90043C16.4145 2.90043 15.2826 3.32488 14.5044 4.17381L12.3113 6.36688C12.1699 6.22539 12.0284 6.15466 11.8869 6.15466C11.7454 6.15466 11.6039 6.22539 11.4624 6.36688C11.2502 6.57911 11.2502 7.00359 11.4624 7.21582L11.8869 7.64029C14.9419 10.6953 16.0652 11.8186 17.5464 13.2998Z" />
</svg>
