<svg width="100%" height="100%" viewBox="0 0 25 24" fill="none" xmlns="http://www.w3.org/2000/svg">
<path d="M9.28515 18.9767C8.7192 19.5426 7.94101 19.8963 7.09208 19.8963C6.24315 19.8963 5.46498 19.5426 4.89903 18.9767C4.33308 18.4107 3.97935 17.6325 3.97935 16.7836C3.97935 15.9347 4.33308 15.1565 4.89903 14.5905L7.09208 12.3975L11.4782 16.7836L9.28515 18.9767ZM14.5202 11.973C14.308 11.7608 13.8835 11.7608 13.6713 11.973L11.0538 14.5905L9.28515 12.8219L11.9027 10.2044C12.1149 9.99217 12.1149 9.5677 11.9027 9.35546C11.6905 9.14323 11.266 9.14323 11.0538 9.35546L8.43623 11.973L7.5873 11.1241L7.16283 10.6996C6.9506 10.4874 6.52615 10.4874 6.31391 10.6996C6.10168 10.9118 6.10168 11.3363 6.31391 11.5485L4.12084 13.7416C3.27192 14.5905 2.84744 15.6517 2.84744 16.7836C2.84744 17.7033 3.13042 18.6229 3.69638 19.4011L0.159174 22.9383C-0.053058 23.1506 -0.053058 23.575 0.159174 23.7872C0.300662 23.9287 0.442154 23.9995 0.583643 23.9995C0.725131 23.9995 0.866623 23.9287 1.00811 23.7872L4.54531 20.25C5.3235 20.816 6.17241 21.099 7.16283 21.099C8.29473 21.099 9.42665 20.6745 10.2048 19.8256L12.3979 17.6325C12.5394 17.774 12.6809 17.8447 12.8224 17.8447C12.9638 17.8447 13.1053 17.774 13.2468 17.6325C13.4591 17.4203 13.4591 16.9958 13.2468 16.7836L12.8224 16.3591L11.9734 15.5102L14.591 12.8927C14.7324 12.6097 14.7324 12.1852 14.5202 11.973Z" />
<path d="M15.1206 5.02275C15.6866 4.4568 16.4648 4.10309 17.3137 4.10309C18.1626 4.10309 18.9408 4.4568 19.5067 5.02275C20.0727 5.5887 20.4264 6.36689 20.4264 7.21582C20.4264 8.06475 20.0727 8.84294 19.5067 9.40889L17.3137 11.6019L12.9275 7.21582L15.1206 5.02275ZM17.2429 13.2998C17.4552 13.512 17.8796 13.512 18.0918 13.2998C18.3041 13.0876 18.3041 12.6631 18.0918 12.4509L20.2849 10.2578C21.1338 9.40888 21.5583 8.34772 21.5583 7.21582C21.5583 6.29615 21.2753 5.37647 20.7094 4.59828L24.2466 1.06108C24.4588 0.848848 24.4588 0.424397 24.2466 0.212165C24.1051 0.0706768 23.9636 -8.01473e-05 23.8221 -8.01597e-05C23.6806 -8.0172e-05 23.5391 0.0706767 23.3977 0.212165L19.8605 3.74937C19.0823 3.18341 18.2334 2.90043 17.2429 2.90043C16.111 2.90043 14.9791 3.32488 14.2009 4.17381L12.0079 6.36688C11.8664 6.22539 11.7249 6.15466 11.5834 6.15466C11.4419 6.15466 11.3004 6.22539 11.1589 6.36688C10.9467 6.57911 10.9467 7.00359 11.1589 7.21582L11.5834 7.64029C14.6384 10.6953 15.7617 11.8186 17.2429 13.2998Z" />
</svg>
