<svg width="100%" height="100%" viewBox="0 0 20 20" fill="none" xmlns="http://www.w3.org/2000/svg">
<path d="M0 10C0 4.47715 4.47715 0 10 0C15.5228 0 20 4.47715 20 10C20 15.5228 15.5228 20 10 20C4.47715 20 0 15.5228 0 10Z" fill="white"/>
<path fill-rule="evenodd" clip-rule="evenodd" d="M10 20C4.47708 20 0 15.5228 0 10C0 4.4772 4.47708 0 10 0C15.5229 0 20 4.4772 20 10C20 15.5228 15.5229 20 10 20ZM10 0.833368C4.93752 0.833368 0.833339 4.93738 0.833339 10C0.833339 15.0626 4.93752 19.1666 10 19.1666C15.0625 19.1666 19.1666 15.0626 19.1666 10C19.1666 4.93738 15.0625 0.833368 10 0.833368Z" fill="#1E1E1E"/>
<path fill-rule="evenodd" clip-rule="evenodd" d="M6.04753 14.0586C5.96497 14.0574 5.88281 14.0438 5.80425 14.0186C5.52068 13.9151 5.3312 13.6458 5.32961 13.3433V12.1446H4.4641C4.06969 12.1446 3.75018 11.8246 3.75018 11.4294V5.73157C3.74143 5.3368 4.0537 5.0096 4.44815 5.00041C4.45334 5.00041 4.45895 5.00041 4.4641 5.00041H12.2536C12.4737 5.00041 12.6524 5.17938 12.6524 5.39996C12.6524 5.62055 12.4737 5.79952 12.2536 5.79952H4.54788V11.3415H5.74439C5.96457 11.3415 6.14329 11.5205 6.14329 11.7411V13.0996L7.48737 11.5013C7.56232 11.4111 7.67325 11.3583 7.79051 11.3575H13.2587V6.41487C13.2587 6.19428 13.4374 6.01531 13.6575 6.01531C13.8777 6.01531 14.0564 6.19428 14.0564 6.41487V11.4454C14.0544 11.8409 13.7333 12.1607 13.3385 12.1607H7.962L6.59396 13.7909C6.46152 13.9583 6.2605 14.0566 6.04753 14.0586Z" fill="#1E1E1E"/>
<path fill-rule="evenodd" clip-rule="evenodd" d="M14.4554 15.4727C14.2687 15.4727 14.0916 15.3891 13.9728 15.2449L13.0075 14.0861H9.14669C8.80089 14.0861 8.52051 13.8052 8.52051 13.4589C8.52051 13.4576 8.52051 13.456 8.52051 13.4548V11.7567C8.52051 11.5361 8.69917 11.3571 8.91936 11.3571C9.13955 11.3571 9.31821 11.5361 9.31821 11.7567V13.287H13.195C13.3134 13.287 13.4263 13.3394 13.5021 13.4308L14.2998 14.3778V13.6866C14.2998 13.466 14.4785 13.287 14.6986 13.287H15.4525V9.46317H13.6537C13.4335 9.46317 13.2548 9.28412 13.2548 9.06362C13.2548 8.84304 13.4335 8.66402 13.6537 8.66402H15.624C15.9697 8.66402 16.2502 8.9449 16.2502 9.29132V13.4548C16.2526 13.8012 15.9737 14.0838 15.628 14.0861C15.6267 14.0861 15.6252 14.0861 15.624 14.0861H15.0975V14.8413C15.1019 15.1854 14.8271 15.4683 14.4832 15.4727C14.4781 15.4727 14.4725 15.4727 14.4673 15.4727H14.4554Z" fill="#1E1E1E"/>
</svg>
