<svg width="100%" height="100%" viewBox="0 0 12 12" fill="none" xmlns="http://www.w3.org/2000/svg">
<path d="M10 7.66667C10 8.2 9.53333 8.66667 9 8.66667C8.46667 8.66667 8 8.2 8 7.66667C8 7.13333 8.46667 6.66667 9 6.66667C9.53333 6.66667 10 7.13333 10 7.66667ZM11.9333 5C12 5.33333 12 5.66667 12 6C12 9.33333 9.33333 12 6 12C2.66667 12 0 9.33333 0 6C0 2.66667 2.66667 0 6 0C6 0 6.66667 0 6.66667 0.666667V2L7.33333 2C7.33333 2 8 2 8 2.66667L8 3.33333H9.33333C9.33333 3.33333 10 3.33333 10 4V4.66667H11.3333C11.3333 4.66667 11.7333 4.66667 11.9333 5ZM10.6667 6H9.66667C9.13333 6 8.66667 5.53333 8.66667 5V4.66667L7.66667 4.66667C7.13333 4.66667 6.66667 4.2 6.66667 3.66667V3.33333H6.33333C5.8 3.33333 5.33333 2.86667 5.33333 2.33333V1.4C3.26667 1.66667 1.66667 3.33333 1.4 5.4C1.46667 5 1.86667 4.66667 2.33333 4.66667C2.86667 4.66667 3.33333 5.13333 3.33333 5.66667C3.33333 6.2 2.86667 6.66667 2.33333 6.66667C1.8 6.66667 1.4 6.26667 1.33333 5.73333C1.33333 6.06667 1.33333 6.4 1.4 6.73333C1.66667 8.53333 3.06667 10 4.8 10.4667C4.53333 10.2667 4.33333 10 4.33333 9.66667C4.33333 9.13333 4.8 8.66667 5.33333 8.66667C5.86667 8.66667 6.33333 9.13333 6.33333 9.66667C6.33333 10.1333 6 10.5333 5.53333 10.6667C8.33333 10.9333 10.6667 8.73333 10.6667 6ZM5.66667 5.33333C5.13333 5.33333 4.66667 5.8 4.66667 6.33333C4.66667 6.86667 5.13333 7.33333 5.66667 7.33333C6.2 7.33333 6.66667 6.86667 6.66667 6.33333C6.66667 5.8 6.2 5.33333 5.66667 5.33333ZM5.33333 3C5.33333 2.46667 4.86667 2 4.33333 2C3.8 2 3.33333 2.46667 3.33333 3C3.33333 3.53333 3.8 4 4.33333 4C4.86667 4 5.33333 3.53333 5.33333 3Z" fill="#EFA34C"/>
</svg>
