<svg width="13" height="13" viewBox="0 0 13 13" fill="none" xmlns="http://www.w3.org/2000/svg">
<path fill-rule="evenodd" clip-rule="evenodd" d="M5.37359 12.5996C2.40528 12.5991 -0.000601083 10.1903 1.12648e-07 7.22013C0.000551209 4.24947 2.40729 1.84188 5.37565 1.84243C7.91825 1.84293 10.1122 3.62613 10.6346 6.11619C10.6851 6.36082 10.5287 6.6004 10.2848 6.6527C10.0395 6.70541 9.79779 6.549 9.74509 6.30351C9.74509 6.30171 9.74458 6.29989 9.74418 6.29804C9.23803 3.87973 6.86841 2.3301 4.4518 2.83681C2.0353 3.34347 0.486768 5.71469 0.993126 8.13305C1.49943 10.5514 3.8689 12.1008 6.28545 11.5943C8.19355 11.1942 9.62239 9.60296 9.81688 7.662C9.84323 7.41241 10.0667 7.231 10.3162 7.2574H10.3166C10.5642 7.28376 10.7446 7.50475 10.721 7.75294C10.4579 10.5086 8.13994 12.6096 5.37359 12.5996Z"/>
<path fill-rule="evenodd" clip-rule="evenodd" d="M10.221 6.77635C9.97022 6.7749 9.76802 6.57015 9.76943 6.3191C9.77033 6.14575 9.86982 5.98808 10.0256 5.91253C11.3395 5.28633 11.8975 3.71276 11.2719 2.39789C10.6458 1.08297 9.07339 0.524707 7.75948 1.1509C7.53323 1.25892 7.32331 1.39865 7.13614 1.56604C6.9405 1.7232 6.65453 1.69184 6.49747 1.496C6.35193 1.31448 6.3668 1.05242 6.53188 0.88854C7.99665 -0.406886 10.2333 -0.268962 11.5277 1.1966C12.8221 2.66217 12.6844 4.90052 11.2197 6.19594C10.9775 6.41017 10.7071 6.59018 10.4164 6.73091C10.3559 6.76137 10.2887 6.77695 10.221 6.77635Z"/>
<path fill-rule="evenodd" clip-rule="evenodd" d="M2.26647 8.62207C1.89012 8.62207 1.58496 8.31656 1.58496 7.94006C1.58496 7.56362 1.89012 7.25806 2.26647 7.25806C2.64286 7.25806 2.94802 7.56362 2.94802 7.94006C2.94802 8.31656 2.64286 8.62207 2.26647 8.62207ZM2.26647 7.7127C2.14102 7.7127 2.03931 7.81461 2.03931 7.94006C2.03931 8.06556 2.14102 8.16742 2.26647 8.16742C2.39192 8.16742 2.49367 8.06556 2.49367 7.94006C2.49367 7.81461 2.39192 7.7127 2.26647 7.7127Z"/>
<path fill-rule="evenodd" clip-rule="evenodd" d="M5.37389 8.62207C4.99754 8.62207 4.69238 8.31656 4.69238 7.94006C4.69238 7.56362 4.99754 7.25806 5.37389 7.25806C5.75029 7.25806 6.05544 7.56362 6.05544 7.94006C6.05544 8.31656 5.75029 8.62207 5.37389 8.62207ZM5.37389 7.7127C5.24844 7.7127 5.14674 7.81461 5.14674 7.94006C5.14674 8.06556 5.24844 8.16742 5.37389 8.16742C5.49934 8.16742 5.60109 8.06556 5.60109 7.94006C5.60109 7.81461 5.49934 7.7127 5.37389 7.7127Z"/>
<path fill-rule="evenodd" clip-rule="evenodd" d="M6.89537 10.6729C6.51903 10.6729 6.21387 10.3673 6.21387 9.99085C6.21387 9.61435 6.51903 9.30884 6.89537 9.30884C7.27157 9.30884 7.57693 9.61435 7.57693 9.99085C7.57693 10.3673 7.27157 10.6729 6.89537 10.6729ZM6.89537 9.7635C6.77093 9.76575 6.67063 9.86625 6.66822 9.99085C6.66822 10.1163 6.76993 10.2182 6.89537 10.2182C7.02082 10.2182 7.12257 10.1163 7.12257 9.99085C7.12257 9.86535 7.02082 9.7635 6.89537 9.7635Z"/>
<path fill-rule="evenodd" clip-rule="evenodd" d="M7.71759 7.47168C7.34144 7.47168 7.03613 7.16618 7.03613 6.78974C7.03613 6.41304 7.34144 6.10772 7.71759 6.10772C8.09379 6.10772 8.39914 6.41304 8.39914 6.78974C8.39914 7.16618 8.09379 7.47168 7.71759 7.47168ZM7.71759 6.56237C7.59224 6.56237 7.49044 6.66419 7.49044 6.78974C7.49044 6.91524 7.59224 7.01703 7.71759 7.01703C7.84304 7.01703 7.94479 6.91524 7.94479 6.78974C7.94479 6.66419 7.84304 6.56237 7.71759 6.56237Z"/>
<path fill-rule="evenodd" clip-rule="evenodd" d="M9.11705 2.44824C8.74085 2.44824 8.43555 2.14284 8.43555 1.76624C8.43555 1.38954 8.74085 1.08423 9.11705 1.08423C9.49325 1.08423 9.79861 1.38954 9.79861 1.76624C9.79861 2.14284 9.49325 2.44824 9.11705 2.44824ZM9.11705 1.53889C8.9917 1.53889 8.8899 1.64069 8.8899 1.76624C8.8899 1.89174 8.9917 1.99359 9.11705 1.99359C9.24155 1.99113 9.34195 1.89078 9.34425 1.76624C9.34425 1.64069 9.24245 1.53889 9.11705 1.53889Z"/>
<path fill-rule="evenodd" clip-rule="evenodd" d="M10.5125 4.19336C10.1363 4.19336 9.83105 3.88795 9.83105 3.51135C9.83105 3.13466 10.1363 2.82935 10.5125 2.82935C10.8887 2.82935 11.1941 3.13466 11.1941 3.51135C11.1941 3.88795 10.8887 4.19336 10.5125 4.19336ZM10.5125 3.284C10.3872 3.284 10.2854 3.3858 10.2854 3.51135C10.2854 3.63685 10.3872 3.7387 10.5125 3.7387C10.638 3.7387 10.7397 3.63685 10.7397 3.51135C10.7397 3.3858 10.638 3.284 10.5125 3.284Z"/>
<path fill-rule="evenodd" clip-rule="evenodd" d="M6.02818 4.83496C5.65183 4.83496 5.34668 4.5296 5.34668 4.15296C5.34668 3.77631 5.65183 3.47095 6.02818 3.47095C6.40453 3.47095 6.70969 3.77631 6.70969 4.15296C6.70969 4.5296 6.40453 4.83496 6.02818 4.83496ZM6.02818 3.92561C5.90273 3.92561 5.80103 4.02741 5.80103 4.15296C5.80343 4.2775 5.90373 4.37785 6.02818 4.38031C6.15363 4.38031 6.25533 4.27851 6.25533 4.15296C6.25533 4.02741 6.15363 3.92561 6.02818 3.92561Z"/>
</svg>
