<svg width="100%" height="100%" viewBox="0 0 40 40" fill="none" xmlns="http://www.w3.org/2000/svg">
<rect width="100%" height="100%" fill="white"/>
<circle cx="20" cy="20" r="19.75" stroke="#E2EAEC" stroke-width="0.5"/>
<path fill-rule="evenodd" clip-rule="evenodd" d="M20.0002 32.1484C14.1527 32.1435 9.41351 27.4009 9.40855 21.5491C9.34937 15.9033 13.7719 11.2261 19.4085 10.9747C19.8685 10.9747 20.2419 11.3481 20.2419 11.8086C20.2419 12.2693 19.8685 12.6427 19.4085 12.6427C14.6927 12.8928 11.0152 16.8235 11.0752 21.5491C11.226 26.4844 15.346 30.3622 20.2769 30.2121C24.9969 30.0679 28.7894 26.2725 28.9336 21.5491C28.9235 20.2774 28.6394 19.0231 28.1003 17.8715C27.9119 17.45 28.1003 16.9553 28.521 16.7664C28.9419 16.5777 29.4369 16.7661 29.6252 17.1876C32.0277 22.5299 29.6478 28.8102 24.3085 31.2145C22.941 31.8298 21.4586 32.1484 19.9585 32.1484H20.0002Z" fill="#E2EAEC"/>
<path fill-rule="evenodd" clip-rule="evenodd" d="M24.3751 19.9639C24.1685 19.9634 23.9692 19.8861 23.8168 19.7471C21.7417 17.8708 19.1334 14.7434 18.6 11.9581C18.5125 11.4974 18.815 11.0532 19.2751 10.9657C19.735 10.8783 20.1792 11.1806 20.2667 11.6411C20.6584 13.6343 22.5334 16.1444 24.3918 17.9625C27.1834 15.102 28.5084 12.6753 28.3335 10.7572C28.1109 8.75825 26.4351 7.2385 24.4251 7.21295C23.5259 7.22664 22.6526 7.51795 21.9251 8.04689C21.5559 8.2679 21.3309 8.66737 21.3333 9.09762C21.3826 9.55011 21.5825 9.9729 21.9 10.2986C22.1417 9.98687 22.4217 9.70678 22.7334 9.46454C23.4176 8.863 24.3709 8.67224 25.2334 8.96418C25.9726 9.21515 26.5343 9.82431 26.725 10.5821C26.9451 11.5067 26.6218 12.476 25.8917 13.0839C25.1451 13.6543 24.1368 13.7451 23.3001 13.3174L22.8418 13.0839C22.7567 13.4329 22.4576 13.6884 22.1001 13.7177C21.6426 13.7563 21.2401 13.4167 21.2001 12.9588C21.1618 12.6151 21.1618 12.2684 21.2001 11.9248C20.3459 11.2449 19.7925 10.2568 19.6584 9.17278C19.6284 8.17149 20.1167 7.2259 20.95 6.67086C21.9467 5.94526 23.1426 5.54351 24.3751 5.52008C27.2559 5.52715 29.6635 7.71367 29.9502 10.5821C30.1834 13.184 28.5501 16.1694 24.9501 19.6971C24.8009 19.8584 24.5943 19.9543 24.3751 19.9639ZM23.1583 11.3993C23.4251 11.5699 23.7034 11.7203 23.9917 11.8497C24.2492 11.9986 24.5676 11.9986 24.825 11.8497C25.0585 11.6408 25.1551 11.3186 25.0751 11.0157C24.9959 10.8336 24.84 10.6961 24.6501 10.6404C24.3393 10.5236 23.9893 10.6022 23.7584 10.8406C23.5359 11.0015 23.3351 11.189 23.1583 11.3993Z" fill="#E2EAEC"/>
<path fill-rule="evenodd" clip-rule="evenodd" d="M14.725 30.5806C14.5267 30.5806 14.3343 30.5098 14.1834 30.3805C13.8334 30.0811 13.7926 29.5548 14.0917 29.2046C14.3317 28.9277 14.5101 28.6043 14.6168 28.254C14.8542 27.405 14.6651 26.4935 14.1083 25.8105C13.9833 25.6687 13.8417 25.5187 13.6917 25.3686C13.1083 24.7597 12.3084 23.9258 12.5251 22.7917C12.7418 21.6574 13.7917 21.1237 14.5667 20.7735L14.7334 20.6902C15.6534 20.3392 16.3317 19.5442 16.5334 18.5802C16.5334 17.863 16.1167 17.0875 15.1084 16.145C14.5492 15.621 13.9342 15.1595 13.2751 14.7691C12.8751 14.5389 12.7367 14.0273 12.9667 13.6266C13.1967 13.2259 13.7084 13.0878 14.1083 13.3181C14.885 13.7691 15.6068 14.3093 16.2584 14.9275C17.0918 15.7615 18.2917 17.0291 18.2167 18.6552C18.0175 20.2443 16.97 21.5989 15.4833 22.1912L15.3001 22.2829C14.8 22.5164 14.2334 22.7832 14.175 23.1168C14.1168 23.4505 14.5251 23.8258 14.9084 24.226C15.0833 24.4011 15.2501 24.5846 15.4001 24.7597C16.3117 25.8656 16.6234 27.3491 16.2334 28.7293C16.0693 29.3098 15.785 29.8492 15.4001 30.3138C15.2276 30.5013 14.9792 30.5998 14.725 30.5806Z" fill="#E2EAEC"/>
<path fill-rule="evenodd" clip-rule="evenodd" d="M22.5251 26.5529C21.8993 26.5863 21.2959 26.3127 20.9085 25.819C20.6576 25.4513 20.5293 25.0134 20.5418 24.5681C20.5776 23.9944 20.7102 23.4297 20.9335 22.9002C20.9835 22.75 21.0418 22.5917 21.0835 22.4416C21.2602 22.053 21.281 21.611 21.1417 21.2073C21.0693 21.0961 20.9851 20.9927 20.8918 20.8987C20.6302 20.6444 20.426 20.3374 20.2918 19.9981C20.0635 19.2814 20.2109 18.4979 20.6835 17.9132C20.9135 17.6075 21.176 17.3279 21.4669 17.0792L21.7418 16.8208C22.071 16.4983 22.5985 16.5039 22.921 16.8332C23.2436 17.1626 23.2377 17.6909 22.9085 18.0133L22.5918 18.3052C22.386 18.4848 22.1935 18.6799 22.0169 18.8889C21.891 19.0332 21.8334 19.2245 21.8585 19.4143C21.9277 19.5405 22.0143 19.6556 22.1168 19.7562C22.2919 19.9321 22.446 20.1281 22.5751 20.3399C22.9918 21.1497 23.0285 22.1021 22.6751 22.9419C22.6251 23.1004 22.5585 23.2755 22.5002 23.4423C22.341 23.8101 22.2418 24.202 22.2084 24.6014C22.2018 24.6908 22.2194 24.78 22.2585 24.8599C22.4827 24.9358 22.726 24.9358 22.9501 24.8599C24.2435 24.4872 25.2769 23.5115 25.7252 22.2414C26.1752 21.007 25.8477 19.623 24.8919 18.7221C24.5352 18.4296 24.4827 17.9033 24.7752 17.5462C25.0677 17.1893 25.5935 17.137 25.9502 17.4294C27.4419 18.769 27.9752 20.8783 27.3002 22.7668C26.6752 24.574 25.206 25.96 23.3668 26.4778C23.0902 26.5371 22.8077 26.5621 22.5251 26.5529Z" fill="#E2EAEC"/>
</svg>
