<svg width="32" height="32" viewBox="0 0 32 32" fill="none" xmlns="http://www.w3.org/2000/svg">
<circle cx="16" cy="16" r="15.75" stroke="#1E1E1E" stroke-width="0.5"/>
<path fill-rule="evenodd" clip-rule="evenodd" d="M16.0002 25.7188C11.3222 25.7148 7.53081 21.9207 7.52684 17.2393C7.47949 12.7226 11.0175 8.98089 15.5268 8.77975C15.8948 8.77975 16.1935 9.07844 16.1935 9.4469C16.1935 9.81544 15.8948 10.1141 15.5268 10.1141C11.7541 10.3142 8.81219 13.4588 8.86019 17.2393C8.98083 21.1875 12.2768 24.2898 16.2215 24.1696C19.9975 24.0543 23.0315 21.018 23.1468 17.2393C23.1388 16.222 22.9115 15.2185 22.4802 14.2972C22.3295 13.96 22.4802 13.5642 22.8168 13.4131C23.1535 13.2621 23.5495 13.4129 23.7002 13.7501C25.6222 18.0239 23.7182 23.0482 19.4468 24.9716C18.3528 25.4639 17.1669 25.7188 15.9668 25.7188H16.0002Z" fill="#1E1E1E"/>
<path fill-rule="evenodd" clip-rule="evenodd" d="M19.5 15.9717C19.3347 15.9713 19.1753 15.9095 19.0533 15.7983C17.3933 14.2972 15.3066 11.7953 14.8799 9.56707C14.8099 9.19853 15.0519 8.84316 15.4199 8.77318C15.7879 8.70319 16.1433 8.94504 16.2133 9.3135C16.5266 10.9081 18.0266 12.9161 19.5133 14.3706C21.7466 12.0822 22.8067 10.1409 22.6667 8.60637C22.4886 7.00719 21.148 5.79138 19.54 5.77095C18.8206 5.7819 18.1219 6.01495 17.54 6.4381C17.2446 6.61491 17.0646 6.93448 17.0666 7.27868C17.106 7.64067 17.2659 7.9789 17.5199 8.23944C17.7133 7.99008 17.9373 7.76601 18.1866 7.57222C18.734 7.09099 19.4966 6.93837 20.1866 7.17193C20.778 7.3727 21.2273 7.86003 21.3799 8.46624C21.556 9.20595 21.2973 9.9814 20.7133 10.4677C20.116 10.924 19.3093 10.9967 18.6399 10.6545L18.2733 10.4677C18.2052 10.7469 17.9659 10.9513 17.68 10.9747C17.3139 11.0056 16.9919 10.734 16.96 10.3676C16.9293 10.0927 16.9293 9.81527 16.96 9.54039C16.2766 8.99652 15.8339 8.20599 15.7266 7.33881C15.7026 6.53778 16.0933 5.78131 16.7599 5.33727C17.5573 4.75679 18.514 4.43539 19.5 4.41665C21.8046 4.42231 23.7307 6.17153 23.96 8.46624C24.1466 10.5478 22.8399 12.9361 19.96 15.7583C19.8406 15.8873 19.6753 15.964 19.5 15.9717ZM18.5266 9.12002C18.74 9.25647 18.9626 9.37682 19.1933 9.48033C19.3993 9.5995 19.6539 9.5995 19.8599 9.48033C20.0467 9.31323 20.124 9.05548 20.06 8.81318C19.9966 8.66747 19.8719 8.55748 19.72 8.51293C19.4713 8.41949 19.1913 8.48235 19.0066 8.67305C18.8286 8.80177 18.6679 8.95182 18.5266 9.12002Z" fill="#1E1E1E"/>
<path fill-rule="evenodd" clip-rule="evenodd" d="M11.78 24.4649C11.6214 24.4649 11.4674 24.4082 11.3467 24.3048C11.0667 24.0653 11.0341 23.6442 11.2734 23.3641C11.4654 23.1426 11.6081 22.8838 11.6934 22.6036C11.8834 21.9244 11.7321 21.1952 11.2867 20.6488C11.1867 20.5354 11.0734 20.4153 10.9533 20.2953C10.4867 19.8081 9.84672 19.1411 10.0201 18.2337C10.1934 17.3263 11.0334 16.8994 11.6534 16.6192L11.7867 16.5525C12.5228 16.2718 13.0654 15.6358 13.2267 14.8646C13.2267 14.2908 12.8934 13.6704 12.0867 12.9164C11.6394 12.4972 11.1474 12.128 10.6201 11.8157C10.3001 11.6315 10.1894 11.2223 10.3734 10.9017C10.5574 10.5811 10.9667 10.4706 11.2867 10.6549C11.908 11.0157 12.4854 11.4478 13.0067 11.9424C13.6734 12.6096 14.6334 13.6236 14.5734 14.9246C14.414 16.1958 13.576 17.2795 12.3867 17.7533L12.2401 17.8267C11.84 18.0135 11.3867 18.227 11.34 18.4938C11.2934 18.7608 11.6201 19.061 11.9268 19.3812C12.0667 19.5213 12.2001 19.6681 12.3201 19.8081C13.0494 20.6928 13.2987 21.8797 12.9867 22.9838C12.8554 23.4482 12.628 23.8798 12.3201 24.2514C12.1821 24.4015 11.9834 24.4803 11.78 24.4649Z" fill="#1E1E1E"/>
<path fill-rule="evenodd" clip-rule="evenodd" d="M18.0201 21.242C17.5194 21.2686 17.0367 21.0498 16.7268 20.6548C16.5261 20.3606 16.4234 20.0103 16.4334 19.6541C16.462 19.1951 16.5681 18.7434 16.7468 18.3198C16.7868 18.1996 16.8334 18.073 16.8667 17.9529C17.0081 17.642 17.0247 17.2884 16.9134 16.9655C16.8554 16.8765 16.7881 16.7938 16.7134 16.7186C16.5041 16.5151 16.3407 16.2696 16.2334 15.9981C16.0507 15.4247 16.1687 14.7979 16.5467 14.3301C16.7307 14.0856 16.9408 13.8619 17.1735 13.663L17.3934 13.4562C17.6567 13.1982 18.0788 13.2027 18.3368 13.4662C18.5948 13.7297 18.5901 14.1523 18.3268 14.4102L18.0734 14.6438C17.9088 14.7874 17.7547 14.9436 17.6134 15.1107C17.5127 15.2262 17.4667 15.3792 17.4868 15.531C17.5421 15.632 17.6114 15.7241 17.6934 15.8046C17.8335 15.9453 17.9568 16.1021 18.06 16.2716C18.3934 16.9194 18.4228 17.6813 18.14 18.3532C18.1 18.4799 18.0467 18.62 18.0001 18.7534C17.8727 19.0477 17.7934 19.3612 17.7667 19.6808C17.7614 19.7522 17.7755 19.8236 17.8068 19.8876C17.9861 19.9483 18.1808 19.9483 18.3601 19.8876C19.3948 19.5894 20.2215 18.8088 20.5801 17.7927C20.9401 16.8052 20.6781 15.698 19.9135 14.9773C19.6281 14.7433 19.5861 14.3222 19.8201 14.0366C20.0541 13.7511 20.4747 13.7092 20.7601 13.9432C21.9535 15.0148 22.3801 16.7023 21.8402 18.213C21.3401 19.6588 20.1648 20.7676 18.6934 21.1819C18.4721 21.2293 18.2461 21.2493 18.0201 21.242Z" fill="#1E1E1E"/>
</svg>
