<svg width="100%" height="100%" viewBox="0 0 21 22" fill="none" xmlns="http://www.w3.org/2000/svg">
<g clip-path="url(critical)">
<path fill-rule="evenodd" clip-rule="evenodd" d="M10.5 21.5C4.70089 21.5 0 16.7991 0 11C0 5.20095 4.70089 0.5 10.5 0.5C16.299 0.5 21 5.20095 21 11C21 16.7991 16.299 21.5 10.5 21.5ZM10.5 1.375C5.18435 1.375 0.875005 5.68434 0.875005 11C0.875005 16.3156 5.18435 20.625 10.5 20.625C15.8156 20.625 20.125 16.3156 20.125 11C20.125 5.68434 15.8156 1.375 10.5 1.375Z"/>
<path fill-rule="evenodd" clip-rule="evenodd" d="M10.3201 14.4766C10.0822 14.4766 9.88916 14.2834 9.88916 14.0454V4.08039C9.88916 3.84239 10.0822 3.6492 10.3201 3.6492C10.5579 3.6492 10.751 3.84239 10.751 4.08039V14.0454C10.751 14.2834 10.5579 14.4766 10.3201 14.4766Z"/>
<path fill-rule="evenodd" clip-rule="evenodd" d="M10.2383 18.3472C10.0573 18.3463 9.87635 18.3265 9.69969 18.2869C9.05249 18.1609 8.5436 17.6599 8.40704 17.0148C8.35615 16.4927 8.57981 15.9817 8.99737 15.6652C9.43037 15.3767 9.92462 15.1935 10.4408 15.1305H10.5227H10.5442C10.9751 15.0443 11.1389 14.9925 11.2466 14.8071C11.3664 14.6036 11.6279 14.5341 11.8326 14.6519C12.0376 14.7704 12.1088 15.0322 11.992 15.2383C11.9105 15.3801 11.8037 15.5056 11.6774 15.6091C11.7361 15.6566 11.7908 15.7083 11.8412 15.7643C12.1984 16.1253 12.3423 16.6466 12.2203 17.1398C12.0902 17.5314 11.8136 17.8574 11.4491 18.0497C11.0781 18.2528 10.661 18.3554 10.2383 18.3472ZM10.5873 15.98C10.2103 16.0209 9.84708 16.1447 9.52303 16.3422C9.34376 16.4694 9.23993 16.6785 9.24725 16.8984C9.28602 17.1657 9.60057 17.377 9.89354 17.446C10.2732 17.531 10.6705 17.4727 11.0096 17.2822C11.1772 17.1994 11.309 17.0584 11.3801 16.8855C11.4163 16.6841 11.3483 16.478 11.1992 16.3378C11.0302 16.1667 10.8191 16.0434 10.5873 15.98Z"/>
</g>
<defs>
<clipPath id="critical">
<path d="M0 11C0 5.20101 4.70101 0.5 10.5 0.5C16.299 0.5 21 5.20101 21 11C21 16.799 16.299 21.5 10.5 21.5C4.70101 21.5 0 16.799 0 11Z"/>
</clipPath>
</defs>
</svg>
