<svg width="100%" height="100%" viewBox="0 0 20 20" xmlns="http://www.w3.org/2000/svg">
<path d="M0 10C0 4.47715 4.47715 0 10 0C15.5228 0 20 4.47715 20 10C20 15.5228 15.5228 20 10 20C4.47715 20 0 15.5228 0 10Z" />
<path fill-rule="evenodd" clip-rule="evenodd" d="M9.82884 13.3125C9.60231 13.3125 9.41846 13.1285 9.41846 12.9018V3.41138C9.41846 3.18471 9.60231 3.00072 9.82884 3.00072C10.0554 3.00072 10.2392 3.18471 10.2392 3.41138V12.9018C10.2392 13.1285 10.0554 13.3125 9.82884 13.3125Z" fill="white"/>
<path fill-rule="evenodd" clip-rule="evenodd" d="M9.75087 16.9996C9.57851 16.9987 9.40614 16.9799 9.23789 16.9421C8.62151 16.8222 8.13685 16.345 8.0068 15.7306C7.95833 15.2333 8.17134 14.7467 8.56901 14.4453C8.9814 14.1705 9.45211 13.996 9.94373 13.936H10.0217H10.0422C10.4526 13.8539 10.6085 13.8046 10.7111 13.6281C10.8252 13.4342 11.0743 13.3681 11.2692 13.4802C11.4645 13.5931 11.5323 13.8424 11.421 14.0387C11.3435 14.1738 11.2417 14.2933 11.1215 14.3919C11.1773 14.4371 11.2294 14.4864 11.2774 14.5397C11.6176 14.8834 11.7547 15.3799 11.6385 15.8497C11.5146 16.2226 11.2511 16.5331 10.904 16.7162C10.5507 16.9096 10.1534 17.0074 9.75087 16.9996ZM10.0832 14.7451C9.72422 14.7841 9.37827 14.9019 9.06965 15.09C8.89891 15.2112 8.80003 15.4104 8.807 15.6197C8.84392 15.8744 9.14349 16.0756 9.42252 16.1413C9.78408 16.2222 10.1624 16.1667 10.4854 15.9852C10.6451 15.9064 10.7706 15.7721 10.8383 15.6074C10.8728 15.4156 10.808 15.2193 10.666 15.0859C10.5051 14.9229 10.304 14.8054 10.0832 14.7451Z" fill="white"/>
</svg>
