<svg width="100%" height="100%" viewBox="0 0 20 20" fill="none" xmlns="http://www.w3.org/2000/svg">
<path d="M0 10C0 4.47715 4.47715 0 10 0C15.5228 0 20 4.47715 20 10C20 15.5228 15.5228 20 10 20C4.47715 20 0 15.5228 0 10Z" fill="white"/>
<path fill-rule="evenodd" clip-rule="evenodd" d="M10 20C4.47708 20 0 15.5228 0 10C0 4.4772 4.47708 0 10 0C15.5229 0 20 4.4772 20 10C20 15.5228 15.5229 20 10 20ZM10 0.833368C4.93752 0.833368 0.833339 4.93738 0.833339 10C0.833339 15.0626 4.93752 19.1666 10 19.1666C15.0625 19.1666 19.1666 15.0626 19.1666 10C19.1666 4.93738 15.0625 0.833368 10 0.833368Z" fill="#1E1E1E"/>
<path fill-rule="evenodd" clip-rule="evenodd" d="M17.0276 12.8125C16.7643 12.8125 16.5505 12.599 16.5505 12.336C16.5386 8.72576 13.5978 5.80882 9.98279 5.82092C6.56963 5.83234 3.73802 8.46086 3.47802 11.8595H4.77095C4.90269 8.96498 7.35927 6.72521 10.2576 6.85674C13.156 6.98832 15.3989 9.44148 15.2672 12.336C15.2672 12.599 15.0534 12.8125 14.7901 12.8125H12.5477C12.2843 12.8125 12.0706 12.599 12.0706 12.336C12.0706 11.1992 11.1479 10.2777 10.0095 10.2777C8.87115 10.2777 7.94847 11.1992 7.94847 12.336C7.94847 12.599 7.73475 12.8125 7.47132 12.8125C7.208 12.8125 6.99425 12.599 6.99425 12.336C6.99472 10.673 8.34543 9.32531 10.0105 9.32594C11.4909 9.32647 12.7519 10.4 12.9866 11.8595H14.2843C14.1527 9.4913 12.1235 7.6781 9.75188 7.80963C7.38026 7.94121 5.56484 9.96775 5.69653 12.336C5.69653 12.599 5.48279 12.8125 5.21942 12.8125H2.97711C2.71374 12.8125 2.5 12.599 2.5 12.336C2.5 8.19944 5.8578 4.8461 9.99994 4.8461C14.1422 4.8461 17.5 8.19944 17.5 12.336C17.5 12.5971 17.2891 12.8101 17.0276 12.8125Z" fill="#1E1E1E"/>
</svg>
