<svg width="100%" height="100%" viewBox="0 0 29 19" fill="none" xmlns="http://www.w3.org/2000/svg">
<path d="M18.2035 3.79999H26.5035C27.0035 3.79999 27.4034 3.40002 27.4034 2.90002C27.4034 2.40002 27.0035 2 26.5035 2H18.2035C17.7035 2 17.3035 2.40002 17.3035 2.90002C17.3035 3.30002 17.7035 3.79999 18.2035 3.79999Z"  />
<path d="M26.5035 5.59961H18.2035C17.7035 5.59961 17.3035 5.99957 17.3035 6.49957C17.3035 6.99957 17.7035 7.3996 18.2035 7.3996H26.5035C27.0035 7.3996 27.4034 6.99957 27.4034 6.49957C27.4034 5.99957 27.0035 5.59961 26.5035 5.59961Z"  />
<path d="M26.5035 9.2998H18.2035C17.7035 9.2998 17.3035 9.69983 17.3035 10.1998C17.3035 10.6998 17.7035 11.0999 18.2035 11.0999H26.5035C27.0035 11.0999 27.4034 10.6998 27.4034 10.1998C27.4034 9.79983 27.0035 9.2998 26.5035 9.2998Z"  />
<path d="M18.1 16.3008C17.2 15.8008 16.0001 15.7008 15.0001 15.6008C14.4001 15.5008 13.7001 15.5009 13.5001 15.4009C13.0001 15.1009 12.4 13.3008 12.6 12.8008C13.3 11.7008 14.1001 9.90081 14.5001 8.30081C15.2001 5.50081 14.9001 3.40085 13.7001 1.90085C12.1001 -0.0991497 9.50007 0.000825878 9.50007 0.000825878C9.40007 0.000825878 6.80008 0.00085032 5.20008 1.90085C4.00008 3.40085 3.70004 5.50081 4.40004 8.30081C4.80004 9.90081 5.60006 11.7008 6.30006 12.8008C6.40006 13.3008 5.90004 15.1009 5.40004 15.4009C5.10004 15.5009 4.50004 15.6008 3.90004 15.6008C2.90004 15.7008 1.70006 15.8008 0.80006 16.3008C0.30006 16.5008 0.200036 17.1008 0.400036 17.6008C0.600036 18.1008 1.20008 18.2008 1.70008 18.0008C2.30008 17.7008 3.30005 17.6008 4.10005 17.5008C5.00005 17.4008 5.70006 17.4008 6.30006 17.1008C7.50006 16.5008 8.00005 14.8008 8.10005 14.3008C8.30005 13.5008 8.40007 12.5008 8.00007 11.8008C7.40007 10.9008 6.70004 9.30085 6.40004 7.90085C5.90004 5.70085 6.00006 4.1008 6.80006 3.1008C7.80006 1.8008 9.60008 1.80085 9.70008 1.90085C9.70008 1.90085 11.5001 1.9008 12.5001 3.1008C13.3001 4.1008 13.5 5.70085 12.9 7.90085C12.6 9.30085 11.9001 10.9008 11.3001 11.8008C10.8001 12.4008 11.0001 13.5008 11.2001 14.3008C11.3001 14.8008 11.8001 16.5008 13.0001 17.1008C13.6001 17.4008 14.3001 17.5008 15.2001 17.5008C16.1001 17.6008 17 17.7008 17.6 18.0008C17.7 18.1008 17.9001 18.1008 18.0001 18.1008C18.3001 18.1008 18.7001 17.9008 18.8001 17.6008C18.7001 17.1008 18.6 16.5008 18.1 16.3008Z"  />
</svg>
