<svg width="100%" height="100%" viewBox="0 0 27 18" fill="none" xmlns="http://www.w3.org/2000/svg">
<path d="M17.8911 3.79999H26.1089C26.604 3.79999 27 3.40002 27 2.90002C27 2.40002 26.604 2 26.1089 2H17.8911C17.3961 2 17 2.40002 17 2.90002C17 3.30002 17.3961 3.79999 17.8911 3.79999Z" />
<path d="M26.1089 5.59961H17.8911C17.3961 5.59961 17 5.99957 17 6.49957C17 6.99957 17.3961 7.3996 17.8911 7.3996H26.1089C26.604 7.3996 27 6.99957 27 6.49957C27 5.99957 26.604 5.59961 26.1089 5.59961Z" />
<path d="M26.1089 9.2998H17.8911C17.3961 9.2998 17 9.69983 17 10.1998C17 10.6998 17.3961 11.0999 17.8911 11.0999H26.1089C26.604 11.0999 27 10.6998 27 10.1998C27 9.79983 26.604 9.2998 26.1089 9.2998Z" />
<path d="M17.7966 16.21C16.8966 15.7128 15.6966 15.6134 14.6966 15.5139C14.0966 15.4145 13.3966 15.4145 13.1966 15.3151C12.6966 15.0168 12.0966 13.2267 12.2966 12.7295C12.9966 11.6357 13.7966 9.84568 14.1966 8.25459C14.8966 5.47018 14.5966 3.38191 13.3966 1.89026C11.7966 -0.0985975 9.19661 0.000821279 9.19661 0.000821279C9.09661 0.000821279 6.49662 0.000845584 4.89662 1.89026C3.69662 3.38191 3.39657 5.47018 4.09657 8.25459C4.49657 9.84568 5.29659 11.6357 5.99659 12.7295C6.09659 13.2267 5.59657 15.0168 5.09657 15.3151C4.79657 15.4145 4.19657 15.5139 3.59657 15.5139C2.59657 15.6134 1.39659 15.7128 0.496593 16.21C-0.00340685 16.4089 -0.103431 17.0056 0.0965687 17.5028C0.296569 18 0.896618 18.0995 1.39662 17.9006C1.99662 17.6023 2.99658 17.5028 3.79658 17.4034C4.69658 17.3039 5.39659 17.3039 5.99659 17.0056C7.19659 16.4089 7.69658 14.7184 7.79658 14.2212C7.99658 13.4256 8.09661 12.4312 7.69661 11.7351C7.09661 10.8401 6.39657 9.24905 6.09657 7.85685C5.59657 5.6691 5.69659 4.07796 6.49659 3.08353C7.49659 1.79077 9.29662 1.79082 9.39662 1.89026C9.39662 1.89026 11.1966 1.89022 12.1966 3.08353C12.9966 4.07796 13.1966 5.6691 12.5966 7.85685C12.2966 9.24905 11.5966 10.8401 10.9966 11.7351C10.4966 12.3318 10.6966 13.4256 10.8966 14.2212C10.9966 14.7184 11.4966 16.4089 12.6966 17.0056C13.2966 17.3039 13.9966 17.4034 14.8966 17.4034C15.7966 17.5028 16.6966 17.6023 17.2966 17.9006C17.3966 18 17.5966 18 17.6966 18C17.9966 18 18.3966 17.8011 18.4966 17.5028C18.3966 17.0056 18.2966 16.4089 17.7966 16.21Z" />
</svg>
