<svg width="100%" height="100%" viewBox="0 0 16 16" fill="none" xmlns="http://www.w3.org/2000/svg">
<path fill-rule="evenodd" clip-rule="evenodd" d="M8.00001 16C3.58166 16 0 12.4183 0 8.00002C0 3.58173 3.58166 0 8.00001 0C12.4183 0 16 3.58173 16 8.00002C16 12.4183 12.4183 16 8.00001 16ZM8.00001 0.666684C3.95003 0.666684 0.666676 3.94992 0.666676 8.00002C0.666676 12.05 3.95003 15.3333 8.00001 15.3333C12.05 15.3333 15.3333 12.05 15.3333 8.00002C15.3333 3.94992 12.05 0.666684 8.00001 0.666684Z" fill="#00A3E0"/>
<path fill-rule="evenodd" clip-rule="evenodd" d="M3.53249 12.8008H3.50589C3.33281 12.7859 3.19954 12.6318 3.2002 12.4472C3.22346 10.5234 5.14718 10.2335 6.64895 10.0637C5.69209 9.48372 5.36314 8.35567 5.11062 7.23467C4.74517 5.63276 4.90133 4.37384 5.56584 3.51801C6.70912 2.14604 8.68098 2.02027 9.97008 3.23715C10.0632 3.32509 10.1512 3.4189 10.2339 3.51801C10.8984 4.38088 11.0379 5.6398 10.6725 7.23821C10.3801 8.52894 9.90497 9.44482 9.23717 10.0036L9.47639 10.0248L9.80861 10.0602C10.6027 10.145 12.7125 10.3749 12.7988 12.3517C12.8115 12.5013 12.7344 12.6427 12.6062 12.7053C12.44 12.7856 12.2443 12.7081 12.1676 12.532C12.1467 12.4818 12.1354 12.4277 12.1343 12.3729C12.1078 11.4146 11.3934 10.923 9.75214 10.7462L9.41989 10.7144C8.99461 10.6684 8.56604 10.6259 8.13409 10.5446C7.72507 10.6359 7.31111 10.7006 6.8948 10.7391C5.27677 10.9195 4.01757 11.1493 3.87468 12.2526C3.87801 12.2891 3.87801 12.3259 3.87468 12.3623L3.85477 12.4966C3.83184 12.6685 3.69558 12.7972 3.53249 12.8008ZM7.87163 3.10783C7.1832 3.10685 6.52702 3.41808 6.06751 3.96358C5.54924 4.64609 5.4429 5.69286 5.75522 7.07199C6.00108 8.1541 6.29677 9.16195 7.18053 9.54741C7.47361 9.674 7.77724 9.76979 8.08758 9.83383C9.02454 9.54031 9.65578 8.63502 10.0113 7.06845C10.3236 5.68932 10.2173 4.64259 9.69899 3.96007C9.23651 3.41719 8.57999 3.10759 7.89156 3.10783H7.87163Z" fill="#00A3E0"/>
</svg>
