<svg width="100%" height="100%" viewBox="0 0 40 40" fill="none" xmlns="http://www.w3.org/2000/svg">
<rect width="100%" height="100%" fill="white"/>
<circle cx="20" cy="20" r="19.75" stroke="#E2EAEC" stroke-width="0.5"/>
<path fill-rule="evenodd" clip-rule="evenodd" d="M24.1005 30.2461H17.9369C17.2435 30.1832 16.724 29.5816 16.7612 28.8854C16.7612 28.4557 16.7215 28.0339 16.7057 27.6042C16.6954 26.9254 16.6469 26.2483 16.5628 25.5751C16.4753 24.6123 16.0925 23.7011 15.4666 22.9651C15.2204 22.7088 14.955 22.4717 14.6723 22.2569C14.3943 22.0421 14.1163 21.8352 13.878 21.5965C13.519 21.1708 13.3601 20.6113 13.4411 20.0607V19.9732C13.4205 19.436 13.4849 18.8989 13.6318 18.3817C13.7295 18.0929 13.8773 17.8231 14.0687 17.5859C14.2505 17.3624 14.461 17.1643 14.6961 16.9971C14.9249 16.8364 15.1695 16.7003 15.4269 16.5913C15.6843 16.4814 15.9503 16.3908 16.2211 16.3207C16.4833 16.2491 16.7533 16.1934 17.0155 16.1457C17.2776 16.098 17.4603 16.0662 17.6827 16.0422C16.8479 15.1009 16.2974 13.9423 16.0941 12.7002C15.5699 10.5119 15.7923 8.79309 16.7612 7.59156C17.6359 6.57143 18.9138 5.9898 20.2562 6.00014C20.6946 6.00014 21.0505 6.35657 21.0505 6.79586C21.0505 7.23515 20.6946 7.59156 20.2562 7.59156C19.4142 7.60435 18.6136 7.96077 18.0401 8.57831C17.3967 9.37393 17.2458 10.6313 17.6747 12.3102C18.0083 13.6709 18.3658 14.8407 19.446 15.2942L20.1291 15.5648C20.6454 15.7637 21.1696 15.9627 21.1061 16.5993C21.0536 16.966 20.7717 17.2581 20.4071 17.3234L19.8034 17.395L18.8026 17.4984L18.056 17.5859L17.3253 17.6894C17.1029 17.7371 16.8725 17.7769 16.6581 17.8406C16.4611 17.8946 16.2672 17.9616 16.0782 18.0395C15.9217 18.1024 15.7724 18.1827 15.6335 18.2782C15.523 18.3562 15.4238 18.4501 15.3395 18.5567C15.2609 18.6546 15.1989 18.7644 15.1568 18.883C15.0702 19.226 15.0353 19.58 15.0536 19.9333V20.0607C15.0456 20.1904 15.0456 20.3208 15.0536 20.4506C15.2497 20.6305 15.4563 20.7984 15.6732 20.9519C16.0345 21.216 16.3745 21.5089 16.6898 21.8272C17.5445 22.8028 18.0751 24.0211 18.2069 25.3125C18.3102 26.0526 18.334 26.7926 18.3658 27.5087C18.3658 27.8747 18.3658 28.2488 18.4135 28.6147H24.172C24.6105 28.6147 24.9664 28.9712 24.9664 29.4105C24.9664 29.8497 24.6105 30.2062 24.172 30.2062L24.1005 30.2461Z" fill="#E2EAEC"/>
<path fill-rule="evenodd" clip-rule="evenodd" d="M12.4008 28.1455C11.9623 28.1455 11.6064 27.789 11.6064 27.3498C11.6064 26.9105 11.9623 26.554 12.4008 26.554H13.6002V25.9254C13.6097 25.3668 13.6494 24.809 13.7193 24.2544C13.8257 23.2494 14.2388 22.3016 14.9028 21.5409L15.0061 21.4375C15.3222 21.1295 15.8266 21.1367 16.1339 21.4534C16.4413 21.7701 16.4342 22.2753 16.1181 22.5833L16.0625 22.639C15.6129 23.1571 15.3349 23.8024 15.2683 24.4851C15.2047 24.9817 15.1697 25.4806 15.165 25.9811C15.165 26.2994 15.165 26.6256 15.1172 26.944C15.1498 27.5567 14.6947 28.0866 14.0847 28.1455H12.4008Z" fill="#E2EAEC"/>
<path fill-rule="evenodd" clip-rule="evenodd" d="M14.712 18.7959H14.5691L14.0369 18.7163L13.4808 18.6527L12.7342 18.5731C12.5674 18.5731 12.3847 18.5731 12.2656 18.5174C11.8994 18.4672 11.6158 18.1704 11.5825 17.8012C11.519 17.1726 12.0669 16.9577 12.4324 16.8225C12.5753 16.7668 12.7501 16.7031 12.9407 16.6156C13.6 16.3451 13.8701 15.6687 14.1481 14.5229C14.426 13.3769 14.3546 12.4539 13.9177 11.9048C13.5277 11.4887 12.986 11.2507 12.4164 11.2444C11.978 11.2444 11.6222 10.8878 11.6222 10.4486C11.6222 10.0093 11.978 9.65294 12.4164 9.65294C13.4792 9.64015 14.4936 10.0969 15.1887 10.9022C15.983 11.8571 16.1417 13.2019 15.7287 14.8809C15.5849 15.714 15.2529 16.5027 14.7596 17.1885H14.8868C15.3252 17.2259 15.6509 17.6126 15.6136 18.0518C15.5762 18.4911 15.1902 18.8174 14.7517 18.78L14.712 18.7959Z" fill="#E2EAEC"/>
<path fill-rule="evenodd" clip-rule="evenodd" d="M12.345 28.1455H10.6531C10.0264 28.1073 9.54588 27.5727 9.57286 26.944C9.57286 26.6257 9.57286 26.2995 9.53318 25.9811C9.52127 25.4806 9.48475 24.9817 9.42203 24.4852C9.35598 23.8017 9.07804 23.1564 8.62763 22.6392C8.44263 22.4561 8.24405 22.2882 8.0319 22.1379C7.81668 21.9763 7.61013 21.8036 7.41243 21.6206C7.09551 21.2712 6.9501 20.7985 7.01527 20.3315L7.80949 20.2519H7.01527C7.00494 19.8406 7.05889 19.43 7.17407 19.0345C7.33534 18.5753 7.63877 18.1799 8.03996 17.9045C8.22102 17.7755 8.41565 17.6666 8.61974 17.5783C8.82068 17.4923 9.02724 17.4239 9.2393 17.3714C9.44261 17.3117 9.64994 17.2639 9.85885 17.2282H9.98587C9.49893 16.5383 9.16862 15.7512 9.01682 14.9205C8.61178 13.2256 8.78652 11.8809 9.55692 10.9419C10.2536 10.1382 11.2671 9.68144 12.3291 9.69257C12.7675 9.69257 13.1233 10.0491 13.1233 10.4883C13.1233 10.9276 12.7675 11.2841 12.3291 11.2841C11.7611 11.2848 11.2195 11.5243 10.8358 11.9445C10.391 12.4936 10.3116 13.3688 10.6054 14.5625C10.8993 15.756 11.1535 16.3846 11.8049 16.6552L12.3132 16.8621C12.7024 17.0053 13.2346 17.2122 13.171 17.8409C13.1233 18.2061 12.843 18.4973 12.48 18.557C12.3608 18.557 12.1781 18.5968 12.0193 18.6127L11.2648 18.6922L10.7167 18.756L10.1766 18.8355L9.69996 18.939C9.56174 18.9772 9.42676 19.0249 9.29484 19.0822C9.18929 19.1252 9.08838 19.1785 8.99308 19.2413C8.92712 19.2907 8.86598 19.3472 8.81035 19.4085C8.76901 19.4674 8.7372 19.5309 8.71504 19.5994C8.65942 19.831 8.6356 20.0697 8.64357 20.3076V20.419C8.63954 20.4803 8.63954 20.5407 8.64357 20.602C8.76743 20.7118 8.89777 20.8161 9.03275 20.9124C9.31235 21.1193 9.57846 21.3453 9.82706 21.5887C10.499 22.3447 10.9128 23.2948 11.0106 24.3021C11.0836 24.8568 11.1257 25.4146 11.1376 25.9732C11.1376 26.1801 11.1376 26.395 11.1376 26.6019H12.337C12.7754 26.6019 13.1313 26.9584 13.1313 27.3976C13.1313 27.8368 12.7754 28.1934 12.337 28.1934L12.345 28.1455Z" fill="#E2EAEC"/>
<path fill-rule="evenodd" clip-rule="evenodd" d="M23.3935 33.0002C23.0313 33.0161 22.704 32.783 22.5991 32.4352C22.0225 30.1245 21.9224 27.7197 22.3053 25.3692C22.4308 24.0777 22.959 22.8579 23.8144 21.8839C24.1321 21.5656 24.4752 21.2728 24.839 21.0086C25.0456 20.8494 25.26 20.6902 25.4587 20.5072C25.4666 20.3775 25.4666 20.247 25.4587 20.1173V20.0139C25.4722 19.655 25.4348 19.2961 25.3474 18.9476C25.3101 18.8267 25.2505 18.7128 25.1727 18.6134C25.0837 18.5091 24.982 18.4152 24.8708 18.3349C24.7319 18.2394 24.5826 18.159 24.4261 18.0961C24.2394 18.0182 24.0488 17.9513 23.8542 17.8973C23.6317 17.8335 23.4093 17.7938 23.179 17.746L22.4562 17.6426L21.7095 17.5552L20.7088 17.4516L20.0972 17.3801C19.7334 17.3164 19.4529 17.0227 19.4061 16.6559C19.3426 16.0193 19.8668 15.8602 20.3752 15.6214C20.5658 15.5498 20.8041 15.4623 21.0661 15.3509C22.1464 14.8974 22.5039 13.7594 22.8295 12.3669C23.2345 10.6879 23.1155 9.43065 22.4721 8.63494C21.8986 8.01188 21.094 7.65458 20.248 7.64828C19.8096 7.65931 19.445 7.31166 19.4339 6.87247C19.4228 6.43318 19.7699 6.06798 20.2083 6.05677C21.5499 6.04959 22.8271 6.6313 23.7032 7.64828C24.6802 8.84981 24.9026 10.5685 24.3784 12.7569C24.171 13.9982 23.6207 15.156 22.7898 16.0989C23.0122 16.0989 23.2345 16.1626 23.457 16.2023C23.6794 16.2421 23.9971 16.3058 24.2513 16.3774C24.5222 16.4474 24.7882 16.5382 25.0456 16.6479C25.3029 16.757 25.5476 16.893 25.7764 17.0538C26.0138 17.2209 26.2275 17.4182 26.4118 17.6426C26.6008 17.8806 26.7453 18.1495 26.8407 18.4383C26.99 18.9389 27.0567 19.46 27.0392 19.982V20.0935C27.1132 20.6449 26.9519 21.2027 26.5945 21.6292C26.3403 21.868 26.0623 22.0748 25.8001 22.2896C25.5173 22.5045 25.2513 22.7408 25.0059 22.9978C24.3768 23.7315 23.994 24.6443 23.9097 25.6079C23.5571 27.7245 23.6405 29.8913 24.156 31.9738C24.2791 32.3931 24.0416 32.8339 23.6238 32.9604C23.5491 32.9851 23.4721 32.9986 23.3935 33.0002Z" fill="#E2EAEC"/>
<path fill-rule="evenodd" clip-rule="evenodd" d="M28.0956 28.1533H26.4117C25.785 28.1151 25.3045 27.5804 25.3315 26.9518C25.3315 26.6335 25.2918 26.3073 25.2838 25.9888C25.2791 25.4884 25.2442 24.9895 25.1806 24.4929C25.1107 23.811 24.8335 23.1665 24.3863 22.6469C24.0558 22.358 24.0217 21.8551 24.31 21.5241C24.3196 21.5137 24.329 21.5034 24.3386 21.4931C24.6325 21.1859 25.1154 21.1652 25.4348 21.4453L25.538 21.5567C26.2028 22.3135 26.6167 23.2596 26.7215 24.2622C26.7914 24.8168 26.8311 25.3747 26.8407 25.9332V26.5618H28.0401C28.4785 26.5618 28.8343 26.9183 28.8343 27.3576C28.8343 27.7968 28.4785 28.1533 28.0401 28.1533H28.0956Z" fill="#E2EAEC"/>
<path fill-rule="evenodd" clip-rule="evenodd" d="M25.7847 18.8034C25.3463 18.8432 24.9586 18.5184 24.9189 18.0792C24.8791 17.64 25.2032 17.2518 25.6416 17.2119H25.7767C25.2834 16.526 24.9514 15.7374 24.8076 14.9043C24.3946 13.2094 24.5773 11.8646 25.3478 10.9256C26.0444 10.1267 27.0531 9.67078 28.112 9.67629C28.5504 9.67629 28.9062 10.0328 28.9062 10.4721C28.9062 10.9113 28.5504 11.2677 28.112 11.2677C27.5432 11.2781 27.0031 11.516 26.6107 11.9282C26.1739 12.4772 26.0944 13.3605 26.3804 14.5462C26.6663 15.7319 26.9284 16.3684 27.5877 16.639C27.7783 16.7265 27.9531 16.7901 28.096 16.8458C28.4615 16.9812 29.0095 17.196 28.946 17.8247C28.9118 18.1963 28.6243 18.4938 28.2549 18.5408C28.1358 18.5408 27.9531 18.5806 27.7863 18.5965L27.0476 18.676L26.4915 18.7397L25.9594 18.8193L25.7847 18.8034Z" fill="#E2EAEC"/>
<path fill-rule="evenodd" clip-rule="evenodd" d="M28.1518 28.1533C27.7133 28.1533 27.3574 27.7969 27.3574 27.3576C27.3574 26.9183 27.7133 26.5619 28.1518 26.5619H29.3829C29.3829 26.347 29.3829 26.1401 29.3829 25.9332C29.3948 25.3747 29.4369 24.8168 29.5099 24.2622C29.6077 23.2549 30.0216 22.3047 30.6935 21.5488C30.9421 21.3053 31.2082 21.0793 31.4877 20.8724C31.6228 20.7761 31.753 20.6719 31.877 20.5621C31.8809 20.5008 31.8809 20.4403 31.877 20.379V20.2915C31.8857 20.0425 31.8618 19.7942 31.8055 19.5514C31.7816 19.4863 31.7499 19.425 31.7101 19.3685C31.6546 19.3072 31.5935 19.2507 31.5275 19.2014C31.4322 19.1385 31.3313 19.0852 31.2257 19.0423C31.0962 18.9865 30.9636 18.9388 30.8285 18.8989L30.344 18.7955L29.8039 18.716L29.2558 18.6523L28.5092 18.5727C28.3424 18.5727 28.1597 18.5727 28.0405 18.517C27.6775 18.4574 27.3971 18.1661 27.3495 17.8009C27.286 17.1723 27.8419 16.9574 28.2074 16.8222L28.7157 16.6152C29.367 16.3447 29.645 15.6683 29.915 14.5224C30.1851 13.3766 30.1296 12.4537 29.6847 11.9045C29.2931 11.4915 28.7522 11.2536 28.1835 11.2441C27.7451 11.2441 27.3892 10.8876 27.3892 10.4483C27.3892 10.009 27.7451 9.65264 28.1835 9.65264C29.2447 9.64624 30.2566 10.1022 30.9556 10.9019C31.7499 11.8568 31.9008 13.2015 31.4957 14.8805C31.344 15.7113 31.0136 16.4982 30.5267 17.1881H30.6538C30.8626 17.224 31.07 17.2718 31.2733 17.3314C31.4822 17.384 31.6871 17.4532 31.8849 17.5382C32.0923 17.6243 32.29 17.734 32.4727 17.8645C32.6657 17.9958 32.8373 18.1574 32.981 18.3419C33.1384 18.5361 33.2591 18.7573 33.3385 18.9945C33.4537 19.39 33.5076 19.8006 33.4973 20.2119L32.703 20.3154H33.4973C33.5625 20.7825 33.4172 21.2552 33.1002 21.6045C32.9047 21.7875 32.6975 21.957 32.4806 22.1138C32.2709 22.2697 32.0716 22.44 31.8849 22.6229C31.4345 23.1402 31.1565 23.7855 31.0906 24.4691C31.0192 24.9545 31.0032 25.4479 30.9795 25.9651C30.9795 26.2833 30.9795 26.6096 30.9397 26.928C30.9723 27.5438 30.5123 28.0746 29.8992 28.1294L28.1518 28.1533Z" fill="#E2EAEC"/>
</svg>
