<svg width="100%" height="100%" viewBox="0 0 20 20" fill="none" xmlns="http://www.w3.org/2000/svg">
<path d="M0 10C0 4.47715 4.47715 0 10 0C15.5228 0 20 4.47715 20 10C20 15.5228 15.5228 20 10 20C4.47715 20 0 15.5228 0 10Z" fill="white"/>
<path fill-rule="evenodd" clip-rule="evenodd" d="M10 20C4.47708 20 0 15.5228 0 10C0 4.4772 4.47708 0 10 0C15.5229 0 20 4.4772 20 10C20 15.5228 15.5229 20 10 20ZM10 0.833368C4.93752 0.833368 0.833339 4.93738 0.833339 10C0.833339 15.0626 4.93752 19.1666 10 19.1666C15.0625 19.1666 19.1666 15.0626 19.1666 10C19.1666 4.93738 15.0625 0.833368 10 0.833368Z" fill="#1E1E1E"/>
<path fill-rule="evenodd" clip-rule="evenodd" d="M10.0903 16.876C8.16028 16.876 6.5957 15.3102 6.5957 13.3789C6.5957 11.4475 8.16028 9.8817 10.0903 9.8817C10.3333 9.8817 10.5304 10.079 10.5304 10.3221C10.5304 10.5653 10.3333 10.7626 10.0903 10.7626C8.64644 10.7626 7.47596 11.9338 7.47596 13.3789C7.47596 14.824 8.64644 15.9951 10.0903 15.9951C10.8434 15.9924 11.5607 15.6727 12.0664 15.1142C12.4775 14.6685 12.6751 14.0655 12.6078 13.4625C12.4449 12.1412 11.5647 11.8902 10.9837 11.736L10.8693 11.7007C10.631 11.6523 10.4771 11.4202 10.5253 11.1815C10.5736 10.9432 10.8059 10.789 11.0441 10.8375C11.0656 10.8419 11.0863 10.8476 11.107 10.8551L11.2126 10.8815C12.448 11.0863 13.3851 12.1073 13.4836 13.3568C13.5822 14.2109 13.3063 15.0653 12.7266 15.7C12.0519 16.4452 11.0951 16.872 10.0903 16.876Z" fill="#1E1E1E"/>
<path fill-rule="evenodd" clip-rule="evenodd" d="M5.44266 8.29476C5.32569 8.29564 5.21324 8.24943 5.1302 8.16702C4.95762 7.9957 4.95645 7.71687 5.12763 7.54424C5.1285 7.54336 5.12938 7.54244 5.1302 7.54162L8.16704 4.50254C8.34327 4.32991 8.62608 4.33296 8.79861 4.50914C8.9712 4.68532 8.96824 4.96856 8.79206 5.1412L5.75075 8.18022C5.66669 8.2569 5.55628 8.29782 5.44266 8.29476Z" fill="#1E1E1E"/>
<path fill-rule="evenodd" clip-rule="evenodd" d="M5.44266 8.29476C5.32569 8.29564 5.21324 8.24943 5.1302 8.16702C4.95762 7.9957 4.95645 7.71687 5.12763 7.54424C5.1285 7.54336 5.12938 7.54244 5.1302 7.54162L8.16704 4.50254C8.34327 4.32991 8.62608 4.33296 8.79861 4.50914C8.9712 4.68532 8.96824 4.96856 8.79206 5.1412L5.75075 8.18022C5.66669 8.2569 5.55628 8.29782 5.44266 8.29476Z" fill="#1E1E1E"/>
<path fill-rule="evenodd" clip-rule="evenodd" d="M8.47956 8.2946C8.36259 8.29552 8.25009 8.24927 8.16704 8.16686L5.1302 5.14103C4.95762 4.96971 4.95645 4.69093 5.12763 4.51825C5.1285 4.51738 5.12938 4.5165 5.1302 4.51563C5.30182 4.34469 5.57914 4.34469 5.75075 4.51563L8.79206 7.55466C8.9646 7.72598 8.96571 8.00481 8.79458 8.17744C8.79376 8.17832 8.79288 8.17924 8.79206 8.18011C8.70688 8.25757 8.59468 8.29902 8.47956 8.2946Z" fill="#1E1E1E"/>
<path fill-rule="evenodd" clip-rule="evenodd" d="M11.6971 8.29491C11.4542 8.29404 11.2579 8.09587 11.2588 7.85272C11.2592 7.73604 11.3064 7.62412 11.3891 7.54176L14.4259 4.50273C14.5976 4.33185 14.8749 4.33185 15.0465 4.50273C15.2191 4.67406 15.2203 4.95288 15.0492 5.12552C15.0483 5.12639 15.0474 5.12726 15.0465 5.12814L12.0097 8.16721C11.9265 8.24958 11.8142 8.29578 11.6971 8.29491Z" fill="#1E1E1E"/>
<path fill-rule="evenodd" clip-rule="evenodd" d="M11.6971 8.29491C11.4542 8.29404 11.2579 8.09587 11.2588 7.85272C11.2592 7.73604 11.3064 7.62412 11.3891 7.54176L14.4259 4.50273C14.5976 4.33185 14.8749 4.33185 15.0465 4.50273C15.2191 4.67406 15.2203 4.95288 15.0492 5.12552C15.0483 5.12639 15.0474 5.12726 15.0465 5.12814L12.0097 8.16721C11.9265 8.24958 11.8142 8.29578 11.6971 8.29491Z" fill="#1E1E1E"/>
<path fill-rule="evenodd" clip-rule="evenodd" d="M14.7384 8.29491C14.6213 8.29578 14.509 8.24958 14.4259 8.16721L11.389 5.12814C11.2165 4.95682 11.2152 4.67804 11.3864 4.50535C11.3873 4.50448 11.3881 4.50361 11.389 4.50273C11.5606 4.33185 11.8379 4.33185 12.0096 4.50273L15.0465 7.54176C15.219 7.71309 15.2203 7.99191 15.0491 8.16455C14.9668 8.24778 14.855 8.29452 14.7384 8.29491Z" fill="#1E1E1E"/>
</svg>
