<svg width="100%" height="100%" viewBox="0 0 20 20" fill="none" xmlns="http://www.w3.org/2000/svg">
<circle cx="10" cy="10" r="9.75" stroke="#98D8F0" stroke-width="0.5"/>
<path fill-rule="evenodd" clip-rule="evenodd" d="M4.89807 15.6016H4.8662C4.65886 15.5848 4.49921 15.411 4.5 15.2029C4.52787 13.0338 6.83233 12.7069 8.63132 12.5154C7.48509 11.8615 7.09103 10.5896 6.78853 9.32566C6.35075 7.51947 6.53782 6.10001 7.33384 5.13504C8.7034 3.58812 11.0655 3.44631 12.6098 4.81837C12.7212 4.91752 12.8267 5.0233 12.9258 5.13504C13.7218 6.10795 13.8889 7.52741 13.4512 9.32965C13.1009 10.785 12.5318 11.8176 11.7318 12.4477L12.0184 12.4716L12.4163 12.5115C13.3676 12.6071 15.8949 12.8663 15.9984 15.0952C16.0135 15.2639 15.9212 15.4233 15.7676 15.4939C15.5685 15.5844 15.3341 15.4971 15.2422 15.2985C15.2171 15.2419 15.2036 15.1809 15.2024 15.1191C15.1706 14.0386 14.3148 13.4844 12.3487 13.285L11.9507 13.2491C11.4412 13.1973 10.9278 13.1494 10.4104 13.0577C9.92043 13.1606 9.42453 13.2335 8.92583 13.277C6.98757 13.4804 5.47915 13.7395 5.30797 14.9835C5.31197 15.0246 5.31197 15.0661 5.30797 15.1071L5.28413 15.2586C5.25665 15.4525 5.09343 15.5976 4.89807 15.6016ZM10.096 4.67255C9.27131 4.67145 8.48526 5.02237 7.93481 5.63743C7.31396 6.40698 7.18657 7.58723 7.56071 9.14223C7.85522 10.3623 8.20943 11.4987 9.2681 11.9333C9.61919 12.0761 9.98292 12.1841 10.3547 12.2563C11.4771 11.9253 12.2333 10.9046 12.6591 9.13824C13.0333 7.58324 12.9059 6.40303 12.285 5.63347C11.731 5.02136 10.9445 4.67229 10.1199 4.67255H10.096Z" fill="#98D8F0"/>
</svg>
