<svg width="100%" height="100%" viewBox="0 0 16 10" fill="none" xmlns="http://www.w3.org/2000/svg">
<path fill-rule="evenodd" clip-rule="evenodd" d="M4.20616 9.99801C3.78194 10.0125 3.35878 9.94773 2.95821 9.80766C1.59677 9.29107 0.339707 7.94962 0.516713 6.39059C0.661911 5.16245 1.59223 4.34219 2.33192 3.87084C2.65929 3.66331 2.99871 3.47566 3.34846 3.30891C3.38735 2.94861 3.50678 2.60192 3.69789 2.29375C4.608 0.914679 6.12958 0.0604029 7.78217 0.000601768C8.0312 -0.0121088 8.24406 0.177801 8.25864 0.426562C8.27117 0.676776 8.07841 0.889313 7.82811 0.901974C7.82035 0.902474 7.81259 0.902462 7.80486 0.902462C6.44622 0.948651 5.19366 1.6475 4.44215 2.77866C4.39625 2.84982 4.35818 2.92595 4.32871 3.00527C4.854 2.90468 5.39474 3.07506 5.76726 3.45844C5.99907 3.77431 6.017 4.19852 5.81265 4.53251C5.62182 4.95396 5.19535 5.21864 4.73259 5.20323C4.18311 5.18601 3.69088 4.85924 3.46191 4.36032L3.43015 4.27869C3.21232 4.39659 2.97633 4.528 2.78573 4.65491C2.20035 5.02197 1.47426 5.64286 1.37441 6.50845C1.25187 7.55984 2.22758 8.58861 3.23955 8.97383C3.67224 9.09979 4.12558 9.14013 4.57376 9.09164H4.95042H10.5504C11.6894 9.09164 12.7876 9.05535 13.6771 8.58405C14.494 8.15348 15.1928 7.2245 14.9478 6.21839C14.7572 5.5794 14.3172 5.04369 13.727 4.73193C13.4675 4.5901 13.1819 4.50218 12.8875 4.4736C12.8638 4.90592 12.6677 5.31067 12.3429 5.59751C12.1433 5.76251 11.875 5.8182 11.6259 5.74709C11.2805 5.66867 11.0322 5.36637 11.0223 5.01287C11.0767 4.48126 11.3888 4.01047 11.8573 3.75305C11.5624 2.76055 10.7274 1.39643 9.90142 1.45078C8.54002 1.54146 8.46287 3.22279 8.54002 5.07636C8.54002 5.14888 8.54002 5.22134 8.54002 5.29385H10.0467C10.226 5.29525 10.3879 5.40176 10.4596 5.5658C10.5314 5.72848 10.5012 5.91839 10.3825 6.05071L8.42658 8.2215C8.30159 8.36157 8.10307 8.41001 7.92737 8.34386C7.85735 8.31488 7.79513 8.26999 7.74584 8.21244C7.61423 8.07648 6.38444 6.87555 5.61749 6.13232C5.43957 5.95602 5.43839 5.66913 5.61488 5.49148C5.6996 5.40631 5.81482 5.35776 5.93516 5.35731H7.05154C7.30215 5.35731 7.50532 5.56033 7.50532 5.81054C7.50532 6.06065 7.30215 6.26373 7.05154 6.26373C7.50532 6.71692 7.85022 7.0432 8.06804 7.26529L9.03012 6.20028H8.09527C7.84466 6.20028 7.64146 5.9972 7.64146 5.74709C7.64146 5.55672 7.64146 5.3437 7.64146 5.1081C7.58247 3.45394 7.47809 0.689439 9.85606 0.530854C11.3854 0.426565 12.4246 2.37533 12.7604 3.54908C13.2582 3.55178 13.7472 3.68098 14.1808 3.92524C14.9948 4.35761 15.5977 5.1022 15.8508 5.98725C16.2184 7.48738 15.211 8.79253 14.1218 9.37263C13.0327 9.95267 11.8074 9.99801 10.5504 9.99801H4.94585H4.57376H4.20616ZM4.31961 3.93429V3.98419C4.40594 4.15819 4.57924 4.27238 4.77342 4.28324C4.88044 4.28734 4.9784 4.22389 5.01847 4.12466C5.04333 4.07977 5.05878 4.03038 5.06387 3.97964C4.85333 3.88446 4.61753 3.86089 4.39223 3.91163L4.31961 3.93429Z"/>
</svg>
