<svg width="100%" height="100%" viewBox="0 0 32 32" fill="none" xmlns="http://www.w3.org/2000/svg">
<circle cx="16" cy="16" r="15.75" fill="white" stroke="#1E1E1E" stroke-width="0.5"/>
<path fill-rule="evenodd" clip-rule="evenodd" d="M10.4583 22.716C9.87167 22.7361 9.28654 22.6465 8.73263 22.4528C6.85007 21.7385 5.11185 19.8835 5.35661 17.7278C5.55738 16.0295 6.84381 14.8953 7.86663 14.2435C8.3193 13.9566 8.78864 13.6971 9.27226 13.4665C9.32604 12.9683 9.49119 12.4889 9.75545 12.0628C11.0139 10.1558 13.1179 8.97456 15.4031 8.89187C15.7474 8.8743 16.0418 9.1369 16.0619 9.48088C16.0792 9.82687 15.8127 10.1208 15.4666 10.1383C15.4559 10.139 15.4451 10.1389 15.4345 10.1389C13.5558 10.2028 11.8238 11.1692 10.7846 12.7333C10.7211 12.8317 10.6685 12.937 10.6277 13.0466C11.3541 12.9075 12.1018 13.1432 12.6169 13.6733C12.9375 14.11 12.9622 14.6966 12.6797 15.1585C12.4158 15.7412 11.8261 16.1072 11.1862 16.0859C10.4264 16.0621 9.74575 15.6103 9.42913 14.9204L9.38522 14.8075C9.08401 14.9705 8.7577 15.1522 8.49414 15.3277C7.68469 15.8353 6.68068 16.6938 6.54261 17.8907C6.37316 19.3446 7.72234 20.7671 9.12166 21.2998C9.71998 21.474 10.3468 21.5297 10.9666 21.4627H11.4874H19.2308C20.8059 21.4627 22.3245 21.4125 23.5544 20.7608C24.6839 20.1654 25.6503 18.8809 25.3115 17.4896C25.0479 16.6061 24.4396 15.8653 23.6234 15.4342C23.2646 15.2381 22.8697 15.1165 22.4625 15.077C22.4298 15.6748 22.1587 16.2345 21.7095 16.6311C21.4335 16.8593 21.0625 16.9363 20.718 16.8379C20.2405 16.7295 19.897 16.3115 19.8835 15.8227C19.9587 15.0876 20.3902 14.4366 21.0381 14.0806C20.6302 12.7083 19.4756 10.822 18.3335 10.8971C16.451 11.0225 16.3443 13.3474 16.451 15.9105C16.451 16.0108 16.451 16.111 16.451 16.2112H18.5343C18.7824 16.2132 19.0061 16.3604 19.1054 16.5873C19.2046 16.8122 19.1629 17.0748 18.9987 17.2578L16.2941 20.2595C16.1213 20.4532 15.8468 20.5202 15.6039 20.4287C15.507 20.3886 15.421 20.3265 15.3528 20.247C15.1708 20.059 13.4703 18.3984 12.4098 17.3706C12.1638 17.1268 12.1622 16.7302 12.4062 16.4845C12.5234 16.3667 12.6827 16.2996 12.8491 16.299H14.3928C14.7393 16.299 15.0202 16.5797 15.0202 16.9257C15.0202 17.2715 14.7393 17.5523 14.3928 17.5523C15.0202 18.179 15.4972 18.6302 15.7984 18.9373L17.1287 17.4646H15.836C15.4895 17.4646 15.2085 17.1838 15.2085 16.8379C15.2085 16.5747 15.2085 16.2802 15.2085 15.9544C15.1269 13.6671 14.9826 9.84438 18.2708 9.62509C20.3855 9.48088 21.8225 12.1756 22.2869 13.7986C22.9752 13.8023 23.6513 13.981 24.2509 14.3187C25.3765 14.9166 26.2101 15.9462 26.5602 17.17C27.0685 19.2444 25.6754 21.0491 24.1694 21.8512C22.6634 22.6533 20.9691 22.716 19.2308 22.716H11.4811H10.9666H10.4583ZM10.6151 14.3313V14.4003C10.7345 14.6409 10.9741 14.7988 11.2427 14.8138C11.3906 14.8195 11.5261 14.7317 11.5815 14.5945C11.6159 14.5324 11.6372 14.4641 11.6443 14.394C11.3532 14.2624 11.0271 14.2298 10.7156 14.2999L10.6151 14.3313Z" fill="#1E1E1E"/>
</svg>
