<svg width="100%" height="100%" viewBox="0 0 33 22" xmlns="http://www.w3.org/2000/svg">
<path fill-rule="evenodd" clip-rule="evenodd" d="M7.92738 21.3864C7.01998 21.4174 6.11486 21.2788 5.25804 20.9792C2.34596 19.8742 -0.342863 17.0049 0.0357477 13.6702C0.346324 11.0432 2.33626 9.28872 3.91844 8.28051C4.61866 7.83662 5.34468 7.43523 6.09278 7.07857C6.17597 6.30788 6.43143 5.56632 6.84021 4.90717C8.78691 1.95736 12.0415 0.130087 15.5764 0.00217438C16.109 -0.025013 16.5643 0.381199 16.5955 0.913294C16.6223 1.44849 16.21 1.9031 15.6746 1.93019C15.658 1.93126 15.6414 1.93123 15.6249 1.93123C12.7188 2.03003 10.0396 3.52485 8.43216 5.94437C8.33397 6.09659 8.25254 6.25941 8.18951 6.42907C9.31308 6.21392 10.4697 6.57837 11.2665 7.3984C11.7624 8.07404 11.8007 8.98141 11.3636 9.6958C10.9554 10.5973 10.0432 11.1634 9.0534 11.1305C7.87808 11.0936 6.82521 10.3947 6.33544 9.32749L6.2675 9.15289C5.80158 9.40508 5.29681 9.68616 4.88913 9.95762C3.63701 10.7428 2.08392 12.0708 1.87035 13.9223C1.60823 16.1712 3.69525 18.3717 5.85982 19.1957C6.78534 19.4651 7.75502 19.5514 8.71366 19.4477H9.51933H21.4975C23.9339 19.4477 26.2829 19.37 28.1855 18.3619C29.9327 17.441 31.4276 15.4539 30.9034 13.3019C30.4957 11.9351 29.5547 10.7892 28.2922 10.1224C27.7372 9.819 27.1263 9.63093 26.4965 9.56981C26.4459 10.4945 26.0264 11.3603 25.3317 11.9738C24.9047 12.3267 24.3308 12.4459 23.798 12.2938C23.0592 12.126 22.528 11.4794 22.507 10.7233C22.6233 9.58619 23.2908 8.57917 24.293 8.02856C23.6621 5.90564 21.8761 2.98782 20.1094 3.10407C17.1974 3.29803 17.0324 6.89434 17.1974 10.8591C17.1974 11.0142 17.1974 11.1692 17.1974 11.3243H20.4201C20.8037 11.3273 21.1499 11.5551 21.3034 11.906C21.4569 12.254 21.3924 12.6602 21.1383 12.9432L16.9547 17.5865C16.6874 17.8861 16.2628 17.9897 15.887 17.8482C15.7372 17.7862 15.6041 17.6902 15.4987 17.5671C15.2172 17.2763 12.5867 14.7075 10.9462 13.1178C10.5656 12.7407 10.5631 12.127 10.9406 11.747C11.1218 11.5648 11.3683 11.461 11.6257 11.46H14.0136C14.5496 11.46 14.9842 11.8943 14.9842 12.4295C14.9842 12.9645 14.5496 13.3988 14.0136 13.3988C14.9842 14.3682 15.7219 15.0661 16.1878 15.5411L18.2457 13.2631H16.2461C15.71 13.2631 15.2754 12.8287 15.2754 12.2938C15.2754 11.8866 15.2754 11.4309 15.2754 10.927C15.1492 7.38878 14.926 1.47558 20.0124 1.13637C23.2835 0.913298 25.5064 5.08166 26.2248 7.59227C27.2895 7.59805 28.3354 7.87441 29.2629 8.39687C31.0041 9.32169 32.2935 10.9144 32.835 12.8075C33.6213 16.0162 31.4663 18.8079 29.1367 20.0487C26.8071 21.2894 24.1863 21.3864 21.4975 21.3864H9.50956H8.71366H7.92738ZM8.17004 8.41624V8.52296C8.3547 8.89514 8.72538 9.1394 9.14073 9.16262C9.36964 9.1714 9.57917 9.03568 9.66489 8.82342C9.71807 8.72741 9.75112 8.62176 9.76199 8.51323C9.31166 8.30964 8.8073 8.25923 8.32537 8.36776L8.17004 8.41624Z" />
</svg>
