<svg width="20" height="18" viewBox="0 0 20 18" fill="none" xmlns="http://www.w3.org/2000/svg">
<path d="M16.3702 5.73987C16.2962 5.73987 16.2221 5.73987 16.074 5.73987C16.074 2.85098 13.7036 0.554688 10.8888 0.554688C8.66657 0.554688 6.66656 1.88802 5.92582 3.88802C5.48138 3.6658 5.03691 3.59175 4.51839 3.59175C2.14802 3.59175 0.222107 5.51767 0.222107 7.88804C0.222107 10.2584 2.14802 12.1843 4.51839 12.1843H6.66656C7.03693 12.1843 7.33324 11.8881 7.33324 11.5177C7.33324 11.1473 7.03693 10.851 6.66656 10.851H4.44434C2.81471 10.851 1.40732 9.51769 1.40732 7.81398C1.40732 6.11028 2.74063 4.77692 4.44434 4.77692C5.03693 4.77692 5.4073 4.92508 5.92582 5.29545C6.07397 5.44359 6.29618 5.44358 6.5184 5.3695C6.74063 5.29543 6.88877 5.1473 6.88877 4.92508C7.25914 3.1473 8.96284 1.81396 10.8147 1.81396C12.9628 1.81396 14.7407 3.59172 14.7407 5.73987C14.7407 5.88802 14.7407 6.11025 14.7407 6.2584C14.7407 6.33247 14.7406 6.40657 14.6666 6.55471C14.5925 6.77694 14.7406 7.07321 14.8888 7.22135C15.111 7.3695 15.3332 7.36953 15.5554 7.29546C15.9258 7.07323 16.1481 7.07324 16.2221 7.07324C17.2592 7.07324 18.148 7.96211 18.148 8.99915C18.148 10.0362 17.2592 10.9251 16.2221 10.9251H12.9629C12.5925 10.9251 12.2962 11.2214 12.2962 11.5917C12.2962 11.9621 12.5925 12.2584 12.9629 12.2584H16.2221C17.9999 12.2584 19.4814 10.7769 19.4814 8.99915C19.4814 7.22137 18.148 5.73987 16.3702 5.73987ZM12.2962 14.3325C12.5184 14.5547 12.5184 14.9992 12.2962 15.2214L10.3703 17.1473C10.2962 17.2214 10.2221 17.2214 10.1481 17.2955C10.074 17.2955 9.99991 17.3695 9.92584 17.3695C9.85176 17.3695 9.77765 17.3695 9.70358 17.2955C9.62951 17.2955 9.55544 17.2214 9.48137 17.1473L7.55546 15.2214C7.33324 14.9992 7.33324 14.5547 7.55546 14.3325C7.77768 14.1103 8.22213 14.1103 8.44436 14.3325L9.25915 15.1473V7.66583C9.25915 7.29546 9.55547 6.99914 9.92584 6.99914C10.2962 6.99914 10.5925 7.29546 10.5925 7.66583V15.1473L11.4073 14.3325C11.6295 14.1103 11.9999 14.1103 12.2962 14.3325Z"/>
</svg>
