<svg width="100%" height="100%" viewBox="0 0 14 19" fill="none" xmlns="http://www.w3.org/2000/svg">
<path fill-rule="evenodd" clip-rule="evenodd" d="M11.6066 18.168C11.2846 18.168 11.0233 17.9066 11.0233 17.5846V5.97626H2.96157V17.0013H9.31991C9.64188 17.0013 9.90325 17.2626 9.90325 17.5846C9.90325 17.9066 9.64188 18.168 9.31991 18.168H2.37823C2.05625 18.168 1.79492 17.9066 1.79492 17.5846V5.39294C1.79492 5.07091 2.05625 4.80962 2.37823 4.80962H11.6066C11.9286 4.80962 12.1899 5.07091 12.1899 5.39294V17.5846C12.1899 17.9066 11.9286 18.168 11.6066 18.168Z" fill="#1E1E1E"/>
<path fill-rule="evenodd" clip-rule="evenodd" d="M9.31644 4.2832C8.99447 4.2832 8.73314 4.02192 8.73314 3.69988V2.08407H5.23309V3.69988C5.23309 4.02192 4.97178 4.2832 4.64975 4.2832C4.32771 4.2832 4.06641 4.02192 4.06641 3.69988V1.50075C4.06641 1.17872 4.32771 0.917431 4.64975 0.917431H9.31644C9.63848 0.917431 9.89982 1.17872 9.89982 1.50075V3.69988C9.89982 4.02192 9.63848 4.2832 9.31644 4.2832Z" fill="#1E1E1E"/>
<path fill-rule="evenodd" clip-rule="evenodd" d="M13.1669 4.2832H0.811819C0.489848 4.2832 0.228516 4.02186 0.228516 3.69982C0.228516 3.37779 0.489848 3.1165 0.811819 3.1165H13.1669C13.4889 3.1165 13.7502 3.37779 13.7502 3.69982C13.7502 4.02186 13.4889 4.2832 13.1669 4.2832Z" fill="#1E1E1E"/>
<path fill-rule="evenodd" clip-rule="evenodd" d="M9.30982 15.0938C8.98785 15.0938 8.72656 14.8324 8.72656 14.5104V8.33871C8.72656 8.01668 8.98785 7.75533 9.30982 7.75533C9.63191 7.75533 9.89323 8.01668 9.89323 8.33871V14.5104C9.89323 14.8324 9.63191 15.0938 9.30982 15.0938Z" fill="#1E1E1E"/>
<path fill-rule="evenodd" clip-rule="evenodd" d="M6.90365 15.0938C6.58162 15.0938 6.32031 14.8324 6.32031 14.5104V8.33871C6.32031 8.01668 6.58162 7.75533 6.90365 7.75533C7.22568 7.75533 7.48698 8.01668 7.48698 8.33871V14.5104C7.48698 14.8324 7.22568 15.0938 6.90365 15.0938Z" fill="#1E1E1E"/>
<path fill-rule="evenodd" clip-rule="evenodd" d="M4.65755 15.0938C4.33559 15.0938 4.07422 14.8324 4.07422 14.5104V8.33871C4.07422 8.01668 4.33559 7.75533 4.65755 7.75533C4.97958 7.75533 5.24097 8.01668 5.24097 8.33871V14.5104C5.24097 14.8324 4.97958 15.0938 4.65755 15.0938Z" fill="#1E1E1E"/>
</svg>
