<svg width="100%" height="100%" viewBox="0 0 35 35" fill="none" xmlns="http://www.w3.org/2000/svg">
<g filter="url(#filter0_d_12166_190225)">
<circle cx="16" cy="16" r="11.75" fill="white" stroke-width="0.5"/>
<path fill-rule="evenodd" clip-rule="evenodd" d="M16.5181 22.7482C16.3317 22.7487 16.1531 22.6743 16.0223 22.5415L14.0895 20.5981C13.7948 20.7089 13.4854 20.7773 13.1713 20.8003C12.0273 21.0125 10.9273 20.2563 10.7152 19.1114C10.668 18.8574 10.668 18.5964 10.7152 18.3423C10.7387 18.0276 10.8084 17.718 10.9218 17.4235L9.00742 15.5445C8.77697 15.3157 8.73333 14.9587 8.90181 14.6807C9.89807 13.0268 11.156 12.5444 12.0374 12.4296C12.4607 12.3735 12.8908 12.3891 13.3091 12.4755C15.6045 10.3071 17.6704 9.55355 19.0385 9.30544C19.9342 9.11342 20.8611 9.12445 21.7517 9.33764C22.0061 9.41575 22.1943 9.63076 22.2384 9.89356C22.3559 10.8322 22.3045 11.7846 22.0869 12.7052C21.7086 14.4129 20.9419 16.0103 19.8465 17.373C19.6895 17.5723 19.4007 17.6059 19.2015 17.4488C19.0022 17.2917 18.9688 17.0027 19.1257 16.8033C20.1344 15.5504 20.8409 14.0821 21.1917 12.5123C21.362 11.7501 21.4161 10.9663 21.3523 10.1876C20.6412 10.0608 19.9122 10.0686 19.2038 10.2105C17.9275 10.4403 15.9443 11.1662 13.7682 13.3071C13.6483 13.4274 13.4716 13.4715 13.3091 13.4219C12.9313 13.3163 12.5364 13.2882 12.1476 13.3392C11.1412 13.5064 10.2649 14.1216 9.76493 15.0115L11.8079 17.056C11.9543 17.2043 11.9823 17.4322 11.8767 17.6119C11.7408 17.8728 11.6614 18.159 11.6426 18.4526C11.4778 19.0967 11.8661 19.7523 12.5094 19.9172C12.704 19.9669 12.9078 19.9673 13.1025 19.9182C13.3959 19.8975 13.6818 19.8162 13.9426 19.6793C14.123 19.5745 14.3512 19.6048 14.4981 19.7528L16.5273 21.7788C17.2242 21.2331 17.754 20.5026 18.0561 19.6701C18.1965 19.2851 18.2144 18.8661 18.1066 18.471C18.0037 18.2303 17.8467 18.0162 17.6475 17.8462C17.5694 17.7681 17.4868 17.6899 17.4087 17.5981C16.6577 18.1292 15.7041 18.2835 14.8241 18.0162C13.625 17.604 12.9868 16.2974 13.3986 15.0974C13.8108 13.8974 15.1165 13.2588 16.3157 13.6709C17.0415 13.9208 17.5947 14.5167 17.7898 15.2596C17.8215 15.4107 17.8371 15.5647 17.8357 15.7191C17.9381 15.4609 17.9698 15.1801 17.9275 14.9059C17.8894 14.655 18.0611 14.4207 18.3118 14.3821C18.3122 14.3821 18.3127 14.3821 18.3132 14.3821C18.5629 14.3435 18.7966 14.514 18.8365 14.7634C18.9412 15.5849 18.6717 16.4095 18.102 17.0101C18.1625 17.0794 18.2268 17.1451 18.2948 17.2076C18.6015 17.4722 18.8379 17.8081 18.9834 18.1862C19.1625 18.7696 19.1464 19.3954 18.9375 19.9687C18.5546 21.0401 17.8591 21.9718 16.9404 22.6426C16.8147 22.722 16.6664 22.7588 16.5181 22.7482ZM15.5999 14.4281C15.3896 14.4276 15.1822 14.4763 14.994 14.5705C14.3062 14.8958 14.0124 15.7176 14.3379 16.4059C14.4991 16.7463 14.7924 17.0064 15.15 17.1249C15.7822 17.3096 16.464 17.1814 16.9864 16.7803C16.9363 16.5171 16.924 16.2478 16.9497 15.9809C16.9712 15.8008 16.9712 15.6189 16.9497 15.4388C16.8326 15.0079 16.5089 14.6633 16.0866 14.5199C15.9236 14.4584 15.751 14.4276 15.577 14.4281H15.5999Z" />
</g>
<defs>
<filter id="filter0_d_12166_190225" x="0.5" y="0.5" width="34" height="34" filterUnits="userSpaceOnUse" color-interpolation-filters="sRGB">
<feFlood flood-opacity="0" result="BackgroundImageFix"/>
<feColorMatrix in="SourceAlpha" type="matrix" values="0 0 0 0 0 0 0 0 0 0 0 0 0 0 0 0 0 0 127 0" result="hardAlpha"/>
<feOffset dx="1.5" dy="1.5"/>
<feGaussianBlur stdDeviation="2.5"/>
<feColorMatrix type="matrix" values="0 0 0 0 0.223529 0 0 0 0 0.384314 0 0 0 0 0.52549 0 0 0 0.15 0"/>
<feBlend mode="normal" in2="BackgroundImageFix" result="effect1_dropShadow_12166_190225"/>
<feBlend mode="normal" in="SourceGraphic" in2="effect1_dropShadow_12166_190225" result="shape"/>
</filter>
</defs>
</svg>
