<svg width="100%" height="100%" viewBox="0 0 50 50" xmlns="http://www.w3.org/2000/svg">
<path fill-rule="evenodd" clip-rule="evenodd" d="M24.9999 50C11.1927 50 0 38.8073 0 25C0 11.1927 11.1927 0 24.9999 0C38.8073 0 50 11.1927 50 25C50 38.8073 38.8073 50 24.9999 50ZM24.9999 2.08334C12.3438 2.08334 2.08336 12.3437 2.08336 25C2.08336 37.6562 12.3438 47.9167 24.9999 47.9167C37.6562 47.9167 47.9166 37.6562 47.9166 25C47.9166 12.3437 37.6562 2.08334 24.9999 2.08334Z"/>
<path d="M29.8071 8.33203L32.7831 8.3698L29.7618 11.9032L33.3329 11.9485" stroke-linecap="round"/>
<path d="M39.3008 15.4766L40.2928 15.4892L39.2857 16.6669L40.4761 16.6821" stroke-width="0.5" stroke-linecap="round"/>
<path d="M35.7446 11.9062L37.7286 11.9314L35.7144 14.287L38.0952 14.3172" stroke-width="0.75" stroke-linecap="round"/>
<path fill-rule="evenodd" clip-rule="evenodd" d="M25.0055 41.0703C24.7808 41.0722 24.5633 40.9942 24.3947 40.8514C21.2038 38.0835 15.4873 31.8293 14.3021 25.9607C14.2065 25.4769 14.5371 25.0102 15.0406 24.9183C15.5441 24.8264 16.0299 25.1441 16.1255 25.6278C17.0373 30.0863 21.2493 35.5258 25.0238 38.9768C31.4057 32.8454 34.2684 27.8615 33.8673 23.6832C33.3549 19.3462 29.5486 16.0619 25.0055 16.0365C23.0332 16.0879 21.1245 16.7176 19.5353 17.8409C18.5199 18.5474 17.8379 19.6122 17.639 20.8015C17.3564 22.273 18.3136 23.4293 19.8179 24.4804C20.3735 23.4855 21.1408 22.614 22.0699 21.9226C23.259 20.8967 24.9294 20.5624 26.446 21.0467C27.708 21.4467 28.6704 22.4375 28.9988 23.6745C29.5766 25.7895 28.2605 27.9541 26.0593 28.5092C25.0518 28.7634 23.9814 28.6415 23.0636 28.1679L22.7901 28.0454C22.2522 27.8001 21.6414 27.5198 20.9667 27.1695C20.9713 27.6119 21.0047 28.0537 21.067 28.4921C21.1319 28.9678 20.7864 29.4052 20.292 29.4731C19.7935 29.5407 19.3323 29.2074 19.2618 28.7286C19.1398 27.8888 19.1398 27.0369 19.2618 26.1972C17.1467 24.8657 15.3505 23.0263 15.8429 20.4424C16.148 18.8235 17.096 17.3817 18.4868 16.4219C20.3816 15.0867 22.6565 14.3408 25.0055 14.2846C30.5039 14.2754 35.1152 18.2702 35.6725 23.5256C36.1283 28.3957 32.8553 34.0367 25.6437 40.825C25.4724 40.9837 25.2434 41.0717 25.0055 41.0703ZM21.3587 25.4001C22.0607 25.768 22.8083 26.1271 23.565 26.4687L23.8385 26.5913C24.6569 27.0185 25.6582 26.9536 26.4096 26.4249C27.1345 25.8431 27.4436 24.9111 27.2027 24.0336C27.0012 23.4071 26.4886 22.9178 25.8352 22.7286C24.93 22.43 23.9273 22.6355 23.2277 23.2628C22.442 23.8277 21.8024 24.5591 21.3587 25.4001Z" />
</svg>
