<svg width="100%" height="100%" viewBox="0 0 21 20" fill="none" xmlns="http://www.w3.org/2000/svg">
<path d="M13.1658 10.1608L10.391 14.5826L7.65424 10.201C7.35015 9.63824 7.19813 9.15586 7.19813 8.51269C7.19813 6.66359 8.64255 5.13607 10.391 5.13607C12.1395 5.13607 13.5839 6.66359 13.5839 8.51269C13.6219 9.11566 13.4699 9.59804 13.1658 10.1608ZM10.429 4.37231C8.26243 4.37231 6.51392 6.22141 6.51392 8.51269C6.51392 9.27645 6.66597 9.87943 7.04608 10.603L10.0869 15.4669C10.163 15.5875 10.277 15.6277 10.391 15.6277C10.5051 15.6277 10.6191 15.5875 10.6951 15.4669L13.774 10.5628C14.1541 9.87942 14.3061 9.27645 14.3061 8.51269C14.3061 6.22141 12.5576 4.37231 10.429 4.37231Z"/>
<path d="M10.41 9.69608C9.71922 9.69608 9.1205 9.21712 9.1205 8.66449C9.1205 8.11185 9.71922 7.63289 10.41 7.63289C11.1008 7.63289 11.6995 8.11185 11.6995 8.66449C11.6995 9.25397 11.1008 9.69608 10.41 9.69608ZM10.41 6.96973C9.21263 6.96973 8.24548 7.74342 8.24548 8.70133C8.24548 9.65923 9.21263 10.4329 10.41 10.4329C11.6074 10.4329 12.5745 9.65923 12.5745 8.70133C12.5745 7.74342 11.6074 6.96973 10.41 6.96973Z" />
<path d="M10.41 0.90918C5.37754 0.90918 1.31909 4.96762 1.31909 10.0001C1.31909 15.0326 5.37754 19.091 10.41 19.091C15.4425 19.091 19.5009 15.0326 19.5009 10.0001C19.5009 4.96762 15.4425 0.90918 10.41 0.90918ZM10.41 1.68029C14.996 1.68029 18.7298 5.41405 18.7298 10.0001C18.7298 14.5861 14.996 18.3199 10.41 18.3199C5.82397 18.3199 2.0902 14.5861 2.0902 10.0001C2.0902 5.41405 5.82397 1.68029 10.41 1.68029Z" />
</svg>
