<svg width="100%" height="100%" viewBox="0 0 34 34" fill="none" xmlns="http://www.w3.org/2000/svg">
<g filter="url(#filter0_d_16206_33525)">
<circle cx="17" cy="16" r="11.75" fill="white" stroke="#005587" stroke-width="0.5"/>
<path fill-rule="evenodd" clip-rule="evenodd" d="M17.0031 23.2217C16.8912 23.2227 16.783 23.1822 16.6991 23.1082C15.1107 21.673 12.2652 18.4303 11.6752 15.3875C11.6276 15.1366 11.7921 14.8946 12.0428 14.847C12.2934 14.7994 12.5353 14.9641 12.5829 15.2149C13.0367 17.5266 15.1333 20.3469 17.0122 22.1362C20.189 18.9571 21.614 16.373 21.4143 14.2066C21.1592 11.9579 19.2646 10.255 17.0031 10.2419C16.0213 10.2685 15.0712 10.595 14.2802 11.1774C13.7747 11.5437 13.4352 12.0958 13.3362 12.7124C13.1955 13.4754 13.672 14.075 14.4208 14.6199C14.6974 14.1041 15.0793 13.6522 15.5418 13.2938C16.1337 12.7618 16.9652 12.5885 17.7201 12.8396C18.3483 13.047 18.8274 13.5607 18.9909 14.2021C19.2785 15.2987 18.6234 16.421 17.5276 16.7089C17.0261 16.8406 16.4933 16.7774 16.0365 16.5319L15.9003 16.4684C15.6326 16.3412 15.3285 16.1959 14.9927 16.0142C14.9949 16.2436 15.0116 16.4727 15.0426 16.7C15.0749 16.9466 14.9029 17.1734 14.6568 17.2086C14.4087 17.2437 14.1791 17.0708 14.144 16.8226C14.0833 16.3872 14.0833 15.9455 14.144 15.5101C13.0911 14.8197 12.1971 13.866 12.4422 12.5263C12.594 11.6869 13.0659 10.9393 13.7582 10.4417C14.7014 9.74937 15.8338 9.36263 17.0031 9.33351C19.7401 9.32875 22.0355 11.4 22.3129 14.1249C22.5398 16.65 20.9106 19.5748 17.3208 23.0945C17.2355 23.1768 17.1215 23.2224 17.0031 23.2217ZM15.1878 15.0968C15.5372 15.2875 15.9094 15.4738 16.2861 15.6509L16.4222 15.7144C16.8296 15.9359 17.328 15.9023 17.702 15.6282C18.0628 15.3265 18.2167 14.8432 18.0968 14.3883C17.9965 14.0634 17.7413 13.8098 17.4161 13.7116C16.9655 13.5568 16.4664 13.6634 16.1182 13.9886C15.7271 14.2815 15.4087 14.6607 15.1878 15.0968Z" fill="#005587"/>
</g>
<defs>
<filter id="filter0_d_16206_33525" x="0" y="0" width="34" height="34" filterUnits="userSpaceOnUse" color-interpolation-filters="sRGB">
<feFlood flood-opacity="0" result="BackgroundImageFix"/>
<feColorMatrix in="SourceAlpha" type="matrix" values="0 0 0 0 0 0 0 0 0 0 0 0 0 0 0 0 0 0 127 0" result="hardAlpha"/>
<feOffset dy="1"/>
<feGaussianBlur stdDeviation="2.5"/>
<feComposite in2="hardAlpha" operator="out"/>
<feColorMatrix type="matrix" values="0 0 0 0 0.117647 0 0 0 0 0.117647 0 0 0 0 0.117647 0 0 0 0.25 0"/>
<feBlend mode="normal" in2="BackgroundImageFix" result="effect1_dropShadow_16206_33525"/>
<feBlend mode="normal" in="SourceGraphic" in2="effect1_dropShadow_16206_33525" result="shape"/>
</filter>
</defs>
</svg>
