<svg width="10" height="10" viewBox="0 0 10 10" fill="none" xmlns="http://www.w3.org/2000/svg">
<path fill-rule="evenodd" clip-rule="evenodd" d="M2.06667 1.00098H7.93333C8.21623 1.00098 8.48754 1.12679 8.68758 1.35073C8.88762 1.57468 9 1.87842 9 2.19513V5.80683C8.99995 6.10799 8.89826 6.39802 8.71529 6.6188C8.53232 6.83958 8.28159 6.97481 8.01333 6.99739L7.92907 7.00098L2.0624 6.9759C1.78024 6.97464 1.51003 6.84827 1.31091 6.62446C1.11179 6.40065 0.999998 6.09763 1 5.78175V2.19513C1 1.87842 1.11238 1.57468 1.31242 1.35073C1.51246 1.12679 1.78377 1.00098 2.06667 1.00098V1.00098Z" stroke="#00A3E0" stroke-width="0.5" stroke-linecap="round" stroke-linejoin="round"/>
<path d="M2 8.00098H8" stroke="#00A3E0" stroke-width="0.5" stroke-linecap="round" stroke-linejoin="round"/>
<path fill-rule="evenodd" clip-rule="evenodd" d="M3 9.00098H7H3Z" fill="#4F4F4F"/>
<path d="M3 9.00098H7" stroke="#00A3E0" stroke-width="0.5" stroke-linecap="round" stroke-linejoin="round"/>
</svg>
