<svg width="100%" height="100%" viewBox="0 0 20 20" fill="none" xmlns="http://www.w3.org/2000/svg">
<path d="M0 10C0 4.47715 4.47715 0 10 0C15.5228 0 20 4.47715 20 10C20 15.5228 15.5228 20 10 20C4.47715 20 0 15.5228 0 10Z" fill="white"/>
<path fill-rule="evenodd" clip-rule="evenodd" d="M10 20C4.47708 20 0 15.5228 0 10C0 4.4772 4.47708 0 10 0C15.5229 0 20 4.4772 20 10C20 15.5228 15.5229 20 10 20ZM10 0.833368C4.93752 0.833368 0.833339 4.93738 0.833339 10C0.833339 15.0626 4.93752 19.1666 10 19.1666C15.0625 19.1666 19.1666 15.0626 19.1666 10C19.1666 4.93738 15.0625 0.833368 10 0.833368Z" fill="#1E1E1E"/>
<path fill-rule="evenodd" clip-rule="evenodd" d="M11.1528 16.5053C10.7938 16.5006 10.451 16.3544 10.1994 16.0984L9.7064 15.5858C9.59835 15.3887 9.67064 15.1414 9.86801 15.0334C10.0039 14.9591 10.1702 14.9681 10.2972 15.0568L10.778 15.5613C10.9654 15.7498 11.266 15.7639 11.4706 15.5939C11.4767 15.5828 11.4848 15.5731 11.495 15.5654C11.5782 15.4789 11.6246 15.3638 11.6254 15.2439C11.6246 15.1007 11.5676 14.9634 11.4665 14.8615L11.2017 14.6011C11.0436 14.4424 11.0436 14.1861 11.2017 14.0274C11.3602 13.8678 11.6181 13.8668 11.7778 14.025C11.7786 14.0258 11.7794 14.0266 11.7802 14.0274L12.041 14.2878C12.2989 14.5396 12.4455 14.8838 12.4484 15.2439C12.4512 15.5742 12.3221 15.892 12.0899 16.1269L12.0614 16.1594C11.8165 16.3908 11.4897 16.5153 11.1528 16.5053Z" fill="#1E1E1E"/>
<path fill-rule="evenodd" clip-rule="evenodd" d="M12.4194 15.2403C12.0592 15.2397 11.7154 15.0928 11.466 14.8334L10.8793 14.2435C10.7212 14.0848 10.7212 13.8285 10.8793 13.6697C11.0377 13.5102 11.2957 13.5092 11.4554 13.6674C11.4562 13.6682 11.457 13.669 11.4578 13.6697L12.0405 14.2516C12.1407 14.3529 12.2768 14.41 12.4194 14.4103C12.54 14.4133 12.6565 14.3661 12.7412 14.2801L12.7779 14.2475C12.9474 14.0418 12.9258 13.7396 12.729 13.5599L11.2134 12.0504C11.0537 11.8921 11.0524 11.6345 11.2109 11.4749C11.2117 11.4742 11.2126 11.4734 11.2134 11.4726C11.3723 11.3149 11.629 11.3149 11.7879 11.4726L13.3076 13.0228C13.825 13.5287 13.8376 14.3566 13.3361 14.8782L13.3035 14.9107C13.068 15.1388 12.7514 15.2646 12.4234 15.2606L12.4194 15.2403Z" fill="#1E1E1E"/>
<path fill-rule="evenodd" clip-rule="evenodd" d="M13.6866 13.9751H13.654C13.3045 13.9643 12.9728 13.8184 12.7292 13.5682L11.2135 12.0546C11.0538 11.8951 11.0538 11.6364 11.2135 11.4768C11.3733 11.3173 11.6324 11.3173 11.7921 11.4768L13.3077 13.023C13.4038 13.1224 13.5359 13.1795 13.6744 13.1817C13.8003 13.1867 13.9225 13.1396 14.0126 13.0515C14.1067 12.9598 14.1585 12.8329 14.1552 12.7016C14.1532 12.5633 14.0957 12.4316 13.9963 12.3354L12.4806 10.8218C12.3209 10.6622 12.3209 10.4035 12.4806 10.244C12.6404 10.0845 12.8995 10.0845 13.0592 10.244L14.5748 11.7576C14.8254 12.001 14.9717 12.3322 14.9823 12.6812C14.9941 13.0298 14.8596 13.3674 14.6115 13.613C14.365 13.854 14.0313 13.9846 13.6866 13.9751Z" fill="#1E1E1E"/>
<path fill-rule="evenodd" clip-rule="evenodd" d="M14.9455 12.7098C14.5878 12.7049 14.2464 12.5587 13.9962 12.3029L12.4806 10.7893C12.3208 10.6298 12.3208 10.3711 12.4806 10.2116C12.6403 10.052 12.8994 10.052 13.0591 10.2116L14.5747 11.7252C14.7475 11.9324 15.0559 11.9606 15.2633 11.7881C15.4707 11.6155 15.4992 11.3077 15.3264 11.1004C15.3073 11.0776 15.2861 11.0565 15.2633 11.0375L12.1098 7.88828C11.9501 7.73004 11.9489 7.47243 12.1074 7.31289C12.1082 7.31208 12.109 7.31127 12.1098 7.31055C12.2728 7.15542 12.5307 7.16153 12.6859 7.32417C12.6867 7.32502 12.6875 7.32587 12.6883 7.32682L15.8418 10.4761C16.0928 10.7208 16.2391 11.0534 16.2493 11.4037C16.2606 11.7511 16.1262 12.0874 15.8785 12.3314C15.632 12.5788 15.295 12.7154 14.9455 12.7098Z" fill="#1E1E1E"/>
<path fill-rule="evenodd" clip-rule="evenodd" d="M14.155 9.76758C14.0461 9.76713 13.9419 9.72319 13.8657 9.64551L13.7475 9.52747C13.5878 9.36928 13.5866 9.11162 13.7451 8.95208C13.7459 8.95127 13.7467 8.95046 13.7475 8.94974C13.9072 8.79573 14.1607 8.79757 14.3179 8.95379L14.4402 9.07177C14.5999 9.23005 14.6011 9.48767 14.4426 9.64721C14.4418 9.64797 14.441 9.64879 14.4402 9.64959C14.3644 9.72471 14.2617 9.76713 14.155 9.76758Z" fill="#1E1E1E"/>
<path fill-rule="evenodd" clip-rule="evenodd" d="M4.74381 10.8584C4.59362 10.8579 4.45583 10.7751 4.38524 10.6427C3.43596 8.86466 3.65188 6.81405 4.92717 5.54052C5.83557 4.65907 7.10667 4.25652 8.3577 4.45416C8.58041 4.48561 8.73541 4.69146 8.70396 4.9139C8.67238 5.13454 8.46895 5.28874 8.24768 5.25976C7.25135 5.09676 6.23619 5.41009 5.50571 6.10603C4.48305 7.12734 4.32414 8.79142 5.09825 10.248C5.20626 10.4452 5.13379 10.6924 4.93638 10.8003C4.87613 10.8332 4.80847 10.8504 4.73972 10.8502L4.74381 10.8584Z" fill="#1E1E1E"/>
<path fill-rule="evenodd" clip-rule="evenodd" d="M5.06953 12.6933C4.71833 12.697 4.38051 12.5591 4.13242 12.3108C3.62388 11.8049 3.62235 10.9831 4.12892 10.4753C4.13008 10.4741 4.13125 10.4729 4.13242 10.4717L5.56662 9.03545C6.08329 8.54767 6.89146 8.54767 7.40818 9.03545C7.91784 9.54341 7.91865 10.3678 7.41002 10.8768C7.40939 10.8774 7.4088 10.878 7.40818 10.8786L5.97403 12.3108C5.73397 12.5512 5.40941 12.6885 5.06953 12.6933ZM4.72323 11.7371C4.9161 11.9242 5.22296 11.9242 5.41588 11.7371L6.84999 10.3009C7.01335 10.0861 6.97143 9.77979 6.75636 9.61674C6.5833 9.48542 6.34423 9.48402 6.1696 9.61323L4.73136 11.0454C4.5379 11.2335 4.53363 11.5427 4.72197 11.7359C4.72242 11.7363 4.72282 11.7367 4.72323 11.7371Z" fill="#1E1E1E"/>
<path fill-rule="evenodd" clip-rule="evenodd" d="M6.33645 13.9551C5.99122 13.9569 5.6596 13.8206 5.41564 13.5767C4.9071 13.0707 4.90553 12.249 5.4121 11.7411C5.41331 11.7399 5.41448 11.7387 5.41564 11.7376L6.8498 10.3013C7.36647 9.81354 8.17469 9.81354 8.69141 10.3013C9.19995 10.8072 9.20148 11.629 8.69491 12.1369C8.69374 12.138 8.69258 12.1392 8.69141 12.1404L7.25725 13.5767C7.01302 13.8203 6.68159 13.9565 6.33645 13.9551ZM7.7706 10.7366C7.64072 10.7359 7.51595 10.7872 7.42429 10.8791L5.9901 12.3113C5.89813 12.4028 5.84673 12.5274 5.8475 12.6571C5.84601 12.7858 5.89759 12.9094 5.9901 12.9989C6.18333 13.1813 6.48548 13.1813 6.67871 12.9989L8.11691 11.5667C8.29712 11.3658 8.28018 11.0572 8.07903 10.8773C7.99394 10.8011 7.88481 10.7571 7.7706 10.7529V10.7366Z" fill="#1E1E1E"/>
<path fill-rule="evenodd" clip-rule="evenodd" d="M7.60412 15.2197C7.25799 15.2199 6.9257 15.084 6.67922 14.8413C6.17333 14.3308 6.17333 13.5086 6.67922 12.9981L8.11751 11.5659C8.63338 11.0761 9.44316 11.0761 9.95907 11.5659C10.4676 12.0718 10.4692 12.8937 9.96262 13.4015C9.96145 13.4027 9.96024 13.4038 9.95907 13.405L8.52492 14.8413C8.2797 15.0833 7.94894 15.2193 7.60412 15.2197ZM9.02196 12.0012C8.89297 12.0007 8.76874 12.0503 8.67565 12.1396L7.24154 13.5759C7.05248 13.7663 7.05248 14.0732 7.24154 14.2635C7.43006 14.4534 7.73701 14.4547 7.92715 14.2664C7.92814 14.2655 7.92908 14.2645 7.93007 14.2635L9.36826 12.8313C9.55058 12.6354 9.53944 12.3291 9.34324 12.147C9.25581 12.0658 9.14142 12.0197 9.02196 12.0175V12.0012Z" fill="#1E1E1E"/>
<path fill-rule="evenodd" clip-rule="evenodd" d="M8.86658 16.4853C8.52149 16.4868 8.19001 16.3505 7.94582 16.1069C7.43993 15.5965 7.43993 14.7743 7.94582 14.2638L9.38406 12.8316C9.89912 12.3397 10.7107 12.3397 11.2256 12.8316C11.7312 13.3407 11.7312 14.1616 11.2256 14.6707L9.79147 16.1069C9.54553 16.3504 9.21289 16.4865 8.86658 16.4853ZM10.3049 13.2629C10.1753 13.2638 10.0512 13.3149 9.95856 13.4053L8.52436 14.8415C8.33422 15.0299 8.33292 15.3364 8.52149 15.5263C8.52248 15.5273 8.52342 15.5282 8.52436 15.5292C8.7176 15.7116 9.0197 15.7116 9.21293 15.5292L10.6512 14.097C10.8312 13.8962 10.8145 13.5875 10.6133 13.4075C10.5282 13.3314 10.419 13.2874 10.3049 13.2832V13.2629Z" fill="#1E1E1E"/>
<path fill-rule="evenodd" clip-rule="evenodd" d="M14.819 10.4351C14.594 10.4351 14.4115 10.253 14.4115 10.0283C14.4095 9.97356 14.4209 9.91914 14.4441 9.86963C15.0219 8.60454 14.7737 7.11585 13.8167 6.106C12.7358 5.10392 11.1374 4.89644 9.83613 5.58927C9.42126 5.78799 9.04369 6.05635 8.71975 6.38266L7.72972 7.37545C7.67311 7.42869 7.64579 7.506 7.65635 7.58296C7.66161 7.6314 7.69063 7.67412 7.7338 7.6969C8.17284 7.95299 8.73337 7.85101 9.05384 7.45681C9.18764 7.32445 9.39485 7.3009 9.55501 7.39988C9.57537 7.39988 11.7836 8.7466 12.8348 7.39988C12.9688 7.21558 13.2267 7.17461 13.4113 7.30832C13.5959 7.44202 13.637 7.69978 13.5029 7.88403C12.3988 9.30812 10.4799 8.80358 9.42867 8.24206C8.85422 8.7228 8.03977 8.7927 7.39154 8.41706C7.11721 8.27706 6.92753 8.01338 6.88224 7.70908C6.83372 7.37481 6.94536 7.03726 7.18375 6.79771L8.17788 5.80898C8.5652 5.41905 9.01561 5.09713 9.51018 4.8569C11.126 4.01674 13.0976 4.29288 14.4197 5.54454C15.6081 6.7775 15.9304 8.60666 15.2345 10.1707C15.1709 10.342 15.0011 10.4501 14.819 10.4351Z" fill="#1E1E1E"/>
</svg>
