<svg width="100%" height="100%" viewBox="0 0 11 6" xmlns="http://www.w3.org/2000/svg">
<path fill-rule="evenodd" clip-rule="evenodd" d="M0.18043 0.695337C0.18085 0.593583 0.222053 0.496239 0.294915 0.424974C0.443703 0.277361 0.684034 0.277361 0.832823 0.424974L5.41071 5.07085L9.37063 1.07237L9.61861 0.80961C9.8558 0.549871 10.1107 0.306841 10.3816 0.0822514C10.5467 -0.0482693 10.7867 -0.0204678 10.9175 0.144447C10.9182 0.145287 10.9189 0.14617 10.9195 0.14701C11.0485 0.312261 11.0195 0.550457 10.8546 0.680138C10.6112 0.880076 10.383 1.09774 10.1718 1.33131L9.9085 1.6055L5.67775 5.88576C5.60548 5.95925 5.50637 6.00075 5.40311 5.99999C5.30114 5.99965 5.20355 5.9585 5.13224 5.88576L0.291083 0.965701C0.219733 0.89389 0.179675 0.796588 0.18043 0.695337Z"/>
</svg>
