<svg width="100%" height="100%" viewBox="0 0 12 9" xmlns="http://www.w3.org/2000/svg">
<path fill-rule="evenodd" clip-rule="evenodd" d="M4.15939 8.30468C4.0536 8.30427 3.95223 8.26141 3.87815 8.18562L1.58497 5.85655C1.28124 5.53478 0.961609 5.22886 0.626518 4.94002C0.539382 4.86859 0.452238 4.78923 0.369077 4.7099L0.33742 4.67813C0.179003 4.52696 0.172626 4.27541 0.323531 4.11669C0.474436 3.95799 0.725568 3.95164 0.883985 4.10281L0.915615 4.13454C0.98694 4.20202 1.05424 4.26947 1.1295 4.32898C1.48634 4.63569 1.82737 4.95983 2.15133 5.30108L4.15939 7.34051L11.1062 0.262009C11.2595 0.105308 11.5102 0.102531 11.6667 0.25607C11.8231 0.409608 11.8259 0.660782 11.6726 0.817513L4.44455 8.18562C4.36965 8.2622 4.2667 8.30547 4.15939 8.30468Z" />
</svg>
