<svg width="100%" height="100%" viewBox="0 0 50 50" fill="none" xmlns="http://www.w3.org/2000/svg">
<path fill-rule="evenodd" clip-rule="evenodd" d="M24.9999 50C11.1926 50 0 38.8073 0 25C0 11.1927 11.1926 0 24.9999 0C38.8072 0 50 11.1927 50 25C50 38.8073 38.8072 50 24.9999 50ZM24.9999 2.08334C12.3437 2.08334 2.08335 12.3437 2.08335 25C2.08335 37.6562 12.3437 47.9167 24.9999 47.9167C37.6562 47.9167 47.9167 37.6562 47.9167 25C47.9167 12.3437 37.6562 2.08334 24.9999 2.08334Z" fill="#00A3E0"/>
<path fill-rule="evenodd" clip-rule="evenodd" d="M39.0266 36.7204H10.9878C10.4437 36.7214 10.001 36.2813 10 35.7378C10 35.5793 10.0374 35.4237 10.1103 35.2829L13.5611 28.6175C13.7305 28.2905 14.0697 28.0847 14.4385 28.0857H34.5901V15.7197H15.4244V24.3051L19.9891 21.1052C20.2947 20.8916 20.6958 20.868 21.0242 21.0461L24.3072 22.8281L28.2508 19.9336L27.7973 19.4216C27.4384 19.0121 27.4798 18.3908 27.89 18.0324C28.0358 17.9043 28.2163 17.8227 28.4085 17.797L31.2873 17.4132C31.8266 17.3363 32.3255 17.7104 32.4023 18.249C32.4161 18.3435 32.4161 18.44 32.4013 18.5354L31.8691 21.2824C31.8256 21.8259 31.3484 22.2315 30.8042 22.1882C30.2601 22.1449 29.8538 21.6684 29.8973 21.1249L24.9678 24.7382C24.6611 24.9667 24.25 24.9972 23.9129 24.817L20.6101 23.025L14.9905 26.9633C14.543 27.2735 13.9287 27.1622 13.6182 26.7152C13.5047 26.5507 13.4427 26.3559 13.4427 26.156V14.735C13.4427 14.1916 13.8844 13.7505 14.4286 13.7505H35.5661C36.1102 13.7505 36.552 14.1916 36.552 14.735V29.0703C36.552 29.6139 36.1102 30.0548 35.5661 30.0548H15.0398L12.6047 34.7513H37.4294C37.0646 34.0326 36.6012 33.1365 36.1674 32.2996C35.9171 31.8153 36.1063 31.2206 36.5914 30.9705C37.0765 30.7204 37.672 30.9094 37.9223 31.3939C38.9083 33.2153 39.8941 35.3321 39.8941 35.3321C40.1396 35.8175 39.9435 36.4092 39.4574 36.6544C39.3174 36.7243 39.1636 36.7607 39.0069 36.7597L39.0266 36.7204Z" fill="#00A3E0"/>
</svg>
