<svg width="100%" height="100%" viewBox="0 0 12 16" fill="none" xmlns="http://www.w3.org/2000/svg">
<path fill-rule="evenodd" clip-rule="evenodd" d="M5.55529 12.4685C4.76716 12.4817 4.11749 11.852 4.10444 11.0619C4.09179 10.2724 4.72035 9.62158 5.50848 9.60894C6.29666 9.59578 6.94626 10.2255 6.95937 11.0151C6.95937 11.023 6.95937 11.0305 6.95937 11.0385C6.95705 11.8182 6.33361 12.4531 5.55529 12.4685ZM5.55529 10.5462C5.28432 10.5331 5.05402 10.7431 5.04096 11.0146C5.02826 11.286 5.23751 11.5168 5.50848 11.5299C5.7795 11.5426 6.00981 11.333 6.02281 11.0615C6.02333 11.054 6.02332 11.046 6.02332 11.0385C6.03643 10.7797 5.83751 10.5598 5.57914 10.5467C5.57119 10.5462 5.56324 10.5462 5.55529 10.5462Z" fill="#1E1E1E"/>
<path fill-rule="evenodd" clip-rule="evenodd" d="M9.25243 15.9492H6.84218C6.5838 15.9492 6.37415 15.7392 6.37415 15.4804C6.37415 15.2216 6.5838 15.0115 6.84218 15.0115H9.25243C9.52902 15.0144 9.75509 14.7916 9.75788 14.5145C9.75788 14.5131 9.75788 14.5113 9.75788 14.5098V7.57063C9.75788 7.29352 9.53373 7.06896 9.25709 7.06896C9.25575 7.06896 9.25382 7.06896 9.25243 7.06896H1.85774C1.58109 7.06896 1.35695 7.29352 1.35695 7.57063V14.5098C1.35695 14.7869 1.58109 15.0115 1.85774 15.0115H5.5551C5.81342 15.0115 6.02306 15.2216 6.02306 15.4804C6.02306 15.7392 5.81342 15.9492 5.5551 15.9492H1.85774C1.06532 15.9464 0.423221 15.3036 0.420898 14.5098V7.57063C0.423221 6.77683 1.06532 6.13353 1.85774 6.1312H9.25243C10.0467 6.1312 10.6911 6.77497 10.6939 7.57063V14.5098C10.6916 15.3055 10.0467 15.9492 9.25243 15.9492Z" fill="#1E1E1E"/>
<path fill-rule="evenodd" clip-rule="evenodd" d="M2.41456 8.79688C2.15618 8.79688 1.94653 8.58686 1.94653 8.32802V3.70976C1.94653 1.71332 3.56217 0.0947819 5.55499 0.0947819C7.54782 0.0947819 9.16339 1.71332 9.16339 3.70976V6.59791C9.16339 6.85675 8.95369 7.06676 8.69537 7.06676C8.43704 7.06676 8.22741 6.85675 8.22741 6.59791V3.70976C8.22741 2.23089 7.03112 1.03249 5.55499 1.03249C4.07881 1.03249 2.88258 2.23089 2.88258 3.70976V8.32802C2.88258 8.58686 2.67293 8.79688 2.41456 8.79688Z" fill="#1E1E1E"/>
<path fill-rule="evenodd" clip-rule="evenodd" d="M5.55518 15.9492C5.29681 15.9492 5.08716 15.7392 5.08716 15.4804V12.0014C5.08716 11.7426 5.29681 11.5325 5.55518 11.5325C5.81356 11.5325 6.02321 11.7426 6.02321 12.0014V15.4804C6.02321 15.7392 5.81356 15.9492 5.55518 15.9492Z" fill="#1E1E1E"/>
</svg>
