<svg width="100%" height="100%" viewBox="0 0 42 42" fill="none" xmlns="http://www.w3.org/2000/svg">
<path d="M0 21C0 9.40202 9.40202 0 21 0C32.598 0 42 9.40202 42 21C42 32.598 32.598 42 21 42C9.40202 42 0 32.598 0 21Z" fill="white"/>
<path fill-rule="evenodd" clip-rule="evenodd" d="M20.9999 42C9.40207 42 0 32.5981 0 21C0 9.40189 9.40207 0 20.9999 0C32.5981 0 42 9.40189 42 21C42 32.5981 32.5981 42 20.9999 42ZM20.9999 1.75C10.3685 1.75 1.75003 10.3687 1.75003 21C1.75003 31.6312 10.3685 40.25 20.9999 40.25C31.6312 40.25 40.25 31.6312 40.25 21C40.25 10.3687 31.6312 1.75 20.9999 1.75Z" fill="#00A3E0"/>
<path fill-rule="evenodd" clip-rule="evenodd" d="M9.82831 33.0469C9.60599 33.046 9.39277 32.956 9.23712 32.7966C9.05062 32.6047 8.9665 32.3353 9.01223 32.0708L10.0447 26.0231C10.0739 25.852 10.1556 25.6951 10.278 25.5724L26.099 9.72295C27.0723 8.75784 28.6394 8.75784 29.6128 9.72295L32.2775 12.384C33.2408 13.3591 33.2408 14.9291 32.2775 15.9043L31.1283 17.0972C30.8045 17.4242 30.2774 17.4267 29.9509 17.1021C29.9493 17.1006 29.9476 17.0988 29.946 17.0972C29.6228 16.7718 29.6228 16.2463 29.946 15.921L31.1283 14.7447C31.4406 14.4211 31.4406 13.9089 31.1283 13.5852L28.4638 10.9159C28.1407 10.603 27.6294 10.603 27.3064 10.9159L11.6436 26.5652L10.8109 31.1866L15.4239 30.3941L28.3639 17.4309C28.7127 17.1314 29.2391 17.1723 29.5379 17.5218C29.8053 17.8337 29.8053 18.2951 29.5379 18.6071L16.4149 31.7622C16.2891 31.8797 16.1334 31.9607 15.9653 31.9958L9.92821 33.0302L9.82831 33.0469Z" fill="#00A3E0"/>
<path fill-rule="evenodd" clip-rule="evenodd" d="M28.9886 18.8574C28.7687 18.8541 28.5598 18.7639 28.4058 18.6072L23.4679 13.6687C23.1448 13.3434 23.1448 12.8179 23.4679 12.4925C23.7918 12.1654 24.3188 12.1631 24.6453 12.4875C24.6469 12.4891 24.6486 12.4909 24.6502 12.4925L29.5799 17.4309C29.9062 17.7554 29.9087 18.2835 29.5848 18.6105C29.4274 18.7697 29.2125 18.8591 28.9886 18.8574Z" fill="#00A3E0"/>
<path fill-rule="evenodd" clip-rule="evenodd" d="M25.5745 18.8574C25.3563 18.8565 25.1464 18.7697 24.9915 18.6154L21.7607 15.3789L22.9432 14.2026L26.1324 17.4309C26.4587 17.7554 26.4612 18.2835 26.1373 18.6105C25.9799 18.7697 25.7652 18.8591 25.5411 18.8574H25.5745Z" fill="#00A3E0"/>
<path fill-rule="evenodd" clip-rule="evenodd" d="M15.8983 31.8633C15.6759 31.8623 15.4628 31.7723 15.3071 31.6129L10.5274 26.8247C10.2044 26.4994 10.2044 25.9739 10.5274 25.6485C10.8513 25.3215 11.3784 25.319 11.7049 25.6435C11.7065 25.6452 11.7082 25.6468 11.7098 25.6485L16.4895 30.4368C16.8158 30.7612 16.8184 31.2893 16.4944 31.6163C16.337 31.7757 16.1223 31.8649 15.8983 31.8633Z" fill="#00A3E0"/>
<path fill-rule="evenodd" clip-rule="evenodd" d="M10.894 32.6211C10.6733 32.6161 10.4635 32.5227 10.311 32.3625L9.47844 31.5283C9.17945 31.1788 9.2202 30.6515 9.56915 30.352C9.88054 30.0843 10.3411 30.0843 10.6525 30.352L11.4852 31.1862C11.8074 31.5149 11.8017 32.0439 11.4736 32.3659C11.3187 32.5176 11.1105 32.6036 10.894 32.6045V32.6211Z" fill="#00A3E0"/>
</svg>
