<svg width="100%" height="100%" viewBox="0 0 14 16" fill="none" xmlns="http://www.w3.org/2000/svg">
<path fill-rule="evenodd" clip-rule="evenodd" d="M7.18872 14.3007C7.06329 14.3002 6.94326 14.2506 6.85541 14.1628C6.67341 13.9835 6.67341 13.6938 6.85541 13.5145C10.1976 10.2958 11.7983 7.65657 11.7467 5.4219C11.6608 2.94738 9.54283 1.00972 7.01681 1.09398C4.76773 1.16902 2.90811 2.83439 2.63071 5.02189C2.27866 7.7807 5.01065 10.9993 6.19827 12.2592C6.38757 12.4327 6.39741 12.7237 6.22027 12.9091C6.04308 13.0945 5.74607 13.1042 5.55682 12.9306C5.54108 12.9163 5.52643 12.9008 5.51292 12.8845C3.92159 11.2155 1.31166 7.96002 1.70124 4.90693C2.0494 1.94519 4.78279 -0.179279 7.80637 0.161709C10.5408 0.470169 12.6241 2.70783 12.6855 5.40351C12.7465 7.90484 11.0567 10.7741 7.52197 14.172C7.43263 14.2563 7.31279 14.3026 7.18872 14.3007Z"/>
<path d="M7.17539 2.48828C5.43659 2.48828 4.02539 3.89948 4.02539 5.63828C4.02539 7.37708 5.43659 8.78828 7.17539 8.78828C7.17539 8.78828 8.4163 8.78828 8.70266 8.78828C8.98903 8.69283 8.98903 8.31101 8.75039 8.15828C8.34845 8.15828 7.17539 8.15828 7.17539 8.15828C5.80829 8.15828 4.65539 7.00538 4.65539 5.63828C4.65539 4.27118 5.80829 3.11828 7.17539 3.11828C8.54249 3.11828 9.69539 4.27118 9.69539 5.63828V6.08873C9.69539 6.33758 9.47174 6.58328 9.22289 6.58328C8.97404 6.58328 8.75039 6.33758 8.75039 6.08873V5.63828C8.75039 4.76888 8.04479 4.06328 7.17539 4.06328C6.30599 4.06328 5.60039 4.76888 5.60039 5.63828C5.60039 6.50768 6.30599 7.21328 7.17539 7.21328C7.61009 7.21328 8.00699 7.03688 8.29049 6.75023C8.49524 7.03058 8.84804 7.21328 9.22289 7.21328C9.84344 7.21328 10.3254 6.70928 10.3254 6.08873V5.63828C10.3254 3.89948 8.91419 2.48828 7.17539 2.48828ZM7.17539 6.58328C6.65249 6.58328 6.23039 6.16118 6.23039 5.63828C6.23039 5.11538 6.65249 4.69328 7.17539 4.69328C7.69829 4.69328 8.12039 5.11538 8.12039 5.63828C8.12039 6.16118 7.69829 6.58328 7.17539 6.58328Z"/>
<path fill-rule="evenodd" clip-rule="evenodd" d="M7.16305 15.875C4.13333 15.875 0.875 15.2465 0.875 13.8725C0.875 12.4248 4.34776 12.0303 5.41482 11.9393C5.67779 11.9178 5.91024 12.0944 5.93404 12.3337C5.95789 12.5731 5.76352 12.7846 5.5005 12.8062C2.88525 13.0186 1.82776 13.6471 1.82776 13.8725C1.82776 14.2019 3.69512 15.0081 7.16305 15.0081C10.6311 15.0081 12.4985 14.2019 12.4985 13.8725C12.4985 13.8378 12.4604 13.7034 12.022 13.4823C11.5853 13.2445 11.0751 13.144 10.5692 13.1963C10.4977 13.2314 10.4172 13.2494 10.3358 13.2483C10.2047 13.2445 10.0799 13.1948 9.98795 13.1096C9.83787 12.9733 9.80457 12.763 9.90695 12.5938C9.98228 12.4768 10.1085 12.3947 10.2548 12.3684H10.2881C11.0369 12.2493 11.8082 12.3752 12.4651 12.7238C12.7128 12.8452 13.475 13.2093 13.475 13.8811C13.4512 15.2595 10.1928 15.875 7.16305 15.875Z"/>
</svg>
