<svg width="100%" height="100%" viewBox="0 0 44 44" fill="none" xmlns="http://www.w3.org/2000/svg">
<path fill-rule="evenodd" clip-rule="evenodd" d="M22 44C9.84974 44 0 34.1504 0 22C0 9.84959 9.84974 1.52588e-05 22 1.52588e-05C34.1503 1.52588e-05 44 9.84959 44 22C44 34.1504 34.1503 44 22 44ZM22 1.8334C10.8622 1.8334 1.83334 10.8625 1.83334 22C1.83334 33.1375 10.8622 42.1667 22 42.1667C33.1378 42.1667 42.1667 33.1375 42.1667 22C42.1667 10.8625 33.1378 1.8334 22 1.8334Z" fill="#1E1E1E"/>
<path d="M21.9999 9.89844C15.3207 9.89844 9.8999 15.3192 9.8999 21.9984C9.8999 28.6776 15.3207 34.0984 21.9999 34.0984H28.0499V31.6784H21.9999C16.7485 31.6784 12.3199 27.2498 12.3199 21.9984C12.3199 16.747 16.7485 12.3184 21.9999 12.3184C27.2513 12.3184 31.6799 16.747 31.6799 21.9984V23.7287C31.6799 24.6846 30.8208 25.6284 29.8649 25.6284C28.909 25.6284 28.0499 24.6846 28.0499 23.7287V21.9984C28.0499 18.6588 25.3395 15.9484 21.9999 15.9484C18.6603 15.9484 15.9499 18.6588 15.9499 21.9984C15.9499 25.338 18.6603 28.0484 21.9999 28.0484C23.6697 28.0484 25.1943 27.3708 26.2833 26.2697C27.0698 27.3466 28.425 28.0484 29.8649 28.0484C32.2486 28.0484 34.0999 26.1124 34.0999 23.7287V21.9984C34.0999 15.3192 28.6791 9.89844 21.9999 9.89844ZM21.9999 25.6284C19.9913 25.6284 18.3699 24.007 18.3699 21.9984C18.3699 19.9898 19.9913 18.3684 21.9999 18.3684C24.0085 18.3684 25.6299 19.9898 25.6299 21.9984C25.6299 24.007 24.0085 25.6284 21.9999 25.6284Z" fill="#1E1E1E"/>
</svg>
