<svg width="100%" height="100%" viewBox="0 0 12 12" fill="none" xmlns="http://www.w3.org/2000/svg">
<path d="M6 0C2.688 0 0 2.688 0 6C0 9.312 2.688 12 6 12H9V10.8H6C3.396 10.8 1.2 8.604 1.2 6C1.2 3.396 3.396 1.2 6 1.2C8.604 1.2 10.8 3.396 10.8 6V6.858C10.8 7.332 10.374 7.8 9.9 7.8C9.426 7.8 9 7.332 9 6.858V6C9 4.344 7.656 3 6 3C4.344 3 3 4.344 3 6C3 7.656 4.344 9 6 9C6.828 9 7.584 8.664 8.124 8.118C8.514 8.652 9.186 9 9.9 9C11.082 9 12 8.04 12 6.858V6C12 2.688 9.312 0 6 0ZM6 7.8C5.004 7.8 4.2 6.996 4.2 6C4.2 5.004 5.004 4.2 6 4.2C6.996 4.2 7.8 5.004 7.8 6C7.8 6.996 6.996 7.8 6 7.8Z" fill="#00A3E0"/>
</svg>
