<svg width="100%" height="100%" viewBox="0 0 35 35" xmlns="http://www.w3.org/2000/svg">
<g filter="url(#filter0_d_17267_72727)">
<circle cx="16" cy="16" r="11.75" fill="white" stroke="#005587" stroke-width="0.5"/>
<path fill-rule="evenodd" clip-rule="evenodd" d="M19.1356 22.0156C19.0804 22.0156 19.0253 22.0055 18.9736 21.9852L13.948 20.2714L12.88 19.9013L12.9458 20.099C13.1301 20.6487 12.9544 21.2546 12.5056 21.6201C12.1614 21.8853 11.7266 22.0035 11.2959 21.9497C10.724 21.8868 10.2215 21.5425 9.95472 21.032C9.63434 20.4063 9.79731 19.6417 10.3444 19.2016C10.4026 19.1535 10.4654 19.1113 10.5317 19.0749L8.09729 18.2738C7.88928 18.2058 7.74805 18.0116 7.74805 17.7921L7.74805 13.8525C7.7476 13.6344 7.88624 13.4408 8.09225 13.3708L18.9736 9.61376C19.0253 9.59345 19.0804 9.58334 19.1356 9.58334C20.1039 9.58636 20.8868 10.3727 20.8868 11.3427V20.2562C20.8868 21.2262 20.1039 22.0126 19.1356 22.0156ZM12.2525 18.7047C12.4245 18.7017 12.5961 18.7291 12.7586 18.7858L14.277 19.2929L19.2116 20.9762C19.5896 20.9372 19.8765 20.6167 19.8745 20.2359V11.3427C19.8765 10.9619 19.5896 10.6415 19.2116 10.6024L8.76029 14.2125V17.422L11.6755 18.3853C11.8653 18.4537 12.0384 18.5627 12.1816 18.7047H12.2525ZM11.7463 19.7847H11.6704L11.3466 19.8455C11.2175 19.8618 11.0945 19.9084 10.9872 19.9824C10.8303 20.1335 10.7873 20.3683 10.8809 20.5655C10.9948 20.7689 11.2007 20.9037 11.4325 20.9255C11.5945 20.9499 11.76 20.9098 11.8931 20.814C12.0166 20.71 12.0617 20.5391 12.0045 20.388C11.9225 20.1786 11.8228 19.9769 11.7059 19.7847H11.7463Z" fill="#005587"/>
<path fill-rule="evenodd" clip-rule="evenodd" d="M20.3602 13.5068C20.1457 13.5058 19.9553 13.3699 19.8845 13.1672C19.7914 12.9029 19.9295 12.6134 20.1927 12.5202C20.1947 12.5192 20.1963 12.5186 20.1983 12.5182L22.4556 11.7423C22.7162 11.6414 23.0093 11.7718 23.11 12.0329C23.2102 12.2945 23.0806 12.5876 22.8195 12.6885C22.8083 12.6931 22.7962 12.6971 22.7846 12.7007L20.5273 13.4764C20.4736 13.4957 20.4174 13.5063 20.3602 13.5068Z" fill="#005587"/>
<path fill-rule="evenodd" clip-rule="evenodd" d="M22.6185 19.8554C22.5648 19.8625 22.5103 19.8625 22.4566 19.8554L20.1993 19.0745C19.9315 18.9934 19.7807 18.71 19.8617 18.4423C19.9432 18.1741 20.2256 18.023 20.4928 18.1041C20.505 18.1077 20.5167 18.1118 20.5283 18.1163L22.7855 18.892C23.0512 18.9793 23.196 19.2657 23.1084 19.5319C23.0396 19.7434 22.8407 19.8848 22.6185 19.8808V19.8554Z" fill="#005587"/>
<path fill-rule="evenodd" clip-rule="evenodd" d="M24.4693 16.3066H20.3596C20.0802 16.3066 19.8535 16.0795 19.8535 15.7996C19.8535 15.5197 20.0802 15.2926 20.3596 15.2926H24.4693C24.7487 15.2926 24.9754 15.5197 24.9754 15.7996C24.9754 16.0795 24.7487 16.3066 24.4693 16.3066Z" fill="#005587"/>
</g>
<defs>
<filter id="filter0_d_17267_72727" x="0.5" y="0.5" width="34" height="34" filterUnits="userSpaceOnUse" color-interpolation-filters="sRGB">
<feFlood flood-opacity="0" result="BackgroundImageFix"/>
<feColorMatrix in="SourceAlpha" type="matrix" values="0 0 0 0 0 0 0 0 0 0 0 0 0 0 0 0 0 0 127 0" result="hardAlpha"/>
<feOffset dx="1.5" dy="1.5"/>
<feGaussianBlur stdDeviation="2.5"/>
<feColorMatrix type="matrix" values="0 0 0 0 0.223529 0 0 0 0 0.384314 0 0 0 0 0.52549 0 0 0 0.15 0"/>
<feBlend mode="normal" in2="BackgroundImageFix" result="effect1_dropShadow_17267_72727"/>
<feBlend mode="normal" in="SourceGraphic" in2="effect1_dropShadow_17267_72727" result="shape"/>
</filter>
</defs>
</svg>
