<svg width="100%" height="100%" viewBox="0 0 23 18" fill="none" xmlns="http://www.w3.org/2000/svg">
<path d="M22.9785 12.2961C22.8925 12.6583 22.5486 12.9299 22.2047 12.9299H22.1187L17.4759 12.115C17.046 12.0245 16.7881 11.6623 16.8741 11.2096C16.9601 10.7569 17.304 10.4854 17.7339 10.5759L22.3767 11.3907C22.8066 11.4813 23.0645 11.8434 22.9785 12.2961ZM14.7246 4.60035C14.4667 4.2382 14.5527 3.69498 14.8106 3.42336L18.6796 0.164008C19.0235 -0.107606 19.5394 -0.0170903 19.7973 0.254524C20.0553 0.616677 19.9693 1.1599 19.7113 1.43151L15.8423 4.69092C15.6704 4.78146 15.4984 4.87195 15.3265 4.87195C15.0685 4.87195 14.8966 4.78143 14.7246 4.60035ZM17.046 8.04079C16.96 8.04079 16.8741 8.04079 16.8741 8.04079C16.5302 8.04079 16.2722 7.76922 16.1003 7.40707C16.0143 6.95438 16.1862 6.50165 16.6161 6.41111L22.0328 4.78144C22.4627 4.6909 22.8925 4.87195 22.9785 5.32464C23.0645 5.77734 22.8925 6.23006 22.4627 6.3206L17.046 8.04079ZM2.2578 12.9299L1.56996 10.0326L11.8014 3.60445L14.2947 12.9299H2.2578ZM9.90985 14.5596C9.90985 15.4649 9.22201 16.1892 8.36223 16.1892C7.50245 16.1892 6.81463 15.4649 6.81463 14.5596H9.90985ZM13.0051 2.24638C12.9191 1.97476 12.7471 1.79365 12.5752 1.70311C12.3172 1.61258 12.0593 1.61261 11.8873 1.79369L0.366273 9.12726C0.108339 9.30834 -0.0636122 9.67049 0.0223659 10.0326L0.96813 14.1069C1.05411 14.469 1.39802 14.7406 1.74193 14.7406H5.35299C5.35299 16.5514 6.72865 18 8.44821 18C10.1678 18 11.5434 16.5514 11.5434 14.7406H15.4124C15.6704 14.7406 15.8423 14.6501 16.0143 14.3785C16.1863 14.1974 16.1862 13.9258 16.1003 13.6542L13.0051 2.24638Z"/>
</svg>
