<svg width="100%" height="100%" viewBox="0 0 21 21" fill="none" xmlns="http://www.w3.org/2000/svg">
<path d="M0 10.5C0 4.70101 4.70101 0 10.5 0C16.299 0 21 4.70101 21 10.5C21 16.299 16.299 21 10.5 21C4.70101 21 0 16.299 0 10.5Z" fill="#DA291C"/>
<path fill-rule="evenodd" clip-rule="evenodd" d="M10.3201 13.9771C10.0822 13.9771 9.88916 13.7839 9.88916 13.5459V3.58088C9.88916 3.34287 10.0822 3.14969 10.3201 3.14969C10.5579 3.14969 10.751 3.34287 10.751 3.58088V13.5459C10.751 13.7839 10.5579 13.9771 10.3201 13.9771Z" fill="white"/>
<path fill-rule="evenodd" clip-rule="evenodd" d="M10.2383 17.8496C10.0573 17.8488 9.87635 17.829 9.69969 17.7893C9.05249 17.6634 8.5436 17.1623 8.40704 16.5173C8.35615 15.9951 8.57981 15.4841 8.99737 15.1676C9.43037 14.8792 9.92462 14.6959 10.4408 14.6329H10.5227H10.5442C10.9751 14.5467 11.1389 14.495 11.2466 14.3096C11.3664 14.106 11.6279 14.0366 11.8326 14.1543C12.0376 14.2729 12.1088 14.5346 11.992 14.7408C11.9105 14.8826 11.8037 15.0081 11.6774 15.1116C11.7361 15.159 11.7908 15.2108 11.8412 15.2668C12.1984 15.6277 12.3423 16.149 12.2203 16.6423C12.0902 17.0339 11.8136 17.3598 11.4491 17.5522C11.0781 17.7552 10.661 17.8579 10.2383 17.8496ZM10.5873 15.4824C10.2103 15.5234 9.84708 15.6471 9.52303 15.8446C9.34376 15.9718 9.23993 16.181 9.24725 16.4008C9.28602 16.6682 9.60057 16.8794 9.89354 16.9485C10.2732 17.0334 10.6705 16.9752 11.0096 16.7846C11.1772 16.7018 11.309 16.5608 11.3801 16.3879C11.4163 16.1865 11.3483 15.9804 11.1992 15.8403C11.0302 15.6691 10.8191 15.5458 10.5873 15.4824Z" fill="white"/>
</svg>
