<svg width="100%" height="100%" viewBox="0 0 44 44" fill="none" xmlns="http://www.w3.org/2000/svg">
<path fill-rule="evenodd" clip-rule="evenodd" d="M22 44C9.84949 44 0 34.1504 0 22C0 9.8496 9.84949 3.8147e-06 22 3.8147e-06C34.1503 3.8147e-06 44 9.8496 44 22C44 34.1504 34.1503 44 22 44ZM22 1.83334C10.8625 1.83334 1.83334 10.8624 1.83334 22C1.83334 33.1375 10.8625 42.1667 22 42.1667C33.1375 42.1667 42.1667 33.1375 42.1667 22C42.1667 10.8624 33.1375 1.83334 22 1.83334Z" fill="#1E1E1E"/>
<path fill-rule="evenodd" clip-rule="evenodd" d="M21.9951 38.5625C19.6347 38.5625 17.7146 36.383 17.7146 33.7173C17.7146 31.0513 19.6347 28.8718 21.9951 28.8718C22.8362 28.8709 23.6549 29.1441 24.3274 29.6482C24.7442 29.9559 24.8322 30.5416 24.524 30.9578C24.2159 31.3741 23.6296 31.462 23.2128 31.1542C22.8624 30.8895 22.4343 30.7444 21.9951 30.7427C20.665 30.7427 19.5879 32.0709 19.5879 33.7173C19.5879 35.3635 20.665 36.6918 21.9951 36.6918C23.3252 36.6918 24.4023 35.3542 24.4023 33.7173C24.4052 33.3627 24.3545 33.0091 24.2524 32.6695C24.0848 32.1813 24.3452 31.649 24.8341 31.4816C25.324 31.3132 25.857 31.5742 26.0246 32.0625C26.0302 32.0812 26.0368 32.099 26.0416 32.1178C26.1998 32.6358 26.2785 33.1755 26.2757 33.7173C26.2757 36.383 24.3555 38.5625 21.9951 38.5625Z" fill="#1E1E1E"/>
<path fill-rule="evenodd" clip-rule="evenodd" d="M14.6614 35.2732C14.2118 35.2834 13.8193 34.9729 13.7247 34.5343C13.3061 32.4464 14.194 30.3127 15.9727 29.137C16.3905 28.8321 16.9759 28.9227 17.2812 29.3399C17.5874 29.7571 17.4957 30.3417 17.0789 30.6466C17.0424 30.673 17.0049 30.6972 16.9656 30.7178C15.8538 31.4764 15.2983 32.8205 15.5512 34.1414C15.6617 34.6446 15.3432 35.1432 14.8394 35.2545L14.6614 35.2732Z" fill="#1E1E1E"/>
<path fill-rule="evenodd" clip-rule="evenodd" d="M9.73457 28.453C9.60143 28.4521 9.47137 28.424 9.35042 28.3689C8.88026 28.1566 8.67141 27.6046 8.88212 27.1342C9.47313 25.8686 10.5147 24.8677 11.8045 24.328C13.1046 23.7994 14.5602 23.7994 15.8603 24.328C16.3389 24.5273 16.5656 25.0753 16.366 25.5533C16.1666 26.0314 15.6177 26.2577 15.1391 26.0584C14.2979 25.7171 13.3575 25.7171 12.5164 26.0584C11.6603 26.4177 10.9717 27.0854 10.5869 27.9293C10.4276 28.2538 10.0961 28.4577 9.73457 28.453Z" fill="#1E1E1E"/>
<path fill-rule="evenodd" clip-rule="evenodd" d="M16.7877 21.988C16.4393 21.9907 16.1179 21.7999 15.954 21.4922C15.5625 20.612 14.9078 19.873 14.0807 19.3782C13.4232 19.0106 12.6054 19.0976 12.0388 19.5933C11.6922 19.9778 11.0984 20.0096 10.7133 19.6635C10.3285 19.3174 10.2965 18.7244 10.6431 18.34C11.7709 17.2119 13.5056 16.9537 14.9144 17.7038C16.101 18.368 17.049 19.3894 17.6213 20.6222C17.8629 21.0768 17.6915 21.6418 17.2373 21.885C17.0987 21.9562 16.9442 21.9917 16.7877 21.988Z" fill="#1E1E1E"/>
<path fill-rule="evenodd" clip-rule="evenodd" d="M25.1426 33.3339C24.8241 33.333 24.5281 33.1711 24.3558 32.9036C24.0758 32.4725 24.1965 31.8952 24.6274 31.6128C26.5279 30.2518 27.6266 28.0359 27.5591 25.7012C27.5591 21.9595 25.0676 18.985 21.9954 18.985C18.9231 18.985 16.441 21.997 16.441 25.7012C16.3727 28.0311 17.4675 30.2433 19.3633 31.6034C19.7998 31.8803 19.9292 32.4584 19.6519 32.8943C19.3746 33.3301 18.7958 33.4592 18.3593 33.1824C18.3499 33.1767 18.3415 33.1712 18.333 33.1656C15.9147 31.4501 14.5096 28.6438 14.5865 25.6825C14.5865 20.9493 17.9209 17.0955 22.0141 17.0955C26.1073 17.0955 29.4512 20.9493 29.4512 25.6825C29.5262 28.6438 28.1221 31.4491 25.7046 33.1656C25.5435 33.2881 25.344 33.348 25.1426 33.3339Z" fill="#1E1E1E"/>
<path fill-rule="evenodd" clip-rule="evenodd" d="M29.3666 35.2734H29.1699C28.6641 35.1659 28.341 34.6701 28.4478 34.1641C28.4478 34.1631 28.4487 34.1612 28.4487 34.1604C28.7091 32.8414 28.1564 31.4944 27.0438 30.7367C26.5866 30.4945 26.4134 29.9277 26.6569 29.4712C26.8995 29.0156 27.4671 28.8426 27.9233 29.0848C27.9625 29.1064 28.001 29.1298 28.0366 29.156C29.8153 30.3317 30.7033 32.4653 30.2845 34.5533C30.1843 34.9779 29.8031 35.2763 29.3666 35.2734Z" fill="#1E1E1E"/>
<path fill-rule="evenodd" clip-rule="evenodd" d="M34.2656 28.4531C33.8938 28.4559 33.5566 28.2398 33.404 27.9012C33.0171 27.0622 32.3333 26.3962 31.4838 26.0305C30.6399 25.689 29.6957 25.689 28.8518 26.0305C28.3731 26.2268 27.8261 25.9987 27.6294 25.5207C27.4327 25.0427 27.6613 24.4965 28.1399 24.3C29.4372 23.7715 30.889 23.7715 32.1863 24.3C33.4826 24.8332 34.5298 25.835 35.118 27.1062C35.3287 27.5767 35.1199 28.1286 34.6497 28.3408C34.5317 28.4054 34.4006 28.4438 34.2656 28.4531Z" fill="#1E1E1E"/>
<path fill-rule="evenodd" clip-rule="evenodd" d="M27.2127 21.9882C27.06 21.99 26.9082 21.9545 26.7724 21.8853C26.3181 21.642 26.1467 21.0772 26.3883 20.6225C26.9578 19.3878 27.9057 18.3664 29.0953 17.7041C30.5051 16.9595 32.236 17.2177 33.3664 18.3401C33.7131 18.7246 33.6812 19.3176 33.2963 19.6638C32.9113 20.0099 32.3175 19.9781 31.9708 19.5936C31.4042 19.0979 30.5866 19.0108 29.9289 19.3784C29.101 19.8733 28.4472 20.6123 28.0556 21.4924C27.8898 21.803 27.5648 21.9938 27.2127 21.9882Z" fill="#1E1E1E"/>
<path fill-rule="evenodd" clip-rule="evenodd" d="M21.6955 21.3828C21.1786 21.3828 20.7588 20.9629 20.7597 20.4465C20.7597 20.3211 20.7852 20.1977 20.8338 20.0826C21.3546 18.5813 21.512 16.979 21.2928 15.4057C21.2084 14.5545 21.0773 13.7221 20.9368 12.8521C20.7963 11.9822 20.6746 11.2058 20.5903 10.3546C20.4123 8.65404 20.4123 6.93853 20.5903 5.238C20.6474 4.72166 21.1129 4.34848 21.63 4.4055C22.147 4.46251 22.5207 4.92752 22.4637 5.44375C22.295 7.01331 22.295 8.59703 22.4637 10.1675C22.5479 10.9626 22.6697 11.7764 22.8008 12.5527C22.932 13.3292 23.0819 14.3112 23.1662 15.228C23.4162 17.0949 23.2101 18.9947 22.5667 20.7655C22.4336 21.1331 22.0861 21.3791 21.6955 21.3828Z" fill="#1E1E1E"/>
</svg>
