<svg width="100%" height="100%" viewBox="0 0 50 50" xmlns="http://www.w3.org/2000/svg">
<path fill-rule="evenodd" clip-rule="evenodd" d="M24.9999 50C11.1926 50 0 38.8073 0 25C0 11.1927 11.1926 0 24.9999 0C38.8072 0 50 11.1927 50 25C50 38.8073 38.8072 50 24.9999 50ZM24.9999 2.08334C12.3437 2.08334 2.08335 12.3437 2.08335 25C2.08335 37.6562 12.3437 47.9167 24.9999 47.9167C37.6562 47.9167 47.9167 37.6562 47.9167 25C47.9167 12.3437 37.6562 2.08334 24.9999 2.08334Z" fill="#DA291C"/>
<path fill-rule="evenodd" clip-rule="evenodd" d="M24.9941 43.8242C22.3118 43.8242 20.1299 41.3475 20.1299 38.3183C20.1299 35.2888 22.3118 32.8121 24.9941 32.8121C25.9499 32.811 26.8802 33.1215 27.6444 33.6944C28.1181 34.044 28.2181 34.7095 27.8679 35.1825C27.5178 35.6556 26.8514 35.7554 26.3778 35.4057C25.9797 35.1049 25.4932 34.9401 24.9941 34.9381C23.4826 34.9381 22.2587 36.4474 22.2587 38.3183C22.2587 40.189 23.4826 41.6984 24.9941 41.6984C26.5055 41.6984 27.7295 40.1784 27.7295 38.3183C27.7328 37.9153 27.6753 37.5136 27.5592 37.1277C27.3687 36.5728 27.6647 35.968 28.2202 35.7777C28.7769 35.5864 29.3826 35.8829 29.5731 36.4379C29.5794 36.4591 29.5869 36.4793 29.5923 36.5006C29.7721 37.0894 29.8616 37.7027 29.8584 38.3183C29.8584 41.3475 27.6763 43.8242 24.9941 43.8242Z" fill="#DA291C"/>
<path fill-rule="evenodd" clip-rule="evenodd" d="M16.6603 40.0818C16.1494 40.0934 15.7033 39.7405 15.5958 39.2421C15.1201 36.8695 16.1292 34.4448 18.1503 33.1088C18.6251 32.7623 19.2904 32.8653 19.6373 33.3394C19.9853 33.8135 19.8811 34.4778 19.4074 34.8243C19.366 34.8542 19.3234 34.8818 19.2787 34.9052C18.0153 35.7673 17.384 37.2946 17.6714 38.7956C17.797 39.3674 17.4351 39.934 16.8625 40.0605L16.6603 40.0818Z" fill="#DA291C"/>
<path fill-rule="evenodd" clip-rule="evenodd" d="M11.062 32.3358C10.9107 32.3348 10.7629 32.3029 10.6254 32.2402C10.0911 31.999 9.85382 31.3717 10.0933 30.8371C10.7649 29.399 11.9485 28.2616 13.4142 27.6483C14.8916 27.0476 16.5456 27.0476 18.023 27.6483C18.5669 27.8747 18.8245 28.4975 18.5977 29.0407C18.3711 29.5839 17.7474 29.8411 17.2035 29.6147C16.2476 29.2268 15.1789 29.2268 14.2231 29.6147C13.2502 30.0229 12.4678 30.7817 12.0305 31.7406C11.8495 32.1094 11.4728 32.3411 11.062 32.3358Z" fill="#DA291C"/>
<path fill-rule="evenodd" clip-rule="evenodd" d="M19.0771 24.988C18.6812 24.991 18.3159 24.7743 18.1298 24.4246C17.6848 23.4243 16.9409 22.5845 16.001 22.0223C15.2538 21.6046 14.3245 21.7034 13.6806 22.2667C13.2867 22.7037 12.6119 22.7398 12.1744 22.3465C11.737 21.9532 11.7008 21.2794 12.0946 20.8425C13.3762 19.5606 15.3475 19.2671 16.9483 20.1196C18.2968 20.8743 19.374 22.035 20.0244 23.436C20.2989 23.9525 20.1042 24.5945 19.588 24.871C19.4305 24.9518 19.2549 24.9922 19.0771 24.988Z" fill="#DA291C"/>
<path fill-rule="evenodd" clip-rule="evenodd" d="M28.5712 37.8844C28.2093 37.8834 27.8729 37.6995 27.6771 37.3955C27.3589 36.9056 27.4961 36.2496 27.9858 35.9287C30.1455 34.382 31.3939 31.8639 31.3173 29.2108C31.3173 24.9589 28.486 21.5788 24.9949 21.5788C21.5037 21.5788 18.6831 25.0015 18.6831 29.2108C18.6054 31.8585 19.8495 34.3724 22.0039 35.918C22.4999 36.2325 22.6469 36.8895 22.3319 37.3849C22.0167 37.8801 21.359 38.0268 20.8629 37.7123C20.8523 37.7058 20.8427 37.6995 20.8331 37.6931C18.085 35.7437 16.4883 32.5548 16.5757 29.1896C16.5757 23.811 20.3648 19.4317 25.0162 19.4317C29.6675 19.4317 33.4673 23.811 33.4673 29.1896C33.5526 32.5548 31.9571 35.7426 29.2099 37.6931C29.0268 37.8323 28.8001 37.9004 28.5712 37.8844Z" fill="#DA291C"/>
<path fill-rule="evenodd" clip-rule="evenodd" d="M33.3715 40.082H33.148C32.5733 39.9598 32.206 39.3964 32.3274 38.8214C32.3274 38.8203 32.3285 38.8181 32.3285 38.8172C32.6243 37.3184 31.9963 35.7877 30.732 34.9267C30.2125 34.6514 30.0156 34.0073 30.2923 33.4886C30.568 32.9709 31.2129 32.7743 31.7314 33.0495C31.776 33.074 31.8197 33.1006 31.8601 33.1304C33.8814 34.4664 34.8904 36.891 34.4146 39.2637C34.3007 39.7462 33.8676 40.0853 33.3715 40.082Z" fill="#DA291C"/>
<path fill-rule="evenodd" clip-rule="evenodd" d="M38.9377 32.3359C38.5152 32.3391 38.1321 32.0935 37.9586 31.7088C37.5189 30.7554 36.7419 29.9985 35.7765 29.5829C34.8176 29.1949 33.7447 29.1949 32.7856 29.5829C32.2417 29.8061 31.6201 29.5468 31.3966 29.0036C31.173 28.4605 31.4328 27.8397 31.9767 27.6165C33.4509 27.0159 35.1007 27.0159 36.5749 27.6165C38.0479 28.2223 39.238 29.3607 39.9064 30.8054C40.1458 31.34 39.9085 31.9671 39.3742 32.2083C39.2401 32.2817 39.0911 32.3253 38.9377 32.3359Z" fill="#DA291C"/>
<path fill-rule="evenodd" clip-rule="evenodd" d="M30.9235 24.9881C30.75 24.9903 30.5775 24.9499 30.4232 24.8712C29.907 24.5948 29.7122 23.9529 29.9867 23.4362C30.6339 22.0332 31.7111 20.8725 33.0629 20.1199C34.6649 19.2737 36.6318 19.5672 37.9164 20.8427C38.3103 21.2795 38.2741 21.9535 37.8367 22.3468C37.3992 22.7401 36.7244 22.704 36.3305 22.2671C35.6866 21.7037 34.7575 21.6048 34.0102 22.0225C33.0693 22.5849 32.3264 23.4246 31.8814 24.4247C31.693 24.7777 31.3236 24.9946 30.9235 24.9881Z" fill="#DA291C"/>
<path fill-rule="evenodd" clip-rule="evenodd" d="M24.6538 24.3008C24.0663 24.3008 23.5893 23.8236 23.5904 23.2368C23.5904 23.0943 23.6193 22.954 23.6745 22.8233C24.2663 21.1173 24.4452 19.2965 24.1961 17.5086C24.1003 16.5413 23.9513 15.5954 23.7915 14.6068C23.6319 13.6182 23.4937 12.736 23.3978 11.7687C23.1955 9.83626 23.1955 7.88682 23.3978 5.9544C23.4627 5.36765 23.9917 4.94359 24.5793 5.00838C25.1668 5.07317 25.5914 5.60158 25.5267 6.18821C25.335 7.9718 25.335 9.77149 25.5267 11.5561C25.6223 12.4597 25.7607 13.3844 25.9098 14.2666C26.0588 15.1489 26.2291 16.2649 26.3249 17.3067C26.6091 19.4282 26.3749 21.587 25.6437 23.5992C25.4925 24.017 25.0976 24.2966 24.6538 24.3008Z" fill="#DA291C"/>
</svg>
