<svg width="100%" height="100%" viewBox="0 0 14 12" fill="none" xmlns="http://www.w3.org/2000/svg">
<path fill-rule="evenodd" clip-rule="evenodd" d="M0.63329 7.81932C0.571917 7.81841 0.511454 7.80551 0.454628 7.78247C0.222421 7.68162 0.115262 7.41074 0.215075 7.1772C0.21553 7.17629 0.216008 7.17538 0.216463 7.17446L0.312654 6.94874L2.56633 1.51341C2.79767 0.955543 3.33956 0.592171 3.94056 0.592171H5.09488C5.34775 0.592171 5.55293 0.798398 5.55293 1.05279C5.55293 1.30719 5.34775 1.51341 5.09488 1.51341H3.94056C3.7078 1.5124 3.499 1.65513 3.41373 1.87267L1.05015 7.55681C0.973621 7.71848 0.810993 7.82074 0.63329 7.81932Z"/>
<path fill-rule="evenodd" clip-rule="evenodd" d="M13.3634 7.7871C13.1774 7.78522 13.0106 7.67055 12.9419 7.49691L12.8733 7.32647L10.5829 1.84966C10.4977 1.62598 10.2852 1.47783 10.047 1.47656H8.89268C8.63981 1.47656 8.43457 1.27033 8.43457 1.01594C8.43457 0.761541 8.63981 0.555315 8.89268 0.555315H10.047C10.6539 0.56237 11.1967 0.937102 11.4212 1.50416L13.7619 7.15145C13.8581 7.38682 13.7463 7.65583 13.5122 7.75252C13.4564 7.77557 13.3964 7.78755 13.3359 7.7871H13.3634Z"/>
<path fill-rule="evenodd" clip-rule="evenodd" d="M3.14834 11.4443C1.41273 11.4475 0.0032382 10.0353 5.39729e-06 8.29042C-0.00317689 6.54519 1.40128 5.12789 3.13694 5.12459C4.10254 5.12281 5.0159 5.56787 5.6128 6.33141C5.76944 6.53119 5.73594 6.8209 5.53718 6.9786C5.33881 7.13636 5.05031 7.10236 4.89362 6.90263C4.13139 5.9359 2.7338 5.77377 1.77229 6.54041C0.81129 7.3071 0.650051 8.71237 1.41228 9.67873C2.17452 10.6456 3.5721 10.8078 4.53356 10.0413C5.06677 9.61615 5.3764 8.96848 5.37458 8.28443C5.37458 8.03019 5.57976 7.82387 5.83263 7.82387C6.08549 7.82387 6.29067 8.03019 6.29067 8.28443C6.28845 10.0284 4.88264 11.442 3.14834 11.4443Z"/>
<path fill-rule="evenodd" clip-rule="evenodd" d="M10.8618 11.4443C9.12616 11.4471 7.71763 10.0344 7.71485 8.28911C7.71212 6.54393 9.117 5.12713 10.8526 5.12459C12.5882 5.12206 13.9968 6.53468 13.9996 8.27986C13.9996 8.28311 13.9996 8.28586 13.9996 8.28911C13.9945 10.0298 12.5928 11.4393 10.8618 11.4443ZM10.8618 6.05047C9.63234 6.04793 8.63375 7.04809 8.63097 8.28443C8.62825 9.52077 9.62314 10.5249 10.8526 10.5277C12.0821 10.5304 13.0807 9.53002 13.0835 8.29368C13.0835 8.29231 13.0835 8.29043 13.0835 8.28911C13.0807 7.05556 12.0885 6.05554 10.8618 6.05047Z"/>
<path fill-rule="evenodd" clip-rule="evenodd" d="M8.18205 8.7499C7.9608 8.75452 7.7684 8.59931 7.724 8.38146C7.64661 8.03783 7.34147 7.79415 6.99107 7.79644C6.6489 7.7909 6.3484 8.02397 6.26732 8.35836C6.20641 8.60479 5.95857 8.75544 5.71302 8.69463C5.46799 8.63337 5.31817 8.38419 5.37864 8.13726C5.55639 7.38418 6.23023 6.8558 7.00019 6.86601C7.78309 6.86545 8.46012 7.41413 8.62641 8.18336C8.68 8.43207 8.5229 8.67718 8.27549 8.73103C8.27504 8.73103 8.27411 8.73148 8.27371 8.73148L8.18205 8.7499Z"/>
</svg>
