<svg width="100%" height="100%" viewBox="0 0 44 44" fill="none" xmlns="http://www.w3.org/2000/svg">
<path d="M19.6071 28.3214H23.9643V32.6786H19.6071V28.3214ZM19.6071 10.8929H23.9643V23.9643H19.6071V10.8929ZM21.7639 0C9.73821 0 0 9.76 0 21.7857C0 33.8114 9.73821 43.5714 21.7639 43.5714C33.8114 43.5714 43.5714 33.8114 43.5714 21.7857C43.5714 9.76 33.8114 0 21.7639 0ZM21.7857 39.2143C12.1564 39.2143 4.35714 31.415 4.35714 21.7857C4.35714 12.1564 12.1564 4.35714 21.7857 4.35714C31.415 4.35714 39.2143 12.1564 39.2143 21.7857C39.2143 31.415 31.415 39.2143 21.7857 39.2143Z"/>
</svg>
