<svg width="100%" height="100%" viewBox="0 0 42 42" fill="none" xmlns="http://www.w3.org/2000/svg">
<path fill-rule="evenodd" clip-rule="evenodd" d="M21 42C9.40179 42 0 32.5981 0 21C0 9.40189 9.40179 0 21 0C32.598 0 42 9.40189 42 21C42 32.5981 32.598 42 21 42ZM21 1.75C10.3687 1.75 1.75001 10.3687 1.75001 21C1.75001 31.6312 10.3687 40.25 21 40.25C31.6312 40.25 40.25 31.6312 40.25 21C40.25 10.3687 31.6312 1.75 21 1.75Z" />
<path fill-rule="evenodd" clip-rule="evenodd" d="M20.6405 27.9548C20.1648 27.9548 19.7787 27.5684 19.7787 27.0924V7.16242C19.7787 6.68642 20.1648 6.30004 20.6405 6.30004C21.1162 6.30004 21.5023 6.68642 21.5023 7.16242V27.0924C21.5023 27.5684 21.1162 27.9548 20.6405 27.9548Z" />
<path fill-rule="evenodd" clip-rule="evenodd" d="M20.4768 35.6991C20.1149 35.6974 19.7529 35.6578 19.3996 35.5784C18.1052 35.3266 17.0874 34.3245 16.8143 33.0344C16.7125 31.99 17.1598 30.9681 17.9949 30.3351C18.8609 29.7581 19.8494 29.3916 20.8818 29.2657H21.0456H21.0886C21.9504 29.0932 22.2779 28.9897 22.4933 28.6189C22.7329 28.2118 23.256 28.073 23.6653 28.3085C24.0755 28.5456 24.2177 29.0691 23.9842 29.4813C23.8213 29.765 23.6076 30.016 23.3551 30.2229C23.4723 30.3179 23.5817 30.4214 23.6826 30.5334C24.397 31.2552 24.6848 32.2979 24.4409 33.2844C24.1807 34.0675 23.6273 34.7194 22.8983 35.1041C22.1564 35.5103 21.3222 35.7155 20.4768 35.6991ZM21.1748 30.9646C20.4208 31.0465 19.6943 31.294 19.0462 31.689C18.6877 31.9434 18.48 32.3618 18.4947 32.8015C18.5722 33.3362 19.2013 33.7587 19.7873 33.8968C20.5466 34.0667 21.3411 33.9502 22.0193 33.569C22.3546 33.4035 22.6182 33.1214 22.7605 32.7756C22.8329 32.3729 22.6967 31.9606 22.3986 31.6804C22.0607 31.338 21.6385 31.0914 21.1748 30.9646Z" />
</svg>
