<svg width="100%" height="100%" viewBox="0 0 40 40" fill="none" xmlns="http://www.w3.org/2000/svg">
<path fill-rule="evenodd" clip-rule="evenodd" d="M30.4812 17.4629H10.1281C9.67364 17.4629 9.30475 17.0937 9.30475 16.6389V11.4645C9.29976 11.0534 9.59864 10.7024 10.0046 10.6406L10.3833 10.5829H17.1183C17.2228 10.5829 17.3258 10.6019 17.4229 10.6406L17.5712 10.6983C17.735 10.7634 17.8733 10.8788 17.9663 11.0279V11.0691L20.6999 13.7633C20.9979 14.1069 20.9616 14.6268 20.6184 14.926C20.3121 15.1921 19.8575 15.1953 19.5471 14.9333L16.7972 12.2309H10.9267V15.8149H29.6332V14.3813H22.1489C21.6944 14.3813 21.3256 14.0121 21.3256 13.5573C21.3256 13.1025 21.6944 12.7334 22.1489 12.7334H30.1436C30.2144 12.7252 30.2869 12.7252 30.3577 12.7334L30.5882 12.7911C30.8385 12.8578 31.0427 13.0375 31.1399 13.2772L31.214 13.4585C31.256 13.5574 31.2781 13.6637 31.2798 13.7716V16.6141C31.2939 17.069 30.9365 17.4488 30.4821 17.4629H30.4812Z"/>
<path fill-rule="evenodd" clip-rule="evenodd" d="M30.1684 29.4332H10.5151C10.4633 29.4415 10.4105 29.4415 10.3588 29.4332L9.97172 29.3591C9.57895 29.2833 9.29739 28.9356 9.30483 28.5352V16.6374C9.30483 16.1825 9.67372 15.8135 10.1281 15.8135C10.5826 15.8135 10.9515 16.1825 10.9515 16.6374V27.7854H29.658V16.6374C29.658 16.1825 30.0268 15.8135 30.4813 15.8135C30.9358 15.8135 31.3047 16.1825 31.3047 16.6374V28.3127C31.3055 28.4058 31.2889 28.498 31.2553 28.5846L31.1812 28.807C31.0972 29.0534 30.902 29.2462 30.6542 29.3261L30.4236 29.4002C30.3405 29.4242 30.2548 29.4348 30.1684 29.4332Z" />
<path fill-rule="evenodd" clip-rule="evenodd" d="M19.9999 40C8.95407 40 0 31.0458 0 20C0 8.95418 8.95407 0 19.9999 0C31.0457 0 40 8.95418 40 20C40 31.0458 31.0457 40 19.9999 40ZM19.9999 1.66675C9.87494 1.66675 1.66668 9.87502 1.66668 20C1.66668 30.1251 9.87494 38.3334 19.9999 38.3334C30.1249 38.3334 38.3333 30.1251 38.3333 20C38.3333 9.87502 30.1249 1.66675 19.9999 1.66675Z" />
</svg>
