<svg width="100%" height="100%" viewBox="0 0 7 10" fill="none" xmlns="http://www.w3.org/2000/svg">
<path fill-rule="evenodd" clip-rule="evenodd" d="M1.48342 9.59179C1.39439 9.59142 1.30921 9.55537 1.24685 9.49161C1.11769 9.36142 1.11769 9.15113 1.24685 9.02094L5.31199 5.0153L1.81332 1.55036L1.58341 1.33338C1.35614 1.12584 1.14349 0.902759 0.94697 0.665786C0.832764 0.521265 0.857091 0.311332 1.00139 0.196832C1.00213 0.19628 1.0029 0.195657 1.00363 0.195106C1.14823 0.082222 1.35665 0.107617 1.47012 0.251881C1.64507 0.464859 1.83552 0.664575 2.0399 0.849369L2.27981 1.07972L6.02504 4.78163C6.08935 4.84487 6.12565 4.93159 6.12499 5.02195C6.1247 5.11117 6.08869 5.19656 6.02504 5.25895L1.71999 9.49497C1.65715 9.5574 1.57201 9.59245 1.48342 9.59179Z"/>
</svg>
