<svg width="100%" height="100%" viewBox="0 0 19 28" xmlns="http://www.w3.org/2000/svg">
<path fill-rule="evenodd" clip-rule="evenodd" d="M12.6464 27.9998H6.01129C5.58631 28.0094 5.21448 27.7158 5.12541 27.3009L4.53182 24.5408C4.47521 24.2789 4.54044 24.0054 4.70904 23.7977C4.87596 23.5923 5.12617 23.472 5.39116 23.4702H12.4781L12.6464 22.5059C11.3973 22.5059 9.91794 22.3467 9.1029 20.8162C7.89811 22.4971 6.56934 22.5856 4.85965 22.4883H4.81535C4.69204 22.4795 4.57174 22.4458 4.46098 22.391C4.13291 22.2237 3.94246 21.8717 3.98262 21.5063C3.98262 21.5063 3.98262 21.4267 3.98262 21.3912C3.97839 21.3408 3.97839 21.2913 3.98262 21.2409V18.5868C3.44549 17.1564 2.75337 15.7886 1.91856 14.5086C0.847851 12.8091 0.254265 10.8539 0.199951 8.84665C0.347644 3.94031 4.35644 0.0309677 9.27121 0C14.2764 0 18.4843 4.06946 18.4843 8.84665C18.4288 10.8858 17.8162 12.871 16.7125 14.5881C15.9219 15.809 15.2457 17.1006 14.6928 18.4454C14.534 18.907 14.0302 19.1539 13.5674 18.9947C13.1247 18.8434 12.8765 18.3737 13.0007 17.9233C13.6068 16.4008 14.3636 14.9429 15.2597 13.5708C16.1822 12.1455 16.7025 10.4983 16.7657 8.80248C16.7657 5.01603 13.3639 1.79588 9.32436 1.72506C5.38016 1.73746 2.15356 4.86559 2.02487 8.80248C2.08087 10.4656 2.57261 12.0855 3.45111 13.5C3.50426 13.5797 5.80752 17.3395 5.80752 18.5427V20.7454C6.70779 20.8357 7.56344 20.335 7.92474 19.5069C8.13519 19.1628 8.29625 18.7903 8.40309 18.4011L8.18164 18.2773C6.73525 17.2511 5.75184 15.6967 5.44431 13.9512C5.3114 12.3411 6.17959 11.9341 6.56049 11.828C7.44637 11.5891 8.54485 12.2704 9.21805 13.0577C9.45658 12.3154 9.98756 11.7023 10.6886 11.3592C11.2755 11.1716 11.9182 11.3406 12.3364 11.7926C13.0687 12.6029 13.3299 13.7335 13.0273 14.7828C12.735 16.2691 11.7605 18.0472 10.4495 18.5604H10.3609C10.4228 18.9053 10.5026 19.2415 10.5912 19.56C10.9278 20.6393 11.477 20.7277 13.1691 20.6924C13.6297 20.6924 14.1523 20.6481 14.4536 21.002C14.6232 21.2028 14.6946 21.4691 14.6485 21.7275L14.1435 24.4787C14.0656 24.9044 13.6908 25.2113 13.2576 25.2042H6.50735L6.72879 26.195H12.6464C13.1356 26.195 13.5323 26.5914 13.5323 27.0796C13.5323 27.5681 13.1356 27.9644 12.6464 27.9644V27.9998ZM10.2634 15.9152C10.2634 16.1009 10.2634 16.2956 10.3165 16.4814C10.7857 15.8975 11.1049 15.2083 11.2467 14.4731C11.3785 14.0423 11.3405 13.577 11.1404 13.1727C10.7252 13.8902 10.4488 14.6793 10.3255 15.4993C10.3077 15.6144 10.2634 15.7471 10.2634 15.9152ZM7.18062 13.677C7.17631 13.7274 7.17631 13.777 7.18062 13.8273C7.39469 14.7297 7.84758 15.5578 8.4917 16.2249V15.924C8.41601 15.4463 8.27288 14.9818 8.0665 14.544C7.85989 14.1725 7.5569 13.8645 7.18946 13.6504L7.18062 13.677Z" fill="#FFCD00"/>
</svg>
