<svg width="100%" height="100%" viewBox="0 0 56 56" fill="none" xmlns="http://www.w3.org/2000/svg">
<g clip-path="url(#clip0_7545:123307)">
<path d="M0 28C0 12.536 12.536 0 28 0V0C43.464 0 56 12.536 56 28V28C56 43.464 43.464 56 28 56V56C12.536 56 0 43.464 0 28V28Z" fill="white"/>
<g filter="url(#filter0_dd_7545:123307)">
<path fill-rule="evenodd" clip-rule="evenodd" d="M27.9999 56C12.5357 56 0 43.4642 0 28C0 12.5359 12.5357 2.20435e-06 27.9999 2.20435e-06C43.464 2.20435e-06 56 12.5359 56 28C56 43.4642 43.464 56 27.9999 56ZM27.9999 2.33334C13.8249 2.33334 2.33335 13.8249 2.33335 28C2.33335 42.175 13.8249 53.6667 27.9999 53.6667C42.1749 53.6667 53.6667 42.175 53.6667 28C53.6667 13.8249 42.1749 2.33334 27.9999 2.33334Z" fill="#ECECEC"/>
</g>
<path fill-rule="evenodd" clip-rule="evenodd" d="M30.6464 41.9998H24.0113C23.5863 42.0094 23.2145 41.7158 23.1254 41.3009L22.5318 38.5408C22.4752 38.2789 22.5404 38.0054 22.709 37.7977C22.876 37.5923 23.1262 37.472 23.3912 37.4702H30.4781L30.6464 36.5059C29.3973 36.5059 27.9179 36.3467 27.1029 34.8162C25.8981 36.4971 24.5693 36.5856 22.8596 36.4883H22.8153C22.692 36.4795 22.5717 36.4458 22.461 36.391C22.1329 36.2237 21.9425 35.8717 21.9826 35.5063C21.9826 35.5063 21.9826 35.4267 21.9826 35.3912C21.9784 35.3408 21.9784 35.2913 21.9826 35.2409V32.5868C21.4455 31.1564 20.7534 29.7886 19.9186 28.5086C18.8479 26.8091 18.2543 24.8539 18.2 22.8466C18.3476 17.9403 22.3564 14.031 27.2712 14C32.2764 14 36.4843 18.0695 36.4843 22.8466C36.4288 24.8858 35.8162 26.871 34.7125 28.5881C33.9219 29.809 33.2457 31.1006 32.6928 32.4454C32.534 32.907 32.0302 33.1539 31.5674 32.9947C31.1247 32.8434 30.8765 32.3737 31.0007 31.9233C31.6068 30.4008 32.3636 28.9429 33.2597 27.5708C34.1822 26.1455 34.7025 24.4983 34.7657 22.8025C34.7657 19.016 31.3639 15.7959 27.3244 15.7251C23.3802 15.7375 20.1536 18.8656 20.0249 22.8025C20.0809 24.4656 20.5726 26.0855 21.4511 27.5C21.5043 27.5797 23.8075 31.3395 23.8075 32.5427V34.7454C24.7078 34.8357 25.5634 34.335 25.9247 33.5069C26.1352 33.1628 26.2963 32.7903 26.4031 32.4011L26.1816 32.2773C24.7352 31.2511 23.7518 29.6967 23.4443 27.9512C23.3114 26.3411 24.1796 25.9341 24.5605 25.828C25.4464 25.5891 26.5449 26.2704 27.2181 27.0577C27.4566 26.3154 27.9876 25.7023 28.6886 25.3592C29.2755 25.1716 29.9182 25.3406 30.3364 25.7926C31.0687 26.6029 31.3299 27.7335 31.0273 28.7828C30.735 30.2691 29.7605 32.0472 28.4495 32.5604H28.3609C28.4228 32.9053 28.5026 33.2415 28.5912 33.56C28.9278 34.6393 29.477 34.7277 31.1691 34.6924C31.6297 34.6924 32.1523 34.6481 32.4536 35.002C32.6232 35.2028 32.6946 35.4691 32.6485 35.7275L32.1435 38.4787C32.0656 38.9044 31.6908 39.2113 31.2576 39.2042H24.5073L24.7288 40.195H30.6464C31.1356 40.195 31.5323 40.5914 31.5323 41.0796C31.5323 41.5681 31.1356 41.9644 30.6464 41.9644V41.9998ZM28.2634 29.9152C28.2634 30.1009 28.2634 30.2956 28.3165 30.4814C28.7857 29.8975 29.1049 29.2083 29.2467 28.4731C29.3785 28.0423 29.3405 27.5769 29.1404 27.1727C28.7252 27.8902 28.4488 28.6793 28.3255 29.4993C28.3077 29.6144 28.2634 29.7471 28.2634 29.9152ZM25.1806 27.677C25.1763 27.7274 25.1763 27.777 25.1806 27.8273C25.3947 28.7297 25.8476 29.5578 26.4917 30.2249V29.924C26.416 29.4463 26.2729 28.9818 26.0665 28.544C25.8599 28.1725 25.5569 27.8645 25.1895 27.6504L25.1806 27.677Z" fill="#FFCD00"/>
</g>
<defs>
<filter id="filter0_dd_7545:123307" x="-7" y="-8" width="70" height="70" filterUnits="userSpaceOnUse" color-interpolation-filters="sRGB">
<feFlood flood-opacity="0" result="BackgroundImageFix"/>
<feColorMatrix in="SourceAlpha" type="matrix" values="0 0 0 0 0 0 0 0 0 0 0 0 0 0 0 0 0 0 127 0" result="hardAlpha"/>
<feOffset dy="1"/>
<feGaussianBlur stdDeviation="2.5"/>
<feComposite in2="hardAlpha" operator="out"/>
<feColorMatrix type="matrix" values="0 0 0 0 0.737255 0 0 0 0 0.729412 0 0 0 0 0.729412 0 0 0 0.25 0"/>
<feBlend mode="normal" in2="BackgroundImageFix" result="effect1_dropShadow_7545:123307"/>
<feColorMatrix in="SourceAlpha" type="matrix" values="0 0 0 0 0 0 0 0 0 0 0 0 0 0 0 0 0 0 127 0" result="hardAlpha"/>
<feOffset dy="-1"/>
<feGaussianBlur stdDeviation="3.5"/>
<feComposite in2="hardAlpha" operator="out"/>
<feColorMatrix type="matrix" values="0 0 0 0 0.7375 0 0 0 0 0.731354 0 0 0 0 0.731354 0 0 0 0.25 0"/>
<feBlend mode="normal" in2="effect1_dropShadow_7545:123307" result="effect2_dropShadow_7545:123307"/>
<feBlend mode="normal" in="SourceGraphic" in2="effect2_dropShadow_7545:123307" result="shape"/>
</filter>
<clipPath id="clip0_7545:123307">
<path d="M0 28C0 12.536 12.536 0 28 0V0C43.464 0 56 12.536 56 28V28C56 43.464 43.464 56 28 56V56C12.536 56 0 43.464 0 28V28Z" fill="white"/>
</clipPath>
</defs>
</svg>
