<svg width="100%" height="100%" viewBox="0 0 26 26" fill="none" xmlns="http://www.w3.org/2000/svg">
<path d="M13 0C5.84999 0 0 5.86044 0 13.0783C0 19.6044 4.75799 25.0211 10.972 26V16.8634H7.66999V13.0783H10.972V10.1938C10.972 6.91766 12.909 5.11646 15.886 5.11646C17.303 5.11646 18.785 5.36445 18.785 5.36445V8.58834H17.147C15.535 8.58834 15.028 9.59336 15.028 10.6245V13.0783H18.642L18.057 16.8634H15.028V26C18.0914 25.5142 20.8808 23.9449 22.8929 21.5754C24.9049 19.2058 26.0069 16.1921 26 13.0783C26 5.86044 20.15 0 13 0Z" fill="#395185"/>
</svg>
