<svg width="100%" height="100%" viewBox="0 0 27 19" fill="none" xmlns="http://www.w3.org/2000/svg">
<path d="M22.8731 8.5H4.3006C3.82439 8.5 3.2688 8.89998 3.2688 9.49996C3.2688 10.0999 3.82439 10.4999 4.3006 10.4999H22.8731C23.3493 10.4999 23.9049 10.0999 23.9049 9.49996C23.9049 8.89998 23.3493 8.5 22.8731 8.5Z" />
<path d="M1.2049 2.49992H25.9683C26.5873 2.49992 27.0001 2.09993 27.0001 1.49996C27.0001 0.899983 26.5873 0.5 25.9683 0.5H1.2049C0.585818 0.5 0.173096 0.899983 0.173096 1.49996C0.173096 2.09993 0.585818 2.49992 1.2049 2.49992Z"/>
<path d="M18.0233 16.5H9.15425C8.91615 16.5 8.42749 16.9 8.42749 17.5C8.42749 18.0999 8.91165 18.4999 9.14975 18.4999H18.0233C18.2614 18.4999 18.7456 18.0999 18.7456 17.5C18.7456 16.9 18.2614 16.5 18.0233 16.5Z"/>
</svg>
