<svg width="100%" height="100%" viewBox="0 0 80 80" fill="none" xmlns="http://www.w3.org/2000/svg">
<path fill-rule="evenodd" clip-rule="evenodd" d="M48.9158 38.8855H45.1968H44.7071C45.8845 37.1503 46.2798 35.0013 45.7955 32.9615C45.2858 30.3759 42.9909 28.5277 40.3534 28.5773C38.2127 28.5773 34.6026 29.4471 34.4576 34.8094C34.3741 37.299 35.809 39.5908 38.0857 40.6064C37.8681 41.0841 37.8681 41.6327 38.0857 42.1102C38.4486 43.0386 39.4934 43.5001 40.4258 43.1428C41.0807 42.8862 41.6921 42.5319 42.24 42.092C43.2086 42.3366 44.199 42.4822 45.1968 42.5268H48.9338V40.1897C48.8758 39.7574 48.8686 39.3194 48.9158 38.8855ZM40.9884 37.8711H40.8249C38.4848 36.9833 38.0493 36.0595 38.0857 34.8818C38.0857 32.6354 38.9383 32.2007 40.4076 32.1825C41.3238 32.2395 42.0783 32.9248 42.2218 33.831C42.4594 35.3179 42.0042 36.8316 40.9884 37.9435V37.8711Z" fill="#1E1E1E"/>
<path fill-rule="evenodd" clip-rule="evenodd" d="M66.204 16.9996H13.814C12.8128 16.9996 12 17.8106 12 18.8112V47.308C12 48.3086 12.8128 49.1196 13.814 49.1196H25.6779C26.3528 47.4183 27.7369 46.0956 29.4693 45.4962H15.6097V20.623H64.3719V45.3694H60.7439V48.9928H66.1858C67.1872 48.9928 68 48.1818 68 47.1812V18.8112C68 17.8178 67.1982 17.0094 66.204 16.9996Z" fill="#1E1E1E"/>
<path fill-rule="evenodd" clip-rule="evenodd" d="M38.793 45.4243C37.9442 41.6733 34.6081 39.01 30.7569 39.0112H26.4756C25.857 37.1288 24.3621 35.6633 22.4665 35.08V31.1669C24.4057 30.5628 25.9259 29.0459 26.53 27.109H53.4869C54.091 29.0459 55.6111 30.5628 57.5505 31.1669V34.9351C58.8366 35.6174 59.8306 36.7443 60.3439 38.1054C60.852 37.7799 61.1659 37.223 61.1785 36.6198V29.627C61.1785 28.6266 60.3659 27.8154 59.3645 27.8154C57.9714 27.8154 56.843 26.6882 56.843 25.2973C56.843 24.2966 56.0302 23.4857 55.0288 23.4857H24.9881C23.9866 23.4857 23.1739 24.2966 23.1739 25.2973C23.1739 26.6882 22.0456 27.8154 20.6525 27.8154C19.6511 27.8154 18.8384 28.6266 18.8384 29.627V36.6198C18.8384 37.6205 19.6511 38.4316 20.6525 38.4316C22.0148 38.431 23.1269 39.5177 23.1559 40.8772C23.1559 41.8778 23.9687 42.6888 24.9699 42.6888H30.7569C32.6271 42.69 34.3124 43.821 35.0198 45.5512C36.6851 46.1955 38.0022 47.5108 38.6479 49.1743H48.7341V45.5512L38.793 45.4243Z" fill="#1E1E1E"/>
<path fill-rule="evenodd" clip-rule="evenodd" d="M54.6669 61.9102C50.6214 61.9102 47.2293 59.9898 46.195 57.1273C45.8578 56.1851 46.3493 55.1484 47.2927 54.8119C47.2963 54.8107 47.2981 54.8097 47.3017 54.8087C48.2433 54.4824 49.2718 54.9759 49.6056 55.9137C50.7251 57.5761 52.6715 58.4881 54.6669 58.287C57.6783 58.287 59.8008 56.7651 59.8008 55.4064V54.8269C58.2116 55.6352 56.4502 56.0457 54.6669 56.0223C50.6214 56.0223 47.2293 54.1022 46.195 51.2397C46.1208 51.0365 46.0845 50.8219 46.0863 50.6058L46.195 44.6997C46.1824 43.8079 46.821 43.0396 47.7008 42.8882C48.5696 42.7404 49.4187 43.2368 49.7144 44.0658C50.801 45.758 52.7567 46.6856 54.7577 46.4571C57.787 46.4571 59.8914 44.9354 59.8914 43.5767V42.7069C59.7335 43.2579 59.3218 43.7014 58.7849 43.9028C57.4951 44.3717 56.1308 44.6109 54.7577 44.6091C49.8415 44.6091 45.9956 41.7467 45.9956 38.1056C45.9956 34.4642 49.8415 31.5836 54.7577 31.5836C59.6738 31.5836 63.3381 34.3374 63.5195 37.8517V43.5767C63.5087 45.128 62.852 46.6049 61.7055 47.6526C62.7067 47.6526 63.5195 48.4639 63.5195 49.4643V55.3522C63.4289 59.048 59.5649 61.9102 54.6669 61.9102ZM49.7326 50.2613C50.9026 51.7698 52.7641 52.576 54.6669 52.3992C57.6783 52.3992 59.8008 50.8774 59.8008 49.5187C59.7628 49.3271 59.7628 49.1305 59.8008 48.9388C58.208 49.7386 56.4482 50.1487 54.6669 50.1347C52.9307 50.1537 51.2147 49.7626 49.66 48.9932L49.7326 50.2613ZM58.1498 40.4424C58.9027 40.4476 59.5739 40.9161 59.837 41.6201V41.7467V37.997C59.837 36.7469 57.6419 35.2613 54.7031 35.2613C51.7645 35.2613 49.5692 36.7831 49.5692 38.16C49.5692 39.5366 51.6736 41.0404 54.7031 41.0404C55.6375 41.048 56.5643 40.8885 57.4422 40.5693C57.6655 40.4761 57.9067 40.4328 58.1498 40.4424Z" fill="#1E1E1E"/>
<path fill-rule="evenodd" clip-rule="evenodd" d="M32.1 67.6533C28.0727 67.6533 24.6802 65.7331 23.6464 62.8707C23.572 62.6674 23.5356 62.4528 23.5374 62.2368L23.6282 56.3307C23.6174 55.4333 24.2649 54.6626 25.1519 54.5191C26.0209 54.3713 26.8699 54.8678 27.1658 55.6968C28.2506 57.3924 30.2078 58.3209 32.2088 58.0881C35.2201 58.0881 37.3425 56.5662 37.3425 55.1895V54.3379C37.1794 54.882 36.7694 55.3181 36.236 55.5156C34.948 55.9975 33.5837 56.2429 32.2088 56.2401C27.2926 56.2401 23.4468 53.3777 23.4468 49.7183C23.4468 46.0589 27.2926 43.2146 32.2088 43.2146C37.1249 43.2146 40.7892 45.9683 40.9709 49.4827V55.1895C40.9563 56.7454 40.2995 58.2263 39.1567 59.2836C40.1579 59.2836 40.9709 60.0949 40.9709 61.0954C40.8618 64.7909 37.016 67.6533 32.1 67.6533ZM27.1658 61.8923C28.341 63.3952 30.1988 64.2004 32.1 64.0301C35.1294 64.0301 37.2337 62.5084 37.2337 61.1497C37.2337 60.9455 37.2699 60.7428 37.3425 60.5518C34.1444 62.1203 30.4 62.1203 27.202 60.5518L27.1658 61.8923ZM35.6011 52.0734C36.3485 52.0756 37.0196 52.5359 37.2883 53.2329V53.3777V49.6279C37.2883 48.3778 35.093 46.8923 32.1544 46.8923C29.2153 46.8923 27.0205 48.414 27.0205 49.7727C27.0205 51.1314 29.1247 52.6713 32.1544 52.6713C33.0904 52.6805 34.0192 52.5145 34.8936 52.182C35.122 52.1048 35.3617 52.068 35.6011 52.0734Z" fill="#1E1E1E"/>
</svg>
