<svg width="100%" height="100%" viewBox="0 0 20 20" fill="none" xmlns="http://www.w3.org/2000/svg">
<path d="M0 10C0 4.47715 4.47715 0 10 0C15.5228 0 20 4.47715 20 10C20 15.5228 15.5228 20 10 20C4.47715 20 0 15.5228 0 10Z" fill="white"/>
<path fill-rule="evenodd" clip-rule="evenodd" d="M10 20C4.47708 20 0 15.5228 0 10C0 4.4772 4.47708 0 10 0C15.5229 0 20 4.4772 20 10C20 15.5228 15.5229 20 10 20ZM10 0.833368C4.93752 0.833368 0.833339 4.93738 0.833339 10C0.833339 15.0626 4.93752 19.1666 10 19.1666C15.0625 19.1666 19.1666 15.0626 19.1666 10C19.1666 4.93738 15.0625 0.833368 10 0.833368Z" fill="#1E1E1E"/>
<path fill-rule="evenodd" clip-rule="evenodd" d="M11.4922 16.2633C11.3307 16.2573 11.1888 16.1549 11.1324 16.0033L9.26543 11.0624C9.18705 10.856 9.29061 10.6247 9.49732 10.5463C9.58844 10.5115 9.68961 10.5115 9.78113 10.5463L14.7384 12.3986C14.8899 12.4551 14.9923 12.5971 14.9982 12.7587C15.0131 12.9287 14.9183 13.0896 14.7624 13.1588L13.6071 13.6909C13.406 13.7825 13.1689 13.6941 13.0773 13.4929C12.9858 13.2916 13.0741 13.0544 13.2752 12.9628L13.555 12.8307L10.3209 11.6305L11.5202 14.8671L12.0959 13.6149C12.1874 13.4136 12.4245 13.3252 12.6256 13.4168C12.8267 13.5084 12.915 13.7457 12.8235 13.9469L11.848 16.0753C11.772 16.1973 11.6361 16.2693 11.4922 16.2633Z" fill="#1E1E1E"/>
<path fill-rule="evenodd" clip-rule="evenodd" d="M9.62144 15.2197H6.51515C5.67763 15.2173 5 14.5376 5 13.6995V5.27005C5 4.43188 5.67763 3.7518 6.51515 3.74979H12.5398C13.3773 3.75218 14.0549 4.43188 14.0549 5.27005V11.063C14.0549 11.2839 13.8759 11.4631 13.6552 11.4631C13.4345 11.4631 13.2554 11.2839 13.2554 11.063V5.27005C13.2554 4.87398 12.9355 4.55192 12.5398 4.54994H6.51515C6.11936 4.55192 5.79957 4.87398 5.79957 5.27005V13.6995C5.79957 14.0955 6.11936 14.4172 6.51515 14.4196H9.62144C9.84208 14.4196 10.0212 14.5988 10.0212 14.8197C10.0212 15.0405 9.84208 15.2197 9.62144 15.2197Z" fill="#1E1E1E"/>
</svg>
