<svg width="100%" height="100%" viewBox="0 0 61 60" fill="none" xmlns="http://www.w3.org/2000/svg">
<path d="M54.6111 30.2044C54.6111 43.3039 44.0381 53.9195 31 53.9195C17.962 53.9195 7.38892 43.3039 7.38892 30.2044C7.38892 17.1048 17.962 6.48926 31 6.48926C44.0381 6.48926 54.6111 17.1048 54.6111 30.2044Z" fill="white" />
<path d="M11.765 34.5972L25.3382 11.3096C27.0621 12.3267 35.7552 17.1484 37.1577 18.0653L23.586 41.353C22.1031 43.3181 9.88602 37.5795 11.765 34.5972Z" fill="#FBBC04"/>
<path d="M50.7905 34.5978L37.2188 11.3101C35.3215 8.14699 31.2351 6.99701 27.8788 8.86607C24.5225 10.7351 23.5005 14.7615 25.3979 18.0673L38.9696 41.3549C40.8669 44.5181 44.9534 45.668 48.3096 43.799C51.5207 41.9299 52.6879 37.7609 50.7905 34.5992V34.5978Z" fill="#4285F4"/>
<path d="M17.6381 44.6993C21.4006 44.6993 24.4507 41.7183 24.4507 38.0411C24.4507 34.3638 21.4006 31.3828 17.6381 31.3828C13.8756 31.3828 10.8254 34.3638 10.8254 38.0411C10.8254 41.7183 13.8756 44.6993 17.6381 44.6993Z" fill="#34A853"/>
</svg>
