<svg width="100%" height="100%" viewBox="0 0 40 40" fill="none" xmlns="http://www.w3.org/2000/svg">
<circle cx="20" cy="20" r="19" fill="#FFD100" stroke="white" stroke-width="2"/>
<path fill-rule="evenodd" clip-rule="evenodd" d="M23.2529 33.9998H16.721C16.3026 34.0094 15.9365 33.7158 15.8489 33.3009L15.2645 30.5408C15.2088 30.2789 15.273 30.0054 15.439 29.7977C15.6033 29.5923 15.8496 29.472 16.1105 29.4702H23.0872L23.2529 28.5059C22.0232 28.5059 20.5669 28.3467 19.7645 26.8162C18.5785 28.4971 17.2703 28.5856 15.5872 28.4883H15.5436C15.4222 28.4795 15.3038 28.4458 15.1948 28.391C14.8718 28.2237 14.6843 27.8717 14.7238 27.5063C14.7238 27.5063 14.7238 27.4267 14.7238 27.3912C14.7197 27.3408 14.7197 27.2913 14.7238 27.2409V24.5868C14.1951 23.1564 13.5137 21.7886 12.6919 20.5086C11.6378 18.8091 11.0535 16.8539 11 14.8466C11.1454 9.94031 15.0919 6.03097 19.9302 6C24.8576 6 29 10.0695 29 14.8466C28.9453 16.8858 28.3423 18.871 27.2558 20.5881C26.4774 21.809 25.8118 23.1006 25.2675 24.4454C25.1112 24.907 24.6152 25.1539 24.1596 24.9947C23.7238 24.8434 23.4794 24.3737 23.6017 23.9233C24.1983 22.4008 24.9434 20.9429 25.8255 19.5708C26.7337 18.1455 27.2459 16.4983 27.3081 14.8025C27.3081 11.016 23.9593 7.79588 19.9825 7.72506C16.0997 7.73746 12.9232 10.8656 12.7965 14.8025C12.8517 16.4656 13.3358 18.0855 14.2006 19.5C14.2529 19.5797 16.5204 23.3395 16.5204 24.5427V26.7454C17.4066 26.8357 18.249 26.335 18.6047 25.5069C18.8118 25.1628 18.9704 24.7903 19.0756 24.4011L18.8576 24.2773C17.4337 23.2511 16.4656 21.6967 16.1628 19.9512C16.032 18.3411 16.8866 17.9341 17.2616 17.828C18.1337 17.5891 19.2151 18.2704 19.8779 19.0577C20.1127 18.3154 20.6354 17.7023 21.3255 17.3592C21.9033 17.1716 22.536 17.3406 22.9477 17.7926C23.6686 18.6029 23.9258 19.7335 23.6279 20.7828C23.3401 22.2691 22.3808 24.0472 21.0901 24.5604H21.0029C21.0639 24.9053 21.1424 25.2415 21.2297 25.56C21.561 26.6393 22.1017 26.7277 23.7675 26.6924C24.2209 26.6924 24.7354 26.6481 25.032 27.002C25.1989 27.2028 25.2693 27.4691 25.2238 27.7275L24.7267 30.4787C24.65 30.9044 24.2811 31.2113 23.8546 31.2042H17.2093L17.4273 32.195H23.2529C23.7345 32.195 24.125 32.5914 24.125 33.0796C24.125 33.5681 23.7345 33.9644 23.2529 33.9644V33.9998ZM20.9069 21.9152C20.9069 22.1009 20.9069 22.2956 20.9593 22.4814C21.4211 21.8975 21.7353 21.2083 21.875 20.4731C22.0047 20.0423 21.9673 19.577 21.7703 19.1727C21.3616 19.8902 21.0894 20.6793 20.9681 21.4993C20.9506 21.6144 20.9069 21.7471 20.9069 21.9152ZM17.8721 19.677C17.8679 19.7274 17.8679 19.777 17.8721 19.8273C18.0829 20.7297 18.5287 21.5578 19.1628 22.2249V21.924C19.0883 21.4463 18.9474 20.9818 18.7442 20.544C18.5408 20.1725 18.2425 19.8645 17.8808 19.6504L17.8721 19.677Z" fill="#1E1E1E"/>
</svg>
