<svg width="100%" height="100%" viewBox="0 0 24 24" fill="none" xmlns="http://www.w3.org/2000/svg">
<circle cx="12" cy="12" r="11.5" fill="#FFD100" stroke="#FFD100"/>
<path fill-rule="evenodd" clip-rule="evenodd" d="M13.9517 20.3998H10.0326C9.78153 20.4056 9.5619 20.2294 9.50929 19.9804L9.15868 18.3244C9.12524 18.1672 9.16377 18.0032 9.26336 17.8785C9.36195 17.7553 9.50974 17.6831 9.66626 17.682H13.8523L13.9517 17.1035C13.2139 17.1035 12.3401 17.0079 11.8587 16.0896C11.147 17.0982 10.3622 17.1512 9.35231 17.0929H9.32615C9.25332 17.0876 9.18226 17.0674 9.11683 17.0345C8.92306 16.9341 8.81056 16.7229 8.83428 16.5037C8.83428 16.5037 8.83428 16.4559 8.83428 16.4346C8.83179 16.4044 8.83179 16.3747 8.83428 16.3444V14.752C8.51702 13.8937 8.1082 13.073 7.61511 12.3051C6.98267 11.2854 6.63206 10.1123 6.59998 8.90789C6.68721 5.96409 9.05509 3.61848 11.9581 3.5999C14.9145 3.5999 17.4 6.04158 17.4 8.90789C17.3672 10.1314 17.0053 11.3225 16.3535 12.3528C15.8864 13.0853 15.487 13.8603 15.1604 14.6671C15.0667 14.9441 14.7691 15.0922 14.4957 14.9967C14.2342 14.9059 14.0876 14.6241 14.161 14.3539C14.519 13.4404 14.966 12.5656 15.4953 11.7424C16.0402 10.8872 16.3475 9.8989 16.3849 8.88139C16.3849 6.60952 14.3755 4.67743 11.9895 4.63494C9.65977 4.64238 7.75391 6.51926 7.6779 8.88139C7.71098 9.87926 8.00143 10.8512 8.52033 11.6999C8.55173 11.7477 9.9122 14.0036 9.9122 14.7255V16.0472C10.444 16.1013 10.9494 15.8009 11.1628 15.3041C11.2871 15.0976 11.3822 14.8741 11.4453 14.6406L11.3145 14.5663C10.4602 13.9505 9.87931 13.0179 9.69766 11.9706C9.61915 11.0046 10.132 10.7604 10.357 10.6967C10.8802 10.5534 11.5291 10.9621 11.9267 11.4345C12.0676 10.9891 12.3812 10.6213 12.7953 10.4154C13.142 10.3029 13.5216 10.4043 13.7686 10.6755C14.2012 11.1617 14.3555 11.84 14.1767 12.4696C14.004 13.3614 13.4285 14.4282 12.654 14.7361H12.6017C12.6383 14.9431 12.6854 15.1448 12.7378 15.3359C12.9366 15.9835 13.261 16.0365 14.2604 16.0153C14.5325 16.0153 14.8412 15.9888 15.0191 16.2011C15.1193 16.3216 15.1615 16.4814 15.1343 16.6364L14.836 18.2871C14.79 18.5425 14.5686 18.7267 14.3127 18.7225H10.3256L10.4564 19.3169H13.9517C14.2407 19.3169 14.475 19.5547 14.475 19.8477C14.475 20.1407 14.2407 20.3785 13.9517 20.3785V20.3998ZM12.5441 13.149C12.5441 13.2604 12.5441 13.3772 12.5755 13.4887C12.8526 13.1384 13.0412 12.7249 13.125 12.2838C13.2028 12.0253 13.1804 11.7461 13.0622 11.5035C12.8169 11.934 12.6536 12.4075 12.5808 12.8995C12.5703 12.9685 12.5441 13.0481 12.5441 13.149ZM10.7232 11.8061C10.7207 11.8363 10.7207 11.8661 10.7232 11.8963C10.8497 12.4377 11.1172 12.9346 11.4977 13.3348V13.1543C11.453 12.8677 11.3684 12.589 11.2465 12.3263C11.1245 12.1034 10.9455 11.9186 10.7285 11.7901L10.7232 11.8061Z" fill="#53565A"/>
</svg>
