<svg width="100%" height="100%" viewBox="0 0 22 19" fill="none" xmlns="http://www.w3.org/2000/svg">
<path fill-rule="evenodd" clip-rule="evenodd" d="M6.34987 14.6109C6.80984 14.6072 7.17985 14.2406 7.17654 13.7918C7.17562 13.6701 7.14654 13.5502 7.09153 13.4408L5.24155 9.77643H21.0749C21.5349 9.77643 21.9082 9.41267 21.9082 8.96391C21.9082 8.51515 21.5349 8.15139 21.0749 8.15139H3.87479C3.41482 8.14828 3.03902 8.50949 3.03571 8.95825C3.03479 9.08712 3.06572 9.21442 3.12487 9.32949L3.76651 10.5889L2.09988 9.1914L6.59981 4.98265C6.93154 4.67072 6.94065 4.15597 6.6207 3.83289C6.30065 3.50989 5.77316 3.50085 5.44153 3.81261L0.283085 8.63888C0.115658 8.79874 0.0248623 9.01993 0.0331402 9.24824C0.0381088 9.476 0.140667 9.69114 0.316465 9.8414L5.76654 14.424C5.92983 14.5564 6.1381 14.6232 6.34987 14.6109Z" />
<path fill-rule="evenodd" clip-rule="evenodd" d="M0.858774 1.93555H21.0588C21.5188 1.93555 21.8921 1.57178 21.8921 1.12302C21.8921 0.674356 21.5188 0.310499 21.0588 0.310499H0.85038C0.39032 0.310499 0.017025 0.674356 0.017025 1.12302C0.017025 1.57178 0.39032 1.93555 0.85038 1.93555H0.858774Z" />
<path fill-rule="evenodd" clip-rule="evenodd" d="M21.1003 18.9743C21.4277 18.9736 21.7245 18.7861 21.8586 18.4949C22.0461 18.0865 21.8603 17.607 21.442 17.4223C18.8502 16.2768 13.4586 16.2605 13.2336 16.2605H0.858603C0.398542 16.2605 0.025219 16.6243 0.025219 17.0729C0.025219 17.5218 0.398542 17.8855 0.858603 17.8855H13.1919C13.2418 17.8855 18.4502 17.8855 20.6919 18.9012C20.8202 18.9567 20.9602 18.9818 21.1003 18.9743Z" />
</svg>
