<svg width="251" height="124" viewBox="0 0 251 124" fill="none" xmlns="http://www.w3.org/2000/svg">
<path fill-rule="evenodd" clip-rule="evenodd" d="M159.029 62.3467H156.693C155.141 62.3505 153.834 61.1874 153.656 59.6457L150.695 41.7271C150.467 40.0573 151.635 38.5192 153.304 38.2913C153.441 38.2726 153.58 38.2632 153.719 38.2633H157.33V37.2504C157.33 36.5598 157.89 36 158.579 36C159.269 36 159.829 36.5598 159.829 37.2504V41.7271C159.829 42.4175 159.269 42.9774 158.579 42.9774C157.89 42.9774 157.33 42.4175 157.33 41.7271V40.7517H153.756C153.597 40.7503 153.448 40.8189 153.344 40.9392C153.238 41.0534 153.186 41.2091 153.206 41.3643L156.168 59.2456C156.187 59.5457 156.429 59.7833 156.73 59.7958H159.067C159.757 59.7958 160.316 60.356 160.316 61.0462C160.316 61.7366 159.757 62.2967 159.067 62.2967L159.029 62.3467Z" fill="url(#paint0_linear_21385_87847)"/>
<path fill-rule="evenodd" clip-rule="evenodd" d="M167.226 62.3466H162.228C161.538 62.3466 160.978 61.7865 160.978 61.0962C160.978 60.406 161.538 59.8457 162.228 59.8457H167.226C167.507 59.847 167.743 59.637 167.776 59.3581L170.762 41.3644C170.764 41.2244 170.709 41.0892 170.612 40.9892C170.508 40.8689 170.358 40.8003 170.2 40.8016H166.626V41.727C166.626 42.4175 166.066 42.9773 165.377 42.9773C164.687 42.9773 164.127 42.4175 164.127 41.727V37.2879C164.127 36.5973 164.687 36.0375 165.377 36.0375C166.066 36.0375 166.626 36.5973 166.626 37.2879V38.3008H170.2C171.884 38.295 173.254 39.6561 173.259 41.3412C173.26 41.4702 173.252 41.599 173.236 41.727L170.25 59.7333C170.037 61.2388 168.745 62.3554 167.226 62.3466Z" fill="url(#paint1_linear_21385_87847)"/>
<path fill-rule="evenodd" clip-rule="evenodd" d="M171.612 72C168.497 72.0049 165.53 70.6707 163.465 68.3362C162.449 67.2058 161.687 65.8715 161.229 64.4223C160.66 62.6504 160.705 60.7383 161.354 58.9953C161.552 58.3376 162.245 57.9637 162.903 58.1574C163.564 58.355 163.94 59.0515 163.743 59.7143L163.74 59.7206C163.24 60.9785 163.192 62.3703 163.603 63.6595C164.715 67.1457 167.956 69.5092 171.612 69.499C176.247 69.4915 180.002 65.734 180.009 61.096C180.009 60.4058 180.569 59.8456 181.259 59.8456C181.948 59.8456 182.508 60.4058 182.508 61.096C182.501 67.1156 177.627 71.9925 171.612 72Z" fill="url(#paint2_linear_21385_87847)"/>
<path fill-rule="evenodd" clip-rule="evenodd" d="M181.258 62.3466C178.366 62.354 176.017 60.0133 176.01 57.1197C176.003 54.2261 178.341 51.8749 181.233 51.8679C184.124 51.8611 186.473 54.2011 186.481 57.0948C186.481 57.0985 186.481 57.1034 186.481 57.1073C186.482 57.5925 186.419 58.0764 186.294 58.5453C186.104 59.2118 185.41 59.5981 184.744 59.408C184.078 59.2181 183.692 58.524 183.882 57.8575C183.953 57.6137 183.987 57.3611 183.982 57.1073C183.982 55.5942 182.756 54.3689 181.245 54.3689C179.733 54.3689 178.509 55.5955 178.509 57.1073C178.509 58.6204 179.735 59.8457 181.245 59.8457C181.249 59.8457 181.255 59.8456 181.259 59.8456C181.692 59.8468 182.119 59.7494 182.507 59.558C183.118 59.248 183.866 59.4869 184.182 60.0958C184.5 60.7086 184.26 61.4638 183.648 61.7814C183.647 61.7826 183.646 61.7826 183.644 61.7839C182.905 62.1577 182.086 62.3515 181.258 62.3466Z" fill="url(#paint3_linear_21385_87847)"/>
<path fill-rule="evenodd" clip-rule="evenodd" d="M194.555 111.05H193.841C193.367 111.051 192.968 110.696 192.914 110.225L192.009 104.75C191.939 104.24 192.296 103.77 192.806 103.7C192.848 103.694 192.89 103.691 192.933 103.691H194.036V103.382C194.036 103.171 194.207 103 194.418 103C194.629 103 194.8 103.171 194.8 103.382V104.75C194.8 104.961 194.629 105.132 194.418 105.132C194.207 105.132 194.036 104.961 194.036 104.75V104.452H192.944C192.896 104.451 192.85 104.472 192.818 104.509C192.786 104.544 192.77 104.592 192.776 104.639L193.681 110.103C193.687 110.194 193.761 110.267 193.853 110.271H194.567C194.778 110.271 194.949 110.442 194.949 110.653C194.949 110.864 194.778 111.035 194.567 111.035L194.555 111.05Z" fill="url(#paint4_linear_21385_87847)"/>
<path fill-rule="evenodd" clip-rule="evenodd" d="M197.06 111.05H195.533C195.322 111.05 195.151 110.879 195.151 110.668C195.151 110.457 195.322 110.286 195.533 110.286H197.06C197.146 110.286 197.218 110.222 197.228 110.137L198.14 104.639C198.141 104.596 198.124 104.555 198.095 104.524C198.063 104.488 198.017 104.467 197.969 104.467H196.877V104.75C196.877 104.961 196.706 105.132 196.495 105.132C196.284 105.132 196.113 104.961 196.113 104.75V103.393C196.113 103.182 196.284 103.011 196.495 103.011C196.706 103.011 196.877 103.182 196.877 103.393V103.703H197.969C198.483 103.701 198.902 104.117 198.903 104.632C198.904 104.671 198.901 104.711 198.896 104.75L197.984 110.252C197.919 110.712 197.524 111.053 197.06 111.05Z" fill="url(#paint5_linear_21385_87847)"/>
<path fill-rule="evenodd" clip-rule="evenodd" d="M198.4 114C197.448 114.002 196.542 113.594 195.911 112.881C195.6 112.535 195.368 112.127 195.227 111.685C195.054 111.143 195.068 110.559 195.266 110.026C195.326 109.825 195.538 109.711 195.739 109.77C195.941 109.831 196.056 110.044 195.996 110.246L195.995 110.248C195.842 110.632 195.827 111.058 195.953 111.452C196.293 112.517 197.283 113.239 198.4 113.236C199.816 113.234 200.964 112.085 200.966 110.668C200.966 110.457 201.137 110.286 201.348 110.286C201.559 110.286 201.73 110.457 201.73 110.668C201.727 112.508 200.238 113.998 198.4 114Z" fill="url(#paint6_linear_21385_87847)"/>
<path fill-rule="evenodd" clip-rule="evenodd" d="M201.347 111.05C200.464 111.053 199.746 110.337 199.744 109.453C199.742 108.569 200.456 107.851 201.34 107.848C202.223 107.846 202.941 108.561 202.943 109.446C202.943 109.447 202.943 109.448 202.943 109.449C202.944 109.598 202.924 109.745 202.886 109.889C202.828 110.092 202.616 110.21 202.412 110.152C202.209 110.094 202.091 109.882 202.149 109.679C202.171 109.604 202.181 109.527 202.18 109.449C202.18 108.987 201.805 108.613 201.343 108.613C200.881 108.613 200.507 108.987 200.507 109.449C200.507 109.912 200.882 110.286 201.343 110.286C201.345 110.286 201.347 110.286 201.348 110.286C201.48 110.287 201.61 110.257 201.729 110.198C201.916 110.103 202.144 110.176 202.241 110.363C202.338 110.55 202.265 110.781 202.078 110.878C202.077 110.878 202.077 110.878 202.076 110.878C201.85 110.993 201.6 111.052 201.347 111.05Z" fill="url(#paint7_linear_21385_87847)"/>
<path fill-rule="evenodd" clip-rule="evenodd" d="M72.5553 15.0503H71.8413C71.3671 15.0515 70.9678 14.6961 70.9135 14.225L70.0087 8.74986C69.9392 8.23966 70.2958 7.76967 70.8059 7.70004C70.8478 7.69431 70.8903 7.69145 70.9326 7.69149H72.036V7.382C72.036 7.17098 72.2071 6.99992 72.4178 6.99992C72.6286 6.99992 72.7996 7.17098 72.7996 7.382V8.74986C72.7996 8.96083 72.6286 9.1319 72.4178 9.1319C72.2071 9.1319 72.036 8.96083 72.036 8.74986V8.45182H70.9441C70.8956 8.4514 70.8498 8.47236 70.8181 8.50911C70.7856 8.54401 70.77 8.59159 70.7761 8.639L71.6809 14.1027C71.6867 14.1944 71.7607 14.267 71.8528 14.2709H72.5667C72.7775 14.2709 72.9486 14.442 72.9486 14.6529C72.9486 14.8639 72.7775 15.035 72.5667 15.035L72.5553 15.0503Z" fill="url(#paint8_linear_21385_87847)"/>
<path fill-rule="evenodd" clip-rule="evenodd" d="M75.0599 15.0503H73.5327C73.322 15.0503 73.1509 14.8791 73.1509 14.6682C73.1509 14.4573 73.322 14.2861 73.5327 14.2861H75.0599C75.1458 14.2865 75.218 14.2223 75.2279 14.1371L76.1404 8.63904C76.1411 8.59626 76.1244 8.55496 76.0946 8.52439C76.0629 8.48763 76.0171 8.46667 75.9686 8.46709H74.8766V8.74984C74.8766 8.96082 74.7056 9.13188 74.4949 9.13188C74.2841 9.13188 74.1131 8.96082 74.1131 8.74984V7.39344C74.1131 7.18243 74.2841 7.01137 74.4949 7.01137C74.7056 7.01137 74.8766 7.18243 74.8766 7.39344V7.70293H75.9686C76.4833 7.70116 76.9017 8.11705 76.9033 8.63196C76.9037 8.67137 76.9014 8.71073 76.8964 8.74984L75.9839 14.2518C75.9189 14.7118 75.5242 15.053 75.0599 15.0503Z" fill="url(#paint9_linear_21385_87847)"/>
<path fill-rule="evenodd" clip-rule="evenodd" d="M76.4002 18C75.4484 18.0015 74.5416 17.5938 73.9109 16.8805C73.6005 16.5351 73.3676 16.1274 73.2275 15.6846C73.0538 15.1432 73.0675 14.5589 73.2657 14.0263C73.3264 13.8254 73.5379 13.7111 73.7391 13.7703C73.9411 13.8307 74.056 14.0435 73.9957 14.246L73.9949 14.248C73.8421 14.6323 73.8273 15.0576 73.9529 15.4515C74.2927 16.5167 75.2831 17.2389 76.4002 17.2358C77.8163 17.2335 78.9636 16.0854 78.966 14.6682C78.966 14.4573 79.137 14.2862 79.3477 14.2862C79.5585 14.2862 79.7296 14.4573 79.7296 14.6682C79.7273 16.5075 78.2382 17.9977 76.4002 18Z" fill="url(#paint10_linear_21385_87847)"/>
<path fill-rule="evenodd" clip-rule="evenodd" d="M79.3473 15.0503C78.4637 15.0525 77.7459 14.3373 77.7437 13.4532C77.7417 12.569 78.4561 11.8506 79.3396 11.8484C80.2231 11.8464 80.9409 12.5614 80.9432 13.4455C80.9432 13.4467 80.9432 13.4482 80.9432 13.4494C80.9436 13.5976 80.9241 13.7455 80.8859 13.8888C80.8279 14.0924 80.616 14.2105 80.4125 14.1524C80.209 14.0943 80.091 13.8823 80.149 13.6786C80.1708 13.6041 80.1811 13.5269 80.1796 13.4494C80.1796 12.987 79.805 12.6126 79.3434 12.6126C78.8814 12.6126 78.5073 12.9874 78.5073 13.4494C78.5073 13.9117 78.8818 14.2861 79.3434 14.2861C79.3446 14.2861 79.3466 14.2862 79.3477 14.2862C79.4802 14.2865 79.6103 14.2567 79.729 14.1982C79.9157 14.1035 80.144 14.1765 80.2407 14.3625C80.338 14.5498 80.2647 14.7805 80.0776 14.8776C80.0772 14.8779 80.0769 14.8779 80.0765 14.8783C79.8505 14.9925 79.6004 15.0518 79.3473 15.0503Z" fill="url(#paint11_linear_21385_87847)"/>
<path fill-rule="evenodd" clip-rule="evenodd" d="M69.428 61C64.5729 61.006 60.631 57.0741 60.6201 52.2153V43.3812C60.6201 42.8355 61.0625 42.3931 61.6075 42.3931C62.1526 42.3931 62.595 42.8355 62.595 43.3812V52.1758C62.6177 55.9574 65.6995 59.0049 69.4784 58.9831C69.7618 58.9811 70.0452 58.9614 70.3266 58.9248C73.7816 58.3923 76.3114 55.3873 76.2511 51.8892V46.3359C76.2511 45.79 76.6935 45.3476 77.2386 45.3476C77.7836 45.3476 78.226 45.79 78.226 46.3359V51.8892C78.2921 56.3665 75.0455 60.2056 70.6229 60.8814C70.2278 60.9525 69.829 60.992 69.428 61Z" fill="url(#paint12_linear_21385_87847)"/>
<path fill-rule="evenodd" clip-rule="evenodd" d="M61.6067 44.3689H59.9874C59.4424 44.3689 59 43.9265 59 43.3808C59 42.835 59.4424 42.3926 59.9874 42.3926H60.5304L59.543 30.426C59.4985 29.9423 59.8126 29.4981 60.2837 29.3788L69.1705 27.0368C69.3453 26.9878 69.5289 26.9878 69.7037 27.0368L78.4426 29.6356C78.8779 29.7624 79.1712 30.17 79.1534 30.6238L78.1661 40.5053C78.1127 42.6496 76.3601 44.3598 74.2162 44.359H61.6067V44.3689ZM62.5152 42.3926H74.236C75.3272 42.3926 76.2109 41.5079 76.2109 40.4163L77.0897 31.3056L69.3877 29.023L61.4882 31.0783L62.5152 42.3926Z" fill="url(#paint13_linear_21385_87847)"/>
<path fill-rule="evenodd" clip-rule="evenodd" d="M70.7995 40.9407H67.531C66.986 40.9407 66.5436 40.4983 66.5436 39.9525V38.4405H65.0329C64.4878 38.4405 64.0454 37.9981 64.0454 37.4525V34.1816C64.0454 33.6359 64.4878 33.1935 65.0329 33.1935H66.5436V31.6816C66.5436 31.1358 66.986 30.6934 67.531 30.6934H70.7995C71.3445 30.6934 71.7869 31.1358 71.7869 31.6816V33.1935H73.2976C73.8427 33.1935 74.2851 33.6359 74.2851 34.1816V37.4525C74.2851 37.9981 73.8427 38.4405 73.2976 38.4405H71.7869V39.9525C71.7869 40.4983 71.3445 40.9407 70.7995 40.9407ZM68.5185 38.9643H69.812V37.4525C69.812 36.9066 70.2544 36.4642 70.7995 36.4642H72.3102V35.1698H70.7995C70.2544 35.1698 69.812 34.7274 69.812 34.1816V32.6697H68.5185V34.1816C68.5185 34.7274 68.0761 35.1698 67.531 35.1698H66.0203V36.4642H67.531C68.0761 36.4642 68.5185 36.9066 68.5185 37.4525V38.9643Z" fill="url(#paint14_linear_21385_87847)"/>
<path fill-rule="evenodd" clip-rule="evenodd" d="M195.294 24C193.295 24.0025 191.671 22.3834 191.667 20.3828V16.7452C191.667 16.5205 191.849 16.3383 192.074 16.3383C192.298 16.3383 192.48 16.5205 192.48 16.7452V20.3665C192.49 21.9236 193.759 23.1785 195.315 23.1695C195.431 23.1687 195.548 23.1606 195.664 23.1455C197.086 22.9262 198.128 21.6889 198.103 20.2485V17.9618C198.103 17.7371 198.285 17.5549 198.51 17.5549C198.734 17.5549 198.916 17.7371 198.916 17.9618V20.2485C198.944 22.0921 197.607 23.6729 195.786 23.9512C195.623 23.9805 195.459 23.9967 195.294 24Z" fill="url(#paint15_linear_21385_87847)"/>
<path fill-rule="evenodd" clip-rule="evenodd" d="M192.073 17.1519H191.407C191.182 17.1519 191 16.9697 191 16.745C191 16.5203 191.182 16.3381 191.407 16.3381H191.63L191.224 11.4107C191.205 11.2115 191.335 11.0286 191.529 10.9795L195.188 10.0151C195.26 9.99497 195.335 9.99497 195.407 10.0151L199.006 11.0853C199.185 11.1374 199.306 11.3053 199.298 11.4921L198.892 15.561C198.87 16.4439 198.148 17.1481 197.266 17.1478H192.073V17.1519ZM192.447 16.3381H197.274C197.723 16.3381 198.087 15.9738 198.087 15.5244L198.449 11.7729L195.277 10.833L192.025 11.6793L192.447 16.3381Z" fill="url(#paint16_linear_21385_87847)"/>
<path fill-rule="evenodd" clip-rule="evenodd" d="M195.859 15.7402H194.513C194.288 15.7402 194.106 15.5581 194.106 15.3333V14.7108H193.484C193.26 14.7108 193.078 14.5286 193.078 14.3039V12.9571C193.078 12.7324 193.26 12.5502 193.484 12.5502H194.106V11.9276C194.106 11.7029 194.288 11.5208 194.513 11.5208H195.859C196.083 11.5208 196.265 11.7029 196.265 11.9276V12.5502H196.887C197.112 12.5502 197.294 12.7324 197.294 12.9571V14.3039C197.294 14.5286 197.112 14.7108 196.887 14.7108H196.265V15.3333C196.265 15.5581 196.083 15.7402 195.859 15.7402ZM194.919 14.9264H195.452V14.3039C195.452 14.0791 195.634 13.897 195.859 13.897H196.481V13.364H195.859C195.634 13.364 195.452 13.1818 195.452 12.9571V12.3345H194.919V12.9571C194.919 13.1818 194.737 13.364 194.513 13.364H193.891V13.897H194.513C194.737 13.897 194.919 14.0791 194.919 14.3039V14.9264Z" fill="url(#paint17_linear_21385_87847)"/>
<path fill-rule="evenodd" clip-rule="evenodd" d="M216.288 83.8744C215.725 83.8724 215.179 83.6833 214.736 83.3367C206.914 77.8675 200.295 70.8528 195.291 62.7228C194.731 61.7766 195.042 60.5558 195.988 59.9941C196.933 59.4325 198.153 59.7453 198.714 60.6912C203.345 68.1779 209.437 74.6549 216.626 79.7319C217.522 79.3136 220.03 77.6404 226.578 71.1875L227.175 70.6099C231.506 66.3616 235.499 61.7786 239.116 56.907H227.911C224.627 56.9667 224.627 56.9667 222.637 59.7351L221.841 60.9102C221.47 61.4459 220.86 61.7648 220.209 61.7668C219.6 61.7231 219.037 61.4261 218.656 60.9501C218.238 60.3727 217.522 59.2571 216.666 57.9227C215.253 55.712 212.427 51.3106 211.253 49.956C210.509 51.1389 209.914 52.4099 209.481 53.7401C209.236 54.4174 208.958 55.0826 208.645 55.732C208.31 56.4152 207.615 56.8493 206.854 56.8474H190.654C189.92 56.8452 189.247 56.439 188.902 55.7917C184.424 47.3073 184.345 35.9745 194.296 29.7404C201.419 25.3528 210.599 26.3088 216.666 32.0707C220.165 29.0432 224.583 27.2887 229.205 27.0916H229.543C235.734 27.3822 241.334 30.8557 244.35 36.2731C246.716 40.6687 246.526 46.0005 243.853 50.215C243.146 51.0575 241.89 51.167 241.049 50.4599C240.399 49.9141 240.166 49.0158 240.469 48.2233C242.353 45.2038 242.482 41.4057 240.808 38.2648C238.502 34.0765 234.213 31.3636 229.443 31.0748C224.129 31.6524 220.467 33.3852 218.238 36.3728C217.867 36.8826 217.276 37.1853 216.646 37.1894C216.02 37.1894 215.43 36.8945 215.054 36.3926C210.524 30.7781 202.517 29.4358 196.405 33.2657C189.022 37.9064 188.803 46.331 191.888 53.0231H205.521C205.521 52.844 205.66 52.6647 205.72 52.4657C206.655 49.976 207.71 47.1676 209.84 46.2316C210.753 45.8333 211.792 45.8333 212.705 46.2316C213.959 46.7495 215.333 48.542 219.99 55.8514C220.109 56.0108 220.189 56.1701 220.288 56.3095C222.139 53.7603 223.393 53.0433 227.911 53.0433H242.838C243.576 53.0492 244.25 53.4634 244.589 54.1187C244.908 54.7561 244.863 55.5147 244.47 56.1104C240.137 62.3661 235.218 68.194 229.782 73.5176L229.224 74.0753C221.662 81.5443 218.338 83.8744 216.288 83.8744Z" fill="url(#paint18_linear_21385_87847)"/>
<path fill-rule="evenodd" clip-rule="evenodd" d="M46.048 58.479C45.9542 58.4787 45.8631 58.4472 45.7892 58.3894C44.4856 57.4779 43.3826 56.3088 42.5485 54.9538C42.4551 54.7961 42.5071 54.5926 42.6646 54.499C42.8221 54.4054 43.0256 54.4575 43.119 54.6152C43.8908 55.863 44.9062 56.9425 46.1044 57.7886C46.2537 57.7189 46.6716 57.44 47.7629 56.3646L47.8624 56.2683C48.5843 55.5603 49.2498 54.7964 49.8527 53.9845H47.9852C47.4378 53.9944 47.4378 53.9944 47.1061 54.4558L46.9734 54.6517C46.9116 54.741 46.81 54.7941 46.7015 54.7944C46.6 54.7872 46.5062 54.7377 46.4427 54.6583C46.3731 54.5621 46.2537 54.3762 46.111 54.1538C45.8755 53.7853 45.4045 53.0517 45.2088 52.826C45.0848 53.0231 44.9856 53.235 44.9136 53.4567C44.8727 53.5695 44.8263 53.6804 44.7742 53.7886C44.7184 53.9025 44.6026 53.9749 44.4757 53.9745H41.7756C41.6533 53.9742 41.5412 53.9065 41.4837 53.7986C40.7374 52.3845 40.7241 50.4957 42.3826 49.4567C43.5698 48.7254 45.0999 48.8848 46.111 49.8451C46.6941 49.3405 47.4306 49.0481 48.2008 49.0152H48.2572C49.2889 49.0637 50.2223 49.6426 50.725 50.5455C51.1194 51.2781 51.0877 52.1667 50.6421 52.8691C50.5243 53.0096 50.3151 53.0278 50.1748 52.91C50.0665 52.819 50.0277 52.6693 50.0782 52.5372C50.3922 52.034 50.4136 51.4009 50.1346 50.8775C49.7504 50.1794 49.0355 49.7272 48.2406 49.6791C47.3549 49.7754 46.7446 50.0642 46.3731 50.5621C46.3111 50.6471 46.2127 50.6975 46.1077 50.6982C46.0033 50.6982 45.905 50.6491 45.8423 50.5654C45.0873 49.6297 43.7528 49.4059 42.7342 50.0443C41.5036 50.8177 41.4671 52.2218 41.9813 53.3372H44.2535C44.2535 53.3073 44.2767 53.2774 44.2866 53.2443C44.4425 52.8293 44.6183 52.3613 44.9733 52.2052C45.1255 52.1389 45.2986 52.1389 45.4509 52.2052C45.6599 52.2916 45.8888 52.5903 46.665 53.8086C46.6849 53.8351 46.6981 53.8617 46.7147 53.8849C47.0232 53.46 47.2322 53.3405 47.9852 53.3405H50.4729C50.596 53.3415 50.7083 53.4105 50.7649 53.5198C50.818 53.626 50.8105 53.7524 50.7449 53.8517C50.0228 54.8943 49.2031 55.8656 48.297 56.7529L48.2041 56.8459C46.9436 58.0907 46.3897 58.479 46.048 58.479Z" fill="url(#paint19_linear_21385_87847)"/>
<path fill-rule="evenodd" clip-rule="evenodd" d="M53.5206 26C53.3623 25.9994 53.2086 25.9462 53.0839 25.8487C50.8834 24.3101 49.0216 22.3367 47.6138 20.0496C47.4561 19.7834 47.5438 19.44 47.8097 19.282C48.0757 19.124 48.419 19.2119 48.5768 19.4781C49.8795 21.5842 51.5934 23.4064 53.6158 24.8346C53.8678 24.7169 54.5732 24.2462 56.4153 22.4309L56.5833 22.2684C57.8018 21.0733 58.925 19.784 59.9427 18.4135H56.7905C55.8666 18.4303 55.8666 18.4303 55.3067 19.2091L55.0827 19.5397C54.9784 19.6904 54.8068 19.7801 54.6237 19.7806C54.4524 19.7683 54.2941 19.6848 54.1869 19.5509C54.0693 19.3885 53.8678 19.0746 53.627 18.6992C53.2295 18.0773 52.4345 16.8391 52.1041 16.458C51.8948 16.7908 51.7274 17.1484 51.6058 17.5226C51.5369 17.7131 51.4585 17.9002 51.3707 18.0829C51.2764 18.2751 51.0809 18.3973 50.8668 18.3967H46.3092C46.1028 18.3961 45.9134 18.2818 45.8165 18.0997C44.5567 15.7129 44.5343 12.5247 47.3338 10.7709C49.3376 9.5366 51.9203 9.80554 53.627 11.4265C54.6112 10.5748 55.8544 10.0812 57.1544 10.0258H57.2496C58.9911 10.1075 60.5667 11.0847 61.4152 12.6087C62.0808 13.8453 62.0273 15.3453 61.2752 16.5309C61.0764 16.7679 60.7232 16.7987 60.4864 16.5998C60.3036 16.4462 60.2382 16.1935 60.3234 15.9706C60.8533 15.1211 60.8896 14.0526 60.4186 13.169C59.77 11.9908 58.5634 11.2276 57.2216 11.1463C55.7266 11.3088 54.6964 11.7963 54.0693 12.6368C53.9648 12.7802 53.7987 12.8653 53.6214 12.8665C53.4452 12.8665 53.2793 12.7835 53.1735 12.6423C51.899 11.0629 49.6466 10.6852 47.9273 11.7627C45.8501 13.0682 45.7885 15.4382 46.6563 17.3209H50.4916C50.4916 17.2705 50.5308 17.22 50.5476 17.164C50.8108 16.4636 51.1075 15.6736 51.7066 15.4103C51.9636 15.2982 52.2558 15.2982 52.5128 15.4103C52.8656 15.556 53.2519 16.0602 54.5621 18.1165C54.5957 18.1614 54.618 18.2062 54.646 18.2454C55.1667 17.5283 55.5195 17.3265 56.7905 17.3265H60.9897C61.1973 17.3282 61.3869 17.4447 61.4824 17.6291C61.5722 17.8084 61.5594 18.0218 61.4488 18.1894C60.2299 19.9493 58.8462 21.5888 57.3168 23.0864L57.16 23.2433C55.0324 25.3445 54.0974 26 53.5206 26Z" fill="url(#paint20_linear_21385_87847)"/>
<path fill-rule="evenodd" clip-rule="evenodd" d="M8.04797 102.479C7.95417 102.479 7.86313 102.447 7.78925 102.389C6.48559 101.478 5.38257 100.309 4.5485 98.9538C4.45509 98.7961 4.50705 98.5926 4.6646 98.499C4.82215 98.4054 5.02557 98.4575 5.11903 98.6152C5.89084 99.863 6.90619 100.942 8.10437 101.789C8.25365 101.719 8.67159 101.44 9.76292 100.365L9.86243 100.268C10.5843 99.5603 11.2498 98.7964 11.8527 97.9845H9.98516C9.43784 97.9944 9.43784 97.9944 9.10613 98.4558L8.97344 98.6517C8.9116 98.741 8.80999 98.7941 8.70146 98.7944C8.60002 98.7872 8.50624 98.7377 8.44271 98.6583C8.37306 98.5621 8.25365 98.3762 8.11102 98.1538C7.87551 97.7853 7.40449 97.0517 7.20878 96.826C7.08479 97.0231 6.98562 97.235 6.91356 97.4567C6.87275 97.5695 6.82626 97.6804 6.77425 97.7887C6.7184 97.9025 6.60256 97.9749 6.47572 97.9745H3.77563C3.65334 97.9742 3.54115 97.9065 3.48372 97.7986C2.73738 96.3845 2.7241 94.4957 4.38263 93.4567C5.56975 92.7254 7.09985 92.8848 8.11102 93.8451C8.69409 93.3405 9.43058 93.0481 10.2008 93.0153H10.2572C11.2889 93.0637 12.2223 93.6426 12.725 94.5455C13.1194 95.2781 13.0877 96.1667 12.6421 96.8691C12.5243 97.0096 12.3151 97.0278 12.1748 96.91C12.0665 96.819 12.0277 96.6693 12.0782 96.5372C12.3922 96.034 12.4136 95.4009 12.1346 94.8774C11.7504 94.1794 11.0355 93.7272 10.2406 93.6791C9.35491 93.7754 8.74458 94.0642 8.37306 94.5621C8.31114 94.6471 8.21269 94.6975 8.10768 94.6982C8.00328 94.6982 7.90501 94.6491 7.84233 94.5654C7.08726 93.6297 5.75282 93.4059 4.73424 94.0443C3.50362 94.8177 3.46713 96.2218 3.98128 97.3372H6.25345C6.25345 97.3073 6.27666 97.2774 6.28663 97.2443C6.44254 96.8293 6.61834 96.3613 6.97326 96.2052C7.12554 96.1389 7.29864 96.1389 7.45091 96.2052C7.6599 96.2916 7.88876 96.5903 8.66497 97.8085C8.68487 97.8351 8.69812 97.8617 8.71471 97.8849C9.0232 97.46 9.23219 97.3405 9.98516 97.3405H12.4729C12.596 97.3415 12.7083 97.4105 12.7649 97.5198C12.818 97.626 12.8105 97.7524 12.7449 97.8517C12.0228 98.8943 11.2031 99.8656 10.297 100.753L10.2041 100.846C8.9436 102.091 8.38965 102.479 8.04797 102.479Z" fill="url(#paint21_linear_21385_87847)"/>
<path fill-rule="evenodd" clip-rule="evenodd" d="M112.17 100.502C111.219 100.502 110.447 99.7299 110.447 98.7775V98.312H104.296C103.345 98.312 102.573 97.5401 102.573 96.5878V92.2772H98.2655C97.3144 92.2772 96.5425 91.5053 96.5425 90.553V82.6734C96.5425 81.7212 97.3144 80.9492 98.2655 80.9492H102.573V76.6559C102.573 75.7036 103.345 74.9317 104.296 74.9317H112.17C113.121 74.9317 113.893 75.7036 113.893 76.6559V80.9492H118.183C119.134 80.9492 119.906 81.7212 119.906 82.6734V90.553C119.906 91.5053 119.134 92.2772 118.183 92.2772H113.893V94.8636H114.134C115.085 94.8636 115.857 95.6356 115.857 96.5878C115.857 97.5401 115.085 98.312 114.134 98.312H113.893V98.7775C113.893 99.7299 113.121 100.502 112.17 100.502ZM106.019 94.8636H110.447V90.553C110.447 89.6008 111.219 88.8288 112.17 88.8288H116.46V84.3976H112.17C111.219 84.3976 110.447 83.6257 110.447 82.6734V78.3803H106.019V82.6734C106.019 83.6257 105.247 84.3976 104.296 84.3976H99.9883V88.8288H104.296C105.247 88.8288 106.019 89.6008 106.019 90.553V94.8636Z" fill="url(#paint22_linear_21385_87847)"/>
<path fill-rule="evenodd" clip-rule="evenodd" d="M130.277 104.656H86.9448C85.9939 104.656 85.2219 103.885 85.2219 102.932V72.7072H83.7231C82.772 72.7072 82 71.9352 82 70.9828C82 70.0305 82.772 69.2586 83.7231 69.2586H85.2219V68.7241C85.2219 67.7719 85.9939 66.9999 86.9448 66.9999C87.8961 66.9999 88.6679 67.7719 88.6679 68.7241V69.2586H130.277C131.228 69.2586 132 70.0305 132 70.9828V102.932C132 103.885 131.228 104.656 130.277 104.656ZM88.6679 101.208H128.554V72.7072H88.6679V101.208Z" fill="url(#paint23_linear_21385_87847)"/>
<path fill-rule="evenodd" clip-rule="evenodd" d="M118.148 75.449C117.197 75.449 116.425 74.677 116.425 73.7248V65.4484H99.9533V66.5865C99.9533 67.5387 99.1813 68.3105 98.2302 68.3105C97.2793 68.3105 96.5073 67.5387 96.5073 66.5865V63.7242C96.5073 62.7719 97.2793 62 98.2302 62H118.148C119.099 62 119.87 62.7719 119.87 63.7242V73.7248C119.87 74.677 119.099 75.449 118.148 75.449Z" fill="url(#paint24_linear_21385_87847)"/>
<path fill-rule="evenodd" clip-rule="evenodd" d="M134.522 57.694C129.573 57.694 121.877 53.6215 121.78 53.5733C121.015 53.1307 120.75 52.1536 121.186 51.384C121.621 50.6114 122.598 50.3376 123.371 50.7723C126.585 52.6558 134.12 55.2313 135.438 54.3781C135.952 53.863 136.74 53.2352 137.639 52.5108C138.957 51.4646 141.673 49.2915 141.865 48.3417C142.058 47.3919 141.367 46.909 139.969 45.6534C139.536 45.2832 139.102 44.897 138.716 44.4944C136.418 42.1603 134.426 40.1482 133.558 40.1482C132.819 40.1482 131.293 41.7581 129.364 43.8183L126.874 46.4423L111.529 31.2787L112.702 30.1358C113.2 29.6529 113.843 29.1378 114.533 28.5261C116.14 27.3027 118.631 25.3066 118.454 23.9545C118.277 22.6023 112.364 17.226 110.822 16.5175C110.034 16.1474 109.826 16.1796 109.809 16.1796C109.45 16.4661 109.12 16.7897 108.829 17.1454C108.46 17.5478 108.042 18.0147 107.496 18.5296C104.073 21.878 103.8 22.1516 104.491 26.9003C105.821 35.4785 110.729 43.086 117.988 47.8266C118.724 48.324 118.918 49.3267 118.422 50.064C117.925 50.8014 116.924 50.9961 116.189 50.4987C108.18 45.2671 102.775 36.8661 101.325 27.3993C100.458 21.5399 101.181 20.2361 105.262 16.2601C105.744 15.7933 106.13 15.3586 106.467 15.0044C108.074 13.25 109.263 12.2841 112.171 13.6363C113.939 14.4572 121.234 20.7028 121.635 23.536C122.069 26.6427 119.001 29.1055 116.542 31.0694L116.189 31.3592L126.794 41.8063L127.034 41.5488C129.862 38.5546 131.421 36.8966 133.462 36.8805C135.647 36.8805 137.414 38.6512 140.885 42.1764C141.239 42.5306 141.608 42.8687 141.994 43.2067C143.601 44.575 145.448 46.2812 144.902 48.9372C144.517 50.8689 142.428 52.6558 139.535 54.9737C138.748 55.6176 137.929 56.2132 137.559 56.5834C136.727 57.3303 135.639 57.7279 134.522 57.694Z" fill="url(#paint25_linear_21385_87847)"/>
<path fill-rule="evenodd" clip-rule="evenodd" d="M69.2753 94.9999C68.5636 95.005 67.8704 94.7735 67.3047 94.3413C65.8472 93.2263 65.5687 91.1401 66.6829 89.6813C66.7712 89.5657 66.8671 89.4559 66.9698 89.3529L69.3064 87.0145C69.4583 86.8635 69.7037 86.8635 69.8555 87.0145C70.0118 87.1586 70.0239 87.4013 69.8828 87.5602L67.5462 89.8985C67.0344 90.4129 66.7678 91.1226 66.8141 91.8471C66.8576 92.5801 67.2207 93.2571 67.8071 93.6982C68.8587 94.4657 70.3153 94.3354 71.2147 93.3943L72.6868 91.9211C72.8394 91.7683 73.0871 91.7683 73.2397 91.9211C73.3924 92.0739 73.3924 92.3218 73.2397 92.4745L71.7677 93.9477C71.111 94.618 70.2133 94.9972 69.2753 94.9999Z" fill="url(#paint26_linear_21385_87847)"/>
<path fill-rule="evenodd" clip-rule="evenodd" d="M73.7342 91.3521C73.3354 91.3525 72.9526 91.1943 72.671 90.9118L68.8857 87.1276C68.7458 86.9641 68.7648 86.718 68.9282 86.5781C69.074 86.4531 69.289 86.4531 69.4348 86.5781L69.5906 86.7339L71.3508 84.9724C72.6446 83.6766 74.7429 83.6758 76.0377 84.9704C76.6585 85.591 77.0078 86.4326 77.0094 87.3107C77.0117 88.1886 76.6624 89.0308 76.0397 89.649L74.7934 90.8962C74.5154 91.1834 74.1337 91.3475 73.7342 91.3521ZM70.1436 87.2795L73.224 90.3622C73.5064 90.6424 73.962 90.6424 74.2444 90.3622L75.4906 89.119C76.4774 88.1263 76.4774 86.5224 75.4906 85.5297C74.4983 84.5397 72.8922 84.5397 71.8999 85.5297L70.1436 87.2795Z" fill="url(#paint27_linear_21385_87847)"/>
<path fill-rule="evenodd" clip-rule="evenodd" d="M239.5 18C234.806 18 231 14.1945 231 9.5C231 4.80561 234.806 0.999999 239.5 0.999999C244.194 0.999999 248 4.80561 248 9.5C248 14.1945 244.194 18 239.5 18ZM239.5 1.70838C235.197 1.70838 231.708 5.19681 231.708 9.5C231.708 13.8032 235.197 17.2917 239.5 17.2917C243.803 17.2917 247.292 13.8032 247.292 9.5C247.292 5.19681 243.803 1.70838 239.5 1.70838Z" fill="url(#paint28_linear_21385_87847)"/>
<path fill-rule="evenodd" clip-rule="evenodd" d="M217 19C214.239 19 212 16.7615 212 14C212 11.2386 214.239 9 217 9C219.761 9 222 11.2386 222 14C222 16.7615 219.761 19 217 19ZM217 9.41669C214.469 9.41669 212.417 11.4687 212.417 14C212.417 16.5313 214.469 18.5834 217 18.5834C219.531 18.5834 221.583 16.5313 221.583 14C221.583 11.4687 219.531 9.41669 217 9.41669Z" fill="url(#paint29_linear_21385_87847)"/>
<path fill-rule="evenodd" clip-rule="evenodd" d="M239 83C236.239 83 234 80.7615 234 78C234 75.2386 236.239 73 239 73C241.761 73 244 75.2386 244 78C244 80.7615 241.761 83 239 83ZM239 73.4167C236.469 73.4167 234.417 75.4687 234.417 78C234.417 80.5313 236.469 82.5834 239 82.5834C241.531 82.5834 243.583 80.5313 243.583 78C243.583 75.4687 241.531 73.4167 239 73.4167Z" fill="url(#paint30_linear_21385_87847)"/>
<path fill-rule="evenodd" clip-rule="evenodd" d="M140.5 70C138.567 70 137 68.433 137 66.5C137 64.567 138.567 63 140.5 63C142.433 63 144 64.567 144 66.5C144 68.433 142.433 70 140.5 70ZM140.5 63.2917C138.728 63.2917 137.292 64.7281 137.292 66.5C137.292 68.2719 138.728 69.7083 140.5 69.7083C142.272 69.7083 143.708 68.2719 143.708 66.5C143.708 64.7281 142.272 63.2917 140.5 63.2917Z" fill="url(#paint31_linear_21385_87847)"/>
<path fill-rule="evenodd" clip-rule="evenodd" d="M157.5 109C155.567 109 154 107.433 154 105.5C154 103.567 155.567 102 157.5 102C159.433 102 161 103.567 161 105.5C161 107.433 159.433 109 157.5 109ZM157.5 102.292C155.728 102.292 154.292 103.728 154.292 105.5C154.292 107.272 155.728 108.708 157.5 108.708C159.272 108.708 160.708 107.272 160.708 105.5C160.708 103.728 159.272 102.292 157.5 102.292Z" fill="url(#paint32_linear_21385_87847)"/>
<path fill-rule="evenodd" clip-rule="evenodd" d="M100.5 55C98.567 55 97 53.433 97 51.5C97 49.567 98.567 48 100.5 48C102.433 48 104 49.567 104 51.5C104 53.433 102.433 55 100.5 55ZM100.5 48.2917C98.7281 48.2917 97.2917 49.7281 97.2917 51.5C97.2917 53.2719 98.7281 54.7083 100.5 54.7083C102.272 54.7083 103.708 53.2719 103.708 51.5C103.708 49.7281 102.272 48.2917 100.5 48.2917Z" fill="url(#paint33_linear_21385_87847)"/>
<path fill-rule="evenodd" clip-rule="evenodd" d="M19.5 101C17.567 101 16 99.433 16 97.5C16 95.567 17.567 94 19.5 94C21.433 94 23 95.567 23 97.5C23 99.433 21.433 101 19.5 101ZM19.5 94.2917C17.7281 94.2917 16.2917 95.7281 16.2917 97.5C16.2917 99.2719 17.7281 100.708 19.5 100.708C21.2719 100.708 22.7083 99.2719 22.7083 97.5C22.7083 95.7281 21.2719 94.2917 19.5 94.2917Z" fill="url(#paint34_linear_21385_87847)"/>
<path fill-rule="evenodd" clip-rule="evenodd" d="M53.5 71C51.567 71 50 69.433 50 67.5C50 65.567 51.567 64 53.5 64C55.433 64 57 65.567 57 67.5C57 69.433 55.433 71 53.5 71ZM53.5 64.2917C51.7281 64.2917 50.2917 65.7281 50.2917 67.5C50.2917 69.2719 51.7281 70.7083 53.5 70.7083C55.2719 70.7083 56.7083 69.2719 56.7083 67.5C56.7083 65.7281 55.2719 64.2917 53.5 64.2917Z" fill="url(#paint35_linear_21385_87847)"/>
<path fill-rule="evenodd" clip-rule="evenodd" d="M45.5 39C43.567 39 42 37.433 42 35.5C42 33.567 43.567 32 45.5 32C47.433 32 49 33.567 49 35.5C49 37.433 47.433 39 45.5 39ZM45.5 32.2917C43.7281 32.2917 42.2917 33.7281 42.2917 35.5C42.2917 37.2719 43.7281 38.7083 45.5 38.7083C47.2719 38.7083 48.7083 37.2719 48.7083 35.5C48.7083 33.7281 47.2719 32.2917 45.5 32.2917Z" fill="url(#paint36_linear_21385_87847)"/>
<path fill-rule="evenodd" clip-rule="evenodd" d="M176 28C173.239 28 171 25.7615 171 23C171 20.2386 173.239 18 176 18C178.761 18 181 20.2386 181 23C181 25.7615 178.761 28 176 28ZM176 18.4167C173.469 18.4167 171.417 20.4687 171.417 23C171.417 25.5313 173.469 27.5834 176 27.5834C178.531 27.5834 180.583 25.5313 180.583 23C180.583 20.4687 178.531 18.4167 176 18.4167Z" fill="url(#paint37_linear_21385_87847)"/>
<path fill-rule="evenodd" clip-rule="evenodd" d="M89 41C86.2386 41 84 38.7615 84 36C84 33.2386 86.2386 31 89 31C91.7615 31 94 33.2386 94 36C94 38.7615 91.7615 41 89 41ZM89 31.4167C86.4687 31.4167 84.4167 33.4687 84.4167 36C84.4167 38.5313 86.4687 40.5834 89 40.5834C91.5313 40.5834 93.5833 38.5313 93.5833 36C93.5833 33.4687 91.5313 31.4167 89 31.4167Z" fill="url(#paint38_linear_21385_87847)"/>
<path fill-rule="evenodd" clip-rule="evenodd" d="M5 89C2.23857 89 0 86.7615 0 84C0 81.2386 2.23857 79 5 79C7.76145 79 10 81.2386 10 84C10 86.7615 7.76145 89 5 89ZM5 79.4167C2.46868 79.4167 0.416674 81.4687 0.416674 84C0.416674 86.5313 2.46868 88.5834 5 88.5834C7.53126 88.5834 9.58333 86.5313 9.58333 84C9.58333 81.4687 7.53126 79.4167 5 79.4167Z" fill="url(#paint39_linear_21385_87847)"/>
<path fill-rule="evenodd" clip-rule="evenodd" d="M74 75C71.2386 75 69 72.7615 69 70C69 67.2386 71.2386 65 74 65C76.7615 65 79 67.2386 79 70C79 72.7615 76.7615 75 74 75ZM74 65.4167C71.4687 65.4167 69.4167 67.4687 69.4167 70C69.4167 72.5313 71.4687 74.5834 74 74.5834C76.5313 74.5834 78.5833 72.5313 78.5833 70C78.5833 67.4687 76.5313 65.4167 74 65.4167Z" fill="url(#paint40_linear_21385_87847)"/>
<path fill-rule="evenodd" clip-rule="evenodd" d="M78 114C75.2386 114 73 111.761 73 109C73 106.239 75.2386 104 78 104C80.7615 104 83 106.239 83 109C83 111.761 80.7615 114 78 114ZM78 104.417C75.4687 104.417 73.4167 106.469 73.4167 109C73.4167 111.531 75.4687 113.583 78 113.583C80.5313 113.583 82.5833 111.531 82.5833 109C82.5833 106.469 80.5313 104.417 78 104.417Z" fill="url(#paint41_linear_21385_87847)"/>
<path fill-rule="evenodd" clip-rule="evenodd" d="M97.5 13C93.9101 13 91 10.0899 91 6.5C91 2.91017 93.9101 0 97.5 0C101.09 0 104 2.91017 104 6.5C104 10.0899 101.09 13 97.5 13ZM97.5 0.541703C94.2093 0.541703 91.5417 3.20933 91.5417 6.5C91.5417 9.79065 94.2093 12.4584 97.5 12.4584C100.791 12.4584 103.458 9.79065 103.458 6.5C103.458 3.20933 100.791 0.541703 97.5 0.541703Z" fill="url(#paint42_linear_21385_87847)"/>
<path fill-rule="evenodd" clip-rule="evenodd" d="M11.5 25C7.91014 25 5 22.0899 5 18.5C5 14.9102 7.91014 12 11.5 12C15.0899 12 18 14.9102 18 18.5C18 22.0899 15.0899 25 11.5 25ZM11.5 12.5417C8.20928 12.5417 5.54168 15.2093 5.54168 18.5C5.54168 21.7906 8.20928 24.4584 11.5 24.4584C14.7906 24.4584 17.4583 21.7906 17.4583 18.5C17.4583 15.2093 14.7906 12.5417 11.5 12.5417Z" fill="url(#paint43_linear_21385_87847)"/>
<path fill-rule="evenodd" clip-rule="evenodd" d="M33.0419 25.274C32.8325 25.2775 32.6512 25.1288 32.6136 24.9226C31.9711 21.4164 30.1164 17.8673 29.2684 16.3714L27.9834 19.5689C27.9179 19.7288 27.7624 19.8338 27.5893 19.8347H24.4283C24.1919 19.8347 24 19.6427 24 19.406C24 19.1694 24.1919 18.9774 24.4283 18.9774H27.2981L28.8143 15.2483C28.8748 15.0991 29.014 14.9967 29.1742 14.9826C29.3335 14.9688 29.4868 15.0447 29.5725 15.1797C29.6967 15.3769 32.6007 20.0233 33.4659 24.7683C33.5075 25.0001 33.3546 25.2222 33.1233 25.2655L33.0419 25.274Z" fill="url(#paint44_linear_21385_87847)"/>
<path fill-rule="evenodd" clip-rule="evenodd" d="M33.0419 25.274C32.9858 25.2732 32.9305 25.2617 32.8791 25.2399C32.6606 25.1507 32.5552 24.9017 32.6435 24.6827C32.999 23.8254 34.9393 19.4276 35.0207 19.2433C35.0892 19.0864 35.2438 18.9857 35.4147 18.9861H38.5715C38.8079 18.9861 38.9998 19.1781 38.9998 19.4148C38.9998 19.6513 38.8079 19.8434 38.5715 19.8434H35.6932C35.2648 20.8164 33.74 24.2626 33.4402 24.987C33.3806 25.1567 33.2217 25.2715 33.0419 25.274Z" fill="url(#paint45_linear_21385_87847)"/>
<path fill-rule="evenodd" clip-rule="evenodd" d="M33.98 17.1043C32.8479 17.1562 31.8885 16.2796 31.8367 15.1471C31.7848 14.0143 32.6607 13.0541 33.7923 13.0023C33.8549 12.9992 33.9174 12.9992 33.98 13.0023C34.0618 13.0031 34.1436 13.01 34.2241 13.0237C34.4036 13.0502 34.5509 13.1792 34.601 13.3537C34.6464 13.5264 34.5796 13.7091 34.434 13.8123C34.2626 13.9234 34.1595 14.1137 34.1599 14.3181C34.1624 14.6525 34.434 14.9225 34.7681 14.9225C34.957 14.9234 35.1352 14.8342 35.2478 14.6825C35.3892 14.4926 35.6573 14.4531 35.8471 14.5946C35.9477 14.6692 36.0102 14.7845 36.0188 14.9096C36.0222 14.9581 36.0222 15.0069 36.0188 15.0554C36.0167 16.1827 35.1065 17.0974 33.98 17.1043ZM33.329 14.0524C32.7721 14.4069 32.6076 15.1458 32.9619 15.703C33.3156 16.2607 34.0545 16.4253 34.6113 16.0709C34.7373 15.9907 34.8469 15.8874 34.9351 15.7669C34.8794 15.7712 34.8238 15.7712 34.7681 15.7669C33.9607 15.7669 33.3058 15.1133 33.3032 14.3053C33.3041 14.2204 33.3127 14.1356 33.329 14.0524Z" fill="url(#paint46_linear_21385_87847)"/>
<path fill-rule="evenodd" clip-rule="evenodd" d="M55.1878 113.596H27.4787C26.6625 113.596 26 112.933 26 112.117V75.4797C26 74.6628 26.6625 74 27.4787 74H33.393C34.2094 74 34.8717 74.6628 34.8717 75.4797C34.8717 76.2964 34.2094 76.9594 33.393 76.9594H28.9572V110.637H53.7092V76.9594H38.0063C37.1901 76.9594 36.5278 76.2964 36.5278 75.4797C36.5278 74.6628 37.1901 74 38.0063 74H55.1878C56.004 74 56.6663 74.6628 56.6663 75.4797V112.117C56.6663 112.933 56.004 113.596 55.1878 113.596Z" fill="url(#paint47_linear_21385_87847)"/>
<path fill-rule="evenodd" clip-rule="evenodd" d="M48.9034 83.737H44.6449C43.8288 83.737 43.1663 83.0742 43.1663 82.2573C43.1663 81.0292 41.88 80.896 41.333 80.896C40.7858 80.896 39.4995 81.0292 39.4995 82.2573C39.4995 83.0742 38.837 83.737 38.0208 83.737H33.7624C32.7364 83.7297 31.9069 82.8995 31.8994 81.8725V75.8651C31.8994 75.0482 32.5619 74.3854 33.3782 74.3854C34.1942 74.3854 34.8567 75.0482 34.8567 75.8651V80.7776H36.7789C38.012 78.2606 41.049 77.2203 43.5641 78.453C44.5755 78.9487 45.3917 79.7671 45.887 80.7776H47.8092V76.4716C47.2622 75.8651 47.3095 74.9298 47.9155 74.3823C48.1862 74.1366 48.5382 74.0021 48.9034 74.0006C49.9326 74.0006 50.7665 74.8351 50.7665 75.8651V81.8725C50.759 82.8995 49.9295 83.7297 48.9034 83.737Z" fill="url(#paint48_linear_21385_87847)"/>
<path fill-rule="evenodd" clip-rule="evenodd" d="M41.3332 102.469C40.5169 102.469 39.8545 101.806 39.8545 100.99V91.135C39.8545 90.3183 40.5169 89.6553 41.3332 89.6553C42.1494 89.6553 42.8119 90.3183 42.8119 91.135V100.99C42.8119 101.806 42.1494 102.469 41.3332 102.469Z" fill="url(#paint49_linear_21385_87847)"/>
<path fill-rule="evenodd" clip-rule="evenodd" d="M46.2573 97.5422H36.4097C35.5936 97.5422 34.9312 96.8792 34.9312 96.0623C34.9312 95.2455 35.5936 94.5827 36.4097 94.5827H46.2573C47.0735 94.5827 47.736 95.2455 47.736 96.0623C47.736 96.8792 47.0735 97.5422 46.2573 97.5422Z" fill="url(#paint50_linear_21385_87847)"/>
<path fill-rule="evenodd" clip-rule="evenodd" d="M33.4664 59.6329H13.2627C12.5658 59.6329 12 59.0667 12 58.3692V31.2637C12 30.5662 12.5658 30 13.2627 30H33.4664C34.1634 30 34.7291 30.5662 34.7291 31.2637V58.3692C34.7291 59.0667 34.1634 59.6329 33.4664 59.6329ZM14.5255 57.1056H32.2037V32.5275H14.5255V57.1056Z" fill="url(#paint51_linear_21385_87847)"/>
<path fill-rule="evenodd" clip-rule="evenodd" d="M33.4664 67H13.2627C12.5658 67 12 66.4337 12 65.7363V58.3692C12 57.6717 12.5658 57.1054 13.2627 57.1054H33.4664C34.1634 57.1054 34.7291 57.6717 34.7291 58.3692C34.7291 59.0667 34.1634 59.6329 33.4664 59.6329L14.5255 59.6328V64.4726H32.2037V62.0464C32.2037 61.3489 32.7693 60.7827 33.4664 60.7827C34.1634 60.7827 34.7291 61.3489 34.7291 62.0464V65.7363C34.7291 66.4337 34.1634 67 33.4664 67Z" fill="url(#paint52_linear_21385_87847)"/>
<path fill-rule="evenodd" clip-rule="evenodd" d="M23.3647 63.6638C22.4658 63.6638 21.7358 62.9335 21.7358 62.0338C21.7358 61.134 22.4658 60.4035 23.3647 60.4035C24.264 60.4035 24.9938 61.134 24.9938 62.0338C25.0014 62.9272 24.2828 63.6563 23.3901 63.6638C23.3812 63.6638 23.3736 63.6638 23.3647 63.6638ZM23.3647 61.1365C22.8622 61.1365 22.4556 61.5434 22.4556 62.0464C22.4556 62.5493 22.8622 62.9562 23.3647 62.9562C23.8674 62.9562 24.274 62.5493 24.274 62.0464C24.274 62.0426 24.274 62.0374 24.274 62.0338C24.274 61.5384 23.8724 61.1365 23.3774 61.1365C23.3736 61.1365 23.3686 61.1365 23.3647 61.1365Z" fill="url(#paint53_linear_21385_87847)"/>
<path fill-rule="evenodd" clip-rule="evenodd" d="M25.2707 49.0558C24.8391 49.052 24.4388 48.8283 24.2101 48.4619C24.0208 48.1712 23.6924 47.5899 23.301 46.9202C22.7706 46.0103 21.8236 44.3928 21.2048 43.4451C21.0156 43.8874 20.826 44.4561 20.7124 44.7972C20.5988 45.1384 20.4472 45.5806 20.321 45.8587C20.1177 46.3111 19.6681 46.603 19.1718 46.6042H16.8106C16.1136 46.6042 15.5478 46.038 15.5478 45.3406C15.5478 44.6431 16.1136 44.0769 16.8106 44.0769H18.2879V44.0011C18.7298 42.6741 19.235 41.1577 20.3967 40.6649C20.9018 40.4312 21.4827 40.4312 21.9878 40.6649C22.6444 40.9557 23.2504 41.7643 25.2961 45.3532C26.0412 44.4055 26.8114 44.0894 28.7434 44.0894H29.943C30.6399 44.0894 31.2057 44.6557 31.2057 45.3532C31.2057 46.0508 30.6399 46.6169 29.943 46.6169H28.7434C27.4806 46.6169 27.4806 46.6169 26.6851 47.8805L26.319 48.4619C26.0929 48.8334 25.6927 49.062 25.2582 49.0684L25.2707 49.0558Z" fill="url(#paint54_linear_21385_87847)"/>
<path fill-rule="evenodd" clip-rule="evenodd" d="M139.747 106C139.471 106 139.248 105.776 139.248 105.5V104.5H138.499C138.223 104.5 138 104.276 138 104V99.5C138 99.2237 138.223 99 138.499 99H144.645C144.782 99 144.894 99.112 144.894 99.25C144.894 99.388 144.782 99.5 144.645 99.5H138.499V104H139.498C139.635 104 139.747 104.112 139.747 104.25V105.5L140.92 104.09C140.968 104.033 141.038 104 141.113 104H145.488V101.453C145.488 100.425 145.488 100.172 145.488 100.115C145.477 99.9775 145.579 99.8565 145.716 99.845C145.717 99.845 145.717 99.845 145.718 99.845C145.855 99.835 145.974 99.9377 145.985 100.075C145.985 100.192 146 100.642 146 101.453V104C146 104.276 145.777 104.5 145.501 104.5H141.23L140.132 105.82C140.037 105.934 139.896 106 139.747 106Z" fill="url(#paint55_linear_21385_87847)"/>
<path fill-rule="evenodd" clip-rule="evenodd" d="M86.7473 25C86.4714 25 86.248 24.7762 86.248 24.5V23.5H85.4992C85.2234 23.5 85 23.2762 85 23V18.5C85 18.2237 85.2234 18 85.4992 18H91.6446C91.7824 18 91.8942 18.112 91.8942 18.25C91.8942 18.388 91.7824 18.5 91.6446 18.5H85.4992V23H86.4977C86.6355 23 86.7473 23.112 86.7473 23.25V24.5L87.9204 23.09C87.9679 23.0327 88.0385 23 88.1126 23H92.4883V20.4525C92.4883 19.425 92.4883 19.1725 92.4883 19.115C92.4768 18.9775 92.5789 18.8565 92.7164 18.845C92.7169 18.845 92.7175 18.845 92.7179 18.845C92.855 18.835 92.9743 18.9377 92.985 19.075C92.985 19.1925 93 19.6425 93 20.4525V23C93 23.2762 92.7766 23.5 92.5008 23.5H88.2299L87.1317 24.82C87.0365 24.9342 86.8958 25.0002 86.7473 25Z" fill="url(#paint56_linear_21385_87847)"/>
<path fill-rule="evenodd" clip-rule="evenodd" d="M1.74726 61C1.47144 61 1.24803 60.7762 1.24803 60.5V59.5H0.499227C0.22338 59.5 0 59.2762 0 59V54.5C0 54.2237 0.22338 54 0.499227 54H6.64462C6.7824 54 6.89422 54.112 6.89422 54.25C6.89422 54.388 6.7824 54.5 6.64462 54.5H0.499227V59H1.49765C1.63545 59 1.74726 59.112 1.74726 59.25V60.5L2.92043 59.09C2.96786 59.0327 3.03849 59 3.11262 59H7.48829V56.4525C7.48829 55.425 7.48829 55.1725 7.48829 55.115C7.47681 54.9775 7.5789 54.8565 7.71645 54.845C7.71694 54.845 7.71746 54.845 7.71793 54.845C7.85498 54.835 7.97431 54.9378 7.98501 55.075C7.98501 55.1925 8 55.6425 8 56.4525V59C8 59.2762 7.77661 59.5 7.50079 59.5H3.22994L2.13165 60.82C2.03655 60.9342 1.89577 61.0002 1.74726 61Z" fill="url(#paint57_linear_21385_87847)"/>
<path fill-rule="evenodd" clip-rule="evenodd" d="M249.387 123.998H204.571C203.701 123.995 202.997 123.283 203 122.407C203.002 122.162 203.058 121.919 203.168 121.699C203.168 121.699 204.838 118.353 206.319 115.355C206.746 114.575 207.718 114.291 208.493 114.721C209.268 115.151 209.55 116.129 209.123 116.909L207.122 120.858H246.772L242.897 113.293H210.084C209.214 113.293 208.509 112.583 208.509 111.708V88.5858C208.509 87.7106 209.214 87 210.084 87H243.873C244.743 87 245.448 87.7106 245.448 88.5858V107.045C245.448 107.921 244.743 108.631 243.873 108.631H227.853V105.459H242.314V90.1561H211.659V110.09H243.873C244.462 110.089 245.004 110.42 245.275 110.947L250.789 121.683C251.07 122.173 251.07 122.779 250.789 123.269C250.485 123.748 249.951 124.025 249.387 123.998Z" fill="url(#paint58_linear_21385_87847)"/>
<path fill-rule="evenodd" clip-rule="evenodd" d="M226.042 105.274C225.832 105.277 225.651 105.129 225.614 104.923C224.971 101.416 223.116 97.8673 222.268 96.3714L220.983 99.5689C220.918 99.7288 220.762 99.8338 220.589 99.8347H217.428C217.192 99.8347 217 99.6427 217 99.406C217 99.1694 217.192 98.9774 217.428 98.9774H220.298L221.814 95.2483C221.875 95.0991 222.014 94.9967 222.174 94.9826C222.333 94.9688 222.487 95.0447 222.572 95.1797C222.697 95.3769 225.601 100.023 226.466 104.768C226.508 105 226.355 105.222 226.123 105.265L226.042 105.274Z" fill="url(#paint59_linear_21385_87847)"/>
<path fill-rule="evenodd" clip-rule="evenodd" d="M226.042 105.274C225.986 105.273 225.93 105.262 225.879 105.24C225.661 105.151 225.555 104.902 225.644 104.683C225.999 103.825 227.939 99.4276 228.021 99.2433C228.089 99.0864 228.244 98.9857 228.415 98.9861H231.572C231.808 98.9861 232 99.1781 232 99.4148C232 99.6513 231.808 99.8434 231.572 99.8434H228.693C228.265 100.816 226.74 104.263 226.44 104.987C226.381 105.157 226.222 105.271 226.042 105.274Z" fill="url(#paint60_linear_21385_87847)"/>
<path fill-rule="evenodd" clip-rule="evenodd" d="M226.98 97.1043C225.848 97.1562 224.888 96.2796 224.837 95.1471C224.785 94.0143 225.661 93.0541 226.792 93.0023C226.855 92.9992 226.917 92.9992 226.98 93.0023C227.062 93.0031 227.144 93.0099 227.224 93.0237C227.404 93.0502 227.551 93.1792 227.601 93.3537C227.646 93.5264 227.58 93.7091 227.434 93.8123C227.263 93.9234 227.159 94.1137 227.16 94.3181C227.162 94.6525 227.434 94.9225 227.768 94.9225C227.957 94.9234 228.135 94.8342 228.248 94.6825C228.389 94.4926 228.657 94.4531 228.847 94.5946C228.948 94.6692 229.01 94.7845 229.019 94.9097C229.022 94.9581 229.022 95.0069 229.019 95.0554C229.017 96.1827 228.107 97.0974 226.98 97.1043ZM226.329 94.0524C225.772 94.4069 225.608 95.1458 225.962 95.703C226.316 96.2607 227.055 96.4253 227.611 96.0709C227.737 95.9907 227.847 95.8874 227.935 95.7669C227.879 95.7712 227.824 95.7712 227.768 95.7669C226.961 95.7669 226.306 95.1133 226.303 94.3053C226.304 94.2204 226.313 94.1356 226.329 94.0524Z" fill="url(#paint61_linear_21385_87847)"/>
<path fill-rule="evenodd" clip-rule="evenodd" d="M202 79H140C138.343 79 137 80.3431 137 82V90C137 91.6569 138.343 93 140 93H202C203.657 93 205 91.6569 205 90V82C205 80.3431 203.657 79 202 79ZM140 78C137.791 78 136 79.7909 136 82V90C136 92.2091 137.791 94 140 94H202C204.209 94 206 92.2091 206 90V82C206 79.7909 204.209 78 202 78H140Z" fill="url(#paint62_linear_21385_87847)"/>
<path d="M151.508 84.9414C151.508 85.6641 151.26 86.2207 150.766 86.6113C150.274 86.9987 149.569 87.1924 148.651 87.1924H147.812V90H146.981V82.8613H148.832C150.616 82.8613 151.508 83.5547 151.508 84.9414ZM147.812 86.4795H148.559C149.294 86.4795 149.826 86.3607 150.155 86.123C150.484 85.8854 150.648 85.5046 150.648 84.9805C150.648 84.5085 150.494 84.1569 150.185 83.9258C149.875 83.6947 149.394 83.5791 148.739 83.5791H147.812V86.4795Z" fill="url(#paint63_linear_21385_87847)"/>
<path d="M153.837 87.0312V90H153.007V82.8613H154.965C155.84 82.8613 156.487 83.029 156.903 83.3643C157.323 83.6995 157.533 84.2041 157.533 84.8779C157.533 85.8219 157.055 86.46 156.098 86.792L158.036 90H157.055L155.326 87.0312H153.837ZM153.837 86.3184H154.975C155.561 86.3184 155.99 86.2028 156.264 85.9717C156.537 85.7373 156.674 85.3874 156.674 84.9219C156.674 84.4499 156.534 84.1097 156.254 83.9014C155.977 83.693 155.531 83.5889 154.916 83.5889H153.837V86.3184Z" fill="url(#paint64_linear_21385_87847)"/>
<path d="M163.168 90H159.188V82.8613H163.168V83.5986H160.019V85.8984H162.978V86.6309H160.019V89.2578H163.168V90Z" fill="url(#paint65_linear_21385_87847)"/>
<path d="M168.783 88.1006C168.783 88.7288 168.555 89.2188 168.1 89.5703C167.644 89.9219 167.025 90.0977 166.244 90.0977C165.398 90.0977 164.747 89.9886 164.291 89.7705V88.9697C164.584 89.0934 164.903 89.1911 165.248 89.2627C165.593 89.3343 165.935 89.3701 166.273 89.3701C166.827 89.3701 167.243 89.266 167.523 89.0576C167.803 88.846 167.943 88.5531 167.943 88.1787C167.943 87.9313 167.893 87.7295 167.792 87.5732C167.694 87.4137 167.528 87.2673 167.294 87.1338C167.063 87.0003 166.71 86.849 166.234 86.6797C165.57 86.4421 165.095 86.1605 164.809 85.835C164.525 85.5094 164.384 85.0846 164.384 84.5605C164.384 84.0104 164.59 83.5726 165.004 83.2471C165.417 82.9215 165.964 82.7588 166.645 82.7588C167.354 82.7588 168.007 82.889 168.603 83.1494L168.344 83.8721C167.755 83.6247 167.182 83.501 166.625 83.501C166.186 83.501 165.842 83.5954 165.595 83.7842C165.347 83.973 165.224 84.235 165.224 84.5703C165.224 84.8177 165.269 85.0212 165.36 85.1807C165.451 85.3369 165.604 85.4818 165.819 85.6152C166.037 85.7454 166.369 85.8903 166.815 86.0498C167.564 86.3167 168.078 86.6032 168.358 86.9092C168.642 87.2152 168.783 87.6123 168.783 88.1006Z" fill="url(#paint66_linear_21385_87847)"/>
<path d="M173.3 83.501C172.515 83.501 171.895 83.763 171.439 84.2871C170.987 84.8079 170.761 85.5225 170.761 86.4307C170.761 87.3649 170.979 88.0876 171.415 88.5986C171.854 89.1064 172.479 89.3604 173.29 89.3604C173.788 89.3604 174.356 89.2708 174.994 89.0918V89.8193C174.499 90.0049 173.889 90.0977 173.163 90.0977C172.112 90.0977 171.299 89.7786 170.727 89.1406C170.157 88.5026 169.872 87.596 169.872 86.4209C169.872 85.6852 170.009 85.0407 170.282 84.4873C170.559 83.9339 170.956 83.5075 171.474 83.208C171.994 82.9085 172.606 82.7588 173.31 82.7588C174.058 82.7588 174.713 82.8955 175.272 83.1689L174.921 83.8818C174.381 83.6279 173.84 83.501 173.3 83.501Z" fill="url(#paint67_linear_21385_87847)"/>
<path d="M177.382 87.0312V90H176.552V82.8613H178.51C179.385 82.8613 180.032 83.029 180.448 83.3643C180.868 83.6995 181.078 84.2041 181.078 84.8779C181.078 85.8219 180.6 86.46 179.643 86.792L181.581 90H180.6L178.871 87.0312H177.382ZM177.382 86.3184H178.52C179.105 86.3184 179.535 86.2028 179.809 85.9717C180.082 85.7373 180.219 85.3874 180.219 84.9219C180.219 84.4499 180.079 84.1097 179.799 83.9014C179.522 83.693 179.076 83.5889 178.461 83.5889H177.382V86.3184Z" fill="url(#paint68_linear_21385_87847)"/>
<path d="M182.733 90V82.8613H183.563V90H182.733Z" fill="url(#paint69_linear_21385_87847)"/>
<path d="M185.526 82.8613H187.543C188.49 82.8613 189.175 83.0029 189.599 83.2861C190.022 83.5693 190.233 84.0169 190.233 84.6289C190.233 85.0521 190.115 85.402 189.877 85.6787C189.643 85.9521 189.299 86.1296 188.847 86.2109V86.2598C189.931 86.4453 190.473 87.015 190.473 87.9688C190.473 88.6068 190.256 89.1048 189.823 89.4629C189.394 89.821 188.791 90 188.017 90H185.526V82.8613ZM186.356 85.918H187.724C188.31 85.918 188.731 85.8268 188.988 85.6445C189.245 85.459 189.374 85.1481 189.374 84.7119C189.374 84.3115 189.231 84.0234 188.944 83.8477C188.658 83.6686 188.202 83.5791 187.577 83.5791H186.356V85.918ZM186.356 86.6211V89.292H187.846C188.422 89.292 188.855 89.1813 189.145 88.96C189.438 88.7354 189.584 88.3854 189.584 87.9102C189.584 87.4674 189.434 87.1419 189.135 86.9336C188.839 86.7253 188.386 86.6211 187.777 86.6211H186.356Z" fill="url(#paint70_linear_21385_87847)"/>
<path d="M195.99 90H192.011V82.8613H195.99V83.5986H192.841V85.8984H195.8V86.6309H192.841V89.2578H195.99V90Z" fill="url(#paint71_linear_21385_87847)"/>
<path fill-rule="evenodd" clip-rule="evenodd" d="M134.348 31.4359C133.346 31.4359 132.534 30.6228 132.534 29.619V25.9853H129.814C128.812 25.9853 128 25.1723 128 24.1685V20.5348C128 20.0333 128.406 19.6263 128.907 19.6263C129.407 19.6263 129.814 20.0333 129.814 20.5348V24.1685H133.441C133.941 24.1685 134.348 24.5755 134.348 25.0769V29.619L138.609 24.4955C138.782 24.2874 139.038 24.1685 139.308 24.1685H155.204V14.9207C155.204 14.412 155.204 13.8942 155.204 13.3946C154.842 13.4054 154.48 13.3755 154.125 13.3037C153.061 13.0912 152.168 12.3726 151.731 11.3778C151.25 10.4131 151.641 9.2394 152.604 8.75799C153.015 8.5518 153.487 8.49811 153.934 8.60721C154.976 8.88241 155.857 9.5801 156.364 10.533C156.477 10.7628 156.574 10.999 156.654 11.2416C156.978 11.0917 157.283 10.9027 157.561 10.6783C157.955 10.3677 158.525 10.434 158.835 10.8283C159.145 11.2225 159.079 11.7939 158.686 12.1046C158.161 12.4988 157.576 12.805 156.954 13.013C157.008 13.6489 157.008 14.2848 157.008 14.8844V24.1685C157.008 25.1723 156.197 25.9853 155.195 25.9853H139.734L135.744 30.7818C135.399 31.1969 134.887 31.4367 134.348 31.4359ZM153.444 10.3786C153.4 10.375 153.357 10.3913 153.327 10.424C153.308 10.5167 153.308 10.613 153.327 10.7056C153.544 11.1389 153.955 11.4423 154.433 11.5231C154.54 11.5477 154.65 11.5632 154.759 11.5686C154.729 11.4914 154.697 11.4151 154.66 11.3415C154.398 10.8919 153.982 10.553 153.49 10.3876L153.444 10.3786ZM128.907 11.3324C128.406 11.3324 128 10.9254 128 10.424V7.8168C128 6.813 128.812 6 129.814 6H152.139C152.639 6 153.045 6.4069 153.045 6.9084C153.045 7.4099 152.639 7.8168 152.139 7.8168H129.814V10.424C129.814 10.9254 129.407 11.3324 128.907 11.3324Z" fill="url(#paint72_linear_21385_87847)"/>
<path fill-rule="evenodd" clip-rule="evenodd" d="M128.907 23.8866C128.406 23.8866 128 23.4797 128 22.9782V20.3075C127.995 19.6143 128.255 18.9448 128.725 18.4361C128.255 17.9274 127.995 17.2578 128 16.5647V15.7653C127.995 15.0722 128.255 14.4026 128.725 13.8939C128.255 13.3852 127.995 12.7157 128 12.0226V9.35176C128 8.85036 128.406 8.44336 128.907 8.44336C129.407 8.44336 129.814 8.85036 129.814 9.35176V12.0226C129.808 12.5358 130.209 12.961 130.72 12.9855H148.24C148.74 12.9855 149.146 13.3925 149.146 13.8939C149.146 14.3954 148.74 14.8024 148.24 14.8024H130.766C130.254 14.8269 129.854 15.252 129.859 15.7653V16.5647C129.854 17.078 130.254 17.5031 130.766 17.5277H140.958C141.459 17.5277 141.865 17.9346 141.865 18.4361C141.865 18.9375 141.459 19.3445 140.958 19.3445H130.766C130.254 19.3691 129.854 19.7942 129.859 20.3075V22.9782C129.86 23.4797 129.455 23.8876 128.953 23.8876C128.938 23.8876 128.922 23.8876 128.907 23.8866Z" fill="url(#paint73_linear_21385_87847)"/>
<path fill-rule="evenodd" clip-rule="evenodd" d="M178.994 111.448C178.72 111.449 178.497 111.228 178.495 110.955C178.495 110.821 178.547 110.693 178.642 110.6L184.242 105L178.994 99.7475L173.745 105L178.26 109.518C178.454 109.713 178.454 110.028 178.26 110.223C178.066 110.417 177.751 110.417 177.556 110.223L172.694 105.352C172.5 105.159 172.499 104.845 172.691 104.651C172.693 104.65 172.693 104.649 172.694 104.648L178.642 98.696C178.835 98.5015 179.148 98.5002 179.343 98.6931C179.344 98.6941 179.345 98.695 179.346 98.696L185.293 104.648C185.487 104.841 185.489 105.155 185.296 105.349C185.295 105.35 185.294 105.351 185.293 105.352L179.346 111.304C179.252 111.397 179.126 111.449 178.994 111.448Z" fill="url(#paint74_linear_21385_87847)"/>
<path fill-rule="evenodd" clip-rule="evenodd" d="M179.519 102.718C179.519 102.992 179.297 103.214 179.024 103.214C178.75 103.214 178.528 102.992 178.528 102.718C178.528 102.444 178.75 102.222 179.024 102.222C179.297 102.222 179.519 102.444 179.519 102.718Z" fill="url(#paint75_linear_21385_87847)"/>
<path fill-rule="evenodd" clip-rule="evenodd" d="M181.769 104.97C181.769 105.244 181.547 105.466 181.274 105.466C181 105.466 180.778 105.244 180.778 104.97C180.778 104.696 181 104.474 181.274 104.474C181.547 104.474 181.769 104.696 181.769 104.97Z" fill="url(#paint76_linear_21385_87847)"/>
<path fill-rule="evenodd" clip-rule="evenodd" d="M177.21 105.03C177.21 105.304 176.988 105.526 176.714 105.526C176.44 105.526 176.218 105.304 176.218 105.03C176.218 104.756 176.44 104.534 176.714 104.534C176.988 104.534 177.21 104.756 177.21 105.03Z" fill="url(#paint77_linear_21385_87847)"/>
<path fill-rule="evenodd" clip-rule="evenodd" d="M179.46 107.281C179.46 107.555 179.238 107.777 178.964 107.777C178.69 107.777 178.468 107.555 178.468 107.281C178.468 107.007 178.69 106.785 178.964 106.785C179.238 106.785 179.46 107.007 179.46 107.281Z" fill="url(#paint78_linear_21385_87847)"/>
<path fill-rule="evenodd" clip-rule="evenodd" d="M176.803 113C176.263 113 175.744 112.786 175.361 112.405L171.594 108.635C170.802 107.837 170.802 106.547 171.594 105.749L171.738 105.605C171.931 105.413 172.244 105.413 172.437 105.605C172.631 105.798 172.633 106.112 172.44 106.306C172.439 106.307 172.438 106.308 172.437 106.309L172.298 106.448C171.888 106.855 171.884 107.517 172.29 107.928C172.293 107.931 172.296 107.933 172.298 107.936L176.065 111.705C176.48 112.106 177.137 112.106 177.552 111.705L185.695 103.557C186.105 103.15 186.109 102.487 185.703 102.076C185.7 102.074 185.697 102.071 185.695 102.069L181.928 98.2991C181.513 97.8985 180.856 97.8985 180.441 98.2991L173.393 105.352C173.199 105.545 172.885 105.544 172.692 105.349C172.499 105.155 172.5 104.841 172.694 104.648L179.742 97.5948C180.54 96.8017 181.829 96.8017 182.627 97.5948L186.394 101.364C187.186 102.163 187.186 103.452 186.394 104.251L178.246 112.405C177.864 112.788 177.344 113.002 176.803 113Z" fill="url(#paint79_linear_21385_87847)"/>
<defs>
<linearGradient id="paint0_linear_21385_87847" x1="258.811" y1="62.4335" x2="-11.9772" y2="62.4336" gradientUnits="userSpaceOnUse">
<stop stop-color="#00A3E0"/>
<stop offset="1" stop-color="#98D8F0"/>
</linearGradient>
<linearGradient id="paint1_linear_21385_87847" x1="258.811" y1="62.4335" x2="-11.9772" y2="62.4336" gradientUnits="userSpaceOnUse">
<stop stop-color="#00A3E0"/>
<stop offset="1" stop-color="#98D8F0"/>
</linearGradient>
<linearGradient id="paint2_linear_21385_87847" x1="258.811" y1="62.4335" x2="-11.9772" y2="62.4336" gradientUnits="userSpaceOnUse">
<stop stop-color="#00A3E0"/>
<stop offset="1" stop-color="#98D8F0"/>
</linearGradient>
<linearGradient id="paint3_linear_21385_87847" x1="258.811" y1="62.4335" x2="-11.9772" y2="62.4336" gradientUnits="userSpaceOnUse">
<stop stop-color="#00A3E0"/>
<stop offset="1" stop-color="#98D8F0"/>
</linearGradient>
<linearGradient id="paint4_linear_21385_87847" x1="258.811" y1="62.4335" x2="-11.9772" y2="62.4336" gradientUnits="userSpaceOnUse">
<stop stop-color="#00A3E0"/>
<stop offset="1" stop-color="#98D8F0"/>
</linearGradient>
<linearGradient id="paint5_linear_21385_87847" x1="258.811" y1="62.4335" x2="-11.9772" y2="62.4336" gradientUnits="userSpaceOnUse">
<stop stop-color="#00A3E0"/>
<stop offset="1" stop-color="#98D8F0"/>
</linearGradient>
<linearGradient id="paint6_linear_21385_87847" x1="258.811" y1="62.4335" x2="-11.9772" y2="62.4336" gradientUnits="userSpaceOnUse">
<stop stop-color="#00A3E0"/>
<stop offset="1" stop-color="#98D8F0"/>
</linearGradient>
<linearGradient id="paint7_linear_21385_87847" x1="258.811" y1="62.4335" x2="-11.9772" y2="62.4336" gradientUnits="userSpaceOnUse">
<stop stop-color="#00A3E0"/>
<stop offset="1" stop-color="#98D8F0"/>
</linearGradient>
<linearGradient id="paint8_linear_21385_87847" x1="258.811" y1="62.4335" x2="-11.9772" y2="62.4336" gradientUnits="userSpaceOnUse">
<stop stop-color="#00A3E0"/>
<stop offset="1" stop-color="#98D8F0"/>
</linearGradient>
<linearGradient id="paint9_linear_21385_87847" x1="258.811" y1="62.4335" x2="-11.9772" y2="62.4336" gradientUnits="userSpaceOnUse">
<stop stop-color="#00A3E0"/>
<stop offset="1" stop-color="#98D8F0"/>
</linearGradient>
<linearGradient id="paint10_linear_21385_87847" x1="258.811" y1="62.4335" x2="-11.9772" y2="62.4336" gradientUnits="userSpaceOnUse">
<stop stop-color="#00A3E0"/>
<stop offset="1" stop-color="#98D8F0"/>
</linearGradient>
<linearGradient id="paint11_linear_21385_87847" x1="258.811" y1="62.4335" x2="-11.9772" y2="62.4336" gradientUnits="userSpaceOnUse">
<stop stop-color="#00A3E0"/>
<stop offset="1" stop-color="#98D8F0"/>
</linearGradient>
<linearGradient id="paint12_linear_21385_87847" x1="258.811" y1="62.4335" x2="-11.9772" y2="62.4336" gradientUnits="userSpaceOnUse">
<stop stop-color="#00A3E0"/>
<stop offset="1" stop-color="#98D8F0"/>
</linearGradient>
<linearGradient id="paint13_linear_21385_87847" x1="258.811" y1="62.4335" x2="-11.9772" y2="62.4336" gradientUnits="userSpaceOnUse">
<stop stop-color="#00A3E0"/>
<stop offset="1" stop-color="#98D8F0"/>
</linearGradient>
<linearGradient id="paint14_linear_21385_87847" x1="258.811" y1="62.4335" x2="-11.9772" y2="62.4336" gradientUnits="userSpaceOnUse">
<stop stop-color="#00A3E0"/>
<stop offset="1" stop-color="#98D8F0"/>
</linearGradient>
<linearGradient id="paint15_linear_21385_87847" x1="258.811" y1="62.4335" x2="-11.9772" y2="62.4336" gradientUnits="userSpaceOnUse">
<stop stop-color="#00A3E0"/>
<stop offset="1" stop-color="#98D8F0"/>
</linearGradient>
<linearGradient id="paint16_linear_21385_87847" x1="258.811" y1="62.4335" x2="-11.9772" y2="62.4336" gradientUnits="userSpaceOnUse">
<stop stop-color="#00A3E0"/>
<stop offset="1" stop-color="#98D8F0"/>
</linearGradient>
<linearGradient id="paint17_linear_21385_87847" x1="258.811" y1="62.4335" x2="-11.9772" y2="62.4336" gradientUnits="userSpaceOnUse">
<stop stop-color="#00A3E0"/>
<stop offset="1" stop-color="#98D8F0"/>
</linearGradient>
<linearGradient id="paint18_linear_21385_87847" x1="258.811" y1="62.4335" x2="-11.9772" y2="62.4336" gradientUnits="userSpaceOnUse">
<stop stop-color="#00A3E0"/>
<stop offset="1" stop-color="#98D8F0"/>
</linearGradient>
<linearGradient id="paint19_linear_21385_87847" x1="258.811" y1="62.4335" x2="-11.9772" y2="62.4336" gradientUnits="userSpaceOnUse">
<stop stop-color="#00A3E0"/>
<stop offset="1" stop-color="#98D8F0"/>
</linearGradient>
<linearGradient id="paint20_linear_21385_87847" x1="258.811" y1="62.4335" x2="-11.9772" y2="62.4336" gradientUnits="userSpaceOnUse">
<stop stop-color="#00A3E0"/>
<stop offset="1" stop-color="#98D8F0"/>
</linearGradient>
<linearGradient id="paint21_linear_21385_87847" x1="258.811" y1="62.4335" x2="-11.9772" y2="62.4336" gradientUnits="userSpaceOnUse">
<stop stop-color="#00A3E0"/>
<stop offset="1" stop-color="#98D8F0"/>
</linearGradient>
<linearGradient id="paint22_linear_21385_87847" x1="258.811" y1="62.4335" x2="-11.9772" y2="62.4336" gradientUnits="userSpaceOnUse">
<stop stop-color="#00A3E0"/>
<stop offset="1" stop-color="#98D8F0"/>
</linearGradient>
<linearGradient id="paint23_linear_21385_87847" x1="258.811" y1="62.4335" x2="-11.9772" y2="62.4336" gradientUnits="userSpaceOnUse">
<stop stop-color="#00A3E0"/>
<stop offset="1" stop-color="#98D8F0"/>
</linearGradient>
<linearGradient id="paint24_linear_21385_87847" x1="258.811" y1="62.4335" x2="-11.9772" y2="62.4336" gradientUnits="userSpaceOnUse">
<stop stop-color="#00A3E0"/>
<stop offset="1" stop-color="#98D8F0"/>
</linearGradient>
<linearGradient id="paint25_linear_21385_87847" x1="258.811" y1="62.4335" x2="-11.9772" y2="62.4336" gradientUnits="userSpaceOnUse">
<stop stop-color="#00A3E0"/>
<stop offset="1" stop-color="#98D8F0"/>
</linearGradient>
<linearGradient id="paint26_linear_21385_87847" x1="258.811" y1="62.4335" x2="-11.9772" y2="62.4336" gradientUnits="userSpaceOnUse">
<stop stop-color="#00A3E0"/>
<stop offset="1" stop-color="#98D8F0"/>
</linearGradient>
<linearGradient id="paint27_linear_21385_87847" x1="258.811" y1="62.4335" x2="-11.9772" y2="62.4336" gradientUnits="userSpaceOnUse">
<stop stop-color="#00A3E0"/>
<stop offset="1" stop-color="#98D8F0"/>
</linearGradient>
<linearGradient id="paint28_linear_21385_87847" x1="258.811" y1="62.4335" x2="-11.9772" y2="62.4336" gradientUnits="userSpaceOnUse">
<stop stop-color="#00A3E0"/>
<stop offset="1" stop-color="#98D8F0"/>
</linearGradient>
<linearGradient id="paint29_linear_21385_87847" x1="258.811" y1="62.4335" x2="-11.9772" y2="62.4336" gradientUnits="userSpaceOnUse">
<stop stop-color="#00A3E0"/>
<stop offset="1" stop-color="#98D8F0"/>
</linearGradient>
<linearGradient id="paint30_linear_21385_87847" x1="258.811" y1="62.4335" x2="-11.9772" y2="62.4336" gradientUnits="userSpaceOnUse">
<stop stop-color="#00A3E0"/>
<stop offset="1" stop-color="#98D8F0"/>
</linearGradient>
<linearGradient id="paint31_linear_21385_87847" x1="258.811" y1="62.4335" x2="-11.9772" y2="62.4336" gradientUnits="userSpaceOnUse">
<stop stop-color="#00A3E0"/>
<stop offset="1" stop-color="#98D8F0"/>
</linearGradient>
<linearGradient id="paint32_linear_21385_87847" x1="258.811" y1="62.4335" x2="-11.9772" y2="62.4336" gradientUnits="userSpaceOnUse">
<stop stop-color="#00A3E0"/>
<stop offset="1" stop-color="#98D8F0"/>
</linearGradient>
<linearGradient id="paint33_linear_21385_87847" x1="258.811" y1="62.4335" x2="-11.9772" y2="62.4336" gradientUnits="userSpaceOnUse">
<stop stop-color="#00A3E0"/>
<stop offset="1" stop-color="#98D8F0"/>
</linearGradient>
<linearGradient id="paint34_linear_21385_87847" x1="258.811" y1="62.4335" x2="-11.9772" y2="62.4336" gradientUnits="userSpaceOnUse">
<stop stop-color="#00A3E0"/>
<stop offset="1" stop-color="#98D8F0"/>
</linearGradient>
<linearGradient id="paint35_linear_21385_87847" x1="258.811" y1="62.4335" x2="-11.9772" y2="62.4336" gradientUnits="userSpaceOnUse">
<stop stop-color="#00A3E0"/>
<stop offset="1" stop-color="#98D8F0"/>
</linearGradient>
<linearGradient id="paint36_linear_21385_87847" x1="258.811" y1="62.4335" x2="-11.9772" y2="62.4336" gradientUnits="userSpaceOnUse">
<stop stop-color="#00A3E0"/>
<stop offset="1" stop-color="#98D8F0"/>
</linearGradient>
<linearGradient id="paint37_linear_21385_87847" x1="258.811" y1="62.4335" x2="-11.9772" y2="62.4336" gradientUnits="userSpaceOnUse">
<stop stop-color="#00A3E0"/>
<stop offset="1" stop-color="#98D8F0"/>
</linearGradient>
<linearGradient id="paint38_linear_21385_87847" x1="258.811" y1="62.4335" x2="-11.9772" y2="62.4336" gradientUnits="userSpaceOnUse">
<stop stop-color="#00A3E0"/>
<stop offset="1" stop-color="#98D8F0"/>
</linearGradient>
<linearGradient id="paint39_linear_21385_87847" x1="258.811" y1="62.4335" x2="-11.9772" y2="62.4336" gradientUnits="userSpaceOnUse">
<stop stop-color="#00A3E0"/>
<stop offset="1" stop-color="#98D8F0"/>
</linearGradient>
<linearGradient id="paint40_linear_21385_87847" x1="258.811" y1="62.4335" x2="-11.9772" y2="62.4336" gradientUnits="userSpaceOnUse">
<stop stop-color="#00A3E0"/>
<stop offset="1" stop-color="#98D8F0"/>
</linearGradient>
<linearGradient id="paint41_linear_21385_87847" x1="258.811" y1="62.4335" x2="-11.9772" y2="62.4336" gradientUnits="userSpaceOnUse">
<stop stop-color="#00A3E0"/>
<stop offset="1" stop-color="#98D8F0"/>
</linearGradient>
<linearGradient id="paint42_linear_21385_87847" x1="258.811" y1="62.4335" x2="-11.9772" y2="62.4336" gradientUnits="userSpaceOnUse">
<stop stop-color="#00A3E0"/>
<stop offset="1" stop-color="#98D8F0"/>
</linearGradient>
<linearGradient id="paint43_linear_21385_87847" x1="258.811" y1="62.4335" x2="-11.9772" y2="62.4336" gradientUnits="userSpaceOnUse">
<stop stop-color="#00A3E0"/>
<stop offset="1" stop-color="#98D8F0"/>
</linearGradient>
<linearGradient id="paint44_linear_21385_87847" x1="258.811" y1="62.4335" x2="-11.9772" y2="62.4336" gradientUnits="userSpaceOnUse">
<stop stop-color="#00A3E0"/>
<stop offset="1" stop-color="#98D8F0"/>
</linearGradient>
<linearGradient id="paint45_linear_21385_87847" x1="258.811" y1="62.4335" x2="-11.9772" y2="62.4336" gradientUnits="userSpaceOnUse">
<stop stop-color="#00A3E0"/>
<stop offset="1" stop-color="#98D8F0"/>
</linearGradient>
<linearGradient id="paint46_linear_21385_87847" x1="258.811" y1="62.4335" x2="-11.9772" y2="62.4336" gradientUnits="userSpaceOnUse">
<stop stop-color="#00A3E0"/>
<stop offset="1" stop-color="#98D8F0"/>
</linearGradient>
<linearGradient id="paint47_linear_21385_87847" x1="258.811" y1="62.4335" x2="-11.9772" y2="62.4336" gradientUnits="userSpaceOnUse">
<stop stop-color="#00A3E0"/>
<stop offset="1" stop-color="#98D8F0"/>
</linearGradient>
<linearGradient id="paint48_linear_21385_87847" x1="258.811" y1="62.4335" x2="-11.9772" y2="62.4336" gradientUnits="userSpaceOnUse">
<stop stop-color="#00A3E0"/>
<stop offset="1" stop-color="#98D8F0"/>
</linearGradient>
<linearGradient id="paint49_linear_21385_87847" x1="258.811" y1="62.4335" x2="-11.9772" y2="62.4336" gradientUnits="userSpaceOnUse">
<stop stop-color="#00A3E0"/>
<stop offset="1" stop-color="#98D8F0"/>
</linearGradient>
<linearGradient id="paint50_linear_21385_87847" x1="258.811" y1="62.4335" x2="-11.9772" y2="62.4336" gradientUnits="userSpaceOnUse">
<stop stop-color="#00A3E0"/>
<stop offset="1" stop-color="#98D8F0"/>
</linearGradient>
<linearGradient id="paint51_linear_21385_87847" x1="258.811" y1="62.4335" x2="-11.9772" y2="62.4336" gradientUnits="userSpaceOnUse">
<stop stop-color="#00A3E0"/>
<stop offset="1" stop-color="#98D8F0"/>
</linearGradient>
<linearGradient id="paint52_linear_21385_87847" x1="258.811" y1="62.4335" x2="-11.9772" y2="62.4336" gradientUnits="userSpaceOnUse">
<stop stop-color="#00A3E0"/>
<stop offset="1" stop-color="#98D8F0"/>
</linearGradient>
<linearGradient id="paint53_linear_21385_87847" x1="258.811" y1="62.4335" x2="-11.9772" y2="62.4336" gradientUnits="userSpaceOnUse">
<stop stop-color="#00A3E0"/>
<stop offset="1" stop-color="#98D8F0"/>
</linearGradient>
<linearGradient id="paint54_linear_21385_87847" x1="258.811" y1="62.4335" x2="-11.9772" y2="62.4336" gradientUnits="userSpaceOnUse">
<stop stop-color="#00A3E0"/>
<stop offset="1" stop-color="#98D8F0"/>
</linearGradient>
<linearGradient id="paint55_linear_21385_87847" x1="258.811" y1="62.4335" x2="-11.9772" y2="62.4336" gradientUnits="userSpaceOnUse">
<stop stop-color="#00A3E0"/>
<stop offset="1" stop-color="#98D8F0"/>
</linearGradient>
<linearGradient id="paint56_linear_21385_87847" x1="258.811" y1="62.4335" x2="-11.9772" y2="62.4336" gradientUnits="userSpaceOnUse">
<stop stop-color="#00A3E0"/>
<stop offset="1" stop-color="#98D8F0"/>
</linearGradient>
<linearGradient id="paint57_linear_21385_87847" x1="258.811" y1="62.4335" x2="-11.9772" y2="62.4336" gradientUnits="userSpaceOnUse">
<stop stop-color="#00A3E0"/>
<stop offset="1" stop-color="#98D8F0"/>
</linearGradient>
<linearGradient id="paint58_linear_21385_87847" x1="258.811" y1="62.4335" x2="-11.9772" y2="62.4336" gradientUnits="userSpaceOnUse">
<stop stop-color="#00A3E0"/>
<stop offset="1" stop-color="#98D8F0"/>
</linearGradient>
<linearGradient id="paint59_linear_21385_87847" x1="258.811" y1="62.4335" x2="-11.9772" y2="62.4336" gradientUnits="userSpaceOnUse">
<stop stop-color="#00A3E0"/>
<stop offset="1" stop-color="#98D8F0"/>
</linearGradient>
<linearGradient id="paint60_linear_21385_87847" x1="258.811" y1="62.4335" x2="-11.9772" y2="62.4336" gradientUnits="userSpaceOnUse">
<stop stop-color="#00A3E0"/>
<stop offset="1" stop-color="#98D8F0"/>
</linearGradient>
<linearGradient id="paint61_linear_21385_87847" x1="258.811" y1="62.4335" x2="-11.9772" y2="62.4336" gradientUnits="userSpaceOnUse">
<stop stop-color="#00A3E0"/>
<stop offset="1" stop-color="#98D8F0"/>
</linearGradient>
<linearGradient id="paint62_linear_21385_87847" x1="258.811" y1="62.4335" x2="-11.9772" y2="62.4336" gradientUnits="userSpaceOnUse">
<stop stop-color="#00A3E0"/>
<stop offset="1" stop-color="#98D8F0"/>
</linearGradient>
<linearGradient id="paint63_linear_21385_87847" x1="258.811" y1="62.4335" x2="-11.9772" y2="62.4336" gradientUnits="userSpaceOnUse">
<stop stop-color="#00A3E0"/>
<stop offset="1" stop-color="#98D8F0"/>
</linearGradient>
<linearGradient id="paint64_linear_21385_87847" x1="258.811" y1="62.4335" x2="-11.9772" y2="62.4336" gradientUnits="userSpaceOnUse">
<stop stop-color="#00A3E0"/>
<stop offset="1" stop-color="#98D8F0"/>
</linearGradient>
<linearGradient id="paint65_linear_21385_87847" x1="258.811" y1="62.4335" x2="-11.9772" y2="62.4336" gradientUnits="userSpaceOnUse">
<stop stop-color="#00A3E0"/>
<stop offset="1" stop-color="#98D8F0"/>
</linearGradient>
<linearGradient id="paint66_linear_21385_87847" x1="258.811" y1="62.4335" x2="-11.9772" y2="62.4336" gradientUnits="userSpaceOnUse">
<stop stop-color="#00A3E0"/>
<stop offset="1" stop-color="#98D8F0"/>
</linearGradient>
<linearGradient id="paint67_linear_21385_87847" x1="258.811" y1="62.4335" x2="-11.9772" y2="62.4336" gradientUnits="userSpaceOnUse">
<stop stop-color="#00A3E0"/>
<stop offset="1" stop-color="#98D8F0"/>
</linearGradient>
<linearGradient id="paint68_linear_21385_87847" x1="258.811" y1="62.4335" x2="-11.9772" y2="62.4336" gradientUnits="userSpaceOnUse">
<stop stop-color="#00A3E0"/>
<stop offset="1" stop-color="#98D8F0"/>
</linearGradient>
<linearGradient id="paint69_linear_21385_87847" x1="258.811" y1="62.4335" x2="-11.9772" y2="62.4336" gradientUnits="userSpaceOnUse">
<stop stop-color="#00A3E0"/>
<stop offset="1" stop-color="#98D8F0"/>
</linearGradient>
<linearGradient id="paint70_linear_21385_87847" x1="258.811" y1="62.4335" x2="-11.9772" y2="62.4336" gradientUnits="userSpaceOnUse">
<stop stop-color="#00A3E0"/>
<stop offset="1" stop-color="#98D8F0"/>
</linearGradient>
<linearGradient id="paint71_linear_21385_87847" x1="258.811" y1="62.4335" x2="-11.9772" y2="62.4336" gradientUnits="userSpaceOnUse">
<stop stop-color="#00A3E0"/>
<stop offset="1" stop-color="#98D8F0"/>
</linearGradient>
<linearGradient id="paint72_linear_21385_87847" x1="258.811" y1="62.4335" x2="-11.9772" y2="62.4336" gradientUnits="userSpaceOnUse">
<stop stop-color="#00A3E0"/>
<stop offset="1" stop-color="#98D8F0"/>
</linearGradient>
<linearGradient id="paint73_linear_21385_87847" x1="258.811" y1="62.4335" x2="-11.9772" y2="62.4336" gradientUnits="userSpaceOnUse">
<stop stop-color="#00A3E0"/>
<stop offset="1" stop-color="#98D8F0"/>
</linearGradient>
<linearGradient id="paint74_linear_21385_87847" x1="258.811" y1="62.4335" x2="-11.9772" y2="62.4336" gradientUnits="userSpaceOnUse">
<stop stop-color="#00A3E0"/>
<stop offset="1" stop-color="#98D8F0"/>
</linearGradient>
<linearGradient id="paint75_linear_21385_87847" x1="258.811" y1="62.4335" x2="-11.9772" y2="62.4336" gradientUnits="userSpaceOnUse">
<stop stop-color="#00A3E0"/>
<stop offset="1" stop-color="#98D8F0"/>
</linearGradient>
<linearGradient id="paint76_linear_21385_87847" x1="258.811" y1="62.4335" x2="-11.9772" y2="62.4336" gradientUnits="userSpaceOnUse">
<stop stop-color="#00A3E0"/>
<stop offset="1" stop-color="#98D8F0"/>
</linearGradient>
<linearGradient id="paint77_linear_21385_87847" x1="258.811" y1="62.4335" x2="-11.9772" y2="62.4336" gradientUnits="userSpaceOnUse">
<stop stop-color="#00A3E0"/>
<stop offset="1" stop-color="#98D8F0"/>
</linearGradient>
<linearGradient id="paint78_linear_21385_87847" x1="258.811" y1="62.4335" x2="-11.9772" y2="62.4336" gradientUnits="userSpaceOnUse">
<stop stop-color="#00A3E0"/>
<stop offset="1" stop-color="#98D8F0"/>
</linearGradient>
<linearGradient id="paint79_linear_21385_87847" x1="258.811" y1="62.4335" x2="-11.9772" y2="62.4336" gradientUnits="userSpaceOnUse">
<stop stop-color="#00A3E0"/>
<stop offset="1" stop-color="#98D8F0"/>
</linearGradient>
</defs>
</svg>
