<svg width="100%" height="100%" viewBox="0 0 251 110" fill="none" xmlns="http://www.w3.org/2000/svg">
<path fill-rule="evenodd" clip-rule="evenodd" d="M159.029 58.3467H156.693C155.141 58.3505 153.834 57.1874 153.656 55.6457L150.695 37.7271C150.467 36.0573 151.635 34.5192 153.304 34.2913C153.441 34.2726 153.58 34.2632 153.719 34.2633H157.33V33.2504C157.33 32.5598 157.89 32 158.579 32C159.269 32 159.829 32.5598 159.829 33.2504V37.7271C159.829 38.4175 159.269 38.9774 158.579 38.9774C157.89 38.9774 157.33 38.4175 157.33 37.7271V36.7517H153.756C153.597 36.7503 153.448 36.8189 153.344 36.9392C153.238 37.0534 153.186 37.2091 153.206 37.3643L156.168 55.2456C156.187 55.5457 156.429 55.7833 156.73 55.7958H159.067C159.757 55.7958 160.316 56.356 160.316 57.0462C160.316 57.7366 159.757 58.2967 159.067 58.2967L159.029 58.3467Z" fill="url(#paint0_linear_21385_87848)"/>
<path fill-rule="evenodd" clip-rule="evenodd" d="M167.226 58.3466H162.228C161.538 58.3466 160.978 57.7865 160.978 57.0962C160.978 56.406 161.538 55.8457 162.228 55.8457H167.226C167.507 55.847 167.743 55.637 167.776 55.3581L170.762 37.3644C170.764 37.2244 170.709 37.0892 170.612 36.9892C170.508 36.8689 170.358 36.8003 170.2 36.8016H166.626V37.727C166.626 38.4175 166.066 38.9773 165.377 38.9773C164.687 38.9773 164.127 38.4175 164.127 37.727V33.2879C164.127 32.5973 164.687 32.0375 165.377 32.0375C166.066 32.0375 166.626 32.5973 166.626 33.2879V34.3008H170.2C171.884 34.295 173.254 35.6561 173.259 37.3412C173.26 37.4702 173.252 37.599 173.236 37.727L170.25 55.7333C170.037 57.2388 168.745 58.3554 167.226 58.3466Z" fill="url(#paint1_linear_21385_87848)"/>
<path fill-rule="evenodd" clip-rule="evenodd" d="M171.612 68C168.497 68.0049 165.53 66.6707 163.465 64.3362C162.449 63.2058 161.687 61.8715 161.229 60.4223C160.66 58.6504 160.705 56.7383 161.354 54.9953C161.552 54.3376 162.245 53.9637 162.903 54.1574C163.564 54.355 163.94 55.0515 163.743 55.7143L163.74 55.7206C163.24 56.9785 163.192 58.3703 163.603 59.6595C164.715 63.1457 167.956 65.5092 171.612 65.499C176.247 65.4915 180.002 61.734 180.009 57.096C180.009 56.4058 180.569 55.8456 181.259 55.8456C181.948 55.8456 182.508 56.4058 182.508 57.096C182.501 63.1156 177.627 67.9925 171.612 68Z" fill="url(#paint2_linear_21385_87848)"/>
<path fill-rule="evenodd" clip-rule="evenodd" d="M181.258 58.3466C178.366 58.354 176.017 56.0133 176.01 53.1197C176.003 50.2261 178.341 47.8749 181.233 47.8679C184.124 47.8611 186.473 50.2011 186.481 53.0948C186.481 53.0985 186.481 53.1034 186.481 53.1073C186.482 53.5925 186.419 54.0764 186.294 54.5453C186.104 55.2118 185.41 55.5981 184.744 55.408C184.078 55.2181 183.692 54.524 183.882 53.8575C183.953 53.6137 183.987 53.3611 183.982 53.1073C183.982 51.5942 182.756 50.3689 181.245 50.3689C179.733 50.3689 178.509 51.5955 178.509 53.1073C178.509 54.6204 179.735 55.8457 181.245 55.8457C181.249 55.8457 181.255 55.8456 181.259 55.8456C181.692 55.8468 182.119 55.7494 182.507 55.558C183.118 55.248 183.866 55.4869 184.182 56.0958C184.5 56.7086 184.26 57.4638 183.648 57.7814C183.647 57.7826 183.646 57.7826 183.644 57.7839C182.905 58.1577 182.086 58.3515 181.258 58.3466Z" fill="url(#paint3_linear_21385_87848)"/>
<path fill-rule="evenodd" clip-rule="evenodd" d="M194.555 107.05H193.841C193.367 107.051 192.968 106.696 192.914 106.225L192.009 100.75C191.939 100.24 192.296 99.7697 192.806 99.7C192.848 99.6943 192.89 99.6914 192.933 99.6915H194.036V99.382C194.036 99.171 194.207 98.9999 194.418 98.9999C194.629 98.9999 194.8 99.171 194.8 99.382V100.75C194.8 100.961 194.629 101.132 194.418 101.132C194.207 101.132 194.036 100.961 194.036 100.75V100.452H192.944C192.896 100.451 192.85 100.472 192.818 100.509C192.786 100.544 192.77 100.592 192.776 100.639L193.681 106.103C193.687 106.194 193.761 106.267 193.853 106.271H194.567C194.778 106.271 194.949 106.442 194.949 106.653C194.949 106.864 194.778 107.035 194.567 107.035L194.555 107.05Z" fill="url(#paint4_linear_21385_87848)"/>
<path fill-rule="evenodd" clip-rule="evenodd" d="M197.06 107.05H195.533C195.322 107.05 195.151 106.879 195.151 106.668C195.151 106.457 195.322 106.286 195.533 106.286H197.06C197.146 106.286 197.218 106.222 197.228 106.137L198.14 100.639C198.141 100.596 198.124 100.555 198.095 100.524C198.063 100.488 198.017 100.467 197.969 100.467H196.877V100.75C196.877 100.961 196.706 101.132 196.495 101.132C196.284 101.132 196.113 100.961 196.113 100.75V99.3934C196.113 99.1824 196.284 99.0114 196.495 99.0114C196.706 99.0114 196.877 99.1824 196.877 99.3934V99.7029H197.969C198.483 99.7012 198.902 100.117 198.903 100.632C198.904 100.671 198.901 100.711 198.896 100.75L197.984 106.252C197.919 106.712 197.524 107.053 197.06 107.05Z" fill="url(#paint5_linear_21385_87848)"/>
<path fill-rule="evenodd" clip-rule="evenodd" d="M198.4 110C197.448 110.002 196.542 109.594 195.911 108.881C195.6 108.535 195.368 108.127 195.227 107.685C195.054 107.143 195.068 106.559 195.266 106.026C195.326 105.825 195.538 105.711 195.739 105.77C195.941 105.831 196.056 106.044 195.996 106.246L195.995 106.248C195.842 106.632 195.827 107.058 195.953 107.452C196.293 108.517 197.283 109.239 198.4 109.236C199.816 109.234 200.964 108.085 200.966 106.668C200.966 106.457 201.137 106.286 201.348 106.286C201.559 106.286 201.73 106.457 201.73 106.668C201.727 108.508 200.238 109.998 198.4 110Z" fill="url(#paint6_linear_21385_87848)"/>
<path fill-rule="evenodd" clip-rule="evenodd" d="M201.347 107.05C200.464 107.053 199.746 106.337 199.744 105.453C199.742 104.569 200.456 103.851 201.34 103.848C202.223 103.846 202.941 104.561 202.943 105.446C202.943 105.447 202.943 105.448 202.943 105.449C202.944 105.598 202.924 105.745 202.886 105.889C202.828 106.092 202.616 106.21 202.412 106.152C202.209 106.094 202.091 105.882 202.149 105.679C202.171 105.604 202.181 105.527 202.18 105.449C202.18 104.987 201.805 104.613 201.343 104.613C200.881 104.613 200.507 104.987 200.507 105.449C200.507 105.912 200.882 106.286 201.343 106.286C201.345 106.286 201.347 106.286 201.348 106.286C201.48 106.287 201.61 106.257 201.729 106.198C201.916 106.103 202.144 106.176 202.241 106.363C202.338 106.55 202.265 106.781 202.078 106.878C202.077 106.878 202.077 106.878 202.076 106.878C201.85 106.993 201.6 107.052 201.347 107.05Z" fill="url(#paint7_linear_21385_87848)"/>
<path fill-rule="evenodd" clip-rule="evenodd" d="M72.5553 11.0503H71.8413C71.3671 11.0515 70.9678 10.6961 70.9135 10.225L70.0087 4.74986C69.9392 4.23966 70.2958 3.76967 70.8059 3.70004C70.8478 3.69431 70.8903 3.69145 70.9326 3.69149H72.036V3.382C72.036 3.17098 72.2071 2.99992 72.4178 2.99992C72.6286 2.99992 72.7996 3.17098 72.7996 3.382V4.74986C72.7996 4.96083 72.6286 5.1319 72.4178 5.1319C72.2071 5.1319 72.036 4.96083 72.036 4.74986V4.45182H70.9441C70.8956 4.4514 70.8498 4.47236 70.8181 4.50911C70.7856 4.54401 70.77 4.59159 70.7761 4.639L71.6809 10.1027C71.6867 10.1944 71.7607 10.267 71.8528 10.2709H72.5667C72.7775 10.2709 72.9486 10.442 72.9486 10.6529C72.9486 10.8639 72.7775 11.035 72.5667 11.035L72.5553 11.0503Z" fill="url(#paint8_linear_21385_87848)"/>
<path fill-rule="evenodd" clip-rule="evenodd" d="M75.0599 11.0503H73.5327C73.322 11.0503 73.1509 10.8791 73.1509 10.6682C73.1509 10.4573 73.322 10.2861 73.5327 10.2861H75.0599C75.1458 10.2865 75.218 10.2223 75.2279 10.1371L76.1404 4.63904C76.1411 4.59626 76.1244 4.55496 76.0946 4.52439C76.0629 4.48763 76.0171 4.46667 75.9686 4.46709H74.8766V4.74984C74.8766 4.96082 74.7056 5.13188 74.4949 5.13188C74.2841 5.13188 74.1131 4.96082 74.1131 4.74984V3.39344C74.1131 3.18243 74.2841 3.01137 74.4949 3.01137C74.7056 3.01137 74.8766 3.18243 74.8766 3.39344V3.70293H75.9686C76.4833 3.70116 76.9017 4.11705 76.9033 4.63196C76.9037 4.67137 76.9014 4.71073 76.8964 4.74984L75.9839 10.2518C75.9189 10.7118 75.5242 11.053 75.0599 11.0503Z" fill="url(#paint9_linear_21385_87848)"/>
<path fill-rule="evenodd" clip-rule="evenodd" d="M76.4002 14C75.4484 14.0015 74.5416 13.5938 73.9109 12.8805C73.6005 12.5351 73.3676 12.1274 73.2275 11.6846C73.0538 11.1432 73.0675 10.5589 73.2657 10.0263C73.3264 9.82539 73.5379 9.71112 73.7391 9.77032C73.9411 9.83069 74.056 10.0435 73.9957 10.246L73.9949 10.248C73.8421 10.6323 73.8273 11.0576 73.9529 11.4515C74.2927 12.5167 75.2831 13.2389 76.4002 13.2358C77.8163 13.2335 78.9636 12.0854 78.966 10.6682C78.966 10.4573 79.137 10.2862 79.3477 10.2862C79.5585 10.2862 79.7296 10.4573 79.7296 10.6682C79.7273 12.5075 78.2382 13.9977 76.4002 14Z" fill="url(#paint10_linear_21385_87848)"/>
<path fill-rule="evenodd" clip-rule="evenodd" d="M79.3473 11.0503C78.4637 11.0525 77.7459 10.3373 77.7437 9.45316C77.7417 8.56901 78.4561 7.85058 79.3396 7.84844C80.2231 7.84637 80.9409 8.56135 80.9432 9.44554C80.9432 9.44668 80.9432 9.44819 80.9432 9.44937C80.9436 9.59761 80.9241 9.74548 80.8859 9.88875C80.8279 10.0924 80.616 10.2105 80.4125 10.1524C80.209 10.0943 80.091 9.88226 80.149 9.67861C80.1708 9.60409 80.1811 9.52692 80.1796 9.44937C80.1796 8.98705 79.805 8.61263 79.3434 8.61263C78.8814 8.61263 78.5073 8.98742 78.5073 9.44937C78.5073 9.91169 78.8818 10.2861 79.3434 10.2861C79.3446 10.2861 79.3466 10.2862 79.3477 10.2862C79.4802 10.2865 79.6103 10.2567 79.729 10.1982C79.9157 10.1035 80.144 10.1765 80.2407 10.3625C80.338 10.5498 80.2647 10.7805 80.0776 10.8776C80.0772 10.8779 80.0769 10.8779 80.0765 10.8783C79.8505 10.9925 79.6004 11.0518 79.3473 11.0503Z" fill="url(#paint11_linear_21385_87848)"/>
<path fill-rule="evenodd" clip-rule="evenodd" d="M69.428 57C64.5729 57.006 60.631 53.0741 60.6201 48.2153V39.3812C60.6201 38.8355 61.0625 38.3931 61.6075 38.3931C62.1526 38.3931 62.595 38.8355 62.595 39.3812V48.1758C62.6177 51.9574 65.6995 55.0049 69.4784 54.9831C69.7618 54.9811 70.0452 54.9614 70.3266 54.9248C73.7816 54.3923 76.3114 51.3873 76.2511 47.8892V42.3359C76.2511 41.79 76.6935 41.3476 77.2386 41.3476C77.7836 41.3476 78.226 41.79 78.226 42.3359V47.8892C78.2921 52.3665 75.0455 56.2056 70.6229 56.8814C70.2278 56.9525 69.829 56.992 69.428 57Z" fill="url(#paint12_linear_21385_87848)"/>
<path fill-rule="evenodd" clip-rule="evenodd" d="M61.6067 40.3689H59.9874C59.4424 40.3689 59 39.9265 59 39.3808C59 38.835 59.4424 38.3926 59.9874 38.3926H60.5304L59.543 26.426C59.4985 25.9423 59.8126 25.4981 60.2837 25.3788L69.1705 23.0368C69.3453 22.9878 69.5289 22.9878 69.7037 23.0368L78.4426 25.6356C78.8779 25.7624 79.1712 26.17 79.1534 26.6238L78.1661 36.5053C78.1127 38.6496 76.3601 40.3598 74.2162 40.359H61.6067V40.3689ZM62.5152 38.3926H74.236C75.3272 38.3926 76.2109 37.5079 76.2109 36.4163L77.0897 27.3056L69.3877 25.023L61.4882 27.0783L62.5152 38.3926Z" fill="url(#paint13_linear_21385_87848)"/>
<path fill-rule="evenodd" clip-rule="evenodd" d="M70.7995 36.9407H67.531C66.986 36.9407 66.5436 36.4983 66.5436 35.9525V34.4405H65.0329C64.4878 34.4405 64.0454 33.9981 64.0454 33.4525V30.1816C64.0454 29.6359 64.4878 29.1935 65.0329 29.1935H66.5436V27.6816C66.5436 27.1358 66.986 26.6934 67.531 26.6934H70.7995C71.3445 26.6934 71.7869 27.1358 71.7869 27.6816V29.1935H73.2976C73.8427 29.1935 74.2851 29.6359 74.2851 30.1816V33.4525C74.2851 33.9981 73.8427 34.4405 73.2976 34.4405H71.7869V35.9525C71.7869 36.4983 71.3445 36.9407 70.7995 36.9407ZM68.5185 34.9643H69.812V33.4525C69.812 32.9066 70.2544 32.4642 70.7995 32.4642H72.3102V31.1698H70.7995C70.2544 31.1698 69.812 30.7274 69.812 30.1816V28.6697H68.5185V30.1816C68.5185 30.7274 68.0761 31.1698 67.531 31.1698H66.0203V32.4642H67.531C68.0761 32.4642 68.5185 32.9066 68.5185 33.4525V34.9643Z" fill="url(#paint14_linear_21385_87848)"/>
<path fill-rule="evenodd" clip-rule="evenodd" d="M195.294 20C193.295 20.0025 191.671 18.3834 191.667 16.3828V12.7452C191.667 12.5205 191.849 12.3383 192.074 12.3383C192.298 12.3383 192.48 12.5205 192.48 12.7452V16.3665C192.49 17.9236 193.759 19.1785 195.315 19.1695C195.431 19.1687 195.548 19.1606 195.664 19.1455C197.086 18.9262 198.128 17.6889 198.103 16.2485V13.9618C198.103 13.7371 198.285 13.5549 198.51 13.5549C198.734 13.5549 198.916 13.7371 198.916 13.9618V16.2485C198.944 18.0921 197.607 19.6729 195.786 19.9512C195.623 19.9805 195.459 19.9967 195.294 20Z" fill="url(#paint15_linear_21385_87848)"/>
<path fill-rule="evenodd" clip-rule="evenodd" d="M192.073 13.1519H191.407C191.182 13.1519 191 12.9697 191 12.745C191 12.5203 191.182 12.3381 191.407 12.3381H191.63L191.224 7.41071C191.205 7.21151 191.335 7.02863 191.529 6.97949L195.188 6.01515C195.26 5.99497 195.335 5.99497 195.407 6.01515L199.006 7.08525C199.185 7.13744 199.306 7.30526 199.298 7.49214L198.892 11.561C198.87 12.4439 198.148 13.1481 197.266 13.1478H192.073V13.1519ZM192.447 12.3381H197.274C197.723 12.3381 198.087 11.9738 198.087 11.5244L198.449 7.7729L195.277 6.833L192.025 7.67928L192.447 12.3381Z" fill="url(#paint16_linear_21385_87848)"/>
<path fill-rule="evenodd" clip-rule="evenodd" d="M195.859 11.7402H194.513C194.288 11.7402 194.106 11.5581 194.106 11.3333V10.7108H193.484C193.26 10.7108 193.078 10.5286 193.078 10.3039V8.95709C193.078 8.73237 193.26 8.5502 193.484 8.5502H194.106V7.92765C194.106 7.70293 194.288 7.52076 194.513 7.52076H195.859C196.083 7.52076 196.265 7.70293 196.265 7.92765V8.5502H196.887C197.112 8.5502 197.294 8.73237 197.294 8.95709V10.3039C197.294 10.5286 197.112 10.7108 196.887 10.7108H196.265V11.3333C196.265 11.5581 196.083 11.7402 195.859 11.7402ZM194.919 10.9264H195.452V10.3039C195.452 10.0791 195.634 9.89698 195.859 9.89698H196.481V9.36398H195.859C195.634 9.36398 195.452 9.18181 195.452 8.95709V8.33453H194.919V8.95709C194.919 9.18181 194.737 9.36398 194.513 9.36398H193.891V9.89698H194.513C194.737 9.89698 194.919 10.0791 194.919 10.3039V10.9264Z" fill="url(#paint17_linear_21385_87848)"/>
<path fill-rule="evenodd" clip-rule="evenodd" d="M216.288 79.8744C215.725 79.8724 215.179 79.6833 214.736 79.3367C206.914 73.8675 200.295 66.8528 195.291 58.7228C194.731 57.7766 195.042 56.5558 195.988 55.9941C196.933 55.4325 198.153 55.7453 198.714 56.6912C203.345 64.1779 209.437 70.6549 216.626 75.7319C217.522 75.3136 220.03 73.6404 226.578 67.1875L227.175 66.6099C231.506 62.3616 235.499 57.7786 239.116 52.907H227.911C224.627 52.9667 224.627 52.9667 222.637 55.7351L221.841 56.9102C221.47 57.4459 220.86 57.7648 220.209 57.7668C219.6 57.7231 219.037 57.4261 218.656 56.9501C218.238 56.3727 217.522 55.2571 216.666 53.9227C215.253 51.712 212.427 47.3106 211.253 45.956C210.509 47.1389 209.914 48.4099 209.481 49.7401C209.236 50.4174 208.958 51.0826 208.645 51.732C208.31 52.4152 207.615 52.8493 206.854 52.8474H190.654C189.92 52.8452 189.247 52.439 188.902 51.7917C184.424 43.3073 184.345 31.9745 194.296 25.7404C201.419 21.3528 210.599 22.3088 216.666 28.0707C220.165 25.0432 224.583 23.2887 229.205 23.0916H229.543C235.734 23.3822 241.334 26.8557 244.35 32.2731C246.716 36.6687 246.526 42.0005 243.853 46.215C243.146 47.0575 241.89 47.167 241.049 46.4599C240.399 45.9141 240.166 45.0158 240.469 44.2233C242.353 41.2038 242.482 37.4057 240.808 34.2648C238.502 30.0765 234.213 27.3636 229.443 27.0748C224.129 27.6524 220.467 29.3852 218.238 32.3728C217.867 32.8826 217.276 33.1853 216.646 33.1894C216.02 33.1894 215.43 32.8945 215.054 32.3926C210.524 26.7781 202.517 25.4358 196.405 29.2657C189.022 33.9064 188.803 42.331 191.888 49.0231H205.521C205.521 48.844 205.66 48.6647 205.72 48.4657C206.655 45.976 207.71 43.1676 209.84 42.2316C210.753 41.8333 211.792 41.8333 212.705 42.2316C213.959 42.7495 215.333 44.542 219.99 51.8514C220.109 52.0108 220.189 52.1701 220.288 52.3095C222.139 49.7603 223.393 49.0433 227.911 49.0433H242.838C243.576 49.0492 244.25 49.4634 244.589 50.1187C244.908 50.7561 244.863 51.5147 244.47 52.1104C240.137 58.3661 235.218 64.194 229.782 69.5176L229.224 70.0753C221.662 77.5443 218.338 79.8744 216.288 79.8744Z" fill="url(#paint18_linear_21385_87848)"/>
<path fill-rule="evenodd" clip-rule="evenodd" d="M46.048 54.479C45.9542 54.4787 45.8631 54.4472 45.7892 54.3894C44.4856 53.4779 43.3826 52.3088 42.5485 50.9538C42.4551 50.7961 42.5071 50.5926 42.6646 50.499C42.8221 50.4054 43.0256 50.4575 43.119 50.6152C43.8908 51.863 44.9062 52.9425 46.1044 53.7886C46.2537 53.7189 46.6716 53.44 47.7629 52.3646L47.8624 52.2683C48.5843 51.5603 49.2498 50.7964 49.8527 49.9845H47.9852C47.4378 49.9944 47.4378 49.9944 47.1061 50.4558L46.9734 50.6517C46.9116 50.741 46.81 50.7941 46.7015 50.7944C46.6 50.7872 46.5062 50.7377 46.4427 50.6583C46.3731 50.5621 46.2537 50.3762 46.111 50.1538C45.8755 49.7853 45.4045 49.0517 45.2088 48.826C45.0848 49.0231 44.9856 49.235 44.9136 49.4567C44.8727 49.5695 44.8263 49.6804 44.7742 49.7886C44.7184 49.9025 44.6026 49.9749 44.4757 49.9745H41.7756C41.6533 49.9742 41.5412 49.9065 41.4837 49.7986C40.7374 48.3845 40.7241 46.4957 42.3826 45.4567C43.5698 44.7254 45.0999 44.8848 46.111 45.8451C46.6941 45.3405 47.4306 45.0481 48.2008 45.0152H48.2572C49.2889 45.0637 50.2223 45.6426 50.725 46.5455C51.1194 47.2781 51.0877 48.1667 50.6421 48.8691C50.5243 49.0096 50.3151 49.0278 50.1748 48.91C50.0665 48.819 50.0277 48.6693 50.0782 48.5372C50.3922 48.034 50.4136 47.4009 50.1346 46.8775C49.7504 46.1794 49.0355 45.7272 48.2406 45.6791C47.3549 45.7754 46.7446 46.0642 46.3731 46.5621C46.3111 46.6471 46.2127 46.6975 46.1077 46.6982C46.0033 46.6982 45.905 46.6491 45.8423 46.5654C45.0873 45.6297 43.7528 45.4059 42.7342 46.0443C41.5036 46.8177 41.4671 48.2218 41.9813 49.3372H44.2535C44.2535 49.3073 44.2767 49.2774 44.2866 49.2443C44.4425 48.8293 44.6183 48.3613 44.9733 48.2052C45.1255 48.1389 45.2986 48.1389 45.4509 48.2052C45.6599 48.2916 45.8888 48.5903 46.665 49.8086C46.6849 49.8351 46.6981 49.8617 46.7147 49.8849C47.0232 49.46 47.2322 49.3405 47.9852 49.3405H50.4729C50.596 49.3415 50.7083 49.4105 50.7649 49.5198C50.818 49.626 50.8105 49.7524 50.7449 49.8517C50.0228 50.8943 49.2031 51.8656 48.297 52.7529L48.2041 52.8459C46.9436 54.0907 46.3897 54.479 46.048 54.479Z" fill="url(#paint19_linear_21385_87848)"/>
<path fill-rule="evenodd" clip-rule="evenodd" d="M53.5206 22C53.3623 21.9994 53.2086 21.9462 53.0839 21.8487C50.8834 20.3101 49.0216 18.3367 47.6138 16.0496C47.4561 15.7834 47.5438 15.44 47.8097 15.282C48.0757 15.124 48.419 15.2119 48.5768 15.4781C49.8795 17.5842 51.5934 19.4064 53.6158 20.8346C53.8678 20.7169 54.5732 20.2462 56.4153 18.4309L56.5833 18.2684C57.8018 17.0733 58.925 15.784 59.9427 14.4135H56.7905C55.8666 14.4303 55.8666 14.4303 55.3067 15.2091L55.0827 15.5397C54.9784 15.6904 54.8068 15.7801 54.6237 15.7806C54.4524 15.7683 54.2941 15.6848 54.1869 15.5509C54.0693 15.3885 53.8678 15.0746 53.627 14.6992C53.2295 14.0773 52.4345 12.8391 52.1041 12.458C51.8948 12.7908 51.7274 13.1484 51.6058 13.5226C51.5369 13.7131 51.4585 13.9002 51.3707 14.0829C51.2764 14.2751 51.0809 14.3973 50.8668 14.3967H46.3092C46.1028 14.3961 45.9134 14.2818 45.8165 14.0997C44.5567 11.7129 44.5343 8.52471 47.3338 6.77094C49.3376 5.5366 51.9203 5.80554 53.627 7.42651C54.6112 6.57478 55.8544 6.08121 57.1544 6.02577H57.2496C58.9911 6.10752 60.5667 7.0847 61.4152 8.60873C62.0808 9.84529 62.0273 11.3453 61.2752 12.5309C61.0764 12.7679 60.7232 12.7987 60.4864 12.5998C60.3036 12.4462 60.2382 12.1935 60.3234 11.9706C60.8533 11.1211 60.8896 10.0526 60.4186 9.16904C59.77 7.99076 58.5634 7.22758 57.2216 7.14633C55.7266 7.30883 54.6964 7.79628 54.0693 8.63677C53.9648 8.7802 53.7987 8.86534 53.6214 8.86651C53.4452 8.86651 53.2793 8.78353 53.1735 8.64233C51.899 7.06285 49.6466 6.68524 47.9273 7.76269C45.8501 9.06821 45.7885 11.4382 46.6563 13.3209H50.4916C50.4916 13.2705 50.5308 13.22 50.5476 13.164C50.8108 12.4636 51.1075 11.6736 51.7066 11.4103C51.9636 11.2982 52.2558 11.2982 52.5128 11.4103C52.8656 11.556 53.2519 12.0602 54.5621 14.1165C54.5957 14.1614 54.618 14.2062 54.646 14.2454C55.1667 13.5283 55.5195 13.3265 56.7905 13.3265H60.9897C61.1973 13.3282 61.3869 13.4447 61.4824 13.6291C61.5722 13.8084 61.5594 14.0218 61.4488 14.1894C60.2299 15.9493 58.8462 17.5888 57.3168 19.0864L57.16 19.2433C55.0324 21.3445 54.0974 22 53.5206 22Z" fill="url(#paint20_linear_21385_87848)"/>
<path fill-rule="evenodd" clip-rule="evenodd" d="M8.04797 98.479C7.95417 98.4787 7.86313 98.4472 7.78925 98.3894C6.48559 97.4779 5.38257 96.3088 4.5485 94.9538C4.45509 94.7961 4.50705 94.5926 4.6646 94.499C4.82215 94.4054 5.02557 94.4575 5.11903 94.6152C5.89084 95.863 6.90619 96.9425 8.10437 97.7886C8.25365 97.7189 8.67159 97.44 9.76292 96.3646L9.86243 96.2683C10.5843 95.5603 11.2498 94.7964 11.8527 93.9845H9.98516C9.43784 93.9944 9.43784 93.9944 9.10613 94.4558L8.97344 94.6517C8.9116 94.741 8.80999 94.7941 8.70146 94.7944C8.60002 94.7872 8.50624 94.7377 8.44271 94.6583C8.37306 94.5621 8.25365 94.3762 8.11102 94.1538C7.87551 93.7853 7.40449 93.0517 7.20878 92.826C7.08479 93.0231 6.98562 93.235 6.91356 93.4567C6.87275 93.5695 6.82626 93.6804 6.77425 93.7887C6.7184 93.9025 6.60256 93.9749 6.47572 93.9745H3.77563C3.65334 93.9742 3.54115 93.9065 3.48372 93.7986C2.73738 92.3845 2.7241 90.4957 4.38263 89.4567C5.56975 88.7254 7.09985 88.8848 8.11102 89.8451C8.69409 89.3405 9.43058 89.0481 10.2008 89.0153H10.2572C11.2889 89.0637 12.2223 89.6426 12.725 90.5455C13.1194 91.2781 13.0877 92.1667 12.6421 92.8691C12.5243 93.0096 12.3151 93.0278 12.1748 92.91C12.0665 92.819 12.0277 92.6693 12.0782 92.5372C12.3922 92.034 12.4136 91.4009 12.1346 90.8774C11.7504 90.1794 11.0355 89.7272 10.2406 89.6791C9.35491 89.7754 8.74458 90.0642 8.37306 90.5621C8.31114 90.6471 8.21269 90.6975 8.10768 90.6982C8.00328 90.6982 7.90501 90.6491 7.84233 90.5654C7.08726 89.6297 5.75282 89.4059 4.73424 90.0443C3.50362 90.8177 3.46713 92.2218 3.98128 93.3372H6.25345C6.25345 93.3073 6.27666 93.2774 6.28663 93.2443C6.44254 92.8293 6.61834 92.3613 6.97326 92.2052C7.12554 92.1389 7.29864 92.1389 7.45091 92.2052C7.6599 92.2916 7.88876 92.5903 8.66497 93.8085C8.68487 93.8351 8.69812 93.8617 8.71471 93.8849C9.0232 93.46 9.23219 93.3405 9.98516 93.3405H12.4729C12.596 93.3415 12.7083 93.4105 12.7649 93.5198C12.818 93.626 12.8105 93.7524 12.7449 93.8517C12.0228 94.8943 11.2031 95.8656 10.297 96.7529L10.2041 96.8459C8.9436 98.0907 8.38965 98.479 8.04797 98.479Z" fill="url(#paint21_linear_21385_87848)"/>
<path fill-rule="evenodd" clip-rule="evenodd" d="M112.17 96.5017C111.219 96.5017 110.447 95.7299 110.447 94.7775V94.312H104.296C103.345 94.312 102.573 93.5401 102.573 92.5878V88.2772H98.2655C97.3144 88.2772 96.5425 87.5053 96.5425 86.553V78.6734C96.5425 77.7212 97.3144 76.9492 98.2655 76.9492H102.573V72.6559C102.573 71.7036 103.345 70.9317 104.296 70.9317H112.17C113.121 70.9317 113.893 71.7036 113.893 72.6559V76.9492H118.183C119.134 76.9492 119.906 77.7212 119.906 78.6734V86.553C119.906 87.5053 119.134 88.2772 118.183 88.2772H113.893V90.8636H114.134C115.085 90.8636 115.857 91.6356 115.857 92.5878C115.857 93.5401 115.085 94.312 114.134 94.312H113.893V94.7775C113.893 95.7299 113.121 96.5017 112.17 96.5017ZM106.019 90.8636H110.447V86.553C110.447 85.6008 111.219 84.8288 112.17 84.8288H116.46V80.3976H112.17C111.219 80.3976 110.447 79.6257 110.447 78.6734V74.3803H106.019V78.6734C106.019 79.6257 105.247 80.3976 104.296 80.3976H99.9883V84.8288H104.296C105.247 84.8288 106.019 85.6008 106.019 86.553V90.8636Z" fill="url(#paint22_linear_21385_87848)"/>
<path fill-rule="evenodd" clip-rule="evenodd" d="M130.277 100.656H86.9448C85.9939 100.656 85.2219 99.8847 85.2219 98.9323V68.7072H83.7231C82.772 68.7072 82 67.9352 82 66.9828C82 66.0305 82.772 65.2586 83.7231 65.2586H85.2219V64.7241C85.2219 63.7719 85.9939 62.9999 86.9448 62.9999C87.8961 62.9999 88.6679 63.7719 88.6679 64.7241V65.2586H130.277C131.228 65.2586 132 66.0305 132 66.9828V98.9323C132 99.8847 131.228 100.656 130.277 100.656ZM88.6679 97.2081H128.554V68.7072H88.6679V97.2081Z" fill="url(#paint23_linear_21385_87848)"/>
<path fill-rule="evenodd" clip-rule="evenodd" d="M118.148 71.449C117.197 71.449 116.425 70.677 116.425 69.7248V61.4484H99.9533V62.5865C99.9533 63.5387 99.1813 64.3105 98.2302 64.3105C97.2793 64.3105 96.5073 63.5387 96.5073 62.5865V59.7242C96.5073 58.7719 97.2793 58 98.2302 58H118.148C119.099 58 119.87 58.7719 119.87 59.7242V69.7248C119.87 70.677 119.099 71.449 118.148 71.449Z" fill="url(#paint24_linear_21385_87848)"/>
<path fill-rule="evenodd" clip-rule="evenodd" d="M134.522 53.694C129.573 53.694 121.877 49.6215 121.78 49.5733C121.015 49.1307 120.75 48.1536 121.186 47.384C121.621 46.6114 122.598 46.3376 123.371 46.7723C126.585 48.6558 134.12 51.2313 135.438 50.3781C135.952 49.863 136.74 49.2352 137.639 48.5108C138.957 47.4646 141.673 45.2915 141.865 44.3417C142.058 43.3919 141.367 42.909 139.969 41.6534C139.536 41.2832 139.102 40.897 138.716 40.4944C136.418 38.1603 134.426 36.1482 133.558 36.1482C132.819 36.1482 131.293 37.7581 129.364 39.8183L126.874 42.4423L111.529 27.2787L112.702 26.1358C113.2 25.6529 113.843 25.1378 114.533 24.5261C116.14 23.3027 118.631 21.3066 118.454 19.9545C118.277 18.6023 112.364 13.226 110.822 12.5175C110.034 12.1474 109.826 12.1796 109.809 12.1796C109.45 12.4661 109.12 12.7897 108.829 13.1454C108.46 13.5478 108.042 14.0147 107.496 14.5296C104.073 17.878 103.8 18.1516 104.491 22.9003C105.821 31.4785 110.729 39.086 117.988 43.8266C118.724 44.324 118.918 45.3267 118.422 46.064C117.925 46.8014 116.924 46.9961 116.189 46.4987C108.18 41.2671 102.775 32.8661 101.325 23.3993C100.458 17.5399 101.181 16.2361 105.262 12.2601C105.744 11.7933 106.13 11.3586 106.467 11.0044C108.074 9.24997 109.263 8.28407 112.171 9.63627C113.939 10.4572 121.234 16.7028 121.635 19.536C122.069 22.6427 119.001 25.1055 116.542 27.0694L116.189 27.3592L126.794 37.8063L127.034 37.5488C129.862 34.5546 131.421 32.8966 133.462 32.8805C135.647 32.8805 137.414 34.6512 140.885 38.1764C141.239 38.5306 141.608 38.8687 141.994 39.2067C143.601 40.575 145.448 42.2812 144.902 44.9372C144.517 46.8689 142.428 48.6558 139.535 50.9737C138.748 51.6176 137.929 52.2132 137.559 52.5834C136.727 53.3303 135.639 53.7279 134.522 53.694Z" fill="url(#paint25_linear_21385_87848)"/>
<path fill-rule="evenodd" clip-rule="evenodd" d="M69.2753 90.9999C68.5636 91.005 67.8704 90.7735 67.3047 90.3413C65.8472 89.2263 65.5687 87.1401 66.6829 85.6813C66.7712 85.5657 66.8671 85.4559 66.9698 85.3529L69.3064 83.0145C69.4583 82.8635 69.7037 82.8635 69.8555 83.0145C70.0118 83.1586 70.0239 83.4013 69.8828 83.5602L67.5462 85.8985C67.0344 86.4129 66.7678 87.1226 66.8141 87.8471C66.8576 88.5801 67.2207 89.2571 67.8071 89.6982C68.8587 90.4657 70.3153 90.3354 71.2147 89.3943L72.6868 87.9211C72.8394 87.7683 73.0871 87.7683 73.2397 87.9211C73.3924 88.0739 73.3924 88.3218 73.2397 88.4745L71.7677 89.9477C71.111 90.618 70.2133 90.9972 69.2753 90.9999Z" fill="url(#paint26_linear_21385_87848)"/>
<path fill-rule="evenodd" clip-rule="evenodd" d="M73.7342 87.3521C73.3354 87.3525 72.9526 87.1943 72.671 86.9118L68.8857 83.1276C68.7458 82.9641 68.7648 82.718 68.9282 82.5781C69.074 82.4531 69.289 82.4531 69.4348 82.5781L69.5906 82.7339L71.3508 80.9724C72.6446 79.6766 74.7429 79.6758 76.0377 80.9704C76.6585 81.591 77.0078 82.4326 77.0094 83.3107C77.0117 84.1886 76.6624 85.0308 76.0397 85.649L74.7934 86.8962C74.5154 87.1834 74.1337 87.3475 73.7342 87.3521ZM70.1436 83.2795L73.224 86.3622C73.5064 86.6424 73.962 86.6424 74.2444 86.3622L75.4906 85.119C76.4774 84.1263 76.4774 82.5224 75.4906 81.5297C74.4983 80.5397 72.8922 80.5397 71.8999 81.5297L70.1436 83.2795Z" fill="url(#paint27_linear_21385_87848)"/>
<path fill-rule="evenodd" clip-rule="evenodd" d="M239.5 14C234.806 14 231 10.1945 231 5.5C231 0.805612 234.806 -3 239.5 -3C244.194 -3 248 0.805612 248 5.5C248 10.1945 244.194 14 239.5 14ZM239.5 -2.29162C235.197 -2.29162 231.708 1.19681 231.708 5.5C231.708 9.80316 235.197 13.2917 239.5 13.2917C243.803 13.2917 247.292 9.80316 247.292 5.5C247.292 1.19681 243.803 -2.29162 239.5 -2.29162Z" fill="url(#paint28_linear_21385_87848)"/>
<path fill-rule="evenodd" clip-rule="evenodd" d="M217 15C214.239 15 212 12.7615 212 10C212 7.2386 214.239 5 217 5C219.761 5 222 7.2386 222 10C222 12.7615 219.761 15 217 15ZM217 5.41669C214.469 5.41669 212.417 7.46871 212.417 10C212.417 12.5313 214.469 14.5834 217 14.5834C219.531 14.5834 221.583 12.5313 221.583 10C221.583 7.46871 219.531 5.41669 217 5.41669Z" fill="url(#paint29_linear_21385_87848)"/>
<path fill-rule="evenodd" clip-rule="evenodd" d="M239 79C236.239 79 234 76.7615 234 74C234 71.2386 236.239 69 239 69C241.761 69 244 71.2386 244 74C244 76.7615 241.761 79 239 79ZM239 69.4167C236.469 69.4167 234.417 71.4687 234.417 74C234.417 76.5313 236.469 78.5834 239 78.5834C241.531 78.5834 243.583 76.5313 243.583 74C243.583 71.4687 241.531 69.4167 239 69.4167Z" fill="url(#paint30_linear_21385_87848)"/>
<path fill-rule="evenodd" clip-rule="evenodd" d="M140.5 66C138.567 66 137 64.433 137 62.5C137 60.567 138.567 59 140.5 59C142.433 59 144 60.567 144 62.5C144 64.433 142.433 66 140.5 66ZM140.5 59.2917C138.728 59.2917 137.292 60.7281 137.292 62.5C137.292 64.2719 138.728 65.7083 140.5 65.7083C142.272 65.7083 143.708 64.2719 143.708 62.5C143.708 60.7281 142.272 59.2917 140.5 59.2917Z" fill="url(#paint31_linear_21385_87848)"/>
<path fill-rule="evenodd" clip-rule="evenodd" d="M157.5 105C155.567 105 154 103.433 154 101.5C154 99.567 155.567 98 157.5 98C159.433 98 161 99.567 161 101.5C161 103.433 159.433 105 157.5 105ZM157.5 98.2917C155.728 98.2917 154.292 99.7281 154.292 101.5C154.292 103.272 155.728 104.708 157.5 104.708C159.272 104.708 160.708 103.272 160.708 101.5C160.708 99.7281 159.272 98.2917 157.5 98.2917Z" fill="url(#paint32_linear_21385_87848)"/>
<path fill-rule="evenodd" clip-rule="evenodd" d="M100.5 51C98.567 51 97 49.433 97 47.5C97 45.567 98.567 44 100.5 44C102.433 44 104 45.567 104 47.5C104 49.433 102.433 51 100.5 51ZM100.5 44.2917C98.7281 44.2917 97.2917 45.7281 97.2917 47.5C97.2917 49.2719 98.7281 50.7083 100.5 50.7083C102.272 50.7083 103.708 49.2719 103.708 47.5C103.708 45.7281 102.272 44.2917 100.5 44.2917Z" fill="url(#paint33_linear_21385_87848)"/>
<path fill-rule="evenodd" clip-rule="evenodd" d="M19.5 97C17.567 97 16 95.433 16 93.5C16 91.567 17.567 90 19.5 90C21.433 90 23 91.567 23 93.5C23 95.433 21.433 97 19.5 97ZM19.5 90.2917C17.7281 90.2917 16.2917 91.7281 16.2917 93.5C16.2917 95.2719 17.7281 96.7083 19.5 96.7083C21.2719 96.7083 22.7083 95.2719 22.7083 93.5C22.7083 91.7281 21.2719 90.2917 19.5 90.2917Z" fill="url(#paint34_linear_21385_87848)"/>
<path fill-rule="evenodd" clip-rule="evenodd" d="M53.5 67C51.567 67 50 65.433 50 63.5C50 61.567 51.567 60 53.5 60C55.433 60 57 61.567 57 63.5C57 65.433 55.433 67 53.5 67ZM53.5 60.2917C51.7281 60.2917 50.2917 61.7281 50.2917 63.5C50.2917 65.2719 51.7281 66.7083 53.5 66.7083C55.2719 66.7083 56.7083 65.2719 56.7083 63.5C56.7083 61.7281 55.2719 60.2917 53.5 60.2917Z" fill="url(#paint35_linear_21385_87848)"/>
<path fill-rule="evenodd" clip-rule="evenodd" d="M45.5 35C43.567 35 42 33.433 42 31.5C42 29.567 43.567 28 45.5 28C47.433 28 49 29.567 49 31.5C49 33.433 47.433 35 45.5 35ZM45.5 28.2917C43.7281 28.2917 42.2917 29.7281 42.2917 31.5C42.2917 33.2719 43.7281 34.7083 45.5 34.7083C47.2719 34.7083 48.7083 33.2719 48.7083 31.5C48.7083 29.7281 47.2719 28.2917 45.5 28.2917Z" fill="url(#paint36_linear_21385_87848)"/>
<path fill-rule="evenodd" clip-rule="evenodd" d="M176 24C173.239 24 171 21.7615 171 19C171 16.2386 173.239 14 176 14C178.761 14 181 16.2386 181 19C181 21.7615 178.761 24 176 24ZM176 14.4167C173.469 14.4167 171.417 16.4687 171.417 19C171.417 21.5313 173.469 23.5834 176 23.5834C178.531 23.5834 180.583 21.5313 180.583 19C180.583 16.4687 178.531 14.4167 176 14.4167Z" fill="url(#paint37_linear_21385_87848)"/>
<path fill-rule="evenodd" clip-rule="evenodd" d="M89 37C86.2386 37 84 34.7615 84 32C84 29.2386 86.2386 27 89 27C91.7615 27 94 29.2386 94 32C94 34.7615 91.7615 37 89 37ZM89 27.4167C86.4687 27.4167 84.4167 29.4687 84.4167 32C84.4167 34.5313 86.4687 36.5834 89 36.5834C91.5313 36.5834 93.5833 34.5313 93.5833 32C93.5833 29.4687 91.5313 27.4167 89 27.4167Z" fill="url(#paint38_linear_21385_87848)"/>
<path fill-rule="evenodd" clip-rule="evenodd" d="M5 85C2.23857 85 0 82.7615 0 80C0 77.2386 2.23857 75 5 75C7.76145 75 10 77.2386 10 80C10 82.7615 7.76145 85 5 85ZM5 75.4167C2.46868 75.4167 0.416674 77.4687 0.416674 80C0.416674 82.5313 2.46868 84.5834 5 84.5834C7.53126 84.5834 9.58333 82.5313 9.58333 80C9.58333 77.4687 7.53126 75.4167 5 75.4167Z" fill="url(#paint39_linear_21385_87848)"/>
<path fill-rule="evenodd" clip-rule="evenodd" d="M74 71C71.2386 71 69 68.7615 69 66C69 63.2386 71.2386 61 74 61C76.7615 61 79 63.2386 79 66C79 68.7615 76.7615 71 74 71ZM74 61.4167C71.4687 61.4167 69.4167 63.4687 69.4167 66C69.4167 68.5313 71.4687 70.5834 74 70.5834C76.5313 70.5834 78.5833 68.5313 78.5833 66C78.5833 63.4687 76.5313 61.4167 74 61.4167Z" fill="url(#paint40_linear_21385_87848)"/>
<path fill-rule="evenodd" clip-rule="evenodd" d="M78 110C75.2386 110 73 107.761 73 105C73 102.239 75.2386 100 78 100C80.7615 100 83 102.239 83 105C83 107.761 80.7615 110 78 110ZM78 100.417C75.4687 100.417 73.4167 102.469 73.4167 105C73.4167 107.531 75.4687 109.583 78 109.583C80.5313 109.583 82.5833 107.531 82.5833 105C82.5833 102.469 80.5313 100.417 78 100.417Z" fill="url(#paint41_linear_21385_87848)"/>
<path fill-rule="evenodd" clip-rule="evenodd" d="M97.5 9C93.9101 9 91 6.08989 91 2.5C91 -1.08983 93.9101 -4 97.5 -4C101.09 -4 104 -1.08983 104 2.5C104 6.08989 101.09 9 97.5 9ZM97.5 -3.4583C94.2093 -3.4583 91.5417 -0.790671 91.5417 2.5C91.5417 5.79065 94.2093 8.45836 97.5 8.45836C100.791 8.45836 103.458 5.79065 103.458 2.5C103.458 -0.790671 100.791 -3.4583 97.5 -3.4583Z" fill="url(#paint42_linear_21385_87848)"/>
<path fill-rule="evenodd" clip-rule="evenodd" d="M11.5 21C7.91014 21 5 18.0899 5 14.5C5 10.9102 7.91014 8 11.5 8C15.0899 8 18 10.9102 18 14.5C18 18.0899 15.0899 21 11.5 21ZM11.5 8.5417C8.20928 8.5417 5.54168 11.2093 5.54168 14.5C5.54168 17.7906 8.20928 20.4584 11.5 20.4584C14.7906 20.4584 17.4583 17.7906 17.4583 14.5C17.4583 11.2093 14.7906 8.5417 11.5 8.5417Z" fill="url(#paint43_linear_21385_87848)"/>
<path fill-rule="evenodd" clip-rule="evenodd" d="M33.0419 21.274C32.8325 21.2775 32.6512 21.1288 32.6136 20.9226C31.9711 17.4164 30.1164 13.8673 29.2684 12.3714L27.9834 15.5689C27.9179 15.7288 27.7624 15.8338 27.5893 15.8347H24.4283C24.1919 15.8347 24 15.6427 24 15.406C24 15.1694 24.1919 14.9774 24.4283 14.9774H27.2981L28.8143 11.2483C28.8748 11.0991 29.014 10.9967 29.1742 10.9826C29.3335 10.9688 29.4868 11.0447 29.5725 11.1797C29.6967 11.3769 32.6007 16.0233 33.4659 20.7683C33.5075 21.0001 33.3546 21.2222 33.1233 21.2655L33.0419 21.274Z" fill="url(#paint44_linear_21385_87848)"/>
<path fill-rule="evenodd" clip-rule="evenodd" d="M33.0419 21.274C32.9858 21.2732 32.9305 21.2617 32.8791 21.2399C32.6606 21.1507 32.5552 20.9017 32.6435 20.6827C32.999 19.8254 34.9393 15.4276 35.0207 15.2433C35.0892 15.0864 35.2438 14.9857 35.4147 14.9861H38.5715C38.8079 14.9861 38.9998 15.1781 38.9998 15.4148C38.9998 15.6513 38.8079 15.8434 38.5715 15.8434H35.6932C35.2648 16.8164 33.74 20.2626 33.4402 20.987C33.3806 21.1567 33.2217 21.2715 33.0419 21.274Z" fill="url(#paint45_linear_21385_87848)"/>
<path fill-rule="evenodd" clip-rule="evenodd" d="M33.98 13.1043C32.8479 13.1562 31.8885 12.2796 31.8367 11.1471C31.7848 10.0143 32.6607 9.05412 33.7923 9.00226C33.8549 8.99924 33.9174 8.99924 33.98 9.00226C34.0618 9.00311 34.1436 9.00995 34.2241 9.0237C34.4036 9.05024 34.5509 9.17923 34.601 9.35371C34.6464 9.52644 34.5796 9.70909 34.434 9.81234C34.2626 9.92338 34.1595 10.1137 34.1599 10.3181C34.1624 10.6525 34.434 10.9225 34.7681 10.9225C34.957 10.9234 35.1352 10.8342 35.2478 10.6825C35.3892 10.4926 35.6573 10.4531 35.8471 10.5946C35.9477 10.6692 36.0102 10.7845 36.0188 10.9096C36.0222 10.9581 36.0222 11.0069 36.0188 11.0554C36.0167 12.1827 35.1065 13.0974 33.98 13.1043ZM33.329 10.0524C32.7721 10.4069 32.6076 11.1458 32.9619 11.703C33.3156 12.2607 34.0545 12.4253 34.6113 12.0709C34.7373 11.9907 34.8469 11.8874 34.9351 11.7669C34.8794 11.7712 34.8238 11.7712 34.7681 11.7669C33.9607 11.7669 33.3058 11.1133 33.3032 10.3053C33.3041 10.2204 33.3127 10.1356 33.329 10.0524Z" fill="url(#paint46_linear_21385_87848)"/>
<path fill-rule="evenodd" clip-rule="evenodd" d="M55.1878 109.596H27.4787C26.6625 109.596 26 108.933 26 108.117V71.4797C26 70.6628 26.6625 70 27.4787 70H33.393C34.2094 70 34.8717 70.6628 34.8717 71.4797C34.8717 72.2964 34.2094 72.9594 33.393 72.9594H28.9572V106.637H53.7092V72.9594H38.0063C37.1901 72.9594 36.5278 72.2964 36.5278 71.4797C36.5278 70.6628 37.1901 70 38.0063 70H55.1878C56.004 70 56.6663 70.6628 56.6663 71.4797V108.117C56.6663 108.933 56.004 109.596 55.1878 109.596Z" fill="url(#paint47_linear_21385_87848)"/>
<path fill-rule="evenodd" clip-rule="evenodd" d="M48.9034 79.737H44.6449C43.8288 79.737 43.1663 79.0742 43.1663 78.2573C43.1663 77.0292 41.88 76.896 41.333 76.896C40.7858 76.896 39.4995 77.0292 39.4995 78.2573C39.4995 79.0742 38.837 79.737 38.0208 79.737H33.7624C32.7364 79.7297 31.9069 78.8995 31.8994 77.8725V71.8651C31.8994 71.0482 32.5619 70.3854 33.3782 70.3854C34.1942 70.3854 34.8567 71.0482 34.8567 71.8651V76.7776H36.7789C38.012 74.2606 41.049 73.2203 43.5641 74.453C44.5755 74.9487 45.3917 75.7671 45.887 76.7776H47.8092V72.4716C47.2622 71.8651 47.3095 70.9298 47.9155 70.3823C48.1862 70.1366 48.5382 70.0021 48.9034 70.0006C49.9326 70.0006 50.7665 70.8351 50.7665 71.8651V77.8725C50.759 78.8995 49.9295 79.7297 48.9034 79.737Z" fill="url(#paint48_linear_21385_87848)"/>
<path fill-rule="evenodd" clip-rule="evenodd" d="M41.3332 98.4694C40.5169 98.4694 39.8545 97.8065 39.8545 96.9896V87.135C39.8545 86.3183 40.5169 85.6553 41.3332 85.6553C42.1494 85.6553 42.8119 86.3183 42.8119 87.135V96.9896C42.8119 97.8065 42.1494 98.4694 41.3332 98.4694Z" fill="url(#paint49_linear_21385_87848)"/>
<path fill-rule="evenodd" clip-rule="evenodd" d="M46.2573 93.5422H36.4097C35.5936 93.5422 34.9312 92.8792 34.9312 92.0623C34.9312 91.2455 35.5936 90.5827 36.4097 90.5827H46.2573C47.0735 90.5827 47.736 91.2455 47.736 92.0623C47.736 92.8792 47.0735 93.5422 46.2573 93.5422Z" fill="url(#paint50_linear_21385_87848)"/>
<path fill-rule="evenodd" clip-rule="evenodd" d="M33.4664 55.6329H13.2627C12.5658 55.6329 12 55.0667 12 54.3692V27.2637C12 26.5662 12.5658 26 13.2627 26H33.4664C34.1634 26 34.7291 26.5662 34.7291 27.2637V54.3692C34.7291 55.0667 34.1634 55.6329 33.4664 55.6329ZM14.5255 53.1056H32.2037V28.5275H14.5255V53.1056Z" fill="url(#paint51_linear_21385_87848)"/>
<path fill-rule="evenodd" clip-rule="evenodd" d="M33.4664 63H13.2627C12.5658 63 12 62.4337 12 61.7363V54.3692C12 53.6717 12.5658 53.1054 13.2627 53.1054H33.4664C34.1634 53.1054 34.7291 53.6717 34.7291 54.3692C34.7291 55.0667 34.1634 55.6329 33.4664 55.6329L14.5255 55.6328V60.4726H32.2037V58.0464C32.2037 57.3489 32.7693 56.7827 33.4664 56.7827C34.1634 56.7827 34.7291 57.3489 34.7291 58.0464V61.7363C34.7291 62.4337 34.1634 63 33.4664 63Z" fill="url(#paint52_linear_21385_87848)"/>
<path fill-rule="evenodd" clip-rule="evenodd" d="M23.3647 59.6638C22.4658 59.6638 21.7358 58.9335 21.7358 58.0338C21.7358 57.134 22.4658 56.4035 23.3647 56.4035C24.264 56.4035 24.9938 57.134 24.9938 58.0338C25.0014 58.9272 24.2828 59.6563 23.3901 59.6638C23.3812 59.6638 23.3736 59.6638 23.3647 59.6638ZM23.3647 57.1365C22.8622 57.1365 22.4556 57.5434 22.4556 58.0464C22.4556 58.5493 22.8622 58.9562 23.3647 58.9562C23.8674 58.9562 24.274 58.5493 24.274 58.0464C24.274 58.0426 24.274 58.0374 24.274 58.0338C24.274 57.5384 23.8724 57.1365 23.3774 57.1365C23.3736 57.1365 23.3686 57.1365 23.3647 57.1365Z" fill="url(#paint53_linear_21385_87848)"/>
<path fill-rule="evenodd" clip-rule="evenodd" d="M25.2707 45.0558C24.8391 45.052 24.4388 44.8283 24.2101 44.4619C24.0208 44.1712 23.6924 43.5899 23.301 42.9202C22.7706 42.0103 21.8236 40.3928 21.2048 39.4451C21.0156 39.8874 20.826 40.4561 20.7124 40.7972C20.5988 41.1384 20.4472 41.5806 20.321 41.8587C20.1177 42.3111 19.6681 42.603 19.1718 42.6042H16.8106C16.1136 42.6042 15.5478 42.038 15.5478 41.3406C15.5478 40.6431 16.1136 40.0769 16.8106 40.0769H18.2879V40.0011C18.7298 38.6741 19.235 37.1577 20.3967 36.6649C20.9018 36.4312 21.4827 36.4312 21.9878 36.6649C22.6444 36.9557 23.2504 37.7643 25.2961 41.3532C26.0412 40.4055 26.8114 40.0894 28.7434 40.0894H29.943C30.6399 40.0894 31.2057 40.6557 31.2057 41.3532C31.2057 42.0508 30.6399 42.6169 29.943 42.6169H28.7434C27.4806 42.6169 27.4806 42.6169 26.6851 43.8805L26.319 44.4619C26.0929 44.8334 25.6927 45.062 25.2582 45.0684L25.2707 45.0558Z" fill="url(#paint54_linear_21385_87848)"/>
<path fill-rule="evenodd" clip-rule="evenodd" d="M139.747 102C139.471 102 139.248 101.776 139.248 101.5V100.5H138.499C138.223 100.5 138 100.276 138 100V95.5C138 95.2237 138.223 95 138.499 95H144.645C144.782 95 144.894 95.112 144.894 95.25C144.894 95.388 144.782 95.5 144.645 95.5H138.499V100H139.498C139.635 100 139.747 100.112 139.747 100.25V101.5L140.92 100.09C140.968 100.033 141.038 100 141.113 100H145.488V97.4525C145.488 96.425 145.488 96.1725 145.488 96.115C145.477 95.9775 145.579 95.8565 145.716 95.845C145.717 95.845 145.717 95.845 145.718 95.845C145.855 95.835 145.974 95.9377 145.985 96.075C145.985 96.1925 146 96.6425 146 97.4525V100C146 100.276 145.777 100.5 145.501 100.5H141.23L140.132 101.82C140.037 101.934 139.896 102 139.747 102Z" fill="url(#paint55_linear_21385_87848)"/>
<path fill-rule="evenodd" clip-rule="evenodd" d="M86.7473 21C86.4714 21 86.248 20.7762 86.248 20.5V19.5H85.4992C85.2234 19.5 85 19.2762 85 19V14.5C85 14.2237 85.2234 14 85.4992 14H91.6446C91.7824 14 91.8942 14.112 91.8942 14.25C91.8942 14.388 91.7824 14.5 91.6446 14.5H85.4992V19H86.4977C86.6355 19 86.7473 19.112 86.7473 19.25V20.5L87.9204 19.09C87.9679 19.0327 88.0385 19 88.1126 19H92.4883V16.4525C92.4883 15.425 92.4883 15.1725 92.4883 15.115C92.4768 14.9775 92.5789 14.8565 92.7164 14.845C92.7169 14.845 92.7175 14.845 92.7179 14.845C92.855 14.835 92.9743 14.9377 92.985 15.075C92.985 15.1925 93 15.6425 93 16.4525V19C93 19.2762 92.7766 19.5 92.5008 19.5H88.2299L87.1317 20.82C87.0365 20.9342 86.8958 21.0002 86.7473 21Z" fill="url(#paint56_linear_21385_87848)"/>
<path fill-rule="evenodd" clip-rule="evenodd" d="M1.74726 57C1.47144 57 1.24803 56.7762 1.24803 56.5V55.5H0.499227C0.22338 55.5 0 55.2762 0 55V50.5C0 50.2237 0.22338 50 0.499227 50H6.64462C6.7824 50 6.89422 50.112 6.89422 50.25C6.89422 50.388 6.7824 50.5 6.64462 50.5H0.499227V55H1.49765C1.63545 55 1.74726 55.112 1.74726 55.25V56.5L2.92043 55.09C2.96786 55.0327 3.03849 55 3.11262 55H7.48829V52.4525C7.48829 51.425 7.48829 51.1725 7.48829 51.115C7.47681 50.9775 7.5789 50.8565 7.71645 50.845C7.71694 50.845 7.71746 50.845 7.71793 50.845C7.85498 50.835 7.97431 50.9378 7.98501 51.075C7.98501 51.1925 8 51.6425 8 52.4525V55C8 55.2762 7.77661 55.5 7.50079 55.5H3.22994L2.13165 56.82C2.03655 56.9342 1.89577 57.0002 1.74726 57Z" fill="url(#paint57_linear_21385_87848)"/>
<path fill-rule="evenodd" clip-rule="evenodd" d="M249.387 119.998H204.571C203.701 119.995 202.997 119.283 203 118.407C203.002 118.162 203.058 117.919 203.168 117.699C203.168 117.699 204.838 114.353 206.319 111.355C206.746 110.575 207.718 110.291 208.493 110.721C209.268 111.151 209.55 112.129 209.123 112.909L207.122 116.858H246.772L242.897 109.293H210.084C209.214 109.293 208.509 108.583 208.509 107.708V84.5858C208.509 83.7106 209.214 83 210.084 83H243.873C244.743 83 245.448 83.7106 245.448 84.5858V103.045C245.448 103.921 244.743 104.631 243.873 104.631H227.853V101.459H242.314V86.1561H211.659V106.09H243.873C244.462 106.089 245.004 106.42 245.275 106.947L250.789 117.683C251.07 118.173 251.07 118.779 250.789 119.269C250.485 119.748 249.951 120.025 249.387 119.998Z" fill="url(#paint58_linear_21385_87848)"/>
<path fill-rule="evenodd" clip-rule="evenodd" d="M226.042 101.274C225.832 101.277 225.651 101.129 225.614 100.923C224.971 97.4164 223.116 93.8673 222.268 92.3714L220.983 95.5689C220.918 95.7288 220.762 95.8338 220.589 95.8347H217.428C217.192 95.8347 217 95.6427 217 95.406C217 95.1694 217.192 94.9774 217.428 94.9774H220.298L221.814 91.2483C221.875 91.0991 222.014 90.9967 222.174 90.9826C222.333 90.9688 222.487 91.0447 222.572 91.1797C222.697 91.3769 225.601 96.0233 226.466 100.768C226.508 101 226.355 101.222 226.123 101.265L226.042 101.274Z" fill="url(#paint59_linear_21385_87848)"/>
<path fill-rule="evenodd" clip-rule="evenodd" d="M226.042 101.274C225.986 101.273 225.93 101.262 225.879 101.24C225.661 101.151 225.555 100.902 225.644 100.683C225.999 99.8254 227.939 95.4276 228.021 95.2433C228.089 95.0864 228.244 94.9857 228.415 94.9861H231.572C231.808 94.9861 232 95.1781 232 95.4148C232 95.6513 231.808 95.8434 231.572 95.8434H228.693C228.265 96.8164 226.74 100.263 226.44 100.987C226.381 101.157 226.222 101.271 226.042 101.274Z" fill="url(#paint60_linear_21385_87848)"/>
<path fill-rule="evenodd" clip-rule="evenodd" d="M226.98 93.1043C225.848 93.1562 224.888 92.2796 224.837 91.1471C224.785 90.0143 225.661 89.0541 226.792 89.0023C226.855 88.9992 226.917 88.9992 226.98 89.0023C227.062 89.0031 227.144 89.0099 227.224 89.0237C227.404 89.0502 227.551 89.1792 227.601 89.3537C227.646 89.5264 227.58 89.7091 227.434 89.8123C227.263 89.9234 227.159 90.1137 227.16 90.3181C227.162 90.6525 227.434 90.9225 227.768 90.9225C227.957 90.9234 228.135 90.8342 228.248 90.6825C228.389 90.4926 228.657 90.4531 228.847 90.5946C228.948 90.6692 229.01 90.7845 229.019 90.9097C229.022 90.9581 229.022 91.0069 229.019 91.0554C229.017 92.1827 228.107 93.0974 226.98 93.1043ZM226.329 90.0524C225.772 90.4069 225.608 91.1458 225.962 91.703C226.316 92.2607 227.055 92.4253 227.611 92.0709C227.737 91.9907 227.847 91.8874 227.935 91.7669C227.879 91.7712 227.824 91.7712 227.768 91.7669C226.961 91.7669 226.306 91.1133 226.303 90.3053C226.304 90.2204 226.313 90.1356 226.329 90.0524Z" fill="url(#paint61_linear_21385_87848)"/>
<path fill-rule="evenodd" clip-rule="evenodd" d="M202 75H140C138.343 75 137 76.3431 137 78V86C137 87.6569 138.343 89 140 89H202C203.657 89 205 87.6569 205 86V78C205 76.3431 203.657 75 202 75ZM140 74C137.791 74 136 75.7909 136 78V86C136 88.2091 137.791 90 140 90H202C204.209 90 206 88.2091 206 86V78C206 75.7909 204.209 74 202 74H140Z" fill="url(#paint62_linear_21385_87848)"/>
<path d="M151.508 80.9414C151.508 81.6641 151.26 82.2207 150.766 82.6113C150.274 82.9987 149.569 83.1924 148.651 83.1924H147.812V86H146.981V78.8613H148.832C150.616 78.8613 151.508 79.5547 151.508 80.9414ZM147.812 82.4795H148.559C149.294 82.4795 149.826 82.3607 150.155 82.123C150.484 81.8854 150.648 81.5046 150.648 80.9805C150.648 80.5085 150.494 80.1569 150.185 79.9258C149.875 79.6947 149.394 79.5791 148.739 79.5791H147.812V82.4795Z" fill="url(#paint63_linear_21385_87848)"/>
<path d="M153.837 83.0312V86H153.007V78.8613H154.965C155.84 78.8613 156.487 79.029 156.903 79.3643C157.323 79.6995 157.533 80.2041 157.533 80.8779C157.533 81.8219 157.055 82.46 156.098 82.792L158.036 86H157.055L155.326 83.0312H153.837ZM153.837 82.3184H154.975C155.561 82.3184 155.99 82.2028 156.264 81.9717C156.537 81.7373 156.674 81.3874 156.674 80.9219C156.674 80.4499 156.534 80.1097 156.254 79.9014C155.977 79.693 155.531 79.5889 154.916 79.5889H153.837V82.3184Z" fill="url(#paint64_linear_21385_87848)"/>
<path d="M163.168 86H159.188V78.8613H163.168V79.5986H160.019V81.8984H162.978V82.6309H160.019V85.2578H163.168V86Z" fill="url(#paint65_linear_21385_87848)"/>
<path d="M168.783 84.1006C168.783 84.7288 168.555 85.2188 168.1 85.5703C167.644 85.9219 167.025 86.0977 166.244 86.0977C165.398 86.0977 164.747 85.9886 164.291 85.7705V84.9697C164.584 85.0934 164.903 85.1911 165.248 85.2627C165.593 85.3343 165.935 85.3701 166.273 85.3701C166.827 85.3701 167.243 85.266 167.523 85.0576C167.803 84.846 167.943 84.5531 167.943 84.1787C167.943 83.9313 167.893 83.7295 167.792 83.5732C167.694 83.4137 167.528 83.2673 167.294 83.1338C167.063 83.0003 166.71 82.849 166.234 82.6797C165.57 82.4421 165.095 82.1605 164.809 81.835C164.525 81.5094 164.384 81.0846 164.384 80.5605C164.384 80.0104 164.59 79.5726 165.004 79.2471C165.417 78.9215 165.964 78.7588 166.645 78.7588C167.354 78.7588 168.007 78.889 168.603 79.1494L168.344 79.8721C167.755 79.6247 167.182 79.501 166.625 79.501C166.186 79.501 165.842 79.5954 165.595 79.7842C165.347 79.973 165.224 80.235 165.224 80.5703C165.224 80.8177 165.269 81.0212 165.36 81.1807C165.451 81.3369 165.604 81.4818 165.819 81.6152C166.037 81.7454 166.369 81.8903 166.815 82.0498C167.564 82.3167 168.078 82.6032 168.358 82.9092C168.642 83.2152 168.783 83.6123 168.783 84.1006Z" fill="url(#paint66_linear_21385_87848)"/>
<path d="M173.3 79.501C172.515 79.501 171.895 79.763 171.439 80.2871C170.987 80.8079 170.761 81.5225 170.761 82.4307C170.761 83.3649 170.979 84.0876 171.415 84.5986C171.854 85.1064 172.479 85.3604 173.29 85.3604C173.788 85.3604 174.356 85.2708 174.994 85.0918V85.8193C174.499 86.0049 173.889 86.0977 173.163 86.0977C172.112 86.0977 171.299 85.7786 170.727 85.1406C170.157 84.5026 169.872 83.596 169.872 82.4209C169.872 81.6852 170.009 81.0407 170.282 80.4873C170.559 79.9339 170.956 79.5075 171.474 79.208C171.994 78.9085 172.606 78.7588 173.31 78.7588C174.058 78.7588 174.713 78.8955 175.272 79.1689L174.921 79.8818C174.381 79.6279 173.84 79.501 173.3 79.501Z" fill="url(#paint67_linear_21385_87848)"/>
<path d="M177.382 83.0312V86H176.552V78.8613H178.51C179.385 78.8613 180.032 79.029 180.448 79.3643C180.868 79.6995 181.078 80.2041 181.078 80.8779C181.078 81.8219 180.6 82.46 179.643 82.792L181.581 86H180.6L178.871 83.0312H177.382ZM177.382 82.3184H178.52C179.105 82.3184 179.535 82.2028 179.809 81.9717C180.082 81.7373 180.219 81.3874 180.219 80.9219C180.219 80.4499 180.079 80.1097 179.799 79.9014C179.522 79.693 179.076 79.5889 178.461 79.5889H177.382V82.3184Z" fill="url(#paint68_linear_21385_87848)"/>
<path d="M182.733 86V78.8613H183.563V86H182.733Z" fill="url(#paint69_linear_21385_87848)"/>
<path d="M185.526 78.8613H187.543C188.49 78.8613 189.175 79.0029 189.599 79.2861C190.022 79.5693 190.233 80.0169 190.233 80.6289C190.233 81.0521 190.115 81.402 189.877 81.6787C189.643 81.9521 189.299 82.1296 188.847 82.2109V82.2598C189.931 82.4453 190.473 83.015 190.473 83.9688C190.473 84.6068 190.256 85.1048 189.823 85.4629C189.394 85.821 188.791 86 188.017 86H185.526V78.8613ZM186.356 81.918H187.724C188.31 81.918 188.731 81.8268 188.988 81.6445C189.245 81.459 189.374 81.1481 189.374 80.7119C189.374 80.3115 189.231 80.0234 188.944 79.8477C188.658 79.6686 188.202 79.5791 187.577 79.5791H186.356V81.918ZM186.356 82.6211V85.292H187.846C188.422 85.292 188.855 85.1813 189.145 84.96C189.438 84.7354 189.584 84.3854 189.584 83.9102C189.584 83.4674 189.434 83.1419 189.135 82.9336C188.839 82.7253 188.386 82.6211 187.777 82.6211H186.356Z" fill="url(#paint70_linear_21385_87848)"/>
<path d="M195.99 86H192.011V78.8613H195.99V79.5986H192.841V81.8984H195.8V82.6309H192.841V85.2578H195.99V86Z" fill="url(#paint71_linear_21385_87848)"/>
<path fill-rule="evenodd" clip-rule="evenodd" d="M134.348 27.4359C133.346 27.4359 132.534 26.6228 132.534 25.619V21.9853H129.814C128.812 21.9853 128 21.1723 128 20.1685V16.5348C128 16.0333 128.406 15.6263 128.907 15.6263C129.407 15.6263 129.814 16.0333 129.814 16.5348V20.1685H133.441C133.941 20.1685 134.348 20.5755 134.348 21.0769V25.619L138.609 20.4955C138.782 20.2874 139.038 20.1685 139.308 20.1685H155.204V10.9207C155.204 10.412 155.204 9.89421 155.204 9.39461C154.842 9.40541 154.48 9.37549 154.125 9.30369C153.061 9.0912 152.168 8.37261 151.731 7.37781C151.25 6.41311 151.641 5.2394 152.604 4.75799C153.015 4.5518 153.487 4.49811 153.934 4.60721C154.976 4.88241 155.857 5.5801 156.364 6.533C156.477 6.7628 156.574 6.99901 156.654 7.24161C156.978 7.09171 157.283 6.9027 157.561 6.6783C157.955 6.3677 158.525 6.43401 158.835 6.82831C159.145 7.22251 159.079 7.7939 158.686 8.1046C158.161 8.4988 157.576 8.805 156.954 9.013C157.008 9.6489 157.008 10.2848 157.008 10.8844V20.1685C157.008 21.1723 156.197 21.9853 155.195 21.9853H139.734L135.744 26.7818C135.399 27.1969 134.887 27.4367 134.348 27.4359ZM153.444 6.3786C153.4 6.375 153.357 6.3913 153.327 6.424C153.308 6.5167 153.308 6.613 153.327 6.7056C153.544 7.1389 153.955 7.4423 154.433 7.5231C154.54 7.5477 154.65 7.5632 154.759 7.5686C154.729 7.4914 154.697 7.41511 154.66 7.34151C154.398 6.89191 153.982 6.553 153.49 6.3876L153.444 6.3786ZM128.907 7.3324C128.406 7.3324 128 6.9254 128 6.424V3.8168C128 2.813 128.812 2 129.814 2H152.139C152.639 2 153.045 2.4069 153.045 2.9084C153.045 3.4099 152.639 3.8168 152.139 3.8168H129.814V6.424C129.814 6.9254 129.407 7.3324 128.907 7.3324Z" fill="url(#paint72_linear_21385_87848)"/>
<path fill-rule="evenodd" clip-rule="evenodd" d="M128.907 19.8866C128.406 19.8866 128 19.4797 128 18.9782V16.3075C127.995 15.6143 128.255 14.9448 128.725 14.4361C128.255 13.9274 127.995 13.2578 128 12.5647V11.7653C127.995 11.0722 128.255 10.4026 128.725 9.89386C128.255 9.38516 127.995 8.71565 128 8.02255V5.35176C128 4.85036 128.406 4.44336 128.907 4.44336C129.407 4.44336 129.814 4.85036 129.814 5.35176V8.02255C129.808 8.53575 130.209 8.96096 130.72 8.98546H148.24C148.74 8.98546 149.146 9.39246 149.146 9.89386C149.146 10.3954 148.74 10.8024 148.24 10.8024H130.766C130.254 10.8269 129.854 11.252 129.859 11.7653V12.5647C129.854 13.078 130.254 13.5031 130.766 13.5277H140.958C141.459 13.5277 141.865 13.9346 141.865 14.4361C141.865 14.9375 141.459 15.3445 140.958 15.3445H130.766C130.254 15.3691 129.854 15.7942 129.859 16.3075V18.9782C129.86 19.4797 129.455 19.8876 128.953 19.8876C128.938 19.8876 128.922 19.8876 128.907 19.8866Z" fill="url(#paint73_linear_21385_87848)"/>
<path fill-rule="evenodd" clip-rule="evenodd" d="M178.994 107.448C178.72 107.449 178.497 107.228 178.495 106.955C178.495 106.821 178.547 106.693 178.642 106.6L184.242 101L178.994 95.7475L173.745 101L178.26 105.518C178.454 105.713 178.454 106.028 178.26 106.223C178.066 106.417 177.751 106.417 177.556 106.223L172.694 101.352C172.5 101.159 172.499 100.845 172.691 100.651C172.693 100.65 172.693 100.649 172.694 100.648L178.642 94.696C178.835 94.5015 179.148 94.5002 179.343 94.6931C179.344 94.6941 179.345 94.695 179.346 94.696L185.293 100.648C185.487 100.841 185.489 101.155 185.296 101.349C185.295 101.35 185.294 101.351 185.293 101.352L179.346 107.304C179.252 107.397 179.126 107.449 178.994 107.448Z" fill="url(#paint74_linear_21385_87848)"/>
<path fill-rule="evenodd" clip-rule="evenodd" d="M179.519 98.7184C179.519 98.9923 179.297 99.2144 179.024 99.2144C178.75 99.2144 178.528 98.9923 178.528 98.7184C178.528 98.4445 178.75 98.2224 179.024 98.2224C179.297 98.2224 179.519 98.4445 179.519 98.7184Z" fill="url(#paint75_linear_21385_87848)"/>
<path fill-rule="evenodd" clip-rule="evenodd" d="M181.769 100.97C181.769 101.244 181.547 101.466 181.274 101.466C181 101.466 180.778 101.244 180.778 100.97C180.778 100.696 181 100.474 181.274 100.474C181.547 100.474 181.769 100.696 181.769 100.97Z" fill="url(#paint76_linear_21385_87848)"/>
<path fill-rule="evenodd" clip-rule="evenodd" d="M177.21 101.03C177.21 101.304 176.988 101.526 176.714 101.526C176.44 101.526 176.218 101.304 176.218 101.03C176.218 100.756 176.44 100.534 176.714 100.534C176.988 100.534 177.21 100.756 177.21 101.03Z" fill="url(#paint77_linear_21385_87848)"/>
<path fill-rule="evenodd" clip-rule="evenodd" d="M179.46 103.281C179.46 103.555 179.238 103.777 178.964 103.777C178.69 103.777 178.468 103.555 178.468 103.281C178.468 103.007 178.69 102.785 178.964 102.785C179.238 102.785 179.46 103.007 179.46 103.281Z" fill="url(#paint78_linear_21385_87848)"/>
<path fill-rule="evenodd" clip-rule="evenodd" d="M176.803 109C176.263 109 175.744 108.786 175.361 108.405L171.594 104.635C170.802 103.837 170.802 102.547 171.594 101.749L171.738 101.605C171.931 101.413 172.244 101.413 172.437 101.605C172.631 101.798 172.633 102.112 172.44 102.306C172.439 102.307 172.438 102.308 172.437 102.309L172.298 102.448C171.888 102.855 171.884 103.517 172.29 103.928C172.293 103.931 172.296 103.933 172.298 103.936L176.065 107.705C176.48 108.106 177.137 108.106 177.552 107.705L185.695 99.5565C186.105 99.15 186.109 98.4874 185.703 98.0765C185.7 98.0739 185.697 98.0711 185.695 98.0685L181.928 94.2991C181.513 93.8985 180.856 93.8985 180.441 94.2991L173.393 101.352C173.199 101.545 172.885 101.544 172.692 101.349C172.499 101.155 172.5 100.841 172.694 100.648L179.742 93.5948C180.54 92.8017 181.829 92.8017 182.627 93.5948L186.394 97.3643C187.186 98.1631 187.186 99.4521 186.394 100.251L178.246 108.405C177.864 108.788 177.344 109.002 176.803 109Z" fill="url(#paint79_linear_21385_87848)"/>
<defs>
<linearGradient id="paint0_linear_21385_87848" x1="265.5" y1="53" x2="-16" y2="55.5" gradientUnits="userSpaceOnUse">
<stop stop-color="#26890D"/>
<stop offset="1" stop-color="#E3E48D"/>
</linearGradient>
<linearGradient id="paint1_linear_21385_87848" x1="265.5" y1="53" x2="-16" y2="55.5" gradientUnits="userSpaceOnUse">
<stop stop-color="#26890D"/>
<stop offset="1" stop-color="#E3E48D"/>
</linearGradient>
<linearGradient id="paint2_linear_21385_87848" x1="265.5" y1="53" x2="-16" y2="55.5" gradientUnits="userSpaceOnUse">
<stop stop-color="#26890D"/>
<stop offset="1" stop-color="#E3E48D"/>
</linearGradient>
<linearGradient id="paint3_linear_21385_87848" x1="265.5" y1="53" x2="-16" y2="55.5" gradientUnits="userSpaceOnUse">
<stop stop-color="#26890D"/>
<stop offset="1" stop-color="#E3E48D"/>
</linearGradient>
<linearGradient id="paint4_linear_21385_87848" x1="265.5" y1="53" x2="-16" y2="55.5" gradientUnits="userSpaceOnUse">
<stop stop-color="#26890D"/>
<stop offset="1" stop-color="#E3E48D"/>
</linearGradient>
<linearGradient id="paint5_linear_21385_87848" x1="265.5" y1="53" x2="-16" y2="55.5" gradientUnits="userSpaceOnUse">
<stop stop-color="#26890D"/>
<stop offset="1" stop-color="#E3E48D"/>
</linearGradient>
<linearGradient id="paint6_linear_21385_87848" x1="265.5" y1="53" x2="-16" y2="55.5" gradientUnits="userSpaceOnUse">
<stop stop-color="#26890D"/>
<stop offset="1" stop-color="#E3E48D"/>
</linearGradient>
<linearGradient id="paint7_linear_21385_87848" x1="265.5" y1="53" x2="-16" y2="55.5" gradientUnits="userSpaceOnUse">
<stop stop-color="#26890D"/>
<stop offset="1" stop-color="#E3E48D"/>
</linearGradient>
<linearGradient id="paint8_linear_21385_87848" x1="265.5" y1="53" x2="-16" y2="55.5" gradientUnits="userSpaceOnUse">
<stop stop-color="#26890D"/>
<stop offset="1" stop-color="#E3E48D"/>
</linearGradient>
<linearGradient id="paint9_linear_21385_87848" x1="265.5" y1="53" x2="-16" y2="55.5" gradientUnits="userSpaceOnUse">
<stop stop-color="#26890D"/>
<stop offset="1" stop-color="#E3E48D"/>
</linearGradient>
<linearGradient id="paint10_linear_21385_87848" x1="265.5" y1="53" x2="-16" y2="55.5" gradientUnits="userSpaceOnUse">
<stop stop-color="#26890D"/>
<stop offset="1" stop-color="#E3E48D"/>
</linearGradient>
<linearGradient id="paint11_linear_21385_87848" x1="265.5" y1="53" x2="-16" y2="55.5" gradientUnits="userSpaceOnUse">
<stop stop-color="#26890D"/>
<stop offset="1" stop-color="#E3E48D"/>
</linearGradient>
<linearGradient id="paint12_linear_21385_87848" x1="265.5" y1="53" x2="-16" y2="55.5" gradientUnits="userSpaceOnUse">
<stop stop-color="#26890D"/>
<stop offset="1" stop-color="#E3E48D"/>
</linearGradient>
<linearGradient id="paint13_linear_21385_87848" x1="265.5" y1="53" x2="-16" y2="55.5" gradientUnits="userSpaceOnUse">
<stop stop-color="#26890D"/>
<stop offset="1" stop-color="#E3E48D"/>
</linearGradient>
<linearGradient id="paint14_linear_21385_87848" x1="265.5" y1="53" x2="-16" y2="55.5" gradientUnits="userSpaceOnUse">
<stop stop-color="#26890D"/>
<stop offset="1" stop-color="#E3E48D"/>
</linearGradient>
<linearGradient id="paint15_linear_21385_87848" x1="265.5" y1="53" x2="-16" y2="55.5" gradientUnits="userSpaceOnUse">
<stop stop-color="#26890D"/>
<stop offset="1" stop-color="#E3E48D"/>
</linearGradient>
<linearGradient id="paint16_linear_21385_87848" x1="265.5" y1="53" x2="-16" y2="55.5" gradientUnits="userSpaceOnUse">
<stop stop-color="#26890D"/>
<stop offset="1" stop-color="#E3E48D"/>
</linearGradient>
<linearGradient id="paint17_linear_21385_87848" x1="265.5" y1="53" x2="-16" y2="55.5" gradientUnits="userSpaceOnUse">
<stop stop-color="#26890D"/>
<stop offset="1" stop-color="#E3E48D"/>
</linearGradient>
<linearGradient id="paint18_linear_21385_87848" x1="265.5" y1="53" x2="-16" y2="55.5" gradientUnits="userSpaceOnUse">
<stop stop-color="#26890D"/>
<stop offset="1" stop-color="#E3E48D"/>
</linearGradient>
<linearGradient id="paint19_linear_21385_87848" x1="265.5" y1="53" x2="-16" y2="55.5" gradientUnits="userSpaceOnUse">
<stop stop-color="#26890D"/>
<stop offset="1" stop-color="#E3E48D"/>
</linearGradient>
<linearGradient id="paint20_linear_21385_87848" x1="265.5" y1="53" x2="-16" y2="55.5" gradientUnits="userSpaceOnUse">
<stop stop-color="#26890D"/>
<stop offset="1" stop-color="#E3E48D"/>
</linearGradient>
<linearGradient id="paint21_linear_21385_87848" x1="265.5" y1="53" x2="-16" y2="55.5" gradientUnits="userSpaceOnUse">
<stop stop-color="#26890D"/>
<stop offset="1" stop-color="#E3E48D"/>
</linearGradient>
<linearGradient id="paint22_linear_21385_87848" x1="265.5" y1="53" x2="-16" y2="55.5" gradientUnits="userSpaceOnUse">
<stop stop-color="#26890D"/>
<stop offset="1" stop-color="#E3E48D"/>
</linearGradient>
<linearGradient id="paint23_linear_21385_87848" x1="265.5" y1="53" x2="-16" y2="55.5" gradientUnits="userSpaceOnUse">
<stop stop-color="#26890D"/>
<stop offset="1" stop-color="#E3E48D"/>
</linearGradient>
<linearGradient id="paint24_linear_21385_87848" x1="265.5" y1="53" x2="-16" y2="55.5" gradientUnits="userSpaceOnUse">
<stop stop-color="#26890D"/>
<stop offset="1" stop-color="#E3E48D"/>
</linearGradient>
<linearGradient id="paint25_linear_21385_87848" x1="265.5" y1="53" x2="-16" y2="55.5" gradientUnits="userSpaceOnUse">
<stop stop-color="#26890D"/>
<stop offset="1" stop-color="#E3E48D"/>
</linearGradient>
<linearGradient id="paint26_linear_21385_87848" x1="265.5" y1="53" x2="-16" y2="55.5" gradientUnits="userSpaceOnUse">
<stop stop-color="#26890D"/>
<stop offset="1" stop-color="#E3E48D"/>
</linearGradient>
<linearGradient id="paint27_linear_21385_87848" x1="265.5" y1="53" x2="-16" y2="55.5" gradientUnits="userSpaceOnUse">
<stop stop-color="#26890D"/>
<stop offset="1" stop-color="#E3E48D"/>
</linearGradient>
<linearGradient id="paint28_linear_21385_87848" x1="265.5" y1="53" x2="-16" y2="55.5" gradientUnits="userSpaceOnUse">
<stop stop-color="#26890D"/>
<stop offset="1" stop-color="#E3E48D"/>
</linearGradient>
<linearGradient id="paint29_linear_21385_87848" x1="265.5" y1="53" x2="-16" y2="55.5" gradientUnits="userSpaceOnUse">
<stop stop-color="#26890D"/>
<stop offset="1" stop-color="#E3E48D"/>
</linearGradient>
<linearGradient id="paint30_linear_21385_87848" x1="265.5" y1="53" x2="-16" y2="55.5" gradientUnits="userSpaceOnUse">
<stop stop-color="#26890D"/>
<stop offset="1" stop-color="#E3E48D"/>
</linearGradient>
<linearGradient id="paint31_linear_21385_87848" x1="265.5" y1="53" x2="-16" y2="55.5" gradientUnits="userSpaceOnUse">
<stop stop-color="#26890D"/>
<stop offset="1" stop-color="#E3E48D"/>
</linearGradient>
<linearGradient id="paint32_linear_21385_87848" x1="265.5" y1="53" x2="-16" y2="55.5" gradientUnits="userSpaceOnUse">
<stop stop-color="#26890D"/>
<stop offset="1" stop-color="#E3E48D"/>
</linearGradient>
<linearGradient id="paint33_linear_21385_87848" x1="265.5" y1="53" x2="-16" y2="55.5" gradientUnits="userSpaceOnUse">
<stop stop-color="#26890D"/>
<stop offset="1" stop-color="#E3E48D"/>
</linearGradient>
<linearGradient id="paint34_linear_21385_87848" x1="265.5" y1="53" x2="-16" y2="55.5" gradientUnits="userSpaceOnUse">
<stop stop-color="#26890D"/>
<stop offset="1" stop-color="#E3E48D"/>
</linearGradient>
<linearGradient id="paint35_linear_21385_87848" x1="265.5" y1="53" x2="-16" y2="55.5" gradientUnits="userSpaceOnUse">
<stop stop-color="#26890D"/>
<stop offset="1" stop-color="#E3E48D"/>
</linearGradient>
<linearGradient id="paint36_linear_21385_87848" x1="265.5" y1="53" x2="-16" y2="55.5" gradientUnits="userSpaceOnUse">
<stop stop-color="#26890D"/>
<stop offset="1" stop-color="#E3E48D"/>
</linearGradient>
<linearGradient id="paint37_linear_21385_87848" x1="265.5" y1="53" x2="-16" y2="55.5" gradientUnits="userSpaceOnUse">
<stop stop-color="#26890D"/>
<stop offset="1" stop-color="#E3E48D"/>
</linearGradient>
<linearGradient id="paint38_linear_21385_87848" x1="265.5" y1="53" x2="-16" y2="55.5" gradientUnits="userSpaceOnUse">
<stop stop-color="#26890D"/>
<stop offset="1" stop-color="#E3E48D"/>
</linearGradient>
<linearGradient id="paint39_linear_21385_87848" x1="265.5" y1="53" x2="-16" y2="55.5" gradientUnits="userSpaceOnUse">
<stop stop-color="#26890D"/>
<stop offset="1" stop-color="#E3E48D"/>
</linearGradient>
<linearGradient id="paint40_linear_21385_87848" x1="265.5" y1="53" x2="-16" y2="55.5" gradientUnits="userSpaceOnUse">
<stop stop-color="#26890D"/>
<stop offset="1" stop-color="#E3E48D"/>
</linearGradient>
<linearGradient id="paint41_linear_21385_87848" x1="265.5" y1="53" x2="-16" y2="55.5" gradientUnits="userSpaceOnUse">
<stop stop-color="#26890D"/>
<stop offset="1" stop-color="#E3E48D"/>
</linearGradient>
<linearGradient id="paint42_linear_21385_87848" x1="265.5" y1="53" x2="-16" y2="55.5" gradientUnits="userSpaceOnUse">
<stop stop-color="#26890D"/>
<stop offset="1" stop-color="#E3E48D"/>
</linearGradient>
<linearGradient id="paint43_linear_21385_87848" x1="265.5" y1="53" x2="-16" y2="55.5" gradientUnits="userSpaceOnUse">
<stop stop-color="#26890D"/>
<stop offset="1" stop-color="#E3E48D"/>
</linearGradient>
<linearGradient id="paint44_linear_21385_87848" x1="265.5" y1="53" x2="-16" y2="55.5" gradientUnits="userSpaceOnUse">
<stop stop-color="#26890D"/>
<stop offset="1" stop-color="#E3E48D"/>
</linearGradient>
<linearGradient id="paint45_linear_21385_87848" x1="265.5" y1="53" x2="-16" y2="55.5" gradientUnits="userSpaceOnUse">
<stop stop-color="#26890D"/>
<stop offset="1" stop-color="#E3E48D"/>
</linearGradient>
<linearGradient id="paint46_linear_21385_87848" x1="265.5" y1="53" x2="-16" y2="55.5" gradientUnits="userSpaceOnUse">
<stop stop-color="#26890D"/>
<stop offset="1" stop-color="#E3E48D"/>
</linearGradient>
<linearGradient id="paint47_linear_21385_87848" x1="265.5" y1="53" x2="-16" y2="55.5" gradientUnits="userSpaceOnUse">
<stop stop-color="#26890D"/>
<stop offset="1" stop-color="#E3E48D"/>
</linearGradient>
<linearGradient id="paint48_linear_21385_87848" x1="265.5" y1="53" x2="-16" y2="55.5" gradientUnits="userSpaceOnUse">
<stop stop-color="#26890D"/>
<stop offset="1" stop-color="#E3E48D"/>
</linearGradient>
<linearGradient id="paint49_linear_21385_87848" x1="265.5" y1="53" x2="-16" y2="55.5" gradientUnits="userSpaceOnUse">
<stop stop-color="#26890D"/>
<stop offset="1" stop-color="#E3E48D"/>
</linearGradient>
<linearGradient id="paint50_linear_21385_87848" x1="265.5" y1="53" x2="-16" y2="55.5" gradientUnits="userSpaceOnUse">
<stop stop-color="#26890D"/>
<stop offset="1" stop-color="#E3E48D"/>
</linearGradient>
<linearGradient id="paint51_linear_21385_87848" x1="265.5" y1="53" x2="-16" y2="55.5" gradientUnits="userSpaceOnUse">
<stop stop-color="#26890D"/>
<stop offset="1" stop-color="#E3E48D"/>
</linearGradient>
<linearGradient id="paint52_linear_21385_87848" x1="265.5" y1="53" x2="-16" y2="55.5" gradientUnits="userSpaceOnUse">
<stop stop-color="#26890D"/>
<stop offset="1" stop-color="#E3E48D"/>
</linearGradient>
<linearGradient id="paint53_linear_21385_87848" x1="265.5" y1="53" x2="-16" y2="55.5" gradientUnits="userSpaceOnUse">
<stop stop-color="#26890D"/>
<stop offset="1" stop-color="#E3E48D"/>
</linearGradient>
<linearGradient id="paint54_linear_21385_87848" x1="265.5" y1="53" x2="-16" y2="55.5" gradientUnits="userSpaceOnUse">
<stop stop-color="#26890D"/>
<stop offset="1" stop-color="#E3E48D"/>
</linearGradient>
<linearGradient id="paint55_linear_21385_87848" x1="265.5" y1="53" x2="-16" y2="55.5" gradientUnits="userSpaceOnUse">
<stop stop-color="#26890D"/>
<stop offset="1" stop-color="#E3E48D"/>
</linearGradient>
<linearGradient id="paint56_linear_21385_87848" x1="265.5" y1="53" x2="-16" y2="55.5" gradientUnits="userSpaceOnUse">
<stop stop-color="#26890D"/>
<stop offset="1" stop-color="#E3E48D"/>
</linearGradient>
<linearGradient id="paint57_linear_21385_87848" x1="265.5" y1="53" x2="-16" y2="55.5" gradientUnits="userSpaceOnUse">
<stop stop-color="#26890D"/>
<stop offset="1" stop-color="#E3E48D"/>
</linearGradient>
<linearGradient id="paint58_linear_21385_87848" x1="265.5" y1="53" x2="-16" y2="55.5" gradientUnits="userSpaceOnUse">
<stop stop-color="#26890D"/>
<stop offset="1" stop-color="#E3E48D"/>
</linearGradient>
<linearGradient id="paint59_linear_21385_87848" x1="265.5" y1="53" x2="-16" y2="55.5" gradientUnits="userSpaceOnUse">
<stop stop-color="#26890D"/>
<stop offset="1" stop-color="#E3E48D"/>
</linearGradient>
<linearGradient id="paint60_linear_21385_87848" x1="265.5" y1="53" x2="-16" y2="55.5" gradientUnits="userSpaceOnUse">
<stop stop-color="#26890D"/>
<stop offset="1" stop-color="#E3E48D"/>
</linearGradient>
<linearGradient id="paint61_linear_21385_87848" x1="265.5" y1="53" x2="-16" y2="55.5" gradientUnits="userSpaceOnUse">
<stop stop-color="#26890D"/>
<stop offset="1" stop-color="#E3E48D"/>
</linearGradient>
<linearGradient id="paint62_linear_21385_87848" x1="265.5" y1="53" x2="-16" y2="55.5" gradientUnits="userSpaceOnUse">
<stop stop-color="#26890D"/>
<stop offset="1" stop-color="#E3E48D"/>
</linearGradient>
<linearGradient id="paint63_linear_21385_87848" x1="265.5" y1="53" x2="-16" y2="55.5" gradientUnits="userSpaceOnUse">
<stop stop-color="#26890D"/>
<stop offset="1" stop-color="#E3E48D"/>
</linearGradient>
<linearGradient id="paint64_linear_21385_87848" x1="265.5" y1="53" x2="-16" y2="55.5" gradientUnits="userSpaceOnUse">
<stop stop-color="#26890D"/>
<stop offset="1" stop-color="#E3E48D"/>
</linearGradient>
<linearGradient id="paint65_linear_21385_87848" x1="265.5" y1="53" x2="-16" y2="55.5" gradientUnits="userSpaceOnUse">
<stop stop-color="#26890D"/>
<stop offset="1" stop-color="#E3E48D"/>
</linearGradient>
<linearGradient id="paint66_linear_21385_87848" x1="265.5" y1="53" x2="-16" y2="55.5" gradientUnits="userSpaceOnUse">
<stop stop-color="#26890D"/>
<stop offset="1" stop-color="#E3E48D"/>
</linearGradient>
<linearGradient id="paint67_linear_21385_87848" x1="265.5" y1="53" x2="-16" y2="55.5" gradientUnits="userSpaceOnUse">
<stop stop-color="#26890D"/>
<stop offset="1" stop-color="#E3E48D"/>
</linearGradient>
<linearGradient id="paint68_linear_21385_87848" x1="265.5" y1="53" x2="-16" y2="55.5" gradientUnits="userSpaceOnUse">
<stop stop-color="#26890D"/>
<stop offset="1" stop-color="#E3E48D"/>
</linearGradient>
<linearGradient id="paint69_linear_21385_87848" x1="265.5" y1="53" x2="-16" y2="55.5" gradientUnits="userSpaceOnUse">
<stop stop-color="#26890D"/>
<stop offset="1" stop-color="#E3E48D"/>
</linearGradient>
<linearGradient id="paint70_linear_21385_87848" x1="265.5" y1="53" x2="-16" y2="55.5" gradientUnits="userSpaceOnUse">
<stop stop-color="#26890D"/>
<stop offset="1" stop-color="#E3E48D"/>
</linearGradient>
<linearGradient id="paint71_linear_21385_87848" x1="265.5" y1="53" x2="-16" y2="55.5" gradientUnits="userSpaceOnUse">
<stop stop-color="#26890D"/>
<stop offset="1" stop-color="#E3E48D"/>
</linearGradient>
<linearGradient id="paint72_linear_21385_87848" x1="265.5" y1="53" x2="-16" y2="55.5" gradientUnits="userSpaceOnUse">
<stop stop-color="#26890D"/>
<stop offset="1" stop-color="#E3E48D"/>
</linearGradient>
<linearGradient id="paint73_linear_21385_87848" x1="265.5" y1="53" x2="-16" y2="55.5" gradientUnits="userSpaceOnUse">
<stop stop-color="#26890D"/>
<stop offset="1" stop-color="#E3E48D"/>
</linearGradient>
<linearGradient id="paint74_linear_21385_87848" x1="265.5" y1="53" x2="-16" y2="55.5" gradientUnits="userSpaceOnUse">
<stop stop-color="#26890D"/>
<stop offset="1" stop-color="#E3E48D"/>
</linearGradient>
<linearGradient id="paint75_linear_21385_87848" x1="265.5" y1="53" x2="-16" y2="55.5" gradientUnits="userSpaceOnUse">
<stop stop-color="#26890D"/>
<stop offset="1" stop-color="#E3E48D"/>
</linearGradient>
<linearGradient id="paint76_linear_21385_87848" x1="265.5" y1="53" x2="-16" y2="55.5" gradientUnits="userSpaceOnUse">
<stop stop-color="#26890D"/>
<stop offset="1" stop-color="#E3E48D"/>
</linearGradient>
<linearGradient id="paint77_linear_21385_87848" x1="265.5" y1="53" x2="-16" y2="55.5" gradientUnits="userSpaceOnUse">
<stop stop-color="#26890D"/>
<stop offset="1" stop-color="#E3E48D"/>
</linearGradient>
<linearGradient id="paint78_linear_21385_87848" x1="265.5" y1="53" x2="-16" y2="55.5" gradientUnits="userSpaceOnUse">
<stop stop-color="#26890D"/>
<stop offset="1" stop-color="#E3E48D"/>
</linearGradient>
<linearGradient id="paint79_linear_21385_87848" x1="265.5" y1="53" x2="-16" y2="55.5" gradientUnits="userSpaceOnUse">
<stop stop-color="#26890D"/>
<stop offset="1" stop-color="#E3E48D"/>
</linearGradient>
</defs>
</svg>
