<svg width="100%" height="100%" viewBox="0 0 13 25" fill="none" xmlns="http://www.w3.org/2000/svg">
<path fill-rule="evenodd" clip-rule="evenodd" d="M6.66393 18.5078C6.29838 18.5078 6.00171 18.2109 6.00171 17.8452V12.8022C6.00171 12.4365 6.29838 12.1396 6.66393 12.1396C7.02947 12.1396 7.32614 12.4365 7.32614 12.8022V17.8452C7.32614 18.2109 7.02947 18.5078 6.66393 18.5078Z" />
<path fill-rule="evenodd" clip-rule="evenodd" d="M6.7771 24.1641C6.21557 24.1634 5.66324 24.0169 5.17459 23.74C4.67863 23.4815 4.30317 23.0389 4.12828 22.5074C3.95815 21.8341 4.15151 21.1204 4.63819 20.6254C4.67922 20.5804 4.72362 20.538 4.77064 20.4995C4.63621 20.3769 4.52238 20.2338 4.43293 20.0754C4.23694 19.7666 4.32762 19.3571 4.6362 19.1609C4.94545 18.9641 5.35466 19.0556 5.55072 19.3644C5.56065 19.3803 5.56992 19.3962 5.57846 19.4128C5.69771 19.6182 5.88976 19.6712 6.3798 19.7706H6.43274H6.53868C7.22668 19.8481 7.88555 20.0913 8.45905 20.4797C9.0265 20.9137 9.32916 21.6102 9.2603 22.3219C9.07154 23.2012 8.37493 23.8825 7.49226 24.0515C7.25845 24.1151 7.01872 24.1528 6.7771 24.1641ZM6.33336 21.1092C6.06128 21.1887 5.8136 21.3345 5.61162 21.5333C5.44273 21.6877 5.36533 21.9176 5.40636 22.1429C5.49048 22.3404 5.64339 22.5001 5.83682 22.5935C6.24866 22.8261 6.7327 22.8971 7.19426 22.7924C7.53198 22.7129 7.90936 22.4677 7.94908 22.1761C7.95639 21.9276 7.83984 21.6917 7.63787 21.5466C7.23662 21.31 6.78966 21.1609 6.32678 21.1092H6.33336Z" />
<path fill-rule="evenodd" clip-rule="evenodd" d="M6.66503 13.4609C6.29949 13.4609 6.00281 13.1641 6.00281 12.7983C6.00281 12.4325 6.29949 12.1356 6.66503 12.1356C9.41906 12.1396 11.6539 9.90842 11.6578 7.15241C11.6612 4.3964 9.43227 2.15994 6.67831 2.15592C3.92427 2.15198 1.68942 4.38311 1.68547 7.13919C1.68547 7.14379 1.68547 7.14781 1.68547 7.15241C1.68547 7.51817 1.38879 7.81507 1.02333 7.81507C0.657786 7.81507 0.361088 7.51817 0.361088 7.15241C0.357145 3.66481 3.17998 0.834541 6.66503 0.830598C10.1501 0.826582 12.9782 3.65152 12.9822 7.13919C12.9855 10.6267 10.1633 13.457 6.67831 13.4609C6.67363 13.4609 6.6697 13.4609 6.66503 13.4609Z" />
<path fill-rule="evenodd" clip-rule="evenodd" d="M8.32009 13.2182C8.01815 13.2308 7.74542 13.0373 7.65794 12.7477C7.55133 12.3979 7.74806 12.0273 8.09834 11.9207C8.099 11.92 8.10023 11.92 8.10162 11.9194C10.7312 11.1123 12.2084 8.32507 11.4019 5.69363C10.5948 3.06292 7.80961 1.58382 5.1808 2.39164C2.55521 3.19735 1.07794 5.97732 1.87715 8.60606C1.98514 8.95524 1.78915 9.32633 1.44011 9.4344C1.09115 9.5424 0.72036 9.34625 0.612436 8.997C-0.408681 5.66646 1.46136 2.13783 4.79007 1.11532C8.1182 0.0934744 11.6443 1.9655 12.666 5.29604C13.6871 8.62723 11.8165 12.1559 8.48833 13.1778C8.48695 13.1778 8.48637 13.1784 8.48564 13.1784C8.43343 13.2017 8.37705 13.2149 8.32009 13.2182Z" />
</svg>
