<svg width="100%" height="100%" viewBox="0 0 24 24" fill="none" xmlns="http://www.w3.org/2000/svg">
<path fill-rule="evenodd" clip-rule="evenodd" d="M10.817 16.6889C9.88846 16.6652 8.97405 16.453 8.12965 16.0648C7.28249 15.7063 6.49447 15.2207 5.79243 14.6253C3.66436 12.8305 3.97362 12.3477 4.07817 12.1791C7.07606 7.79917 13.051 6.68313 17.4231 9.68649C18.3989 10.357 19.2423 11.202 19.9112 12.1791C20.0476 12.3978 20.2795 12.7622 18.3925 14.4568C17.4772 15.2276 16.4418 15.843 15.3277 16.2789C15.094 16.3687 14.8321 16.2525 14.7411 16.0193C14.6498 15.7852 14.7652 15.5209 14.9994 15.4294C15.0012 15.4284 15.003 15.428 15.0048 15.4271C16.013 15.0358 16.9515 14.4837 17.7831 13.7917C18.2269 13.3918 18.6403 12.9595 19.02 12.498C16.1822 8.60867 10.7338 7.76046 6.85147 10.6035C6.12757 11.1337 5.48956 11.7728 4.96028 12.498C5.39228 13.015 5.86697 13.4952 6.379 13.9329C7.01244 14.4705 7.72403 14.9082 8.48884 15.2312C10.4805 16.0876 12.0356 15.9509 13.0996 14.8212C13.6957 14.1502 13.9959 13.2665 13.9318 12.3705C13.9004 12.119 14.0786 11.8894 14.3296 11.858C14.5806 11.8265 14.8098 12.0051 14.8412 12.2566C14.9358 13.1535 14.7243 14.0559 14.241 14.8167C14.1109 15.0426 13.9586 15.2549 13.7862 15.4498C13.0187 16.2689 11.9379 16.7199 10.817 16.6889Z"/>
<path fill-rule="evenodd" clip-rule="evenodd" d="M11.9946 15.2549C10.435 15.2549 9.1709 13.9885 9.1709 12.426C9.1709 10.8635 10.435 9.59713 11.9946 9.59713C13.5543 9.59713 14.8184 10.8635 14.8184 12.426C14.8162 13.9871 13.5529 15.2521 11.9946 15.2549ZM11.9946 10.5082C10.9374 10.5082 10.0803 11.3669 10.0803 12.426C10.0803 13.4851 10.9374 14.3438 11.9946 14.3438C13.0518 14.3438 13.909 13.4851 13.909 12.426C13.9067 11.3678 13.0509 10.5109 11.9946 10.5082Z"/>
<path fill-rule="evenodd" clip-rule="evenodd" d="M20.2276 7.02415L5.01473 17.6763C4.69178 17.9024 4.33333 17.9483 4.2146 17.7788C4.09586 17.6092 4.2616 17.2881 4.58455 17.0619L19.7974 6.40979C20.1204 6.18361 20.4789 6.13766 20.5976 6.30723C20.7164 6.4768 20.5506 6.79798 20.2276 7.02415Z"/>
</svg>
