<svg width="100%" height="100%" viewBox="0 0 24 24" fill="none" xmlns="http://www.w3.org/2000/svg">
<path fill-rule="evenodd" clip-rule="evenodd" d="M11.941 18.7051C11.6927 18.7051 11.4912 18.5037 11.4912 18.2553C11.4912 18.0069 11.6927 17.8055 11.941 17.8055C15.1207 17.8055 17.6985 15.2278 17.6985 12.048C17.6985 8.86823 15.1207 6.29049 11.941 6.29049C11.6927 6.29049 11.4912 6.08912 11.4912 5.84071C11.4912 5.59229 11.6927 5.39091 11.941 5.39091C15.6177 5.39091 18.5981 8.37135 18.5981 12.048C18.5981 15.7246 15.6177 18.7051 11.941 18.7051Z" fill="#005587"/>
<path fill-rule="evenodd" clip-rule="evenodd" d="M5.85056 18.2422H5.75607C5.5146 18.1904 5.35984 17.9535 5.40974 17.7114L6.01247 14.8012C6.05117 14.6192 6.19779 14.4797 6.38133 14.4503C6.43797 14.4394 6.49601 14.4394 6.55226 14.4503L9.45345 15.0531C9.70172 15.104 9.86183 15.3467 9.81104 15.5951C9.7602 15.8435 9.51728 16.0036 9.26901 15.9527L6.8041 15.4399L6.29135 17.8958C6.24323 18.0999 6.06014 18.2436 5.85056 18.2422Z" fill="#005587"/>
<path fill-rule="evenodd" clip-rule="evenodd" d="M11.9685 18.705C9.47574 18.7137 7.18898 17.3235 6.04918 15.1067C5.95786 14.8756 6.0712 14.6144 6.30241 14.5231C6.50166 14.4444 6.72882 14.5173 6.84534 14.6973C8.30226 17.5237 11.7747 18.6337 14.6008 17.1767C16.377 16.2611 17.5514 14.4901 17.7035 12.4978C17.7228 12.2509 17.9379 12.0659 18.1848 12.084C18.4327 12.103 18.618 12.3192 18.5991 12.5669C18.5986 12.5678 18.5986 12.5688 18.5986 12.5698C18.3139 16.0248 15.4352 18.6888 11.9685 18.705Z" fill="#005587"/>
<path fill-rule="evenodd" clip-rule="evenodd" d="M6.45789 9.66022H6.39942C6.15383 9.62977 5.97881 9.40666 6.00808 9.16092C6.03868 8.91533 6.26182 8.74048 6.50736 8.7696C6.75567 8.78326 6.94595 8.99568 6.93246 9.24415C6.91897 9.49262 6.70615 9.6829 6.45789 9.66923V9.66022Z" fill="#005587"/>
<path fill-rule="evenodd" clip-rule="evenodd" d="M18.1483 12.002C17.9131 12.0027 17.7174 11.8224 17.6985 11.5881C17.4435 8.41861 14.6673 6.05606 11.4975 6.31126C9.51304 6.471 7.75157 7.64505 6.8403 9.41554C6.70538 9.6242 6.42695 9.68397 6.21822 9.54914C6.03831 9.43283 5.96549 9.2056 6.04416 9.00626C7.72237 5.73784 11.7324 4.44882 15.001 6.12712C17.0512 7.17986 18.4106 9.21872 18.5936 11.5162C18.6143 11.7637 18.4303 11.9811 18.1825 12.0017C18.1816 12.0017 18.1807 12.0018 18.1798 12.002H18.1483Z" fill="#005587"/>
<path fill-rule="evenodd" clip-rule="evenodd" d="M11.942 12.498C11.8224 12.4987 11.7077 12.4518 11.6227 12.3676L7.28659 8.03145C7.1102 7.85508 7.1102 7.56914 7.28659 7.39277C7.46288 7.21635 7.74895 7.21635 7.92529 7.39277L12.2614 11.7289C12.4377 11.9038 12.4391 12.1886 12.2641 12.365C12.2632 12.3659 12.2623 12.3668 12.2614 12.3676C12.1764 12.4518 12.0617 12.4987 11.942 12.498Z" fill="#005587"/>
<path fill-rule="evenodd" clip-rule="evenodd" d="M11.9407 12.498C11.8211 12.4987 11.7064 12.4518 11.6214 12.3676C11.445 12.1926 11.4437 11.9078 11.6187 11.7314C11.6196 11.7306 11.6205 11.7297 11.6214 11.7288L13.7849 9.56978C13.9464 9.38108 14.2307 9.35909 14.4192 9.52066C14.6076 9.68232 14.6297 9.9662 14.4682 10.1549C14.4533 10.1725 14.4367 10.1889 14.4192 10.204L12.2601 12.3676C12.1751 12.4518 12.0604 12.4987 11.9407 12.498Z" fill="#005587"/>
</svg>
