<svg width="100%" height="100%" viewBox="0 0 13 13" fill="none" xmlns="http://www.w3.org/2000/svg">
<path d="M7.46115 3.94174H6.48371V7.19988L9.27268 8.85502L9.74185 8.06655L7.46115 6.71116V3.94174ZM7.13534 0.683594C5.57993 0.683594 4.08823 1.30148 2.9884 2.40131C1.88856 3.50115 1.27068 4.99285 1.27068 6.54826H0L1.89624 9.17432L3.84461 6.54826H2.57393C2.57393 5.3385 3.05451 4.17828 3.90994 3.32286C4.76537 2.46743 5.92558 1.98685 7.13534 1.98685C8.3451 1.98685 9.50531 2.46743 10.3607 3.32286C11.2162 4.17828 11.6967 5.3385 11.6967 6.54826C11.6967 7.75801 11.2162 8.91823 10.3607 9.77365C9.50531 10.6291 8.3451 11.1097 7.13534 11.1097C5.87769 11.1097 4.73734 10.5949 3.91629 9.7673L2.99098 10.6926C3.53279 11.2404 4.17836 11.6747 4.88995 11.97C5.60155 12.2654 6.36488 12.416 7.13534 12.4129C8.69074 12.4129 10.1824 11.795 11.2823 10.6952C12.3821 9.59536 13 8.10366 13 6.54826C13 4.99285 12.3821 3.50115 11.2823 2.40131C10.1824 1.30148 8.69074 0.683594 7.13534 0.683594Z" />
</svg>
