<svg  width="100%" height="100%" viewBox="0 0 24 24" fill="none" xmlns="http://www.w3.org/2000/svg">
<path fill-rule="evenodd" clip-rule="evenodd" d="M6.94096 13.7383C6.69269 13.7383 6.49121 13.5365 6.49121 13.2877C6.49121 13.0388 6.69269 12.8371 6.94096 12.8371C10.1207 12.8371 12.6985 10.2547 12.6985 7.06917C12.6985 3.8837 10.1207 1.30131 6.94096 1.30131C6.69269 1.30131 6.49121 1.09958 6.49121 0.850714C6.49121 0.601851 6.69269 0.400103 6.94096 0.400103C10.6177 0.400103 13.5981 3.38592 13.5981 7.06917C13.5981 10.7524 10.6177 13.7383 6.94096 13.7383Z" fill="#D0D0CE"/>
<path fill-rule="evenodd" clip-rule="evenodd" d="M0.850559 13.2734H0.756068C0.514596 13.2216 0.35984 12.9842 0.409742 12.7417L1.01247 9.82624C1.05117 9.64395 1.19779 9.5042 1.38133 9.47474C1.43797 9.46378 1.49601 9.46378 1.55226 9.47474L4.45345 10.0786C4.70172 10.1296 4.86183 10.3727 4.81104 10.6215C4.7602 10.8704 4.51728 11.0308 4.26901 10.9798L1.8041 10.4661L1.29135 12.9264C1.24323 13.1309 1.06014 13.2749 0.850559 13.2734Z" fill="#D0D0CE"/>
<path fill-rule="evenodd" clip-rule="evenodd" d="M6.96854 13.7382C4.47574 13.7469 2.18898 12.3542 1.04918 10.1334C0.957857 9.90187 1.0712 9.64021 1.30241 9.54879C1.50166 9.46996 1.72882 9.54297 1.84534 9.72328C3.30226 12.5547 6.77466 13.6668 9.60075 12.2072C11.377 11.2899 12.5514 9.51575 12.7035 7.51983C12.7228 7.27246 12.9379 7.08713 13.1848 7.10523C13.4327 7.12428 13.618 7.34091 13.5991 7.58903C13.5986 7.58997 13.5986 7.59096 13.5986 7.5919C13.3139 11.0532 10.4352 13.722 6.96854 13.7382Z" fill="#D0D0CE"/>
<path fill-rule="evenodd" clip-rule="evenodd" d="M1.45789 4.67583H1.39942C1.15383 4.64532 0.978812 4.42181 1.00808 4.17563C1.03868 3.92959 1.26182 3.75443 1.50736 3.7836C1.75567 3.79729 1.94595 4.01009 1.93246 4.25901C1.91897 4.50792 1.70615 4.69854 1.45789 4.68485V4.67583Z" fill="#D0D0CE"/>
<path fill-rule="evenodd" clip-rule="evenodd" d="M13.1483 7.02539C12.9131 7.02613 12.7174 6.84547 12.6985 6.61079C12.4435 3.43559 9.66734 1.06878 6.49755 1.32444C4.51304 1.48446 2.75157 2.66063 1.8403 4.43432C1.70538 4.64335 1.42695 4.70322 1.21822 4.56815C1.03831 4.45163 0.965491 4.224 1.04416 4.02429C2.72237 0.74998 6.73236 -0.54136 10.001 1.13997C12.0512 2.1946 13.4106 4.23714 13.5936 6.53872C13.6143 6.78674 13.4303 7.0045 13.1825 7.02513C13.1816 7.02518 13.1807 7.02524 13.1798 7.02539H13.1483Z" fill="#D0D0CE"/>
<path fill-rule="evenodd" clip-rule="evenodd" d="M6.94202 7.51952C6.82238 7.52022 6.70769 7.47324 6.62267 7.38887L2.28659 3.04488C2.1102 2.86819 2.1102 2.58174 2.28659 2.40505C2.46288 2.22831 2.74895 2.22831 2.92529 2.40505L7.26137 6.74897C7.43771 6.92422 7.43905 7.20954 7.2641 7.38628C7.26315 7.38712 7.26227 7.38802 7.26137 7.38887C7.1764 7.47324 7.06167 7.52022 6.94202 7.51952Z" fill="#D0D0CE"/>
<path fill-rule="evenodd" clip-rule="evenodd" d="M6.94072 7.51952C6.82108 7.52017 6.70639 7.47318 6.62137 7.38881C6.44503 7.21356 6.4437 6.92824 6.61871 6.75155C6.6196 6.75065 6.62048 6.74977 6.62137 6.74893L8.78492 4.58599C8.94643 4.39695 9.2307 4.37492 9.4192 4.53677C9.60764 4.69873 9.62967 4.98312 9.46821 5.17216C9.45333 5.18982 9.43671 5.20623 9.4192 5.22136L7.26013 7.38881C7.17506 7.47318 7.06037 7.52017 6.94072 7.51952Z" fill="#D0D0CE"/>
</svg>
