<svg width="100%" height="100%" viewBox="0 0 10 13" fill="none" xmlns="http://www.w3.org/2000/svg">
<path fill-rule="evenodd" clip-rule="evenodd" d="M9.60741 13H6.41931C6.2026 13 6.02668 12.8238 6.02668 12.6067V9.0392H3.97327V12.6067C3.97327 12.8238 3.7974 13 3.5807 13H0.392632C0.175926 13 7.30136e-06 12.8238 7.30136e-06 12.6067V11.4739C7.30136e-06 11.2568 0.175926 11.0806 0.392632 11.0806C0.609338 11.0806 0.785204 11.2568 0.785204 11.4739V12.2134H3.18807V8.64588C3.18807 8.42874 3.36395 8.25251 3.5807 8.25251H6.41931C6.63606 8.25251 6.81193 8.42874 6.81193 8.64588V12.2134H9.21475V4.69685L4.96662 1.739L0.785204 4.69685V9.77864C0.785204 9.99577 0.609338 10.172 0.392632 10.172C0.175926 10.172 7.30136e-06 9.99577 7.30136e-06 9.77864V4.49232C-0.000772061 4.3645 0.0608834 4.24413 0.164885 4.16979L4.73497 0.936652C4.87045 0.84144 5.051 0.84144 5.18648 0.936652L9.83117 4.16979C9.93678 4.24335 9.99961 4.36372 10 4.49232V12.6067C10 12.8238 9.82412 13 9.60741 13Z"/>
</svg>
