<svg width="100%" height="100%" viewBox="0 0 21 20" fill="none" xmlns="http://www.w3.org/2000/svg">
<path d="M12.5944 18.1202H17.4564V9.06943C17.4564 8.69543 17.7555 8.39626 18.1295 8.39626H18.354L10.5 1.66429L2.64604 8.39626H2.87043C3.24443 8.39626 3.5436 8.69543 3.5436 9.06943V18.1202H8.40558V14.6046C8.40558 14.2306 8.70479 13.9314 9.07879 13.9314H11.8464C12.2204 13.9314 12.5196 14.2306 12.5196 14.6046V18.1202H12.5944ZM18.1295 19.5414H11.8464C11.4724 19.5414 11.1732 19.2422 11.1732 18.8682V15.3526H9.75201V18.8682C9.75201 19.2422 9.45279 19.5414 9.07879 19.5414H2.7956C2.4216 19.5414 2.12243 19.2422 2.12243 18.8682V9.74265H0.701221C0.402022 9.74265 0.177651 9.59307 0.0280513 9.29387C-0.0467484 8.99467 0.0280422 8.69547 0.252441 8.54587L10.0512 0.168299C10.2756 -0.0560997 10.7244 -0.0560997 10.9488 0.168299L20.7475 8.54587C20.9719 8.77027 21.0468 9.06947 20.972 9.29387C20.8972 9.59307 20.5979 9.74265 20.2987 9.74265H18.8775V18.7934C18.8775 19.2422 18.5783 19.5414 18.1295 19.5414Z"  />
</svg>
