<svg width="100%" height="100%" viewBox="0 0 19 19" fill="none" xmlns="http://www.w3.org/2000/svg">
<path d="M9.8833 10.8457C10.3092 10.2037 10.8152 9.62021 11.3888 9.10984L12.2775 8.41893C13.7259 7.43611 14.422 6.91016 16.161 6.91016C18.291 6.91016 18.291 11.0936 16.161 11.0936H16.1669C14.428 11.0919 13.7327 10.5651 12.2843 9.58311L11.5226 9.02002L12.1522 8.55193L12.9352 9.11329C14.2133 9.91475 14.6708 10.3388 16.1678 10.3388H16.1618C17.7116 10.3388 17.7116 7.66152 16.1618 7.66152C14.6648 7.66152 14.2022 8.0847 12.9293 8.88702L12.0287 9.53907C11.3797 10.0976 10.8206 10.7552 10.3715 11.4883L9.8833 10.8457Z"/>
<path d="M11.5498 8.97564C10.9164 8.54392 10.341 8.03066 9.83806 7.44873L9.15644 6.54796C8.186 5.07978 7.66797 4.37419 7.66797 2.61151C7.66797 0.452415 11.7951 0.452415 11.7951 2.61151V2.6046C11.7951 4.36814 11.2763 5.07459 10.3067 6.54191L9.75115 7.314L9.28936 6.67578L9.84232 5.88209C10.6338 4.58664 11.0522 4.12287 11.0522 2.60028V2.61237C11.0522 1.04055 8.41093 1.04055 8.41093 2.61237C8.41093 4.12978 8.82927 4.59873 9.61994 5.889L10.2615 6.80187C10.812 7.46081 11.4605 8.02871 12.1837 8.48509L11.5498 8.97564Z"/>
<path d="M8.0747 9.15625C8.70831 9.58765 9.28398 10.1006 9.78726 10.6823L10.4689 11.5822C11.4385 13.0504 11.9573 13.7568 11.9573 15.5195C11.9573 17.6786 7.83017 17.6786 7.83017 15.5195V15.5256C7.83017 13.7629 8.34905 13.0564 9.31865 11.5883L9.87417 10.817L10.336 11.4553L9.78215 12.2489C8.99318 13.5453 8.57569 14.0073 8.57569 15.5256V15.5195C8.57569 17.0905 11.2169 17.0905 11.2169 15.5195C11.2169 14.0013 10.7986 13.5332 10.0071 12.2429L9.36551 11.3292C8.81484 10.6714 8.16633 10.1046 7.44336 9.64939L8.0747 9.15625Z"/>
<path d="M9.75057 7.33309C9.32492 7.97504 8.81885 8.55827 8.24505 9.06813L7.3564 9.75904C5.90797 10.7427 5.21101 11.2678 3.47205 11.2678C1.342 11.2678 1.342 7.08523 3.47205 7.08523H3.46352C5.20249 7.08523 5.9003 7.61118 7.34788 8.594L8.10958 9.15795L7.47994 9.62604L6.69693 9.06468C5.41891 8.26236 4.96137 7.83918 3.46352 7.83918H3.46949C1.91967 7.83918 1.91967 10.5165 3.46949 10.5165C4.96734 10.5165 5.42913 10.0924 6.70716 9.29095L7.60774 8.64063C8.25694 8.08237 8.81608 7.42469 9.26492 6.69141L9.75057 7.33309Z"/>
</svg>
