<svg width="100%" height="100%" viewBox="0 0 22 20" fill="none" xmlns="http://www.w3.org/2000/svg">
<path d="M10.9575 12.1372C11.5158 11.361 12.1793 10.6555 12.9313 10.0384L14.0964 9.20308C15.9953 8.01481 16.9079 7.37891 19.1878 7.37891C21.9804 7.37891 21.9804 12.4369 19.1878 12.4369H19.1956C16.9158 12.4348 16.0043 11.7979 14.1053 10.6106L13.1067 9.92983L13.9322 9.36389L14.9587 10.0426C16.6343 11.0116 17.2341 11.5243 19.1967 11.5243H19.1889C21.2208 11.5243 21.2208 8.28734 19.1889 8.28734C17.2263 8.28734 16.6197 8.79899 14.9509 9.76903L13.7702 10.5574C12.9194 11.2327 12.1864 12.0278 11.5976 12.9141L10.9575 12.1372Z" fill="#D0C539"/>
<path d="M13.1424 9.88284C12.312 9.36087 11.5577 8.74032 10.8983 8.03673L10.0047 6.94766C8.73238 5.17256 8.05322 4.31947 8.05322 2.1883C8.05322 -0.422142 13.4641 -0.422142 13.4641 2.1883V2.17995C13.4641 4.31216 12.7838 5.16629 11.5127 6.94035L10.7844 7.87384L10.1789 7.1022L10.9039 6.1426C11.9416 4.57633 12.4901 4.01561 12.4901 2.17473V2.18934C12.4901 0.288942 9.02727 0.288942 9.02727 2.18934C9.02727 4.02396 9.57574 4.59095 10.6123 6.15095L11.4535 7.25464C12.1752 8.05134 13.0254 8.73795 13.9735 9.28975L13.1424 9.88284Z" fill="#037E8E"/>
<path d="M8.58602 10.0938C9.4167 10.6153 10.1714 11.2355 10.8313 11.9388L11.7249 13.0268C12.9961 14.8019 13.6763 15.6561 13.6763 17.7872C13.6763 20.3977 8.26543 20.3977 8.26543 17.7872V17.7946C8.26543 15.6634 8.9457 14.8093 10.2169 13.0342L10.9452 12.1017L11.5506 12.8733L10.8245 13.8329C9.79018 15.4003 9.24283 15.9589 9.24283 17.7946V17.7872C9.24283 19.6866 12.7056 19.6866 12.7056 17.7872C12.7056 15.9516 12.1572 15.3856 11.1194 13.8256L10.2783 12.7209C9.55636 11.9256 8.70614 11.2404 7.7583 10.69L8.58602 10.0938Z" fill="#92C7CD"/>
<path d="M10.7831 7.89301C10.2251 8.66917 9.56159 9.37431 8.80931 9.99076L7.64425 10.8261C5.7453 12.0154 4.83157 12.6503 2.55171 12.6503C-0.240869 12.6503 -0.240869 7.59333 2.55171 7.59333H2.54054C4.8204 7.59333 5.73524 8.22924 7.63308 9.41751L8.6317 10.0994L7.80622 10.6653L6.77967 9.98659C5.10412 9.01655 4.50428 8.5049 2.54054 8.5049H2.54836C0.516478 8.5049 0.516478 11.7418 2.54836 11.7418C4.5121 11.7418 5.11753 11.2292 6.79307 10.2602L7.97377 9.4739C8.8249 8.79893 9.55795 8.00376 10.1464 7.11719L10.7831 7.89301Z" fill="#3C89B7"/>
</svg>
