<svg width="100%" height="100%" viewBox="0 0 16 16" fill="none" xmlns="http://www.w3.org/2000/svg">
<path d="M8.18115 9.7129C8.6026 9.09189 9.10342 8.52752 9.67111 8.03387L10.5506 7.36559C11.984 6.41497 12.673 5.90625 14.394 5.90625C16.502 5.90625 16.502 9.95265 14.394 9.95265H14.3999C12.6789 9.95097 11.9908 9.44142 10.5573 8.49163L9.8035 7.94699L10.4266 7.49424L11.2015 8.03721C12.4664 8.8124 12.9192 9.22256 14.4007 9.22256H14.3948C15.9286 9.22256 15.9286 6.633 14.3948 6.633C12.9133 6.633 12.4554 7.04232 11.1956 7.81835L10.3044 8.44903C9.66214 8.98927 9.10881 9.62535 8.66431 10.3344L8.18115 9.7129Z" fill="#D0C539"/>
<path d="M9.83046 7.90549C9.20363 7.48792 8.6342 6.99147 8.13644 6.42861L7.46187 5.55735C6.50144 4.13727 5.98877 3.45479 5.98877 1.74986C5.98877 -0.338495 10.0733 -0.338495 10.0733 1.74986V1.74318C10.0733 3.44894 9.55979 4.13225 8.60021 5.5515L8.05043 6.29829L7.59341 5.68098L8.14065 4.9133C8.924 3.66028 9.33802 3.21171 9.33802 1.739V1.75069C9.33802 0.230372 6.72405 0.230372 6.72405 1.75069C6.72405 3.21839 7.13807 3.67198 7.92058 4.91998L8.55552 5.80294C9.10033 6.44029 9.74214 6.98958 10.4578 7.43102L9.83046 7.90549Z" fill="#037E8E"/>
<path d="M6.39093 8.07812C7.018 8.4954 7.58771 8.99156 8.0858 9.55417L8.76037 10.4246C9.71995 11.8447 10.2335 12.528 10.2335 14.2329C10.2335 16.3213 6.14893 16.3213 6.14893 14.2329V14.2388C6.14893 12.5338 6.66245 11.8505 7.62203 10.4304L8.1718 9.68449L8.62883 10.3018L8.08074 11.0695C7.29992 12.3233 6.88675 12.7702 6.88675 14.2388V14.2329C6.88675 15.7524 9.50071 15.7524 9.50071 14.2329C9.50071 12.7644 9.08669 12.3116 8.30335 11.0636L7.66841 10.1798C7.12342 9.54359 6.48161 8.99543 5.76611 8.55511L6.39093 8.07812Z" fill="#92C7CD"/>
<path d="M8.04956 6.31597C7.62831 6.9369 7.12747 7.50101 6.5596 7.99417L5.68013 8.66245C4.24666 9.6139 3.55691 10.1218 1.83591 10.1218C-0.272126 10.1218 -0.272126 6.07623 1.83591 6.07623H1.82748C3.54848 6.07623 4.23907 6.58495 5.67169 7.53557L6.42553 8.08105L5.80239 8.5338L5.02748 7.99083C3.76265 7.2148 3.30985 6.80548 1.82748 6.80548H1.83338C0.299573 6.80548 0.299573 9.39504 1.83338 9.39504C3.31575 9.39504 3.77277 8.98489 5.0376 8.20969L5.92887 7.58068C6.57137 7.0407 7.12473 6.40457 7.56893 5.69531L8.04956 6.31597Z" fill="#3C89B7"/>
</svg>
