<svg width="100%" height="100%" viewBox="0 0 28 28" fill="none" xmlns="http://www.w3.org/2000/svg">
<circle cx="14" cy="14" r="13.5" fill="white" stroke="#E2EAEC"/>
<path d="M13.9575 16.1372C14.5158 15.361 15.1793 14.6555 15.9313 14.0384L17.0964 13.2031C18.9953 12.0148 19.9079 11.3789 22.1878 11.3789C24.9804 11.3789 24.9804 16.4369 22.1878 16.4369H22.1956C19.9158 16.4348 19.0043 15.7979 17.1053 14.6106L16.1067 13.9298L16.9322 13.3639L17.9587 14.0426C19.6343 15.0116 20.2341 15.5243 22.1967 15.5243H22.1889C24.2208 15.5243 24.2208 12.2873 22.1889 12.2873C20.2263 12.2873 19.6197 12.799 17.9509 13.769L16.7702 14.5574C15.9194 15.2327 15.1864 16.0278 14.5976 16.9141L13.9575 16.1372Z" fill="#D0C539"/>
<path d="M16.1424 13.8828C15.312 13.3609 14.5577 12.7403 13.8983 12.0367L13.0047 10.9477C11.7324 9.17256 11.0532 8.31947 11.0532 6.1883C11.0532 3.57786 16.4641 3.57786 16.4641 6.1883V6.17995C16.4641 8.31216 15.7838 9.16629 14.5127 10.9403L13.7844 11.8738L13.1789 11.1022L13.9039 10.1426C14.9416 8.57633 15.4901 8.01561 15.4901 6.17473V6.18934C15.4901 4.28894 12.0273 4.28894 12.0273 6.18934C12.0273 8.02396 12.5757 8.59095 13.6123 10.151L14.4535 11.2546C15.1752 12.0513 16.0254 12.738 16.9735 13.2897L16.1424 13.8828Z" fill="#037E8E"/>
<path d="M11.586 14.0938C12.4167 14.6153 13.1714 15.2355 13.8313 15.9388L14.7249 17.0268C15.9961 18.8019 16.6763 19.6561 16.6763 21.7872C16.6763 24.3977 11.2654 24.3977 11.2654 21.7872V21.7946C11.2654 19.6634 11.9457 18.8093 13.2169 17.0342L13.9452 16.1017L14.5506 16.8733L13.8245 17.8329C12.7902 19.4003 12.2428 19.9589 12.2428 21.7946V21.7872C12.2428 23.6866 15.7056 23.6866 15.7056 21.7872C15.7056 19.9516 15.1572 19.3856 14.1194 17.8256L13.2783 16.7209C12.5564 15.9256 11.7061 15.2404 10.7583 14.69L11.586 14.0938Z" fill="#92C7CD"/>
<path d="M13.7831 11.893C13.2251 12.6692 12.5616 13.3743 11.8093 13.9908L10.6442 14.8261C8.7453 16.0154 7.83157 16.6503 5.55171 16.6503C2.75913 16.6503 2.75913 11.5933 5.55171 11.5933H5.54054C7.8204 11.5933 8.73524 12.2292 10.6331 13.4175L11.6317 14.0994L10.8062 14.6653L9.77967 13.9866C8.10412 13.0165 7.50428 12.5049 5.54054 12.5049H5.54836C3.51648 12.5049 3.51648 15.7418 5.54836 15.7418C7.5121 15.7418 8.11753 15.2292 9.79307 14.2602L10.9738 13.4739C11.8249 12.7989 12.558 12.0038 13.1464 11.1172L13.7831 11.893Z" fill="#3C89B7"/>
</svg>