<svg width="100%" height="100%" viewBox="0 0 26 19" fill="none" xmlns="http://www.w3.org/2000/svg">
<path d="M17.7966 16.3009C16.8966 15.8009 15.6966 15.7009 14.6966 15.6009C14.0966 15.5009 13.3966 15.5009 13.1966 15.4009C12.6966 15.1009 12.0966 13.3009 12.2966 12.8009C12.9966 11.7009 13.7966 9.90088 14.1966 8.30087C14.8966 5.50087 14.5966 3.40085 13.3966 1.90085C11.7966 -0.0991497 9.19657 0.000825878 9.19657 0.000825878C9.09657 0.000825878 6.49657 0.00085032 4.89657 1.90085C3.69657 3.40085 3.39658 5.50087 4.09658 8.30087C4.49658 9.90088 5.29657 11.7009 5.99657 12.8009C6.09657 13.3009 5.59658 15.1009 5.09658 15.4009C4.79658 15.5009 4.19658 15.6009 3.59658 15.6009C2.59658 15.7009 1.39657 15.8009 0.496573 16.3009C-0.00342721 16.5009 -0.103425 17.1009 0.0965751 17.6009C0.296575 18.1009 0.896574 18.2008 1.39657 18.0008C1.99657 17.7008 2.99657 17.6008 3.79657 17.5008C4.69657 17.4008 5.39657 17.4009 5.99657 17.1009C7.19657 16.5009 7.69657 14.8009 7.79657 14.3009C7.99657 13.5009 8.09657 12.5009 7.69657 11.8009C7.09657 10.9009 6.39658 9.30085 6.09658 7.90085C5.59658 5.70085 5.69657 4.10086 6.49657 3.10086C7.49657 1.80086 9.29657 1.80085 9.39657 1.90085C9.39657 1.90085 11.1966 1.90086 12.1966 3.10086C12.9966 4.10086 13.1966 5.70085 12.5966 7.90085C12.2966 9.30085 11.5966 10.9009 10.9966 11.8009C10.4966 12.4009 10.6966 13.5009 10.8966 14.3009C10.9966 14.8009 11.4966 16.5009 12.6966 17.1009C13.2966 17.4009 13.9966 17.5008 14.8966 17.5008C15.7966 17.6008 16.6966 17.7008 17.2966 18.0008C17.3966 18.1008 17.5966 18.1009 17.6966 18.1009C17.9966 18.1009 18.3966 17.9009 18.4966 17.6009C18.3966 17.2009 18.2966 16.6009 17.7966 16.3009Z" />
<path d="M19.387 13.1348C17.8692 13.1148 16.6787 11.8962 16.6987 10.3833C16.7187 8.87032 17.941 7.68366 19.4588 7.70372C20.9766 7.72378 22.1672 8.94232 22.1472 10.4553C22.1272 11.9682 20.9048 13.1549 19.387 13.1348ZM22.0411 12.5879C22.5158 12.0122 22.8369 11.2792 22.8477 10.4645C22.8723 8.60244 21.3745 7.06944 19.5064 7.04475C17.6384 7.02006 16.1006 8.51295 16.076 10.375C16.0514 12.2371 17.5492 13.7701 19.4172 13.7948C20.2345 13.8056 20.9775 13.5438 21.568 13.0472L24.5636 16.1132C24.6404 16.1919 24.7177 16.2317 24.7955 16.2327C24.8734 16.2337 24.9517 16.196 25.0306 16.1194C25.1489 16.0046 25.1519 15.7718 25.0367 15.6539L22.0411 12.5879Z" stroke-width="0.5"/>
</svg>
