<svg width="100%" height="100%" viewBox="0 0 27 19" fill="none" xmlns="http://www.w3.org/2000/svg">
<path d="M18.2649 16.3009C17.3412 15.8009 16.1096 15.7009 15.0833 15.6009C14.4675 15.5009 13.7491 15.5009 13.5439 15.4009C13.0307 15.1009 12.4149 13.3009 12.6202 12.8009C13.3386 11.7009 14.1596 9.90088 14.5702 8.30087C15.2886 5.50087 14.9807 3.40085 13.7491 1.90085C12.107 -0.0991497 9.43859 0.000825878 9.43859 0.000825878C9.33596 0.000825878 6.66754 0.00085032 5.02543 1.90085C3.79385 3.40085 3.48596 5.50087 4.20438 8.30087C4.61491 9.90088 5.43596 11.7009 6.15438 12.8009C6.25701 13.3009 5.74385 15.1009 5.2307 15.4009C4.9228 15.5009 4.30701 15.6009 3.69122 15.6009C2.66491 15.7009 1.43332 15.8009 0.509641 16.3009C-0.0035174 16.5009 -0.106147 17.1009 0.0991165 17.6009C0.30438 18.1009 0.920168 18.2008 1.43333 18.0008C2.04912 17.7008 3.07543 17.6008 3.89648 17.5008C4.82017 17.4008 5.53859 17.4009 6.15438 17.1009C7.38596 16.5009 7.89911 14.8009 8.00175 14.3009C8.20701 13.5009 8.30964 12.5009 7.89912 11.8009C7.28333 10.9009 6.56491 9.30085 6.25701 7.90085C5.74385 5.70085 5.84648 4.10086 6.66754 3.10086C7.69385 1.80086 9.54122 1.80085 9.64385 1.90085C9.64385 1.90085 11.4912 1.90086 12.5175 3.10086C13.3386 4.10086 13.5439 5.70085 12.9281 7.90085C12.6202 9.30085 11.9017 10.9009 11.286 11.8009C10.7728 12.4009 10.9781 13.5009 11.1833 14.3009C11.286 14.8009 11.7991 16.5009 13.0307 17.1009C13.6465 17.4009 14.3649 17.5008 15.2886 17.5008C16.2123 17.6008 17.136 17.7008 17.7517 18.0008C17.8544 18.1008 18.0596 18.1009 18.1623 18.1009C18.4702 18.1009 18.8807 17.9009 18.9833 17.6009C18.8807 17.2009 18.7781 16.6009 18.2649 16.3009Z"/>
<path d="M19.8973 13.1348C18.3396 13.1148 17.1177 11.8962 17.1382 10.3833C17.1587 8.87032 18.4132 7.68366 19.971 7.70372C21.5287 7.72378 22.7506 8.94232 22.7301 10.4553C22.7096 11.9682 21.455 13.1549 19.8973 13.1348ZM22.6213 12.5879C23.1085 12.0122 23.438 11.2792 23.449 10.4645C23.4743 8.60244 21.9371 7.06944 20.0199 7.04475C18.1026 7.02006 16.5244 8.51295 16.4991 10.375C16.4739 12.2371 18.0111 13.7701 19.9283 13.7948C20.7671 13.8056 21.5297 13.5438 22.1356 13.0472L25.2101 16.1132C25.2889 16.1919 25.3682 16.2317 25.4481 16.2327C25.528 16.2337 25.6084 16.196 25.6894 16.1194C25.8108 16.0046 25.8139 15.7718 25.6957 15.6539L22.6213 12.5879Z"/>
</svg>
