<svg width="100%" height="100%" viewBox="0 0 16 11" fill="none" xmlns="http://www.w3.org/2000/svg">
<path d="M10.7254 9.40435C10.2083 9.11589 9.51882 9.05819 8.94425 9.0005C8.59951 8.9428 8.19731 8.9428 8.08239 8.88511C7.79511 8.71203 7.45036 7.67358 7.56528 7.38512C7.96748 6.7505 8.42714 5.71204 8.65697 4.78897C9.05917 3.17358 8.8868 1.96203 8.19731 1.09664C7.27799 -0.0572017 5.7841 0.000476468 5.7841 0.000476468C5.72664 0.000476468 4.23276 0.000490569 3.31344 1.09664C2.62395 1.96203 2.45158 3.17358 2.85378 4.78897C3.08361 5.71204 3.54327 6.7505 3.94547 7.38512C4.00293 7.67358 3.71564 8.71203 3.42835 8.88511C3.25598 8.9428 2.91124 9.0005 2.56649 9.0005C1.99192 9.05819 1.30243 9.11589 0.785317 9.40435C0.498031 9.51973 0.440575 9.86588 0.555489 10.1543C0.670404 10.4428 1.01515 10.5005 1.30243 10.3851C1.64718 10.212 2.22175 10.1543 2.68141 10.0966C3.19852 10.0389 3.60072 10.039 3.94547 9.86588C4.63496 9.51973 4.92224 8.53897 4.9797 8.2505C5.09461 7.78897 5.15207 7.21204 4.92224 6.8082C4.5775 6.28897 4.1753 5.36587 4.00293 4.55818C3.71564 3.28895 3.7731 2.36588 4.23275 1.78896C4.80733 1.03896 5.84156 1.03895 5.89902 1.09664C5.89902 1.09664 6.93325 1.09665 7.50782 1.78896C7.96748 2.36588 8.08239 3.28895 7.73765 4.55818C7.56528 5.36587 7.16308 6.28897 6.81833 6.8082C6.53105 7.15435 6.64596 7.78897 6.76088 8.2505C6.81833 8.53897 7.10562 9.51973 7.79511 9.86588C8.13985 10.039 8.54205 10.0966 9.05917 10.0966C9.57628 10.1543 10.0934 10.212 10.4381 10.3851C10.4956 10.4428 10.6105 10.4428 10.668 10.4428C10.8403 10.4428 11.0702 10.3274 11.1276 10.1543C11.0702 9.92357 11.0127 9.57743 10.7254 9.40435Z" fill="#1E1E1E"/>
<path d="M11.6388 7.57789C10.7667 7.56632 10.0826 6.86331 10.0941 5.99046C10.1056 5.1176 10.8079 4.43299 11.68 4.44457C12.5521 4.45614 13.2361 5.15915 13.2247 6.032C13.2132 6.90485 12.5108 7.58946 11.6388 7.57789ZM13.1637 7.26235C13.4365 6.9302 13.621 6.50734 13.6272 6.03734C13.6413 4.96306 12.7807 4.07863 11.7074 4.06439C10.634 4.05015 9.75047 4.91143 9.73633 5.98571C9.72219 7.05999 10.5828 7.94442 11.6561 7.95866C12.1257 7.96489 12.5526 7.81386 12.8919 7.52736L14.6131 9.29622C14.6572 9.34157 14.7016 9.36455 14.7463 9.36514C14.7911 9.36573 14.8361 9.34395 14.8814 9.29978C14.9494 9.23353 14.9511 9.09924 14.8849 9.03121L13.1637 7.26235Z" fill="#1E1E1E"p stroke-width="0.5"/>
</svg>
