<svg width="100%" height="100%" viewBox="0 0 26 19" fill="none" xmlns="http://www.w3.org/2000/svg">
<path d="M10.0475 1.42217C9.94562 1.41181 9.86239 1.40649 9.80296 1.40375L9.79636 1.40195C9.79545 1.4017 9.79463 1.40148 9.7939 1.40128C9.74196 1.38708 9.68996 1.37888 9.64523 1.3737C9.55364 1.3631 9.44567 1.35994 9.32961 1.3636C9.09554 1.37097 8.79368 1.40718 8.46385 1.4914C7.8094 1.65849 6.9963 2.02793 6.40663 2.79223C5.45723 3.98262 5.40714 5.78634 5.91179 8.00866C6.22311 9.45911 6.9402 11.1061 7.57342 12.0623C7.70992 12.3085 7.77504 12.6329 7.77504 13.0134C7.77504 13.3974 7.70865 13.8049 7.61497 14.1796L7.61208 14.1911L7.60975 14.2028C7.56693 14.4169 7.43007 14.9217 7.16732 15.4358C6.90068 15.9575 6.53811 16.4228 6.07643 16.6536C5.84635 16.7687 5.58251 16.8339 5.24423 16.8805C5.03844 16.9089 4.83743 16.9273 4.61208 16.9479C4.44122 16.9635 4.25636 16.9804 4.04482 17.0039L4.04482 17.0038L4.03802 17.0047C3.96925 17.0133 3.89803 17.022 3.82496 17.0309C3.48356 17.0726 3.10151 17.1193 2.73815 17.1834C2.31075 17.2589 1.86153 17.3658 1.49822 17.5429C1.33803 17.6033 1.17994 17.6101 1.06477 17.5798C0.957576 17.5516 0.897198 17.4975 0.86428 17.4152C0.798019 17.2495 0.789755 17.0846 0.821078 16.9656C0.849287 16.8584 0.90343 16.798 0.985736 16.7651L1.01516 16.7533L1.04286 16.738C1.81012 16.3117 2.85141 16.2079 3.85999 16.1073C3.88185 16.1052 3.90369 16.103 3.92552 16.1008C4.55756 16.0981 5.20054 15.9944 5.55816 15.8752L5.61023 15.8578L5.65729 15.8296C5.90825 15.679 6.08648 15.4014 6.20771 15.172C6.34127 14.9193 6.45806 14.6211 6.5515 14.3275C6.64533 14.0326 6.72011 13.7281 6.76511 13.4581C6.80671 13.2085 6.83457 12.924 6.79033 12.7028L6.77201 12.6112L6.72187 12.5324C6.05107 11.4783 5.27224 9.7281 4.88511 8.17961C4.20691 5.46681 4.52369 3.55043 5.58653 2.21813C6.29907 1.37458 7.24298 0.941326 8.04528 0.720395C8.84318 0.50068 9.46614 0.500818 9.49956 0.500826L9.50004 0.500826H9.50965L9.51802 0.500502L9.51817 0.500497L9.5186 0.500481L9.5189 0.50047L9.51925 0.500457L9.52044 0.500434L9.53591 0.500152C9.55084 0.499965 9.57482 0.499866 9.60699 0.500374C9.67138 0.501391 9.76824 0.504836 9.89072 0.514806C10.1363 0.534798 10.4813 0.580737 10.8721 0.68419C11.6565 0.891822 12.5975 1.32301 13.3096 2.2132C14.3756 3.54569 14.694 5.46346 14.015 8.17961C13.6278 9.7281 12.849 11.4783 12.1782 12.5324L12.1531 12.5718L12.1358 12.6152C12.0323 12.8739 12.0543 13.1976 12.0913 13.4488C12.1326 13.729 12.2131 14.0403 12.3143 14.3372C12.4155 14.6341 12.5429 14.9324 12.6849 15.1841C12.8145 15.4138 12.9988 15.6832 13.2428 15.8296L13.2593 15.8395L13.2764 15.8481C13.4041 15.9119 13.5563 15.9389 13.6595 15.9546C13.779 15.9727 13.9175 15.9863 14.0548 15.9988C14.0953 16.0025 14.1361 16.0061 14.1771 16.0098C14.4255 16.0318 14.6804 16.0545 14.9178 16.0941L14.934 16.0968L14.9503 16.0984C14.9802 16.1014 15.0101 16.1044 15.0401 16.1073C16.0451 16.2075 17.0826 16.311 17.8491 16.7335C17.9748 16.811 18.0656 16.9326 18.1392 17.1074C18.1933 17.2358 18.228 17.3651 18.2625 17.5059C18.2513 17.5141 18.2383 17.5226 18.2231 17.5315C18.1392 17.5804 18.0503 17.6009 18 17.6009C17.9746 17.6009 17.9538 17.6008 17.9322 17.5998C17.9217 17.5993 17.9124 17.5987 17.9042 17.5979L17.8962 17.5899L17.8236 17.5536C17.461 17.3723 17.0318 17.262 16.602 17.1839C16.1724 17.1058 15.7081 17.0542 15.2649 17.005L15.2553 17.0039L15.2277 17.0008H15.2C14.3304 17.0008 13.7216 16.9026 13.2236 16.6536C12.762 16.4228 12.3994 15.9575 12.1328 15.4358C11.87 14.9217 11.7331 14.4169 11.6903 14.2028L11.688 14.1911L11.6851 14.1796C11.5872 13.7879 11.4983 13.3558 11.4873 12.962C11.4761 12.5568 11.5502 12.2817 11.6841 12.121L11.7012 12.1004L11.7161 12.0782C12.3503 11.1268 13.0718 9.47515 13.386 8.01915C13.9997 5.7597 13.8345 3.96851 12.8905 2.78851L12.8906 2.78845L12.8842 2.78077C12.2908 2.06869 11.4777 1.73047 10.8513 1.56705C10.5337 1.48422 10.2514 1.44291 10.0475 1.42217Z" fill="white" stroke="white"/>
<path d="M19.6905 13.1348C18.1727 13.1148 16.9821 11.8962 17.0021 10.3833C17.0221 8.87032 18.2445 7.68366 19.7623 7.70372C21.2801 7.72378 22.4706 8.94232 22.4506 10.4553C22.4306 11.9682 21.2083 13.1549 19.6905 13.1348ZM22.3446 12.5879C22.8193 12.0122 23.1404 11.2792 23.1512 10.4645C23.1758 8.60244 21.678 7.06944 19.8099 7.04475C17.9419 7.02006 16.4041 8.51295 16.3795 10.375C16.3549 12.2371 17.8526 13.7701 19.7207 13.7948C20.538 13.8056 21.281 13.5438 21.8714 13.0472L24.867 16.1132C24.9438 16.1919 25.0212 16.2317 25.099 16.2327C25.1768 16.2337 25.2552 16.196 25.334 16.1194C25.4523 16.0046 25.4554 15.7718 25.3402 15.6539L22.3446 12.5879Z" fill="white" stroke="white" stroke-width="0.5"/>
</svg>
