<svg width="100%" height="100%" viewBox="0 0 32 32" fill="none" xmlns="http://www.w3.org/2000/svg">
<circle cx="16" cy="16" r="15.75" stroke="#1E1E1E" stroke-width="0.5"/>
<path d="M20.0586 21.793C19.2971 21.37 18.2817 21.2853 17.4356 21.2007C16.9279 21.1161 16.3356 21.1161 16.1663 21.0315C15.7433 20.7776 15.2356 19.2546 15.4048 18.8315C15.9971 17.9007 16.674 16.3777 17.0125 15.0238C17.6048 12.6546 17.3509 10.8776 16.3356 9.60841C14.9817 7.9161 12.7817 8.0007 12.7817 8.0007C12.6971 8.0007 10.4971 8.00072 9.14326 9.60841C8.12787 10.8776 7.87403 12.6546 8.46633 15.0238C8.80479 16.3777 9.48172 17.9007 10.074 18.8315C10.1586 19.2546 9.73556 20.7776 9.31249 21.0315C9.05864 21.1161 8.55095 21.2007 8.04326 21.2007C7.1971 21.2853 6.18172 21.37 5.42018 21.793C4.9971 21.9623 4.91249 22.47 5.08172 22.893C5.25095 23.3161 5.75864 23.4007 6.18172 23.2315C6.68941 22.9776 7.53556 22.893 8.21248 22.8084C8.97402 22.7238 9.56633 22.7238 10.074 22.47C11.0894 21.9623 11.5125 20.5238 11.5971 20.1007C11.7663 19.4238 11.8509 18.5777 11.5125 17.9854C11.0048 17.2238 10.4125 15.8699 10.1586 14.6853C9.73556 12.8238 9.82018 11.47 10.4971 10.6238C11.3433 9.52381 12.8663 9.5238 12.9509 9.60841C12.9509 9.60841 14.474 9.60842 15.3202 10.6238C15.9971 11.47 16.1663 12.8238 15.6586 14.6853C15.4048 15.8699 14.8125 17.2238 14.3048 17.9854C13.8817 18.493 14.0509 19.4238 14.2202 20.1007C14.3048 20.5238 14.7279 21.9623 15.7433 22.47C16.2509 22.7238 16.8433 22.8084 17.6048 22.8084C18.3663 22.893 19.1279 22.9776 19.6356 23.2315C19.7202 23.3161 19.8894 23.3161 19.974 23.3161C20.2279 23.3161 20.5663 23.1469 20.6509 22.893C20.5663 22.5546 20.4817 22.0469 20.0586 21.793Z" fill="#1E1E1E"/>
<path d="M21.4044 19.1138C20.1201 19.0969 19.1127 18.0658 19.1296 16.7856C19.1466 15.5054 20.1808 14.5013 21.4651 14.5183C22.7494 14.5353 23.7568 15.5664 23.7399 16.8465C23.723 18.1267 22.6887 19.1308 21.4044 19.1138ZM23.6502 18.6511C24.0519 18.1639 24.3235 17.5437 24.3326 16.8544C24.3535 15.2788 23.0861 13.9816 21.5054 13.9607C19.9248 13.9398 18.6236 15.203 18.6028 16.7786C18.5819 18.3543 19.8493 19.6514 21.43 19.6723C22.1215 19.6815 22.7502 19.4599 23.2498 19.0397L25.7845 21.6341C25.8495 21.7006 25.915 21.7343 25.9808 21.7351C26.0467 21.736 26.113 21.7041 26.1797 21.6393C26.2798 21.5421 26.2824 21.3452 26.1849 21.2454L23.6502 18.6511Z" fill="#1E1E1E" stroke="#1E1E1E" stroke-width="0.5"/>
</svg>
