<svg width="100%" height="100%" viewBox="0 0 16 16" fill="none" xmlns="http://www.w3.org/2000/svg">
<circle cx="8" cy="8" r="7.5" fill="#005587" stroke="#005587"/>
<path fill-rule="evenodd" clip-rule="evenodd" d="M9.99942 13.6006H6.12811C5.94704 13.6006 5.80005 13.4535 5.80005 13.2723C5.80005 13.0911 5.94704 12.944 6.12811 12.944C7.68648 12.944 7.73569 12.2348 7.73569 12.202V7.51031C7.73569 7.41509 7.70617 6.56805 6.9516 6.56805H6.15763C5.97653 6.56805 5.82954 6.42095 5.82954 6.23974C5.82954 6.05848 5.97653 5.91142 6.15763 5.91142H6.9516C8.09001 5.91142 8.39184 6.95877 8.39184 7.51031V12.1987C8.37936 12.4725 8.26982 12.7332 8.08347 12.9341H9.99942C10.1805 12.9341 10.3275 13.0812 10.3275 13.2624C10.3275 13.4436 10.1805 13.5907 9.99942 13.5907V13.6006Z" fill="white"/>
<path fill-rule="evenodd" clip-rule="evenodd" d="M7.99161 5.63182C7.83477 5.6315 7.6783 5.61276 7.52573 5.576C6.96736 5.47619 6.52513 5.04777 6.40701 4.49254C6.36337 4.04737 6.55497 3.61204 6.91223 3.34345C7.29115 3.09133 7.72355 2.93175 8.17534 2.87727H8.24748C8.61824 2.80502 8.7987 2.75907 8.90365 2.56534C8.99421 2.40774 9.19565 2.35326 9.35313 2.44389C9.51061 2.53448 9.56505 2.73606 9.4745 2.89369C9.39086 3.03352 9.27932 3.15403 9.14644 3.24827C9.21568 3.3021 9.28029 3.36151 9.34002 3.42554C9.64642 3.73219 9.77076 4.17642 9.66809 4.59764C9.5572 4.93087 9.3223 5.20861 9.01193 5.37246C8.69928 5.54384 8.34825 5.63312 7.99161 5.63182ZM8.3197 3.52076C7.9716 3.55654 7.63532 3.66848 7.33548 3.84908C7.15962 3.9748 7.05954 4.18134 7.06971 4.39736C7.10582 4.67314 7.4142 4.86684 7.68651 4.9325C8.03657 5.01227 8.404 4.95844 8.71665 4.78149C8.87084 4.69286 8.98863 4.55202 9.04803 4.38422C9.0841 4.18658 9.02047 3.98366 8.87742 3.8425C8.71831 3.68393 8.52211 3.56772 8.30656 3.50434L8.3197 3.52076Z" fill="white"/>
</svg>
