<svg width="100%" height="100%" viewBox="0 0 32 32" xmlns="http://www.w3.org/2000/svg">
<path d="M0 16C0 7.16344 7.16344 0 16 0C24.8366 0 32 7.16344 32 16C32 24.8366 24.8366 32 16 32C7.16344 32 0 24.8366 0 16Z"/>
<path fill-rule="evenodd" clip-rule="evenodd" d="M10.9825 25.875C10.2592 25.875 9.67328 25.2881 9.67328 24.5634V21.9404H7.70961C6.9863 21.9404 6.40039 21.3535 6.40039 20.6289V18.0059C6.40039 17.6439 6.69361 17.3501 7.05498 17.3501C7.41634 17.3501 7.70961 17.6439 7.70961 18.0059V20.6289H10.328C10.6892 20.6289 10.9825 20.9227 10.9825 21.2847V24.5634L14.059 20.865C14.1833 20.7148 14.3686 20.6289 14.563 20.6289H26.0377V13.9533C26.0377 13.5861 26.0377 13.2123 26.0377 12.8516C25.7765 12.8594 25.5153 12.8378 25.2587 12.786C24.4909 12.6326 23.8461 12.1139 23.5306 11.3958C23.1838 10.6994 23.4659 9.85213 24.161 9.50463C24.4581 9.35578 24.7986 9.31703 25.1213 9.39578C25.8734 9.59444 26.5097 10.0981 26.8755 10.7859C26.9567 10.9518 27.0267 11.1223 27.085 11.2975C27.3187 11.1893 27.5386 11.0528 27.7396 10.8908C28.0237 10.6666 28.4354 10.7145 28.6592 10.9991C28.8832 11.2837 28.8354 11.6961 28.5512 11.9204C28.1723 12.205 27.75 12.426 27.301 12.5762C27.3402 13.0352 27.3403 13.4942 27.3403 13.9271V20.6289C27.3403 21.3535 26.7545 21.9404 26.0311 21.9404H14.8706L11.9905 25.4028C11.7411 25.7025 11.3719 25.8756 10.9825 25.875ZM24.7678 10.6745C24.7358 10.6719 24.7044 10.6837 24.6827 10.7073C24.6696 10.7742 24.6696 10.8437 24.6827 10.9105C24.8398 11.2233 25.1363 11.4423 25.4813 11.5007C25.5585 11.5184 25.6377 11.5296 25.7169 11.5335C25.6953 11.4778 25.6718 11.4227 25.645 11.3696C25.4564 11.045 25.156 10.8004 24.8006 10.681L24.7678 10.6745ZM7.05498 11.363C6.69361 11.363 6.40039 11.0692 6.40039 10.7073V8.82522C6.40039 8.10061 6.9863 7.51373 7.70961 7.51373H23.8252C24.1866 7.51373 24.4798 7.80746 24.4798 8.16947C24.4798 8.53149 24.1866 8.82522 23.8252 8.82522H7.70961V10.7073C7.70961 11.0692 7.41634 11.363 7.05498 11.363Z" fill="white"/>
<path fill-rule="evenodd" clip-rule="evenodd" d="M7.05498 20.429C6.69368 20.429 6.40043 20.1352 6.40043 19.7732V17.8453C6.39711 17.3449 6.58437 16.8617 6.92408 16.4944C6.58437 16.1272 6.39711 15.6439 6.40043 15.1435V14.5665C6.39711 14.0662 6.58437 13.5828 6.92408 13.2156C6.58437 12.8484 6.39711 12.3651 6.40043 11.8648V9.93681C6.40043 9.57487 6.69368 9.28107 7.05498 9.28107C7.41634 9.28107 7.70965 9.57487 7.70965 9.93681V11.8648C7.70568 12.2352 7.99499 12.5422 8.36415 12.5598H21.0106C21.3719 12.5598 21.6652 12.8536 21.6652 13.2156C21.6652 13.5776 21.3719 13.8714 21.0106 13.8714H8.39684C8.02775 13.8891 7.73844 14.196 7.74234 14.5665V15.1435C7.73844 15.5141 8.02775 15.8209 8.39684 15.8387H15.7543C16.1156 15.8387 16.4088 16.1324 16.4088 16.4944C16.4088 16.8564 16.1156 17.1502 15.7543 17.1502H8.39684C8.02775 17.1679 7.73844 17.4748 7.74234 17.8453V19.7732C7.74292 20.1352 7.45039 20.4297 7.08837 20.4297C7.07726 20.4297 7.06609 20.4297 7.05498 20.429Z" fill="white"/>
</svg>
