<svg width="100%" height="100%" viewBox="0 0 24 24" fill="none" xmlns="http://www.w3.org/2000/svg">
<circle cx="12" cy="12" r="11.5" fill="#005587" stroke="#005587"/>
<path fill-rule="evenodd" clip-rule="evenodd" d="M12.0163 15.832C11.7541 15.832 11.5414 15.6191 11.5414 15.3568V4.37495C11.5414 4.11266 11.7541 3.89976 12.0163 3.89976C12.2784 3.89976 12.4912 4.11266 12.4912 4.37495V15.3568C12.4912 15.6191 12.2784 15.832 12.0163 15.832Z" fill="white"/>
<path fill-rule="evenodd" clip-rule="evenodd" d="M11.926 20.0991C11.7266 20.0982 11.5271 20.0763 11.3325 20.0326C10.6192 19.8938 10.0584 19.3417 9.90789 18.6308C9.85181 18.0553 10.0983 17.4922 10.5585 17.1434C11.0356 16.8255 11.5803 16.6235 12.1492 16.5541H12.2394H12.2632C12.738 16.4591 12.9185 16.4021 13.0372 16.1978C13.1692 15.9734 13.4575 15.8969 13.683 16.0267C13.909 16.1573 13.9874 16.4458 13.8587 16.673C13.7689 16.8293 13.6512 16.9676 13.512 17.0816C13.5766 17.1339 13.6369 17.1909 13.6925 17.2527C14.0861 17.6504 14.2447 18.225 14.1103 18.7685C13.967 19.2001 13.662 19.5593 13.2604 19.7713C12.8515 19.9951 12.3919 20.1082 11.926 20.0991ZM12.3107 17.4903C11.8952 17.5354 11.4949 17.6718 11.1378 17.8895C10.9402 18.0296 10.8258 18.2602 10.8338 18.5024C10.8766 18.7971 11.2232 19.0299 11.5461 19.106C11.9645 19.1996 12.4023 19.1354 12.776 18.9254C12.9608 18.8342 13.106 18.6787 13.1844 18.4882C13.2243 18.2663 13.1492 18.0391 12.985 17.8847C12.7988 17.696 12.5661 17.5602 12.3107 17.4903Z" fill="white"/>
</svg>
