<svg width="100%" height="100%" viewBox="0 0 8 8" fill="none" xmlns="http://www.w3.org/2000/svg">
<path fill-rule="evenodd" clip-rule="evenodd" d="M3.99999 8C1.79084 8 0 6.20916 0 4C0 1.79084 1.79084 0 3.99999 0C6.20917 0 8 1.79084 8 4C8 6.20916 6.20917 8 3.99999 8ZM3.99999 0.333333C1.97501 0.333333 0.333335 1.97499 0.333335 4C0.333335 6.025 1.97501 7.66667 3.99999 7.66667C6.02499 7.66667 7.66666 6.025 7.66666 4C7.66666 1.97499 6.02499 0.333333 3.99999 0.333333Z"/>
<path fill-rule="evenodd" clip-rule="evenodd" d="M5.02471 6.75391H3.15817C3.07087 6.75391 3 6.683 3 6.59561C3 6.50824 3.07087 6.43731 3.15817 6.43731C3.90953 6.43731 3.93326 6.0954 3.93326 6.07958V3.81751C3.93326 3.7716 3.91902 3.3632 3.55521 3.3632H3.17241C3.08509 3.3632 3.01422 3.29228 3.01422 3.20491C3.01422 3.11752 3.08509 3.04661 3.17241 3.04661H3.55521C4.1041 3.04661 4.24962 3.55159 4.24962 3.81751V6.07797C4.2436 6.21001 4.19079 6.33569 4.10094 6.43257H5.02471C5.11203 6.43257 5.18289 6.50348 5.18289 6.59087C5.18289 6.67824 5.11203 6.74916 5.02471 6.74916V6.75391Z" />
<path fill-rule="evenodd" clip-rule="evenodd" d="M4.05602 2.84667C3.98041 2.84652 3.90496 2.83748 3.83141 2.81976C3.56219 2.77163 3.34897 2.56507 3.29202 2.29737C3.27098 2.08274 3.36336 1.87284 3.53561 1.74335C3.7183 1.62179 3.92678 1.54485 4.14461 1.51858H4.17939C4.35815 1.48374 4.44516 1.46159 4.49576 1.36818C4.53942 1.2922 4.63655 1.26593 4.71247 1.30963C4.7884 1.3533 4.81465 1.4505 4.77099 1.5265C4.73066 1.59391 4.67689 1.65202 4.61282 1.69746C4.64621 1.72341 4.67736 1.75205 4.70616 1.78292C4.85388 1.93077 4.91383 2.14496 4.86433 2.34805C4.81087 2.50871 4.69761 2.64262 4.54797 2.72162C4.39722 2.80425 4.22798 2.8473 4.05602 2.84667ZM4.21421 1.82883C4.04638 1.84609 3.88424 1.90005 3.73968 1.98713C3.65489 2.04775 3.60663 2.14733 3.61154 2.25148C3.62894 2.38445 3.77763 2.47784 3.90892 2.5095C4.0777 2.54796 4.25485 2.522 4.4056 2.43669C4.47994 2.39396 4.53673 2.32605 4.56537 2.24515C4.58276 2.14986 4.55208 2.05202 4.48311 1.98396C4.4064 1.9075 4.3118 1.85148 4.20788 1.82092L4.21421 1.82883Z" />
</svg>
