<svg width="100%" height="100%" viewBox="0 0 20 20" fill="none" xmlns="http://www.w3.org/2000/svg">
<path d="M0 10C0 4.47715 4.47715 0 10 0C15.5228 0 20 4.47715 20 10C20 15.5228 15.5228 20 10 20C4.47715 20 0 15.5228 0 10Z" fill="white"/>
<path fill-rule="evenodd" clip-rule="evenodd" d="M10 20C4.47708 20 0 15.5228 0 10C0 4.4772 4.47708 0 10 0C15.5229 0 20 4.4772 20 10C20 15.5228 15.5229 20 10 20ZM10 0.833368C4.93752 0.833368 0.833339 4.93738 0.833339 10C0.833339 15.0626 4.93752 19.1666 10 19.1666C15.0625 19.1666 19.1666 15.0626 19.1666 10C19.1666 4.93738 15.0625 0.833368 10 0.833368Z" fill="#1E1E1E"/>
<path fill-rule="evenodd" clip-rule="evenodd" d="M14.8655 13.8945H6.66867C6.42303 13.897 6.2136 13.7171 6.17933 13.4742L5.12721 5.97756H3.30191C3.03176 5.97756 2.8125 5.75865 2.8125 5.48888C2.8125 5.2191 3.03176 5.00019 3.30191 5.00019H5.55784C5.80348 4.99772 6.01292 5.17759 6.04724 5.42047L7.09935 12.9171H14.4936L15.991 7.26776H8.61147L8.74847 8.46995H13.6421C13.7972 8.47092 13.9421 8.5452 14.0336 8.67029C14.126 8.79543 14.153 8.95668 14.107 9.10528L13.4365 11.2409C13.37 11.4525 13.1694 11.5932 12.9472 11.583L9.03227 11.5488C8.76219 11.5488 8.54293 11.3298 8.54293 11.0601C8.54293 10.7903 8.76219 10.5714 9.03227 10.5714L12.5802 10.6007L12.9472 9.44732H8.29341C8.0428 9.44881 7.83143 9.26117 7.80402 9.01239L7.55935 6.83278C7.5437 6.694 7.58821 6.55523 7.68167 6.45159C7.77411 6.34949 7.90585 6.29085 8.04378 6.29034H16.6125C16.7642 6.29085 16.9066 6.36122 16.9991 6.48096C17.0935 6.60116 17.1258 6.7585 17.0872 6.90611L15.3206 13.5133C15.2721 13.7284 15.0857 13.8843 14.8655 13.8945Z" fill="#1E1E1E"/>
<path fill-rule="evenodd" clip-rule="evenodd" d="M7.2313 16.25C6.30443 16.2529 5.55083 15.5042 5.54786 14.5786C5.54495 13.653 6.29466 12.9004 7.22154 12.8975C8.14836 12.895 8.90196 13.6432 8.90493 14.5689C8.90493 14.5703 8.90493 14.5723 8.90493 14.5737C8.90245 15.4964 8.15521 16.2446 7.2313 16.25ZM7.2313 13.8798C6.84471 13.8773 6.52956 14.1877 6.52659 14.5737C6.52416 14.9598 6.83489 15.2746 7.22154 15.2775C7.60808 15.2799 7.92327 14.9696 7.92618 14.5835C7.92618 14.5801 7.92618 14.5771 7.92618 14.5737C7.9237 14.1916 7.61396 13.8822 7.2313 13.8798Z" fill="#1E1E1E"/>
<path fill-rule="evenodd" clip-rule="evenodd" d="M14.3025 16.25C13.3757 16.25 12.624 15.4993 12.624 14.5738C12.624 13.6481 13.3757 12.8975 14.3025 12.8975C15.2294 12.8975 15.981 13.6481 15.981 14.5738C15.9781 15.4984 15.2284 16.2475 14.3025 16.25ZM14.3025 13.8798C13.9159 13.8798 13.6028 14.1926 13.6028 14.5786C13.6028 14.9647 13.9159 15.2775 14.3025 15.2775C14.6891 15.2775 15.0023 14.9647 15.0023 14.5786C15.0023 14.5772 15.0023 14.5752 15.0023 14.5738C14.9994 14.1896 14.6871 13.8798 14.3025 13.8798Z" fill="#1E1E1E"/>
</svg>
