<svg width="100%" height="100%" viewBox="0 0 16 17" fill="none" xmlns="http://www.w3.org/2000/svg">
<path fill-rule="evenodd" clip-rule="evenodd" d="M8.84376 13.2773C8.66611 13.2773 8.49577 13.2067 8.37043 13.0807L3.70379 8.41401C3.57311 8.28434 3.57211 8.07336 3.70176 7.94266C3.70245 7.942 3.70312 7.94134 3.70379 7.94067C3.83376 7.81137 4.04376 7.81137 4.17377 7.94067L8.8571 12.6073L12.6271 8.83403L7.34044 3.54734L3.88378 3.86403L3.49375 6.53069L4.52708 5.64735L4.59375 5.59067C4.49576 5.24402 4.43875 4.88735 4.42375 4.52734C4.41276 4.34334 4.55311 4.18499 4.73711 4.17402C4.92109 4.16302 5.07944 4.30333 5.09043 4.48733C5.10176 4.68502 5.1241 4.88201 5.15711 5.07735C5.36145 4.91635 5.61077 4.82202 5.87042 4.80733H5.90042C6.38775 4.8137 6.80445 5.15932 6.90042 5.63734C6.9671 5.982 6.84807 6.33601 6.58709 6.57066C6.30777 6.80133 5.92678 6.86637 5.5871 6.74067C5.30807 6.64236 5.06779 6.45766 4.90043 6.214L3.32709 7.54735C3.2438 7.61934 3.13011 7.6457 3.02377 7.61736C2.91677 7.58736 2.83178 7.50601 2.79712 7.40067C2.75543 7.288 2.73945 7.16702 2.75044 7.04736L3.23045 3.75732C3.27544 3.45234 3.52341 3.21832 3.83041 3.19068L7.2871 2.87402C7.48376 2.85668 7.67777 2.92765 7.81712 3.06734L13.1038 8.35402C13.3644 8.61432 13.3644 9.03636 13.1044 9.29669C13.1041 9.29703 13.1041 9.29703 13.1038 9.29732L9.31374 13.0807C9.18943 13.206 9.02046 13.2767 8.84376 13.2773ZM5.39045 5.76403C5.48109 5.92834 5.62775 6.05499 5.80375 6.12066C5.92075 6.166 6.05275 6.14834 6.15376 6.07402C6.23411 5.99367 6.26774 5.87835 6.24378 5.76734C6.20643 5.61036 6.07141 5.49567 5.91042 5.48404C5.70909 5.51168 5.52443 5.61102 5.39045 5.76403Z" fill="#43B02A"/>
<path fill-rule="evenodd" clip-rule="evenodd" d="M7.99998 16.082C3.58167 16.082 0 12.5004 0 8.08205C0 3.66369 3.58167 0.0820312 7.99998 0.0820312C12.4183 0.0820312 16 3.66369 16 8.08205C16 12.5004 12.4183 16.082 7.99998 16.082ZM7.99998 0.748722C3.95002 0.748722 0.666671 4.03202 0.666671 8.08205C0.666671 12.132 3.95002 15.4154 7.99998 15.4154C12.05 15.4154 15.3333 12.132 15.3333 8.08205C15.3333 4.03202 12.05 0.748722 7.99998 0.748722Z" fill="#43B02A"/>
<path fill-rule="evenodd" clip-rule="evenodd" d="M8.81014 10.5742C8.72144 10.5749 8.63646 10.5399 8.57346 10.4776L6.26007 8.16425C6.13076 8.03421 6.13076 7.82425 6.26007 7.69421C6.39008 7.56487 6.60011 7.56487 6.73009 7.69421L9.04344 10.0076C9.17279 10.1376 9.17279 10.3476 9.04344 10.4776C8.98147 10.5392 8.89747 10.5739 8.81014 10.5742Z" fill="#43B02A"/>
<path fill-rule="evenodd" clip-rule="evenodd" d="M10.1604 9.22265C10.0717 9.22331 9.98672 9.1883 9.92371 9.12599L7.61036 6.81264C7.49068 6.673 7.50704 6.46231 7.64668 6.34265C7.77137 6.23565 7.95571 6.23565 8.08039 6.34265L10.3937 8.65599C10.523 8.78596 10.523 8.99599 10.3937 9.12599C10.3317 9.18764 10.2477 9.22232 10.1604 9.22265Z" fill="#43B02A"/>
</svg>
