<svg width="100%" height="100%" viewBox="0 0 36 36" fill="none" xmlns="http://www.w3.org/2000/svg">
<circle cx="18" cy="18" r="17.75" stroke="#005587" stroke-width="0.5"/>
<path fill-rule="evenodd" clip-rule="evenodd" d="M18.062 24.0391C17.8852 24.0384 17.7157 23.9669 17.5918 23.8406C16.6846 22.9281 15.8569 21.3543 16.5059 19.9259C16.976 18.8744 17.5985 18.6959 18.0355 18.729C18.8963 18.7951 19.5386 19.7738 19.7903 20.7129C19.8088 20.8021 19.8088 20.8946 19.7903 20.9839C19.5949 21.9705 19.191 22.9036 18.605 23.7216C18.4983 23.8949 18.3176 24.0099 18.1149 24.0324L18.062 24.0391ZM17.9561 20.0714C17.8514 20.1884 17.7686 20.3226 17.7111 20.4682C17.5249 21.0613 17.6276 21.7074 17.9891 22.2139C18.2156 21.8158 18.3785 21.3853 18.4725 20.9376C18.3825 20.6057 18.2037 20.3034 17.9561 20.0647V20.0714Z" fill="#005587"/>
<path fill-rule="evenodd" clip-rule="evenodd" d="M14.7245 18.1075H14.6119C13.812 18.0896 13.169 17.4448 13.1552 16.646C13.118 15.8095 13.7332 15.0861 14.5656 14.9862C14.6291 14.9762 14.694 14.9762 14.7576 14.9862C15.6541 15.1224 16.2858 15.9371 16.1945 16.8377C16.1243 17.5863 15.4761 18.1464 14.7245 18.1075ZM14.6451 16.322C14.5371 16.3669 14.4702 16.4767 14.4795 16.5931C14.4795 16.7518 14.5854 16.7782 14.6913 16.7849C14.7973 16.7915 14.8701 16.7849 14.8768 16.7055C14.886 16.5421 14.794 16.3901 14.6451 16.322Z" fill="#005587"/>
<path fill-rule="evenodd" clip-rule="evenodd" d="M22.2404 18.1048C21.7166 18.1207 21.2266 17.8489 20.9624 17.3972C20.6551 16.8656 20.6551 16.2096 20.9624 15.6779C21.2345 15.2123 21.7483 14.9433 22.2867 14.9836C23.1449 15.0312 23.8018 15.7652 23.7535 16.6222C23.7528 16.6381 23.7515 16.654 23.7501 16.6698C23.7501 17.4621 23.1072 18.1048 22.3132 18.1048C22.3066 18.1048 22.2999 18.1048 22.2934 18.1048H22.2404ZM22.2934 16.7823H22.3265C22.3795 16.7823 22.439 16.7823 22.4456 16.6103C22.4456 16.5574 22.4456 16.3128 22.2337 16.2995C22.1278 16.2995 22.1146 16.2995 22.0881 16.3657C22.0278 16.4774 22.0278 16.611 22.0881 16.7228C22.0881 16.7228 22.1278 16.7955 22.2469 16.7823H22.2934Z" fill="#005587"/>
<path fill-rule="evenodd" clip-rule="evenodd" d="M14.2081 19.7741C12.2076 19.7741 10.5859 18.1546 10.5859 16.1568C10.5859 14.1591 12.2076 12.5396 14.2081 12.5396H14.2543C16.2204 12.4629 17.8765 13.9924 17.9532 15.9559C17.9553 16.0114 17.9566 16.0675 17.9559 16.1238C17.9903 18.1063 16.4091 19.7423 14.4239 19.7767C14.3517 19.778 14.2802 19.7774 14.2081 19.7741ZM14.2478 13.8622C13.0175 13.7881 11.9599 14.7239 11.8858 15.9525C11.8812 16.0292 11.8804 16.1066 11.8838 16.1833C11.8447 17.3987 12.7996 18.4158 14.0173 18.4548C14.0875 18.4568 14.1577 18.4561 14.2279 18.4515C15.4761 18.5322 16.5534 17.5872 16.6342 16.3407C16.6388 16.2732 16.6402 16.2052 16.6382 16.137C16.6892 14.907 15.7317 13.8695 14.5007 13.8185C14.4159 13.8152 14.3319 13.8165 14.2478 13.8225V13.8622Z" fill="#005587"/>
<path fill-rule="evenodd" clip-rule="evenodd" d="M21.8033 19.832H21.5781C20.3055 19.7811 19.1658 19.0299 18.6182 17.8813C17.9838 16.5667 18.0846 15.0166 18.8831 13.7945C19.5374 12.8265 20.6743 12.2994 21.8364 12.4257C22.7449 12.3854 23.6283 12.7312 24.2666 13.3779C25.0651 14.1165 25.5187 15.1542 25.5181 16.2413C25.4664 17.2544 25.0135 18.206 24.2599 18.8864C23.5865 19.4941 22.7111 19.8314 21.8033 19.832ZM21.5516 13.7284C20.922 13.7059 20.3253 14.0108 19.9757 14.5352C19.4472 15.3664 19.3824 16.4093 19.8035 17.2993C20.1412 18.0208 20.8603 18.487 21.6576 18.5029C22.2886 18.5432 22.9085 18.323 23.3726 17.8944C23.8667 17.4573 24.1626 16.8398 24.1937 16.1818C24.1791 15.4755 23.8752 14.8063 23.3528 14.3302C22.9714 13.938 22.443 13.7244 21.8959 13.7417H21.7767L21.5516 13.7284Z" fill="#005587"/>
<path fill-rule="evenodd" clip-rule="evenodd" d="M24.8559 17.021C24.4904 17.0521 24.1686 16.781 24.1375 16.416C24.1063 16.0509 24.3779 15.7295 24.7433 15.6985C25.7697 15.5199 27.2728 13.7147 27.392 13.1856C27.4728 12.9171 27.5152 12.6394 27.5179 12.359C26.8987 12.2678 26.2696 12.2678 25.6505 12.359C25.2929 12.359 24.9353 12.4119 24.6241 12.4119C24.4089 12.4132 24.2063 12.3095 24.0812 12.1342C22.5781 10.0247 20.9424 8.91374 18.9228 8.6294C16.7906 8.32783 14.6438 9.06584 13.1486 10.6132C13.036 10.7454 12.9103 10.9108 12.7845 11.0894C12.558 11.4386 12.2838 11.7546 11.97 12.0284C11.4813 12.3603 10.8853 12.4946 10.3013 12.4053C10.0761 12.4053 9.89732 12.4053 9.40071 12.3524C9.19545 12.3524 8.78495 12.2929 8.50017 12.2929C8.52003 12.5574 8.55779 12.8206 8.6127 13.0798C8.70741 13.5189 8.89747 13.9322 9.16895 14.2899C9.36428 14.5585 9.58612 14.8065 9.8311 15.0306C10.0927 15.2865 10.0973 15.7051 9.84104 15.9663C9.58481 16.2275 9.16567 16.2321 8.90404 15.9762C8.60546 15.6872 8.33462 15.3711 8.0962 15.0306C7.72738 14.526 7.47049 13.9487 7.34131 13.3377C7.10298 12.1474 7.16251 11.5589 7.54659 11.2282C7.93068 10.8975 8.55973 10.9373 9.53316 11.0365H9.93704H10.3675C10.7648 11.0365 11.0297 11.0365 11.1555 10.9505C11.3667 10.7495 11.5575 10.5279 11.725 10.2892C11.864 10.0869 12.0143 9.89242 12.1753 9.70724C13.9519 7.81405 16.5436 6.90744 19.1149 7.28035C21.4191 7.60442 23.2866 8.80129 24.9618 11.0365L25.5644 10.9968C26.3359 10.8983 27.1186 10.9227 27.8821 11.0695C27.9284 11.0754 27.9747 11.0754 28.0211 11.0695C28.384 11.0259 28.7144 11.2838 28.758 11.6469C28.7614 11.6746 28.7627 11.7023 28.7627 11.7308C28.7667 11.8069 28.7799 11.8822 28.8024 11.9556C28.8833 12.4357 28.8467 12.9277 28.6965 13.3906C28.4448 14.4288 26.5709 16.697 24.9618 16.9483L24.8559 17.021Z" fill="#005587"/>
<path fill-rule="evenodd" clip-rule="evenodd" d="M18.0421 28.8008H17.9956C15.7112 28.8008 14.4531 26.2284 13.5393 24.3702L13.3141 23.9139C13.0188 24.384 12.8123 24.9038 12.7049 25.448L12.652 25.6266C12.556 25.9791 12.1917 26.1867 11.8388 26.0909C11.6951 26.0518 11.5687 25.9652 11.4799 25.8448L11.4269 25.7655C10.6257 24.681 9.80465 23.5502 9.79801 21.9763C9.70264 20.4528 10.2224 18.9549 11.2415 17.8169C11.4977 17.5557 11.917 17.551 12.1785 17.807C12.4401 18.0628 12.4447 18.4814 12.1884 18.7427C11.4363 19.6447 11.0555 20.7979 11.1223 21.9698C11.1461 22.6813 11.3759 23.3703 11.7845 23.9536C12.0434 23.2533 12.5367 22.6648 13.1817 22.2871C13.4982 22.1079 13.9002 22.217 14.0822 22.5318C14.2941 22.8889 14.506 23.3187 14.7444 23.775C15.5457 25.4083 16.5522 27.4452 18.0553 27.465C19.5584 27.4848 20.5516 25.4216 21.3662 23.7617C21.5847 23.3122 21.7966 22.8823 22.0283 22.5318C22.2097 22.2144 22.6137 22.104 22.9316 22.2851C22.9329 22.2858 22.9342 22.2864 22.9355 22.2871C23.5725 22.664 24.0612 23.2473 24.3195 23.9403C24.8777 23.1613 25.1147 22.1979 24.9816 21.249C24.932 20.9302 24.8359 20.6207 24.6969 20.3297C24.5399 19.9998 24.6811 19.6057 25.0114 19.4489C25.328 19.2988 25.7067 19.4211 25.8756 19.728C26.0769 20.1466 26.2172 20.5923 26.2927 21.0505C26.6304 23.1336 25.5313 24.6347 24.6439 25.8383C24.4936 26.0479 24.2354 26.151 23.9817 26.1028C23.7301 26.0584 23.5262 25.8726 23.4586 25.6266L23.4123 25.448C23.3017 24.9038 23.0931 24.384 22.7965 23.9139C22.7302 24.0594 22.6508 24.2115 22.578 24.3636C21.5913 26.235 20.3398 28.8008 18.0421 28.8008Z" fill="#005587"/>
</svg>
