<svg width="100%" height="100%" viewBox="0 0 20 20" fill="none" xmlns="http://www.w3.org/2000/svg">
<path d="M0 10C0 4.47715 4.47715 0 10 0C15.5228 0 20 4.47715 20 10C20 15.5228 15.5228 20 10 20C4.47715 20 0 15.5228 0 10Z" fill="white"/>
<path fill-rule="evenodd" clip-rule="evenodd" d="M10 20C4.47708 20 0 15.5228 0 10C0 4.4772 4.47708 0 10 0C15.5229 0 20 4.4772 20 10C20 15.5228 15.5229 20 10 20ZM10 0.833368C4.93752 0.833368 0.833339 4.93738 0.833339 10C0.833339 15.0626 4.93752 19.1666 10 19.1666C15.0625 19.1666 19.1666 15.0626 19.1666 10C19.1666 4.93738 15.0625 0.833368 10 0.833368Z" fill="#1E1E1E"/>
<path fill-rule="evenodd" clip-rule="evenodd" d="M9.99723 16.883C6.20057 16.8821 3.12407 13.801 3.125 10.0019C3.12645 6.20273 6.20481 3.12376 10.0014 3.1249C10.6481 3.12511 11.2915 3.21666 11.9124 3.39671C12.1606 3.46916 12.3034 3.72931 12.2308 3.97778C12.1582 4.22626 11.8983 4.36887 11.6502 4.29643C8.50206 3.38696 5.21345 5.20363 4.30459 8.35397C3.39569 11.5045 5.21111 14.7954 8.35917 15.705C11.5073 16.6145 14.7959 14.7977 15.7048 11.6473C16.1969 9.94085 15.9 8.10353 14.8952 6.63938C14.7462 6.42767 14.7973 6.13541 15.009 5.98654C15.2206 5.83772 15.5128 5.88875 15.6612 6.10045C15.6636 6.10355 15.6655 6.10669 15.6678 6.10989C17.8171 9.24489 17.0196 13.5297 13.8865 15.6806C12.7417 16.4664 11.3856 16.8872 9.99723 16.8877V16.883Z" fill="#1E1E1E"/>
<path fill-rule="evenodd" clip-rule="evenodd" d="M14.3896 7.19141C13.3552 7.19182 12.5161 6.35298 12.5156 5.31782C12.5151 4.28256 13.3538 3.44301 14.3882 3.4426C15.3107 3.44224 16.0964 4.11428 16.2392 5.02644C16.2781 5.28529 16.0997 5.52654 15.8412 5.56532C15.5827 5.60415 15.3416 5.42585 15.3027 5.16705C15.2278 4.65492 14.7521 4.30064 14.2402 4.37572C13.7284 4.4508 13.3744 4.92678 13.4493 5.43891C13.5163 5.89543 13.9054 6.23526 14.3662 6.24016C14.5835 6.23949 14.7937 6.16332 14.9609 6.02458C15.1599 5.85893 15.4558 5.88625 15.6211 6.08551C15.7864 6.28483 15.7593 6.58059 15.5603 6.74624C15.2325 7.02461 14.8195 7.18185 14.3896 7.19141Z" fill="#1E1E1E"/>
<path fill-rule="evenodd" clip-rule="evenodd" d="M6.87436 13.71H6.84626C6.58823 13.6949 6.3911 13.4733 6.40607 13.2151C6.40607 13.2141 6.40607 13.2137 6.40607 13.2132C6.43509 12.1148 7.31259 11.2282 8.41023 11.1889H8.51794C8.13066 10.709 7.87264 10.1379 7.7687 9.53C7.49244 8.39601 7.61415 7.49631 8.12458 6.86841C9.00395 5.86036 10.5333 5.75646 11.5405 6.63624C11.6229 6.70833 11.7002 6.78584 11.7723 6.86841C12.2828 7.49631 12.3998 8.39601 12.1282 9.53C12.0092 10.1075 11.7611 10.6507 11.4024 11.1186C12.7838 11.2826 13.5892 11.962 13.6219 12.993C13.6229 13.1251 13.5761 13.253 13.4909 13.3538C13.4033 13.4489 13.2825 13.5061 13.1537 13.5131H8.41488C8.15644 13.5131 7.94664 13.3032 7.94664 13.0445C7.94664 12.7859 8.15644 12.5759 8.41488 12.5759H12.4935C12.1441 12.2428 11.6834 12.052 11.201 12.0418H10.9716C10.686 12.0136 10.3957 11.9855 10.1054 11.9386C9.55325 12.0731 8.98757 12.1453 8.41957 12.1542C7.81321 12.195 7.33697 12.6898 7.31921 13.2976C7.29205 13.5253 7.10326 13.7001 6.87436 13.71ZM9.95544 6.97147C9.53776 6.96677 9.13742 7.1366 8.85037 7.44007C8.53663 7.83369 8.47576 8.45689 8.67709 9.31447C8.87848 10.172 9.07051 10.5985 9.54345 10.7953C9.71669 10.864 9.89508 10.9188 10.0773 10.9592C10.6251 10.7718 11.0137 10.2329 11.2151 9.31447C11.4211 8.47564 11.3603 7.85244 11.0418 7.44007C10.7599 7.143 10.3694 6.97374 9.9602 6.97147H9.95544Z" fill="#1E1E1E"/>
</svg>
