<svg width="42" height="42" viewBox="0 0 42 42" fill="none" xmlns="http://www.w3.org/2000/svg">
<path d="M0 21C0 9.40202 9.40202 0 21 0C32.598 0 42 9.40202 42 21C42 32.598 32.598 42 21 42C9.40202 42 0 32.598 0 21Z" fill="white"/>
<path fill-rule="evenodd" clip-rule="evenodd" d="M20.9999 42C9.40188 42 0 32.5981 0 21C0 9.40189 9.40188 0 20.9999 0C32.5981 0 42 9.40189 42 21C42 32.5981 32.5981 42 20.9999 42ZM20.9999 1.75C10.3688 1.75 1.75002 10.3687 1.75002 21C1.75002 31.6312 10.3688 40.25 20.9999 40.25C31.6312 40.25 40.25 31.6312 40.25 21C40.25 10.3687 31.6312 1.75 20.9999 1.75Z" fill="#00A3E0"/>
<path fill-rule="evenodd" clip-rule="evenodd" d="M29.7898 27.5078C29.568 27.5044 29.3571 27.4135 29.2017 27.2552C28.8757 26.927 28.8757 26.3967 29.2017 26.0685L33.9741 21.2791L29.2017 16.4898C28.8724 16.1624 28.8699 15.6296 29.1967 15.2996C29.1984 15.2979 29.2001 15.2963 29.2017 15.2945C29.5294 14.968 30.0587 14.968 30.3864 15.2945L35.7553 20.6815C36.0813 21.0097 36.0813 21.54 35.7553 21.8683L30.3864 27.2468C30.231 27.411 30.0159 27.5044 29.7898 27.5078Z" fill="#00A3E0"/>
<path fill-rule="evenodd" clip-rule="evenodd" d="M34.0082 22.125H24.4719C24.0082 22.125 23.6318 21.7479 23.6318 21.2833C23.6318 20.8187 24.0082 20.4415 24.4719 20.4415H34.0082C34.472 20.4415 34.8484 20.8187 34.8484 21.2833C34.8484 21.7479 34.472 22.125 34.0082 22.125Z" fill="#00A3E0"/>
<path fill-rule="evenodd" clip-rule="evenodd" d="M24.4711 30.3867H20.2701C19.8063 30.3867 19.4299 30.0096 19.4299 29.545C19.4299 29.0805 19.8063 28.7033 20.2701 28.7033H23.6309V12.7109H12.7084C12.2445 12.7109 11.8682 12.3338 11.8682 11.8691C11.8682 11.4045 12.2445 11.0274 12.7084 11.0274H24.4711C24.9348 11.0274 25.3112 11.4045 25.3112 11.8691V29.545C25.3112 30.0096 24.9348 30.3867 24.4711 30.3867Z" fill="#00A3E0"/>
<path fill-rule="evenodd" clip-rule="evenodd" d="M20.2454 34.2531C20.1085 34.2548 19.9724 34.2235 19.8505 34.1604L12.356 30.297C12.067 30.1463 11.883 29.8492 11.8771 29.5226V11.8467C11.8712 11.5437 12.0283 11.2609 12.2888 11.106C12.5484 10.9554 12.8694 10.9554 13.129 11.106L20.6236 14.9611C20.9067 15.121 21.0856 15.4182 21.0941 15.7438V33.4198C21.0974 33.7202 20.9403 33.9989 20.6824 34.152C20.5488 34.2245 20.3976 34.2598 20.2454 34.2531ZM13.5239 29.026L19.4052 32.0478V16.2488L13.5239 13.2271V29.026Z" fill="#00A3E0"/>
<path fill-rule="evenodd" clip-rule="evenodd" d="M20.2372 34.25C20.1026 34.2508 19.9699 34.2188 19.8506 34.1573L10.5076 29.3428C10.0817 29.1584 9.88505 28.6636 10.069 28.2368C10.2531 27.8101 10.7471 27.6131 11.1731 27.7974C11.21 27.8134 11.2462 27.8319 11.2805 27.853L20.6235 32.6591C21.037 32.8713 21.1999 33.3779 20.9882 33.7921C20.8437 34.074 20.5539 34.2517 20.2372 34.25Z" fill="#00A3E0"/>
<path fill-rule="evenodd" clip-rule="evenodd" d="M12.718 32.3164C12.2543 32.3164 11.8779 31.9393 11.8779 31.4747V9.84274C11.8779 9.37807 12.2543 9.00107 12.718 9.00107C13.182 9.00107 13.5583 9.37807 13.5583 9.84274V31.4747C13.5583 31.9393 13.182 32.3164 12.718 32.3164Z" fill="#00A3E0"/>
<path fill-rule="evenodd" clip-rule="evenodd" d="M20.2545 16.5938C20.0544 16.5938 19.8604 16.5221 19.7083 16.3917L10.5586 11.6782C10.1393 11.4787 9.96038 10.977 10.1595 10.557C10.3586 10.137 10.8594 9.9577 11.2787 10.1572C11.2938 10.1647 11.3088 10.1723 11.3232 10.1799L20.6157 14.9693C20.9022 15.1266 21.0846 15.4246 21.0946 15.752C21.0946 16.2166 20.7182 16.5938 20.2545 16.5938Z" fill="#00A3E0"/>
</svg>
