<svg width="100%" height="100%" viewBox="0 0 40 40" fill="none" xmlns="http://www.w3.org/2000/svg">
<circle cx="20" cy="20" r="19.75" stroke-width="2"/>
<path fill-rule="evenodd" clip-rule="evenodd" d="M9.81356 30.1283H9.74851C9.32459 30.094 8.99839 29.7388 9.00001 29.3132C9.04881 25.2382 13.2385 24.5944 16.6066 24.2276C14.5728 22.9644 13.8488 20.6253 13.2956 18.3188C12.4819 14.9038 12.8074 12.2306 14.2962 10.3886C15.6443 8.86785 17.578 7.99838 19.6087 8.00063C21.6319 7.98636 23.5608 8.8587 24.8885 10.3886C26.3773 12.2306 26.7109 14.9038 25.8892 18.3188C25.2464 20.9839 24.2134 22.8991 22.7652 24.0972H23.1476L23.8797 24.1705C24.3516 24.2194 24.856 24.2847 25.3604 24.3661C25.8095 24.4452 26.1105 24.8738 26.0315 25.3238C25.9527 25.7737 25.5247 26.0752 25.0756 25.9962C24.612 25.9147 24.1563 25.8576 23.717 25.8088L22.993 25.7354C22.0411 25.6458 21.0729 25.556 20.1048 25.385C19.2075 25.5642 18.2996 25.6922 17.3877 25.768C13.7836 26.1429 10.9851 26.5829 10.6515 28.8976C10.6637 28.9759 10.6637 29.0557 10.6515 29.134V29.4192C10.597 29.8374 10.2342 30.1445 9.81356 30.1283ZM19.5761 9.62262C18.0433 9.62468 16.5815 10.2724 15.5491 11.4075C14.402 12.8337 14.166 15.0261 14.8656 17.9276C15.4189 20.2014 16.0697 22.3123 18.0303 23.1274C18.6795 23.3905 19.3523 23.5902 20.0398 23.7223C22.1144 23.1029 23.5055 21.2039 24.3028 17.9276C24.9943 15.0261 24.7665 12.8337 23.6113 11.4075C22.5805 10.279 21.1275 9.63213 19.6004 9.62262H19.5761Z" />
<path fill-rule="evenodd" clip-rule="evenodd" d="M27.744 31.7822C25.3969 31.7774 23.4973 29.8711 23.4973 27.5198C23.4973 27.0698 23.8617 26.7047 24.3108 26.7047C24.7599 26.7047 25.1244 27.0698 25.1244 27.5198C25.1285 28.9688 26.3048 30.1408 27.7513 30.1367C29.1986 30.1319 30.3677 28.9542 30.3637 27.5042C30.3596 26.0551 29.1832 24.8831 27.7366 24.888C27.0102 24.8897 26.3178 25.1937 25.824 25.7267C25.5181 26.0576 25.0031 26.078 24.6729 25.7715C24.3426 25.465 24.3222 24.9492 24.6281 24.6183C26.2275 22.8937 28.9196 22.7946 30.6411 24.3974C32.3626 25.9997 32.4618 28.6966 30.8624 30.4212C30.0569 31.2891 28.9269 31.7822 27.744 31.7822Z" />
<path fill-rule="evenodd" clip-rule="evenodd" d="M29.1271 28.335H26.3691C25.9201 28.335 25.5557 27.9698 25.5557 27.5199C25.5557 27.0701 25.9201 26.7049 26.3691 26.7049H29.1271C29.5762 26.7049 29.9407 27.0701 29.9407 27.5199C29.9407 27.9698 29.5762 28.335 29.1271 28.335Z" />
</svg>

