<svg width="100%" height="100%" viewBox="0 0 50 50" fill="none" xmlns="http://www.w3.org/2000/svg">
<path fill-rule="evenodd" clip-rule="evenodd" d="M24.9999 50C11.1926 50 0 38.8073 0 25C0 11.1927 11.1926 0 24.9999 0C38.8072 0 50 11.1927 50 25C50 38.8073 38.8072 50 24.9999 50ZM24.9999 2.08334C12.3437 2.08334 2.08335 12.3437 2.08335 25C2.08335 37.6562 12.3437 47.9167 24.9999 47.9167C37.6562 47.9167 47.9167 37.6562 47.9167 25C47.9167 12.3437 37.6562 2.08334 24.9999 2.08334Z" fill="#00A3E0"/>
<path fill-rule="evenodd" clip-rule="evenodd" d="M15.3431 37.1738H18.2133C18.7243 37.1738 19.1392 36.7587 19.1392 36.2473V16.2794C19.1392 15.7679 18.7243 15.3528 18.2133 15.3528H15.3431C13.7764 15.3528 12.5051 16.6204 12.5004 18.1882V34.3292C12.5051 35.8979 13.7755 37.1691 15.3431 37.1738ZM17.2874 35.3206H15.3431C14.7959 35.3206 14.3523 34.8768 14.3523 34.3292V18.1882C14.3523 17.6461 14.7921 17.206 15.3338 17.206C15.3365 17.206 15.3403 17.206 15.3431 17.206H17.2874V35.3206Z" fill="#00A3E0"/>
<path fill-rule="evenodd" clip-rule="evenodd" d="M21.4079 37.1738H34.6575C36.2251 37.1691 37.4954 35.8979 37.5 34.3292V33.4026C37.4954 31.8348 36.2241 30.5672 34.6575 30.5672H21.4079C20.8968 30.5672 20.482 30.9824 20.482 31.4938V36.2843C20.5015 36.7819 20.9108 37.1738 21.4079 37.1738ZM34.6575 32.3833C35.1992 32.3778 35.6427 32.8143 35.6482 33.3562C35.6482 33.3591 35.6482 33.3628 35.6482 33.3655V34.2921C35.6482 34.8398 35.2048 35.2835 34.6575 35.2835H22.3338V32.3462L34.6575 32.3833Z" fill="#00A3E0"/>
<path fill-rule="evenodd" clip-rule="evenodd" d="M21.4079 21.9961H34.926C36.3454 21.9915 37.4954 20.8407 37.5 19.4203V17.9284C37.5 16.5062 36.3474 15.3525 34.926 15.3525H24.4263C23.9152 15.3525 23.5004 15.7677 23.5004 16.2791C23.5004 16.7906 23.9152 17.2057 24.4263 17.2057H34.926C35.3251 17.2057 35.6482 17.5291 35.6482 17.9284V19.4203C35.6482 19.8196 35.3251 20.143 34.926 20.143H22.3338V14.6761C22.3338 14.1648 21.919 13.7495 21.4079 13.7495C20.8968 13.7495 20.482 14.1648 20.482 14.6761V21.0695C20.482 21.581 20.8968 21.9961 21.4079 21.9961Z" fill="#00A3E0"/>
<path fill-rule="evenodd" clip-rule="evenodd" d="M21.4079 29.584H34.6575C36.2251 29.5794 37.4954 28.3081 37.5 26.7393V25.8127C37.4954 24.245 36.2241 22.9775 34.6575 22.9775H21.4079C20.8968 22.9775 20.482 23.3925 20.482 23.904V28.6945C20.5015 29.1921 20.9108 29.584 21.4079 29.584ZM34.6575 24.7936C35.1992 24.7879 35.6427 25.2244 35.6482 25.7665C35.6482 25.7692 35.6482 25.773 35.6482 25.7757V26.7023C35.6482 27.2499 35.2048 27.6938 34.6575 27.6938H22.3338V24.7565L34.6575 24.7936Z" fill="#00A3E0"/>
</svg>
