<svg width="100%" height="100%" viewBox="0 0 36 36" fill="none" xmlns="http://www.w3.org/2000/svg">
<path fill-rule="evenodd" clip-rule="evenodd" d="M20.4014 28.7996H15.2828C14.955 28.8071 14.6682 28.5806 14.5994 28.2605L14.1415 26.1312C14.0979 25.9292 14.1482 25.7183 14.2782 25.558C14.407 25.3996 14.6 25.3068 14.8045 25.3054H20.2715L20.4014 24.5615C19.4378 24.5615 18.2965 24.4387 17.6678 23.258C16.7384 24.5547 15.7133 24.623 14.3944 24.5479H14.3603C14.2651 24.5411 14.1723 24.5151 14.0869 24.4728C13.8338 24.3438 13.6869 24.0722 13.7179 23.7904C13.7179 23.7904 13.7179 23.729 13.7179 23.7016C13.7146 23.6627 13.7146 23.6245 13.7179 23.5856V21.5382C13.3035 20.4347 12.7696 19.3796 12.1256 18.3921C11.2996 17.0811 10.8417 15.5728 10.7998 14.0244C10.9137 10.2395 14.0062 7.22369 17.7976 7.1998C21.6588 7.1998 24.9049 10.3391 24.9049 14.0244C24.862 15.5974 24.3895 17.1288 23.5381 18.4535C22.9282 19.3953 22.4065 20.3917 21.98 21.4291C21.8575 21.7852 21.4689 21.9757 21.1118 21.8528C20.7703 21.7361 20.5788 21.3738 20.6747 21.0264C21.1422 19.8518 21.726 18.7272 22.4173 17.6687C23.129 16.5692 23.5303 15.2985 23.5791 13.9903C23.5791 11.0693 20.9549 8.5852 17.8386 8.53056C14.796 8.54013 12.3069 10.9533 12.2076 13.9903C12.2508 15.2733 12.6301 16.5229 13.3078 17.6141C13.3488 17.6756 15.1256 20.576 15.1256 21.5042V23.2034C15.8201 23.273 16.4802 22.8868 16.7589 22.248C16.9213 21.9825 17.0455 21.6952 17.1279 21.395L16.9571 21.2994C15.8413 20.5078 15.0827 19.3087 14.8455 17.9622C14.7429 16.7201 15.4127 16.4061 15.7065 16.3242C16.3899 16.14 17.2373 16.6655 17.7566 17.2729C17.9406 16.7003 18.3502 16.2273 18.891 15.9626C19.3438 15.8179 19.8396 15.9483 20.1622 16.297C20.7271 16.9221 20.9286 17.7942 20.6952 18.6037C20.4697 19.7503 19.718 21.1219 18.7066 21.5178H18.6382C18.686 21.7839 18.7476 22.0433 18.8159 22.2889C19.0756 23.1216 19.4993 23.1898 20.8046 23.1625C21.1599 23.1625 21.5631 23.1284 21.7954 23.4014C21.9263 23.5562 21.9814 23.7617 21.9458 23.961L21.5563 26.0834C21.4961 26.4117 21.2071 26.6485 20.8729 26.6431H15.6655L15.8363 27.4074H20.4014C20.7788 27.4074 21.0848 27.7132 21.0848 28.0898C21.0848 28.4666 20.7788 28.7723 20.4014 28.7723V28.7996ZM18.563 19.4772C18.563 19.6205 18.563 19.7707 18.604 19.914C18.9659 19.4636 19.2122 18.9319 19.3216 18.3648C19.4232 18.0325 19.3939 17.6735 19.2396 17.3616C18.9193 17.9151 18.706 18.5239 18.6109 19.1564C18.5972 19.2452 18.563 19.3475 18.563 19.4772ZM16.1849 17.7506C16.1816 17.7895 16.1816 17.8278 16.1849 17.8666C16.35 18.5627 16.6994 19.2015 17.1963 19.7161V19.484C17.1379 19.1155 17.0275 18.7572 16.8683 18.4194C16.7089 18.1328 16.4752 17.8953 16.1917 17.7301L16.1849 17.7506Z" fill="#FFCD00"/>
</svg>
