<svg width="100%" height="100%" viewBox="0 0 32 32" fill="none" xmlns="http://www.w3.org/2000/svg">
<rect width="32" height="32" fill="transparent"/>
<path fill-rule="evenodd" clip-rule="evenodd" d="M24.7499 21.7122H10.3134C9.93483 21.7122 9.62793 21.4201 9.62793 21.0603C9.62793 20.7005 9.93483 20.4085 10.3134 20.4085H24.7499C25.1284 20.4085 25.4353 20.7005 25.4353 21.0603C25.4353 21.4201 25.1284 21.7122 24.7499 21.7122Z" />
<path fill-rule="evenodd" clip-rule="evenodd" d="M24.9144 16.5693H10.4779C10.0994 16.5693 9.79248 16.2773 9.79248 15.9175C9.79248 15.5577 10.0994 15.2657 10.4779 15.2657H24.9144C25.293 15.2657 25.5999 15.5577 25.5999 15.9175C25.5999 16.2773 25.293 16.5693 24.9144 16.5693Z" />
<path fill-rule="evenodd" clip-rule="evenodd" d="M24.7499 11.4336H10.3134C9.93483 11.4336 9.62793 11.1416 9.62793 10.7818C9.62793 10.422 9.93483 10.1299 10.3134 10.1299H24.7499C25.1284 10.1299 25.4353 10.422 25.4353 10.7818C25.4353 11.1416 25.1284 11.4336 24.7499 11.4336Z" />
<path fill-rule="evenodd" clip-rule="evenodd" d="M8.45614 22.9836C7.32032 22.9836 6.39979 22.1077 6.3999 21.0283C6.40002 19.9483 7.32091 19.0729 8.45667 19.0729C9.59248 19.0729 10.513 19.9489 10.5129 21.0283C10.5129 21.0394 10.5128 21.0498 10.5126 21.0608C10.4939 22.1279 9.57859 22.9836 8.45614 22.9836ZM8.45614 20.4352C8.07751 20.4352 7.7706 20.7272 7.7706 21.0869C7.7706 21.4467 8.07751 21.7387 8.45614 21.7387C8.8347 21.7387 9.1416 21.4467 9.1416 21.0869C9.1416 20.7272 8.8347 20.4352 8.45614 20.4352Z" />
<path fill-rule="evenodd" clip-rule="evenodd" d="M8.45637 17.8472C7.32062 17.8472 6.3999 16.9718 6.3999 15.8918C6.3999 14.8118 7.32062 13.9364 8.45637 13.9364C9.5922 13.9364 10.5129 14.8118 10.5129 15.8918C10.5129 16.9718 9.5922 17.8472 8.45637 17.8472ZM8.45637 15.2987C8.07781 15.2993 7.77132 15.5913 7.77179 15.9511C7.77221 16.3115 8.07953 16.6029 8.4581 16.6022C8.83673 16.6016 9.14321 16.3096 9.1428 15.9498C9.14274 15.9387 9.14244 15.9283 9.14191 15.9179C9.12362 15.5704 8.822 15.298 8.45637 15.2987Z" />
<path fill-rule="evenodd" clip-rule="evenodd" d="M8.45637 12.7107C7.32062 12.7107 6.3999 11.8354 6.3999 10.7553C6.3999 9.6753 7.32062 8.79993 8.45637 8.79993C9.5922 8.79993 10.5129 9.6753 10.5129 10.7553C10.5129 11.8354 9.5922 12.7107 8.45637 12.7107ZM8.45637 10.1622C8.07781 10.1622 7.7709 10.4542 7.7709 10.8139C7.7709 11.1738 8.07781 11.4658 8.45637 11.4658C8.835 11.4658 9.14191 11.1738 9.14191 10.8139C9.14191 10.4542 8.835 10.1622 8.45637 10.1622Z" />
</svg>
