<svg width="100%" height="100%" viewBox="0 0 19 19" fill="none" xmlns="http://www.w3.org/2000/svg">
<path fill-rule="evenodd" clip-rule="evenodd" d="M10.4431 13.9977C10.1864 14.0106 9.93003 13.9699 9.68983 13.8782C9.44802 13.7381 9.30352 13.4759 9.31482 13.197C9.31935 13.1563 9.31935 13.115 9.31482 13.0743C9.15996 13.0585 9.00415 13.0585 8.84932 13.0743C8.84932 13.0743 8.84932 13.0937 8.84932 13.1034C8.92329 13.3068 8.89941 13.5331 8.78466 13.7168C8.4872 14.0816 7.20704 13.9815 6.99044 13.8847C6.66425 13.7917 6.4751 13.4524 6.56789 13.1266C6.57242 13.1111 6.5776 13.096 6.58313 13.0808C6.63289 12.9665 6.63289 12.8367 6.58313 12.7224C6.31704 12.4464 6.03065 12.1907 5.72646 11.9573C5.59356 11.946 5.45972 11.9534 5.32878 11.9799C5.00552 12.0219 4.5788 12.0735 4.33956 11.7539C4.10032 11.4343 4.12942 10.0073 4.24581 9.70707C4.36221 9.4068 4.48181 9.0969 4.87299 9.16791C5.00489 9.18645 5.13903 9.16392 5.25767 9.10335C5.53958 8.88023 5.77817 8.60787 5.9624 8.29947C5.98796 8.08009 5.95691 7.85775 5.87189 7.65377C5.77492 7.33093 5.66823 6.95644 5.91717 6.68526C6.16607 6.41408 6.63161 6.50124 7.04867 6.611C7.35671 6.69809 7.63021 6.87858 7.83095 7.12756C7.92149 7.23671 8.03112 7.32861 8.15425 7.39873C8.52343 7.49555 8.90847 7.51538 9.28571 7.45688C9.46677 7.45688 9.63813 7.43424 9.78358 7.43424C10.5853 7.43424 11.4291 7.48594 12.1693 8.12836C12.3343 8.27855 12.4849 8.44396 12.6187 8.62231L12.6608 8.67717C12.6653 8.23149 13.0309 7.87379 13.477 7.87832C13.5035 7.8786 13.5301 7.88017 13.5562 7.88298C13.8433 7.92402 14.1006 8.08174 14.2675 8.31884C14.4646 8.59864 14.4646 8.97206 14.2675 9.25187C14.2012 9.35518 14.122 9.44958 14.0314 9.53274C14.067 9.53588 14.1026 9.53588 14.1381 9.53274C14.2157 9.53274 14.2642 9.53275 14.4452 9.43585C14.5981 9.34395 14.797 9.39326 14.8888 9.54608C14.9809 9.69884 14.9315 9.89719 14.7786 9.98913C14.765 9.99729 14.7507 10.0044 14.7362 10.0105C14.5461 10.1249 14.3276 10.1829 14.1058 10.1784C13.9086 10.1626 13.7147 10.118 13.5303 10.0461C13.4104 9.99519 13.3011 9.92299 13.2071 9.83298C12.9924 9.81112 12.7891 9.72699 12.622 9.59085C12.4228 9.42843 12.2457 9.24068 12.095 9.03235C11.9867 8.88522 11.8645 8.74897 11.7297 8.62555C11.1575 8.12836 10.4754 8.08961 9.76739 8.08961C9.63489 8.08961 9.47649 8.08961 9.31158 8.11221C8.80729 8.14451 8.23181 8.18323 7.84067 7.98309C7.6548 7.87782 7.4886 7.74132 7.34928 7.57954C7.22872 7.4249 7.06253 7.31197 6.87406 7.25671C6.72212 7.20948 6.56435 7.18235 6.40532 7.17597C6.42599 7.27842 6.45187 7.37973 6.48289 7.47948C6.61639 7.81154 6.64584 8.17634 6.56698 8.52545C6.31837 9.01427 5.94338 9.42776 5.48076 9.72322C5.29261 9.80211 5.08989 9.84064 4.88591 9.83619C4.86652 9.88139 4.85035 9.92981 4.83741 9.95565C4.76176 10.426 4.76176 10.9058 4.83741 11.3762C4.96707 11.3852 5.09763 11.3774 5.22536 11.3535C5.46845 11.3013 5.72093 11.3113 5.95921 11.3826C6.39658 11.6745 6.79066 12.0267 7.12943 12.4286C7.25909 12.6834 7.28558 12.9781 7.2038 13.2519V13.2874L7.25233 13.31C7.57427 13.3536 7.9005 13.3536 8.22216 13.31C8.22216 13.2874 8.22216 13.268 8.22216 13.2486C8.14812 13.0462 8.17203 12.8209 8.28678 12.6385C8.49693 12.3705 9.42149 12.4093 9.57988 12.4964C9.82693 12.6262 9.97657 12.8864 9.96459 13.1647C9.96459 13.3035 9.96459 13.3067 10.0099 13.3229C10.3781 13.3907 10.757 13.3752 11.1187 13.2777C11.1187 13.2228 11.0961 13.1324 11.0864 13.0743C11.0188 12.8632 11.0256 12.6352 11.1058 12.4286C11.2219 12.2549 11.3783 12.1122 11.5616 12.0122C11.6314 11.967 11.6984 11.9172 11.762 11.8637C12.1678 11.4898 12.4267 10.9839 12.4926 10.4367C12.514 10.2585 12.6763 10.1312 12.8547 10.1526C13.0332 10.1739 13.1605 10.336 13.1392 10.5142C13.0539 11.2167 12.7202 11.8659 12.1985 12.3447C12.1128 12.4163 12.0232 12.4832 11.9301 12.5449C11.8467 12.5978 11.7669 12.6559 11.6909 12.7192C11.6964 12.7983 11.7071 12.8771 11.7232 12.9549C11.805 13.1937 11.7792 13.4566 11.6521 13.6748C11.4646 13.9008 10.9215 13.9977 10.4431 13.9977ZM13.4592 8.5287C13.3978 8.52741 13.3393 8.5549 13.3008 8.60296C13.2643 8.69525 13.2643 8.79799 13.3008 8.89029C13.3371 8.98707 13.3849 9.07922 13.4431 9.16467C13.5549 9.10168 13.6493 9.01181 13.7179 8.90319C13.7622 8.84141 13.7622 8.75839 13.7179 8.69657C13.6574 8.61062 13.5659 8.55151 13.4625 8.53194L13.4592 8.5287Z" fill="#00A3E0"/>
<path fill-rule="evenodd" clip-rule="evenodd" d="M10.4581 9.18936C10.4148 9.1905 10.3715 9.18166 10.3321 9.16355C9.95347 8.98698 9.51774 8.97871 9.13269 9.14091C8.96653 9.2069 8.77838 9.12593 8.71243 8.96013C8.64648 8.79433 8.72729 8.60639 8.89348 8.5404C9.43691 8.31752 10.0486 8.32801 10.5842 8.56946C10.7484 8.63933 10.8247 8.82898 10.7549 8.99304C10.7042 9.11186 10.5874 9.18907 10.4581 9.18936Z" fill="#00A3E0"/>
<path fill-rule="evenodd" clip-rule="evenodd" d="M9.82595 7.0632H9.73867C9.46486 7.03863 9.2117 6.90762 9.03392 6.6984C8.66702 6.26188 8.72196 5.6114 9.15677 5.24236C9.59418 4.87528 10.2469 4.93189 10.6144 5.36873C10.9817 5.80557 10.9251 6.45727 10.4877 6.82428C10.3021 6.97989 10.0681 7.06555 9.82595 7.06641V7.0632ZM9.82595 5.63942C9.73319 5.63903 9.64363 5.67228 9.57379 5.73307C9.49554 5.79877 9.44675 5.89284 9.43802 5.99458C9.428 6.09764 9.46064 6.20038 9.52855 6.27867C9.66983 6.44197 9.91677 6.46016 10.0804 6.31917C10.156 6.25383 10.2039 6.16192 10.2139 6.06236C10.2307 5.84875 10.072 5.66148 9.85828 5.64266L9.82595 5.63942Z" fill="#00A3E0"/>
</svg>
