<svg width="100%" height="100%" viewBox="0 0 32 32" fill="none" xmlns="http://www.w3.org/2000/svg">
<path fill-rule="evenodd" clip-rule="evenodd" d="M16 32C24.8366 32 32 24.8366 32 16C32 7.16344 24.8366 0 16 0C7.16344 0 0 7.16344 0 16C0 24.8366 7.16344 32 16 32ZM19.8135 8.55556C19.8135 7.8652 20.3731 7.30556 21.0635 7.30556H26.6985C27.3889 7.30556 27.9485 7.8652 27.9485 8.55556V15.4631C27.9485 16.1534 27.3889 16.7131 26.6985 16.7131H21.0635C20.3731 16.7131 19.8135 16.1534 19.8135 15.4631V8.55556ZM21.0635 7.80556C20.6493 7.80556 20.3135 8.14134 20.3135 8.55556V15.4631C20.3135 15.8773 20.6493 16.2131 21.0635 16.2131H26.6985C27.1127 16.2131 27.4485 15.8773 27.4485 15.4631V8.55556C27.4485 8.14134 27.1127 7.80556 26.6985 7.80556H21.0635ZM25.0844 8.33248C25.1235 8.29343 25.1868 8.29343 25.2259 8.33248L26.0742 9.18081L26.9225 10.0292C26.9616 10.0682 26.9616 10.1315 26.9225 10.1706C26.8835 10.2096 26.8202 10.2096 26.7811 10.1706L25.9328 9.32224L25.0844 8.4739C25.0454 8.43485 25.0454 8.37153 25.0844 8.33248ZM25.9328 8.33248C25.9718 8.29343 26.0351 8.29343 26.0742 8.33248L26.9225 9.18081C26.9616 9.21987 26.9616 9.28318 26.9225 9.32224C26.8835 9.36129 26.8202 9.36129 26.7811 9.32224L25.9328 8.4739C25.8937 8.43485 25.8937 8.37153 25.9328 8.33248ZM23.8816 12.2488C24.3635 12.2488 24.7541 11.8581 24.7541 11.3763C24.7541 10.8944 24.3635 10.5038 23.8816 10.5038C23.3998 10.5038 23.0091 10.8944 23.0091 11.3763C23.0091 11.8581 23.3998 12.2488 23.8816 12.2488ZM23.8816 12.6488C24.5844 12.6488 25.1541 12.079 25.1541 11.3763C25.1541 10.6735 24.5844 10.1038 23.8816 10.1038C23.1788 10.1038 22.6091 10.6735 22.6091 11.3763C22.6091 12.079 23.1788 12.6488 23.8816 12.6488ZM23.881 13.3696C23.2467 13.3697 22.7064 13.5406 22.4673 13.7799C22.3404 13.9069 22.2541 14.1287 22.2057 14.3698H25.5564C25.508 14.1283 25.4216 13.9063 25.2947 13.7793C25.1821 13.6667 24.9942 13.5613 24.736 13.4847C24.482 13.4094 24.1846 13.3696 23.881 13.3696ZM25.9631 14.3698C25.9158 14.0915 25.8108 13.7298 25.5776 13.4965C24.8749 12.7936 22.8868 12.7941 22.1843 13.4971C21.9512 13.7304 21.8462 14.0917 21.799 14.3698C21.7602 14.5978 21.7602 14.7698 21.7602 14.7698H22.1602H25.6019H26.0019C26.0019 14.7698 26.0019 14.5978 25.9631 14.3698ZM14.1681 17.568C16.3631 17.568 18.141 15.8004 18.141 13.6181C18.141 11.4358 16.3631 9.66825 14.1681 9.66825C11.9731 9.66825 10.1952 11.4358 10.1952 13.6181C10.1952 15.8004 11.9731 17.568 14.1681 17.568ZM14.1681 11.6432C15.2607 11.6432 16.1546 12.5319 16.1546 13.6181C16.1546 14.7043 15.2607 15.5931 14.1681 15.5931C13.0756 15.5931 12.1817 14.7043 12.1817 13.6181C12.1817 12.5319 13.0756 11.6432 14.1681 11.6432ZM20.5148 20.0959C18.8462 19.2467 16.681 18.5555 14.1681 18.5555C11.6552 18.5555 9.49001 19.2467 7.82138 20.0959C7.33675 20.3441 6.93076 20.7209 6.64848 21.1846C6.3662 21.6482 6.21868 22.1806 6.22229 22.7226V25.4677H22.1139V22.7226C22.1139 21.6166 21.5081 20.5995 20.5148 20.0959ZM8.20874 23.4928V22.7226C8.20874 22.3473 8.40739 22.0116 8.72522 21.8536C9.90716 21.2512 11.8142 20.5304 14.1681 20.5304C16.5221 20.5304 18.4291 21.2512 19.611 21.8536C19.9288 22.0116 20.1275 22.3473 20.1275 22.7226V23.4928H8.20874Z" fill="#00A3E0"/>
</svg>
