<svg width="100%" height="100%" viewBox="0 0 14 11" fill="none" xmlns="http://www.w3.org/2000/svg">
<path fill-rule="evenodd" clip-rule="evenodd" d="M9 0.75C8.30964 0.75 7.75 1.30964 7.75 2V6C7.75 6.69036 8.30964 7.25 9 7.25H12C12.6904 7.25 13.25 6.69036 13.25 6V2C13.25 1.30964 12.6904 0.75 12 0.75H9ZM8.25 2C8.25 1.58579 8.58579 1.25 9 1.25H12C12.4142 1.25 12.75 1.58579 12.75 2V6C12.75 6.41421 12.4142 6.75 12 6.75H9C8.58579 6.75 8.25 6.41421 8.25 6V2ZM11.0354 1.96464C11.0158 1.94512 10.9842 1.94512 10.9646 1.96464C10.9451 1.98417 10.9451 2.01583 10.9646 2.03536L11.4646 2.53536L11.9646 3.03536C11.9842 3.05488 12.0158 3.05488 12.0354 3.03536C12.0549 3.01583 12.0549 2.98417 12.0354 2.96464L11.5354 2.46464L11.0354 1.96464ZM11.5354 1.96464C11.5158 1.94512 11.4842 1.94512 11.4646 1.96464C11.4451 1.98417 11.4451 2.01583 11.4646 2.03536L11.9646 2.53536C11.9842 2.55488 12.0158 2.55488 12.0354 2.53536C12.0549 2.51583 12.0549 2.48417 12.0354 2.46464L11.5354 1.96464ZM10.6813 3.81818C10.6813 3.99391 10.5388 4.13636 10.3631 4.13636C10.1874 4.13636 10.0449 3.99391 10.0449 3.81818C10.0449 3.64245 10.1874 3.5 10.3631 3.5C10.5388 3.5 10.6813 3.64245 10.6813 3.81818ZM11.1813 3.81818C11.1813 4.27005 10.815 4.63636 10.3631 4.63636C9.91123 4.63636 9.54492 4.27005 9.54492 3.81818C9.54492 3.36631 9.91123 3 10.3631 3C10.815 3 11.1813 3.36631 11.1813 3.81818ZM9 6H9.50005H11.2272H11.7273C11.7273 6 11.7272 5.74741 11.6414 5.5C11.601 5.3837 11.5417 5.26854 11.4545 5.1813C11.0027 4.72937 9.72438 4.72965 9.27269 5.1817C9.18558 5.26888 9.12629 5.38387 9.08595 5.5C9 5.7474 9 6 9 6ZM10.8443 5.40651C10.9443 5.43615 11.0133 5.47041 11.0573 5.5H9.67017C9.78534 5.42281 10.0304 5.34257 10.3636 5.34251C10.539 5.34247 10.7065 5.36565 10.8443 5.40651ZM6.75001 4.25C6.75001 5.49313 5.74314 6.5 4.50002 6.5C3.2569 6.5 2.25003 5.49313 2.25003 4.25C2.25003 3.00688 3.2569 2 4.50002 2C5.74314 2 6.75001 3.00688 6.75001 4.25ZM5.62501 4.25C5.62501 3.63125 5.11877 3.125 4.50002 3.125C3.88127 3.125 3.37502 3.63125 3.37502 4.25C3.37502 4.86875 3.88127 5.375 4.50002 5.375C5.11877 5.375 5.62501 4.86875 5.62501 4.25ZM4.50002 7.0625C5.92314 7.0625 7.14938 7.45625 8.09438 7.94C8.65688 8.22688 9 8.80625 9 9.43625V11H3.65568e-05V9.43625C-0.00200551 9.12752 0.0815415 8.82427 0.241404 8.56015C0.401267 8.29602 0.631192 8.08137 0.905658 7.94C1.85065 7.45625 3.0769 7.0625 4.50002 7.0625ZM1.12503 9.875H7.875V9.43625C7.875 9.2225 7.7625 9.03125 7.5825 8.94125C6.91313 8.59812 5.83314 8.1875 4.50002 8.1875C3.1669 8.1875 2.0869 8.59812 1.41753 8.94125C1.23753 9.03125 1.12503 9.2225 1.12503 9.43625V9.875Z" />
</svg>
