<svg width="100%" height="100%" viewBox="0 0 32 32" fill="none" xmlns="http://www.w3.org/2000/svg">
<circle cx="16" cy="16" r="15.75" stroke="#1E1E1E" stroke-width="0.5"/>
<path d="M21.4047 22.9423C20.5751 22.484 19.469 22.3923 18.5472 22.3006C17.9941 22.209 17.3489 22.209 17.1645 22.1173C16.7036 21.8423 16.1505 20.1923 16.3349 19.734C16.9801 18.7257 17.7176 17.0757 18.0863 15.6091C18.7315 13.0424 18.455 11.1174 17.3489 9.74243C15.874 7.90911 13.4773 8.00076 13.4773 8.00076C13.3851 8.00076 10.9885 8.00078 9.51362 9.74243C8.40747 11.1174 8.13094 13.0424 8.77619 15.6091C9.14491 17.0757 9.88234 18.7257 10.5276 19.734C10.6198 20.1923 10.1589 21.8423 9.69798 22.1173C9.42145 22.209 8.86837 22.3006 8.31529 22.3006C7.3935 22.3923 6.28735 22.484 5.45774 22.9423C4.99684 23.1256 4.90466 23.6756 5.08902 24.134C5.27338 24.5923 5.82646 24.6839 6.28735 24.5006C6.84043 24.2256 7.76222 24.1339 8.49965 24.0423C9.32926 23.9506 9.97452 23.9506 10.5276 23.6756C11.6337 23.1256 12.0946 21.5673 12.1868 21.109C12.3712 20.3757 12.4634 19.459 12.0946 18.8174C11.5416 17.9924 10.8963 16.5257 10.6198 15.2424C10.1589 13.2257 10.2511 11.7591 10.9885 10.8424C11.9103 9.65077 13.5695 9.65076 13.6617 9.74243C13.6617 9.74243 15.3209 9.74244 16.2427 10.8424C16.9801 11.7591 17.1645 13.2257 16.6114 15.2424C16.3349 16.5257 15.6896 17.9924 15.1366 18.8174C14.6757 19.3673 14.86 20.3757 15.0444 21.109C15.1366 21.5673 15.5975 23.1256 16.7036 23.6756C17.2567 23.9506 17.9019 24.0423 18.7315 24.0423C19.5612 24.1339 20.3908 24.2256 20.9438 24.5006C21.036 24.5922 21.2204 24.5923 21.3126 24.5923C21.5891 24.5923 21.9578 24.4089 22.05 24.134C21.9578 23.7673 21.8656 23.2173 21.4047 22.9423Z" fill="#1E1E1E"/>
<path d="M25.7335 13.9781C25.5194 13.8565 25.2339 13.8322 24.996 13.8079C24.8533 13.7836 24.6868 13.7836 24.6392 13.7593C24.5203 13.6864 24.3776 13.2488 24.4251 13.1273C24.5916 12.8599 24.782 12.4224 24.8771 12.0334C25.0436 11.3528 24.9723 10.8423 24.6868 10.4777C24.3062 9.99152 23.6877 10.0158 23.6877 10.0158C23.6639 10.0158 23.0454 10.0158 22.6648 10.4777C22.3793 10.8423 22.308 11.3528 22.4745 12.0334C22.5697 12.4224 22.76 12.8599 22.9265 13.1273C22.9503 13.2488 22.8313 13.6864 22.7124 13.7593C22.641 13.7836 22.4983 13.8079 22.3556 13.8079C22.1177 13.8322 21.8322 13.8565 21.6181 13.9781C21.4992 14.0267 21.4754 14.1725 21.523 14.2941C21.5705 14.4156 21.7133 14.4399 21.8322 14.3913C21.9749 14.3184 22.2128 14.2941 22.4031 14.2698C22.6172 14.2455 22.7837 14.2455 22.9265 14.1725C23.2119 14.0267 23.3309 13.6135 23.3547 13.4919C23.4022 13.2975 23.426 13.0544 23.3309 12.8842C23.1881 12.6654 23.0216 12.2765 22.9503 11.9362C22.8313 11.4014 22.8551 11.0125 23.0454 10.7694C23.2833 10.4534 23.7115 10.4534 23.7353 10.4777C23.7353 10.4777 24.1635 10.4777 24.4013 10.7694C24.5916 11.0125 24.6392 11.4014 24.4965 11.9362C24.4251 12.2765 24.2586 12.6654 24.1159 12.8842C23.9969 13.0301 24.0445 13.2975 24.0921 13.4919C24.1159 13.6135 24.2348 14.0267 24.5203 14.1725C24.663 14.2455 24.8295 14.2698 25.0436 14.2698C25.2577 14.2941 25.4718 14.3184 25.6145 14.3913C25.6383 14.4156 25.6859 14.4156 25.7097 14.4156C25.7811 14.4156 25.8762 14.367 25.9 14.2941C25.8762 14.1969 25.8524 14.051 25.7335 13.9781Z" fill="#1E1E1E"/>
<path d="M26.0004 8H21.4004C20.8481 8 20.4004 8.44772 20.4004 9V14.7C20.4004 15.2523 20.8481 15.7 21.4004 15.7H26.0004C26.5527 15.7 27.0004 15.2523 27.0004 14.7V9C27.0004 8.44772 26.5527 8 26.0004 8Z" stroke="#1E1E1E" stroke-width="0.5"/>
<path d="M25.5331 8.73242L26.2665 9.46576M24.7998 8.73242L25.5331 9.46576L26.2665 10.1991" stroke="#1E1E1E" stroke-width="0.2" stroke-linecap="round"/>
</svg>
