<svg width="100%" height="100%" viewBox="0 0 40 40" fill="none" xmlns="http://www.w3.org/2000/svg">
<path d="M0 20C0 8.95431 8.95431 0 20 0C31.0457 0 40 8.95431 40 20C40 31.0457 31.0457 40 20 40C8.95431 40 0 31.0457 0 20Z" fill="white"/>
<path fill-rule="evenodd" clip-rule="evenodd" d="M20.0566 23.8281C15.0592 23.8281 10 22.499 10 19.9643C10 19.5377 10.3466 19.1915 10.7735 19.1915C11.2006 19.1915 11.5472 19.5377 11.5472 19.9643C11.5472 20.7371 14.5487 22.2826 20.0566 22.2826C25.5645 22.2826 28.5659 20.7371 28.5659 19.9643C28.5659 19.5377 28.9126 19.1915 29.3396 19.1915C29.7666 19.1915 30.1131 19.5377 30.1131 19.9643C30.1131 22.499 25.054 23.8281 20.0566 23.8281Z" fill="#1E1E1E"/>
<path fill-rule="evenodd" clip-rule="evenodd" d="M20.0566 15.7148C15.0592 15.7148 10 14.3857 10 11.8511C10 9.31637 15.0592 7.98723 20.0566 7.98723C21.4924 7.97871 22.9258 8.09231 24.3422 8.32725C24.7692 8.39758 25.0585 8.80094 24.9882 9.22755C24.9178 9.65408 24.514 9.94309 24.087 9.87275C22.7556 9.64557 21.4072 9.53197 20.0566 9.53274C14.5487 9.53274 11.5472 11.0783 11.5472 11.8511C11.5472 12.6238 14.5487 14.1693 20.0566 14.1693C25.5645 14.1693 28.5659 12.6238 28.5659 11.8511C28.5659 11.5961 28.0941 10.9624 26.3149 10.3751C25.9141 10.2274 25.7084 9.78309 25.8562 9.38287C25.9961 9.00344 26.4053 8.79558 26.7945 8.90687C29.5407 9.80326 30.1131 11.001 30.1131 11.8511C30.1131 14.3857 25.054 15.7148 20.0566 15.7148Z" fill="#1E1E1E"/>
<path fill-rule="evenodd" clip-rule="evenodd" d="M10.7737 28.8516C10.3466 28.8516 10 28.5053 10 28.0788V11.8509C10 11.4243 10.3466 11.0782 10.7737 11.0782C11.2006 11.0782 11.5472 11.4243 11.5472 11.8509V28.0788C11.5472 28.5053 11.2006 28.8516 10.7737 28.8516Z" fill="#1E1E1E"/>
<path fill-rule="evenodd" clip-rule="evenodd" d="M29.3397 28.8516C28.9127 28.8516 28.566 28.5053 28.566 28.0788V11.8509C28.566 11.4243 28.9127 11.0782 29.3397 11.0782C29.7667 11.0782 30.1133 11.4243 30.1133 11.8509V28.0788C30.1133 28.5053 29.7667 28.8516 29.3397 28.8516Z" fill="#1E1E1E"/>
<path fill-rule="evenodd" clip-rule="evenodd" d="M20.0568 31.9429C18.6209 31.9514 17.1875 31.8378 15.7711 31.6028C15.3441 31.5326 15.0547 31.1291 15.1252 30.7025C15.1956 30.276 15.5994 29.987 16.0264 30.0573C17.3577 30.2845 18.7062 30.3981 20.0568 30.3973C25.5647 30.3973 28.5661 28.8518 28.5661 28.079C28.5661 27.6525 28.9127 27.3062 29.3397 27.3062C29.7667 27.3062 30.1133 27.6525 30.1133 28.079C30.1133 30.6137 25.0541 31.9429 20.0568 31.9429Z" fill="#1E1E1E"/>
<ellipse cx="13" cy="26.9522" rx="7" ry="6.9874" fill="white"/>
<path fill-rule="evenodd" clip-rule="evenodd" d="M12.9492 32.6602C12.7386 32.6602 12.5676 32.4893 12.5676 32.2785C12.5676 32.0677 12.7386 31.8969 12.9492 31.8969C15.6472 31.8969 17.8344 29.7097 17.8344 27.0117C17.8344 24.3137 15.6472 22.1266 12.9492 22.1266C12.7386 22.1266 12.5676 21.9557 12.5676 21.7449C12.5676 21.5342 12.7386 21.3633 12.9492 21.3633C16.0689 21.3633 18.5978 23.8921 18.5978 27.0117C18.5978 30.1313 16.0689 32.6602 12.9492 32.6602Z" fill="#1E1E1E"/>
<path fill-rule="evenodd" clip-rule="evenodd" d="M7.78162 32.2656H7.70145C7.49656 32.2217 7.36525 32.0206 7.40759 31.8153L7.919 29.346C7.95183 29.1916 8.07624 29.0732 8.23197 29.0483C8.28003 29.039 8.32928 29.039 8.377 29.0483L10.8386 29.5597C11.0493 29.6029 11.1851 29.8088 11.142 30.0196C11.0989 30.2304 10.8928 30.3662 10.6821 30.323L8.59068 29.8879L8.15562 31.9717C8.11479 32.1449 7.95944 32.2668 7.78162 32.2656Z" fill="#1E1E1E"/>
<path fill-rule="evenodd" clip-rule="evenodd" d="M12.9724 32.6601C10.8573 32.6675 8.91701 31.4879 7.94991 29.6069C7.87242 29.4109 7.96859 29.1893 8.16477 29.1118C8.33384 29.0451 8.52658 29.1069 8.62544 29.2596C9.86162 31.6577 12.8079 32.5996 15.2058 31.3634C16.7129 30.5865 17.7094 29.0838 17.8384 27.3934C17.8548 27.1839 18.0373 27.0269 18.2468 27.0422C18.4571 27.0584 18.6144 27.2419 18.5983 27.452C18.5979 27.4528 18.5979 27.4536 18.5979 27.4544C18.3563 30.386 15.9138 32.6463 12.9724 32.6601Z" fill="#1E1E1E"/>
<path fill-rule="evenodd" clip-rule="evenodd" d="M8.29697 24.984H8.24736C8.03898 24.9581 7.89048 24.7688 7.91531 24.5603C7.94128 24.3519 8.1306 24.2036 8.33894 24.2283C8.54963 24.2399 8.71108 24.4201 8.69963 24.6309C8.68819 24.8417 8.50762 25.0032 8.29697 24.9916V24.984Z" fill="#1E1E1E"/>
<path fill-rule="evenodd" clip-rule="evenodd" d="M18.2161 26.9727C18.0165 26.9733 17.8504 26.8203 17.8344 26.6215C17.618 23.9322 15.2625 21.9277 12.573 22.1442C10.8892 22.2797 9.3946 23.2759 8.6214 24.7781C8.50692 24.9552 8.27068 25.0059 8.09357 24.8915C7.94092 24.7928 7.87914 24.6 7.94589 24.4309C9.36982 21.6576 12.7722 20.5639 15.5456 21.988C17.2852 22.8812 18.4386 24.6111 18.5939 26.5605C18.6115 26.7705 18.4554 26.955 18.2451 26.9724C18.2443 26.9725 18.2436 26.9725 18.2428 26.9727H18.2161Z" fill="#1E1E1E"/>
<path fill-rule="evenodd" clip-rule="evenodd" d="M12.9495 27.3926C12.848 27.3932 12.7507 27.3534 12.6786 27.2819L8.99946 23.6027C8.84979 23.4531 8.84979 23.2105 8.99946 23.0608C9.14904 22.9111 9.39176 22.9111 9.54138 23.0608L13.2205 26.7399C13.3701 26.8884 13.3712 27.13 13.2228 27.2797C13.222 27.2804 13.2212 27.2812 13.2205 27.2819C13.1484 27.3534 13.051 27.3932 12.9495 27.3926Z" fill="#1E1E1E"/>
<path fill-rule="evenodd" clip-rule="evenodd" d="M12.9488 27.3926C12.8473 27.3931 12.75 27.3533 12.6779 27.2819C12.5282 27.1334 12.5271 26.8918 12.6756 26.7421C12.6764 26.7414 12.6771 26.7406 12.6779 26.7399L14.5136 24.908C14.6506 24.7479 14.8918 24.7292 15.0518 24.8663C15.2117 25.0035 15.2304 25.2443 15.0934 25.4045C15.0807 25.4194 15.0666 25.4333 15.0518 25.4461L13.2198 27.2819C13.1477 27.3533 13.0503 27.3931 12.9488 27.3926Z" fill="#1E1E1E"/>
</svg>
