<svg width="100%" height="100%" viewBox="0 0 42 43" fill="none" xmlns="http://www.w3.org/2000/svg">
<path fill-rule="evenodd" clip-rule="evenodd" d="M21 42.0312C9.40181 42.0312 0 32.6224 0 21.0159C0 9.40952 9.40181 0.00056839 21 0.00056839C32.5981 0.00056839 42 9.40952 42 21.0159C42 32.6224 32.5981 42.0312 21 42.0312ZM21 1.75197C10.3687 1.75197 1.75001 10.3767 1.75001 21.0159C1.75001 31.6552 10.3687 40.2801 21 40.2801C31.6313 40.2801 40.25 31.6552 40.25 21.0159C40.25 10.3767 31.6313 1.75197 21 1.75197Z" />
<path fill-rule="evenodd" clip-rule="evenodd" d="M26.8724 32.9043H12.6729C12.3657 32.905 12.0843 32.73 11.9492 32.4537L10.8557 30.2169C9.48075 27.481 7.39018 23.3371 6.8354 21.9772C6.42612 21.2144 6.61108 20.2684 7.27767 19.7163C8.4524 18.9881 9.93826 18.9881 11.113 19.7163C11.6935 20.1487 12.1775 20.6965 12.5362 21.3255L12.7533 21.6393C13.4528 22.7896 14.305 23.8398 15.286 24.7613C15.6937 24.8926 15.9269 25.3207 15.8167 25.735C15.6993 26.1635 15.2563 26.4152 14.8284 26.2973C14.8197 26.2951 14.8117 26.2927 14.8036 26.2902C14.5141 26.2097 13.8226 26.0246 11.4266 22.5567L11.2014 22.2107C10.9474 21.7681 10.6152 21.3755 10.2205 21.0519C9.62793 20.718 8.9131 20.6824 8.29076 20.9554C8.29076 20.9554 8.18622 21.0359 8.29076 21.3657C8.82142 22.6693 10.8878 26.773 12.2547 29.4846C12.6085 30.2007 12.9301 30.8283 13.1552 31.2871H26.4302C26.575 30.9008 26.7598 30.2248 26.8403 29.9272C26.9207 29.6294 26.9287 29.5973 26.9608 29.5007C27.5583 27.6033 27.9861 25.6565 28.2393 23.6832L28.2956 23.2567C28.5448 21.5348 28.6655 19.7484 27.7086 19.5634C27.2906 19.5534 26.8829 19.6932 26.5589 19.9576C26.349 20.1012 26.0837 20.1371 25.8433 20.0542C25.6004 19.9707 25.4123 19.7765 25.3367 19.5312C25.3367 19.5312 25.0312 18.6059 24.3075 18.5415C24.096 18.5037 23.8782 18.5379 23.6884 18.6381C23.6249 18.6867 23.5662 18.7406 23.5115 18.799C23.2221 19.1643 22.7693 19.3607 22.3054 19.322C22.0039 19.2525 21.753 19.0434 21.63 18.7587C21.4266 18.2713 21.0398 17.8838 20.5526 17.6805C20.2309 17.6161 19.9254 17.9218 19.4913 18.3886C19.2629 18.6361 18.9107 18.7273 18.5907 18.6219C18.2828 18.5147 18.0696 18.2318 18.0519 17.9058L17.9796 12.563C18.0358 11.4203 17.9233 9.41685 17.3605 8.62835C17.2342 8.40996 16.9649 8.32015 16.7333 8.4191C16.2091 8.61195 15.8577 9.10749 15.8488 9.66626V10.6077C15.8488 18.7346 15.8488 22.4842 15.8488 22.7498C15.8312 23.1942 15.4565 23.54 15.0127 23.5222C14.5688 23.5044 14.223 23.1298 14.2408 22.6854C14.2408 22.4199 14.2408 18.3564 14.2408 10.6158V9.63409C14.252 8.37805 15.0497 7.26412 16.2348 6.85006C17.1282 6.55329 18.1099 6.88091 18.6469 7.6547C19.7163 9.15129 19.5797 12.2089 19.5635 12.555L19.6118 16.1919C19.9977 16.0207 20.4287 15.9756 20.842 16.0631C21.5778 16.2618 22.2186 16.7152 22.6512 17.3426C23.1578 16.957 23.8001 16.797 24.4281 16.9C25.2514 16.987 25.9888 17.4465 26.4302 18.1471C26.9175 17.9312 27.4561 17.8613 27.9821 17.946C30.5872 18.4368 30.0967 21.8245 29.8635 23.4498L29.8152 23.828C29.5782 25.9087 29.1527 27.9635 28.5448 29.9674C28.5448 30.0559 28.4806 30.1927 28.4403 30.3536C27.9739 31.9468 27.7407 32.9043 26.8724 32.9043Z" />
</svg>
