<svg width="100%" height="100%" viewBox="0 0 32 32" fill="none" xmlns="http://www.w3.org/2000/svg">
<circle cx="16" cy="16" r="15.75" fill="white" stroke="#1E1E1E" stroke-width="0.5"/>
<path fill-rule="evenodd" clip-rule="evenodd" d="M16.004 25.6289C15.8548 25.6302 15.7104 25.5763 15.5986 25.4775C13.4807 23.564 9.68672 19.2404 8.90009 15.1833C8.83662 14.8488 9.05603 14.5262 9.39024 14.4627C9.7244 14.3991 10.0468 14.6187 10.1103 14.9532C10.7154 18.0354 13.5109 21.7958 16.0161 24.1816C20.2518 19.9428 22.1518 16.4973 21.8856 13.6088C21.5455 10.6105 19.0192 8.34004 16.004 8.32249C14.6949 8.35799 13.4281 8.7933 12.3734 9.56987C11.6994 10.0583 11.2468 10.7944 11.1148 11.6166C10.9272 12.6339 11.5625 13.4333 12.561 14.1599C12.9297 13.4721 13.439 12.8696 14.0556 12.3917C14.8448 11.6824 15.9534 11.4513 16.96 11.7861C17.7976 12.0626 18.4364 12.7476 18.6543 13.6028C19.0378 15.0649 18.1644 16.5613 16.7034 16.9452C16.0347 17.1208 15.3243 17.0366 14.7151 16.7092L14.5336 16.6245C14.1766 16.4549 13.7712 16.2611 13.3234 16.0189C13.3264 16.3248 13.3486 16.6302 13.3899 16.9333C13.433 17.2622 13.2037 17.5646 12.8756 17.6115C12.5448 17.6583 12.2387 17.4278 12.1919 17.0968C12.1109 16.5162 12.1109 15.9273 12.1919 15.3468C10.788 14.4263 9.59593 13.1547 9.92273 11.3684C10.1252 10.2491 10.7544 9.25245 11.6775 8.58892C12.9351 7.66583 14.4449 7.15018 16.004 7.11134C19.6533 7.105 22.7138 9.86667 23.0837 13.4999C23.3862 16.8667 21.2139 20.7664 16.4276 25.4593C16.3139 25.569 16.1619 25.6299 16.004 25.6289ZM13.5836 14.7958C14.0495 15.0501 14.5457 15.2983 15.0479 15.5345L15.2294 15.6192C15.7726 15.9146 16.4372 15.8697 16.9359 15.5042C17.417 15.102 17.6221 14.4577 17.4623 13.851C17.3285 13.4179 16.9883 13.0797 16.5546 12.9488C15.9539 12.7424 15.2883 12.8845 14.824 13.3182C14.3026 13.7087 13.878 14.2143 13.5836 14.7958Z" fill="#1E1E1E"/>
</svg>
