<svg width="21" height="21" viewBox="0 0 21 21" fill="none" xmlns="http://www.w3.org/2000/svg">
<ellipse cx="10.5" cy="10.5" rx="8.75" ry="8.75" fill="#DA291C" stroke="white"/>
<path d="M10.5 1.75C11.6491 1.75 12.7869 1.97633 13.8485 2.41605C14.9101 2.85578 15.8747 3.5003 16.6872 4.31282C17.4997 5.12533 18.1442 6.08992 18.5839 7.15152C19.0237 8.21312 19.25 9.35093 19.25 10.5C19.25 12.8206 18.3281 15.0462 16.6872 16.6872C15.0462 18.3281 12.8206 19.25 10.5 19.25C9.35093 19.25 8.21312 19.0237 7.15152 18.5839C6.08992 18.1442 5.12533 17.4997 4.31282 16.6872C2.67187 15.0462 1.75 12.8206 1.75 10.5C1.75 8.17936 2.67187 5.95376 4.31282 4.31282C5.95376 2.67187 8.17936 1.75 10.5 1.75ZM14.6563 12.6438C16.3188 10.9812 16.2575 8.21625 14.5163 6.48375C12.775 4.75125 10.0188 4.68125 8.35625 6.34375C5.355 9.345 6.3175 14.6825 6.3175 14.6825C6.3175 14.6825 11.6638 15.6362 14.6563 12.6438ZM11.5063 6.8775L12.3638 8.63625L14.1225 9.49375L12.3638 10.3512L11.5063 12.11L10.6488 10.3512L8.89 9.49375L10.6488 8.63625L11.5063 6.8775Z" fill="white"/>
</svg>
