<svg width="100%" height="100%" viewBox="0 0 42 42" fill="none" xmlns="http://www.w3.org/2000/svg">
<path fill-rule="evenodd" clip-rule="evenodd" d="M20.9999 42C9.40207 42 0 32.5981 0 21C0 9.40189 9.40207 0 20.9999 0C32.5981 0 42 9.40189 42 21C42 32.5981 32.5981 42 20.9999 42ZM20.9999 1.75C10.3685 1.75 1.75003 10.3687 1.75003 21C1.75003 31.6312 10.3685 40.25 20.9999 40.25C31.6312 40.25 40.25 31.6312 40.25 21C40.25 10.3687 31.6312 1.75 20.9999 1.75Z" fill="#00A3E0"/>
<path fill-rule="evenodd" clip-rule="evenodd" d="M11.7428 30.2045H11.6834C11.2964 30.1732 10.9985 29.8489 11 29.4603C11.0446 25.7396 14.8699 25.1517 17.9453 24.8169C16.0882 23.6635 15.4272 21.5278 14.9221 19.4219C14.1792 16.3038 14.4764 13.863 15.8357 12.1812C17.0666 10.7926 18.8322 9.99876 20.6863 10.0008C22.5336 9.98778 24.2948 10.7843 25.507 12.1812C26.8664 13.863 27.1709 16.3038 26.4207 19.4219C25.8338 21.8552 24.8906 23.6039 23.5684 24.6979H23.9175L24.5859 24.7648C25.0168 24.8094 25.4773 24.869 25.9379 24.9434C26.3479 25.0155 26.6228 25.4069 26.5507 25.8177C26.4787 26.2285 26.088 26.5039 25.6779 26.4317C25.2545 26.3573 24.8385 26.3051 24.4374 26.2606L23.7764 26.1936C22.9072 26.1117 22.0232 26.0298 21.1393 25.8736C20.32 26.0373 19.4911 26.1542 18.6584 26.2233C15.3677 26.5656 12.8125 26.9674 12.5079 29.0809C12.519 29.1523 12.519 29.2252 12.5079 29.2967V29.5571C12.4582 29.9389 12.1268 30.2193 11.7428 30.2045ZM20.6565 11.4818C19.257 11.4837 17.9223 12.0751 16.9796 13.1114C15.9323 14.4136 15.7168 16.4154 16.3556 19.0646C16.8608 21.1408 17.455 23.0681 19.2451 23.8123C19.8379 24.0526 20.4522 24.2349 21.0799 24.3555C22.9741 23.79 24.2443 22.056 24.9723 19.0646C25.6036 16.4154 25.3957 14.4136 24.3408 13.1114C23.3997 12.0811 22.073 11.4904 20.6787 11.4818H20.6565Z" fill="#00A3E0"/>
<path fill-rule="evenodd" clip-rule="evenodd" d="M28.1141 31.7148C25.971 31.7104 24.2366 29.9699 24.2366 27.823C24.2366 27.4122 24.5694 27.0788 24.9794 27.0788C25.3894 27.0788 25.7223 27.4122 25.7223 27.823C25.726 29.146 26.8 30.2162 28.1208 30.2124C29.4422 30.208 30.5097 29.1327 30.506 27.8088C30.5023 26.4857 29.4281 25.4156 28.1074 25.42C27.4441 25.4216 26.8119 25.6991 26.361 26.1858C26.0817 26.488 25.6115 26.5066 25.31 26.2268C25.0085 25.9469 24.9898 25.4759 25.2691 25.1738C26.7294 23.5991 29.1874 23.5087 30.7593 24.9721C32.3311 26.4351 32.4217 28.8975 30.9613 30.4721C30.2259 31.2646 29.1941 31.7148 28.1141 31.7148Z" fill="#00A3E0"/>
<path fill-rule="evenodd" clip-rule="evenodd" d="M29.3771 28.5664H26.8589C26.4489 28.5664 26.1161 28.233 26.1161 27.8222C26.1161 27.4115 26.4489 27.0781 26.8589 27.0781H29.3771C29.7871 27.0781 30.1199 27.4115 30.1199 27.8222C30.1199 28.233 29.7871 28.5664 29.3771 28.5664Z" fill="#00A3E0"/>
</svg>
