<svg width="100%" height="100%" viewBox="0 0 37 28" fill="none" xmlns="http://www.w3.org/2000/svg">
<path fill-rule="evenodd" clip-rule="evenodd" d="M16.0039 15.248C15.8161 15.2465 15.6313 15.1975 15.4672 15.1061L0.503199 6.1931C0.017034 5.90404 -0.139798 5.28289 0.152219 4.80389C0.444237 4.32321 1.07801 4.16645 1.56713 4.45383C1.5702 4.45562 1.5734 4.45741 1.57647 4.45908L16.0245 13.0477L29.7605 4.93575C29.8834 4.87016 29.9525 4.73753 29.936 4.6011V2.87725C29.936 2.42104 29.4096 2.0357 28.7904 2.0357H3.21726C2.72495 1.9957 2.26589 2.28128 2.09245 2.73537C1.95828 3.29538 1.38755 3.64263 0.817851 3.51101C0.248269 3.37938 -0.105766 2.81882 0.0284076 2.2588C0.424782 0.907378 1.69311 -0.0150757 3.12452 0.00771809H28.6976C30.4035 -0.105916 31.8803 1.16071 31.9959 2.83695C31.9979 2.86052 31.9989 2.88408 32 2.90777V4.6011C32.0009 5.43676 31.549 6.20952 30.8132 6.62908L16.5199 15.1061C16.3619 15.1943 16.1855 15.2431 16.0039 15.248Z" fill="#005587"/>
<path fill-rule="evenodd" clip-rule="evenodd" d="M30.9681 4.94727C30.3984 4.94727 29.936 4.49329 29.936 3.93328V3.30457C29.936 2.74455 30.3984 2.29044 30.9681 2.29044C31.5377 2.29044 32.0001 2.74455 32.0001 3.30457V3.93328C32.0001 4.49329 31.5377 4.94727 30.9681 4.94727Z" fill="#005587"/>
<path fill-rule="evenodd" clip-rule="evenodd" d="M28.9969 21.334H3.01095C1.35455 21.3283 0.0129336 20.0106 0.0078125 18.3832V5.33319C0.0078125 4.77318 0.470192 4.3192 1.03977 4.3192C1.60947 4.3192 2.07184 4.77318 2.07184 5.33319V18.3832C2.07184 18.8929 2.49178 19.3059 3.01095 19.3059H28.9969C29.5159 19.3059 29.9359 18.8929 29.9359 18.3832V8.76054C29.9359 8.20042 30.3982 7.74645 30.9679 7.74645C31.5376 7.74645 32 8.20042 32 8.76054V18.3832C31.9949 20.0106 30.6533 21.3283 28.9969 21.334Z" fill="#005587"/>
<path fill-rule="evenodd" clip-rule="evenodd" d="M29.0232 28C24.6059 28.0139 21.0139 24.4408 21 20.0232C20.9885 15.6058 24.5593 12.014 28.9765 12C33.3941 11.9885 36.9859 15.5592 37 19.9766C37 19.9837 37 19.993 37 19.9999C36.9882 24.4035 33.4268 27.9742 29.0232 28Z" fill="#005587"/>
<path fill-rule="evenodd" clip-rule="evenodd" d="M29.0174 26C25.7044 26.0105 23.0104 23.3306 23 20.0174C22.9913 16.7044 25.6694 14.0105 28.9824 14C32.2956 13.9913 34.9894 16.6694 35 19.9824C35 19.9878 35 19.9948 35 19.9999C34.9911 23.3026 32.3201 25.9807 29.0174 26Z" fill="white" stroke="white"/>
<circle cx="29" cy="20" r="6" fill="white"/>
<path d="M24.9931 24.0084L24.9931 24.0084C25.148 24.1626 25.3577 24.249 25.5754 24.25M24.9931 24.0084L33.0057 15.9944C33.3315 16.3202 33.3314 16.8486 33.0056 17.1744L33.0056 17.1745L26.1668 24.008L26.1668 24.008L26.1659 24.0089C26.0093 24.1638 25.7974 24.2515 25.5754 24.25M24.9931 24.0084L24.9922 24.0075M24.9931 24.0084L24.9922 24.0075M25.5754 24.25C25.5753 24.25 25.5751 24.25 25.575 24.25L25.5769 24L25.5759 24.25C25.5757 24.25 25.5756 24.25 25.5754 24.25ZM24.9922 24.0075C24.6693 23.683 24.6693 23.1587 24.9922 22.8341L24.9922 22.8341M24.9922 24.0075L24.9922 22.8341M24.9922 22.8341L24.9925 22.8337M24.9922 22.8341L24.9925 22.8337M24.9925 22.8337L31.8256 15.9944L31.8256 15.9944M24.9925 22.8337L31.8256 15.9944M31.8256 15.9944C32.1514 15.6686 32.6799 15.6685 33.0056 15.9943L31.8256 15.9944Z" fill="#005587" stroke="#005587" stroke-width="0.5"/>
<path d="M33.0084 24.0069L33.0084 24.0069C33.1626 23.852 33.249 23.6423 33.25 23.4246M33.0084 24.0069L24.9944 15.9943C25.3202 15.6685 25.8486 15.6686 26.1744 15.9944L26.1745 15.9944L33.008 22.8332L33.008 22.8332L33.0089 22.8341C33.1638 22.9907 33.2515 23.2026 33.25 23.4246M33.0084 24.0069L33.0075 24.0078M33.0084 24.0069L33.0075 24.0078M33.25 23.4246C33.25 23.4247 33.25 23.4249 33.25 23.425L33 23.4231L33.25 23.4241C33.25 23.4243 33.25 23.4244 33.25 23.4246ZM33.0075 24.0078C32.683 24.3307 32.1587 24.3307 31.8341 24.0078L31.8341 24.0078M33.0075 24.0078L31.8341 24.0078M31.8341 24.0078L31.8337 24.0075M31.8341 24.0078L31.8337 24.0075M31.8337 24.0075L24.9944 17.1744L24.9944 17.1744M31.8337 24.0075L24.9944 17.1744M24.9944 17.1744C24.6686 16.8486 24.6685 16.3201 24.9943 15.9944L24.9944 17.1744Z" fill="#005587" stroke="#005587" stroke-width="0.5"/>
</svg>
