<svg width="100%" height="100%" viewBox="0 0 50 50" fill="none" xmlns="http://www.w3.org/2000/svg">
<path fill-rule="evenodd" clip-rule="evenodd" d="M24.9999 50C11.1927 50 0 38.8073 0 25C0 11.1927 11.1927 0 24.9999 0C38.8073 0 50 11.1927 50 25C50 38.8073 38.8073 50 24.9999 50ZM24.9999 2.08334C12.3438 2.08334 2.08336 12.3437 2.08336 25C2.08336 37.6562 12.3438 47.9167 24.9999 47.9167C37.6562 47.9167 47.9166 37.6562 47.9166 25C47.9166 12.3437 37.6562 2.08334 24.9999 2.08334Z" fill="#00A3E0"/>
<path d="M29.8071 8.33398L32.7831 8.37176L29.7618 11.9051L33.3329 11.9504" stroke="#00A3E0" stroke-linecap="round"/>
<path d="M39.3008 15.4766L40.2928 15.4892L39.2857 16.6669L40.4761 16.6821" stroke="#00A3E0" stroke-width="0.5" stroke-linecap="round"/>
<path d="M35.7446 11.9043L37.7286 11.9295L35.7144 14.2851L38.0952 14.3153" stroke="#00A3E0" stroke-width="0.75" stroke-linecap="round"/>
<path d="M25.1624 34.416C24.2605 34.416 23.6292 33.6945 23.6292 32.8828C23.6292 31.9809 24.3507 31.3496 25.1624 31.3496C26.0643 31.3496 26.6956 32.0711 26.6956 32.8828C26.6956 33.6945 25.9741 34.416 25.1624 34.416ZM25.9741 29.8164V16.2882C25.9741 15.8373 25.6134 15.4766 25.1624 15.4766C24.7115 15.4766 24.3507 15.8373 24.3507 16.2882V29.8164C22.9979 30.1771 22.0059 31.3496 22.0059 32.8828C22.0059 34.3258 22.9979 35.5884 24.3507 35.9492V38.3842C24.3507 38.8352 24.7115 39.1959 25.1624 39.1959C25.6134 39.1959 25.9741 38.8352 25.9741 38.3842V35.9492C27.3269 35.5884 28.319 34.416 28.319 32.8828C28.319 31.3496 27.3269 30.1771 25.9741 29.8164Z" fill="#00A3E0"/>
<path d="M18.0374 23.4127C17.1355 23.4127 16.5042 22.6912 16.5042 21.8795C16.5042 20.9777 17.2257 20.3464 18.0374 20.3464C18.9393 20.3464 19.5706 21.0679 19.5706 21.8795C19.6608 22.6912 18.9393 23.4127 18.0374 23.4127ZM18.8491 18.8132V16.3781C18.8491 15.9272 18.4884 15.5664 18.0374 15.5664C17.5865 15.5664 17.2257 15.9272 17.2257 16.3781V18.8132C15.8729 19.1739 14.8809 20.3464 14.8809 21.8795C14.8809 23.3225 15.8729 24.5852 17.2257 24.9459V38.4741C17.2257 38.925 17.5865 39.2858 18.0374 39.2858C18.4884 39.2858 18.8491 38.925 18.8491 38.4741V24.9459C20.2019 24.5852 21.194 23.4127 21.194 21.8795C21.194 20.3464 20.2019 19.0837 18.8491 18.8132Z" fill="#00A3E0"/>
<path d="M32.1971 27.2911C31.2952 27.2911 30.6639 26.5696 30.6639 25.7579C30.6639 24.9463 31.3854 24.2248 32.1971 24.2248C33.099 24.2248 33.7303 24.9463 33.7303 25.7579C33.7303 26.5696 33.099 27.2911 32.1971 27.2911ZM33.0088 22.6916V16.2882C33.0088 15.8373 32.648 15.4766 32.1971 15.4766C31.7462 15.4766 31.3854 15.8373 31.3854 16.2882V22.6916C30.0326 23.0523 29.0405 24.2248 29.0405 25.7579C29.0405 27.2009 30.0326 28.4636 31.3854 28.8243V38.3842C31.3854 38.8352 31.7462 39.1959 32.1971 39.1959C32.648 39.1959 33.0088 38.8352 33.0088 38.3842V28.8243C34.3616 28.4636 35.3537 27.2911 35.3537 25.7579C35.3537 24.3149 34.3616 23.0523 33.0088 22.6916Z" fill="#00A3E0"/>
</svg>
