<svg width="100%" height="100%" viewBox="0 0 60 60" fill="none" xmlns="http://www.w3.org/2000/svg">
<circle cx="30" cy="30" r="30" fill="#005587"/>
<path fill-rule="evenodd" clip-rule="evenodd" d="M38.0461 36.7354C37.7619 36.7312 37.4918 36.6206 37.2928 36.428C36.8752 36.0287 36.8752 35.3834 37.2928 34.9841L43.4054 29.1569L37.2928 23.3297C36.8709 22.9313 36.8677 22.2831 37.2863 21.8817C37.2885 21.8796 37.2907 21.8776 37.2928 21.8755C37.7125 21.4782 38.3905 21.4782 38.8101 21.8755L45.6868 28.4298C46.1044 28.8292 46.1044 29.4744 45.6868 29.8738L38.8101 36.4178C38.6111 36.6176 38.3356 36.7312 38.0461 36.7354Z" fill="white"/>
<path fill-rule="evenodd" clip-rule="evenodd" d="M44.0733 30H31.5166C30.906 30 30.4104 29.6227 30.4104 29.158C30.4104 28.6931 30.906 28.3158 31.5166 28.3158H44.0733C44.684 28.3158 45.1796 28.6931 45.1796 29.158C45.1796 29.6227 44.684 30 44.0733 30Z" fill="white"/>
<path fill-rule="evenodd" clip-rule="evenodd" d="M31.8463 40.9463H26.7182C26.1519 40.9463 25.6925 40.4706 25.6925 39.8845C25.6925 39.2985 26.1519 38.8228 26.7182 38.8228H30.8207V18.6489H17.4873C16.9211 18.6489 16.4617 18.1732 16.4617 17.587C16.4617 17.001 16.9211 16.5253 17.4873 16.5253H31.8463C32.4124 16.5253 32.8719 17.001 32.8719 17.587V39.8845C32.8719 40.4706 32.4124 40.9463 31.8463 40.9463Z" fill="white"/>
<path fill-rule="evenodd" clip-rule="evenodd" d="M26.8911 45.999C26.7205 46.0011 26.5508 45.9615 26.399 45.8816L17.0586 40.9862C16.6985 40.7953 16.4691 40.4189 16.4619 40.0051V17.6081C16.4545 17.2242 16.6503 16.8658 16.9749 16.6696C17.2985 16.4787 17.6985 16.4787 18.022 16.6696L27.3624 21.5543C27.7153 21.7569 27.9382 22.1334 27.9488 22.5461V44.9431C27.9529 45.3238 27.7571 45.6768 27.4357 45.8709C27.2692 45.9627 27.0807 46.0074 26.8911 45.999ZM18.5142 39.3758L25.844 43.2047V23.186L18.5142 19.3572V39.3758Z" fill="white"/>
<path fill-rule="evenodd" clip-rule="evenodd" d="M26.8865 46C26.7171 46.0012 26.5501 45.9558 26.3999 45.8684L14.639 39.0301C14.1028 38.7682 13.8553 38.0653 14.0868 37.4591C14.3186 36.8531 14.9405 36.5733 15.4767 36.835C15.5232 36.8578 15.5687 36.884 15.6119 36.914L27.3729 43.7403C27.8933 44.0417 28.0984 44.7613 27.8319 45.3496C27.65 45.7501 27.2852 46.0023 26.8865 46Z" fill="white"/>
<path fill-rule="evenodd" clip-rule="evenodd" d="M17.2821 42.6318C16.8292 42.6318 16.4617 42.1687 16.4617 41.5982V15.0339C16.4617 14.4633 16.8292 14.0003 17.2821 14.0003C17.7351 14.0003 18.1027 14.4633 18.1027 15.0339V41.5982C18.1027 42.1687 17.7351 42.6318 17.2821 42.6318Z" fill="white"/>
<path fill-rule="evenodd" clip-rule="evenodd" d="M26.9476 23.2627C26.7092 23.2627 26.478 23.1701 26.2967 23.0017L15.3931 16.912C14.8935 16.6543 14.6802 16.0062 14.9175 15.4635C15.1548 14.9209 15.7516 14.6893 16.2513 14.947C16.2693 14.9567 16.2871 14.9665 16.3042 14.9763L27.3781 21.164C27.7195 21.3672 27.9368 21.7522 27.9487 22.1753C27.9487 22.7755 27.5002 23.2627 26.9476 23.2627Z" fill="white"/>
</svg>
