<svg width="100%" height="100%" viewBox="0 0 20 20" fill="none" xmlns="http://www.w3.org/2000/svg">
<path d="M10.6363 15.9091C9.87868 15.9091 9.34838 15.303 9.34838 14.6212C9.34838 13.8636 9.95444 13.3333 10.6363 13.3333C11.3938 13.3333 11.9241 13.9394 11.9241 14.6212C11.9241 15.303 11.3181 15.9091 10.6363 15.9091ZM11.3181 12.0455V0.681814C11.3181 0.303026 11.015 0 10.6363 0C10.2575 0 9.95444 0.303026 9.95444 0.681814V12.0455C8.81807 12.3485 7.98474 13.3333 7.98474 14.6212C7.98474 15.8333 8.81807 16.8939 9.95444 17.197V19.2424C9.95444 19.6212 10.2575 19.9242 10.6363 19.9242C11.015 19.9242 11.3181 19.6212 11.3181 19.2424V17.197C12.4544 16.8939 13.2878 15.9091 13.2878 14.6212C13.2878 13.3333 12.4544 12.3485 11.3181 12.0455Z" />
<path d="M4.65152 6.66636C3.89394 6.66636 3.36364 6.06029 3.36364 5.37847C3.36364 4.62089 3.9697 4.09059 4.65152 4.09059C5.40909 4.09059 5.9394 4.69665 5.9394 5.37847C6.01515 6.06029 5.40909 6.66636 4.65152 6.66636ZM5.33334 2.80272V0.757265C5.33334 0.378477 5.0303 0.0754395 4.65152 0.0754395C4.27273 0.0754395 3.9697 0.378477 3.9697 0.757265V2.80272C2.83333 3.10575 2 4.09059 2 5.37847C2 6.59059 2.83333 7.65121 3.9697 7.95424V19.3179C3.9697 19.6967 4.27273 19.9997 4.65152 19.9997C5.0303 19.9997 5.33334 19.6967 5.33334 19.3179V7.95424C6.4697 7.65121 7.30303 6.66635 7.30303 5.37847C7.30303 4.09059 6.4697 3.02999 5.33334 2.80272Z" />
<path d="M16.5456 9.92424C15.788 9.92424 15.2577 9.31818 15.2577 8.63636C15.2577 7.95454 15.8637 7.34848 16.5456 7.34848C17.3031 7.34848 17.8334 7.95454 17.8334 8.63636C17.8334 9.31818 17.3031 9.92424 16.5456 9.92424ZM17.2274 6.06061V0.681814C17.2274 0.303026 16.9243 0 16.5456 0C16.1668 0 15.8637 0.303026 15.8637 0.681814V6.06061C14.7274 6.36364 13.894 7.34848 13.894 8.63636C13.894 9.84848 14.7274 10.9091 15.8637 11.2121V19.2424C15.8637 19.6212 16.1668 19.9242 16.5456 19.9242C16.9243 19.9242 17.2274 19.6212 17.2274 19.2424V11.2121C18.3637 10.9091 19.1971 9.92424 19.1971 8.63636C19.1971 7.42424 18.3637 6.36364 17.2274 6.06061Z"/>
</svg>
