<svg width="100%" height="100%" viewBox="0 0 60 60" fill="none" xmlns="http://www.w3.org/2000/svg">
<circle cx="30" cy="30" r="30" fill="#005587"/>
<path fill-rule="evenodd" clip-rule="evenodd" d="M40.6869 38.375H21.3645C20.7274 38.375 20.2103 37.8633 20.2103 37.2326L19.9102 20.7135L14.8314 19.2399C14.2196 19.0628 13.8677 18.4288 14.0466 17.8233C14.2255 17.2178 14.8661 16.8694 15.4778 17.0464L21.3761 18.76C21.8609 18.8994 22.1967 19.3347 22.2071 19.834L22.4957 36.0788H39.8097L43.2724 24.6548H26.3278C25.6907 24.6548 25.1738 24.143 25.1738 23.5125C25.1738 22.8819 25.6907 22.37 26.3278 22.37H44.8538C45.4908 22.3746 46.0046 22.8898 46 23.5204C45.9987 23.6301 45.9825 23.7386 45.9503 23.8437L41.7949 37.5525C41.6518 38.0403 41.1994 38.375 40.6869 38.375Z" fill="white"/>
<path fill-rule="evenodd" clip-rule="evenodd" d="M22.6806 43.8809C20.4943 43.8809 18.7214 42.1261 18.7214 39.9623C18.7214 37.7986 20.4943 36.0439 22.6806 36.0439C24.8668 36.0439 26.6397 37.7986 26.6397 39.9623C26.6397 42.1261 24.8668 43.8809 22.6806 43.8809ZM22.6806 38.3401C21.7687 38.3401 21.03 39.0712 21.03 39.9737C21.03 40.8763 21.7687 41.6074 22.6806 41.6074C23.5924 41.6074 24.3312 40.8763 24.3312 39.9737C24.3312 39.9704 24.3312 39.9658 24.3312 39.9623C24.3253 39.0644 23.5877 38.3401 22.6806 38.3401Z" fill="white"/>
<path fill-rule="evenodd" clip-rule="evenodd" d="M39.3708 43.8808C37.1847 43.8877 35.407 42.1375 35.4002 39.9737C35.3944 37.81 37.1616 36.0507 39.3477 36.0439C41.5339 36.0382 43.3115 37.7872 43.3185 39.9509C43.3185 39.9544 43.3185 39.9589 43.3185 39.9623C43.3126 42.1192 41.5501 43.8682 39.3708 43.8808ZM39.3708 38.3401C38.459 38.3333 37.7156 39.0598 37.7087 39.9623C37.7028 40.8649 38.4358 41.6005 39.3477 41.6074C40.2596 41.6132 41.0029 40.8877 41.0099 39.9852C41.0099 39.9772 41.0099 39.9704 41.0099 39.9623C41.0042 39.0689 40.2735 38.3458 39.3708 38.3401Z" fill="white"/>
</svg>
