<svg width="60" height="60" viewBox="0 0 60 60" fill="none" xmlns="http://www.w3.org/2000/svg">
<circle cx="30" cy="30" r="30" fill="#005587"/>
<path fill-rule="evenodd" clip-rule="evenodd" d="M33.9496 44.9922C33.0939 45.0352 32.2394 44.8995 31.4387 44.5939C30.6327 44.127 30.1511 43.2531 30.1887 42.3233C30.2038 42.1877 30.2038 42.05 30.1887 41.9144C29.6725 41.8616 29.1531 41.8616 28.6371 41.9144C28.6371 41.9144 28.6371 41.9789 28.6371 42.0113C28.8836 42.6892 28.804 43.4435 28.4215 44.056C27.43 45.2719 23.1628 44.9384 22.4408 44.6155C21.3535 44.3056 20.723 43.1746 21.0323 42.0887C21.0474 42.037 21.0647 41.9865 21.0831 41.9359C21.249 41.5549 21.249 41.1223 21.0831 40.7414C20.1961 39.8213 19.2415 38.969 18.2275 38.191C17.7845 38.1532 17.3384 38.1779 16.9019 38.2663C15.8244 38.4062 14.402 38.5784 13.6045 37.513C12.8071 36.4475 12.9041 31.691 13.292 30.6902C13.68 29.6893 14.0787 28.6563 15.3826 28.893C15.8223 28.9548 16.2694 28.8797 16.6649 28.6778C17.6046 27.9341 18.3999 27.0262 19.014 25.9982C19.0992 25.267 18.9957 24.5258 18.7123 23.8459C18.3891 22.7698 18.0334 21.5215 18.8632 20.6175C19.6929 19.7136 21.2447 20.0041 22.6349 20.37C23.6617 20.6603 24.5733 21.2619 25.2425 22.0919C25.5443 22.4557 25.9097 22.762 26.3202 22.9958C27.5508 23.3185 28.8342 23.3846 30.0917 23.1896C30.6952 23.1896 31.2664 23.1141 31.7513 23.1141C34.4237 23.1141 37.2362 23.2864 39.7038 25.4279C40.2535 25.9285 40.7557 26.4799 41.2018 27.0744L41.3418 27.2572C41.3569 25.7716 42.5757 24.5793 44.0627 24.5944C44.1511 24.5953 44.2395 24.6006 44.3267 24.6099C45.2837 24.7467 46.1414 25.2724 46.6975 26.0628C47.3548 26.9955 47.3548 28.2402 46.6975 29.1729C46.4766 29.5173 46.2126 29.8319 45.9107 30.1091C46.0293 30.1196 46.148 30.1196 46.2664 30.1091C46.5251 30.1091 46.6867 30.1092 47.2901 29.7862C47.7998 29.4798 48.4626 29.6442 48.7686 30.1536C49.0758 30.6628 48.9108 31.324 48.4012 31.6304C48.3559 31.6576 48.3085 31.6814 48.26 31.7018C47.6263 32.0829 46.898 32.2764 46.1586 32.2614C45.5014 32.2087 44.8548 32.0599 44.2405 31.8202C43.8407 31.6506 43.4765 31.41 43.163 31.1099C42.4474 31.0371 41.7697 30.7566 41.2126 30.3028C40.5487 29.7614 39.9582 29.1356 39.456 28.4412C39.095 27.9507 38.6877 27.4966 38.2384 27.0852C36.331 25.4279 34.0573 25.2987 31.6973 25.2987C31.2556 25.2987 30.7276 25.2987 30.1779 25.374C28.497 25.4817 26.5787 25.6108 25.2749 24.9436C24.6553 24.5927 24.1013 24.1377 23.6369 23.5985C23.235 23.083 22.6811 22.7066 22.0528 22.5224C21.5464 22.3649 21.0205 22.2745 20.4904 22.2532C20.5593 22.5947 20.6456 22.9324 20.7489 23.2649C21.194 24.3718 21.2921 25.5878 21.0293 26.7515C20.2005 28.3809 18.9506 29.7592 17.4085 30.7441C16.7813 31.007 16.1056 31.1355 15.4257 31.1206C15.361 31.2713 15.3072 31.4327 15.264 31.5188C15.0119 33.0868 15.0119 34.686 15.264 36.2539C15.6962 36.284 16.1314 36.2581 16.5572 36.1785C17.3675 36.0042 18.2091 36.0376 19.0033 36.2754C20.4613 37.2482 21.7749 38.4223 22.9041 39.7621C23.3363 40.6112 23.4246 41.5937 23.152 42.5063V42.6247L23.3137 42.7C24.3869 42.8453 25.4743 42.8453 26.5465 42.7C26.5465 42.6246 26.5465 42.5601 26.5465 42.4955C26.2997 41.8208 26.3794 41.0695 26.7619 40.4616C27.4624 39.5683 30.5443 39.6975 31.0723 39.9881C31.8958 40.4207 32.3946 41.2881 32.3546 42.2156C32.3546 42.6785 32.3546 42.6892 32.5056 42.743C33.7328 42.969 34.9959 42.9173 36.2018 42.5923C36.2018 42.4094 36.1262 42.1081 36.094 41.9144C35.8687 41.2106 35.8914 40.4508 36.1586 39.7621C36.5455 39.1831 37.067 38.7074 37.6779 38.3739C37.9107 38.2232 38.134 38.0574 38.3461 37.8788C39.6986 36.6327 40.5617 34.9464 40.7815 33.1222C40.8527 32.5283 41.3936 32.104 41.9884 32.1752C42.5832 32.2463 43.0077 32.7865 42.9367 33.3807C42.6522 35.7222 41.54 37.8864 39.8008 39.4823C39.5153 39.7212 39.2168 39.944 38.9064 40.1495C38.6285 40.326 38.3624 40.5197 38.1091 40.7306C38.1273 40.9942 38.1629 41.2569 38.2168 41.5162C38.4895 42.3125 38.4033 43.1885 37.9798 43.916C37.3548 44.6692 35.5443 44.9922 33.9496 44.9922ZM44.0034 26.7623C43.7986 26.758 43.6037 26.8497 43.4755 27.0099C43.3537 27.3175 43.3537 27.66 43.4755 27.9676C43.5962 28.2902 43.7556 28.5974 43.9496 28.8822C44.3225 28.6723 44.637 28.3727 44.8655 28.0106C45.0132 27.8047 45.0132 27.528 44.8655 27.3219C44.6641 27.0354 44.3591 26.8384 44.0143 26.7731L44.0034 26.7623Z" fill="white"/>
<path fill-rule="evenodd" clip-rule="evenodd" d="M34.0036 28.9684C33.8591 28.9722 33.7147 28.9428 33.5833 28.8824C32.3213 28.2938 30.8689 28.2663 29.5854 28.8069C29.0315 29.0269 28.4043 28.757 28.1845 28.2043C27.9647 27.6517 28.234 27.0252 28.788 26.8052C30.5994 26.0623 32.6382 26.0973 34.4238 26.9021C34.9712 27.135 35.2255 27.7672 34.9927 28.314C34.8236 28.7101 34.4346 28.9675 34.0036 28.9684Z" fill="white"/>
<path fill-rule="evenodd" clip-rule="evenodd" d="M31.8912 21.877H31.6003C30.6875 21.7951 29.8437 21.3584 29.2511 20.661C28.0281 19.2059 28.2112 17.0377 29.6606 15.8075C31.1186 14.584 33.2942 14.7726 34.5194 16.2288C35.7436 17.6849 35.5549 19.8573 34.097 21.0806C33.4785 21.5993 32.6983 21.8848 31.8912 21.8877V21.877ZM31.8912 17.1311C31.582 17.1298 31.2834 17.2406 31.0507 17.4432C30.7898 17.6622 30.6272 17.9758 30.5981 18.3149C30.5647 18.6585 30.6735 19.0009 30.8999 19.2619C31.3708 19.8063 32.1939 19.8669 32.7392 19.3969C32.9914 19.1791 33.1509 18.8728 33.1843 18.5409C33.2404 17.8288 32.7112 17.2046 31.999 17.1419L31.8912 17.1311Z" fill="white"/>
</svg>
