<svg width="100%" height="100%" viewBox="0 0 60 60" fill="none" xmlns="http://www.w3.org/2000/svg">
<circle cx="30" cy="30" r="30" fill="#005587"/>
<path fill-rule="evenodd" clip-rule="evenodd" d="M28.0039 34.2471C27.8161 34.2455 27.6313 34.1966 27.4672 34.1052L12.5032 25.1921C12.017 24.9031 11.8602 24.2819 12.1522 23.8029C12.4442 23.3222 13.078 23.1655 13.5671 23.4529C13.5702 23.4546 13.5734 23.4564 13.5765 23.4581L28.0245 32.0467L41.7605 23.9348C41.8834 23.8692 41.9525 23.7366 41.936 23.6001V21.8763C41.936 21.4201 41.4096 21.0347 40.7904 21.0347H15.2173C14.725 20.9947 14.2659 21.2803 14.0925 21.7344C13.9583 22.2944 13.3875 22.6417 12.8179 22.51C12.2483 22.3784 11.8942 21.8178 12.0284 21.2578C12.4248 19.9064 13.6931 18.9839 15.1245 19.0067H40.6976C42.4035 18.8931 43.8803 20.1597 43.9959 21.836C43.9979 21.8595 43.9989 21.8831 44 21.9068V23.6001C44.0009 24.4358 43.549 25.2085 42.8132 25.6281L28.5199 34.1052C28.3619 34.1933 28.1855 34.2422 28.0039 34.2471Z" fill="white"/>
<path fill-rule="evenodd" clip-rule="evenodd" d="M42.9681 23.9473C42.3984 23.9473 41.936 23.4933 41.936 22.9333V22.3046C41.936 21.7446 42.3984 21.2904 42.9681 21.2904C43.5377 21.2904 44.0001 21.7446 44.0001 22.3046V22.9333C44.0001 23.4933 43.5377 23.9473 42.9681 23.9473Z" fill="white"/>
<path fill-rule="evenodd" clip-rule="evenodd" d="M40.9969 40.335H15.011C13.3546 40.3293 12.0129 39.0116 12.0078 37.3842V24.3342C12.0078 23.7742 12.4702 23.3202 13.0398 23.3202C13.6095 23.3202 14.0718 23.7742 14.0718 24.3342V37.3842C14.0718 37.8939 14.4918 38.3069 15.011 38.3069H40.9969C41.5159 38.3069 41.9359 37.8939 41.9359 37.3842V27.7615C41.9359 27.2014 42.3982 26.7474 42.9679 26.7474C43.5376 26.7474 44 27.2014 44 27.7615V37.3842C43.9949 39.0116 42.6533 40.3293 40.9969 40.335Z" fill="white"/>
<path fill-rule="evenodd" clip-rule="evenodd" d="M41.0232 47C36.6059 47.0139 33.0139 43.4408 33 39.0232C32.9885 34.6058 36.5593 31.014 40.9765 31C45.3941 30.9885 48.9859 34.5592 49 38.9766C49 38.9837 49 38.993 49 38.9999C48.9882 43.4035 45.4268 46.9742 41.0232 47Z" fill="white"/>
<path fill-rule="evenodd" clip-rule="evenodd" d="M41.0174 45C37.7044 45.0105 35.0104 42.3306 35 39.0174C34.9913 35.7044 37.6694 33.0105 40.9824 33C44.2956 32.9913 46.9894 35.6694 47 38.9824C47 38.9878 47 38.9948 47 38.9999C46.9911 42.3026 44.3201 44.9807 41.0174 45Z" fill="inherit"/>
<circle cx="41" cy="39" r="6" fill="#005587"/>
<path fill-rule="evenodd" clip-rule="evenodd" d="M37.5769 43C37.4243 42.9994 37.2776 42.9388 37.1694 42.8312C36.9435 42.6042 36.9435 42.2375 37.1694 42.0104L44.0024 35.1711C44.2305 34.943 44.6007 34.943 44.8289 35.1711C45.057 35.3993 45.057 35.7695 44.8289 35.9976L37.9901 42.8312C37.8801 42.94 37.7317 43.0011 37.5769 43Z" fill="white" stroke="white" stroke-width="0.5"/>
<path fill-rule="evenodd" clip-rule="evenodd" d="M45 42.4231C44.9994 42.5757 44.9388 42.7224 44.8312 42.8306C44.6042 43.0565 44.2375 43.0565 44.0104 42.8306L37.1711 35.9976C36.943 35.7695 36.943 35.3993 37.1711 35.1711C37.3993 34.943 37.7695 34.943 37.9976 35.1711L44.8312 42.0099C44.94 42.1199 45.0011 42.2683 45 42.4231Z" fill="white" stroke="white" stroke-width="0.5"/>
</svg>
