<svg width="100%" height="100%" viewBox="0 0 32 32" fill="none" xmlns="http://www.w3.org/2000/svg">
<circle cx="16" cy="16" r="15.75" stroke="#1E1E1E" stroke-width="0.5"/>
<path d="M16.0001 21.2284C15.3702 21.2284 14.9293 20.7245 14.9293 20.1575C14.9293 19.5276 15.4332 19.0867 16.0001 19.0867C16.6301 19.0867 17.071 19.5906 17.071 20.1575C17.071 20.7245 16.5671 21.2284 16.0001 21.2284ZM16.5671 18.0158V8.56693C16.5671 8.25197 16.3151 8 16.0001 8C15.6852 8 15.4332 8.25197 15.4332 8.56693V18.0158C14.4883 18.2678 13.7954 19.0867 13.7954 20.1575C13.7954 21.1654 14.4883 22.0473 15.4332 22.2993V24.0001C15.4332 24.315 15.6852 24.567 16.0001 24.567C16.3151 24.567 16.5671 24.315 16.5671 24.0001V22.2993C17.512 22.0473 18.2049 21.2284 18.2049 20.1575C18.2049 19.0867 17.512 18.2678 16.5671 18.0158Z" fill="#1E1E1E"/>
<path d="M10.2047 13.5429C9.57481 13.5429 9.13386 13.0389 9.13386 12.472C9.13386 11.842 9.6378 11.4011 10.2047 11.4011C10.8347 11.4011 11.2756 11.905 11.2756 12.472C11.3386 13.0389 10.8347 13.5429 10.2047 13.5429ZM10.7717 10.3302V8.62944C10.7717 8.31448 10.5197 8.0625 10.2047 8.0625C9.88977 8.0625 9.6378 8.31448 9.6378 8.62944V10.3302C8.69292 10.5822 8 11.4011 8 12.472C8 13.4799 8.69292 14.3618 9.6378 14.6137V24.0626C9.6378 24.3776 9.88977 24.6295 10.2047 24.6295C10.5197 24.6295 10.7717 24.3776 10.7717 24.0626V14.6137C11.7166 14.3618 12.4095 13.5428 12.4095 12.472C12.4095 11.4011 11.7166 10.5192 10.7717 10.3302Z" fill="#1E1E1E"/>
<path d="M21.7951 16.252C21.1651 16.252 20.7242 15.7481 20.7242 15.1811C20.7242 14.6142 21.2281 14.1103 21.7951 14.1103C22.425 14.1103 22.8659 14.6142 22.8659 15.1811C22.8659 15.7481 22.425 16.252 21.7951 16.252ZM22.362 13.0394V8.56693C22.362 8.25197 22.11 8 21.7951 8C21.4801 8 21.2281 8.25197 21.2281 8.56693V13.0394C20.2833 13.2914 19.5903 14.1103 19.5903 15.1811C19.5903 16.189 20.2833 17.0709 21.2281 17.3229V24.0001C21.2281 24.315 21.4801 24.567 21.7951 24.567C22.11 24.567 22.362 24.315 22.362 24.0001V17.3229C23.3069 17.0709 23.9998 16.252 23.9998 15.1811C23.9998 14.1733 23.3069 13.2914 22.362 13.0394Z" fill="#1E1E1E"/>
</svg>
