<svg width="100%" height="100%" viewBox="0 0 36 30" fill="none" xmlns="http://www.w3.org/2000/svg">
<path fill-rule="evenodd" clip-rule="evenodd" d="M20.9496 29.9922C20.0939 30.0352 19.2394 29.8995 18.4387 29.5939C17.6327 29.127 17.1511 28.2531 17.1887 27.3233C17.2038 27.1877 17.2038 27.05 17.1887 26.9144C16.6725 26.8616 16.1531 26.8616 15.6371 26.9144C15.6371 26.9144 15.6371 26.9789 15.6371 27.0113C15.8836 27.6892 15.804 28.4435 15.4215 29.056C14.43 30.2719 10.1628 29.9384 9.4408 29.6155C8.35351 29.3056 7.72299 28.1746 8.03231 27.0887C8.0474 27.037 8.06466 26.9865 8.08308 26.9359C8.24896 26.5549 8.24896 26.1223 8.08308 25.7414C7.19613 24.8213 6.24148 23.969 5.22751 23.191C4.78451 23.1532 4.33838 23.1779 3.90192 23.2663C2.82437 23.4062 1.40198 23.5784 0.604515 22.513C-0.19295 21.4475 -0.0959493 16.691 0.292029 15.6902C0.680008 14.6893 1.07869 13.6563 2.38261 13.893C2.82228 13.9548 3.26943 13.8797 3.6649 13.6778C4.6046 12.9341 5.39989 12.0262 6.014 10.9982C6.0992 10.267 5.9957 9.52584 5.71229 8.8459C5.38907 7.76978 5.03343 6.52148 5.86322 5.61754C6.69289 4.71361 8.2447 5.00413 9.63488 5.37C10.6617 5.66031 11.5733 6.26195 12.2425 7.09185C12.5443 7.45571 12.9097 7.76203 13.3202 7.99577C14.5508 8.31851 15.8342 8.3846 17.0917 8.1896C17.6952 8.1896 18.2664 8.11413 18.7513 8.11413C21.4237 8.11413 24.2362 8.28645 26.7038 10.4279C27.2535 10.9285 27.7557 11.4799 28.2018 12.0744L28.3418 12.2572C28.3569 10.7716 29.5757 9.5793 31.0627 9.59439C31.1511 9.59534 31.2395 9.60056 31.3267 9.60995C32.2837 9.74672 33.1414 10.2724 33.6975 11.0628C34.3548 11.9955 34.3548 13.2402 33.6975 14.1729C33.4766 14.5173 33.2126 14.8319 32.9107 15.1091C33.0293 15.1196 33.148 15.1196 33.2664 15.1091C33.5251 15.1091 33.6867 15.1092 34.2901 14.7862C34.7998 14.4798 35.4626 14.6442 35.7686 15.1536C36.0758 15.6628 35.9108 16.324 35.4012 16.6304C35.3559 16.6576 35.3085 16.6814 35.26 16.7018C34.6263 17.0829 33.898 17.2764 33.1586 17.2614C32.5014 17.2087 31.8548 17.0599 31.2405 16.8202C30.8407 16.6506 30.4765 16.41 30.163 16.1099C29.4474 16.0371 28.7697 15.7566 28.2126 15.3028C27.5487 14.7614 26.9582 14.1356 26.456 13.4412C26.095 12.9507 25.6877 12.4966 25.2384 12.0852C23.331 10.4279 21.0573 10.2987 18.6973 10.2987C18.2556 10.2987 17.7276 10.2987 17.1779 10.374C15.497 10.4817 13.5787 10.6108 12.2749 9.94365C11.6553 9.59274 11.1013 9.13772 10.6369 8.59847C10.235 8.08299 9.6811 7.70656 9.05285 7.52238C8.54639 7.36493 8.02048 7.2745 7.49038 7.25323C7.5593 7.59474 7.64556 7.93243 7.74894 8.26492C8.19396 9.37181 8.29211 10.5878 8.02926 11.7515C7.20054 13.3809 5.95058 14.7592 4.40853 15.7441C3.78134 16.007 3.10563 16.1355 2.42569 16.1206C2.36105 16.2713 2.30716 16.4327 2.26402 16.5188C2.01187 18.0868 2.01187 19.686 2.26402 21.2539C2.69621 21.284 3.13143 21.2581 3.5572 21.1785C4.36749 21.0042 5.20908 21.0376 6.00334 21.2754C7.46126 22.2482 8.77487 23.4223 9.90411 24.7621C10.3363 25.6112 10.4246 26.5937 10.152 27.5063V27.6247L10.3137 27.7C11.3869 27.8453 12.4743 27.8453 13.5465 27.7C13.5465 27.6246 13.5465 27.5601 13.5465 27.4955C13.2997 26.8208 13.3794 26.0695 13.7619 25.4616C14.4624 24.5683 17.5443 24.6975 18.0723 24.9881C18.8958 25.4207 19.3946 26.2881 19.3546 27.2156C19.3546 27.6785 19.3546 27.6892 19.5056 27.743C20.7328 27.969 21.9959 27.9173 23.2018 27.5923C23.2018 27.4094 23.1262 27.1081 23.094 26.9144C22.8687 26.2106 22.8914 25.4508 23.1586 24.7621C23.5455 24.1831 24.067 23.7074 24.6779 23.3739C24.9107 23.2232 25.134 23.0574 25.3461 22.8788C26.6986 21.6327 27.5617 19.9464 27.7815 18.1222C27.8527 17.5283 28.3936 17.104 28.9884 17.1752C29.5832 17.2463 30.0077 17.7865 29.9367 18.3807C29.6522 20.7222 28.54 22.8864 26.8008 24.4823C26.5153 24.7212 26.2168 24.944 25.9064 25.1495C25.6285 25.326 25.3624 25.5197 25.1091 25.7306C25.1273 25.9942 25.1629 26.2569 25.2168 26.5162C25.4895 27.3125 25.4033 28.1885 24.9798 28.916C24.3548 29.6692 22.5443 29.9922 20.9496 29.9922ZM31.0034 11.7623C30.7986 11.758 30.6037 11.8497 30.4755 12.0099C30.3537 12.3175 30.3537 12.66 30.4755 12.9676C30.5962 13.2902 30.7556 13.5974 30.9496 13.8822C31.3225 13.6723 31.637 13.3727 31.8655 13.0106C32.0132 12.8047 32.0132 12.528 31.8655 12.3219C31.6641 12.0354 31.3591 11.8384 31.0143 11.7731L31.0034 11.7623Z" fill="#005587"/>
<path fill-rule="evenodd" clip-rule="evenodd" d="M21.0036 13.9684C20.8591 13.9722 20.7147 13.9428 20.5833 13.8824C19.3213 13.2938 17.8689 13.2663 16.5854 13.8069C16.0315 14.0269 15.4043 13.757 15.1845 13.2043C14.9647 12.6517 15.234 12.0252 15.788 11.8052C17.5994 11.0623 19.6382 11.0973 21.4238 11.9021C21.9712 12.135 22.2255 12.7672 21.9927 13.314C21.8236 13.7101 21.4346 13.9675 21.0036 13.9684Z" fill="#005587"/>
<path fill-rule="evenodd" clip-rule="evenodd" d="M18.8912 6.87602H18.6003C17.6875 6.79415 16.8437 6.35743 16.2511 5.66002C15.0281 4.20495 15.2112 2.03669 16.6606 0.806567C18.1186 -0.417021 20.2942 -0.228329 21.5194 1.22781C22.7436 2.68395 22.5549 4.85628 21.097 6.07963C20.4785 6.59832 19.6983 6.88387 18.8912 6.88672V6.87602ZM18.8912 2.13009C18.582 2.12878 18.2834 2.23965 18.0507 2.44225C17.7898 2.66125 17.6272 2.97482 17.5981 3.31396C17.5647 3.6575 17.6735 3.99997 17.8999 4.26092C18.3708 4.80528 19.1939 4.8659 19.7392 4.39593C19.9914 4.17812 20.1509 3.87178 20.1843 3.53989C20.2404 2.82786 19.7112 2.20364 18.999 2.1409L18.8912 2.13009Z" fill="#005587"/>
</svg>
