<svg width="100%" height="100%" viewBox="0 0 32 33" fill="none" xmlns="http://www.w3.org/2000/svg">
<path d="M12.8281 21.212C11.818 21.212 11.1109 20.4039 11.1109 19.4948C11.1109 18.4847 11.919 17.7777 12.8281 17.7777C13.8382 17.7777 14.5452 18.5858 14.5452 19.4948C14.5452 20.4039 13.7371 21.212 12.8281 21.212ZM13.7371 16.0605V0.909079C13.7371 0.404032 13.3331 0 12.8281 0C12.323 0 11.919 0.404032 11.919 0.909079V16.0605C10.4038 16.4645 9.29272 17.7777 9.29272 19.4948C9.29272 21.111 10.4038 22.5251 11.919 22.9292V25.6564C11.919 26.1615 12.323 26.5655 12.8281 26.5655C13.3331 26.5655 13.7371 26.1615 13.7371 25.6564V22.9292C15.2523 22.5251 16.3634 21.212 16.3634 19.4948C16.3634 17.7777 15.2523 16.4645 13.7371 16.0605Z" />
<path d="M3.53533 8.8894C2.52524 8.8894 1.81817 8.08131 1.81817 7.17223C1.81817 6.16213 2.62625 5.45507 3.53533 5.45507C4.54543 5.45507 5.25249 6.26314 5.25249 7.17223C5.3535 8.08131 4.54543 8.8894 3.53533 8.8894ZM4.44442 3.73791V1.01066C4.44442 0.50561 4.04038 0.101562 3.53533 0.101562C3.03028 0.101562 2.62625 0.50561 2.62625 1.01066V3.73791C1.1111 4.14195 0 5.45507 0 7.17223C0 8.78838 1.1111 10.2025 2.62625 10.6066V25.758C2.62625 26.263 3.03028 26.6671 3.53533 26.6671C4.04038 26.6671 4.44442 26.263 4.44442 25.758V10.6066C5.95956 10.2025 7.07066 8.88939 7.07066 7.17223C7.07066 5.45507 5.95956 4.04094 4.44442 3.73791Z" />
<path d="M22.121 13.2322C21.1109 13.2322 20.4039 12.4242 20.4039 11.5151C20.4039 10.606 21.2119 9.79792 22.121 9.79792C23.1311 9.79792 23.8382 10.606 23.8382 11.5151C23.8382 12.4242 23.1311 13.2322 22.121 13.2322ZM23.0301 8.08076V0.909079C23.0301 0.404032 22.6261 0 22.121 0C21.616 0 21.2119 0.404032 21.2119 0.909079V8.08076C19.6968 8.4848 18.5857 9.79792 18.5857 11.5151C18.5857 13.1312 19.6968 14.5454 21.2119 14.9494V25.6564C21.2119 26.1615 21.616 26.5655 22.121 26.5655C22.6261 26.5655 23.0301 26.1615 23.0301 25.6564V14.9494C24.5453 14.5454 25.6564 13.2322 25.6564 11.5151C25.6564 9.89892 24.5453 8.4848 23.0301 8.08076Z" />
</svg>
