<svg width="100%" height="100%" viewBox="0 0 24 24" fill="none" xmlns="http://www.w3.org/2000/svg">
<path fill-rule="evenodd" clip-rule="evenodd" d="M16.2749 15.3496H8.54591C8.29104 15.3496 8.08423 15.1449 8.08423 14.8927L7.96417 8.28502L5.93267 7.69557C5.68793 7.62473 5.54717 7.37112 5.61875 7.12892C5.69029 6.88672 5.94653 6.74738 6.19122 6.81818L8.55054 7.50363C8.74447 7.55937 8.87878 7.73347 8.88295 7.9332L8.99838 14.4311H15.924L17.3091 9.86155H10.5312C10.2764 9.86155 10.0696 9.65681 10.0696 9.4046C10.0696 9.15235 10.2764 8.94761 10.5312 8.94761H17.9416C18.1964 8.94944 18.4019 9.15553 18.4001 9.40778C18.3996 9.45164 18.3931 9.49507 18.3802 9.5371L16.7181 15.0206C16.6608 15.2157 16.4798 15.3496 16.2749 15.3496Z" fill="#005587"/>
<path fill-rule="evenodd" clip-rule="evenodd" d="M9.07241 17.5527C8.19793 17.5527 7.48877 16.8508 7.48877 15.9853C7.48877 15.1198 8.19793 14.4179 9.07241 14.4179C9.9469 14.4179 10.6561 15.1198 10.6561 15.9853C10.6561 16.8508 9.9469 17.5527 9.07241 17.5527ZM9.07241 15.3364C8.70767 15.3364 8.41218 15.6289 8.41218 15.9899C8.41218 16.3509 8.70767 16.6434 9.07241 16.6434C9.43716 16.6434 9.73267 16.3509 9.73267 15.9899C9.73267 15.9885 9.73267 15.9867 9.73267 15.9853C9.73032 15.6261 9.43527 15.3364 9.07241 15.3364Z" fill="#005587"/>
<path fill-rule="evenodd" clip-rule="evenodd" d="M15.7484 17.5527C14.874 17.5555 14.1629 16.8554 14.1602 15.9899C14.1579 15.1244 14.8647 14.4207 15.7392 14.4179C16.6137 14.4157 17.3247 15.1153 17.3275 15.9807C17.3275 15.9821 17.3275 15.984 17.3275 15.9853C17.3251 16.8481 16.6201 17.5477 15.7484 17.5527ZM15.7484 15.3364C15.3837 15.3337 15.0863 15.6243 15.0836 15.9853C15.0812 16.3464 15.3744 16.6406 15.7392 16.6433C16.1039 16.6457 16.4013 16.3555 16.4041 15.9944C16.4041 15.9913 16.4041 15.9885 16.4041 15.9853C16.4018 15.628 16.1095 15.3387 15.7484 15.3364Z" fill="#005587"/>
</svg>
