<svg width="100%" height="100%" viewBox="0 0 20 20" fill="none" xmlns="http://www.w3.org/2000/svg">
<path d="M10.6364 15.9091C9.8788 15.9091 9.3485 15.303 9.3485 14.6212C9.3485 13.8636 9.95456 13.3333 10.6364 13.3333C11.394 13.3333 11.9243 13.9394 11.9243 14.6212C11.9243 15.303 11.3182 15.9091 10.6364 15.9091ZM11.3182 12.0455V0.681814C11.3182 0.303026 11.0152 0 10.6364 0C10.2576 0 9.95456 0.303026 9.95456 0.681814V12.0455C8.8182 12.3485 7.98486 13.3333 7.98486 14.6212C7.98486 15.8333 8.8182 16.8939 9.95456 17.197V19.2424C9.95456 19.6212 10.2576 19.9242 10.6364 19.9242C11.0152 19.9242 11.3182 19.6212 11.3182 19.2424V17.197C12.4546 16.8939 13.2879 15.9091 13.2879 14.6212C13.2879 13.3333 12.4546 12.3485 11.3182 12.0455Z" />
<path d="M4.65152 6.66612C3.89394 6.66612 3.36364 6.06005 3.36364 5.37823C3.36364 4.62065 3.9697 4.09035 4.65152 4.09035C5.40909 4.09035 5.9394 4.69641 5.9394 5.37823C6.01515 6.06005 5.40909 6.66612 4.65152 6.66612ZM5.33334 2.80247V0.757021C5.33334 0.378233 5.0303 0.0751953 4.65152 0.0751953C4.27273 0.0751953 3.9697 0.378233 3.9697 0.757021V2.80247C2.83333 3.1055 2 4.09035 2 5.37823C2 6.59035 2.83333 7.65096 3.9697 7.95399V19.3176C3.9697 19.6964 4.27273 19.9994 4.65152 19.9994C5.0303 19.9994 5.33334 19.6964 5.33334 19.3176V7.95399C6.4697 7.65096 7.30303 6.66611 7.30303 5.37823C7.30303 4.09035 6.4697 3.02975 5.33334 2.80247Z" />
<path d="M16.5456 9.92424C15.788 9.92424 15.2577 9.31818 15.2577 8.63636C15.2577 7.95454 15.8637 7.34848 16.5456 7.34848C17.3031 7.34848 17.8334 7.95454 17.8334 8.63636C17.8334 9.31818 17.3031 9.92424 16.5456 9.92424ZM17.2274 6.06061V0.681814C17.2274 0.303026 16.9243 0 16.5456 0C16.1668 0 15.8637 0.303026 15.8637 0.681814V6.06061C14.7274 6.36364 13.894 7.34848 13.894 8.63636C13.894 9.84848 14.7274 10.9091 15.8637 11.2121V19.2424C15.8637 19.6212 16.1668 19.9242 16.5456 19.9242C16.9243 19.9242 17.2274 19.6212 17.2274 19.2424V11.2121C18.3637 10.9091 19.1971 9.92424 19.1971 8.63636C19.1971 7.42424 18.3637 6.36364 17.2274 6.06061Z" />
</svg>
