<svg width="100%" height="100%" viewBox="0 0 32 27" fill="none" xmlns="http://www.w3.org/2000/svg">
<path fill-rule="evenodd" clip-rule="evenodd" d="M26.6869 21.375H7.36453C6.72735 21.375 6.21033 20.8633 6.21033 20.2326L5.91018 3.71353L0.831436 2.2399C0.219585 2.0628 -0.132325 1.42879 0.0466358 0.823284C0.225469 0.217783 0.866073 -0.130558 1.4778 0.0464382L7.37611 1.76005C7.86093 1.8994 8.1967 2.33466 8.20713 2.83398L8.4957 19.0788H25.8097L29.2724 7.65485H12.3278C11.6907 7.65485 11.1738 7.14301 11.1738 6.51249C11.1738 5.88186 11.6907 5.37002 12.3278 5.37002H30.8538C31.4908 5.37458 32.0046 5.8898 32 6.52043C31.9987 6.63009 31.9825 6.73865 31.9503 6.84374L27.7949 20.5525C27.6518 21.0403 27.1994 21.375 26.6869 21.375Z" fill="#005587"/>
<path fill-rule="evenodd" clip-rule="evenodd" d="M8.68055 26.8809C6.49433 26.8809 4.72144 25.1261 4.72144 22.9623C4.72144 20.7986 6.49433 19.0439 8.68055 19.0439C10.8668 19.0439 12.6397 20.7986 12.6397 22.9623C12.6397 25.1261 10.8668 26.8809 8.68055 26.8809ZM8.68055 21.3401C7.76869 21.3401 7.02996 22.0712 7.02996 22.9737C7.02996 23.8763 7.76869 24.6074 8.68055 24.6074C9.59241 24.6074 10.3312 23.8763 10.3312 22.9737C10.3312 22.9704 10.3312 22.9658 10.3312 22.9623C10.3253 22.0644 9.5877 21.3401 8.68055 21.3401Z" fill="#005587"/>
<path fill-rule="evenodd" clip-rule="evenodd" d="M25.3708 26.8808C23.1847 26.8877 21.407 25.1375 21.4002 22.9737C21.3944 20.81 23.1616 19.0507 25.3477 19.0439C27.5339 19.0382 29.3115 20.7872 29.3185 22.9509C29.3185 22.9544 29.3185 22.9589 29.3185 22.9623C29.3126 25.1192 27.5501 26.8682 25.3708 26.8808ZM25.3708 21.3401C24.459 21.3333 23.7156 22.0598 23.7087 22.9623C23.7028 23.8649 24.4358 24.6005 25.3477 24.6074C26.2596 24.6132 27.0029 23.8877 27.0099 22.9852C27.0099 22.9772 27.0099 22.9704 27.0099 22.9623C27.0042 22.0689 26.2735 21.3458 25.3708 21.3401Z" fill="#005587"/>
</svg>
