<svg width="100%" height="100%" viewBox="0 0 50 50" fill="none" xmlns="http://www.w3.org/2000/svg">
<path fill-rule="evenodd" clip-rule="evenodd" d="M24.9999 50C11.1926 50 0 38.8073 0 25C0 11.1927 11.1926 0 24.9999 0C38.8072 0 50 11.1927 50 25C50 38.8073 38.8072 50 24.9999 50ZM24.9999 2.08334C12.3437 2.08334 2.08335 12.3437 2.08335 25C2.08335 37.6562 12.3437 47.9167 24.9999 47.9167C37.6562 47.9167 47.9167 37.6562 47.9167 25C47.9167 12.3437 37.6562 2.08334 24.9999 2.08334Z" fill="#00A3E0"/>
<path fill-rule="evenodd" clip-rule="evenodd" d="M39.0358 36.7339H10.9706C10.6278 36.7329 10.3104 36.5536 10.1321 36.261C9.95597 35.9567 9.95597 35.5803 10.1321 35.2759L13.5848 28.6064C13.7546 28.2794 14.0934 28.0734 14.4627 28.0744H34.6362V15.7207H15.4098V25.2274H16.7218V23.858C16.7218 23.3142 17.1633 22.8729 17.7082 22.8729H20.5592C21.1041 22.8729 21.5457 23.3142 21.5457 23.858V25.2274H22.532V21.8089C22.532 21.2651 22.9737 20.8238 23.5186 20.8238H26.3793C26.9239 20.8238 27.3659 21.2651 27.3659 21.8089V25.2274H28.451V19.011C28.451 18.4672 28.8928 18.026 29.4374 18.026H32.2884C32.8328 18.026 33.2748 18.4672 33.2748 19.011V26.2125C33.2748 26.7563 32.8328 27.1976 32.2884 27.1976C31.7438 27.1976 31.3018 26.7563 31.3018 26.2125V19.9962H30.4238V26.2125C30.4238 26.7563 29.982 27.1976 29.4374 27.1976H26.3793C25.8344 27.1976 25.3929 26.7563 25.3929 26.2125V22.794H24.505V26.2125C24.505 26.7563 24.0634 27.1976 23.5186 27.1976H20.5592C20.0143 27.1976 19.5727 26.7563 19.5727 26.2125V24.8432H18.6948V26.2125C18.6936 26.4756 18.5871 26.7278 18.3988 26.912C18.2149 27.0942 17.967 27.1966 17.7082 27.1976H14.4331C13.8882 27.1976 13.4467 26.7563 13.4467 26.2125V14.7355C13.4467 14.1918 13.8882 13.7503 14.4331 13.7503H35.593C36.1376 13.7503 36.5795 14.1918 36.5795 14.7355V29.0792C36.5795 29.6231 36.1376 30.0644 35.593 30.0644H15.025L12.5983 34.7636H37.4279L36.175 32.3303C35.89 31.8673 36.035 31.2604 36.4987 30.9747C36.9623 30.6901 37.5699 30.8348 37.856 31.2979C37.8807 31.3382 37.9024 31.3806 37.9211 31.4239C38.9076 33.2465 39.8941 35.3645 39.8941 35.3645C40.1397 35.8501 39.9435 36.4423 39.4571 36.6877C39.3199 36.7565 39.169 36.793 39.0161 36.793L39.0358 36.7339Z" fill="#00A3E0"/>
</svg>
