<svg width="100%" height="100%" viewBox="0 0 32 32" fill="none" xmlns="http://www.w3.org/2000/svg">
<path fill-rule="evenodd" clip-rule="evenodd" d="M24.0461 22.7363C23.7619 22.7322 23.4918 22.6216 23.2928 22.429C22.8752 22.0297 22.8752 21.3844 23.2928 20.9851L29.4054 15.1578L23.2928 9.33072C22.8709 8.93232 22.8677 8.28408 23.2863 7.88263C23.2885 7.8806 23.2907 7.87858 23.2928 7.87644C23.7125 7.47916 24.3905 7.47916 24.8101 7.87644L31.6868 14.4308C32.1044 14.8301 32.1044 15.4753 31.6868 15.8748L24.8101 22.4188C24.6111 22.6185 24.3356 22.7322 24.0461 22.7363Z" fill="#005587"/>
<path fill-rule="evenodd" clip-rule="evenodd" d="M30.0733 16H17.5166C16.906 16 16.4104 15.6227 16.4104 15.158C16.4104 14.6931 16.906 14.3158 17.5166 14.3158H30.0733C30.684 14.3158 31.1796 14.6931 31.1796 15.158C31.1796 15.6227 30.684 16 30.0733 16Z" fill="#005587"/>
<path fill-rule="evenodd" clip-rule="evenodd" d="M17.8463 26.9453H12.7182C12.1519 26.9453 11.6925 26.4696 11.6925 25.8836C11.6925 25.2975 12.1519 24.8218 12.7182 24.8218H16.8207V4.64795H3.48733C2.92111 4.64795 2.46167 4.17223 2.46167 3.58607C2.46167 3.00002 2.92111 2.52433 3.48733 2.52433H17.8463C18.4124 2.52433 18.8719 3.00002 18.8719 3.58607V25.8836C18.8719 26.4696 18.4124 26.9453 17.8463 26.9453Z" fill="#005587"/>
<path fill-rule="evenodd" clip-rule="evenodd" d="M12.8911 31.999C12.7205 32.0011 12.5508 31.9615 12.399 31.8816L3.05865 26.9862C2.69848 26.7953 2.46915 26.4189 2.46187 26.0051V3.60811C2.45448 3.2242 2.65032 2.86576 2.97492 2.66957C3.29848 2.47868 3.69848 2.47868 4.02204 2.66957L13.3624 7.55429C13.7153 7.75692 13.9382 8.13342 13.9488 8.54609V30.9431C13.9529 31.3238 13.7571 31.6768 13.4357 31.8709C13.2692 31.9627 13.0807 32.0074 12.8911 31.999ZM4.51421 25.3758L11.844 29.2047V9.18596L4.51421 5.35719V25.3758Z" fill="#005587"/>
<path fill-rule="evenodd" clip-rule="evenodd" d="M12.8865 32C12.7171 32.0012 12.5501 31.9558 12.3999 31.8684L0.63898 25.0301C0.102808 24.7682 -0.144697 24.0653 0.0868243 23.4591C0.318579 22.8531 0.940483 22.5733 1.47666 22.835C1.52319 22.8578 1.56868 22.884 1.61195 22.914L13.3729 29.7403C13.8933 30.0417 14.0984 30.7613 13.8319 31.3496C13.65 31.7501 13.2852 32.0023 12.8865 32Z" fill="#005587"/>
<path fill-rule="evenodd" clip-rule="evenodd" d="M3.28208 28.6309C2.82921 28.6309 2.46167 28.1678 2.46167 27.5973V1.03295C2.46167 0.462328 2.82921 -0.000638962 3.28208 -0.000638962C3.73514 -0.000638962 4.10269 0.462328 4.10269 1.03295V27.5973C4.10269 28.1678 3.73514 28.6309 3.28208 28.6309Z" fill="#005587"/>
<path fill-rule="evenodd" clip-rule="evenodd" d="M12.9476 9.26367C12.7092 9.26367 12.478 9.17112 12.2967 9.00269L1.39309 2.91296C0.893454 2.65523 0.680244 2.00715 0.91753 1.46452C1.15482 0.921885 1.75162 0.690229 2.25126 0.947959C2.26926 0.957655 2.28713 0.967478 2.30425 0.977294L13.3781 7.16496C13.7195 7.36822 13.9368 7.75319 13.9487 8.17623C13.9487 8.77644 13.5002 9.26367 12.9476 9.26367Z" fill="#005587"/>
</svg>
