<svg width="21" height="21" viewBox="0 0 21 21" fill="none" xmlns="http://www.w3.org/2000/svg">
<circle cx="10.5" cy="10.5" r="10.5" fill="white"/>
<path fill-rule="evenodd" clip-rule="evenodd" d="M9.80156 11.9863C9.73584 11.9858 9.67116 11.9686 9.61372 11.9367L4.37631 8.8171C4.20616 8.71593 4.15127 8.49852 4.25347 8.33087C4.35568 8.16263 4.5775 8.10777 4.74869 8.20835C4.74977 8.20898 4.75089 8.2096 4.75196 8.21019L9.80878 11.2162L14.6164 8.37702C14.6594 8.35407 14.6836 8.30765 14.6778 8.2599V7.65655C14.6778 7.49688 14.4936 7.36201 14.2769 7.36201H5.32624C5.15393 7.34801 4.99326 7.44796 4.93255 7.60689C4.88559 7.80289 4.68584 7.92443 4.48644 7.87836C4.28709 7.8323 4.16318 7.6361 4.21014 7.44009C4.34887 6.96709 4.79278 6.64423 5.29378 6.65221H14.2443C14.8414 6.61244 15.3583 7.05576 15.3988 7.64244C15.3995 7.65069 15.3998 7.65894 15.4002 7.66723V8.2599C15.4005 8.55238 15.2424 8.82284 14.9848 8.96969L9.98215 11.9367C9.92687 11.9675 9.86513 11.9846 9.80156 11.9863Z" fill="#005587"/>
<path fill-rule="evenodd" clip-rule="evenodd" d="M15.039 8.38281C14.8396 8.38281 14.6777 8.22392 14.6777 8.02792V7.80787C14.6777 7.61186 14.8396 7.45292 15.039 7.45292C15.2383 7.45292 15.4001 7.61186 15.4001 7.80787V8.02792C15.4001 8.22392 15.2383 8.38281 15.039 8.38281Z" fill="#005587"/>
<path fill-rule="evenodd" clip-rule="evenodd" d="M14.3493 14.1172H5.25422C4.67448 14.1152 4.20492 13.654 4.20312 13.0844V8.51691C4.20312 8.3209 4.36496 8.16201 4.56431 8.16201C4.76371 8.16201 4.92553 8.3209 4.92553 8.51691V13.0844C4.92553 13.2628 5.07251 13.4074 5.25422 13.4074H14.3493C14.531 13.4074 14.6779 13.2628 14.6779 13.0844V9.71648C14.6779 9.52044 14.8398 9.36155 15.0392 9.36155C15.2386 9.36155 15.4004 9.52044 15.4004 9.71648V13.0844C15.3986 13.654 14.929 14.1152 14.3493 14.1172Z" fill="#005587"/>
<path fill-rule="evenodd" clip-rule="evenodd" d="M14.3579 16.4496C12.8119 16.4545 11.5547 15.2039 11.5498 13.6577C11.5458 12.1117 12.7955 10.8545 14.3416 10.8496C15.8877 10.8456 17.1449 12.0953 17.1498 13.6414C17.1498 13.6439 17.1498 13.6472 17.1498 13.6496C17.1457 15.1908 15.8992 16.4406 14.3579 16.4496Z" fill="#005587"/>
<path fill-rule="evenodd" clip-rule="evenodd" d="M14.3561 15.7508C13.1965 15.7544 12.2537 14.8165 12.25 13.6569C12.247 12.4973 13.1843 11.5545 14.3438 11.5508C15.5034 11.5478 16.4463 12.4851 16.45 13.6446C16.45 13.6465 16.45 13.6489 16.45 13.6508C16.4469 14.8067 15.512 15.744 14.3561 15.7508Z" fill="white"/>
<ellipse cx="14.35" cy="13.6508" rx="2.1" ry="2.1" fill="white"/>
<path fill-rule="evenodd" clip-rule="evenodd" d="M13.1521 15.0508C13.0987 15.0506 13.0474 15.0294 13.0095 14.9917C12.9304 14.9122 12.9304 14.7839 13.0095 14.7044L15.401 12.3107C15.4809 12.2308 15.6105 12.2308 15.6903 12.3107C15.7702 12.3905 15.7702 12.5201 15.6903 12.6L13.2967 14.9917C13.2582 15.0298 13.2063 15.0512 13.1521 15.0508Z" fill="#005587" stroke="#005587" stroke-width="0.5"/>
<path fill-rule="evenodd" clip-rule="evenodd" d="M15.75 14.8489C15.7498 14.9023 15.7286 14.9536 15.6909 14.9915C15.6115 15.0705 15.4831 15.0705 15.4037 14.9915L13.0099 12.5999C12.93 12.5201 12.93 12.3905 13.0099 12.3107C13.0898 12.2308 13.2193 12.2308 13.2992 12.3107L15.6909 14.7043C15.729 14.7428 15.7504 14.7947 15.75 14.8489Z" fill="#005587" stroke="#005587" stroke-width="0.5"/>
</svg>
