<svg width="100%" height="100%" viewBox="0 0 24 24" fill="none" xmlns="http://www.w3.org/2000/svg">
<circle cx="12" cy="12" r="12" fill="white"/>
<path fill-rule="evenodd" clip-rule="evenodd" d="M13.1314 17.7544C12.8074 17.7707 12.484 17.7193 12.1808 17.6036C11.8757 17.4268 11.6933 17.096 11.7076 16.744C11.7133 16.6926 11.7133 16.6405 11.7076 16.5892C11.5122 16.5692 11.3155 16.5692 11.1202 16.5892C11.1202 16.5892 11.1202 16.6136 11.1202 16.6258C11.2135 16.8825 11.1834 17.1681 11.0386 17.3999C10.6632 17.8603 9.04768 17.734 8.77434 17.6118C8.36271 17.4944 8.12401 17.0662 8.24111 16.6552C8.24682 16.6356 8.25336 16.6165 8.26033 16.5973C8.32313 16.4531 8.32313 16.2893 8.26033 16.1451C7.92455 15.7968 7.56313 15.4741 7.17925 15.1795C7.01154 15.1652 6.84264 15.1746 6.6774 15.2081C6.26946 15.261 5.73096 15.3262 5.42906 14.9228C5.12715 14.5195 5.16387 12.7187 5.31075 12.3399C5.45764 11.9609 5.60857 11.5699 6.10222 11.6595C6.26867 11.6829 6.43796 11.6544 6.58767 11.578C6.94343 11.2964 7.24451 10.9527 7.47701 10.5635C7.50926 10.2867 7.47008 10.0061 7.36278 9.74869C7.24042 9.34129 7.10578 8.8687 7.41992 8.52648C7.73402 8.18427 8.32152 8.29425 8.84782 8.43277C9.23655 8.54267 9.58169 8.77045 9.83502 9.08464C9.94928 9.22239 10.0876 9.33836 10.243 9.42684C10.7089 9.54903 11.1948 9.57405 11.6709 9.50023C11.8993 9.50023 12.1156 9.47166 12.2991 9.47166C13.3109 9.47166 14.3757 9.53689 15.3099 10.3476C15.518 10.5371 15.7081 10.7459 15.877 10.9709L15.93 11.0402C15.9357 10.4777 16.3971 10.0263 16.9601 10.0321C16.9936 10.0324 17.027 10.0344 17.06 10.0379C17.4223 10.0897 17.747 10.2888 17.9576 10.588C18.2064 10.9411 18.2064 11.4123 17.9576 11.7654C17.8739 11.8958 17.774 12.0149 17.6597 12.1199C17.7046 12.1238 17.7496 12.1238 17.7944 12.1199C17.8923 12.1199 17.9535 12.1199 18.1819 11.9976C18.3749 11.8816 18.6258 11.9438 18.7417 12.1367C18.858 12.3295 18.7955 12.5798 18.6026 12.6958C18.5854 12.7061 18.5675 12.7151 18.5491 12.7228C18.3092 12.8671 18.0335 12.9404 17.7536 12.9347C17.5047 12.9147 17.26 12.8584 17.0274 12.7676C16.876 12.7034 16.7381 12.6123 16.6195 12.4987C16.3486 12.4712 16.092 12.365 15.8811 12.1932C15.6297 11.9882 15.4062 11.7513 15.2161 11.4884C15.0794 11.3027 14.9252 11.1308 14.7551 10.975C14.033 10.3476 13.1722 10.2987 12.2787 10.2987C12.1115 10.2987 11.9116 10.2987 11.7035 10.3272C11.0671 10.368 10.3409 10.4168 9.84729 10.1643C9.61273 10.0314 9.40299 9.85917 9.22718 9.65502C9.07503 9.45987 8.86532 9.31736 8.62747 9.24763C8.43573 9.18802 8.23663 9.15378 8.03594 9.14573C8.06204 9.27502 8.09469 9.40287 8.13383 9.52874C8.30231 9.9478 8.33947 10.4082 8.23996 10.8487C7.92622 11.4656 7.453 11.9874 6.8692 12.3602C6.63176 12.4598 6.37594 12.5084 6.11853 12.5028C6.09405 12.5598 6.07365 12.6209 6.05732 12.6536C5.96186 13.2472 5.96186 13.8526 6.05732 14.4462C6.22094 14.4576 6.38571 14.4478 6.5469 14.4176C6.85366 14.3516 7.17228 14.3643 7.47297 14.4543C8.02492 14.8226 8.52223 15.2671 8.94974 15.7743C9.11336 16.0958 9.1468 16.4677 9.0436 16.8132V16.8581L9.10483 16.8866C9.51111 16.9416 9.92279 16.9416 10.3287 16.8866C10.3287 16.858 10.3287 16.8336 10.3287 16.8092C10.2353 16.5537 10.2654 16.2693 10.4103 16.0391C10.6755 15.701 11.8422 15.7499 12.0421 15.8599C12.3538 16.0237 12.5427 16.352 12.5276 16.7032C12.5276 16.8784 12.5276 16.8825 12.5847 16.9029C13.0493 16.9884 13.5275 16.9688 13.9841 16.8458C13.9841 16.7766 13.9554 16.6625 13.9432 16.5892C13.858 16.3227 13.8665 16.0351 13.9677 15.7743C14.1142 15.5551 14.3116 15.375 14.5429 15.2488C14.631 15.1917 14.7155 15.129 14.7958 15.0614C15.3079 14.5896 15.6346 13.9512 15.7179 13.2606C15.7448 13.0357 15.9496 12.8751 16.1748 12.9021C16.3999 12.929 16.5607 13.1335 16.5338 13.3584C16.4261 14.2449 16.005 15.0642 15.3466 15.6684C15.2385 15.7588 15.1255 15.8432 15.008 15.921C14.9028 15.9878 14.802 16.0612 14.7061 16.141C14.713 16.2408 14.7265 16.3403 14.7469 16.4384C14.8501 16.7399 14.8175 17.0715 14.6572 17.3469C14.4206 17.6321 13.7351 17.7544 13.1314 17.7544ZM16.9376 10.8528C16.8601 10.8512 16.7863 10.8859 16.7378 10.9465C16.6916 11.063 16.6916 11.1926 16.7378 11.3091C16.7835 11.4313 16.8438 11.5475 16.9172 11.6554C17.0584 11.5759 17.1775 11.4625 17.264 11.3254C17.3199 11.2474 17.3199 11.1427 17.264 11.0647C17.1878 10.9562 17.0723 10.8816 16.9418 10.8569L16.9376 10.8528Z" fill="#005587"/>
<path fill-rule="evenodd" clip-rule="evenodd" d="M13.1519 11.6884C13.0972 11.6898 13.0426 11.6786 12.9928 11.6558C12.515 11.433 11.9652 11.4225 11.4793 11.6272C11.2696 11.7105 11.0321 11.6083 10.9489 11.3991C10.8657 11.1898 10.9677 10.9527 11.1774 10.8694C11.8632 10.5881 12.635 10.6014 13.311 10.9061C13.5183 10.9943 13.6145 11.2336 13.5264 11.4406C13.4624 11.5906 13.3151 11.688 13.1519 11.6884Z" fill="#005587"/>
<path fill-rule="evenodd" clip-rule="evenodd" d="M12.3519 9.00327H12.2418C11.8963 8.97228 11.5768 8.80694 11.3524 8.54291C10.8894 7.99205 10.9588 7.17118 11.5075 6.70547C12.0595 6.24224 12.8831 6.31367 13.347 6.86494C13.8104 7.41622 13.739 8.23863 13.187 8.70177C12.9529 8.89814 12.6575 9.00624 12.3519 9.00732V9.00327ZM12.3519 7.20653C12.2349 7.20604 12.1219 7.24801 12.0337 7.32471C11.935 7.40763 11.8734 7.52634 11.8624 7.65473C11.8497 7.78479 11.8909 7.91444 11.9766 8.01324C12.1549 8.21932 12.4666 8.24227 12.673 8.06435C12.7685 7.98189 12.8288 7.86591 12.8415 7.74026C12.8627 7.4707 12.6624 7.23438 12.3927 7.21063L12.3519 7.20653Z" fill="#005587"/>
</svg>
