<svg width="22" height="22" viewBox="0 0 22 22" fill="none" xmlns="http://www.w3.org/2000/svg">
<path fill-rule="evenodd" clip-rule="evenodd" d="M11.0536 21.2852C10.6321 21.2852 10.2898 20.9423 10.2898 20.5199V7.80877C10.2898 7.38633 10.6321 7.0435 11.0536 7.0435C11.4754 7.0435 11.8176 7.38633 11.8176 7.80877V20.5199C11.8176 20.9423 11.4754 21.2852 11.0536 21.2852Z" />
<path fill-rule="evenodd" clip-rule="evenodd" d="M20.8388 11.4844H1.26805C0.846338 11.4844 0.50415 11.1415 0.50415 10.7191C0.50415 10.2966 0.846338 9.95377 1.26805 9.95377H20.8388C21.2605 9.95377 21.6028 10.2966 21.6028 10.7191C21.6028 11.1415 21.2605 11.4844 20.8388 11.4844Z" />
<path fill-rule="evenodd" clip-rule="evenodd" d="M11.0305 17.3281C10.6088 17.3281 10.2666 16.9853 10.2666 16.5629V1.13509C10.2666 0.712643 10.6088 0.369806 11.0305 0.369806C11.4522 0.369806 11.7944 0.712643 11.7944 1.13509V16.5629C11.7944 16.9853 11.4522 17.3281 11.0305 17.3281Z" />
</svg>
