<svg width="100%" height="100%" viewBox="0 0 16 16" fill="none" xmlns="http://www.w3.org/2000/svg">
    <path fill-rule="evenodd" clip-rule="evenodd" d="M6.2207 15.8748C6.0883 15.8745 5.96072 15.8255 5.863 15.7375C4.05319 14.1219 0.807308 10.4577 0.13465 7.04173C0.0786055 6.75014 0.272406 6.46879 0.567054 6.4134C0.861761 6.35802 1.14634 6.54949 1.20238 6.84108C1.73622 9.43349 4.09587 12.6013 6.23135 14.6129C9.81893 11.0596 11.4525 8.14516 11.2283 5.71123C10.9433 3.20045 8.81255 1.29253 6.25803 1.26042C5.14013 1.29404 4.05856 1.66225 3.1563 2.3163C2.58614 2.72501 2.20231 3.33979 2.08857 4.02695C1.92844 4.87701 2.46228 5.55811 3.30043 6.13886C3.61597 5.56277 4.05049 5.05893 4.57638 4.66052C5.25758 4.06511 6.20839 3.8758 7.0695 4.16425C7.77206 4.40424 8.30595 4.97766 8.48963 5.69012C8.81795 6.9344 8.06359 8.20613 6.80576 8.53066C6.23189 8.67866 5.62222 8.607 5.09957 8.33001L4.95009 8.26135C4.65115 8.11881 4.30946 7.96039 3.96242 7.77561C3.96512 8.02299 3.98484 8.27002 4.02116 8.51478C4.0612 8.80638 3.85403 9.07464 3.55939 9.11403C3.26468 9.15342 2.99346 8.94891 2.95343 8.65737C2.87873 8.17146 2.86961 7.6778 2.92672 7.1895C1.73093 6.40816 0.711167 5.33639 0.994158 3.81576C1.17248 2.86918 1.7138 2.02744 2.50502 1.4663C3.59301 0.6842 4.89723 0.24943 6.24208 0.220282C9.3561 0.231802 11.9576 2.56794 12.2694 5.63206C12.5363 8.47784 10.6677 11.7829 6.59441 15.7375C6.49238 15.8292 6.35845 15.8785 6.2207 15.8748ZM4.17064 6.70384C4.56572 6.91503 4.98743 7.12092 5.40918 7.32158L5.55871 7.39017C6.17638 7.74361 6.96648 7.53499 7.32418 6.92428C7.5025 6.61919 7.54571 6.25475 7.44328 5.91714C7.32842 5.55736 7.04336 5.2756 6.67983 5.16209C6.1716 4.99035 5.60886 5.11019 5.21701 5.47364C4.77713 5.79845 4.4189 6.21944 4.17064 6.70384Z"/>
    <path fill-rule="evenodd" clip-rule="evenodd" d="M10.8349 14.0309C10.7031 14.032 10.576 13.985 10.4772 13.8989L9.04649 12.6265C8.83721 12.4194 8.83721 12.0838 9.04649 11.8768C9.25572 11.6697 9.59528 11.6697 9.80457 11.8768L9.87397 11.9454L10.8029 12.7637C13.627 9.68563 14.9297 7.18299 14.7909 5.11862C14.5949 2.8633 12.6698 1.14137 10.3811 1.17465C9.93591 1.1814 9.49443 1.25808 9.07315 1.40166C8.78381 1.45723 8.50352 1.27029 8.44747 0.984052C8.40102 0.749706 8.52007 0.513898 8.73683 0.409059C9.26325 0.230449 9.81416 0.134231 10.3705 0.123933C13.2277 0.0783789 15.6306 2.23315 15.864 5.04996C16.0348 7.51036 14.5186 10.3931 11.2407 13.8672C11.1355 13.9767 10.9876 14.0363 10.8349 14.0309Z"/>
</svg>
