<svg width="100%" height="100%" viewBox="0 0 28 25" fill="none" xmlns="http://www.w3.org/2000/svg">
<path fill-rule="evenodd" clip-rule="evenodd" d="M8.18087 24.9023C3.66271 24.9023 0 21.2369 0 16.7155C0 12.194 3.66271 8.5286 8.18087 8.5286H27.1102C27.5989 8.52626 27.9974 8.92109 28 9.41033C28.0009 9.5851 27.9495 9.75605 27.8539 9.90201L24.3124 15.2181C24.1494 15.4657 23.8741 15.6151 23.5776 15.6169H17.017C16.5281 15.6169 16.1315 15.2202 16.1315 14.7308C16.1315 14.2415 16.5281 13.8448 17.017 13.8448H23.0995L25.4723 10.3007H8.18087C4.6408 10.3007 1.77077 13.1728 1.77077 16.7155C1.77077 20.2587 4.6408 23.1303 8.18087 23.1303C12.1562 23.1303 14.228 20.7114 14.228 18.328C14.2284 17.1443 13.7146 16.0191 12.8203 15.2448C11.5029 14.2091 9.85352 13.6893 8.18087 13.7828C6.56231 13.7828 5.25032 15.0958 5.25032 16.7155C5.25032 18.3352 6.56231 19.6482 8.18087 19.6482C8.9015 19.6553 9.58473 19.3284 10.0313 18.7622C10.4845 18.095 10.5868 17.2498 10.3058 16.494C10.1675 16.0298 10.4279 15.5397 10.8901 15.3953C11.3571 15.2513 11.8525 15.5132 11.9969 15.9802C12.4497 17.2719 12.2448 18.7037 11.448 19.8167C10.677 20.8453 9.46592 21.4495 8.18087 21.4468C5.58442 21.4468 3.47955 19.3408 3.47955 16.7421C3.47955 14.1437 5.58442 12.0374 8.18087 12.0374C10.2872 11.94 12.3563 12.6177 13.9978 13.9423C15.2776 15.0569 16.0085 16.6747 15.9987 18.3724C15.9987 21.5976 13.316 24.9023 8.18087 24.9023Z" fill="#1E1E1E"/>
<path fill-rule="evenodd" clip-rule="evenodd" d="M13.9538 7.49219C13.4647 7.49219 13.0684 7.0955 13.0684 6.60617V1.38738C13.0684 0.89814 13.4647 0.501478 13.9538 0.501478C14.4428 0.501478 14.8392 0.89814 14.8392 1.38738V6.60617C14.8392 7.0955 14.4428 7.49219 13.9538 7.49219Z" fill="#1E1E1E"/>
<path fill-rule="evenodd" clip-rule="evenodd" d="M9.34113 7.49219C9.02168 7.4917 8.72731 7.31899 8.57081 7.04034L5.97669 2.50384C5.73222 2.07816 5.87886 1.53461 6.30425 1.29004C6.72974 1.04537 7.27277 1.19214 7.51725 1.61782L10.076 6.11889C10.3147 6.54467 10.1644 7.0836 9.73947 7.32387C9.6226 7.41213 9.48573 7.46993 9.34113 7.49219Z" fill="#1E1E1E"/>
<path fill-rule="evenodd" clip-rule="evenodd" d="M18.6104 7.49218C18.4572 7.48906 18.3084 7.44631 18.1765 7.3682C17.7516 7.12793 17.6011 6.58898 17.8402 6.1631L20.3989 1.66211C20.6432 1.23634 21.1869 1.08971 21.6118 1.33428C22.0368 1.57895 22.1838 2.12236 21.9394 2.54814L19.3806 7.04921C19.2222 7.32434 18.9282 7.49345 18.6104 7.49218Z" fill="#1E1E1E"/>
</svg>
