<svg width="100%" height="100%" viewBox="0 0 13 13" fill="none" xmlns="http://www.w3.org/2000/svg">
<path fill-rule="evenodd" clip-rule="evenodd" d="M1.14258 12.8799H1.10912C0.891408 12.8623 0.723783 12.6798 0.724612 12.4612C0.753877 10.1837 3.17355 9.84045 5.0625 9.63946C3.85895 8.95282 3.44519 7.61733 3.12757 6.29018C2.6679 4.39368 2.86432 2.90325 3.70014 1.89004C5.13818 0.265771 7.6184 0.116867 9.23986 1.55753C9.35692 1.66164 9.46762 1.7727 9.57168 1.89004C10.4075 2.91159 10.583 4.40202 10.1233 6.29438C9.75556 7.82246 9.15796 8.90677 8.31799 9.5683L8.61889 9.59342L9.03676 9.63527C10.0356 9.73574 12.6893 10.0079 12.7979 12.3482C12.8138 12.5253 12.7168 12.6927 12.5555 12.7668C12.3466 12.8619 12.1004 12.7702 12.0039 12.5617C11.9776 12.5023 11.9634 12.4382 11.9621 12.3733C11.9287 11.2388 11.0302 10.6568 8.96573 10.4475L8.54782 10.4098C8.0129 10.3554 7.47383 10.3051 6.93052 10.2088C6.41606 10.3168 5.89536 10.3934 5.37173 10.4391C3.33656 10.6526 1.75272 10.9247 1.57298 12.2309C1.57717 12.2741 1.57717 12.3176 1.57298 12.3607L1.54795 12.5198C1.5191 12.7233 1.34771 12.8757 1.14258 12.8799ZM6.6004 1.40442C5.73448 1.40327 4.90913 1.77173 4.33116 2.41754C3.67927 3.22557 3.54551 4.46484 3.93835 6.09759C4.24759 7.37869 4.61952 8.57188 5.73112 9.02822C6.09976 9.1781 6.48168 9.2915 6.87203 9.36732C8.05055 9.01982 8.84453 7.94805 9.2917 6.09339C9.68454 4.46065 9.55081 3.22142 8.89887 2.41339C8.31717 1.77067 7.49138 1.40415 6.62546 1.40442H6.6004Z"/>
</svg>
