<svg width="100%" height="100%" viewBox="0 0 12 12" fill="none" xmlns="http://www.w3.org/2000/svg">
<path d="M6.00002 6C7.65752 6 9.00001 4.6575 9.00001 3C9.00001 1.3425 7.65752 0 6.00002 0C4.34253 0 3.00004 1.3425 3.00004 3C3.00004 4.6575 4.34253 6 6.00002 6ZM6.00002 1.5C6.82502 1.5 7.50002 2.175 7.50002 3C7.50002 3.825 6.82502 4.5 6.00002 4.5C5.17503 4.5 4.50003 3.825 4.50003 3C4.50003 2.175 5.17503 1.5 6.00002 1.5ZM10.7925 7.92C9.53251 7.275 7.89752 6.75 6.00002 6.75C4.10253 6.75 2.46754 7.275 1.20754 7.92C0.841589 8.10849 0.535023 8.3947 0.321872 8.74686C0.108722 9.09902 -0.00267401 9.50336 4.87424e-05 9.915L4.87424e-05 12L12 12V9.915C12 9.075 11.5425 8.3025 10.7925 7.92ZM10.5 10.5L1.50004 10.5L1.50004 9.915C1.50004 9.63 1.65004 9.375 1.89004 9.255C2.78254 8.7975 4.22253 8.25 6.00002 8.25C7.77752 8.25 9.21751 8.7975 10.11 9.255C10.35 9.375 10.5 9.63 10.5 9.915V10.5Z"/>
</svg>
