<svg width="100%" height="100%" viewBox="0 0 40 40" fill="none" xmlns="http://www.w3.org/2000/svg">
<rect width="40" height="40" fill="white"/>
<circle cx="20" cy="20" r="19.5" fill="#FCE6E5" stroke="#D72B25"/>
<path fill-rule="evenodd" clip-rule="evenodd" d="M28.2871 32H11.77C9.70859 32 8.03731 30.3275 8.03731 28.2646V11.7354C8.03731 11.2199 8.45541 10.8016 8.97044 10.8016C9.48558 10.8016 9.9037 11.2199 9.9037 11.7354V28.2646C9.9037 29.2965 10.7388 30.1324 11.77 30.1324H28.2871C29.3183 30.1324 30.1534 29.2965 30.1534 28.2646V11.7354C30.1534 10.7034 29.3183 9.86771 28.2871 9.86771H8.93313C8.4181 9.86771 8 9.44931 8 8.93376C8 8.41832 8.4181 8 8.93313 8H28.2871C30.3485 8 32.0197 9.6725 32.0197 11.7354V28.2646C32.0197 30.3275 30.3485 32 28.2871 32Z" fill="#D72B25"/>
<path fill-rule="evenodd" clip-rule="evenodd" d="M16.6786 18.7581C16.1636 18.7581 15.7454 18.3396 15.7454 17.8242V13.4257C15.7454 12.9101 16.1636 12.4918 16.6786 12.4918C17.1938 12.4918 17.6118 12.9101 17.6118 13.4257V17.7868C17.6324 18.3023 17.2321 18.7365 16.7169 18.7571C16.7038 18.7581 16.6918 18.7581 16.6786 18.7581Z" fill="#D72B25"/>
<path fill-rule="evenodd" clip-rule="evenodd" d="M23.3786 18.7581C22.8634 18.7581 22.4453 18.3396 22.4453 17.8242V13.4257C22.4453 12.9101 22.8634 12.4918 23.3786 12.4918C23.8937 12.4918 24.3118 12.9101 24.3118 13.4257V17.7868C24.3322 18.3023 23.9319 18.7365 23.4168 18.7571C23.4038 18.7581 23.3916 18.7581 23.3786 18.7581Z" fill="#D72B25"/>
<path fill-rule="evenodd" clip-rule="evenodd" d="M24.9742 27.2375C24.4591 27.2375 24.041 26.8191 24.041 26.3037C24.0588 24.0858 22.2764 22.2741 20.0601 22.2563C18.1797 22.2414 16.5413 23.5357 16.1184 25.3698H22.408C22.9231 25.3698 23.3412 25.7882 23.3412 26.3037C23.3412 26.8191 22.9231 27.2375 22.408 27.2375H15.0827C14.5675 27.2375 14.1494 26.8191 14.1494 26.3037C14.1494 23.0548 16.7819 20.4204 20.0285 20.4204C23.275 20.4204 25.9074 23.0548 25.9074 26.3037C25.9074 26.8191 25.4893 27.2375 24.9742 27.2375Z" fill="#D72B25"/>
</svg>
