<svg width="100%" height="100%" viewBox="0 0 24 24" fill="none" xmlns="http://www.w3.org/2000/svg">
<circle cx="12" cy="12" r="11.5" fill="#D72B25" stroke="#D72B25"/>
<path fill-rule="evenodd" clip-rule="evenodd" d="M16.9723 19.1997H7.06203C5.8252 19.1997 4.82243 18.1962 4.82243 16.9585V7.04096C4.82243 6.73163 5.07329 6.48065 5.38231 6.48065C5.6914 6.48065 5.94227 6.73163 5.94227 7.04096V16.9585C5.94227 17.5776 6.44331 18.0791 7.06203 18.0791H16.9723C17.591 18.0791 18.0921 17.5776 18.0921 16.9585V7.04096C18.0921 6.42174 17.591 5.92033 16.9723 5.92033H5.35993C5.05091 5.92033 4.80005 5.66929 4.80005 5.35996C4.80005 5.0507 5.05091 4.79971 5.35993 4.79971H16.9723C18.2091 4.79971 19.2119 5.80321 19.2119 7.04096V16.9585C19.2119 18.1962 18.2091 19.1997 16.9723 19.1997Z" fill="white"/>
<path fill-rule="evenodd" clip-rule="evenodd" d="M10.0072 11.2544C9.6982 11.2544 9.44727 11.0033 9.44727 10.6941V8.05497C9.44727 7.74564 9.6982 7.49465 10.0072 7.49465C10.3163 7.49465 10.5671 7.74564 10.5671 8.05497V10.6717C10.5795 10.9809 10.3393 11.2415 10.0302 11.2538C10.0223 11.2544 10.0151 11.2544 10.0072 11.2544Z" fill="white"/>
<path fill-rule="evenodd" clip-rule="evenodd" d="M14.0272 11.2544C13.7182 11.2544 13.4673 11.0033 13.4673 10.6941V8.05497C13.4673 7.74564 13.7182 7.49465 14.0272 7.49465C14.3363 7.49465 14.5872 7.74564 14.5872 8.05497V10.6717C14.5994 10.9809 14.3592 11.2415 14.0502 11.2538C14.0423 11.2544 14.0351 11.2544 14.0272 11.2544Z" fill="white"/>
<path fill-rule="evenodd" clip-rule="evenodd" d="M14.9845 16.3423C14.6754 16.3423 14.4246 16.0912 14.4246 15.782C14.4352 14.4512 13.3658 13.3642 12.036 13.3535C10.9078 13.3446 9.92473 14.1212 9.67104 15.2217H13.4448C13.7539 15.2217 14.0047 15.4726 14.0047 15.782C14.0047 16.0912 13.7539 16.3423 13.4448 16.3423H9.04958C8.7405 16.3423 8.48962 16.0912 8.48962 15.782C8.48962 13.8326 10.0691 12.252 12.0171 12.252C13.965 12.252 15.5444 13.8326 15.5444 15.782C15.5444 16.0912 15.2935 16.3423 14.9845 16.3423Z" fill="white"/>
</svg>
