<svg width="100%" height="100%" viewBox="0 0 20 20" fill="none" xmlns="http://www.w3.org/2000/svg">
<circle cx="10" cy="10" r="9.75" stroke="#00A3E0" stroke-width="0.5"/>
<path fill-rule="evenodd" clip-rule="evenodd" d="M4.9075 15.0859H4.87489C4.6626 15.0688 4.49919 14.8908 4.5 14.6777C4.52445 12.6366 6.62708 12.3141 8.31409 12.1304C7.29131 11.4977 6.9327 10.326 6.65153 9.17074C6.24407 7.46027 6.40707 6.12131 7.15277 5.19873C7.82432 4.44054 8.78559 4.00415 9.79736 3.99853C10.8096 3.99148 11.7745 4.4285 12.4379 5.19465C13.1836 6.11722 13.3548 7.45623 12.9391 9.16665C12.6172 10.5016 12.1037 11.4609 11.3784 12.061H11.5659L11.9326 12.0977C12.173 12.1223 12.4216 12.1549 12.6743 12.1957C12.8992 12.2341 13.0508 12.448 13.0125 12.6733C12.9742 12.8987 12.7606 13.0505 12.5357 13.0122C12.3034 12.9714 12.0712 12.9428 11.8511 12.9183L11.4885 12.8815C11.0117 12.8366 10.5268 12.7917 10.046 12.706C9.59488 12.7958 9.1393 12.8599 8.68088 12.8979C6.87978 13.0857 5.4739 13.3061 5.31091 14.4654C5.315 14.5046 5.315 14.5446 5.31091 14.5839V14.7267C5.28606 14.9312 5.11327 15.0855 4.9075 15.0859ZM9.79736 4.81496C9.02237 4.81029 8.28191 5.13519 7.75991 5.709C7.18125 6.42338 7.06717 7.52152 7.41764 8.97481C7.69064 10.1138 8.01662 11.1711 8.99869 11.5793C9.32386 11.7107 9.66083 11.8103 10.0052 11.8773C11.0443 11.567 11.7452 10.6159 12.1404 8.97481C12.4909 7.52152 12.3727 6.42338 11.7982 5.709C11.2831 5.14674 10.559 4.82305 9.79736 4.81496Z" fill="#00A3E0"/>
<path fill-rule="evenodd" clip-rule="evenodd" d="M13.8724 15.918C12.6956 15.918 11.7412 14.9619 11.7412 13.783C11.7412 13.5576 11.9237 13.3747 12.1487 13.3747C12.3737 13.3747 12.5562 13.5576 12.5562 13.783C12.5583 14.5088 13.1475 15.0958 13.872 15.0938C14.5969 15.0913 15.1825 14.5014 15.1805 13.7752C15.1784 13.0494 14.5892 12.4623 13.8647 12.4648C13.5008 12.4656 13.154 12.6179 12.9066 12.8848C12.7547 13.0502 12.4975 13.0612 12.3321 12.9093C12.1658 12.7575 12.1536 12.4995 12.3048 12.3325C12.306 12.3317 12.3068 12.3305 12.3076 12.3297C13.1088 11.4658 14.4571 11.4162 15.3194 12.219C16.1816 13.0216 16.2314 14.3724 15.4303 15.2362C15.0277 15.6702 14.4637 15.9172 13.8724 15.918Z" fill="#00A3E0"/>
<path fill-rule="evenodd" clip-rule="evenodd" d="M13.8723 14.8789C13.6474 14.8789 13.4648 14.696 13.4648 14.4706V13.0909C13.4648 12.8655 13.6474 12.6827 13.8723 12.6827C14.0973 12.6827 14.2798 12.8655 14.2798 13.0909V14.4748C14.2778 14.6984 14.0957 14.8789 13.8723 14.8789Z" fill="#00A3E0"/>
<path fill-rule="evenodd" clip-rule="evenodd" d="M14.5691 14.1875H13.1878C12.9628 14.1875 12.7803 14.0046 12.7803 13.7793C12.7803 13.5539 12.9628 13.371 13.1878 13.371H14.5691C14.7941 13.371 14.9766 13.5539 14.9766 13.7793C14.9766 14.0046 14.7941 14.1875 14.5691 14.1875Z" fill="#00A3E0"/>
</svg>
