<svg width="100%" height="100%" viewBox="0 0 40 40" fill="none" xmlns="http://www.w3.org/2000/svg">
<path fill-rule="evenodd" clip-rule="evenodd" d="M19.9999 40C8.95408 40 0 31.0458 0 20C0 8.95436 8.95408 0 19.9999 0C31.0457 0 40 8.95436 40 20C40 31.0458 31.0457 40 19.9999 40ZM19.9999 1.66667C9.87495 1.66667 1.6667 9.87475 1.6667 20C1.6667 30.125 9.87495 38.3333 19.9999 38.3333C30.1248 38.3333 38.3333 30.125 38.3333 20C38.3333 9.87475 30.1248 1.66667 19.9999 1.66667Z"/>
<path fill-rule="evenodd" clip-rule="evenodd" d="M30.1887 20.6289H8.81118C8.36342 20.6267 8.0015 20.2613 8.00392 19.8129C8.00481 19.6556 8.05108 19.502 8.13786 19.3705L13.4842 11.3572C13.6351 11.1336 13.8874 10.9997 14.1577 11H24.8422C25.2901 11 25.6535 11.3635 25.6535 11.8119C25.6535 12.2604 25.2901 12.6238 24.8422 12.6238H14.5876L10.304 19.0053H28.6472L25.7995 14.7428H24.2743C23.8265 14.7428 23.463 14.3794 23.463 13.9309C23.463 13.4825 23.8265 13.119 24.2743 13.119H26.2377C26.5094 13.1205 26.7618 13.2576 26.9109 13.4844L30.8377 19.3705C30.9829 19.6217 30.9829 19.9313 30.8377 20.1825C30.7127 20.4334 30.4676 20.6022 30.1887 20.6289Z"/>
<path fill-rule="evenodd" clip-rule="evenodd" d="M30.1886 27.7812H8.8113C8.36345 27.7812 8 27.4175 8 26.9694V19.8166C8 19.3682 8.36345 19.0048 8.8113 19.0048H30.1886C30.6365 19.0048 31 19.3682 31 19.8166V26.9694C31 27.4175 30.6365 27.7812 30.1886 27.7812ZM9.62255 26.1574H29.3774V20.6286H9.62255V26.1574Z"/>
<path fill-rule="evenodd" clip-rule="evenodd" d="M24.5758 24.1934H14.4266C13.9787 24.1934 13.6152 23.8295 13.6152 23.3814C13.6152 22.9332 13.9787 22.5694 14.4266 22.5694H24.5758C25.0237 22.5694 25.3871 22.9332 25.3871 23.3814C25.3871 23.8295 25.0237 24.1934 24.5758 24.1934Z"/>
</svg>
