<svg width="100%" height="100%" viewBox="0 0 40 40" fill="none" xmlns="http://www.w3.org/2000/svg">
<circle cx="20" cy="20" r="19.75" stroke-width="0.5"/>
<path fill-rule="evenodd" clip-rule="evenodd" d="M9.815 30.1748H9.74977C9.3252 30.1406 8.99839 29.7846 9.00001 29.3584C9.0489 25.2761 13.2542 24.6311 16.6282 24.2637C14.5826 22.9982 13.8654 20.655 13.3031 18.3444C12.4881 14.9235 12.8141 12.2455 14.3055 10.4004C15.6486 8.88402 17.5712 8.01123 19.5947 7.99999C21.6192 7.98588 23.549 8.85993 24.8758 10.3922C26.3673 12.2374 26.7095 14.9154 25.8783 18.3362C25.2344 21.0061 24.2075 22.9247 22.7569 24.1249H23.1319L23.8652 24.1984C24.3461 24.2474 24.8433 24.3127 25.3485 24.3943C25.7984 24.471 26.1015 24.8989 26.025 25.3496C25.9484 25.8003 25.5213 26.104 25.0714 26.0272C24.6069 25.9456 24.1423 25.8885 23.7022 25.8395L22.9769 25.766C22.0233 25.6762 21.0536 25.5864 20.0919 25.4149C19.1898 25.5945 18.2786 25.7227 17.3618 25.7987C13.7596 26.1743 10.9478 26.6151 10.6218 28.9338C10.63 29.0122 10.63 29.0922 10.6218 29.1706V29.4564C10.5721 29.8654 10.2265 30.174 9.815 30.1748ZM19.5947 9.63285C18.0447 9.62351 16.5638 10.2733 15.5198 11.4209C14.3625 12.8497 14.1343 15.046 14.8353 17.9525C15.3813 20.2304 16.0332 22.345 17.9974 23.1616C18.6477 23.4244 19.3217 23.6236 20.0104 23.7575C22.0886 23.137 23.4904 21.2347 24.2808 17.9525C24.9818 15.046 24.7454 12.8497 23.5963 11.4209C22.5662 10.2964 21.118 9.64903 19.5947 9.63285Z" />
<path fill-rule="evenodd" clip-rule="evenodd" d="M27.7449 31.832C25.3911 31.832 23.4824 29.9199 23.4824 27.562C23.4824 27.1113 23.8475 26.7456 24.2974 26.7456C24.7473 26.7456 25.1124 27.1113 25.1124 27.562C25.1165 29.0136 26.2949 30.1878 27.744 30.1836C29.1939 30.1788 30.365 28.999 30.361 27.5465C30.3569 26.0948 29.1784 24.9208 27.7294 24.9256C27.0015 24.9273 26.3081 25.2318 25.8133 25.7658C25.5093 26.0964 24.995 26.1184 24.6641 25.8147C24.3317 25.5111 24.3072 24.9951 24.6095 24.6611C24.612 24.6595 24.6136 24.6571 24.6152 24.6555C26.2175 22.9278 28.9142 22.8286 30.6388 24.4342C32.3633 26.0393 32.4627 28.7409 30.8605 30.4686C30.0553 31.3364 28.9274 31.8304 27.7449 31.832Z"/>
<path fill-rule="evenodd" clip-rule="evenodd" d="M27.7444 29.7578C27.2946 29.7578 26.9294 29.392 26.9294 28.9413V26.1817C26.9294 25.731 27.2946 25.3653 27.7444 25.3653C28.1944 25.3653 28.5594 25.731 28.5594 26.1817V28.9495C28.5553 29.3969 28.1911 29.7578 27.7444 29.7578Z" />
<path fill-rule="evenodd" clip-rule="evenodd" d="M29.1383 28.3779H26.3755C25.9256 28.3779 25.5605 28.0122 25.5605 27.5614C25.5605 27.1108 25.9256 26.745 26.3755 26.745H29.1383C29.5882 26.745 29.9533 27.1108 29.9533 27.5614C29.9533 28.0122 29.5882 28.3779 29.1383 28.3779Z" />
</svg>
