<svg width="100%" height="100%" viewBox="0 0 10 10" fill="none" xmlns="http://www.w3.org/2000/svg">
<path fill-rule="evenodd" clip-rule="evenodd" d="M0.713603 9.93359C0.319303 9.93359 0 9.61247 0 9.21597V2.75716C0 2.36067 0.319303 2.03954 0.713603 2.03954H5.16726C5.36419 2.03954 5.52404 2.20026 5.52404 2.39835C5.52404 2.59644 5.36419 2.75716 5.16726 2.75716H0.713603V9.21597C4.04369 9.21597 3.83252 9.21597 7.16261 9.21597V6.74371C7.16261 5.26892 7.16261 4.90651 7.16261 4.82396C7.1462 4.62662 7.29213 4.45298 7.48875 4.43643H7.49086C7.68677 4.4221 7.85733 4.56959 7.87264 4.76657C7.87264 4.93523 7.89406 5.58108 7.89406 6.74371V9.21597C7.89406 9.61247 7.57474 9.93359 7.18048 9.93359C3.10799 9.93359 3.54364 9.93359 0.713603 9.93359Z"/>
<path fill-rule="evenodd" clip-rule="evenodd" d="M9.30345 4.05958C9.23443 4.1281 9.14094 4.16605 9.04451 4.16469C8.84964 4.16603 8.69335 4.00973 8.69466 3.81484L8.77219 1.16191L7.8423 1.2433L8.42157 1.43317C8.54172 1.47093 8.63153 1.57033 8.65701 1.69394C8.68347 1.8129 8.64637 1.93814 8.55874 2.02544L4.24985 6.33434C4.1103 6.47389 3.88597 6.47606 3.74893 6.33902C3.61192 6.20201 3.61407 5.97765 3.75361 5.8381L7.6529 1.9388L5.97269 1.38106C5.7879 1.32019 5.69038 1.12001 5.75485 0.934186C5.80193 0.798684 5.92477 0.703154 6.06683 0.691432L9.11964 0.437344C9.21917 0.428692 9.31707 0.462354 9.38921 0.529978C9.45974 0.597995 9.49776 0.693108 9.49446 0.791964L9.40577 3.83323C9.39961 3.91805 9.36349 3.99821 9.30345 4.05958Z"/>
</svg>
