<svg width="50" height="50" viewBox="0 0 50 50" fill="none" xmlns="http://www.w3.org/2000/svg">
<path fill-rule="evenodd" clip-rule="evenodd" d="M24.9999 50C11.1927 50 0 38.8073 0 25C0 11.1927 11.1927 0 24.9999 0C38.8073 0 50 11.1927 50 25C50 38.8073 38.8073 50 24.9999 50ZM24.9999 2.08334C12.3438 2.08334 2.08336 12.3437 2.08336 25C2.08336 37.6562 12.3438 47.9167 24.9999 47.9167C37.6562 47.9167 47.9166 37.6562 47.9166 25C47.9166 12.3437 37.6562 2.08334 24.9999 2.08334Z" fill="#00A3E0"/>
<path d="M29.8073 9.52344L32.7832 9.56121L29.7619 13.0946L33.3331 13.1399" stroke="#00A3E0" stroke-linecap="round"/>
<path d="M39.3008 16.666L40.2928 16.6786L39.2857 17.8564L40.4761 17.8715" stroke="#00A3E0" stroke-width="0.5" stroke-linecap="round"/>
<path d="M35.7445 13.0957L37.7285 13.1209L35.7143 15.4765L38.0951 15.5067" stroke="#00A3E0" stroke-width="0.75" stroke-linecap="round"/>
<path d="M38.0952 24.1712C38.0952 24.6584 37.7033 25.0481 37.2134 25.0481H33.6861V28.5558C33.6861 29.043 33.2941 29.4327 32.8042 29.4327C32.3143 29.4327 31.9224 29.043 31.9224 28.5558V25.0481H28.395C27.9051 25.0481 27.5132 24.6584 27.5132 24.1712C27.5132 23.684 27.9051 23.2943 28.395 23.2943H31.9224V19.7866C31.9224 19.2994 32.3143 18.9097 32.8042 18.9097C33.2941 18.9097 33.6861 19.2994 33.6861 19.7866V23.2943H37.2134C37.7033 23.2943 38.0952 23.684 38.0952 24.1712Z" fill="#00A3E0"/>
<path d="M28.3562 35.0109C27.4038 34.4848 26.1339 34.3795 25.0757 34.2743C24.4408 34.169 23.7001 34.169 23.4884 34.0638C22.9593 33.7481 22.3244 31.854 22.536 31.3278C23.2768 30.1703 24.1234 28.2762 24.5466 26.5925C25.2874 23.646 24.9699 21.4362 23.7001 19.8577C22.007 17.7531 19.2556 17.8583 19.2556 17.8583C19.1498 17.8583 16.3985 17.8583 14.7054 19.8577C13.4355 21.4362 13.1181 23.646 13.8588 26.5925C14.2821 28.2762 15.1286 30.1703 15.8694 31.3278C15.9752 31.854 15.4461 33.7481 14.917 34.0638C14.5995 34.169 13.9646 34.2743 13.3297 34.2743C12.2715 34.3795 11.0017 34.4848 10.0493 35.0109C9.52018 35.2214 9.41436 35.8527 9.626 36.3789C9.83764 36.905 10.4726 37.0102 11.0017 36.7998C11.6366 36.4841 12.6948 36.3789 13.5413 36.2736C14.4937 36.1684 15.2345 36.1684 15.8694 35.8527C17.1392 35.2214 17.6683 33.4324 17.7741 32.9063C17.9858 32.0645 18.0916 31.0121 17.6683 30.2755C17.0334 29.3285 16.2927 27.6447 15.9752 26.1715C15.4461 23.8565 15.5519 22.1728 16.3985 21.1205C17.4567 19.7525 19.3614 19.7525 19.4673 19.8577C19.4673 19.8577 21.372 19.8577 22.4302 21.1205C23.2768 22.1728 23.4884 23.8565 22.8535 26.1715C22.5361 27.6447 21.7953 29.3285 21.1604 30.2755C20.6313 30.9069 20.8429 32.0645 21.0546 32.9063C21.1604 33.4324 21.6895 35.2214 22.9593 35.8527C23.5943 36.1684 24.335 36.2736 25.2874 36.2736C26.2398 36.3789 27.1921 36.4841 27.8271 36.7998C27.9329 36.905 28.1445 36.905 28.2503 36.905C28.5678 36.905 28.9911 36.6946 29.0969 36.3789C28.9911 35.958 28.8853 35.3266 28.3562 35.0109Z" fill="#00A3E0"/>
</svg>
