<svg width="100%" height="100%" viewBox="0 0 50 50" xmlns="http://www.w3.org/2000/svg">
<path d="M0 25C0 11.1929 11.1929 0 25 0C38.8071 0 50 11.1929 50 25C50 38.8071 38.8071 50 25 50C11.1929 50 0 38.8071 0 25Z" fill="white"/>
<path fill-rule="evenodd" clip-rule="evenodd" d="M24.9999 50C11.1927 50 0 38.8073 0 25C0 11.1927 11.1927 0 24.9999 0C38.8073 0 50 11.1927 50 25C50 38.8073 38.8073 50 24.9999 50ZM24.9999 2.08334C12.3438 2.08334 2.08336 12.3437 2.08336 25C2.08336 37.6562 12.3438 47.9167 24.9999 47.9167C37.6562 47.9167 47.9166 37.6562 47.9166 25C47.9166 12.3437 37.6562 2.08334 24.9999 2.08334Z" fill="#00A3E0"/>
<path fill-rule="evenodd" clip-rule="evenodd" d="M24.215 41.0992H24.1344C22.7154 41.1054 21.3447 40.5797 20.287 39.6241C19.5989 39.0312 19.1659 38.1905 19.0791 37.2801C19.0818 36.7444 19.3136 36.2367 19.7145 35.8864C20.0973 35.5734 20.5536 35.3643 21.0386 35.2801C21.7768 35.1217 22.5311 35.0557 23.2844 35.081V36.891C22.6841 36.8711 22.0837 36.9227 21.495 37.0448C21.3008 37.0756 21.1128 37.1399 20.9403 37.2349C20.9867 37.6611 21.2077 38.0484 21.5487 38.3027C22.2895 38.9607 23.2477 39.3127 24.2328 39.2893C25.2215 39.3326 26.1869 38.9778 26.9171 38.3027C27.3555 37.8593 27.7223 37.253 27.5524 37.0359C27.4861 36.9607 27.3922 36.9182 27.2928 36.9182L27.1587 35.1082C27.8432 35.0566 28.5098 35.3435 28.9482 35.8775C29.7714 36.8819 29.476 38.2937 28.1877 39.5788C27.114 40.596 25.686 41.1426 24.215 41.0992Z" fill="#00A3E0"/>
<path fill-rule="evenodd" clip-rule="evenodd" d="M32.5094 36.8828H27.1408C26.6469 36.8828 26.2461 36.4773 26.2461 35.9778C26.2461 35.4783 26.6469 35.0728 27.1408 35.0728H33.1983L32.9656 34.6385C32.8494 34.4393 32.7151 34.2131 32.5809 33.9598C31.3479 31.8539 30.6877 29.4566 30.6662 27.0095C30.693 25.5163 30.6277 24.0231 30.4693 22.539C30.4049 22.0394 30.7538 21.5815 31.2477 21.5164C31.7417 21.4512 32.1944 21.8041 32.2588 22.3037C32.4306 23.8629 32.5022 25.4322 32.4736 27.0005C32.4977 29.1425 33.0811 31.2412 34.1647 33.0819L34.5315 33.7425C35.0773 34.7109 35.4799 35.4167 35.0683 36.1226C34.6567 36.8285 33.7262 36.8828 32.5094 36.8828Z" fill="#00A3E0"/>
<path fill-rule="evenodd" clip-rule="evenodd" d="M24.1071 36.8828H15.7861C14.5692 36.8828 13.6745 36.8284 13.263 36.1135C12.8514 35.3986 13.263 34.7018 13.8087 33.7334L14.1755 33.0728C15.2527 31.2294 15.8327 29.1326 15.8577 26.9914C15.8577 22.358 15.8577 16.6023 21.6465 14.6747C22.4572 14.406 23.3073 14.2738 24.1608 14.2856C25.0054 14.2802 25.8448 14.4123 26.6482 14.6747C27.9796 15.1263 29.2 15.8603 30.2271 16.8286C30.6683 17.2022 31.0207 17.6729 31.2562 18.2041C31.4315 18.671 31.1997 19.1942 30.7372 19.3716C30.2755 19.5489 29.7583 19.3145 29.5829 18.8467C29.4317 18.5806 29.2349 18.3453 29.0013 18.1498C28.1729 17.3624 27.1877 16.7634 26.1113 16.3942C24.8497 15.9959 23.4987 15.9959 22.2371 16.3942C17.7098 17.9055 17.6918 22.5299 17.674 27.0004C17.6517 29.4457 16.9949 31.8429 15.7681 33.9506L15.3835 34.6384L15.142 35.0637H24.0893C24.5833 35.0637 24.9841 35.4691 24.9841 35.9687C24.9841 36.4683 24.5833 36.8736 24.0893 36.8736L24.1071 36.8828Z" fill="#00A3E0"/>
<path d="M26.2354 7.14453L29.2113 7.1823L26.19 10.7157L29.7612 10.761" stroke="#00A3E0" stroke-linecap="round"/>
<path d="M35.7295 14.2852L36.7215 14.2977L35.7144 15.4755L36.9048 15.4906" stroke="#00A3E0" stroke-width="0.5" stroke-linecap="round"/>
<path d="M32.1729 10.7148L34.1568 10.74L32.1426 13.0956L34.5234 13.1258" stroke="#00A3E0" stroke-width="0.75" stroke-linecap="round"/>
</svg>
