<svg width="100%" height="100%" viewBox="0 0 50 50" fill="none" xmlns="http://www.w3.org/2000/svg">
<path fill-rule="evenodd" clip-rule="evenodd" d="M24.9999 50C11.1926 50 0 38.8073 0 25C0 11.1927 11.1926 0 24.9999 0C38.8072 0 50 11.1927 50 25C50 38.8073 38.8072 50 24.9999 50ZM24.9999 2.08334C12.3437 2.08334 2.08335 12.3437 2.08335 25C2.08335 37.6562 12.3437 47.9167 24.9999 47.9167C37.6562 47.9167 47.9167 37.6562 47.9167 25C47.9167 12.3437 37.6562 2.08334 24.9999 2.08334Z" fill="#00A3E0"/>
<path fill-rule="evenodd" clip-rule="evenodd" d="M38.9916 36.6883H10.9816C10.4381 36.6864 9.99805 36.2449 10 35.7021C10.001 35.5498 10.0364 35.3993 10.1053 35.2626C10.1053 35.2626 11.1489 33.1881 12.0744 31.3298C12.3412 30.8461 12.9487 30.6701 13.433 30.9365C13.9174 31.2029 14.0937 31.8096 13.8269 32.2934L12.5765 34.7416H37.3572L34.9354 30.0516H14.4274C13.884 30.0516 13.4429 29.6112 13.4429 29.0684V14.7332C13.4429 14.1905 13.884 13.75 14.4274 13.75H35.5457C36.0892 13.75 36.5302 14.1905 36.5302 14.7332V26.1777C36.5302 26.7205 36.0892 27.161 35.5457 27.161H25.533V25.1946H34.571V15.7067H15.412V28.0655H35.5457C35.914 28.0645 36.2526 28.2701 36.422 28.5965L39.8678 35.2528C40.0441 35.5566 40.0441 35.9323 39.8678 36.236C39.6779 36.533 39.3441 36.7051 38.9916 36.6883Z" fill="#00A3E0"/>
<path fill-rule="evenodd" clip-rule="evenodd" d="M24.2286 27.1772C21.409 27.0534 19.2243 24.6711 19.3483 21.8551C19.4645 19.2132 21.5832 17.0974 24.2286 16.9813C24.7721 16.9813 25.2132 17.4219 25.2132 17.9645V21.0715L28.3341 21.0125C28.5942 21.0085 28.8461 21.1069 29.0332 21.2879C29.2222 21.4678 29.3324 21.7155 29.3384 21.9761C29.3817 24.8048 27.1212 27.1331 24.2887 27.1772C24.2749 27.1772 24.2621 27.1772 24.2483 27.1772H24.2286ZM23.2441 19.115C22.7814 19.2683 22.362 19.5318 22.0233 19.8818C21.4295 20.4609 21.0958 21.2554 21.0977 22.0842C21.1155 22.9209 21.4709 23.7144 22.0824 24.2866C22.6623 24.8795 23.4577 25.2128 24.2877 25.2109C25.6474 25.1873 26.8376 24.2955 27.2413 22.9987L24.2877 23.0576C24.0239 23.0645 23.769 22.9652 23.5789 22.7823C23.3908 22.5985 23.2844 22.3468 23.2836 22.0842L23.2441 19.115Z" fill="#00A3E0"/>
</svg>
