<svg width="100%" height="100%" viewBox="0 0 42 42" fill="none" xmlns="http://www.w3.org/2000/svg">
<path fill-rule="evenodd" clip-rule="evenodd" d="M20.9999 42C9.40188 42 0 32.5981 0 21C0 9.40189 9.40188 0 20.9999 0C32.5981 0 42 9.40189 42 21C42 32.5981 32.5981 42 20.9999 42ZM20.9999 1.75C10.3688 1.75 1.75002 10.3687 1.75002 21C1.75002 31.6312 10.3688 40.25 20.9999 40.25C31.6312 40.25 40.25 31.6312 40.25 21C40.25 10.3687 31.6312 1.75 20.9999 1.75Z" fill="#00A3E0"/>
<path d="M24.0381 8L26.5379 8.03173L24 10.9998L26.9998 11.0378" stroke="#00A3E0" stroke-linecap="round"/>
<path d="M32.0127 14L32.846 14.0106L32 14.9999L32.9999 15.0126" stroke="#00A3E0" stroke-width="0.5" stroke-linecap="round"/>
<path d="M29.0254 11L30.6919 11.0212L29 12.9998L30.9998 13.0252" stroke="#00A3E0" stroke-width="0.75" stroke-linecap="round"/>
<path fill-rule="evenodd" clip-rule="evenodd" d="M23.8638 32.3193C23.7869 32.3193 23.71 32.3052 23.6381 32.277L16.637 29.8896L15.1493 29.3739L15.2409 29.6494C15.4976 30.4151 15.2529 31.2592 14.6276 31.7684C14.1481 32.1378 13.5425 32.3024 12.9425 32.2275C12.1457 32.1399 11.4456 31.6603 11.0741 30.9491C10.6278 30.0774 10.8548 29.0123 11.6169 28.3992C11.698 28.3321 11.7855 28.2735 11.8779 28.2227L8.48653 27.1067C8.19674 27.012 8 26.7415 8 26.4356L8 20.9475C7.99938 20.6437 8.19252 20.374 8.4795 20.2765L23.6381 15.0426C23.71 15.0143 23.7869 15.0002 23.8637 15.0002C25.2126 15.0044 26.3033 16.0999 26.3033 17.4511L26.3033 29.8683C26.3033 31.2196 25.2126 32.3151 23.8638 32.3193ZM14.2751 27.707C14.5147 27.7027 14.7537 27.7409 14.9801 27.82L17.0953 28.5264L23.9696 30.8713C24.4962 30.817 24.8959 30.3705 24.8931 29.8401L24.8931 17.4511C24.8959 16.9207 24.4962 16.4743 23.9696 16.4199L9.41013 21.449L9.41013 25.92L13.4712 27.262C13.7356 27.3574 13.9768 27.5092 14.1763 27.707L14.2751 27.707ZM13.5699 29.2115L13.4642 29.2115L13.013 29.2962C12.8332 29.3188 12.6619 29.3838 12.5124 29.4869C12.2939 29.6974 12.2339 30.0245 12.3643 30.2992C12.523 30.5825 12.8099 30.7703 13.1328 30.8007C13.3584 30.8346 13.589 30.7788 13.7744 30.6453C13.9465 30.5005 14.0092 30.2624 13.9295 30.052C13.8153 29.7602 13.6765 29.4792 13.5136 29.2115L13.5699 29.2115Z" fill="#00A3E0"/>
<path fill-rule="evenodd" clip-rule="evenodd" d="M25.5706 20.4639C25.2717 20.4625 25.0066 20.2732 24.9079 19.9907C24.7782 19.6226 24.9706 19.2193 25.3372 19.0894C25.34 19.088 25.3422 19.0872 25.345 19.0866L28.4896 18.0058C28.8527 17.8652 29.2609 18.0468 29.4012 18.4106C29.5408 18.775 29.3603 19.1833 28.9965 19.3239C28.981 19.3302 28.9641 19.3358 28.9479 19.3408L25.8034 20.4214C25.7286 20.4483 25.6503 20.4632 25.5706 20.4639Z" fill="#00A3E0"/>
<path fill-rule="evenodd" clip-rule="evenodd" d="M28.7149 29.3083C28.6401 29.3182 28.5641 29.3182 28.4893 29.3083L25.3447 28.2205C24.9717 28.1075 24.7617 27.7127 24.8745 27.3398C24.988 26.9661 25.3813 26.7556 25.7536 26.8686C25.7706 26.8736 25.7868 26.8792 25.803 26.8856L28.9475 27.9662C29.3176 28.0878 29.5194 28.4868 29.3974 28.8577C29.3015 29.1522 29.0244 29.3492 28.7149 29.3436L28.7149 29.3083Z" fill="#00A3E0"/>
<path fill-rule="evenodd" clip-rule="evenodd" d="M31.2948 24.3604L25.5697 24.3604C25.1806 24.3604 24.8647 24.0439 24.8647 23.654C24.8647 23.264 25.1806 22.9477 25.5697 22.9477L31.2948 22.9477C31.6841 22.9477 31.9999 23.264 31.9999 23.654C31.9999 24.0439 31.6841 24.3604 31.2948 24.3604Z" fill="#00A3E0"/>
</svg>
