<svg width="100%" height="100%" viewBox="0 0 50 50" fill="none" xmlns="http://www.w3.org/2000/svg">
<path fill-rule="evenodd" clip-rule="evenodd" d="M24.9999 50C11.1927 50 0 38.8073 0 25C0 11.1927 11.1927 0 24.9999 0C38.8073 0 50 11.1927 50 25C50 38.8073 38.8073 50 24.9999 50ZM24.9999 2.08334C12.3438 2.08334 2.08336 12.3437 2.08336 25C2.08336 37.6562 12.3438 47.9167 24.9999 47.9167C37.6562 47.9167 47.9166 37.6562 47.9166 25C47.9166 12.3437 37.6562 2.08334 24.9999 2.08334Z" fill="#00A3E0"/>
<path d="M28.6168 9.52344L31.5928 9.56121L28.5715 13.0946L32.1426 13.1399" stroke="#00A3E0" stroke-linecap="round"/>
<path d="M38.1104 16.666L39.1023 16.6786L38.0952 17.8564L39.2856 17.8715" stroke="#00A3E0" stroke-width="0.5" stroke-linecap="round"/>
<path d="M34.5541 13.0957L36.538 13.1209L34.5239 15.4765L36.9046 15.5067" stroke="#00A3E0" stroke-width="0.75" stroke-linecap="round"/>
<path fill-rule="evenodd" clip-rule="evenodd" d="M28.4092 38.4746C28.3177 38.4746 28.2262 38.4578 28.1406 38.4242L19.8059 35.582L18.0348 34.9681L18.1439 35.2961C18.4495 36.2076 18.1582 37.2125 17.4138 37.8187C16.843 38.2585 16.122 38.4544 15.4077 38.3653C14.4592 38.261 13.6258 37.69 13.1834 36.8434C12.6521 35.8056 12.9224 34.5377 13.8297 33.8077C13.9262 33.728 14.0304 33.6581 14.1403 33.5976L10.103 32.2691C9.75802 32.1563 9.52381 31.8343 9.52381 31.4702L9.5238 24.9367C9.52306 24.575 9.75299 24.2539 10.0946 24.1378L28.1406 17.9071C28.2262 17.8734 28.3177 17.8566 28.4092 17.8566C30.015 17.8616 31.3134 19.1657 31.3134 20.7744L31.3134 35.5567C31.3134 37.1654 30.015 38.4695 28.4092 38.4746ZM16.9941 32.9838C17.2794 32.9787 17.564 33.0241 17.8334 33.1183L20.3515 33.9592L28.5352 36.7508C29.1621 36.6861 29.638 36.1546 29.6347 35.5231L29.6347 20.7744C29.638 20.1429 29.1621 19.6114 28.5352 19.5467L11.2025 25.5337L11.2025 30.8564L16.0372 32.4539C16.3519 32.5675 16.639 32.7483 16.8766 32.9838L16.9941 32.9838ZM16.1546 34.7748L16.0288 34.7748L15.4917 34.8757C15.2776 34.9026 15.0736 34.98 14.8957 35.1027C14.6355 35.3533 14.5641 35.7427 14.7194 36.0697C14.9083 36.4069 15.2498 36.6306 15.6343 36.6668C15.9029 36.7071 16.1773 36.6407 16.3981 36.4817C16.6029 36.3094 16.6776 36.0259 16.5828 35.7754C16.4468 35.4281 16.2815 35.0935 16.0876 34.7748L16.1546 34.7748Z" fill="#00A3E0"/>
<path fill-rule="evenodd" clip-rule="evenodd" d="M30.4411 24.3613C30.0853 24.3597 29.7696 24.1343 29.6522 23.798C29.4978 23.3598 29.7269 22.8797 30.1633 22.725C30.1666 22.7233 30.1692 22.7224 30.1726 22.7217L33.9161 21.4351C34.3484 21.2677 34.8343 21.4838 35.0014 21.9169C35.1675 22.3508 34.9527 22.8368 34.5196 23.0042C34.5011 23.0118 34.481 23.0184 34.4617 23.0243L30.7182 24.3108C30.6292 24.3428 30.536 24.3605 30.4411 24.3613Z" fill="#00A3E0"/>
<path fill-rule="evenodd" clip-rule="evenodd" d="M34.1843 34.8913C34.0952 34.9032 34.0047 34.9032 33.9157 34.8913L30.1722 33.5964C29.7281 33.4619 29.478 32.9919 29.6123 32.5479C29.7475 32.1031 30.2157 31.8525 30.6589 31.987C30.6791 31.9929 30.6985 31.9997 30.7177 32.0072L34.4612 33.2937C34.9018 33.4384 35.142 33.9134 34.9968 34.3549C34.8826 34.7056 34.5527 34.9401 34.1843 34.9335L34.1843 34.8913Z" fill="#00A3E0"/>
<path fill-rule="evenodd" clip-rule="evenodd" d="M37.2558 29L30.4402 29C29.9769 29 29.601 28.6233 29.601 28.1591C29.601 27.6948 29.9769 27.3182 30.4402 27.3182L37.2558 27.3182C37.7192 27.3182 38.0952 27.6948 38.0952 28.1591C38.0952 28.6233 37.7192 29 37.2558 29Z" fill="#00A3E0"/>
</svg>
