<svg width="100%" height="100%" viewBox="0 0 24 24" fill="none" xmlns="http://www.w3.org/2000/svg">
<circle cx="12" cy="12" r="11.5" fill="#757B7B" stroke="#757B7B"/>
<path fill-rule="evenodd" clip-rule="evenodd" d="M18.3081 11.7397C18.3103 12.1269 18.004 12.4431 17.6239 12.4453C17.439 12.4459 17.2615 12.3716 17.1313 12.2378C14.2989 9.354 9.7092 9.354 6.87677 12.2378C6.60837 12.5098 6.17485 12.5098 5.90637 12.2378C5.63658 11.9649 5.6347 11.521 5.9024 11.246C5.90364 11.2447 5.90514 11.2433 5.90637 11.2419C9.27716 7.8182 14.7309 7.8182 18.1016 11.2419C18.233 11.373 18.3074 11.5525 18.3081 11.7397Z" fill="white"/>
<path fill-rule="evenodd" clip-rule="evenodd" d="M15.9674 14.1099C15.9696 14.497 15.6632 14.8133 15.2832 14.8154C15.0983 14.8161 14.9207 14.7418 14.7905 14.6079C13.2552 13.039 10.7627 13.0356 9.22335 14.6001C9.22087 14.6029 9.21846 14.605 9.21598 14.6079C8.9461 14.8806 8.51019 14.8792 8.24218 14.6043C7.97416 14.3294 7.97571 13.8848 8.24558 13.612C10.3223 11.5005 13.6843 11.5005 15.7609 13.612C15.8923 13.7431 15.9666 13.9227 15.9674 14.1099Z" fill="white"/>
<path fill-rule="evenodd" clip-rule="evenodd" d="M20.4 9.36978C20.4022 9.75686 20.0959 10.0731 19.7157 10.0752C19.5309 10.0759 19.3533 10.0016 19.2231 9.86764C15.2479 5.80096 8.78995 5.78757 4.79898 9.83892C4.78946 9.84798 4.78001 9.85789 4.77049 9.86764C4.50209 10.1398 4.06857 10.1398 3.80016 9.86764C3.53331 9.59413 3.53331 9.15231 3.80016 8.8788C8.30758 4.26997 15.6282 4.25666 20.1514 8.85008C20.1608 8.85922 20.1703 8.86897 20.1798 8.8788C20.3145 9.00576 20.3937 9.18251 20.4 9.36978Z" fill="white"/>
<path fill-rule="evenodd" clip-rule="evenodd" d="M13.4841 18.6001C13.5245 18.5999 13.5634 18.5845 13.5921 18.557C13.6519 18.499 13.6519 18.4053 13.5921 18.3474L11.7817 16.6006C11.7213 16.5423 11.6232 16.5423 11.5628 16.6006C11.5023 16.6589 11.5023 16.7534 11.5628 16.8117L13.3747 18.557C13.4038 18.5848 13.4431 18.6004 13.4841 18.6001Z" fill="white"/>
<path fill-rule="evenodd" clip-rule="evenodd" d="M10.69 18.6001C10.7311 18.6004 10.7704 18.5848 10.7995 18.557L13.5921 15.8647C13.6475 15.8024 13.6399 15.7085 13.5753 15.6551C13.5176 15.6074 13.4323 15.6074 13.3747 15.6551L10.5852 18.3474C10.5253 18.4053 10.5253 18.499 10.5852 18.557C10.6131 18.5837 10.6507 18.5992 10.69 18.6001Z" fill="white"/>
<path fill-rule="evenodd" clip-rule="evenodd" d="M12.9229 18.0547C12.9639 18.055 13.0032 18.0394 13.0324 18.0116C13.0928 17.9537 13.0933 17.8596 13.0333 17.8014C13.033 17.8011 13.0327 17.8008 13.0324 17.8005L11.5721 16.3941C11.3238 16.1548 11.0663 15.9065 10.9553 15.6092C10.9306 15.5306 10.8444 15.4863 10.763 15.5101C10.6814 15.534 10.6355 15.617 10.6601 15.6956C10.6612 15.699 10.6624 15.7024 10.6638 15.7059C10.7933 16.0686 11.0894 16.3525 11.35 16.5978L12.8088 18.0056C12.8379 18.0367 12.8794 18.0545 12.9229 18.0547Z" fill="white"/>
</svg>
