<svg width="100%" height="100%" viewBox="0 0 20 20" fill="none" xmlns="http://www.w3.org/2000/svg">
<path d="M0 10C0 4.47715 4.47715 0 10 0C15.5228 0 20 4.47715 20 10C20 15.5228 15.5228 20 10 20C4.47715 20 0 15.5228 0 10Z" fill="white"/>
<path fill-rule="evenodd" clip-rule="evenodd" d="M10 20C4.47708 20 0 15.5228 0 10C0 4.4772 4.47708 0 10 0C15.5229 0 20 4.4772 20 10C20 15.5228 15.5229 20 10 20ZM10 0.833368C4.93752 0.833368 0.833339 4.93738 0.833339 10C0.833339 15.0626 4.93752 19.1666 10 19.1666C15.0625 19.1666 19.1666 15.0626 19.1666 10C19.1666 4.93738 15.0625 0.833368 10 0.833368Z" fill="#1E1E1E"/>
<path fill-rule="evenodd" clip-rule="evenodd" d="M9.07578 13.6512C8.35036 13.6327 7.63597 13.4671 6.97629 13.1645C6.31445 12.8849 5.6988 12.5062 5.15034 12.0419C3.48778 10.6422 3.72939 10.2657 3.81107 10.1342C6.15317 6.71855 10.8211 5.84821 14.2368 8.19036C14.9991 8.71324 15.6581 9.37221 16.1806 10.1342C16.2872 10.3048 16.4684 10.5889 14.9941 11.9105C14.279 12.5116 13.4701 12.9915 12.5998 13.3315C12.4172 13.4014 12.2126 13.3108 12.1415 13.129C12.0701 12.9464 12.1603 12.7403 12.3433 12.6689C12.3447 12.6682 12.3461 12.6679 12.3475 12.6671C13.1352 12.362 13.8683 11.9314 14.5181 11.3918C14.8648 11.0799 15.1877 10.7428 15.4844 10.3829C13.2673 7.34983 9.01076 6.68836 5.97771 8.90545C5.41217 9.31895 4.91372 9.81735 4.50022 10.3829C4.83772 10.7861 5.20857 11.1605 5.60859 11.5019C6.10347 11.9211 6.6594 12.2625 7.25691 12.5144C8.81286 13.1823 10.0278 13.0757 10.8591 12.1947C11.3248 11.6714 11.5593 10.9822 11.5092 10.2834C11.4847 10.0873 11.6239 9.90831 11.82 9.88379C12.0161 9.85927 12.1952 9.99852 12.2197 10.1946C12.2936 10.8941 12.1284 11.5978 11.7508 12.1911C11.6492 12.3673 11.5301 12.5328 11.3955 12.6849C10.7958 13.3236 9.95145 13.6753 9.07578 13.6512Z" fill="#1E1E1E"/>
<path fill-rule="evenodd" clip-rule="evenodd" d="M9.99608 12.5312C8.77759 12.5312 7.79004 11.5436 7.79004 10.3252C7.79004 9.10666 8.77759 8.11909 9.99608 8.11909C11.2146 8.11909 12.2021 9.10666 12.2021 10.3252C12.2004 11.5426 11.2135 12.5291 9.99608 12.5312ZM9.99608 8.8296C9.17013 8.8296 8.50054 9.4992 8.50054 10.3252C8.50054 11.1511 9.17013 11.8207 9.99608 11.8207C10.822 11.8207 11.4917 11.1511 11.4917 10.3252C11.4899 9.49995 10.8213 8.83171 9.99608 8.8296Z" fill="#1E1E1E"/>
</svg>
