<svg width="100%" height="100%" viewBox="0 0 19 19" fill="none" xmlns="http://www.w3.org/2000/svg">
<path fill-rule="evenodd" clip-rule="evenodd" d="M1.04897 18.6074C0.882231 18.6068 0.722313 18.5392 0.605577 18.4197C0.4657 18.2758 0.402612 18.0737 0.436909 17.8754L1.21129 13.3396C1.23319 13.2112 1.29441 13.0936 1.38622 13.0016L13.252 1.11448C13.982 0.390646 15.1573 0.390646 15.8873 1.11448L17.8858 3.11028C18.6084 3.84162 18.6084 5.01912 17.8858 5.75046L17.024 6.64516C16.7811 6.89041 16.3858 6.89226 16.1409 6.64887C16.1397 6.6477 16.1384 6.6464 16.1372 6.64516C15.8948 6.40115 15.8948 6.00699 16.1372 5.76298L17.024 4.88082C17.2582 4.63812 17.2582 4.25396 17.024 4.01119L15.0256 2.00918C14.7833 1.77454 14.3998 1.77454 14.1575 2.00918L2.41041 13.7462L1.78589 17.2122L5.24569 16.6179L14.9506 6.89543C15.2123 6.67084 15.607 6.70149 15.8311 6.96361C16.0317 7.19757 16.0317 7.54358 15.8311 7.7776L5.98887 17.6439C5.89459 17.7321 5.77779 17.7928 5.65168 17.8191L1.1239 18.5949L1.04897 18.6074Z" />
<path fill-rule="evenodd" clip-rule="evenodd" d="M15.4199 7.96287C15.255 7.96039 15.0983 7.89276 14.9828 7.7752L11.2794 4.07139C11.0371 3.82738 11.0371 3.43323 11.2794 3.18922C11.5223 2.9439 11.9176 2.94211 12.1624 3.18544C12.1637 3.18668 12.1649 3.18798 12.1662 3.18922L15.8634 6.89303C16.1081 7.13635 16.11 7.53243 15.8671 7.77768C15.749 7.8971 15.5879 7.96411 15.4199 7.96287Z"/>
<path fill-rule="evenodd" clip-rule="evenodd" d="M12.8583 7.96287C12.6947 7.96219 12.5373 7.8971 12.4211 7.7814L9.99805 5.35397L10.8849 4.47181L13.2768 6.89297C13.5215 7.13636 13.5234 7.53243 13.2805 7.77768C13.1624 7.8971 13.0014 7.96411 12.8333 7.96287H12.8583Z" />
<path fill-rule="evenodd" clip-rule="evenodd" d="M5.60243 17.7187C5.43562 17.718 5.27577 17.6505 5.15904 17.531L1.57429 13.9398C1.33201 13.6958 1.33201 13.3017 1.57429 13.0577C1.8172 12.8124 2.21252 12.8106 2.45735 13.0539C2.45859 13.0552 2.45983 13.0564 2.46107 13.0577L6.04582 16.6489C6.29059 16.8922 6.29252 17.2883 6.04954 17.5335C5.93149 17.653 5.7704 17.72 5.60243 17.7187Z" />
<path fill-rule="evenodd" clip-rule="evenodd" d="M1.84846 18.2891C1.68296 18.2853 1.52557 18.2152 1.41124 18.0951L0.786807 17.4694C0.562563 17.2073 0.593131 16.8119 0.854841 16.5873C1.08838 16.3864 1.43378 16.3864 1.66732 16.5873L2.29185 17.2129C2.53351 17.4594 2.52924 17.8561 2.28317 18.0977C2.16698 18.2114 2.01085 18.2759 1.84846 18.2766V18.2891Z" />
</svg>
