<svg width="100%" height="100%" viewBox="0 0 11 13" fill="none" xmlns="http://www.w3.org/2000/svg">
<path fill-rule="evenodd" clip-rule="evenodd" d="M8.36153 12.0122C7.14079 12.0122 5.2423 11.0076 5.21852 10.9958C5.02988 10.8866 4.96444 10.6456 5.07188 10.4557C5.17927 10.2652 5.42024 10.1976 5.6109 10.3048C6.4036 10.7694 8.26245 11.4047 8.58747 11.1943C8.71431 11.0672 8.9085 10.9124 9.13041 10.7337C9.45543 10.4756 10.1253 9.93957 10.1728 9.70529C10.2204 9.47101 10.05 9.35191 9.70516 9.04219C9.59816 8.95089 9.49114 8.8556 9.39599 8.75629C8.82922 8.18056 8.33777 7.68424 8.12373 7.68424C7.94142 7.68424 7.56491 8.08134 7.08927 8.58955L6.47494 9.23678L2.68985 5.49644L2.9792 5.21453C3.10206 5.09542 3.26059 4.96835 3.43101 4.81747C3.82736 4.5157 4.44171 4.02333 4.39813 3.68983C4.35451 3.35629 2.89597 2.03012 2.51548 1.85537C2.32124 1.76407 2.26978 1.77202 2.26575 1.77202C2.17698 1.8427 2.09571 1.92252 2.02403 2.01024C1.93285 2.1095 1.82979 2.22467 1.69504 2.35169C0.850847 3.17761 0.783457 3.2451 0.953877 4.41645C1.28204 6.53239 2.49247 8.40889 4.28318 9.57823C4.46474 9.70093 4.51263 9.94827 4.39015 10.1301C4.26768 10.312 4.02078 10.3601 3.83926 10.2374C1.86389 8.9469 0.530541 6.87467 0.173047 4.53953C-0.0409947 3.09421 0.137389 2.77261 1.14409 1.79187C1.26302 1.67674 1.35814 1.56951 1.44136 1.48214C1.83771 1.04938 2.13102 0.811126 2.84837 1.14467C3.28436 1.34717 5.08379 2.88774 5.18283 3.5866C5.28987 4.3529 4.53288 4.9604 3.92647 5.44482L3.83926 5.51629L6.45514 8.09323L6.51458 8.02972C7.21213 7.29117 7.59659 6.88219 8.09999 6.87822C8.63896 6.87822 9.07496 7.31499 9.93104 8.18454C10.0182 8.27191 10.1094 8.35531 10.2046 8.43866C10.6009 8.77618 11.0567 9.19705 10.9219 9.8522C10.8268 10.3287 10.3116 10.7694 9.59815 11.3412C9.40395 11.5 9.20179 11.6469 9.11062 11.7382C8.90532 11.9225 8.63699 12.0206 8.36153 12.0122Z"/>
</svg>
