<svg width="100%" height="100%" viewBox="0 0 16 16" fill="none" xmlns="http://www.w3.org/2000/svg">
<g clip-path="url(#clip0)">
<path d="M8.95649 8.95623C9.71074 8.20199 10.3236 7.35346 10.7855 6.44836L9.32419 4.98701C9.14034 4.80316 9.08377 4.52974 9.16391 4.29876C9.3949 3.60579 9.51746 2.88926 9.54575 2.17272C9.54575 2.00302 9.61646 1.83803 9.74374 1.71075C9.87573 1.57875 10.0454 1.51276 10.2151 1.51276L12.5533 1.51276C12.7183 1.50804 12.888 1.57404 13.02 1.70603C13.152 1.83802 13.218 2.00773 13.218 2.17744C13.1426 4.97758 12.0395 7.75887 9.8993 9.89904C7.75912 12.0392 4.97784 13.1423 2.17769 13.2177C2.00799 13.2177 1.83828 13.1517 1.70629 13.0197C1.57429 12.8877 1.5083 12.718 1.5083 12.5483V10.2102C1.5083 10.0405 1.57429 9.87076 1.70629 9.73877C1.83357 9.61149 2.00327 9.54549 2.16826 9.54077C2.88951 9.5172 3.60605 9.38521 4.29901 9.15422C4.53 9.07408 4.7987 9.12594 4.98726 9.3145L6.44862 10.7759C7.35371 10.3233 8.20224 9.71048 8.95649 8.95623Z" fill="#43B02A"/>
</g>
<defs>
<clipPath id="clip0">
<rect width="16" height="6" fill="white" transform="translate(15.5562 4.24219) rotate(135)"/>
</clipPath>
</defs>
</svg>
