<svg width="100%" height="100%" viewBox="0 0 12 13" fill="none" xmlns="http://www.w3.org/2000/svg">
<path fill-rule="evenodd" clip-rule="evenodd" d="M8.8455 13H7.2299C6.58367 13 6.52306 12.3291 6.49477 12.0421C6.49277 11.9714 6.48471 11.9011 6.47054 11.8319C6.30494 11.2902 5.63448 11.0477 5.03667 11.0477C4.4389 11.0477 3.76844 11.2902 3.60284 11.8319C3.59063 11.9014 3.58253 11.9716 3.57857 12.0421C3.55033 12.3291 3.48975 13 2.84352 13H1.2036H0.799716C0.643826 12.9918 0.489983 12.9604 0.343313 12.9071C0.239579 12.8673 0.152548 12.7931 0.096918 12.6969C0.0446281 12.5947 0.0117585 12.4837 0 12.3695C0 12.2846 0 12.2118 0 12.1391C0 12.0663 0 12.0097 0 11.9451V10.1302C0 9.48348 0.690681 9.42282 0.985536 9.39859C1.05747 9.39414 1.129 9.3847 1.19959 9.37031C1.46189 9.2745 1.67256 9.0739 1.7812 8.81655C2.02051 8.26666 2.03071 7.64394 1.80948 7.08656C1.70655 6.80894 1.48158 6.59422 1.19959 6.50452C1.129 6.49009 1.05747 6.48068 0.985536 6.47623C0.690681 6.45196 0 6.39135 0 5.74463V4.15611C0 3.78024 0.0605757 3.28303 0.367545 3.08902C0.718253 2.93406 1.11083 2.90132 1.48234 2.99606C1.59538 2.99606 1.70045 3.02434 1.77719 3.02434C1.85389 3.02434 2.01953 3.02434 2.18108 3.05668C2.38409 3.0887 2.58964 3.10086 2.79502 3.09307C2.82535 3.00728 2.84967 2.91949 2.86775 2.83032C2.8959 2.70855 2.93095 2.58839 2.97273 2.47058C3.32054 1.34216 4.51662 0.709508 5.64423 1.05759C6.31951 1.26599 6.8478 1.79491 7.0562 2.47058C7.14506 2.81733 7.19917 3.17213 7.21779 3.5296C7.21779 3.71957 7.26625 3.97826 7.27836 4.03482C7.32767 4.2581 7.1863 4.47885 6.96329 4.52798C6.74036 4.5771 6.51985 4.43594 6.47054 4.21271C6.47054 4.1157 6.43014 3.93381 6.39384 3.61851C6.35745 3.30326 6.313 2.86266 6.28071 2.7616C6.09226 2.04949 5.36261 1.62512 4.651 1.8137C4.188 1.93645 3.82643 2.29834 3.70377 2.7616C3.67393 2.84338 3.64965 2.92716 3.63107 3.01223C3.60181 3.30664 3.45648 3.57722 3.22719 3.76406C2.8547 3.9118 2.44578 3.94142 2.05587 3.84891C1.93473 3.84891 1.82966 3.82063 1.7489 3.82063C1.61368 3.81658 1.47877 3.80442 1.34497 3.78425C1.17006 3.75632 0.992975 3.74416 0.815884 3.7479C0.787423 3.88072 0.773884 4.01624 0.775487 4.15205V5.6395C0.848176 5.6395 0.957252 5.66378 1.02593 5.67184C1.15274 5.67763 1.27865 5.69661 1.40154 5.72845C1.91321 5.88519 2.32619 6.26579 2.52439 6.76321C2.84379 7.54266 2.83065 8.41889 2.48805 9.18836C2.28129 9.65206 1.89037 10.0082 1.40965 10.1706C1.28631 10.2005 1.16062 10.2194 1.034 10.2272L0.783592 10.2555V11.743L0.379659 11.7996H0.783592V11.9289C0.783592 11.9855 0.783592 12.0421 0.783592 12.0946C0.785418 12.1283 0.785418 12.162 0.783592 12.1957H0.852227C0.977429 12.1957 1.09052 12.1957 1.20766 12.1957H2.74656C2.74656 12.1269 2.76673 12.034 2.77484 11.9693C2.77916 11.8462 2.79814 11.7241 2.83136 11.6055C3.07776 10.7971 3.94615 10.2433 5.03667 10.2433C6.12723 10.2433 6.99563 10.7769 7.24202 11.6055C7.27471 11.7257 7.29534 11.849 7.3026 11.9733C7.3026 12.034 7.30259 12.1269 7.32687 12.1957H8.81726C8.95293 12.1971 9.08825 12.1836 9.22115 12.1552C9.22521 11.9778 9.21189 11.8004 9.18076 11.6257C9.18076 11.4721 9.14441 11.3307 9.14441 11.2215C9.14441 11.1124 9.14441 11.0356 9.12018 10.9143C9.02847 10.5244 9.05675 10.1158 9.20098 9.74217C9.38755 9.5127 9.65818 9.36723 9.95223 9.33797C10.0387 9.31935 10.1235 9.29508 10.2067 9.2652C10.7677 9.07372 11.1611 8.56704 11.2083 7.97581C11.1579 7.38517 10.7609 6.88133 10.1986 6.69449C10.1154 6.6646 10.0306 6.64032 9.94417 6.6217C9.65007 6.59239 9.37949 6.44698 9.19287 6.21755C9.04869 5.84386 9.02041 5.43529 9.11207 5.04535C9.11207 4.92406 9.13635 4.819 9.13635 4.73816C9.13635 4.65732 9.13635 4.56436 9.13635 4.47541L9.16864 4.21672C9.16864 4.13588 9.17674 4.05504 9.19287 3.97424C9.19692 3.91634 9.19692 3.85827 9.19287 3.80041C9.19492 3.78428 9.19492 3.76803 9.19287 3.75191H9.07573H8.86572L8.61126 3.78425L8.35275 3.81257H8.11041H8.0175C7.79453 3.83712 7.59379 3.67606 7.56921 3.45278C7.54453 3.22959 7.70568 3.0287 7.92865 3.00412H8.00539C8.11042 3.00412 8.18715 3.00412 8.28002 3.00412L8.48606 2.9799L8.79304 2.94351C8.89802 2.93745 9.00304 2.93745 9.10806 2.94351C9.2252 2.94507 9.34109 2.96559 9.45138 3.00412C9.61172 3.06536 9.75149 3.17034 9.85526 3.30726C9.93566 3.42805 9.98412 3.56702 9.99664 3.71146C10.0051 3.82045 10.0051 3.92993 9.99664 4.03888C9.99664 4.13994 9.99664 4.23695 9.9684 4.33797L9.93606 4.5967C9.93201 4.65188 9.93201 4.70725 9.93606 4.76243C9.93326 4.89766 9.92235 5.0326 9.90373 5.16658C9.87504 5.37008 9.86457 5.57569 9.87143 5.78101C9.94417 5.80524 10.0572 5.83353 10.134 5.85375C10.2543 5.88136 10.3731 5.91646 10.4894 5.95886C11.3538 6.26667 11.9491 7.06323 12 7.97986C11.9608 8.90807 11.3635 9.7199 10.4894 10.0331C10.3731 10.0755 10.2543 10.1107 10.134 10.1383C10.0572 10.1383 9.94012 10.1868 9.86743 10.211C9.86413 10.4164 9.87629 10.6218 9.90373 10.8254C9.92235 10.9594 9.93326 11.0944 9.93606 11.2296C9.94092 11.3285 9.95143 11.4271 9.9684 11.5247C10.0629 11.8964 10.0302 12.2893 9.87549 12.6403C9.70183 12.9353 9.22521 13 8.8455 13Z"/>
</svg>
