<svg width="100%" height="100%" viewBox="0 0 16 16" fill="none" xmlns="http://www.w3.org/2000/svg">
<path fill-rule="evenodd" clip-rule="evenodd" d="M14.8023 8.6123H1.19771C0.904558 8.6123 0.666687 8.33854 0.666687 8.0012C0.666687 7.66385 0.904558 7.39008 1.19771 7.39008L14.8023 7.39008C15.0954 7.39008 15.3334 7.66385 15.3334 8.0012C15.3334 8.33854 15.0954 8.6123 14.8023 8.6123Z" />
<path fill-rule="evenodd" clip-rule="evenodd" d="M7.99991 15.334C7.66254 15.334 7.38879 15.0375 7.38879 14.6721L7.38879 1.32918C7.38879 0.963824 7.66254 0.667317 7.99991 0.667317C8.33727 0.667317 8.61102 0.963824 8.61102 1.32918V14.6721C8.61102 15.0375 8.33727 15.334 7.99991 15.334Z" />
</svg>
