<svg width="100%" height="100%" viewBox="0 0 24 24" fill="none" xmlns="http://www.w3.org/2000/svg">
<circle cx="12" cy="12" r="11.5" fill="#26890D" stroke="#26890D"/>
<path fill-rule="evenodd" clip-rule="evenodd" d="M9.02765 18.4497C8.87406 18.4491 8.72689 18.3869 8.61934 18.2768L5.28998 14.8954C4.849 14.4282 4.38495 13.9841 3.89845 13.5647C3.77194 13.461 3.64542 13.3458 3.52468 13.2306L3.47872 13.1845C3.24872 12.965 3.23946 12.5998 3.45856 12.3694C3.67765 12.139 4.04225 12.1297 4.27225 12.3492L4.31817 12.3953C4.42173 12.4932 4.51944 12.5912 4.6287 12.6776C5.14678 13.1229 5.64191 13.5935 6.11224 14.0889L9.02765 17.0499L19.1135 6.77293C19.336 6.54542 19.7 6.54139 19.9271 6.76431C20.1542 6.98722 20.1582 7.35189 19.9357 7.57944L9.44167 18.2768C9.33291 18.388 9.18345 18.4508 9.02765 18.4497Z" fill="white"/>
</svg>
