<svg width="100%" height="100%" viewBox="0 0 20 20" fill="none" xmlns="http://www.w3.org/2000/svg">
<path d="M0 10C0 4.47715 4.47715 0 10 0C15.5228 0 20 4.47715 20 10C20 15.5228 15.5228 20 10 20C4.47715 20 0 15.5228 0 10Z" fill="white"/>
<path fill-rule="evenodd" clip-rule="evenodd" d="M10 20C4.47708 20 0 15.5228 0 10C0 4.4772 4.47708 0 10 0C15.5229 0 20 4.4772 20 10C20 15.5228 15.5229 20 10 20ZM10 0.833368C4.93752 0.833368 0.833339 4.93738 0.833339 10C0.833339 15.0626 4.93752 19.1666 10 19.1666C15.0625 19.1666 19.1666 15.0626 19.1666 10C19.1666 4.93738 15.0625 0.833368 10 0.833368Z" fill="#1E1E1E"/>
<path fill-rule="evenodd" clip-rule="evenodd" d="M8.44756 14.2461C7.47292 14.2461 6.31717 13.3507 5.83178 12.8644C3.89206 10.9251 3.88895 7.77774 5.8252 5.83453C7.7611 3.89132 10.9027 3.88822 12.8424 5.82795C14.7818 7.7673 14.7848 10.9146 12.849 12.8579C12.2988 13.4102 11.6262 13.825 10.8862 14.0686C10.6816 14.1273 10.4686 14.0083 10.41 13.8034C10.3546 13.6093 10.4582 13.4051 10.6473 13.3353C12.844 12.6039 14.0329 10.2269 13.3028 8.02628C13.0982 7.40953 12.7538 6.84877 12.2962 6.38832C10.7282 4.6852 8.07893 4.5783 6.37882 6.14905C4.6787 7.72022 4.57203 10.3739 6.13997 12.0771C6.21623 12.1601 6.29597 12.24 6.37882 12.3164C6.87576 12.8142 7.87354 13.509 8.48991 13.4742C8.70259 13.4646 8.88289 13.6298 8.89253 13.8428C8.90213 14.0558 8.73731 14.2365 8.52463 14.2461H8.44756Z" fill="#1E1E1E"/>
<path fill-rule="evenodd" clip-rule="evenodd" d="M15.2393 15.6504C15.1384 15.65 15.0413 15.6098 14.9697 15.5385L12.3037 12.8716C12.1527 12.7203 12.1527 12.4749 12.3037 12.3236C12.4547 12.1723 12.6998 12.1723 12.8508 12.3236L15.5128 14.9943C15.6623 15.1448 15.6623 15.3879 15.5128 15.5385C15.4401 15.6107 15.3418 15.6512 15.2393 15.6504Z" fill="#1E1E1E"/>
<path fill-rule="evenodd" clip-rule="evenodd" d="M6.25166 9.49902C6.08949 9.49902 5.94461 9.3971 5.88951 9.24428C5.5659 8.34233 5.61294 7.34815 6.02054 6.48091C6.44543 5.60292 7.18164 4.91479 8.08542 4.55121C8.28344 4.47133 8.50844 4.56705 8.58819 4.76541C8.66793 4.96377 8.57234 5.18916 8.37436 5.26907C7.48252 5.60138 6.80332 6.34198 6.54833 7.26054C6.87346 6.82405 7.29371 6.46778 7.77723 6.21852C7.96485 6.11775 8.19829 6.18836 8.29885 6.37635C8.30077 6.38022 8.30307 6.38404 8.30503 6.38829C8.40325 6.57743 8.32932 6.8105 8.14052 6.90856C8.14014 6.90894 8.13976 6.90894 8.13938 6.90932C7.2876 7.34079 6.72206 8.18641 6.64847 9.14011C6.63772 9.32224 6.5013 9.472 6.32099 9.49902H6.25166Z" fill="#1E1E1E"/>
</svg>
