<svg width="27" height="30" viewBox="0 0 27 30" fill="none" xmlns="http://www.w3.org/2000/svg">
<path fill-rule="evenodd" clip-rule="evenodd" d="M17.0954 30C13.7565 30 9.85926 29.6893 6.4997 27.4421C6.02318 27.1241 5.89299 26.48 6.21025 26.0026C6.52659 25.5252 7.17055 25.3946 7.64707 25.7126C10.5726 27.6595 14.0666 27.9185 17.0954 27.9287C18.2118 27.9287 20.1139 27.6906 20.1966 26.8208C20.1966 26.4479 20.1966 26.3029 18.8838 25.9507C18.5323 25.87 18.1871 25.7665 17.85 25.6401C17.3187 25.4299 17.0582 24.8282 17.2681 24.297C17.4262 23.8961 17.8139 23.6363 18.2429 23.6415H18.615C19.4936 23.6415 21.3337 23.7761 21.4579 23.1858C21.5818 22.5955 21.3027 22.4505 21.0959 22.3676C20.8562 22.2703 20.606 22.1978 20.3518 22.1502C19.9371 22.0622 19.5298 21.9451 19.132 21.7981C18.5954 21.6024 18.3195 21.008 18.5146 20.4705C18.6822 20.0117 19.1454 19.732 19.6281 19.7993C21.0339 19.9857 22.7292 19.7476 22.8739 19.0434C22.9443 18.9035 22.9443 18.7379 22.8739 18.5981C22.3673 18.0771 21.6944 17.751 20.9718 17.6764C20.4013 17.6225 19.9826 17.1141 20.0364 16.5424C20.0901 15.9708 20.5977 15.5513 21.1683 15.6052H23.5769C23.796 15.6113 24.0038 15.511 24.1351 15.3359C24.7089 14.5519 24.5403 13.4502 23.7578 12.8754C23.3898 12.6051 22.9328 12.489 22.4812 12.5501H16.7336C15.5232 12.5533 14.5389 11.5736 14.5359 10.3609C14.5359 10.2688 14.5411 10.1767 14.5525 10.0855C14.8181 7.8838 14.8181 5.65933 14.5525 3.45766C14.446 2.62911 13.6894 2.04508 12.8623 2.15179C12.2669 2.22942 11.7738 2.65189 11.6063 3.22975L10.5726 7.05113C10.3059 7.90453 9.98135 8.7381 9.60093 9.54692C8.32938 12.1877 5.98282 17.1068 0.607414 14.6525C0.0884888 14.4174 -0.142027 13.8064 0.0906456 13.2855C0.325142 12.7656 0.935152 12.5346 1.4551 12.7677C4.4632 14.145 5.87954 12.5399 7.72987 8.62523C8.07198 7.92003 8.35833 7.18986 8.58792 6.44008L9.62153 2.63957C10.1363 0.734989 12.0953 -0.390627 13.9963 0.125105C15.4135 0.509283 16.4514 1.72509 16.6096 3.18839C16.8969 5.55478 16.8969 7.94694 16.6096 10.3133C16.6096 10.4272 16.6819 10.448 16.7336 10.448H22.4812C24.3905 10.3661 26.0786 11.6812 26.4714 13.5547C26.6812 14.6493 26.4093 15.7812 25.727 16.6615C25.4324 17.0198 25.0521 17.2984 24.621 17.4693C24.9993 18.0907 25.1006 18.8414 24.9 19.5404C24.6406 20.4 23.9997 21.0919 23.1634 21.4148C23.5489 22.0507 23.675 22.8109 23.5148 23.5378C23.3608 24.4047 22.7395 25.1141 21.9022 25.3812C22.1545 25.8317 22.2661 26.3475 22.2227 26.8622C22.1193 28.8815 20.2482 30 17.0954 30Z" fill="#AFCAE2"/>
</svg>
