<svg width="100%" height="100%" viewBox="0 0 20 20" fill="none" xmlns="http://www.w3.org/2000/svg">
<path d="M0 10C0 4.47715 4.47715 0 10 0C15.5228 0 20 4.47715 20 10C20 15.5228 15.5228 20 10 20C4.47715 20 0 15.5228 0 10Z" fill="white"/>
<path fill-rule="evenodd" clip-rule="evenodd" d="M10 20C4.47708 20 0 15.5228 0 10C0 4.4772 4.47708 0 10 0C15.5229 0 20 4.4772 20 10C20 15.5228 15.5229 20 10 20ZM10 0.833368C4.93752 0.833368 0.833339 4.93738 0.833339 10C0.833339 15.0626 4.93752 19.1666 10 19.1666C15.0625 19.1666 19.1666 15.0626 19.1666 10C19.1666 4.93738 15.0625 0.833368 10 0.833368Z" fill="#1E1E1E"/>
<path fill-rule="evenodd" clip-rule="evenodd" d="M13.3491 16.25H6.66763C6.43697 16.25 6.25001 16.0632 6.25001 15.833V7.01697C6.24941 6.90605 6.29292 6.79971 6.37112 6.72092C6.44991 6.64292 6.5566 6.59912 6.66763 6.59996H7.34409V5.52403C7.34409 4.27295 8.77226 3.28459 10.0042 3.28459C11.1567 3.28459 12.873 4.22291 12.873 5.52403V6.6083H13.3324C13.5629 6.6083 13.75 6.79514 13.75 7.02535C13.75 7.25552 13.5629 7.44237 13.3324 7.44237H12.873V7.78016H13.3324C13.4434 7.77933 13.5499 7.82309 13.6289 7.90108C13.7069 7.97991 13.7508 8.08626 13.75 8.19718V15.833C13.75 16.0569 13.5733 16.2413 13.3491 16.25ZM7.0852 15.4159H12.9315V8.61419H12.4554C12.3439 8.6138 12.237 8.56876 12.1589 8.4891C12.0817 8.41154 12.0382 8.30643 12.0378 8.19718V7.43403H8.20433V8.19301C8.20433 8.42322 8.01737 8.61002 7.78676 8.61002C7.5561 8.61002 7.36914 8.42322 7.36914 8.19301V7.42986H7.10611L7.0852 15.4159ZM8.17928 6.59579H12.0378V5.51569C12.0378 4.81926 10.8519 4.11032 10.0042 4.11032C9.15645 4.11032 8.17928 4.76923 8.17928 5.51569V6.59579Z" fill="#1E1E1E"/>
</svg>
