<svg version="1.1" xmlns="http://www.w3.org/2000/svg" xmlns:xlink="http://www.w3.org/1999/xlink" x="0px" y="0px" viewBox="0 0 100 100" style="enable-background:new 0 0 100 100;" xml:space="preserve">
<style type="text/css">
	.qualtricsGradient{fill:url(#qualtricsGradient);}
</style>
<circle cx="50" cy="50" r="50" fill="white" />
<linearGradient id="qualtricsGradient" gradientUnits="userSpaceOnUse" x1="-446.5663" y1="537.3601" x2="-445.5363" y2="535.9864" gradientTransform="matrix(63.533 0 0 -34.431 28392.2578 18530.3965)">
  <stop  offset="0" style="stop-color:#21DBAA"/>
  <stop  offset="7.200000e-02" style="stop-color:#17D0BC"/>
  <stop  offset="0.227" style="stop-color:#06BBE1"/>
  <stop  offset="0.309" style="stop-color:#00B4EF"/>
  <stop  offset="0.387" style="stop-color:#01A7EC"/>
  <stop  offset="0.529" style="stop-color:#0487E4"/>
  <stop  offset="0.646" style="stop-color:#0768DD"/>
  <stop  offset="1" style="stop-color:#5F1AE5"/>
</linearGradient>
<path style="fill:url(#qualtricsGradient);" d="M77.1,28.2l-9,31.9H68
  l-9.7-31.9H37.2l-7.3,13l-7.8-13H11.2l12.6,20.4L10,71.5h10.3l8.8-15.1l9.2,15.1h16.3V41.6h0.1c0.2,1.3,0.4,2.3,0.6,3.2
  c0.2,0.9,0.4,1.7,0.6,2.5c0.2,0.8,0.4,1.5,0.6,2.2s0.4,1.4,0.7,2.2l6.4,19.8h8.6l6.3-19.8c0.5-1.6,0.9-3.1,1.3-4.6
  c0.4-1.6,0.8-3.3,1-5H81v29.4h9V28.2H77.1z M34.4,48.6l11.3-18.7v37L34.4,48.6z"/>
</svg>
