<svg width="100%" height="100%" viewBox="0 0 42 42" fill="none" xmlns="http://www.w3.org/2000/svg">
<path fill-rule="evenodd" clip-rule="evenodd" d="M21 42C9.40182 42 0 32.598 0 21C0 9.40208 9.40182 0 21 0C32.598 0 42 9.40208 42 21C42 32.598 32.598 42 21 42ZM21 1.75005C10.3688 1.75005 1.75002 10.3685 1.75002 21C1.75002 31.6315 10.3688 40.2501 21 40.2501C31.6312 40.2501 40.25 31.6315 40.25 21C40.25 10.3685 31.6312 1.75005 21 1.75005Z" />
<path fill-rule="evenodd" clip-rule="evenodd" d="M21.3049 31.9784C16.8338 31.994 12.7324 29.4962 10.6882 25.5129C10.4881 25.1177 10.6422 24.6346 11.035 24.4299C11.4303 24.2242 11.9176 24.3787 12.1225 24.7748C12.1233 24.7756 12.1233 24.7766 12.1241 24.7774C14.7291 29.8551 20.9491 31.856 26.018 29.2466C29.2118 27.6023 31.3222 24.4128 31.5908 20.8254C31.6255 20.3817 32.0112 20.0494 32.4541 20.0818C32.8985 20.116 33.231 20.5045 33.1971 20.9495C33.1962 20.9512 33.1963 20.953 33.1963 20.9547C32.6856 27.1626 27.5224 31.9493 21.3049 31.9784Z" />
<path fill-rule="evenodd" clip-rule="evenodd" d="M9.80989 20.8906H9.74538C9.30081 20.8564 8.96848 20.4679 9.00238 20.0228C9.00238 20.0228 9.00308 20.0195 9.00308 20.0177C9.51945 13.4364 15.2634 8.52062 21.8327 9.03796C25.9641 9.36331 29.6315 11.8126 31.5193 15.508C31.7106 15.9113 31.5387 16.3933 31.1362 16.5846C30.7505 16.768 30.289 16.6185 30.0833 16.2434C27.4825 11.164 21.2632 9.15879 16.1928 11.7647C13.0087 13.4011 10.8991 16.5733 10.6166 20.147C10.5827 20.5679 10.2318 20.892 9.80989 20.8906Z" />
<path fill-rule="evenodd" clip-rule="evenodd" d="M10.3342 31.1445H10.1729C9.73645 31.0554 9.45498 30.6285 9.54368 30.1911V30.1909L10.6247 24.9618C10.694 24.6349 10.957 24.3842 11.2861 24.3314C11.387 24.3117 11.4919 24.3117 11.5927 24.3314L16.7963 25.4144C17.2294 25.5073 17.5069 25.9332 17.4174 26.368C17.3287 26.8054 16.9026 27.0877 16.4655 26.9986V26.9984L12.0445 26.0771L11.1249 30.5222C11.0385 30.8889 10.7102 31.1471 10.3342 31.1445Z" />
<path fill-rule="evenodd" clip-rule="evenodd" d="M30.7773 16.6855C30.724 16.6934 30.6692 16.6934 30.6159 16.6855L25.4125 15.6026C24.9672 15.5132 24.6783 15.0791 24.767 14.6327C24.8558 14.1864 25.2898 13.8968 25.7351 13.9862L30.1642 14.9075L31.0837 10.4786C31.1725 10.0322 31.6065 9.74272 32.0519 9.83196C32.4972 9.92128 32.786 10.3555 32.6972 10.8019L31.6082 16.0309C31.538 16.3708 31.2589 16.6281 30.9144 16.6694L30.7773 16.6855Z" />
</svg>
