<svg width="100%" height="100%" viewBox="0 0 23 23" fill="none" xmlns="http://www.w3.org/2000/svg">
<path d="M0.648438 11.5335C0.648438 17.5392 5.50793 22.4062 11.5008 22.4062C11.6473 22.4062 11.7678 22.2868 11.7678 22.1378C11.7678 21.9888 11.6474 21.8694 11.5008 21.8694C5.80145 21.8694 1.18255 17.241 1.18255 11.5335C1.18255 5.82599 5.80145 1.19756 11.5008 1.19756C11.6474 1.19756 11.7678 1.07815 11.7678 0.929161C11.7678 0.780151 11.6473 0.660736 11.5008 0.660736C5.50792 0.660736 0.648438 5.52773 0.648438 11.5335Z" fill="#1E1E1E" stroke="#1E1E1E"/>
<path d="M20.7851 6.95555L20.764 6.95855C20.7622 6.95881 20.7601 6.95896 20.7581 6.95898L15.8352 5.93436L15.8316 5.93361L15.8316 5.93362C15.6799 5.90323 15.5793 5.75438 15.6101 5.59932L20.7851 6.95555ZM20.7851 6.95555L20.8064 6.95437M20.7851 6.95555L20.8064 6.95437M20.8064 6.95437L20.9119 6.94849C21.0113 6.92508 21.0903 6.84573 21.1121 6.74288L21.1124 6.74149L22.1852 1.75134C22.2142 1.59746 22.1141 1.45016 21.9631 1.41988C21.811 1.38938 21.6619 1.4883 21.6314 1.64179L21.6315 1.6418L21.6303 1.64752L20.7405 5.86625L20.6376 6.35414M20.8064 6.95437L20.6376 6.35414M20.6376 6.35414L20.1494 6.25259M20.6376 6.35414L20.1494 6.25259M20.1494 6.25259L15.9406 5.37702M20.1494 6.25259L15.9406 5.37702M15.9406 5.37702C15.7891 5.34738 15.6406 5.44613 15.6101 5.59923L15.9406 5.37702Z" fill="#1E1E1E" stroke="#1E1E1E"/>
<path d="M21.0159 6.91033L21.016 6.9103C21.1476 6.84774 21.2053 6.69075 21.1455 6.55762C19.4275 3.20311 16.0971 0.980506 12.3457 0.68507C6.37788 0.215094 1.15807 4.67918 0.685634 10.6591C0.685194 10.6661 0.684582 10.6738 0.683732 10.6819C0.679699 10.8191 0.779373 10.9363 0.91282 10.9555C1.0395 10.9477 1.14506 10.8504 1.16124 10.7203C1.40895 7.06262 3.57366 3.80992 6.85073 2.1748C11.9448 -0.367032 18.1297 1.70615 20.6716 6.80353C20.7418 6.92365 20.8913 6.9696 21.0159 6.91033Z" fill="#1E1E1E" stroke="#1E1E1E"/>
<path d="M20.5693 16.3651C20.5581 16.5013 20.6504 16.6229 20.7809 16.6504H20.8333C20.9668 16.6497 21.0805 16.5499 21.0972 16.4144C21.1143 16.268 21.0104 16.136 20.8661 16.1174C20.725 16.1014 20.5949 16.1999 20.5723 16.3422C20.5716 16.3493 20.5706 16.3569 20.5693 16.3651Z" fill="#1E1E1E" stroke="#1E1E1E"/>
<path d="M12.2512 21.8232C6.57643 22.2728 1.61307 18.0303 1.16066 12.3482C1.14477 12.2109 1.02946 12.1096 0.894173 12.1103L0.88964 12.1103C0.883084 12.1103 0.876356 12.1105 0.867647 12.1112C0.721668 12.1231 0.611502 12.2512 0.622903 12.3997C1.09886 18.0473 5.80572 22.3915 11.4618 22.4062C15.518 22.3997 19.2304 20.1223 21.081 16.5057L21.1862 16.2668C21.2383 16.1288 21.1706 15.9747 21.0349 15.9199C20.9007 15.8659 20.7486 15.9276 20.6894 16.0592C20.669 16.1189 20.6438 16.1801 20.6124 16.2413L20.6124 16.2414C18.9802 19.4281 15.8163 21.5409 12.2512 21.8232ZM12.2512 21.8232L12.2117 21.3247L12.2512 21.8232Z" fill="#1E1E1E" stroke="#1E1E1E"/>
</svg>
