<svg width="14" height="14" viewBox="0 0 14 14" fill="none" xmlns="http://www.w3.org/2000/svg">
<mask id="path-1-inside-1_8336:3662" fill="white">
<path fill-rule="evenodd" clip-rule="evenodd" d="M7.00062 13.6914C3.32231 13.6914 0.340576 10.7042 0.340576 7.01937C0.340576 3.3345 3.32231 0.347373 7.00062 0.347373C7.24905 0.347373 7.45063 0.54921 7.45063 0.798182C7.45063 1.04715 7.24905 1.24898 7.00062 1.24898C3.81951 1.24898 1.24059 3.8325 1.24059 7.01937C1.24059 10.2063 3.81951 12.7898 7.00062 12.7898C7.24905 12.7898 7.45063 12.9916 7.45063 13.2406C7.45063 13.4896 7.24905 13.6914 7.00062 13.6914Z"/>
</mask>
<path fill-rule="evenodd" clip-rule="evenodd" d="M7.00062 13.6914C3.32231 13.6914 0.340576 10.7042 0.340576 7.01937C0.340576 3.3345 3.32231 0.347373 7.00062 0.347373C7.24905 0.347373 7.45063 0.54921 7.45063 0.798182C7.45063 1.04715 7.24905 1.24898 7.00062 1.24898C3.81951 1.24898 1.24059 3.8325 1.24059 7.01937C1.24059 10.2063 3.81951 12.7898 7.00062 12.7898C7.24905 12.7898 7.45063 12.9916 7.45063 13.2406C7.45063 13.4896 7.24905 13.6914 7.00062 13.6914Z" fill="#1E1E1E"/>
<path d="M7.00062 14.6914C2.76832 14.6914 -0.659424 11.2548 -0.659424 7.01937H1.34058C1.34058 10.1537 3.8763 12.6914 7.00062 12.6914V14.6914ZM-0.659424 7.01937C-0.659424 2.78391 2.76833 -0.652627 7.00062 -0.652627V1.34737C3.87629 1.34737 1.34058 3.88509 1.34058 7.01937H-0.659424ZM7.00062 -0.652627C7.80286 -0.652627 8.45063 -0.00154305 8.45063 0.798182H6.45063C6.45063 1.09996 6.69523 1.34737 7.00062 1.34737V-0.652627ZM8.45063 0.798182C8.45063 1.59795 7.80282 2.24898 7.00062 2.24898V0.248976C6.69527 0.248976 6.45063 0.496359 6.45063 0.798182H8.45063ZM7.00062 2.24898C4.37348 2.24898 2.24059 4.38309 2.24059 7.01937H0.240589C0.240589 3.2819 3.26553 0.248976 7.00062 0.248976V2.24898ZM2.24059 7.01937C2.24059 9.6557 4.37349 11.7898 7.00062 11.7898V13.7898C3.26553 13.7898 0.240589 10.7569 0.240589 7.01937H2.24059ZM7.00062 11.7898C7.80282 11.7898 8.45063 12.4408 8.45063 13.2406H6.45063C6.45063 13.5424 6.69527 13.7898 7.00062 13.7898V11.7898ZM8.45063 13.2406C8.45063 14.0403 7.80286 14.6914 7.00062 14.6914V12.6914C6.69523 12.6914 6.45063 12.9388 6.45063 13.2406H8.45063Z" fill="#1E1E1E" mask="url(#path-1-inside-1_8336:3662)"/>
<mask id="path-3-inside-2_8336:3662" fill="white">
<path fill-rule="evenodd" clip-rule="evenodd" d="M12.476 4.62574C12.4462 4.62996 12.4156 4.62996 12.3859 4.62574L9.48342 4.02164C9.23504 3.97187 9.07396 3.72965 9.12343 3.48068C9.17296 3.2317 9.41508 3.07021 9.66346 3.12004L12.1339 3.63397L12.6559 1.15898C12.7054 0.910007 12.9475 0.748533 13.1959 0.798357C13.4443 0.848181 13.6054 1.09035 13.5559 1.33932L12.9259 4.26963C12.8872 4.45196 12.7405 4.5918 12.5569 4.62123L12.476 4.62574Z"/>
</mask>
<path fill-rule="evenodd" clip-rule="evenodd" d="M12.476 4.62574C12.4462 4.62996 12.4156 4.62996 12.3859 4.62574L9.48342 4.02164C9.23504 3.97187 9.07396 3.72965 9.12343 3.48068C9.17296 3.2317 9.41508 3.07021 9.66346 3.12004L12.1339 3.63397L12.6559 1.15898C12.7054 0.910007 12.9475 0.748533 13.1959 0.798357C13.4443 0.848181 13.6054 1.09035 13.5559 1.33932L12.9259 4.26963C12.8872 4.45196 12.7405 4.5918 12.5569 4.62123L12.476 4.62574Z" fill="#1E1E1E"/>
<path d="M12.476 4.62574L12.3355 3.63566L12.3777 3.62967L12.4203 3.62729L12.476 4.62574ZM12.3859 4.62574L12.2454 5.61582L12.2136 5.61131L12.1821 5.60476L12.3859 4.62574ZM9.48342 4.02164L9.67992 3.04111L9.68718 3.04262L9.48342 4.02164ZM9.12343 3.48068L8.14261 3.28576L8.14265 3.28557L9.12343 3.48068ZM9.66346 3.12004L9.86014 2.13954L9.86713 2.141L9.66346 3.12004ZM12.1339 3.63397L13.1124 3.84034L12.9066 4.81612L11.9303 4.61301L12.1339 3.63397ZM12.6559 1.15898L13.6368 1.35391L13.6344 1.36535L12.6559 1.15898ZM13.5559 1.33932L14.5367 1.53442L14.5352 1.54198L14.5336 1.54951L13.5559 1.33932ZM12.9259 4.26963L11.9476 4.06221L11.9482 4.05945L12.9259 4.26963ZM12.5569 4.62123L12.7152 5.60863L12.6642 5.6168L12.6126 5.61968L12.5569 4.62123ZM12.6165 5.61582C12.4935 5.63327 12.3683 5.63327 12.2454 5.61582L12.5264 3.63566C12.4629 3.62665 12.3989 3.62665 12.3355 3.63566L12.6165 5.61582ZM12.1821 5.60476L9.27965 5.00066L9.68718 3.04262L12.5897 3.64672L12.1821 5.60476ZM9.28693 5.00215C8.49516 4.84348 7.98611 4.07332 8.14261 3.28576L10.1043 3.67559C10.1618 3.38598 9.97493 3.10026 9.67991 3.04113L9.28693 5.00215ZM8.14265 3.28557C8.29991 2.49503 9.06893 1.98085 9.86014 2.13957L9.46678 4.1005C9.76123 4.15957 10.046 3.96838 10.1042 3.67578L8.14265 3.28557ZM9.86713 2.141L12.3376 2.65493L11.9303 4.61301L9.45979 4.09908L9.86713 2.141ZM11.1555 3.4276L11.6775 0.952609L13.6344 1.36535L13.1124 3.84034L11.1555 3.4276ZM11.6751 0.964067C11.8323 0.173312 12.6014 -0.340798 13.3925 -0.182118L12.9993 1.77883C13.2936 1.83786 13.5786 1.6467 13.6368 1.35389L11.6751 0.964067ZM13.3925 -0.182118C14.184 -0.023387 14.6934 0.7465 14.5367 1.53442L12.5751 1.14422C12.5174 1.4342 12.7047 1.71975 12.9993 1.77883L13.3925 -0.182118ZM14.5336 1.54951L13.9036 4.47982L11.9482 4.05945L12.5782 1.12914L14.5336 1.54951ZM13.9042 4.47705C13.78 5.06243 13.3086 5.51352 12.7152 5.60863L12.3987 3.63383C12.1725 3.67008 11.9945 3.84149 11.9477 4.06221L13.9042 4.47705ZM12.6126 5.61968L12.5316 5.62419L12.4203 3.62729L12.5013 3.62278L12.6126 5.61968Z" fill="#1E1E1E" mask="url(#path-3-inside-2_8336:3662)"/>
<path d="M0.860478 6.52808C0.860523 6.52749 0.860557 6.5269 0.86058 6.52631L0.81111 6.52243L0.810965 6.52431L0.860478 6.52808ZM0.778719 6.52186L0.778729 6.51989L0.729194 6.516C0.729099 6.51666 0.729019 6.51731 0.728952 6.51796L0.732974 6.51837L0.778719 6.52186ZM0.744666 6.48723H0.778897L0.778964 6.47412C0.76543 6.47405 0.753501 6.47916 0.744666 6.48723ZM0.843246 6.48723C0.835603 6.48074 0.825826 6.47644 0.81471 6.47558L0.813815 6.48723H0.843246Z" fill="#1E1E1E" stroke="#1E1E1E"/>
<path d="M12.5262 9.87116L12.4771 9.86505L12.4769 9.86653L12.5261 9.87253C12.5261 9.87207 12.5262 9.87161 12.5262 9.87116Z" fill="#1E1E1E" stroke="#1E1E1E"/>
<path d="M0.774195 7.5054L0.738792 7.06542L1.22611 7.46972L0.778432 7.50507L0.774439 7.50538L0.774195 7.5054ZM0.774195 7.5054L0.774428 7.5083L0.774815 7.51311L0.774195 7.5054Z" fill="#1E1E1E" stroke="#1E1E1E"/>
</svg>
