<svg width="100%" height="100%" viewBox="0 0 16 12" fill="none" xmlns="http://www.w3.org/2000/svg">
<path fill-rule="evenodd" clip-rule="evenodd" d="M15.4537 11.4727H0.546075C0.244614 11.4727 0 11.2276 0 10.9256V1.13876C0 0.836757 0.244614 0.59173 0.546075 0.59173C0.847537 0.59173 1.09215 0.836757 1.09215 1.13876V10.3785H14.9076V1.68581H2.10781C1.80635 1.68581 1.56174 1.4407 1.56174 1.13876C1.56174 0.836757 1.80635 0.59173 2.10781 0.59173H15.4537C15.7551 0.59173 15.9998 0.836757 15.9998 1.13876V10.9256C15.9998 11.2276 15.7551 11.4727 15.4537 11.4727Z" />
<path fill-rule="evenodd" clip-rule="evenodd" d="M11.7185 3.15234C11.4171 3.15234 11.1725 2.90732 11.1725 2.60531V0.548425C11.1725 0.246421 11.4171 0.0013938 11.7185 0.0013938C12.02 0.0013938 12.2646 0.246421 12.2646 0.548425V2.60531C12.2646 2.90732 12.02 3.15234 11.7185 3.15234Z" />
<path fill-rule="evenodd" clip-rule="evenodd" d="M4.26484 3.15234C3.96338 3.15234 3.71877 2.90732 3.71877 2.60531V0.548425C3.71877 0.246421 3.96338 0.0013938 4.26484 0.0013938C4.5663 0.0013938 4.81092 0.246421 4.81092 0.548425V2.60531C4.81092 2.90732 4.5663 3.15234 4.26484 3.15234Z" />
<path fill-rule="evenodd" clip-rule="evenodd" d="M7.98919 3.15234C7.68773 3.15234 7.44312 2.90732 7.44312 2.60531V0.548425C7.44312 0.246421 7.68773 0.0013938 7.98919 0.0013938C8.29065 0.0013938 8.53527 0.246421 8.53527 0.548425V2.60531C8.53527 2.90732 8.29065 3.15234 7.98919 3.15234Z" />
<path fill-rule="evenodd" clip-rule="evenodd" d="M15.4539 6.17188H7.98912C7.68772 6.17188 7.44312 5.92677 7.44312 5.62477C7.44312 5.32277 7.68772 5.07767 7.98912 5.07767H15.4539C15.7554 5.07767 16 5.32277 16 5.62477C16 5.92677 15.7554 6.17188 15.4539 6.17188Z" />
<path fill-rule="evenodd" clip-rule="evenodd" d="M15.4539 8.19922H7.98912C7.68772 8.19922 7.44312 7.95412 7.44312 7.65211C7.44312 7.35011 7.68772 7.10507 7.98912 7.10507H15.4539C15.7554 7.10507 16 7.35011 16 7.65211C16 7.95412 15.7554 8.19922 15.4539 8.19922Z" />
<path fill-rule="evenodd" clip-rule="evenodd" d="M2.10795 9.37699H2.0698C1.78309 9.35676 1.56141 9.11768 1.56195 8.82989C1.56195 7.98199 2.20082 7.64284 2.83428 7.48416C2.67536 7.19529 2.56287 6.88352 2.5012 6.55965C2.26857 5.87633 2.37395 5.12304 2.78514 4.53005C3.47315 3.74009 4.67015 3.658 5.45861 4.34734C5.52365 4.40419 5.58422 4.46496 5.64107 4.53005C6.05713 5.12087 6.16474 5.87579 5.93048 6.55965C5.86105 6.86382 5.74864 7.15649 5.59737 7.42947C6.4711 7.61549 6.92978 8.05854 6.96254 8.76432C7.01818 9.06626 6.81893 9.35675 6.51746 9.41252C6.21606 9.46834 5.92609 9.26871 5.87038 8.96671C5.8649 8.91582 5.8649 8.8644 5.87038 8.81351C5.87038 8.73149 5.87038 8.53452 5.06765 8.45792H4.91474C4.72909 8.45792 4.53248 8.41962 4.33592 8.3868C4.1552 8.42185 3.97335 8.4475 3.78992 8.4634C3.11274 8.53452 2.73601 8.61111 2.69777 8.80261C2.70054 8.82833 2.70054 8.85344 2.69777 8.87916H2.47929L2.69229 8.92293C2.64484 9.20356 2.39087 9.40108 2.10795 9.37699ZM4.22676 5.00051C4.00448 4.99671 3.791 5.08589 3.63702 5.24667C3.45949 5.58481 3.43166 5.98136 3.56053 6.34081C3.67519 6.82221 3.78443 7.10121 4.02471 7.19967C4.11101 7.23803 4.20054 7.267 4.29225 7.28717C4.44515 7.22159 4.7073 7.01913 4.87104 6.34081C4.99997 5.98136 4.9721 5.58481 4.79463 5.24667C4.65215 5.0957 4.45607 5.00707 4.24855 5.00051H4.22676Z" />
</svg>
