<svg width="100%" height="100%" viewBox="0 0 80 80" fill="none" xmlns="http://www.w3.org/2000/svg">
<path fill-rule="evenodd" clip-rule="evenodd" d="M58.7021 53.7427H24.8879C23.7729 53.7427 22.8681 52.8391 22.8681 51.7255L22.3428 22.5565L13.455 19.9544C12.3843 19.6417 11.7684 18.5222 12.0816 17.453C12.3946 16.3838 13.5156 15.7687 14.5861 16.0813L24.9082 19.1071C25.7566 19.3532 26.3442 20.1217 26.3625 21.0034L26.8675 49.6882H57.1669L63.2267 29.516H33.5737C32.4588 29.516 31.5541 28.6122 31.5541 27.4988C31.5541 26.3853 32.4588 25.4815 33.5737 25.4815H65.9941C67.1089 25.4896 68.008 26.3993 68 27.5129C67.9977 27.7065 67.9694 27.8982 67.9131 28.0838L60.6411 52.2903C60.3907 53.1516 59.5989 53.7427 58.7021 53.7427Z" fill="#1E1E1E"/>
<path fill-rule="evenodd" clip-rule="evenodd" d="M27.1911 63.4663C23.3653 63.4663 20.2627 60.3678 20.2627 56.5471C20.2627 52.7265 23.3653 49.628 27.1911 49.628C31.017 49.628 34.1197 52.7265 34.1197 56.5471C34.1197 60.3678 31.017 63.4663 27.1911 63.4663ZM27.1911 53.6825C25.5954 53.6825 24.3026 54.9736 24.3026 56.5672C24.3026 58.1609 25.5954 59.4519 27.1911 59.4519C28.7869 59.4519 30.0797 58.1609 30.0797 56.5672C30.0797 56.5613 30.0797 56.5532 30.0797 56.5471C30.0695 54.9615 28.7787 53.6825 27.1911 53.6825Z" fill="#1E1E1E"/>
<path fill-rule="evenodd" clip-rule="evenodd" d="M56.3993 63.4663C52.5736 63.4784 49.4627 60.3879 49.4507 56.5672C49.4407 52.7466 52.5332 49.6401 56.3589 49.6279C60.1848 49.6179 63.2955 52.7063 63.3077 56.5269C63.3077 56.533 63.3077 56.5411 63.3077 56.547C63.2975 60.3557 60.2131 63.444 56.3993 63.4663ZM56.3993 53.6825C54.8038 53.6706 53.5027 54.9534 53.4906 56.547C53.4804 58.1408 54.7632 59.4398 56.3589 59.4519C57.9547 59.4621 59.2555 58.181 59.2678 56.5874C59.2678 56.5733 59.2678 56.5612 59.2678 56.547C59.2577 54.9695 57.979 53.6927 56.3993 53.6825Z" fill="#1E1E1E"/>
</svg>
