<svg width="100%" height="100%" viewBox="0 0 241 110" fill="none" xmlns="http://www.w3.org/2000/svg">
<path fill-rule="evenodd" clip-rule="evenodd" d="M231.702 69.7428H197.888C196.773 69.7428 195.868 68.8392 195.868 67.7257L195.343 38.5566L186.455 35.9546C185.384 35.6418 184.768 34.5223 185.082 33.4531C185.395 32.384 186.516 31.7689 187.586 32.0814L197.908 35.1072C198.757 35.3533 199.344 36.1219 199.362 37.0036L199.867 65.6883H230.167L236.227 45.5161H206.574C205.459 45.5161 204.554 44.6124 204.554 43.499C204.554 42.3854 205.459 41.4816 206.574 41.4816H238.994C240.109 41.4897 241.008 42.3995 241 43.513C240.998 43.7066 240.969 43.8983 240.913 44.0839L233.641 68.2904C233.391 69.1517 232.599 69.7428 231.702 69.7428Z" fill="url(#paint0_linear_21388_86456)"/>
<path fill-rule="evenodd" clip-rule="evenodd" d="M200.191 79.4662C196.365 79.4662 193.263 76.3677 193.263 72.547C193.263 68.7264 196.365 65.6279 200.191 65.6279C204.017 65.6279 207.12 68.7264 207.12 72.547C207.12 76.3677 204.017 79.4662 200.191 79.4662ZM200.191 69.6824C198.595 69.6824 197.303 70.9735 197.303 72.5671C197.303 74.1608 198.595 75.4518 200.191 75.4518C201.787 75.4518 203.08 74.1608 203.08 72.5671C203.08 72.5612 203.08 72.5531 203.08 72.547C203.069 70.9614 201.779 69.6824 200.191 69.6824Z" fill="url(#paint1_linear_21388_86456)"/>
<path fill-rule="evenodd" clip-rule="evenodd" d="M229.399 79.4662C225.574 79.4783 222.463 76.3879 222.451 72.5671C222.441 68.7465 225.533 65.64 229.359 65.6278C233.185 65.6178 236.296 68.7062 236.308 72.5268C236.308 72.5329 236.308 72.541 236.308 72.5469C236.298 76.3556 233.213 79.4439 229.399 79.4662ZM229.399 69.6824C227.804 69.6705 226.503 70.9533 226.491 72.5469C226.48 74.1407 227.763 75.4397 229.359 75.4518C230.955 75.462 232.256 74.1809 232.268 72.5873C232.268 72.5732 232.268 72.5611 232.268 72.5469C232.258 70.9695 230.979 69.6926 229.399 69.6824Z" fill="url(#paint2_linear_21388_86456)"/>
<path fill-rule="evenodd" clip-rule="evenodd" d="M131.742 67.7225H120.344C119.968 67.7225 119.663 67.4179 119.663 67.0425L119.486 57.2102L116.49 56.3331C116.13 56.2277 115.922 55.8503 116.028 55.4899C116.133 55.1295 116.511 54.9222 116.872 55.0275L120.351 56.0475C120.637 56.1304 120.835 56.3895 120.841 56.6867L121.012 66.3558H131.225L133.268 59.5561H123.272C122.896 59.5561 122.591 59.2515 122.591 58.8762C122.591 58.5008 122.896 58.1962 123.272 58.1962H134.2C134.576 58.1989 134.879 58.5055 134.877 58.8809C134.876 58.9462 134.866 59.0108 134.847 59.0733L132.396 67.2329C132.312 67.5232 132.045 67.7225 131.742 67.7225Z" fill="url(#paint3_linear_21388_86456)"/>
<path fill-rule="evenodd" clip-rule="evenodd" d="M121.121 71C119.831 71 118.785 69.9556 118.785 68.6676C118.785 67.3798 119.831 66.3354 121.121 66.3354C122.41 66.3354 123.456 67.3798 123.456 68.6676C123.456 69.9556 122.41 71 121.121 71ZM121.121 67.7021C120.583 67.7021 120.147 68.1373 120.147 68.6744C120.147 69.2116 120.583 69.6468 121.121 69.6468C121.659 69.6468 122.094 69.2116 122.094 68.6744C122.094 68.6724 122.094 68.6697 122.094 68.6676C122.091 68.1332 121.656 67.7021 121.121 67.7021Z" fill="url(#paint4_linear_21388_86456)"/>
<path fill-rule="evenodd" clip-rule="evenodd" d="M130.966 71C129.677 71.0041 128.628 69.9623 128.624 68.6744C128.621 67.3866 129.663 66.3394 130.953 66.3353C132.242 66.332 133.291 67.373 133.295 68.6608C133.295 68.6629 133.295 68.6656 133.295 68.6676C133.292 69.9515 132.252 70.9925 130.966 71ZM130.966 67.7021C130.428 67.698 129.99 68.1305 129.986 68.6676C129.982 69.2049 130.415 69.6427 130.953 69.6468C131.491 69.6502 131.929 69.2184 131.933 68.6812C131.933 68.6765 131.933 68.6724 131.933 68.6676C131.93 68.1359 131.499 67.7055 130.966 67.7021Z" fill="url(#paint5_linear_21388_86456)"/>
<path fill-rule="evenodd" clip-rule="evenodd" d="M88.1986 109C87.9319 108.994 87.6684 108.929 87.429 108.811L72.034 101.079C71.4542 100.785 71.088 100.187 71.0933 99.5358V89.4032L62.8825 84.8943C62.0563 84.4366 61.757 83.3923 62.2138 82.5643C62.2683 82.4666 62.3317 82.374 62.4035 82.2884L67.5352 76.2878C68.1494 75.5642 69.2321 75.4753 69.9557 76.0905C70.6776 76.7062 70.7663 77.793 70.1523 78.5166L66.4577 82.8884L71.1787 85.4943V73.6817L64.4733 63.9781C64.174 63.5427 64.0918 62.9904 64.251 62.4865C64.4102 61.9877 64.7882 61.5897 65.2773 61.4063L81.4078 55.2858C82.1127 55.0132 82.9114 55.236 83.3751 55.8344L89.4645 63.8238L94.5962 55.8002C95.0889 55.0183 96.11 54.768 96.9053 55.2345L112.3 64.1837C112.718 64.422 113.017 64.8266 113.122 65.2982C113.224 65.7679 113.125 66.2599 112.848 66.6525L106.604 75.3276L113.566 83.2484C114.195 83.9548 114.132 85.0384 113.428 85.6692C113.325 85.7617 113.21 85.8407 113.087 85.9058L106.142 89.5575V98.8842C106.137 99.5202 105.781 100.1 105.219 100.393L89.0197 108.811C88.7666 108.941 88.4842 109.006 88.1986 109ZM74.5144 98.4898L88.1986 105.348L102.704 97.8214V91.3406L96.5462 94.5809C95.7834 94.9752 94.8459 94.7405 94.3568 94.0323L90.0804 87.8432V101.336C90.0804 102.282 89.314 103.05 88.3697 103.05C87.4256 103.05 86.6592 102.282 86.6592 101.336V87.9118L82.6565 93.9808C82.1638 94.7164 81.1922 94.9546 80.4157 94.5296L74.5485 91.2893L74.5144 98.4898ZM90.987 83.0599L96.3409 90.8262L102.756 87.3972V77.9509L90.987 83.0599ZM74.5314 87.3459L80.6724 90.7747L86.0775 82.717L74.5485 76.0992L74.5314 87.3459ZM106.177 79.9396V85.6486L109.598 83.9341L106.177 79.9396ZM76.8577 73.4419L88.8315 80.2995L100.805 75.1563L89.5671 68.6585L76.8577 73.4419ZM91.9618 66.1896L103.936 73.1333L108.828 66.1383L96.4607 58.9547L91.9618 66.1896ZM68.493 63.7896L73.4881 71.0416L86.8132 66.0011L81.3907 58.9032L68.493 63.7896Z" fill="url(#paint6_linear_21388_86456)"/>
<path fill-rule="evenodd" clip-rule="evenodd" d="M153.99 124H121.545C120.692 124 120 123.309 120 122.457V80.5831C119.996 79.7314 120.683 79.0356 121.536 79.031C121.959 79.0278 122.364 79.1992 122.658 79.5031L127.833 84.8568L133.241 91.3833C133.804 91.1519 134.39 90.9714 134.986 90.8432C136.956 90.4529 139.002 90.7138 140.811 91.584C141.417 91.8663 141.979 92.2365 142.48 92.6793C143.433 92.5251 144.409 92.7348 145.214 93.2655C146.28 93.8935 146.762 95.1788 146.373 96.3515C146.09 97.1275 145.434 97.7091 144.627 97.8943C143.983 98.0795 143.295 98.0362 142.68 97.7708C142.68 98.3727 142.572 98.9743 142.541 99.5607V100.116C142.541 100.409 142.541 100.703 142.541 100.98C143.065 101.088 143.581 101.233 144.086 101.412C145.908 102.069 147.308 103.554 147.856 105.408C148.432 107.422 148.026 109.588 146.759 111.256C145.627 112.722 144.066 113.798 142.294 114.341C142.046 115.304 141.506 116.165 140.749 116.81C139.677 117.721 138.257 118.109 136.871 117.875C134.778 117.491 133.188 115.776 132.963 113.663C130.889 112.558 129.114 110.97 127.787 109.034C127.283 108.344 127.436 107.377 128.127 106.874C128.817 106.371 129.786 106.524 130.29 107.213C131.025 108.258 131.915 109.184 132.932 109.96V106.473C132.932 105.547 132.932 104.513 133.086 103.387V103.171C131.788 102.807 130.614 102.097 129.687 101.119C128.663 99.9464 128.206 98.3835 128.436 96.8452C128.635 95.3332 129.389 93.9477 130.552 92.957L125.516 86.8781L123.075 84.3632V120.883H152.429V84.3941L149.664 87.2329C149.072 87.8471 148.094 87.864 147.479 87.273C147.465 87.2607 147.451 87.2469 147.439 87.2329L143.144 82.8049L138.833 87.2329C138.543 87.5369 138.141 87.7096 137.721 87.7113C137.301 87.7096 136.899 87.5369 136.609 87.2329L132.314 82.8049L131.294 83.854C130.691 84.4527 129.718 84.4527 129.115 83.854C128.516 83.2523 128.516 82.2803 129.115 81.6785L131.232 79.4723C131.856 78.8845 132.833 78.8845 133.457 79.4723L137.752 83.9158L142.062 79.4723C142.356 79.1745 142.756 79.0063 143.175 79.0094C143.593 79.0063 143.994 79.1745 144.287 79.4723L148.582 83.9158L152.893 79.4723C153.485 78.8581 154.462 78.8412 155.077 79.4322C155.382 79.7253 155.553 80.1294 155.55 80.5522V122.426C155.567 123.278 154.889 123.983 154.036 124C154.021 124 154.005 124 153.99 124ZM135.96 111.472C136.467 111.6 136.984 111.688 137.505 111.734C138.101 111.78 138.701 111.78 139.297 111.734V111.024C139.297 109.482 139.297 107.861 139.297 106.288V103.834H137.397C137.118 103.834 136.686 103.834 136.161 103.834C136.161 104.791 136.037 105.717 136.022 106.519L135.96 111.472ZM142.34 104.128V106.318C142.34 107.861 142.34 109.404 142.34 110.947C143.076 110.586 143.717 110.058 144.21 109.404C144.884 108.526 145.106 107.385 144.812 106.318C144.548 105.396 143.852 104.658 142.943 104.343L142.34 104.128ZM136.284 100.703H139.328V99.3139C139.328 98.4807 139.451 97.6475 139.56 96.8297V96.5828C139.631 95.9426 139.77 95.3115 139.977 94.7004C139.779 94.5554 139.567 94.4305 139.343 94.3302C138.147 93.7409 136.789 93.562 135.481 93.8211L135.033 93.9291C135.126 94.0833 135.203 94.253 135.28 94.4074C136.077 96.4054 136.42 98.5562 136.284 100.703ZM132.437 95.4565C131.92 95.9257 131.577 96.5568 131.464 97.2464C131.337 97.9144 131.526 98.6025 131.974 99.1131C132.32 99.4789 132.736 99.772 133.194 99.9773C133.279 98.53 133.064 97.0798 132.561 95.7189C132.527 95.6279 132.485 95.5415 132.437 95.4565Z" fill="url(#paint7_linear_21388_86456)"/>
<path d="M157.981 51.8613H159.998C160.945 51.8613 161.631 52.0029 162.054 52.2861C162.477 52.5693 162.688 53.0169 162.688 53.6289C162.688 54.0521 162.57 54.402 162.332 54.6787C162.098 54.9521 161.754 55.1296 161.302 55.2109V55.2598C162.386 55.4453 162.928 56.015 162.928 56.9688C162.928 57.6068 162.711 58.1048 162.278 58.4629C161.849 58.821 161.246 59 160.472 59H157.981V51.8613ZM158.812 54.918H160.179C160.765 54.918 161.186 54.8268 161.443 54.6445C161.701 54.459 161.829 54.1481 161.829 53.7119C161.829 53.3115 161.686 53.0234 161.399 52.8477C161.113 52.6686 160.657 52.5791 160.032 52.5791H158.812V54.918ZM158.812 55.6211V58.292H160.301C160.877 58.292 161.31 58.1813 161.6 57.96C161.893 57.7354 162.039 57.3854 162.039 56.9102C162.039 56.4674 161.889 56.1419 161.59 55.9336C161.294 55.7253 160.841 55.6211 160.232 55.6211H158.812Z" fill="url(#paint8_linear_21388_86456)"/>
<path d="M169.856 51.8613V56.4805C169.856 57.2943 169.611 57.9339 169.119 58.3994C168.628 58.8649 167.952 59.0977 167.093 59.0977C166.233 59.0977 165.568 58.8633 165.096 58.3945C164.627 57.9258 164.393 57.2812 164.393 56.4609V51.8613H165.223V56.5195C165.223 57.1152 165.385 57.5726 165.711 57.8916C166.036 58.2106 166.515 58.3701 167.146 58.3701C167.749 58.3701 168.213 58.2106 168.538 57.8916C168.864 57.5693 169.026 57.1087 169.026 56.5098V51.8613H169.856Z" fill="url(#paint9_linear_21388_86456)"/>
<path d="M173.567 55.4307L175.472 51.8613H176.37L173.987 56.2314V59H173.147V56.2705L170.77 51.8613H171.678L173.567 55.4307Z" fill="url(#paint10_linear_21388_86456)"/>
<path fill-rule="evenodd" clip-rule="evenodd" d="M147.647 48.4632C146.439 48.4857 145.676 48.5 145.5 48.5C145.224 48.5 145 48.2761 145 48C145 47.7239 145.224 47.5 145.5 47.5C145.684 47.5 146.459 47.4855 147.684 47.4626C151.54 47.3904 159.845 47.2351 168.122 47.1875C173.561 47.1563 178.974 47.1719 183.061 47.2893C185.103 47.348 186.824 47.4324 188.054 47.5502C188.666 47.6089 189.173 47.6773 189.542 47.7591C189.725 47.7995 189.896 47.8477 190.035 47.9094C190.105 47.9403 190.184 47.982 190.257 48.04C190.327 48.0958 190.425 48.1927 190.474 48.3419C190.556 48.5873 190.615 48.9735 190.661 49.4176C190.71 49.8765 190.749 50.4431 190.781 51.0768C190.844 52.3451 190.875 53.9006 190.875 55.4376C190.875 56.9743 190.844 58.4992 190.781 59.7059C190.749 60.3085 190.709 60.8381 190.661 61.2527C190.636 61.4597 190.609 61.6446 190.578 61.7988C190.549 61.9415 190.51 62.0983 190.447 62.2237C190.365 62.3875 190.225 62.4642 190.174 62.4901C190.105 62.5262 190.031 62.5517 189.966 62.5707C189.835 62.6093 189.669 62.6416 189.482 62.6701C189.105 62.7278 188.58 62.7797 187.937 62.8269C186.647 62.9214 184.837 62.9998 182.686 63.0624C178.383 63.1876 172.69 63.2501 167 63.2501C161.31 63.2501 155.617 63.1876 151.314 63.0624C149.163 62.9998 147.354 62.9214 146.063 62.8269C145.42 62.7797 144.895 62.7278 144.518 62.6701C144.332 62.6416 144.165 62.6093 144.034 62.5707C143.969 62.5517 143.895 62.5262 143.826 62.4901C143.776 62.4642 143.635 62.3875 143.553 62.2237C143.484 62.0858 143.448 61.9081 143.424 61.7564C143.397 61.5873 143.376 61.3814 143.358 61.1492C143.323 60.6837 143.301 60.0827 143.289 59.3993C143.266 58.0309 143.281 56.3052 143.313 54.6158C143.344 52.9254 143.391 51.2668 143.43 50.0311C143.45 49.4132 143.467 48.9008 143.48 48.5429C143.486 48.3639 143.491 48.2235 143.495 48.1278L143.5 47.9815C143.5 47.9814 143.5 47.9809 143.997 48L143.5 47.9815C143.511 47.7056 143.743 47.4898 144.019 47.5005C144.295 47.5111 144.51 47.7434 144.5 48.0193L144 48.0001C144.5 48.0193 144.5 48.0192 144.5 48.0193L144.494 48.1649C144.491 48.2601 144.486 48.3999 144.479 48.5784C144.467 48.9352 144.449 49.4463 144.43 50.0628C144.39 51.2959 144.344 52.9498 144.312 54.6343C144.281 56.32 144.266 58.0317 144.289 59.3821C144.301 60.0581 144.322 60.6368 144.355 61.0736C144.372 61.2926 144.391 61.4685 144.411 61.5998C144.414 61.6128 144.416 61.625 144.418 61.6365C144.482 61.6505 144.565 61.6657 144.669 61.6816C145.007 61.7333 145.5 61.783 146.136 61.8295C147.404 61.9225 149.197 62.0004 151.343 62.0628C155.633 62.1876 161.315 62.2501 167 62.2501C172.685 62.2501 178.367 62.1876 182.657 62.0628C184.804 62.0004 186.596 61.9225 187.864 61.8295C188.5 61.783 188.993 61.7333 189.331 61.6816C189.439 61.665 189.525 61.6491 189.591 61.6347C189.593 61.6243 189.595 61.6132 189.598 61.6015C189.621 61.484 189.645 61.3286 189.668 61.1361C189.713 60.752 189.751 60.2464 189.782 59.6537C189.844 58.4697 189.875 56.9633 189.875 55.4376C189.875 53.912 189.844 52.3738 189.782 51.1265C189.751 50.5024 189.712 49.9557 189.667 49.522C189.633 49.1951 189.596 48.9547 189.562 48.7982C189.507 48.7798 189.43 48.7584 189.326 48.7355C189.017 48.6671 188.559 48.6032 187.958 48.5456C186.762 48.4311 185.069 48.3474 183.033 48.2889C178.963 48.172 173.564 48.1563 168.128 48.1875C159.872 48.235 151.499 48.3913 147.647 48.4632Z" fill="url(#paint11_linear_21388_86456)"/>
<path fill-rule="evenodd" clip-rule="evenodd" d="M187.178 98.4H167.423C166.995 98.401 166.604 98.1575 166.416 97.7731L164.894 94.661C162.981 90.8545 160.073 85.0891 159.301 83.1972C158.731 82.1358 158.989 80.8196 159.916 80.0515C161.551 79.0384 163.618 79.0384 165.252 80.0515C166.06 80.6531 166.733 81.4153 167.232 82.2904L167.534 82.727C168.508 84.3274 169.693 85.7886 171.058 87.0707C171.625 87.2534 171.95 87.849 171.797 88.4253C171.633 89.0215 171.017 89.3717 170.422 89.2076C170.409 89.2046 170.398 89.2012 170.387 89.1978C169.984 89.0858 169.022 88.8282 165.689 84.0033L165.375 83.522C165.022 82.9062 164.56 82.3599 164.011 81.9098C163.186 81.4452 162.192 81.3956 161.326 81.7754C161.326 81.7754 161.18 81.8874 161.326 82.3463C162.064 84.16 164.939 89.8695 166.841 93.6421C167.333 94.6385 167.78 95.5117 168.094 96.1499H186.563C186.765 95.6126 187.022 94.672 187.134 94.2579C187.246 93.8437 187.257 93.7989 187.301 93.6646C188.133 91.0246 188.728 88.3162 189.08 85.5706L189.159 84.9772C189.505 82.5816 189.673 80.0962 188.342 79.8388C187.76 79.8248 187.193 80.0194 186.742 80.3873C186.45 80.5871 186.081 80.6369 185.747 80.5216C185.409 80.4055 185.147 80.1352 185.042 79.794C185.042 79.794 184.617 78.5066 183.61 78.417C183.316 78.3645 183.013 78.412 182.749 78.5514C182.66 78.619 182.578 78.694 182.502 78.7753C182.1 79.2835 181.47 79.5568 180.824 79.5029C180.405 79.4063 180.056 79.1153 179.885 78.7192C179.602 78.041 179.064 77.502 178.386 77.2191C177.938 77.1295 177.513 77.5549 176.909 78.2043C176.591 78.5487 176.101 78.6755 175.656 78.5289C175.228 78.3797 174.931 77.9862 174.906 77.5326L174.806 70.0991C174.884 68.5093 174.728 65.7219 173.944 64.6248C173.769 64.321 173.394 64.196 173.072 64.3337C172.342 64.602 171.854 65.2915 171.841 66.0689V67.3787C171.841 78.6857 171.841 83.9025 171.841 84.272C171.817 84.8903 171.295 85.3714 170.678 85.3467C170.06 85.3219 169.579 84.8007 169.604 84.1824C169.604 83.813 169.604 78.1595 169.604 67.39V66.0241C169.62 64.2766 170.729 62.7268 172.378 62.1507C173.621 61.7378 174.987 62.1936 175.734 63.2702C177.222 65.3524 177.032 69.6065 177.01 70.088L177.077 75.148C177.614 74.9098 178.213 74.8471 178.788 74.9689C179.812 75.2452 180.703 75.8761 181.305 76.749C182.01 76.2125 182.904 75.9898 183.778 76.1332C184.923 76.2542 185.949 76.8935 186.563 77.8683C187.241 77.5678 187.991 77.4706 188.722 77.5886C192.347 78.2714 191.664 82.9846 191.34 85.2459L191.273 85.7721C190.943 88.667 190.351 91.5259 189.505 94.3138C189.505 94.4371 189.416 94.6273 189.36 94.8512C188.711 97.0679 188.387 98.4 187.178 98.4Z" fill="url(#paint12_linear_21388_86456)"/>
<path fill-rule="evenodd" clip-rule="evenodd" d="M142 77C139.239 77 137 74.7615 137 72C137 69.2386 139.239 67 142 67C144.761 67 147 69.2386 147 72C147 74.7615 144.761 77 142 77ZM142 67.4167C139.469 67.4167 137.417 69.4687 137.417 72C137.417 74.5313 139.469 76.5834 142 76.5834C144.531 76.5834 146.583 74.5313 146.583 72C146.583 69.4687 144.531 67.4167 142 67.4167Z" fill="url(#paint13_linear_21388_86456)"/>
<path fill-rule="evenodd" clip-rule="evenodd" d="M131 52C129.343 52 128 50.6569 128 49C128 47.3432 129.343 46 131 46C132.657 46 134 47.3432 134 49C134 50.6569 132.657 52 131 52ZM131 46.25C129.481 46.25 128.25 47.4812 128.25 49C128.25 50.5188 129.481 51.75 131 51.75C132.519 51.75 133.75 50.5188 133.75 49C133.75 47.4812 132.519 46.25 131 46.25Z" fill="url(#paint14_linear_21388_86456)"/>
<path fill-rule="evenodd" clip-rule="evenodd" d="M171 113C167.686 113 165 110.314 165 107C165 103.686 167.686 101 171 101C174.314 101 177 103.686 177 107C177 110.314 174.314 113 171 113ZM171 101.5C167.962 101.5 165.5 103.962 165.5 107C165.5 110.038 167.962 112.5 171 112.5C174.038 112.5 176.5 110.038 176.5 107C176.5 103.962 174.038 101.5 171 101.5Z" fill="url(#paint15_linear_21388_86456)"/>
<path fill-rule="evenodd" clip-rule="evenodd" d="M4.5 83C2.01471 83 0 80.9853 0 78.5C0 76.0147 2.01471 74 4.5 74C6.98531 74 9 76.0147 9 78.5C9 80.9853 6.98531 83 4.5 83ZM4.5 74.375C2.22181 74.375 0.375006 76.2218 0.375006 78.5C0.375006 80.7781 2.22181 82.625 4.5 82.625C6.77813 82.625 8.625 80.7781 8.625 78.5C8.625 76.2218 6.77813 74.375 4.5 74.375Z" fill="url(#paint16_linear_21388_86456)"/>
<path fill-rule="evenodd" clip-rule="evenodd" d="M9.5 102C7.01471 102 5 99.9853 5 97.5C5 95.0147 7.01471 93 9.5 93C11.9853 93 14 95.0147 14 97.5C14 99.9853 11.9853 102 9.5 102ZM9.5 93.375C7.22181 93.375 5.37501 95.2218 5.37501 97.5C5.37501 99.7781 7.22181 101.625 9.5 101.625C11.7781 101.625 13.625 99.7781 13.625 97.5C13.625 95.2218 11.7781 93.375 9.5 93.375Z" fill="url(#paint17_linear_21388_86456)"/>
<path fill-rule="evenodd" clip-rule="evenodd" d="M43.5 90C41.0147 90 39 87.9853 39 85.5C39 83.0147 41.0147 81 43.5 81C45.9853 81 48 83.0147 48 85.5C48 87.9853 45.9853 90 43.5 90ZM43.5 81.375C41.2218 81.375 39.375 83.2218 39.375 85.5C39.375 87.7781 41.2218 89.625 43.5 89.625C45.7781 89.625 47.625 87.7781 47.625 85.5C47.625 83.2218 45.7781 81.375 43.5 81.375Z" fill="url(#paint18_linear_21388_86456)"/>
<path fill-rule="evenodd" clip-rule="evenodd" d="M61.5 107C59.0147 107 57 104.985 57 102.5C57 100.015 59.0147 98 61.5 98C63.9853 98 66 100.015 66 102.5C66 104.985 63.9853 107 61.5 107ZM61.5 98.375C59.2218 98.375 57.375 100.222 57.375 102.5C57.375 104.778 59.2218 106.625 61.5 106.625C63.7781 106.625 65.625 104.778 65.625 102.5C65.625 100.222 63.7781 98.375 61.5 98.375Z" fill="url(#paint19_linear_21388_86456)"/>
<path fill-rule="evenodd" clip-rule="evenodd" d="M7.5 26C5.01471 26 3 23.9853 3 21.5C3 19.0147 5.01471 17 7.5 17C9.98531 17 12 19.0147 12 21.5C12 23.9853 9.98531 26 7.5 26ZM7.5 17.375C5.22181 17.375 3.37501 19.2218 3.37501 21.5C3.37501 23.7781 5.22181 25.625 7.5 25.625C9.77813 25.625 11.625 23.7781 11.625 21.5C11.625 19.2218 9.77813 17.375 7.5 17.375Z" fill="url(#paint20_linear_21388_86456)"/>
<path fill-rule="evenodd" clip-rule="evenodd" d="M47.5 45C45.0147 45 43 42.9853 43 40.5C43 38.0147 45.0147 36 47.5 36C49.9853 36 52 38.0147 52 40.5C52 42.9853 49.9853 45 47.5 45ZM47.5 36.375C45.2218 36.375 43.375 38.2218 43.375 40.5C43.375 42.7781 45.2218 44.625 47.5 44.625C49.7781 44.625 51.625 42.7781 51.625 40.5C51.625 38.2218 49.7781 36.375 47.5 36.375Z" fill="url(#paint21_linear_21388_86456)"/>
<path fill-rule="evenodd" clip-rule="evenodd" d="M231 30C226.582 30 223 26.4183 223 22C223 17.5818 226.582 14 231 14C235.418 14 239 17.5818 239 22C239 26.4183 235.418 30 231 30ZM231 14.6667C226.95 14.6667 223.667 17.9499 223.667 22C223.667 26.05 226.95 29.3334 231 29.3334C235.05 29.3334 238.333 26.05 238.333 22C238.333 17.9499 235.05 14.6667 231 14.6667Z" fill="url(#paint22_linear_21388_86456)"/>
<path fill-rule="evenodd" clip-rule="evenodd" d="M202 93C199.239 93 197 90.7615 197 88C197 85.2386 199.239 83 202 83C204.761 83 207 85.2386 207 88C207 90.7615 204.761 93 202 93ZM202 83.4167C199.469 83.4167 197.417 85.4687 197.417 88C197.417 90.5313 199.469 92.5834 202 92.5834C204.531 92.5834 206.583 90.5313 206.583 88C206.583 85.4687 204.531 83.4167 202 83.4167Z" fill="url(#paint23_linear_21388_86456)"/>
<path fill-rule="evenodd" clip-rule="evenodd" d="M217.612 27.3262H187.193C186.534 27.3262 186 26.7925 186 26.1349V11.4343C186 10.7767 186.534 10.243 187.193 10.243H216.419V5.38256H188.386V7.43162C188.386 8.08921 187.851 8.6229 187.193 8.6229C186.534 8.6229 186 8.08921 186 7.43162V4.1913C186 3.53371 186.534 3.00002 187.193 3.00002H217.612C218.27 3.00002 218.805 3.53371 218.805 4.1913V11.4343C218.805 12.092 218.27 12.6255 217.612 12.6255H188.386V24.9436H216.419V16.7951H192.8V20.4524H196.378V19.1062C196.378 18.4486 196.913 17.9149 197.571 17.9149C198.23 17.9149 198.764 18.4486 198.764 19.1062V21.6199C198.764 22.2775 198.23 22.8112 197.571 22.8112H191.607C190.948 22.8112 190.414 22.2775 190.414 21.6199V15.58C190.411 15.2631 190.536 14.9593 190.76 14.7342C190.985 14.5115 191.289 14.3863 191.607 14.3886H217.612C218.27 14.3886 218.805 14.9224 218.805 15.58V26.111C218.818 26.7687 218.294 27.313 217.636 27.3262C217.627 27.3262 217.62 27.3262 217.612 27.3262Z" fill="url(#paint24_linear_21388_86456)"/>
<path fill-rule="evenodd" clip-rule="evenodd" d="M205.527 109H193.473C193.212 109 193 108.781 193 108.51V102.467C193 102.197 193.212 101.977 193.473 101.977H205.055V99.9794H193.945V100.822C193.945 101.092 193.734 101.311 193.473 101.311C193.212 101.311 193 101.092 193 100.822V99.4897C193 99.2194 193.212 99 193.473 99H205.527C205.788 99 206 99.2194 206 99.4897V102.467C206 102.738 205.788 102.957 205.527 102.957H193.945V108.021H205.055V104.671H195.695V106.174H197.113V105.621C197.113 105.351 197.324 105.131 197.585 105.131C197.846 105.131 198.058 105.351 198.058 105.621V106.654C198.058 106.925 197.846 107.144 197.585 107.144H195.222C194.961 107.144 194.749 106.925 194.749 106.654V104.171C194.748 104.041 194.798 103.916 194.886 103.824C194.976 103.732 195.096 103.681 195.222 103.682H205.527C205.788 103.682 206 103.901 206 104.171V108.5C206.005 108.771 205.798 108.995 205.537 109C205.533 109 205.53 109 205.527 109Z" fill="url(#paint25_linear_21388_86456)"/>
<path fill-rule="evenodd" clip-rule="evenodd" d="M136.527 41H124.473C124.212 41 124 40.7806 124 40.5103V34.4672C124 34.1968 124.212 33.9774 124.473 33.9774H136.055V31.9794H124.945V32.8217C124.945 33.0921 124.734 33.3115 124.473 33.3115C124.212 33.3115 124 33.0921 124 32.8217V31.4897C124 31.2194 124.212 31 124.473 31H136.527C136.788 31 137 31.2194 137 31.4897V34.4672C137 34.7375 136.788 34.9569 136.527 34.9569H124.945V40.0206H136.055V36.6709H126.695V38.1743H128.113V37.6209C128.113 37.3506 128.324 37.1312 128.585 37.1312C128.846 37.1312 129.058 37.3506 129.058 37.6209V38.6543C129.058 38.9246 128.846 39.144 128.585 39.144H126.222C125.961 39.144 125.749 38.9246 125.749 38.6543V36.1714C125.748 36.0411 125.798 35.9162 125.886 35.8237C125.976 35.7321 126.096 35.6807 126.222 35.6816H136.527C136.788 35.6816 137 35.9011 137 36.1714V40.5005C137.005 40.7708 136.798 40.9946 136.537 41C136.533 41 136.53 41 136.527 41Z" fill="url(#paint26_linear_21388_86456)"/>
<path fill-rule="evenodd" clip-rule="evenodd" d="M37.9533 29.9142C33.434 29.8869 29.0072 28.6334 25.1413 26.2871C24.5502 25.9452 23.9769 25.5697 23.4277 25.1637C19.2782 22.2522 16.1775 18.0748 14.5872 13.255C14.5199 13.0642 14.4928 12.8619 14.5072 12.6613C13.6375 10.1399 13.1315 7.50962 13.0017 4.84534C12.9616 3.9596 13.6472 3.20837 14.5311 3.16832C15.4151 3.12809 16.1646 3.81517 16.2047 4.70091C16.3216 7.12595 16.7909 9.52052 17.598 11.8107C19.2876 12.2296 21.0476 12.2731 22.755 11.939C23.5238 11.8428 24.2443 11.7625 24.885 11.7465L27.0149 11.586C26.4433 7.63315 26.2078 3.63865 26.3104 -0.354593H16.509C15.6251 -0.312771 14.8754 -0.998055 14.8355 -1.88396C14.8258 -2.07182 14.8514 -2.2611 14.9076 -2.4408C18.0513 -11.4475 26.0717 -17.8497 35.535 -18.9073C45.0226 -19.7161 54.1767 -15.1854 59.3016 -7.14325C60.9144 -4.57395 62.0017 -1.71065 62.5047 1.28238C63.0988 4.05406 63.1597 6.91418 62.6807 9.70819C62.5463 10.9762 61.9056 12.1334 60.9032 12.9181L60.6468 13.1909C58.9828 16.4313 56.6463 19.2767 53.7924 21.5366C54.3081 21.4866 54.8143 21.6906 55.1537 22.0821C55.7287 22.7562 55.6503 23.7688 54.9774 24.3451C50.1457 28.123 44.1609 30.1196 38.0334 29.9945L37.9533 29.9142ZM19.1676 15.3416C20.1877 17.232 21.4658 18.9719 22.9632 20.5093C24.6736 22.3839 26.8277 23.7963 29.2251 24.6178C30.3333 24.9565 31.4961 25.0866 32.6525 25.0031C32.3079 24.7527 31.983 24.4798 31.6753 24.1846C29.3341 21.6232 27.875 18.378 27.5115 14.9242V14.7958L25.0131 14.9083C24.4365 14.9083 23.7959 15.0045 23.1073 15.0687C21.8052 15.2757 20.4856 15.3673 19.1676 15.3416ZM44.5357 14.2983C44.0472 17.7682 42.7339 21.0712 40.7079 23.9278C43.3489 23.6341 45.8888 22.7448 48.1391 21.3278C51.4637 19.4148 54.3192 16.7843 56.499 13.6242C54.6412 13.7046 52.7674 13.8009 50.9097 13.9132L44.5357 14.2983ZM30.7306 14.7156C31.0363 17.3702 32.1559 19.8658 33.9336 21.8575C34.7488 22.5861 35.7097 23.1335 36.7522 23.4622C39.2506 21.5204 40.5638 18.134 41.3165 14.3624C39.5708 14.3624 37.8252 14.4589 36.0956 14.4589L30.7306 14.7156ZM29.4813 -0.306377C29.3724 3.67216 29.6191 7.65229 30.218 11.586L35.9673 11.3614C37.8893 11.3614 39.8272 11.3614 41.7649 11.2491C41.8771 10.3343 41.9731 9.40338 42.0533 8.50453C42.3255 5.56289 42.3255 2.60336 42.0533 -0.338449L29.4813 -0.306377ZM45.2403 -0.418736C45.5125 2.6193 45.5125 5.67506 45.2403 8.7131C45.2403 9.49959 45.0962 10.3182 45.0002 11.0565C46.9379 10.9762 48.8438 10.8638 50.7335 10.7674C53.1999 10.6391 55.6662 10.4947 58.1166 10.3984H58.2927C58.9973 8.72604 59.4153 6.94625 59.5257 5.13438C59.5834 4.03014 59.529 2.9227 59.3657 1.82821C59.2696 1.42699 59.1734 1.02576 59.0453 0.624544C58.9782 0.253628 58.818 -0.0946083 58.5809 -0.386663C58.2029 -0.500437 57.8058 -0.545456 57.4118 -0.514975L45.2403 -0.418736ZM29.4012 -13.9803C24.7392 -11.8376 20.9885 -8.10625 18.8152 -3.45198H26.5185C26.8148 -7.11117 27.7932 -10.6821 29.4012 -13.9803ZM35.8073 -15.5852C34.3339 -15.5852 33.0046 -13.9803 32.2519 -12.5679C30.8651 -9.7464 30.0082 -6.69542 29.7216 -3.56434L41.5889 -3.64446C41.1933 -6.09999 40.6039 -8.52024 39.8272 -10.8827C39.3628 -12.2469 38.0656 -15.3925 35.9673 -15.4888L35.8073 -15.5852ZM41.0122 -15.6814C41.7762 -14.5467 42.3735 -13.3094 42.7899 -12.0061C43.7125 -9.289 44.3931 -6.49641 44.8239 -3.66058L57.3798 -3.75682H57.556C57.2629 -4.37158 56.9314 -4.96543 56.563 -5.53837C53.091 -11.0128 47.4279 -14.7168 41.0283 -15.6974L41.0122 -15.6814Z" fill="url(#paint27_linear_21388_86456)"/>
<path fill-rule="evenodd" clip-rule="evenodd" d="M30.8671 111.975H48.6956C49.2299 111.98 49.6854 111.596 49.76 111.078L52.0484 95.0851H56.0185C56.6061 95.0851 57.083 94.6181 57.083 94.0426C57.083 93.4671 56.6061 93.0001 56.0185 93.0001H51.1118C50.5775 92.9948 50.1219 93.3785 50.0473 93.8967L47.7589 109.89H31.676L28.419 97.8375H44.4699L44.1719 100.402H33.528C33.1906 100.404 32.8756 100.563 32.6765 100.83C32.4754 101.097 32.4169 101.441 32.5169 101.758L33.9751 106.314C34.12 106.765 34.5563 107.065 35.0395 107.043L43.5547 106.97C44.1421 106.97 44.619 106.503 44.619 105.928C44.619 105.352 44.1421 104.885 43.5547 104.885L35.8378 104.948L35.0395 102.487H45.1617C45.7068 102.49 46.1666 102.09 46.2262 101.559L46.7584 96.9096C46.7924 96.6135 46.6956 96.3175 46.4923 96.0964C46.2912 95.8786 46.0047 95.7535 45.7047 95.7524H27.0672C26.7373 95.7535 26.4276 95.9036 26.2264 96.159C26.021 96.4155 25.9508 96.7511 26.0348 97.066L29.8771 111.161C29.9827 111.62 30.3881 111.953 30.8671 111.975Z" fill="url(#paint28_linear_21388_86456)"/>
<path fill-rule="evenodd" clip-rule="evenodd" d="M47.4721 117C49.4881 117.006 51.1272 115.409 51.1337 113.434C51.14 111.46 49.5093 109.854 47.4933 109.848C45.4774 109.843 43.8383 111.439 43.8319 113.413C43.8319 113.417 43.8319 113.421 43.8319 113.424C43.8373 115.392 45.4625 116.988 47.4721 117ZM47.4721 111.943C48.3129 111.938 48.9984 112.6 49.0049 113.424C49.0102 114.248 48.3343 114.919 47.4933 114.925C46.6526 114.93 45.967 114.268 45.9607 113.445C45.9607 113.437 45.9607 113.431 45.9607 113.424C45.9661 112.609 46.6398 111.949 47.4721 111.943Z" fill="url(#paint29_linear_21388_86456)"/>
<path fill-rule="evenodd" clip-rule="evenodd" d="M32.0913 117C34.1072 117 35.7421 115.399 35.7421 113.424C35.7421 111.449 34.1072 109.848 32.0913 109.848C30.0753 109.848 28.4405 111.449 28.4405 113.424C28.4469 115.396 30.0774 116.995 32.0913 117ZM32.0913 111.943C32.9322 111.943 33.6133 112.611 33.6133 113.434C33.6133 114.258 32.9322 114.925 32.0913 114.925C31.2505 114.925 30.5692 114.258 30.5692 113.434C30.5692 113.431 30.5692 113.427 30.5692 113.424C30.5755 112.604 31.2547 111.943 32.0913 111.943Z" fill="url(#paint30_linear_21388_86456)"/>
<path fill-rule="evenodd" clip-rule="evenodd" d="M217.853 104.022H231.967C232.39 104.026 232.751 103.722 232.81 103.312L234.622 90.6507H237.765C238.23 90.6507 238.607 90.281 238.607 89.8254C238.607 89.3698 238.23 89 237.765 89H233.88C233.457 88.9959 233.097 89.2997 233.037 89.7099L231.226 102.371H218.493L215.915 92.8297H228.622L228.386 94.8601H219.96C219.693 94.8618 219.443 94.9872 219.286 95.1985C219.126 95.4098 219.08 95.6822 219.159 95.9331L220.314 99.5399C220.428 99.8973 220.774 100.135 221.156 100.118L227.897 100.06C228.363 100.06 228.74 99.6902 228.74 99.2346C228.74 98.7789 228.363 98.4092 227.897 98.4092L221.788 98.4587L221.156 96.5108H229.17C229.601 96.5133 229.965 96.1964 230.012 95.7762L230.434 92.0951C230.461 91.8607 230.384 91.6264 230.223 91.4513C230.064 91.2789 229.837 91.1798 229.6 91.179H214.845C214.584 91.1798 214.338 91.2987 214.179 91.5009C214.017 91.7039 213.961 91.9697 214.028 92.219L217.069 103.378C217.153 103.741 217.474 104.004 217.853 104.022Z" fill="url(#paint31_linear_21388_86456)"/>
<path fill-rule="evenodd" clip-rule="evenodd" d="M230.999 108C232.595 108.005 233.892 106.741 233.898 105.177C233.903 103.614 232.612 102.343 231.016 102.338C229.42 102.334 228.122 103.598 228.117 105.161C228.117 105.163 228.117 105.167 228.117 105.169C228.121 106.727 229.408 107.991 230.999 108ZM230.999 103.997C231.665 103.993 232.207 104.517 232.212 105.169C232.216 105.821 231.681 106.353 231.016 106.358C230.35 106.362 229.807 105.838 229.802 105.186C229.802 105.18 229.802 105.175 229.802 105.169C229.807 104.524 230.34 104.001 230.999 103.997Z" fill="url(#paint32_linear_21388_86456)"/>
<path fill-rule="evenodd" clip-rule="evenodd" d="M218.822 108C220.418 108 221.713 106.732 221.713 105.169C221.713 103.606 220.418 102.338 218.822 102.338C217.226 102.338 215.932 103.606 215.932 105.169C215.937 106.731 217.228 107.996 218.822 108ZM218.822 103.997C219.488 103.997 220.027 104.525 220.027 105.177C220.027 105.829 219.488 106.358 218.822 106.358C218.157 106.358 217.617 105.829 217.617 105.177C217.617 105.175 217.617 105.172 217.617 105.169C217.622 104.52 218.16 103.997 218.822 103.997Z" fill="url(#paint33_linear_21388_86456)"/>
<path fill-rule="evenodd" clip-rule="evenodd" d="M68.879 14.3253H75.762C75.9682 14.3274 76.1441 14.1792 76.1729 13.9792L77.0563 7.80497H78.589C78.8159 7.80497 79 7.62467 79 7.40249C79 7.1803 78.8159 7 78.589 7H76.6947C76.4885 6.99797 76.3126 7.14611 76.2838 7.34615L75.4003 13.5204H69.1914L67.934 8.86757H74.1306L74.0155 9.85769H69.9063C69.7761 9.8585 69.6544 9.91967 69.5776 10.0227C69.5 10.1258 69.4774 10.2586 69.516 10.3809L70.0789 12.1398C70.1349 12.3141 70.3033 12.43 70.4898 12.4216L73.7772 12.3934C74.004 12.3934 74.1881 12.2131 74.1881 11.9909C74.1881 11.7687 74.004 11.5884 73.7772 11.5884L70.7981 11.6126L70.4898 10.6627H74.3977C74.6081 10.6639 74.7856 10.5093 74.8086 10.3044L75.0141 8.50933C75.0272 8.39503 74.9898 8.28074 74.9113 8.19538C74.8337 8.11129 74.7231 8.06299 74.6073 8.06257H67.4121C67.2847 8.06299 67.1651 8.12094 67.0874 8.21956C67.0081 8.31856 66.981 8.44815 67.0135 8.56972L68.4969 14.0114C68.5376 14.1885 68.6941 14.3169 68.879 14.3253Z" fill="url(#paint34_linear_21388_86456)"/>
<path fill-rule="evenodd" clip-rule="evenodd" d="M75.2895 16.0867C76.0678 16.0891 76.7006 15.4725 76.7031 14.7101C76.7056 13.9478 76.076 13.3279 75.2977 13.3255C74.5195 13.3235 73.8867 13.9397 73.8842 14.7021C73.8842 14.7033 73.8842 14.7049 73.8842 14.7061C73.8863 15.466 74.5137 16.0822 75.2895 16.0867ZM75.2895 14.1346C75.6142 14.1325 75.8788 14.3881 75.8813 14.7061C75.8833 15.0241 75.6224 15.2833 75.2977 15.2857C74.9732 15.2877 74.7085 15.0321 74.706 14.7142C74.706 14.7113 74.706 14.7089 74.706 14.7061C74.7081 14.3914 74.9682 14.1366 75.2895 14.1346Z" fill="url(#paint35_linear_21388_86456)"/>
<path fill-rule="evenodd" clip-rule="evenodd" d="M69.3518 16.0867C70.1301 16.0867 70.7612 15.4684 70.7612 14.7061C70.7612 13.9438 70.1301 13.3255 69.3518 13.3255C68.5735 13.3255 67.9424 13.9438 67.9424 14.7061C67.9448 15.4676 68.5743 16.0846 69.3518 16.0867ZM69.3518 14.1346C69.6764 14.1346 69.9394 14.3922 69.9394 14.7101C69.9394 15.0281 69.6764 15.2857 69.3518 15.2857C69.0272 15.2857 68.7642 15.0281 68.7642 14.7101C68.7642 14.7089 68.7642 14.7073 68.7642 14.7061C68.7666 14.3898 69.0288 14.1346 69.3518 14.1346Z" fill="url(#paint36_linear_21388_86456)"/>
<path fill-rule="evenodd" clip-rule="evenodd" d="M110.337 49.3849H90.6477C88.0802 49.3849 86 47.3073 86 44.7434V37.5662C86.0013 37.1703 86.1617 36.7906 86.4453 36.5133C86.7216 36.2389 87.0958 36.0847 87.4848 36.0833H107.071V12.357H93.9144V33.1176C93.9144 33.936 93.2491 34.6005 92.4295 34.6005C91.6098 34.6005 90.9446 33.936 90.9446 33.1176V10.8741C90.9446 10.0556 91.6098 9.39125 92.4295 9.39125H108.555C109.375 9.39125 110.04 10.0556 110.04 10.8741V37.5662C110.043 37.9607 109.887 38.3389 109.61 38.6191C109.329 38.8963 108.95 39.052 108.555 39.0491H88.9698V44.7434C88.9698 45.6688 89.721 46.419 90.6477 46.419H110.337C111.256 46.428 112.006 45.691 112.015 44.7729C112.015 44.7626 112.015 44.7537 112.015 44.7434V7.67114C112.024 6.75319 111.286 6.00438 110.367 5.99537C110.357 5.99537 110.348 5.99537 110.337 5.99537H90.6477C90.0181 6.01027 89.4478 6.36904 89.1627 6.9297C89.0439 7.15943 88.9831 7.41308 88.9846 7.67114V32.5244C88.9846 33.3429 88.3193 34.0072 87.4997 34.0072C86.68 34.0072 86.0147 33.3429 86.0147 32.5244V7.64133C86.0132 6.93265 86.1767 6.23117 86.4899 5.59503C87.2769 4.0113 88.8926 3.0059 90.6625 3H110.352C112.919 3 115 5.07743 115 7.64133V44.7136C115.016 47.2777 112.949 49.3686 110.382 49.3849C110.367 49.3849 110.352 49.3849 110.337 49.3849Z" fill="url(#paint37_linear_21388_86456)"/>
<path fill-rule="evenodd" clip-rule="evenodd" d="M100.492 40.6654C101.632 40.6654 102.557 40.6654 102.557 40.6654V44.7732C102.557 44.7732 101.632 44.7732 100.492 44.7732H100.507V40.6654H100.492Z" fill="url(#paint38_linear_21388_86456)"/>
<path fill-rule="evenodd" clip-rule="evenodd" d="M104.338 24.9912L104.843 25.0654L105.274 25.3323L105.556 25.8217L105.69 26.2368L105.556 26.7853L105.274 27.2008L104.843 27.4824L104.338 27.69L103.774 27.4824L103.343 27.2008L103.061 26.7853L102.987 26.2368L103.061 25.8217L103.343 25.3323L103.774 25.0654L104.338 24.9912Z" fill="url(#paint39_linear_21388_86456)"/>
<path fill-rule="evenodd" clip-rule="evenodd" d="M98.8887 24.9912L99.3935 25.0654L99.8241 25.3323L100.106 25.8217L100.24 26.2368L100.106 26.7853L99.8241 27.2008L99.3935 27.4824L98.8887 27.69L98.3244 27.4824L97.8935 27.2008L97.6114 26.7853L97.5372 26.2368L97.6114 25.8217L97.8935 25.3323L98.3244 25.0654L98.8887 24.9912Z" fill="url(#paint40_linear_21388_86456)"/>
<path fill-rule="evenodd" clip-rule="evenodd" d="M104.219 24.9912H98.7401L98.4877 24.9171L98.3542 24.7392L97.2553 20.2014H95.5625L95.4288 20.1421L95.2953 19.89L95.4288 19.623L95.5625 19.5043H97.4484L97.7007 19.623L97.775 19.7565L98.0274 20.7797H105.051L105.125 20.9132L105.185 20.9726V21.1652L104.605 24.7392L104.472 24.9171L104.219 24.9912Z" fill="url(#paint41_linear_21388_86456)"/>
<path fill-rule="evenodd" clip-rule="evenodd" d="M177.636 38.9987C176.92 38.9987 176.338 38.4093 176.338 37.683V6.63142H175.377V32.42C175.377 33.1463 174.795 33.7357 174.078 33.7357H170.987C170.582 33.1358 169.774 32.9831 169.182 33.3937C169.049 33.4858 168.935 33.6014 168.844 33.7357H165.039C164.609 33.7397 164.207 33.5278 163.961 33.1699C163.718 33.524 163.321 33.7344 162.896 33.7357H160.039C159.322 33.7357 158.74 33.1463 158.74 32.42V6.63142H155.87V32.42C155.87 33.1463 155.288 33.7357 154.571 33.7357H150.831C150.114 33.7357 149.533 33.1463 149.533 32.42C149.533 33.1463 148.951 33.7357 148.234 33.7357H145.39C144.673 33.7357 144.091 33.1463 144.091 32.42V6.63142H143.597V37.683C143.597 38.4093 143.016 38.9987 142.299 38.9987C141.582 38.9987 141 38.4093 141 37.683V5.31569C141 4.5894 141.582 4 142.299 4H145.39C146.107 4 146.688 4.5894 146.688 5.31569V31.1042H146.935V5.31569C146.935 4.5894 147.517 4 148.234 4H150.831C151.548 4 152.13 4.5894 152.13 5.31569V31.1042H153.338V5.31569C153.338 4.5894 153.92 4 154.636 4H160.104C160.821 4 161.403 4.5894 161.403 5.31569V31.1042H161.662V5.31569C161.662 4.5894 162.244 4 162.961 4H165.104C165.821 4 166.403 4.5894 166.403 5.31569V31.1042H167.61V5.31569C167.61 4.5894 168.192 4 168.909 4H171.052C171.769 4 172.351 4.5894 172.351 5.31569V31.1042H172.844V5.31569C172.844 4.5894 173.426 4 174.143 4H177.701C178.418 4 179 4.5894 179 5.31569V37.683C179.001 38.4093 178.421 39 177.702 39C177.681 39 177.658 39 177.636 38.9987Z" fill="url(#paint42_linear_21388_86456)"/>
<path fill-rule="evenodd" clip-rule="evenodd" d="M28.6053 89.9996C28.3978 89.9996 28.2293 89.8312 28.2293 89.6237V80.7518H27.9511V88.12C27.9511 88.3275 27.7827 88.4959 27.5752 88.4959H26.6804C26.5632 88.3245 26.3293 88.2809 26.1579 88.3982C26.1196 88.4245 26.0865 88.4576 26.0601 88.4959H24.9587C24.8343 88.4971 24.7177 88.4365 24.6466 88.3343C24.5763 88.4354 24.4613 88.4955 24.3383 88.4959H23.5113C23.3038 88.4959 23.1353 88.3275 23.1353 88.12V80.7518H22.3045V88.12C22.3045 88.3275 22.1361 88.4959 21.9286 88.4959H20.8459C20.6383 88.4959 20.47 88.3275 20.47 88.12C20.47 88.3275 20.3015 88.4959 20.094 88.4959H19.2707C19.0632 88.4959 18.8948 88.3275 18.8948 88.12V80.7518H18.7519V89.6237C18.7519 89.8312 18.5835 89.9996 18.376 89.9996C18.1684 89.9996 18 89.8312 18 89.6237V80.3759C18 80.1684 18.1684 80 18.376 80H19.2707C19.4782 80 19.6467 80.1684 19.6467 80.3759V87.7441H19.7181V80.3759C19.7181 80.1684 19.8865 80 20.094 80H20.8459C21.0534 80 21.2218 80.1684 21.2218 80.3759V87.7441H21.5714V80.3759C21.5714 80.1684 21.7399 80 21.9474 80H23.5301C23.7376 80 23.906 80.1684 23.906 80.3759V87.7441H23.9812V80.3759C23.9812 80.1684 24.1496 80 24.3572 80H24.9775C25.185 80 25.3534 80.1684 25.3534 80.3759V87.7441H25.703V80.3759C25.703 80.1684 25.8714 80 26.079 80H26.6993C26.9068 80 27.0752 80.1684 27.0752 80.3759V87.7441H27.2181V80.3759C27.2181 80.1684 27.3865 80 27.594 80H28.6241C28.8316 80 29 80.1684 29 80.3759V89.6237C29.0004 89.8312 28.8323 90 28.6244 90C28.6181 90 28.6116 90 28.6053 89.9996Z" fill="url(#paint43_linear_21388_86456)"/>
<path fill-rule="evenodd" clip-rule="evenodd" d="M68.4919 44.8846C67.0342 44.9088 65.8326 43.7443 65.8085 42.2831C65.7851 40.8227 66.9476 39.6191 68.4053 39.5957C69.863 39.5714 71.0644 40.7361 71.0887 42.1964C71.0887 42.2111 71.0887 42.2249 71.0887 42.2397C71.0844 43.6818 69.9314 44.856 68.4919 44.8846ZM68.4919 41.3291C67.9907 41.3049 67.5647 41.6934 67.5406 42.1954C67.5171 42.6975 67.9041 43.1242 68.4053 43.1485C68.9065 43.172 69.3325 42.7843 69.3565 42.2822C69.3575 42.2684 69.3575 42.2536 69.3575 42.2397C69.3817 41.7611 69.0138 41.3543 68.536 41.3301C68.5213 41.3291 68.5066 41.3291 68.4919 41.3291Z" fill="url(#paint44_linear_21388_86456)"/>
<path fill-rule="evenodd" clip-rule="evenodd" d="M75.3339 51.3191H70.8762C70.3983 51.3191 70.0106 50.9307 70.0106 50.452C70.0106 49.9734 70.3983 49.5849 70.8762 49.5849H75.3339C75.8455 49.5901 76.2636 49.1782 76.2688 48.6656C76.2688 48.6631 76.2688 48.6597 76.2688 48.657V35.8229C76.2688 35.3104 75.8542 34.8951 75.3426 34.8951C75.3401 34.8951 75.3365 34.8951 75.3339 34.8951H61.6574C61.1458 34.8951 60.7312 35.3104 60.7312 35.8229V48.657C60.7312 49.1695 61.1458 49.5849 61.6574 49.5849H68.4957C68.9735 49.5849 69.3612 49.9734 69.3612 50.452C69.3612 50.9307 68.9735 51.3191 68.4957 51.3191H61.6574C60.1919 51.314 59.0043 50.1252 59 48.657V35.8229C59.0043 34.3548 60.1919 33.165 61.6574 33.1607H75.3339C76.8029 33.1607 77.9948 34.3513 78 35.8229V48.657C77.9957 50.1286 76.8029 51.3191 75.3339 51.3191Z" fill="url(#paint45_linear_21388_86456)"/>
<path fill-rule="evenodd" clip-rule="evenodd" d="M62.6859 38.0946C62.208 38.0946 61.8203 37.7061 61.8203 37.2274V28.6859C61.8203 24.9935 64.8084 22 68.4941 22C72.1799 22 75.1679 24.9935 75.1679 28.6859V34.0276C75.1679 34.5063 74.78 34.8947 74.3023 34.8947C73.8245 34.8947 73.4368 34.5063 73.4368 34.0276V28.6859C73.4368 25.9507 71.2242 23.7343 68.4941 23.7343C65.7639 23.7343 63.5515 25.9507 63.5515 28.6859V37.2274C63.5515 37.7061 63.1637 38.0946 62.6859 38.0946Z" fill="url(#paint46_linear_21388_86456)"/>
<path fill-rule="evenodd" clip-rule="evenodd" d="M68.4942 51.3183C68.0163 51.3183 67.6286 50.9299 67.6286 50.4511V44.0168C67.6286 43.5381 68.0163 43.1495 68.4942 43.1495C68.9721 43.1495 69.3598 43.5381 69.3598 44.0168V50.4511C69.3598 50.9299 68.9721 51.3183 68.4942 51.3183Z" fill="url(#paint47_linear_21388_86456)"/>
<path fill-rule="evenodd" clip-rule="evenodd" d="M124.936 22.9837C124.011 22.9837 123.259 22.1896 123.246 21.2008C122.382 20.7445 121.642 20.0595 121.096 19.2103C120.957 19.0422 120.971 18.785 121.128 18.6355C121.284 18.4862 121.525 18.5012 121.665 18.6689C121.681 18.6889 121.696 18.7109 121.709 18.7341C122.115 19.3622 122.64 19.8918 123.25 20.289V16.5971C122.718 16.457 122.235 16.1578 121.857 15.7341C121.482 15.279 121.316 14.6688 121.404 14.0692C121.526 12.9987 122.352 12.2375 123.265 11.8549V11.407C123.265 11.1824 123.436 11 123.646 11C123.856 11 124.026 11.1824 124.026 11.407V11.6391C124.738 11.5219 125.466 11.6366 126.115 11.9688C126.381 12.1019 126.623 12.2839 126.831 12.5061C127.19 12.4052 127.572 12.4699 127.885 12.6852C128.222 12.8945 128.38 13.3247 128.265 13.7232C128.181 13.9821 127.978 14.1763 127.729 14.2361C127.396 14.3444 127.036 14.2398 126.8 13.9674C126.8 14.0041 126.8 14.0448 126.8 14.0815V14.2035C126.758 14.5292 126.735 14.8589 126.716 15.209V15.4532C126.716 15.6649 126.69 15.8602 126.686 16.0841C126.969 16.1232 127.247 16.1941 127.515 16.2958C128.188 16.5543 128.704 17.1413 128.904 17.8752C129.119 18.6738 128.968 19.5343 128.497 20.1954C128.028 20.8219 127.382 21.2688 126.655 21.4695C126.528 22.352 125.816 23.0025 124.981 23L124.936 22.9837ZM124.06 21.5061C124.106 21.6454 124.18 21.7719 124.277 21.8765C124.641 22.2665 125.231 22.2677 125.596 21.879C125.666 21.8045 125.724 21.7186 125.769 21.6242C125.44 21.6583 125.109 21.6583 124.78 21.6242C124.537 21.6038 124.297 21.5643 124.06 21.5061ZM124.007 20.6472C124.282 20.7388 124.565 20.7991 124.852 20.8263C125.189 20.8573 125.529 20.8467 125.864 20.7938V20.2524C125.864 19.5563 125.864 18.8602 125.864 18.1683C125.864 17.9322 125.864 17.7001 125.864 17.4682C125.864 17.2361 125.864 17.0367 125.864 16.8209C125.64 16.8209 125.411 16.8209 125.187 16.8209H124.829C124.558 16.8221 124.287 16.8034 124.019 16.7639L124.007 20.6472ZM126.625 16.886C126.625 17.0814 126.625 17.2931 126.625 17.4682C126.625 17.6432 126.625 17.9403 126.625 18.1764C126.625 18.8643 126.625 19.5563 126.625 20.2442V20.5984C127.105 20.4299 127.529 20.114 127.843 19.6907C128.168 19.2352 128.274 18.6425 128.128 18.091C127.998 17.6029 127.655 17.2129 127.207 17.0448C127.018 16.9727 126.823 16.9198 126.625 16.886ZM124.022 15.9417C124.288 15.9848 124.556 16.0064 124.825 16.0068H125.179C125.411 16.0068 125.647 16.0068 125.879 16.0068C125.879 15.7992 125.879 15.5997 125.91 15.38V15.1398C125.933 14.7897 125.955 14.4315 126.001 14.0733V13.9593C126.025 13.6353 126.103 13.3186 126.229 13.0231C126.093 12.8855 125.936 12.7728 125.765 12.6893C125.225 12.4068 124.612 12.3221 124.022 12.4492H124L124.022 15.9417ZM123.261 12.7381C122.695 12.9893 122.282 13.5246 122.158 14.1669C122.099 14.5349 122.198 14.9114 122.428 15.1927C122.656 15.4471 122.94 15.636 123.254 15.7422L123.261 12.7381ZM127.272 13.2632C127.382 13.4587 127.458 13.4546 127.553 13.4302C127.553 13.4098 127.534 13.3853 127.485 13.3487C127.42 13.3048 127.348 13.2759 127.272 13.2632Z" fill="url(#paint48_linear_21388_86456)"/>
<path fill-rule="evenodd" clip-rule="evenodd" d="M18.9309 75.0001C18.7373 74.9954 18.5451 74.9541 18.3667 74.8779C10.7394 71.8246 5.17139 64.4209 2.19665 53.5058C0.858825 48.5231 0.120443 43.3984 0 38.2402C0 37.3976 0.683463 36.7135 1.52539 36.7135C5.80128 36.8632 10.0438 35.9183 13.8512 33.9658C14.588 33.5444 15.5278 33.8008 15.9489 34.5382C16.3697 35.2755 16.1134 36.2159 15.3768 36.6372C11.6059 38.602 7.42446 39.6477 3.17295 39.6904C3.40795 44.0746 4.09429 48.4223 5.21714 52.6663C7.10873 59.5817 11.1358 68.5732 19.587 71.9927C20.3711 72.3025 20.7554 73.1895 20.4458 73.9726C20.2124 74.5634 19.6403 74.9466 19.0073 74.939L18.9309 75.0001Z" fill="url(#paint49_linear_21388_86456)"/>
<path fill-rule="evenodd" clip-rule="evenodd" d="M23.3695 72.5117C22.5274 72.5147 21.8409 71.8339 21.838 70.9911C21.8363 70.4996 22.0712 70.0372 22.4695 69.7487C32.8273 62.1157 34.5052 44.9265 34.7646 39.7515C21.6151 39.263 17.771 32.5918 17.6031 32.3018C17.1821 31.5645 17.4385 30.6242 18.1753 30.2028C18.9121 29.7814 19.8519 30.038 20.2728 30.7752C20.3947 31.0042 23.8576 36.6832 36.3512 36.6832C37.1931 36.6832 37.8766 37.367 37.8766 38.2096C37.8766 39.1866 37.724 62.2378 24.2696 72.1606C24.0147 72.3727 23.699 72.495 23.3695 72.5117Z" fill="url(#paint50_linear_21388_86456)"/>
<path fill-rule="evenodd" clip-rule="evenodd" d="M19.0413 68C18.9079 67.9967 18.7755 67.9683 18.6526 67.9158C13.3982 65.8124 9.56251 60.7121 7.51325 53.1928C6.59163 49.7603 6.08297 46.2299 6 42.6765C6 42.0961 6.47083 41.6248 7.05082 41.6248C9.99644 41.7279 12.919 41.077 15.5419 39.7319C16.0495 39.4417 16.6969 39.6183 16.987 40.1263C17.2769 40.6342 17.1003 41.282 16.5929 41.5723C13.9951 42.9258 11.1146 43.6461 8.18581 43.6755C8.3477 46.6958 8.82051 49.6909 9.59402 52.6145C10.8971 57.3784 13.6713 63.5725 19.4933 65.9282C20.0334 66.1417 20.2982 66.7527 20.0848 67.2921C19.9241 67.6991 19.53 67.9631 19.0939 67.9579L19.0413 68Z" fill="url(#paint51_linear_21388_86456)"/>
<path fill-rule="evenodd" clip-rule="evenodd" d="M22.0988 66.2858C21.5187 66.2879 21.0458 65.8189 21.0439 65.2383C21.0427 64.8997 21.2045 64.5812 21.4789 64.3824C28.6143 59.1242 29.7702 47.2827 29.9488 43.7177C20.8903 43.3812 18.2421 38.7855 18.1265 38.5857C17.8364 38.0778 18.0131 37.43 18.5207 37.1398C19.0282 36.8495 19.6757 37.0262 19.9656 37.5341C20.0496 37.6918 22.4351 41.604 31.0418 41.604C31.6218 41.604 32.0926 42.0751 32.0926 42.6555C32.0926 43.3286 31.9876 59.2083 22.7189 66.044C22.5434 66.1901 22.3259 66.2743 22.0988 66.2858Z" fill="url(#paint52_linear_21388_86456)"/>
<path fill-rule="evenodd" clip-rule="evenodd" d="M58.2958 76.1948H40.5217C39.1244 76.1903 37.9954 75.0556 38 73.6601C38.0006 73.5016 38.016 73.344 38.0461 73.1882L41.0477 59.9663C41.2887 58.7916 42.3229 57.9485 43.5234 57.9467H44.9743C44.3932 56.6616 44.4132 55.1855 45.0288 53.9167C45.8366 52.1616 47.5834 51.0269 49.5176 51.0007C51.5899 50.9681 53.4606 52.2359 54.1969 54.1703C54.7854 55.5704 54.4703 57.1859 53.3988 58.2637L56.1919 58.2093C56.6928 58.2093 57.0988 58.6151 57.0988 59.1149C57.0988 59.6149 56.6928 60.0206 56.1919 60.0206L52.5011 60.084C52.4208 60.0885 52.3416 60.1038 52.2653 60.1293C51.0295 60.5467 49.7171 60.689 48.4203 60.5458C47.7725 60.4054 47.1571 60.1446 46.6066 59.776C46.0988 59.776 45.1829 59.776 43.5325 59.776C43.1898 59.7752 42.8957 60.0187 42.8342 60.3556L39.8235 73.5777C39.7951 73.7777 39.8509 73.9815 39.9777 74.1391C40.1126 74.3058 40.3161 74.4026 40.5308 74.4018H58.2958C58.515 74.4018 58.7221 74.3021 58.858 74.13C58.9892 73.9571 59.0358 73.7344 58.985 73.5233L55.8473 62.2393C55.7478 61.7494 56.0651 61.2712 56.556 61.1716C56.9961 61.0829 57.4352 61.3292 57.5884 61.7503L60.7443 73.0524C61.0849 74.4054 60.2624 75.7783 58.9071 76.1188C58.7073 76.1686 58.5019 76.1948 58.2958 76.1948ZM47.2414 57.9919H47.4319C48.1754 58.0916 50.5423 58.2908 51.9661 57.0863C52.622 56.5212 52.8284 55.593 52.4739 54.8042C52.013 53.5952 50.8496 52.7974 49.5539 52.8028C48.3076 52.8146 47.1791 53.5409 46.652 54.6684C46.2392 55.4952 46.2392 56.4678 46.652 57.2947C46.812 57.5555 47.0107 57.7909 47.2414 57.9919Z" fill="url(#paint53_linear_21388_86456)"/>
<defs>
<linearGradient id="paint0_linear_21388_86456" x1="248.5" y1="53" x2="-11.5" y2="53" gradientUnits="userSpaceOnUse">
<stop stop-color="#012169"/>
<stop offset="1" stop-color="#A0DCFF"/>
</linearGradient>
<linearGradient id="paint1_linear_21388_86456" x1="248.5" y1="53" x2="-11.5" y2="53" gradientUnits="userSpaceOnUse">
<stop stop-color="#012169"/>
<stop offset="1" stop-color="#A0DCFF"/>
</linearGradient>
<linearGradient id="paint2_linear_21388_86456" x1="248.5" y1="53" x2="-11.5" y2="53" gradientUnits="userSpaceOnUse">
<stop stop-color="#012169"/>
<stop offset="1" stop-color="#A0DCFF"/>
</linearGradient>
<linearGradient id="paint3_linear_21388_86456" x1="248.5" y1="53" x2="-11.5" y2="53" gradientUnits="userSpaceOnUse">
<stop stop-color="#012169"/>
<stop offset="1" stop-color="#A0DCFF"/>
</linearGradient>
<linearGradient id="paint4_linear_21388_86456" x1="248.5" y1="53" x2="-11.5" y2="53" gradientUnits="userSpaceOnUse">
<stop stop-color="#012169"/>
<stop offset="1" stop-color="#A0DCFF"/>
</linearGradient>
<linearGradient id="paint5_linear_21388_86456" x1="248.5" y1="53" x2="-11.5" y2="53" gradientUnits="userSpaceOnUse">
<stop stop-color="#012169"/>
<stop offset="1" stop-color="#A0DCFF"/>
</linearGradient>
<linearGradient id="paint6_linear_21388_86456" x1="248.5" y1="53" x2="-11.5" y2="53" gradientUnits="userSpaceOnUse">
<stop stop-color="#012169"/>
<stop offset="1" stop-color="#A0DCFF"/>
</linearGradient>
<linearGradient id="paint7_linear_21388_86456" x1="248.5" y1="53" x2="-11.5" y2="53" gradientUnits="userSpaceOnUse">
<stop stop-color="#012169"/>
<stop offset="1" stop-color="#A0DCFF"/>
</linearGradient>
<linearGradient id="paint8_linear_21388_86456" x1="248.5" y1="53" x2="-11.5" y2="53" gradientUnits="userSpaceOnUse">
<stop stop-color="#012169"/>
<stop offset="1" stop-color="#A0DCFF"/>
</linearGradient>
<linearGradient id="paint9_linear_21388_86456" x1="248.5" y1="53" x2="-11.5" y2="53" gradientUnits="userSpaceOnUse">
<stop stop-color="#012169"/>
<stop offset="1" stop-color="#A0DCFF"/>
</linearGradient>
<linearGradient id="paint10_linear_21388_86456" x1="248.5" y1="53" x2="-11.5" y2="53" gradientUnits="userSpaceOnUse">
<stop stop-color="#012169"/>
<stop offset="1" stop-color="#A0DCFF"/>
</linearGradient>
<linearGradient id="paint11_linear_21388_86456" x1="248.5" y1="53" x2="-11.5" y2="53" gradientUnits="userSpaceOnUse">
<stop stop-color="#012169"/>
<stop offset="1" stop-color="#A0DCFF"/>
</linearGradient>
<linearGradient id="paint12_linear_21388_86456" x1="248.5" y1="53" x2="-11.5" y2="53" gradientUnits="userSpaceOnUse">
<stop stop-color="#012169"/>
<stop offset="1" stop-color="#A0DCFF"/>
</linearGradient>
<linearGradient id="paint13_linear_21388_86456" x1="248.5" y1="53" x2="-11.5" y2="53" gradientUnits="userSpaceOnUse">
<stop stop-color="#012169"/>
<stop offset="1" stop-color="#A0DCFF"/>
</linearGradient>
<linearGradient id="paint14_linear_21388_86456" x1="248.5" y1="53" x2="-11.5" y2="53" gradientUnits="userSpaceOnUse">
<stop stop-color="#012169"/>
<stop offset="1" stop-color="#A0DCFF"/>
</linearGradient>
<linearGradient id="paint15_linear_21388_86456" x1="248.5" y1="53" x2="-11.5" y2="53" gradientUnits="userSpaceOnUse">
<stop stop-color="#012169"/>
<stop offset="1" stop-color="#A0DCFF"/>
</linearGradient>
<linearGradient id="paint16_linear_21388_86456" x1="248.5" y1="53" x2="-11.5" y2="53" gradientUnits="userSpaceOnUse">
<stop stop-color="#012169"/>
<stop offset="1" stop-color="#A0DCFF"/>
</linearGradient>
<linearGradient id="paint17_linear_21388_86456" x1="248.5" y1="53" x2="-11.5" y2="53" gradientUnits="userSpaceOnUse">
<stop stop-color="#012169"/>
<stop offset="1" stop-color="#A0DCFF"/>
</linearGradient>
<linearGradient id="paint18_linear_21388_86456" x1="248.5" y1="53" x2="-11.5" y2="53" gradientUnits="userSpaceOnUse">
<stop stop-color="#012169"/>
<stop offset="1" stop-color="#A0DCFF"/>
</linearGradient>
<linearGradient id="paint19_linear_21388_86456" x1="248.5" y1="53" x2="-11.5" y2="53" gradientUnits="userSpaceOnUse">
<stop stop-color="#012169"/>
<stop offset="1" stop-color="#A0DCFF"/>
</linearGradient>
<linearGradient id="paint20_linear_21388_86456" x1="248.5" y1="53" x2="-11.5" y2="53" gradientUnits="userSpaceOnUse">
<stop stop-color="#012169"/>
<stop offset="1" stop-color="#A0DCFF"/>
</linearGradient>
<linearGradient id="paint21_linear_21388_86456" x1="248.5" y1="53" x2="-11.5" y2="53" gradientUnits="userSpaceOnUse">
<stop stop-color="#012169"/>
<stop offset="1" stop-color="#A0DCFF"/>
</linearGradient>
<linearGradient id="paint22_linear_21388_86456" x1="248.5" y1="53" x2="-11.5" y2="53" gradientUnits="userSpaceOnUse">
<stop stop-color="#012169"/>
<stop offset="1" stop-color="#A0DCFF"/>
</linearGradient>
<linearGradient id="paint23_linear_21388_86456" x1="248.5" y1="53" x2="-11.5" y2="53" gradientUnits="userSpaceOnUse">
<stop stop-color="#012169"/>
<stop offset="1" stop-color="#A0DCFF"/>
</linearGradient>
<linearGradient id="paint24_linear_21388_86456" x1="248.5" y1="53" x2="-11.5" y2="53" gradientUnits="userSpaceOnUse">
<stop stop-color="#012169"/>
<stop offset="1" stop-color="#A0DCFF"/>
</linearGradient>
<linearGradient id="paint25_linear_21388_86456" x1="248.5" y1="53" x2="-11.5" y2="53" gradientUnits="userSpaceOnUse">
<stop stop-color="#012169"/>
<stop offset="1" stop-color="#A0DCFF"/>
</linearGradient>
<linearGradient id="paint26_linear_21388_86456" x1="248.5" y1="53" x2="-11.5" y2="53" gradientUnits="userSpaceOnUse">
<stop stop-color="#012169"/>
<stop offset="1" stop-color="#A0DCFF"/>
</linearGradient>
<linearGradient id="paint27_linear_21388_86456" x1="248.5" y1="53" x2="-11.5" y2="53" gradientUnits="userSpaceOnUse">
<stop stop-color="#012169"/>
<stop offset="1" stop-color="#A0DCFF"/>
</linearGradient>
<linearGradient id="paint28_linear_21388_86456" x1="248.5" y1="53" x2="-11.5" y2="53" gradientUnits="userSpaceOnUse">
<stop stop-color="#012169"/>
<stop offset="1" stop-color="#A0DCFF"/>
</linearGradient>
<linearGradient id="paint29_linear_21388_86456" x1="248.5" y1="53" x2="-11.5" y2="53" gradientUnits="userSpaceOnUse">
<stop stop-color="#012169"/>
<stop offset="1" stop-color="#A0DCFF"/>
</linearGradient>
<linearGradient id="paint30_linear_21388_86456" x1="248.5" y1="53" x2="-11.5" y2="53" gradientUnits="userSpaceOnUse">
<stop stop-color="#012169"/>
<stop offset="1" stop-color="#A0DCFF"/>
</linearGradient>
<linearGradient id="paint31_linear_21388_86456" x1="248.5" y1="53" x2="-11.5" y2="53" gradientUnits="userSpaceOnUse">
<stop stop-color="#012169"/>
<stop offset="1" stop-color="#A0DCFF"/>
</linearGradient>
<linearGradient id="paint32_linear_21388_86456" x1="248.5" y1="53" x2="-11.5" y2="53" gradientUnits="userSpaceOnUse">
<stop stop-color="#012169"/>
<stop offset="1" stop-color="#A0DCFF"/>
</linearGradient>
<linearGradient id="paint33_linear_21388_86456" x1="248.5" y1="53" x2="-11.5" y2="53" gradientUnits="userSpaceOnUse">
<stop stop-color="#012169"/>
<stop offset="1" stop-color="#A0DCFF"/>
</linearGradient>
<linearGradient id="paint34_linear_21388_86456" x1="248.5" y1="53" x2="-11.5" y2="53" gradientUnits="userSpaceOnUse">
<stop stop-color="#012169"/>
<stop offset="1" stop-color="#A0DCFF"/>
</linearGradient>
<linearGradient id="paint35_linear_21388_86456" x1="248.5" y1="53" x2="-11.5" y2="53" gradientUnits="userSpaceOnUse">
<stop stop-color="#012169"/>
<stop offset="1" stop-color="#A0DCFF"/>
</linearGradient>
<linearGradient id="paint36_linear_21388_86456" x1="248.5" y1="53" x2="-11.5" y2="53" gradientUnits="userSpaceOnUse">
<stop stop-color="#012169"/>
<stop offset="1" stop-color="#A0DCFF"/>
</linearGradient>
<linearGradient id="paint37_linear_21388_86456" x1="248.5" y1="53" x2="-11.5" y2="53" gradientUnits="userSpaceOnUse">
<stop stop-color="#012169"/>
<stop offset="1" stop-color="#A0DCFF"/>
</linearGradient>
<linearGradient id="paint38_linear_21388_86456" x1="248.5" y1="53" x2="-11.5" y2="53" gradientUnits="userSpaceOnUse">
<stop stop-color="#012169"/>
<stop offset="1" stop-color="#A0DCFF"/>
</linearGradient>
<linearGradient id="paint39_linear_21388_86456" x1="248.5" y1="53" x2="-11.5" y2="53" gradientUnits="userSpaceOnUse">
<stop stop-color="#012169"/>
<stop offset="1" stop-color="#A0DCFF"/>
</linearGradient>
<linearGradient id="paint40_linear_21388_86456" x1="248.5" y1="53" x2="-11.5" y2="53" gradientUnits="userSpaceOnUse">
<stop stop-color="#012169"/>
<stop offset="1" stop-color="#A0DCFF"/>
</linearGradient>
<linearGradient id="paint41_linear_21388_86456" x1="248.5" y1="53" x2="-11.5" y2="53" gradientUnits="userSpaceOnUse">
<stop stop-color="#012169"/>
<stop offset="1" stop-color="#A0DCFF"/>
</linearGradient>
<linearGradient id="paint42_linear_21388_86456" x1="248.5" y1="53" x2="-11.5" y2="53" gradientUnits="userSpaceOnUse">
<stop stop-color="#012169"/>
<stop offset="1" stop-color="#A0DCFF"/>
</linearGradient>
<linearGradient id="paint43_linear_21388_86456" x1="248.5" y1="53" x2="-11.5" y2="53" gradientUnits="userSpaceOnUse">
<stop stop-color="#012169"/>
<stop offset="1" stop-color="#A0DCFF"/>
</linearGradient>
<linearGradient id="paint44_linear_21388_86456" x1="248.5" y1="53" x2="-11.5" y2="53" gradientUnits="userSpaceOnUse">
<stop stop-color="#012169"/>
<stop offset="1" stop-color="#A0DCFF"/>
</linearGradient>
<linearGradient id="paint45_linear_21388_86456" x1="248.5" y1="53" x2="-11.5" y2="53" gradientUnits="userSpaceOnUse">
<stop stop-color="#012169"/>
<stop offset="1" stop-color="#A0DCFF"/>
</linearGradient>
<linearGradient id="paint46_linear_21388_86456" x1="248.5" y1="53" x2="-11.5" y2="53" gradientUnits="userSpaceOnUse">
<stop stop-color="#012169"/>
<stop offset="1" stop-color="#A0DCFF"/>
</linearGradient>
<linearGradient id="paint47_linear_21388_86456" x1="248.5" y1="53" x2="-11.5" y2="53" gradientUnits="userSpaceOnUse">
<stop stop-color="#012169"/>
<stop offset="1" stop-color="#A0DCFF"/>
</linearGradient>
<linearGradient id="paint48_linear_21388_86456" x1="248.5" y1="53" x2="-11.5" y2="53" gradientUnits="userSpaceOnUse">
<stop stop-color="#012169"/>
<stop offset="1" stop-color="#A0DCFF"/>
</linearGradient>
<linearGradient id="paint49_linear_21388_86456" x1="248.5" y1="53" x2="-11.5" y2="53" gradientUnits="userSpaceOnUse">
<stop stop-color="#012169"/>
<stop offset="1" stop-color="#A0DCFF"/>
</linearGradient>
<linearGradient id="paint50_linear_21388_86456" x1="248.5" y1="53" x2="-11.5" y2="53" gradientUnits="userSpaceOnUse">
<stop stop-color="#012169"/>
<stop offset="1" stop-color="#A0DCFF"/>
</linearGradient>
<linearGradient id="paint51_linear_21388_86456" x1="248.5" y1="53" x2="-11.5" y2="53" gradientUnits="userSpaceOnUse">
<stop stop-color="#012169"/>
<stop offset="1" stop-color="#A0DCFF"/>
</linearGradient>
<linearGradient id="paint52_linear_21388_86456" x1="248.5" y1="53" x2="-11.5" y2="53" gradientUnits="userSpaceOnUse">
<stop stop-color="#012169"/>
<stop offset="1" stop-color="#A0DCFF"/>
</linearGradient>
<linearGradient id="paint53_linear_21388_86456" x1="248.5" y1="53" x2="-11.5" y2="53" gradientUnits="userSpaceOnUse">
<stop stop-color="#012169"/>
<stop offset="1" stop-color="#A0DCFF"/>
</linearGradient>
</defs>
</svg>
