<svg width="241" height="143" viewBox="0 0 241 143" fill="none" xmlns="http://www.w3.org/2000/svg">
<path fill-rule="evenodd" clip-rule="evenodd" d="M231.702 88.7428H197.888C196.773 88.7428 195.868 87.8392 195.868 86.7257L195.343 57.5566L186.455 54.9546C185.384 54.6418 184.768 53.5223 185.082 52.4531C185.395 51.384 186.516 50.7689 187.586 51.0814L197.908 54.1072C198.757 54.3533 199.344 55.1219 199.362 56.0036L199.867 84.6883H230.167L236.227 64.5161H206.574C205.459 64.5161 204.554 63.6124 204.554 62.499C204.554 61.3854 205.459 60.4816 206.574 60.4816H238.994C240.109 60.4897 241.008 61.3995 241 62.513C240.998 62.7066 240.969 62.8983 240.913 63.0839L233.641 87.2904C233.391 88.1517 232.599 88.7428 231.702 88.7428Z" fill="url(#paint0_linear_21388_86455)"/>
<path fill-rule="evenodd" clip-rule="evenodd" d="M200.191 98.4662C196.365 98.4662 193.263 95.3677 193.263 91.547C193.263 87.7264 196.365 84.6279 200.191 84.6279C204.017 84.6279 207.12 87.7264 207.12 91.547C207.12 95.3677 204.017 98.4662 200.191 98.4662ZM200.191 88.6824C198.595 88.6824 197.303 89.9735 197.303 91.5671C197.303 93.1608 198.595 94.4518 200.191 94.4518C201.787 94.4518 203.08 93.1608 203.08 91.5671C203.08 91.5612 203.08 91.5531 203.08 91.547C203.069 89.9614 201.779 88.6824 200.191 88.6824Z" fill="url(#paint1_linear_21388_86455)"/>
<path fill-rule="evenodd" clip-rule="evenodd" d="M229.399 98.4662C225.574 98.4783 222.463 95.3879 222.451 91.5671C222.441 87.7465 225.533 84.64 229.359 84.6278C233.185 84.6178 236.296 87.7062 236.308 91.5268C236.308 91.5329 236.308 91.541 236.308 91.5469C236.298 95.3556 233.213 98.4439 229.399 98.4662ZM229.399 88.6824C227.804 88.6705 226.503 89.9533 226.491 91.5469C226.48 93.1407 227.763 94.4397 229.359 94.4518C230.955 94.462 232.256 93.1809 232.268 91.5873C232.268 91.5732 232.268 91.5611 232.268 91.5469C232.258 89.9695 230.979 88.6926 229.399 88.6824Z" fill="url(#paint2_linear_21388_86455)"/>
<path fill-rule="evenodd" clip-rule="evenodd" d="M131.742 86.7225H120.344C119.968 86.7225 119.663 86.4179 119.663 86.0425L119.486 76.2102L116.49 75.3331C116.13 75.2277 115.922 74.8503 116.028 74.4899C116.133 74.1295 116.511 73.9222 116.872 74.0275L120.351 75.0475C120.637 75.1304 120.835 75.3895 120.841 75.6867L121.012 85.3558H131.225L133.268 78.5561H123.272C122.896 78.5561 122.591 78.2515 122.591 77.8762C122.591 77.5008 122.896 77.1962 123.272 77.1962H134.2C134.576 77.1989 134.879 77.5055 134.877 77.8809C134.876 77.9462 134.866 78.0108 134.847 78.0733L132.396 86.2329C132.312 86.5232 132.045 86.7225 131.742 86.7225Z" fill="url(#paint3_linear_21388_86455)"/>
<path fill-rule="evenodd" clip-rule="evenodd" d="M121.121 90C119.831 90 118.785 88.9556 118.785 87.6676C118.785 86.3798 119.831 85.3354 121.121 85.3354C122.41 85.3354 123.456 86.3798 123.456 87.6676C123.456 88.9556 122.41 90 121.121 90ZM121.121 86.7021C120.583 86.7021 120.147 87.1373 120.147 87.6744C120.147 88.2116 120.583 88.6468 121.121 88.6468C121.659 88.6468 122.094 88.2116 122.094 87.6744C122.094 87.6724 122.094 87.6697 122.094 87.6676C122.091 87.1332 121.656 86.7021 121.121 86.7021Z" fill="url(#paint4_linear_21388_86455)"/>
<path fill-rule="evenodd" clip-rule="evenodd" d="M130.966 90C129.677 90.0041 128.628 88.9623 128.624 87.6744C128.621 86.3866 129.663 85.3394 130.953 85.3353C132.242 85.332 133.291 86.373 133.295 87.6608C133.295 87.6629 133.295 87.6656 133.295 87.6676C133.292 88.9515 132.252 89.9925 130.966 90ZM130.966 86.7021C130.428 86.698 129.99 87.1305 129.986 87.6676C129.982 88.2049 130.415 88.6427 130.953 88.6468C131.491 88.6502 131.929 88.2184 131.933 87.6812C131.933 87.6765 131.933 87.6724 131.933 87.6676C131.93 87.1359 131.499 86.7055 130.966 86.7021Z" fill="url(#paint5_linear_21388_86455)"/>
<path fill-rule="evenodd" clip-rule="evenodd" d="M88.1986 128C87.9319 127.994 87.6684 127.929 87.429 127.811L72.034 120.079C71.4542 119.785 71.088 119.187 71.0933 118.536V108.403L62.8825 103.894C62.0563 103.437 61.757 102.392 62.2138 101.564C62.2683 101.467 62.3317 101.374 62.4035 101.288L67.5352 95.2878C68.1494 94.5642 69.2321 94.4753 69.9557 95.0905C70.6776 95.7062 70.7663 96.793 70.1523 97.5166L66.4577 101.888L71.1787 104.494V92.6817L64.4733 82.9781C64.174 82.5427 64.0918 81.9904 64.251 81.4865C64.4102 80.9877 64.7882 80.5897 65.2773 80.4063L81.4078 74.2858C82.1127 74.0132 82.9114 74.236 83.3751 74.8344L89.4645 82.8238L94.5962 74.8002C95.0889 74.0183 96.11 73.768 96.9053 74.2345L112.3 83.1837C112.718 83.422 113.017 83.8266 113.122 84.2982C113.224 84.7679 113.125 85.2599 112.848 85.6525L106.604 94.3276L113.566 102.248C114.195 102.955 114.132 104.038 113.428 104.669C113.325 104.762 113.21 104.841 113.087 104.906L106.142 108.557V117.884C106.137 118.52 105.781 119.1 105.219 119.393L89.0197 127.811C88.7666 127.941 88.4842 128.006 88.1986 128ZM74.5144 117.49L88.1986 124.348L102.704 116.821V110.341L96.5462 113.581C95.7834 113.975 94.8459 113.74 94.3568 113.032L90.0804 106.843V120.336C90.0804 121.282 89.314 122.05 88.3697 122.05C87.4256 122.05 86.6592 121.282 86.6592 120.336V106.912L82.6565 112.981C82.1638 113.716 81.1922 113.955 80.4157 113.53L74.5485 110.289L74.5144 117.49ZM90.987 102.06L96.3409 109.826L102.756 106.397V96.9509L90.987 102.06ZM74.5314 106.346L80.6724 109.775L86.0775 101.717L74.5485 95.0992L74.5314 106.346ZM106.177 98.9396V104.649L109.598 102.934L106.177 98.9396ZM76.8577 92.4419L88.8315 99.2995L100.805 94.1563L89.5671 87.6585L76.8577 92.4419ZM91.9618 85.1896L103.936 92.1333L108.828 85.1383L96.4607 77.9547L91.9618 85.1896ZM68.493 82.7896L73.4881 90.0416L86.8132 85.0011L81.3907 77.9032L68.493 82.7896Z" fill="url(#paint6_linear_21388_86455)"/>
<path fill-rule="evenodd" clip-rule="evenodd" d="M153.99 143H121.545C120.692 143 120 142.309 120 141.457V99.5831C119.996 98.7314 120.683 98.0356 121.536 98.031C121.959 98.0278 122.364 98.1992 122.658 98.5031L127.833 103.857L133.241 110.383C133.804 110.152 134.39 109.971 134.986 109.843C136.956 109.453 139.002 109.714 140.811 110.584C141.417 110.866 141.979 111.237 142.48 111.679C143.433 111.525 144.409 111.735 145.214 112.266C146.28 112.894 146.762 114.179 146.373 115.351C146.09 116.128 145.434 116.709 144.627 116.894C143.983 117.08 143.295 117.036 142.68 116.771C142.68 117.373 142.572 117.974 142.541 118.561V119.116C142.541 119.409 142.541 119.703 142.541 119.98C143.065 120.088 143.581 120.233 144.086 120.412C145.908 121.069 147.308 122.554 147.856 124.408C148.432 126.422 148.026 128.588 146.759 130.256C145.627 131.722 144.066 132.798 142.294 133.341C142.046 134.304 141.506 135.165 140.749 135.81C139.677 136.721 138.257 137.109 136.871 136.875C134.778 136.491 133.188 134.776 132.963 132.663C130.889 131.558 129.114 129.97 127.787 128.034C127.283 127.344 127.436 126.377 128.127 125.874C128.817 125.371 129.786 125.524 130.29 126.213C131.025 127.258 131.915 128.184 132.932 128.96V125.473C132.932 124.547 132.932 123.513 133.086 122.387V122.171C131.788 121.807 130.614 121.097 129.687 120.119C128.663 118.946 128.206 117.383 128.436 115.845C128.635 114.333 129.389 112.948 130.552 111.957L125.516 105.878L123.075 103.363V139.883H152.429V103.394L149.664 106.233C149.072 106.847 148.094 106.864 147.479 106.273C147.465 106.261 147.451 106.247 147.439 106.233L143.144 101.805L138.833 106.233C138.543 106.537 138.141 106.71 137.721 106.711C137.301 106.71 136.899 106.537 136.609 106.233L132.314 101.805L131.294 102.854C130.691 103.453 129.718 103.453 129.115 102.854C128.516 102.252 128.516 101.28 129.115 100.679L131.232 98.4723C131.856 97.8845 132.833 97.8845 133.457 98.4723L137.752 102.916L142.062 98.4723C142.356 98.1745 142.756 98.0063 143.175 98.0094C143.593 98.0063 143.994 98.1745 144.287 98.4723L148.582 102.916L152.893 98.4723C153.485 97.8581 154.462 97.8412 155.077 98.4322C155.382 98.7253 155.553 99.1294 155.55 99.5522V141.426C155.567 142.278 154.889 142.983 154.036 143C154.021 143 154.005 143 153.99 143ZM135.96 130.472C136.467 130.6 136.984 130.688 137.505 130.734C138.101 130.78 138.701 130.78 139.297 130.734V130.024C139.297 128.482 139.297 126.861 139.297 125.288V122.834H137.397C137.118 122.834 136.686 122.834 136.161 122.834C136.161 123.791 136.037 124.717 136.022 125.519L135.96 130.472ZM142.34 123.128V125.318C142.34 126.861 142.34 128.404 142.34 129.947C143.076 129.586 143.717 129.058 144.21 128.404C144.884 127.526 145.106 126.385 144.812 125.318C144.548 124.396 143.852 123.658 142.943 123.343L142.34 123.128ZM136.284 119.703H139.328V118.314C139.328 117.481 139.451 116.647 139.56 115.83V115.583C139.631 114.943 139.77 114.312 139.977 113.7C139.779 113.555 139.567 113.431 139.343 113.33C138.147 112.741 136.789 112.562 135.481 112.821L135.033 112.929C135.126 113.083 135.203 113.253 135.28 113.407C136.077 115.405 136.42 117.556 136.284 119.703ZM132.437 114.457C131.92 114.926 131.577 115.557 131.464 116.246C131.337 116.914 131.526 117.603 131.974 118.113C132.32 118.479 132.736 118.772 133.194 118.977C133.279 117.53 133.064 116.08 132.561 114.719C132.527 114.628 132.485 114.542 132.437 114.457Z" fill="url(#paint7_linear_21388_86455)"/>
<path d="M157.981 70.8613H159.998C160.945 70.8613 161.631 71.0029 162.054 71.2861C162.477 71.5693 162.688 72.0169 162.688 72.6289C162.688 73.0521 162.57 73.402 162.332 73.6787C162.098 73.9521 161.754 74.1296 161.302 74.2109V74.2598C162.386 74.4453 162.928 75.015 162.928 75.9688C162.928 76.6068 162.711 77.1048 162.278 77.4629C161.849 77.821 161.246 78 160.472 78H157.981V70.8613ZM158.812 73.918H160.179C160.765 73.918 161.186 73.8268 161.443 73.6445C161.701 73.459 161.829 73.1481 161.829 72.7119C161.829 72.3115 161.686 72.0234 161.399 71.8477C161.113 71.6686 160.657 71.5791 160.032 71.5791H158.812V73.918ZM158.812 74.6211V77.292H160.301C160.877 77.292 161.31 77.1813 161.6 76.96C161.893 76.7354 162.039 76.3854 162.039 75.9102C162.039 75.4674 161.889 75.1419 161.59 74.9336C161.294 74.7253 160.841 74.6211 160.232 74.6211H158.812Z" fill="url(#paint8_linear_21388_86455)"/>
<path d="M169.856 70.8613V75.4805C169.856 76.2943 169.611 76.9339 169.119 77.3994C168.628 77.8649 167.952 78.0977 167.093 78.0977C166.233 78.0977 165.568 77.8633 165.096 77.3945C164.627 76.9258 164.393 76.2812 164.393 75.4609V70.8613H165.223V75.5195C165.223 76.1152 165.385 76.5726 165.711 76.8916C166.036 77.2106 166.515 77.3701 167.146 77.3701C167.749 77.3701 168.213 77.2106 168.538 76.8916C168.864 76.5693 169.026 76.1087 169.026 75.5098V70.8613H169.856Z" fill="url(#paint9_linear_21388_86455)"/>
<path d="M173.567 74.4307L175.472 70.8613H176.37L173.987 75.2314V78H173.147V75.2705L170.77 70.8613H171.678L173.567 74.4307Z" fill="url(#paint10_linear_21388_86455)"/>
<path fill-rule="evenodd" clip-rule="evenodd" d="M147.647 67.4632C146.439 67.4857 145.676 67.5 145.5 67.5C145.224 67.5 145 67.2761 145 67C145 66.7239 145.224 66.5 145.5 66.5C145.684 66.5 146.459 66.4855 147.684 66.4626C151.54 66.3904 159.845 66.2351 168.122 66.1875C173.561 66.1563 178.974 66.1719 183.061 66.2893C185.103 66.348 186.824 66.4324 188.054 66.5502C188.666 66.6089 189.173 66.6773 189.542 66.7591C189.725 66.7995 189.896 66.8477 190.035 66.9094C190.105 66.9403 190.184 66.982 190.257 67.04C190.327 67.0958 190.425 67.1927 190.474 67.3419C190.556 67.5873 190.615 67.9735 190.661 68.4176C190.71 68.8765 190.749 69.4431 190.781 70.0768C190.844 71.3451 190.875 72.9006 190.875 74.4376C190.875 75.9743 190.844 77.4992 190.781 78.7059C190.749 79.3085 190.709 79.8381 190.661 80.2527C190.636 80.4597 190.609 80.6446 190.578 80.7988C190.549 80.9415 190.51 81.0983 190.447 81.2237C190.365 81.3875 190.225 81.4642 190.174 81.4901C190.105 81.5262 190.031 81.5517 189.966 81.5707C189.835 81.6093 189.669 81.6416 189.482 81.6701C189.105 81.7278 188.58 81.7797 187.937 81.8269C186.647 81.9214 184.837 81.9998 182.686 82.0624C178.383 82.1876 172.69 82.2501 167 82.2501C161.31 82.2501 155.617 82.1876 151.314 82.0624C149.163 81.9998 147.354 81.9214 146.063 81.8269C145.42 81.7797 144.895 81.7278 144.518 81.6701C144.332 81.6416 144.165 81.6093 144.034 81.5707C143.969 81.5517 143.895 81.5262 143.826 81.4901C143.776 81.4642 143.635 81.3875 143.553 81.2237C143.484 81.0858 143.448 80.9081 143.424 80.7564C143.397 80.5873 143.376 80.3814 143.358 80.1492C143.323 79.6837 143.301 79.0827 143.289 78.3993C143.266 77.0309 143.281 75.3052 143.313 73.6158C143.344 71.9254 143.391 70.2668 143.43 69.0311C143.45 68.4132 143.467 67.9008 143.48 67.5429C143.486 67.3639 143.491 67.2235 143.495 67.1278L143.5 66.9815C143.5 66.9814 143.5 66.9809 143.997 67L143.5 66.9815C143.511 66.7056 143.743 66.4898 144.019 66.5005C144.295 66.5111 144.51 66.7434 144.5 67.0193L144 67.0001C144.5 67.0193 144.5 67.0192 144.5 67.0193L144.494 67.1649C144.491 67.2601 144.486 67.3999 144.479 67.5784C144.467 67.9352 144.449 68.4463 144.43 69.0628C144.39 70.2959 144.344 71.9498 144.312 73.6343C144.281 75.32 144.266 77.0317 144.289 78.3821C144.301 79.0581 144.322 79.6368 144.355 80.0736C144.372 80.2926 144.391 80.4685 144.411 80.5998C144.414 80.6128 144.416 80.625 144.418 80.6365C144.482 80.6505 144.565 80.6657 144.669 80.6816C145.007 80.7333 145.5 80.783 146.136 80.8295C147.404 80.9225 149.197 81.0004 151.343 81.0628C155.633 81.1876 161.315 81.2501 167 81.2501C172.685 81.2501 178.367 81.1876 182.657 81.0628C184.804 81.0004 186.596 80.9225 187.864 80.8295C188.5 80.783 188.993 80.7333 189.331 80.6816C189.439 80.665 189.525 80.6491 189.591 80.6347C189.593 80.6243 189.595 80.6132 189.598 80.6015C189.621 80.484 189.645 80.3286 189.668 80.1361C189.713 79.752 189.751 79.2464 189.782 78.6537C189.844 77.4697 189.875 75.9633 189.875 74.4376C189.875 72.912 189.844 71.3738 189.782 70.1265C189.751 69.5024 189.712 68.9557 189.667 68.522C189.633 68.1951 189.596 67.9547 189.562 67.7982C189.507 67.7798 189.43 67.7584 189.326 67.7355C189.017 67.6671 188.559 67.6032 187.958 67.5456C186.762 67.4311 185.069 67.3474 183.033 67.2889C178.963 67.172 173.564 67.1563 168.128 67.1875C159.872 67.235 151.499 67.3913 147.647 67.4632Z" fill="url(#paint11_linear_21388_86455)"/>
<path fill-rule="evenodd" clip-rule="evenodd" d="M187.178 117.4H167.423C166.995 117.401 166.604 117.157 166.416 116.773L164.894 113.661C162.981 109.855 160.073 104.089 159.301 102.197C158.731 101.136 158.989 99.8196 159.916 99.0515C161.551 98.0384 163.618 98.0384 165.252 99.0515C166.06 99.6531 166.733 100.415 167.232 101.29L167.534 101.727C168.508 103.327 169.693 104.789 171.058 106.071C171.625 106.253 171.95 106.849 171.797 107.425C171.633 108.022 171.017 108.372 170.422 108.208C170.409 108.205 170.398 108.201 170.387 108.198C169.984 108.086 169.022 107.828 165.689 103.003L165.375 102.522C165.022 101.906 164.56 101.36 164.011 100.91C163.186 100.445 162.192 100.396 161.326 100.775C161.326 100.775 161.18 100.887 161.326 101.346C162.064 103.16 164.939 108.87 166.841 112.642C167.333 113.639 167.78 114.512 168.094 115.15H186.563C186.765 114.613 187.022 113.672 187.134 113.258C187.246 112.844 187.257 112.799 187.301 112.665C188.133 110.025 188.728 107.316 189.08 104.571L189.159 103.977C189.505 101.582 189.673 99.0962 188.342 98.8388C187.76 98.8248 187.193 99.0194 186.742 99.3873C186.45 99.5871 186.081 99.6369 185.747 99.5216C185.409 99.4055 185.147 99.1352 185.042 98.794C185.042 98.794 184.617 97.5066 183.61 97.417C183.316 97.3645 183.013 97.412 182.749 97.5514C182.66 97.619 182.578 97.694 182.502 97.7753C182.1 98.2835 181.47 98.5568 180.824 98.5029C180.405 98.4063 180.056 98.1153 179.885 97.7192C179.602 97.041 179.064 96.502 178.386 96.2191C177.938 96.1295 177.513 96.5549 176.909 97.2043C176.591 97.5487 176.101 97.6755 175.656 97.5289C175.228 97.3797 174.931 96.9862 174.906 96.5326L174.806 89.0991C174.884 87.5093 174.728 84.7219 173.944 83.6248C173.769 83.321 173.394 83.196 173.072 83.3337C172.342 83.602 171.854 84.2915 171.841 85.0689V86.3787C171.841 97.6857 171.841 102.903 171.841 103.272C171.817 103.89 171.295 104.371 170.678 104.347C170.06 104.322 169.579 103.801 169.604 103.182C169.604 102.813 169.604 97.1595 169.604 86.39V85.0241C169.62 83.2766 170.729 81.7268 172.378 81.1507C173.621 80.7378 174.987 81.1936 175.734 82.2702C177.222 84.3524 177.032 88.6065 177.01 89.088L177.077 94.148C177.614 93.9098 178.213 93.8471 178.788 93.9689C179.812 94.2452 180.703 94.8761 181.305 95.749C182.01 95.2125 182.904 94.9898 183.778 95.1332C184.923 95.2542 185.949 95.8935 186.563 96.8683C187.241 96.5678 187.991 96.4706 188.722 96.5886C192.347 97.2714 191.664 101.985 191.34 104.246L191.273 104.772C190.943 107.667 190.351 110.526 189.505 113.314C189.505 113.437 189.416 113.627 189.36 113.851C188.711 116.068 188.387 117.4 187.178 117.4Z" fill="url(#paint12_linear_21388_86455)"/>
<path fill-rule="evenodd" clip-rule="evenodd" d="M142 96C139.239 96 137 93.7615 137 91C137 88.2386 139.239 86 142 86C144.761 86 147 88.2386 147 91C147 93.7615 144.761 96 142 96ZM142 86.4167C139.469 86.4167 137.417 88.4687 137.417 91C137.417 93.5313 139.469 95.5834 142 95.5834C144.531 95.5834 146.583 93.5313 146.583 91C146.583 88.4687 144.531 86.4167 142 86.4167Z" fill="url(#paint13_linear_21388_86455)"/>
<path fill-rule="evenodd" clip-rule="evenodd" d="M131 71C129.343 71 128 69.6569 128 68C128 66.3432 129.343 65 131 65C132.657 65 134 66.3432 134 68C134 69.6569 132.657 71 131 71ZM131 65.25C129.481 65.25 128.25 66.4812 128.25 68C128.25 69.5188 129.481 70.75 131 70.75C132.519 70.75 133.75 69.5188 133.75 68C133.75 66.4812 132.519 65.25 131 65.25Z" fill="url(#paint14_linear_21388_86455)"/>
<path fill-rule="evenodd" clip-rule="evenodd" d="M171 132C167.686 132 165 129.314 165 126C165 122.686 167.686 120 171 120C174.314 120 177 122.686 177 126C177 129.314 174.314 132 171 132ZM171 120.5C167.962 120.5 165.5 122.962 165.5 126C165.5 129.038 167.962 131.5 171 131.5C174.038 131.5 176.5 129.038 176.5 126C176.5 122.962 174.038 120.5 171 120.5Z" fill="url(#paint15_linear_21388_86455)"/>
<path fill-rule="evenodd" clip-rule="evenodd" d="M4.5 102C2.01471 102 0 99.9853 0 97.5C0 95.0147 2.01471 93 4.5 93C6.98531 93 9 95.0147 9 97.5C9 99.9853 6.98531 102 4.5 102ZM4.5 93.375C2.22181 93.375 0.375006 95.2218 0.375006 97.5C0.375006 99.7781 2.22181 101.625 4.5 101.625C6.77813 101.625 8.625 99.7781 8.625 97.5C8.625 95.2218 6.77813 93.375 4.5 93.375Z" fill="url(#paint16_linear_21388_86455)"/>
<path fill-rule="evenodd" clip-rule="evenodd" d="M9.5 121C7.01471 121 5 118.985 5 116.5C5 114.015 7.01471 112 9.5 112C11.9853 112 14 114.015 14 116.5C14 118.985 11.9853 121 9.5 121ZM9.5 112.375C7.22181 112.375 5.37501 114.222 5.37501 116.5C5.37501 118.778 7.22181 120.625 9.5 120.625C11.7781 120.625 13.625 118.778 13.625 116.5C13.625 114.222 11.7781 112.375 9.5 112.375Z" fill="url(#paint17_linear_21388_86455)"/>
<path fill-rule="evenodd" clip-rule="evenodd" d="M43.5 109C41.0147 109 39 106.985 39 104.5C39 102.015 41.0147 100 43.5 100C45.9853 100 48 102.015 48 104.5C48 106.985 45.9853 109 43.5 109ZM43.5 100.375C41.2218 100.375 39.375 102.222 39.375 104.5C39.375 106.778 41.2218 108.625 43.5 108.625C45.7781 108.625 47.625 106.778 47.625 104.5C47.625 102.222 45.7781 100.375 43.5 100.375Z" fill="url(#paint18_linear_21388_86455)"/>
<path fill-rule="evenodd" clip-rule="evenodd" d="M61.5 126C59.0147 126 57 123.985 57 121.5C57 119.015 59.0147 117 61.5 117C63.9853 117 66 119.015 66 121.5C66 123.985 63.9853 126 61.5 126ZM61.5 117.375C59.2218 117.375 57.375 119.222 57.375 121.5C57.375 123.778 59.2218 125.625 61.5 125.625C63.7781 125.625 65.625 123.778 65.625 121.5C65.625 119.222 63.7781 117.375 61.5 117.375Z" fill="url(#paint19_linear_21388_86455)"/>
<path fill-rule="evenodd" clip-rule="evenodd" d="M7.5 45C5.01471 45 3 42.9853 3 40.5C3 38.0147 5.01471 36 7.5 36C9.98531 36 12 38.0147 12 40.5C12 42.9853 9.98531 45 7.5 45ZM7.5 36.375C5.22181 36.375 3.37501 38.2218 3.37501 40.5C3.37501 42.7781 5.22181 44.625 7.5 44.625C9.77813 44.625 11.625 42.7781 11.625 40.5C11.625 38.2218 9.77813 36.375 7.5 36.375Z" fill="url(#paint20_linear_21388_86455)"/>
<path fill-rule="evenodd" clip-rule="evenodd" d="M47.5 64C45.0147 64 43 61.9853 43 59.5C43 57.0147 45.0147 55 47.5 55C49.9853 55 52 57.0147 52 59.5C52 61.9853 49.9853 64 47.5 64ZM47.5 55.375C45.2218 55.375 43.375 57.2218 43.375 59.5C43.375 61.7781 45.2218 63.625 47.5 63.625C49.7781 63.625 51.625 61.7781 51.625 59.5C51.625 57.2218 49.7781 55.375 47.5 55.375Z" fill="url(#paint21_linear_21388_86455)"/>
<path fill-rule="evenodd" clip-rule="evenodd" d="M231 49C226.582 49 223 45.4183 223 41C223 36.5818 226.582 33 231 33C235.418 33 239 36.5818 239 41C239 45.4183 235.418 49 231 49ZM231 33.6667C226.95 33.6667 223.667 36.9499 223.667 41C223.667 45.05 226.95 48.3334 231 48.3334C235.05 48.3334 238.333 45.05 238.333 41C238.333 36.9499 235.05 33.6667 231 33.6667Z" fill="url(#paint22_linear_21388_86455)"/>
<path fill-rule="evenodd" clip-rule="evenodd" d="M202 112C199.239 112 197 109.761 197 107C197 104.239 199.239 102 202 102C204.761 102 207 104.239 207 107C207 109.761 204.761 112 202 112ZM202 102.417C199.469 102.417 197.417 104.469 197.417 107C197.417 109.531 199.469 111.583 202 111.583C204.531 111.583 206.583 109.531 206.583 107C206.583 104.469 204.531 102.417 202 102.417Z" fill="url(#paint23_linear_21388_86455)"/>
<path fill-rule="evenodd" clip-rule="evenodd" d="M217.612 46.3262H187.193C186.534 46.3262 186 45.7925 186 45.1349V30.4343C186 29.7767 186.534 29.243 187.193 29.243H216.419V24.3826H188.386V26.4316C188.386 27.0892 187.851 27.6229 187.193 27.6229C186.534 27.6229 186 27.0892 186 26.4316V23.1913C186 22.5337 186.534 22 187.193 22H217.612C218.27 22 218.805 22.5337 218.805 23.1913V30.4343C218.805 31.092 218.27 31.6255 217.612 31.6255H188.386V43.9436H216.419V35.7951H192.8V39.4524H196.378V38.1062C196.378 37.4486 196.913 36.9149 197.571 36.9149C198.23 36.9149 198.764 37.4486 198.764 38.1062V40.6199C198.764 41.2775 198.23 41.8112 197.571 41.8112H191.607C190.948 41.8112 190.414 41.2775 190.414 40.6199V34.58C190.411 34.2631 190.536 33.9593 190.76 33.7342C190.985 33.5115 191.289 33.3863 191.607 33.3886H217.612C218.27 33.3886 218.805 33.9224 218.805 34.58V45.111C218.818 45.7687 218.294 46.313 217.636 46.3262C217.627 46.3262 217.62 46.3262 217.612 46.3262Z" fill="url(#paint24_linear_21388_86455)"/>
<path fill-rule="evenodd" clip-rule="evenodd" d="M205.527 128H193.473C193.212 128 193 127.781 193 127.51V121.467C193 121.197 193.212 120.977 193.473 120.977H205.055V118.979H193.945V119.822C193.945 120.092 193.734 120.311 193.473 120.311C193.212 120.311 193 120.092 193 119.822V118.49C193 118.219 193.212 118 193.473 118H205.527C205.788 118 206 118.219 206 118.49V121.467C206 121.738 205.788 121.957 205.527 121.957H193.945V127.021H205.055V123.671H195.695V125.174H197.113V124.621C197.113 124.351 197.324 124.131 197.585 124.131C197.846 124.131 198.058 124.351 198.058 124.621V125.654C198.058 125.925 197.846 126.144 197.585 126.144H195.222C194.961 126.144 194.749 125.925 194.749 125.654V123.171C194.748 123.041 194.798 122.916 194.886 122.824C194.976 122.732 195.096 122.681 195.222 122.682H205.527C205.788 122.682 206 122.901 206 123.171V127.5C206.005 127.771 205.798 127.995 205.537 128C205.533 128 205.53 128 205.527 128Z" fill="url(#paint25_linear_21388_86455)"/>
<path fill-rule="evenodd" clip-rule="evenodd" d="M136.527 60H124.473C124.212 60 124 59.7806 124 59.5103V53.4672C124 53.1968 124.212 52.9774 124.473 52.9774H136.055V50.9794H124.945V51.8217C124.945 52.0921 124.734 52.3115 124.473 52.3115C124.212 52.3115 124 52.0921 124 51.8217V50.4897C124 50.2194 124.212 50 124.473 50H136.527C136.788 50 137 50.2194 137 50.4897V53.4672C137 53.7375 136.788 53.9569 136.527 53.9569H124.945V59.0206H136.055V55.6709H126.695V57.1743H128.113V56.6209C128.113 56.3506 128.324 56.1312 128.585 56.1312C128.846 56.1312 129.058 56.3506 129.058 56.6209V57.6543C129.058 57.9246 128.846 58.144 128.585 58.144H126.222C125.961 58.144 125.749 57.9246 125.749 57.6543V55.1714C125.748 55.0411 125.798 54.9162 125.886 54.8237C125.976 54.7321 126.096 54.6807 126.222 54.6816H136.527C136.788 54.6816 137 54.9011 137 55.1714V59.5005C137.005 59.7708 136.798 59.9946 136.537 60C136.533 60 136.53 60 136.527 60Z" fill="url(#paint26_linear_21388_86455)"/>
<path fill-rule="evenodd" clip-rule="evenodd" d="M37.9533 48.9142C33.434 48.8869 29.0072 47.6334 25.1413 45.2871C24.5502 44.9452 23.9769 44.5697 23.4277 44.1637C19.2782 41.2522 16.1775 37.0748 14.5872 32.255C14.5199 32.0642 14.4928 31.8619 14.5072 31.6613C13.6375 29.1399 13.1315 26.5096 13.0017 23.8453C12.9616 22.9596 13.6472 22.2084 14.5311 22.1683C15.4151 22.1281 16.1646 22.8152 16.2047 23.7009C16.3216 26.126 16.7909 28.5205 17.598 30.8107C19.2876 31.2296 21.0476 31.2731 22.755 30.939C23.5238 30.8428 24.2443 30.7625 24.885 30.7465L27.0149 30.586C26.4433 26.6332 26.2078 22.6387 26.3104 18.6454H16.509C15.6251 18.6872 14.8754 18.0019 14.8355 17.116C14.8258 16.9282 14.8514 16.7389 14.9076 16.5592C18.0513 7.55247 26.0717 1.15033 35.535 0.0926985C45.0226 -0.716123 54.1767 3.81462 59.3016 11.8568C60.9144 14.4261 62.0017 17.2893 62.5047 20.2824C63.0988 23.0541 63.1597 25.9142 62.6807 28.7082C62.5463 29.9762 61.9056 31.1334 60.9032 31.9181L60.6468 32.1909C58.9828 35.4313 56.6463 38.2767 53.7924 40.5366C54.3081 40.4866 54.8143 40.6906 55.1537 41.0821C55.7287 41.7562 55.6503 42.7688 54.9774 43.3451C50.1457 47.123 44.1609 49.1196 38.0334 48.9945L37.9533 48.9142ZM19.1676 34.3416C20.1877 36.232 21.4658 37.9719 22.9632 39.5093C24.6736 41.3839 26.8277 42.7963 29.2251 43.6178C30.3333 43.9565 31.4961 44.0866 32.6525 44.0031C32.3079 43.7527 31.983 43.4798 31.6753 43.1846C29.3341 40.6232 27.875 37.378 27.5115 33.9242V33.7958L25.0131 33.9083C24.4365 33.9083 23.7959 34.0045 23.1073 34.0687C21.8052 34.2757 20.4856 34.3673 19.1676 34.3416ZM44.5357 33.2983C44.0472 36.7682 42.7339 40.0712 40.7079 42.9278C43.3489 42.6341 45.8888 41.7448 48.1391 40.3278C51.4637 38.4148 54.3192 35.7843 56.499 32.6242C54.6412 32.7046 52.7674 32.8009 50.9097 32.9132L44.5357 33.2983ZM30.7306 33.7156C31.0363 36.3702 32.1559 38.8658 33.9336 40.8575C34.7488 41.5861 35.7097 42.1335 36.7522 42.4622C39.2506 40.5204 40.5638 37.134 41.3165 33.3624C39.5708 33.3624 37.8252 33.4589 36.0956 33.4589L30.7306 33.7156ZM29.4813 18.6936C29.3724 22.6722 29.6191 26.6523 30.218 30.586L35.9673 30.3614C37.8893 30.3614 39.8272 30.3614 41.7649 30.2491C41.8771 29.3343 41.9731 28.4034 42.0533 27.5045C42.3255 24.5629 42.3255 21.6034 42.0533 18.6616L29.4813 18.6936ZM45.2403 18.5813C45.5125 21.6193 45.5125 24.6751 45.2403 27.7131C45.2403 28.4996 45.0962 29.3182 45.0002 30.0565C46.9379 29.9762 48.8438 29.8638 50.7335 29.7674C53.1999 29.6391 55.6662 29.4947 58.1166 29.3984H58.2927C58.9973 27.726 59.4153 25.9463 59.5257 24.1344C59.5834 23.0301 59.529 21.9227 59.3657 20.8282C59.2696 20.427 59.1734 20.0258 59.0453 19.6245C58.9782 19.2536 58.818 18.9054 58.5809 18.6133C58.2029 18.4996 57.8058 18.4545 57.4118 18.485L45.2403 18.5813ZM29.4012 5.0197C24.7392 7.16243 20.9885 10.8938 18.8152 15.548H26.5185C26.8148 11.8888 27.7932 8.31789 29.4012 5.0197ZM35.8073 3.4148C34.3339 3.4148 33.0046 5.01969 32.2519 6.43212C30.8651 9.2536 30.0082 12.3046 29.7216 15.4357L41.5889 15.3555C41.1933 12.9 40.6039 10.4798 39.8272 8.11727C39.3628 6.75305 38.0656 3.60746 35.9673 3.51123L35.8073 3.4148ZM41.0122 3.31859C41.7762 4.45331 42.3735 5.69064 42.7899 6.9939C43.7125 9.711 44.3931 12.5036 44.8239 15.3394L57.3798 15.2432H57.556C57.2629 14.6284 56.9314 14.0346 56.563 13.4616C53.091 7.9872 47.4279 4.28318 41.0283 3.30263L41.0122 3.31859Z" fill="url(#paint27_linear_21388_86455)"/>
<path fill-rule="evenodd" clip-rule="evenodd" d="M30.8671 130.975H48.6956C49.2299 130.98 49.6854 130.596 49.76 130.078L52.0484 114.085H56.0185C56.6061 114.085 57.083 113.618 57.083 113.043C57.083 112.467 56.6061 112 56.0185 112H51.1118C50.5775 111.995 50.1219 112.379 50.0473 112.897L47.7589 128.89H31.676L28.419 116.838H44.4699L44.1719 119.402H33.528C33.1906 119.404 32.8756 119.563 32.6765 119.83C32.4754 120.097 32.4169 120.441 32.5169 120.758L33.9751 125.314C34.12 125.765 34.5563 126.065 35.0395 126.043L43.5547 125.97C44.1421 125.97 44.619 125.503 44.619 124.928C44.619 124.352 44.1421 123.885 43.5547 123.885L35.8378 123.948L35.0395 121.487H45.1617C45.7068 121.49 46.1666 121.09 46.2262 120.559L46.7584 115.91C46.7924 115.614 46.6956 115.317 46.4923 115.096C46.2912 114.879 46.0047 114.753 45.7047 114.752H27.0672C26.7373 114.753 26.4276 114.904 26.2264 115.159C26.021 115.415 25.9508 115.751 26.0348 116.066L29.8771 130.161C29.9827 130.62 30.3881 130.953 30.8671 130.975Z" fill="url(#paint28_linear_21388_86455)"/>
<path fill-rule="evenodd" clip-rule="evenodd" d="M47.4721 136C49.4881 136.006 51.1272 134.409 51.1337 132.434C51.14 130.46 49.5093 128.854 47.4933 128.848C45.4774 128.843 43.8383 130.439 43.8319 132.413C43.8319 132.417 43.8319 132.421 43.8319 132.424C43.8373 134.392 45.4625 135.988 47.4721 136ZM47.4721 130.943C48.3129 130.938 48.9984 131.6 49.0049 132.424C49.0102 133.248 48.3343 133.919 47.4933 133.925C46.6526 133.93 45.967 133.268 45.9607 132.445C45.9607 132.437 45.9607 132.431 45.9607 132.424C45.9661 131.609 46.6398 130.949 47.4721 130.943Z" fill="url(#paint29_linear_21388_86455)"/>
<path fill-rule="evenodd" clip-rule="evenodd" d="M32.0913 136C34.1072 136 35.7421 134.399 35.7421 132.424C35.7421 130.449 34.1072 128.848 32.0913 128.848C30.0753 128.848 28.4405 130.449 28.4405 132.424C28.4469 134.396 30.0774 135.995 32.0913 136ZM32.0913 130.943C32.9322 130.943 33.6133 131.611 33.6133 132.434C33.6133 133.258 32.9322 133.925 32.0913 133.925C31.2505 133.925 30.5692 133.258 30.5692 132.434C30.5692 132.431 30.5692 132.427 30.5692 132.424C30.5755 131.604 31.2547 130.943 32.0913 130.943Z" fill="url(#paint30_linear_21388_86455)"/>
<path fill-rule="evenodd" clip-rule="evenodd" d="M217.853 123.022H231.967C232.39 123.026 232.751 122.722 232.81 122.312L234.622 109.651H237.765C238.23 109.651 238.607 109.281 238.607 108.825C238.607 108.37 238.23 108 237.765 108H233.88C233.457 107.996 233.097 108.3 233.037 108.71L231.226 121.371H218.493L215.915 111.83H228.622L228.386 113.86H219.96C219.693 113.862 219.443 113.987 219.286 114.198C219.126 114.41 219.08 114.682 219.159 114.933L220.314 118.54C220.428 118.897 220.774 119.135 221.156 119.118L227.897 119.06C228.363 119.06 228.74 118.69 228.74 118.235C228.74 117.779 228.363 117.409 227.897 117.409L221.788 117.459L221.156 115.511H229.17C229.601 115.513 229.965 115.196 230.012 114.776L230.434 111.095C230.461 110.861 230.384 110.626 230.223 110.451C230.064 110.279 229.837 110.18 229.6 110.179H214.845C214.584 110.18 214.338 110.299 214.179 110.501C214.017 110.704 213.961 110.97 214.028 111.219L217.069 122.378C217.153 122.741 217.474 123.004 217.853 123.022Z" fill="url(#paint31_linear_21388_86455)"/>
<path fill-rule="evenodd" clip-rule="evenodd" d="M230.999 127C232.595 127.005 233.892 125.741 233.898 124.177C233.903 122.614 232.612 121.343 231.016 121.338C229.42 121.334 228.122 122.598 228.117 124.161C228.117 124.163 228.117 124.167 228.117 124.169C228.121 125.727 229.408 126.991 230.999 127ZM230.999 122.997C231.665 122.993 232.207 123.517 232.212 124.169C232.216 124.821 231.681 125.353 231.016 125.358C230.35 125.362 229.807 124.838 229.802 124.186C229.802 124.18 229.802 124.175 229.802 124.169C229.807 123.524 230.34 123.001 230.999 122.997Z" fill="url(#paint32_linear_21388_86455)"/>
<path fill-rule="evenodd" clip-rule="evenodd" d="M218.822 127C220.418 127 221.713 125.732 221.713 124.169C221.713 122.606 220.418 121.338 218.822 121.338C217.226 121.338 215.932 122.606 215.932 124.169C215.937 125.731 217.228 126.996 218.822 127ZM218.822 122.997C219.488 122.997 220.027 123.525 220.027 124.177C220.027 124.829 219.488 125.358 218.822 125.358C218.157 125.358 217.617 124.829 217.617 124.177C217.617 124.175 217.617 124.172 217.617 124.169C217.622 123.52 218.16 122.997 218.822 122.997Z" fill="url(#paint33_linear_21388_86455)"/>
<path fill-rule="evenodd" clip-rule="evenodd" d="M68.879 33.3253H75.762C75.9682 33.3274 76.1441 33.1792 76.1729 32.9792L77.0563 26.805H78.589C78.8159 26.805 79 26.6247 79 26.4025C79 26.1803 78.8159 26 78.589 26H76.6947C76.4885 25.998 76.3126 26.1461 76.2838 26.3461L75.4003 32.5204H69.1914L67.934 27.8676H74.1306L74.0155 28.8577H69.9063C69.7761 28.8585 69.6544 28.9197 69.5776 29.0227C69.5 29.1258 69.4774 29.2586 69.516 29.3809L70.0789 31.1398C70.1349 31.3141 70.3033 31.43 70.4898 31.4216L73.7772 31.3934C74.004 31.3934 74.1881 31.2131 74.1881 30.9909C74.1881 30.7687 74.004 30.5884 73.7772 30.5884L70.7981 30.6126L70.4898 29.6627H74.3977C74.6081 29.6639 74.7856 29.5093 74.8086 29.3044L75.0141 27.5093C75.0272 27.395 74.9898 27.2807 74.9113 27.1954C74.8337 27.1113 74.7231 27.063 74.6073 27.0626H67.4121C67.2847 27.063 67.1651 27.1209 67.0874 27.2196C67.0081 27.3186 66.981 27.4482 67.0135 27.5697L68.4969 33.0114C68.5376 33.1885 68.6941 33.3169 68.879 33.3253Z" fill="url(#paint34_linear_21388_86455)"/>
<path fill-rule="evenodd" clip-rule="evenodd" d="M75.2895 35.0867C76.0678 35.0891 76.7006 34.4725 76.7031 33.7101C76.7056 32.9478 76.076 32.3279 75.2977 32.3255C74.5195 32.3235 73.8867 32.9397 73.8842 33.7021C73.8842 33.7033 73.8842 33.7049 73.8842 33.7061C73.8863 34.466 74.5137 35.0822 75.2895 35.0867ZM75.2895 33.1346C75.6142 33.1325 75.8788 33.3881 75.8813 33.7061C75.8833 34.0241 75.6224 34.2833 75.2977 34.2857C74.9732 34.2877 74.7085 34.0321 74.706 33.7142C74.706 33.7113 74.706 33.7089 74.706 33.7061C74.7081 33.3914 74.9682 33.1366 75.2895 33.1346Z" fill="url(#paint35_linear_21388_86455)"/>
<path fill-rule="evenodd" clip-rule="evenodd" d="M69.3518 35.0867C70.1301 35.0867 70.7612 34.4684 70.7612 33.7061C70.7612 32.9438 70.1301 32.3255 69.3518 32.3255C68.5735 32.3255 67.9424 32.9438 67.9424 33.7061C67.9448 34.4676 68.5743 35.0846 69.3518 35.0867ZM69.3518 33.1346C69.6764 33.1346 69.9394 33.3922 69.9394 33.7101C69.9394 34.0281 69.6764 34.2857 69.3518 34.2857C69.0272 34.2857 68.7642 34.0281 68.7642 33.7101C68.7642 33.7089 68.7642 33.7073 68.7642 33.7061C68.7666 33.3898 69.0288 33.1346 69.3518 33.1346Z" fill="url(#paint36_linear_21388_86455)"/>
<path fill-rule="evenodd" clip-rule="evenodd" d="M110.337 68.3849H90.6477C88.0802 68.3849 86 66.3073 86 63.7434V56.5662C86.0013 56.1703 86.1617 55.7906 86.4453 55.5133C86.7216 55.2389 87.0958 55.0847 87.4848 55.0833H107.071V31.357H93.9144V52.1176C93.9144 52.936 93.2491 53.6005 92.4295 53.6005C91.6098 53.6005 90.9446 52.936 90.9446 52.1176V29.8741C90.9446 29.0556 91.6098 28.3913 92.4295 28.3913H108.555C109.375 28.3913 110.04 29.0556 110.04 29.8741V56.5662C110.043 56.9607 109.887 57.3389 109.61 57.6191C109.329 57.8963 108.95 58.052 108.555 58.0491H88.9698V63.7434C88.9698 64.6688 89.721 65.419 90.6477 65.419H110.337C111.256 65.428 112.006 64.691 112.015 63.7729C112.015 63.7626 112.015 63.7537 112.015 63.7434V26.6711C112.024 25.7532 111.286 25.0044 110.367 24.9954C110.357 24.9954 110.348 24.9954 110.337 24.9954H90.6477C90.0181 25.0103 89.4478 25.369 89.1627 25.9297C89.0439 26.1594 88.9831 26.4131 88.9846 26.6711V51.5244C88.9846 52.3429 88.3193 53.0072 87.4997 53.0072C86.68 53.0072 86.0147 52.3429 86.0147 51.5244V26.6413C86.0132 25.9326 86.1767 25.2312 86.4899 24.595C87.2769 23.0113 88.8926 22.0059 90.6625 22H110.352C112.919 22 115 24.0774 115 26.6413V63.7136C115.016 66.2777 112.949 68.3686 110.382 68.3849C110.367 68.3849 110.352 68.3849 110.337 68.3849Z" fill="url(#paint37_linear_21388_86455)"/>
<path fill-rule="evenodd" clip-rule="evenodd" d="M100.492 59.6654C101.632 59.6654 102.557 59.6654 102.557 59.6654V63.7732C102.557 63.7732 101.632 63.7732 100.492 63.7732H100.507V59.6654H100.492Z" fill="url(#paint38_linear_21388_86455)"/>
<path fill-rule="evenodd" clip-rule="evenodd" d="M104.338 43.9912L104.843 44.0654L105.274 44.3323L105.556 44.8217L105.69 45.2368L105.556 45.7853L105.274 46.2008L104.843 46.4824L104.338 46.69L103.774 46.4824L103.343 46.2008L103.061 45.7853L102.987 45.2368L103.061 44.8217L103.343 44.3323L103.774 44.0654L104.338 43.9912Z" fill="url(#paint39_linear_21388_86455)"/>
<path fill-rule="evenodd" clip-rule="evenodd" d="M98.8887 43.9912L99.3935 44.0654L99.8241 44.3323L100.106 44.8217L100.24 45.2368L100.106 45.7853L99.8241 46.2008L99.3935 46.4824L98.8887 46.69L98.3244 46.4824L97.8935 46.2008L97.6114 45.7853L97.5372 45.2368L97.6114 44.8217L97.8935 44.3323L98.3244 44.0654L98.8887 43.9912Z" fill="url(#paint40_linear_21388_86455)"/>
<path fill-rule="evenodd" clip-rule="evenodd" d="M104.219 43.9912H98.7401L98.4877 43.9171L98.3542 43.7392L97.2553 39.2014H95.5625L95.4288 39.1421L95.2953 38.89L95.4288 38.623L95.5625 38.5043H97.4484L97.7007 38.623L97.775 38.7565L98.0274 39.7797H105.051L105.125 39.9132L105.185 39.9726V40.1652L104.605 43.7392L104.472 43.9171L104.219 43.9912Z" fill="url(#paint41_linear_21388_86455)"/>
<path fill-rule="evenodd" clip-rule="evenodd" d="M177.636 57.9987C176.92 57.9987 176.338 57.4093 176.338 56.683V25.6314H175.377V51.42C175.377 52.1463 174.795 52.7357 174.078 52.7357H170.987C170.582 52.1358 169.774 51.9831 169.182 52.3937C169.049 52.4858 168.935 52.6014 168.844 52.7357H165.039C164.609 52.7397 164.207 52.5278 163.961 52.1699C163.718 52.524 163.321 52.7344 162.896 52.7357H160.039C159.322 52.7357 158.74 52.1463 158.74 51.42V25.6314H155.87V51.42C155.87 52.1463 155.288 52.7357 154.571 52.7357H150.831C150.114 52.7357 149.533 52.1463 149.533 51.42C149.533 52.1463 148.951 52.7357 148.234 52.7357H145.39C144.673 52.7357 144.091 52.1463 144.091 51.42V25.6314H143.597V56.683C143.597 57.4093 143.016 57.9987 142.299 57.9987C141.582 57.9987 141 57.4093 141 56.683V24.3157C141 23.5894 141.582 23 142.299 23H145.39C146.107 23 146.688 23.5894 146.688 24.3157V50.1042H146.935V24.3157C146.935 23.5894 147.517 23 148.234 23H150.831C151.548 23 152.13 23.5894 152.13 24.3157V50.1042H153.338V24.3157C153.338 23.5894 153.92 23 154.636 23H160.104C160.821 23 161.403 23.5894 161.403 24.3157V50.1042H161.662V24.3157C161.662 23.5894 162.244 23 162.961 23H165.104C165.821 23 166.403 23.5894 166.403 24.3157V50.1042H167.61V24.3157C167.61 23.5894 168.192 23 168.909 23H171.052C171.769 23 172.351 23.5894 172.351 24.3157V50.1042H172.844V24.3157C172.844 23.5894 173.426 23 174.143 23H177.701C178.418 23 179 23.5894 179 24.3157V56.683C179.001 57.4093 178.421 58 177.702 58C177.681 58 177.658 58 177.636 57.9987Z" fill="url(#paint42_linear_21388_86455)"/>
<path fill-rule="evenodd" clip-rule="evenodd" d="M28.6053 109C28.3978 109 28.2293 108.831 28.2293 108.624V99.7518H27.9511V107.12C27.9511 107.328 27.7827 107.496 27.5752 107.496H26.6804C26.5632 107.325 26.3293 107.281 26.1579 107.398C26.1196 107.425 26.0865 107.458 26.0601 107.496H24.9587C24.8343 107.497 24.7177 107.437 24.6466 107.334C24.5763 107.435 24.4613 107.496 24.3383 107.496H23.5113C23.3038 107.496 23.1353 107.328 23.1353 107.12V99.7518H22.3045V107.12C22.3045 107.328 22.1361 107.496 21.9286 107.496H20.8459C20.6383 107.496 20.47 107.328 20.47 107.12C20.47 107.328 20.3015 107.496 20.094 107.496H19.2707C19.0632 107.496 18.8948 107.328 18.8948 107.12V99.7518H18.7519V108.624C18.7519 108.831 18.5835 109 18.376 109C18.1684 109 18 108.831 18 108.624V99.3759C18 99.1684 18.1684 99 18.376 99H19.2707C19.4782 99 19.6467 99.1684 19.6467 99.3759V106.744H19.7181V99.3759C19.7181 99.1684 19.8865 99 20.094 99H20.8459C21.0534 99 21.2218 99.1684 21.2218 99.3759V106.744H21.5714V99.3759C21.5714 99.1684 21.7399 99 21.9474 99H23.5301C23.7376 99 23.906 99.1684 23.906 99.3759V106.744H23.9812V99.3759C23.9812 99.1684 24.1496 99 24.3572 99H24.9775C25.185 99 25.3534 99.1684 25.3534 99.3759V106.744H25.703V99.3759C25.703 99.1684 25.8714 99 26.079 99H26.6993C26.9068 99 27.0752 99.1684 27.0752 99.3759V106.744H27.2181V99.3759C27.2181 99.1684 27.3865 99 27.594 99H28.6241C28.8316 99 29 99.1684 29 99.3759V108.624C29.0004 108.831 28.8323 109 28.6244 109C28.6181 109 28.6116 109 28.6053 109Z" fill="url(#paint43_linear_21388_86455)"/>
<path fill-rule="evenodd" clip-rule="evenodd" d="M68.4919 63.8846C67.0342 63.9088 65.8326 62.7443 65.8085 61.2831C65.7851 59.8227 66.9476 58.6191 68.4053 58.5957C69.863 58.5714 71.0644 59.7361 71.0887 61.1964C71.0887 61.2111 71.0887 61.2249 71.0887 61.2397C71.0844 62.6818 69.9314 63.856 68.4919 63.8846ZM68.4919 60.3291C67.9907 60.3049 67.5647 60.6934 67.5406 61.1954C67.5171 61.6975 67.9041 62.1242 68.4053 62.1485C68.9065 62.172 69.3325 61.7843 69.3565 61.2822C69.3575 61.2684 69.3575 61.2536 69.3575 61.2397C69.3817 60.7611 69.0138 60.3543 68.536 60.3301C68.5213 60.3291 68.5066 60.3291 68.4919 60.3291Z" fill="url(#paint44_linear_21388_86455)"/>
<path fill-rule="evenodd" clip-rule="evenodd" d="M75.3339 70.3191H70.8762C70.3983 70.3191 70.0106 69.9307 70.0106 69.452C70.0106 68.9734 70.3983 68.5849 70.8762 68.5849H75.3339C75.8455 68.5901 76.2636 68.1782 76.2688 67.6656C76.2688 67.6631 76.2688 67.6597 76.2688 67.657V54.8229C76.2688 54.3104 75.8542 53.8951 75.3426 53.8951C75.3401 53.8951 75.3365 53.8951 75.3339 53.8951H61.6574C61.1458 53.8951 60.7312 54.3104 60.7312 54.8229V67.657C60.7312 68.1695 61.1458 68.5849 61.6574 68.5849H68.4957C68.9735 68.5849 69.3612 68.9734 69.3612 69.452C69.3612 69.9307 68.9735 70.3191 68.4957 70.3191H61.6574C60.1919 70.314 59.0043 69.1252 59 67.657V54.8229C59.0043 53.3548 60.1919 52.165 61.6574 52.1607H75.3339C76.8029 52.1607 77.9948 53.3513 78 54.8229V67.657C77.9957 69.1286 76.8029 70.3191 75.3339 70.3191Z" fill="url(#paint45_linear_21388_86455)"/>
<path fill-rule="evenodd" clip-rule="evenodd" d="M62.6859 57.0946C62.208 57.0946 61.8203 56.7061 61.8203 56.2274V47.6859C61.8203 43.9935 64.8084 41 68.4941 41C72.1799 41 75.1679 43.9935 75.1679 47.6859V53.0276C75.1679 53.5063 74.78 53.8947 74.3023 53.8947C73.8245 53.8947 73.4368 53.5063 73.4368 53.0276V47.6859C73.4368 44.9507 71.2242 42.7343 68.4941 42.7343C65.7639 42.7343 63.5515 44.9507 63.5515 47.6859V56.2274C63.5515 56.7061 63.1637 57.0946 62.6859 57.0946Z" fill="url(#paint46_linear_21388_86455)"/>
<path fill-rule="evenodd" clip-rule="evenodd" d="M68.4942 70.3183C68.0163 70.3183 67.6286 69.9299 67.6286 69.4511V63.0168C67.6286 62.5381 68.0163 62.1495 68.4942 62.1495C68.9721 62.1495 69.3598 62.5381 69.3598 63.0168V69.4511C69.3598 69.9299 68.9721 70.3183 68.4942 70.3183Z" fill="url(#paint47_linear_21388_86455)"/>
<path fill-rule="evenodd" clip-rule="evenodd" d="M124.936 41.9837C124.011 41.9837 123.259 41.1896 123.246 40.2008C122.382 39.7445 121.642 39.0595 121.096 38.2103C120.957 38.0422 120.971 37.785 121.128 37.6355C121.284 37.4862 121.525 37.5012 121.665 37.6689C121.681 37.6889 121.696 37.7109 121.709 37.7341C122.115 38.3622 122.64 38.8918 123.25 39.289V35.5971C122.718 35.457 122.235 35.1578 121.857 34.7341C121.482 34.279 121.316 33.6688 121.404 33.0692C121.526 31.9987 122.352 31.2375 123.265 30.8549V30.407C123.265 30.1824 123.436 30 123.646 30C123.856 30 124.026 30.1824 124.026 30.407V30.6391C124.738 30.5219 125.466 30.6366 126.115 30.9688C126.381 31.1019 126.623 31.2839 126.831 31.5061C127.19 31.4052 127.572 31.4699 127.885 31.6852C128.222 31.8945 128.38 32.3247 128.265 32.7232C128.181 32.9821 127.978 33.1763 127.729 33.2361C127.396 33.3444 127.036 33.2398 126.8 32.9674C126.8 33.0041 126.8 33.0448 126.8 33.0815V33.2035C126.758 33.5292 126.735 33.8589 126.716 34.209V34.4532C126.716 34.6649 126.69 34.8602 126.686 35.0841C126.969 35.1232 127.247 35.1941 127.515 35.2958C128.188 35.5543 128.704 36.1413 128.904 36.8752C129.119 37.6738 128.968 38.5343 128.497 39.1954C128.028 39.8219 127.382 40.2688 126.655 40.4695C126.528 41.352 125.816 42.0025 124.981 42L124.936 41.9837ZM124.06 40.5061C124.106 40.6454 124.18 40.7719 124.277 40.8765C124.641 41.2665 125.231 41.2677 125.596 40.879C125.666 40.8045 125.724 40.7186 125.769 40.6242C125.44 40.6583 125.109 40.6583 124.78 40.6242C124.537 40.6038 124.297 40.5643 124.06 40.5061ZM124.007 39.6472C124.282 39.7388 124.565 39.7991 124.852 39.8263C125.189 39.8573 125.529 39.8467 125.864 39.7938V39.2524C125.864 38.5563 125.864 37.8602 125.864 37.1683C125.864 36.9322 125.864 36.7001 125.864 36.4682C125.864 36.2361 125.864 36.0367 125.864 35.8209C125.64 35.8209 125.411 35.8209 125.187 35.8209H124.829C124.558 35.8221 124.287 35.8034 124.019 35.7639L124.007 39.6472ZM126.625 35.886C126.625 36.0814 126.625 36.2931 126.625 36.4682C126.625 36.6432 126.625 36.9403 126.625 37.1764C126.625 37.8643 126.625 38.5563 126.625 39.2442V39.5984C127.105 39.4299 127.529 39.114 127.843 38.6907C128.168 38.2352 128.274 37.6425 128.128 37.091C127.998 36.6029 127.655 36.2129 127.207 36.0448C127.018 35.9727 126.823 35.9198 126.625 35.886ZM124.022 34.9417C124.288 34.9848 124.556 35.0064 124.825 35.0068H125.179C125.411 35.0068 125.647 35.0068 125.879 35.0068C125.879 34.7992 125.879 34.5997 125.91 34.38V34.1398C125.933 33.7897 125.955 33.4315 126.001 33.0733V32.9593C126.025 32.6353 126.103 32.3186 126.229 32.0231C126.093 31.8855 125.936 31.7728 125.765 31.6893C125.225 31.4068 124.612 31.3221 124.022 31.4492H124L124.022 34.9417ZM123.261 31.7381C122.695 31.9893 122.282 32.5246 122.158 33.1669C122.099 33.5349 122.198 33.9114 122.428 34.1927C122.656 34.4471 122.94 34.636 123.254 34.7422L123.261 31.7381ZM127.272 32.2632C127.382 32.4587 127.458 32.4546 127.553 32.4302C127.553 32.4098 127.534 32.3853 127.485 32.3487C127.42 32.3048 127.348 32.2759 127.272 32.2632Z" fill="url(#paint48_linear_21388_86455)"/>
<path fill-rule="evenodd" clip-rule="evenodd" d="M18.9309 94.0001C18.7373 93.9954 18.5451 93.9541 18.3667 93.8779C10.7394 90.8246 5.17139 83.4209 2.19665 72.5058C0.858825 67.5231 0.120443 62.3984 0 57.2402C0 56.3976 0.683463 55.7135 1.52539 55.7135C5.80128 55.8632 10.0438 54.9183 13.8512 52.9658C14.588 52.5444 15.5278 52.8008 15.9489 53.5382C16.3697 54.2755 16.1134 55.2159 15.3768 55.6372C11.6059 57.602 7.42446 58.6477 3.17295 58.6904C3.40795 63.0746 4.09429 67.4223 5.21714 71.6663C7.10873 78.5817 11.1358 87.5732 19.587 90.9927C20.3711 91.3025 20.7554 92.1895 20.4458 92.9726C20.2124 93.5634 19.6403 93.9466 19.0073 93.939L18.9309 94.0001Z" fill="url(#paint49_linear_21388_86455)"/>
<path fill-rule="evenodd" clip-rule="evenodd" d="M23.3695 91.5117C22.5274 91.5147 21.8409 90.8339 21.838 89.9911C21.8363 89.4996 22.0712 89.0372 22.4695 88.7487C32.8273 81.1157 34.5052 63.9265 34.7646 58.7515C21.6151 58.263 17.771 51.5918 17.6031 51.3018C17.1821 50.5645 17.4385 49.6242 18.1753 49.2028C18.9121 48.7814 19.8519 49.038 20.2728 49.7752C20.3947 50.0042 23.8576 55.6832 36.3512 55.6832C37.1931 55.6832 37.8766 56.367 37.8766 57.2096C37.8766 58.1866 37.724 81.2378 24.2696 91.1606C24.0147 91.3727 23.699 91.495 23.3695 91.5117Z" fill="url(#paint50_linear_21388_86455)"/>
<path fill-rule="evenodd" clip-rule="evenodd" d="M19.0413 87C18.9079 86.9967 18.7755 86.9683 18.6526 86.9158C13.3982 84.8124 9.56251 79.7121 7.51325 72.1928C6.59163 68.7603 6.08297 65.2299 6 61.6765C6 61.0961 6.47083 60.6248 7.05082 60.6248C9.99644 60.7279 12.919 60.077 15.5419 58.7319C16.0495 58.4417 16.6969 58.6183 16.987 59.1263C17.2769 59.6342 17.1003 60.282 16.5929 60.5723C13.9951 61.9258 11.1146 62.6461 8.18581 62.6755C8.3477 65.6958 8.82051 68.6909 9.59402 71.6145C10.8971 76.3784 13.6713 82.5725 19.4933 84.9282C20.0334 85.1417 20.2982 85.7527 20.0848 86.2921C19.9241 86.6991 19.53 86.9631 19.0939 86.9579L19.0413 87Z" fill="url(#paint51_linear_21388_86455)"/>
<path fill-rule="evenodd" clip-rule="evenodd" d="M22.0988 85.2858C21.5187 85.2879 21.0458 84.8189 21.0439 84.2383C21.0427 83.8997 21.2045 83.5812 21.4789 83.3824C28.6143 78.1242 29.7702 66.2827 29.9488 62.7177C20.8903 62.3812 18.2421 57.7855 18.1265 57.5857C17.8364 57.0778 18.0131 56.43 18.5207 56.1398C19.0282 55.8495 19.6757 56.0262 19.9656 56.5341C20.0496 56.6918 22.4351 60.604 31.0418 60.604C31.6218 60.604 32.0926 61.0751 32.0926 61.6555C32.0926 62.3286 31.9876 78.2083 22.7189 85.044C22.5434 85.1901 22.3259 85.2743 22.0988 85.2858Z" fill="url(#paint52_linear_21388_86455)"/>
<path fill-rule="evenodd" clip-rule="evenodd" d="M58.2958 95.1948H40.5217C39.1244 95.1903 37.9954 94.0556 38 92.6601C38.0006 92.5016 38.016 92.344 38.0461 92.1882L41.0477 78.9663C41.2887 77.7916 42.3229 76.9485 43.5234 76.9467H44.9743C44.3932 75.6616 44.4132 74.1855 45.0288 72.9167C45.8366 71.1616 47.5834 70.0269 49.5176 70.0007C51.5899 69.9681 53.4606 71.2359 54.1969 73.1703C54.7854 74.5704 54.4703 76.1859 53.3988 77.2637L56.1919 77.2093C56.6928 77.2093 57.0988 77.6151 57.0988 78.1149C57.0988 78.6149 56.6928 79.0206 56.1919 79.0206L52.5011 79.084C52.4208 79.0885 52.3416 79.1038 52.2653 79.1293C51.0295 79.5467 49.7171 79.689 48.4203 79.5458C47.7725 79.4054 47.1571 79.1446 46.6066 78.776C46.0988 78.776 45.1829 78.776 43.5325 78.776C43.1898 78.7752 42.8957 79.0187 42.8342 79.3556L39.8235 92.5777C39.7951 92.7777 39.8509 92.9815 39.9777 93.1391C40.1126 93.3058 40.3161 93.4026 40.5308 93.4018H58.2958C58.515 93.4018 58.7221 93.3021 58.858 93.13C58.9892 92.9571 59.0358 92.7344 58.985 92.5233L55.8473 81.2393C55.7478 80.7494 56.0651 80.2712 56.556 80.1716C56.9961 80.0829 57.4352 80.3292 57.5884 80.7503L60.7443 92.0524C61.0849 93.4054 60.2624 94.7783 58.9071 95.1188C58.7073 95.1686 58.5019 95.1948 58.2958 95.1948ZM47.2414 76.9919H47.4319C48.1754 77.0916 50.5423 77.2908 51.9661 76.0863C52.622 75.5212 52.8284 74.593 52.4739 73.8042C52.013 72.5952 50.8496 71.7974 49.5539 71.8028C48.3076 71.8146 47.1791 72.5409 46.652 73.6684C46.2392 74.4952 46.2392 75.4678 46.652 76.2947C46.812 76.5555 47.0107 76.7909 47.2414 76.9919Z" fill="url(#paint53_linear_21388_86455)"/>
<defs>
<linearGradient id="paint0_linear_21388_86455" x1="248.5" y1="72" x2="-11.5" y2="72" gradientUnits="userSpaceOnUse">
<stop stop-color="#00A3E0"/>
<stop offset="1" stop-color="#98D8F0"/>
</linearGradient>
<linearGradient id="paint1_linear_21388_86455" x1="248.5" y1="72" x2="-11.5" y2="72" gradientUnits="userSpaceOnUse">
<stop stop-color="#00A3E0"/>
<stop offset="1" stop-color="#98D8F0"/>
</linearGradient>
<linearGradient id="paint2_linear_21388_86455" x1="248.5" y1="72" x2="-11.5" y2="72" gradientUnits="userSpaceOnUse">
<stop stop-color="#00A3E0"/>
<stop offset="1" stop-color="#98D8F0"/>
</linearGradient>
<linearGradient id="paint3_linear_21388_86455" x1="248.5" y1="72" x2="-11.5" y2="72" gradientUnits="userSpaceOnUse">
<stop stop-color="#00A3E0"/>
<stop offset="1" stop-color="#98D8F0"/>
</linearGradient>
<linearGradient id="paint4_linear_21388_86455" x1="248.5" y1="72" x2="-11.5" y2="72" gradientUnits="userSpaceOnUse">
<stop stop-color="#00A3E0"/>
<stop offset="1" stop-color="#98D8F0"/>
</linearGradient>
<linearGradient id="paint5_linear_21388_86455" x1="248.5" y1="72" x2="-11.5" y2="72" gradientUnits="userSpaceOnUse">
<stop stop-color="#00A3E0"/>
<stop offset="1" stop-color="#98D8F0"/>
</linearGradient>
<linearGradient id="paint6_linear_21388_86455" x1="248.5" y1="72" x2="-11.5" y2="72" gradientUnits="userSpaceOnUse">
<stop stop-color="#00A3E0"/>
<stop offset="1" stop-color="#98D8F0"/>
</linearGradient>
<linearGradient id="paint7_linear_21388_86455" x1="248.5" y1="72" x2="-11.5" y2="72" gradientUnits="userSpaceOnUse">
<stop stop-color="#00A3E0"/>
<stop offset="1" stop-color="#98D8F0"/>
</linearGradient>
<linearGradient id="paint8_linear_21388_86455" x1="248.5" y1="72" x2="-11.5" y2="72" gradientUnits="userSpaceOnUse">
<stop stop-color="#00A3E0"/>
<stop offset="1" stop-color="#98D8F0"/>
</linearGradient>
<linearGradient id="paint9_linear_21388_86455" x1="248.5" y1="72" x2="-11.5" y2="72" gradientUnits="userSpaceOnUse">
<stop stop-color="#00A3E0"/>
<stop offset="1" stop-color="#98D8F0"/>
</linearGradient>
<linearGradient id="paint10_linear_21388_86455" x1="248.5" y1="72" x2="-11.5" y2="72" gradientUnits="userSpaceOnUse">
<stop stop-color="#00A3E0"/>
<stop offset="1" stop-color="#98D8F0"/>
</linearGradient>
<linearGradient id="paint11_linear_21388_86455" x1="248.5" y1="72" x2="-11.5" y2="72" gradientUnits="userSpaceOnUse">
<stop stop-color="#00A3E0"/>
<stop offset="1" stop-color="#98D8F0"/>
</linearGradient>
<linearGradient id="paint12_linear_21388_86455" x1="248.5" y1="72" x2="-11.5" y2="72" gradientUnits="userSpaceOnUse">
<stop stop-color="#00A3E0"/>
<stop offset="1" stop-color="#98D8F0"/>
</linearGradient>
<linearGradient id="paint13_linear_21388_86455" x1="248.5" y1="72" x2="-11.5" y2="72" gradientUnits="userSpaceOnUse">
<stop stop-color="#00A3E0"/>
<stop offset="1" stop-color="#98D8F0"/>
</linearGradient>
<linearGradient id="paint14_linear_21388_86455" x1="248.5" y1="72" x2="-11.5" y2="72" gradientUnits="userSpaceOnUse">
<stop stop-color="#00A3E0"/>
<stop offset="1" stop-color="#98D8F0"/>
</linearGradient>
<linearGradient id="paint15_linear_21388_86455" x1="248.5" y1="72" x2="-11.5" y2="72" gradientUnits="userSpaceOnUse">
<stop stop-color="#00A3E0"/>
<stop offset="1" stop-color="#98D8F0"/>
</linearGradient>
<linearGradient id="paint16_linear_21388_86455" x1="248.5" y1="72" x2="-11.5" y2="72" gradientUnits="userSpaceOnUse">
<stop stop-color="#00A3E0"/>
<stop offset="1" stop-color="#98D8F0"/>
</linearGradient>
<linearGradient id="paint17_linear_21388_86455" x1="248.5" y1="72" x2="-11.5" y2="72" gradientUnits="userSpaceOnUse">
<stop stop-color="#00A3E0"/>
<stop offset="1" stop-color="#98D8F0"/>
</linearGradient>
<linearGradient id="paint18_linear_21388_86455" x1="248.5" y1="72" x2="-11.5" y2="72" gradientUnits="userSpaceOnUse">
<stop stop-color="#00A3E0"/>
<stop offset="1" stop-color="#98D8F0"/>
</linearGradient>
<linearGradient id="paint19_linear_21388_86455" x1="248.5" y1="72" x2="-11.5" y2="72" gradientUnits="userSpaceOnUse">
<stop stop-color="#00A3E0"/>
<stop offset="1" stop-color="#98D8F0"/>
</linearGradient>
<linearGradient id="paint20_linear_21388_86455" x1="248.5" y1="72" x2="-11.5" y2="72" gradientUnits="userSpaceOnUse">
<stop stop-color="#00A3E0"/>
<stop offset="1" stop-color="#98D8F0"/>
</linearGradient>
<linearGradient id="paint21_linear_21388_86455" x1="248.5" y1="72" x2="-11.5" y2="72" gradientUnits="userSpaceOnUse">
<stop stop-color="#00A3E0"/>
<stop offset="1" stop-color="#98D8F0"/>
</linearGradient>
<linearGradient id="paint22_linear_21388_86455" x1="248.5" y1="72" x2="-11.5" y2="72" gradientUnits="userSpaceOnUse">
<stop stop-color="#00A3E0"/>
<stop offset="1" stop-color="#98D8F0"/>
</linearGradient>
<linearGradient id="paint23_linear_21388_86455" x1="248.5" y1="72" x2="-11.5" y2="72" gradientUnits="userSpaceOnUse">
<stop stop-color="#00A3E0"/>
<stop offset="1" stop-color="#98D8F0"/>
</linearGradient>
<linearGradient id="paint24_linear_21388_86455" x1="248.5" y1="72" x2="-11.5" y2="72" gradientUnits="userSpaceOnUse">
<stop stop-color="#00A3E0"/>
<stop offset="1" stop-color="#98D8F0"/>
</linearGradient>
<linearGradient id="paint25_linear_21388_86455" x1="248.5" y1="72" x2="-11.5" y2="72" gradientUnits="userSpaceOnUse">
<stop stop-color="#00A3E0"/>
<stop offset="1" stop-color="#98D8F0"/>
</linearGradient>
<linearGradient id="paint26_linear_21388_86455" x1="248.5" y1="72" x2="-11.5" y2="72" gradientUnits="userSpaceOnUse">
<stop stop-color="#00A3E0"/>
<stop offset="1" stop-color="#98D8F0"/>
</linearGradient>
<linearGradient id="paint27_linear_21388_86455" x1="248.5" y1="72" x2="-11.5" y2="72" gradientUnits="userSpaceOnUse">
<stop stop-color="#00A3E0"/>
<stop offset="1" stop-color="#98D8F0"/>
</linearGradient>
<linearGradient id="paint28_linear_21388_86455" x1="248.5" y1="72" x2="-11.5" y2="72" gradientUnits="userSpaceOnUse">
<stop stop-color="#00A3E0"/>
<stop offset="1" stop-color="#98D8F0"/>
</linearGradient>
<linearGradient id="paint29_linear_21388_86455" x1="248.5" y1="72" x2="-11.5" y2="72" gradientUnits="userSpaceOnUse">
<stop stop-color="#00A3E0"/>
<stop offset="1" stop-color="#98D8F0"/>
</linearGradient>
<linearGradient id="paint30_linear_21388_86455" x1="248.5" y1="72" x2="-11.5" y2="72" gradientUnits="userSpaceOnUse">
<stop stop-color="#00A3E0"/>
<stop offset="1" stop-color="#98D8F0"/>
</linearGradient>
<linearGradient id="paint31_linear_21388_86455" x1="248.5" y1="72" x2="-11.5" y2="72" gradientUnits="userSpaceOnUse">
<stop stop-color="#00A3E0"/>
<stop offset="1" stop-color="#98D8F0"/>
</linearGradient>
<linearGradient id="paint32_linear_21388_86455" x1="248.5" y1="72" x2="-11.5" y2="72" gradientUnits="userSpaceOnUse">
<stop stop-color="#00A3E0"/>
<stop offset="1" stop-color="#98D8F0"/>
</linearGradient>
<linearGradient id="paint33_linear_21388_86455" x1="248.5" y1="72" x2="-11.5" y2="72" gradientUnits="userSpaceOnUse">
<stop stop-color="#00A3E0"/>
<stop offset="1" stop-color="#98D8F0"/>
</linearGradient>
<linearGradient id="paint34_linear_21388_86455" x1="248.5" y1="72" x2="-11.5" y2="72" gradientUnits="userSpaceOnUse">
<stop stop-color="#00A3E0"/>
<stop offset="1" stop-color="#98D8F0"/>
</linearGradient>
<linearGradient id="paint35_linear_21388_86455" x1="248.5" y1="72" x2="-11.5" y2="72" gradientUnits="userSpaceOnUse">
<stop stop-color="#00A3E0"/>
<stop offset="1" stop-color="#98D8F0"/>
</linearGradient>
<linearGradient id="paint36_linear_21388_86455" x1="248.5" y1="72" x2="-11.5" y2="72" gradientUnits="userSpaceOnUse">
<stop stop-color="#00A3E0"/>
<stop offset="1" stop-color="#98D8F0"/>
</linearGradient>
<linearGradient id="paint37_linear_21388_86455" x1="248.5" y1="72" x2="-11.5" y2="72" gradientUnits="userSpaceOnUse">
<stop stop-color="#00A3E0"/>
<stop offset="1" stop-color="#98D8F0"/>
</linearGradient>
<linearGradient id="paint38_linear_21388_86455" x1="248.5" y1="72" x2="-11.5" y2="72" gradientUnits="userSpaceOnUse">
<stop stop-color="#00A3E0"/>
<stop offset="1" stop-color="#98D8F0"/>
</linearGradient>
<linearGradient id="paint39_linear_21388_86455" x1="248.5" y1="72" x2="-11.5" y2="72" gradientUnits="userSpaceOnUse">
<stop stop-color="#00A3E0"/>
<stop offset="1" stop-color="#98D8F0"/>
</linearGradient>
<linearGradient id="paint40_linear_21388_86455" x1="248.5" y1="72" x2="-11.5" y2="72" gradientUnits="userSpaceOnUse">
<stop stop-color="#00A3E0"/>
<stop offset="1" stop-color="#98D8F0"/>
</linearGradient>
<linearGradient id="paint41_linear_21388_86455" x1="248.5" y1="72" x2="-11.5" y2="72" gradientUnits="userSpaceOnUse">
<stop stop-color="#00A3E0"/>
<stop offset="1" stop-color="#98D8F0"/>
</linearGradient>
<linearGradient id="paint42_linear_21388_86455" x1="248.5" y1="72" x2="-11.5" y2="72" gradientUnits="userSpaceOnUse">
<stop stop-color="#00A3E0"/>
<stop offset="1" stop-color="#98D8F0"/>
</linearGradient>
<linearGradient id="paint43_linear_21388_86455" x1="248.5" y1="72" x2="-11.5" y2="72" gradientUnits="userSpaceOnUse">
<stop stop-color="#00A3E0"/>
<stop offset="1" stop-color="#98D8F0"/>
</linearGradient>
<linearGradient id="paint44_linear_21388_86455" x1="248.5" y1="72" x2="-11.5" y2="72" gradientUnits="userSpaceOnUse">
<stop stop-color="#00A3E0"/>
<stop offset="1" stop-color="#98D8F0"/>
</linearGradient>
<linearGradient id="paint45_linear_21388_86455" x1="248.5" y1="72" x2="-11.5" y2="72" gradientUnits="userSpaceOnUse">
<stop stop-color="#00A3E0"/>
<stop offset="1" stop-color="#98D8F0"/>
</linearGradient>
<linearGradient id="paint46_linear_21388_86455" x1="248.5" y1="72" x2="-11.5" y2="72" gradientUnits="userSpaceOnUse">
<stop stop-color="#00A3E0"/>
<stop offset="1" stop-color="#98D8F0"/>
</linearGradient>
<linearGradient id="paint47_linear_21388_86455" x1="248.5" y1="72" x2="-11.5" y2="72" gradientUnits="userSpaceOnUse">
<stop stop-color="#00A3E0"/>
<stop offset="1" stop-color="#98D8F0"/>
</linearGradient>
<linearGradient id="paint48_linear_21388_86455" x1="248.5" y1="72" x2="-11.5" y2="72" gradientUnits="userSpaceOnUse">
<stop stop-color="#00A3E0"/>
<stop offset="1" stop-color="#98D8F0"/>
</linearGradient>
<linearGradient id="paint49_linear_21388_86455" x1="248.5" y1="72" x2="-11.5" y2="72" gradientUnits="userSpaceOnUse">
<stop stop-color="#00A3E0"/>
<stop offset="1" stop-color="#98D8F0"/>
</linearGradient>
<linearGradient id="paint50_linear_21388_86455" x1="248.5" y1="72" x2="-11.5" y2="72" gradientUnits="userSpaceOnUse">
<stop stop-color="#00A3E0"/>
<stop offset="1" stop-color="#98D8F0"/>
</linearGradient>
<linearGradient id="paint51_linear_21388_86455" x1="248.5" y1="72" x2="-11.5" y2="72" gradientUnits="userSpaceOnUse">
<stop stop-color="#00A3E0"/>
<stop offset="1" stop-color="#98D8F0"/>
</linearGradient>
<linearGradient id="paint52_linear_21388_86455" x1="248.5" y1="72" x2="-11.5" y2="72" gradientUnits="userSpaceOnUse">
<stop stop-color="#00A3E0"/>
<stop offset="1" stop-color="#98D8F0"/>
</linearGradient>
<linearGradient id="paint53_linear_21388_86455" x1="248.5" y1="72" x2="-11.5" y2="72" gradientUnits="userSpaceOnUse">
<stop stop-color="#00A3E0"/>
<stop offset="1" stop-color="#98D8F0"/>
</linearGradient>
</defs>
</svg>
