<svg width="100%" height="100%" viewBox="0 0 40 40" fill="none" xmlns="http://www.w3.org/2000/svg">
<circle cx="20" cy="20" r="19.5" fill="white" stroke="#D72B25"/>
<path fill-rule="evenodd" clip-rule="evenodd" d="M28.2871 32H11.77C9.70859 32 8.03731 30.3275 8.03731 28.2646V11.7354C8.03731 11.2199 8.45541 10.8016 8.97044 10.8016C9.48558 10.8016 9.9037 11.2199 9.9037 11.7354V28.2646C9.9037 29.2965 10.7388 30.1324 11.77 30.1324H28.2871C29.3183 30.1324 30.1534 29.2965 30.1534 28.2646V11.7354C30.1534 10.7034 29.3183 9.86771 28.2871 9.86771H8.93313C8.4181 9.86771 8 9.44931 8 8.93376C8 8.41832 8.4181 8 8.93313 8H28.2871C30.3485 8 32.0197 9.6725 32.0197 11.7354V28.2646C32.0197 30.3275 30.3485 32 28.2871 32Z" fill="#D72B25"/>
<path fill-rule="evenodd" clip-rule="evenodd" d="M16.6786 18.7578C16.1636 18.7578 15.7454 18.3394 15.7454 17.824V13.4254C15.7454 12.9099 16.1636 12.4916 16.6786 12.4916C17.1938 12.4916 17.6118 12.9099 17.6118 13.4254V17.7866C17.6324 18.302 17.2321 18.7363 16.7169 18.7569C16.7038 18.7578 16.6918 18.7578 16.6786 18.7578Z" fill="#D72B25"/>
<path fill-rule="evenodd" clip-rule="evenodd" d="M23.3786 18.7578C22.8634 18.7578 22.4453 18.3394 22.4453 17.824V13.4254C22.4453 12.9099 22.8634 12.4916 23.3786 12.4916C23.8937 12.4916 24.3118 12.9099 24.3118 13.4254V17.7866C24.3322 18.302 23.9319 18.7363 23.4168 18.7569C23.4038 18.7578 23.3916 18.7578 23.3786 18.7578Z" fill="#D72B25"/>
<path fill-rule="evenodd" clip-rule="evenodd" d="M24.9741 27.2383C24.459 27.2383 24.0409 26.8199 24.0409 26.3044C24.0587 24.0865 22.2762 22.2748 20.06 22.257C18.1796 22.2421 16.5411 23.5364 16.1183 25.3706H22.4079C22.923 25.3706 23.3411 25.7889 23.3411 26.3044C23.3411 26.8199 22.923 27.2383 22.4079 27.2383H15.0826C14.5674 27.2383 14.1493 26.8199 14.1493 26.3044C14.1493 23.0555 16.7818 20.4211 20.0283 20.4211C23.2749 20.4211 25.9073 23.0555 25.9073 26.3044C25.9073 26.8199 25.4892 27.2383 24.9741 27.2383Z" fill="#D72B25"/>
</svg>
