<svg width="100%" height="100%" viewBox="0 0 42 42" fill="none" xmlns="http://www.w3.org/2000/svg">
<path fill-rule="evenodd" clip-rule="evenodd" d="M20.9999 42C9.40207 42 0 32.5981 0 21C0 9.40189 9.40207 0 20.9999 0C32.5981 0 42 9.40189 42 21C42 32.5981 32.5981 42 20.9999 42ZM20.9999 1.75C10.3685 1.75 1.75003 10.3687 1.75003 21C1.75003 31.6312 10.3685 40.25 20.9999 40.25C31.6312 40.25 40.25 31.6312 40.25 21C40.25 10.3687 31.6312 1.75 20.9999 1.75Z" />
<path fill-rule="evenodd" clip-rule="evenodd" d="M28.7367 31.9844H14.296C12.4938 31.9844 11.0326 30.5221 11.0326 28.7186V14.2674C11.0326 13.8167 11.3982 13.451 11.8484 13.451C12.2988 13.451 12.6644 13.8167 12.6644 14.2674V28.7186C12.6644 29.6208 13.3945 30.3516 14.296 30.3516H28.7367C29.6382 30.3516 30.3684 29.6208 30.3684 28.7186V14.2674C30.3684 13.3651 29.6382 12.6345 28.7367 12.6345H11.8158C11.3655 12.6345 11 12.2687 11 11.818C11 11.3673 11.3655 11.0016 11.8158 11.0016H28.7367C30.5389 11.0016 32 12.4638 32 14.2674V28.7186C32 30.5221 30.5389 31.9844 28.7367 31.9844Z" />
<path fill-rule="evenodd" clip-rule="evenodd" d="M18.5874 20.4062C18.1371 20.4062 17.7715 20.0404 17.7715 19.5898V15.7442C17.7715 15.2935 18.1371 14.9278 18.5874 14.9278C19.0378 14.9278 19.4033 15.2935 19.4033 15.7442V19.5571C19.4213 20.0078 19.0713 20.3874 18.6209 20.4054C18.6094 20.4062 18.5989 20.4062 18.5874 20.4062Z" />
<path fill-rule="evenodd" clip-rule="evenodd" d="M24.4452 20.4062C23.9948 20.4062 23.6293 20.0404 23.6293 19.5898V15.7442C23.6293 15.2935 23.9948 14.9278 24.4452 14.9278C24.8956 14.9278 25.2611 15.2935 25.2611 15.7442V19.5571C25.279 20.0078 24.9289 20.3874 24.4786 20.4054C24.4672 20.4062 24.4566 20.4062 24.4452 20.4062Z" />
<path fill-rule="evenodd" clip-rule="evenodd" d="M25.8402 27.8203C25.3898 27.8203 25.0242 27.4545 25.0242 27.0039C25.0398 25.0648 23.4815 23.4808 21.5438 23.4653C19.8999 23.4522 18.4674 24.5838 18.0977 26.1874H23.5965C24.0469 26.1874 24.4125 26.5531 24.4125 27.0039C24.4125 27.4545 24.0469 27.8203 23.5965 27.8203H17.1922C16.7418 27.8203 16.3762 27.4545 16.3762 27.0039C16.3762 24.1634 18.6778 21.8602 21.5162 21.8602C24.3545 21.8602 26.656 24.1634 26.656 27.0039C26.656 27.4545 26.2905 27.8203 25.8402 27.8203Z" />
</svg>
