<svg width="100%" height="100%" viewBox="0 0 20 20" fill="none" xmlns="http://www.w3.org/2000/svg">
<path d="M0 10C0 4.47715 4.47715 0 10 0C15.5228 0 20 4.47715 20 10C20 15.5228 15.5228 20 10 20C4.47715 20 0 15.5228 0 10Z" fill="white"/>
<path fill-rule="evenodd" clip-rule="evenodd" d="M10 20C4.47708 20 0 15.5228 0 10C0 4.4772 4.47708 0 10 0C15.5229 0 20 4.4772 20 10C20 15.5228 15.5229 20 10 20ZM10 0.833368C4.93752 0.833368 0.833339 4.93738 0.833339 10C0.833339 15.0626 4.93752 19.1666 10 19.1666C15.0625 19.1666 19.1666 15.0626 19.1666 10C19.1666 4.93738 15.0625 0.833368 10 0.833368Z" fill="#1E1E1E"/>
<path fill-rule="evenodd" clip-rule="evenodd" d="M11.6942 17.291C11.4627 17.291 11.2408 17.1991 11.0775 17.0351L4.99664 10.9625C4.82637 10.7937 4.82506 10.5192 4.99399 10.3491C4.9949 10.3482 4.99578 10.3474 4.99664 10.3465C5.166 10.1783 5.43963 10.1783 5.60904 10.3465L11.7116 16.4191L16.624 11.509L9.73534 4.62956L5.23118 5.04167L4.72295 8.51174L6.06942 7.36226L6.1563 7.2885C6.02861 6.83741 5.95432 6.37329 5.93478 5.90482C5.92046 5.66538 6.10333 5.45933 6.34311 5.44506C6.58283 5.43073 6.78917 5.61331 6.80349 5.85275C6.81825 6.11 6.84737 6.36635 6.89038 6.62053C7.15664 6.41103 7.48151 6.28828 7.81985 6.26917H7.85894C8.49395 6.27745 9.03692 6.7272 9.16198 7.34924C9.24886 7.79774 9.09377 8.25841 8.7537 8.56375C8.38973 8.86392 7.89329 8.94855 7.45067 8.78498C7.08709 8.65705 6.77399 8.41671 6.55591 8.09963L4.50579 9.83469C4.39725 9.92838 4.24911 9.96267 4.11055 9.92579C3.97112 9.88676 3.86038 9.7809 3.81521 9.64382C3.7609 9.49721 3.74007 9.33978 3.75439 9.18406L4.37986 4.90281C4.43849 4.50594 4.7616 4.20142 5.16163 4.16545L9.66584 3.75339C9.92209 3.73083 10.1749 3.82318 10.3565 4.00495L17.2452 10.8844C17.5848 11.2231 17.5848 11.7723 17.246 12.1111C17.2456 12.1115 17.2456 12.1115 17.2452 12.1119L12.3066 17.0351C12.1446 17.1982 11.9245 17.2902 11.6942 17.291ZM7.19442 7.5141C7.31254 7.72791 7.50364 7.89272 7.73297 7.97817C7.88543 8.03718 8.05743 8.01419 8.18905 7.91749C8.29375 7.81293 8.33758 7.66286 8.30635 7.51841C8.25769 7.31413 8.08175 7.16488 7.87196 7.14975C7.60963 7.18572 7.36901 7.31499 7.19442 7.5141Z" fill="#1E1E1E"/>
<path fill-rule="evenodd" clip-rule="evenodd" d="M11.6504 13.7685C11.5348 13.7694 11.4241 13.7239 11.342 13.6428L8.32755 10.6325C8.15905 10.4633 8.15905 10.1901 8.32755 10.0209C8.49696 9.85255 8.77063 9.85255 8.94 10.0209L11.9544 13.0312C12.1229 13.2003 12.1229 13.4736 11.9544 13.6428C11.8736 13.723 11.7642 13.7682 11.6504 13.7685Z" fill="#1E1E1E"/>
<path fill-rule="evenodd" clip-rule="evenodd" d="M13.4096 12.0117C13.294 12.0126 13.1833 11.967 13.1012 11.8859L10.0868 8.87562C9.93083 8.6939 9.95215 8.41974 10.1341 8.26403C10.2966 8.12479 10.5368 8.12479 10.6992 8.26403L13.7136 11.2743C13.8821 11.4435 13.8821 11.7168 13.7136 11.8859C13.6328 11.9662 13.5233 12.0113 13.4096 12.0117Z" fill="#1E1E1E"/>
</svg>
