<svg width="100%" height="100%" viewBox="0 0 20 20" fill="none" xmlns="http://www.w3.org/2000/svg">
<path d="M0 10C0 4.47715 4.47715 0 10 0C15.5228 0 20 4.47715 20 10C20 15.5228 15.5228 20 10 20C4.47715 20 0 15.5228 0 10Z" fill="white"/>
<path fill-rule="evenodd" clip-rule="evenodd" d="M10 20C4.47708 20 0 15.5228 0 10C0 4.4772 4.47708 0 10 0C15.5229 0 20 4.4772 20 10C20 15.5228 15.5229 20 10 20ZM10 0.833368C4.93752 0.833368 0.833339 4.93738 0.833339 10C0.833339 15.0626 4.93752 19.1666 10 19.1666C15.0625 19.1666 19.1666 15.0626 19.1666 10C19.1666 4.93738 15.0625 0.833368 10 0.833368Z" fill="#1E1E1E"/>
<path fill-rule="evenodd" clip-rule="evenodd" d="M10.069 13.8633C9.84332 13.8633 9.66016 13.6798 9.66016 13.4538V10.4314C9.66016 10.2053 9.84332 10.0219 10.069 10.0219C10.2946 10.0219 10.4778 10.2053 10.4778 10.4314V13.4538C10.4778 13.6798 10.2946 13.8633 10.069 13.8633Z" fill="#1E1E1E"/>
<path fill-rule="evenodd" clip-rule="evenodd" d="M7.95568 6.96191C7.73 6.96191 7.54688 6.77844 7.54688 6.5524V3.53409C7.54688 3.308 7.73 3.12457 7.95568 3.12457C8.18135 3.12457 8.36448 3.308 8.36448 3.53409V6.5524C8.36448 6.77844 8.18135 6.96191 7.95568 6.96191Z" fill="#1E1E1E"/>
<path fill-rule="evenodd" clip-rule="evenodd" d="M11.9869 6.96191C11.7612 6.96191 11.5781 6.77844 11.5781 6.5524V3.53409C11.5781 3.308 11.7612 3.12457 11.9869 3.12457C12.2126 3.12457 12.3957 3.308 12.3957 3.53409V6.5524C12.3957 6.77844 12.2126 6.96191 11.9869 6.96191Z" fill="#1E1E1E"/>
<path fill-rule="evenodd" clip-rule="evenodd" d="M14.2433 16.2305H5.75675C4.99312 16.228 4.375 15.6072 4.375 14.8421V8.06848C4.375 7.84239 4.55812 7.65891 4.7838 7.65891H15.2163C15.4419 7.65891 15.625 7.84239 15.625 8.06848V14.8421C15.625 15.6072 15.0069 16.228 14.2433 16.2305ZM5.1926 8.478V14.8421C5.1926 15.155 5.44443 15.4089 5.75675 15.4114H14.2433C14.5556 15.4093 14.8075 15.155 14.8075 14.8421V8.478H5.1926Z" fill="#1E1E1E"/>
<path fill-rule="evenodd" clip-rule="evenodd" d="M15.2163 8.47852H4.7838C4.55812 8.47852 4.375 8.29503 4.375 8.06903V5.67732C4.375 5.45123 4.55812 5.26779 4.7838 5.26779H15.2163C15.4419 5.26779 15.625 5.45123 15.625 5.67732V6.87316C15.625 7.09924 15.4419 7.28268 15.2163 7.28268C14.9906 7.28268 14.8075 7.09924 14.8075 6.87316V6.08689H5.1926V7.65947H15.2163C15.4419 7.65947 15.625 7.84295 15.625 8.06903C15.625 8.29503 15.4419 8.47852 15.2163 8.47852Z" fill="#1E1E1E"/>
<path fill-rule="evenodd" clip-rule="evenodd" d="M11.5739 12.3525H8.56114C8.33547 12.3525 8.15234 12.1691 8.15234 11.943C8.15234 11.7169 8.33547 11.5334 8.56114 11.5334H11.5739C11.7996 11.5334 11.9827 11.7169 11.9827 11.943C11.9827 12.1691 11.7996 12.3525 11.5739 12.3525Z" fill="#1E1E1E"/>
</svg>
