<svg width="100%" height="100%" viewBox="0 0 20 21" fill="none" xmlns="http://www.w3.org/2000/svg">
<path fill-rule="evenodd" clip-rule="evenodd" d="M7.24011 17.5488C5.50741 17.5488 3.45275 15.9571 2.58984 15.0926C-0.858565 11.6448 -0.86408 6.04954 2.57813 2.59494C6.01973 -0.859655 11.6048 -0.86516 15.0532 2.58324C18.501 6.03097 18.5064 11.6263 15.0648 15.0809C14.0868 16.0627 12.8911 16.8003 11.5754 17.2333C11.2118 17.3376 10.833 17.1262 10.7289 16.7619C10.6304 16.4167 10.8145 16.0538 11.1508 15.9296C15.056 14.6294 17.1695 10.4037 15.8717 6.49138C15.508 5.39494 14.8957 4.39804 14.0821 3.57946C11.2946 0.55168 6.58476 0.361649 3.56234 3.15409C0.539919 5.94728 0.350271 10.665 3.13772 13.6929C3.2733 13.8404 3.41506 13.9824 3.56234 14.1183C4.4458 15.0033 6.21962 16.2384 7.31539 16.1766C7.69349 16.1595 8.01402 16.4531 8.03117 16.8319C8.04824 17.2106 7.75521 17.5318 7.37712 17.5488H7.24011Z"/>
<path fill-rule="evenodd" clip-rule="evenodd" d="M19.3143 20.0459C19.1349 20.0452 18.9623 19.9738 18.8349 19.8469L14.0955 15.1058C13.8269 14.8369 13.8269 14.4005 14.0955 14.1315C14.3639 13.8626 14.7996 13.8626 15.068 14.1315L19.8005 18.8795C20.0663 19.1471 20.0663 19.5793 19.8005 19.8469C19.6712 19.9752 19.4965 20.0473 19.3143 20.0459Z"/>
<path fill-rule="evenodd" clip-rule="evenodd" d="M3.33625 9.10938C3.04796 9.10938 2.79039 8.92818 2.69243 8.6565C2.11713 7.05303 2.20075 5.28559 2.92537 3.74383C3.68073 2.18296 4.98956 0.959626 6.59627 0.313254C6.94831 0.171261 7.34832 0.341423 7.49009 0.694066C7.63185 1.04671 7.46192 1.44739 7.10995 1.58946C5.52446 2.18024 4.31699 3.49685 3.86367 5.12985C4.44169 4.35387 5.1888 3.72049 6.04839 3.27737C6.38192 3.09821 6.79694 3.22375 6.97571 3.55796C6.97911 3.56483 6.98321 3.57162 6.98669 3.57918C7.16131 3.91543 7.02988 4.32979 6.69423 4.50411C6.69355 4.50479 6.69288 4.50477 6.69221 4.50545C5.17794 5.27252 4.17252 6.77585 4.0417 8.47131C4.02259 8.7951 3.78006 9.06134 3.45952 9.10938H3.33625Z"/>
</svg>
