<svg width="100%" height="100%" viewBox="0 0 18 18" xmlns="http://www.w3.org/2000/svg">
<path fill-rule="evenodd" clip-rule="evenodd" d="M1.48917 17.9858C1.27171 17.985 1.06249 17.8985 0.908181 17.7447C0.586108 17.4204 0.586108 16.8966 0.908181 16.5724L10.6515 6.80314C10.9768 6.47722 11.5047 6.47722 11.83 6.80314C12.1554 7.12905 12.1554 7.65781 11.83 7.98372L2.0784 17.7447C1.92153 17.9002 1.70993 17.9875 1.48917 17.9858Z" fill="black"/>
<path fill-rule="evenodd" clip-rule="evenodd" d="M16.5275 17.9858C16.3068 17.9875 16.0952 17.9002 15.9383 17.7447L0.908409 2.68747C0.610407 2.3391 0.651121 1.81364 0.998821 1.51515C1.30918 1.24832 1.76819 1.24832 2.07855 1.51515L17.0919 16.5724C17.4139 16.8966 17.4139 17.4204 17.0919 17.7447C16.9417 17.8944 16.7392 17.9809 16.5275 17.9858Z" fill="black"/>
<path fill-rule="evenodd" clip-rule="evenodd" d="M4.51016 14.9341C4.2894 14.9357 4.0778 14.8484 3.92093 14.6929C3.59565 14.3695 3.59318 13.8432 3.91598 13.5173C3.91763 13.5156 3.91928 13.514 3.92093 13.5123L11.7805 5.64701C13.1166 4.30846 14.5027 2.9199 15.1002 1.2571C15.2329 0.81727 15.6969 0.569517 16.1351 0.702501C16.5741 0.836346 16.8214 1.30035 16.6887 1.7401C16.6828 1.75925 16.6762 1.77838 16.6687 1.79752C15.9716 3.82617 14.3781 5.4142 12.9755 6.78607L5.12439 14.6597C4.96751 14.8335 4.74427 14.9333 4.51016 14.9341Z" fill="black"/>
</svg>
