<svg width="100%" height="100%" viewBox="0 0 50 50" fill="none" xmlns="http://www.w3.org/2000/svg">
<path fill-rule="evenodd" clip-rule="evenodd" d="M24.9999 50C11.1927 50 0 38.8073 0 25C0 11.1927 11.1927 0 24.9999 0C38.8073 0 50 11.1927 50 25C50 38.8073 38.8073 50 24.9999 50ZM24.9999 2.08334C12.3438 2.08334 2.08336 12.3437 2.08336 25C2.08336 37.6562 12.3438 47.9167 24.9999 47.9167C37.6562 47.9167 47.9166 37.6562 47.9166 25C47.9166 12.3437 37.6562 2.08334 24.9999 2.08334Z" fill="#00A3E0"/>
<path d="M29.8071 8.33203L32.7831 8.3698L29.7618 11.9032L33.3329 11.9485" stroke="#00A3E0" stroke-linecap="round"/>
<path d="M39.3008 15.4766L40.2928 15.4892L39.2857 16.6669L40.4761 16.6821" stroke="#00A3E0" stroke-width="0.5" stroke-linecap="round"/>
<path d="M35.7446 11.9062L37.7286 11.9314L35.7144 14.287L38.0952 14.3172" stroke="#00A3E0" stroke-width="0.75" stroke-linecap="round"/>
<path fill-rule="evenodd" clip-rule="evenodd" d="M26.4297 39.092H23.5539C23.4958 39.099 23.437 39.099 23.3789 39.092L23.141 39.0289C22.9835 38.9882 22.845 38.8943 22.7492 38.7626L22.5673 38.5102C22.4945 38.4085 22.449 38.2908 22.4343 38.1667L22.1824 35.58L21.5597 35.3977L21.4128 35.3346L20.916 35.0612L18.9427 36.5894C18.9119 36.6182 18.8762 36.642 18.8378 36.6596L18.5998 36.7857C18.5004 36.8369 18.3899 36.8635 18.2779 36.8628C18.1156 36.8642 17.9553 36.8208 17.8161 36.7366L17.6342 36.6104C17.5915 36.5796 17.5516 36.5446 17.5152 36.5053L15.5419 34.3182C15.5223 34.3027 15.5056 34.2838 15.4931 34.2622L15.3111 34.0098C15.1921 33.8436 15.1509 33.634 15.1991 33.4349L15.2552 33.1826C15.2838 33.0865 15.3285 32.9968 15.3881 32.9161L16.9205 30.9464L16.6265 30.3366C16.6133 30.3113 16.6021 30.286 16.5915 30.2594L16.3746 29.6145L13.9886 29.292C13.8641 29.2773 13.7451 29.2282 13.6457 29.1518L13.4078 28.9625C13.2832 28.8623 13.1951 28.7249 13.1559 28.57L13.1 28.3247C13.0936 28.2714 13.0936 28.2167 13.1 28.1634V25.1562C13.1007 25.0847 13.1126 25.0139 13.1349 24.9459L13.1909 24.7566C13.2349 24.6234 13.3176 24.5057 13.4288 24.4201L13.6667 24.2309C13.7661 24.1545 13.8851 24.1054 14.0096 24.0907L16.3957 23.7682L16.6126 23.1233C16.6231 23.0967 16.6343 23.0715 16.6475 23.0462L16.9415 22.4363L15.409 20.4665C15.3496 20.3859 15.3047 20.2962 15.2761 20.2001L15.2201 19.9478C15.1718 19.7487 15.2131 19.5391 15.3321 19.373L15.514 19.1206C15.5266 19.0989 15.5434 19.08 15.563 19.0645L17.5362 16.8774C17.5915 16.8144 17.6579 16.7625 17.7322 16.7232L17.9771 16.597C18.1786 16.4925 18.4192 16.4925 18.6207 16.597L18.8587 16.7232C18.8972 16.7407 18.9329 16.7645 18.9636 16.7933L20.9369 18.3215L21.4337 18.0481L21.5807 17.985L22.2034 17.8028L22.4553 15.2161C22.47 15.092 22.5155 14.9743 22.5883 14.8726L22.7702 14.6202C22.8661 14.4884 23.0046 14.3945 23.1621 14.3538L23.3999 14.2907C23.4581 14.2837 23.5168 14.2837 23.575 14.2907H26.4508C26.5089 14.2837 26.5676 14.2837 26.6257 14.2907L26.8706 14.3538C27.1198 14.4184 27.3128 14.6153 27.3744 14.8655L27.4304 15.1179L27.8082 17.8167L28.3471 17.992L28.452 18.034L29.0188 18.3284L30.999 16.7933L31.1041 16.7232L31.3489 16.597C31.5505 16.4925 31.7912 16.4925 31.9926 16.597L32.2306 16.7232C32.3005 16.7597 32.3642 16.8066 32.4195 16.8634L34.4627 19.0575C34.5425 19.1452 34.6005 19.251 34.6306 19.3659L34.6866 19.6183C34.7146 19.7263 34.7146 19.8398 34.6866 19.9478L34.6306 20.2001C34.6075 20.2891 34.5669 20.3726 34.5117 20.4455L33.0352 22.4644L33.5251 23.7752L35.9391 24.0976C36.0623 24.1117 36.1784 24.1601 36.275 24.2378L36.5199 24.4272C36.5801 24.4769 36.6319 24.5365 36.6738 24.6024L36.7928 24.7846C36.8655 24.8975 36.9047 25.0286 36.9047 25.1632V28.1705C36.9055 28.2749 36.8816 28.3786 36.8348 28.4719L36.7158 28.7243C36.669 28.8189 36.6018 28.903 36.5199 28.9696L36.275 29.1589C36.1784 29.2366 36.0623 29.285 35.9391 29.2991L33.5251 29.6215L33.0352 30.9324L34.4906 32.9442C34.5459 33.0172 34.5865 33.1006 34.6096 33.1896L34.6657 33.442C34.6936 33.5499 34.6936 33.6635 34.6657 33.7714L34.6096 34.0237C34.5795 34.1387 34.5214 34.2446 34.4417 34.3322L32.2725 36.6525C32.141 36.7907 31.959 36.8691 31.7687 36.8698H31.5868C31.444 36.8691 31.3049 36.8256 31.188 36.7437L31.0131 36.6175L28.9978 35.0612L28.431 35.3557L28.3261 35.3977L27.7873 35.573L27.3535 38.5242C27.2919 38.7744 27.0988 38.9715 26.8497 39.0359L26.6047 39.099C26.5466 39.1039 26.4878 39.1018 26.4297 39.092ZM23.7988 37.69H26.0799L26.4578 34.886C26.4955 34.6211 26.6796 34.401 26.9336 34.3182L27.8432 34.0237L28.7459 33.5471C28.9894 33.4195 29.2854 33.4469 29.5016 33.6172L31.6008 35.2505L33.2172 33.519L31.6777 31.416C31.5413 31.2275 31.507 30.9829 31.5868 30.7641L31.9437 29.7618L32.3705 28.6822C32.4628 28.4439 32.677 28.2742 32.9303 28.2406L35.4983 27.9041V25.4085L32.9303 25.0721C32.677 25.0384 32.4628 24.8688 32.3705 24.6304L31.5868 22.5274C31.507 22.3087 31.5413 22.0641 31.6777 21.8755L33.2172 19.7725L31.6008 18.0411L29.5016 19.6744C29.2854 19.8448 28.9894 19.8721 28.7459 19.7445L27.8432 19.2678L26.9336 18.9734C26.6796 18.8907 26.4955 18.6706 26.4578 18.4056L26.0799 15.6015H23.7988L23.5329 18.3425C23.5042 18.6278 23.3041 18.8669 23.0291 18.9454L22.0285 19.2398L21.1958 19.7025C20.9495 19.8377 20.6465 19.8132 20.4261 19.6393L18.327 18.006L16.7035 19.8005L18.2989 21.8475C18.4488 22.0501 18.4781 22.3179 18.3759 22.5484L17.9141 23.5159L17.5642 24.5393C17.4795 24.7909 17.2598 24.9725 16.9974 25.009L14.4854 25.3384V27.848L16.9974 28.1775C17.2598 28.214 17.4795 28.3954 17.5642 28.6471L17.9141 29.6706L18.3759 30.638C18.4781 30.8686 18.4488 31.1364 18.2989 31.339L16.7035 33.3859L18.327 35.1804L20.4261 33.5471C20.6465 33.3733 20.9495 33.3487 21.1958 33.484L22.0285 33.9467L23.0291 34.2411C23.3041 34.3196 23.5035 34.5586 23.5329 34.844L23.7988 37.69Z" fill="#00A3E0"/>
<path fill-rule="evenodd" clip-rule="evenodd" d="M24.9955 31.5742C22.2904 31.5736 20.0974 29.3767 20.0981 26.6666C20.0988 23.9565 22.2918 21.7596 24.9969 21.7604C25.9485 21.7604 26.8793 22.0379 27.6755 22.5595C27.9764 22.802 28.0239 23.2437 27.7812 23.5451C27.5705 23.808 27.2024 23.8823 26.9058 23.7232C25.2923 22.6584 23.1224 23.1063 22.0595 24.7228C20.9966 26.3393 21.4437 28.513 23.0573 29.5779C24.6708 30.642 26.8407 30.1947 27.9036 28.5783C28.2766 28.0104 28.4767 27.3466 28.4802 26.6673C28.4809 26.3961 28.4508 26.1254 28.3893 25.8612C28.3018 25.484 28.5369 25.1076 28.9134 25.02H28.9141C29.2905 24.9331 29.6663 25.1679 29.7537 25.545V25.5457C29.8377 25.9138 29.8804 26.2902 29.8797 26.6673C29.8797 29.3717 27.6951 31.5665 24.9955 31.5742Z" fill="#00A3E0"/>
</svg>
