<svg width="100%" height="100%" viewBox="0 0 27 27" fill="none" xmlns="http://www.w3.org/2000/svg">
<path fill-rule="evenodd" clip-rule="evenodd" d="M15.02 26.1465H11.9627C11.9009 26.1536 11.8384 26.1536 11.7766 26.1465L11.5237 26.0821C11.3563 26.0406 11.209 25.9448 11.1071 25.8105L10.9138 25.5531C10.8364 25.4494 10.788 25.3292 10.7723 25.2027L10.5046 22.5642L9.84252 22.3783L9.68635 22.3139L9.15819 22.0351L7.06035 23.5939C7.02761 23.6232 6.98964 23.6475 6.94879 23.6654L6.69582 23.7941C6.59016 23.8463 6.47262 23.8734 6.35359 23.8727C6.18106 23.8741 6.01068 23.8298 5.86268 23.744L5.66931 23.6153C5.62386 23.5839 5.58145 23.5481 5.54273 23.5081L3.44493 21.2772C3.42409 21.2614 3.40633 21.2422 3.39296 21.22L3.19948 20.9626C3.07298 20.7931 3.02919 20.5793 3.08046 20.3763L3.14004 20.1189C3.17048 20.0209 3.21806 19.9294 3.2814 19.8471L4.91047 17.838L4.59798 17.2159C4.58387 17.1902 4.57196 17.1644 4.56072 17.1372L4.33019 16.4794L1.79355 16.1505C1.66114 16.1355 1.53464 16.0854 1.42897 16.0075L1.17606 15.8144C1.04365 15.7122 0.949955 15.5721 0.90828 15.414L0.848795 15.1638C0.842068 15.1094 0.842068 15.0537 0.848795 14.9993V11.9319C0.849534 11.859 0.862183 11.7868 0.885973 11.7174L0.945433 11.5243C0.992277 11.3885 1.08015 11.2684 1.19837 11.1811L1.45128 10.9881C1.55695 10.9102 1.68344 10.8601 1.81585 10.8451L4.35253 10.5162L4.58316 9.85839C4.59431 9.83123 4.6062 9.80549 4.62031 9.77975L4.93281 9.15763L3.30363 7.14841C3.24046 7.06623 3.19276 6.97469 3.16233 6.8767L3.10279 6.61932C3.05144 6.41625 3.09531 6.20247 3.22181 6.03301L3.41524 5.77563C3.42861 5.75344 3.44642 5.73416 3.46726 5.71842L5.56511 3.48755C5.62385 3.42324 5.69449 3.37035 5.77341 3.33028L6.03378 3.20151C6.24798 3.09494 6.50386 3.09494 6.71806 3.20151L6.97107 3.33028C7.012 3.34807 7.04989 3.3724 7.08263 3.40176L9.18042 4.96052L9.70858 4.68165L9.86485 4.61727L10.5269 4.43143L10.7947 1.79301C10.8104 1.66644 10.8587 1.54632 10.936 1.44266L11.1295 1.18521C11.2314 1.05078 11.3787 0.954988 11.5461 0.913507L11.799 0.849121C11.8607 0.841959 11.9232 0.841959 11.985 0.849121H15.0424C15.1042 0.841959 15.1666 0.841959 15.2284 0.849121L15.4887 0.913507C15.7536 0.979309 15.9588 1.18018 16.0243 1.43543L16.0838 1.69281L16.4855 4.44568L17.0584 4.62443L17.1699 4.66733L17.7725 4.9676L19.8778 3.40176L19.9894 3.33028L20.2497 3.20151C20.464 3.09494 20.7199 3.09494 20.9341 3.20151L21.1871 3.33028C21.2614 3.36744 21.329 3.41529 21.3879 3.4733L23.5601 5.71125C23.6449 5.80066 23.7066 5.90858 23.7386 6.02585L23.7981 6.28323C23.8278 6.39342 23.8278 6.50921 23.7981 6.61932L23.7386 6.8767C23.714 6.96753 23.6709 7.05262 23.6121 7.127L22.0425 9.18629L22.5632 10.5233L25.1296 10.8522C25.2606 10.8666 25.3841 10.9159 25.4867 10.9952L25.7471 11.1883C25.8111 11.239 25.8661 11.2998 25.9108 11.367L26.0373 11.5529C26.1145 11.6681 26.1562 11.8018 26.1562 11.9391V15.0065C26.157 15.113 26.1317 15.2188 26.0819 15.314L25.9554 15.5714C25.9056 15.6679 25.8341 15.7537 25.7471 15.8216L25.4867 16.0147C25.3841 16.094 25.2606 16.1434 25.1296 16.1577L22.5632 16.4866L22.0425 17.8236L23.5898 19.8758C23.6485 19.9501 23.6917 20.0352 23.7162 20.126L23.7758 20.3834C23.8055 20.4935 23.8055 20.6094 23.7758 20.7195L23.7162 20.9768C23.6842 21.0941 23.6225 21.2021 23.5377 21.2915L21.2316 23.6582C21.0918 23.7991 20.8984 23.8792 20.696 23.8799H20.5026C20.3508 23.8792 20.2029 23.8348 20.0786 23.7512L19.8927 23.6225L17.7502 22.0351L17.1476 22.3354L17.036 22.3783L16.4633 22.5571L16.0021 25.5673C15.9366 25.8226 15.7313 26.0235 15.4665 26.0893L15.206 26.1536C15.1443 26.1587 15.0818 26.1565 15.02 26.1465ZM12.223 24.7164H14.6481L15.0499 21.8564C15.09 21.5861 15.2857 21.3616 15.5557 21.2772L16.5227 20.9768L17.4824 20.4907C17.7413 20.3605 18.0559 20.3885 18.2857 20.5622L20.5175 22.2282L22.2359 20.4621L20.5992 18.317C20.4543 18.1247 20.4178 17.8752 20.5026 17.6521L20.882 16.6296L21.3358 15.5285C21.4339 15.2854 21.6616 15.1123 21.9309 15.078L24.661 14.7348V12.1893L21.9309 11.8461C21.6616 11.8118 21.4339 11.6388 21.3358 11.3957L20.5026 9.25059C20.4178 9.02752 20.4543 8.77801 20.5992 8.58565L22.2359 6.44057L20.5175 4.67448L18.2857 6.34046C18.0559 6.51425 17.7413 6.54211 17.4824 6.412L16.5227 5.92574L15.5557 5.62546C15.2857 5.54108 15.09 5.31661 15.0499 5.04632L14.6481 2.18616H12.223L11.9403 4.98193C11.9098 5.273 11.6971 5.51684 11.4047 5.59689L10.3409 5.89716L9.45572 6.3691C9.19386 6.50708 8.8717 6.48205 8.6374 6.30472L6.40576 4.63875L4.67984 6.46915L6.37592 8.55707C6.53523 8.76369 6.5664 9.03682 6.45778 9.272L5.96678 10.2588L5.5948 11.3027C5.50481 11.5594 5.27125 11.7446 4.99224 11.7818L2.32172 12.1178V14.6776L4.99224 15.0136C5.27125 15.0509 5.50481 15.236 5.5948 15.4927L5.96678 16.5367L6.45778 17.5234C6.5664 17.7586 6.53523 18.0318 6.37592 18.2384L4.67984 20.3262L6.40576 22.1567L8.6374 20.4907C8.8717 20.3134 9.19386 20.2884 9.45572 20.4263L10.3409 20.8983L11.4047 21.1986C11.6971 21.2786 11.9091 21.5224 11.9403 21.8135L12.223 24.7164Z" fill="#1E1E1E"/>
<path fill-rule="evenodd" clip-rule="evenodd" d="M13.4995 18.4805C10.6236 18.4798 8.29215 16.239 8.29297 13.4747C8.29363 10.7104 10.6251 8.46954 13.5009 8.47033C14.5127 8.47033 15.5022 8.75345 16.3486 9.28544C16.6686 9.53283 16.7191 9.98329 16.461 10.2907C16.237 10.5589 15.8457 10.6347 15.5304 10.4724C13.815 9.38628 11.5081 9.84319 10.3781 11.492C9.24812 13.1408 9.72343 15.358 11.4389 16.4442C13.1543 17.5296 15.4612 17.0734 16.5912 15.4246C16.9877 14.8453 17.2004 14.1683 17.2042 13.4754C17.2049 13.1987 17.1729 12.9227 17.1075 12.6531C17.0145 12.2685 17.2644 11.8845 17.6647 11.7951H17.6654C18.0656 11.7065 18.4651 11.946 18.558 12.3307V12.3314C18.6474 12.7068 18.6927 13.0907 18.692 13.4754C18.692 16.2339 16.3695 18.4726 13.4995 18.4805Z" fill="#1E1E1E"/>
</svg>
