<svg width="100%" height="100%" viewBox="0 0 25 25" fill="none" xmlns="http://www.w3.org/2000/svg">
<path fill-rule="evenodd" clip-rule="evenodd" d="M13.9865 24.8654H11.1183C11.0604 24.8724 11.0018 24.8724 10.9438 24.8654L10.7066 24.8025C10.5495 24.7619 10.4113 24.6683 10.3158 24.5369L10.1344 24.2852C10.0617 24.1838 10.0164 24.0664 10.0017 23.9426L9.75048 21.3628L9.12941 21.181L8.9829 21.1181L8.48743 20.8454L6.5194 22.3695C6.48869 22.3983 6.45307 22.422 6.41474 22.4395L6.17743 22.5653C6.07831 22.6164 5.96804 22.6429 5.85637 22.6422C5.69453 22.6436 5.53469 22.6003 5.39585 22.5164L5.21444 22.3905C5.1718 22.3598 5.13202 22.3248 5.09569 22.2857L3.12771 20.1044C3.10816 20.089 3.0915 20.0701 3.07895 20.0485L2.89745 19.7968C2.77878 19.6311 2.7377 19.422 2.7858 19.2235L2.84169 18.9718C2.87025 18.876 2.91489 18.7865 2.9743 18.7061L4.50256 16.7416L4.20941 16.1334C4.19617 16.1082 4.185 16.0829 4.17446 16.0564L3.95819 15.4132L1.57852 15.0916C1.45431 15.0769 1.33563 15.028 1.23651 14.9518L0.999249 14.763C0.875034 14.663 0.787133 14.526 0.748037 14.3715L0.692233 14.1268C0.685922 14.0737 0.685922 14.0192 0.692233 13.966V10.9668C0.692926 10.8955 0.704792 10.8248 0.727111 10.757L0.782891 10.5683C0.826835 10.4354 0.909275 10.318 1.02018 10.2326L1.25744 10.0439C1.35656 9.96774 1.47523 9.91879 1.59945 9.90409L3.97914 9.58246L4.1955 8.93931C4.20597 8.91276 4.21712 8.88759 4.23036 8.86243L4.52351 8.25413L2.99515 6.28955C2.9359 6.2092 2.89115 6.1197 2.8626 6.02388L2.80675 5.77223C2.75857 5.57367 2.79973 5.36464 2.9184 5.19894L3.09986 4.94729C3.1124 4.92558 3.12911 4.90673 3.14866 4.89134L5.11669 2.71004C5.17179 2.64717 5.23806 2.59545 5.3121 2.55628L5.55636 2.43037C5.7573 2.32616 5.99735 2.32616 6.19829 2.43037L6.43564 2.55628C6.47405 2.57367 6.50959 2.59746 6.5403 2.62616L8.50828 4.15028L9.00375 3.87762L9.15036 3.81466L9.77143 3.63296L10.0226 1.05317C10.0373 0.929414 10.0827 0.811961 10.1552 0.710604L10.3367 0.458876C10.4324 0.327427 10.5705 0.233766 10.7275 0.193208L10.9648 0.130253C11.0227 0.123249 11.0813 0.123249 11.1393 0.130253H14.0075C14.0655 0.123249 14.124 0.123249 14.182 0.130253L14.4262 0.193208C14.6747 0.257547 14.8672 0.453951 14.9286 0.703535L14.9845 0.955192L15.3613 3.64689L15.8987 3.82166L16.0034 3.86361L16.5687 4.15721L18.5436 2.62616L18.6484 2.55628L18.8926 2.43037C19.0936 2.32616 19.3336 2.32616 19.5346 2.43037L19.7719 2.55628C19.8417 2.5926 19.9051 2.6394 19.9603 2.69612L21.9981 4.88433C22.0777 4.97176 22.1355 5.07727 22.1655 5.19194L22.2213 5.4436C22.2493 5.55135 22.2493 5.66456 22.2213 5.77223L22.1655 6.02388C22.1425 6.1127 22.102 6.1959 22.0469 6.26862L20.5744 8.28215L21.0629 9.58947L23.4705 9.91102C23.5934 9.9251 23.7092 9.97336 23.8055 10.0509L24.0498 10.2397C24.1098 10.2893 24.1615 10.3487 24.2033 10.4144L24.322 10.5962C24.3945 10.7088 24.4336 10.8395 24.4336 10.9738V13.9731C24.4344 14.0772 24.4105 14.1806 24.3638 14.2737L24.2452 14.5253C24.1985 14.6197 24.1314 14.7036 24.0498 14.77L23.8055 14.9588C23.7092 15.0364 23.5934 15.0846 23.4705 15.0986L21.0629 15.4202L20.5744 16.7276L22.0259 18.7341C22.081 18.8068 22.1216 18.89 22.1446 18.9787L22.2005 19.2305C22.2283 19.3381 22.2283 19.4514 22.2005 19.559L22.1446 19.8107C22.1146 19.9254 22.0566 20.0309 21.9771 20.1184L19.8137 22.4324C19.6826 22.5703 19.5011 22.6485 19.3112 22.6492H19.1298C18.9874 22.6485 18.8486 22.6051 18.732 22.5234L18.5576 22.3976L16.5477 20.8454L15.9824 21.1391L15.8778 21.181L15.3405 21.3558L14.9078 24.2992C14.8464 24.5488 14.6537 24.7452 14.4053 24.8095L14.161 24.8725C14.1031 24.8774 14.0445 24.8752 13.9865 24.8654ZM11.3626 23.4672H13.6376L14.0145 20.6707C14.0521 20.4064 14.2357 20.1869 14.489 20.1044L15.3962 19.8107L16.2965 19.3354C16.5394 19.2081 16.8346 19.2354 17.0501 19.4053L19.1438 21.0342L20.7559 19.3074L19.2205 17.2099C19.0845 17.0219 19.0502 16.778 19.1298 16.5598L19.4858 15.5601L19.9114 14.4834C20.0035 14.2457 20.2171 14.0765 20.4697 14.0429L23.0309 13.7073V11.2184L20.4697 10.8829C20.2171 10.8493 20.0035 10.6802 19.9114 10.4424L19.1298 8.34502C19.0502 8.12691 19.0845 7.88295 19.2205 7.69485L20.7559 5.59745L19.1438 3.87061L17.0501 5.49956C16.8346 5.66949 16.5394 5.69673 16.2965 5.56951L15.3962 5.09405L14.489 4.80045C14.2357 4.71795 14.0521 4.49846 14.0145 4.23418L13.6376 1.43758H11.3626L11.0974 4.17122C11.0688 4.45582 10.8692 4.69424 10.5949 4.77251L9.59697 5.06612L8.76654 5.52757C8.52088 5.66248 8.21866 5.638 7.99886 5.46461L5.90532 3.83567L4.28621 5.62539L5.87732 7.66692C6.02678 7.86894 6.05602 8.136 5.95412 8.36596L5.49351 9.33081L5.14454 10.3515C5.06012 10.6025 4.84101 10.7836 4.57927 10.82L2.07401 11.1485V13.6515L4.57927 13.98C4.84101 14.0164 5.06012 14.1974 5.14454 14.4484L5.49351 15.4692L5.95412 16.434C6.05602 16.664 6.02678 16.931 5.87732 17.1331L4.28621 19.1745L5.90532 20.9643L7.99886 19.3354C8.21866 19.162 8.52088 19.1375 8.76654 19.2724L9.59697 19.7339L10.5949 20.0275C10.8692 20.1057 11.0681 20.3442 11.0974 20.6288L11.3626 23.4672Z"/>
<path fill-rule="evenodd" clip-rule="evenodd" d="M12.5562 17.3711C9.85832 17.3705 7.67111 15.1794 7.67188 12.4766C7.67249 9.7737 9.85968 7.58263 12.5575 7.5834C13.5067 7.5834 14.435 7.86023 15.229 8.3804C15.5292 8.62229 15.5766 9.06274 15.3344 9.36335C15.1243 9.62555 14.7572 9.69967 14.4614 9.54098C12.8522 8.479 10.688 8.92575 9.62797 10.5379C8.56792 12.1501 9.01382 14.318 10.6231 15.38C12.2324 16.4413 14.3965 15.9953 15.4566 14.3831C15.8285 13.8168 16.0281 13.1547 16.0316 12.4772C16.0323 12.2067 16.0023 11.9368 15.9409 11.6732C15.8537 11.2971 16.0881 10.9217 16.4636 10.8343H16.4643C16.8397 10.7476 17.2145 10.9818 17.3017 11.3579V11.3586C17.3855 11.7257 17.4281 12.1011 17.4274 12.4772C17.4274 15.1745 15.2486 17.3634 12.5562 17.3711Z"/>
</svg>
