<svg width="100%" height="100%" viewBox="0 0 32 32" fill="none" xmlns="http://www.w3.org/2000/svg">
<path fill-rule="evenodd" clip-rule="evenodd" d="M17.2487 26.4721H14.7363C14.6856 26.4782 14.6342 26.4782 14.5835 26.4721L14.3756 26.417C14.2381 26.3814 14.117 26.2994 14.0333 26.1843L13.8745 25.9639C13.8108 25.875 13.7711 25.7722 13.7582 25.6638L13.5382 23.404L12.9942 23.2448L12.8658 23.1897L12.4318 22.9508L10.708 24.2859C10.6811 24.311 10.6499 24.3318 10.6163 24.3471L10.4084 24.4574C10.3216 24.502 10.225 24.5253 10.1272 24.5247C9.98543 24.5259 9.84542 24.488 9.72381 24.4145L9.56491 24.3042C9.52756 24.2773 9.49271 24.2467 9.46089 24.2124L7.73707 22.3017C7.71995 22.2882 7.70535 22.2717 7.69436 22.2528L7.53538 22.0323C7.43143 21.8871 7.39544 21.704 7.43758 21.5301L7.48654 21.3097C7.51155 21.2257 7.55065 21.1473 7.60269 21.0769L8.94135 19.3561L8.68456 18.8234C8.67297 18.8013 8.66319 18.7792 8.65395 18.756L8.46452 18.1926L6.38008 17.9109C6.27128 17.898 6.16733 17.8551 6.0805 17.7884L5.87268 17.623C5.76388 17.5355 5.68688 17.4155 5.65264 17.2801L5.60376 17.0658C5.59823 17.0192 5.59823 16.9715 5.60376 16.9249V14.2978C5.60436 14.2354 5.61476 14.1735 5.63431 14.1141L5.68317 13.9487C5.72166 13.8324 5.79387 13.7295 5.89101 13.6547L6.09883 13.4894C6.18566 13.4227 6.28961 13.3798 6.39841 13.3669L8.48287 13.0852L8.67239 12.5219C8.68155 12.4986 8.69132 12.4766 8.70292 12.4545L8.9597 11.9217L7.62096 10.2009C7.56905 10.1305 7.52986 10.0521 7.50485 9.96815L7.45593 9.74771C7.41373 9.57379 7.44978 9.3907 7.55373 9.24556L7.71267 9.02512C7.72366 9.00611 7.7383 8.9896 7.75542 8.97612L9.47928 7.06545C9.52755 7.01037 9.5856 6.96507 9.65045 6.93076L9.8644 6.82047C10.0404 6.72919 10.2507 6.72919 10.4267 6.82047L10.6346 6.93076C10.6682 6.94599 10.6994 6.96683 10.7263 6.99197L12.4501 8.327L12.8841 8.08816L13.0125 8.03302L13.5565 7.87386L13.7766 5.61413C13.7894 5.50573 13.8292 5.40285 13.8927 5.31407L14.0517 5.09357C14.1355 4.97843 14.2565 4.89639 14.394 4.86087L14.6018 4.80572C14.6526 4.79959 14.7039 4.79959 14.7547 4.80572H17.267C17.3178 4.79959 17.3691 4.79959 17.4199 4.80572L17.6338 4.86087C17.8514 4.91722 18.0201 5.08926 18.0739 5.30788L18.1228 5.52831L18.4529 7.88606L18.9236 8.03915L19.0153 8.07589L19.5104 8.33307L21.2404 6.99197L21.3321 6.93076L21.546 6.82047C21.7221 6.72919 21.9324 6.72919 22.1084 6.82047L22.3163 6.93076C22.3774 6.96258 22.433 7.00356 22.4813 7.05325L24.2663 8.96998C24.336 9.04656 24.3866 9.13898 24.4129 9.23943L24.4618 9.45986C24.4863 9.55424 24.4863 9.6534 24.4618 9.74771L24.4129 9.96815C24.3927 10.0459 24.3573 10.1188 24.309 10.1825L23.0192 11.9462L23.4471 13.0914L25.556 13.373C25.6637 13.3854 25.7651 13.4276 25.8494 13.4955L26.0634 13.6609C26.116 13.7043 26.1612 13.7564 26.1979 13.814L26.3018 13.9732C26.3653 14.0718 26.3996 14.1863 26.3996 14.3039V16.9311C26.4003 17.0223 26.3794 17.1129 26.3385 17.1944L26.2346 17.4149C26.1936 17.4975 26.1349 17.571 26.0634 17.6292L25.8494 17.7945C25.7651 17.8625 25.6637 17.9047 25.556 17.917L23.4471 18.1987L23.0192 19.3439L24.2907 21.1014C24.3389 21.1651 24.3744 21.238 24.3946 21.3157L24.4436 21.5362C24.468 21.6305 24.468 21.7298 24.4436 21.824L24.3946 22.0445C24.3683 22.1449 24.3175 22.2374 24.2479 22.314L22.3529 24.3409C22.238 24.4617 22.0791 24.5302 21.9127 24.5308H21.7538C21.6291 24.5302 21.5076 24.4922 21.4054 24.4206L21.2527 24.3104L19.4921 22.9508L18.997 23.2081L18.9053 23.2448L18.4346 23.3979L18.0556 25.9761C18.0018 26.1947 17.8331 26.3668 17.6155 26.4231L17.4015 26.4782C17.3507 26.4826 17.2994 26.4807 17.2487 26.4721ZM14.9503 25.2473H16.9431L17.2732 22.7978C17.3061 22.5663 17.467 22.374 17.6888 22.3017L18.4834 22.0445L19.2721 21.6281C19.4848 21.5166 19.7434 21.5406 19.9322 21.6893L21.7661 23.1162L23.1782 21.6036L21.8333 19.7664C21.7141 19.6017 21.6841 19.388 21.7538 19.1969L22.0656 18.3212L22.4385 17.3781C22.5191 17.1699 22.7063 17.0217 22.9275 16.9923L25.1709 16.6983V14.5182L22.9275 14.2243C22.7063 14.1949 22.5191 14.0467 22.4385 13.8385L21.7538 12.0013C21.6841 11.8103 21.7141 11.5966 21.8333 11.4318L23.1782 9.59462L21.7661 8.08202L19.9322 9.50888C19.7434 9.65772 19.4848 9.68159 19.2721 9.57015L18.4834 9.15368L17.6888 8.8965C17.467 8.82424 17.3061 8.63198 17.2732 8.40049L16.9431 5.95086H14.9503L14.718 8.34534C14.6929 8.59463 14.5181 8.80347 14.2778 8.87203L13.4037 9.12921L12.6763 9.53341C12.4611 9.65158 12.1964 9.63014 12.0039 9.47826L10.1701 8.05142L8.75184 9.61909L10.1455 11.4073C10.2765 11.5843 10.3021 11.8182 10.2128 12.0196L9.80935 12.8648L9.50368 13.7589C9.42973 13.9787 9.23781 14.1373 9.00854 14.1692L6.8141 14.457V16.6494L9.00854 16.9372C9.23781 16.9691 9.42973 17.1276 9.50368 17.3474L9.80935 18.2416L10.2128 19.0867C10.3021 19.2882 10.2765 19.5221 10.1455 19.6991L8.75184 21.4872L10.1701 23.055L12.0039 21.6281C12.1964 21.4762 12.4611 21.4548 12.6763 21.573L13.4037 21.9772L14.2778 22.2344C14.5181 22.3029 14.6923 22.5118 14.718 22.7611L14.9503 25.2473Z"/>
<path fill-rule="evenodd" clip-rule="evenodd" d="M15.9951 19.9062C13.632 19.9057 11.7161 17.9865 11.7168 15.619C11.7173 13.2514 13.6332 11.3322 15.9963 11.3329C16.8277 11.3329 17.6408 11.5754 18.3364 12.031C18.5993 12.2429 18.6408 12.6287 18.4287 12.892C18.2447 13.1217 17.9231 13.1866 17.664 13.0476C16.2544 12.1174 14.3587 12.5087 13.4302 13.9208C12.5017 15.333 12.8923 17.2319 14.3019 18.1622C15.7115 19.0918 17.6071 18.7011 18.5357 17.289C18.8615 16.7929 19.0363 16.213 19.0394 15.6196C19.04 15.3826 19.0137 15.1462 18.9599 14.9153C18.8835 14.5859 19.0889 14.257 19.4178 14.1805H19.4184C19.7472 14.1045 20.0755 14.3097 20.1519 14.6391V14.6397C20.2253 14.9613 20.2626 15.2901 20.262 15.6196C20.262 17.9822 18.3535 19.8995 15.9951 19.9062Z"/>
</svg>
