<svg width="100%" height="100%" viewBox="0 0 26 26" fill="none" xmlns="http://www.w3.org/2000/svg">
<circle cx="13" cy="13" r="12.5" fill="white" />
<path d="M11.3228 7.52676C11.9678 6.85468 12.8658 6.43786 13.8589 6.43786C15.1792 6.43786 16.3311 7.17406 16.9444 8.26695C17.4931 8.02187 18.0874 7.89555 18.6883 7.89627C21.0696 7.89627 23 9.84353 23 12.2456C23 14.6479 21.0696 16.5951 18.6883 16.5951C18.3977 16.5951 18.1137 16.5661 17.8391 16.5105C17.2988 17.474 16.2695 18.1251 15.088 18.1251C14.6102 18.1257 14.1386 18.0171 13.7092 17.8077C13.1616 19.0957 11.8858 19.9989 10.3988 19.9989C8.85039 19.9989 7.53079 19.019 7.02419 17.645C6.80287 17.692 6.5735 17.7166 6.33819 17.7166C4.49463 17.7166 3.00001 16.2065 3.00001 14.3437C2.99868 13.7533 3.1521 13.1728 3.44498 12.6602C3.73786 12.1476 4.15998 11.7206 4.66926 11.422C4.45778 10.9352 4.34895 10.41 4.34956 9.87919C4.34956 7.73674 6.08888 6 8.2343 6C9.49384 6 10.6132 6.59888 11.3229 7.52676" fill="#007CB0"/>
<path d="M5.89685 13.259C5.88433 13.2918 5.90138 13.2986 5.90545 13.3043C5.94299 13.3317 5.98115 13.3512 6.01963 13.3732C6.22366 13.4814 6.41619 13.5131 6.61765 13.5131C7.0279 13.5131 7.28261 13.2949 7.28261 12.9436V12.9368C7.28261 12.612 6.99513 12.494 6.72533 12.4089L6.6903 12.3974C6.48689 12.3313 6.3114 12.2744 6.3114 12.1404V12.1334C6.3114 12.0188 6.41393 11.9344 6.57291 11.9344C6.74957 11.9344 6.95924 11.9932 7.09429 12.0678C7.09429 12.0678 7.13386 12.0934 7.14841 12.055C7.15639 12.0345 7.22474 11.8504 7.23193 11.8305C7.2396 11.8088 7.22591 11.7929 7.21199 11.7844C7.05785 11.6906 6.84475 11.6265 6.62421 11.6265L6.58316 11.6268C6.2077 11.6268 5.94557 11.8536 5.94557 12.1787V12.1855C5.94557 12.5282 6.23476 12.6393 6.50566 12.7168L6.5493 12.7302C6.74668 12.7909 6.91685 12.843 6.91685 12.982V12.9889C6.91685 13.1159 6.80627 13.2105 6.62789 13.2105C6.55868 13.2105 6.33791 13.2091 6.09939 13.0584C6.07061 13.0416 6.0538 13.0294 6.03159 13.016C6.01986 13.0085 5.99061 12.9956 5.97779 13.0344L5.89685 13.259Z" fill="white"/>
<path d="M11.9027 13.259C11.8902 13.2918 11.9072 13.2986 11.9113 13.3043C11.9488 13.3317 11.987 13.3512 12.0255 13.3732C12.2294 13.4814 12.4221 13.5131 12.6235 13.5131C13.0338 13.5131 13.2885 13.2949 13.2885 12.9436V12.9368C13.2885 12.612 13.001 12.494 12.7312 12.4089L12.6962 12.3974C12.4927 12.3313 12.3172 12.2744 12.3172 12.1404V12.1334C12.3172 12.0188 12.4198 11.9344 12.5788 11.9344C12.7554 11.9344 12.9651 11.9932 13.1002 12.0678C13.1002 12.0678 13.1397 12.0934 13.1543 12.055C13.1622 12.0345 13.2306 11.8504 13.2377 11.8305C13.2455 11.8088 13.2318 11.7929 13.2178 11.7844C13.0637 11.6906 12.8505 11.6265 12.6301 11.6265L12.589 11.6268C12.2135 11.6268 11.9514 11.8536 11.9514 12.1787V12.1855C11.9514 12.5282 12.2405 12.6393 12.5115 12.7168L12.5551 12.7302C12.7525 12.7909 12.9229 12.843 12.9229 12.982V12.9889C12.9229 13.1159 12.8121 13.2105 12.6337 13.2105C12.5645 13.2105 12.3437 13.2091 12.1053 13.0584C12.0765 13.0416 12.0593 13.0299 12.0378 13.016C12.0303 13.0111 11.9955 12.9977 11.9836 13.0344L11.9027 13.259Z" fill="white"/>
<path d="M16.0029 12.5708C16.0029 12.7695 15.9658 12.9259 15.8929 13.0364C15.8208 13.1458 15.7117 13.199 15.5595 13.199C15.4071 13.199 15.2986 13.1461 15.2276 13.0364C15.1558 12.9261 15.1194 12.7695 15.1194 12.5708C15.1194 12.3726 15.1558 12.2164 15.2276 12.1071C15.2986 11.9988 15.4071 11.9461 15.5595 11.9461C15.7117 11.9461 15.8207 11.9988 15.8931 12.107C15.9659 12.2165 16.0029 12.3726 16.0029 12.5708ZM16.3453 12.2028C16.3117 12.0891 16.2593 11.9888 16.1895 11.9053C16.1196 11.8216 16.0313 11.7544 15.9265 11.7053C15.8219 11.6566 15.6983 11.6318 15.5595 11.6318C15.4205 11.6318 15.2968 11.6566 15.1923 11.7053C15.0875 11.7543 14.9991 11.8216 14.9291 11.9053C14.8595 11.9891 14.8071 12.0894 14.7732 12.2028C14.7399 12.3159 14.7231 12.4395 14.7231 12.5708C14.7231 12.7022 14.7399 12.8262 14.7732 12.9389C14.8071 13.0523 14.8592 13.1527 14.9294 13.2364C14.9991 13.3201 15.0877 13.3871 15.1923 13.4347C15.2971 13.4823 15.4205 13.5064 15.5595 13.5064C15.6983 13.5064 15.8217 13.4822 15.9265 13.4347C16.031 13.3871 16.1196 13.3202 16.1895 13.2364C16.2593 13.1529 16.3117 13.0526 16.3453 12.9389C16.3789 12.8258 16.3958 12.702 16.3958 12.5708C16.3958 12.4398 16.3789 12.3159 16.3453 12.2028Z" fill="white"/>
<path d="M19.1576 13.146C19.1463 13.1127 19.114 13.1252 19.114 13.1252C19.0642 13.1444 19.0112 13.162 18.9548 13.1708C18.8927 13.1801 18.8299 13.1845 18.7671 13.1843C18.6013 13.1843 18.4696 13.135 18.3753 13.0375C18.2807 12.94 18.2277 12.7825 18.2282 12.5694C18.2289 12.3754 18.2756 12.2296 18.3596 12.1184C18.4431 12.0078 18.5701 11.9512 18.7397 11.9512C18.881 11.9512 18.9887 11.9674 19.1015 12.003C19.1015 12.003 19.1286 12.0147 19.1414 11.9794C19.1713 11.8962 19.1936 11.8367 19.2255 11.7452C19.2346 11.7193 19.2124 11.7082 19.2044 11.705C19.16 11.6876 19.0551 11.6595 18.9759 11.6475C18.9018 11.6361 18.8152 11.6301 18.7189 11.6301C18.575 11.6301 18.4468 11.6546 18.3371 11.7036C18.2277 11.7523 18.1349 11.8195 18.0614 11.9033C17.9878 11.987 17.932 12.0874 17.8947 12.2008C17.8576 12.3139 17.8389 12.438 17.8389 12.5694C17.8389 12.8535 17.9155 13.0831 18.0668 13.2512C18.2183 13.4198 18.446 13.5056 18.7428 13.5056C18.9183 13.5056 19.0984 13.47 19.2277 13.4189C19.2277 13.4189 19.2525 13.407 19.2418 13.3783L19.1576 13.146Z" fill="white"/>
<path d="M19.7567 12.3806C19.7729 12.2703 19.8034 12.1786 19.8504 12.1071C19.9214 11.9985 20.0296 11.9389 20.1818 11.9389C20.3339 11.9389 20.4344 11.9988 20.5065 12.1071C20.5544 12.1786 20.5752 12.2743 20.5834 12.3806H19.7567ZM20.9097 12.1381C20.8806 12.0284 20.8085 11.9176 20.7613 11.8668C20.6866 11.7865 20.6137 11.7304 20.5413 11.6991C20.4362 11.6545 20.3232 11.6317 20.2091 11.6318C20.0644 11.6318 19.933 11.6561 19.8265 11.7061C19.7197 11.7563 19.6299 11.8247 19.5595 11.9099C19.4891 11.9948 19.4362 12.0959 19.4026 12.2108C19.3686 12.325 19.3516 12.4495 19.3516 12.5808C19.3516 12.7145 19.3692 12.8389 19.4043 12.9509C19.4395 13.0637 19.496 13.1631 19.5724 13.2455C19.6484 13.3284 19.7464 13.3934 19.8638 13.4386C19.9803 13.4837 20.1219 13.5071 20.2845 13.5068C20.6193 13.5056 20.7957 13.4309 20.8683 13.3908C20.8811 13.3837 20.8934 13.3712 20.878 13.3353L20.8022 13.123C20.7909 13.0913 20.7587 13.1031 20.7587 13.1031C20.6758 13.1338 20.5578 13.1891 20.2829 13.1885C20.1031 13.1882 19.9698 13.1352 19.8863 13.0523C19.8005 12.9675 19.7587 12.8427 19.7513 12.6666L20.9105 12.6677C20.9105 12.6677 20.941 12.6672 20.9442 12.6375C20.9453 12.625 20.9841 12.3993 20.9097 12.1381Z" fill="white"/>
<path d="M10.4727 12.3806C10.4892 12.2703 10.5194 12.1786 10.5665 12.1071C10.6374 11.9985 10.7456 11.9389 10.8978 11.9389C11.0499 11.9389 11.1505 11.9988 11.2228 12.1071C11.2705 12.1786 11.2913 12.2743 11.2995 12.3806H10.4727ZM11.6254 12.1381C11.5963 12.0284 11.5246 11.9176 11.4772 11.8668C11.4026 11.7865 11.3297 11.7304 11.2573 11.6991C11.1523 11.6545 11.0393 11.6317 10.9251 11.6318C10.7807 11.6318 10.6491 11.6561 10.5426 11.7061C10.4357 11.7563 10.346 11.8247 10.2756 11.9099C10.2052 11.9948 10.1522 12.0959 10.1186 12.2108C10.085 12.325 10.0676 12.4495 10.0676 12.5808C10.0676 12.7145 10.0852 12.8389 10.1203 12.9509C10.1556 13.0637 10.2121 13.1631 10.2884 13.2455C10.3645 13.3284 10.4625 13.3934 10.5799 13.4386C10.6964 13.4837 10.8379 13.5071 11.0006 13.5068C11.3354 13.5056 11.5117 13.4309 11.5844 13.3908C11.5972 13.3837 11.6094 13.3712 11.5941 13.3353L11.5186 13.123C11.5069 13.0913 11.4747 13.1031 11.4747 13.1031C11.3918 13.1338 11.2741 13.1891 10.9986 13.1885C10.8192 13.1882 10.6858 13.1352 10.6024 13.0523C10.5166 12.9675 10.4747 12.8427 10.4673 12.6666L11.6265 12.6677C11.6265 12.6677 11.657 12.6672 11.6602 12.6375C11.6613 12.625 11.7 12.3993 11.6254 12.1381Z" fill="white"/>
<path d="M7.96706 13.1394C7.92171 13.1031 7.91545 13.094 7.90012 13.0707C7.87729 13.0351 7.86563 12.9844 7.86563 12.92C7.86563 12.818 7.89926 12.7448 7.96902 12.6955C7.96824 12.6958 8.06873 12.6086 8.30529 12.6117C8.47132 12.6141 8.61975 12.6385 8.61975 12.6385V13.1656H8.62006C8.62006 13.1656 8.47273 13.1972 8.30693 13.2072C8.071 13.2214 7.9662 13.1391 7.96706 13.1394ZM8.42831 12.3249C8.38131 12.3214 8.32039 12.3194 8.24742 12.3194C8.14795 12.3194 8.05191 12.3319 7.96198 12.3561C7.87126 12.3804 7.78986 12.4183 7.71979 12.4684C7.64979 12.5184 7.59225 12.5838 7.55165 12.6596C7.51067 12.736 7.48987 12.826 7.48987 12.9268C7.48987 13.0294 7.50746 13.1185 7.54281 13.1915C7.57728 13.2636 7.62931 13.3259 7.69413 13.3727C7.7585 13.4196 7.83803 13.4542 7.93031 13.475C8.02118 13.4958 8.12425 13.5063 8.2371 13.5063C8.35597 13.5063 8.47445 13.4967 8.58925 13.477C8.68695 13.4601 8.78431 13.4413 8.88126 13.4206C8.91973 13.4114 8.96251 13.3998 8.96251 13.3998C8.99129 13.3927 8.98894 13.3618 8.98894 13.3618L8.9884 12.3018C8.9884 12.0693 8.9263 11.8969 8.80407 11.7901C8.68247 11.6835 8.50322 11.6296 8.27159 11.6296C8.18478 11.6296 8.0448 11.6417 7.96112 11.6584C7.96112 11.6584 7.70774 11.7075 7.6035 11.7889C7.6035 11.7889 7.58074 11.8032 7.59325 11.8351L7.67537 12.0556C7.68553 12.0841 7.71322 12.0744 7.71322 12.0744C7.71322 12.0744 7.72205 12.071 7.7323 12.065C7.95533 11.9436 8.23741 11.9474 8.23741 11.9474C8.36277 11.9474 8.45904 11.9724 8.52403 12.0223C8.58729 12.0707 8.61943 12.1439 8.61943 12.2984V12.3473C8.51973 12.3331 8.42831 12.3249 8.42831 12.3249Z" fill="white"/>
<path d="M17.7782 11.7275C17.7799 11.7236 17.7808 11.7194 17.7808 11.7152C17.7808 11.711 17.78 11.7068 17.7783 11.7029C17.7767 11.6991 17.7743 11.6955 17.7713 11.6926C17.7683 11.6897 17.7647 11.6874 17.7608 11.6858C17.7411 11.6781 17.6425 11.6573 17.5664 11.6525C17.4209 11.6436 17.34 11.6681 17.2676 11.7006C17.1958 11.7331 17.1161 11.7856 17.0716 11.8451V11.7041C17.0716 11.6844 17.0576 11.6688 17.0383 11.6688H16.7411C16.7218 11.6688 16.7078 11.6844 16.7078 11.7041V13.4332C16.7078 13.4525 16.7237 13.4685 16.7431 13.4685H17.0476C17.057 13.4684 17.0659 13.4647 17.0724 13.4581C17.079 13.4515 17.0827 13.4425 17.0827 13.4332V12.5693C17.0827 12.4533 17.0955 12.3377 17.1211 12.265C17.1462 12.1932 17.1804 12.1357 17.2226 12.0944C17.2628 12.0547 17.312 12.0252 17.3659 12.0084C17.4197 11.9918 17.4793 11.9865 17.5215 11.9865C17.5822 11.9865 17.6488 12.0021 17.6488 12.0021C17.671 12.0046 17.6836 11.9909 17.691 11.9707C17.7109 11.9177 17.7673 11.759 17.7781 11.7275" fill="white"/>
<path d="M14.9194 10.9263C14.8818 10.9149 14.8435 10.9058 14.8048 10.8989C14.7528 10.8904 14.7001 10.8864 14.6473 10.887C14.4376 10.887 14.2723 10.9462 14.1565 11.0631C14.041 11.1793 13.9627 11.3562 13.9234 11.589L13.9091 11.6673H13.6459C13.6459 11.6673 13.614 11.6662 13.6072 11.701L13.5641 11.9422C13.561 11.9651 13.5709 11.9796 13.6017 11.9796H13.8579L13.598 13.4303C13.5778 13.5471 13.5544 13.6431 13.5285 13.716C13.5031 13.7878 13.4784 13.8417 13.4476 13.881C13.4179 13.9186 13.3901 13.9466 13.3416 13.9628C13.3017 13.9761 13.2556 13.9825 13.2051 13.9825C13.1772 13.9825 13.1399 13.9779 13.1123 13.9721C13.0906 13.968 13.0696 13.9612 13.0496 13.952C13.0496 13.952 13.0197 13.9405 13.0077 13.9705C12.9983 13.9953 12.9299 14.183 12.9217 14.206C12.9137 14.2291 12.9251 14.2471 12.9396 14.2525C12.9738 14.2645 12.9991 14.2724 13.0456 14.2835C13.11 14.2986 13.1644 14.2995 13.2154 14.2995C13.3219 14.2995 13.4194 14.2844 13.5 14.2554C13.581 14.226 13.6516 14.175 13.7143 14.106C13.7818 14.0314 13.8242 13.9534 13.8647 13.8465C13.9049 13.7411 13.9394 13.6101 13.9667 13.4573L14.2279 11.9796H14.6097C14.6097 11.9796 14.6419 11.9807 14.6484 11.9457L14.6918 11.7046C14.6946 11.6816 14.6849 11.6673 14.6538 11.6673H14.2831C14.2852 11.659 14.302 11.5286 14.3445 11.4058C14.3627 11.3537 14.3968 11.3112 14.4256 11.2821C14.4528 11.2545 14.4861 11.2338 14.5228 11.2217C14.5596 11.2098 14.6014 11.2041 14.6473 11.2041C14.6821 11.2041 14.7165 11.2081 14.7424 11.2134C14.7784 11.2212 14.7923 11.2252 14.8017 11.228C14.8396 11.2394 14.8447 11.2283 14.8521 11.21L14.9408 10.9668C14.9499 10.9405 14.9274 10.9294 14.9194 10.9263Z" fill="white"/>
<path d="M9.74088 13.4335C9.74088 13.4528 9.72688 13.4685 9.70756 13.4685H9.40015C9.38075 13.4685 9.36707 13.4529 9.36707 13.4335V10.9594C9.36707 10.94 9.38075 10.9243 9.40015 10.9243H9.70748C9.72688 10.9243 9.74088 10.94 9.74088 10.9594V13.4335Z" fill="white"/>
</svg>
