<svg width="100%" height="100%" viewBox="0 0 6 11"  xmlns="http://www.w3.org/2000/svg">
<path fill-rule="evenodd" clip-rule="evenodd" d="M0.695337 10.8196C0.593583 10.8191 0.496239 10.7779 0.424974 10.7051C0.277361 10.5563 0.277361 10.316 0.424974 10.1672L5.07085 5.58929L1.07237 1.62937L0.80961 1.38139C0.549871 1.1442 0.306841 0.889251 0.0822514 0.618424C-0.0482693 0.453259 -0.0204678 0.213334 0.144447 0.0824776C0.145287 0.0818472 0.14617 0.0811338 0.14701 0.0805035C0.312261 -0.0485048 0.550457 -0.0194817 0.680138 0.145391C0.880076 0.388794 1.09774 0.617041 1.33131 0.828234L1.6055 1.0915L5.88576 5.32225C5.95925 5.39452 6.00075 5.49363 5.99999 5.59689C5.99965 5.69886 5.9585 5.79645 5.88576 5.86776L0.965701 10.7089C0.89389 10.7803 0.796588 10.8203 0.695337 10.8196Z" />
</svg>
