<svg width="100%" height="100%" viewBox="0 0 17 16" fill="none" xmlns="http://www.w3.org/2000/svg">
<path fill-rule="evenodd" clip-rule="evenodd" d="M8.5 16C4.08168 16 0.5 12.4183 0.5 8C0.5 3.58167 4.08168 0 8.5 0C12.9183 0 16.5 3.58167 16.5 8C16.5 12.4183 12.9183 16 8.5 16ZM8.5 0.666701C4.44999 0.666701 1.16667 3.95001 1.16667 8C1.16667 12.05 4.44999 15.3334 8.5 15.3334C12.55 15.3334 15.8333 12.05 15.8333 8C15.8333 3.95001 12.55 0.666701 8.5 0.666701Z" fill="#00A3E0"/>
<path fill-rule="evenodd" clip-rule="evenodd" d="M8.49986 13.6074C5.59816 13.6037 3.24684 11.2524 3.24316 8.35074C3.24316 8.16676 3.39251 8.01741 3.57648 8.01741C3.76049 8.01741 3.90985 8.16676 3.90985 8.35074C3.90882 10.8857 5.96316 12.9414 8.49816 12.9424C9.76484 12.9431 10.9752 12.4201 11.8432 11.4974C12.3131 10.9974 13.1765 9.68742 13.0365 8.92077C13.0055 8.72041 12.8732 8.55009 12.6865 8.47075C12.5242 8.38377 12.4632 8.18175 12.5502 8.01939C12.6335 7.8641 12.8232 7.8004 12.9832 7.87409C13.3588 8.04606 13.6249 8.39343 13.6932 8.80078C13.8898 9.88074 12.8598 11.3941 12.3298 11.9574C11.3335 13.0094 9.94881 13.6057 8.49986 13.6074Z" fill="#00A3E0"/>
<path fill-rule="evenodd" clip-rule="evenodd" d="M6.89029 6.11719C6.70628 6.11719 6.55694 5.96784 6.55694 5.78385C6.55694 5.04751 5.95995 4.45052 5.22362 4.45052C4.48728 4.45052 3.89031 5.04751 3.89031 5.78385C3.89031 5.96784 3.74096 6.11719 3.55695 6.11719C3.37298 6.11719 3.22363 5.96784 3.22363 5.78385C3.22363 4.67917 4.11893 3.78382 5.22362 3.78382C6.3283 3.78382 7.22361 4.67917 7.22361 5.78385C7.22361 5.96784 7.0743 6.11719 6.89029 6.11719Z" fill="#00A3E0"/>
<path fill-rule="evenodd" clip-rule="evenodd" d="M13.4264 6.11719C13.2424 6.11719 13.0931 5.96784 13.0931 5.78385C13.0931 5.04751 12.4961 4.45052 11.7598 4.45052C11.0235 4.45052 10.4264 5.04751 10.4264 5.78385C10.4264 5.96784 10.2771 6.11719 10.0931 6.11719C9.90911 6.11719 9.75977 5.96784 9.75977 5.78385C9.75977 4.67917 10.6551 3.78382 11.7598 3.78382C12.8644 3.78382 13.7598 4.67917 13.7598 5.78385C13.7598 5.96784 13.6105 6.11719 13.4264 6.11719Z" fill="#00A3E0"/>
</svg>
