<svg width="100%" height="100%" viewBox="0 0 24 20" fill="none" xmlns="http://www.w3.org/2000/svg">
<path fill-rule="evenodd" clip-rule="evenodd" d="M16.6941 15.8761C16.6315 15.8929 16.5658 15.8982 16.5011 15.8909L10.2802 15.4744L8.95647 15.3792L9.09117 15.5835C9.46719 16.1509 9.45214 16.8915 9.05413 17.4425C8.74432 17.8478 8.28716 18.114 7.7823 18.1839C7.11451 18.2864 6.43988 18.0487 5.9822 17.5507C5.42867 16.9383 5.38115 16.0217 5.8679 15.3562C5.9193 15.2839 5.97773 15.217 6.04186 15.1556L3.03727 14.9868C2.78067 14.9729 2.56148 14.7956 2.49475 14.5466L1.29748 10.0783C1.2307 9.83109 1.32911 9.56935 1.54149 9.42736L12.7413 1.85917C12.7937 1.82044 12.8532 1.79222 12.9158 1.77544C14.0149 1.4846 15.1419 2.13855 15.4367 3.23872L18.1456 13.3484C18.4404 14.4486 17.7914 15.5784 16.6941 15.8761ZM7.88108 14.2128C8.07525 14.157 8.2782 14.1359 8.47973 14.1509L10.356 14.2646L16.4644 14.6741C16.8813 14.515 17.1093 14.0643 16.9913 13.6331L14.2886 3.54634C14.1752 3.11387 13.7523 2.83759 13.3117 2.90822L2.55497 10.179L3.53036 13.8192L7.12954 14.0258C7.36559 14.0458 7.59508 14.1168 7.80068 14.2343L7.88108 14.2128ZM7.63517 15.5915L7.54908 15.6145L7.20024 15.782C7.05875 15.8396 6.93347 15.9299 6.8343 16.0465C6.70226 16.2655 6.72479 16.5449 6.89087 16.7401C7.08187 16.9361 7.35645 17.0265 7.62598 16.9808C7.81709 16.9592 7.9926 16.8634 8.11446 16.7143C8.22297 16.5588 8.22213 16.3513 8.11132 16.1973C7.95469 15.9847 7.78033 15.7862 7.5893 15.6038L7.63517 15.5915Z" />
<path fill-rule="evenodd" clip-rule="evenodd" d="M15.4985 5.85246C15.2549 5.91653 14.9977 5.82023 14.8557 5.61177C14.6698 5.34039 14.7385 4.97004 15.0087 4.78428C15.0106 4.78253 15.0122 4.78142 15.0144 4.7803L17.3388 3.21438C17.6038 3.02071 17.9757 3.07947 18.1694 3.34506C18.3625 3.61132 18.3046 3.98309 18.0391 4.17691C18.0278 4.1855 18.0153 4.19373 18.0032 4.20131L15.6788 5.76712C15.6237 5.80534 15.5632 5.83451 15.4985 5.85246Z"/>
<path fill-rule="evenodd" clip-rule="evenodd" d="M19.9873 12.3678C19.9286 12.3923 19.8667 12.4089 19.8037 12.4171L17.0061 12.2174C16.6778 12.2068 16.4206 11.9312 16.4311 11.603C16.442 11.274 16.7164 11.0168 17.0441 11.0276C17.059 11.0279 17.0735 11.029 17.0881 11.0307L19.884 11.2245C20.2118 11.2427 20.4631 11.5235 20.4447 11.8521C20.4309 12.1128 20.2482 12.3337 19.9951 12.3967L19.9873 12.3678Z" />
<path fill-rule="evenodd" clip-rule="evenodd" d="M21.0096 7.77887L16.3484 9.02785C16.0315 9.11274 15.7054 8.92399 15.6203 8.60652C15.5352 8.28905 15.7234 7.96257 16.0402 7.87768L20.7014 6.6287C21.0183 6.54379 21.3445 6.73247 21.4295 7.04994C21.5146 7.36741 21.3265 7.69396 21.0096 7.77887Z" />
</svg>
