<svg width="100%" height="100%" viewBox="0 0 32 23" fill="none" xmlns="http://www.w3.org/2000/svg">
<path fill-rule="evenodd" clip-rule="evenodd" d="M20.5635 22.45C20.4638 22.45 20.3642 22.4316 20.271 22.395L11.1957 19.3003L9.26728 18.6319L9.38606 18.989C9.71877 19.9816 9.40163 21.0757 8.59109 21.7358C7.96953 22.2146 7.1845 22.428 6.40672 22.3309C5.37394 22.2173 4.46643 21.5957 3.98477 20.6738C3.40624 19.5438 3.70053 18.1632 4.68845 17.3684C4.79357 17.2815 4.90699 17.2055 5.02673 17.1396L0.630664 15.693C0.255028 15.5703 1.47864e-06 15.2196 1.45323e-06 14.8231L9.97435e-07 7.7091C-0.000805331 7.31532 0.249551 6.96568 0.621559 6.83929L20.271 0.0548707C20.3642 0.0181829 20.4638 -6.28096e-05 20.5635 -6.28089e-05C22.3119 0.00537887 23.7257 1.42537 23.7257 3.17697L23.7257 19.2728C23.7257 21.0244 22.3119 22.4444 20.5635 22.45ZM8.13409 16.4712C8.44472 16.4657 8.75458 16.5152 9.04797 16.6177L11.7898 17.5333L20.7007 20.573C21.3833 20.5025 21.9014 19.9238 21.8978 19.2362L21.8978 3.17697C21.9014 2.48939 21.3833 1.91067 20.7007 1.84022L1.82789 8.3592L1.82789 14.1548L7.09213 15.8943C7.43481 16.018 7.74745 16.2148 8.00607 16.4712L8.13409 16.4712ZM7.22002 18.4214L7.08296 18.4214L6.49813 18.5312C6.26501 18.5605 6.04297 18.6448 5.84926 18.7784C5.56594 19.0513 5.48818 19.4753 5.65721 19.8314C5.86291 20.1986 6.23482 20.4421 6.6534 20.4815C6.94588 20.5254 7.24472 20.453 7.48509 20.28C7.70814 20.0923 7.7895 19.7837 7.68619 19.5109C7.53813 19.1327 7.35815 18.7684 7.147 18.4214L7.22002 18.4214Z" />
<path fill-rule="evenodd" clip-rule="evenodd" d="M22.7771 7.08521C22.3896 7.08339 22.0459 6.83799 21.918 6.47183C21.7499 5.9947 21.9994 5.4719 22.4746 5.30348C22.4782 5.30167 22.481 5.30066 22.4847 5.29985L26.5609 3.89892C27.0315 3.71669 27.5607 3.95203 27.7426 4.42362C27.9235 4.89601 27.6896 5.42524 27.218 5.60747C27.1978 5.61573 27.1759 5.62298 27.155 5.62943L23.0788 7.03018C22.9818 7.06505 22.8804 7.0843 22.7771 7.08521Z" />
<path fill-rule="evenodd" clip-rule="evenodd" d="M26.8523 18.5477C26.7553 18.5606 26.6568 18.5606 26.5598 18.5477L22.4837 17.1377C22.0002 16.9913 21.7279 16.4795 21.8741 15.9961C22.0213 15.5117 22.5311 15.2389 23.0137 15.3853C23.0357 15.3918 23.0568 15.3991 23.0777 15.4074L27.1538 16.8081C27.6336 16.9657 27.8951 17.4829 27.7369 17.9637C27.6127 18.3455 27.2534 18.6009 26.8523 18.5936L26.8523 18.5477Z" />
<path fill-rule="evenodd" clip-rule="evenodd" d="M30.1972 12.1396L22.776 12.1396C22.2716 12.1396 21.8622 11.7294 21.8622 11.224C21.8622 10.7185 22.2716 10.3084 22.776 10.3084L30.1972 10.3084C30.7018 10.3084 31.1112 10.7185 31.1112 11.224C31.1112 11.7294 30.7018 12.1396 30.1972 12.1396Z" />
</svg>
