<svg width="100%" height="100%" viewBox="0 0 20 20" fill="none" xmlns="http://www.w3.org/2000/svg">
<path d="M0 10C0 4.47715 4.47715 0 10 0C15.5228 0 20 4.47715 20 10C20 15.5228 15.5228 20 10 20C4.47715 20 0 15.5228 0 10Z" fill="white"/>
<path fill-rule="evenodd" clip-rule="evenodd" d="M10 20C4.47708 20 0 15.5228 0 10C0 4.4772 4.47708 0 10 0C15.5229 0 20 4.4772 20 10C20 15.5228 15.5229 20 10 20ZM10 0.833368C4.93752 0.833368 0.833339 4.93738 0.833339 10C0.833339 15.0626 4.93752 19.1666 10 19.1666C15.0625 19.1666 19.1666 15.0626 19.1666 10C19.1666 4.93738 15.0625 0.833368 10 0.833368Z" fill="#1E1E1E"/>
<path fill-rule="evenodd" clip-rule="evenodd" d="M11.663 16.2487C11.3335 16.2477 11.0062 16.1954 10.6928 16.0937C10.3844 15.9691 10.0553 15.9033 9.72263 15.8999C9.40465 15.8916 9.0882 15.9459 8.79121 16.0597C7.89916 16.4061 6.89058 16.2608 6.13286 15.677C5.35312 15.0477 4.97007 14.0498 5.1287 13.061C5.23114 12.6367 5.38593 12.2263 5.58954 11.8402L5.74476 11.5059C5.78663 11.4105 5.8207 11.3117 5.84665 11.2105C5.15692 11.3417 4.446 11.1344 3.93537 10.6533C3.25166 10.0352 2.97088 9.0876 3.20769 8.19721C3.3685 7.63717 3.79468 7.19149 4.34769 7.00548C4.85116 6.88 5.38391 7.02048 5.75933 7.3785C6.21352 7.83434 6.52244 8.41422 6.64708 9.04498C6.71013 9.25327 6.76034 9.46501 6.79745 9.67961L6.89445 9.59242C7.08366 9.40444 7.38929 9.40444 7.57845 9.59242C7.76867 9.78087 7.76994 10.0875 7.58128 10.2774C7.58035 10.2784 7.57938 10.2793 7.57845 10.2803C7.3673 10.4877 7.1329 10.6693 6.87992 10.8229C6.86307 11.1969 6.77761 11.5651 6.62766 11.9081C6.57429 12.0292 6.52092 12.1454 6.46271 12.2617C6.29574 12.578 6.16711 12.9128 6.0795 13.2596C6.00043 13.8715 6.22923 14.4824 6.69071 14.8922C7.18593 15.289 7.85595 15.3907 8.44678 15.1587C8.8535 15.0022 9.28685 14.9266 9.72263 14.9358C10.1574 14.9402 10.5878 15.0221 10.9936 15.178C11.618 15.4154 12.3226 15.2866 12.8224 14.8438C13.3415 14.3153 13.5278 13.545 13.3075 12.8382C13.2202 12.6153 13.1232 12.4119 13.031 12.2084C12.9388 12.0049 12.9 11.9323 12.837 11.7966C12.694 11.4759 12.5976 11.1368 12.5508 10.789C12.0349 10.4683 11.5959 10.0386 11.2652 9.52941C11.1925 9.41316 11.1294 9.2969 11.0712 9.1806C10.3182 9.34243 9.53932 9.34243 8.78636 9.1806L8.54867 9.11764L8.31582 9.40347C8.143 9.60788 7.83678 9.63408 7.63182 9.46159C7.42686 9.28915 7.40083 8.98297 7.57361 8.77852L7.63182 8.70586L7.26798 8.48789L6.95266 8.29893C6.03464 7.72343 5.54072 6.66296 5.69143 5.5909C5.86093 4.54112 6.76118 3.76453 7.82587 3.75C8.59833 3.80813 9.28002 4.27609 9.61105 4.97563C9.90859 5.62042 9.9553 6.35244 9.742 7.02971C9.60549 7.46519 9.41135 7.88084 9.16473 8.26503C9.67528 8.35221 10.1968 8.35221 10.7074 8.26503C10.6831 8.18752 10.6637 8.11482 10.6394 8.04216L10.5473 7.76122C10.2611 6.87465 9.96032 5.94939 10.4212 4.88844C10.6861 4.20053 11.3568 3.75388 12.0948 3.77422C12.8431 3.91082 13.4351 4.48442 13.5937 5.22756C13.8053 5.98085 13.722 6.78603 13.3609 7.48023C13.0577 8.06786 12.5775 8.54551 11.988 8.84633C12.0171 8.9045 12.0511 8.95779 12.0851 9.01591C12.22 9.23343 12.3831 9.43207 12.5701 9.60695C12.6522 8.92581 12.9004 8.27568 13.2929 7.71274C13.7197 7.10527 14.4882 6.83978 15.1994 7.05392C15.6667 7.23024 16.0252 7.61295 16.1696 8.0906C16.413 9.02269 16.1414 10.0139 15.4565 10.6921C14.969 11.1228 14.3135 11.3112 13.6713 11.2056H13.6471L13.7296 11.4091C13.7878 11.535 13.846 11.6658 13.909 11.7918C14.0109 12.0146 14.1225 12.2471 14.2147 12.4942C14.5703 13.5464 14.3083 14.7091 13.5355 15.5075C13.0411 16.003 12.3631 16.2714 11.663 16.2487ZM4.73091 7.92591C4.69548 7.92107 4.6596 7.92107 4.62422 7.92591C4.38025 8.02523 4.19955 8.23642 4.1391 8.49269C4.02508 9.01735 4.2009 9.56235 4.59995 9.92181C4.95023 10.2488 5.45534 10.35 5.90486 10.1834C5.87407 9.88937 5.81561 9.5992 5.73023 9.31628C5.65357 8.86428 5.45387 8.44185 5.15296 8.09549C5.03688 7.99082 4.88726 7.93075 4.73091 7.92591ZM13.4967 10.1737C13.5979 10.2081 13.7017 10.2338 13.8071 10.2512C14.1697 10.3137 14.5408 10.2047 14.8113 9.95571C15.0384 9.73387 15.1881 9.44512 15.2382 9.13216C15.3041 8.88609 15.3041 8.62739 15.2382 8.38128C15.1904 8.19527 15.0599 8.0417 14.8841 7.96466C14.5715 7.90316 14.2529 8.03732 14.0788 8.30378C13.7202 8.86382 13.5191 9.50957 13.4967 10.1737ZM7.7434 4.74313C7.18433 4.79738 6.73212 5.22124 6.64223 5.77496C6.55256 6.45126 6.86025 7.11833 7.43293 7.48991L7.76767 7.69336C7.92288 7.78543 8.07325 7.87747 8.21878 7.95497C8.47243 7.59745 8.67031 7.20408 8.80578 6.78747C8.94895 6.34031 8.92481 5.85685 8.73784 5.42616C8.55832 5.04396 8.18887 4.78575 7.76767 4.74797L7.7434 4.74313ZM11.9589 4.74313C11.6596 4.78816 11.4086 4.99211 11.304 5.276C10.9887 6.00267 11.2022 6.65184 11.469 7.47054L11.5611 7.75637C11.5611 7.81934 11.6 7.87747 11.6145 7.9356C11.9911 7.7239 12.2978 7.40757 12.4974 7.02482C12.7453 6.55201 12.8026 6.00267 12.6575 5.48917C12.5604 5.15006 12.313 4.77703 11.9978 4.74797L11.9589 4.74313Z" fill="#1E1E1E"/>
</svg>
