<svg width="100%" height="100%" viewBox="0 0 40 40" fill="none" xmlns="http://www.w3.org/2000/svg">
<rect width="100%" height="100%" fill="white"/>
<circle cx="20" cy="20" r="19.75" stroke="#E2EAEC" stroke-width="0.5"/>
<path fill-rule="evenodd" clip-rule="evenodd" d="M16.5792 22.1043C16.1191 22.155 15.705 21.8226 15.6542 21.362C15.6033 20.9014 15.9358 20.487 16.3957 20.4364C17.3 20.2277 18.1274 19.7714 18.7874 19.1187C19.0992 18.7428 19.3775 18.3411 19.6209 17.9178C19.99 17.279 20.4283 16.6831 20.9292 16.1415C21.5743 15.4387 22.4076 14.9351 23.3292 14.6905C23.9375 14.5329 24.5051 14.2487 24.9959 13.8566C25.5342 13.1159 25.8917 12.2588 26.0375 11.3547C23.3484 12.3193 20.4133 12.3515 17.7041 11.4464C16.8259 11.1107 15.8808 10.9879 14.9458 11.0879C13.2791 11.4882 12.8208 12.0551 12.3458 13.5396C12.2066 13.9759 11.7407 14.2181 11.3041 14.0817C10.865 13.9457 10.6182 13.4791 10.7541 13.0392C11.1383 11.1598 12.6641 9.72655 14.5625 9.46162C15.7658 9.28877 16.9942 9.41484 18.1375 9.82855C20.5967 10.6884 23.2809 10.6471 25.7126 9.71175C26.2484 9.50838 26.8525 9.61388 27.2875 9.98697C27.7042 10.3511 27.8867 10.9153 27.7625 11.4548C27.4625 12.7556 26.9291 14.4403 26.0958 15.1408C25.4516 15.6764 24.7017 16.0713 23.8958 16.3C23.2417 16.4608 22.6484 16.8084 22.1876 17.3008C21.7591 17.7609 21.3875 18.2704 21.0791 18.8185C20.7858 19.3155 20.4517 19.7871 20.0792 20.2279C19.1775 21.1652 18.0167 21.8126 16.7458 22.0875C16.6908 22.0999 16.6349 22.1055 16.5792 22.1043Z" fill="#E2EAEC"/>
<path fill-rule="evenodd" clip-rule="evenodd" d="M19.2794 33.6376C18.9652 33.6367 18.6785 33.4594 18.5377 33.179L8.53764 13.1644C8.34521 12.7458 8.52855 12.2506 8.94686 12.0584C9.34687 11.8744 9.82103 12.0338 10.0294 12.4221L20.0294 32.4367C20.2344 32.849 20.0662 33.3491 19.6544 33.5542C19.5378 33.6109 19.4094 33.6394 19.2794 33.6376Z" fill="#E2EAEC"/>
</svg>
