<svg width="32" height="32" viewBox="0 0 32 32" fill="none" xmlns="http://www.w3.org/2000/svg">
<circle cx="16" cy="16" r="15.75" stroke="#1E1E1E" stroke-width="0.5"/>
<path fill-rule="evenodd" clip-rule="evenodd" d="M13.2634 17.6834C12.8954 17.724 12.564 17.4581 12.5234 17.0896C12.4827 16.7212 12.7487 16.3896 13.1167 16.3491C13.84 16.1821 14.502 15.8171 15.03 15.295C15.2794 14.9942 15.5021 14.6729 15.6967 14.3343C15.9921 13.8232 16.3427 13.3465 16.7434 12.9132C17.2595 12.351 17.9261 11.9481 18.6634 11.7524C19.1501 11.6263 19.6041 11.3989 19.9968 11.0852C20.4274 10.4927 20.7134 9.80703 20.83 9.08378C18.6788 9.8554 16.3307 9.8812 14.1633 9.15715C13.4608 8.88859 12.7047 8.79031 11.9567 8.87029C10.6234 9.19053 10.2567 9.64412 9.87666 10.8317C9.76536 11.1807 9.39264 11.3745 9.04337 11.2654C8.69204 11.1566 8.49464 10.7832 8.60337 10.4314C8.91067 8.92786 10.1313 7.78124 11.6501 7.5693C12.6127 7.43102 13.5954 7.53187 14.5101 7.86284C16.4774 8.55072 18.6247 8.51771 20.5701 7.7694C20.9988 7.60671 21.482 7.6911 21.8301 7.98958C22.1634 8.28092 22.3094 8.73222 22.2101 9.16383C21.97 10.2045 21.5434 11.5522 20.8767 12.1126C20.3614 12.5411 19.7614 12.857 19.1167 13.04C18.5934 13.1686 18.1188 13.4467 17.7501 13.8406C17.4074 14.2087 17.1101 14.6163 16.8634 15.0548C16.6287 15.4524 16.3614 15.8296 16.0634 16.1823C15.342 16.9322 14.4134 17.4501 13.3967 17.67C13.3527 17.6799 13.308 17.6844 13.2634 17.6834Z" fill="#1E1E1E"/>
<path fill-rule="evenodd" clip-rule="evenodd" d="M15.4235 26.9091C15.1722 26.9084 14.9429 26.7665 14.8302 26.5422L6.83015 10.5305C6.67621 10.1957 6.82288 9.79954 7.15752 9.64574C7.47754 9.49856 7.85686 9.62605 8.02352 9.93673L16.0235 25.9484C16.1876 26.2782 16.053 26.6783 15.7235 26.8424C15.6302 26.8877 15.5276 26.9106 15.4235 26.9091Z" fill="#1E1E1E"/>
</svg>
