<svg width="100%" height="100%" viewBox="0 0 20 20" fill="none" xmlns="http://www.w3.org/2000/svg">
<path d="M0 10C0 4.47715 4.47715 0 10 0C15.5228 0 20 4.47715 20 10C20 15.5228 15.5228 20 10 20C4.47715 20 0 15.5228 0 10Z" fill="white"/>
<path fill-rule="evenodd" clip-rule="evenodd" d="M10 20C4.47708 20 0 15.5228 0 10C0 4.4772 4.47708 0 10 0C15.5229 0 20 4.4772 20 10C20 15.5228 15.5229 20 10 20ZM10 0.833368C4.93752 0.833368 0.833339 4.93738 0.833339 10C0.833339 15.0626 4.93752 19.1666 10 19.1666C15.0625 19.1666 19.1666 15.0626 19.1666 10C19.1666 4.93738 15.0625 0.833368 10 0.833368Z" fill="#1E1E1E"/>
<path fill-rule="evenodd" clip-rule="evenodd" d="M14.318 12.9886C14.2254 12.9884 14.1356 12.958 14.0622 12.9022C13.9046 12.7831 13.8538 12.5717 13.9406 12.396L14.8716 10.5399H10.9379C10.7064 10.5399 10.5186 10.3556 10.5186 10.1283C10.5186 9.90102 10.7064 9.71677 10.9379 9.71677H15.551C15.6965 9.71732 15.8315 9.79218 15.9075 9.9143C15.9888 10.0379 15.9968 10.1949 15.9284 10.3259L15.6097 10.9638L16.4485 10.2559L14.188 8.12404C14.0333 7.95506 14.0471 7.69484 14.2195 7.54285C14.3738 7.40656 14.6066 7.40175 14.7667 7.53142L17.3626 9.97602C17.5342 10.129 17.5467 10.3892 17.3907 10.5574C17.3819 10.5671 17.3727 10.5763 17.3626 10.5852L14.62 12.9063C14.534 12.971 14.4258 13.0006 14.318 12.9886Z" fill="#1E1E1E"/>
<path fill-rule="evenodd" clip-rule="evenodd" d="M7.71343 9.65228C7.48196 9.65363 7.29285 9.47049 7.29155 9.24323C7.29072 9.1306 7.33728 9.02259 7.41992 8.9444L9.68448 6.81257L8.84577 6.10471L9.16866 6.74669C9.2706 6.95085 9.1846 7.19736 8.97659 7.29736C8.91872 7.32509 8.8554 7.33944 8.79123 7.33935H4.17818C3.94671 7.33935 3.75879 7.15509 3.75879 6.92778C3.75879 6.70048 3.94671 6.51623 4.17818 6.51623H8.11186L7.18086 4.65601C7.07808 4.45226 7.16327 4.20538 7.37085 4.10469C7.52224 4.0314 7.7034 4.05403 7.83089 4.16213L10.5819 6.49151C10.6717 6.56692 10.725 6.67604 10.7287 6.79196C10.7287 6.90769 10.6821 7.01876 10.5987 7.10066L8.00283 9.5453C7.92399 9.61586 7.82037 9.65409 7.71343 9.65228Z" fill="#1E1E1E"/>
<path fill-rule="evenodd" clip-rule="evenodd" d="M7.71302 16.3262C7.59895 16.3258 7.48993 16.2797 7.41109 16.1986C7.24836 16.0381 7.24836 15.7788 7.41109 15.6183L9.67565 13.4823L8.83692 12.7786L9.15987 13.4165C9.22821 13.5475 9.22025 13.7044 9.13887 13.828C9.06216 13.9486 8.92752 14.0218 8.78243 14.0215H4.16933C3.93786 14.0215 3.75 13.8372 3.75 13.6099C3.75 13.3826 3.93786 13.1983 4.16933 13.1983H8.10301L7.17207 11.3423C7.0693 11.1385 7.15444 10.8916 7.36202 10.791C7.51345 10.7176 7.69456 10.7403 7.8221 10.8484L10.5647 13.1696C10.6545 13.2449 10.7077 13.354 10.7115 13.47C10.7136 13.5849 10.6662 13.6953 10.5815 13.7745L7.98561 16.2233C7.91015 16.2885 7.81371 16.3251 7.71302 16.3262Z" fill="#1E1E1E"/>
</svg>
