<svg width="100%" height="100%" viewBox="0 0 20 20" fill="none" xmlns="http://www.w3.org/2000/svg">
<path d="M0 10C0 4.47715 4.47715 0 10 0C15.5228 0 20 4.47715 20 10C20 15.5228 15.5228 20 10 20C4.47715 20 0 15.5228 0 10Z" fill="white"/>
<path fill-rule="evenodd" clip-rule="evenodd" d="M10 20C4.47708 20 0 15.5228 0 10C0 4.4772 4.47708 0 10 0C15.5229 0 20 4.4772 20 10C20 15.5228 15.5229 20 10 20ZM10 0.833368C4.93752 0.833368 0.833339 4.93738 0.833339 10C0.833339 15.0626 4.93752 19.1666 10 19.1666C15.0625 19.1666 19.1666 15.0626 19.1666 10C19.1666 4.93738 15.0625 0.833368 10 0.833368Z" fill="#1E1E1E"/>
<path d="M15.0343 15.1443C14.933 15.2456 14.7811 15.3469 14.6292 15.3469C14.5279 15.3469 14.376 15.2962 14.3254 15.2456C14.1228 15.043 14.0721 14.7392 14.2747 14.5366C15.3382 13.3212 15.2369 11.3968 15.2369 11.3462V9.32054C15.2369 9.06734 14.933 8.81413 14.6292 8.81413C14.4266 8.81413 14.2241 9.16862 14.2241 9.47247C14.2241 9.77631 14.0215 9.97888 13.7177 9.97888C13.4138 9.97888 13.2112 9.77631 13.2112 9.47247V8.76349C13.2112 8.45964 12.9074 8.30772 12.6542 8.30772C12.401 8.30772 12.1984 8.61156 12.1984 8.96605V9.47247C12.1984 9.77631 11.9959 9.97888 11.692 9.97888C11.3882 9.97888 11.1856 9.77631 11.1856 9.47247V7.75066C11.1856 7.44681 10.8817 7.29489 10.6285 7.29489C10.3753 7.29489 10.1728 7.59874 10.1728 7.95323V9.47247C10.1728 9.77631 9.9702 9.97888 9.66635 9.97888C9.36251 9.97888 9.15994 9.77631 9.15994 9.47247V5.2186C9.15994 4.91475 8.95738 4.71218 8.65353 4.71218C8.34968 4.71218 8.14712 4.91475 8.14712 5.2186V11.2956C8.14712 11.4475 8.04583 11.65 7.89391 11.7513C7.74199 11.8526 7.53942 11.8526 7.3875 11.7513C6.27339 11.1943 5.76697 9.37118 5.66569 8.96605C5.61505 8.86477 5.51377 8.81413 5.36184 8.76349C5.20992 8.71285 5.058 8.71285 4.95671 8.81413C4.75415 8.91541 4.75415 9.32054 4.90607 9.62439V9.67503C4.90607 9.72567 6.27339 13.2706 8.29904 14.5872C8.55225 14.7392 8.60289 15.043 8.45096 15.2962C8.34968 15.4481 8.19776 15.5494 7.99519 15.5494C7.89391 15.5494 7.79263 15.5494 7.74199 15.4481C5.46313 14.0302 4.04517 10.4347 3.94389 10.0802C3.5894 9.37118 3.69068 8.35836 4.50094 7.95323C4.85543 7.75066 5.3112 7.75066 5.66569 7.85194C6.07082 7.95323 6.37467 8.25707 6.57724 8.61156C6.57724 8.66221 6.62788 8.66221 6.62788 8.71285C6.72916 9.06734 6.88108 9.57375 7.13429 10.0295V5.26924C7.13429 4.40834 7.79263 3.75 8.65353 3.75C9.51443 3.75 10.1728 4.40834 10.1728 5.26924V6.43399C10.3247 6.38335 10.4766 6.33271 10.6285 6.33271C11.3375 6.33271 11.9959 6.78848 12.1478 7.44681C12.2997 7.39617 12.4516 7.34553 12.6542 7.34553C13.2112 7.34553 13.667 7.59874 13.9709 8.00387C14.1734 7.90259 14.376 7.8013 14.6292 7.8013C15.4901 7.8013 16.2497 8.51028 16.2497 9.32054V11.3462C16.2497 11.3968 16.3004 13.6757 15.0343 15.1443Z" fill="#1E1E1E"/>
</svg>
