<svg width="100%" height="100%" viewBox="0 0 32 32" xmlns="http://www.w3.org/2000/svg">
<path d="M0 16C0 7.16344 7.16344 0 16 0C24.8366 0 32 7.16344 32 16C32 24.8366 24.8366 32 16 32C7.16344 32 0 24.8366 0 16Z"/>
<path fill-rule="evenodd" clip-rule="evenodd" d="M12.9462 23.4609C12.7707 23.4602 12.6025 23.3891 12.4796 23.2634L8.67459 19.3988C8.17062 18.8649 7.64028 18.3574 7.08427 17.8781C6.93969 17.7596 6.7951 17.6279 6.65711 17.4962L6.60459 17.4435C6.34173 17.1927 6.33115 16.7753 6.58154 16.512C6.83193 16.2486 7.24862 16.2381 7.51148 16.4889L7.56396 16.5416C7.68231 16.6536 7.79398 16.7655 7.91885 16.8642C8.51094 17.3731 9.07681 17.911 9.61433 18.4772L12.9462 21.8611L24.4729 10.116C24.7272 9.85604 25.1432 9.85143 25.4027 10.1062C25.6623 10.361 25.6669 10.7777 25.4126 11.0378L13.4194 23.2634C13.2951 23.3904 13.1243 23.4622 12.9462 23.4609Z" fill="white"/>
</svg>
