<svg width="100%" height="100%" viewBox="0 0 21 21" fill="none" xmlns="http://www.w3.org/2000/svg">
<path d="M0 10.5C0 4.70101 4.70101 0 10.5 0C16.299 0 21 4.70101 21 10.5C21 16.299 16.299 21 10.5 21C4.70101 21 0 16.299 0 10.5Z" fill="#43B02A"/>
<path fill-rule="evenodd" clip-rule="evenodd" d="M8.49565 15.3955C8.38046 15.395 8.27008 15.3484 8.18942 15.2659L5.6924 12.7298C5.36167 12.3794 5.01363 12.0463 4.64875 11.7318C4.55387 11.654 4.45898 11.5676 4.36843 11.4812L4.33395 11.4466C4.16146 11.282 4.15451 11.0081 4.31883 10.8352C4.48315 10.6624 4.7566 10.6555 4.9291 10.8201L4.96354 10.8547C5.04121 10.9282 5.11449 11.0016 5.19644 11.0664C5.585 11.4004 5.95635 11.7533 6.3091 12.1249L8.49565 14.3456L16.06 6.63792C16.2269 6.46729 16.4999 6.46427 16.6702 6.63146C16.8406 6.79864 16.8436 7.07214 16.6767 7.24281L8.80617 15.2659C8.7246 15.3492 8.61251 15.3964 8.49565 15.3955Z" fill="white"/>
</svg>
