<svg width="100%" height="100%" viewBox="0 0 44 44" fill="none" xmlns="http://www.w3.org/2000/svg">
<path d="M0 22C0 9.84974 9.84974 0 22 0C34.1503 0 44 9.84974 44 22C44 34.1503 34.1503 44 22 44C9.84974 44 0 34.1503 0 22Z" fill="white"/>
<path fill-rule="evenodd" clip-rule="evenodd" d="M22 44C9.84955 44 0 34.1505 0 22C0 9.8495 9.84955 0 22 0C34.1504 0 44 9.8495 44 22C44 34.1505 34.1504 44 22 44ZM22 1.83328C10.8625 1.83328 1.83336 10.8625 1.83336 22C1.83336 33.1376 10.8625 42.1667 22 42.1667C33.1375 42.1667 42.1668 33.1376 42.1668 22C42.1668 10.8625 33.1375 1.83328 22 1.83328Z" fill="#1E1E1E"/>
<path fill-rule="evenodd" clip-rule="evenodd" d="M15.1006 35.582C14.1062 35.582 13.3005 34.775 13.3005 33.7786V30.172H10.6005C9.60592 30.172 8.80029 29.365 8.80029 28.3687V24.762C8.80029 24.2642 9.20347 23.8603 9.70035 23.8603C10.1972 23.8603 10.6005 24.2642 10.6005 24.762V28.3687H14.2007C14.6975 28.3687 15.1006 28.7727 15.1006 29.2703V33.7786L19.3308 28.6932C19.5019 28.4867 19.7565 28.3687 20.0238 28.3687H35.8016V19.1896C35.8016 18.6847 35.8016 18.1708 35.8016 17.6749C35.4424 17.6856 35.0833 17.6559 34.7305 17.5847C33.6747 17.3737 32.7882 16.6605 32.3544 15.6731C31.8774 14.7156 32.2653 13.5506 33.2211 13.0728C33.6297 12.8681 34.0978 12.8148 34.5416 12.9231C35.5756 13.1963 36.4506 13.8888 36.9536 14.8346C37.0652 15.0627 37.1615 15.2971 37.2416 15.5379C37.5629 15.3891 37.8654 15.2015 38.1417 14.9788C38.5324 14.6705 39.0984 14.7363 39.4062 15.1277C39.7141 15.519 39.6484 16.0861 39.2577 16.3945C38.7366 16.7858 38.1561 17.0897 37.5386 17.2961C37.5926 17.9273 37.5926 18.5585 37.5926 19.1536V28.3687C37.5926 29.365 36.7871 30.172 35.7926 30.172H20.4469L16.4867 34.9328C16.1438 35.3448 15.6361 35.5828 15.1006 35.582ZM34.0555 14.6813C34.0115 14.6778 33.9683 14.6939 33.9385 14.7264C33.9204 14.8184 33.9204 14.914 33.9385 15.0059C34.1545 15.436 34.5622 15.7371 35.0365 15.8173C35.1427 15.8417 35.2516 15.8571 35.3605 15.8625C35.3308 15.7859 35.2984 15.7101 35.2616 15.6371C35.0023 15.1908 34.5892 14.8544 34.1005 14.6903L34.0555 14.6813ZM9.70035 15.628C9.20347 15.628 8.80029 15.2241 8.80029 14.7264V12.1386C8.80029 11.1422 9.60592 10.3353 10.6005 10.3353H32.7594C33.2563 10.3353 33.6595 10.7392 33.6595 11.2369C33.6595 11.7347 33.2563 12.1386 32.7594 12.1386H10.6005V14.7264C10.6005 15.2241 10.1972 15.628 9.70035 15.628Z" fill="#1E1E1E"/>
<path fill-rule="evenodd" clip-rule="evenodd" d="M9.7001 28.0889C9.20333 28.0889 8.80011 27.685 8.80011 27.1872V24.5364C8.79554 23.8483 9.05302 23.1838 9.52012 22.6789C9.05302 22.174 8.79554 21.5093 8.80011 20.8214V20.0279C8.79554 19.34 9.05302 18.6754 9.52012 18.1705C9.05302 17.6655 8.79554 17.001 8.80011 16.3131V13.6621C8.80011 13.1645 9.20333 12.7605 9.7001 12.7605C10.197 12.7605 10.6003 13.1645 10.6003 13.6621V16.3131C10.5948 16.8225 10.9926 17.2445 11.5002 17.2688H28.889C29.3858 17.2688 29.7891 17.6728 29.7891 18.1705C29.7891 18.6682 29.3858 19.0722 28.889 19.0722H11.5452C11.0377 19.0965 10.6399 19.5185 10.6452 20.0279V20.8214C10.6399 21.3309 11.0377 21.7528 11.5452 21.7772H21.6617C22.1585 21.7772 22.5616 22.1811 22.5616 22.6789C22.5616 23.1766 22.1585 23.5805 21.6617 23.5805H11.5452C11.0377 23.6049 10.6399 24.0269 10.6452 24.5364V27.1872C10.646 27.685 10.2438 28.0898 9.74602 28.0898C9.73074 28.0898 9.71539 28.0898 9.7001 28.0889Z" fill="#1E1E1E"/>
</svg>
