<svg width="100%" height="100%" viewBox="0 0 40 40" fill="none" xmlns="http://www.w3.org/2000/svg">
<rect width="40" height="40" />
<circle cx="20" cy="20" r="19.75" stroke="#E2EAEC" stroke-width="0.5"/>
<path fill-rule="evenodd" clip-rule="evenodd" d="M24.1 30.2461H17.9364C17.243 30.1832 16.7235 29.5816 16.7608 28.8854C16.7608 28.4557 16.7211 28.0339 16.7052 27.6042C16.6949 26.9254 16.6464 26.2483 16.5623 25.5751C16.4748 24.6123 16.0921 23.7011 15.4661 22.9651C15.2199 22.7088 14.9546 22.4717 14.6718 22.2569C14.3939 22.0421 14.1158 21.8352 13.8775 21.5965C13.5185 21.1708 13.3596 20.6113 13.4406 20.0607V19.9732C13.42 19.436 13.4844 18.8989 13.6313 18.3817C13.729 18.0929 13.8768 17.8231 14.0682 17.5859C14.25 17.3624 14.4605 17.1643 14.6956 16.9971C14.9244 16.8364 15.1691 16.7003 15.4264 16.5913C15.6838 16.4814 15.9498 16.3908 16.2206 16.3207C16.4828 16.2491 16.7529 16.1934 17.015 16.1457C17.2771 16.098 17.4598 16.0662 17.6822 16.0422C16.8474 15.1009 16.2969 13.9423 16.0936 12.7002C15.5694 10.5119 15.7918 8.79309 16.7608 7.59156C17.6354 6.57143 18.9133 5.9898 20.2557 6.00014C20.6941 6.00014 21.05 6.35657 21.05 6.79586C21.05 7.23515 20.6941 7.59156 20.2557 7.59156C19.4137 7.60435 18.6131 7.96077 18.0396 8.57831C17.3962 9.37393 17.2453 10.6313 17.6742 12.3102C18.0078 13.6709 18.3653 14.8407 19.4455 15.2942L20.1286 15.5648C20.6449 15.7637 21.1691 15.9627 21.1056 16.5993C21.0532 16.966 20.7712 17.2581 20.4066 17.3234L19.8029 17.395L18.8022 17.4984L18.0555 17.5859L17.3248 17.6894C17.1024 17.7371 16.872 17.7769 16.6576 17.8406C16.4606 17.8946 16.2667 17.9616 16.0777 18.0395C15.9212 18.1024 15.7719 18.1827 15.633 18.2782C15.5225 18.3562 15.4233 18.4501 15.339 18.5567C15.2604 18.6546 15.1984 18.7644 15.1563 18.883C15.0697 19.226 15.0348 19.58 15.0531 19.9333V20.0607C15.0451 20.1904 15.0451 20.3208 15.0531 20.4506C15.2492 20.6305 15.4558 20.7984 15.6727 20.9519C16.034 21.216 16.374 21.5089 16.6893 21.8272C17.544 22.8028 18.0746 24.0211 18.2064 25.3125C18.3097 26.0526 18.3335 26.7926 18.3653 27.5087C18.3653 27.8747 18.3653 28.2488 18.413 28.6147H24.1715C24.61 28.6147 24.9659 28.9712 24.9659 29.4105C24.9659 29.8497 24.61 30.2062 24.1715 30.2062L24.1 30.2461Z" fill="#E2EAEC"/>
<path fill-rule="evenodd" clip-rule="evenodd" d="M12.4008 28.1455C11.9623 28.1455 11.6064 27.789 11.6064 27.3498C11.6064 26.9105 11.9623 26.554 12.4008 26.554H13.6002V25.9254C13.6097 25.3668 13.6494 24.809 13.7193 24.2544C13.8257 23.2494 14.2388 22.3016 14.9028 21.5409L15.0061 21.4375C15.3222 21.1295 15.8266 21.1367 16.1339 21.4534C16.4413 21.7701 16.4342 22.2753 16.1181 22.5833L16.0625 22.639C15.6129 23.1571 15.3349 23.8024 15.2683 24.4851C15.2047 24.9817 15.1697 25.4806 15.165 25.9811C15.165 26.2994 15.165 26.6256 15.1172 26.944C15.1498 27.5567 14.6947 28.0866 14.0847 28.1455H12.4008Z" fill="#E2EAEC"/>
<path fill-rule="evenodd" clip-rule="evenodd" d="M14.7118 18.7959H14.5688L14.0366 18.7163L13.4806 18.6527L12.734 18.5731C12.5671 18.5731 12.3845 18.5731 12.2654 18.5174C11.8991 18.4672 11.6156 18.1704 11.5822 17.8012C11.5187 17.1726 12.0667 16.9577 12.4321 16.8225C12.5751 16.7668 12.7498 16.7031 12.9405 16.6156C13.5998 16.3451 13.8698 15.6687 14.1478 14.5229C14.4258 13.3769 14.3543 12.4539 13.9175 11.9048C13.5275 11.4887 12.9857 11.2507 12.4162 11.2444C11.9778 11.2444 11.622 10.8878 11.622 10.4486C11.622 10.0093 11.9778 9.65294 12.4162 9.65294C13.479 9.64015 14.4933 10.0969 15.1884 10.9022C15.9827 11.8571 16.1415 13.2019 15.7285 14.8809C15.5847 15.714 15.2527 16.5027 14.7594 17.1885H14.8866C15.325 17.2259 15.6506 17.6126 15.6133 18.0518C15.576 18.4911 15.19 18.8174 14.7515 18.78L14.7118 18.7959Z" fill="#E2EAEC"/>
<path fill-rule="evenodd" clip-rule="evenodd" d="M12.345 28.1455H10.6531C10.0264 28.1073 9.54588 27.5727 9.57286 26.944C9.57286 26.6257 9.57286 26.2995 9.53318 25.9811C9.52127 25.4806 9.48475 24.9817 9.42203 24.4852C9.35598 23.8017 9.07804 23.1564 8.62763 22.6392C8.44263 22.4561 8.24405 22.2882 8.0319 22.1379C7.81668 21.9763 7.61013 21.8036 7.41243 21.6206C7.09551 21.2712 6.9501 20.7985 7.01527 20.3315L7.80949 20.2519H7.01527C7.00494 19.8406 7.05889 19.43 7.17407 19.0345C7.33534 18.5753 7.63877 18.1799 8.03996 17.9045C8.22102 17.7755 8.41565 17.6666 8.61974 17.5783C8.82068 17.4923 9.02724 17.4239 9.2393 17.3714C9.44261 17.3117 9.64994 17.2639 9.85885 17.2282H9.98587C9.49893 16.5383 9.16862 15.7512 9.01682 14.9205C8.61178 13.2256 8.78652 11.8809 9.55692 10.9419C10.2536 10.1382 11.2671 9.68144 12.3291 9.69257C12.7675 9.69257 13.1233 10.0491 13.1233 10.4883C13.1233 10.9276 12.7675 11.2841 12.3291 11.2841C11.7611 11.2848 11.2195 11.5243 10.8358 11.9445C10.391 12.4936 10.3116 13.3688 10.6054 14.5625C10.8993 15.756 11.1535 16.3846 11.8049 16.6552L12.3132 16.8621C12.7024 17.0053 13.2346 17.2122 13.171 17.8409C13.1233 18.2061 12.843 18.4973 12.48 18.557C12.3608 18.557 12.1781 18.5968 12.0193 18.6127L11.2648 18.6922L10.7167 18.756L10.1766 18.8355L9.69996 18.939C9.56174 18.9772 9.42676 19.0249 9.29484 19.0822C9.18929 19.1252 9.08838 19.1785 8.99308 19.2413C8.92712 19.2907 8.86598 19.3472 8.81035 19.4085C8.76901 19.4674 8.7372 19.5309 8.71504 19.5994C8.65942 19.831 8.6356 20.0697 8.64357 20.3076V20.419C8.63954 20.4803 8.63954 20.5407 8.64357 20.602C8.76743 20.7118 8.89777 20.8161 9.03275 20.9124C9.31235 21.1193 9.57846 21.3453 9.82706 21.5887C10.499 22.3447 10.9128 23.2948 11.0106 24.3021C11.0836 24.8568 11.1257 25.4146 11.1376 25.9732C11.1376 26.1801 11.1376 26.395 11.1376 26.6019H12.337C12.7754 26.6019 13.1313 26.9584 13.1313 27.3976C13.1313 27.8368 12.7754 28.1934 12.337 28.1934L12.345 28.1455Z" fill="#E2EAEC"/>
<path fill-rule="evenodd" clip-rule="evenodd" d="M23.394 33.0002C23.0317 33.0161 22.7045 32.783 22.5996 32.4352C22.023 30.1245 21.9229 27.7197 22.3058 25.3692C22.4313 24.0777 22.9595 22.8579 23.8149 21.8839C24.1326 21.5656 24.4757 21.2728 24.8395 21.0086C25.046 20.8494 25.2605 20.6902 25.4592 20.5072C25.4671 20.3775 25.4671 20.247 25.4592 20.1173V20.0139C25.4727 19.655 25.4352 19.2961 25.3479 18.9476C25.3106 18.8267 25.251 18.7128 25.1732 18.6134C25.0842 18.5091 24.9825 18.4152 24.8713 18.3349C24.7324 18.2394 24.583 18.159 24.4266 18.0961C24.2398 18.0182 24.0493 17.9513 23.8547 17.8973C23.6322 17.8335 23.4098 17.7938 23.1795 17.746L22.4567 17.6426L21.71 17.5552L20.7093 17.4516L20.0977 17.3801C19.7339 17.3164 19.4534 17.0227 19.4066 16.6559C19.3431 16.0193 19.8673 15.8602 20.3757 15.6214C20.5663 15.5498 20.8045 15.4623 21.0666 15.3509C22.1469 14.8974 22.5044 13.7594 22.83 12.3669C23.235 10.6879 23.116 9.43065 22.4726 8.63494C21.8991 8.01188 21.0945 7.65458 20.2485 7.64828C19.8101 7.65931 19.4455 7.31166 19.4344 6.87247C19.4233 6.43318 19.7704 6.06798 20.2088 6.05677C21.5504 6.04959 22.8276 6.6313 23.7037 7.64828C24.6807 8.84981 24.9031 10.5685 24.3789 12.7569C24.1715 13.9982 23.6212 15.156 22.7903 16.0989C23.0127 16.0989 23.235 16.1626 23.4575 16.2023C23.6799 16.2421 23.9976 16.3058 24.2518 16.3774C24.5227 16.4474 24.7887 16.5382 25.0461 16.6479C25.3034 16.757 25.5481 16.893 25.7768 17.0538C26.0143 17.2209 26.228 17.4182 26.4123 17.6426C26.6013 17.8806 26.7458 18.1495 26.8412 18.4383C26.9905 18.9389 27.0572 19.46 27.0397 19.982V20.0935C27.1136 20.6449 26.9524 21.2027 26.595 21.6292C26.3408 21.868 26.0628 22.0748 25.8006 22.2896C25.5178 22.5045 25.2518 22.7408 25.0064 22.9978C24.3773 23.7315 23.9945 24.6443 23.9102 25.6079C23.5576 27.7245 23.641 29.8913 24.1564 31.9738C24.2796 32.3931 24.0421 32.8339 23.6243 32.9604C23.5496 32.9851 23.4726 32.9986 23.394 33.0002Z" fill="#E2EAEC"/>
<path fill-rule="evenodd" clip-rule="evenodd" d="M28.0956 28.1533H26.4117C25.785 28.1151 25.3045 27.5804 25.3315 26.9518C25.3315 26.6335 25.2918 26.3073 25.2838 25.9888C25.2791 25.4884 25.2442 24.9895 25.1806 24.4929C25.1107 23.811 24.8335 23.1665 24.3863 22.6469C24.0558 22.358 24.0217 21.8551 24.31 21.5241C24.3196 21.5137 24.329 21.5034 24.3386 21.4931C24.6325 21.1859 25.1154 21.1652 25.4348 21.4453L25.538 21.5567C26.2028 22.3135 26.6167 23.2596 26.7215 24.2622C26.7914 24.8168 26.8311 25.3747 26.8407 25.9332V26.5618H28.0401C28.4785 26.5618 28.8343 26.9183 28.8343 27.3576C28.8343 27.7968 28.4785 28.1533 28.0401 28.1533H28.0956Z" fill="#E2EAEC"/>
<path fill-rule="evenodd" clip-rule="evenodd" d="M25.7849 18.8034C25.3465 18.8432 24.9588 18.5184 24.9191 18.0792C24.8794 17.64 25.2035 17.2518 25.6419 17.2119H25.7769C25.2836 16.526 24.9516 15.7374 24.8079 14.9043C24.3949 13.2094 24.5775 11.8646 25.3481 10.9256C26.0446 10.1267 27.0534 9.67078 28.1122 9.67629C28.5506 9.67629 28.9064 10.0328 28.9064 10.4721C28.9064 10.9113 28.5506 11.2677 28.1122 11.2677C27.5435 11.2781 27.0034 11.516 26.6109 11.9282C26.1741 12.4772 26.0946 13.3605 26.3806 14.5462C26.6665 15.7319 26.9286 16.3684 27.588 16.639C27.7786 16.7265 27.9533 16.7901 28.0963 16.8458C28.4617 16.9812 29.0097 17.196 28.9462 17.8247C28.912 18.1963 28.6246 18.4938 28.2552 18.5408C28.136 18.5408 27.9533 18.5806 27.7865 18.5965L27.0479 18.676L26.4918 18.7397L25.9597 18.8193L25.7849 18.8034Z" fill="#E2EAEC"/>
<path fill-rule="evenodd" clip-rule="evenodd" d="M28.152 28.1533C27.7135 28.1533 27.3577 27.7969 27.3577 27.3576C27.3577 26.9183 27.7135 26.5619 28.152 26.5619H29.3832C29.3832 26.347 29.3832 26.1401 29.3832 25.9332C29.3951 25.3747 29.4371 24.8168 29.5102 24.2622C29.6079 23.2549 30.0218 22.3047 30.6937 21.5488C30.9423 21.3053 31.2084 21.0793 31.488 20.8724C31.623 20.7761 31.7533 20.6719 31.8772 20.5621C31.8812 20.5008 31.8812 20.4403 31.8772 20.379V20.2915C31.886 20.0425 31.8621 19.7942 31.8058 19.5514C31.7818 19.4863 31.7501 19.425 31.7104 19.3685C31.6548 19.3072 31.5937 19.2507 31.5277 19.2014C31.4324 19.1385 31.3315 19.0852 31.226 19.0423C31.0964 18.9865 30.9638 18.9388 30.8287 18.8989L30.3442 18.7955L29.8041 18.716L29.256 18.6523L28.5094 18.5727C28.3426 18.5727 28.1599 18.5727 28.0408 18.517C27.6778 18.4574 27.3974 18.1661 27.3497 17.8009C27.2862 17.1723 27.8422 16.9574 28.2076 16.8222L28.7159 16.6152C29.3672 16.3447 29.6452 15.6683 29.9153 14.5224C30.1853 13.3766 30.1298 12.4537 29.6849 11.9045C29.2934 11.4915 28.7525 11.2536 28.1837 11.2441C27.7453 11.2441 27.3894 10.8876 27.3894 10.4483C27.3894 10.009 27.7453 9.65264 28.1837 9.65264C29.2449 9.64624 30.2568 10.1022 30.9558 10.9019C31.7501 11.8568 31.9011 13.2015 31.4959 14.8805C31.3442 15.7113 31.0138 16.4982 30.527 17.1881H30.6541C30.8629 17.224 31.0702 17.2718 31.2735 17.3314C31.4824 17.384 31.6873 17.4532 31.8851 17.5382C32.0925 17.6243 32.2903 17.734 32.473 17.8645C32.6659 17.9958 32.8375 18.1574 32.9813 18.3419C33.1386 18.5361 33.2593 18.7573 33.3388 18.9945C33.454 19.39 33.5079 19.8006 33.4976 20.2119L32.7032 20.3154H33.4976C33.5627 20.7825 33.4174 21.2552 33.1004 21.6045C32.905 21.7875 32.6977 21.957 32.4809 22.1138C32.2712 22.2697 32.0719 22.44 31.8851 22.6229C31.4348 23.1402 31.1568 23.7855 31.0909 24.4691C31.0194 24.9545 31.0035 25.4479 30.9797 25.9651C30.9797 26.2833 30.9797 26.6096 30.94 26.928C30.9725 27.5438 30.5126 28.0746 29.8994 28.1294L28.152 28.1533Z" fill="#E2EAEC"/>
</svg>
