<svg width="100%" height="100%" viewBox="0 0 32 32" fill="none" xmlns="http://www.w3.org/2000/svg">
<circle cx="16" cy="16" r="15.75" fill="white" stroke="#1E1E1E" stroke-width="0.5"/>
<path fill-rule="evenodd" clip-rule="evenodd" d="M25.9383 23.2969H6.06147C5.65953 23.2969 5.33337 22.9701 5.33337 22.5675V9.51835C5.33337 9.11568 5.65953 8.78897 6.06147 8.78897C6.46342 8.78897 6.78957 9.11568 6.78957 9.51835V21.838H25.2102V10.2477H8.14379C7.74184 10.2477 7.41569 9.92094 7.41569 9.51835C7.41569 9.11568 7.74184 8.78897 8.14379 8.78897H25.9383C26.3402 8.78897 26.6664 9.11568 26.6664 9.51835V22.5675C26.6664 22.9701 26.3402 23.2969 25.9383 23.2969Z" fill="#1E1E1E"/>
<path fill-rule="evenodd" clip-rule="evenodd" d="M20.9581 12.2031C20.5561 12.2031 20.23 11.8764 20.23 11.4738V8.73123C20.23 8.32856 20.5561 8.00186 20.9581 8.00186C21.36 8.00186 21.6862 8.32856 21.6862 8.73123V11.4738C21.6862 11.8764 21.36 12.2031 20.9581 12.2031Z" fill="#1E1E1E"/>
<path fill-rule="evenodd" clip-rule="evenodd" d="M11.0198 12.2031C10.6179 12.2031 10.2917 11.8764 10.2917 11.4738V8.73123C10.2917 8.32856 10.6179 8.00186 11.0198 8.00186C11.4218 8.00186 11.7479 8.32856 11.7479 8.73123V11.4738C11.7479 11.8764 11.4218 12.2031 11.0198 12.2031Z" fill="#1E1E1E"/>
<path fill-rule="evenodd" clip-rule="evenodd" d="M15.9857 12.2031C15.5837 12.2031 15.2576 11.8764 15.2576 11.4738V8.73123C15.2576 8.32856 15.5837 8.00186 15.9857 8.00186C16.3876 8.00186 16.7138 8.32856 16.7138 8.73123V11.4738C16.7138 11.8764 16.3876 12.2031 15.9857 12.2031Z" fill="#1E1E1E"/>
<path fill-rule="evenodd" clip-rule="evenodd" d="M25.9386 16.2266H15.9856C15.5837 16.2266 15.2576 15.8998 15.2576 15.4971C15.2576 15.0944 15.5837 14.7676 15.9856 14.7676H25.9386C26.3406 14.7676 26.6667 15.0944 26.6667 15.4971C26.6667 15.8998 26.3406 16.2266 25.9386 16.2266Z" fill="#1E1E1E"/>
<path fill-rule="evenodd" clip-rule="evenodd" d="M25.9386 18.9336H15.9856C15.5837 18.9336 15.2576 18.6068 15.2576 18.2041C15.2576 17.8014 15.5837 17.4747 15.9856 17.4747H25.9386C26.3406 17.4747 26.6667 17.8014 26.6667 18.2041C26.6667 18.6068 26.3406 18.9336 25.9386 18.9336Z" fill="#1E1E1E"/>
<path fill-rule="evenodd" clip-rule="evenodd" d="M8.14402 20.5027H8.09315C7.71087 20.4757 7.41529 20.1569 7.41602 19.7732C7.41602 18.6427 8.26784 18.1905 9.11245 17.9789C8.90056 17.5937 8.75057 17.178 8.66835 16.7462C8.35817 15.8351 8.49868 14.8307 9.04693 14.0401C9.96428 12.9868 11.5603 12.8773 12.6116 13.7965C12.6983 13.8723 12.779 13.9533 12.8548 14.0401C13.4096 14.8278 13.5531 15.8344 13.2407 16.7462C13.1481 17.1518 12.9983 17.542 12.7966 17.906C13.9615 18.154 14.5731 18.7447 14.6168 19.6858C14.691 20.0883 14.4253 20.4757 14.0234 20.55C13.6215 20.6245 13.2349 20.3583 13.1606 19.9556C13.1533 19.8878 13.1533 19.8192 13.1606 19.7513C13.1606 19.642 13.1606 19.3794 12.0903 19.2772H11.8864C11.6389 19.2772 11.3767 19.2262 11.1146 19.1824C10.8737 19.2291 10.6312 19.2633 10.3866 19.2845C9.48374 19.3794 8.98142 19.4815 8.93044 19.7368C8.93413 19.7711 8.93413 19.8046 8.93044 19.8389H8.63914L8.92314 19.8972C8.85986 20.2714 8.52124 20.5348 8.14402 20.5027ZM10.9691 14.6673C10.6727 14.6623 10.3881 14.7812 10.1828 14.9956C9.94606 15.4464 9.90896 15.9751 10.0808 16.4544C10.2337 17.0963 10.3793 17.4683 10.6997 17.5996C10.8148 17.6507 10.9341 17.6893 11.0564 17.7162C11.2603 17.6288 11.6098 17.3588 11.8281 16.4544C12 15.9751 11.9629 15.4464 11.7263 14.9956C11.5363 14.7943 11.2748 14.6761 10.9982 14.6673H10.9691Z" fill="#1E1E1E"/>
</svg>
