<svg width="100%" height="100%" viewBox="0 0 15 15" fill="none" xmlns="http://www.w3.org/2000/svg">
<path fill-rule="evenodd" clip-rule="evenodd" d="M7.49646 14.0601C6.25755 14.0616 5.04376 13.7112 3.99647 13.0494C3.78314 12.936 3.70223 12.671 3.81566 12.4577C3.92913 12.2444 4.19409 12.1634 4.40742 12.2769C4.42576 12.2867 4.44341 12.2978 4.4602 12.31C7.11533 13.9884 10.6285 13.1965 12.3067 10.5413C13.985 7.88613 13.1931 4.3731 10.5379 2.69479C7.88271 1.01647 4.36979 1.80837 2.69141 4.46355C1.38225 6.53472 1.54671 9.21159 3.09956 11.1069C3.25303 11.2941 3.22557 11.5704 3.03834 11.7238C2.8511 11.8772 2.5749 11.8498 2.42144 11.6625C0.12119 8.86169 0.527022 4.72639 3.32786 2.42612C6.12874 0.12586 10.2641 0.531636 12.5645 3.33251C14.8644 6.13338 14.4588 10.2687 11.6579 12.5689C10.485 13.5323 9.01409 14.0592 7.49646 14.0601Z" />
<path fill-rule="evenodd" clip-rule="evenodd" d="M2.17618 7.93506H1.37552C1.13386 7.93506 0.937988 7.73919 0.937988 7.49751C0.937988 7.25589 1.13386 7.06001 1.37552 7.06001H2.17618C2.41779 7.06001 2.61367 7.25589 2.61367 7.49751C2.61367 7.73919 2.41779 7.93506 2.17618 7.93506Z" />
<path fill-rule="evenodd" clip-rule="evenodd" d="M13.6312 7.93506H12.8305C12.5891 7.93506 12.3931 7.73919 12.3931 7.49751C12.3931 7.25589 12.5891 7.06001 12.8305 7.06001H13.6312C13.8727 7.06001 14.0687 7.25589 14.0687 7.49751C14.0687 7.73919 13.8727 7.93506 13.6312 7.93506Z" />
<path fill-rule="evenodd" clip-rule="evenodd" d="M7.50051 2.61108C7.2589 2.61108 7.06299 2.41521 7.06299 2.17354V1.37292C7.06299 1.1313 7.2589 0.935422 7.50051 0.935422C7.74217 0.935422 7.93805 1.1313 7.93805 1.37292V2.17354C7.93805 2.41521 7.74217 2.61108 7.50051 2.61108Z" />
<path fill-rule="evenodd" clip-rule="evenodd" d="M7.50051 14.0601C7.2589 14.0601 7.06299 13.8642 7.06299 13.6225V12.8219C7.06299 12.5803 7.2589 12.3844 7.50051 12.3844C7.74217 12.3844 7.93805 12.5803 7.93805 12.8219V13.6225C7.93805 13.8642 7.74217 14.0601 7.50051 14.0601Z" />
<path fill-rule="evenodd" clip-rule="evenodd" d="M10.4223 10.8408C10.306 10.8415 10.1944 10.7959 10.1118 10.7139L4.24045 4.83827C4.08332 4.65473 4.10464 4.37854 4.28821 4.22138C4.452 4.08114 4.69356 4.08114 4.85735 4.22138L10.733 10.0927C10.9045 10.2628 10.9058 10.5398 10.7356 10.7114C10.7347 10.7122 10.7339 10.7131 10.733 10.7139C10.6503 10.7959 10.5388 10.8415 10.4223 10.8408Z" />
<path fill-rule="evenodd" clip-rule="evenodd" d="M7.48546 7.90429C7.24385 7.90569 7.04682 7.71097 7.04542 7.46935C7.04474 7.35181 7.09135 7.23894 7.17486 7.15617L9.49797 4.8374C9.6813 4.68024 9.95784 4.70159 10.1149 4.88513C10.2553 5.04894 10.2553 5.29047 10.1149 5.45429L7.79176 7.77745C7.71022 7.85825 7.60023 7.90386 7.48546 7.90429Z" />
</svg>
