<svg width="100%" height="100%" viewBox="0 0 40 40" fill="none" xmlns="http://www.w3.org/2000/svg">
<circle cx="20" cy="20" r="19.5" fill="white" stroke="#D72B25"/>
<path fill-rule="evenodd" clip-rule="evenodd" d="M19.9936 33.9717C17.3533 33.9751 14.7666 33.2281 12.5347 31.8178C12.08 31.5761 11.9076 31.0114 12.1493 30.5568C12.3912 30.1023 12.9558 29.9298 13.4105 30.1716C13.4495 30.1924 13.4872 30.216 13.5229 30.2422C19.1814 33.8189 26.6684 32.1313 30.2449 26.4727C33.8215 20.8142 32.1339 13.3275 26.4754 9.75079C20.8168 6.17409 13.3303 7.86172 9.75343 13.5203C6.96343 17.9342 7.31393 23.6389 10.6232 27.6781C10.9503 28.0771 10.8918 28.6658 10.4928 28.9928C10.0937 29.3198 9.50513 29.2613 9.17807 28.8622C4.27595 22.8933 5.14083 14.0804 11.1098 9.17824C17.0788 4.27608 25.8917 5.14084 30.7942 11.1099C35.6956 17.0789 34.8313 25.8918 28.8623 30.7939C26.3626 32.847 23.2279 33.9699 19.9936 33.9717Z" fill="#D72B25"/>
<path fill-rule="evenodd" clip-rule="evenodd" d="M8.65634 20.9189H6.95002C6.43501 20.9189 6.01758 20.5015 6.01758 19.9865C6.01758 19.4715 6.43501 19.0541 6.95002 19.0541H8.65634C9.17124 19.0541 9.58867 19.4715 9.58867 19.9865C9.58867 20.5015 9.17124 20.9189 8.65634 20.9189Z" fill="#D72B25"/>
<path fill-rule="evenodd" clip-rule="evenodd" d="M33.0683 20.9189H31.362C30.8474 20.9189 30.4297 20.5015 30.4297 19.9865C30.4297 19.4715 30.8474 19.0541 31.362 19.0541H33.0683C33.583 19.0541 34.0008 19.4715 34.0008 19.9865C34.0008 20.5015 33.583 20.9189 33.0683 20.9189Z" fill="#D72B25"/>
<path fill-rule="evenodd" clip-rule="evenodd" d="M20.0027 9.57324C19.4878 9.57324 19.0703 9.15581 19.0703 8.64078V6.93456C19.0703 6.41962 19.4878 6.00219 20.0027 6.00219C20.5177 6.00219 20.9352 6.41962 20.9352 6.93456V8.64078C20.9352 9.15581 20.5177 9.57324 20.0027 9.57324Z" fill="#D72B25"/>
<path fill-rule="evenodd" clip-rule="evenodd" d="M20.0027 33.9717C19.4878 33.9717 19.0703 33.5543 19.0703 33.0392V31.333C19.0703 30.8181 19.4878 30.4006 20.0027 30.4006C20.5177 30.4006 20.9352 30.8181 20.9352 31.333V33.0392C20.9352 33.5543 20.5177 33.9717 20.0027 33.9717Z" fill="#D72B25"/>
<path fill-rule="evenodd" clip-rule="evenodd" d="M26.2287 27.1103C25.9807 27.1118 25.743 27.0146 25.5668 26.8399L13.0543 14.3181C12.7194 13.927 12.7648 13.3384 13.156 13.0035C13.5051 12.7046 14.0199 12.7046 14.369 13.0035L26.8907 25.516C27.2562 25.8786 27.259 26.4689 26.8963 26.8346C26.8944 26.8363 26.8926 26.8382 26.8907 26.8399C26.7145 27.0146 26.4768 27.1118 26.2287 27.1103Z" fill="#D72B25"/>
<path fill-rule="evenodd" clip-rule="evenodd" d="M19.971 20.8535C19.4561 20.8565 19.0362 20.4415 19.0332 19.9266C19.0318 19.6761 19.1311 19.4356 19.3091 19.2592L24.2599 14.3176C24.6506 13.9826 25.24 14.0281 25.5746 14.4193C25.8739 14.7684 25.8739 15.2831 25.5746 15.6322L20.6238 20.5832C20.45 20.7554 20.2156 20.8526 19.971 20.8535Z" fill="#D72B25"/>
</svg>
