<svg width="100%" height="100%" viewBox="0 0 16 16" fill="none" xmlns="http://www.w3.org/2000/svg">
<path fill-rule="evenodd" clip-rule="evenodd" d="M8.00002 16C3.58167 16 0 12.4183 0 8C0 3.58167 3.58167 0 8.00002 0C12.4183 0 16 3.58167 16 8C16 12.4183 12.4183 16 8.00002 16ZM8.00002 0.666701C3.95002 0.666701 0.666671 3.95001 0.666671 8C0.666671 12.05 3.95002 15.3334 8.00002 15.3334C12.05 15.3334 15.3333 12.05 15.3333 8C15.3333 3.95001 12.05 0.666701 8.00002 0.666701Z" fill="#C836BF"/>
<path fill-rule="evenodd" clip-rule="evenodd" d="M10.72 12.3355H10.61C10.2047 12.2812 9.85135 12.0322 9.66334 11.6688C9.58037 11.5132 9.51904 11.3475 9.48004 11.1755C9.34003 11.1755 9.19005 11.2022 9.0367 11.2255C8.85273 11.2522 8.68172 11.1245 8.65503 10.9405C8.62835 10.7565 8.75606 10.5855 8.94003 10.5588C9.06669 10.5422 9.18666 10.5255 9.30671 10.5155L9.27003 10.4122C9.21868 10.2695 9.11667 10.1508 8.98335 10.0788C8.8347 10.0138 8.66905 9.99617 8.51004 10.0289C8.45273 10.0388 8.396 10.0525 8.34002 10.0689C8.28301 10.1318 8.22169 10.1908 8.15671 10.2455C7.86702 10.4821 7.52371 10.6435 7.15668 10.7155C6.8527 10.7722 6.54069 10.7722 6.23671 10.7155C5.92934 10.6682 5.6357 10.5542 5.3767 10.3822C5.13836 10.2201 4.9427 10.0029 4.80674 9.74886C4.50069 9.80318 4.18537 9.77082 3.89668 9.65552C3.576 9.52582 3.30904 9.29085 3.14003 8.98885C3.11338 8.93882 3.09003 8.88884 3.06669 8.8355C2.82034 8.71348 2.61171 8.52685 2.46336 8.29551C2.30103 8.04986 2.21068 7.76318 2.20337 7.46886C2.19068 7.16116 2.27736 6.85717 2.45001 6.60214C2.59171 6.39884 2.78204 6.23384 3.00336 6.12218C3.01869 6.00784 3.04768 5.89619 3.09002 5.78886C3.22037 5.43885 3.45268 5.13585 3.75666 4.91884C4.05569 4.70286 4.40868 4.5735 4.7767 4.54551C4.86866 4.53717 4.96136 4.53717 5.05337 4.54551C5.38466 4.15315 5.84167 3.88818 6.34668 3.7955C6.84505 3.71385 7.35669 3.79319 7.80672 4.02217C8.1357 3.87715 8.49036 3.79984 8.85 3.7955C9.38405 3.78683 9.91469 3.88083 10.4133 4.0722C10.9307 4.2535 11.3907 4.56851 11.7467 4.98552C11.9473 5.22853 12.089 5.51518 12.16 5.82217C12.4257 5.89016 12.669 6.02551 12.8667 6.21552C13.0524 6.39385 13.198 6.60982 13.2934 6.84883C13.3877 7.08417 13.4364 7.33515 13.4367 7.58885C13.4374 7.9245 13.3387 8.25251 13.1534 8.53215C13.2467 8.78452 13.2787 9.05519 13.2467 9.32215C13.2197 9.57284 13.1487 9.81651 13.0367 10.0422C12.8134 10.4922 12.5434 10.7455 12.2367 10.7955C11.969 10.8329 11.701 10.7325 11.5234 10.5288C11.2777 10.3098 11.1351 9.99786 11.1301 9.66886C11.1344 9.45916 11.2324 9.26249 11.3967 9.13217C11.3791 9.12916 11.361 9.12916 11.3434 9.13217C11.19 9.16817 11.043 9.22651 10.9067 9.30551C10.4327 9.62754 9.80302 9.59884 9.36001 9.2355C9.16068 9.13115 9.04571 8.91584 9.07004 8.69218C9.12668 8.3255 9.57335 8.14217 10.05 8.00215C10.16 7.96884 10.2667 7.94217 10.3833 7.9155C10.9 7.79551 11.1134 7.71216 11.1134 7.50217C11.1077 7.46316 11.0857 7.42819 11.0534 7.40549C10.943 7.32115 10.8044 7.28317 10.6667 7.29882C10.387 7.36585 10.1254 7.49317 9.90007 7.67216L9.81004 7.73548C9.09437 8.20685 8.31702 8.57685 7.50001 8.8355C6.94669 9.00884 6.50006 8.93552 6.28672 8.62217C6.14237 8.44384 6.09269 8.20685 6.15334 7.98551C6.29669 7.49552 6.9467 7.23884 7.4867 7.03216C7.61337 6.98217 7.74337 6.92883 7.80005 6.89886L7.90339 6.83884C8.44336 6.54217 8.57003 6.39551 8.57003 6.3255C8.57003 6.25552 8.27335 6.02216 6.27671 6.92883L6.08336 7.01552C6.01003 7.04884 5.92 7.09882 5.82002 7.14885C5.52203 7.3195 5.204 7.45283 4.87332 7.54551C4.68935 7.58617 4.50701 7.46951 4.46669 7.28549C4.42603 7.10151 4.54269 6.91951 4.72667 6.87885C5.00036 6.80017 5.26371 6.68818 5.51006 6.54552C5.62673 6.4855 5.73004 6.43216 5.81668 6.3955L5.99999 6.30885C6.93004 5.88883 8.6667 5.10217 9.15007 5.97552C9.24038 6.13217 9.26305 6.31852 9.21336 6.49218C9.09003 6.92553 8.56667 7.21217 8.21335 7.40218L8.11673 7.45552C7.98767 7.52384 7.85401 7.58286 7.71669 7.63215C7.12334 7.86551 6.81334 8.03884 6.79334 8.15219C6.80003 8.1725 6.81035 8.19183 6.82336 8.20883C6.85001 8.24218 7.01337 8.26885 7.2967 8.17886C8.05534 7.94084 8.77671 7.59753 9.44004 7.15885L9.53003 7.09882C9.8367 6.85952 10.1953 6.69519 10.5767 6.61886C10.9041 6.57651 11.234 6.67051 11.49 6.87885C11.6663 7.02687 11.7717 7.24219 11.78 7.47216C11.78 8.25552 11.0034 8.43884 10.5334 8.54551C10.4367 8.56883 10.3467 8.58885 10.2667 8.61552C10.1353 8.65218 10.006 8.69685 9.88004 8.74886C10.1867 8.91216 10.33 8.83885 10.6033 8.69552C10.797 8.58485 11.006 8.50415 11.2234 8.45552C11.5497 8.36351 11.896 8.51051 12.0567 8.80884C12.1677 9.10184 12.0727 9.43286 11.8234 9.62217C11.808 9.63418 11.7994 9.65284 11.8 9.67216C11.8177 9.81119 11.8867 9.93817 11.9934 10.0289C12.0567 10.0922 12.1067 10.1188 12.13 10.1155C12.1534 10.1122 12.2967 10.0155 12.4434 9.72219C12.5207 9.56785 12.5694 9.4005 12.5867 9.22882C12.6167 9.03183 12.5817 8.8305 12.4867 8.65552C12.4021 8.52751 12.4157 8.35815 12.52 8.24553C12.6854 8.05519 12.7754 7.81086 12.7734 7.55884C12.7724 7.39319 12.7411 7.22952 12.6801 7.07551C12.619 6.92484 12.527 6.78852 12.4101 6.6755C12.2577 6.52516 12.0567 6.43418 11.8434 6.41883C11.6807 6.40652 11.551 6.27818 11.5367 6.1155C11.513 5.84483 11.407 5.58783 11.2334 5.37886C10.954 5.05684 10.5957 4.81317 10.1933 4.67216C9.77805 4.5105 9.33536 4.43117 8.89004 4.43884C8.5804 4.43517 8.27533 4.51084 8.00336 4.65883C7.90037 4.71852 7.77304 4.71852 7.67004 4.65883C7.31768 4.44417 6.90136 4.36049 6.49339 4.42216C6.08538 4.50452 5.72637 4.74419 5.49336 5.08883C5.41603 5.19183 5.28634 5.2412 5.16 5.21549C5.06403 5.19249 4.96505 5.18485 4.86668 5.19219C4.62603 5.21151 4.39538 5.29684 4.20005 5.43885C4.00203 5.5785 3.84902 5.77317 3.76003 5.99884C3.72136 6.10584 3.70103 6.2185 3.70004 6.33218C3.69904 6.47051 3.61302 6.59385 3.48333 6.64215C3.30605 6.70419 3.15304 6.82084 3.0467 6.97552C2.95437 7.11451 2.90903 7.27885 2.91668 7.4455C2.92135 7.61718 2.97336 7.78448 3.06669 7.92883C3.16936 8.08149 3.31733 8.19818 3.49002 8.26217C3.58934 8.2975 3.66604 8.37784 3.69669 8.47881C3.71503 8.54019 3.73969 8.59917 3.77001 8.65552C3.86503 8.82683 4.01534 8.96083 4.1967 9.0355C4.38634 9.11216 4.59533 9.12615 4.79334 9.0755C4.84003 9.06584 4.88567 9.05218 4.93004 9.0355C5.014 8.99951 5.10936 8.99951 5.19338 9.0355C5.27638 9.0755 5.33905 9.14786 5.3667 9.2355C5.44036 9.47286 5.59334 9.67749 5.80003 9.81552C5.97933 9.93618 6.18302 10.0158 6.39669 10.0488C6.61702 10.0892 6.84299 10.0892 7.06335 10.0488C7.32168 9.99748 7.56333 9.88284 7.76667 9.7155C7.82603 9.66617 7.88069 9.61152 7.93002 9.5522C7.96766 9.50552 8.01705 9.46985 8.07336 9.44884C8.19172 9.40649 8.31306 9.37416 8.43667 9.35219C8.73437 9.29349 9.04268 9.33218 9.31667 9.46217C9.5897 9.59983 9.80471 9.83017 9.92336 10.1122C9.9467 10.1722 9.99339 10.3122 10.0334 10.4455C10.3197 10.4448 10.6054 10.4705 10.8867 10.5221C11.085 10.5502 11.2737 10.6255 11.4367 10.7422C11.766 11.0069 11.8474 11.4752 11.6267 11.8355C11.4377 12.1545 11.0907 12.3462 10.72 12.3355ZM10.1667 11.1555C10.1867 11.2215 10.2137 11.2852 10.2467 11.3455C10.3297 11.5195 10.4907 11.6432 10.68 11.6788C10.8084 11.6912 10.934 11.6372 11.0134 11.5355C11.0544 11.4632 11.0407 11.3725 10.98 11.3155C10.8993 11.2685 10.8097 11.2388 10.7167 11.2289C10.535 11.1965 10.351 11.1765 10.1667 11.1688V11.1555Z" fill="#C836BF"/>
</svg>
