<svg width="100%" height="100%" viewBox="0 0 20 20" fill="none" xmlns="http://www.w3.org/2000/svg">
<path d="M0 10C0 4.47715 4.47715 0 10 0C15.5228 0 20 4.47715 20 10C20 15.5228 15.5228 20 10 20C4.47715 20 0 15.5228 0 10Z" fill="white"/>
<path fill-rule="evenodd" clip-rule="evenodd" d="M10 20C4.47708 20 0 15.5228 0 10C0 4.4772 4.47708 0 10 0C15.5229 0 20 4.4772 20 10C20 15.5228 15.5229 20 10 20ZM10 0.833368C4.93752 0.833368 0.833339 4.93738 0.833339 10C0.833339 15.0626 4.93752 19.1666 10 19.1666C15.0625 19.1666 19.1666 15.0626 19.1666 10C19.1666 4.93738 15.0625 0.833368 10 0.833368Z" fill="#1E1E1E"/>
<path fill-rule="evenodd" clip-rule="evenodd" d="M10.0941 8.48925C9.65744 8.48925 9.2289 8.37291 8.85177 8.15277C7.66166 7.46321 7.25496 5.93775 7.94331 4.74546C8.63161 3.55325 10.1543 3.14582 11.3445 3.83538C12.5325 4.52536 12.9396 6.04799 12.2549 7.24066C11.9251 7.81387 11.38 8.2314 10.7415 8.40006C10.5306 8.45964 10.3129 8.48964 10.0941 8.48925ZM10.0941 4.30968C9.16656 4.30765 8.41307 5.05924 8.4111 5.98841C8.40905 6.91754 9.15928 7.67236 10.0867 7.6744C10.234 7.67482 10.3805 7.65577 10.523 7.61766C10.9543 7.50535 11.3221 7.22322 11.5427 6.83527C12.0073 6.03139 11.7337 5.00251 10.9317 4.53669C10.6771 4.38835 10.3882 4.3101 10.0941 4.30968Z" fill="#1E1E1E"/>
<path fill-rule="evenodd" clip-rule="evenodd" d="M14.2661 15.7578C14.0476 15.7574 13.8299 15.729 13.6187 15.6727C12.2954 15.3164 11.5113 13.9534 11.8669 12.6278C12.2222 11.3026 13.5831 10.5166 14.9063 10.8729C16.2292 11.2292 17.0134 12.5921 16.6581 13.9178C16.3671 15.0018 15.3866 15.7562 14.2661 15.7578ZM14.2661 11.5823C13.341 11.5799 12.5888 12.3294 12.5868 13.2566C12.586 13.5541 12.6641 13.8464 12.8134 14.1038C13.2739 14.9077 14.2977 15.1858 15.1001 14.7245C15.1025 14.7228 15.1054 14.7216 15.1078 14.72C15.4951 14.4991 15.7767 14.1306 15.8888 13.6984C16.1304 12.8038 15.6019 11.8823 14.7084 11.6403C14.5656 11.6018 14.4183 11.5823 14.2702 11.5823H14.2661Z" fill="#1E1E1E"/>
<path fill-rule="evenodd" clip-rule="evenodd" d="M13.2224 11.8545C13.0772 11.8549 12.9429 11.7779 12.8704 11.6518L10.7864 8.0357C10.6828 7.83746 10.7593 7.5922 10.9576 7.48842C11.1437 7.39112 11.3736 7.45235 11.4865 7.63031L13.5705 11.2464C13.6834 11.4398 13.6186 11.6879 13.426 11.801C13.4256 11.8014 13.4252 11.8014 13.4248 11.8018C13.3633 11.8366 13.2932 11.8549 13.2224 11.8545Z" fill="#1E1E1E"/>
<path fill-rule="evenodd" clip-rule="evenodd" d="M5.92615 16C4.55156 16 3.4375 14.884 3.4375 13.5068C3.4375 12.1298 4.55156 11.0137 5.92615 11.0137C7.30074 11.0137 8.41477 12.1298 8.41477 13.5068C8.41277 14.8827 7.29954 15.998 5.92615 16ZM5.92615 11.8245C4.99871 11.8245 4.24682 12.5777 4.24682 13.5068C4.24682 14.436 4.99871 15.1892 5.92615 15.1892C6.85364 15.1892 7.60545 14.436 7.60545 13.5068C7.60344 12.5785 6.85284 11.8269 5.92615 11.8245Z" fill="#1E1E1E"/>
<path fill-rule="evenodd" clip-rule="evenodd" d="M12.1781 13.9111H8.01008C7.78673 13.9111 7.60547 13.7295 7.60547 13.5057C7.60547 13.2819 7.78673 13.1003 8.01008 13.1003H12.1781C12.4015 13.1003 12.5827 13.2819 12.5827 13.5057C12.5827 13.7295 12.4015 13.9111 12.1781 13.9111Z" fill="#1E1E1E"/>
<path fill-rule="evenodd" clip-rule="evenodd" d="M6.79625 11.8513C6.69343 11.8496 6.59513 11.8091 6.5211 11.7377C6.36406 11.5797 6.36406 11.3243 6.5211 11.1661C7.25799 10.359 7.45141 9.19313 7.0148 8.19059C6.92215 7.9867 7.01154 7.74629 7.21507 7.65345C7.41865 7.56061 7.65859 7.65022 7.75123 7.85411C8.32101 9.15706 8.06853 10.674 7.10784 11.7216C7.02774 11.8083 6.91397 11.8557 6.79625 11.8513Z" fill="#1E1E1E"/>
</svg>
