<svg width="100%" height="100%" viewBox="0 0 41 40" fill="none" xmlns="http://www.w3.org/2000/svg">
<g clip-path="url(#trash_can)">
<circle cx="20.5" cy="20" r="19.5" fill="white" stroke="#ECECEC"/>
<path fill-rule="evenodd" clip-rule="evenodd" d="M26.9046 33.5H14.5121C12.9694 33.5058 11.657 32.3722 11.4384 30.8439L8.51109 11.7143C8.43006 11.1753 8.80193 10.6722 9.34049 10.5913C9.87915 10.5102 10.3817 10.8823 10.4626 11.4212L13.39 30.5509C13.4818 31.1154 13.9697 31.5304 14.5415 31.5274H26.9046C27.4735 31.5216 27.9575 31.1114 28.0561 30.5509L30.1248 16.4991C30.2058 15.96 30.7083 15.5881 31.2469 15.6691C31.7855 15.7501 32.1573 16.2529 32.0764 16.792L29.9881 30.883C29.7324 32.3888 28.4317 33.4932 26.9046 33.5Z" fill="#757B7B"/>
<path fill-rule="evenodd" clip-rule="evenodd" d="M20.6888 15.9922C14.8341 15.9922 8.53052 14.6055 8.53052 11.5686C8.53052 10.2503 9.67229 8.94183 11.458 8.24844C11.9595 8.04926 12.5273 8.29341 12.7264 8.79538C12.9255 9.29724 12.6816 9.86559 12.18 10.0648C10.9212 10.5627 10.5016 11.3049 10.5016 11.5686C10.5016 12.2815 14.0828 14.0391 20.7084 14.0391C27.3339 14.0391 30.9249 12.2815 30.9249 11.5686C30.9249 10.8558 27.8512 9.35201 25.4701 8.89298C22.3379 8.28749 18.025 8.0044 15.283 10.1038C14.8547 10.4329 14.2409 10.3519 13.912 9.92317C13.5831 9.49448 13.6642 8.88028 14.0925 8.55123C16.7272 6.5396 20.7865 5.99276 25.802 6.97916C25.8702 6.97916 32.8374 8.37552 32.8374 11.5686C32.8569 14.6055 26.5533 15.9922 20.6888 15.9922Z" fill="#757B7B"/>
</g>
<defs>
<clipPath id="trash_can">
<rect width="40" height="40" fill="white" transform="translate(0.5)"/>
</clipPath>
</defs>
</svg>
