<svg width="100%" height="100%" viewBox="0 0 14 19" fill="none" xmlns="http://www.w3.org/2000/svg">
<path fill-rule="evenodd" clip-rule="evenodd" d="M11.6049 18.1675C11.2829 18.1675 11.0215 17.9061 11.0215 17.5841V5.97577H2.95986V17.0008H9.3182C9.64017 17.0008 9.90154 17.2621 9.90154 17.5841C9.90154 17.9061 9.64017 18.1675 9.3182 18.1675H2.37652C2.05455 18.1675 1.79321 17.9061 1.79321 17.5841V5.39245C1.79321 5.07042 2.05455 4.80913 2.37652 4.80913H11.6049C11.9269 4.80913 12.1882 5.07042 12.1882 5.39245V17.5841C12.1882 17.9061 11.9269 18.1675 11.6049 18.1675Z" />
<path fill-rule="evenodd" clip-rule="evenodd" d="M9.31498 4.2832C8.99301 4.2832 8.73167 4.02192 8.73167 3.69988V2.08407H5.23162V3.69988C5.23162 4.02192 4.97032 4.2832 4.64828 4.2832C4.32625 4.2832 4.06494 4.02192 4.06494 3.69988V1.50075C4.06494 1.17872 4.32625 0.917431 4.64828 0.917431H9.31498C9.63701 0.917431 9.89836 1.17872 9.89836 1.50075V3.69988C9.89836 4.02192 9.63701 4.2832 9.31498 4.2832Z" />
<path fill-rule="evenodd" clip-rule="evenodd" d="M13.1662 4.2832H0.811087C0.489116 4.2832 0.227783 4.02186 0.227783 3.69982C0.227783 3.37779 0.489116 3.1165 0.811087 3.1165H13.1662C13.4881 3.1165 13.7494 3.37779 13.7494 3.69982C13.7494 4.02186 13.4881 4.2832 13.1662 4.2832Z" />
<path fill-rule="evenodd" clip-rule="evenodd" d="M9.30811 15.0928C8.98614 15.0928 8.72485 14.8314 8.72485 14.5095V8.33773C8.72485 8.0157 8.98614 7.75435 9.30811 7.75435C9.6302 7.75435 9.89152 8.0157 9.89152 8.33773V14.5095C9.89152 14.8314 9.6302 15.0928 9.30811 15.0928Z" />
<path fill-rule="evenodd" clip-rule="evenodd" d="M6.90194 15.0928C6.57991 15.0928 6.3186 14.8314 6.3186 14.5095V8.33773C6.3186 8.0157 6.57991 7.75435 6.90194 7.75435C7.22397 7.75435 7.48527 8.0157 7.48527 8.33773V14.5095C7.48527 14.8314 7.22397 15.0928 6.90194 15.0928Z" />
<path fill-rule="evenodd" clip-rule="evenodd" d="M4.65755 15.0928C4.33559 15.0928 4.07422 14.8314 4.07422 14.5095V8.33773C4.07422 8.0157 4.33559 7.75435 4.65755 7.75435C4.97958 7.75435 5.24097 8.0157 5.24097 8.33773V14.5095C5.24097 14.8314 4.97958 15.0928 4.65755 15.0928Z" />
</svg>
