<svg width="100%" height="100%" viewBox="0 0 40 40" fill="none" xmlns="http://www.w3.org/2000/svg">
<circle cx="20" cy="20" r="19.5" fill="white" stroke="#D72B25"/>
<path fill-rule="evenodd" clip-rule="evenodd" d="M26.9778 33.5C26.4831 33.5 26.0816 33.0985 26.0816 32.6038V14.7708H13.697V31.7077H23.4649C23.9595 31.7077 24.361 32.1092 24.361 32.6038C24.361 33.0985 23.9595 33.5 23.4649 33.5H12.8009C12.3063 33.5 11.9048 33.0985 11.9048 32.6038V13.8747C11.9048 13.3799 12.3063 12.9785 12.8009 12.9785H26.9778C27.4724 12.9785 27.8739 13.3799 27.8739 13.8747V32.6038C27.8739 33.0985 27.4724 33.5 26.9778 33.5Z" fill="#D72B25"/>
<path fill-rule="evenodd" clip-rule="evenodd" d="M23.46 12.1707C22.9654 12.1707 22.5639 11.7693 22.5639 11.2745V8.79229H17.1871V11.2745C17.1871 11.7693 16.7856 12.1707 16.2909 12.1707C15.7962 12.1707 15.3948 11.7693 15.3948 11.2745V7.89617C15.3948 7.40146 15.7962 7.00006 16.2909 7.00006H23.46C23.9547 7.00006 24.3562 7.40146 24.3562 7.89617V11.2745C24.3562 11.7693 23.9547 12.1707 23.46 12.1707Z" fill="#D72B25"/>
<path fill-rule="evenodd" clip-rule="evenodd" d="M29.3763 12.1707H10.3961C9.90147 12.1707 9.5 11.7692 9.5 11.2744C9.5 10.7797 9.90147 10.3783 10.3961 10.3783H29.3763C29.8709 10.3783 30.2723 10.7797 30.2723 11.2744C30.2723 11.7692 29.8709 12.1707 29.3763 12.1707Z" fill="#D72B25"/>
<path fill-rule="evenodd" clip-rule="evenodd" d="M23.4495 28.7764C22.9549 28.7764 22.5535 28.3749 22.5535 27.8803V18.3991C22.5535 17.9044 22.9549 17.5029 23.4495 17.5029C23.9443 17.5029 24.3457 17.9044 24.3457 18.3991V27.8803C24.3457 28.3749 23.9443 28.7764 23.4495 28.7764Z" fill="#D72B25"/>
<path fill-rule="evenodd" clip-rule="evenodd" d="M19.7531 28.7764C19.2584 28.7764 18.8569 28.3749 18.8569 27.8803V18.3991C18.8569 17.9044 19.2584 17.5029 19.7531 17.5029C20.2478 17.5029 20.6492 17.9044 20.6492 18.3991V27.8803C20.6492 28.3749 20.2478 28.7764 19.7531 28.7764Z" fill="#D72B25"/>
<path fill-rule="evenodd" clip-rule="evenodd" d="M16.3053 28.7764C15.8107 28.7764 15.4092 28.3749 15.4092 27.8803V18.3991C15.4092 17.9044 15.8107 17.5029 16.3053 17.5029C16.8 17.5029 17.2016 17.9044 17.2016 18.3991V27.8803C17.2016 28.3749 16.8 28.7764 16.3053 28.7764Z" fill="#D72B25"/>
</svg>
