<svg width="100%" height="100%" viewBox="0 0 20 20" fill="none" xmlns="http://www.w3.org/2000/svg">
<path fill-rule="evenodd" clip-rule="evenodd" d="M10 20C4.47716 20 0 15.5229 0 9.99998C0 4.47709 4.47716 7.62939e-06 10 7.62939e-06C15.5228 7.62939e-06 20 4.47709 20 9.99998C20 15.5229 15.5228 20 10 20ZM10 0.833364C4.93737 0.833364 0.833338 4.9375 0.833338 9.99998C0.833338 15.0625 4.93737 19.1667 10 19.1667C15.0626 19.1667 19.1667 15.0625 19.1667 9.99998C19.1667 4.9375 15.0626 0.833364 10 0.833364Z" fill="#1E1E1E"/>
<path fill-rule="evenodd" clip-rule="evenodd" d="M10.4354 14.6416C9.71876 14.6408 9.00274 14.5961 8.29136 14.5085L8.13702 14.4871C7.59242 14.4185 6.85053 14.3283 6.46888 13.7404C6.08722 13.1525 7.64812 7.01598 8.77596 4.95186C9.20476 4.13224 9.63355 3.75031 10.1053 3.75031C11.7777 3.75031 14.5564 5.60414 15.4912 6.8143C15.7506 7.05632 15.8338 7.43352 15.7014 7.76264C15.3711 8.54793 13.8703 8.6209 13.8531 8.6209C13.4668 8.63896 13.0795 8.62477 12.6953 8.57801C13.1186 10.0435 13.4406 11.5359 13.6601 13.0452C13.7232 13.3546 13.6301 13.6756 13.4114 13.9035C12.9012 14.5043 11.5976 14.6416 10.4354 14.6416ZM7.24509 13.3284C7.54442 13.5259 7.8942 13.6332 8.25278 13.6374L8.42433 13.6589C9.71072 13.8305 12.3094 13.8777 12.794 13.3499C12.8338 13.3126 12.8489 13.256 12.8326 13.204C12.592 11.5871 12.2352 9.98942 11.7648 8.42352C11.3831 8.342 11.0058 8.24326 10.6199 8.14027C10.3934 8.07076 10.2661 7.83092 10.3355 7.60433C10.4016 7.38846 10.6233 7.26102 10.8428 7.31204C11.2717 7.4322 11.7348 7.5438 12.1721 7.62962C12.7103 7.74335 13.2605 7.78927 13.8102 7.76695C14.1932 7.75366 14.5667 7.64291 14.8952 7.44511C14.8754 7.41504 14.854 7.38628 14.8309 7.35928C14.0204 6.30791 11.4475 4.60425 10.1138 4.60425C9.92947 4.65149 9.22192 5.46256 8.26133 8.71958C7.78397 10.222 7.44384 11.7647 7.24509 13.3284Z" fill="#1E1E1E"/>
<path fill-rule="evenodd" clip-rule="evenodd" d="M10.0022 15.9883C6.89756 15.9883 3.75 15.2245 3.75 13.7654C3.75 13.3062 4.07164 12.6497 5.5939 12.1433C5.82599 12.0687 6.07462 12.1965 6.14924 12.4287C6.22386 12.6608 6.09614 12.9097 5.8641 12.9844C4.87354 13.3148 4.60764 13.6581 4.60764 13.7911C4.60764 14.2546 6.5116 15.1558 10.0022 15.1558C13.4927 15.1558 15.3924 14.2546 15.3924 13.7911C15.3924 13.5852 14.8135 13.0487 13.0339 12.7012C12.8019 12.6557 12.6505 12.4312 12.6951 12.1991C12.7406 11.9669 12.9648 11.8155 13.1968 11.8601C15.1651 12.242 16.25 12.9286 16.25 13.7911C16.25 15.2373 13.1068 15.9883 10.0022 15.9883Z" fill="#1E1E1E"/>
</svg>
