<svg width="" height="100%" viewBox="0 0 36 36" fill="none" xmlns="http://www.w3.org/2000/svg">
<path fill-rule="evenodd" clip-rule="evenodd" d="M18 36C27.9411 36 36 27.9411 36 18C36 8.05887 27.9411 0 18 0C8.05887 0 0 8.05887 0 18C0 27.9411 8.05887 36 18 36ZM18 33.9429C26.805 33.9429 33.9429 26.805 33.9429 18C33.9429 9.195 26.805 2.05714 18 2.05714C9.195 2.05714 2.05714 9.195 2.05714 18C2.05714 26.805 9.195 33.9429 18 33.9429Z" fill="#B6CFFF"/>
<path fill-rule="evenodd" clip-rule="evenodd" d="M8.42643 28.1758H8.36942C7.99852 28.1459 7.71295 27.8349 7.71436 27.4626C7.76422 23.5825 11.8865 22.9977 15.1045 22.6553C13.0541 21.4855 12.3492 19.2103 11.8081 16.9493C11.025 13.7184 11.3596 11.1792 12.7836 9.45306C15.2335 6.6859 19.4589 6.43222 22.2213 8.88658C22.4207 9.06395 22.6093 9.25317 22.7866 9.45306C24.2105 11.1934 24.5095 13.7326 23.7264 16.9565C23.0998 19.5598 22.0817 21.407 20.6507 22.534L21.1633 22.5768L21.8752 22.6481C23.5769 22.8193 28.0978 23.2829 28.2829 27.27C28.31 27.5717 28.1448 27.8569 27.87 27.9832C27.514 28.1451 27.0946 27.9889 26.9302 27.6337C26.8854 27.5324 26.8612 27.4233 26.859 27.3128C26.8021 25.3799 25.2713 24.3885 21.7542 24.0319L21.0423 23.9676C20.131 23.8749 19.2126 23.7892 18.287 23.6252C17.4105 23.8093 16.5234 23.9398 15.6314 24.0176C12.1642 24.3813 9.46588 24.8449 9.15967 27.0702C9.16682 27.1437 9.16682 27.2179 9.15967 27.2913L9.11702 27.5623C9.06787 27.9091 8.77589 28.1686 8.42643 28.1758ZM17.7246 8.62575C16.2494 8.62379 14.8433 9.25151 13.8586 10.3517C12.748 11.7283 12.5202 13.8396 13.1894 16.6212C13.7162 18.8037 14.3499 20.8365 16.2436 21.6139C16.8717 21.8693 17.5223 22.0625 18.1873 22.1916C20.1951 21.5996 21.5478 19.7737 22.3096 16.6141C22.9788 13.8324 22.751 11.7213 21.6403 10.3447C20.6493 9.2497 19.2425 8.62528 17.7673 8.62575H17.7246Z" fill="#4F4F4F"/>
</svg>
