<svg width="100%" height="100%" viewBox="0 0 20 20" fill="none" xmlns="http://www.w3.org/2000/svg">
<path d="M0 10C0 4.47715 4.47715 0 10 0C15.5228 0 20 4.47715 20 10C20 15.5228 15.5228 20 10 20C4.47715 20 0 15.5228 0 10Z" fill="white"/>
<path fill-rule="evenodd" clip-rule="evenodd" d="M10 20C4.47708 20 0 15.5228 0 10C0 4.4772 4.47708 0 10 0C15.5229 0 20 4.4772 20 10C20 15.5228 15.5229 20 10 20ZM10 0.833368C4.93752 0.833368 0.833339 4.93738 0.833339 10C0.833339 15.0626 4.93752 19.1666 10 19.1666C15.0625 19.1666 19.1666 15.0626 19.1666 10C19.1666 4.93738 15.0625 0.833368 10 0.833368Z" fill="#1E1E1E"/>
<path fill-rule="evenodd" clip-rule="evenodd" d="M4.18268 16.4961H4.14804C3.92267 16.4779 3.74914 16.289 3.75 16.0627C3.7803 13.705 6.28514 13.3497 8.24057 13.1416C6.99466 12.4308 6.56634 11.0483 6.23753 9.67446C5.76169 7.71121 5.96502 6.16831 6.83026 5.11944C8.31891 3.43801 10.8864 3.28386 12.565 4.77523C12.6861 4.883 12.8007 4.99798 12.9085 5.11944C13.7737 6.17695 13.9554 7.71984 13.4795 9.6788C13.0988 11.2607 12.4802 12.3831 11.6106 13.068L11.9221 13.094L12.3547 13.1373C13.3887 13.2413 16.1358 13.523 16.2482 15.9457C16.2647 16.129 16.1643 16.3023 15.9973 16.3791C15.781 16.4774 15.5262 16.3825 15.4263 16.1667C15.3991 16.1052 15.3843 16.0389 15.383 15.9717C15.3485 14.7972 14.4183 14.1948 12.2812 13.9781L11.8486 13.9391C11.2948 13.8827 10.7368 13.8307 10.1743 13.731C9.64177 13.8428 9.10275 13.9221 8.56068 13.9694C6.45388 14.1904 4.81429 14.4721 4.62823 15.8243C4.63257 15.869 4.63257 15.9141 4.62823 15.9587L4.60231 16.1233C4.57245 16.334 4.39503 16.4918 4.18268 16.4961ZM9.8326 4.61673C8.9362 4.61554 8.0818 4.99697 7.48349 5.66551C6.80865 6.50198 6.67019 7.78487 7.07686 9.47508C7.39698 10.8013 7.78199 12.0365 8.93272 12.5089C9.31434 12.664 9.7097 12.7814 10.1138 12.8599C11.3338 12.5002 12.1557 11.3907 12.6186 9.47074C13.0253 7.78053 12.8868 6.49769 12.212 5.66121C11.6098 4.99587 10.7549 4.61645 9.85854 4.61673H9.8326Z" fill="#1E1E1E"/>
</svg>
