<svg width="100%" height="100%" viewBox="0 0 50 50" fill="none" xmlns="http://www.w3.org/2000/svg">
<path d="M0 16C0 7.16344 7.16344 0 16 0H34C42.8366 0 50 7.16344 50 16V34C50 42.8366 42.8366 50 34 50H16C7.16344 50 0 42.8366 0 34V16Z" fill="white"/>
<path fill-rule="evenodd" clip-rule="evenodd" d="M25.0001 50C11.1927 50 0 38.807 0 25C0 11.193 11.1927 0 25.0001 0C38.8073 0 50 11.193 50 25C50 38.807 38.8073 50 25.0001 50ZM25.0001 2.08342C12.3438 2.08342 2.08335 12.3435 2.08335 25C2.08335 37.6565 12.3438 47.9166 25.0001 47.9166C37.6563 47.9166 47.9166 37.6565 47.9166 25C47.9166 12.3435 37.6563 2.08342 25.0001 2.08342Z" fill="#00A3E0"/>
<path fill-rule="evenodd" clip-rule="evenodd" d="M10.4567 41.2422H10.3701C9.80667 41.1967 9.37286 40.7243 9.37501 40.1587C9.45075 34.2645 15.7128 33.3761 20.6014 32.856C17.4866 31.079 16.4158 27.6228 15.5938 24.1881C14.4042 19.28 14.9126 15.4227 17.0757 12.8006C20.7973 8.59697 27.2161 8.21161 31.4124 11.94C31.7153 12.2095 32.0018 12.4969 32.2712 12.8006C34.4343 15.4443 34.8884 19.3016 33.6988 24.1989C32.747 28.1536 31.2004 30.9598 29.0266 32.6718L29.8053 32.7368L30.8868 32.8452C33.4717 33.1052 40.3395 33.8095 40.6206 39.8662C40.6618 40.3245 40.4108 40.7578 39.9933 40.9496C39.4526 41.1956 38.8155 40.9583 38.5658 40.4187C38.4977 40.2649 38.4608 40.0991 38.4575 39.9312C38.3712 36.995 36.0457 35.4889 30.703 34.9472L29.6214 34.8496C28.237 34.7087 26.8419 34.5786 25.4358 34.3295C24.1044 34.609 22.7569 34.8073 21.4017 34.9255C16.1347 35.4781 12.0357 36.1822 11.5706 39.5627C11.5814 39.6744 11.5814 39.7871 11.5706 39.8986L11.5058 40.3103C11.4311 40.837 10.9876 41.2313 10.4567 41.2422ZM24.5815 11.5438C22.3405 11.5408 20.2045 12.4944 18.7087 14.1657C17.0216 16.2569 16.6755 19.4641 17.6921 23.6897C18.4924 27.0052 19.455 30.0931 22.3318 31.2741C23.2859 31.662 24.2742 31.9555 25.2845 32.1517C28.3345 31.2524 30.3893 28.4786 31.5466 23.6788C32.5632 19.4533 32.2171 16.2462 30.5299 14.155C29.0245 12.4916 26.8873 11.5431 24.6464 11.5438H24.5815Z" fill="#00A3E0"/>
</svg>
