<svg width="100%" height="100%" viewBox="0 0 32 32" fill="none" xmlns="http://www.w3.org/2000/svg">
<path d="M0 16C0 7.16344 7.16344 0 16 0C24.8366 0 32 7.16344 32 16C32 24.8366 24.8366 32 16 32C7.16344 32 0 24.8366 0 16Z" fill="white"/>
<path d="M31.75 15.9712C31.75 24.6534 24.6989 31.6924 16 31.6924C7.30109 31.6924 0.25 24.6534 0.25 15.9712C0.25 7.28904 7.30109 0.25 16 0.25C24.6989 0.25 31.75 7.28904 31.75 15.9712Z" stroke="#1E1E1E" stroke-width="0.5"/>
<path fill-rule="evenodd" clip-rule="evenodd" d="M16.0453 19.0625C12.0474 19.0625 8 17.9992 8 15.9714C8 15.6301 8.27728 15.3532 8.61884 15.3532C8.96047 15.3532 9.23776 15.6301 9.23776 15.9714C9.23776 16.5897 11.639 17.8261 16.0453 17.8261C20.4516 17.8261 22.8528 16.5897 22.8528 15.9714C22.8528 15.6301 23.13 15.3532 23.4717 15.3532C23.8132 15.3532 24.0905 15.6301 24.0905 15.9714C24.0905 17.9992 20.0432 19.0625 16.0453 19.0625Z" fill="#1E1E1E"/>
<path fill-rule="evenodd" clip-rule="evenodd" d="M16.0453 12.5703C12.0474 12.5703 8 11.507 8 9.47931C8 7.45154 12.0474 6.38822 16.0453 6.38822C17.1939 6.38141 18.3407 6.47229 19.4738 6.66023C19.8153 6.7165 20.0468 7.03919 19.9905 7.38048C19.9342 7.7217 19.6112 7.95291 19.2696 7.89664C18.2044 7.71489 17.1258 7.62401 16.0453 7.62463C11.639 7.62463 9.23776 8.86111 9.23776 9.47931C9.23776 10.0974 11.639 11.3339 16.0453 11.3339C20.4516 11.3339 22.8528 10.0974 22.8528 9.47931C22.8528 9.27528 22.4753 8.76833 21.0519 8.29849C20.7313 8.18037 20.5667 7.82491 20.6849 7.50474C20.7969 7.20119 21.1243 7.0349 21.4356 7.12393C23.6326 7.84105 24.0905 8.79925 24.0905 9.47931C24.0905 11.507 20.0432 12.5703 16.0453 12.5703Z" fill="#1E1E1E"/>
<path fill-rule="evenodd" clip-rule="evenodd" d="M8.61892 23.0801C8.27729 23.0801 8 22.8031 8 22.4619V9.47956C8 9.13827 8.27729 8.86136 8.61892 8.86136C8.96048 8.86136 9.23776 9.13827 9.23776 9.47956V22.4619C9.23776 22.8031 8.96048 23.0801 8.61892 23.0801Z" fill="#1E1E1E"/>
<path fill-rule="evenodd" clip-rule="evenodd" d="M23.4717 23.0801C23.1301 23.0801 22.8528 22.8031 22.8528 22.4619V9.47956C22.8528 9.13827 23.1301 8.86136 23.4717 8.86136C23.8133 8.86136 24.0906 9.13827 24.0906 9.47956V22.4619C24.0906 22.8031 23.8133 23.0801 23.4717 23.0801Z" fill="#1E1E1E"/>
<path fill-rule="evenodd" clip-rule="evenodd" d="M16.0454 25.5543C14.8967 25.5611 13.75 25.4702 12.6169 25.2823C12.2752 25.2261 12.0438 24.9033 12.1001 24.562C12.1564 24.2208 12.4795 23.9896 12.8211 24.0459C13.8861 24.2276 14.9649 24.3185 16.0454 24.3179C20.4517 24.3179 22.8529 23.0815 22.8529 22.4632C22.8529 22.122 23.1302 21.845 23.4717 21.845C23.8134 21.845 24.0907 22.122 24.0907 22.4632C24.0907 24.491 20.0432 25.5543 16.0454 25.5543Z" fill="#1E1E1E"/>
<ellipse cx="10.4" cy="21.5606" rx="5.6" ry="5.58992" fill="white"/>
<path fill-rule="evenodd" clip-rule="evenodd" d="M10.3595 26.127C10.191 26.127 10.0542 25.9903 10.0542 25.8216C10.0542 25.653 10.191 25.5163 10.3595 25.5163C12.5178 25.5163 14.2676 23.7666 14.2676 21.6082C14.2676 19.4498 12.5178 17.7001 10.3595 17.7001C10.191 17.7001 10.0542 17.5634 10.0542 17.3948C10.0542 17.2262 10.191 17.0895 10.3595 17.0895C12.8552 17.0895 14.8783 19.1125 14.8783 21.6082C14.8783 24.1038 12.8552 26.127 10.3595 26.127Z" fill="#1E1E1E"/>
<path fill-rule="evenodd" clip-rule="evenodd" d="M6.22537 25.8105H6.16123C5.99732 25.7754 5.89227 25.6146 5.92615 25.4503L6.33528 23.4748C6.36154 23.3513 6.46107 23.2566 6.58565 23.2367C6.6241 23.2293 6.66349 23.2293 6.70168 23.2367L8.67097 23.6458C8.83949 23.6804 8.94817 23.8451 8.9137 24.0137C8.87918 24.1823 8.71429 24.291 8.54577 24.2565L6.87262 23.9084L6.52457 25.5754C6.49191 25.714 6.36763 25.8115 6.22537 25.8105Z" fill="#1E1E1E"/>
<path fill-rule="evenodd" clip-rule="evenodd" d="M10.3781 26.1269C8.68598 26.1328 7.13376 25.1892 6.36007 23.6844C6.29809 23.5275 6.37502 23.3502 6.53196 23.2883C6.66722 23.2349 6.82141 23.2844 6.9005 23.4065C7.88944 25.325 10.2465 26.0785 12.1648 25.0895C13.3705 24.468 14.1677 23.2659 14.2709 21.9135C14.284 21.7459 14.43 21.6204 14.5976 21.6326C14.7658 21.6455 14.8916 21.7923 14.8788 21.9604C14.8785 21.9611 14.8785 21.9617 14.8785 21.9624C14.6852 24.3076 12.7312 26.1159 10.3781 26.1269Z" fill="#1E1E1E"/>
<path fill-rule="evenodd" clip-rule="evenodd" d="M6.63769 19.9876H6.59801C6.43131 19.9669 6.3125 19.8154 6.33237 19.6486C6.35314 19.4819 6.5046 19.3632 6.67127 19.383C6.83983 19.3923 6.96899 19.5365 6.95983 19.7051C6.95067 19.8738 6.80622 20.0029 6.63769 19.9937V19.9876Z" fill="#1E1E1E"/>
<path fill-rule="evenodd" clip-rule="evenodd" d="M14.5729 21.5781C14.4133 21.5786 14.2804 21.4562 14.2677 21.2972C14.0945 19.1458 12.2101 17.5421 10.0585 17.7154C8.71144 17.8238 7.51578 18.6207 6.89722 19.8225C6.80563 19.9641 6.61664 20.0047 6.47496 19.9132C6.35283 19.8342 6.30341 19.68 6.35681 19.5447C7.49595 17.3261 10.2179 16.4512 12.4366 17.5904C13.8283 18.3049 14.751 19.6889 14.8752 21.2484C14.8893 21.4164 14.7644 21.564 14.5961 21.5779C14.5956 21.578 14.5949 21.578 14.5943 21.5781H14.5729Z" fill="#1E1E1E"/>
<path fill-rule="evenodd" clip-rule="evenodd" d="M10.3597 21.9121C10.2785 21.9126 10.2007 21.8807 10.1429 21.8236L7.19966 18.8802C7.07993 18.7605 7.07993 18.5664 7.19966 18.4467C7.31933 18.327 7.51351 18.327 7.6332 18.4467L10.5765 21.39C10.6962 21.5087 10.6971 21.7021 10.5783 21.8218C10.5777 21.8224 10.5771 21.823 10.5765 21.8236C10.5188 21.8807 10.4409 21.9126 10.3597 21.9121Z" fill="#1E1E1E"/>
<path fill-rule="evenodd" clip-rule="evenodd" d="M10.3592 21.9121C10.278 21.9125 10.2002 21.8807 10.1425 21.8235C10.0228 21.7048 10.0219 21.5115 10.1407 21.3917C10.1413 21.3911 10.1419 21.3905 10.1425 21.39L11.6111 19.9244C11.7207 19.7964 11.9136 19.7814 12.0416 19.8911C12.1695 20.0008 12.1845 20.1935 12.0749 20.3216C12.0648 20.3336 12.0535 20.3447 12.0416 20.3549L10.576 21.8235C10.5183 21.8807 10.4404 21.9125 10.3592 21.9121Z" fill="#1E1E1E"/>
</svg>
