<svg width="44" height="45" viewBox="0 0 44 45" fill="none" xmlns="http://www.w3.org/2000/svg">
<path fill-rule="evenodd" clip-rule="evenodd" d="M21.9008 44.1611C9.88089 44.1611 0.136719 34.41 0.136719 22.3811C0.136719 10.3522 9.88089 0.601135 21.9008 0.601135C33.9208 0.601135 43.665 10.3522 43.665 22.3811C43.665 34.41 33.9208 44.1611 21.9008 44.1611ZM21.9008 2.41614C10.8825 2.41614 1.95042 11.355 1.95042 22.3811C1.95042 33.4072 10.8825 42.3461 21.9008 42.3461C32.9192 42.3461 41.8513 33.4072 41.8513 22.3811C41.8513 11.355 32.9192 2.41614 21.9008 2.41614Z" fill="black"/>
<path fill-rule="evenodd" clip-rule="evenodd" d="M25.9543 31.2109H9.87609C9.37522 31.2109 8.96924 30.8044 8.96924 30.3034V16.6093C8.96924 16.1083 9.37522 15.7018 9.87609 15.7018H25.9543C26.4551 15.7018 26.8611 16.1083 26.8611 16.6093V18.1339C26.8611 18.6349 26.4551 19.0414 25.9543 19.0414C25.4535 19.0414 25.0475 18.6349 25.0475 18.1339V17.5168H10.7829V29.396H25.0475V26.4103C25.0475 25.9093 25.4535 25.5028 25.9543 25.5028C26.4551 25.5028 26.8611 25.9093 26.8611 26.4103V30.3034C26.8611 30.8044 26.4551 31.2109 25.9543 31.2109Z" fill="black"/>
<path fill-rule="evenodd" clip-rule="evenodd" d="M35.2677 29.9315C35.1863 29.9405 35.1041 29.9405 35.0228 29.9315L25.7095 27.2815C25.2262 27.1463 24.944 26.6445 25.0792 26.1608C25.2144 25.6771 25.7159 25.3949 26.1992 25.5302L34.3608 27.826V19.2229L24.4762 22.009C23.9929 22.1469 23.4895 21.8665 23.3518 21.3828C23.214 20.8991 23.4941 20.3954 23.9774 20.2575L35.0228 17.1538C35.505 17.0177 36.0057 17.299 36.1413 17.7818C36.1668 17.8725 36.1781 17.9669 36.1745 18.0613V29.0512C36.1745 29.5521 35.7685 29.9587 35.2677 29.9587V29.9315Z" fill="black"/>
<path fill-rule="evenodd" clip-rule="evenodd" d="M14.6462 15.0575C12.6081 15.0928 10.9275 13.4676 10.8924 11.4284C10.8573 9.38836 12.4811 7.70674 14.5193 7.67134C16.5574 7.63684 18.238 9.26125 18.273 11.3013C18.2734 11.3222 18.2736 11.3431 18.2736 11.364C18.2739 13.3796 16.6598 15.023 14.6462 15.0575ZM14.6462 9.49455C13.6101 9.45915 12.7417 10.2713 12.7067 11.3086C12.6716 12.3449 13.4832 13.2143 14.5193 13.2497C15.5554 13.2842 16.4238 12.472 16.4588 11.4357C16.4596 11.4121 16.46 11.3876 16.4599 11.364C16.4556 10.3539 15.6545 9.52905 14.6462 9.49455Z" fill="black"/>
<path fill-rule="evenodd" clip-rule="evenodd" d="M22.4721 15.0576C21.1299 15.0521 20.0458 13.9595 20.0508 12.6165C20.0558 11.2733 21.148 10.188 22.4902 10.1934C23.8289 10.1988 24.9115 11.2861 24.9115 12.6255C24.9065 13.9704 23.8158 15.0576 22.4721 15.0576ZM22.4721 12.0084C22.1314 12.0084 21.8554 12.2843 21.8554 12.6255C21.8554 12.9667 22.1314 13.2426 22.4721 13.2426C22.8127 13.2426 23.0887 12.9667 23.0887 12.6255C23.0887 12.2843 22.8127 12.0084 22.4721 12.0084Z" fill="black"/>
<path fill-rule="evenodd" clip-rule="evenodd" d="M22.454 17.2356C22.2249 17.2347 22.0046 17.1476 21.8373 16.9905C20.6362 15.8853 19.9744 14.3125 20.0236 12.6799C20.0436 12.179 20.4659 11.7888 20.9667 11.8087C21.4676 11.8287 21.8574 12.2516 21.8373 12.7525C21.7991 13.8524 22.2391 14.9151 23.0435 15.6657C23.4079 16.0068 23.4281 16.5786 23.0888 16.9452C22.9243 17.1231 22.6958 17.2275 22.454 17.2356Z" fill="black"/>
<path fill-rule="evenodd" clip-rule="evenodd" d="M15.2083 17.517C14.9538 17.5188 14.7103 17.4135 14.5372 17.2266C14.2002 16.8582 14.2245 16.2855 14.5916 15.9471C15.842 14.7754 16.529 13.1229 16.4779 11.4095C16.4779 10.9085 16.8838 10.502 17.3847 10.502C17.8856 10.502 18.2915 10.9085 18.2915 11.4095C18.3597 13.6529 17.4613 15.8182 15.8249 17.3537C15.6443 17.4771 15.4265 17.5352 15.2083 17.517Z" fill="black"/>
</svg>
