<svg width="100%" height="100%" viewBox="0 0 16 16" fill="none" xmlns="http://www.w3.org/2000/svg">
<path fill-rule="evenodd" clip-rule="evenodd" d="M8.84376 13.1953C8.66611 13.1953 8.49577 13.1246 8.37043 12.9986L3.70379 8.33198C3.57311 8.20231 3.57211 7.99133 3.70176 7.86063C3.70245 7.85997 3.70312 7.8593 3.70379 7.85864C3.83376 7.72934 4.04376 7.72934 4.17377 7.85864L8.8571 12.5253L12.6271 8.752L7.34044 3.46531L3.88378 3.782L3.49375 6.44866L4.52708 5.56532L4.59375 5.50864C4.49576 5.16198 4.43875 4.80532 4.42375 4.44531C4.41276 4.26131 4.55311 4.10296 4.73711 4.09199C4.92109 4.08099 5.07944 4.2213 5.09043 4.4053C5.10176 4.60299 5.1241 4.79998 5.15711 4.99532C5.36145 4.83432 5.61077 4.73999 5.87042 4.7253H5.90042C6.38775 4.73167 6.80445 5.07729 6.90042 5.55531C6.9671 5.89997 6.84807 6.25398 6.58709 6.48863C6.30777 6.7193 5.92678 6.78434 5.5871 6.65864C5.30807 6.56033 5.06779 6.37563 4.90043 6.13197L3.32709 7.46532C3.2438 7.53731 3.13011 7.56367 3.02377 7.53532C2.91677 7.50533 2.83178 7.42398 2.79712 7.31864C2.75543 7.20597 2.73945 7.08499 2.75044 6.96532L3.23045 3.67529C3.27544 3.37031 3.52341 3.13629 3.83041 3.10865L7.2871 2.79199C7.48376 2.77465 7.67777 2.84562 7.81712 2.9853L13.1038 8.27199C13.3644 8.53229 13.3644 8.95432 13.1044 9.21466C13.1041 9.21499 13.1041 9.21499 13.1038 9.21529L9.31374 12.9986C9.18943 13.124 9.02046 13.1946 8.84376 13.1953ZM5.39045 5.682C5.48109 5.8463 5.62775 5.97296 5.80375 6.03862C5.92075 6.08397 6.05275 6.06631 6.15376 5.99199C6.23411 5.91164 6.26774 5.79632 6.24378 5.68531C6.20643 5.52833 6.07141 5.41364 5.91042 5.402C5.70909 5.42965 5.52443 5.52899 5.39045 5.682Z" fill="#43B02A"/>
<path fill-rule="evenodd" clip-rule="evenodd" d="M7.99998 16C3.58167 16 0 12.4183 0 8.00002C0 3.58166 3.58167 0 7.99998 0C12.4183 0 16 3.58166 16 8.00002C16 12.4183 12.4183 16 7.99998 16ZM7.99998 0.666691C3.95002 0.666691 0.666671 3.94999 0.666671 8.00002C0.666671 12.05 3.95002 15.3333 7.99998 15.3333C12.05 15.3333 15.3333 12.05 15.3333 8.00002C15.3333 3.94999 12.05 0.666691 7.99998 0.666691Z" fill="#43B02A"/>
<path fill-rule="evenodd" clip-rule="evenodd" d="M8.81014 10.4922C8.72144 10.4928 8.63646 10.4579 8.57346 10.3955L6.26007 8.08222C6.13076 7.95217 6.13076 7.74222 6.26007 7.61218C6.39008 7.48284 6.60011 7.48284 6.73009 7.61218L9.04344 9.92553C9.17279 10.0555 9.17279 10.2655 9.04344 10.3955C8.98147 10.4572 8.89747 10.4919 8.81014 10.4922Z" fill="#43B02A"/>
<path fill-rule="evenodd" clip-rule="evenodd" d="M10.1604 9.14062C10.0717 9.14128 9.98672 9.10627 9.92371 9.04396L7.61036 6.73061C7.49068 6.59097 7.50704 6.38028 7.64668 6.26062C7.77137 6.15362 7.95571 6.15362 8.08039 6.26062L10.3937 8.57396C10.523 8.70393 10.523 8.91395 10.3937 9.04396C10.3317 9.10561 10.2477 9.14028 10.1604 9.14062Z" fill="#43B02A"/>
</svg>
