<svg width="100%" height="100%" viewBox="0 0 20 20" fill="none" xmlns="http://www.w3.org/2000/svg">
<path d="M0 10C0 4.47715 4.47715 0 10 0C15.5228 0 20 4.47715 20 10C20 15.5228 15.5228 20 10 20C4.47715 20 0 15.5228 0 10Z" fill="white"/>
<path fill-rule="evenodd" clip-rule="evenodd" d="M10 20C4.47708 20 0 15.5228 0 10C0 4.4772 4.47708 0 10 0C15.5229 0 20 4.4772 20 10C20 15.5228 15.5229 20 10 20ZM10 0.833368C4.93752 0.833368 0.833339 4.93738 0.833339 10C0.833339 15.0626 4.93752 19.1666 10 19.1666C15.0625 19.1666 19.1666 15.0626 19.1666 10C19.1666 4.93738 15.0625 0.833368 10 0.833368Z" fill="#1E1E1E"/>
<path fill-rule="evenodd" clip-rule="evenodd" d="M10.0477 16.6845C9.98363 16.6832 9.92028 16.6676 9.86274 16.6393L6.16202 14.7873C6.02264 14.7171 5.93462 14.5738 5.93589 14.4177V11.9908L3.96213 10.9109C3.76353 10.8013 3.69158 10.5511 3.8014 10.3528C3.8145 10.3294 3.82973 10.3072 3.84701 10.2867L5.08058 8.8495C5.22822 8.6762 5.48849 8.65488 5.66243 8.80225C5.83595 8.94971 5.85729 9.21003 5.70969 9.38333L4.82157 10.4304L5.95642 11.0546V8.2253L4.34455 5.90114C4.27259 5.79685 4.25284 5.66458 4.29111 5.54388C4.32938 5.4244 4.42023 5.32909 4.53781 5.28515L8.41535 3.81921C8.5848 3.75391 8.77678 3.80728 8.88824 3.95061L10.352 5.86419L11.5856 3.9424C11.7041 3.75513 11.9495 3.69519 12.1407 3.80692L15.8414 5.95038C15.9418 6.00747 16.0138 6.10437 16.0388 6.21732C16.0635 6.32981 16.0396 6.44766 15.973 6.54171L14.4722 8.61952L16.1457 10.5167C16.297 10.6859 16.2818 10.9454 16.1124 11.0965C16.0877 11.1187 16.0602 11.1376 16.0306 11.1532L14.3612 12.0278V14.2617C14.3599 14.414 14.2744 14.5528 14.1391 14.623L10.2451 16.6393C10.1843 16.6705 10.1164 16.6861 10.0477 16.6845ZM6.75826 14.1672L10.0477 15.8098L13.5346 14.0071V12.4549L12.0544 13.231C11.871 13.3254 11.6457 13.2692 11.5281 13.0996L10.5001 11.6172V14.8489C10.5001 15.0756 10.3159 15.2595 10.0889 15.2595C9.86193 15.2595 9.6777 15.0756 9.6777 14.8489V11.6336L8.71551 13.0872C8.59708 13.2634 8.36352 13.3205 8.17684 13.2187L6.76648 12.4426L6.75826 14.1672ZM10.718 10.4715L12.005 12.3317L13.547 11.5104V9.24784L10.718 10.4715ZM6.76235 11.4981L8.23856 12.3193L9.53786 10.3894L6.76648 8.80434L6.76235 11.4981ZM14.3694 9.72417V11.0915L15.1918 10.6809L14.3694 9.72417ZM7.32156 8.16785L10.1999 9.81037L13.0782 8.57848L10.3767 7.02216L7.32156 8.16785ZM10.9523 6.43084L13.8307 8.09394L15.0067 6.41855L12.0338 4.69795L10.9523 6.43084ZM5.31081 5.85598L6.51156 7.59295L9.7147 6.38568L8.41122 4.68562L5.31081 5.85598Z" fill="#1E1E1E"/>
</svg>
