<svg width="100%" height="100%" viewBox="0 0 20 20" fill="none" xmlns="http://www.w3.org/2000/svg">
<path d="M0 10C0 4.47715 4.47715 0 10 0C15.5228 0 20 4.47715 20 10C20 15.5228 15.5228 20 10 20C4.47715 20 0 15.5228 0 10Z" fill="white"/>
<path fill-rule="evenodd" clip-rule="evenodd" d="M10 20C4.47708 20 0 15.5228 0 10C0 4.4772 4.47708 0 10 0C15.5229 0 20 4.4772 20 10C20 15.5228 15.5229 20 10 20ZM10 0.833368C4.93752 0.833368 0.833339 4.93738 0.833339 10C0.833339 15.0626 4.93752 19.1666 10 19.1666C15.0625 19.1666 19.1666 15.0626 19.1666 10C19.1666 4.93738 15.0625 0.833368 10 0.833368Z" fill="#1E1E1E"/>
<path fill-rule="evenodd" clip-rule="evenodd" d="M13.6884 15.625H5.82668C4.68135 15.6229 3.75386 14.6961 3.75127 13.5524V6.44759C3.74958 6.41774 3.74958 6.38788 3.75127 6.35807C3.80335 5.25225 4.71384 4.38056 5.8224 4.375H13.0094C13.7414 4.37759 14.3332 4.97036 14.3332 5.7013C14.3332 5.93671 14.1419 6.12776 13.9062 6.12776C13.6704 6.12776 13.4791 5.93671 13.4791 5.7013C13.4791 5.4416 13.2695 5.23007 13.0094 5.22795H5.82668C5.16944 5.23224 4.63266 5.75334 4.60959 6.40922C4.61175 6.42626 4.61175 6.44335 4.60959 6.4604V13.5524C4.60959 14.2262 5.15622 14.7721 5.83094 14.7721H13.6927C13.9528 14.7699 14.1624 14.5584 14.1624 14.2987V12.5929C14.1624 12.3575 14.3537 12.1664 14.5894 12.1664C14.8252 12.1664 15.0165 12.3575 15.0165 12.5929V14.2987C15.0165 15.0314 14.4221 15.625 13.6884 15.625Z" fill="#1E1E1E"/>
<path fill-rule="evenodd" clip-rule="evenodd" d="M14.5853 10.5713C14.3495 10.5713 14.1582 10.3802 14.1582 10.1448V7.09564C14.1582 6.86023 14.3495 6.66918 14.5853 6.66918C14.821 6.66918 15.0123 6.86023 15.0123 7.09564V10.1448C15.0123 10.3802 14.821 10.5713 14.5853 10.5713Z" fill="#1E1E1E"/>
<path fill-rule="evenodd" clip-rule="evenodd" d="M13.6887 8.42285H5.82699C4.70986 8.41433 3.79688 7.52941 3.75586 6.41426C3.75586 6.17885 3.94719 5.98781 4.18288 5.98781C4.41861 5.98781 4.60995 6.17885 4.60995 6.41426C4.63302 7.07013 5.16979 7.59128 5.82699 7.59552H13.6887C13.9488 7.59298 14.1584 7.38187 14.1584 7.12217C14.1584 6.88676 14.3498 6.69572 14.5855 6.69572C14.8212 6.69572 15.0125 6.88676 15.0125 7.12217C14.9984 7.84289 14.4108 8.42073 13.6887 8.42285Z" fill="#1E1E1E"/>
<path fill-rule="evenodd" clip-rule="evenodd" d="M11.6904 13.0113H11.4469C10.7082 13.0113 10.0975 12.2949 10.0762 11.378V11.3396C10.1018 10.4312 10.7125 9.7233 11.4683 9.7233H15.3757C15.9449 9.76385 16.3737 10.2576 16.3331 10.8261C16.3326 10.8295 16.3327 10.8329 16.3322 10.8363V11.9025C16.3322 12.1379 16.141 12.329 15.9052 12.329C15.6695 12.329 15.4782 12.1379 15.4782 11.9025V10.8534C15.4884 10.7545 15.4483 10.6568 15.3714 10.5933H11.4683C11.1822 10.5933 10.9388 10.96 10.9303 11.395C10.9217 11.83 11.2206 12.1754 11.4683 12.1754C12.0973 12.204 12.7263 12.1277 13.3302 11.9494C13.5518 11.8679 13.7974 11.9819 13.8789 12.2032C13.9601 12.4245 13.8465 12.6697 13.6248 12.7512C12.9984 12.9418 12.345 13.0296 11.6904 13.0113Z" fill="#1E1E1E"/>
<path fill-rule="evenodd" clip-rule="evenodd" d="M15.3881 13.0059H14.5853C14.3495 13.0059 14.1582 12.8148 14.1582 12.5794C14.1582 12.344 14.3495 12.1529 14.5853 12.1529H15.3881C15.4598 12.0864 15.4961 11.99 15.4863 11.8928V10.8522C15.4863 10.6168 15.6776 10.4258 15.9133 10.4258C16.149 10.4258 16.3404 10.6168 16.3404 10.8522V11.9141C16.3703 12.4749 15.9483 12.9581 15.3881 13.0059Z" fill="#1E1E1E"/>
<path fill-rule="evenodd" clip-rule="evenodd" d="M11.9848 11.9453C11.6616 11.9474 11.3981 11.6881 11.3955 11.3653C11.3934 11.0424 11.653 10.7793 11.9763 10.7768C12.2996 10.7746 12.5635 11.0339 12.5656 11.3568C12.5656 11.3597 12.5656 11.3623 12.5656 11.3653C12.5656 11.6856 12.3056 11.9453 11.9848 11.9453ZM11.9848 11.0923C11.8341 11.0923 11.7115 11.2147 11.7115 11.3653C11.7115 11.5158 11.8341 11.6382 11.9848 11.6382C12.1356 11.6382 12.2582 11.5158 12.2582 11.3653C12.2582 11.2147 12.1356 11.0923 11.9848 11.0923Z" fill="#1E1E1E"/>
</svg>
