<svg width="100%" height="100%" viewBox="0 0 16 16" fill="none" xmlns="http://www.w3.org/2000/svg">
<path fill-rule="evenodd" clip-rule="evenodd" d="M7.99999 16C3.58165 16 0 12.4183 0 7.99998C0 3.58166 3.58165 9.53674e-07 7.99999 9.53674e-07C12.4183 9.53674e-07 16 3.58166 16 7.99998C16 12.4183 12.4183 16 7.99999 16ZM7.99999 0.666685C3.95002 0.666685 0.666675 3.95003 0.666675 7.99998C0.666675 12.05 3.95002 15.3333 7.99999 15.3333C12.05 15.3333 15.3333 12.05 15.3333 7.99998C15.3333 3.95003 12.05 0.666685 7.99999 0.666685Z" fill="#FBBC04"/>
<path fill-rule="evenodd" clip-rule="evenodd" d="M7.13696 11.12C6.45627 11.1026 5.78595 10.9473 5.16695 10.6633C4.54593 10.401 3.96825 10.0456 3.45362 9.60994C1.8936 8.29664 2.12031 7.94329 2.19695 7.81996C4.3946 4.61495 8.77461 3.7983 11.9796 5.99599C12.695 6.48662 13.3133 7.10495 13.8036 7.81996C13.9036 7.97998 14.0736 8.24663 12.6903 9.48665C12.0193 10.0507 11.2603 10.501 10.4436 10.82C10.2723 10.8856 10.0803 10.8007 10.0136 10.63C9.94662 10.4587 10.0313 10.2653 10.2029 10.1983C10.2043 10.1976 10.2056 10.1973 10.2069 10.1966C10.946 9.91032 11.6339 9.50632 12.2436 8.99999C12.5689 8.70732 12.8719 8.39098 13.1503 8.05329C11.07 5.2073 7.07594 4.58663 4.22996 6.66697C3.6993 7.05497 3.23159 7.52263 2.84359 8.05329C3.16028 8.43164 3.50826 8.78298 3.88361 9.10332C4.34796 9.49664 4.8696 9.81697 5.43026 10.0533C6.89025 10.68 8.03029 10.58 8.81026 9.75331C9.24726 9.26231 9.46726 8.61562 9.42028 7.95998C9.39727 7.77596 9.52792 7.60798 9.71194 7.58497C9.89592 7.56197 10.064 7.69263 10.0869 7.87665C10.1563 8.53299 10.0013 9.19329 9.64696 9.74997C9.5516 9.91531 9.43992 10.0706 9.31358 10.2133C8.75093 10.8127 7.95861 11.1426 7.13696 11.12Z" fill="#FBBC04"/>
<path fill-rule="evenodd" clip-rule="evenodd" d="M8.00016 10.0703C6.85682 10.0703 5.93018 9.14362 5.93018 8.00032C5.93018 6.85694 6.85682 5.93028 8.00016 5.93028C9.1435 5.93028 10.0701 6.85694 10.0701 8.00032C10.0685 9.14263 9.14251 10.0683 8.00016 10.0703ZM8.00016 6.59696C7.22515 6.59696 6.59685 7.22527 6.59685 8.00032C6.59685 8.77529 7.22515 9.40363 8.00016 9.40363C8.77516 9.40363 9.40349 8.77529 9.40349 8.00032C9.40183 7.22597 8.7745 6.59895 8.00016 6.59696Z" fill="#FBBC04"/>
</svg>
