<svg width="100%" height="100%" viewBox="0 0 24 24" fill="none" xmlns="http://www.w3.org/2000/svg">
<path fill-rule="evenodd" clip-rule="evenodd" d="M11.3909 16.1461C10.5204 16.1238 9.66317 15.9248 8.87155 15.561C8.07734 15.2249 7.33856 14.7696 6.6804 14.2114C4.68534 12.5288 4.97527 12.0761 5.07329 11.9181C7.88381 7.81191 13.4853 6.76562 17.5841 9.58126C18.499 10.2099 19.2897 11.002 19.9168 11.9181C20.0446 12.1231 20.2621 12.4647 18.4929 14.0534C17.6348 14.7761 16.6641 15.353 15.6197 15.7617C15.4006 15.8458 15.1551 15.7369 15.0698 15.5183C14.9842 15.2988 15.0924 15.051 15.3119 14.9652C15.3136 14.9643 15.3153 14.964 15.317 14.9631C16.2622 14.5962 17.142 14.0786 17.9217 13.4299C18.3377 13.055 18.7253 12.6497 19.0812 12.217C16.4208 8.57081 11.3129 7.77562 7.67325 10.4409C6.9946 10.938 6.39646 11.5372 5.90026 12.217C6.30526 12.7018 6.75028 13.1519 7.23031 13.5623C7.82416 14.0662 8.49128 14.4766 9.20829 14.7794C11.0754 15.5823 12.5334 15.4542 13.5309 14.3951C14.0898 13.766 14.3711 12.9375 14.311 12.0975C14.2816 11.8617 14.4487 11.6465 14.684 11.617C14.9193 11.5876 15.1342 11.755 15.1636 11.9907C15.2523 12.8316 15.054 13.6776 14.6009 14.3908C14.479 14.6026 14.3362 14.8016 14.1746 14.9844C13.455 15.7523 12.4417 16.1751 11.3909 16.1461Z"/>
<path fill-rule="evenodd" clip-rule="evenodd" d="M12.4949 14.8027C11.0327 14.8027 9.84766 13.6155 9.84766 12.1507C9.84766 10.6858 11.0327 9.4986 12.4949 9.4986C13.9571 9.4986 15.1422 10.6858 15.1422 12.1507C15.1401 13.6142 13.9558 14.8001 12.4949 14.8027ZM12.4949 10.3527C11.5038 10.3527 10.7003 11.1577 10.7003 12.1507C10.7003 13.1436 11.5038 13.9486 12.4949 13.9486C13.486 13.9486 14.2896 13.1436 14.2896 12.1507C14.2875 11.1586 13.4852 10.3553 12.4949 10.3527Z"/>
</svg>
