<svg width="100%" height="100%" viewBox="0 0 32 32" fill="none" xmlns="http://www.w3.org/2000/svg">
<rect width="32" height="32" fill="transparent"/>
<path fill-rule="evenodd" clip-rule="evenodd" d="M9.73605 24.6062C9.54844 24.6076 9.36853 24.5334 9.23529 24.4014C8.95877 24.1267 8.9566 23.6798 9.23101 23.4029C9.23241 23.4015 9.23381 23.4001 9.23529 23.3987C9.60911 23.0245 10.0112 22.6926 10.3991 22.3678C10.7871 22.043 11.0268 21.8452 11.3231 21.5628C11.8747 21.1137 12.2104 20.4521 12.2472 19.7411C12.1696 18.8231 11.2667 18.2089 10.385 17.6228L10.2792 17.545C9.48917 17.0155 8.67797 16.3517 8.62866 15.4268C8.6103 14.9 8.8529 14.3972 9.27751 14.0851C9.94621 13.5895 10.7024 13.2251 11.5065 13.0119L12.0074 12.8424C12.4588 12.68 13.418 12.334 13.5239 12.0233C13.5239 11.9456 13.4886 11.7903 13.3687 11.6138C12.8291 10.8661 12.1428 10.2362 11.3513 9.76378C10.9909 9.61548 10.8195 9.20248 10.9683 8.84163C11.1164 8.48149 11.5291 8.30925 11.8888 8.45817C11.9488 8.48289 12.006 8.51603 12.0568 8.55634C13.0168 9.12965 13.8498 9.89439 14.5043 10.8017C14.8817 11.26 15.0136 11.8737 14.8571 12.447C14.5466 13.4285 13.3687 13.8592 12.5081 14.1558L11.9368 14.3535C11.3055 14.5173 10.7088 14.7926 10.1734 15.1655C10.0606 15.2572 10.0182 15.3279 10.0252 15.3491C10.0323 15.3702 10.1099 15.7163 11.0551 16.3447L11.1609 16.4224C12.1484 17.0861 13.5098 17.997 13.6438 19.5999C13.6586 20.7409 13.1585 21.8283 12.2824 22.5584C11.9651 22.8621 11.6264 23.1445 11.2879 23.427C10.9169 23.7243 10.5613 24.0399 10.2227 24.3731C10.098 24.5123 9.92296 24.5963 9.73605 24.6062Z" fill="#00A3E0"/>
<path fill-rule="evenodd" clip-rule="evenodd" d="M16.0004 26.7954C10.0479 26.8081 5.21265 21.9874 5.19997 16.0287C5.18939 10.6989 9.06745 6.15928 14.3287 5.34379C17.4746 4.87074 21.086 5.51329 22.0876 8.02705C22.2012 8.39982 21.9902 8.7945 21.6178 8.90818C21.2835 9.00986 20.926 8.85104 20.7757 8.53542C20.2608 7.22201 18.3704 6.63598 16.339 6.61478C16.7206 7.26513 17.172 7.87165 17.6862 8.42243L18.0459 8.83902C18.448 9.31215 19.2874 10.3007 19.7529 10.3713C20.2741 10.3389 20.7855 10.2117 21.2624 9.99704L21.4387 9.92647C21.9493 9.76539 22.4269 9.5141 22.8494 9.18499C23.0843 9.00565 23.3834 8.9315 23.6747 8.98023C24.2531 9.0791 24.6198 9.62278 24.9091 10.0677C26.3198 12.3272 27.0252 14.1137 26.736 17.1287C26.159 22.3476 21.9381 26.407 16.7057 26.7743C16.4942 26.7884 16.2473 26.7954 16.0004 26.7954ZM14.766 6.70654H14.5403C9.43 7.53622 5.9582 12.3554 6.78704 17.472C7.56082 22.2473 11.8338 25.6515 16.6564 25.3338C21.1975 25.0011 24.8498 21.4636 25.3322 16.9311C25.5933 14.3185 25.022 12.8709 23.7382 10.8021C23.6888 10.7385 23.5759 10.569 23.4772 10.449C22.9982 10.783 22.4727 11.0442 21.9184 11.2257L21.7491 11.2892C21.0557 11.6204 20.2953 11.7842 19.5272 11.7694C18.5327 11.6211 17.6157 10.5407 16.9456 9.74995C16.8257 9.60867 16.7198 9.48158 16.6211 9.3757C15.8777 8.58134 15.2549 7.68242 14.7731 6.70654H14.766Z" fill="#00A3E0"/>
<path fill-rule="evenodd" clip-rule="evenodd" d="M18.1172 22.9182C17.8174 22.9176 17.5239 22.8321 17.2707 22.6711C16.0858 21.9085 16.121 19.7972 16.1563 19.1758L16.2832 17.0999C16.2818 16.4926 16.4222 15.8932 16.6924 15.3487C17.2355 14.4026 18.357 13.8306 20.0216 13.654C20.667 13.5524 21.3265 13.606 21.9472 13.8094C22.9488 14.2352 23.6049 15.2131 23.6189 16.302C23.6027 17.2248 23.3079 18.1209 22.7725 18.8723C22.0946 20.0839 20.8772 20.8953 19.4996 21.0541C19.1103 21.0971 18.7597 20.8154 18.7167 20.4257C18.6736 20.0359 18.9551 19.685 19.3445 19.6419C20.2953 19.5232 21.129 18.9492 21.5804 18.1025C21.9614 17.585 22.1793 16.9657 22.2082 16.3232C22.2153 15.8013 21.9099 15.3254 21.4323 15.1158C21.0218 14.9992 20.5908 14.9752 20.1698 15.0451C19.013 15.1722 18.2159 15.5182 17.9197 16.0337C17.7645 16.3945 17.6876 16.7842 17.6939 17.1776L17.5669 19.2464C17.4965 20.3903 17.7504 21.2872 18.0326 21.4637C18.1313 21.5272 18.3358 21.4637 18.4558 21.3789C18.7972 21.1953 19.2218 21.3218 19.408 21.6614C19.5935 22.0039 19.4665 22.4325 19.1245 22.6189C19.1223 22.6196 19.1209 22.621 19.1188 22.6217C18.8148 22.8024 18.4705 22.9049 18.1172 22.9182Z" fill="#00A3E0"/>
</svg>
