<svg width="547" height="158" viewBox="0 0 547 158" fill="none" xmlns="http://www.w3.org/2000/svg">
<g opacity="0.75">
<path d="M43.0683 22.8291L99.0168 0L112.572 33.2194L56.6231 56.0485L43.0683 22.8291Z" fill="#333333"/>
<path d="M87.9285 37.9035C80.4196 37.9035 74.3325 31.8163 74.3325 24.3075C74.3325 16.7986 80.4196 10.7114 87.9285 10.7114C95.4374 10.7114 101.525 16.7986 101.525 24.3075C101.525 31.8163 95.4374 37.9035 87.9285 37.9035Z" fill="#43B02A"/>
<path d="M62.5177 21.0115L66.7139 19.2993L68.426 23.4955L64.2299 25.2076L62.5177 21.0115Z" fill="#43B02A"/>
<path opacity="0.5" d="M57.2725 23.1516L61.4686 21.4395L63.1808 25.6356L58.9847 27.3478L57.2725 23.1516Z" fill="#43B02A"/>
<path opacity="0.2" d="M52.0274 25.2918L56.2235 23.5796L57.9357 27.7757L53.7396 29.4879L52.0274 25.2918Z" fill="#43B02A"/>
<path d="M64.658 26.2566L68.8541 24.5444L70.5663 28.7406L66.3702 30.4528L64.658 26.2566Z" fill="#333333"/>
<path opacity="0.5" d="M59.4127 28.3968L63.6089 26.6846L65.3211 30.8807L61.1249 32.5929L59.4127 28.3968Z" fill="#333333"/>
<path opacity="0.2" d="M54.1676 30.5374L58.3638 28.8252L60.076 33.0213L55.8798 34.7335L54.1676 30.5374Z" fill="#333333"/>
<path d="M66.7981 31.5017L70.9943 29.7896L72.7064 33.9857L68.5103 35.6979L66.7981 31.5017Z" fill="#A747D5"/>
<path opacity="0.5" d="M61.5529 33.6419L65.749 31.9297L67.4612 36.1258L63.2651 37.838L61.5529 33.6419Z" fill="#A747D5"/>
<path opacity="0.2" d="M56.3078 35.7825L60.5039 34.0703L62.2161 38.2665L58.0199 39.9786L56.3078 35.7825Z" fill="#A747D5"/>
<path opacity="0.5" d="M82.792 11.7192L93.0651 36.8961C86.1127 39.7329 77.8273 36.5393 74.9904 29.5869C72.1536 22.6345 75.8396 14.5561 82.792 11.7192Z" fill="#333333"/>
<path d="M142.126 39.481L152.207 55.9588C149.484 57.7274 147.559 60.4887 146.842 63.6552C146.124 66.8216 146.671 70.1431 148.365 72.9126C150.06 75.6821 152.768 77.6809 155.914 78.4836C159.06 79.2863 162.395 78.8295 165.209 77.2103L175.929 94.7306L72.5166 158L38.7139 102.75L142.126 39.481Z" fill="#F5F5F5"/>
<path d="M1.98761 115.525C1.98761 119.768 4.50976 121.249 7.62125 121.249C7.69333 121.249 7.7653 121.249 7.83715 121.247C7.98131 121.244 8.12409 121.237 8.26516 121.227C11.0732 121.029 13.2549 119.471 13.2549 115.525C13.2549 111.442 8.03656 106.289 7.64458 105.907L7.64389 105.907C7.62878 105.892 7.62123 105.885 7.62123 105.885C7.62123 105.885 1.98761 111.282 1.98761 115.525Z" fill="#43B02A"/>
<path d="M7.82657 120.6L5.76609 117.721L7.83171 120.916L7.8372 121.247C7.98136 121.244 8.12416 121.237 8.26523 121.227L8.04314 116.983L8.04487 116.95L8.04109 116.943L8.02015 116.542L10.0909 113.339L8.01363 116.242L8.00881 116.327L7.84098 113.12L9.61383 109.81L7.81936 112.557L7.64463 105.907L7.64396 105.885V105.907L7.67312 111.15L5.90818 109.071L7.68034 111.602L7.72702 114.473L6.0791 111.717L7.73388 114.896L7.75998 116.492L5.36756 112.657L7.7689 117.049L7.82657 120.6Z" fill="#333333"/>
<path d="M168.162 92.8819C166.939 92.8819 165.947 91.8903 165.947 90.667C165.947 89.4438 166.939 88.4521 168.162 88.4521C169.385 88.4521 170.377 89.4438 170.377 90.667C170.377 91.8903 169.385 92.8819 168.162 92.8819Z" fill="#A747D5"/>
<path d="M150.701 114.777V89.5586" stroke="#333333" stroke-width="2" stroke-miterlimit="10"/>
<path d="M150.701 93.1247C148.732 93.1247 147.135 91.5281 147.135 89.5585C147.135 87.5889 148.732 85.9922 150.701 85.9922C152.671 85.9922 154.267 87.5889 154.267 89.5585C154.267 91.5281 152.671 93.1247 150.701 93.1247Z" fill="#333333"/>
<path d="M157.725 103.679C162.876 111.579 161.465 121.626 161.465 121.626C161.465 121.626 151.701 118.866 146.55 110.966C141.399 103.066 142.81 93.0186 142.81 93.0186C142.81 93.0186 152.574 95.7791 157.725 103.679Z" fill="#333333"/>
<path d="M161.492 121.534C161.492 121.534 161.617 121.514 161.848 121.467C162.032 121.43 162.286 121.377 162.595 121.303C165.362 120.651 172.718 118.446 177.528 112.648C183.547 105.388 183.294 95.2446 183.294 95.2446C183.294 95.2446 174.09 96.7401 168.025 103.26C167.762 103.54 167.507 103.83 167.258 104.131C162.02 110.448 161.532 118.947 161.493 121.048C161.488 121.363 161.492 121.534 161.492 121.534Z" fill="#43B02A"/>
<path d="M165.205 103.679C160.053 111.579 161.465 121.626 161.465 121.626C161.465 121.626 171.228 118.866 176.379 110.966C181.531 103.066 180.119 93.0186 180.119 93.0186C180.119 93.0186 170.356 95.7791 165.205 103.679Z" stroke="#333333" stroke-width="2" stroke-miterlimit="10"/>
<path opacity="0.1" d="M161.493 121.048C161.63 121.212 161.75 121.353 161.848 121.467C162.067 121.717 162.191 121.848 162.191 121.848C162.191 121.848 162.342 121.658 162.595 121.303C163.987 119.363 168.463 112.466 168.117 104.499C168.098 104.082 168.068 103.668 168.025 103.26C167.762 103.54 167.507 103.83 167.258 104.131C162.02 110.448 161.532 118.947 161.493 121.048Z" fill="black"/>
<path d="M153.855 105.075C154.263 114.497 161.257 121.848 161.257 121.848C161.257 121.848 167.591 113.922 167.184 104.499C166.777 95.0772 159.782 87.7271 159.782 87.7271C159.782 87.7271 153.448 95.6532 153.855 105.075Z" fill="#43B02A"/>
<path d="M161.257 121.581L159.719 88.1113" stroke="#333333" stroke-width="2" stroke-miterlimit="10"/>
<path d="M182.413 120.792V157.236H166.079C166.079 145.765 159.569 136.465 151.539 136.465C143.508 136.465 136.999 145.765 136.999 157.236H125.857C125.857 145.765 119.347 136.465 111.317 136.465C103.287 136.465 96.7769 145.765 96.7769 157.236H85.6357C85.6357 145.765 79.1259 136.465 71.0955 136.465C63.0652 136.465 56.5553 145.765 56.5553 157.236H45.4141C45.4141 145.765 38.9043 136.465 30.8739 136.465C22.8436 136.465 16.3337 145.765 16.3337 157.236H-0.000411987V120.792H182.413Z" fill="#E5E5E5"/>
<path d="M364.295 120.792V157.236H347.961C347.961 145.765 341.451 136.465 333.421 136.465C325.39 136.465 318.88 145.765 318.88 157.236H307.739C307.739 145.765 301.229 136.465 293.199 136.465C285.169 136.465 278.659 145.765 278.659 157.236H267.518C267.518 145.765 261.008 136.465 252.977 136.465C244.947 136.465 238.437 145.765 238.437 157.236H227.296C227.296 145.765 220.786 136.465 212.756 136.465C204.725 136.465 198.216 145.765 198.216 157.236H181.881V120.792H364.295Z" fill="#E5E5E5"/>
<path d="M546.295 120.792V157.236H529.961C529.961 145.765 523.451 136.465 515.421 136.465C507.39 136.465 500.88 145.765 500.88 157.236H489.739C489.739 145.765 483.229 136.465 475.199 136.465C467.169 136.465 460.659 145.765 460.659 157.236H449.518C449.518 145.765 443.008 136.465 434.977 136.465C426.947 136.465 420.437 145.765 420.437 157.236H409.296C409.296 145.765 402.786 136.465 394.756 136.465C386.725 136.465 380.216 145.765 380.216 157.236H363.881V120.792H546.295Z" fill="#E5E5E5"/>
<path d="M353.049 30.5898L386.652 48.7916C386.078 49.7808 385.708 50.8754 385.564 52.0103C385.42 53.1453 385.505 54.2976 385.815 55.3989C386.125 56.5003 386.652 57.5282 387.366 58.4219C388.081 59.3157 388.967 60.0569 389.973 60.6018C390.979 61.1467 392.084 61.4841 393.223 61.594C394.361 61.704 395.511 61.5843 396.602 61.2419C397.694 60.8996 398.706 60.3416 399.578 59.6011C400.45 58.8606 401.164 57.9525 401.679 56.9308L413.137 63.1371L383.457 117.931L323.369 85.384L353.049 30.5898Z" fill="#F5F5F5"/>
<path opacity="0.2" d="M387.142 78.5847L393.312 76.9365L394.96 83.1063L388.79 84.7544L387.142 78.5847Z" fill="#43B02A"/>
<path d="M378.541 103.413C383.473 110.976 382.121 120.595 382.121 120.595C382.121 120.595 372.774 117.952 367.842 110.389C362.911 102.826 364.262 93.2065 364.262 93.2065C364.262 93.2065 373.609 95.8494 378.541 103.413Z" fill="#333333"/>
<path d="M382.148 120.507C382.148 120.507 382.268 120.488 382.489 120.443C382.665 120.407 382.908 120.356 383.204 120.286C385.853 119.661 392.895 117.55 397.5 111.999C403.263 105.049 403.02 95.3379 403.02 95.3379C403.02 95.3379 394.208 96.7697 388.402 103.011C388.151 103.28 387.906 103.558 387.668 103.845C382.653 109.893 382.186 118.03 382.149 120.042C382.144 120.343 382.148 120.507 382.148 120.507Z" fill="#43B02A"/>
<path d="M385.702 103.413C380.77 110.976 382.121 120.595 382.121 120.595C382.121 120.595 391.469 117.952 396.4 110.389C401.332 102.826 399.981 93.2065 399.981 93.2065C399.981 93.2065 390.634 95.8494 385.702 103.413Z" stroke="#333333" stroke-width="2" stroke-miterlimit="10"/>
<path opacity="0.1" d="M382.149 120.042C382.279 120.199 382.394 120.333 382.488 120.443C382.698 120.682 382.817 120.807 382.817 120.807C382.817 120.807 382.961 120.626 383.204 120.286C384.536 118.429 388.821 111.826 388.49 104.198C388.472 103.798 388.443 103.403 388.402 103.012C388.15 103.28 387.906 103.558 387.668 103.846C382.653 109.893 382.186 118.031 382.149 120.042Z" fill="black"/>
<path d="M374.836 104.75C375.226 113.77 381.922 120.807 381.922 120.807C381.922 120.807 387.986 113.219 387.597 104.199C387.207 95.178 380.511 88.1411 380.511 88.1411C380.511 88.1411 374.446 95.7294 374.836 104.75Z" fill="#43B02A"/>
<path d="M412.322 107.701C411.861 107.701 411.487 107.327 411.487 106.866C411.487 106.405 411.861 106.032 412.322 106.032C412.783 106.032 413.157 106.405 413.157 106.866C413.157 107.327 412.783 107.701 412.322 107.701Z" fill="#A747D5"/>
<path d="M408.232 120.721V111.217" stroke="#333333" stroke-width="2" stroke-miterlimit="10"/>
<path d="M408.232 112.561C407.49 112.561 406.888 111.959 406.888 111.217C406.888 110.474 407.49 109.873 408.232 109.873C408.975 109.873 409.576 110.474 409.576 111.217C409.576 111.959 408.975 112.561 408.232 112.561Z" fill="#333333"/>
<path d="M408.232 117.074C408.232 117.074 408.424 112.945 412.36 113.425L408.232 117.074Z" fill="#333333"/>
<path d="M381.249 86.0411C379.817 86.0411 378.657 84.8809 378.657 83.4497C378.657 82.0186 379.817 80.8584 381.249 80.8584C382.68 80.8584 383.84 82.0186 383.84 83.4497C383.84 84.8809 382.68 86.0411 381.249 86.0411Z" fill="#333333"/>
<path d="M389.376 85.3342C388.335 85.3342 387.491 84.4904 387.491 83.4495C387.491 82.4087 388.335 81.5649 389.376 81.5649C390.416 81.5649 391.26 82.4087 391.26 83.4495C391.26 84.4904 390.416 85.3342 389.376 85.3342Z" stroke="#333333" stroke-width="2" stroke-miterlimit="10"/>
<path d="M373.121 85.3342C372.08 85.3342 371.236 84.4904 371.236 83.4495C371.236 82.4087 372.08 81.5649 373.121 81.5649C374.162 81.5649 375.005 82.4087 375.005 83.4495C375.005 84.4904 374.162 85.3342 373.121 85.3342Z" stroke="#333333" stroke-width="2" stroke-miterlimit="10"/>
<path d="M381.922 120.552L380.45 88.5088" stroke="#333333" stroke-width="2" stroke-miterlimit="10"/>
<path d="M299.826 66.1729C298.395 66.1729 297.235 65.0127 297.235 63.5816C297.235 62.1504 298.395 60.9902 299.826 60.9902C301.257 60.9902 302.417 62.1504 302.417 63.5816C302.417 65.0127 301.257 66.1729 299.826 66.1729Z" fill="#333333"/>
<path d="M353.422 32.7692C352.381 32.7692 351.537 31.9254 351.537 30.8846C351.537 29.8438 352.381 29 353.422 29C354.463 29 355.307 29.8438 355.307 30.8846C355.307 31.9254 354.463 32.7692 353.422 32.7692Z" stroke="#333333" stroke-width="2" stroke-miterlimit="10"/>
<path d="M374.845 44.5197C373.804 44.5197 372.961 43.6759 372.961 42.6351C372.961 41.5943 373.804 40.7505 374.845 40.7505C375.886 40.7505 376.73 41.5943 376.73 42.6351C376.73 43.6759 375.886 44.5197 374.845 44.5197Z" stroke="#333333" stroke-width="2" stroke-miterlimit="10"/>
<path d="M332.939 51.4653C329.57 51.4653 326.839 48.7341 326.839 45.365C326.839 41.9959 329.57 39.2646 332.939 39.2646C336.308 39.2646 339.04 41.9959 339.04 45.365C339.04 48.7341 336.308 51.4653 332.939 51.4653Z" fill="#A747D5"/>
<path d="M318.898 99.2691L315.637 112.417L312.377 111.891L315.637 96.8501L318.898 99.2691Z" fill="#FBBEBE"/>
<path d="M314.48 111.575C314.48 111.575 316.337 112.203 316.093 112.625C315.848 113.048 315.848 115.677 316.689 116.624C317.531 117.57 319.634 120.515 317.215 120.62C314.796 120.726 312.377 119.148 312.377 119.148V116.413L311.956 118.938H311.535V116.098C311.535 116.098 310.484 114.31 311.115 113.258C311.746 112.206 312.157 111.289 312.951 111.38C313.744 111.47 314.48 111.575 314.48 111.575Z" fill="#333333"/>
<path d="M331.73 110.418L332.256 113.258H328.574V110.418H331.73Z" fill="#FBBEBE"/>
<path d="M331.414 112.627C331.414 112.627 332.466 112.521 332.781 113.994C333.097 115.466 335.937 118.592 336.989 118.907C338.04 119.223 338.04 120.275 336.673 120.485C335.306 120.695 331.835 120.801 330.993 119.644C330.152 118.487 328.995 116.623 328.995 116.623L329.521 120.59H328.574C328.574 120.59 327.733 116.729 326.891 115.782C326.05 114.835 328.574 112.627 328.995 112.627H331.414Z" fill="#333333"/>
<path d="M336.568 67.3999C336.568 67.3999 337.304 69.3983 338.566 69.7138C339.828 70.0294 349.189 72.2381 349.189 72.2381C349.189 72.2381 357.393 72.4485 354.869 74.2365C352.345 76.0245 348.243 74.2365 348.243 74.2365C348.243 74.2365 336.252 72.764 335.306 71.1863C334.683 70.1126 334.155 68.9864 333.728 67.8206L336.568 67.3999Z" fill="#FBBEBE"/>
<path d="M332.571 58.5649C332.571 58.5649 338.566 68.3465 337.83 68.5569C337.094 68.7672 330.257 70.976 329.942 70.1346C329.626 69.2931 329.626 65.4015 329.626 65.4015L332.571 58.5649Z" fill="#333333"/>
<path opacity="0.1" d="M332.571 58.5649C332.571 58.5649 338.566 68.3465 337.83 68.5569C337.094 68.7672 330.257 70.976 329.942 70.1346C329.626 69.2931 329.626 65.4015 329.626 65.4015L332.571 58.5649Z" fill="black"/>
<path d="M317.005 56.251L303.437 63.1927C303.437 63.1927 295.759 65.1911 297.441 66.7688C299.124 68.3465 304.594 65.4015 304.594 65.4015L319.634 58.5649L317.005 56.251Z" fill="#FBBEBE"/>
<path d="M334.359 50.7819C334.359 50.7819 331.73 54.7787 331.94 55.7253C331.94 55.7253 331.73 56.3563 332.045 56.777C332.361 57.1978 332.256 59.722 332.256 59.722L331.204 61.1945L329.837 56.6719L329.205 51.8337C329.205 51.8337 330.625 49.8879 330.415 48.9413C330.205 47.9947 334.359 50.7819 334.359 50.7819Z" fill="#FBBEBE"/>
<path d="M326.05 73.5005C326.05 73.5005 331.94 89.2772 331.94 96.219C331.94 103.161 334.149 111.049 332.466 111.785C330.783 112.522 322.264 112.627 322.053 111.785C321.843 110.944 323.105 76.761 323.736 75.3937C324.367 74.0264 326.05 73.5005 326.05 73.5005Z" fill="#333333"/>
<path opacity="0.1" d="M326.05 73.5005C326.05 73.5005 331.94 89.2772 331.94 96.219C331.94 103.161 334.149 111.049 332.466 111.785C330.783 112.522 322.264 112.627 322.053 111.785C321.843 110.944 323.105 76.761 323.736 75.3937C324.367 74.0264 326.05 73.5005 326.05 73.5005Z" fill="black"/>
<path d="M332.992 51.4131C330.843 51.4131 329.1 49.6708 329.1 47.5215C329.1 45.3722 330.843 43.6299 332.992 43.6299C335.141 43.6299 336.883 45.3722 336.883 47.5215C336.883 49.6708 335.141 51.4131 332.992 51.4131Z" fill="#FBBEBE"/>
<path d="M331.835 59.3016L332.116 56.9279C332.116 56.9279 332.992 58.1446 332.992 59.0912C332.992 60.0378 333.518 63.4035 331.309 65.5071C329.1 67.6107 328.679 68.0314 328.574 68.4521C328.469 68.8728 327.943 68.8728 327.943 68.8728L324.893 81.1787C324.893 81.1787 323.946 113.889 322.474 114.31C321.001 114.731 316.479 114.31 316.163 113.784C315.848 113.258 316.689 99.2694 316.689 99.2694C316.689 99.2694 314.375 111.68 313.534 111.68C312.692 111.68 312.166 109.892 312.377 109.787C312.587 109.682 313.849 101.583 314.375 99.059C314.901 96.5347 314.691 75.1835 314.691 75.1835C314.691 75.1835 313.008 72.4489 318.793 67.0848C318.793 67.0848 322.474 56.3566 322.684 56.3566C322.895 56.3566 326.997 50.5718 326.997 50.5718C326.997 50.5718 329.311 50.5718 329.731 51.9391C330.152 53.3064 331.835 59.3016 331.835 59.3016Z" fill="#333333"/>
<path d="M328.259 51.4132L326.997 50.5718C326.997 50.5718 321.738 53.7271 318.056 53.9375C314.375 54.1478 314.48 56.2514 315.953 57.7239C317.425 59.1964 323.21 64.245 323.421 62.9828C323.631 61.7207 328.259 51.4132 328.259 51.4132Z" fill="#333333"/>
<path d="M332.939 46.2068C330.616 46.2068 328.732 45.0766 328.732 43.6825C328.732 42.2884 330.616 41.1582 332.939 41.1582C335.263 41.1582 337.146 42.2884 337.146 43.6825C337.146 45.0766 335.263 46.2068 332.939 46.2068Z" fill="#A747D5"/>
<path d="M332.519 41.7893C331.124 41.7893 329.994 40.6591 329.994 39.265C329.994 37.8709 331.124 36.7407 332.519 36.7407C333.913 36.7407 335.043 37.8709 335.043 39.265C335.043 40.6591 333.913 41.7893 332.519 41.7893Z" fill="#A747D5"/>
<path d="M335.884 37.8978C335.884 37.2739 335.653 36.672 335.236 36.2084C334.818 35.7448 334.244 35.4522 333.623 35.3872C333.71 35.3781 333.798 35.3736 333.886 35.3735C334.555 35.3735 335.197 35.6395 335.671 36.1129C336.144 36.5863 336.41 37.2283 336.41 37.8978C336.41 38.5673 336.144 39.2094 335.671 39.6828C335.197 40.1561 334.555 40.4221 333.886 40.4221C333.798 40.4221 333.71 40.4175 333.623 40.4084C334.244 40.3434 334.818 40.0508 335.236 39.5872C335.653 39.1236 335.884 38.5218 335.884 37.8978Z" fill="#A747D5"/>
<path d="M394.555 60.0214C390.724 60.0214 387.618 56.9155 387.618 53.0842C387.618 49.2529 390.724 46.147 394.555 46.147C398.386 46.147 401.492 49.2529 401.492 53.0842C401.492 56.9155 398.386 60.0214 394.555 60.0214Z" fill="#43B02A"/>
<path d="M302.277 50.8205L296.213 56.8846L293.665 54.3358C293.584 54.2549 293.488 54.1907 293.382 54.1469C293.276 54.1032 293.163 54.0806 293.049 54.0806C292.934 54.0806 292.821 54.1032 292.715 54.1469C292.609 54.1907 292.513 54.2549 292.433 54.3358C292.352 54.4167 292.287 54.5128 292.244 54.6185C292.2 54.7242 292.177 54.8375 292.177 54.9519C292.177 55.0663 292.2 55.1796 292.244 55.2853C292.287 55.391 292.352 55.487 292.433 55.5679L295.739 58.8749C295.864 58.9995 296.033 59.0695 296.209 59.0696C296.386 59.0696 296.555 58.9997 296.679 58.8751L303.509 52.0527C303.59 51.9718 303.654 51.8758 303.698 51.7701C303.742 51.6644 303.764 51.5511 303.764 51.4367C303.764 51.3223 303.742 51.209 303.698 51.1032C303.654 50.9975 303.59 50.9015 303.509 50.8205C303.346 50.6572 303.124 50.5654 302.893 50.5654C302.662 50.5654 302.441 50.6572 302.277 50.8205Z" fill="#43B02A"/>
<path d="M157.487 74.5273C153.003 74.5273 149.367 70.8919 149.367 66.4075C149.367 61.923 153.003 58.2876 157.487 58.2876C161.972 58.2876 165.607 61.923 165.607 66.4075C165.607 70.8919 161.972 74.5273 157.487 74.5273Z" fill="#A747D5"/>
<path d="M86.0823 56.2695C83.0177 56.2695 80.5334 53.7852 80.5334 50.7207C80.5334 47.6562 83.0177 45.1719 86.0823 45.1719C89.1468 45.1719 91.6311 47.6562 91.6311 50.7207C91.6311 53.7852 89.1468 56.2695 86.0823 56.2695Z" fill="#333333"/>
<path d="M88.7312 53.5239C88.7312 53.5239 90.5386 57.5259 91.055 57.655C91.5713 57.7841 86.7948 60.1078 86.7948 60.1078C86.7948 60.1078 85.8911 55.2022 85.5038 54.944C85.1165 54.6858 88.7312 53.5239 88.7312 53.5239Z" fill="#FFB9B9"/>
<path opacity="0.1" d="M88.7312 53.5239C88.7312 53.5239 90.5386 57.5259 91.055 57.655C91.5713 57.7841 86.7948 60.1078 86.7948 60.1078C86.7948 60.1078 85.8911 55.2022 85.5038 54.944C85.1165 54.6858 88.7312 53.5239 88.7312 53.5239Z" fill="black"/>
<path d="M99.4461 86.3141L102.803 95.7382L99.188 97.1582L92.9914 84.894L99.4461 86.3141Z" fill="#FFB9B9"/>
<path d="M87.6984 86.5727C87.6984 86.5727 80.9853 95.9967 80.5981 96.1258C80.2108 96.2549 77.4997 93.9312 77.4997 93.9312C77.4997 93.9312 80.8563 85.7981 81.889 85.4108C82.9218 85.0235 87.6984 86.5727 87.6984 86.5727Z" fill="#FFB9B9"/>
<path d="M103.319 94.0601L108.612 107.873C108.612 107.873 108.225 108.648 108.612 108.777C108.999 108.906 109.903 110.972 109.903 111.101C109.903 111.23 110.807 111.359 110.807 111.746C110.807 112.134 111.581 115.232 111.581 115.232C111.581 115.232 110.161 118.33 109.258 117.427C108.354 116.523 107.967 114.716 107.967 114.716L106.676 111.359C106.676 111.359 106.805 109.552 105.901 109.293C104.997 109.035 104.481 105.808 104.481 105.808C104.481 105.808 103.061 104.388 102.803 104C102.545 103.613 98.0262 96.7711 98.4135 96.642C98.8007 96.5129 103.319 94.0601 103.319 94.0601Z" fill="#333333"/>
<path d="M81.3727 95.8676L77.4998 93.2856C77.4998 93.2856 70.7868 105.55 70.7868 105.808C70.7868 106.066 71.045 106.841 70.7868 107.099C70.5286 107.357 68.3339 111.488 66.9139 111.876C65.4938 112.263 65.2356 113.812 66.3975 114.07C67.5593 114.328 69.1085 114.974 69.4958 114.07C69.7222 113.539 69.9809 113.021 70.2704 112.521C70.2704 112.521 71.5613 112.908 71.6904 112.65C71.8394 112.27 71.9687 111.882 72.0777 111.488C72.0777 111.488 73.1105 109.681 73.1105 109.035C73.1143 108.852 73.1802 108.676 73.2975 108.535C73.4148 108.394 73.5765 108.298 73.756 108.261C73.756 108.261 75.176 104.904 76.0797 104.388C76.9834 103.872 77.758 101.29 77.758 101.29L81.3727 95.8676Z" fill="#333333"/>
<path d="M86.0201 56.493C83.9525 56.493 82.2763 54.8168 82.2763 52.7492C82.2763 50.6815 83.9525 49.0054 86.0201 49.0054C88.0878 49.0054 89.7639 50.6815 89.7639 52.7492C89.7639 54.8168 88.0878 56.493 86.0201 56.493Z" fill="#FFB9B9"/>
<path d="M97.1225 75.4702C97.1225 75.4702 100.737 87.218 99.9626 87.218C99.188 87.218 81.2436 87.7344 80.5981 86.7016C79.9526 85.6688 84.6001 78.3103 84.8583 78.1812C85.1165 78.0521 97.1225 75.4702 97.1225 75.4702Z" fill="#333333"/>
<path d="M102.673 44.7452L106.546 38.8068C106.546 38.8068 105.589 32.5773 106.88 33.7392C108.171 34.901 108.579 39.593 108.579 39.593L104.094 46.4235L102.673 44.7452Z" fill="#FFB9B9"/>
<path d="M67.5593 55.5893L64.0737 55.3312C64.0737 55.3312 59.9426 50.9419 59.6844 52.3619C59.4262 53.782 63.0409 56.8803 63.0409 56.8803L67.8175 57.3967L67.5593 55.5893Z" fill="#FFB9B9"/>
<path d="M92.9913 56.8804V55.5895C92.9913 55.5895 96.3478 53.3948 96.2187 53.0075C96.0896 52.6202 96.4769 52.362 96.4769 52.362C96.4769 52.362 96.8642 51.8457 96.8642 51.7166C96.8642 51.5875 97.3806 51.4584 97.3806 51.4584L100.608 47.7146C100.608 47.7146 102.415 44.0999 102.803 44.229C103.19 44.3581 105.255 45.1326 104.997 45.649C104.739 46.1654 97.5097 57.2677 97.5097 57.2677C97.5097 57.2677 97.1224 59.7205 96.4769 59.7205C95.8314 59.7205 92.9913 56.8804 92.9913 56.8804Z" fill="#333333"/>
<path d="M84.3419 58.4296C84.3419 58.4296 81.5018 58.3005 81.3727 58.4296C81.2436 58.5587 79.4362 58.4296 79.4362 58.4296C79.4362 58.4296 74.5306 57.2677 74.1433 56.8804C73.756 56.4931 67.3012 54.8149 67.043 55.5895C66.7848 56.364 66.1393 57.9132 66.7848 58.1714C67.4302 58.4296 84.8583 62.8189 84.8583 62.8189L84.3419 58.4296Z" fill="#333333"/>
<path d="M88.0234 47.1766C86.7553 47.1766 85.7273 46.1486 85.7273 44.8805C85.7273 43.6125 86.7553 42.5845 88.0234 42.5845C89.2915 42.5845 90.3195 43.6125 90.3195 44.8805C90.3195 46.1486 89.2915 47.1766 88.0234 47.1766Z" fill="#333333"/>
<path d="M91.0849 43.6369C91.0848 43.0693 90.8746 42.5219 90.4948 42.1002C90.115 41.6785 89.5924 41.4124 89.028 41.3532C89.1074 41.345 89.1873 41.3408 89.2672 41.3408C89.8761 41.3408 90.4601 41.5827 90.8907 42.0133C91.3213 42.4439 91.5632 43.0279 91.5632 43.6369C91.5632 44.2458 91.3213 44.8299 90.8907 45.2604C90.4601 45.691 89.8761 45.9329 89.2672 45.9329C89.1873 45.9329 89.1074 45.9288 89.028 45.9205C89.5924 45.8614 90.115 45.5953 90.4948 45.1736C90.8746 44.7519 91.0848 44.2044 91.0849 43.6369Z" fill="#333333"/>
<path d="M85.4369 51.8402C83.3234 51.8402 81.6101 50.8122 81.6101 49.5441C81.6101 48.276 83.3234 47.248 85.4369 47.248C87.5504 47.248 89.2637 48.276 89.2637 49.5441C89.2637 50.8122 87.5504 51.8402 85.4369 51.8402Z" fill="#333333"/>
<path d="M89.8284 55.5246C89.8284 55.5246 90.9903 56.4283 91.2485 56.5574C91.5067 56.6865 93.0559 55.3955 93.314 55.3955C93.5722 55.3955 96.9287 59.2684 96.9287 59.2684C96.9287 59.2684 96.305 59.9869 96.9287 63.6577C97.1627 65.0343 97.6268 70.92 97.6268 71.6946C97.6268 72.4692 100.156 74.3727 97.8324 76.051C95.5087 77.7292 84.4064 79.5366 84.2773 78.5038C84.1482 77.471 85.5683 74.76 84.9228 73.469C84.2773 72.1781 84.2773 67.4015 84.2773 67.4015L83.5027 62.3667L82.8572 58.3647C82.8572 58.3647 85.891 57.5256 86.1492 57.5256C86.4074 57.5256 87.5692 59.333 89.8284 55.5246Z" fill="#333333"/>
</g>
</svg>
