<svg width="17" height="13" viewBox="0 0 17 13" fill="none" xmlns="http://www.w3.org/2000/svg">
<path d="M13 5.6875V7.3125H16.25V5.6875H13ZM11.375 11.0581C12.155 11.635 13.1706 12.3988 13.975 13C14.3 12.5694 14.625 12.1306 14.95 11.7C14.1456 11.0988 13.13 10.335 12.35 9.75C12.025 10.1888 11.7 10.6275 11.375 11.0581ZM14.95 1.3C14.625 0.869375 14.3 0.430625 13.975 0C13.1706 0.60125 12.155 1.365 11.375 1.95C11.7 2.38063 12.025 2.81938 12.35 3.25C13.13 2.665 14.1456 1.90937 14.95 1.3ZM1.625 4.0625C0.73125 4.0625 0 4.79375 0 5.6875V7.3125C0 8.20625 0.73125 8.9375 1.625 8.9375H2.4375V12.1875H4.0625V8.9375H4.875L8.9375 11.375V1.625L4.875 4.0625H1.625ZM5.71187 5.45188L7.3125 4.49312V8.50688L5.71187 7.54812L5.32188 7.3125H1.625V5.6875H5.32188L5.71187 5.45188ZM10.9688 6.5C10.9688 5.41937 10.4975 4.44437 9.75 3.77812V9.21375C10.4975 8.55562 10.9688 7.58063 10.9688 6.5Z" fill="white"/>
</svg>
