<svg width="130" height="99" viewBox="0 0 130 99" fill="none" xmlns="http://www.w3.org/2000/svg">
<g clip-path="url(#clip0)">
<path opacity="0.1" d="M122.224 53.4907C117.654 59.7618 119.162 68.7132 121.804 75.8447C122.689 78.232 123.694 80.757 123.235 83.3544C122.675 86.5297 120.041 88.9088 117.304 90.2046C112.313 92.5662 106.418 92.1891 101.954 89.2135C98.1015 86.6453 95.3897 82.3773 91.4626 79.9317C84.8903 75.84 76.358 77.6682 69.0432 80.7921C63.8682 83.0019 58.1995 85.848 53.1564 83.8074C49.6076 82.3715 47.218 78.7165 45.9607 74.8093C45.3537 72.9228 44.9287 70.8752 43.7193 69.3985C43.0002 68.5206 42.05 67.9089 41.0729 67.3976C32.1553 62.7281 20.6847 65.6465 12.0391 60.4365C6.20226 56.9181 2.56939 50.0901 1.05997 42.9119C-0.449442 35.7337 -0.0758821 28.1563 0.525316 20.7084C0.952575 15.4156 1.62849 9.75964 4.81075 5.60028C8.17629 1.20278 13.817 -0.54478 18.8613 0.143971C23.9055 0.832722 28.4279 3.63442 32.3841 6.97895C37.3326 11.1511 41.8854 16.3892 48.0398 17.9733C52.2318 19.0519 56.6854 18.2885 61.0432 17.9511C68.3276 17.3884 75.5863 18.0363 82.8007 18.7683C89.7069 19.4687 96.6609 20.2508 103.202 22.5471C107.83 24.172 111.499 27.2434 115.857 29.3424C118.697 30.7105 121.823 31.028 124.496 32.7954C127.795 34.9726 130.776 38.8296 129.809 43.4582C128.894 47.8581 124.652 50.1625 122.224 53.4907Z" fill="url(#paint0_linear)"/>
<g opacity="0.5">
<path opacity="0.5" d="M99.8093 82.0945C99.8093 82.0945 100.195 70.6823 106.369 64.2337C108.96 61.5277 110.662 58.091 111.113 54.3717C111.324 52.6066 111.372 50.8259 111.258 49.052" stroke="#535461" stroke-width="2" stroke-miterlimit="10"/>
<path opacity="0.5" d="M115.125 44.9673C114.703 46.2421 111.17 49.1698 111.17 49.1698C111.17 49.1698 110.088 44.7093 110.511 43.4357C110.611 43.1327 110.77 42.8525 110.979 42.611C111.188 42.3695 111.442 42.1715 111.728 42.0283C112.013 41.8851 112.324 41.7995 112.642 41.7764C112.96 41.7533 113.28 41.7931 113.583 41.8936C113.886 41.9941 114.166 42.1533 114.408 42.3621C114.649 42.5709 114.847 42.8252 114.991 43.1105C115.134 43.3958 115.219 43.7065 115.242 44.0249C115.266 44.3433 115.226 44.6631 115.125 44.9661V44.9673Z" fill="#0076A8"/>
<path opacity="0.5" d="M116.597 53.2907C115.547 54.1312 110.994 54.6705 110.994 54.6705C110.994 54.6705 112.511 50.3384 113.562 49.499C113.809 49.284 114.097 49.1211 114.409 49.0201C114.721 48.9192 115.049 48.8823 115.376 48.9116C115.702 48.941 116.019 49.036 116.308 49.191C116.596 49.346 116.851 49.5577 117.055 49.8135C117.26 50.0692 117.411 50.3637 117.499 50.6793C117.587 50.9948 117.61 51.3249 117.567 51.6497C117.525 51.9745 117.417 52.2873 117.25 52.5693C117.083 52.8513 116.861 53.0967 116.597 53.2907Z" fill="#0076A8"/>
<path opacity="0.5" d="M112.432 65.2959C111.104 65.492 106.898 63.6616 106.898 63.6616C106.898 63.6616 110.393 60.6871 111.721 60.491C112.037 60.4443 112.359 60.4603 112.669 60.538C112.978 60.6157 113.269 60.7537 113.526 60.944C113.782 61.1343 113.998 61.3732 114.162 61.6471C114.326 61.921 114.435 62.2245 114.481 62.5403C114.528 62.8561 114.512 63.178 114.434 63.4876C114.357 63.7973 114.219 64.0886 114.028 64.3449C113.838 64.6012 113.599 64.8175 113.325 64.9815C113.051 65.1455 112.748 65.2539 112.432 65.3006V65.2959Z" fill="#0076A8"/>
<path opacity="0.5" d="M107.234 73.6707C105.958 74.0886 101.502 72.9913 101.502 72.9913C101.502 72.9913 104.445 69.4693 105.721 69.0514C106.333 68.8501 107.001 68.9005 107.576 69.1913C108.152 69.4822 108.588 69.9897 108.789 70.6022C108.991 71.2148 108.94 71.8822 108.649 72.4577C108.359 73.0331 107.851 73.4695 107.238 73.6707H107.234Z" fill="#0076A8"/>
<path opacity="0.5" d="M106.066 53.3106C106.686 54.5013 110.644 56.8326 110.644 56.8326C110.644 56.8326 111.003 52.2576 110.383 51.0658C110.236 50.7826 110.034 50.5313 109.79 50.326C109.546 50.1208 109.263 49.9658 108.959 49.8697C108.654 49.7737 108.334 49.7385 108.016 49.7663C107.698 49.794 107.389 49.8841 107.105 50.0315C106.822 50.1788 106.571 50.3804 106.366 50.6249C106.16 50.8694 106.005 51.1519 105.909 51.4563C105.813 51.7606 105.778 52.081 105.806 52.3989C105.834 52.7169 105.924 53.0263 106.071 53.3095L106.066 53.3106Z" fill="#0076A8"/>
<path opacity="0.5" d="M100.112 63.1806C101.06 64.1321 105.528 65.1734 105.528 65.1734C105.528 65.1734 104.502 60.7 103.555 59.7486C103.1 59.2919 102.483 59.0347 101.838 59.0335C101.193 59.0322 100.575 59.2872 100.118 59.7421C99.6614 60.1971 99.4042 60.8148 99.403 61.4595C99.4018 62.1041 99.6567 62.7228 100.112 63.1795V63.1806Z" fill="#0076A8"/>
<path opacity="0.5" d="M95.6406 73.569C96.4134 74.6664 100.643 76.449 100.643 76.449C100.643 76.449 100.388 71.867 99.6144 70.7685C99.4353 70.4962 99.2033 70.2626 98.9321 70.0818C98.661 69.901 98.3562 69.7765 98.036 69.7158C97.7158 69.6551 97.3866 69.6595 97.0681 69.7286C96.7496 69.7978 96.4482 69.9302 96.1819 70.1182C95.9157 70.3062 95.6899 70.5457 95.5181 70.8227C95.3463 71.0997 95.232 71.4084 95.1819 71.7305C95.1319 72.0525 95.1471 72.3814 95.2267 72.6974C95.3063 73.0135 95.4486 73.3103 95.6453 73.5702L95.6406 73.569Z" fill="#0076A8"/>
<path opacity="0.5" d="M101.166 77.3712C101.166 77.3712 97.6637 72.2768 98.2777 67.4836C98.5483 65.4748 98.16 63.4324 97.171 61.6631C96.6949 60.8268 96.1431 60.0359 95.5227 59.3003" stroke="#535461" stroke-width="2" stroke-miterlimit="10"/>
<path opacity="0.5" d="M95.8928 56.2767C96.1181 56.9678 95.5227 59.3796 95.5227 59.3796C95.5227 59.3796 93.6164 57.785 93.3911 57.0951C93.2827 56.7633 93.3106 56.4021 93.4685 56.0909C93.6265 55.7797 93.9016 55.544 94.2333 55.4356C94.5651 55.3273 94.9263 55.3551 95.2375 55.5131C95.5487 55.6711 95.7844 55.9462 95.8928 56.2779V56.2767Z" fill="#0076A8"/>
<path opacity="0.5" d="M99.2116 59.4275C99.026 60.1279 97.2142 61.8311 97.2142 61.8311C97.2142 61.8311 96.4811 59.4566 96.6667 58.7539C96.756 58.4164 96.9758 58.1282 97.2775 57.9528C97.5793 57.7773 97.9385 57.7289 98.2759 57.8182C98.6134 57.9076 98.9016 58.1273 99.077 58.4291C99.2525 58.7309 99.3009 59.09 99.2116 59.4275Z" fill="#0076A8"/>
<path opacity="0.5" d="M101.259 65.9953C100.744 66.5077 98.322 67.0622 98.322 67.0622C98.322 67.0622 98.887 64.6423 99.403 64.1298C99.5256 64.0079 99.6711 63.9114 99.831 63.8457C99.991 63.7801 100.162 63.7465 100.335 63.7471C100.508 63.7476 100.679 63.7822 100.839 63.8489C100.998 63.9155 101.143 64.013 101.265 64.1356C101.387 64.2583 101.483 64.4037 101.549 64.5637C101.615 64.7236 101.648 64.8949 101.648 65.0678C101.647 65.2407 101.613 65.4118 101.546 65.5713C101.479 65.7309 101.382 65.8757 101.259 65.9976V65.9953Z" fill="#0076A8"/>
<path opacity="0.5" d="M101.69 71.3151C101.268 71.9069 98.9698 72.8607 98.9698 72.8607C98.9698 72.8607 99.1181 70.38 99.5395 69.7881C99.6396 69.6473 99.7665 69.5275 99.9129 69.4356C100.059 69.3438 100.222 69.2817 100.393 69.2528C100.563 69.224 100.738 69.229 100.906 69.2676C101.075 69.3061 101.234 69.3775 101.375 69.4776C101.516 69.5777 101.635 69.7046 101.727 69.851C101.819 69.9974 101.881 70.1605 101.91 70.3309C101.939 70.5013 101.934 70.6757 101.895 70.8442C101.857 71.0126 101.785 71.1718 101.685 71.3127L101.69 71.3151Z" fill="#0076A8"/>
<path opacity="0.5" d="M94.632 62.8211C95.2845 63.141 97.7559 62.8842 97.7559 62.8842C97.7559 62.8842 96.4402 60.7759 95.7877 60.4572C95.4742 60.3039 95.1127 60.2815 94.7827 60.3948C94.4526 60.5081 94.1811 60.7478 94.0279 61.0613C93.8746 61.3748 93.8522 61.7363 93.9654 62.0663C94.0787 62.3964 94.3185 62.6679 94.632 62.8211Z" fill="#0076A8"/>
<path opacity="0.5" d="M95.2146 69.0374C95.9337 69.1472 98.2147 68.1631 98.2147 68.1631C98.2147 68.1631 96.3282 66.5451 95.6103 66.44C95.2652 66.3875 94.9135 66.4743 94.6324 66.6812C94.3513 66.888 94.1639 67.1981 94.1114 67.5432C94.0589 67.8882 94.1457 68.24 94.3525 68.5211C94.5594 68.8022 94.8695 68.9896 95.2146 69.0421V69.0374Z" fill="#0076A8"/>
<path opacity="0.5" d="M96.6084 74.9991C97.2983 75.2326 99.7136 74.6489 99.7136 74.6489C99.7136 74.6489 98.1283 72.7356 97.4384 72.5056C97.1071 72.3955 96.7457 72.4216 96.4336 72.578C96.1215 72.7344 95.8844 73.0084 95.7743 73.3397C95.6642 73.671 95.6903 74.0324 95.8467 74.3445C96.0031 74.6566 96.2771 74.8937 96.6084 75.0038V74.9991Z" fill="#0076A8"/>
<path opacity="0.5" d="M95.8928 56.2767C96.1181 56.9678 95.5227 59.3796 95.5227 59.3796C95.5227 59.3796 93.6164 57.785 93.3911 57.0951C93.2827 56.7633 93.3106 56.4021 93.4685 56.0909C93.6265 55.7797 93.9016 55.544 94.2333 55.4356C94.5651 55.3273 94.9263 55.3551 95.2375 55.5131C95.5487 55.6711 95.7844 55.9462 95.8928 56.2779V56.2767Z" fill="white"/>
<path opacity="0.5" d="M99.2116 59.4275C99.026 60.1279 97.2142 61.8311 97.2142 61.8311C97.2142 61.8311 96.4811 59.4566 96.6667 58.7539C96.756 58.4164 96.9758 58.1282 97.2775 57.9528C97.5793 57.7773 97.9385 57.7289 98.2759 57.8182C98.6134 57.9076 98.9016 58.1273 99.077 58.4291C99.2525 58.7309 99.3009 59.09 99.2116 59.4275Z" fill="white"/>
<path opacity="0.5" d="M101.259 65.9953C100.744 66.5077 98.322 67.0622 98.322 67.0622C98.322 67.0622 98.887 64.6423 99.403 64.1298C99.5256 64.0079 99.6711 63.9114 99.831 63.8457C99.991 63.7801 100.162 63.7465 100.335 63.7471C100.508 63.7476 100.679 63.7822 100.839 63.8489C100.998 63.9155 101.143 64.013 101.265 64.1356C101.387 64.2583 101.483 64.4037 101.549 64.5637C101.615 64.7236 101.648 64.8949 101.648 65.0678C101.647 65.2407 101.613 65.4118 101.546 65.5713C101.479 65.7309 101.382 65.8757 101.259 65.9976V65.9953Z" fill="white"/>
<path opacity="0.5" d="M101.69 71.3151C101.268 71.9069 98.9698 72.8607 98.9698 72.8607C98.9698 72.8607 99.1181 70.38 99.5395 69.7881C99.6396 69.6473 99.7665 69.5275 99.9129 69.4356C100.059 69.3438 100.222 69.2817 100.393 69.2528C100.563 69.224 100.738 69.229 100.906 69.2676C101.075 69.3061 101.234 69.3775 101.375 69.4776C101.516 69.5777 101.635 69.7046 101.727 69.851C101.819 69.9974 101.881 70.1605 101.91 70.3309C101.939 70.5013 101.934 70.6757 101.895 70.8442C101.857 71.0126 101.785 71.1718 101.685 71.3127L101.69 71.3151Z" fill="white"/>
<path opacity="0.5" d="M94.632 62.8211C95.2845 63.141 97.7559 62.8842 97.7559 62.8842C97.7559 62.8842 96.4402 60.7759 95.7877 60.4572C95.4742 60.3039 95.1127 60.2815 94.7827 60.3948C94.4526 60.5081 94.1811 60.7478 94.0279 61.0613C93.8746 61.3748 93.8522 61.7363 93.9654 62.0663C94.0787 62.3964 94.3185 62.6679 94.632 62.8211Z" fill="white"/>
<path opacity="0.5" d="M95.2146 69.0374C95.9337 69.1472 98.2147 68.1631 98.2147 68.1631C98.2147 68.1631 96.3282 66.5451 95.6103 66.44C95.2652 66.3875 94.9135 66.4743 94.6324 66.6812C94.3513 66.888 94.1639 67.1981 94.1114 67.5432C94.0589 67.8882 94.1457 68.24 94.3525 68.5211C94.5594 68.8022 94.8695 68.9896 95.2146 69.0421V69.0374Z" fill="white"/>
<path opacity="0.5" d="M96.6084 74.9991C97.2983 75.2326 99.7136 74.6489 99.7136 74.6489C99.7136 74.6489 98.1283 72.7356 97.4384 72.5056C97.1071 72.3955 96.7457 72.4216 96.4336 72.578C96.1215 72.7344 95.8844 73.0084 95.7743 73.3397C95.6642 73.671 95.6903 74.0324 95.8467 74.3445C96.0031 74.6566 96.2771 74.8937 96.6084 75.0038V74.9991Z" fill="white"/>
<path opacity="0.5" d="M94.6857 91.1849H104.647L107.138 75.9939H92.1957L94.6857 91.1849Z" fill="#474059"/>
<path opacity="0.1" d="M94.102 75.9939L96.4286 90.1892H104.81L104.647 91.1849H94.6857L92.1957 75.9939H94.102Z" fill="black"/>
</g>
<path d="M96.5745 4.58667H23.4968V92.7585H96.5745V4.58667Z" fill="url(#paint1_linear)"/>
<path d="M95.6406 5.71411H24.4308V91.6329H95.6406V5.71411Z" fill="white"/>
<path d="M80.8151 15.4033H52.0977V16.8042H80.8151V15.4033Z" fill="#2C437E"/>
<path d="M80.8151 19.8396H52.0977V21.2405H80.8151V19.8396Z" fill="#2C437E"/>
<path d="M73.9275 24.2754H58.9851V25.6762H73.9275V24.2754Z" fill="#0076A8"/>
<path opacity="0.5" d="M80.8151 43.5374H52.0977V44.9382H80.8151V43.5374Z" fill="#2C437E"/>
<path opacity="0.5" d="M80.8151 47.9731H52.0977V49.374H80.8151V47.9731Z" fill="#2C437E"/>
<path opacity="0.5" d="M73.9275 52.4092H58.9851V53.81H73.9275V52.4092Z" fill="#0076A8"/>
<path opacity="0.5" d="M80.8151 71.6709H52.0977V73.0717H80.8151V71.6709Z" fill="#2C437E"/>
<path opacity="0.5" d="M80.8151 76.1069H52.0977V77.5078H80.8151V76.1069Z" fill="#2C437E"/>
<path opacity="0.5" d="M73.9275 80.543H58.9851V81.9438H73.9275V80.543Z" fill="#0076A8"/>
<g opacity="0.5">
<path opacity="0.5" d="M41.987 51.3505L41.3846 51.0797C41.3938 50.9882 41.3977 50.8962 41.3963 50.8042C41.4005 50.7264 41.4005 50.6485 41.3963 50.5707C41.3368 49.9567 40.9457 49.422 40.669 48.8605C40.4157 48.3479 40.2548 47.7947 40.1939 47.2262C40.1203 46.5258 40.1939 45.7997 39.9371 45.1413C39.7281 44.6101 39.3149 44.1665 38.8724 43.7743C38.3758 43.3082 37.7955 42.9403 37.1622 42.6898C36.5155 42.4563 35.7719 42.3968 35.1252 42.6349C34.5415 42.8497 34.092 43.2781 33.6578 43.6949C33.3424 43.9727 33.0639 44.2897 32.8289 44.6381C32.5639 45.0724 32.4507 45.572 32.362 46.0647C32.2226 46.8534 32.1267 47.6492 32.0748 48.4484C32.0293 49.115 31.9581 49.8715 31.3884 50.28C31.1105 50.4797 30.7195 50.5917 30.5922 50.8941C30.5562 50.9848 30.5418 51.0828 30.5502 51.1801C30.5467 51.261 30.5526 51.3421 30.5677 51.4217C30.5759 51.4684 30.5852 51.514 30.5969 51.5606C30.4334 51.967 30.2962 52.3835 30.186 52.8074C30.1008 53.1226 30.0226 53.4319 29.9525 53.732H30.1416H30.242L31.33 53.7576H31.3452L32.5126 53.7845H32.5184L33.6064 53.8102H33.6332L33.9473 53.8324H34.05L38.4008 53.9327H38.4242L38.7137 53.9398H38.8152L39.6861 53.9596L40.9702 53.9888H40.9795L41.9461 54.0121H42.0489H42.2473L42.1959 52.9988C42.4084 51.4474 41.987 51.3505 41.987 51.3505ZM37.0992 51.2268C37.0992 52.086 36.1793 53.1378 36.1793 53.1378L35.2536 51.877L35.2874 51.828L36.1793 53.042C36.1793 53.042 37.0992 51.9914 37.0992 51.1311C37.1206 51.0873 37.1452 51.0452 37.1727 51.005L37.1937 51.0703C37.1584 51.1201 37.1268 51.1724 37.0992 51.2268ZM38.514 54.5982C38.514 54.555 38.514 54.5106 38.5059 54.4674C38.4977 54.4242 38.4989 54.3857 38.493 54.3437C38.4872 54.3016 38.4825 54.2608 38.4767 54.2188C38.4708 54.1767 38.4627 54.1359 38.4545 54.0938C38.4463 54.0518 38.4382 54.011 38.4288 53.9689C38.4288 53.9549 38.423 53.9421 38.4195 53.9269C38.4066 53.872 38.3926 53.8172 38.3775 53.7623C38.3623 53.7074 38.3529 53.6736 38.3389 53.6304C38.3389 53.6106 38.3273 53.5907 38.3203 53.572C38.3133 53.5534 38.3004 53.509 38.2899 53.4775L38.2689 53.4168C38.2596 53.3899 38.2502 53.3619 38.2397 53.3351C38.2222 53.286 38.2035 53.2382 38.1848 53.1891C38.1662 53.1401 38.1463 53.0922 38.1265 53.0444C38.0868 52.9463 38.0436 52.8494 38.0004 52.7514C37.8311 52.3731 37.6408 52.0007 37.4657 51.6319C37.3718 51.4388 37.2884 51.2409 37.2159 51.0388L37.1937 51.068C37.1584 51.1181 37.1268 51.1708 37.0992 51.2256C37.0992 52.0848 36.1793 53.1366 36.1793 53.1366L35.2536 51.8758L34.4434 53.0432C34.3267 53.1016 34.2099 53.3 34.1189 53.5825C34.0932 53.6584 34.0687 53.7425 34.0453 53.83C34.029 53.8896 34.0138 53.9468 33.9998 54.0133C33.9916 54.0448 33.9846 54.0763 33.9776 54.109L33.9566 54.2082V54.2234C33.9426 54.2911 33.9286 54.3612 33.9158 54.4324C33.9029 54.5036 33.8877 54.5853 33.8749 54.6659C33.8656 54.7164 33.8574 54.7666 33.8504 54.8164C33.834 54.9133 33.82 55.0114 33.806 55.1095C33.7978 55.1667 33.7897 55.2262 33.7827 55.2787L33.7547 55.4959C33.8142 55.6745 33.8807 55.8461 33.9496 56.0259C33.9934 56.1202 34.0191 56.222 34.0255 56.3259C35.4616 56.7087 36.9729 56.7087 38.409 56.3259C38.4085 56.3224 38.4085 56.3188 38.409 56.3154C38.3875 56.2177 38.378 56.1177 38.381 56.0177C38.4045 55.7371 38.4435 55.4581 38.4977 55.1818C38.515 55.0456 38.5224 54.9083 38.5199 54.7709V54.7219C38.5164 54.6775 38.5152 54.6378 38.514 54.5993V54.5982ZM38.514 54.5982C38.514 54.555 38.514 54.5106 38.5059 54.4674C38.4977 54.4242 38.4989 54.3857 38.493 54.3437C38.4872 54.3016 38.4825 54.2608 38.4767 54.2188C38.4708 54.1767 38.4627 54.1359 38.4545 54.0938C38.4463 54.0518 38.4382 54.011 38.4288 53.9689C38.4288 53.9549 38.423 53.9421 38.4195 53.9269C38.4066 53.872 38.3926 53.8172 38.3775 53.7623C38.3623 53.7074 38.3529 53.6736 38.3389 53.6304C38.3389 53.6106 38.3273 53.5907 38.3203 53.572C38.3133 53.5534 38.3004 53.509 38.2899 53.4775L38.2689 53.4168C38.2596 53.3899 38.2502 53.3619 38.2397 53.3351C38.2222 53.286 38.2035 53.2382 38.1848 53.1891C38.1662 53.1401 38.1463 53.0922 38.1265 53.0444C38.0868 52.9463 38.0436 52.8494 38.0004 52.7514C37.8311 52.3731 37.6408 52.0007 37.4657 51.6319C37.3718 51.4388 37.2884 51.2409 37.2159 51.0388L37.1937 51.068C37.1584 51.1181 37.1268 51.1708 37.0992 51.2256C37.0992 52.0848 36.1793 53.1366 36.1793 53.1366L35.2536 51.8758L34.4434 53.0432C34.3267 53.1016 34.2099 53.3 34.1189 53.5825C34.0932 53.6584 34.0687 53.7425 34.0453 53.83C34.029 53.8896 34.0138 53.9468 33.9998 54.0133C33.9916 54.0448 33.9846 54.0763 33.9776 54.109L33.9566 54.2082V54.2234C33.9426 54.2911 33.9286 54.3612 33.9158 54.4324C33.9029 54.5036 33.8877 54.5853 33.8749 54.6659C33.8656 54.7164 33.8574 54.7666 33.8504 54.8164C33.834 54.9133 33.82 55.0114 33.806 55.1095C33.7978 55.1667 33.7897 55.2262 33.7827 55.2787L33.7547 55.4959C33.8142 55.6745 33.8807 55.8461 33.9496 56.0259C33.9934 56.1202 34.0191 56.222 34.0255 56.3259C35.4616 56.7087 36.9729 56.7087 38.409 56.3259C38.4085 56.3224 38.4085 56.3188 38.409 56.3154C38.3875 56.2177 38.378 56.1177 38.381 56.0177C38.4045 55.7371 38.4435 55.4581 38.4977 55.1818C38.515 55.0456 38.5224 54.9083 38.5199 54.7709V54.7219C38.5164 54.6775 38.5152 54.6378 38.514 54.5993V54.5982ZM38.514 54.5982C38.514 54.555 38.514 54.5106 38.5059 54.4674C38.4977 54.4242 38.4989 54.3857 38.493 54.3437C38.4872 54.3016 38.4825 54.2608 38.4767 54.2188C38.4708 54.1767 38.4627 54.1359 38.4545 54.0938C38.4463 54.0518 38.4382 54.011 38.4288 53.9689C38.4288 53.9549 38.423 53.9421 38.4195 53.9269C38.4066 53.872 38.3926 53.8172 38.3775 53.7623C38.3623 53.7074 38.3529 53.6736 38.3389 53.6304C38.3389 53.6106 38.3273 53.5907 38.3203 53.572C38.3133 53.5534 38.3004 53.509 38.2899 53.4775L38.2689 53.4168C38.2596 53.3899 38.2502 53.3619 38.2397 53.3351C38.2222 53.286 38.2035 53.2382 38.1848 53.1891C38.1662 53.1401 38.1463 53.0922 38.1265 53.0444C38.0868 52.9463 38.0436 52.8494 38.0004 52.7514C37.8311 52.3731 37.6408 52.0007 37.4657 51.6319C37.3718 51.4388 37.2884 51.2409 37.2159 51.0388L37.1937 51.068C37.1584 51.1181 37.1268 51.1708 37.0992 51.2256C37.0992 52.0848 36.1793 53.1366 36.1793 53.1366L35.2536 51.8758L34.4434 53.0432C34.3267 53.1016 34.2099 53.3 34.1189 53.5825C34.0932 53.6584 34.0687 53.7425 34.0453 53.83C34.029 53.8896 34.0138 53.9468 33.9998 54.0133C33.9916 54.0448 33.9846 54.0763 33.9776 54.109L33.9566 54.2082V54.2234C33.9426 54.2911 33.9286 54.3612 33.9158 54.4324C33.9029 54.5036 33.8877 54.5853 33.8749 54.6659C33.8656 54.7164 33.8574 54.7666 33.8504 54.8164C33.834 54.9133 33.82 55.0114 33.806 55.1095C33.7978 55.1667 33.7897 55.2262 33.7827 55.2787L33.7547 55.4959C33.8142 55.6745 33.8807 55.8461 33.9496 56.0259C33.9934 56.1202 34.0191 56.222 34.0255 56.3259C35.4616 56.7087 36.9729 56.7087 38.409 56.3259C38.4085 56.3224 38.4085 56.3188 38.409 56.3154C38.3875 56.2177 38.378 56.1177 38.381 56.0177C38.4045 55.7371 38.4435 55.4581 38.4977 55.1818C38.515 55.0456 38.5224 54.9083 38.5199 54.7709V54.7219C38.5164 54.6775 38.5152 54.6378 38.514 54.5993V54.5982ZM38.514 54.5982C38.514 54.555 38.514 54.5106 38.5059 54.4674C38.4977 54.4242 38.4989 54.3857 38.493 54.3437C38.4872 54.3016 38.4825 54.2608 38.4767 54.2188C38.4708 54.1767 38.4627 54.1359 38.4545 54.0938C38.4463 54.0518 38.4382 54.011 38.4288 53.9689C38.4288 53.9549 38.423 53.9421 38.4195 53.9269C38.4066 53.872 38.3926 53.8172 38.3775 53.7623C38.3623 53.7074 38.3529 53.6736 38.3389 53.6304C38.3389 53.6106 38.3273 53.5907 38.3203 53.572C38.3133 53.5534 38.3004 53.509 38.2899 53.4775L38.2689 53.4168C38.2596 53.3899 38.2502 53.3619 38.2397 53.3351C38.2222 53.286 38.2035 53.2382 38.1848 53.1891C38.1662 53.1401 38.1463 53.0922 38.1265 53.0444C38.0868 52.9463 38.0436 52.8494 38.0004 52.7514C37.8311 52.3731 37.6408 52.0007 37.4657 51.6319C37.3718 51.4388 37.2884 51.2409 37.2159 51.0388L37.1937 51.068C37.1584 51.1181 37.1268 51.1708 37.0992 51.2256C37.0992 52.0848 36.1793 53.1366 36.1793 53.1366L35.2536 51.8758L34.4434 53.0432C34.3267 53.1016 34.2099 53.3 34.1189 53.5825C34.0932 53.6584 34.0687 53.7425 34.0453 53.83C34.029 53.8896 34.0138 53.9468 33.9998 54.0133C33.9916 54.0448 33.9846 54.0763 33.9776 54.109L33.9566 54.2082V54.2234C33.9426 54.2911 33.9286 54.3612 33.9158 54.4324C33.9029 54.5036 33.8877 54.5853 33.8749 54.6659C33.8656 54.7164 33.8574 54.7666 33.8504 54.8164C33.834 54.9133 33.82 55.0114 33.806 55.1095C33.7978 55.1667 33.7897 55.2262 33.7827 55.2787L33.7547 55.4959C33.8142 55.6745 33.8807 55.8461 33.9496 56.0259C33.9934 56.1202 34.0191 56.222 34.0255 56.3259C35.4616 56.7087 36.9729 56.7087 38.409 56.3259C38.4085 56.3224 38.4085 56.3188 38.409 56.3154C38.3875 56.2177 38.378 56.1177 38.381 56.0177C38.4045 55.7371 38.4435 55.4581 38.4977 55.1818C38.515 55.0456 38.5224 54.9083 38.5199 54.7709V54.7219C38.5164 54.6775 38.5152 54.6378 38.514 54.5993V54.5982Z" fill="url(#paint2_linear)"/>
<path opacity="0.5" d="M38.5561 46.4556H33.1862V50.0744H38.5561V46.4556Z" fill="#493545"/>
<path opacity="0.5" d="M39.448 50.4469L37.2008 53.6128L34.852 53.4085C34.852 53.4085 31.7876 53.6117 33.8305 51.2641C34.8123 50.1352 35.1333 49.1943 35.2022 48.5231C35.2769 47.797 35.0563 47.3837 35.0563 47.3837L37.6093 47.0779C37.4941 47.4219 37.4796 47.7917 37.5673 48.1437C37.8872 49.4698 39.448 50.4469 39.448 50.4469Z" fill="#C77485"/>
<path opacity="0.1" d="M37.5661 48.1403C37.2331 48.3925 36.8433 48.559 36.431 48.6254C36.0186 48.6917 35.5962 48.6558 35.201 48.5209C35.2757 47.7948 35.0551 47.3815 35.0551 47.3815L37.6081 47.0757C37.4931 47.4193 37.4786 47.7887 37.5661 48.1403Z" fill="black"/>
<path opacity="0.5" d="M36.0264 48.5558C37.4364 48.5558 38.5795 47.4128 38.5795 46.0028C38.5795 44.5927 37.4364 43.4497 36.0264 43.4497C34.6164 43.4497 33.4734 44.5927 33.4734 46.0028C33.4734 47.4128 34.6164 48.5558 36.0264 48.5558Z" fill="#C77485"/>
<path opacity="0.1" d="M39.3546 50.5777L39.2951 50.3443L39.2437 50.1388L39.1679 49.8353L39.1538 49.7793L39.1422 49.7326C39.1422 49.7326 39.2029 49.5493 38.8025 49.6088L38.7278 49.6217C38.6647 49.6345 38.5912 49.652 38.5071 49.6754L38.4312 49.6987L38.3308 49.7302C38.013 49.8337 37.7231 50.0086 37.4833 50.2415C37.3757 50.3445 37.2805 50.4597 37.1997 50.5847C37.1915 50.5964 37.1856 50.6069 37.1786 50.6163C37.151 50.6596 37.1264 50.7049 37.1051 50.7517C37.1051 51.6716 36.1852 52.7946 36.1852 52.7946L35.2875 51.4976L35.27 51.4719L35.0564 51.1614L34.9805 51.061L34.9548 51.026L34.4878 50.3991L34.3711 50.2427L34.3326 50.1902L34.2754 50.1143L34.1411 49.9357L33.6158 50.2427L32.9154 50.6513L32.5068 53.3071V53.3806L32.5196 53.6001L32.6049 55.0429V55.0628L32.4554 55.6605L32.4776 55.6722C32.8302 55.8623 33.1971 56.0247 33.575 56.1578L33.6742 56.1928C33.7909 56.2313 33.9007 56.2664 34.0151 56.3002C34.0193 56.3175 34.0224 56.335 34.0244 56.3527C34.0244 56.3364 34.0244 56.3189 34.0244 56.3025C35.4569 56.7119 36.9754 56.7119 38.4079 56.3025L38.4347 56.2944C38.5013 56.2757 38.569 56.2559 38.6344 56.2337L38.7406 56.1998C39.0287 56.1035 39.3109 55.9904 39.5858 55.8613L39.6838 53.7717L39.7539 52.2646V52.1782L39.3546 50.5777Z" fill="black"/>
<path opacity="0.5" d="M38.5141 54.4593C38.5141 54.4126 38.5141 54.3659 38.5059 54.3192C38.4977 54.2725 38.4989 54.2317 38.4931 54.1873C38.4872 54.143 38.4826 54.0986 38.4767 54.0542C38.4709 54.0099 38.4627 53.9655 38.4545 53.9212C38.4464 53.8768 38.4382 53.8324 38.4289 53.7881C38.4289 53.7729 38.423 53.7589 38.4195 53.7437C38.4067 53.6853 38.3927 53.627 38.3775 53.5674C38.3623 53.5079 38.353 53.4729 38.339 53.4262C38.339 53.4052 38.3273 53.3842 38.3203 53.3643C38.3133 53.3445 38.3004 53.2966 38.2899 53.2628L38.2689 53.1974C38.2596 53.1682 38.2502 53.139 38.2397 53.1098C38.2222 53.0573 38.2036 53.0059 38.1849 52.9534C38.1662 52.9009 38.1464 52.8495 38.1265 52.7981C38.0868 52.6931 38.0436 52.5892 38.0004 52.4853C37.8312 52.0814 37.6409 51.6833 37.4658 51.2887C37.3717 51.0819 37.2883 50.8703 37.216 50.6548L37.1938 50.6864C37.1583 50.7401 37.1267 50.7962 37.0992 50.8545C37.0992 51.7732 36.1793 52.8974 36.1793 52.8974L35.2536 51.549L34.4434 52.7946C34.3267 52.8565 34.21 53.069 34.1189 53.3713C34.0932 53.453 34.0687 53.5418 34.0454 53.6363C34.029 53.6994 34.0138 53.7659 33.9998 53.8324C33.9917 53.8663 33.9847 53.9001 33.9777 53.9352L33.9566 54.0414V54.0577C33.9426 54.1301 33.9286 54.2048 33.9158 54.2807C33.9029 54.3566 33.8878 54.4441 33.8749 54.527C33.8656 54.5807 33.8574 54.6344 33.8504 54.6881C33.8341 54.792 33.8201 54.8971 33.8061 55.001C33.7979 55.0617 33.7897 55.1177 33.7827 55.1819L33.7547 55.4154C33.8142 55.6068 33.8808 55.796 33.9496 55.9816C33.9936 56.0833 34.0193 56.192 34.0255 56.3026C35.458 56.712 36.9765 56.712 38.409 56.3026C38.4085 56.2987 38.4085 56.2948 38.409 56.2909C38.3874 56.1861 38.378 56.0792 38.381 55.9722C38.4046 55.6727 38.4435 55.3747 38.4977 55.0792C38.515 54.9335 38.5224 54.7869 38.5199 54.6403V54.5877C38.5164 54.5434 38.5152 54.5013 38.5141 54.4593ZM38.5141 54.4593C38.5141 54.4126 38.5141 54.3659 38.5059 54.3192C38.4977 54.2725 38.4989 54.2317 38.4931 54.1873C38.4872 54.143 38.4826 54.0986 38.4767 54.0542C38.4709 54.0099 38.4627 53.9655 38.4545 53.9212C38.4464 53.8768 38.4382 53.8324 38.4289 53.7881C38.4289 53.7729 38.423 53.7589 38.4195 53.7437C38.4067 53.6853 38.3927 53.627 38.3775 53.5674C38.3623 53.5079 38.353 53.4729 38.339 53.4262C38.339 53.4052 38.3273 53.3842 38.3203 53.3643C38.3133 53.3445 38.3004 53.2966 38.2899 53.2628L38.2689 53.1974C38.2596 53.1682 38.2502 53.139 38.2397 53.1098C38.2222 53.0573 38.2036 53.0059 38.1849 52.9534C38.1662 52.9009 38.1464 52.8495 38.1265 52.7981C38.0868 52.6931 38.0436 52.5892 38.0004 52.4853C37.8312 52.0814 37.6409 51.6833 37.4658 51.2887C37.3717 51.0819 37.2883 50.8703 37.216 50.6548L37.1938 50.6864C37.1583 50.7401 37.1267 50.7962 37.0992 50.8545C37.0992 51.7732 36.1793 52.8974 36.1793 52.8974L35.2536 51.549L34.4434 52.7946C34.3267 52.8565 34.21 53.069 34.1189 53.3713C34.0932 53.453 34.0687 53.5418 34.0454 53.6363C34.029 53.6994 34.0138 53.7659 33.9998 53.8324C33.9917 53.8663 33.9847 53.9001 33.9777 53.9352L33.9566 54.0414V54.0577C33.9426 54.1301 33.9286 54.2048 33.9158 54.2807C33.9029 54.3566 33.8878 54.4441 33.8749 54.527C33.8656 54.5807 33.8574 54.6344 33.8504 54.6881C33.8341 54.792 33.8201 54.8971 33.8061 55.001C33.7979 55.0617 33.7897 55.1177 33.7827 55.1819L33.7547 55.4154C33.8142 55.6068 33.8808 55.796 33.9496 55.9816C33.9936 56.0833 34.0193 56.192 34.0255 56.3026C35.458 56.712 36.9765 56.712 38.409 56.3026C38.4085 56.2987 38.4085 56.2948 38.409 56.2909C38.3874 56.1861 38.378 56.0792 38.381 55.9722C38.4046 55.6727 38.4435 55.3747 38.4977 55.0792C38.515 54.9335 38.5224 54.7869 38.5199 54.6403V54.5877C38.5164 54.5434 38.5152 54.5013 38.5141 54.4593ZM38.5141 54.4593C38.5141 54.4126 38.5141 54.3659 38.5059 54.3192C38.4977 54.2725 38.4989 54.2317 38.4931 54.1873C38.4872 54.143 38.4826 54.0986 38.4767 54.0542C38.4709 54.0099 38.4627 53.9655 38.4545 53.9212C38.4464 53.8768 38.4382 53.8324 38.4289 53.7881C38.4289 53.7729 38.423 53.7589 38.4195 53.7437C38.4067 53.6853 38.3927 53.627 38.3775 53.5674C38.3623 53.5079 38.353 53.4729 38.339 53.4262C38.339 53.4052 38.3273 53.3842 38.3203 53.3643C38.3133 53.3445 38.3004 53.2966 38.2899 53.2628L38.2689 53.1974C38.2596 53.1682 38.2502 53.139 38.2397 53.1098C38.2222 53.0573 38.2036 53.0059 38.1849 52.9534C38.1662 52.9009 38.1464 52.8495 38.1265 52.7981C38.0868 52.6931 38.0436 52.5892 38.0004 52.4853C37.8312 52.0814 37.6409 51.6833 37.4658 51.2887C37.3717 51.0819 37.2883 50.8703 37.216 50.6548L37.1938 50.6864C37.1583 50.7401 37.1267 50.7962 37.0992 50.8545C37.0992 51.7732 36.1793 52.8974 36.1793 52.8974L35.2536 51.549L34.4434 52.7946C34.3267 52.8565 34.21 53.069 34.1189 53.3713C34.0932 53.453 34.0687 53.5418 34.0454 53.6363C34.029 53.6994 34.0138 53.7659 33.9998 53.8324C33.9917 53.8663 33.9847 53.9001 33.9777 53.9352L33.9566 54.0414V54.0577C33.9426 54.1301 33.9286 54.2048 33.9158 54.2807C33.9029 54.3566 33.8878 54.4441 33.8749 54.527C33.8656 54.5807 33.8574 54.6344 33.8504 54.6881C33.8341 54.792 33.8201 54.8971 33.8061 55.001C33.7979 55.0617 33.7897 55.1177 33.7827 55.1819L33.7547 55.4154C33.8142 55.6068 33.8808 55.796 33.9496 55.9816C33.9936 56.0833 34.0193 56.192 34.0255 56.3026C35.458 56.712 36.9765 56.712 38.409 56.3026C38.4085 56.2987 38.4085 56.2948 38.409 56.2909C38.3874 56.1861 38.378 56.0792 38.381 55.9722C38.4046 55.6727 38.4435 55.3747 38.4977 55.0792C38.515 54.9335 38.5224 54.7869 38.5199 54.6403V54.5877C38.5164 54.5434 38.5152 54.5013 38.5141 54.4593ZM39.7515 52.2682L39.3347 50.6046L39.2635 50.3198L39.2437 50.2416L39.1421 49.8353C39.1424 49.8318 39.1424 49.8283 39.1421 49.8248C39.1445 49.8069 39.1417 49.7887 39.134 49.7723C39.1188 49.7419 39.0803 49.7104 38.9904 49.7023C38.9562 49.6998 38.9218 49.6998 38.8876 49.7023C38.7862 49.7123 38.6858 49.7311 38.5876 49.7583C38.5398 49.7711 38.4884 49.7851 38.4335 49.8027L38.3331 49.8342H38.3238C38.0549 49.9224 37.8053 50.0611 37.5883 50.2428C37.445 50.3623 37.3193 50.5014 37.2148 50.656L37.1926 50.6875C37.1571 50.7412 37.1255 50.7974 37.098 50.8556C37.098 51.7744 36.1782 52.8985 36.1782 52.8985L35.2524 51.5502L35.1999 51.4743L35.1906 51.4615L35.0563 51.2642L34.9547 51.1288L34.9279 51.0938L34.4493 50.4552L34.2975 50.2486V50.2416L34.245 50.1704L34.1446 50.0373L33.7944 50.2416L32.9188 50.7517L32.5149 53.3795V53.4075L32.5266 53.599L32.613 55.0617V55.1446L32.4811 55.6711C32.8337 55.8612 33.2006 56.0236 33.5784 56.1567L33.6776 56.1917C33.7944 56.2302 33.9041 56.2652 34.0185 56.2991C34.0228 56.3164 34.0259 56.3339 34.0279 56.3516C34.0279 56.3353 34.0279 56.3178 34.0279 56.3014C35.4603 56.7108 36.9789 56.7108 38.4113 56.3014L38.4382 56.2933C38.5047 56.2746 38.5724 56.2547 38.6378 56.2326L38.744 56.1987C39.0321 56.1024 39.3143 55.9893 39.5892 55.8602L39.6861 53.7729L39.7562 52.2822L39.7515 52.2682ZM34.0103 56.2991C34.0146 56.3164 34.0177 56.3339 34.0197 56.3516C34.0197 56.3353 34.0197 56.3178 34.0197 56.3014L34.0103 56.2991ZM38.5141 54.4593C38.5141 54.4126 38.5141 54.3659 38.5059 54.3192C38.4977 54.2725 38.4989 54.2317 38.4931 54.1873C38.4872 54.143 38.4826 54.0986 38.4767 54.0542C38.4709 54.0099 38.4627 53.9655 38.4545 53.9212C38.4464 53.8768 38.4382 53.8324 38.4289 53.7881C38.4289 53.7729 38.423 53.7589 38.4195 53.7437C38.4067 53.6853 38.3927 53.627 38.3775 53.5674C38.3623 53.5079 38.353 53.4729 38.339 53.4262C38.339 53.4052 38.3273 53.3842 38.3203 53.3643C38.3133 53.3445 38.3004 53.2966 38.2899 53.2628L38.2689 53.1974C38.2596 53.1682 38.2502 53.139 38.2397 53.1098C38.2222 53.0573 38.2036 53.0059 38.1849 52.9534C38.1662 52.9009 38.1464 52.8495 38.1265 52.7981C38.0868 52.6931 38.0436 52.5892 38.0004 52.4853C37.8312 52.0814 37.6409 51.6833 37.4658 51.2887C37.3717 51.0819 37.2883 50.8703 37.216 50.6548L37.1938 50.6864C37.1583 50.7401 37.1267 50.7962 37.0992 50.8545C37.0992 51.7732 36.1793 52.8974 36.1793 52.8974L35.2536 51.549L34.4434 52.7946C34.3267 52.8565 34.21 53.069 34.1189 53.3713C34.0932 53.453 34.0687 53.5418 34.0454 53.6363C34.029 53.6994 34.0138 53.7659 33.9998 53.8324C33.9917 53.8663 33.9847 53.9001 33.9777 53.9352L33.9566 54.0414V54.0577C33.9426 54.1301 33.9286 54.2048 33.9158 54.2807C33.9029 54.3566 33.8878 54.4441 33.8749 54.527C33.8656 54.5807 33.8574 54.6344 33.8504 54.6881C33.8341 54.792 33.8201 54.8971 33.8061 55.001C33.7979 55.0617 33.7897 55.1177 33.7827 55.1819L33.7547 55.4154C33.8142 55.6068 33.8808 55.796 33.9496 55.9816C33.9936 56.0833 34.0193 56.192 34.0255 56.3026C35.458 56.712 36.9765 56.712 38.409 56.3026C38.4085 56.2987 38.4085 56.2948 38.409 56.2909C38.3874 56.1861 38.378 56.0792 38.381 55.9722C38.4046 55.6727 38.4435 55.3747 38.4977 55.0792C38.515 54.9335 38.5224 54.7869 38.5199 54.6403V54.5877C38.5164 54.5434 38.5152 54.5013 38.5141 54.4593ZM38.5141 54.4593C38.5141 54.4126 38.5141 54.3659 38.5059 54.3192C38.4977 54.2725 38.4989 54.2317 38.4931 54.1873C38.4872 54.143 38.4826 54.0986 38.4767 54.0542C38.4709 54.0099 38.4627 53.9655 38.4545 53.9212C38.4464 53.8768 38.4382 53.8324 38.4289 53.7881C38.4289 53.7729 38.423 53.7589 38.4195 53.7437C38.4067 53.6853 38.3927 53.627 38.3775 53.5674C38.3623 53.5079 38.353 53.4729 38.339 53.4262C38.339 53.4052 38.3273 53.3842 38.3203 53.3643C38.3133 53.3445 38.3004 53.2966 38.2899 53.2628L38.2689 53.1974C38.2596 53.1682 38.2502 53.139 38.2397 53.1098C38.2222 53.0573 38.2036 53.0059 38.1849 52.9534C38.1662 52.9009 38.1464 52.8495 38.1265 52.7981C38.0868 52.6931 38.0436 52.5892 38.0004 52.4853C37.8312 52.0814 37.6409 51.6833 37.4658 51.2887C37.3717 51.0819 37.2883 50.8703 37.216 50.6548L37.1938 50.6864C37.1583 50.7401 37.1267 50.7962 37.0992 50.8545C37.0992 51.7732 36.1793 52.8974 36.1793 52.8974L35.2536 51.549L34.4434 52.7946C34.3267 52.8565 34.21 53.069 34.1189 53.3713C34.0932 53.453 34.0687 53.5418 34.0454 53.6363C34.029 53.6994 34.0138 53.7659 33.9998 53.8324C33.9917 53.8663 33.9847 53.9001 33.9777 53.9352L33.9566 54.0414V54.0577C33.9426 54.1301 33.9286 54.2048 33.9158 54.2807C33.9029 54.3566 33.8878 54.4441 33.8749 54.527C33.8656 54.5807 33.8574 54.6344 33.8504 54.6881C33.8341 54.792 33.8201 54.8971 33.8061 55.001C33.7979 55.0617 33.7897 55.1177 33.7827 55.1819L33.7547 55.4154C33.8142 55.6068 33.8808 55.796 33.9496 55.9816C33.9936 56.0833 34.0193 56.192 34.0255 56.3026C35.458 56.712 36.9765 56.712 38.409 56.3026C38.4085 56.2987 38.4085 56.2948 38.409 56.2909C38.3874 56.1861 38.378 56.0792 38.381 55.9722C38.4046 55.6727 38.4435 55.3747 38.4977 55.0792C38.515 54.9335 38.5224 54.7869 38.5199 54.6403V54.5877C38.5164 54.5434 38.5152 54.5013 38.5141 54.4593ZM38.5141 54.4593C38.5141 54.4126 38.5141 54.3659 38.5059 54.3192C38.4977 54.2725 38.4989 54.2317 38.4931 54.1873C38.4872 54.143 38.4826 54.0986 38.4767 54.0542C38.4709 54.0099 38.4627 53.9655 38.4545 53.9212C38.4464 53.8768 38.4382 53.8324 38.4289 53.7881C38.4289 53.7729 38.423 53.7589 38.4195 53.7437C38.4067 53.6853 38.3927 53.627 38.3775 53.5674C38.3623 53.5079 38.353 53.4729 38.339 53.4262C38.339 53.4052 38.3273 53.3842 38.3203 53.3643C38.3133 53.3445 38.3004 53.2966 38.2899 53.2628L38.2689 53.1974C38.2596 53.1682 38.2502 53.139 38.2397 53.1098C38.2222 53.0573 38.2036 53.0059 38.1849 52.9534C38.1662 52.9009 38.1464 52.8495 38.1265 52.7981C38.0868 52.6931 38.0436 52.5892 38.0004 52.4853C37.8312 52.0814 37.6409 51.6833 37.4658 51.2887C37.3717 51.0819 37.2883 50.8703 37.216 50.6548L37.1938 50.6864C37.1583 50.7401 37.1267 50.7962 37.0992 50.8545C37.0992 51.7732 36.1793 52.8974 36.1793 52.8974L35.2536 51.549L34.4434 52.7946C34.3267 52.8565 34.21 53.069 34.1189 53.3713C34.0932 53.453 34.0687 53.5418 34.0454 53.6363C34.029 53.6994 34.0138 53.7659 33.9998 53.8324C33.9917 53.8663 33.9847 53.9001 33.9777 53.9352L33.9566 54.0414V54.0577C33.9426 54.1301 33.9286 54.2048 33.9158 54.2807C33.9029 54.3566 33.8878 54.4441 33.8749 54.527C33.8656 54.5807 33.8574 54.6344 33.8504 54.6881C33.8341 54.792 33.8201 54.8971 33.8061 55.001C33.7979 55.0617 33.7897 55.1177 33.7827 55.1819L33.7547 55.4154C33.8142 55.6068 33.8808 55.796 33.9496 55.9816C33.9936 56.0833 34.0193 56.192 34.0255 56.3026C35.458 56.712 36.9765 56.712 38.409 56.3026C38.4085 56.2987 38.4085 56.2948 38.409 56.2909C38.3874 56.1861 38.378 56.0792 38.381 55.9722C38.4046 55.6727 38.4435 55.3747 38.4977 55.0792C38.515 54.9335 38.5224 54.7869 38.5199 54.6403V54.5877C38.5164 54.5434 38.5152 54.5013 38.5141 54.4593ZM38.5141 54.4593C38.5141 54.4126 38.5141 54.3659 38.5059 54.3192C38.4977 54.2725 38.4989 54.2317 38.4931 54.1873C38.4872 54.143 38.4826 54.0986 38.4767 54.0542C38.4709 54.0099 38.4627 53.9655 38.4545 53.9212C38.4464 53.8768 38.4382 53.8324 38.4289 53.7881C38.4289 53.7729 38.423 53.7589 38.4195 53.7437C38.4067 53.6853 38.3927 53.627 38.3775 53.5674C38.3623 53.5079 38.353 53.4729 38.339 53.4262C38.339 53.4052 38.3273 53.3842 38.3203 53.3643C38.3133 53.3445 38.3004 53.2966 38.2899 53.2628L38.2689 53.1974C38.2596 53.1682 38.2502 53.139 38.2397 53.1098C38.2222 53.0573 38.2036 53.0059 38.1849 52.9534C38.1662 52.9009 38.1464 52.8495 38.1265 52.7981C38.0868 52.6931 38.0436 52.5892 38.0004 52.4853C37.8312 52.0814 37.6409 51.6833 37.4658 51.2887C37.3717 51.0819 37.2883 50.8703 37.216 50.6548L37.1938 50.6864C37.1583 50.7401 37.1267 50.7962 37.0992 50.8545C37.0992 51.7732 36.1793 52.8974 36.1793 52.8974L35.2536 51.549L34.4434 52.7946C34.3267 52.8565 34.21 53.069 34.1189 53.3713C34.0932 53.453 34.0687 53.5418 34.0454 53.6363C34.029 53.6994 34.0138 53.7659 33.9998 53.8324C33.9917 53.8663 33.9847 53.9001 33.9777 53.9352L33.9566 54.0414V54.0577C33.9426 54.1301 33.9286 54.2048 33.9158 54.2807C33.9029 54.3566 33.8878 54.4441 33.8749 54.527C33.8656 54.5807 33.8574 54.6344 33.8504 54.6881C33.8341 54.792 33.8201 54.8971 33.8061 55.001C33.7979 55.0617 33.7897 55.1177 33.7827 55.1819L33.7547 55.4154C33.8142 55.6068 33.8808 55.796 33.9496 55.9816C33.9936 56.0833 34.0193 56.192 34.0255 56.3026C35.458 56.712 36.9765 56.712 38.409 56.3026C38.4085 56.2987 38.4085 56.2948 38.409 56.2909C38.3874 56.1861 38.378 56.0792 38.381 55.9722C38.4046 55.6727 38.4435 55.3747 38.4977 55.0792C38.515 54.9335 38.5224 54.7869 38.5199 54.6403V54.5877C38.5164 54.5434 38.5152 54.5013 38.5141 54.4593ZM38.5141 54.4593C38.5141 54.4126 38.5141 54.3659 38.5059 54.3192C38.4977 54.2725 38.4989 54.2317 38.4931 54.1873C38.4872 54.143 38.4826 54.0986 38.4767 54.0542C38.4709 54.0099 38.4627 53.9655 38.4545 53.9212C38.4464 53.8768 38.4382 53.8324 38.4289 53.7881C38.4289 53.7729 38.423 53.7589 38.4195 53.7437C38.4067 53.6853 38.3927 53.627 38.3775 53.5674C38.3623 53.5079 38.353 53.4729 38.339 53.4262C38.339 53.4052 38.3273 53.3842 38.3203 53.3643C38.3133 53.3445 38.3004 53.2966 38.2899 53.2628L38.2689 53.1974C38.2596 53.1682 38.2502 53.139 38.2397 53.1098C38.2222 53.0573 38.2036 53.0059 38.1849 52.9534C38.1662 52.9009 38.1464 52.8495 38.1265 52.7981C38.0868 52.6931 38.0436 52.5892 38.0004 52.4853C37.8312 52.0814 37.6409 51.6833 37.4658 51.2887C37.3717 51.0819 37.2883 50.8703 37.216 50.6548L37.1938 50.6864C37.1583 50.7401 37.1267 50.7962 37.0992 50.8545C37.0992 51.7732 36.1793 52.8974 36.1793 52.8974L35.2536 51.549L34.4434 52.7946C34.3267 52.8565 34.21 53.069 34.1189 53.3713C34.0932 53.453 34.0687 53.5418 34.0454 53.6363C34.029 53.6994 34.0138 53.7659 33.9998 53.8324C33.9917 53.8663 33.9847 53.9001 33.9777 53.9352L33.9566 54.0414V54.0577C33.9426 54.1301 33.9286 54.2048 33.9158 54.2807C33.9029 54.3566 33.8878 54.4441 33.8749 54.527C33.8656 54.5807 33.8574 54.6344 33.8504 54.6881C33.8341 54.792 33.8201 54.8971 33.8061 55.001C33.7979 55.0617 33.7897 55.1177 33.7827 55.1819L33.7547 55.4154C33.8142 55.6068 33.8808 55.796 33.9496 55.9816C33.9936 56.0833 34.0193 56.192 34.0255 56.3026C35.458 56.712 36.9765 56.712 38.409 56.3026C38.4085 56.2987 38.4085 56.2948 38.409 56.2909C38.3874 56.1861 38.378 56.0792 38.381 55.9722C38.4046 55.6727 38.4435 55.3747 38.4977 55.0792C38.515 54.9335 38.5224 54.7869 38.5199 54.6403V54.5877C38.5164 54.5434 38.5152 54.5013 38.5141 54.4593ZM38.5141 54.4593C38.5141 54.4126 38.5141 54.3659 38.5059 54.3192C38.4977 54.2725 38.4989 54.2317 38.4931 54.1873C38.4872 54.143 38.4826 54.0986 38.4767 54.0542C38.4709 54.0099 38.4627 53.9655 38.4545 53.9212C38.4464 53.8768 38.4382 53.8324 38.4289 53.7881C38.4289 53.7729 38.423 53.7589 38.4195 53.7437C38.4067 53.6853 38.3927 53.627 38.3775 53.5674C38.3623 53.5079 38.353 53.4729 38.339 53.4262C38.339 53.4052 38.3273 53.3842 38.3203 53.3643C38.3133 53.3445 38.3004 53.2966 38.2899 53.2628L38.2689 53.1974C38.2596 53.1682 38.2502 53.139 38.2397 53.1098C38.2222 53.0573 38.2036 53.0059 38.1849 52.9534C38.1662 52.9009 38.1464 52.8495 38.1265 52.7981C38.0868 52.6931 38.0436 52.5892 38.0004 52.4853C37.8312 52.0814 37.6409 51.6833 37.4658 51.2887C37.3717 51.0819 37.2883 50.8703 37.216 50.6548L37.1938 50.6864C37.1583 50.7401 37.1267 50.7962 37.0992 50.8545C37.0992 51.7732 36.1793 52.8974 36.1793 52.8974L35.2536 51.549L34.4434 52.7946C34.3267 52.8565 34.21 53.069 34.1189 53.3713C34.0932 53.453 34.0687 53.5418 34.0454 53.6363C34.029 53.6994 34.0138 53.7659 33.9998 53.8324C33.9917 53.8663 33.9847 53.9001 33.9777 53.9352L33.9566 54.0414V54.0577C33.9426 54.1301 33.9286 54.2048 33.9158 54.2807C33.9029 54.3566 33.8878 54.4441 33.8749 54.527C33.8656 54.5807 33.8574 54.6344 33.8504 54.6881C33.8341 54.792 33.8201 54.8971 33.8061 55.001C33.7979 55.0617 33.7897 55.1177 33.7827 55.1819L33.7547 55.4154C33.8142 55.6068 33.8808 55.796 33.9496 55.9816C33.9936 56.0833 34.0193 56.192 34.0255 56.3026C35.458 56.712 36.9765 56.712 38.409 56.3026C38.4085 56.2987 38.4085 56.2948 38.409 56.2909C38.3874 56.1861 38.378 56.0792 38.381 55.9722C38.4046 55.6727 38.4435 55.3747 38.4977 55.0792C38.515 54.9335 38.5224 54.7869 38.5199 54.6403V54.5877C38.5164 54.5434 38.5152 54.5013 38.5141 54.4593ZM38.5141 54.4593C38.5141 54.4126 38.5141 54.3659 38.5059 54.3192C38.4977 54.2725 38.4989 54.2317 38.4931 54.1873C38.4872 54.143 38.4826 54.0986 38.4767 54.0542C38.4709 54.0099 38.4627 53.9655 38.4545 53.9212C38.4464 53.8768 38.4382 53.8324 38.4289 53.7881C38.4289 53.7729 38.423 53.7589 38.4195 53.7437C38.4067 53.6853 38.3927 53.627 38.3775 53.5674C38.3623 53.5079 38.353 53.4729 38.339 53.4262C38.339 53.4052 38.3273 53.3842 38.3203 53.3643C38.3133 53.3445 38.3004 53.2966 38.2899 53.2628L38.2689 53.1974C38.2596 53.1682 38.2502 53.139 38.2397 53.1098C38.2222 53.0573 38.2036 53.0059 38.1849 52.9534C38.1662 52.9009 38.1464 52.8495 38.1265 52.7981C38.0868 52.6931 38.0436 52.5892 38.0004 52.4853C37.8312 52.0814 37.6409 51.6833 37.4658 51.2887C37.3717 51.0819 37.2883 50.8703 37.216 50.6548L37.1938 50.6864C37.1583 50.7401 37.1267 50.7962 37.0992 50.8545C37.0992 51.7732 36.1793 52.8974 36.1793 52.8974L35.2536 51.549L34.4434 52.7946C34.3267 52.8565 34.21 53.069 34.1189 53.3713C34.0932 53.453 34.0687 53.5418 34.0454 53.6363C34.029 53.6994 34.0138 53.7659 33.9998 53.8324C33.9917 53.8663 33.9847 53.9001 33.9777 53.9352L33.9566 54.0414V54.0577C33.9426 54.1301 33.9286 54.2048 33.9158 54.2807C33.9029 54.3566 33.8878 54.4441 33.8749 54.527C33.8656 54.5807 33.8574 54.6344 33.8504 54.6881C33.8341 54.792 33.8201 54.8971 33.8061 55.001C33.7979 55.0617 33.7897 55.1177 33.7827 55.1819L33.7547 55.4154C33.8142 55.6068 33.8808 55.796 33.9496 55.9816C33.9936 56.0833 34.0193 56.192 34.0255 56.3026C35.458 56.712 36.9765 56.712 38.409 56.3026C38.4085 56.2987 38.4085 56.2948 38.409 56.2909C38.3874 56.1861 38.378 56.0792 38.381 55.9722C38.4046 55.6727 38.4435 55.3747 38.4977 55.0792C38.515 54.9335 38.5224 54.7869 38.5199 54.6403V54.5877C38.5164 54.5434 38.5152 54.5013 38.5141 54.4593ZM38.5141 54.4593C38.5141 54.4126 38.5141 54.3659 38.5059 54.3192C38.4977 54.2725 38.4989 54.2317 38.4931 54.1873C38.4872 54.143 38.4826 54.0986 38.4767 54.0542C38.4709 54.0099 38.4627 53.9655 38.4545 53.9212C38.4464 53.8768 38.4382 53.8324 38.4289 53.7881C38.4289 53.7729 38.423 53.7589 38.4195 53.7437C38.4067 53.6853 38.3927 53.627 38.3775 53.5674C38.3623 53.5079 38.353 53.4729 38.339 53.4262C38.339 53.4052 38.3273 53.3842 38.3203 53.3643C38.3133 53.3445 38.3004 53.2966 38.2899 53.2628L38.2689 53.1974C38.2596 53.1682 38.2502 53.139 38.2397 53.1098C38.2222 53.0573 38.2036 53.0059 38.1849 52.9534C38.1662 52.9009 38.1464 52.8495 38.1265 52.7981C38.0868 52.6931 38.0436 52.5892 38.0004 52.4853C37.8312 52.0814 37.6409 51.6833 37.4658 51.2887C37.3717 51.0819 37.2883 50.8703 37.216 50.6548L37.1938 50.6864C37.1583 50.7401 37.1267 50.7962 37.0992 50.8545C37.0992 51.7732 36.1793 52.8974 36.1793 52.8974L35.2536 51.549L34.4434 52.7946C34.3267 52.8565 34.21 53.069 34.1189 53.3713C34.0932 53.453 34.0687 53.5418 34.0454 53.6363C34.029 53.6994 34.0138 53.7659 33.9998 53.8324C33.9917 53.8663 33.9847 53.9001 33.9777 53.9352L33.9566 54.0414V54.0577C33.9426 54.1301 33.9286 54.2048 33.9158 54.2807C33.9029 54.3566 33.8878 54.4441 33.8749 54.527C33.8656 54.5807 33.8574 54.6344 33.8504 54.6881C33.8341 54.792 33.8201 54.8971 33.8061 55.001C33.7979 55.0617 33.7897 55.1177 33.7827 55.1819L33.7547 55.4154C33.8142 55.6068 33.8808 55.796 33.9496 55.9816C33.9936 56.0833 34.0193 56.192 34.0255 56.3026C35.458 56.712 36.9765 56.712 38.409 56.3026C38.4085 56.2987 38.4085 56.2948 38.409 56.2909C38.3874 56.1861 38.378 56.0792 38.381 55.9722C38.4046 55.6727 38.4435 55.3747 38.4977 55.0792C38.515 54.9335 38.5224 54.7869 38.5199 54.6403V54.5877C38.5164 54.5434 38.5152 54.5013 38.5141 54.4593Z" fill="white"/>
<path opacity="0.1" d="M35.2699 51.4708L35.1917 51.4603C35.0736 51.4443 34.9566 51.4209 34.8415 51.3902L34.7983 51.3786C34.5134 51.298 34.2017 51.1533 34.1317 50.8988C34.1108 50.8168 34.1133 50.7307 34.1387 50.6501C34.1779 50.5112 34.2311 50.3767 34.2975 50.2485V50.2415C34.3062 50.2235 34.316 50.206 34.3266 50.189C34.423 50.0007 34.5686 49.8422 34.7481 49.7302L34.608 49.7524L33.4219 49.945L31.5833 50.2415C31.5833 50.2415 31.2564 50.1762 30.8117 51.4019C30.8117 51.4171 30.8012 51.4311 30.7965 51.4474C30.6891 51.7475 30.5759 52.1222 30.4591 52.5903C30.3786 52.9148 30.305 53.2335 30.2373 53.5429C30.2175 53.6363 30.1976 53.7285 30.179 53.8195C30.3894 54.0676 30.616 54.3016 30.8572 54.52L30.8957 54.5562C31.3681 54.984 31.8902 55.3536 32.4507 55.657L32.4728 55.6687C32.8254 55.8589 33.1923 56.0212 33.5702 56.1543L33.6694 56.1893C33.6904 55.9734 33.7138 55.734 33.7418 55.4889C33.7418 55.4644 33.7418 55.4399 33.7511 55.4153L33.7791 55.1819C33.7861 55.1223 33.7943 55.0651 33.8025 55.0009C33.8165 54.897 33.8305 54.792 33.8469 54.6881C33.8539 54.6344 33.862 54.5807 33.8714 54.527C33.8842 54.4441 33.8982 54.3612 33.9122 54.2807C33.9262 54.2001 33.9391 54.1301 33.9531 54.0577V54.0413L33.9741 53.9351C33.9811 53.9001 33.9881 53.8662 33.9963 53.8324C34.0103 53.7658 34.0255 53.6993 34.0418 53.6363C34.0651 53.5417 34.0897 53.453 34.1153 53.3713C34.2087 53.0689 34.3173 52.8565 34.4399 52.7946L35.25 51.549L35.2839 51.4965L35.2991 51.4731L35.2699 51.4708Z" fill="black"/>
<path opacity="0.1" d="M33.7956 43.2022C33.6788 43.3633 33.6882 43.5851 33.6356 43.7859C33.5107 44.2424 33.0158 44.5284 32.9025 44.9883C32.836 45.2568 32.913 45.5417 32.8675 45.8148C32.7846 46.318 32.3247 46.6588 32.0678 47.0989C31.9376 47.3257 31.8605 47.5789 31.8421 47.8397C31.8237 48.1005 31.8645 48.3621 31.9616 48.6048C32.0217 48.7273 32.0713 48.8546 32.1099 48.9854C32.1393 49.1803 32.127 49.3793 32.0737 49.5691C31.9861 49.9847 31.8962 50.4423 32.097 50.817C32.2663 51.1334 32.6177 51.319 32.9714 51.3774C33.3286 51.4177 33.6899 51.4012 34.0419 51.3283C34.4283 51.2688 34.824 51.1999 35.1602 51.0015L33.896 47.9499C33.7687 47.6418 33.638 47.3231 33.6391 46.9892C33.6494 46.7429 33.7028 46.5003 33.7967 46.2724C34.0415 45.6122 34.3968 44.9983 34.8474 44.4572C35.0306 44.6696 35.0166 44.993 35.1696 45.2288C35.3047 45.4031 35.4846 45.5375 35.6902 45.6175C36.2892 45.9098 36.9047 46.167 37.5335 46.388C37.5729 46.393 37.6106 46.4076 37.643 46.4305C37.6755 46.4535 37.7018 46.4841 37.7195 46.5197C37.7373 46.5553 37.746 46.5947 37.745 46.6344C37.7439 46.6742 37.733 46.713 37.7133 46.7476L37.237 48.7134C37.1319 49.1465 37.0397 49.6473 37.3094 49.9975C37.579 50.3477 38.1872 50.5135 38.1907 50.9653C38.1857 51.0368 38.1857 51.1086 38.1907 51.1801C38.2222 51.3914 38.4732 51.4929 38.6869 51.5034C39.0376 51.5104 39.3793 51.3924 39.6511 51.1707C39.9229 50.9489 40.107 50.6378 40.1706 50.2929C40.2873 49.5201 39.776 48.808 39.5624 48.055C39.2028 46.7884 39.6791 45.3023 38.9729 44.1898C38.4008 43.2875 37.3584 43.0423 36.3684 42.9302C35.6739 42.8485 34.2847 42.5567 33.7956 43.2022Z" fill="black"/>
<path opacity="0.5" d="M33.7956 43.0855C33.6788 43.2466 33.6882 43.4684 33.6356 43.6692C33.5107 44.1257 33.0158 44.4117 32.9025 44.8716C32.836 45.1401 32.913 45.425 32.8675 45.6981C32.7846 46.2013 32.3247 46.5421 32.0678 46.9822C31.9376 47.209 31.8605 47.4622 31.8421 47.723C31.8237 47.9838 31.8645 48.2454 31.9616 48.4881C32.0217 48.6106 32.0713 48.7379 32.1099 48.8687C32.1393 49.0636 32.127 49.2626 32.0737 49.4524C31.9861 49.868 31.8962 50.3256 32.097 50.7003C32.2663 51.0167 32.6177 51.2023 32.9714 51.2607C33.3286 51.301 33.6899 51.2845 34.0419 51.2116C34.4283 51.1521 34.824 51.0832 35.1602 50.8848L33.896 47.8332C33.7687 47.5251 33.638 47.2064 33.6391 46.8725C33.6494 46.6262 33.7028 46.3836 33.7967 46.1557C34.0415 45.4955 34.3968 44.8816 34.8474 44.3405C35.0306 44.5529 35.0166 44.8763 35.1696 45.1121C35.3047 45.2864 35.4846 45.4208 35.6902 45.5008C36.2892 45.7931 36.9047 46.0503 37.5335 46.2713C37.5729 46.2763 37.6106 46.2909 37.643 46.3138C37.6755 46.3368 37.7018 46.3674 37.7195 46.403C37.7373 46.4386 37.746 46.478 37.745 46.5177C37.7439 46.5575 37.733 46.5963 37.7133 46.6309L37.237 48.5967C37.1319 49.0298 37.0397 49.5306 37.3094 49.8808C37.579 50.231 38.1872 50.3968 38.1907 50.8486C38.1857 50.9201 38.1857 50.9919 38.1907 51.0634C38.2222 51.2747 38.4732 51.3762 38.6869 51.3867C39.0376 51.3937 39.3793 51.2757 39.6511 51.054C39.9229 50.8322 40.107 50.5211 40.1706 50.1762C40.2873 49.4034 39.776 48.6913 39.5624 47.9383C39.2028 46.6717 39.6791 45.1856 38.9729 44.0731C38.4008 43.1708 37.3584 42.9256 36.3684 42.8135C35.6739 42.7318 34.2847 42.44 33.7956 43.0855Z" fill="#493545"/>
</g>
<g opacity="0.5">
<path opacity="0.5" d="M33.0777 74.3536C33.0882 74.7447 32.822 75.0785 32.6108 75.4042C32.3995 75.7299 32.243 76.1747 32.4602 76.5004C32.5314 76.6078 32.6388 76.6907 32.703 76.8027C32.9283 77.1938 32.5536 77.6432 32.417 78.0728C32.2594 78.569 32.4427 79.1235 32.7742 79.5262C33.1057 79.929 33.5633 80.201 34.0256 80.4403C34.9976 80.9583 36.0408 81.3296 37.1215 81.5423C37.6865 81.6462 38.2889 81.6929 38.8189 81.4664C39.1866 81.2977 39.487 81.0104 39.6718 80.6505C39.8566 80.2906 39.9151 79.879 39.838 79.4819C39.7037 78.8678 39.2543 78.374 39.0208 77.7938C38.9663 77.6799 38.9399 77.5547 38.9438 77.4285C38.9636 77.2078 39.1329 77.035 39.2648 76.8564C39.5956 76.3701 39.7307 75.7769 39.643 75.1953C39.5508 74.6137 39.3281 74.0605 38.9916 73.5773C38.8714 73.377 38.7127 73.2024 38.5247 73.0636C38.2702 72.892 37.955 72.843 37.6515 72.7998C36.3837 72.6224 35.0704 72.4286 33.7921 72.3632C33.3882 72.3422 33.0917 72.4216 32.8921 72.7998C32.5874 73.3636 33.0625 73.7874 33.0777 74.3536Z" fill="#444176"/>
<path opacity="0.5" d="M39.6067 78.3238L37.2007 81.7454L34.852 81.5411C34.852 81.5411 34.7749 82.3582 33.8305 79.3966C33.3029 77.7401 34.3757 78.3156 34.587 77.8568C34.7983 77.3981 35.1707 76.993 35.2022 76.6544C35.2769 75.9283 35.0563 75.5151 35.0563 75.5151L37.6093 75.2092C37.4941 75.5533 37.4795 75.923 37.5673 76.275C37.8871 77.6035 39.6067 78.3238 39.6067 78.3238Z" fill="#C77485"/>
<path opacity="0.5" d="M35.9879 75.4063C37.6642 75.4063 39.0231 74.3349 39.0231 73.0132C39.0231 71.6916 37.6642 70.6201 35.9879 70.6201C34.3117 70.6201 32.9528 71.6916 32.9528 73.0132C32.9528 74.3349 34.3117 75.4063 35.9879 75.4063Z" fill="#444176"/>
<path opacity="0.1" d="M37.5662 76.2739C37.2332 76.526 36.8434 76.6926 36.4311 76.7589C36.0187 76.8253 35.5964 76.7894 35.2011 76.6544C35.2758 75.9283 35.0552 75.5151 35.0552 75.5151L37.6082 75.2092C37.4932 75.5529 37.4787 75.9222 37.5662 76.2739Z" fill="black"/>
<path opacity="0.5" d="M36.0264 76.6896C37.4364 76.6896 38.5795 75.5466 38.5795 74.1365C38.5795 72.7265 37.4364 71.5835 36.0264 71.5835C34.6164 71.5835 33.4734 72.7265 33.4734 74.1365C33.4734 75.5466 34.6164 76.6896 36.0264 76.6896Z" fill="#C77485"/>
<path opacity="0.1" d="M39.3546 78.7113L39.2951 78.4778L39.2437 78.2724L39.1679 77.9688L39.1538 77.9128L39.1422 77.8661C39.1422 77.8661 39.2029 77.6828 38.8025 77.7424L38.7278 77.7552C38.6647 77.768 38.5912 77.7856 38.5071 77.8089L38.4312 77.8323L38.3308 77.8638C38.013 77.9673 37.7231 78.1422 37.4833 78.3751C37.3757 78.478 37.2805 78.5932 37.1997 78.7183C37.1915 78.73 37.1856 78.7405 37.1786 78.7498C37.151 78.7932 37.1264 78.8384 37.1051 78.8852C37.1051 79.8051 36.1852 80.9281 36.1852 80.9281L35.2875 79.6312L35.27 79.6055L35.0564 79.295L34.9805 79.1946L34.9548 79.1596L34.4878 78.5327L34.3711 78.3762L34.3326 78.3237L34.2754 78.2478L34.1411 78.0692L33.6158 78.3762L32.9154 78.7848L32.5068 81.4406V81.5142L32.5196 81.7336L32.6049 83.1765V83.1963L32.4554 83.794L32.4776 83.8057C32.8302 83.9959 33.1971 84.1583 33.575 84.2913L33.6742 84.3264C33.7909 84.3649 33.9007 84.3999 34.0151 84.4338C34.0193 84.4511 34.0224 84.4686 34.0244 84.4863C34.0244 84.4699 34.0244 84.4524 34.0244 84.4361C35.4569 84.8455 36.9754 84.8455 38.4079 84.4361L38.4347 84.4279C38.5013 84.4092 38.569 84.3894 38.6344 84.3672L38.7406 84.3334C39.0287 84.237 39.3109 84.124 39.5858 83.9948L39.6838 81.9052L39.7539 80.3981V80.3118L39.3546 78.7113Z" fill="black"/>
<path opacity="0.5" d="M38.5141 82.5929C38.5141 82.5462 38.5141 82.4995 38.5059 82.4528C38.4977 82.4061 38.4989 82.3652 38.4931 82.3209C38.4872 82.2765 38.4826 82.2321 38.4767 82.1878C38.4709 82.1434 38.4627 82.0991 38.4545 82.0547C38.4464 82.0103 38.4382 81.966 38.4289 81.9216C38.4289 81.9064 38.423 81.8924 38.4195 81.8773C38.4067 81.8189 38.3927 81.7605 38.3775 81.701C38.3623 81.6414 38.353 81.6064 38.339 81.5597C38.339 81.5387 38.3273 81.5177 38.3203 81.4979C38.3133 81.478 38.3004 81.4302 38.2899 81.3963L38.2689 81.3309C38.2596 81.3017 38.2502 81.2726 38.2397 81.2434C38.2222 81.1908 38.2036 81.1395 38.1849 81.0869C38.1662 81.0344 38.1464 80.9831 38.1265 80.9317C38.0868 80.8266 38.0436 80.7227 38.0004 80.6188C37.8312 80.2149 37.6409 79.8168 37.4658 79.4223C37.3717 79.2154 37.2883 79.0038 37.216 78.7884L37.1938 78.8199C37.1583 78.8736 37.1267 78.9298 37.0992 78.988C37.0992 79.9067 36.1793 81.0309 36.1793 81.0309L35.2536 79.6826L34.4434 80.9282C34.3267 80.9901 34.21 81.2025 34.1189 81.5049C34.0932 81.5866 34.0687 81.6753 34.0454 81.7699C34.029 81.8329 34.0138 81.8994 33.9998 81.966C33.9917 81.9998 33.9847 82.0337 33.9777 82.0687L33.9566 82.1749V82.1913C33.9426 82.2637 33.9286 82.3384 33.9158 82.4143C33.9029 82.4901 33.8878 82.5777 33.8749 82.6606C33.8656 82.7143 33.8574 82.768 33.8504 82.8217C33.8341 82.9256 33.8201 83.0306 33.8061 83.1345C33.7979 83.1952 33.7897 83.2513 33.7827 83.3155L33.7547 83.5489C33.8142 83.7404 33.8808 83.9295 33.9496 84.1151C33.9936 84.2168 34.0193 84.3255 34.0255 84.4361C35.458 84.8455 36.9765 84.8455 38.409 84.4361C38.4085 84.4323 38.4085 84.4283 38.409 84.4245C38.3874 84.3197 38.378 84.2127 38.381 84.1058C38.4046 83.8063 38.4435 83.5082 38.4977 83.2127C38.515 83.0671 38.5224 82.9204 38.5199 82.7738V82.7213C38.5164 82.6769 38.5152 82.6349 38.5141 82.5929ZM38.5141 82.5929C38.5141 82.5462 38.5141 82.4995 38.5059 82.4528C38.4977 82.4061 38.4989 82.3652 38.4931 82.3209C38.4872 82.2765 38.4826 82.2321 38.4767 82.1878C38.4709 82.1434 38.4627 82.0991 38.4545 82.0547C38.4464 82.0103 38.4382 81.966 38.4289 81.9216C38.4289 81.9064 38.423 81.8924 38.4195 81.8773C38.4067 81.8189 38.3927 81.7605 38.3775 81.701C38.3623 81.6414 38.353 81.6064 38.339 81.5597C38.339 81.5387 38.3273 81.5177 38.3203 81.4979C38.3133 81.478 38.3004 81.4302 38.2899 81.3963L38.2689 81.3309C38.2596 81.3017 38.2502 81.2726 38.2397 81.2434C38.2222 81.1908 38.2036 81.1395 38.1849 81.0869C38.1662 81.0344 38.1464 80.9831 38.1265 80.9317C38.0868 80.8266 38.0436 80.7227 38.0004 80.6188C37.8312 80.2149 37.6409 79.8168 37.4658 79.4223C37.3717 79.2154 37.2883 79.0038 37.216 78.7884L37.1938 78.8199C37.1583 78.8736 37.1267 78.9298 37.0992 78.988C37.0992 79.9067 36.1793 81.0309 36.1793 81.0309L35.2536 79.6826L34.4434 80.9282C34.3267 80.9901 34.21 81.2025 34.1189 81.5049C34.0932 81.5866 34.0687 81.6753 34.0454 81.7699C34.029 81.8329 34.0138 81.8994 33.9998 81.966C33.9917 81.9998 33.9847 82.0337 33.9777 82.0687L33.9566 82.1749V82.1913C33.9426 82.2637 33.9286 82.3384 33.9158 82.4143C33.9029 82.4901 33.8878 82.5777 33.8749 82.6606C33.8656 82.7143 33.8574 82.768 33.8504 82.8217C33.8341 82.9256 33.8201 83.0306 33.8061 83.1345C33.7979 83.1952 33.7897 83.2513 33.7827 83.3155L33.7547 83.5489C33.8142 83.7404 33.8808 83.9295 33.9496 84.1151C33.9936 84.2168 34.0193 84.3255 34.0255 84.4361C35.458 84.8455 36.9765 84.8455 38.409 84.4361C38.4085 84.4323 38.4085 84.4283 38.409 84.4245C38.3874 84.3197 38.378 84.2127 38.381 84.1058C38.4046 83.8063 38.4435 83.5082 38.4977 83.2127C38.515 83.0671 38.5224 82.9204 38.5199 82.7738V82.7213C38.5164 82.6769 38.5152 82.6349 38.5141 82.5929ZM38.5141 82.5929C38.5141 82.5462 38.5141 82.4995 38.5059 82.4528C38.4977 82.4061 38.4989 82.3652 38.4931 82.3209C38.4872 82.2765 38.4826 82.2321 38.4767 82.1878C38.4709 82.1434 38.4627 82.0991 38.4545 82.0547C38.4464 82.0103 38.4382 81.966 38.4289 81.9216C38.4289 81.9064 38.423 81.8924 38.4195 81.8773C38.4067 81.8189 38.3927 81.7605 38.3775 81.701C38.3623 81.6414 38.353 81.6064 38.339 81.5597C38.339 81.5387 38.3273 81.5177 38.3203 81.4979C38.3133 81.478 38.3004 81.4302 38.2899 81.3963L38.2689 81.3309C38.2596 81.3017 38.2502 81.2726 38.2397 81.2434C38.2222 81.1908 38.2036 81.1395 38.1849 81.0869C38.1662 81.0344 38.1464 80.9831 38.1265 80.9317C38.0868 80.8266 38.0436 80.7227 38.0004 80.6188C37.8312 80.2149 37.6409 79.8168 37.4658 79.4223C37.3717 79.2154 37.2883 79.0038 37.216 78.7884L37.1938 78.8199C37.1583 78.8736 37.1267 78.9298 37.0992 78.988C37.0992 79.9067 36.1793 81.0309 36.1793 81.0309L35.2536 79.6826L34.4434 80.9282C34.3267 80.9901 34.21 81.2025 34.1189 81.5049C34.0932 81.5866 34.0687 81.6753 34.0454 81.7699C34.029 81.8329 34.0138 81.8994 33.9998 81.966C33.9917 81.9998 33.9847 82.0337 33.9777 82.0687L33.9566 82.1749V82.1913C33.9426 82.2637 33.9286 82.3384 33.9158 82.4143C33.9029 82.4901 33.8878 82.5777 33.8749 82.6606C33.8656 82.7143 33.8574 82.768 33.8504 82.8217C33.8341 82.9256 33.8201 83.0306 33.8061 83.1345C33.7979 83.1952 33.7897 83.2513 33.7827 83.3155L33.7547 83.5489C33.8142 83.7404 33.8808 83.9295 33.9496 84.1151C33.9936 84.2168 34.0193 84.3255 34.0255 84.4361C35.458 84.8455 36.9765 84.8455 38.409 84.4361C38.4085 84.4323 38.4085 84.4283 38.409 84.4245C38.3874 84.3197 38.378 84.2127 38.381 84.1058C38.4046 83.8063 38.4435 83.5082 38.4977 83.2127C38.515 83.0671 38.5224 82.9204 38.5199 82.7738V82.7213C38.5164 82.6769 38.5152 82.6349 38.5141 82.5929ZM39.7515 80.4017L39.3347 78.7382L39.2635 78.4533L39.2437 78.3751L39.1421 77.9689C39.1424 77.9654 39.1424 77.9619 39.1421 77.9584C39.1445 77.9404 39.1417 77.9222 39.134 77.9058C39.1188 77.8755 39.0803 77.844 38.9904 77.8358C38.9562 77.8334 38.9218 77.8334 38.8876 77.8358C38.7862 77.8458 38.6858 77.8646 38.5876 77.8918C38.5398 77.9047 38.4884 77.9187 38.4335 77.9362L38.3331 77.9677H38.3238C38.0549 78.056 37.8053 78.1946 37.5883 78.3763C37.445 78.4958 37.3193 78.6349 37.2148 78.7895L37.1926 78.8211C37.1571 78.8748 37.1255 78.931 37.098 78.9892C37.098 79.9079 36.1782 81.0321 36.1782 81.0321L35.2524 79.6838L35.1999 79.6079L35.1906 79.595L35.0563 79.3978L34.9547 79.2623L34.9279 79.2273L34.4493 78.5888L34.2975 78.3821V78.3751L34.245 78.3039L34.1446 78.1708L33.7944 78.3751L32.9188 78.8853L32.5149 81.513V81.5411L32.5266 81.7325L32.613 83.1952V83.2781L32.4811 83.8046C32.8337 83.9948 33.2006 84.1571 33.5784 84.2902L33.6776 84.3252C33.7944 84.3638 33.9041 84.3988 34.0185 84.4326C34.0228 84.4499 34.0259 84.4675 34.0279 84.4852C34.0279 84.4688 34.0279 84.4513 34.0279 84.435C35.4603 84.8443 36.9789 84.8443 38.4113 84.435L38.4382 84.4268C38.5047 84.4081 38.5724 84.3883 38.6378 84.3661L38.744 84.3323C39.0321 84.2359 39.3143 84.1229 39.5892 83.9937L39.6861 81.9064L39.7562 80.4157L39.7515 80.4017ZM34.0103 84.4326C34.0146 84.4499 34.0177 84.4675 34.0197 84.4852C34.0197 84.4688 34.0197 84.4513 34.0197 84.435L34.0103 84.4326ZM38.5141 82.5929C38.5141 82.5462 38.5141 82.4995 38.5059 82.4528C38.4977 82.4061 38.4989 82.3652 38.4931 82.3209C38.4872 82.2765 38.4826 82.2321 38.4767 82.1878C38.4709 82.1434 38.4627 82.0991 38.4545 82.0547C38.4464 82.0103 38.4382 81.966 38.4289 81.9216C38.4289 81.9064 38.423 81.8924 38.4195 81.8773C38.4067 81.8189 38.3927 81.7605 38.3775 81.701C38.3623 81.6414 38.353 81.6064 38.339 81.5597C38.339 81.5387 38.3273 81.5177 38.3203 81.4979C38.3133 81.478 38.3004 81.4302 38.2899 81.3963L38.2689 81.3309C38.2596 81.3017 38.2502 81.2726 38.2397 81.2434C38.2222 81.1908 38.2036 81.1395 38.1849 81.0869C38.1662 81.0344 38.1464 80.9831 38.1265 80.9317C38.0868 80.8266 38.0436 80.7227 38.0004 80.6188C37.8312 80.2149 37.6409 79.8168 37.4658 79.4223C37.3717 79.2154 37.2883 79.0038 37.216 78.7884L37.1938 78.8199C37.1583 78.8736 37.1267 78.9298 37.0992 78.988C37.0992 79.9067 36.1793 81.0309 36.1793 81.0309L35.2536 79.6826L34.4434 80.9282C34.3267 80.9901 34.21 81.2025 34.1189 81.5049C34.0932 81.5866 34.0687 81.6753 34.0454 81.7699C34.029 81.8329 34.0138 81.8994 33.9998 81.966C33.9917 81.9998 33.9847 82.0337 33.9777 82.0687L33.9566 82.1749V82.1913C33.9426 82.2637 33.9286 82.3384 33.9158 82.4143C33.9029 82.4901 33.8878 82.5777 33.8749 82.6606C33.8656 82.7143 33.8574 82.768 33.8504 82.8217C33.8341 82.9256 33.8201 83.0306 33.8061 83.1345C33.7979 83.1952 33.7897 83.2513 33.7827 83.3155L33.7547 83.5489C33.8142 83.7404 33.8808 83.9295 33.9496 84.1151C33.9936 84.2168 34.0193 84.3255 34.0255 84.4361C35.458 84.8455 36.9765 84.8455 38.409 84.4361C38.4085 84.4323 38.4085 84.4283 38.409 84.4245C38.3874 84.3197 38.378 84.2127 38.381 84.1058C38.4046 83.8063 38.4435 83.5082 38.4977 83.2127C38.515 83.0671 38.5224 82.9204 38.5199 82.7738V82.7213C38.5164 82.6769 38.5152 82.6349 38.5141 82.5929ZM38.5141 82.5929C38.5141 82.5462 38.5141 82.4995 38.5059 82.4528C38.4977 82.4061 38.4989 82.3652 38.4931 82.3209C38.4872 82.2765 38.4826 82.2321 38.4767 82.1878C38.4709 82.1434 38.4627 82.0991 38.4545 82.0547C38.4464 82.0103 38.4382 81.966 38.4289 81.9216C38.4289 81.9064 38.423 81.8924 38.4195 81.8773C38.4067 81.8189 38.3927 81.7605 38.3775 81.701C38.3623 81.6414 38.353 81.6064 38.339 81.5597C38.339 81.5387 38.3273 81.5177 38.3203 81.4979C38.3133 81.478 38.3004 81.4302 38.2899 81.3963L38.2689 81.3309C38.2596 81.3017 38.2502 81.2726 38.2397 81.2434C38.2222 81.1908 38.2036 81.1395 38.1849 81.0869C38.1662 81.0344 38.1464 80.9831 38.1265 80.9317C38.0868 80.8266 38.0436 80.7227 38.0004 80.6188C37.8312 80.2149 37.6409 79.8168 37.4658 79.4223C37.3717 79.2154 37.2883 79.0038 37.216 78.7884L37.1938 78.8199C37.1583 78.8736 37.1267 78.9298 37.0992 78.988C37.0992 79.9067 36.1793 81.0309 36.1793 81.0309L35.2536 79.6826L34.4434 80.9282C34.3267 80.9901 34.21 81.2025 34.1189 81.5049C34.0932 81.5866 34.0687 81.6753 34.0454 81.7699C34.029 81.8329 34.0138 81.8994 33.9998 81.966C33.9917 81.9998 33.9847 82.0337 33.9777 82.0687L33.9566 82.1749V82.1913C33.9426 82.2637 33.9286 82.3384 33.9158 82.4143C33.9029 82.4901 33.8878 82.5777 33.8749 82.6606C33.8656 82.7143 33.8574 82.768 33.8504 82.8217C33.8341 82.9256 33.8201 83.0306 33.8061 83.1345C33.7979 83.1952 33.7897 83.2513 33.7827 83.3155L33.7547 83.5489C33.8142 83.7404 33.8808 83.9295 33.9496 84.1151C33.9936 84.2168 34.0193 84.3255 34.0255 84.4361C35.458 84.8455 36.9765 84.8455 38.409 84.4361C38.4085 84.4323 38.4085 84.4283 38.409 84.4245C38.3874 84.3197 38.378 84.2127 38.381 84.1058C38.4046 83.8063 38.4435 83.5082 38.4977 83.2127C38.515 83.0671 38.5224 82.9204 38.5199 82.7738V82.7213C38.5164 82.6769 38.5152 82.6349 38.5141 82.5929ZM38.5141 82.5929C38.5141 82.5462 38.5141 82.4995 38.5059 82.4528C38.4977 82.4061 38.4989 82.3652 38.4931 82.3209C38.4872 82.2765 38.4826 82.2321 38.4767 82.1878C38.4709 82.1434 38.4627 82.0991 38.4545 82.0547C38.4464 82.0103 38.4382 81.966 38.4289 81.9216C38.4289 81.9064 38.423 81.8924 38.4195 81.8773C38.4067 81.8189 38.3927 81.7605 38.3775 81.701C38.3623 81.6414 38.353 81.6064 38.339 81.5597C38.339 81.5387 38.3273 81.5177 38.3203 81.4979C38.3133 81.478 38.3004 81.4302 38.2899 81.3963L38.2689 81.3309C38.2596 81.3017 38.2502 81.2726 38.2397 81.2434C38.2222 81.1908 38.2036 81.1395 38.1849 81.0869C38.1662 81.0344 38.1464 80.9831 38.1265 80.9317C38.0868 80.8266 38.0436 80.7227 38.0004 80.6188C37.8312 80.2149 37.6409 79.8168 37.4658 79.4223C37.3717 79.2154 37.2883 79.0038 37.216 78.7884L37.1938 78.8199C37.1583 78.8736 37.1267 78.9298 37.0992 78.988C37.0992 79.9067 36.1793 81.0309 36.1793 81.0309L35.2536 79.6826L34.4434 80.9282C34.3267 80.9901 34.21 81.2025 34.1189 81.5049C34.0932 81.5866 34.0687 81.6753 34.0454 81.7699C34.029 81.8329 34.0138 81.8994 33.9998 81.966C33.9917 81.9998 33.9847 82.0337 33.9777 82.0687L33.9566 82.1749V82.1913C33.9426 82.2637 33.9286 82.3384 33.9158 82.4143C33.9029 82.4901 33.8878 82.5777 33.8749 82.6606C33.8656 82.7143 33.8574 82.768 33.8504 82.8217C33.8341 82.9256 33.8201 83.0306 33.8061 83.1345C33.7979 83.1952 33.7897 83.2513 33.7827 83.3155L33.7547 83.5489C33.8142 83.7404 33.8808 83.9295 33.9496 84.1151C33.9936 84.2168 34.0193 84.3255 34.0255 84.4361C35.458 84.8455 36.9765 84.8455 38.409 84.4361C38.4085 84.4323 38.4085 84.4283 38.409 84.4245C38.3874 84.3197 38.378 84.2127 38.381 84.1058C38.4046 83.8063 38.4435 83.5082 38.4977 83.2127C38.515 83.0671 38.5224 82.9204 38.5199 82.7738V82.7213C38.5164 82.6769 38.5152 82.6349 38.5141 82.5929ZM38.5141 82.5929C38.5141 82.5462 38.5141 82.4995 38.5059 82.4528C38.4977 82.4061 38.4989 82.3652 38.4931 82.3209C38.4872 82.2765 38.4826 82.2321 38.4767 82.1878C38.4709 82.1434 38.4627 82.0991 38.4545 82.0547C38.4464 82.0103 38.4382 81.966 38.4289 81.9216C38.4289 81.9064 38.423 81.8924 38.4195 81.8773C38.4067 81.8189 38.3927 81.7605 38.3775 81.701C38.3623 81.6414 38.353 81.6064 38.339 81.5597C38.339 81.5387 38.3273 81.5177 38.3203 81.4979C38.3133 81.478 38.3004 81.4302 38.2899 81.3963L38.2689 81.3309C38.2596 81.3017 38.2502 81.2726 38.2397 81.2434C38.2222 81.1908 38.2036 81.1395 38.1849 81.0869C38.1662 81.0344 38.1464 80.9831 38.1265 80.9317C38.0868 80.8266 38.0436 80.7227 38.0004 80.6188C37.8312 80.2149 37.6409 79.8168 37.4658 79.4223C37.3717 79.2154 37.2883 79.0038 37.216 78.7884L37.1938 78.8199C37.1583 78.8736 37.1267 78.9298 37.0992 78.988C37.0992 79.9067 36.1793 81.0309 36.1793 81.0309L35.2536 79.6826L34.4434 80.9282C34.3267 80.9901 34.21 81.2025 34.1189 81.5049C34.0932 81.5866 34.0687 81.6753 34.0454 81.7699C34.029 81.8329 34.0138 81.8994 33.9998 81.966C33.9917 81.9998 33.9847 82.0337 33.9777 82.0687L33.9566 82.1749V82.1913C33.9426 82.2637 33.9286 82.3384 33.9158 82.4143C33.9029 82.4901 33.8878 82.5777 33.8749 82.6606C33.8656 82.7143 33.8574 82.768 33.8504 82.8217C33.8341 82.9256 33.8201 83.0306 33.8061 83.1345C33.7979 83.1952 33.7897 83.2513 33.7827 83.3155L33.7547 83.5489C33.8142 83.7404 33.8808 83.9295 33.9496 84.1151C33.9936 84.2168 34.0193 84.3255 34.0255 84.4361C35.458 84.8455 36.9765 84.8455 38.409 84.4361C38.4085 84.4323 38.4085 84.4283 38.409 84.4245C38.3874 84.3197 38.378 84.2127 38.381 84.1058C38.4046 83.8063 38.4435 83.5082 38.4977 83.2127C38.515 83.0671 38.5224 82.9204 38.5199 82.7738V82.7213C38.5164 82.6769 38.5152 82.6349 38.5141 82.5929ZM38.5141 82.5929C38.5141 82.5462 38.5141 82.4995 38.5059 82.4528C38.4977 82.4061 38.4989 82.3652 38.4931 82.3209C38.4872 82.2765 38.4826 82.2321 38.4767 82.1878C38.4709 82.1434 38.4627 82.0991 38.4545 82.0547C38.4464 82.0103 38.4382 81.966 38.4289 81.9216C38.4289 81.9064 38.423 81.8924 38.4195 81.8773C38.4067 81.8189 38.3927 81.7605 38.3775 81.701C38.3623 81.6414 38.353 81.6064 38.339 81.5597C38.339 81.5387 38.3273 81.5177 38.3203 81.4979C38.3133 81.478 38.3004 81.4302 38.2899 81.3963L38.2689 81.3309C38.2596 81.3017 38.2502 81.2726 38.2397 81.2434C38.2222 81.1908 38.2036 81.1395 38.1849 81.0869C38.1662 81.0344 38.1464 80.9831 38.1265 80.9317C38.0868 80.8266 38.0436 80.7227 38.0004 80.6188C37.8312 80.2149 37.6409 79.8168 37.4658 79.4223C37.3717 79.2154 37.2883 79.0038 37.216 78.7884L37.1938 78.8199C37.1583 78.8736 37.1267 78.9298 37.0992 78.988C37.0992 79.9067 36.1793 81.0309 36.1793 81.0309L35.2536 79.6826L34.4434 80.9282C34.3267 80.9901 34.21 81.2025 34.1189 81.5049C34.0932 81.5866 34.0687 81.6753 34.0454 81.7699C34.029 81.8329 34.0138 81.8994 33.9998 81.966C33.9917 81.9998 33.9847 82.0337 33.9777 82.0687L33.9566 82.1749V82.1913C33.9426 82.2637 33.9286 82.3384 33.9158 82.4143C33.9029 82.4901 33.8878 82.5777 33.8749 82.6606C33.8656 82.7143 33.8574 82.768 33.8504 82.8217C33.8341 82.9256 33.8201 83.0306 33.8061 83.1345C33.7979 83.1952 33.7897 83.2513 33.7827 83.3155L33.7547 83.5489C33.8142 83.7404 33.8808 83.9295 33.9496 84.1151C33.9936 84.2168 34.0193 84.3255 34.0255 84.4361C35.458 84.8455 36.9765 84.8455 38.409 84.4361C38.4085 84.4323 38.4085 84.4283 38.409 84.4245C38.3874 84.3197 38.378 84.2127 38.381 84.1058C38.4046 83.8063 38.4435 83.5082 38.4977 83.2127C38.515 83.0671 38.5224 82.9204 38.5199 82.7738V82.7213C38.5164 82.6769 38.5152 82.6349 38.5141 82.5929ZM38.5141 82.5929C38.5141 82.5462 38.5141 82.4995 38.5059 82.4528C38.4977 82.4061 38.4989 82.3652 38.4931 82.3209C38.4872 82.2765 38.4826 82.2321 38.4767 82.1878C38.4709 82.1434 38.4627 82.0991 38.4545 82.0547C38.4464 82.0103 38.4382 81.966 38.4289 81.9216C38.4289 81.9064 38.423 81.8924 38.4195 81.8773C38.4067 81.8189 38.3927 81.7605 38.3775 81.701C38.3623 81.6414 38.353 81.6064 38.339 81.5597C38.339 81.5387 38.3273 81.5177 38.3203 81.4979C38.3133 81.478 38.3004 81.4302 38.2899 81.3963L38.2689 81.3309C38.2596 81.3017 38.2502 81.2726 38.2397 81.2434C38.2222 81.1908 38.2036 81.1395 38.1849 81.0869C38.1662 81.0344 38.1464 80.9831 38.1265 80.9317C38.0868 80.8266 38.0436 80.7227 38.0004 80.6188C37.8312 80.2149 37.6409 79.8168 37.4658 79.4223C37.3717 79.2154 37.2883 79.0038 37.216 78.7884L37.1938 78.8199C37.1583 78.8736 37.1267 78.9298 37.0992 78.988C37.0992 79.9067 36.1793 81.0309 36.1793 81.0309L35.2536 79.6826L34.4434 80.9282C34.3267 80.9901 34.21 81.2025 34.1189 81.5049C34.0932 81.5866 34.0687 81.6753 34.0454 81.7699C34.029 81.8329 34.0138 81.8994 33.9998 81.966C33.9917 81.9998 33.9847 82.0337 33.9777 82.0687L33.9566 82.1749V82.1913C33.9426 82.2637 33.9286 82.3384 33.9158 82.4143C33.9029 82.4901 33.8878 82.5777 33.8749 82.6606C33.8656 82.7143 33.8574 82.768 33.8504 82.8217C33.8341 82.9256 33.8201 83.0306 33.8061 83.1345C33.7979 83.1952 33.7897 83.2513 33.7827 83.3155L33.7547 83.5489C33.8142 83.7404 33.8808 83.9295 33.9496 84.1151C33.9936 84.2168 34.0193 84.3255 34.0255 84.4361C35.458 84.8455 36.9765 84.8455 38.409 84.4361C38.4085 84.4323 38.4085 84.4283 38.409 84.4245C38.3874 84.3197 38.378 84.2127 38.381 84.1058C38.4046 83.8063 38.4435 83.5082 38.4977 83.2127C38.515 83.0671 38.5224 82.9204 38.5199 82.7738V82.7213C38.5164 82.6769 38.5152 82.6349 38.5141 82.5929ZM38.5141 82.5929C38.5141 82.5462 38.5141 82.4995 38.5059 82.4528C38.4977 82.4061 38.4989 82.3652 38.4931 82.3209C38.4872 82.2765 38.4826 82.2321 38.4767 82.1878C38.4709 82.1434 38.4627 82.0991 38.4545 82.0547C38.4464 82.0103 38.4382 81.966 38.4289 81.9216C38.4289 81.9064 38.423 81.8924 38.4195 81.8773C38.4067 81.8189 38.3927 81.7605 38.3775 81.701C38.3623 81.6414 38.353 81.6064 38.339 81.5597C38.339 81.5387 38.3273 81.5177 38.3203 81.4979C38.3133 81.478 38.3004 81.4302 38.2899 81.3963L38.2689 81.3309C38.2596 81.3017 38.2502 81.2726 38.2397 81.2434C38.2222 81.1908 38.2036 81.1395 38.1849 81.0869C38.1662 81.0344 38.1464 80.9831 38.1265 80.9317C38.0868 80.8266 38.0436 80.7227 38.0004 80.6188C37.8312 80.2149 37.6409 79.8168 37.4658 79.4223C37.3717 79.2154 37.2883 79.0038 37.216 78.7884L37.1938 78.8199C37.1583 78.8736 37.1267 78.9298 37.0992 78.988C37.0992 79.9067 36.1793 81.0309 36.1793 81.0309L35.2536 79.6826L34.4434 80.9282C34.3267 80.9901 34.21 81.2025 34.1189 81.5049C34.0932 81.5866 34.0687 81.6753 34.0454 81.7699C34.029 81.8329 34.0138 81.8994 33.9998 81.966C33.9917 81.9998 33.9847 82.0337 33.9777 82.0687L33.9566 82.1749V82.1913C33.9426 82.2637 33.9286 82.3384 33.9158 82.4143C33.9029 82.4901 33.8878 82.5777 33.8749 82.6606C33.8656 82.7143 33.8574 82.768 33.8504 82.8217C33.8341 82.9256 33.8201 83.0306 33.8061 83.1345C33.7979 83.1952 33.7897 83.2513 33.7827 83.3155L33.7547 83.5489C33.8142 83.7404 33.8808 83.9295 33.9496 84.1151C33.9936 84.2168 34.0193 84.3255 34.0255 84.4361C35.458 84.8455 36.9765 84.8455 38.409 84.4361C38.4085 84.4323 38.4085 84.4283 38.409 84.4245C38.3874 84.3197 38.378 84.2127 38.381 84.1058C38.4046 83.8063 38.4435 83.5082 38.4977 83.2127C38.515 83.0671 38.5224 82.9204 38.5199 82.7738V82.7213C38.5164 82.6769 38.5152 82.6349 38.5141 82.5929ZM38.5141 82.5929C38.5141 82.5462 38.5141 82.4995 38.5059 82.4528C38.4977 82.4061 38.4989 82.3652 38.4931 82.3209C38.4872 82.2765 38.4826 82.2321 38.4767 82.1878C38.4709 82.1434 38.4627 82.0991 38.4545 82.0547C38.4464 82.0103 38.4382 81.966 38.4289 81.9216C38.4289 81.9064 38.423 81.8924 38.4195 81.8773C38.4067 81.8189 38.3927 81.7605 38.3775 81.701C38.3623 81.6414 38.353 81.6064 38.339 81.5597C38.339 81.5387 38.3273 81.5177 38.3203 81.4979C38.3133 81.478 38.3004 81.4302 38.2899 81.3963L38.2689 81.3309C38.2596 81.3017 38.2502 81.2726 38.2397 81.2434C38.2222 81.1908 38.2036 81.1395 38.1849 81.0869C38.1662 81.0344 38.1464 80.9831 38.1265 80.9317C38.0868 80.8266 38.0436 80.7227 38.0004 80.6188C37.8312 80.2149 37.6409 79.8168 37.4658 79.4223C37.3717 79.2154 37.2883 79.0038 37.216 78.7884L37.1938 78.8199C37.1583 78.8736 37.1267 78.9298 37.0992 78.988C37.0992 79.9067 36.1793 81.0309 36.1793 81.0309L35.2536 79.6826L34.4434 80.9282C34.3267 80.9901 34.21 81.2025 34.1189 81.5049C34.0932 81.5866 34.0687 81.6753 34.0454 81.7699C34.029 81.8329 34.0138 81.8994 33.9998 81.966C33.9917 81.9998 33.9847 82.0337 33.9777 82.0687L33.9566 82.1749V82.1913C33.9426 82.2637 33.9286 82.3384 33.9158 82.4143C33.9029 82.4901 33.8878 82.5777 33.8749 82.6606C33.8656 82.7143 33.8574 82.768 33.8504 82.8217C33.8341 82.9256 33.8201 83.0306 33.8061 83.1345C33.7979 83.1952 33.7897 83.2513 33.7827 83.3155L33.7547 83.5489C33.8142 83.7404 33.8808 83.9295 33.9496 84.1151C33.9936 84.2168 34.0193 84.3255 34.0255 84.4361C35.458 84.8455 36.9765 84.8455 38.409 84.4361C38.4085 84.4323 38.4085 84.4283 38.409 84.4245C38.3874 84.3197 38.378 84.2127 38.381 84.1058C38.4046 83.8063 38.4435 83.5082 38.4977 83.2127C38.515 83.0671 38.5224 82.9204 38.5199 82.7738V82.7213C38.5164 82.6769 38.5152 82.6349 38.5141 82.5929Z" fill="#444176"/>
<path opacity="0.1" d="M35.2699 79.6043L35.1917 79.5938C35.0736 79.5778 34.9566 79.5544 34.8414 79.5238L34.7983 79.5121C34.5134 79.4315 34.2017 79.2868 34.1317 79.0323C34.1108 78.9504 34.1133 78.8643 34.1387 78.7837C34.1779 78.6448 34.2311 78.5102 34.2975 78.3821V78.3751C34.3062 78.3571 34.316 78.3395 34.3266 78.3225C34.423 78.1343 34.5686 77.9757 34.7481 77.8638L34.608 77.8859L33.4219 78.0786L31.5833 78.3751C31.5833 78.3751 31.2564 78.3097 30.8117 79.5354C30.8117 79.5506 30.8012 79.5646 30.7965 79.581C30.6891 79.881 30.5759 80.2557 30.4591 80.7238C30.3786 81.0484 30.305 81.3671 30.2373 81.6764C30.2175 81.7698 30.1976 81.862 30.179 81.9531C30.3894 82.2012 30.616 82.4352 30.8572 82.6535L30.8957 82.6897C31.3681 83.1175 31.8902 83.4871 32.4507 83.7905L32.4728 83.8022C32.8254 83.9924 33.1923 84.1547 33.5702 84.2878L33.6694 84.3228C33.6904 84.1069 33.7138 83.8676 33.7418 83.6224C33.7418 83.5979 33.7418 83.5734 33.7511 83.5489L33.7791 83.3154C33.7861 83.2559 33.7943 83.1987 33.8025 83.1345C33.8165 83.0306 33.8305 82.9255 33.8468 82.8216C33.8539 82.7679 33.862 82.7142 33.8714 82.6605C33.8842 82.5776 33.8982 82.4947 33.9122 82.4142C33.9262 82.3336 33.9391 82.2636 33.9531 82.1912V82.1749L33.9741 82.0686C33.9811 82.0336 33.9881 81.9998 33.9963 81.9659C34.0103 81.8994 34.0255 81.8328 34.0418 81.7698C34.0651 81.6752 34.0897 81.5865 34.1153 81.5048C34.2087 81.2025 34.3173 80.99 34.4399 80.9281L35.25 79.6825L35.2839 79.63L35.2991 79.6067L35.2699 79.6043Z" fill="black"/>
<path opacity="0.1" d="M35.4648 73.3894C35.8291 73.3275 36.1956 73.1944 36.5575 73.2726C36.861 73.3357 37.1143 73.5376 37.3922 73.6777C37.6604 73.8126 37.9538 73.8902 38.2537 73.9054C38.3631 73.9197 38.4742 73.898 38.5701 73.8435C38.7148 73.7431 38.7358 73.5376 38.7113 73.3625C38.6413 72.8652 38.3307 72.438 38.0109 72.0504C37.8832 71.8848 37.7358 71.7355 37.572 71.6056C37.1529 71.2963 36.5984 71.2437 36.0789 71.2671C35.4859 71.2939 34.8835 71.4083 34.3687 71.706C34.0185 71.9068 33.2153 72.5395 33.4943 72.9971C33.7873 73.4758 35.0061 73.4676 35.4648 73.3894Z" fill="black"/>
<path opacity="0.5" d="M35.4648 73.2727C35.8291 73.2108 36.1956 73.0777 36.5575 73.1559C36.861 73.219 37.1143 73.4209 37.3922 73.561C37.6604 73.6959 37.9538 73.7735 38.2537 73.7887C38.3631 73.803 38.4742 73.7813 38.5701 73.7268C38.7148 73.6264 38.7358 73.4209 38.7113 73.2458C38.6413 72.7485 38.3307 72.3213 38.0109 71.9337C37.8832 71.7681 37.7358 71.6188 37.572 71.4889C37.1529 71.1796 36.5984 71.127 36.0789 71.1504C35.4859 71.1772 34.8835 71.2916 34.3687 71.5893C34.0185 71.7901 33.2153 72.4228 33.4943 72.8804C33.7873 73.3591 35.0061 73.3509 35.4648 73.2727Z" fill="#444176"/>
</g>
<path d="M67.5221 67.5559H67.5396C67.5653 68.338 67.6762 69.0454 67.8898 69.2416C68.3988 69.7085 70.5094 68.7746 70.3647 68.2096C70.3355 68.0928 70.2864 67.9014 70.2246 67.6598C70.7943 67.5885 71.281 67.4263 71.4748 67.0924L71.8414 68.2224L71.8671 68.303H71.8741H71.8951C72.1367 70.5934 72.6842 75.3493 73.122 75.9866C73.7057 76.8307 74.3769 80.488 74.3769 80.488L75.6319 87.9908C75.6319 87.9908 76.1151 92.31 76.4047 92.777C76.4889 92.8662 76.6008 92.9242 76.7222 92.9416C76.5529 93.4482 76.3101 94.0401 76.0218 94.3705C75.4381 95.0265 74.6699 96.3398 73.994 96.2464C73.3181 96.153 73.1255 97.5597 74.3804 97.7465C75.075 97.8504 76.1829 97.7243 77.0339 97.5912C77.0339 97.9671 77.2954 98.3991 77.9526 98.4971C79.2075 98.6851 81.8143 98.1224 81.8143 98.1224C81.8143 98.1224 84.0323 97.1885 84.1315 96.5278C84.2016 96.0491 83.8618 94.1276 83.6727 93.1202C84.0229 92.5587 83.6494 87.7129 83.6494 87.7129L82.9735 78.4288C82.9735 78.4288 83.3599 73.2713 82.9735 72.3328C82.7318 71.7491 82.6419 69.0641 82.6081 67.1438L83.075 67.1741C83.1016 67.1421 83.1258 67.1081 83.1474 67.0726L83.2642 67.0807C83.2642 67.0807 83.8478 66.4247 83.361 65.3927C83.0027 64.6258 83.0704 61.1633 83.1276 59.4391L83.1964 58.6219C83.222 58.5971 83.2416 58.5668 83.2536 58.5332C84.1591 58.4109 85.0391 58.1445 85.8604 57.7441C86.1082 57.641 86.3388 57.5009 86.5445 57.3285C87.0278 56.8615 86.7371 54.0458 85.7717 49.8258C84.8063 45.6057 83.9377 45.9804 83.9377 45.9804C83.9377 45.9804 81.6205 45.7925 80.5582 44.3858C79.4959 42.9791 78.7826 42.9978 78.7826 42.9978C78.7558 42.8133 78.7371 42.6394 78.7242 42.4771C78.7242 42.4164 78.7149 42.3604 78.7114 42.2997C79.0725 41.9638 79.3479 41.5463 79.5145 41.0821C79.7317 40.9654 79.999 40.9269 80.2068 40.7798C80.2598 40.7413 80.308 40.6966 80.3504 40.6467C80.5586 40.4546 80.6908 40.1939 80.7228 39.9124C80.7559 39.605 80.7413 39.2943 80.6796 38.9914C80.606 38.5431 80.4975 38.0843 80.236 37.7318C79.9745 37.3792 79.5834 37.1668 79.2064 36.9695C78.1853 36.4333 77.1615 35.9025 76.135 35.3772C75.9345 35.2546 75.7107 35.1751 75.4778 35.1437C75.0668 35.1203 74.698 35.4017 74.3664 35.669C74.2341 35.7731 74.1075 35.8842 73.987 36.0017C73.8846 36.0925 73.7912 36.193 73.708 36.3017C73.3205 36.8212 73.1559 37.7995 73.3263 38.4485C73.38 38.654 73.4956 38.7135 73.638 38.7112C73.4266 39.1313 73.3167 39.5951 73.317 40.0653C73.3193 40.5802 73.451 41.0862 73.7001 41.5369C73.9492 41.9875 74.3076 42.3682 74.7423 42.6441C74.7423 42.7095 74.7423 42.7737 74.7482 42.8355C74.7529 43.0751 74.7451 43.3147 74.7248 43.5535C74.7248 43.5535 72.1566 44.9415 71.8682 45.5975C71.5799 46.2536 70.5164 46.7229 70.5164 46.7229C70.5164 46.7229 68.4887 47.7548 68.4887 51.4122L67.4264 56.5697L67.2338 66.4165C67.2338 66.4165 67.3668 66.2998 67.584 66.134C67.577 66.1994 67.5711 66.2671 67.5653 66.336C67.5364 66.7123 67.5266 67.0898 67.5361 67.4671L67.5221 67.5559ZM80.4916 93.0408C80.4519 93.1914 80.3936 93.391 80.32 93.6245C80.2873 93.4307 80.2547 93.2393 80.222 93.0572C80.306 93.049 80.3959 93.0443 80.4916 93.0408Z" fill="url(#paint3_linear)"/>
<path d="M76.9849 91.8315C76.9849 91.8315 76.6125 93.5055 76.051 94.1557C75.4895 94.806 74.754 96.1088 74.105 96.0154C73.4559 95.922 73.268 97.317 74.4774 97.5026C75.6868 97.6882 78.1908 97.1314 78.1908 97.1314C78.1908 97.1314 80.3294 96.1975 80.4217 95.5507C80.5139 94.904 79.8637 91.5525 79.8637 91.5525L76.9849 91.8315Z" fill="#53526B"/>
<path opacity="0.05" d="M76.9849 91.8315C76.9849 91.8315 76.6125 93.5055 76.051 94.1557C75.4895 94.806 74.754 96.1088 74.105 96.0154C73.4559 95.922 73.268 97.317 74.4774 97.5026C75.6868 97.6882 78.1908 97.1314 78.1908 97.1314C78.1908 97.1314 80.3294 96.1975 80.4217 95.5507C80.5139 94.904 79.8637 91.5525 79.8637 91.5525L76.9849 91.8315Z" fill="black"/>
<path d="M80.4251 92.5751C80.4251 92.5751 80.0527 94.2491 79.4912 94.8993C78.9297 95.5496 78.1908 96.8524 77.5429 96.759C76.895 96.6656 76.7059 98.0606 77.9153 98.2462C79.1247 98.4318 81.6345 97.8738 81.6345 97.8738C81.6345 97.8738 83.7732 96.9399 83.8654 96.2932C83.9576 95.6465 83.3074 92.2949 83.3074 92.2949L80.4251 92.5751Z" fill="#53526B"/>
<path d="M71.964 67.1018C71.964 67.1018 72.7076 75.0972 73.2656 75.9342C73.8236 76.7712 74.4738 80.397 74.4738 80.397L75.6821 87.8344C75.6821 87.8344 76.149 92.1117 76.4257 92.5763C76.7024 93.0409 80.1531 92.8413 80.1531 92.8413L78.0075 68.2166L71.964 67.1018Z" fill="#5F5D7E"/>
<path opacity="0.05" d="M71.964 67.1018C71.964 67.1018 72.7076 75.0972 73.2656 75.9342C73.8236 76.7712 74.4738 80.397 74.4738 80.397L75.6821 87.8344C75.6821 87.8344 76.149 92.1117 76.4257 92.5763C76.7024 93.0409 80.1531 92.8413 80.1531 92.8413L78.0075 68.2166L71.964 67.1018Z" fill="black"/>
<path d="M70.4768 63.2881L70.7196 64.0597L72.0329 68.2284L72.0586 68.3078H72.0656C72.2419 68.3475 75.9635 69.2032 76.7666 69.4658C76.81 69.4792 76.8524 69.4952 76.8939 69.5137C77.2663 69.6993 77.7309 76.393 77.7309 76.393C77.7309 76.393 78.0099 82.7155 78.1978 83.1801C78.3858 83.6448 79.1317 93.2196 79.5928 92.9417C80.054 92.6639 83.4043 92.9417 83.4043 92.9417C83.7767 92.5693 83.4043 87.5496 83.4043 87.5496L82.7436 78.3472C82.7436 78.3472 83.116 73.2341 82.7436 72.3037C82.3712 71.3733 82.3712 65.1454 82.3712 65.1454L74.7611 63.9558L74.0256 63.8391L70.4768 63.2881Z" fill="#5F5D7E"/>
<path opacity="0.02" d="M70.7195 64.061L72.0328 68.2297L72.0643 68.3114C72.2406 68.3511 75.9622 69.2068 76.7653 69.4695H76.8459L74.7668 63.9571L74.7072 63.7983L74.0313 63.8415L70.7195 64.061Z" fill="black"/>
<path opacity="0.1" d="M79.4025 44.6953C79.4025 44.6953 75.9623 48.4146 73.8237 45.3455L71.7784 46.7406L72.1508 48.8792L70.9414 65.0555C70.9414 65.0555 74.1027 64.9621 76.3335 65.7057C76.9548 65.9261 77.6262 65.9644 78.2685 65.8162C78.9109 65.6679 79.4975 65.3392 79.9594 64.8687L79.5917 50.6454L80.4287 46.2759L79.4025 44.6953Z" fill="black"/>
<path d="M79.4025 44.4163C79.4025 44.4163 75.9623 48.1355 73.8237 45.0665L71.7784 46.4615L72.1508 48.6001L70.9414 64.7764C70.9414 64.7764 74.1027 64.683 76.3335 65.4267C76.9548 65.6471 77.6262 65.6854 78.2685 65.5371C78.9109 65.3888 79.4975 65.0601 79.9594 64.5896L79.5917 50.3664L80.4287 45.9969L79.4025 44.4163Z" fill="#53526B"/>
<path d="M72.5348 60.9788V61.5648H72.348V61.1749H71.6651V61.5648H71.4772V60.9799L72.5348 60.9788Z" fill="#E82127"/>
<path d="M72.3679 60.7897H71.6464C71.5992 60.7784 71.5559 60.7544 71.5213 60.7202C71.4868 60.686 71.4622 60.6431 71.4503 60.5959H72.5628C72.5508 60.643 72.5262 60.6859 72.4917 60.7201C72.4571 60.7542 72.4139 60.7783 72.3667 60.7897" fill="#E82127"/>
<path d="M78.8911 60.6028C78.8788 60.6494 78.8542 60.6918 78.8199 60.7257C78.7856 60.7596 78.7429 60.7836 78.6961 60.7954H78.3926L78.3774 60.8012V61.567H78.1907V60.8012L78.1731 60.7954H77.8696C77.8231 60.7833 77.7805 60.7591 77.7463 60.7253C77.712 60.6915 77.6873 60.6492 77.6747 60.6028H78.8911Z" fill="#E82127"/>
<path d="M72.243 63.6616C72.243 63.6616 72.243 66.0792 71.685 67.1019C71.127 68.1245 67.8735 67.5688 67.8735 67.5688L68.5238 64.1286L72.243 63.6616Z" fill="#D6DBE6"/>
<path d="M68.2273 69.2417C68.7176 69.7087 70.7499 68.7748 70.6098 68.2191C70.5118 67.8257 70.1686 66.4178 69.9736 65.6193L69.8382 65.0578C69.8382 65.0578 68.6475 64.6854 68.2273 65.0578C68.0743 65.1933 67.9669 65.7267 67.9167 66.3711C67.8303 67.4906 67.9179 68.9452 68.2273 69.2417Z" fill="#CA9A6E"/>
<path d="M72.7041 46.0892L75.9576 48.5991C75.9576 48.5991 80.7917 48.3201 79.5834 45.9958C79.0573 44.9736 78.7399 43.8569 78.6495 42.7108C78.6102 42.288 78.6102 41.8624 78.6495 41.4395C78.6495 41.4395 74.1867 37.3537 74.7447 41.9975C74.7886 42.354 74.8144 42.7125 74.8217 43.0715C74.8883 46.5573 72.7041 46.0892 72.7041 46.0892Z" fill="#CA9A6E"/>
<path opacity="0.1" d="M74.754 41.9989C74.798 42.3553 74.8237 42.7138 74.831 43.0729C75.3318 43.4046 75.9195 43.5808 76.5202 43.5795C77.3526 43.5795 77.9654 42.7693 78.5188 42.2312C78.4569 41.4595 78.6577 41.4409 78.6577 41.4409C78.6577 41.4409 74.196 37.3504 74.754 41.9989Z" fill="black"/>
<path d="M76.5203 43.3935C78.2146 43.3935 79.5881 42.02 79.5881 40.3257C79.5881 38.6313 78.2146 37.2578 76.5203 37.2578C74.8259 37.2578 73.4524 38.6313 73.4524 40.3257C73.4524 42.02 74.8259 43.3935 76.5203 43.3935Z" fill="#CA9A6E"/>
<path opacity="0.1" d="M78.7044 43.2534C78.7044 43.2534 79.2157 43.3001 80.2383 44.694C81.261 46.0878 83.4918 46.2746 83.4918 46.2746C83.4918 46.2746 84.3288 45.9022 85.2581 50.0861C86.1873 54.2699 86.4663 57.0588 86.0017 57.5234C85.5371 57.988 83.6774 58.6406 82.7435 58.6406C82.7435 58.6406 82.4645 64.4973 82.9292 65.5199C83.3938 66.5425 82.8358 67.1939 82.8358 67.1939L78.7499 66.9149C78.7499 66.9149 77.3549 65.1487 77.0759 62.0808C76.7969 59.013 75.8677 50.2728 76.3323 49.2502C76.7969 48.2276 78.8422 45.6244 78.7499 45.3454C78.6577 45.0663 78.7044 43.2534 78.7044 43.2534Z" fill="black"/>
<path d="M78.7148 43.2256C78.7148 43.2256 79.4024 43.2069 80.425 44.6019C81.4477 45.9969 83.6774 46.1826 83.6774 46.1826C83.6774 46.1826 84.5144 45.8102 85.4436 49.994C86.3728 54.1779 86.6518 56.9668 86.1872 57.4314C85.7226 57.896 83.863 58.5474 82.9337 58.5474C82.9337 58.5474 82.6547 64.4041 83.1193 65.4267C83.584 66.4493 83.026 67.1007 83.026 67.1007L78.9401 66.8217C78.9401 66.8217 77.5451 65.0555 77.2661 61.9876C76.9871 58.9198 76.0556 50.1808 76.5202 49.1629C76.9848 48.1449 79.03 45.537 78.9378 45.258C78.8456 44.979 78.7148 43.2256 78.7148 43.2256Z" fill="#D6DBE6"/>
<path opacity="0.1" d="M67.9178 66.3699C68.3626 66.0302 69.202 65.5014 69.9748 65.6181L69.8393 65.0566C69.8393 65.0566 68.6486 64.6842 68.2284 65.0566C68.0731 65.192 67.9669 65.7244 67.9178 66.3699Z" fill="black"/>
<path opacity="0.1" d="M74.8053 43.8115C74.8053 43.8115 72.4344 45.3455 72.1554 45.9968C71.8764 46.6482 70.8538 47.1129 70.8538 47.1129C70.8538 47.1129 68.9019 48.1355 68.9019 51.7613L67.8793 56.8744L72.5278 63.3826C72.5278 63.3826 73.0858 56.8744 73.3648 55.2938C73.6438 53.7132 74.015 50.7411 74.015 50.7411C74.015 50.7411 75.41 48.9748 75.2232 48.5102C75.0365 48.0456 74.8053 43.8115 74.8053 43.8115Z" fill="black"/>
<path d="M74.8053 43.7834C74.8053 43.7834 72.3328 45.1598 72.055 45.81C71.7771 46.4602 70.7533 46.926 70.7533 46.926C70.7533 46.926 68.8015 47.9486 68.8015 51.5745L67.7789 56.6876L67.5933 66.4492C67.5933 66.4492 69.2673 64.8686 70.4755 65.6122C71.6837 66.3558 72.4274 63.1946 72.4274 63.1946C72.4274 63.1946 72.9854 56.6864 73.2644 55.1058C73.5434 53.5252 73.9146 50.5531 73.9146 50.5531C73.9146 50.5531 75.3096 48.7868 75.1228 48.3222C74.9361 47.8576 74.8053 43.7834 74.8053 43.7834Z" fill="#D6DBE6"/>
<path opacity="0.1" d="M73.827 36.5938C73.9844 36.3935 74.1664 36.2139 74.3687 36.0591C74.6886 35.793 75.0423 35.5151 75.4392 35.5385C75.6637 35.5684 75.8794 35.6456 76.0719 35.765C77.0603 36.2856 78.0459 36.8117 79.0288 37.3432C79.3919 37.5394 79.7666 37.7472 80.0199 38.0997C80.2733 38.4523 80.376 38.9052 80.4472 39.3488C80.5068 39.6493 80.521 39.957 80.4892 40.2617C80.4603 40.5604 80.3152 40.8358 80.0853 41.0287C79.8203 41.2213 79.4573 41.2224 79.2355 41.4746C79.1071 41.6205 79.051 41.8248 78.96 42.0022C78.8689 42.1797 78.7113 42.3525 78.5315 42.3209C78.3518 42.2894 78.2432 42.0991 78.2175 41.9065C78.2061 41.7113 78.2174 41.5154 78.2514 41.3228C78.2864 40.9726 78.242 40.6014 78.0389 40.3411C77.8988 40.1636 77.698 40.0562 77.5626 39.8741C77.2381 39.4352 77.3864 38.7067 77.0303 38.2947C76.9269 38.1869 76.7968 38.1086 76.6533 38.0676C76.5097 38.0265 76.3578 38.0243 76.2131 38.0612C75.9248 38.1219 75.661 38.2783 75.396 38.4114C75.038 38.592 74.663 38.7367 74.2765 38.8433C73.9519 38.932 73.576 39.1445 73.4651 38.7126C73.2959 38.0787 73.4535 37.1086 73.827 36.5938Z" fill="black"/>
<path d="M73.9204 36.5015C74.0778 36.3013 74.2598 36.1216 74.4621 35.9668C74.782 35.7007 75.1357 35.4229 75.5326 35.4462C75.7571 35.4761 75.9728 35.5533 76.1653 35.6727C77.1529 36.1933 77.9736 35.7007 79.1223 37.251C79.3674 37.5825 79.86 37.6549 80.1134 38.0074C80.3667 38.36 80.4694 38.8129 80.5406 39.2565C80.6002 39.557 80.6144 39.8647 80.5826 40.1694C80.5537 40.4681 80.4087 40.7435 80.1787 40.9364C79.9137 41.129 79.5507 41.1302 79.3289 41.3823C79.2005 41.5282 79.1444 41.7325 79.0534 41.91C78.9623 42.0874 78.8047 42.2602 78.6249 42.2287C78.4452 42.1971 78.3366 42.0068 78.3109 41.8142C78.2995 41.619 78.3109 41.4231 78.3448 41.2305C78.3798 40.8803 78.3354 40.5091 78.1323 40.2488C77.9922 40.0713 77.7914 39.9639 77.656 39.7818C77.3315 39.3429 77.4798 38.6145 77.1237 38.2024C77.0203 38.0947 76.8902 38.0163 76.7467 37.9753C76.6031 37.9343 76.4512 37.9321 76.3065 37.9689C76.0182 38.0296 75.7544 38.186 75.4894 38.3191C75.1314 38.4997 74.7564 38.6444 74.3699 38.751C74.0453 38.8398 73.6694 39.0522 73.5585 38.6203C73.3881 37.9864 73.5469 37.0152 73.9204 36.5015Z" fill="#865A61"/>
<path opacity="0.1" d="M82.3 50.6909C82.3 50.6909 83.5397 53.8522 82.6093 55.1538L80.5641 54.6868C80.5641 54.6868 82.4237 55.2449 82.1447 54.1288C81.8657 53.0128 82.3 50.6909 82.3 50.6909Z" fill="black"/>
<path opacity="0.1" d="M82.977 58.5018C82.977 58.5018 80.2804 58.6874 79.5367 58.1294C80.516 58.8769 81.6724 59.3575 82.893 59.5244L82.977 58.5018Z" fill="black"/>
<path opacity="0.1" d="M71.3604 52.5481C71.3604 52.5481 69.9654 56.8254 70.0588 57.4756C70.1522 58.1258 70.3378 65.2853 70.3378 65.2853L70.6168 65.1919L70.5234 57.3822L71.3604 52.5481Z" fill="black"/>
<path d="M83.305 57.7757L51.4357 32.0935C51.2502 31.908 51.0299 31.7611 50.7876 31.6609C50.5452 31.5607 50.2854 31.5094 50.0231 31.5098H48.669C51.3751 28.0419 52.6565 23.6725 52.2521 19.2924C51.8477 14.9123 49.7878 10.8514 46.4925 7.93773C43.1972 5.02402 38.9146 3.47693 34.518 3.6119C30.1213 3.74688 25.9417 5.55376 22.8314 8.66413C19.721 11.7745 17.9141 15.9541 17.7791 20.3507C17.6442 24.7474 19.1913 29.03 22.105 32.3253C25.0187 35.6206 29.0796 37.6805 33.4597 38.0849C37.8398 38.4893 42.2092 37.2078 45.677 34.5017V35.8547C45.6766 36.117 45.728 36.3768 45.8281 36.6191C45.9283 36.8615 46.0753 37.0818 46.2607 37.2673L78.13 62.9495C78.3145 63.1355 78.534 63.2831 78.7758 63.3839C79.0177 63.4846 79.2771 63.5365 79.539 63.5365C79.801 63.5365 80.0604 63.4846 80.3023 63.3839C80.5441 63.2831 80.7636 63.1355 80.9481 62.9495L83.2968 60.6031C83.6716 60.2286 83.8828 59.7209 83.8844 59.1911C83.8859 58.6612 83.6776 58.1524 83.305 57.7757ZM35.0376 31.5098C32.9333 31.5098 30.8762 30.8858 29.1266 29.7167C27.3769 28.5476 26.0133 26.886 25.208 24.9419C24.4027 22.9977 24.192 20.8585 24.6025 18.7947C25.0131 16.7308 26.0264 14.835 27.5143 13.3471C29.0023 11.8591 30.898 10.8458 32.9619 10.4353C35.0258 10.0248 37.165 10.2355 39.1091 11.0407C41.0532 11.846 42.7149 13.2097 43.8839 14.9594C45.053 16.709 45.677 18.766 45.677 20.8703C45.6781 22.2679 45.4036 23.652 44.8694 24.9435C44.3351 26.2349 43.5515 27.4084 42.5633 28.3968C41.5752 29.3851 40.4019 30.169 39.1105 30.7036C37.8192 31.2381 36.4352 31.5129 35.0376 31.5121V31.5098Z" fill="url(#paint4_linear)"/>
<path d="M83.5385 57.5423L51.6692 31.8601C51.4837 31.6746 51.2634 31.5277 51.0211 31.4275C50.7787 31.3273 50.5189 31.276 50.2567 31.2764H48.9025C51.6086 27.8085 52.8901 23.4391 52.4856 19.059C52.0812 14.6789 50.0213 10.618 46.726 7.70433C43.4307 4.79062 39.1482 3.24353 34.7515 3.37851C30.3549 3.51348 26.1752 5.32036 23.0649 8.43073C19.9545 11.5411 18.1476 15.7207 18.0127 20.1174C17.8777 24.514 19.4248 28.7966 22.3385 32.0919C25.2522 35.3872 29.3131 37.4471 33.6932 37.8515C38.0733 38.2559 42.4427 36.9744 45.9105 34.2683V35.6213C45.9101 35.8836 45.9615 36.1434 46.0617 36.3857C46.1618 36.6281 46.3088 36.8484 46.4942 37.0339L78.3635 62.7161C78.548 62.9021 78.7675 63.0497 79.0093 63.1505C79.2512 63.2513 79.5106 63.3031 79.7726 63.3031C80.0345 63.3031 80.2939 63.2513 80.5358 63.1505C80.7776 63.0497 80.9971 62.9021 81.1816 62.7161L83.5303 60.3697C83.9051 59.9952 84.1163 59.4875 84.1179 58.9577C84.1194 58.4278 83.9111 57.919 83.5385 57.5423ZM35.2711 31.2764C33.1668 31.2764 31.1098 30.6524 29.3601 29.4833C27.6105 28.3142 26.2468 26.6526 25.4415 24.7085C24.6362 22.7644 24.4255 20.6251 24.8361 18.5613C25.2466 16.4974 26.2599 14.6016 27.7478 13.1137C29.2358 11.6257 31.1316 10.6124 33.1954 10.2019C35.2593 9.79137 37.3985 10.0021 39.3426 10.8073C41.2867 11.6126 42.9484 12.9763 44.1175 14.726C45.2865 16.4756 45.9105 18.5326 45.9105 20.6369C45.9116 22.0345 45.6371 23.4186 45.1029 24.7101C44.5686 26.0015 43.785 27.175 42.7968 28.1634C41.8087 29.1517 40.6354 29.9356 39.3441 30.4702C38.0527 31.0047 36.6687 31.2795 35.2711 31.2787V31.2764Z" fill="#0076A8"/>
<path d="M81.1688 55.2005C81.1688 55.2005 76.5168 49.8656 77.1705 53.5265C77.6375 56.1298 79.4014 57.5248 80.2384 57.8038C81.0754 58.0828 81.1688 55.2005 81.1688 55.2005Z" fill="#CA9A6E"/>
<path d="M82.2848 50.2729C82.2848 50.2729 82.3782 53.7132 82.8428 54.1778C83.3074 54.6424 82.5638 55.2004 82.5638 55.2004L80.7042 54.7335C80.7042 54.7335 81.1711 57.8014 79.2169 57.4301C79.2169 57.4301 80.5185 58.6384 81.8202 58.8251C83.1218 59.0119 83.0284 58.5461 83.0284 58.5461L84.9802 56.2219L82.2848 50.2729Z" fill="#D6DBE6"/>
<path d="M82.7995 58.5965L84.686 58.1821L84.4339 57.3124L83.2665 56.8455L81.7489 57.5459L82.7995 58.5965Z" fill="#D6DBE6"/>
<path d="M36.4349 25.046L38.9459 23.1094C38.9459 23.1094 37.2637 23.4701 37.3116 20.7816C37.311 20.7727 37.311 20.7637 37.3116 20.7548C37.3116 20.512 37.3349 20.2458 37.3699 19.9528C37.8007 16.3654 34.3569 19.522 34.3569 19.522C34.3866 19.8396 34.3866 20.1593 34.3569 20.4769C34.3569 20.4851 34.3569 20.4945 34.3569 20.5026C34.2888 21.3867 34.0452 22.2482 33.6402 23.037C32.7051 24.8301 36.4349 25.046 36.4349 25.046Z" fill="#CA9A6E"/>
<path opacity="0.1" d="M34.678 19.9785C35.1041 20.3929 35.3644 21.1458 36.0053 21.1458C36.469 21.1469 36.9226 21.0108 37.3092 20.7548C37.3092 20.512 37.3326 20.2458 37.3676 19.9528C37.7984 16.3654 34.3546 19.522 34.3546 19.522C34.3546 19.522 34.7235 19.3948 34.678 19.9785Z" fill="black"/>
<path d="M36.0053 21.0291C37.3128 21.0291 38.3727 19.9691 38.3727 18.6616C38.3727 17.3541 37.3128 16.2942 36.0053 16.2942C34.6978 16.2942 33.6378 17.3541 33.6378 18.6616C33.6378 19.9691 34.6978 21.0291 36.0053 21.0291Z" fill="#CA9A6E"/>
<path opacity="0.1" d="M38.2759 15.6299C38.1401 15.4583 37.9832 15.3046 37.8089 15.1723C37.5358 14.9447 37.2322 14.7054 36.8925 14.7264C36.7003 14.752 36.5157 14.818 36.3509 14.9202C35.5045 15.3661 34.8029 14.9447 33.8188 16.2708C33.6087 16.5545 33.1873 16.621 32.9702 16.9187C32.753 17.2164 32.6655 17.6075 32.6036 17.988C32.5525 18.2455 32.5403 18.5091 32.5674 18.7702C32.5934 19.0264 32.7192 19.2621 32.9176 19.4262C33.1441 19.5908 33.4558 19.592 33.6461 19.808C33.7417 19.9486 33.8201 20.1003 33.8795 20.2597C33.9566 20.4115 34.092 20.5551 34.2461 20.5329C34.4002 20.5107 34.4924 20.3438 34.5146 20.1827C34.5242 20.016 34.5144 19.8487 34.4854 19.6842C34.4562 19.3889 34.4936 19.0667 34.6675 18.8437C34.7843 18.6908 34.9594 18.5997 35.0749 18.4445C35.3528 18.0698 35.2267 17.4405 35.5314 17.0927C35.6205 17.0012 35.7322 16.9349 35.8553 16.9007C35.9783 16.8664 36.1082 16.8654 36.2318 16.8977C36.4772 16.9677 36.7126 17.069 36.9322 17.1989C37.2387 17.3536 37.5597 17.4776 37.8906 17.5689C38.1685 17.6448 38.4907 17.8269 38.5852 17.4522C38.7335 16.9012 38.5946 16.07 38.2759 15.6299Z" fill="black"/>
<path d="M38.2759 15.5132C38.1401 15.3416 37.9832 15.1879 37.8089 15.0556C37.5358 14.828 37.2322 14.5887 36.8925 14.6097C36.7003 14.6353 36.5157 14.7013 36.3509 14.8035C35.5045 15.2494 34.8029 14.828 33.8188 16.1541C33.6087 16.4378 33.1873 16.5043 32.9702 16.802C32.753 17.0997 32.6655 17.4908 32.6036 17.8713C32.5525 18.1288 32.5403 18.3924 32.5674 18.6535C32.5934 18.9097 32.7192 19.1454 32.9176 19.3095C33.1441 19.4741 33.4558 19.4753 33.6461 19.6913C33.7417 19.8319 33.8201 19.9836 33.8795 20.143C33.9566 20.2948 34.092 20.4384 34.2461 20.4162C34.4002 20.394 34.4924 20.2271 34.5146 20.066C34.5242 19.8993 34.5144 19.732 34.4854 19.5675C34.4562 19.2722 34.4936 18.95 34.6675 18.727C34.7843 18.5741 34.9594 18.483 35.0749 18.3278C35.3528 17.9531 35.2267 17.3238 35.5314 16.976C35.6205 16.8845 35.7322 16.8182 35.8553 16.784C35.9783 16.7497 36.1082 16.7487 36.2318 16.781C36.4772 16.851 36.7126 16.9523 36.9322 17.0822C37.2387 17.2369 37.5597 17.3609 37.8906 17.4522C38.1685 17.5281 38.4907 17.7102 38.5852 17.3355C38.7335 16.7845 38.5946 15.9533 38.2759 15.5132Z" fill="#865A61"/>
<path opacity="0.1" d="M33.6379 26.2915L33.5912 28.0835C34.2696 28.2678 34.9696 28.3609 35.6726 28.3601C35.7894 28.3601 35.9119 28.3601 36.031 28.352C36.6545 28.3251 37.2725 28.224 37.872 28.0508H37.8836C37.9945 28.0181 38.1043 27.9842 38.2128 27.9469H38.2245L38.3237 27.9118C38.7016 27.7788 39.0685 27.6164 39.4211 27.4262L39.4433 27.4145C39.4818 27.3935 39.5203 27.3725 39.56 27.3503L39.379 24.935L39.6674 23.2785L38.0891 22.2034C38.0005 22.3313 37.9013 22.4516 37.7926 22.5629C37.6368 22.7257 37.4544 22.8607 37.2533 22.9622C36.1209 23.5202 34.8321 22.633 34.1912 22.0843L34.0453 21.9547C33.8796 21.8041 33.785 21.7014 33.785 21.7014L32.9958 22.9202L33.6379 26.2915Z" fill="black"/>
<path d="M33.6379 26.4082L33.5912 28.2001C34.2696 28.3845 34.9696 28.4776 35.6726 28.4768C35.7894 28.4768 35.9119 28.4768 36.031 28.4686C36.6545 28.4418 37.2725 28.3407 37.872 28.1675H37.8836C37.9945 28.1348 38.1043 28.1009 38.2128 28.0636H38.2245L38.3237 28.0285C38.7016 27.8955 39.0685 27.7331 39.4211 27.5429L39.4433 27.5312C39.4818 27.5102 39.5203 27.4892 39.56 27.467L39.379 25.0517L39.6674 23.3952L38.0891 22.3201C38.0005 22.448 37.9013 22.5683 37.7926 22.6796C37.6368 22.8424 37.4544 22.9774 37.2533 23.0789C36.1209 23.6369 34.8321 22.7497 34.1912 22.201L34.0453 22.0714C33.8796 21.9208 33.785 21.8181 33.785 21.8181L32.9958 23.0369L33.6379 26.4082Z" fill="#53526B"/>
<path d="M38.0132 26.552C38.0132 26.552 38.0996 27.2396 38.2128 28.0614H38.2245L38.3237 28.0264C38.7016 27.8933 39.0685 27.731 39.4211 27.5408L39.4432 27.5291C39.4818 27.5081 39.5203 27.4871 39.56 27.4649C40.0775 27.1744 40.5607 26.8267 41.0005 26.4283L41.039 26.3921C41.2802 26.1737 41.5068 25.9398 41.7173 25.6917L41.7418 25.6625C41.325 24.2161 40.4577 23.7608 40.4577 23.7608C40.4577 23.7608 39.6685 23.4013 39.4526 22.8993C39.2366 22.3973 37.3303 21.3362 37.3303 21.3362V21.3444C37.3303 21.4342 37.2999 22.2572 37.2544 23.0849C37.2252 23.6231 37.189 24.1636 37.147 24.5068C37.1379 24.6183 37.1176 24.7286 37.0863 24.836C36.938 25.1897 38.0132 26.552 38.0132 26.552Z" fill="#555388"/>
</g>
<defs>
<linearGradient id="paint0_linear" x1="50.1404" y1="10.4837" x2="85.719" y2="102.41" gradientUnits="userSpaceOnUse">
<stop stop-color="#16D864"/>
<stop offset="1" stop-color="#1AA3DD"/>
</linearGradient>
<linearGradient id="paint1_linear" x1="60.0357" y1="92.7596" x2="60.0357" y2="4.58667" gradientUnits="userSpaceOnUse">
<stop stop-color="#808080" stop-opacity="0.25"/>
<stop offset="0.54" stop-color="#808080" stop-opacity="0.12"/>
<stop offset="1" stop-color="#808080" stop-opacity="0.1"/>
</linearGradient>
<linearGradient id="paint2_linear" x1="4366.37" y1="7231.88" x2="4366.37" y2="5522.14" gradientUnits="userSpaceOnUse">
<stop stop-color="#808080" stop-opacity="0.25"/>
<stop offset="0.54" stop-color="#808080" stop-opacity="0.12"/>
<stop offset="1" stop-color="#808080" stop-opacity="0.1"/>
</linearGradient>
<linearGradient id="paint3_linear" x1="-20412.6" y1="55060.5" x2="-20412.6" y2="20637.9" gradientUnits="userSpaceOnUse">
<stop stop-color="#808080" stop-opacity="0.25"/>
<stop offset="0.54" stop-color="#808080" stop-opacity="0.12"/>
<stop offset="1" stop-color="#808080" stop-opacity="0.1"/>
</linearGradient>
<linearGradient id="paint4_linear" x1="31653.7" y1="34054.4" x2="31653.7" y2="3274.13" gradientUnits="userSpaceOnUse">
<stop stop-color="#808080" stop-opacity="0.25"/>
<stop offset="0.54" stop-color="#808080" stop-opacity="0.12"/>
<stop offset="1" stop-color="#808080" stop-opacity="0.1"/>
</linearGradient>
<clipPath id="clip0">
<rect width="130" height="98.5428" fill="white"/>
</clipPath>
</defs>
</svg>
