<svg width="100%" height="100%" viewBox="0 0 26 26" fill="none" xmlns="http://www.w3.org/2000/svg">
<circle cx="13" cy="13" r="12.5" fill="#FA0F00" stroke="#E2EAEC"/>
<path d="M4.33325 7.04032C4.33325 5.54634 5.54658 4.33301 7.04057 4.33301H18.9589C20.4529 4.33301 21.6662 5.54634 21.6662 7.04032V18.9587C21.6662 20.4527 20.4529 21.666 18.9589 21.666H7.04057C5.54658 21.666 4.33325 20.4527 4.33325 18.9587V7.04032Z" fill="#FA0F00"/>
<path d="M6.87141 5.41602H18.0451C19.4457 5.41602 20.5833 6.55354 20.5833 7.95417V19.1279C20.5833 20.5285 19.4457 21.666 18.0451 21.666H6.87141C5.47077 21.666 4.33325 20.5285 4.33325 19.1279V7.95417C4.33325 6.55354 5.47077 5.41602 6.87141 5.41602Z" fill="#FA0F00"/>
<path d="M14.3693 8.25L18.5361 17.7488H15.5789L13.0033 11.8727L11.4328 15.4538H13.2734L14.2789 17.7488H7.46338L11.6301 8.25H14.3693Z" fill="white"/>
</svg>