<svg width="100%" height="100%" viewBox="0 0 26 26" fill="none" xmlns="http://www.w3.org/2000/svg">
<circle cx="13" cy="13" r="12.5" fill="white" stroke="#E2EAEC"/>
<g clip-path="url(#clip0_10825:21215)">
<path fill-rule="evenodd" clip-rule="evenodd" d="M12.9425 15.4545C12.5261 15.4545 12.1385 15.3376 11.8082 15.1477V16.4773C12.1672 16.5942 12.5548 16.6672 12.9425 16.6672C14.8952 16.6672 16.6038 15.1915 16.6038 13.0436V3.31239C16.2162 3.16628 15.7998 2.97634 15.3978 2.88867V13.0582C15.3978 14.5486 14.2347 15.4545 12.9425 15.4545ZM12.9712 10.6765C13.3876 10.6765 13.6891 10.7934 14.0337 10.9834V9.63913C13.6748 9.50763 13.2871 9.44921 12.8851 9.44921C10.9324 9.44921 9.36734 11.0857 9.36734 13.0728V22.7456C9.75501 22.8917 10.1714 23.0232 10.5878 23.1109V13.0582C10.5878 11.7578 11.679 10.6765 12.9712 10.6765ZM17.9822 13.0436C17.9966 16.302 15.6562 18.1284 12.9425 18.1284C12.5548 18.1284 12.1672 18.0407 11.8082 17.953V18.4499C12.1815 18.5375 12.5548 18.5813 12.9425 18.5813C15.929 18.5813 18.4273 16.3896 18.413 13.0582C18.413 12.9852 18.413 4.20371 18.413 4.20371C18.2407 4.08682 18.1545 3.96993 17.9822 3.86765V13.0436ZM12.9569 8.00269C13.3589 8.00269 13.6891 8.00268 14.0337 8.11956V7.66657C13.6604 7.5789 13.2871 7.53509 12.8851 7.53509C9.8986 7.53509 7.57258 9.81446 7.57258 12.8682V21.8251C7.74488 21.9274 7.81668 22.0296 8.00333 22.1319V13.0582C8.00333 10.3259 10.0565 8.0173 12.9569 8.00269ZM19.777 13.0582C19.8344 17.1202 16.891 19.9548 12.9569 19.9548C12.5692 19.9548 12.1815 19.8964 11.8226 19.838V20.3347C12.1959 20.3932 12.5692 20.4224 12.9569 20.4224C16.9484 20.4224 20.2508 17.617 20.2221 13.0728C20.2221 13.029 20.2221 5.69406 20.2221 5.69406C20.0498 5.51873 19.9636 5.37259 19.7913 5.19724V13.0582H19.777ZM5.79217 20.3639C5.96447 20.5393 6.03627 20.7146 6.20857 20.8608V12.9998C6.22293 8.83552 8.96531 6.22005 12.6554 6.22005C13.043 6.22005 13.5169 6.24931 13.8902 6.32237V5.79633C13.5169 5.73789 13.1292 5.70867 12.7415 5.70867C8.74995 5.70867 5.77783 8.58712 5.77783 13.0144L5.79217 20.3639Z" fill="#21301F"/>
</g>
<defs>
<clipPath id="clip0_10825:21215">
<rect width="14.4444" height="20.2222" fill="white" transform="translate(5.77783 2.88867)"/>
</clipPath>
</defs>
</svg>
