<svg width="100%" height="100%" viewBox="0 0 44 44" fill="none" xmlns="http://www.w3.org/2000/svg">
<path d="M0 22C0 9.84974 9.84974 0 22 0C34.1503 0 44 9.84974 44 22C44 34.1503 34.1503 44 22 44C9.84974 44 0 34.1503 0 22Z" fill="#856EAA"/>
<path d="M13.2819 16.6289C13.8782 16.0099 14.7007 15.6602 15.5602 15.6602C18.3501 15.6602 19.774 19.009 17.8385 21.0183L11.4681 27.6313C10.8718 28.2503 10.0493 28.6001 9.1898 28.6001C6.3999 28.6001 4.97595 25.2512 6.9115 23.242L13.2819 16.6289Z" fill="#2DC2CF"/>
<path d="M23.0172 16.6289C23.6135 16.0099 24.436 15.6602 25.2955 15.6602C28.0854 15.6602 29.5094 19.009 27.5738 21.0183L21.2034 27.6313C20.6072 28.2503 19.7847 28.6001 18.9251 28.6001C16.1352 28.6001 14.7113 25.2512 16.6468 23.242L23.0172 16.6289Z" fill="#DEE2EA"/>
<path d="M32.7506 16.6289C33.3469 16.0099 34.1694 15.6602 35.0289 15.6602C37.8188 15.6602 39.2428 19.009 37.3072 21.0183L30.9368 27.6313C30.3406 28.2504 29.5181 28.6001 28.6585 28.6001C25.8686 28.6001 24.4447 25.2512 26.3803 23.242L32.7506 16.6289Z" fill="#DEE2EA"/>
<g clip-path="url(#am)">
<path d="M19.682 19.0846H22.0902V20.2698C22.3618 19.8127 22.6693 19.4758 23.0127 19.2589C23.3642 19.0342 23.7795 18.9219 24.2588 18.9219C24.73 18.9219 25.1374 19.0381 25.4808 19.2705C25.8323 19.4951 26.0959 19.8011 26.2716 20.1885C26.7828 19.3441 27.5256 18.9219 28.5001 18.9219C28.9633 18.9219 29.3667 19.0419 29.7102 19.2821C30.0616 19.5222 30.3332 19.8709 30.5249 20.3279C30.7166 20.7772 30.8124 21.3079 30.8124 21.9199V24.8249H28.2844V21.9199C28.2844 21.5248 28.2125 21.2265 28.0687 21.0251C27.933 20.8237 27.7413 20.723 27.4937 20.723C27.2221 20.723 26.9865 20.8353 26.7868 21.06C26.5951 21.2846 26.4992 21.5558 26.4992 21.8734V24.8249H23.9952V21.9199C23.9952 21.5248 23.9233 21.2265 23.7795 21.0251C23.6437 20.8237 23.448 20.723 23.1925 20.723C22.9209 20.723 22.6892 20.8353 22.4975 21.06C22.3059 21.2846 22.21 21.5558 22.21 21.8734V24.8249H19.682V19.0846ZM14.3868 24.9178C13.8676 24.9178 13.3804 24.7862 12.9251 24.5228C12.4778 24.2516 12.1184 23.8875 11.8468 23.4305C11.5752 22.9657 11.4395 22.4505 11.4395 21.885C11.4395 21.3272 11.5752 20.8237 11.8468 20.3744C12.1184 19.9173 12.4818 19.561 12.9371 19.3053C13.3924 19.0497 13.8756 18.9219 14.3868 18.9219C14.8021 18.9219 15.1855 19.0342 15.537 19.2589C15.8964 19.4835 16.168 19.8205 16.3517 20.2698V18.9219H18.8678V24.8249H16.3517V23.7442C15.9523 24.5266 15.2974 24.9178 14.3868 24.9178ZM15.1656 23.0819C15.4851 23.0819 15.7566 22.9734 15.9803 22.7565C16.2119 22.5319 16.3357 22.2685 16.3517 21.9663V21.8734C16.3357 21.5635 16.2079 21.3001 15.9683 21.0832C15.7367 20.8663 15.4691 20.7579 15.1656 20.7579C14.8301 20.7579 14.5426 20.8741 14.3029 21.1065C14.0713 21.3311 13.9555 21.6023 13.9555 21.9199C13.9555 22.2452 14.0753 22.5202 14.3149 22.7449C14.5545 22.9695 14.8381 23.0819 15.1656 23.0819Z" fill="#2B3252"/>
</g>
<defs>
<clipPath id="am">
<rect width="19.4692" height="6.17318" fill="white" transform="translate(11.4854 18.9844)"/>
</clipPath>
</defs>
</svg>
