<svg width="100%" height="100%" viewBox="0 0 26 26" fill="none" xmlns="http://www.w3.org/2000/svg">
<circle cx="13" cy="13" r="12.5" fill="white" stroke="#E2EAEC"/>
<path d="M18.4476 18.0306C12.3038 20.9546 8.49081 18.5082 6.05002 17.0223C5.89898 16.9287 5.64228 17.0442 5.86501 17.3C6.67816 18.286 9.34302 20.6624 12.8214 20.6624C16.3023 20.6624 18.373 18.7631 18.6321 18.4318C18.8894 18.1033 18.7076 17.9221 18.4476 18.0306H18.4476ZM20.1731 17.0777C20.0081 16.8629 19.1699 16.8228 18.6423 16.8876C18.114 16.9506 17.3209 17.2735 17.3899 17.4674C17.4252 17.54 17.4975 17.5074 17.8604 17.4748C18.2244 17.4385 19.244 17.3098 19.4564 17.5875C19.6699 17.8672 19.1312 19.1993 19.0329 19.4142C18.9378 19.629 19.0692 19.6844 19.2477 19.5413C19.4238 19.3983 19.7426 19.0278 19.9565 18.5036C20.1689 17.9766 20.2985 17.2413 20.1731 17.0777H20.1731Z" fill="#FF9900"/>
<path fill-rule="evenodd" clip-rule="evenodd" d="M14.3165 12.0647C14.3165 12.8319 14.3359 13.4717 13.9482 14.153C13.6352 14.707 13.1394 15.0477 12.5854 15.0477C11.8293 15.0477 11.3889 14.4715 11.3889 13.6213C11.3889 11.9428 12.8928 11.6381 14.3165 11.6381V12.0647ZM16.3024 16.8646C16.1722 16.9809 15.9839 16.9893 15.8371 16.9117C15.1835 16.3688 15.0671 16.1168 14.7071 15.5988C13.6269 16.7012 12.8624 17.0308 11.4609 17.0308C9.80463 17.0308 8.51392 16.0087 8.51392 13.9619C8.51392 12.3638 9.3809 11.2753 10.6133 10.7435C11.6825 10.2726 13.1754 10.1895 14.3165 10.0594V9.80456C14.3165 9.33645 14.3525 8.78252 14.0783 8.37816C13.8373 8.01532 13.3776 7.86574 12.9732 7.86574C12.2226 7.86574 11.5523 8.25071 11.3889 9.04839C11.3556 9.2257 11.2255 9.4002 11.0482 9.4085L9.13709 9.20357C8.97648 9.16749 8.79923 9.03736 8.84354 8.79081C9.28392 6.47536 11.375 5.77734 13.2473 5.77734C14.2057 5.77734 15.4576 6.03218 16.2137 6.75788C17.1721 7.65247 17.0807 8.84621 17.0807 10.1452V13.2141C17.0807 14.1364 17.4629 14.5408 17.8229 15.0394C17.9503 15.2166 17.9781 15.4299 17.8174 15.5628C17.4158 15.8979 16.7012 16.5212 16.3079 16.8702L16.3024 16.8646" fill="black"/>
<path d="M18.4476 18.0306C12.3038 20.9546 8.49081 18.5082 6.05002 17.0223C5.89898 16.9287 5.64228 17.0442 5.86501 17.3C6.67816 18.286 9.34302 20.6624 12.8214 20.6624C16.3023 20.6624 18.373 18.7631 18.6321 18.4318C18.8894 18.1033 18.7076 17.9221 18.4476 18.0306H18.4476ZM20.1731 17.0777C20.0081 16.8629 19.1699 16.8228 18.6423 16.8876C18.114 16.9506 17.3209 17.2735 17.3899 17.4674C17.4252 17.54 17.4975 17.5074 17.8604 17.4748C18.2244 17.4385 19.244 17.3098 19.4564 17.5875C19.6699 17.8672 19.1312 19.1993 19.0329 19.4142C18.9378 19.629 19.0692 19.6844 19.2477 19.5413C19.4238 19.3983 19.7426 19.0278 19.9565 18.5036C20.1689 17.9766 20.2985 17.2413 20.1731 17.0777H20.1731Z" fill="#FF9900"/>
<path fill-rule="evenodd" clip-rule="evenodd" d="M14.3165 12.0647C14.3165 12.8319 14.3359 13.4717 13.9482 14.153C13.6352 14.707 13.1394 15.0477 12.5854 15.0477C11.8293 15.0477 11.3889 14.4715 11.3889 13.6213C11.3889 11.9428 12.8928 11.6381 14.3165 11.6381V12.0647ZM16.3024 16.8646C16.1722 16.9809 15.9839 16.9893 15.8371 16.9117C15.1835 16.3688 15.0671 16.1168 14.7071 15.5988C13.6269 16.7012 12.8624 17.0308 11.4609 17.0308C9.80463 17.0308 8.51392 16.0087 8.51392 13.9619C8.51392 12.3638 9.3809 11.2753 10.6133 10.7435C11.6825 10.2726 13.1754 10.1895 14.3165 10.0594V9.80456C14.3165 9.33645 14.3525 8.78252 14.0783 8.37816C13.8373 8.01532 13.3776 7.86574 12.9732 7.86574C12.2226 7.86574 11.5523 8.25071 11.3889 9.04839C11.3556 9.2257 11.2255 9.4002 11.0482 9.4085L9.13709 9.20357C8.97648 9.16749 8.79923 9.03736 8.84354 8.79081C9.28392 6.47536 11.375 5.77734 13.2473 5.77734C14.2057 5.77734 15.4576 6.03218 16.2137 6.75788C17.1721 7.65247 17.0807 8.84621 17.0807 10.1452V13.2141C17.0807 14.1364 17.4629 14.5408 17.8229 15.0394C17.9503 15.2166 17.9781 15.4299 17.8174 15.5628C17.4158 15.8979 16.7012 16.5212 16.3079 16.8702L16.3024 16.8646" fill="black"/>
</svg>
