<svg width="100%" height="100%" viewBox="0 0 18 18" fill="none" xmlns="http://www.w3.org/2000/svg">
<circle cx="9" cy="9" r="8.5" fill="white" stroke="#E2EAEC"/>
<path fill-rule="evenodd" clip-rule="evenodd" d="M8.81906 15.334L6.1627 14.3809V10.4885L8.81906 11.3931V15.334ZM9.30305 15.334L11.9594 14.3809V10.4885L9.30305 11.3939V15.334ZM6.43634 10.1962L9.1169 9.43931L11.6098 10.2435L9.1169 11.0897L6.43634 10.1962ZM5.65748 9.89836L3 8.94229V5.0443L5.65637 5.94899L5.65748 9.89836ZM6.14408 9.89836L8.80045 8.94527V5.0443L6.14334 5.95346L6.14408 9.89836ZM3.27736 4.76061L5.95793 4L8.45086 4.80417L5.95793 5.65041L3.27736 4.76061ZM11.8596 9.89836L9.20328 8.94527V5.0443L11.8596 5.94899V9.89836ZM12.3436 9.89836L15 8.94527V5.0443L12.3436 5.94899V9.89836ZM9.47692 4.76061L12.1575 4.00372L14.6504 4.80789L12.1575 5.65413L9.47692 4.76061Z" fill="#FF9900"/>
</svg>
