<svg width="100%" height="100%" viewBox="0 0 26 26" fill="none" xmlns="http://www.w3.org/2000/svg">
<circle cx="13" cy="13" r="12.5" fill="white" stroke="#E2EAEC"/>
<path fill-rule="evenodd" clip-rule="evenodd" d="M12.7386 22.1486L8.90159 20.7719V15.1496L12.7386 16.4563V22.1486ZM13.4377 22.1486L17.2746 20.7719V15.1496L13.4377 16.4574V22.1486ZM9.29685 14.7274L13.1688 13.6341L16.7697 14.7957L13.1688 16.0181L9.29685 14.7274ZM8.17184 14.2972L4.33325 12.9162V7.28578L8.17023 8.59256L8.17184 14.2972ZM8.8747 14.2972L12.7117 12.9205V7.28578L8.87363 8.59901L8.8747 14.2972ZM4.73389 6.876L8.60582 5.77734L12.2067 6.93892L8.60582 8.16127L4.73389 6.876ZM17.1305 14.2972L13.2935 12.9205V7.28578L17.1305 8.59256V14.2972ZM17.8296 14.2972L21.6666 12.9205V7.28578L17.8296 8.59256V14.2972ZM13.6888 6.876L17.5607 5.78272L21.1616 6.9443L17.5607 8.16665L13.6888 6.876Z" fill="#FF9900"/>
</svg>
