<svg width="100%" height="100%" viewBox="0 0 18 18" fill="none" xmlns="http://www.w3.org/2000/svg">
<circle cx="9" cy="9" r="8.5" fill="white" stroke="#E2EAEC"/>
<path d="M12.7714 12.4827C8.51795 14.507 5.87822 12.8134 4.18844 11.7847C4.08387 11.7198 3.90615 11.7998 4.06035 11.9769C4.6233 12.6595 6.46821 14.3048 8.87635 14.3048C11.2861 14.3048 12.7197 12.9899 12.8991 12.7605C13.0772 12.5331 12.9514 12.4076 12.7714 12.4827H12.7714ZM13.966 11.823C13.8518 11.6743 13.2714 11.6466 12.9062 11.6914C12.5404 11.735 11.9914 11.9586 12.0391 12.0928C12.0636 12.1431 12.1136 12.1205 12.3649 12.0979C12.6168 12.0728 13.3227 11.9837 13.4698 12.176C13.6176 12.3696 13.2447 13.2918 13.1766 13.4406C13.1108 13.5893 13.2017 13.6277 13.3253 13.5286C13.4472 13.4296 13.6679 13.1731 13.816 12.8102C13.9631 12.4453 14.0528 11.9363 13.9659 11.823H13.966Z" fill="#FF9900"/>
<path fill-rule="evenodd" clip-rule="evenodd" d="M9.91149 8.35276C9.91149 8.8839 9.92491 9.32684 9.65645 9.79853C9.43977 10.1821 9.09653 10.4179 8.71304 10.4179C8.18954 10.4179 7.88466 10.0191 7.88466 9.4304C7.88466 8.26836 8.92584 8.05746 9.91149 8.05746V8.35276ZM11.2863 11.6758C11.1962 11.7563 11.0658 11.7621 10.9642 11.7084C10.5117 11.3326 10.4311 11.1581 10.1819 10.7995C9.43403 11.5627 8.90479 11.7908 7.93454 11.7908C6.78786 11.7908 5.89429 11.0833 5.89429 9.66624C5.89429 8.55986 6.4945 7.80626 7.34774 7.43813C8.08793 7.11211 9.12147 7.05459 9.91149 6.9645V6.78807C9.91149 6.464 9.93639 6.08051 9.74658 5.80057C9.57974 5.54937 9.26144 5.44581 8.98146 5.44581C8.46184 5.44581 7.99779 5.71233 7.88466 6.26457C7.86162 6.38732 7.77153 6.50813 7.64882 6.51387L6.32572 6.372C6.21452 6.34703 6.09181 6.25693 6.12249 6.08625C6.42737 4.48324 7.87504 4 9.17127 4C9.83474 4 10.7014 4.17643 11.2249 4.67883C11.8884 5.29816 11.8251 6.1246 11.8251 7.02392V9.14852C11.8251 9.78705 12.0897 10.067 12.339 10.4122C12.4272 10.5349 12.4464 10.6826 12.3352 10.7746C12.0571 11.0066 11.5624 11.438 11.2901 11.6797L11.2863 11.6758" fill="black"/>
<path d="M12.7714 12.4827C8.51795 14.507 5.87822 12.8134 4.18844 11.7847C4.08387 11.7198 3.90615 11.7998 4.06035 11.9769C4.6233 12.6595 6.46821 14.3048 8.87635 14.3048C11.2861 14.3048 12.7197 12.9899 12.8991 12.7605C13.0772 12.5331 12.9514 12.4076 12.7714 12.4827H12.7714ZM13.966 11.823C13.8518 11.6743 13.2714 11.6466 12.9062 11.6914C12.5404 11.735 11.9914 11.9586 12.0391 12.0928C12.0636 12.1431 12.1136 12.1205 12.3649 12.0979C12.6168 12.0728 13.3227 11.9837 13.4698 12.176C13.6176 12.3696 13.2447 13.2918 13.1766 13.4406C13.1108 13.5893 13.2017 13.6277 13.3253 13.5286C13.4472 13.4296 13.6679 13.1731 13.816 12.8102C13.9631 12.4453 14.0528 11.9363 13.9659 11.823H13.966Z" fill="#FF9900"/>
<path fill-rule="evenodd" clip-rule="evenodd" d="M9.91149 8.35276C9.91149 8.8839 9.92491 9.32684 9.65645 9.79853C9.43977 10.1821 9.09653 10.4179 8.71304 10.4179C8.18954 10.4179 7.88466 10.0191 7.88466 9.4304C7.88466 8.26836 8.92584 8.05746 9.91149 8.05746V8.35276ZM11.2863 11.6758C11.1962 11.7563 11.0658 11.7621 10.9642 11.7084C10.5117 11.3326 10.4311 11.1581 10.1819 10.7995C9.43403 11.5627 8.90479 11.7908 7.93454 11.7908C6.78786 11.7908 5.89429 11.0833 5.89429 9.66624C5.89429 8.55986 6.4945 7.80626 7.34774 7.43813C8.08793 7.11211 9.12147 7.05459 9.91149 6.9645V6.78807C9.91149 6.464 9.93639 6.08051 9.74658 5.80057C9.57974 5.54937 9.26144 5.44581 8.98146 5.44581C8.46184 5.44581 7.99779 5.71233 7.88466 6.26457C7.86162 6.38732 7.77153 6.50813 7.64882 6.51387L6.32572 6.372C6.21452 6.34703 6.09181 6.25693 6.12249 6.08625C6.42737 4.48324 7.87504 4 9.17127 4C9.83474 4 10.7014 4.17643 11.2249 4.67883C11.8884 5.29816 11.8251 6.1246 11.8251 7.02392V9.14852C11.8251 9.78705 12.0897 10.067 12.339 10.4122C12.4272 10.5349 12.4464 10.6826 12.3352 10.7746C12.0571 11.0066 11.5624 11.438 11.2901 11.6797L11.2863 11.6758" fill="black"/>
</svg>
