<svg width="100%" height="100%" viewBox="0 0 26 26" fill="none" xmlns="http://www.w3.org/2000/svg">
<circle cx="13" cy="13" r="12.5" fill="white" stroke="#E2EAEC"/>
<mask id="amazons30" style="mask-type:alpha" maskUnits="userSpaceOnUse" x="0" y="0" width="26" height="26">
<circle cx="13" cy="13" r="12.5" fill="white" stroke="white"/>
</mask>
<g mask="url(#amazons30)">
</g>
<g clip-path="url(#amazons31)">
<path d="M9.23932 12.4532C9.23352 12.6271 9.25669 12.8009 9.30303 12.9689C9.35516 13.1138 9.41888 13.2529 9.48838 13.3861C9.51155 13.4267 9.52893 13.473 9.52893 13.5194C9.52314 13.5889 9.48259 13.6585 9.41888 13.6932L9.05396 13.9366C9.00763 13.9656 8.9555 13.9887 8.90337 13.9887C8.83965 13.9829 8.77594 13.954 8.7296 13.9076C8.6543 13.8265 8.579 13.7338 8.52108 13.6353C8.46315 13.5368 8.40523 13.4267 8.34152 13.2934C7.88972 13.8265 7.32208 14.093 6.63859 14.093C6.15204 14.093 5.76396 13.954 5.48014 13.6758C5.19632 13.3977 5.05151 13.0269 5.05151 12.5633C5.05151 12.0708 5.22528 11.671 5.57861 11.3697C5.93194 11.0684 6.40111 10.9178 6.99771 10.9178C7.20044 10.9178 7.40896 10.9351 7.61169 10.9641C7.82601 10.9931 8.04611 11.0394 8.2778 11.0916V10.6686C8.2778 10.2282 8.18513 9.92114 8.00557 9.74151C7.82601 9.56189 7.50743 9.47497 7.06143 9.47497C6.85291 9.47497 6.63859 9.49815 6.43586 9.5503C6.22155 9.60245 6.01303 9.66619 5.8103 9.74731C5.74658 9.77628 5.67708 9.79946 5.60757 9.82263C5.57861 9.83422 5.54386 9.84002 5.51489 9.84002C5.4338 9.84002 5.39326 9.78207 5.39326 9.66039V9.37647C5.38746 9.30694 5.40484 9.23741 5.4338 9.17367C5.48014 9.12152 5.53227 9.08096 5.59599 9.05199C5.82768 8.93611 6.07095 8.84919 6.32581 8.79125C6.62122 8.71592 6.92821 8.68116 7.2294 8.68116C7.91868 8.68116 8.42261 8.8376 8.74697 9.15049C9.07134 9.46339 9.22773 9.93852 9.22773 10.5759V12.4532H9.23932ZM6.88766 13.334C7.09039 13.334 7.29312 13.2992 7.48426 13.2297C7.69858 13.1543 7.88393 13.0269 8.03453 12.8588C8.1272 12.7545 8.19671 12.6271 8.23146 12.488C8.27201 12.3258 8.28939 12.1519 8.28939 11.9839V11.7405C8.11562 11.7 7.93606 11.6652 7.7565 11.642C7.57694 11.6189 7.39159 11.6073 7.21203 11.6073C6.82394 11.6073 6.54012 11.6826 6.34898 11.839C6.15784 11.9955 6.06516 12.2157 6.06516 12.5054C6.06516 12.7777 6.13467 12.9805 6.27947 13.1196C6.42428 13.2586 6.62122 13.334 6.88766 13.334ZM11.5388 13.9598C11.4635 13.9656 11.3825 13.9482 11.3187 13.9018C11.2608 13.8381 11.2145 13.7628 11.1971 13.6758L9.83592 9.19685C9.80696 9.12152 9.78958 9.0462 9.78379 8.96508C9.778 8.89555 9.82433 8.83181 9.89384 8.82022H10.4962C10.6063 8.82022 10.6816 8.8376 10.7221 8.87816C10.7627 8.91872 10.8032 8.99405 10.838 9.10414L11.8053 12.94L12.7089 9.10414C12.7378 8.98825 12.7726 8.91293 12.8189 8.87816C12.8884 8.8376 12.9695 8.81443 13.0506 8.82022H13.514C13.6241 8.82022 13.6994 8.8376 13.7457 8.87816C13.8036 8.9419 13.8442 9.01723 13.8557 9.10414L14.7709 12.9863L15.773 9.10414C15.7904 9.01723 15.8309 8.9419 15.8888 8.87816C15.9583 8.8376 16.0336 8.81443 16.1147 8.82022H16.6534C16.7229 8.80863 16.7866 8.86078 16.7982 8.93031V8.96508C16.7982 8.99405 16.7924 9.02881 16.7866 9.05779C16.775 9.10993 16.7635 9.15629 16.7461 9.20264L15.3501 13.6816C15.3154 13.7975 15.2748 13.8728 15.2285 13.9076C15.1648 13.9482 15.0837 13.9713 15.0084 13.9656H14.5103C14.4002 13.9656 14.3249 13.9482 14.2786 13.9076C14.2207 13.8439 14.1801 13.7628 14.1685 13.6758L13.2707 9.93852L12.3787 13.67C12.3671 13.757 12.3266 13.8381 12.2687 13.9018C12.1992 13.9482 12.1181 13.9656 12.037 13.9598H11.5388ZM18.9819 14.1162C18.6807 14.1162 18.3795 14.0814 18.0899 14.0119C17.8003 13.9424 17.5744 13.867 17.4238 13.7801C17.3485 13.7454 17.2848 13.6874 17.2442 13.6179C17.221 13.5657 17.2095 13.5136 17.2095 13.4557V13.1601C17.2095 13.0385 17.2558 12.9805 17.3427 12.9805C17.3774 12.9805 17.4122 12.9863 17.4469 12.9979C17.4817 13.0095 17.5338 13.0327 17.5918 13.0558C17.7945 13.1486 18.0088 13.2123 18.2289 13.2586C18.4548 13.305 18.6865 13.3282 18.9182 13.3282C19.2831 13.3282 19.5669 13.2644 19.7639 13.137C19.955 13.0211 20.0708 12.8125 20.065 12.5865C20.0708 12.4359 20.0129 12.291 19.9087 12.1809C19.8044 12.0708 19.6075 11.9723 19.3236 11.8796L18.4838 11.6189C18.0609 11.4856 17.7481 11.2886 17.557 11.0278C17.3716 10.7845 17.2674 10.4948 17.2674 10.1877C17.2616 9.9617 17.3137 9.74151 17.4238 9.54451C17.528 9.35909 17.6671 9.19685 17.8408 9.06937C18.0204 8.93031 18.2231 8.83181 18.4432 8.76807C18.6807 8.69854 18.924 8.66377 19.173 8.66957C19.3005 8.66957 19.4337 8.67536 19.5611 8.69275C19.6943 8.71013 19.816 8.73331 19.9376 8.75648C20.0593 8.77966 20.1635 8.81443 20.2678 8.84919C20.3547 8.87816 20.4358 8.91293 20.5111 8.95349C20.5806 8.98825 20.6385 9.03461 20.6848 9.09835C20.7254 9.15629 20.7427 9.22003 20.7369 9.28956V9.56189C20.7369 9.68357 20.6906 9.74731 20.6037 9.74731C20.5284 9.73572 20.4531 9.71254 20.3836 9.67777C20.0361 9.52133 19.6538 9.446 19.2715 9.4518C18.9413 9.4518 18.6807 9.50395 18.5011 9.61404C18.3216 9.72413 18.2289 9.89216 18.2289 10.1297C18.2231 10.2862 18.2868 10.4368 18.4027 10.5411C18.5185 10.6512 18.7328 10.7613 19.0398 10.8598L19.8623 11.1206C20.2794 11.2538 20.5806 11.4392 20.7601 11.6768C20.9397 11.9086 21.0324 12.1983 21.0266 12.488C21.0324 12.7198 20.9802 12.9515 20.876 13.1601C20.7717 13.3571 20.6269 13.531 20.4531 13.67C20.262 13.8207 20.0419 13.9308 19.8102 13.9945C19.5437 14.0756 19.2657 14.1162 18.9819 14.1162Z" fill="#252F3E"/>
<path d="M20.0768 16.9327C18.1711 18.3407 15.4024 19.0882 13.0218 19.0882C9.68544 19.0882 6.67926 17.854 4.4087 15.8028C4.22914 15.6405 4.39132 15.4204 4.60563 15.5478C7.06155 16.9732 10.0909 17.8366 13.2245 17.8366C15.4835 17.825 17.7193 17.3673 19.7987 16.4923C20.1173 16.3475 20.3895 16.7009 20.0768 16.9327Z" fill="#FF9900"/>
<path d="M20.8701 16.0279C20.6268 15.715 19.2599 15.8772 18.6401 15.9525C18.4547 15.9757 18.4258 15.8135 18.5937 15.6918C19.6827 14.9269 21.4725 15.1471 21.681 15.4021C21.8896 15.657 21.6231 17.4533 20.6037 18.3108C20.4473 18.4441 20.2967 18.3746 20.3662 18.2007C20.5979 17.6271 21.1134 16.335 20.8701 16.0279Z" fill="#FF9900"/>
</g>
<defs>
<clipPath id="amazons31">
<rect width="17.4344" height="10.4241" fill="white" transform="translate(4.33325 8.66699)"/>
</clipPath>
</defs>
</svg>
