<svg width="100%" height="100%" viewBox="0 0 18 18" fill="none" xmlns="http://www.w3.org/2000/svg">
<circle cx="9" cy="9" r="8.5" fill="white" stroke="#E2EAEC"/>
<path d="M7.93115 4.05C7.8749 3.99375 7.81865 3.9375 7.7624 3.9375C7.70615 3.9375 7.67803 3.96562 7.62178 3.99375C7.14365 4.35937 6.49678 5.9625 5.9624 8.07187H6.44053C7.36865 8.07187 8.35303 8.1 9.30928 8.1C9.05615 7.14375 8.83115 6.3 8.60615 5.65312C8.26865 4.66875 8.07178 4.24687 7.93115 4.05Z" fill="#00A7CF"/>
<path d="M9 0C4.02187 0 0 4.02187 0 9C0 13.9781 4.02187 18 9 18C13.9781 18 18 13.9781 18 9C18 4.02187 13.9781 0 9 0ZM15.4688 9.16875L15.4406 9.19688H15.4125H15.3844C15.3281 9.225 15.2438 9.25313 15.1594 9.25313H10.9125C10.9406 9.39375 10.9969 9.5625 11.025 9.73125C11.25 10.7437 11.8687 13.4156 12.5437 13.4156H12.5719C13.0781 13.4156 13.3594 12.6844 13.9219 11.0531V11.025C14.0063 10.7719 14.1187 10.4625 14.2312 10.1531L14.2594 10.0687C14.2875 9.95625 14.4 9.9 14.5125 9.92812C14.625 9.95625 14.6812 10.0688 14.6531 10.1813L14.625 10.2937C14.5688 10.4906 14.5125 10.7437 14.4281 11.0531C14.0906 12.4875 13.5562 14.625 12.2344 14.625C11.3625 14.625 10.8562 13.2469 10.6312 12.6562C10.2094 11.5594 9.9 10.3781 9.61875 9.25313H5.68125L4.86562 11.8688C4.75312 12.0656 4.5 12.1219 4.30312 12.0094C4.19063 11.925 4.10625 11.8125 4.10625 11.6719V11.6438L4.1625 11.3625C4.275 10.6875 4.41563 9.98438 4.55625 9.28125H2.89688C2.5875 9.225 2.3625 8.97188 2.3625 8.6625C2.3625 8.35312 2.5875 8.1 2.86875 8.04375C2.925 8.04375 3.00937 8.04375 3.06562 8.04375H3.15C3.68438 8.04375 4.21875 8.07188 4.8375 8.07188C5.70938 4.55625 6.69375 2.78437 7.81875 2.75625C9 2.75625 9.9 5.48438 10.6031 8.12813C12.0656 8.15625 13.6125 8.2125 15.1031 8.29688H15.1594C15.1875 8.29688 15.2156 8.29688 15.2438 8.29688C15.4969 8.35312 15.6656 8.60625 15.6094 8.85938C15.6094 9 15.5531 9.08437 15.4688 9.16875Z" fill="#00A7CF"/>
<circle cx="9" cy="9" r="8.5" stroke="#E2EAEC"/>
</svg>
