<svg width="100%" height="100%" viewBox="0 0 26 26" fill="none" xmlns="http://www.w3.org/2000/svg">
<circle cx="13" cy="13" r="12.5" fill="white" stroke="#E2EAEC"/>
<path d="M11.4561 5.85C11.3748 5.76875 11.2936 5.6875 11.2123 5.6875C11.1311 5.6875 11.0904 5.72812 11.0092 5.76875C10.3186 6.29687 9.38418 8.6125 8.6123 11.6594H9.30293C10.6436 11.6594 12.0654 11.7 13.4467 11.7C13.0811 10.3187 12.7561 9.1 12.4311 8.16562C11.9436 6.74375 11.6592 6.13437 11.4561 5.85Z" fill="#00A7CF"/>
<path d="M13 0C5.80937 0 0 5.80937 0 13C0 20.1906 5.80937 26 13 26C20.1906 26 26 20.1906 26 13C26 5.80937 20.1906 0 13 0ZM22.3438 13.2437L22.3031 13.2844H22.2625H22.2219C22.1406 13.325 22.0188 13.3656 21.8969 13.3656H15.7625C15.8031 13.5688 15.8844 13.8125 15.925 14.0562C16.25 15.5187 17.1437 19.3781 18.1187 19.3781H18.1594C18.8906 19.3781 19.2969 18.3219 20.1094 15.9656V15.925C20.2313 15.5594 20.3937 15.1125 20.5562 14.6656L20.5969 14.5437C20.6375 14.3812 20.8 14.3 20.9625 14.3406C21.125 14.3812 21.2062 14.5438 21.1656 14.7063L21.125 14.8687C21.0438 15.1531 20.9625 15.5187 20.8406 15.9656C20.3531 18.0375 19.5812 21.125 17.6719 21.125C16.4125 21.125 15.6812 19.1344 15.3562 18.2812C14.7469 16.6969 14.3 14.9906 13.8938 13.3656H8.20625L7.02812 17.1438C6.86562 17.4281 6.5 17.5094 6.21563 17.3469C6.05312 17.225 5.93125 17.0625 5.93125 16.8594V16.8188L6.0125 16.4125C6.175 15.4375 6.37813 14.4219 6.58125 13.4062H4.18438C3.7375 13.325 3.4125 12.9594 3.4125 12.5125C3.4125 12.0656 3.7375 11.7 4.14375 11.6188C4.225 11.6188 4.34687 11.6188 4.42812 11.6188H4.55C5.32188 11.6188 6.09375 11.6594 6.9875 11.6594C8.24687 6.58125 9.66875 4.02187 11.2937 3.98125C13 3.98125 14.3 7.92188 15.3156 11.7406C17.4281 11.7812 19.6625 11.8625 21.8156 11.9844H21.8969C21.9375 11.9844 21.9781 11.9844 22.0188 11.9844C22.3844 12.0656 22.6281 12.4312 22.5469 12.7969C22.5469 13 22.4656 13.1219 22.3438 13.2437Z" fill="#00A7CF"/>
<circle cx="13" cy="13" r="12.5" stroke="#E2EAEC"/>
</svg>
