<svg width="100%" height="100%" viewBox="0 0 26 26" fill="none" xmlns="http://www.w3.org/2000/svg">
<circle cx="13" cy="13" r="12.5" fill="white" stroke="#E2EAEC"/>
<g clip-path="url(#aol0)">
<path d="M14.0119 9.71875C12.2156 9.71875 10.8567 11.1141 10.8567 12.8427C10.8567 14.665 12.2729 15.9666 14.0119 15.9666C15.7509 15.9666 17.1618 14.665 17.1618 12.8427C17.1618 11.1141 15.8081 9.71875 14.0119 9.71875ZM14.0119 11.3692C14.7876 11.364 15.4228 12.0253 15.4228 12.8427C15.4228 13.6549 14.7876 14.3162 14.0119 14.3162C13.2361 14.3162 12.6009 13.6549 12.6009 12.8427C12.6009 12.0253 13.2361 11.3692 14.0119 11.3692Z" fill="black"/>
<path d="M23 14.8707C23 15.4747 22.5106 15.9641 21.9066 15.9641C21.3026 15.9641 20.8132 15.4747 20.8132 14.8707C20.8132 14.2668 21.3026 13.7773 21.9066 13.7773C22.5106 13.7773 23 14.2668 23 14.8707Z" fill="black"/>
<path d="M19.8173 15.7578H18.0991V8H19.8173V15.7578Z" fill="black"/>
<path fill-rule="evenodd" clip-rule="evenodd" d="M3 15.7578L6.12394 8H7.73798L10.8099 15.7578H8.62309L8.25863 14.6644H5.55122L5.18676 15.7578H3ZM7.73798 13.0504H6.12394L6.93096 10.4471L7.73798 13.0504Z" fill="black"/>
</g>
<defs>
<clipPath id="aol0">
<rect width="20" height="7.98606" fill="white" transform="translate(3 8)"/>
</clipPath>
</defs>
</svg>
