<svg width="100%" height="100%" viewBox="0 0 18 18" fill="none" xmlns="http://www.w3.org/2000/svg">
<circle cx="9" cy="9" r="8.5" fill="white" stroke="#E2EAEC"/>
<g clip-path="url(#aol0)">
<path d="M9.70059 6.72754C8.45702 6.72754 7.51624 7.69356 7.51624 8.89027C7.51624 10.1519 8.49667 11.053 9.70059 11.053C10.9045 11.053 11.8813 10.1519 11.8813 8.89027C11.8813 7.69356 10.9442 6.72754 9.70059 6.72754ZM9.70059 7.87018C10.2377 7.86658 10.6774 8.32435 10.6774 8.89027C10.6774 9.45258 10.2377 9.91036 9.70059 9.91036C9.16351 9.91036 8.72376 9.45258 8.72376 8.89027C8.72376 8.32435 9.16351 7.87018 9.70059 7.87018Z" fill="black"/>
<path d="M15.9231 10.296C15.9231 10.7141 15.5843 11.053 15.1661 11.053C14.748 11.053 14.4092 10.7141 14.4092 10.296C14.4092 9.87789 14.748 9.53906 15.1661 9.53906C15.5843 9.53906 15.9231 9.87789 15.9231 10.296Z" fill="black"/>
<path d="M13.7197 10.9089H12.5302V5.53809H13.7197V10.9089Z" fill="black"/>
<path fill-rule="evenodd" clip-rule="evenodd" d="M2.0769 10.9089L4.23963 5.53809H5.35704L7.48373 10.9089H5.96982L5.7175 10.1519H3.84313L3.59081 10.9089H2.0769ZM5.35704 9.0345H4.23963L4.79834 7.23222L5.35704 9.0345Z" fill="black"/>
</g>
<defs>
<clipPath id="aol0">
<rect width="13.8462" height="5.52881" fill="white" transform="translate(2.0769 5.53809)"/>
</clipPath>
</defs>
</svg>
