<svg width="100%" height="100%" viewBox="0 0 18 18" fill="none" xmlns="http://www.w3.org/2000/svg">
<circle cx="9" cy="9" r="8.5" fill="white" stroke="#E2EAEC"/>
<g clip-path="url(#apachehive0)">
<path fill-rule="evenodd" clip-rule="evenodd" d="M10.0648 11.6543V13.7495H10.5856V12.7866L10.6931 12.7886V13.7495H11.2198V11.6543H10.6931V12.4317H10.5856V11.6543L10.0648 11.6543Z" fill="black"/>
<path fill-rule="evenodd" clip-rule="evenodd" d="M11.8679 11.6543H11.3607V13.7495H11.8679V11.6543Z" fill="black"/>
<path fill-rule="evenodd" clip-rule="evenodd" d="M11.951 11.6543L12.3517 13.7495H12.9565L13.3573 11.6543H12.8188L12.6861 12.5508C12.675 12.5851 12.6376 12.5851 12.631 12.5508L12.4983 11.6543L11.951 11.6543Z" fill="black"/>
<path fill-rule="evenodd" clip-rule="evenodd" d="M14.4719 11.6543H13.4649V13.7495H14.4719V13.2001L13.912 13.1954L13.912 12.9599H14.1787V12.4144H13.912L13.912 12.2037H14.4719V11.6543Z" fill="black"/>
<path fill-rule="evenodd" clip-rule="evenodd" d="M10.0648 11.6543V13.7495H10.5856V12.7866L10.6931 12.7886V13.7495H11.2198V11.6543H10.6931V12.4317H10.5856V11.6543L10.0648 11.6543Z" stroke="#FDEE21" stroke-width="0.1"/>
<path fill-rule="evenodd" clip-rule="evenodd" d="M11.8679 11.6543H11.3607V13.7495H11.8679V11.6543Z" stroke="#FDEE21" stroke-width="0.1"/>
<path fill-rule="evenodd" clip-rule="evenodd" d="M11.951 11.6543L12.3517 13.7495H12.9565L13.3573 11.6543H12.8188L12.6861 12.5508C12.675 12.5851 12.6376 12.5851 12.631 12.5508L12.4983 11.6543L11.951 11.6543Z" stroke="#FDEE21" stroke-width="0.1"/>
<path fill-rule="evenodd" clip-rule="evenodd" d="M14.4719 11.6543H13.4649V13.7495H14.4719V13.2001L13.912 13.1954L13.912 12.9599H14.1787V12.4144H13.912L13.912 12.2037H14.4719V11.6543Z" stroke="#FDEE21" stroke-width="0.1"/>
<path fill-rule="evenodd" clip-rule="evenodd" d="M9.03437 5.30042C8.94956 5.07102 6.03225 3.95087 5.99496 4.07385C5.45926 4.21178 5.24124 4.82159 4.87274 5.20786L4.05442 5.16157C3.69394 5.61941 3.50478 6.08719 3.63358 6.57337C4.09561 7.19161 4.63194 7.7177 4.96623 8.49427C4.99266 8.86031 6.57025 8.53265 6.90839 8.46019C6.44648 8.78676 6.04422 9.29295 6.21709 10.7508C6.37489 11.4354 6.48284 12.1998 7.88249 12.9741C8.06674 13.076 8.44796 13.1936 8.6837 13.2793C8.90915 13.3814 9.17278 13.4234 9.91647 13.1988C10.3468 13.0156 10.8115 12.9052 11.2326 12.7225L10.7264 12.7459C10.0294 12.7609 9.49125 12.8122 9.32526 12.6199L8.68374 11.5261L9.05774 10.8086C9.57535 10.861 9.74716 11.2756 10.2034 11.4335L10.7411 11.0401C12.303 11.9506 12.9244 10.4629 13.1025 9.30428C13.0835 8.83286 12.069 9.45215 12.1305 9.23172C12.1543 8.72497 11.7361 8.06197 11.4659 7.54538L11.7786 6.35021C11.9205 6.22538 11.1217 4.89593 10.4694 4.73014C9.89707 4.58466 9.03434 5.30042 9.03434 5.30042L9.03437 5.30042Z" fill="#FDEE21"/>
<path fill-rule="evenodd" clip-rule="evenodd" d="M11.6002 7.84083C11.6058 7.9692 11.6052 8.12533 11.6178 8.22271C11.6156 8.297 11.5592 8.29972 11.5126 8.31528L11.8165 8.42522C11.8769 8.52551 11.9253 8.6258 11.9743 8.72609C12.0311 8.97279 11.9887 8.97984 11.951 8.99803C11.8407 8.99914 11.7307 8.99935 11.628 8.97778C11.674 9.00175 11.6841 9.01923 11.689 9.04994C11.698 9.10656 11.661 9.18389 11.6003 9.2584C11.6901 9.30766 11.854 9.35585 11.9758 9.4016L12.1146 9.0964C12.0517 8.64802 11.8611 8.23477 11.6003 7.84082L11.6002 7.84083Z" fill="#C8C037"/>
<path fill-rule="evenodd" clip-rule="evenodd" d="M12.1676 9.34464C12.3362 9.41404 12.569 9.39369 12.8919 9.22934C12.94 9.19562 12.9847 9.21578 12.8987 9.27125C12.4753 9.64658 12.2725 9.45882 12.1676 9.34464L12.1676 9.34464Z" fill="#C8C037"/>
<path fill-rule="evenodd" clip-rule="evenodd" d="M12.9243 9.18066C12.9743 9.27536 12.944 9.35237 12.9272 9.43235C12.8749 9.83921 12.7465 10.1609 12.4946 10.497C11.6754 11.7979 10.8483 10.9839 10.1888 10.4541L9.91605 11.1292C9.90157 11.1884 9.84135 11.2344 10.2674 11.4197L10.7013 11.1169C12.3564 12.3607 13.5292 9.37604 12.9242 9.1807L12.9243 9.18066Z" fill="#C8C037"/>
<path fill-rule="evenodd" clip-rule="evenodd" d="M10.3885 10.3427C10.2768 10.3505 9.94448 10.4621 9.92969 10.5268L10.0826 10.3018L10.3885 10.3427Z" fill="#C8C037"/>
<path fill-rule="evenodd" clip-rule="evenodd" d="M10.1713 8.96319C10.1917 8.96319 10.2899 8.98923 10.2794 8.98344C10.2643 8.97516 10.2777 9.11945 10.3086 9.19463L10.1888 9.45211C10.4183 9.19069 10.7812 9.20808 11.1181 9.17438L10.9574 9.07602C10.9853 8.98404 10.9525 8.91126 10.937 8.83301L10.1713 8.96319Z" fill="#C8C037"/>
<path fill-rule="evenodd" clip-rule="evenodd" d="M10.7352 8.18779C10.4889 8.26236 10.2532 8.38416 10.095 8.64383C10.2157 8.21583 10.2403 8.23209 10.2793 8.21093C10.4482 8.13635 10.5864 8.18283 10.7352 8.18779V8.18779Z" fill="#C8C037"/>
<path fill-rule="evenodd" clip-rule="evenodd" d="M9.42025 13.2037C9.12248 13.5282 8.45808 13.1791 7.90632 13.0012C6.50426 12.1206 6.23036 11.2917 6.21133 10.4785C6.13924 9.31365 6.5014 8.63681 6.95948 8.47656C6.65631 9.05377 6.51497 10.0899 6.65554 10.8604C6.76901 11.289 6.77136 12.012 7.49753 12.399C7.85313 12.5967 7.75682 12.7506 7.99728 12.9358C8.26078 13.1387 8.99549 13.3317 9.42024 13.2037L9.42025 13.2037Z" fill="#FCF6A0"/>
<path fill-rule="evenodd" clip-rule="evenodd" d="M9.86504 7.82077C9.3609 7.1147 8.65185 6.84965 7.85226 6.82069C8.01251 6.7691 8.17276 6.74223 8.33301 6.66592C8.37225 6.6252 8.35942 6.55354 8.3447 6.48077C7.57503 6.28228 7.08927 6.03697 6.47437 5.80957L8.13438 6.20302C9.25539 6.24509 9.15911 6.51843 9.86512 7.8208L9.86504 7.82077Z" fill="#FCF6A0"/>
<path fill-rule="evenodd" clip-rule="evenodd" d="M10.4048 7.48031C10.0322 6.95503 9.67089 6.31752 9.1804 5.91207C7.99636 5.38424 6.82508 4.99224 5.45239 4.63552L5.89049 4.0791C7.34711 4.40749 8.71529 4.95702 9.9408 5.86289C10.1481 6.38068 10.2864 6.89915 10.4047 7.48025L10.4048 7.48031Z" fill="#FCF6A0"/>
<path fill-rule="evenodd" clip-rule="evenodd" d="M11.1559 6.55189C11.1559 6.55189 10.947 6.08908 10.8453 5.91236C10.6094 5.65416 10.4901 5.173 10.007 4.94629C10.1598 4.98705 10.2643 4.93849 10.5763 5.21781L11.0677 6.13837L11.1559 6.55189Z" fill="#FCF6A0"/>
<path fill-rule="evenodd" clip-rule="evenodd" d="M11.4157 7.35387C11.4639 6.9529 11.5554 6.30971 11.4504 6.0556C11.1584 5.66857 10.8642 5.26853 10.57 4.89715C10.5212 4.85236 10.4861 4.79157 10.4478 4.74414C10.8615 4.85 11.2932 5.1341 11.8754 6.25568L11.4157 7.35387Z" fill="#FCF6A0"/>
<path fill-rule="evenodd" clip-rule="evenodd" d="M9.67637 7.40128C9.51159 7.2732 9.36474 6.82016 9.11504 6.72597C8.88391 6.70687 8.79917 6.63505 8.49525 6.69621C8.60548 6.64166 8.70955 6.57186 8.82673 6.5345C8.90609 6.516 8.98054 6.5365 9.05626 6.54681C9.07496 6.53808 9.08722 6.52723 9.08264 6.51082C8.77671 6.32409 8.14912 6.32143 7.72546 6.21484C8.21715 6.2311 8.76118 6.20418 9.13071 6.32122C9.42786 6.58166 9.52438 7.07214 9.67637 7.40128L9.67637 7.40128Z" fill="black"/>
<path fill-rule="evenodd" clip-rule="evenodd" d="M10.5774 5.2168C10.6456 5.22292 11.0127 5.79643 11.03 5.89187C11.0605 6.10048 11.1358 6.33434 11.156 6.55262C11.0956 6.34327 11.0297 6.13394 10.9473 5.9246C10.9232 5.86695 10.8623 5.73663 10.6931 5.55229C10.6143 5.42237 10.5973 5.32025 10.5774 5.21681L10.5774 5.2168Z" fill="black"/>
<path fill-rule="evenodd" clip-rule="evenodd" d="M11.8214 8.34082H11.6643L11.8379 8.38582L11.8214 8.34082Z" fill="black"/>
<path fill-rule="evenodd" clip-rule="evenodd" d="M10.7497 8.18582C10.5917 8.16664 10.4297 8.1641 10.2717 8.19838C10.2074 8.28378 10.2029 8.37065 10.1748 8.45092C10.3668 8.24194 10.443 8.22916 10.7497 8.18582V8.18582Z" fill="black"/>
<path fill-rule="evenodd" clip-rule="evenodd" d="M12.9038 9.26465C12.8159 9.33393 12.8071 9.39914 12.5473 9.47728C12.3578 9.52154 12.2507 9.44652 12.1615 9.34565C12.2967 9.38391 12.3183 9.48482 12.681 9.37169L12.9038 9.26465Z" fill="black"/>
<path fill-rule="evenodd" clip-rule="evenodd" d="M12.1161 9.30762C12.0529 9.4794 11.9847 9.653 11.9159 9.81389C11.7522 10.0035 11.822 9.89546 11.5769 10.19C11.6553 10.0705 11.7573 9.95568 11.8107 9.83124C11.8482 9.7493 11.8949 9.66238 11.9156 9.58958C11.8506 9.55753 11.7176 9.55499 11.6995 9.56649C11.4816 9.69342 11.4423 9.82774 11.3139 9.95854C11.407 9.81154 11.4865 9.6511 11.5944 9.5188C11.6067 9.50163 11.6866 9.49831 11.7358 9.48817C11.6594 9.47524 11.5181 9.44814 11.5068 9.44937C11.3646 9.4831 11.285 9.60539 11.1794 9.6866C11.2564 9.57689 11.3272 9.46266 11.4249 9.36836C11.4346 9.35727 11.6986 9.38012 11.8355 9.43405L11.8382 9.48782L11.9159 9.5188L11.9744 9.37415L12.1161 9.30762Z" fill="black"/>
<path fill-rule="evenodd" clip-rule="evenodd" d="M10.392 10.3431C10.3569 10.3313 10.0471 10.292 10.0471 10.3012C9.92818 10.3848 9.91014 10.4648 9.9127 10.5341C10.1106 10.3418 10.1032 10.3413 10.392 10.3431L10.392 10.3431Z" fill="black"/>
<path fill-rule="evenodd" clip-rule="evenodd" d="M10.1566 8.96038C10.1566 8.96038 10.3802 8.92819 10.3758 8.94881C10.3596 9.0254 10.4032 9.21208 10.408 9.18604L10.2823 9.28729C10.5455 9.15661 10.8225 9.18287 11.1035 9.1629C11.1035 9.1629 10.8669 9.09838 10.8814 9.09636C10.9342 9.08897 10.8674 8.85267 10.8493 8.84756C10.8943 8.83251 10.9382 8.82117 10.9837 8.80995C10.6454 8.72251 10.4497 8.77403 10.1566 8.96038L10.1566 8.96038Z" fill="black"/>
<path fill-rule="evenodd" clip-rule="evenodd" d="M12.0913 9.12523L12.0416 9.14982C12.0346 9.00607 11.8783 9.01662 11.7465 9.01529L11.6383 8.98926C11.6712 9.01931 11.7729 9.01696 11.7319 9.08183C11.6974 9.10005 11.6815 9.1782 11.6617 9.24384L11.6033 9.24673C11.7065 9.28659 11.8023 9.32152 11.916 9.36824L11.9832 9.37837L12.1439 9.29302L12.0913 9.12523Z" fill="black"/>
<path fill-rule="evenodd" clip-rule="evenodd" d="M10.6096 9.02873C10.5844 8.97957 10.4579 8.98655 10.4306 9.01835C10.4084 9.0442 10.4292 9.21002 10.4576 9.18205C10.4987 9.14636 10.5524 9.13144 10.6169 9.13432C10.625 9.10368 10.6222 9.0706 10.6096 9.02873L10.6096 9.02873Z" fill="white"/>
<path fill-rule="evenodd" clip-rule="evenodd" d="M11.8235 9.27634C11.8354 9.26774 11.8605 9.18461 11.8524 9.15973C11.8358 9.10103 11.7181 9.11339 11.7181 9.11339C11.6893 9.13008 11.6642 9.22159 11.6747 9.25179C11.6797 9.27735 11.8046 9.28549 11.8235 9.27634L11.8235 9.27634Z" fill="white"/>
<path fill-rule="evenodd" clip-rule="evenodd" d="M6.79016 12.1445L6.86452 12.1517C7.3053 12.3655 8.03107 12.6824 9.08179 12.5121L9.24665 12.7683C8.78392 12.9904 8.28622 12.9393 7.81984 12.9549L6.79016 12.1445Z" fill="black"/>
<path fill-rule="evenodd" clip-rule="evenodd" d="M6.15735 10.4542L6.37815 11.3697C6.96929 11.7346 7.97909 12.1527 8.82081 12.1189L8.6348 11.6974C6.87777 11.3289 6.72916 10.863 6.15738 10.4541L6.15735 10.4542Z" fill="black"/>
<path fill-rule="evenodd" clip-rule="evenodd" d="M6.70682 8.5791C6.81473 9.28856 6.95879 9.82642 7.58341 10.277C7.96625 10.5489 8.34627 10.8197 8.80848 11.0431C8.80848 11.0431 8.76796 11.2514 8.73408 11.2477C7.35853 11.0968 6.35148 9.97029 6.22949 9.45577C6.34764 9.06108 6.51713 8.81455 6.70677 8.5791H6.70682Z" fill="black"/>
<path fill-rule="evenodd" clip-rule="evenodd" d="M7.36807 8.17736C7.55137 8.96366 7.98844 9.76005 8.42285 10.4825C8.5821 10.6821 8.62377 10.7702 8.86922 10.8917C9.20097 10.9954 9.43556 10.9689 9.67636 10.9533C9.61038 10.8327 9.55175 10.7066 9.47598 10.5933C8.93678 10.1721 9.18597 9.78868 9.32919 9.54591C9.02938 9.47108 8.63212 9.31205 8.5774 9.10289C8.48941 8.42636 8.53409 8.21175 8.62215 7.86426C8.21615 7.94881 7.80475 8.03259 7.36804 8.17736L7.36807 8.17736Z" fill="black"/>
<path fill-rule="evenodd" clip-rule="evenodd" d="M5.88 4.00195C5.74656 4.08805 5.618 4.21115 5.4797 4.35107C5.25043 4.58547 5.09801 4.81412 4.86463 4.98363C4.81796 5.02338 4.68697 5.0874 4.5223 5.09689C4.44473 5.10071 4.3942 5.11339 4.25166 5.09572C4.12595 5.02849 4.00652 5.07221 3.88997 5.2099C3.76216 5.39143 3.60029 5.73613 3.53298 5.95312C3.39426 6.50651 3.74794 6.96246 4.0871 7.31386C4.38882 7.60498 4.56277 7.78691 4.68665 8.05379C4.78045 8.22689 4.84994 8.46444 4.92517 8.631C4.95229 8.68381 4.94665 8.68353 5.01967 8.69945C5.17733 8.73268 5.39604 8.73294 5.59074 8.74947C5.67498 8.75063 5.79066 8.74753 5.90028 8.73625C6.05132 8.70808 6.22877 8.68048 6.3775 8.62967C6.52284 8.59432 6.65233 8.54537 6.76907 8.50031C6.75401 8.55077 6.64281 8.59934 6.60112 8.6633C6.20545 9.22269 6.09707 9.72047 6.16595 10.5059C6.20492 10.854 6.2858 11.1426 6.40786 11.4727C6.46371 11.6238 6.58256 11.8631 6.69646 12.0221C7.03515 12.4948 7.79285 13.1017 8.84762 13.3354C9.03163 13.3602 9.24048 13.3469 9.4369 13.2953C9.95748 13.1394 11.0185 12.7708 11.0185 12.7708C11.0185 12.7708 10.0767 12.8478 9.64535 12.8056C9.54549 12.7902 9.43545 12.785 9.36589 12.7178C9.35422 12.7029 9.31183 12.6186 9.33921 12.6178C9.37655 12.6168 9.48377 12.5728 9.64931 12.5583C9.29589 12.5207 9.30093 12.5211 9.27513 12.4575C9.23501 12.3588 9.17361 12.2239 9.11039 12.1059C9.26568 12.1188 9.60952 12.1379 9.72621 12.019C9.72621 12.019 9.52274 12.0422 9.34294 12.0213C9.28236 12.0143 9.17914 11.9779 9.14813 11.9667C9.0674 11.9356 9.00095 11.926 8.98546 11.9058C8.95743 11.8353 8.93843 11.8116 8.9046 11.7172C8.85878 11.5922 8.85514 11.4528 8.84642 11.3252C8.96404 11.4684 9.11392 11.5889 9.31233 11.6505C9.31488 11.6452 9.56973 11.7599 9.75482 11.7009L9.79319 11.6887C9.79319 11.6921 9.67057 11.6993 9.62559 11.6773C9.24918 11.5193 9.19252 11.381 9.13174 11.3123L8.96919 11.0718C9.01863 10.9745 9.04658 10.9708 9.11207 10.9699C9.31019 10.9916 9.3964 11.0083 9.51695 10.9796C9.59841 11.1452 9.62042 11.3117 9.80587 11.4322C10.4237 11.6133 10.5579 11.3784 10.7076 11.1709C11.1521 11.4931 11.8758 11.5924 12.3784 11.1764C13.0173 10.4462 13.2196 9.29509 13.1629 9.22936C13.0831 9.09566 12.9784 8.95777 12.8885 8.97682C12.5681 9.06322 12.45 9.22377 12.1325 9.18714C12.1703 9.18503 12.2339 9.18402 12.2343 9.18046C12.2588 8.91493 12.2324 8.78645 12.2206 8.7644C12.1242 8.55453 11.9977 8.33367 11.9095 8.16816C11.8868 8.13382 11.82 7.87303 11.7081 7.77001C11.6601 7.72954 11.5427 7.62284 11.5427 7.62284L11.5327 7.73625C11.5327 7.73625 11.5787 7.7431 11.5961 7.81336C11.6624 8.07972 11.9997 8.70949 12.0245 8.73967C12.144 8.93028 12.0366 9.16773 12.1275 9.30095C12.1362 9.31787 12.3129 9.29947 12.4499 9.30778C12.6751 9.25994 12.6656 9.16191 12.8601 9.14718C12.9911 9.13726 13.0043 9.38033 13.0026 9.39919C12.9781 9.66758 12.8955 9.97963 12.769 10.2646C12.5059 10.7651 12.2114 11.2146 11.7936 11.2773C11.284 11.3653 11.0192 11.1452 10.743 11.0051L10.6373 11.0941C10.2783 11.4472 9.85201 11.4159 9.67766 10.9545C9.59087 10.7756 9.47777 10.6659 9.38093 10.5123L8.86736 10.8777C8.82461 10.9643 8.77204 11.1008 8.70819 11.2534C8.66379 11.3594 8.62657 11.5415 8.62899 11.6929C8.56316 11.8036 8.85701 12.2528 9.04269 12.5261C9.09748 12.6067 9.19976 12.7475 9.20318 12.7563C9.24001 12.8507 9.32065 12.9339 9.32555 12.9441C9.67025 13.3881 8.89071 13.2859 8.72971 13.2591C8.41207 13.2091 8.10138 13.078 7.80934 12.9028C7.79239 12.8926 7.77551 12.8823 7.75869 12.8719C7.41163 12.656 7.0923 12.3799 6.82078 12.1068C6.65889 11.9257 6.50473 11.5546 6.39087 11.2915C6.22023 10.6589 5.97533 9.56244 6.63872 8.73154C6.68077 8.68405 6.72615 8.60498 6.76478 8.58933C6.96188 8.45767 7.17591 8.36793 7.40606 8.3181L7.38283 8.17075C7.26789 8.19654 6.88086 8.33635 6.77144 8.39486C6.52258 8.46611 6.31617 8.54051 5.99902 8.61894C5.89592 8.6314 5.7945 8.63162 5.69565 8.61836C5.4675 8.58774 5.07861 8.61509 5.05381 8.59233C4.89932 8.37955 4.85703 7.99832 4.71607 7.79429L4.71441 7.79226L4.71263 7.79032C4.63046 7.68124 4.53468 7.59226 4.44035 7.4997C4.10257 7.16824 3.81345 6.84774 3.73253 6.50813C3.71218 6.40785 3.65977 6.30399 3.68762 6.00729L3.68814 6.00583L3.68863 6.00438C3.76989 5.7272 3.9021 5.50126 4.12649 5.27482C4.36 5.27854 4.59113 5.28361 4.77117 5.31757C4.85377 5.33122 5.02553 5.35338 5.20294 5.41866C5.65198 5.58387 6.2453 5.85549 6.2453 5.85549C5.79993 5.61392 5.30193 5.30017 4.98745 5.23685C4.94066 5.23031 4.9119 5.20923 4.89801 5.17243C5.371 4.89796 5.45752 4.5748 5.76863 4.28498C5.9108 4.22385 5.96624 4.19265 6.08704 4.17968C7.20431 4.35416 7.90765 4.79367 8.46403 5.08756C8.68985 5.20885 8.89513 5.30056 9.0912 5.41102C9.26306 5.46685 9.78168 5.85356 9.93346 6.06206C10.0876 6.38358 10.2002 6.73089 10.3029 7.06603C10.3765 7.40689 10.4411 7.54516 10.4411 7.54516C10.4411 7.54516 10.3785 7.26005 10.389 7.20883C10.4538 7.23277 10.6072 7.28007 10.6708 7.27272C10.6708 7.27272 10.3868 7.12773 10.3496 6.99958C10.2302 6.58841 10.1104 5.94831 10.0781 5.91493C9.98708 5.80183 9.60755 5.51496 9.37474 5.38226C9.28668 5.33207 9.23908 5.30093 9.23536 5.27886C9.30973 5.20466 9.40158 5.1065 9.48394 5.04413C9.56288 4.98434 9.63476 4.91692 9.74478 4.87657C10.2284 4.66146 10.5049 4.95933 10.5705 4.89901C10.5705 4.89901 10.4665 4.78123 10.5127 4.80062C10.56 4.82594 10.7142 4.85579 10.7312 4.87134C10.9074 5.00751 11.3682 5.5052 11.6459 6.03033C11.7126 6.15896 11.7397 6.24366 11.7088 6.39855C11.6778 6.55358 11.6538 6.63883 11.62 6.74237C11.5894 6.81159 11.4165 7.28545 11.4172 7.34911C11.3823 7.60912 11.5301 7.93462 11.5301 7.93462C11.5315 7.84626 11.5246 7.79919 11.5327 7.736L11.5426 7.62309C11.5426 7.62309 11.5363 7.59305 11.5374 7.58115C11.5449 7.50307 11.5643 7.43743 11.57 7.39271C11.6256 7.05315 11.7221 6.80871 11.8316 6.51074C11.8641 6.43554 11.9067 6.39372 11.9045 6.33646C11.9063 6.23486 11.8142 6.09849 11.7477 5.96531C11.6806 5.8307 11.6004 5.68065 11.4952 5.52248C11.2551 5.18161 11.0505 4.9149 10.6759 4.74799C10.571 4.70255 10.1585 4.65813 10.0161 4.68453C9.84329 4.72008 9.69468 4.75515 9.57621 4.83008C9.38976 4.948 9.24324 5.13058 9.07142 5.23815C8.69126 5.0504 8.50778 4.90988 8.47357 4.89051C8.24763 4.77094 7.97637 4.63218 7.68454 4.5006C7.54462 4.37172 6.67573 4.0635 5.8801 4.00202L5.88 4.00195ZM10.7429 11.0049C10.5086 10.824 10.3113 10.6378 10.1813 10.4461C10.1389 10.6716 9.98482 10.8322 9.86576 10.9902C9.84206 11.0272 9.82498 11.0777 9.94169 11.2387C9.97314 11.2816 10.087 11.2889 10.1638 11.285C10.0856 11.2267 9.9667 11.1649 9.94754 11.1114C10.085 11.2039 10.2124 11.2305 10.3275 11.2156C10.3537 11.2127 10.3864 11.1851 10.4117 11.1427C10.463 11.0339 10.5031 11.0077 10.5437 10.9784L10.6372 11.0941L10.7429 11.0049Z" fill="black" stroke="black" stroke-width="0.11397"/>
</g>
<defs>
<clipPath id="apachehive0">
<rect width="11" height="9.77778" fill="white" transform="translate(3.5 4)"/>
</clipPath>
</defs>
</svg>
