<svg width="100%" height="100%" viewBox="0 0 26 26" fill="none" xmlns="http://www.w3.org/2000/svg">
<circle cx="13" cy="13" r="12.5" fill="white" stroke="#E2EAEC"/>
<g clip-path="url(#apache_airflow)">
<path d="M3.40095 16.3662L7.07087 12.6043C7.09386 12.5807 7.09826 12.5443 7.07909 12.5175C6.85585 12.2059 6.44413 12.1519 6.29151 11.9425C5.83942 11.3224 5.72471 10.9714 5.53044 10.9931C5.51687 10.9947 5.50477 11.002 5.49524 11.0117L4.16947 12.3708C3.40678 13.1526 3.29741 14.8739 3.27735 16.3153C3.27645 16.3804 3.35547 16.4128 3.40095 16.3662Z" fill="#017CEE"/>
<path d="M10.9112 16.2722L7.14923 12.6023C7.12566 12.5793 7.08923 12.5749 7.06247 12.5941C6.75085 12.8173 6.69683 13.229 6.48747 13.3817C5.86731 13.8337 5.51629 13.9485 5.53807 14.1427C5.53959 14.1563 5.54689 14.1684 5.55667 14.1779L6.91568 15.5037C7.69749 16.2664 9.41884 16.3758 10.8602 16.3958C10.9253 16.3967 10.9578 16.3177 10.9112 16.2722Z" fill="#00AD46"/>
<path fill-rule="evenodd" clip-rule="evenodd" d="M6.91629 15.5029C6.48923 15.0863 6.2911 14.2621 7.10982 12.5625C5.77922 13.1571 5.31294 13.9388 5.54232 14.1626L6.91629 15.5029Z" fill="#04D659"/>
<path d="M10.8191 8.76028L7.14918 12.5222C7.12619 12.5458 7.12179 12.5822 7.14096 12.609C7.3642 12.9206 7.77593 12.9746 7.92851 13.184C8.38063 13.8041 8.49536 14.1551 8.68959 14.1334C8.70316 14.1318 8.71526 14.1245 8.72481 14.1148L10.0506 12.7557C10.8133 11.9739 10.9227 10.2526 10.9427 8.81124C10.9436 8.74611 10.8646 8.71365 10.8191 8.76028Z" fill="#00C7D4"/>
<path fill-rule="evenodd" clip-rule="evenodd" d="M10.0498 12.756C9.6332 13.1831 8.809 13.3812 7.10938 12.5625C7.70401 13.8931 8.48567 14.3594 8.70945 14.13L10.0498 12.756Z" fill="#11E1EE"/>
<path d="M3.30715 8.85408L7.06908 12.524C7.09264 12.547 7.12907 12.5514 7.15584 12.5322C7.46746 12.309 7.52147 11.8973 7.73081 11.7446C8.351 11.2925 8.70201 11.1778 8.68022 10.9836C8.6787 10.97 8.67138 10.9579 8.66165 10.9484L7.30263 9.6226C6.52081 8.85991 4.79948 8.75053 3.35812 8.73048C3.29298 8.72957 3.26052 8.80859 3.30715 8.85408Z" fill="#E43921"/>
<path fill-rule="evenodd" clip-rule="evenodd" d="M7.3029 9.62109C7.72995 10.0377 7.9281 10.8619 7.10938 12.5615C8.43995 11.9669 8.90627 11.1852 8.67686 10.9615L7.3029 9.62109Z" fill="#FF7557"/>
<path fill-rule="evenodd" clip-rule="evenodd" d="M4.16992 12.3714C4.58654 11.9443 5.41072 11.7462 7.11035 12.5649C6.51572 11.2343 5.73405 10.768 5.51028 10.9974L4.16992 12.3714Z" fill="#0CB6FF"/>
<path d="M7.11347 12.7285C7.2041 12.7274 7.27665 12.653 7.27553 12.5624C7.27441 12.4717 7.20003 12.3992 7.10941 12.4003C7.01878 12.4014 6.94622 12.4758 6.94734 12.5664C6.94847 12.6571 7.02284 12.7296 7.11347 12.7285Z" fill="#4A4848"/>
<path d="M11.9646 11.23C11.9568 11.23 11.9501 11.2271 11.9443 11.2213C11.9384 11.2155 11.9355 11.2087 11.9355 11.201C11.9355 11.1932 11.936 11.1879 11.937 11.185L12.297 10.2457C12.3048 10.2244 12.3203 10.2137 12.3435 10.2137H12.4422C12.4654 10.2137 12.4809 10.2244 12.4887 10.2457L12.8473 11.185L12.8502 11.201C12.8502 11.2087 12.8473 11.2155 12.8415 11.2213C12.8357 11.2271 12.8289 11.23 12.8211 11.23H12.7471C12.7364 11.23 12.7282 11.2276 12.7224 11.2227C12.7166 11.2169 12.7127 11.2111 12.7108 11.2053L12.631 10.9992H12.1548L12.0749 11.2053C12.073 11.2111 12.0686 11.2169 12.0618 11.2227C12.056 11.2276 12.0483 11.23 12.0386 11.23H11.9646ZM12.5889 10.8743L12.3928 10.3589L12.1969 10.8743H12.5889ZM13.0214 11.5058C13.0117 11.5058 13.0035 11.5024 12.9967 11.4957C12.9909 11.4899 12.988 11.4821 12.988 11.4724V10.5084C12.988 10.4988 12.9909 10.491 12.9967 10.4852C13.0035 10.4784 13.0117 10.4751 13.0214 10.4751H13.0882C13.0979 10.4751 13.1056 10.4784 13.1114 10.4852C13.1182 10.491 13.1216 10.4988 13.1216 10.5084V10.5723C13.1758 10.4978 13.2551 10.4605 13.3596 10.4605C13.4613 10.4605 13.5373 10.4925 13.5876 10.5564C13.6389 10.6202 13.6664 10.7025 13.6703 10.8032C13.6713 10.8138 13.6718 10.8303 13.6718 10.8525C13.6718 10.8748 13.6713 10.8912 13.6703 10.9019C13.6664 11.0016 13.6389 11.0838 13.5876 11.1487C13.5363 11.2126 13.4603 11.2445 13.3596 11.2445C13.259 11.2445 13.1806 11.2082 13.1245 11.1356V11.4724C13.1245 11.4821 13.1216 11.4899 13.1158 11.4957C13.11 11.5024 13.1022 11.5058 13.0925 11.5058H13.0214ZM13.3291 11.1269C13.3979 11.1269 13.4477 11.1056 13.4787 11.063C13.5106 11.0205 13.5281 10.9643 13.531 10.8946C13.5319 10.885 13.5324 10.8709 13.5324 10.8525C13.5324 10.6696 13.4647 10.5781 13.3291 10.5781C13.2624 10.5781 13.212 10.6004 13.1782 10.6449C13.1453 10.6885 13.1274 10.7407 13.1245 10.8017L13.123 10.8569L13.1245 10.9135C13.1264 10.9706 13.1448 11.0205 13.1796 11.063C13.2145 11.1056 13.2643 11.1269 13.3291 11.1269ZM14.0619 11.2445C14.0145 11.2445 13.9704 11.2348 13.9298 11.2155C13.8891 11.1961 13.8567 11.17 13.8325 11.1371C13.8093 11.1032 13.7976 11.0659 13.7976 11.0253C13.7976 10.9614 13.8238 10.9091 13.8761 10.8685C13.9293 10.8269 14.0009 10.7998 14.0909 10.7872L14.3073 10.7567V10.7146C14.3073 10.6159 14.2506 10.5665 14.1374 10.5665C14.0948 10.5665 14.06 10.5757 14.0329 10.5941C14.0058 10.6115 13.9854 10.6323 13.9719 10.6565C13.969 10.6652 13.9651 10.6715 13.9603 10.6754C13.9564 10.6793 13.9506 10.6812 13.9429 10.6812H13.8804C13.8717 10.6812 13.864 10.6783 13.8572 10.6725C13.8514 10.6657 13.8485 10.658 13.8485 10.6493C13.8494 10.626 13.8601 10.5999 13.8804 10.5709C13.9017 10.5409 13.9341 10.5152 13.9777 10.4939C14.0212 10.4717 14.075 10.4605 14.1388 10.4605C14.2472 10.4605 14.3252 10.4862 14.3726 10.5375C14.42 10.5878 14.4437 10.6507 14.4437 10.7262V11.1966C14.4437 11.2063 14.4403 11.2145 14.4335 11.2213C14.4277 11.2271 14.42 11.23 14.4103 11.23H14.3436C14.3339 11.23 14.3257 11.2271 14.3189 11.2213C14.3131 11.2145 14.3102 11.2063 14.3102 11.1966V11.1342C14.2889 11.1651 14.2579 11.1913 14.2172 11.2126C14.1766 11.2339 14.1248 11.2445 14.0619 11.2445ZM14.0924 11.1356C14.1553 11.1356 14.2066 11.1153 14.2463 11.0747C14.2869 11.033 14.3073 10.9735 14.3073 10.8961V10.8554L14.1388 10.8801C14.0701 10.8898 14.0183 10.9062 13.9835 10.9295C13.9487 10.9517 13.9312 10.9803 13.9312 11.0151C13.9312 11.0538 13.9472 11.0838 13.9792 11.1051C14.0111 11.1255 14.0488 11.1356 14.0924 11.1356ZM14.9573 11.2445C14.8538 11.2445 14.7724 11.2155 14.7134 11.1574C14.6553 11.0984 14.6243 11.0161 14.6205 10.9106L14.619 10.8525L14.6205 10.7945C14.6243 10.689 14.6553 10.6072 14.7134 10.5491C14.7724 10.4901 14.8538 10.4605 14.9573 10.4605C15.027 10.4605 15.086 10.4731 15.1344 10.4983C15.1828 10.5235 15.2186 10.5544 15.2419 10.5912C15.2661 10.628 15.2791 10.6648 15.2811 10.7015C15.282 10.7112 15.2791 10.719 15.2723 10.7248C15.2656 10.7306 15.2573 10.7335 15.2477 10.7335H15.178C15.1683 10.7335 15.161 10.7315 15.1562 10.7277C15.1514 10.7238 15.1465 10.7161 15.1417 10.7044C15.1252 10.658 15.102 10.6251 15.072 10.6057C15.042 10.5854 15.0042 10.5752 14.9587 10.5752C14.8987 10.5752 14.8509 10.5941 14.815 10.6319C14.7802 10.6686 14.7613 10.7253 14.7584 10.8017L14.757 10.854L14.7584 10.9033C14.7613 10.9808 14.7802 11.0379 14.815 11.0747C14.8499 11.1114 14.8978 11.1298 14.9587 11.1298C15.0042 11.1298 15.042 11.1201 15.072 11.1008C15.102 11.0805 15.1252 11.0471 15.1417 11.0006C15.1465 10.989 15.1514 10.9813 15.1562 10.9774C15.161 10.9725 15.1683 10.9701 15.178 10.9701H15.2477C15.2573 10.9701 15.2656 10.9735 15.2723 10.9803C15.2791 10.9861 15.282 10.9938 15.2811 11.0035C15.2791 11.0393 15.2661 11.0761 15.2419 11.1139C15.2186 11.1506 15.1828 11.1816 15.1344 11.2068C15.087 11.2319 15.0279 11.2445 14.9573 11.2445ZM15.4883 11.23C15.4786 11.23 15.4704 11.2271 15.4636 11.2213C15.4578 11.2145 15.4549 11.2063 15.4549 11.1966V10.2326C15.4549 10.2229 15.4578 10.2152 15.4636 10.2094C15.4704 10.2026 15.4786 10.1992 15.4883 10.1992H15.5609C15.5706 10.1992 15.5783 10.2026 15.5841 10.2094C15.5909 10.2152 15.5943 10.2229 15.5943 10.2326V10.5709C15.6224 10.5351 15.6553 10.508 15.693 10.4896C15.7308 10.4702 15.7777 10.4605 15.8338 10.4605C15.9267 10.4605 15.9989 10.4905 16.0502 10.5506C16.1024 10.6096 16.1286 10.6885 16.1286 10.7872V11.1966C16.1286 11.2063 16.1252 11.2145 16.1184 11.2213C16.1126 11.2271 16.1049 11.23 16.0952 11.23H16.0226C16.0129 11.23 16.0047 11.2271 15.9979 11.2213C15.9921 11.2145 15.9892 11.2063 15.9892 11.1966V10.7945C15.9892 10.7257 15.9722 10.6725 15.9384 10.6348C15.9054 10.597 15.8575 10.5781 15.7946 10.5781C15.7337 10.5781 15.6848 10.5975 15.648 10.6362C15.6122 10.674 15.5943 10.7267 15.5943 10.7945V11.1966C15.5943 11.2063 15.5909 11.2145 15.5841 11.2213C15.5783 11.2271 15.5706 11.23 15.5609 11.23H15.4883ZM16.6401 11.2445C16.5405 11.2445 16.4606 11.214 16.4006 11.1531C16.3415 11.0911 16.3091 11.0069 16.3033 10.9004L16.3019 10.8511L16.3033 10.8032C16.3101 10.6986 16.343 10.6154 16.402 10.5535C16.462 10.4915 16.5409 10.4605 16.6387 10.4605C16.7461 10.4605 16.8294 10.4949 16.8884 10.5636C16.9474 10.6314 16.977 10.7233 16.977 10.8395V10.8641C16.977 10.8738 16.9736 10.882 16.9668 10.8888C16.961 10.8946 16.9532 10.8975 16.9436 10.8975H16.4412V10.9106C16.4441 10.9735 16.463 11.0272 16.4979 11.0717C16.5337 11.1153 16.5806 11.1371 16.6387 11.1371C16.6832 11.1371 16.7195 11.1284 16.7475 11.1109C16.7766 11.0926 16.7979 11.0737 16.8114 11.0543C16.8202 11.0427 16.8264 11.0359 16.8303 11.034C16.8352 11.0311 16.8434 11.0296 16.855 11.0296H16.9262C16.9349 11.0296 16.9421 11.0321 16.9479 11.0369C16.9537 11.0417 16.9566 11.0485 16.9566 11.0572C16.9566 11.0785 16.9431 11.1042 16.916 11.1342C16.8899 11.1642 16.8526 11.1903 16.8042 11.2126C16.7567 11.2339 16.7021 11.2445 16.6401 11.2445ZM16.839 10.7974V10.793C16.839 10.7262 16.8206 10.672 16.7838 10.6304C16.748 10.5878 16.6996 10.5665 16.6387 10.5665C16.5777 10.5665 16.5293 10.5878 16.4935 10.6304C16.4587 10.672 16.4412 10.7262 16.4412 10.793V10.7974H16.839Z" fill="#51504F"/>
<path d="M11.9437 11.2207L11.9358 11.2286L11.9437 11.2207ZM11.9364 11.1844L11.926 11.1804L11.9258 11.1809L11.9364 11.1844ZM12.2965 10.2451L12.3069 10.2491L12.307 10.2489L12.2965 10.2451ZM12.4881 10.2451L12.4776 10.2489L12.4777 10.2491L12.4881 10.2451ZM12.8467 11.1844L12.8577 11.1824C12.8576 11.1818 12.8574 11.1811 12.8571 11.1805L12.8467 11.1844ZM12.8496 11.2004H12.8608C12.8608 11.1997 12.8607 11.1991 12.8606 11.1984L12.8496 11.2004ZM12.8409 11.2207L12.8488 11.2286L12.8409 11.2207ZM12.7219 11.2222L12.714 11.2301C12.7142 11.2303 12.7145 11.2305 12.7147 11.2308L12.7219 11.2222ZM12.7103 11.2048L12.7208 11.2012L12.7207 11.2007L12.7103 11.2048ZM12.6304 10.9986L12.6408 10.9946C12.6392 10.9903 12.635 10.9874 12.6304 10.9874V10.9986ZM12.1542 10.9986V10.9874C12.1496 10.9874 12.1455 10.9903 12.1438 10.9946L12.1542 10.9986ZM12.0744 11.2048L12.064 11.2007L12.0638 11.2012L12.0744 11.2048ZM12.0613 11.2222L12.0684 11.2308L12.0686 11.2306L12.0613 11.2222ZM12.5883 10.8737V10.8849C12.592 10.8849 12.5954 10.8831 12.5975 10.8801C12.5996 10.8771 12.6 10.8732 12.5988 10.8698L12.5883 10.8737ZM12.3923 10.3584L12.4027 10.3544C12.4011 10.3501 12.3969 10.3472 12.3923 10.3472C12.3877 10.3472 12.3835 10.3501 12.3819 10.3544L12.3923 10.3584ZM12.1963 10.8737L12.1859 10.8698C12.1846 10.8732 12.185 10.8771 12.1871 10.8801C12.1892 10.8831 12.1927 10.8849 12.1963 10.8849V10.8737ZM11.964 11.2183C11.9595 11.2183 11.9554 11.2167 11.9516 11.2128L11.9358 11.2286C11.9436 11.2364 11.9531 11.2406 11.964 11.2406V11.2183ZM11.9516 11.2128C11.9478 11.209 11.9461 11.205 11.9461 11.2004H11.9238C11.9238 11.2113 11.928 11.2209 11.9358 11.2286L11.9516 11.2128ZM11.9461 11.2004C11.9461 11.1926 11.9467 11.1889 11.947 11.188L11.9258 11.1809C11.9242 11.1857 11.9238 11.1927 11.9238 11.2004H11.9461ZM11.9469 11.1884L12.3069 10.2491L12.286 10.2411L11.926 11.1804L11.9469 11.1884ZM12.307 10.2489C12.3102 10.24 12.3147 10.2341 12.3202 10.2304C12.3257 10.2266 12.333 10.2243 12.343 10.2243V10.202C12.3296 10.202 12.3176 10.2051 12.3076 10.212C12.2976 10.2189 12.2905 10.2289 12.286 10.2413L12.307 10.2489ZM12.343 10.2243H12.4417V10.202H12.343V10.2243ZM12.4417 10.2243C12.4516 10.2243 12.4589 10.2266 12.4644 10.2304C12.4698 10.2341 12.4744 10.24 12.4776 10.2489L12.4986 10.2413C12.4941 10.2289 12.4871 10.2189 12.477 10.212C12.467 10.2051 12.455 10.202 12.4417 10.202V10.2243ZM12.4777 10.2491L12.8363 11.1884L12.8571 11.1805L12.4985 10.2411L12.4777 10.2491ZM12.8357 11.1864L12.8386 11.2024L12.8606 11.1984L12.8577 11.1824L12.8357 11.1864ZM12.8385 11.2004C12.8385 11.205 12.8369 11.209 12.833 11.2128L12.8488 11.2286C12.8566 11.2209 12.8608 11.2113 12.8608 11.2004H12.8385ZM12.833 11.2128C12.8292 11.2167 12.8252 11.2183 12.8206 11.2183V11.2406C12.8315 11.2406 12.8411 11.2364 12.8488 11.2286L12.833 11.2128ZM12.8206 11.2183H12.7466V11.2406H12.8206V11.2183ZM12.7466 11.2183C12.7374 11.2183 12.7321 11.2162 12.729 11.2136L12.7147 11.2308C12.7232 11.2378 12.7343 11.2406 12.7466 11.2406V11.2183ZM12.7298 11.2143C12.7248 11.2093 12.722 11.2049 12.7208 11.2012L12.6997 11.2083C12.7023 11.2162 12.7073 11.2234 12.714 11.2301L12.7298 11.2143ZM12.7207 11.2007L12.6408 10.9946L12.62 11.0026L12.6999 11.2088L12.7207 11.2007ZM12.6304 10.9874H12.1542V11.0098H12.6304V10.9874ZM12.1438 10.9946L12.064 11.2007L12.0848 11.2088L12.1646 11.0026L12.1438 10.9946ZM12.0638 11.2012C12.0627 11.2044 12.0599 11.2086 12.054 11.2137L12.0686 11.2306C12.0762 11.2241 12.0821 11.2167 12.0849 11.2083L12.0638 11.2012ZM12.0541 11.2136C12.0509 11.2164 12.0459 11.2183 12.0381 11.2183V11.2406C12.0496 11.2406 12.0601 11.2377 12.0684 11.2308L12.0541 11.2136ZM12.0381 11.2183H11.964V11.2406H12.0381V11.2183ZM12.5988 10.8698L12.4027 10.3544L12.3819 10.3623L12.5779 10.8777L12.5988 10.8698ZM12.3819 10.3544L12.1859 10.8698L12.2068 10.8777L12.4027 10.3623L12.3819 10.3544ZM12.1963 10.8849H12.5883V10.8626H12.1963V10.8849ZM12.9961 11.4951L12.9882 11.503L12.9961 11.4951ZM12.9961 10.4847L13.004 10.4926L12.9961 10.4847ZM13.1108 10.4847L13.1023 10.4919C13.1027 10.4924 13.1031 10.4928 13.1035 10.4931L13.1108 10.4847ZM13.121 10.5718H13.1098C13.1098 10.5766 13.113 10.5809 13.1176 10.5824C13.1222 10.5839 13.1272 10.5822 13.13 10.5783L13.121 10.5718ZM13.587 10.5558L13.5783 10.5627L13.5783 10.5628L13.587 10.5558ZM13.6698 10.8026L13.6586 10.803L13.6587 10.8036L13.6698 10.8026ZM13.6698 10.9013L13.6587 10.9003L13.6586 10.9009L13.6698 10.9013ZM13.587 11.1481L13.5957 11.1551L13.5958 11.1551L13.587 11.1481ZM13.1239 11.1351L13.1327 11.1282C13.1298 11.1245 13.1248 11.123 13.1203 11.1245C13.1158 11.1261 13.1127 11.1303 13.1127 11.1351H13.1239ZM13.1152 11.4951L13.1073 11.4872C13.1071 11.4874 13.1069 11.4876 13.1067 11.4879L13.1152 11.4951ZM13.4781 11.0625L13.4692 11.0558L13.4691 11.0559L13.4781 11.0625ZM13.5304 10.8941L13.5193 10.893C13.5193 10.8932 13.5192 10.8934 13.5192 10.8936L13.5304 10.8941ZM13.1776 10.6444L13.1687 10.6376V10.6376L13.1776 10.6444ZM13.1239 10.8012L13.1127 10.8006V10.8009L13.1239 10.8012ZM13.1224 10.8563L13.1113 10.856V10.8566L13.1224 10.8563ZM13.1239 10.9129L13.1127 10.9132V10.9133L13.1239 10.9129ZM13.1791 11.0625L13.1877 11.0554L13.1791 11.0625ZM13.0208 11.4941C13.0141 11.4941 13.0087 11.4919 13.004 11.4872L12.9882 11.503C12.9971 11.5119 13.0082 11.5164 13.0208 11.5164V11.4941ZM13.004 11.4872C13.0007 11.4839 12.9986 11.4792 12.9986 11.4719H12.9763C12.9763 11.484 12.98 11.4947 12.9882 11.503L13.004 11.4872ZM12.9986 11.4719V10.5079H12.9763V11.4719H12.9986ZM12.9986 10.5079C12.9986 10.5006 13.0007 10.4959 13.004 10.4926L12.9882 10.4768C12.98 10.485 12.9763 10.4958 12.9763 10.5079H12.9986ZM13.004 10.4926C13.0087 10.4879 13.0141 10.4857 13.0208 10.4857V10.4633C13.0082 10.4633 12.9971 10.4679 12.9882 10.4768L13.004 10.4926ZM13.0208 10.4857H13.0876V10.4633H13.0208V10.4857ZM13.0876 10.4857C13.0944 10.4857 13.0989 10.4879 13.1023 10.4919L13.1193 10.4774C13.1112 10.4679 13.1002 10.4633 13.0876 10.4633V10.4857ZM13.1035 10.4931C13.1077 10.4966 13.1098 10.5012 13.1098 10.5079H13.1322C13.1322 10.4953 13.1276 10.4843 13.1181 10.4762L13.1035 10.4931ZM13.1098 10.5079V10.5718H13.1322V10.5079H13.1098ZM13.13 10.5783C13.1818 10.5071 13.2576 10.4711 13.3591 10.4711V10.4488C13.2515 10.4488 13.1686 10.4874 13.112 10.5652L13.13 10.5783ZM13.3591 10.4711C13.4582 10.4711 13.5306 10.5022 13.5783 10.5627L13.5958 10.5489C13.5428 10.4817 13.4632 10.4488 13.3591 10.4488V10.4711ZM13.5783 10.5628C13.6278 10.6244 13.6548 10.7042 13.6586 10.803L13.6809 10.8022C13.677 10.6997 13.6488 10.615 13.5957 10.5488L13.5783 10.5628ZM13.6587 10.8036C13.6596 10.8137 13.6601 10.8298 13.6601 10.852H13.6824C13.6824 10.8296 13.6819 10.8128 13.6809 10.8016L13.6587 10.8036ZM13.6601 10.852C13.6601 10.8742 13.6596 10.8902 13.6587 10.9003L13.6809 10.9023C13.6819 10.8912 13.6824 10.8743 13.6824 10.852H13.6601ZM13.6586 10.9009C13.6548 10.9987 13.6278 11.0786 13.5783 11.1412L13.5958 11.1551C13.6488 11.088 13.677 11.0033 13.6809 10.9018L13.6586 10.9009ZM13.5783 11.1411C13.5296 11.2018 13.4572 11.2328 13.3591 11.2328V11.2551C13.4623 11.2551 13.5418 11.2222 13.5957 11.1551L13.5783 11.1411ZM13.3591 11.2328C13.2615 11.2328 13.1865 11.1978 13.1327 11.1282L13.1151 11.1419C13.1735 11.2175 13.2554 11.2551 13.3591 11.2551V11.2328ZM13.1127 11.1351V11.4719H13.1351V11.1351H13.1127ZM13.1127 11.4719C13.1127 11.4792 13.1106 11.4839 13.1073 11.4872L13.1231 11.503C13.1314 11.4947 13.1351 11.484 13.1351 11.4719H13.1127ZM13.1067 11.4879C13.1032 11.4919 13.0987 11.4941 13.0919 11.4941V11.5164C13.1046 11.5164 13.1156 11.5119 13.1237 11.5024L13.1067 11.4879ZM13.0919 11.4941H13.0208V11.5164H13.0919V11.4941ZM13.3286 11.1375C13.3997 11.1375 13.4535 11.1154 13.4871 11.069L13.4691 11.0559C13.4409 11.0948 13.395 11.1152 13.3286 11.1152V11.1375ZM13.4871 11.0692C13.5207 11.0243 13.5386 10.9658 13.5416 10.8945L13.5192 10.8936C13.5164 10.9617 13.4994 11.0155 13.4692 11.0558L13.4871 11.0692ZM13.5415 10.8952C13.5425 10.8849 13.543 10.8705 13.543 10.852H13.5207C13.5207 10.8703 13.5202 10.8838 13.5193 10.893L13.5415 10.8952ZM13.543 10.852C13.543 10.7595 13.5259 10.688 13.49 10.6395C13.4536 10.5904 13.3991 10.5664 13.3286 10.5664V10.5887C13.3936 10.5887 13.4407 10.6105 13.4721 10.6528C13.5039 10.6958 13.5207 10.7616 13.5207 10.852H13.543ZM13.3286 10.5664C13.2591 10.5664 13.2051 10.5898 13.1687 10.6376L13.1865 10.6511C13.2178 10.6099 13.2646 10.5887 13.3286 10.5887V10.5664ZM13.1687 10.6376C13.1343 10.6832 13.1157 10.7377 13.1127 10.8006L13.1351 10.8017C13.1379 10.7427 13.1551 10.6926 13.1865 10.6511L13.1687 10.6376ZM13.1127 10.8009L13.1113 10.856L13.1336 10.8566L13.1351 10.8014L13.1127 10.8009ZM13.1113 10.8566L13.1127 10.9132L13.1351 10.9127L13.1336 10.856L13.1113 10.8566ZM13.1127 10.9133C13.1148 10.9728 13.134 11.025 13.1704 11.0695L13.1877 11.0554C13.1545 11.0148 13.1369 10.9673 13.1351 10.9126L13.1127 10.9133ZM13.1704 11.0695C13.2078 11.1152 13.2611 11.1375 13.3286 11.1375V11.1152C13.2664 11.1152 13.2201 11.0949 13.1877 11.0554L13.1704 11.0695ZM13.9292 11.2149L13.934 11.2048L13.9292 11.2149ZM13.8319 11.1365L13.8228 11.1428L13.823 11.1431L13.8319 11.1365ZM13.8755 10.8679L13.8823 10.8767L13.8824 10.8767L13.8755 10.8679ZM14.0904 10.7866L14.0919 10.7977H14.0919L14.0904 10.7866ZM14.3067 10.7562L14.3083 10.7672C14.3138 10.7664 14.3179 10.7617 14.3179 10.7562H14.3067ZM14.0323 10.5935L14.0383 10.6029L14.0385 10.6028L14.0323 10.5935ZM13.9713 10.656L13.9616 10.6505C13.9612 10.6511 13.961 10.6518 13.9607 10.6524L13.9713 10.656ZM13.9597 10.6749L13.9527 10.6661C13.9524 10.6664 13.9521 10.6667 13.9518 10.667L13.9597 10.6749ZM13.8566 10.6719L13.8482 10.6792C13.8485 10.6796 13.8489 10.68 13.8494 10.6804L13.8566 10.6719ZM13.8479 10.6487L13.8368 10.6482V10.6487H13.8479ZM13.8798 10.5703L13.8707 10.5639L13.8707 10.5639L13.8798 10.5703ZM13.9771 10.4934L13.982 10.5034L13.9822 10.5033L13.9771 10.4934ZM14.372 10.5369L14.3638 10.5445L14.3639 10.5446L14.372 10.5369ZM14.433 11.2207L14.4409 11.2286L14.433 11.2207ZM14.3183 11.2207L14.3098 11.228C14.3102 11.2284 14.3106 11.2288 14.311 11.2292L14.3183 11.2207ZM14.3096 11.1336H14.3208C14.3208 11.1287 14.3176 11.1244 14.3129 11.123C14.3082 11.1215 14.3032 11.1233 14.3004 11.1273L14.3096 11.1336ZM14.2167 11.212L14.2115 11.2021L14.2167 11.212ZM14.2457 11.0741L14.2377 11.0663V11.0663L14.2457 11.0741ZM14.3067 10.8549H14.3179C14.3179 10.8516 14.3164 10.8485 14.314 10.8464C14.3115 10.8443 14.3083 10.8434 14.3051 10.8438L14.3067 10.8549ZM14.1383 10.8796L14.1398 10.8906L14.1399 10.8906L14.1383 10.8796ZM13.9829 10.9289L13.989 10.9383L13.9891 10.9382L13.9829 10.9289ZM13.9786 11.1046L13.9724 11.1139L13.9726 11.114L13.9786 11.1046ZM14.0613 11.2328C14.0155 11.2328 13.9731 11.2234 13.934 11.2048L13.9244 11.225C13.9666 11.2451 14.0123 11.2551 14.0613 11.2551V11.2328ZM13.934 11.2048C13.8948 11.1862 13.864 11.1612 13.8409 11.1299L13.823 11.1431C13.8483 11.1777 13.8823 11.2049 13.9244 11.225L13.934 11.2048ZM13.8411 11.1302C13.8192 11.0982 13.8082 11.0631 13.8082 11.0247H13.7859C13.7859 11.0677 13.7982 11.1071 13.8228 11.1428L13.8411 11.1302ZM13.8082 11.0247C13.8082 10.9644 13.8327 10.9154 13.8823 10.8767L13.8686 10.8591C13.8138 10.9018 13.7859 10.9573 13.7859 11.0247H13.8082ZM13.8824 10.8767C13.9336 10.8367 14.0032 10.8101 14.0919 10.7977L14.0888 10.7756C13.9975 10.7883 13.9239 10.816 13.8686 10.8591L13.8824 10.8767ZM14.0919 10.7977L14.3083 10.7672L14.3051 10.7451L14.0888 10.7756L14.0919 10.7977ZM14.3179 10.7562V10.714H14.2955V10.7562H14.3179ZM14.3179 10.714C14.3179 10.6625 14.303 10.622 14.2716 10.5946C14.2404 10.5674 14.1948 10.5548 14.1368 10.5548V10.5771C14.1921 10.5771 14.2314 10.5892 14.2569 10.6114C14.2821 10.6333 14.2955 10.6668 14.2955 10.714H14.3179ZM14.1368 10.5548C14.0927 10.5548 14.0555 10.5643 14.026 10.5843L14.0385 10.6028C14.0633 10.586 14.0958 10.5771 14.1368 10.5771V10.5548ZM14.0263 10.5842C13.9979 10.6024 13.9761 10.6245 13.9616 10.6505L13.981 10.6614C13.9936 10.6391 14.0125 10.6195 14.0383 10.6029L14.0263 10.5842ZM13.9607 10.6524C13.9582 10.66 13.9552 10.6641 13.9527 10.6661L13.9667 10.6836C13.9738 10.6778 13.9786 10.6693 13.9819 10.6595L13.9607 10.6524ZM13.9518 10.667C13.9508 10.668 13.9483 10.6695 13.9423 10.6695V10.6918C13.9518 10.6918 13.9609 10.6894 13.9676 10.6827L13.9518 10.667ZM13.9423 10.6695H13.8798V10.6918H13.9423V10.6695ZM13.8798 10.6695C13.8739 10.6695 13.8687 10.6676 13.8639 10.6635L13.8494 10.6804C13.8581 10.6879 13.8684 10.6918 13.8798 10.6918V10.6695ZM13.8651 10.6647C13.861 10.6599 13.8591 10.6547 13.8591 10.6487H13.8368C13.8368 10.6602 13.8407 10.6705 13.8482 10.6792L13.8651 10.6647ZM13.859 10.6492C13.8599 10.6289 13.8693 10.6049 13.889 10.5767L13.8707 10.5639C13.8498 10.5939 13.8378 10.6221 13.8368 10.6482L13.859 10.6492ZM13.889 10.5768C13.9089 10.5487 13.9396 10.5241 13.982 10.5034L13.9722 10.4833C13.9275 10.5052 13.8934 10.5319 13.8707 10.5639L13.889 10.5768ZM13.9822 10.5033C14.0238 10.4821 14.0756 10.4711 14.1383 10.4711V10.4488C14.0731 10.4488 14.0176 10.4602 13.972 10.4834L13.9822 10.5033ZM14.1383 10.4711C14.2453 10.4711 14.3194 10.4965 14.3638 10.5445L14.3802 10.5294C14.3297 10.4748 14.2481 10.4488 14.1383 10.4488V10.4711ZM14.3639 10.5446C14.4092 10.5926 14.432 10.6527 14.432 10.7257H14.4543C14.4543 10.6476 14.4297 10.5819 14.3801 10.5293L14.3639 10.5446ZM14.432 10.7257V11.196H14.4543V10.7257H14.432ZM14.432 11.196C14.432 11.2028 14.4298 11.2082 14.4251 11.2128L14.4409 11.2286C14.4498 11.2197 14.4543 11.2087 14.4543 11.196H14.432ZM14.4251 11.2128C14.4217 11.2162 14.4171 11.2183 14.4098 11.2183V11.2406C14.4218 11.2406 14.4326 11.2369 14.4409 11.2286L14.4251 11.2128ZM14.4098 11.2183H14.343V11.2406H14.4098V11.2183ZM14.343 11.2183C14.3357 11.2183 14.3301 11.2162 14.3255 11.2123L14.311 11.2292C14.32 11.2369 14.3309 11.2406 14.343 11.2406V11.2183ZM14.3268 11.2135C14.3229 11.2089 14.3208 11.2033 14.3208 11.196H14.2984C14.2984 11.2081 14.3021 11.219 14.3098 11.228L14.3268 11.2135ZM14.3208 11.196V11.1336H14.2984V11.196H14.3208ZM14.3004 11.1273C14.2803 11.1565 14.2509 11.1815 14.2115 11.2021L14.2218 11.2219C14.2638 11.2 14.2963 11.1727 14.3188 11.1399L14.3004 11.1273ZM14.2115 11.2021C14.1729 11.2223 14.1231 11.2328 14.0613 11.2328V11.2551C14.1254 11.2551 14.1791 11.2443 14.2218 11.2219L14.2115 11.2021ZM14.0918 11.1462C14.1574 11.1462 14.2117 11.1249 14.2537 11.0819L14.2377 11.0663C14.2004 11.1046 14.1521 11.1239 14.0918 11.1239V11.1462ZM14.2537 11.0819C14.297 11.0376 14.3179 10.9749 14.3179 10.8955H14.2955C14.2955 10.971 14.2757 11.0274 14.2377 11.0663L14.2537 11.0819ZM14.3179 10.8955V10.8549H14.2955V10.8955H14.3179ZM14.3051 10.8438L14.1367 10.8685L14.1399 10.8906L14.3083 10.8659L14.3051 10.8438ZM14.1367 10.8685C14.0673 10.8783 14.0136 10.8951 13.9768 10.9196L13.9891 10.9382C14.0219 10.9163 14.0718 10.9002 14.1398 10.8906L14.1367 10.8685ZM13.9769 10.9195C13.9396 10.9434 13.9195 10.9752 13.9195 11.0146H13.9418C13.9418 10.9843 13.9566 10.959 13.989 10.9383L13.9769 10.9195ZM13.9195 11.0146C13.9195 11.057 13.9373 11.0905 13.9724 11.1139L13.9848 11.0953C13.956 11.0761 13.9418 11.0496 13.9418 11.0146H13.9195ZM13.9726 11.114C14.0066 11.1356 14.0464 11.1462 14.0918 11.1462V11.1239C14.0501 11.1239 14.0144 11.1142 13.9846 11.0952L13.9726 11.114ZM14.7128 11.1568L14.7049 11.1647L14.705 11.1648L14.7128 11.1568ZM14.6199 10.91L14.6088 10.9103V10.9105L14.6199 10.91ZM14.6185 10.852L14.6073 10.8517V10.8522L14.6185 10.852ZM14.6199 10.7939L14.6088 10.7935V10.7936L14.6199 10.7939ZM14.7128 10.5485L14.7207 10.5564L14.7128 10.5485ZM15.1338 10.4977L15.1287 10.5076L15.1338 10.4977ZM15.2413 10.5906L15.2318 10.5966L15.232 10.5968L15.2413 10.5906ZM15.2805 10.701L15.2693 10.7016L15.2694 10.7021L15.2805 10.701ZM15.2718 10.7242L15.2791 10.7327L15.2718 10.7242ZM15.1556 10.7271L15.1626 10.7184L15.1556 10.7271ZM15.1411 10.7039L15.1306 10.7076L15.1308 10.7082L15.1411 10.7039ZM15.0714 10.6052L15.0652 10.6144L15.0654 10.6145L15.0714 10.6052ZM14.8144 10.6313L14.8064 10.6236V10.6236L14.8144 10.6313ZM14.7578 10.8012L14.7467 10.8007V10.8008L14.7578 10.8012ZM14.7564 10.8534L14.7453 10.8531C14.7453 10.8533 14.7453 10.8535 14.7453 10.8537L14.7564 10.8534ZM14.7578 10.9028L14.7467 10.9031V10.9032L14.7578 10.9028ZM14.8144 11.0741L14.8064 11.0818L14.8144 11.0741ZM15.0714 11.1002L15.0775 11.1096L15.0777 11.1095L15.0714 11.1002ZM15.1411 11.0001L15.1308 10.9958L15.1306 10.9963L15.1411 11.0001ZM15.1556 10.9768L15.1626 10.9855C15.1629 10.9853 15.1632 10.985 15.1635 10.9847L15.1556 10.9768ZM15.2718 10.9797L15.2639 10.9876C15.2641 10.9878 15.2643 10.988 15.2645 10.9882L15.2718 10.9797ZM15.2805 11.003L15.2694 11.0018L15.2693 11.0024L15.2805 11.003ZM15.2413 11.1133L15.2319 11.1073L15.2318 11.1073L15.2413 11.1133ZM15.1338 11.2062L15.1287 11.1963L15.1286 11.1963L15.1338 11.2062ZM14.9568 11.2328C14.8553 11.2328 14.7771 11.2044 14.7207 11.1489L14.705 11.1648C14.7666 11.2254 14.851 11.2551 14.9568 11.2551V11.2328ZM14.7208 11.149C14.6652 11.0925 14.6349 11.0131 14.6311 10.9096L14.6088 10.9105C14.6127 11.0179 14.6444 11.1031 14.7049 11.1647L14.7208 11.149ZM14.6311 10.9098L14.6296 10.8517L14.6073 10.8522L14.6088 10.9103L14.6311 10.9098ZM14.6296 10.8522L14.6311 10.7942L14.6088 10.7936L14.6073 10.8517L14.6296 10.8522ZM14.6311 10.7943C14.6349 10.6908 14.6652 10.612 14.7207 10.5564L14.7049 10.5407C14.6444 10.6012 14.6127 10.686 14.6088 10.7935L14.6311 10.7943ZM14.7207 10.5564C14.7772 10.5 14.8554 10.4711 14.9568 10.4711V10.4488C14.851 10.4488 14.7665 10.479 14.7049 10.5407L14.7207 10.5564ZM14.9568 10.4711C15.0251 10.4711 15.0823 10.4835 15.1287 10.5076L15.139 10.4878C15.0886 10.4616 15.0277 10.4488 14.9568 10.4488V10.4711ZM15.1287 10.5076C15.1758 10.5321 15.2099 10.5619 15.2318 10.5966L15.2507 10.5847C15.2262 10.5459 15.1887 10.5137 15.139 10.4878L15.1287 10.5076ZM15.232 10.5968C15.2553 10.6322 15.2675 10.6671 15.2693 10.7016L15.2917 10.7004C15.2896 10.6613 15.2757 10.6226 15.2506 10.5845L15.232 10.5968ZM15.2694 10.7021C15.27 10.7085 15.2683 10.7125 15.2645 10.7157L15.2791 10.7327C15.2889 10.7243 15.2929 10.7128 15.2916 10.6999L15.2694 10.7021ZM15.2645 10.7157C15.26 10.7197 15.2544 10.7218 15.2471 10.7218V10.7441C15.2592 10.7441 15.27 10.7404 15.2791 10.7327L15.2645 10.7157ZM15.2471 10.7218H15.1774V10.7441H15.2471V10.7218ZM15.1774 10.7218C15.1689 10.7218 15.1646 10.72 15.1626 10.7184L15.1487 10.7358C15.1563 10.742 15.1665 10.7441 15.1774 10.7441V10.7218ZM15.1626 10.7184C15.1601 10.7164 15.1561 10.7109 15.1514 10.6996L15.1308 10.7082C15.1358 10.7201 15.1415 10.7301 15.1487 10.7358L15.1626 10.7184ZM15.1517 10.7002C15.1347 10.6522 15.1102 10.6169 15.0775 10.5958L15.0654 10.6145C15.0926 10.6321 15.1147 10.6626 15.1306 10.7076L15.1517 10.7002ZM15.0777 10.5959C15.0454 10.5741 15.0053 10.5635 14.9582 10.5635V10.5858C15.002 10.5858 15.0374 10.5956 15.0652 10.6144L15.0777 10.5959ZM14.9582 10.5635C14.8956 10.5635 14.8446 10.5833 14.8064 10.6236L14.8226 10.639C14.8559 10.6038 14.9007 10.5858 14.9582 10.5858V10.5635ZM14.8064 10.6236C14.7689 10.6632 14.7496 10.7229 14.7467 10.8007L14.769 10.8016C14.7719 10.7265 14.7903 10.673 14.8226 10.639L14.8064 10.6236ZM14.7467 10.8008L14.7453 10.8531L14.7675 10.8537L14.769 10.8015L14.7467 10.8008ZM14.7453 10.8537L14.7467 10.9031L14.769 10.9025L14.7675 10.8531L14.7453 10.8537ZM14.7467 10.9032C14.7496 10.982 14.7689 11.0422 14.8064 11.0818L14.8226 11.0664C14.7903 11.0324 14.7719 10.9785 14.769 10.9024L14.7467 10.9032ZM14.8064 11.0818C14.8437 11.1212 14.8948 11.1404 14.9582 11.1404V11.1181C14.8996 11.1181 14.8549 11.1005 14.8226 11.0664L14.8064 11.0818ZM14.9582 11.1404C15.0052 11.1404 15.0452 11.1304 15.0775 11.1096L15.0654 11.0908C15.0376 11.1088 15.0021 11.1181 14.9582 11.1181V11.1404ZM15.0777 11.1095C15.1103 11.0874 15.1347 11.0517 15.1517 11.0038L15.1306 10.9963C15.1147 11.0413 15.0926 11.0724 15.0652 11.091L15.0777 11.1095ZM15.1514 11.0043C15.1561 10.993 15.1601 10.9875 15.1626 10.9855L15.1487 10.9681C15.1415 10.9738 15.1358 10.9839 15.1308 10.9958L15.1514 11.0043ZM15.1635 10.9847C15.1655 10.9827 15.1695 10.9807 15.1774 10.9807V10.9584C15.166 10.9584 15.1554 10.9613 15.1477 10.9689L15.1635 10.9847ZM15.1774 10.9807H15.2471V10.9584H15.1774V10.9807ZM15.2471 10.9807C15.2538 10.9807 15.2592 10.983 15.2639 10.9876L15.2797 10.9718C15.2708 10.9629 15.2597 10.9584 15.2471 10.9584V10.9807ZM15.2645 10.9882C15.2683 10.9914 15.27 10.9954 15.2694 11.0018L15.2916 11.0041C15.2929 10.9911 15.2889 10.9797 15.2791 10.9713L15.2645 10.9882ZM15.2693 11.0024C15.2675 11.0358 15.2553 11.0707 15.2319 11.1073L15.2507 11.1193C15.2757 11.0803 15.2896 11.0417 15.2917 11.0036L15.2693 11.0024ZM15.2318 11.1073C15.2099 11.1421 15.1758 11.1718 15.1287 11.1963L15.139 11.2161C15.1887 11.1903 15.2262 11.1581 15.2507 11.1193L15.2318 11.1073ZM15.1286 11.1963C15.0832 11.2204 15.0261 11.2328 14.9568 11.2328V11.2551C15.0287 11.2551 15.0896 11.2423 15.1391 11.2161L15.1286 11.1963ZM15.4631 11.2207L15.4546 11.228C15.4549 11.2284 15.4554 11.2288 15.4558 11.2292L15.4631 11.2207ZM15.4631 10.2088L15.471 10.2167L15.4631 10.2088ZM15.5836 10.2088L15.5751 10.2161C15.5755 10.2165 15.5759 10.2169 15.5763 10.2173L15.5836 10.2088ZM15.5937 10.5703H15.5826C15.5826 10.5751 15.5856 10.5793 15.5901 10.5809C15.5946 10.5824 15.5996 10.5809 15.6025 10.5772L15.5937 10.5703ZM15.6924 10.489L15.6973 10.4991L15.6975 10.4989L15.6924 10.489ZM16.0496 10.55L16.0411 10.5572L16.0413 10.5574L16.0496 10.55ZM16.1178 11.2207L16.1099 11.2128L16.1178 11.2207ZM15.9973 11.2207L15.9889 11.228C15.9892 11.2284 15.9897 11.2288 15.9901 11.2292L15.9973 11.2207ZM15.9378 10.6342L15.9294 10.6415L15.9295 10.6417L15.9378 10.6342ZM15.6474 10.6357L15.6394 10.628V10.628L15.6474 10.6357ZM15.5836 11.2207L15.5757 11.2128L15.5836 11.2207ZM15.4878 11.2183C15.4805 11.2183 15.4749 11.2162 15.4704 11.2123L15.4558 11.2292C15.4648 11.2369 15.4757 11.2406 15.4878 11.2406V11.2183ZM15.4716 11.2135C15.4676 11.2089 15.4655 11.2033 15.4655 11.196H15.4432C15.4432 11.2081 15.4469 11.219 15.4546 11.228L15.4716 11.2135ZM15.4655 11.196V10.2321H15.4432V11.196H15.4655ZM15.4655 10.2321C15.4655 10.2248 15.4676 10.2201 15.471 10.2167L15.4552 10.2009C15.4469 10.2092 15.4432 10.22 15.4432 10.2321H15.4655ZM15.471 10.2167C15.4756 10.2121 15.481 10.2098 15.4878 10.2098V10.1875C15.4751 10.1875 15.4641 10.192 15.4552 10.2009L15.471 10.2167ZM15.4878 10.2098H15.5603V10.1875H15.4878V10.2098ZM15.5603 10.2098C15.5671 10.2098 15.5716 10.212 15.5751 10.2161L15.592 10.2016C15.5839 10.1921 15.573 10.1875 15.5603 10.1875V10.2098ZM15.5763 10.2173C15.5804 10.2208 15.5826 10.2253 15.5826 10.2321H15.6049C15.6049 10.2194 15.6003 10.2085 15.5908 10.2003L15.5763 10.2173ZM15.5826 10.2321V10.5703H15.6049V10.2321H15.5826ZM15.6025 10.5772C15.6296 10.5426 15.6612 10.5166 15.6973 10.4991L15.6876 10.479C15.6482 10.4982 15.614 10.5264 15.5849 10.5634L15.6025 10.5772ZM15.6975 10.4989C15.7333 10.4806 15.7784 10.4711 15.8333 10.4711V10.4488C15.7759 10.4488 15.7271 10.4587 15.6873 10.4791L15.6975 10.4989ZM15.8333 10.4711C15.9236 10.4711 15.9923 10.5002 16.0411 10.5572L16.0581 10.5427C16.0043 10.4798 15.9288 10.4488 15.8333 10.4488V10.4711ZM16.0413 10.5574C16.0913 10.6139 16.1168 10.6899 16.1168 10.7866H16.1392C16.1392 10.6859 16.1125 10.6042 16.058 10.5426L16.0413 10.5574ZM16.1168 10.7866V11.196H16.1392V10.7866H16.1168ZM16.1168 11.196C16.1168 11.2028 16.1146 11.2082 16.1099 11.2128L16.1257 11.2286C16.1346 11.2197 16.1392 11.2087 16.1392 11.196H16.1168ZM16.1099 11.2128C16.1066 11.2162 16.1019 11.2183 16.0946 11.2183V11.2406C16.1067 11.2406 16.1175 11.2369 16.1257 11.2286L16.1099 11.2128ZM16.0946 11.2183H16.022V11.2406H16.0946V11.2183ZM16.022 11.2183C16.0147 11.2183 16.0092 11.2162 16.0046 11.2123L15.9901 11.2292C15.999 11.2369 16.0099 11.2406 16.022 11.2406V11.2183ZM16.0058 11.2135C16.0019 11.2089 15.9998 11.2033 15.9998 11.196H15.9775C15.9775 11.2081 15.9812 11.219 15.9889 11.228L16.0058 11.2135ZM15.9998 11.196V10.7939H15.9775V11.196H15.9998ZM15.9998 10.7939C15.9998 10.7234 15.9824 10.6672 15.9461 10.6267L15.9295 10.6417C15.961 10.6767 15.9775 10.7269 15.9775 10.7939H15.9998ZM15.9462 10.6269C15.9107 10.5861 15.8593 10.5664 15.7941 10.5664V10.5887C15.8547 10.5887 15.8991 10.6068 15.9294 10.6415L15.9462 10.6269ZM15.7941 10.5664C15.7305 10.5664 15.6786 10.5867 15.6394 10.628L15.6555 10.6433C15.6899 10.6072 15.7357 10.5887 15.7941 10.5887V10.5664ZM15.6394 10.628C15.601 10.6684 15.5826 10.7242 15.5826 10.7939H15.6049C15.6049 10.7281 15.6222 10.6784 15.6556 10.6433L15.6394 10.628ZM15.5826 10.7939V11.196H15.6049V10.7939H15.5826ZM15.5826 11.196C15.5826 11.2028 15.5803 11.2082 15.5757 11.2128L15.5915 11.2286C15.6003 11.2197 15.6049 11.2087 15.6049 11.196H15.5826ZM15.5757 11.2128C15.5723 11.2162 15.5676 11.2183 15.5603 11.2183V11.2406C15.5724 11.2406 15.5832 11.2369 15.5915 11.2286L15.5757 11.2128ZM15.5603 11.2183H15.4878V11.2406H15.5603V11.2183ZM16.4 11.1525L16.392 11.1602L16.3921 11.1603L16.4 11.1525ZM16.3028 10.8999L16.2916 10.9002V10.9005L16.3028 10.8999ZM16.3013 10.8505L16.2901 10.8502C16.2901 10.8504 16.2901 10.8506 16.2901 10.8508L16.3013 10.8505ZM16.3028 10.8026L16.2916 10.8019V10.8023L16.3028 10.8026ZM16.4015 10.5529L16.3935 10.5451L16.3934 10.5452L16.4015 10.5529ZM16.8878 10.5631L16.8793 10.5703L16.8794 10.5704L16.8878 10.5631ZM16.9662 10.8883L16.9741 10.8962L16.9662 10.8883ZM16.4407 10.897V10.8858C16.4345 10.8858 16.4295 10.8908 16.4295 10.897H16.4407ZM16.4407 10.91H16.4295L16.4295 10.9106L16.4407 10.91ZM16.4973 11.0712L16.4885 11.0781L16.4887 11.0783L16.4973 11.0712ZM16.747 11.1104L16.7529 11.1199L16.753 11.1198L16.747 11.1104ZM16.8109 11.0538L16.8019 11.0471L16.8018 11.0474L16.8109 11.0538ZM16.8297 11.0334L16.8347 11.0434C16.835 11.0433 16.8352 11.0432 16.8355 11.043L16.8297 11.0334ZM16.9473 11.0363L16.9402 11.0449L16.9473 11.0363ZM16.9154 11.1336L16.9071 11.1261L16.907 11.1263L16.9154 11.1336ZM16.8036 11.212L16.8082 11.2222L16.8083 11.2222L16.8036 11.212ZM16.8385 10.7968V10.808C16.8446 10.808 16.8496 10.803 16.8496 10.7968H16.8385ZM16.7833 10.6298L16.7748 10.637L16.7749 10.6372L16.7833 10.6298ZM16.4929 10.6298L16.4844 10.6227L16.4844 10.6227L16.4929 10.6298ZM16.4407 10.7968H16.4295C16.4295 10.803 16.4345 10.808 16.4407 10.808V10.7968ZM16.6396 11.2328C16.5424 11.2328 16.4655 11.2032 16.408 11.1447L16.3921 11.1603C16.4545 11.2238 16.5374 11.2551 16.6396 11.2551V11.2328ZM16.4081 11.1448C16.3513 11.0852 16.3196 11.0038 16.3139 10.8993L16.2916 10.9005C16.2975 11.0089 16.3307 11.0959 16.392 11.1602L16.4081 11.1448ZM16.3139 10.8995L16.3125 10.8502L16.2901 10.8508L16.2916 10.9002L16.3139 10.8995ZM16.3125 10.8509L16.3139 10.8029L16.2916 10.8023L16.2901 10.8502L16.3125 10.8509ZM16.3139 10.8033C16.3205 10.7008 16.3527 10.6202 16.4095 10.5606L16.3934 10.5452C16.3322 10.6094 16.2985 10.6954 16.2916 10.8019L16.3139 10.8033ZM16.4095 10.5607C16.4671 10.5012 16.5429 10.4711 16.6381 10.4711V10.4488C16.5378 10.4488 16.4558 10.4807 16.3935 10.5451L16.4095 10.5607ZM16.6381 10.4711C16.743 10.4711 16.8228 10.5045 16.8793 10.5703L16.8963 10.5558C16.8347 10.4841 16.7481 10.4488 16.6381 10.4488V10.4711ZM16.8794 10.5704C16.9362 10.6356 16.9652 10.7246 16.9652 10.8389H16.9876C16.9876 10.7209 16.9575 10.626 16.8963 10.5557L16.8794 10.5704ZM16.9652 10.8389V10.8636H16.9876V10.8389H16.9652ZM16.9652 10.8636C16.9652 10.8703 16.963 10.8757 16.9583 10.8804L16.9741 10.8962C16.983 10.8873 16.9876 10.8762 16.9876 10.8636H16.9652ZM16.9583 10.8804C16.955 10.8837 16.9503 10.8858 16.943 10.8858V10.9081C16.9551 10.9081 16.9659 10.9044 16.9741 10.8962L16.9583 10.8804ZM16.943 10.8858H16.4407V10.9081H16.943V10.8858ZM16.4295 10.897V10.91H16.4518V10.897H16.4295ZM16.4295 10.9106C16.4325 10.9755 16.4521 11.0315 16.4885 11.0781L16.5061 11.0643C16.4728 11.0218 16.4546 10.9704 16.4518 10.9095L16.4295 10.9106ZM16.4887 11.0783C16.5267 11.1245 16.5768 11.1477 16.6381 11.1477V11.1254C16.5833 11.1254 16.5395 11.105 16.5059 11.0641L16.4887 11.0783ZM16.6381 11.1477C16.684 11.1477 16.7225 11.1387 16.7529 11.1199L16.7411 11.1009C16.7153 11.1169 16.6813 11.1254 16.6381 11.1254V11.1477ZM16.753 11.1198C16.7827 11.101 16.8053 11.0812 16.82 11.0602L16.8018 11.0474C16.7893 11.0651 16.7694 11.083 16.741 11.101L16.753 11.1198ZM16.8198 11.0605C16.824 11.0548 16.8275 11.0506 16.8303 11.0476C16.8317 11.0461 16.8328 11.045 16.8337 11.0443C16.8346 11.0435 16.8349 11.0433 16.8347 11.0434L16.8247 11.0235C16.8209 11.0254 16.8172 11.0289 16.8139 11.0324C16.8104 11.0362 16.8064 11.0411 16.8019 11.0471L16.8198 11.0605ZM16.8355 11.043C16.8376 11.0418 16.8431 11.0402 16.8544 11.0402V11.0179C16.8425 11.0179 16.8316 11.0193 16.824 11.0239L16.8355 11.043ZM16.8544 11.0402H16.9256V11.0179H16.8544V11.0402ZM16.9256 11.0402C16.9321 11.0402 16.9367 11.042 16.9402 11.0449L16.9545 11.0278C16.9464 11.021 16.9365 11.0179 16.9256 11.0179V11.0402ZM16.9402 11.0449C16.943 11.0473 16.9449 11.0507 16.9449 11.0567H16.9672C16.9672 11.0452 16.9633 11.0351 16.9545 11.0278L16.9402 11.0449ZM16.9449 11.0567C16.9449 11.0736 16.9339 11.0966 16.9071 11.1261L16.9237 11.1411C16.9512 11.1107 16.9672 11.0823 16.9672 11.0567H16.9449ZM16.907 11.1263C16.8822 11.1548 16.8464 11.1801 16.7989 11.2019L16.8083 11.2222C16.8576 11.1994 16.8964 11.1725 16.9239 11.1409L16.907 11.1263ZM16.799 11.2018C16.7533 11.2224 16.7002 11.2328 16.6396 11.2328V11.2551C16.7028 11.2551 16.7591 11.2442 16.8082 11.2222L16.799 11.2018ZM16.8496 10.7968V10.7924H16.8273V10.7968H16.8496ZM16.8496 10.7924C16.8496 10.7235 16.8306 10.6665 16.7917 10.6225L16.7749 10.6372C16.8096 10.6764 16.8273 10.7278 16.8273 10.7924H16.8496ZM16.7918 10.6227C16.7537 10.5773 16.702 10.5548 16.6381 10.5548V10.5771C16.6961 10.5771 16.7413 10.5972 16.7748 10.637L16.7918 10.6227ZM16.6381 10.5548C16.5742 10.5548 16.5225 10.5773 16.4844 10.6227L16.5015 10.637C16.5349 10.5972 16.5801 10.5771 16.6381 10.5771V10.5548ZM16.4844 10.6227C16.4475 10.6667 16.4295 10.7237 16.4295 10.7924H16.4518C16.4518 10.7277 16.4687 10.6762 16.5015 10.637L16.4844 10.6227ZM16.4295 10.7924V10.7968H16.4518V10.7924H16.4295ZM16.4407 10.808H16.8385V10.7856H16.4407V10.808Z" fill="#51504F"/>
<path d="M11.6636 14.6396C11.6439 14.6396 11.6268 14.6321 11.612 14.6174C11.5973 14.6026 11.5898 14.5855 11.5898 14.5658C11.5898 14.5461 11.5911 14.5326 11.5935 14.5252L12.5083 12.1388C12.5279 12.0847 12.5673 12.0577 12.6263 12.0577H12.8771C12.9361 12.0577 12.9754 12.0847 12.9951 12.1388L13.9062 14.5252L13.9135 14.5658C13.9135 14.5855 13.9062 14.6026 13.8914 14.6174C13.8766 14.6321 13.8594 14.6396 13.8398 14.6396H13.6517C13.6246 14.6396 13.6037 14.6334 13.5889 14.6211C13.5742 14.6063 13.5643 14.5916 13.5594 14.5768L13.3566 14.0531H12.1468L11.9439 14.5768C11.939 14.5916 11.928 14.6063 11.9108 14.6211C11.896 14.6334 11.8763 14.6396 11.8518 14.6396H11.6636ZM13.2496 13.7359L12.7517 12.4265L12.2538 13.7359H13.2496ZM14.3153 12.3638C14.2907 12.3638 14.2698 12.3564 14.2526 12.3417C14.2378 12.3245 14.2304 12.3036 14.2304 12.279V12.0798C14.2304 12.0552 14.2378 12.0343 14.2526 12.0171C14.2698 11.9999 14.2907 11.9913 14.3153 11.9913H14.5476C14.5722 11.9913 14.5931 11.9999 14.6103 12.0171C14.6275 12.0343 14.6362 12.0552 14.6362 12.0798V12.279C14.6362 12.3036 14.6275 12.3245 14.6103 12.3417C14.5931 12.3564 14.5722 12.3638 14.5476 12.3638H14.3153ZM14.3448 14.6396C14.3202 14.6396 14.2993 14.6321 14.2821 14.6174C14.2673 14.6002 14.2599 14.5793 14.2599 14.5547V12.8064C14.2599 12.7818 14.2673 12.7622 14.2821 12.7474C14.2993 12.7302 14.3202 12.7216 14.3448 12.7216H14.5218C14.5464 12.7216 14.5661 12.7302 14.5808 12.7474C14.598 12.7622 14.6067 12.7818 14.6067 12.8064V14.5547C14.6067 14.5793 14.598 14.6002 14.5808 14.6174C14.5661 14.6321 14.5464 14.6396 14.5218 14.6396H14.3448ZM15.2381 14.6396C15.2135 14.6396 15.1926 14.6321 15.1753 14.6174C15.1606 14.6002 15.1532 14.5793 15.1532 14.5547V12.8101C15.1532 12.7855 15.1606 12.7646 15.1753 12.7474C15.1926 12.7302 15.2135 12.7216 15.2381 12.7216H15.4077C15.4323 12.7216 15.4532 12.7302 15.4704 12.7474C15.4876 12.7646 15.4963 12.7855 15.4963 12.8101V12.9724C15.5971 12.8052 15.7692 12.7216 16.0126 12.7216H16.1564C16.181 12.7216 16.2007 12.7302 16.2155 12.7474C16.2327 12.7622 16.2413 12.7818 16.2413 12.8064V12.9576C16.2413 12.9822 16.2327 13.0019 16.2155 13.0167C16.2007 13.0314 16.181 13.0388 16.1564 13.0388H15.9352C15.8024 13.0388 15.6978 13.0781 15.6216 13.1568C15.5454 13.2331 15.5073 13.3376 15.5073 13.4703V14.5547C15.5073 14.5793 15.4987 14.6002 15.4815 14.6174C15.4642 14.6321 15.4434 14.6396 15.4188 14.6396H15.2381ZM16.831 14.6396C16.8064 14.6396 16.7855 14.6321 16.7683 14.6174C16.7535 14.6002 16.7461 14.5793 16.7461 14.5547V13.0167H16.4326C16.408 13.0167 16.3871 13.0093 16.37 12.9945C16.3552 12.9773 16.3478 12.9564 16.3478 12.9318V12.8064C16.3478 12.7818 16.3552 12.7622 16.37 12.7474C16.3871 12.7302 16.408 12.7216 16.4326 12.7216H16.7461V12.5372C16.7461 12.1192 16.9576 11.9102 17.3805 11.9102H17.5871C17.6117 11.9102 17.6314 11.9188 17.6461 11.936C17.6633 11.9507 17.6719 11.9704 17.6719 11.995V12.1204C17.6719 12.145 17.6633 12.1659 17.6461 12.1831C17.6314 12.1978 17.6117 12.2052 17.5871 12.2052H17.3879C17.2773 12.2052 17.1998 12.2347 17.1555 12.2937C17.1113 12.3503 17.0892 12.4376 17.0892 12.5556V12.7216H17.8785V11.995C17.8785 11.9704 17.8859 11.9507 17.9006 11.936C17.9178 11.9188 17.9387 11.9102 17.9633 11.9102H18.1329C18.1575 11.9102 18.1772 11.9188 18.192 11.936C18.2092 11.9507 18.2178 11.9704 18.2178 11.995V14.5547C18.2178 14.5793 18.2092 14.6002 18.192 14.6174C18.1772 14.6321 18.1575 14.6396 18.1329 14.6396H17.9633C17.9387 14.6396 17.9178 14.6321 17.9006 14.6174C17.8859 14.6002 17.8785 14.5793 17.8785 14.5547V13.0167H17.0892V14.5547C17.0892 14.5793 17.0805 14.6002 17.0634 14.6174C17.0486 14.6321 17.0289 14.6396 17.0043 14.6396H16.831ZM19.5515 14.6764C19.2811 14.6764 19.0708 14.6002 18.9209 14.4477C18.7733 14.2953 18.6946 14.0924 18.6848 13.8392L18.6811 13.6806L18.6848 13.522C18.6946 13.2711 18.7745 13.0695 18.9245 12.9171C19.0745 12.7622 19.2835 12.6847 19.5515 12.6847C19.8196 12.6847 20.0286 12.7622 20.1786 12.9171C20.3285 13.0695 20.4085 13.2711 20.4183 13.522C20.4208 13.549 20.422 13.6019 20.422 13.6806C20.422 13.7592 20.4208 13.8121 20.4183 13.8392C20.4085 14.0924 20.3285 14.2953 20.1786 14.4477C20.031 14.6002 19.822 14.6764 19.5515 14.6764ZM19.5515 14.3924C19.7064 14.3924 19.8282 14.3432 19.9167 14.2449C20.0077 14.1465 20.0569 14.0051 20.0642 13.8207C20.0667 13.7961 20.0679 13.7494 20.0679 13.6806C20.0679 13.6117 20.0667 13.565 20.0642 13.5404C20.0569 13.356 20.0077 13.2146 19.9167 13.1162C19.8282 13.0179 19.7064 12.9687 19.5515 12.9687C19.3966 12.9687 19.2737 13.0179 19.1827 13.1162C19.0917 13.2146 19.0438 13.356 19.0389 13.5404L19.0352 13.6806L19.0389 13.8207C19.0438 14.0051 19.0917 14.1465 19.1827 14.2449C19.2737 14.3432 19.3966 14.3924 19.5515 14.3924ZM21.3424 14.6396C21.3105 14.6396 21.2859 14.6321 21.2686 14.6174C21.2514 14.6026 21.2367 14.5793 21.2244 14.5473L20.7006 12.8359L20.6933 12.7991C20.6933 12.7769 20.7006 12.7585 20.7154 12.7437C20.7326 12.729 20.751 12.7216 20.7707 12.7216H20.933C20.9576 12.7216 20.9773 12.729 20.992 12.7437C21.0092 12.756 21.0203 12.7695 21.0252 12.7843L21.4346 14.1748L21.8735 12.7991C21.8785 12.7794 21.8895 12.7622 21.9067 12.7474C21.924 12.7302 21.9473 12.7216 21.9768 12.7216H22.1022C22.1317 12.7216 22.1551 12.7302 22.1723 12.7474C22.1895 12.7622 22.2006 12.7794 22.2055 12.7991L22.6444 14.1748L23.0538 12.7843C23.0563 12.772 23.0649 12.7585 23.0796 12.7437C23.0968 12.729 23.1177 12.7216 23.1423 12.7216H23.3083C23.328 12.7216 23.3452 12.729 23.36 12.7437C23.3747 12.7585 23.3821 12.7769 23.3821 12.7991L23.3747 12.8359L22.8546 14.5473C22.8424 14.5793 22.8276 14.6026 22.8104 14.6174C22.7932 14.6321 22.7674 14.6396 22.7329 14.6396H22.5891C22.5227 14.6396 22.4821 14.6088 22.4674 14.5473L22.0395 13.2269L21.6117 14.5473C21.592 14.6088 21.5502 14.6396 21.4863 14.6396H21.3424Z" fill="#51504F"/>
</g>
<defs>
<clipPath id="apache_airflow">
<rect width="20.2222" height="7.81212" fill="white" transform="translate(3.21484 8.66797)"/>
</clipPath>
</defs>
</svg>
