<svg width="100%" height="100%" viewBox="0 0 26 26" fill="none" xmlns="http://www.w3.org/2000/svg">
<circle cx="13" cy="13" r="12.5" fill="white" stroke="#E2EAEC"/>
<mask id="apache_spark0" style="mask-type:alpha" maskUnits="userSpaceOnUse" x="0" y="0" width="26" height="26">
<circle cx="13" cy="13" r="12.5" fill="white" stroke="#D0D0CE"/>
</mask>
<g mask="url(#apache_spark0)">
</g>
<g clip-path="url(#apache_spark1)">
<path fill-rule="evenodd" clip-rule="evenodd" d="M20.7433 12.1377C20.7271 12.103 20.7198 12.0856 20.711 12.0689C20.4764 11.6225 20.2423 11.1761 20.0052 10.7297C19.9815 10.6849 19.9845 10.6585 20.017 10.6199C20.3904 10.1838 20.759 9.74521 21.133 9.31087C21.1462 9.29555 21.158 9.27932 21.1629 9.252C21.0543 9.28029 20.9457 9.30828 20.8366 9.33705C20.3859 9.4565 19.9317 9.57534 19.4853 9.69659C19.4434 9.70787 19.4244 9.69562 19.4032 9.66076C19.1475 9.23305 18.8899 8.80415 18.6311 8.38187C18.6179 8.35973 18.6035 8.33826 18.5752 8.31974C18.5545 8.43375 18.5335 8.54716 18.5131 8.66118C18.4413 9.06354 18.3695 9.46349 18.2983 9.86767C18.2906 9.91104 18.2799 9.95454 18.2762 9.99797C18.2726 10.0395 18.2512 10.0548 18.2135 10.0667C17.682 10.2338 17.1517 10.4021 16.6209 10.5705C16.5976 10.5778 16.5747 10.5874 16.5497 10.61C16.984 10.7826 17.4184 10.9551 17.8588 11.1306C17.8427 11.1434 17.8321 11.1533 17.8203 11.1608C17.5489 11.3363 17.2768 11.5119 17.0059 11.688C16.9734 11.7093 16.9477 11.7123 16.9112 11.6958C16.5867 11.5498 16.2597 11.4063 15.934 11.2615C15.788 11.1963 15.6571 11.1101 15.5551 10.9846C15.3241 10.7023 15.3699 10.3813 15.6776 10.1823C15.7783 10.1177 15.8929 10.0701 16.007 10.0327C16.5276 9.86315 17.0506 9.69967 17.5694 9.53558C17.6132 9.52165 17.6333 9.5021 17.6418 9.45475C17.7117 9.05178 17.7835 8.6464 17.8565 8.24825C17.8954 8.03289 17.9159 7.81271 18.0206 7.61484C18.0607 7.53883 18.1087 7.46463 18.1666 7.40129C18.3741 7.17085 18.6631 7.16241 18.8845 7.38151C18.9587 7.45571 19.022 7.54257 19.0769 7.63246C19.3182 8.02638 19.5559 8.42271 19.7948 8.82086C19.8228 8.86773 19.848 8.87714 19.8997 8.8635C20.4819 8.70726 21.064 8.55344 21.6491 8.39961C21.7698 8.36782 21.891 8.35629 22.0147 8.3794C22.2831 8.42959 22.4008 8.63397 22.3097 8.89397C22.2685 9.01221 22.1969 9.11174 22.1167 9.20645C21.7101 9.68483 21.3023 10.1656 20.8981 10.6422C20.8649 10.6813 20.8642 10.7091 20.8872 10.7532C21.1309 11.2122 21.3722 11.6701 21.6172 12.1346C21.6751 12.2444 21.7197 12.359 21.7209 12.4851C21.7238 12.7722 21.5134 13.0075 21.2281 13.0497C21.0682 13.0731 20.9198 13.0389 20.7696 12.9927C20.4046 12.8799 20.0397 12.7689 19.6717 12.6585C19.6377 12.6484 19.6248 12.6349 19.6187 12.5985C19.5767 12.3409 19.5306 12.0839 19.486 11.8263C19.4848 11.8192 19.4869 11.8117 19.4881 11.7959C19.905 11.9111 20.3206 12.0245 20.7489 12.1434" fill="#E25A1C"/>
<path fill-rule="evenodd" clip-rule="evenodd" d="M20.0195 15.9089C19.6901 15.9084 19.3619 15.9068 19.0301 15.9082C18.9865 15.9082 18.962 15.8957 18.9378 15.8587C18.5481 15.2651 18.1536 14.6703 17.7675 14.0791C17.755 14.0603 17.7418 14.0421 17.7197 14.0104C17.6358 14.6498 17.5532 15.2772 17.4706 15.9046H16.6079C16.618 15.8207 16.627 15.7393 16.6377 15.6584C16.7215 15.013 16.8066 14.3735 16.891 13.728C16.9718 13.1127 17.0521 12.4974 17.1341 11.8821C17.1365 11.8639 17.1487 11.8406 17.1636 11.8309C17.4604 11.6373 17.7584 11.4455 18.0564 11.2536C18.0606 11.2508 18.0667 11.2506 18.0821 11.2461C17.9922 11.9338 17.9029 12.6155 17.813 13.2971C17.8166 13.2995 17.8201 13.3021 17.8236 13.3044C18.2912 12.7868 18.7587 12.2668 19.2352 11.742C19.2489 11.8217 19.2609 11.8898 19.2727 11.958C19.3062 12.1528 19.3384 12.3489 19.374 12.5437C19.3813 12.5831 19.3707 12.6071 19.3446 12.6348C19.0424 12.9509 18.7414 13.2682 18.4397 13.588C18.4265 13.6019 18.414 13.6163 18.399 13.6328C18.4086 13.648 18.4169 13.6629 18.4265 13.6766C18.9459 14.4065 19.4641 15.1364 19.9829 15.8664C19.9923 15.8796 20.0059 15.89 20.0175 15.9017V15.9132" fill="#3C3A3E"/>
<path fill-rule="evenodd" clip-rule="evenodd" d="M9.82457 13.9759C9.81136 13.909 9.80195 13.81 9.77203 13.7177C9.62725 13.2719 9.17059 13.03 8.69825 13.138C8.17885 13.2587 7.80544 13.6671 7.75718 14.1997C7.71737 14.5918 7.9285 14.9719 8.32061 15.1106C8.63672 15.2246 8.94196 15.177 9.22549 15.0075C9.6001 14.7831 9.80279 14.4495 9.82873 13.9759H9.82457ZM7.54429 15.6348C7.51884 15.8267 7.49435 16.0071 7.4707 16.188C7.43915 16.4281 7.40736 16.6688 7.3772 16.9119C7.3737 16.94 7.36519 16.9525 7.33503 16.9522C7.09795 16.9513 6.86088 16.9516 6.6232 16.9511C6.61777 16.9511 6.61234 16.9482 6.59961 16.9445C6.61397 16.8311 6.6279 16.7171 6.64274 16.6037C6.69504 16.2055 6.7471 15.8074 6.80019 15.4092C6.86112 14.9532 6.90877 14.4983 6.98659 14.0459C7.12413 13.2436 7.80701 12.5559 8.6033 12.3809C9.06599 12.2808 9.50817 12.3272 9.91234 12.5878C10.3153 12.8472 10.5458 13.2273 10.6 13.6978C10.6748 14.3674 10.4281 14.9224 9.95457 15.3869C9.64209 15.6891 9.26687 15.881 8.83856 15.9461C8.39397 16.0131 7.97592 15.9391 7.60191 15.6771C7.58821 15.6674 7.57337 15.659 7.54984 15.6441" fill="#3C3A3E"/>
<path fill-rule="evenodd" clip-rule="evenodd" d="M7.14602 11.8367C6.88059 12.0345 6.62421 12.2252 6.36783 12.4164C6.32639 12.3512 6.28941 12.2861 6.24597 12.2252C6.13437 12.0689 5.99563 11.9525 5.79414 11.9386C5.62644 11.9268 5.48287 11.9819 5.36885 12.1057C5.2669 12.2161 5.25363 12.3736 5.34882 12.4984C5.45379 12.636 5.56841 12.7663 5.68604 12.8936C5.88089 13.1047 6.08418 13.3074 6.27722 13.5209C6.45277 13.714 6.59332 13.9299 6.63676 14.1966C6.6884 14.5103 6.62572 14.8059 6.4775 15.0833C6.20302 15.5931 5.7717 15.8917 5.19862 15.9822C4.94646 16.0229 4.69551 16.0149 4.45059 15.9426C4.12423 15.8466 3.89681 15.6325 3.75082 15.3333C3.69924 15.2265 3.65973 15.1137 3.61328 14.9991C3.89862 14.8465 4.17671 14.6974 4.45783 14.5472C4.46748 14.5706 4.47454 14.5901 4.48353 14.6088C4.5316 14.7047 4.571 14.8066 4.63012 14.8953C4.80687 15.1577 5.0916 15.2374 5.37814 15.1077C5.45234 15.0742 5.52413 15.0274 5.58506 14.9731C5.77086 14.8078 5.80584 14.5774 5.6683 14.3699C5.58928 14.2504 5.49035 14.1431 5.39383 14.0363C5.16339 13.7805 4.92329 13.5326 4.70009 13.2702C4.54506 13.0904 4.43949 12.8817 4.40571 12.6428C4.36921 12.3798 4.42175 12.1324 4.55833 11.9129C4.89796 11.3633 5.39081 11.0804 6.04232 11.0985C6.41452 11.1119 6.71192 11.2861 6.94116 11.5756C7.00932 11.6613 7.07327 11.75 7.14264 11.8429" fill="#3C3A3E"/>
<path fill-rule="evenodd" clip-rule="evenodd" d="M13.4438 14.7636C13.4004 15.0947 13.3594 15.409 13.3171 15.7227C13.3148 15.7388 13.3023 15.7604 13.2888 15.7666C12.6434 16.0646 11.7988 16.023 11.274 15.4233C10.9905 15.1012 10.8716 14.7175 10.8891 14.2953C10.9303 13.312 11.7457 12.4493 12.723 12.3287C13.2931 12.2587 13.7907 12.4125 14.1768 12.8559C14.4398 13.1575 14.5617 13.5195 14.5436 13.9176C14.5318 14.1806 14.4906 14.4418 14.4579 14.7018C14.4115 15.0722 14.3608 15.4438 14.312 15.8118C14.3101 15.8247 14.3075 15.8379 14.3044 15.8547H13.5383C13.5484 15.7697 13.5578 15.6864 13.5687 15.6032C13.6243 15.1755 13.6857 14.7465 13.7346 14.3182C13.765 14.0516 13.7459 13.7868 13.6236 13.54C13.4939 13.2776 13.2767 13.1383 12.9902 13.1081C12.3978 13.0454 11.8319 13.4568 11.7113 14.0371C11.628 14.422 11.7594 14.7912 12.066 14.9963C12.3646 15.1948 12.6813 15.1954 13.0071 15.0669C13.1724 15.0017 13.3123 14.898 13.4462 14.7586" fill="#3C3A3E"/>
<path fill-rule="evenodd" clip-rule="evenodd" d="M16.7013 12.4267C16.6662 12.6933 16.6314 12.9558 16.5964 13.223C16.4335 13.223 16.2742 13.2221 16.115 13.2232C15.9859 13.2242 15.8682 13.3077 15.829 13.4283C15.814 13.4754 15.8083 13.5261 15.8017 13.5755C15.7209 14.1908 15.6406 14.8001 15.5604 15.4094C15.5401 15.5638 15.5206 15.7183 15.5003 15.8751H14.698C14.7128 15.7575 14.727 15.6435 14.7418 15.5294C14.7939 15.1325 14.8462 14.7332 14.8986 14.341C14.9441 13.9978 14.9849 13.6533 15.0386 13.3095C15.1104 12.851 15.5664 12.4408 16.0279 12.4227C16.2487 12.4131 16.4701 12.4211 16.6975 12.4211" fill="#3C3A3E"/>
<path d="M20.9845 15.9087V15.5709H20.9826L20.8499 15.9087H20.8077L20.675 15.5709H20.6729V15.9087H20.6065V15.5039H20.7097L20.8303 15.8116L20.9492 15.5039H21.0517V15.9087H20.9845ZM20.3969 15.5582V15.9087H20.3305V15.5582H20.2039V15.504H20.5242V15.5582H20.3975" fill="#3C3A3E"/>
<path d="M8.21382 11.2684H8.41229L8.36535 10.9679L8.21382 11.2684ZM8.44365 11.4626H8.11368L8.00872 11.6683H7.77466L8.29043 10.7031H8.51604L8.69159 11.6683H8.47502L8.4439 11.4626" fill="#3C3A3E"/>
<path d="M9.62549 10.8992H9.50786L9.46828 11.1218H9.58592C9.6571 11.1218 9.71321 11.0751 9.71321 10.9873C9.71321 10.929 9.67785 10.8992 9.62513 10.8992H9.62549ZM9.34076 10.7049H9.64962C9.81129 10.7049 9.9241 10.8015 9.9241 10.9667C9.9241 11.1755 9.77691 11.3154 9.56698 11.3154H9.43366L9.37092 11.6683H9.16943L9.33955 10.7031" fill="#3C3A3E"/>
<path d="M10.6087 11.2684H10.8072L10.7603 10.9679L10.6087 11.2684ZM10.8379 11.4626H10.508L10.403 11.6683H10.1689L10.6847 10.7031H10.9103L11.0859 11.6683H10.8693L10.8382 11.4626" fill="#3C3A3E"/>
<path d="M12.1168 11.6365C12.0487 11.6676 11.9738 11.6862 11.8984 11.6862C11.6433 11.6862 11.4834 11.4949 11.4834 11.2554C11.4834 10.949 11.741 10.6914 12.0474 10.6914C12.1241 10.6914 12.1934 10.7098 12.2501 10.7409L12.2218 10.9719C12.1794 10.925 12.1108 10.8923 12.0264 10.8923C11.8508 10.8923 11.6946 11.0509 11.6946 11.2349C11.6946 11.3749 11.7827 11.4847 11.9214 11.4847C12.0065 11.4847 12.0885 11.4519 12.144 11.4069L12.1172 11.6361" fill="#3C3A3E"/>
<path d="M13.3836 11.2804H12.9644L12.8962 11.6683H12.6953L12.8654 10.7031H13.0669L12.9993 11.0844H13.4186L13.4868 10.7031H13.6883L13.5181 11.6683H13.3167L13.3842 11.2804" fill="#3C3A3E"/>
<path d="M14.1077 11.6683L14.2778 10.7031H14.8122L14.7783 10.8974H14.4453L14.4113 11.0844H14.7172L14.6832 11.2786H14.3774L14.3434 11.4729H14.6764L14.6424 11.6671H14.108" fill="#3C3A3E"/>
</g>
<defs>
<clipPath id="apache_spark1">
<rect width="18.7778" height="9.75174" fill="white" transform="translate(3.61108 7.22266)"/>
</clipPath>
</defs>
</svg>
