<svg width="100%" height="100%" viewBox="0 0 18 18" fill="none" xmlns="http://www.w3.org/2000/svg">
<circle cx="9" cy="9" r="8.5" fill="white" stroke="#E2EAEC"/>
<mask id="apachespark0" style="mask-type:alpha" maskUnits="userSpaceOnUse" x="0" y="0" width="18" height="18">
<circle cx="9" cy="9" r="8.5" fill="white" stroke="#D0D0CE"/>
</mask>
<g mask="url(#apachespark0)">
</g>
<g clip-path="url(#apachespark1)">
<path fill-rule="evenodd" clip-rule="evenodd" d="M14.3608 8.40369C14.3495 8.37968 14.3445 8.36761 14.3384 8.35608C14.176 8.04703 14.0139 7.73799 13.8498 7.42894C13.8333 7.39795 13.8354 7.37966 13.8579 7.35293C14.1165 7.05098 14.3716 6.74736 14.6306 6.44667C14.6397 6.43606 14.6479 6.42482 14.6513 6.4059C14.5761 6.42549 14.5009 6.44487 14.4253 6.46479C14.1134 6.54748 13.7989 6.62976 13.4898 6.7137C13.4608 6.72151 13.4477 6.71303 13.433 6.68889C13.256 6.39279 13.0776 6.09585 12.8985 5.80351C12.8893 5.78818 12.8793 5.77332 12.8598 5.76049C12.8454 5.83943 12.8309 5.91794 12.8168 5.99687C12.7671 6.27544 12.7174 6.55233 12.6681 6.83214C12.6627 6.86217 12.6554 6.89228 12.6528 6.92235C12.6503 6.95108 12.6355 6.96169 12.6093 6.96996C12.2414 7.08564 11.8743 7.20216 11.5068 7.31868C11.4907 7.32374 11.4748 7.33042 11.4575 7.34608C11.7582 7.46552 12.0589 7.58497 12.3638 7.7065C12.3527 7.71531 12.3453 7.72216 12.3372 7.72738C12.1492 7.84891 11.9609 7.97044 11.7734 8.09239C11.7509 8.10709 11.7331 8.10918 11.7078 8.09778C11.4831 7.99671 11.2568 7.89731 11.0312 7.79708C10.9302 7.75198 10.8395 7.69226 10.769 7.60539C10.609 7.40994 10.6408 7.18775 10.8537 7.04994C10.9235 7.00525 11.0028 6.97226 11.0818 6.94636C11.4422 6.82901 11.8043 6.71583 12.1634 6.60223C12.1938 6.59259 12.2077 6.57905 12.2136 6.54627C12.262 6.26729 12.3117 5.98664 12.3622 5.711C12.3891 5.56191 12.4033 5.40947 12.4758 5.27249C12.5036 5.21987 12.5368 5.1685 12.5769 5.12465C12.7206 4.96511 12.9206 4.95927 13.0739 5.11095C13.1252 5.16232 13.1691 5.22246 13.2071 5.28469C13.3742 5.5574 13.5387 5.83178 13.7041 6.10742C13.7235 6.13987 13.741 6.14639 13.7768 6.13695C14.1798 6.02878 14.5828 5.92229 14.9879 5.81579C15.0714 5.79378 15.1554 5.7858 15.241 5.8018C15.4268 5.83655 15.5083 5.97804 15.4452 6.15804C15.4167 6.2399 15.3671 6.3088 15.3116 6.37437C15.0301 6.70556 14.7478 7.03841 14.4679 7.36834C14.4449 7.3954 14.4445 7.4147 14.4604 7.44518C14.6291 7.763 14.7962 8.07999 14.9658 8.40156C15.0059 8.47757 15.0368 8.55692 15.0376 8.64421C15.0396 8.843 14.8939 9.00588 14.6964 9.03511C14.5857 9.05127 14.483 9.02764 14.379 8.99565C14.1263 8.91755 13.8736 8.8407 13.6189 8.76428C13.5954 8.75726 13.5864 8.74795 13.5822 8.72268C13.5531 8.54435 13.5212 8.36644 13.4903 8.18811C13.4895 8.18322 13.491 8.178 13.4918 8.16706C13.7804 8.24683 14.0681 8.32535 14.3647 8.40762" fill="#E25A1C"/>
<path fill-rule="evenodd" clip-rule="evenodd" d="M13.8596 11.0132C13.6316 11.0129 13.4044 11.0118 13.1747 11.0128C13.1445 11.0128 13.1275 11.0041 13.1108 10.9785C12.841 10.5676 12.5679 10.1558 12.3006 9.74649C12.292 9.73346 12.2828 9.72088 12.2675 9.69888C12.2094 10.1416 12.1522 10.5759 12.095 11.0102H11.4978C11.5048 10.9522 11.511 10.8958 11.5184 10.8398C11.5764 10.393 11.6353 9.95029 11.6938 9.50342C11.7498 9.07744 11.8053 8.65145 11.8621 8.22547C11.8637 8.2129 11.8722 8.19673 11.8825 8.19005C12.088 8.05599 12.2943 7.92318 12.5006 7.79038C12.5035 7.78841 12.5078 7.78825 12.5184 7.78516C12.4561 8.26126 12.3943 8.73318 12.3321 9.20511C12.3346 9.20674 12.337 9.20853 12.3395 9.21016C12.6631 8.85183 12.9868 8.49183 13.3167 8.12849C13.3262 8.18362 13.3345 8.23081 13.3427 8.278C13.3658 8.4129 13.3882 8.54863 13.4128 8.68353C13.4179 8.71076 13.4105 8.72738 13.3924 8.74659C13.1832 8.96543 12.9748 9.1851 12.766 9.40645C12.7568 9.4161 12.7482 9.42604 12.7378 9.43748C12.7444 9.44804 12.7502 9.45836 12.7568 9.4678C13.1164 9.97313 13.4752 10.4785 13.8343 10.9838C13.8408 10.993 13.8503 11.0001 13.8583 11.0083V11.0163" fill="#3C3A3E"/>
<path fill-rule="evenodd" clip-rule="evenodd" d="M6.80164 9.67714C6.79249 9.63078 6.78597 9.56229 6.76526 9.49839C6.66503 9.18976 6.34888 9.02229 6.02187 9.09705C5.66229 9.18057 5.40378 9.46331 5.37037 9.83208C5.3428 10.1035 5.48897 10.3667 5.76043 10.4627C5.97927 10.5416 6.1906 10.5086 6.38688 10.3913C6.64623 10.2359 6.78656 10.005 6.80452 9.67714H6.80164ZM5.22298 10.8256C5.20536 10.9584 5.1884 11.0833 5.17203 11.2086C5.15019 11.3748 5.12818 11.5415 5.1073 11.7098C5.10488 11.7292 5.09899 11.7378 5.07811 11.7377C4.91398 11.737 4.74985 11.7372 4.5853 11.7369C4.58154 11.7369 4.57778 11.7349 4.56897 11.7323C4.57891 11.6538 4.58856 11.5749 4.59883 11.4963C4.63504 11.2207 4.67108 10.9451 4.70783 10.6694C4.75001 10.3537 4.78301 10.0388 4.83688 9.72558C4.9321 9.17013 5.40486 8.69403 5.95614 8.57292C6.27646 8.50359 6.58259 8.53571 6.8624 8.71617C7.14138 8.89575 7.30092 9.15886 7.3385 9.48461C7.39029 9.94818 7.21948 10.3324 6.89164 10.654C6.6753 10.8632 6.41553 10.996 6.11901 11.0411C5.81122 11.0875 5.5218 11.0362 5.26287 10.8549C5.25339 10.8482 5.24311 10.8423 5.22683 10.8321" fill="#3C3A3E"/>
<path fill-rule="evenodd" clip-rule="evenodd" d="M4.94733 8.19522C4.76357 8.3322 4.58608 8.46417 4.40858 8.59656C4.37989 8.55146 4.35429 8.50635 4.32422 8.46417C4.24696 8.35601 4.1509 8.2754 4.01141 8.2658C3.89531 8.25761 3.79591 8.29578 3.71698 8.38148C3.6464 8.45791 3.63721 8.56691 3.70312 8.65336C3.77578 8.74858 3.85514 8.83879 3.93657 8.92691C4.07147 9.07308 4.21221 9.21341 4.34585 9.36125C4.46738 9.49489 4.56469 9.6444 4.59476 9.829C4.63051 10.0462 4.58712 10.2508 4.48451 10.4429C4.29448 10.7958 3.99588 11.0025 3.59913 11.0652C3.42456 11.0934 3.25082 11.0879 3.08126 11.0378C2.85532 10.9713 2.69787 10.8231 2.59681 10.6159C2.5611 10.542 2.53374 10.4639 2.50159 10.3846C2.69913 10.2789 2.89166 10.1758 3.08627 10.0718C3.09296 10.0879 3.09784 10.1015 3.10406 10.1144C3.13735 10.1808 3.16462 10.2513 3.20555 10.3127C3.32792 10.4944 3.52504 10.5495 3.72341 10.4597C3.77478 10.4366 3.82448 10.4042 3.86666 10.3666C3.99529 10.2522 4.01952 10.0926 3.9243 9.94898C3.86959 9.86629 3.80109 9.79195 3.73427 9.71803C3.57474 9.54096 3.40852 9.36931 3.25399 9.18764C3.14666 9.06318 3.07358 8.91868 3.05019 8.7533C3.02492 8.57121 3.0613 8.39998 3.15585 8.24796C3.39098 7.8675 3.73218 7.67163 4.18323 7.68416C4.44091 7.69347 4.6468 7.81404 4.8055 8.01451C4.85269 8.07381 4.89696 8.1352 4.94499 8.19952" fill="#3C3A3E"/>
<path fill-rule="evenodd" clip-rule="evenodd" d="M9.30739 10.2203C9.27736 10.4496 9.24892 10.6672 9.21969 10.8844C9.21806 10.8955 9.20941 10.9105 9.2001 10.9147C8.75323 11.121 8.16855 11.0922 7.80521 10.6771C7.60892 10.4541 7.52665 10.1885 7.53876 9.89611C7.56728 9.21537 8.1318 8.61816 8.80836 8.53463C9.20302 8.48618 9.54757 8.59268 9.81486 8.89964C9.99695 9.10846 10.0813 9.35904 10.0688 9.63467C10.0606 9.81676 10.0321 9.9976 10.0095 10.1776C9.97732 10.434 9.94224 10.6913 9.90841 10.946C9.90711 10.955 9.90532 10.9641 9.90319 10.9757H9.37279C9.37981 10.9168 9.38632 10.8592 9.39384 10.8016C9.43235 10.5055 9.47486 10.2085 9.50869 9.91202C9.52974 9.72743 9.5165 9.54409 9.43185 9.37328C9.34205 9.19161 9.19171 9.09513 8.99333 9.07425C8.58322 9.03082 8.19148 9.31564 8.10795 9.71741C8.05032 9.98386 8.14124 10.2394 8.35352 10.3814C8.56025 10.5188 8.7795 10.5193 9.00503 10.4303C9.11946 10.3852 9.21635 10.3134 9.30906 10.2169" fill="#3C3A3E"/>
<path fill-rule="evenodd" clip-rule="evenodd" d="M11.5626 8.60371C11.5383 8.7883 11.5141 8.96997 11.4899 9.15498C11.3772 9.15498 11.2669 9.15435 11.1566 9.15515C11.0673 9.15581 10.9858 9.21362 10.9587 9.29714C10.9482 9.32976 10.9444 9.3648 10.9398 9.39904C10.8838 9.82503 10.8283 10.2468 10.7727 10.6686C10.7587 10.7756 10.7451 10.8825 10.7311 10.9911H10.1757C10.1859 10.9096 10.1957 10.8307 10.206 10.7518C10.242 10.477 10.2782 10.2005 10.3146 9.92902C10.3461 9.69139 10.3743 9.45292 10.4115 9.21487C10.4612 8.89747 10.7769 8.61348 11.0964 8.60095C11.2492 8.59427 11.4025 8.59982 11.56 8.59982" fill="#3C3A3E"/>
<path d="M14.5278 11.0136V10.7798H14.5265L14.4347 11.0136H14.4055L14.3136 10.7798H14.3121V11.0136H14.2662V10.7334H14.3376L14.4211 10.9464L14.5034 10.7334H14.5744V11.0136H14.5278ZM14.1211 10.771V11.0136H14.0751V10.771H13.9874V10.7334H14.2092V10.771H14.1215" fill="#3C3A3E"/>
<path d="M5.68648 7.80245H5.82388L5.79139 7.59447L5.68648 7.80245ZM5.8456 7.93693H5.61715L5.54449 8.07934H5.38245L5.73952 7.41113H5.89571L6.01724 8.07934H5.86731L5.84576 7.93693" fill="#3C3A3E"/>
<path d="M6.66388 7.54686H6.58244L6.55504 7.70097H6.63648C6.68576 7.70097 6.7246 7.66869 6.7246 7.60784C6.7246 7.56754 6.70013 7.54686 6.66363 7.54686H6.66388ZM6.46675 7.41239H6.68058C6.79251 7.41239 6.87061 7.47921 6.87061 7.59364C6.87061 7.73814 6.7687 7.83503 6.62337 7.83503H6.53107L6.48764 8.07934H6.34814L6.46592 7.41113" fill="#3C3A3E"/>
<path d="M7.34462 7.80245H7.48202L7.44957 7.59447L7.34462 7.80245ZM7.50332 7.93693H7.27487L7.2022 8.07934H7.04016L7.39724 7.41113H7.55343L7.67496 8.07934H7.52503L7.50348 7.93693" fill="#3C3A3E"/>
<path d="M8.38872 8.05758C8.34152 8.07913 8.28974 8.092 8.23753 8.092C8.06087 8.092 7.9502 7.95961 7.9502 7.79381C7.9502 7.58165 8.12853 7.40332 8.34069 7.40332C8.39373 7.40332 8.44176 7.41606 8.48102 7.43757L8.46143 7.59752C8.43207 7.56507 8.38458 7.54239 8.32611 7.54239C8.20458 7.54239 8.09641 7.65223 8.09641 7.77961C8.09641 7.8765 8.15739 7.95251 8.25344 7.95251C8.31233 7.95251 8.36913 7.92983 8.40755 7.89863L8.38897 8.05733" fill="#3C3A3E"/>
<path d="M9.2657 7.81081H8.97545L8.92826 8.07934H8.78918L8.90696 7.41113H9.04644L8.99967 7.67508H9.28992L9.33712 7.41113H9.4766L9.35883 8.07934H9.21934L9.26612 7.81081" fill="#3C3A3E"/>
<path d="M9.76685 8.07837L9.88461 7.41016H10.2546L10.2311 7.54463H10.0006L9.97708 7.6741H10.1888L10.1653 7.80858H9.95356L9.93005 7.94306H10.1606L10.1371 8.07754H9.76705" fill="#3C3A3E"/>
</g>
<defs>
<clipPath id="apachespark1">
<rect width="13" height="6.75121" fill="white" transform="translate(2.5 5)"/>
</clipPath>
</defs>
</svg>
