<svg width="100%" height="100%" viewBox="0 0 26 26" fill="none" xmlns="http://www.w3.org/2000/svg">
<circle cx="13" cy="13" r="12.5" fill="white" stroke="#E2EAEC"/>
<g clip-path="url(#apache_hive0)">
<path fill-rule="evenodd" clip-rule="evenodd" d="M14.5381 16.8321V19.8584H15.2904V18.4675L15.4456 18.4704V19.8584H16.2063V16.8321H15.4456V17.9549H15.2904V16.8321L14.5381 16.8321Z" fill="black"/>
<path fill-rule="evenodd" clip-rule="evenodd" d="M17.1426 16.8321H16.4099V19.8584H17.1426V16.8321Z" fill="black"/>
<path fill-rule="evenodd" clip-rule="evenodd" d="M17.2626 16.8321L17.8414 19.8584H18.715L19.2938 16.8321H18.516L18.3243 18.127C18.3083 18.1766 18.2544 18.1766 18.2447 18.127L18.0531 16.832L17.2626 16.8321Z" fill="black"/>
<path fill-rule="evenodd" clip-rule="evenodd" d="M20.9038 16.8321H19.4494V19.8584H20.9038V19.0649L20.0951 19.0581L20.0951 18.7179H20.4804V17.93H20.0951L20.0951 17.6256H20.9038V16.8321Z" fill="black"/>
<path fill-rule="evenodd" clip-rule="evenodd" d="M14.5381 16.8321V19.8584H15.2904V18.4675L15.4456 18.4704V19.8584H16.2063V16.8321H15.4456V17.9549H15.2904V16.8321L14.5381 16.8321Z" stroke="#FDEE21" stroke-width="0.1"/>
<path fill-rule="evenodd" clip-rule="evenodd" d="M17.1426 16.8321H16.4099V19.8584H17.1426V16.8321Z" stroke="#FDEE21" stroke-width="0.1"/>
<path fill-rule="evenodd" clip-rule="evenodd" d="M17.2626 16.8321L17.8414 19.8584H18.715L19.2938 16.8321H18.516L18.3243 18.127C18.3083 18.1766 18.2544 18.1766 18.2447 18.127L18.0531 16.832L17.2626 16.8321Z" stroke="#FDEE21" stroke-width="0.1"/>
<path fill-rule="evenodd" clip-rule="evenodd" d="M20.9038 16.8321H19.4494V19.8584H20.9038V19.0649L20.0951 19.0581L20.0951 18.7179H20.4804V17.93H20.0951L20.0951 17.6256H20.9038V16.8321Z" stroke="#FDEE21" stroke-width="0.1"/>
<path fill-rule="evenodd" clip-rule="evenodd" d="M13.0497 7.65638C12.9272 7.32503 8.71335 5.70703 8.65949 5.88467C7.8857 6.08389 7.57078 6.96474 7.0385 7.52268L5.85648 7.45581C5.33579 8.11714 5.06256 8.79282 5.2486 9.49508C5.91597 10.3881 6.69068 11.148 7.17354 12.2697C7.21171 12.7984 9.49046 12.3252 9.97888 12.2205C9.31168 12.6922 8.73064 13.4234 8.98033 15.5292C9.20827 16.518 9.36419 17.6221 11.3859 18.7405C11.652 18.8877 12.2027 19.0576 12.5432 19.1814C12.8689 19.329 13.2497 19.3896 14.3239 19.0651C14.9455 18.8005 15.6167 18.6411 16.225 18.3771L15.4938 18.411C14.487 18.4326 13.7097 18.5068 13.4699 18.2289L12.5433 16.649L13.0835 15.6127C13.8312 15.6884 14.0793 16.2872 14.7383 16.5153L15.515 15.947C17.7711 17.2623 18.6687 15.1134 18.9259 13.4397C18.8985 12.7588 17.4331 13.6533 17.5219 13.3349C17.5564 12.6029 16.9523 11.6453 16.5619 10.8991L17.0137 9.17274C17.2186 8.99243 16.0648 7.07211 15.1226 6.83264C14.2959 6.6225 13.0497 7.65638 13.0497 7.65638L13.0497 7.65638Z" fill="#FDEE21"/>
<path fill-rule="evenodd" clip-rule="evenodd" d="M16.756 11.3281C16.7641 11.5136 16.7632 11.7391 16.7814 11.8797C16.7782 11.987 16.6968 11.991 16.6294 12.0135L17.0684 12.1723C17.1556 12.3171 17.2256 12.462 17.2964 12.6068C17.3784 12.9632 17.3172 12.9734 17.2626 12.9997C17.1033 13.0013 16.9444 13.0015 16.7961 12.9704C16.8626 13.005 16.8772 13.0303 16.8842 13.0746C16.8972 13.1564 16.8438 13.2681 16.756 13.3757C16.8859 13.4469 17.1226 13.5165 17.2985 13.5826L17.499 13.1417C17.4082 12.4941 17.1328 11.8972 16.756 11.3281L16.756 11.3281Z" fill="#C8C037"/>
<path fill-rule="evenodd" clip-rule="evenodd" d="M17.5754 13.4989C17.8189 13.5991 18.1553 13.5697 18.6217 13.3324C18.6911 13.2836 18.7557 13.3128 18.6315 13.3929C18.0198 13.935 17.727 13.6638 17.5754 13.4989L17.5754 13.4989Z" fill="#C8C037"/>
<path fill-rule="evenodd" clip-rule="evenodd" d="M18.6683 13.2617C18.7407 13.3985 18.6968 13.5097 18.6726 13.6253C18.597 14.2129 18.4116 14.6776 18.0478 15.1631C16.8644 17.0421 15.6697 15.8664 14.7172 15.1011L14.3232 16.0762C14.3022 16.1617 14.2153 16.2283 14.8306 16.4958L15.4574 16.0585C17.8481 17.855 19.5422 13.5439 18.6683 13.2618L18.6683 13.2617Z" fill="#C8C037"/>
<path fill-rule="evenodd" clip-rule="evenodd" d="M15.0054 14.9419C14.8441 14.9533 14.3641 15.1145 14.3428 15.2078L14.5637 14.8828L15.0054 14.9419Z" fill="#C8C037"/>
<path fill-rule="evenodd" clip-rule="evenodd" d="M14.6919 12.9498C14.7214 12.9498 14.8633 12.9874 14.8481 12.979C14.8263 12.967 14.8457 13.1755 14.8903 13.2841L14.7172 13.656C15.0487 13.2784 15.573 13.3035 16.0596 13.2548L15.8274 13.1127C15.8678 12.9799 15.8203 12.8748 15.7979 12.7617L14.6919 12.9498Z" fill="#C8C037"/>
<path fill-rule="evenodd" clip-rule="evenodd" d="M15.5063 11.828C15.1506 11.9357 14.8101 12.1117 14.5815 12.4867C14.7559 11.8685 14.7915 11.892 14.8478 11.8614C15.0917 11.7537 15.2914 11.8208 15.5063 11.828V11.828Z" fill="#C8C037"/>
<path fill-rule="evenodd" clip-rule="evenodd" d="M13.6071 19.0742C13.177 19.5429 12.2173 19.0387 11.4203 18.7816C9.39512 17.5098 8.99949 16.3124 8.972 15.1378C8.86787 13.4552 9.39099 12.4776 10.0527 12.2461C9.61475 13.0798 9.4106 14.5765 9.61364 15.6894C9.77753 16.3086 9.78093 17.3528 10.8299 17.9118C11.3435 18.1974 11.2044 18.4197 11.5517 18.6872C11.9323 18.9803 12.9936 19.259 13.6071 19.0742L13.6071 19.0742Z" fill="#FCF6A0"/>
<path fill-rule="evenodd" clip-rule="evenodd" d="M14.2495 11.2996C13.5212 10.2797 12.4971 9.89687 11.3421 9.85504C11.5736 9.78052 11.805 9.74171 12.0365 9.63148C12.0932 9.57266 12.0747 9.46915 12.0534 9.36404C10.9416 9.07734 10.24 8.723 9.35181 8.39453L11.7496 8.96284C13.3688 9.02361 13.2298 9.41843 14.2496 11.2996L14.2495 11.2996Z" fill="#FCF6A0"/>
<path fill-rule="evenodd" clip-rule="evenodd" d="M15.0292 10.8074C14.4911 10.0486 13.9691 9.1278 13.2606 8.54215C11.5504 7.77973 9.85851 7.2135 7.87573 6.69825L8.50854 5.89453C10.6125 6.36888 12.5888 7.16263 14.359 8.47112C14.6585 9.21904 14.8582 9.96794 15.0291 10.8073L15.0292 10.8074Z" fill="#FCF6A0"/>
<path fill-rule="evenodd" clip-rule="evenodd" d="M16.1141 9.46764C16.1141 9.46764 15.8124 8.79914 15.6655 8.54387C15.3248 8.17091 15.1525 7.47591 14.4546 7.14844C14.6753 7.20731 14.8264 7.13717 15.277 7.54063L15.9867 8.87034L16.1141 9.46764Z" fill="#FCF6A0"/>
<path fill-rule="evenodd" clip-rule="evenodd" d="M16.4895 10.6251C16.5591 10.0459 16.6912 9.11685 16.5396 8.7498C16.1177 8.19076 15.6929 7.61293 15.2678 7.07649C15.1974 7.01178 15.1468 6.92397 15.0913 6.85547C15.6889 7.00838 16.3125 7.41874 17.1535 9.0388L16.4895 10.6251Z" fill="#FCF6A0"/>
<path fill-rule="evenodd" clip-rule="evenodd" d="M13.9769 10.6903C13.7389 10.5053 13.5268 9.85091 13.1661 9.71485C12.8323 9.68727 12.7098 9.58353 12.2709 9.67187C12.4301 9.59308 12.5804 9.49226 12.7496 9.43829C12.8643 9.41156 12.9718 9.44117 13.0812 9.45607C13.1082 9.44346 13.1259 9.42778 13.1193 9.40408C12.6774 9.13437 11.7709 9.13052 11.1589 8.97656C11.8692 9.00004 12.655 8.96116 13.1887 9.13021C13.6179 9.50641 13.7574 10.2149 13.9769 10.6903L13.9769 10.6903Z" fill="black"/>
<path fill-rule="evenodd" clip-rule="evenodd" d="M15.2783 7.53516C15.3768 7.544 15.9071 8.37241 15.932 8.51026C15.9761 8.81159 16.0849 9.14939 16.1141 9.46467C16.0268 9.16229 15.9316 8.85992 15.8126 8.55754C15.7778 8.47427 15.6899 8.28602 15.4455 8.01976C15.3317 7.83209 15.3071 7.68458 15.2783 7.53517L15.2783 7.53516Z" fill="black"/>
<path fill-rule="evenodd" clip-rule="evenodd" d="M17.0752 12.0469H16.8484L17.0991 12.1119L17.0752 12.0469Z" fill="black"/>
<path fill-rule="evenodd" clip-rule="evenodd" d="M15.5274 11.8248C15.2993 11.7971 15.0652 11.7935 14.8371 11.843C14.7441 11.9663 14.7377 12.0918 14.697 12.2078C14.9743 11.9059 15.0844 11.8874 15.5274 11.8248V11.8248Z" fill="black"/>
<path fill-rule="evenodd" clip-rule="evenodd" d="M18.6386 13.3828C18.5117 13.4829 18.499 13.5771 18.1236 13.69C17.8499 13.7539 17.6952 13.6455 17.5664 13.4998C17.7617 13.5551 17.793 13.7008 18.3168 13.5374L18.6386 13.3828Z" fill="black"/>
<path fill-rule="evenodd" clip-rule="evenodd" d="M17.5009 13.4453C17.4095 13.6934 17.3111 13.9442 17.2118 14.1766C16.9753 14.4505 17.0761 14.2944 16.7221 14.7198C16.8353 14.5472 16.9827 14.3814 17.0598 14.2017C17.1139 14.0833 17.1814 13.9577 17.2112 13.8526C17.1174 13.8063 16.9252 13.8026 16.8992 13.8192C16.5845 14.0026 16.5277 14.1966 16.3421 14.3855C16.4766 14.1732 16.5915 13.9415 16.7474 13.7504C16.7652 13.7255 16.8806 13.7208 16.9515 13.7061C16.8413 13.6874 16.6372 13.6483 16.6207 13.6501C16.4154 13.6988 16.3004 13.8754 16.1479 13.9927C16.2591 13.8343 16.3614 13.6693 16.5025 13.5331C16.5165 13.517 16.8979 13.55 17.0956 13.6279L17.0995 13.7056L17.2117 13.7504L17.2962 13.5414L17.5009 13.4453Z" fill="black"/>
<path fill-rule="evenodd" clip-rule="evenodd" d="M15.0105 14.9415C14.9598 14.9244 14.5124 14.8676 14.5124 14.8809C14.3406 15.0017 14.3145 15.1172 14.3182 15.2173C14.604 14.9396 14.5934 14.9388 15.0105 14.9415L15.0105 14.9415Z" fill="black"/>
<path fill-rule="evenodd" clip-rule="evenodd" d="M14.6707 12.9411C14.6707 12.9411 14.9936 12.8947 14.9873 12.9244C14.9639 13.0351 15.0268 13.3047 15.0337 13.2671L14.8522 13.4133C15.2323 13.2246 15.6325 13.2625 16.0384 13.2337C16.0384 13.2337 15.6967 13.1405 15.7176 13.1376C15.7938 13.1269 15.6973 12.7856 15.6711 12.7782C15.7361 12.7564 15.7996 12.7401 15.8653 12.7239C15.3766 12.5976 15.094 12.672 14.6707 12.9411L14.6707 12.9411Z" fill="black"/>
<path fill-rule="evenodd" clip-rule="evenodd" d="M17.4652 13.1808L17.3935 13.2163C17.3833 13.0087 17.1575 13.0239 16.9671 13.022L16.8109 12.9844C16.8584 13.0278 17.0052 13.0244 16.946 13.1181C16.8962 13.1444 16.8732 13.2573 16.8447 13.3521L16.7603 13.3563C16.9094 13.4139 17.0478 13.4643 17.2119 13.5318L17.309 13.5464L17.5412 13.4231L17.4652 13.1808Z" fill="black"/>
<path fill-rule="evenodd" clip-rule="evenodd" d="M15.325 13.0436C15.2887 12.9725 15.1059 12.9826 15.0664 13.0286C15.0344 13.0659 15.0644 13.3054 15.1055 13.265C15.1649 13.2135 15.2424 13.1919 15.3356 13.1961C15.3473 13.1518 15.3432 13.104 15.325 13.0436L15.325 13.0436Z" fill="white"/>
<path fill-rule="evenodd" clip-rule="evenodd" d="M17.0783 13.401C17.0955 13.3886 17.1318 13.2685 17.1201 13.2326C17.0961 13.1478 16.9261 13.1656 16.9261 13.1656C16.8846 13.1897 16.8482 13.3219 16.8634 13.3655C16.8706 13.4025 17.051 13.4142 17.0783 13.401L17.0783 13.401Z" fill="white"/>
<path fill-rule="evenodd" clip-rule="evenodd" d="M9.80811 17.543L9.91551 17.5533C10.5522 17.8621 11.6005 18.3199 13.1182 18.0739L13.3564 18.444C12.688 18.7648 11.9691 18.691 11.2954 18.7135L9.80811 17.543Z" fill="black"/>
<path fill-rule="evenodd" clip-rule="evenodd" d="M8.89404 15.1017L9.21298 16.4241C10.0668 16.9512 11.5254 17.555 12.7413 17.5063L12.4726 16.8974C9.93465 16.3651 9.71999 15.6922 8.89409 15.1016L8.89404 15.1017Z" fill="black"/>
<path fill-rule="evenodd" clip-rule="evenodd" d="M9.68776 12.3945C9.84364 13.4193 10.0517 14.1962 10.9539 14.847C11.5069 15.2398 12.0559 15.6309 12.7235 15.9537C12.7235 15.9537 12.665 16.2546 12.616 16.2492C10.6291 16.0312 9.1745 14.404 8.99829 13.6608C9.16895 13.0907 9.41377 12.7346 9.68769 12.3945H9.68776Z" fill="black"/>
<path fill-rule="evenodd" clip-rule="evenodd" d="M10.6429 11.8116C10.9076 12.9474 11.5389 14.0977 12.1664 15.1413C12.3965 15.4296 12.4567 15.5568 12.8112 15.7323C13.2904 15.8821 13.6292 15.8439 13.9771 15.8214C13.8818 15.6471 13.7971 15.465 13.6876 15.3013C12.9088 14.693 13.2687 14.1391 13.4756 13.7884C13.0425 13.6803 12.4687 13.4506 12.3897 13.1485C12.2626 12.1713 12.3271 11.8613 12.4543 11.3594C11.8679 11.4815 11.2736 11.6025 10.6428 11.8116L10.6429 11.8116Z" fill="black"/>
<path fill-rule="evenodd" clip-rule="evenodd" d="M8.49337 5.78125C8.30062 5.90561 8.11493 6.08343 7.91516 6.28554C7.58399 6.62411 7.36383 6.95438 7.02673 7.19923C6.95931 7.25665 6.77011 7.34911 6.53226 7.36283C6.42021 7.36835 6.34721 7.38666 6.14132 7.36113C5.95975 7.26402 5.78724 7.32717 5.61888 7.52606C5.43427 7.78827 5.20046 8.28617 5.10324 8.5996C4.90287 9.39894 5.41373 10.0575 5.90363 10.5651C6.33944 10.9856 6.59071 11.2484 6.76965 11.6339C6.90514 11.8839 7.00551 12.2271 7.11417 12.4677C7.15335 12.5439 7.14521 12.5435 7.25068 12.5665C7.47841 12.6145 7.79431 12.6149 8.07555 12.6388C8.19723 12.6404 8.36433 12.636 8.52266 12.6197C8.74083 12.579 8.99715 12.5391 9.21198 12.4657C9.42192 12.4147 9.60897 12.344 9.77758 12.2789C9.75584 12.3518 9.59521 12.4219 9.53499 12.5143C8.96347 13.3223 8.80691 14.0413 8.90641 15.1758C8.9627 15.6786 9.07953 16.0955 9.25584 16.5724C9.33651 16.7906 9.50819 17.1363 9.6727 17.3659C10.1619 18.0486 11.2564 18.9253 12.7799 19.2628C13.0457 19.2987 13.3474 19.2796 13.6311 19.205C14.3831 18.9798 15.9156 18.4474 15.9156 18.4474C15.9156 18.4474 14.5552 18.5585 13.9322 18.4977C13.788 18.4754 13.629 18.4679 13.5286 18.3708C13.5117 18.3493 13.4505 18.2275 13.49 18.2264C13.544 18.2249 13.6988 18.1614 13.9379 18.1404C13.4274 18.0861 13.4347 18.0867 13.3975 17.9949C13.3395 17.8523 13.2508 17.6575 13.1595 17.487C13.3838 17.5056 13.8805 17.5332 14.049 17.3614C14.049 17.3614 13.7551 17.3949 13.4954 17.3648C13.4079 17.3547 13.2588 17.3021 13.214 17.2859C13.0974 17.241 13.0014 17.2271 12.979 17.1978C12.9385 17.0961 12.9111 17.0618 12.8622 16.9255C12.7961 16.745 12.7908 16.5436 12.7782 16.3592C12.9481 16.5661 13.1646 16.7402 13.4512 16.8291C13.4549 16.8214 13.823 16.9872 14.0903 16.9019L14.1458 16.8843C14.1458 16.8892 13.9686 16.8996 13.9037 16.8678C13.36 16.6396 13.2781 16.4398 13.1903 16.3406L12.9555 15.9933C13.027 15.8526 13.0673 15.8473 13.1619 15.846C13.4481 15.8774 13.5726 15.9015 13.7467 15.8601C13.8644 16.0992 13.8962 16.3398 14.1641 16.5138C15.0565 16.7755 15.2504 16.4362 15.4665 16.1363C16.1086 16.6017 17.1539 16.7453 17.8799 16.1444C18.8028 15.0897 19.095 13.4269 19.0132 13.332C18.8979 13.1388 18.7467 12.9397 18.6168 12.9672C18.154 13.092 17.9833 13.3239 17.5247 13.271C17.5793 13.2679 17.6712 13.2665 17.6719 13.2613C17.7072 12.8778 17.669 12.6922 17.652 12.6603C17.5128 12.3572 17.3301 12.0382 17.2027 11.7991C17.1698 11.7495 17.0734 11.3728 16.9118 11.224C16.8425 11.1655 16.6728 11.0114 16.6728 11.0114L16.6585 11.1752C16.6585 11.1752 16.7248 11.1851 16.75 11.2866C16.8457 11.6714 17.3329 12.581 17.3687 12.6246C17.5414 12.9 17.3862 13.2429 17.5175 13.4354C17.5301 13.4598 17.7854 13.4332 17.9832 13.4452C18.3085 13.3761 18.2947 13.2345 18.5757 13.2132C18.765 13.1989 18.784 13.55 18.7815 13.5773C18.7462 13.9649 18.6268 14.4157 18.4441 14.8273C18.0642 15.5503 17.6387 16.1996 17.0352 16.2901C16.2992 16.4172 15.9167 16.0993 15.5177 15.8969L15.365 16.0255C14.8464 16.5355 14.2307 16.4902 13.9789 15.8238C13.8535 15.5653 13.6902 15.4069 13.5503 15.1852L12.8084 15.7129C12.7467 15.8379 12.6708 16.0352 12.5785 16.2555C12.5144 16.4087 12.4606 16.6718 12.4641 16.8904C12.3691 17.0504 12.7935 17.6992 13.0617 18.0939C13.1409 18.2103 13.2886 18.4138 13.2935 18.4265C13.3467 18.5627 13.4632 18.683 13.4703 18.6977C13.9682 19.3391 12.8422 19.1914 12.6096 19.1526C12.1508 19.0804 11.702 18.8911 11.2802 18.638C11.2557 18.6234 11.2313 18.6085 11.207 18.5933C10.7057 18.2816 10.2445 17.8827 9.85228 17.4882C9.61843 17.2267 9.39576 16.6906 9.2313 16.3106C8.98481 15.3968 8.63108 13.8131 9.58931 12.6129C9.65005 12.5443 9.71559 12.4301 9.77139 12.4075C10.0561 12.2173 10.3652 12.0877 10.6977 12.0157L10.6641 11.8028C10.4981 11.8401 9.93907 12.042 9.781 12.1266C9.42155 12.2295 9.12339 12.3369 8.66529 12.4502C8.51637 12.4682 8.36988 12.4685 8.22709 12.4494C7.89753 12.4052 7.33581 12.4447 7.29999 12.4118C7.07684 12.1045 7.01575 11.5538 6.81215 11.2591L6.80975 11.2561L6.80717 11.2533C6.68848 11.0958 6.55013 10.9673 6.41389 10.8336C5.92597 10.3548 5.50836 9.89183 5.39147 9.40128C5.36207 9.25643 5.28638 9.10641 5.32661 8.67784L5.32735 8.67575L5.32806 8.67365C5.44544 8.27328 5.63641 7.94692 5.96053 7.61983C6.29782 7.62521 6.63168 7.63253 6.89173 7.68159C7.01104 7.70131 7.25914 7.73331 7.5154 7.8276C8.16402 8.06624 9.02103 8.45859 9.02103 8.45859C8.37772 8.10964 7.65838 7.65645 7.20414 7.565C7.13655 7.55555 7.09501 7.5251 7.07494 7.47194C7.75815 7.07548 7.88313 6.6087 8.3325 6.19006C8.53787 6.10177 8.61795 6.0567 8.79244 6.03797C10.4063 6.29 11.4222 6.92485 12.2259 7.34935C12.5521 7.52454 12.8486 7.65702 13.1318 7.81657C13.38 7.89722 14.1291 8.4558 14.3484 8.75696C14.5711 9.22138 14.7337 9.72305 14.882 10.2071C14.9883 10.6995 15.0816 10.8992 15.0816 10.8992C15.0816 10.8992 14.9912 10.4874 15.0063 10.4134C15.1 10.448 15.3216 10.5163 15.4134 10.5057C15.4134 10.5057 15.0032 10.2963 14.9494 10.1112C14.7769 9.51724 14.6039 8.59265 14.5573 8.54445C14.4258 8.38107 13.8776 7.9667 13.5413 7.77503C13.4141 7.70252 13.3454 7.65755 13.34 7.62567C13.4474 7.51849 13.5801 7.3767 13.6991 7.28661C13.8131 7.20025 13.9169 7.10287 14.0758 7.04458C14.7744 6.73387 15.1738 7.16412 15.2686 7.077C15.2686 7.077 15.1183 6.90687 15.185 6.93488C15.2534 6.97145 15.4762 7.01457 15.5006 7.03703C15.7552 7.23372 16.4208 7.95261 16.8219 8.71113C16.9183 8.89693 16.9575 9.01927 16.9128 9.243C16.868 9.46694 16.8333 9.59008 16.7844 9.73963C16.7403 9.83961 16.4905 10.5241 16.4915 10.616C16.4412 10.9916 16.6546 11.4618 16.6546 11.4618C16.6566 11.3341 16.6466 11.2661 16.6583 11.1749L16.6727 11.0118C16.6727 11.0118 16.6636 10.9684 16.6652 10.9512C16.6761 10.8384 16.7041 10.7436 16.7123 10.679C16.7925 10.1885 16.9319 9.83545 17.0901 9.40505C17.1371 9.29643 17.1986 9.23602 17.1954 9.15332C17.198 9.00656 17.0651 8.80959 16.969 8.61721C16.872 8.42278 16.7562 8.20603 16.6042 7.97757C16.2575 7.4852 15.9619 7.09996 15.4208 6.85885C15.2693 6.79323 14.6735 6.72906 14.4677 6.76719C14.2181 6.81855 14.0035 6.8692 13.8323 6.97744C13.563 7.14777 13.3514 7.41148 13.1032 7.56687C12.5541 7.29567 12.2891 7.0927 12.2396 7.06472C11.9133 6.89201 11.5215 6.69158 11.0999 6.50151C10.8978 6.31536 9.64276 5.87015 8.49352 5.78134L8.49337 5.78125ZM15.5175 15.8966C15.1791 15.6353 14.8942 15.3664 14.7064 15.0894C14.6451 15.4151 14.4226 15.6471 14.2506 15.8753C14.2164 15.9288 14.1917 16.0018 14.3603 16.2344C14.4057 16.2963 14.5701 16.3069 14.6811 16.3012C14.5682 16.2169 14.3964 16.1278 14.3687 16.0505C14.5673 16.1841 14.7512 16.2224 14.9175 16.2009C14.9555 16.1967 15.0026 16.1569 15.0391 16.0957C15.1132 15.9385 15.1712 15.9006 15.2299 15.8583L15.3649 16.0254L15.5175 15.8966Z" fill="black" stroke="black" stroke-width="0.11397"/>
</g>
<defs>
<clipPath id="apache_hive0">
<rect width="15.8889" height="14.1235" fill="white" transform="translate(5.05566 5.77734)"/>
</clipPath>
</defs>
</svg>
