<svg width="100%" height="100%" viewBox="0 0 26 26" fill="none" xmlns="http://www.w3.org/2000/svg">
<circle cx="13" cy="13" r="12.5" fill="white"/>
<circle cx="13" cy="13" r="12.5" stroke="#D0D0CE"/>
<circle cx="13" cy="13" r="12.5" stroke="black" stroke-opacity="0.2"/>
<mask id="mask0" style="mask-type:alpha" maskUnits="userSpaceOnUse" x="0" y="0" width="26" height="26">
<circle cx="13" cy="13" r="12.5" fill="white"/>
<circle cx="13" cy="13" r="12.5" stroke="#D0D0CE"/>
<circle cx="13" cy="13" r="12.5" stroke="black" stroke-opacity="0.2"/>
</mask>
<g mask="url(#mask0)">
</g>
<g clip-path="url(#clip0)">
<path d="M21.0942 7.73409C21.0693 7.72511 21.0643 7.72511 21.0626 7.72269C21.0434 7.69299 21.0243 7.66363 21.0058 7.63324C20.5848 6.93077 19.9888 6.4659 19.2134 6.25178C18.6423 6.09429 18.0617 6.07702 17.4751 6.14817C16.7887 6.23036 16.1557 6.45692 15.5842 6.8572C14.7158 7.46539 14.1883 8.32293 13.8883 9.34073C13.6813 10.0425 13.6235 10.7623 13.6504 11.4937C13.6766 12.2159 13.7999 12.9153 14.0851 13.5777C14.579 14.7246 15.4065 15.4772 16.5985 15.7818C17.2953 15.9593 17.9985 15.9514 18.7 15.8049C19.6875 15.5977 20.4504 15.0569 20.9809 14.1734C21.0102 14.1251 21.0391 14.0764 21.0683 14.0277L21.0982 14.0387V19.9963H22.3077V6.33156H21.0942V7.73409ZM10.2017 9.82286C9.85964 9.86948 9.52972 9.91334 9.20181 9.961C8.59707 10.0455 7.99131 10.1306 7.38455 10.2162C6.82549 10.2943 6.27585 10.4055 5.75005 10.6279C5.2461 10.8417 4.79993 11.138 4.4774 11.5991C4.05038 12.2076 3.93749 12.8973 4.03022 13.6284C4.13874 14.5001 4.58659 15.1367 5.34454 15.5328C6.08569 15.9193 6.87959 15.9883 7.68659 15.8529C8.69248 15.6844 9.47731 15.1501 10.0307 14.2643C10.079 14.1869 10.1254 14.1085 10.1724 14.0304L10.2007 14.0367V15.6889H11.4101C11.4128 15.6523 11.4169 15.6198 11.4169 15.5894C11.4169 13.5621 11.4162 11.5348 11.4149 9.50754C11.418 9.05393 11.3574 8.60224 11.2348 8.16648C11.0013 7.36144 10.5376 6.75774 9.77968 6.41444C9.29488 6.19479 8.78118 6.1195 8.25639 6.1081C7.69962 6.09972 7.14429 6.16861 6.60543 6.31291C6.05108 6.45658 5.51689 6.65585 5.02368 6.9615C4.98543 6.98069 4.95389 7.01156 4.93338 7.0499C4.91287 7.08823 4.90439 7.13215 4.90912 7.17563C4.91584 7.51754 4.91147 7.8598 4.91181 8.20171C4.91181 8.23625 4.9155 8.26837 4.91785 8.31534C4.99916 8.25248 5.06534 8.20033 5.13287 8.14956C6.13373 7.40012 7.23874 7.01227 8.4872 7.16181C9.06776 7.23089 9.53073 7.51789 9.82907 8.04906C10.1335 8.59439 10.1923 9.19533 10.2017 9.82286Z" fill="white"/>
<path d="M20.4506 7.73486V6.33233H21.6634V19.9964H20.454V14.0388L20.4241 14.0278C20.3948 14.0765 20.3659 14.1252 20.3367 14.1735C19.8062 15.057 19.0432 15.5985 18.0558 15.805C17.3543 15.9515 16.6511 15.9594 15.9543 15.7819C14.7623 15.4776 13.9348 14.7247 13.4409 13.5778C13.1557 12.9153 13.0324 12.216 13.0062 11.4938C12.9793 10.7623 13.0371 10.0433 13.244 9.34081C13.5441 8.32301 14.0715 7.46547 14.94 6.85728C15.5112 6.457 16.1445 6.23044 16.8309 6.14825C17.4175 6.07917 17.9977 6.09541 18.5692 6.25186C19.3446 6.46564 19.9406 6.9305 20.3616 7.63332C20.38 7.66371 20.3992 7.69307 20.4183 7.72277C20.4204 7.72588 20.4257 7.72588 20.4506 7.73486ZM20.4331 10.8525H20.4728C20.4529 10.4218 20.4613 9.98699 20.4073 9.56081C20.3308 8.90633 20.0182 8.30516 19.5314 7.87611C18.7865 7.20783 17.9013 7.02202 16.9508 7.17226C15.8421 7.34736 15.0821 8.00908 14.6326 9.05692C14.3749 9.6582 14.2694 10.293 14.2513 10.945C14.2281 11.7787 14.3309 12.589 14.7122 13.3401C15.0549 14.0153 15.5636 14.5016 16.2721 14.7489C16.851 14.9509 17.4423 14.9489 18.0333 14.8218C19.4239 14.523 20.2967 13.4237 20.4274 12.0184C20.4637 11.6327 20.4331 11.241 20.4331 10.8525Z" fill="black"/>
<path d="M10.2013 9.82412C10.1919 9.19659 10.1341 8.59565 9.827 8.05101C9.52866 7.51984 9.06569 7.23353 8.48513 7.16377C7.23666 7.01422 6.13166 7.40207 5.1308 8.15151C5.06361 8.20228 4.99641 8.25512 4.91578 8.31729C4.91343 8.27032 4.90973 8.23716 4.90973 8.20366C4.90973 7.86175 4.91376 7.51949 4.90704 7.17758C4.90232 7.1341 4.91079 7.09018 4.9313 7.05185C4.95182 7.01351 4.98336 6.98264 5.02161 6.96346C5.51482 6.65815 6.04901 6.45853 6.60336 6.31486C7.14221 6.17056 7.69754 6.10167 8.25432 6.11006C8.77911 6.12145 9.29281 6.19674 9.77761 6.4164C10.5356 6.75969 10.9992 7.36339 11.2327 8.16844C11.3553 8.60419 11.416 9.05589 11.4128 9.50949C11.4166 11.5368 11.4173 13.5641 11.4148 15.5914C11.4148 15.6228 11.4108 15.6542 11.4081 15.6908H10.1986V14.0386L10.1704 14.0324C10.1233 14.1105 10.077 14.1889 10.0286 14.2662C9.47524 15.1507 8.69041 15.685 7.68451 15.8549C6.87818 15.9903 6.08361 15.9212 5.34246 15.5347C4.58619 15.1379 4.13834 14.5014 4.02982 13.6297C3.9381 12.8986 4.05099 12.2089 4.47801 11.5986C4.80054 11.1375 5.24738 10.8412 5.75067 10.6274C6.27512 10.405 6.82577 10.2938 7.38516 10.2158C7.98991 10.1313 8.59567 10.0462 9.20243 9.96054C9.53034 9.91461 9.85925 9.87005 10.2013 9.82412ZM10.1912 10.8191C9.95903 10.8488 9.73729 10.8761 9.51589 10.9062C9.0032 10.9752 8.49051 11.0454 7.97782 11.1168C7.47554 11.1859 6.97326 11.255 6.48913 11.418C6.13132 11.5375 5.80308 11.7088 5.56487 12.0227C5.35926 12.2938 5.29207 12.6119 5.25713 12.9469C5.17212 13.7585 5.57193 14.451 6.31443 14.7373C6.88087 14.9563 7.45908 14.9528 8.03829 14.8043C8.5975 14.6655 9.09874 14.3462 9.46852 13.8932C9.92107 13.3455 10.1566 12.7041 10.1898 11.9896C10.206 11.6024 10.1912 11.2135 10.1912 10.8191Z" fill="black"/>
<rect x="4" y="17" width="16.45" height="3" fill="#5CD0E1"/>
</g>
<defs>
<clipPath id="clip0">
<rect width="18.3077" height="14" fill="white" transform="translate(4 6)"/>
</clipPath>
</defs>
</svg>
