<svg width="100%" height="100%" viewBox="0 0 26 26" fill="none" xmlns="http://www.w3.org/2000/svg">
<circle cx="13" cy="13" r="12.5" fill="white" stroke="#E2EAEC"/>
<path d="M25.5 13C25.5 19.9036 19.9036 25.5 13 25.5C6.09644 25.5 0.5 19.9036 0.5 13C0.5 6.09644 6.09644 0.5 13 0.5C19.9036 0.5 25.5 6.09644 25.5 13Z" fill="white" stroke="#E2EAEC"/>
<path d="M18.7212 15.2734H2.88867V17.257H18.7212V15.2734Z" fill="#62CADD"/>
<path opacity="0.8" d="M23.1108 15.7188H15.103V17.2765H23.1108V15.7188Z" fill="#008FCE"/>
<path opacity="0.6" d="M21.2878 14.8203H12.9658V16.3291H21.2878V14.8203Z" fill="#00AA96"/>
<path d="M11.5652 12.1141L11.555 12.1107C11.5481 12.1007 11.5417 12.0908 11.5357 12.081C11.4028 11.8563 11.1867 11.6936 10.9346 11.6287C10.7444 11.5797 10.5466 11.568 10.3519 11.5943C10.1248 11.618 9.90695 11.6979 9.71793 11.8267C9.42636 12.0261 9.2498 12.307 9.14891 12.6408C9.08385 12.8699 9.0574 13.1084 9.07067 13.3463C9.0751 13.5812 9.1246 13.8132 9.21645 14.0293C9.3819 14.4057 9.65936 14.6523 10.0591 14.7519C10.2904 14.8077 10.5312 14.8104 10.7636 14.7597C10.9217 14.7305 11.0717 14.6676 11.2036 14.5754C11.3355 14.4831 11.4463 14.3636 11.5284 14.2248L11.5579 14.1771L11.5678 14.1806V16.1336H11.9731V11.6544H11.5665L11.5652 12.1141ZM17.4593 13.2582C17.4593 13.1662 17.4593 13.0803 17.4593 12.9944C17.4585 12.7689 17.417 12.5455 17.3366 12.3349C17.2683 12.1523 17.1554 11.9898 17.0083 11.8624C16.8117 11.6987 16.5681 11.6028 16.3132 11.5887C15.9844 11.5617 15.6745 11.6218 15.3962 11.8035C14.9609 12.0901 14.7515 12.5102 14.7057 13.0193C14.6976 13.1557 14.6993 13.2926 14.7109 13.4287C14.7226 13.6267 14.7701 13.8209 14.8511 14.0018C15.0687 14.4942 15.459 14.7378 15.9801 14.7885C16.1687 14.8042 16.3585 14.7946 16.5445 14.7597C16.7911 14.7196 17.0266 14.6283 17.2362 14.4916C17.242 14.4868 17.2468 14.4809 17.2502 14.4741C17.2537 14.4674 17.2558 14.4601 17.2563 14.4525C17.2563 14.3472 17.2563 14.2424 17.2563 14.1372C17.2563 14.1273 17.2563 14.117 17.2563 14.1028C17.2443 14.1105 17.2353 14.1157 17.2268 14.1217C17.118 14.2016 17.0008 14.2695 16.8775 14.324C16.5938 14.4543 16.2776 14.4952 15.9703 14.4413C15.828 14.4202 15.6924 14.3666 15.5738 14.2847C15.4553 14.2028 15.3569 14.0947 15.2863 13.9688C15.1984 13.8099 15.1447 13.6343 15.1285 13.4532C15.1217 13.3905 15.1187 13.3274 15.1136 13.2608L17.4593 13.2582ZM7.91297 12.7989L7.5778 12.8419L6.96816 12.9257C6.78035 12.9471 6.59611 12.9931 6.42009 13.0623C6.25033 13.1253 6.10201 13.2358 5.99258 13.3806C5.84936 13.5808 5.81174 13.8068 5.84252 14.0465C5.85613 14.1799 5.90388 14.3075 5.98112 14.4168C6.05837 14.5261 6.16247 14.6134 6.28329 14.6703C6.52682 14.7899 6.80241 14.8269 7.06863 14.7756C7.22961 14.7519 7.38345 14.693 7.5193 14.603C7.65515 14.513 7.76968 14.3942 7.85482 14.2549C7.87107 14.2295 7.88646 14.2042 7.90228 14.1784L7.91168 14.1806V14.7219H8.31654C8.31654 14.7103 8.3191 14.6995 8.3191 14.6892C8.3191 14.025 8.3191 13.3606 8.3191 12.6958C8.31991 12.5472 8.29947 12.3992 8.2584 12.2563C8.18016 11.9921 8.02455 11.7945 7.77018 11.6819C7.60838 11.6146 7.43484 11.5804 7.25973 11.5814C7.07231 11.5785 6.88537 11.6011 6.70396 11.6484C6.51763 11.6926 6.33884 11.7643 6.17341 11.8611C6.16062 11.8675 6.15008 11.8777 6.1432 11.8903C6.13632 11.9029 6.13344 11.9173 6.13494 11.9315C6.13708 12.0437 6.13494 12.1558 6.13494 12.2679C6.13494 12.2787 6.13494 12.2894 6.13708 12.3049C6.16444 12.2843 6.18667 12.2671 6.20933 12.2507C6.54492 12.005 6.91558 11.8778 7.33411 11.9268C7.42778 11.9339 7.51825 11.9642 7.59746 12.015C7.67667 12.0657 7.74217 12.1353 7.78813 12.2177C7.88988 12.3964 7.90997 12.5931 7.91297 12.7989ZM14.5309 10.5396V10.2277C14.5309 10.1727 14.5309 10.1727 14.48 10.1581C14.3013 10.1105 14.1142 10.1043 13.9328 10.1401C13.727 10.1698 13.5403 10.2774 13.4108 10.4408C13.2633 10.6303 13.2103 10.8515 13.2034 11.0852C13.1983 11.2609 13.2034 11.4366 13.2034 11.6128V11.6557H12.6396V11.9943H13.2039V14.7232H13.6096V11.9891H14.4146V11.6519H13.6096C13.6096 11.6403 13.6096 11.6321 13.6096 11.6239C13.6096 11.4598 13.6053 11.2953 13.6121 11.1316C13.6156 11.0317 13.63 10.9324 13.6549 10.8356C13.7045 10.6453 13.8229 10.516 14.0208 10.476C14.193 10.4363 14.3736 10.4588 14.5309 10.5396ZM19.8658 12.0385V11.9994C19.8658 11.892 19.8658 11.7846 19.8658 11.6772C19.8658 11.6454 19.8543 11.6343 19.8269 11.6265C19.7302 11.6012 19.6305 11.5899 19.5306 11.593C19.3893 11.594 19.2507 11.6319 19.1284 11.703C18.9462 11.8118 18.8039 11.9768 18.7226 12.1734C18.7034 12.2164 18.6863 12.2593 18.6683 12.3044H18.6602V11.654H18.2575V14.7219H18.6598V14.675C18.6598 14.1841 18.6598 13.6932 18.6598 13.2023C18.6595 13.0595 18.6746 12.9171 18.7047 12.7774C18.7397 12.5918 18.8117 12.4151 18.9163 12.258C19.002 12.1249 19.1308 12.0257 19.281 11.9771C19.3773 11.9454 19.4791 11.9346 19.5799 11.9451C19.6807 11.9557 19.7781 11.9875 19.8658 12.0385Z" fill="white"/>
<path d="M11.5654 12.1077V11.648H11.972V16.1271H11.5667V14.1741L11.5568 14.1707L11.5273 14.2184C11.4452 14.3572 11.3344 14.4767 11.2025 14.5689C11.0706 14.6612 10.9206 14.724 10.7625 14.7533C10.5301 14.8039 10.2893 14.8013 10.058 14.7455C9.65825 14.6459 9.3808 14.3993 9.21535 14.0229C9.1235 13.8068 9.074 13.5748 9.06957 13.3398C9.05662 13.1016 9.0835 12.8629 9.14909 12.6336C9.24998 12.2997 9.42654 12.0188 9.71811 11.8194C9.90759 11.6907 10.1258 11.6112 10.3534 11.5879C10.548 11.5616 10.7459 11.5733 10.9361 11.6222C11.1877 11.6876 11.4034 11.8504 11.5359 12.0751C11.5419 12.0851 11.5483 12.095 11.5551 12.1047L11.5654 12.1077ZM11.5598 13.1298H11.5731C11.5662 12.9888 11.5692 12.8462 11.5509 12.7066C11.5251 12.492 11.4203 12.2949 11.2572 12.1541C11.0075 11.9354 10.7108 11.8744 10.3919 11.9234C10.0199 11.981 9.76513 12.1979 9.61465 12.5416C9.53211 12.7374 9.48854 12.9476 9.48639 13.1603C9.4787 13.4335 9.5129 13.699 9.64115 13.9456C9.69352 14.0535 9.76672 14.1498 9.85648 14.229C9.94624 14.3083 10.0508 14.3687 10.164 14.407C10.3549 14.469 10.5591 14.4773 10.7544 14.431C11.2208 14.3331 11.5137 13.9727 11.5573 13.5121C11.5697 13.3854 11.5598 13.2573 11.5598 13.1298Z" fill="#0C2030"/>
<path d="M17.4594 13.2529H15.1162C15.1213 13.3195 15.1243 13.3818 15.1311 13.4454C15.1473 13.6264 15.201 13.8021 15.2889 13.9609C15.3595 14.0869 15.4579 14.1949 15.5764 14.2768C15.695 14.3587 15.8306 14.4123 15.9729 14.4335C16.2802 14.4874 16.5964 14.4465 16.8801 14.3162C17.0035 14.2617 17.1206 14.1938 17.2294 14.1139C17.2379 14.1079 17.2469 14.1027 17.2589 14.095C17.2589 14.1092 17.2589 14.1195 17.2589 14.1293C17.2589 14.2346 17.2589 14.3394 17.2589 14.4447C17.2584 14.4522 17.2563 14.4596 17.2529 14.4663C17.2494 14.473 17.2446 14.479 17.2388 14.4838C17.0286 14.6207 16.7923 14.712 16.5449 14.7519C16.3589 14.7867 16.1692 14.7964 15.9806 14.7806C15.4595 14.7299 15.0692 14.4864 14.8515 13.994C14.7706 13.8131 14.7231 13.6189 14.7113 13.4209C14.6998 13.2847 14.6981 13.1479 14.7062 13.0115C14.7519 12.5024 14.9627 12.0823 15.3966 11.7957C15.6749 11.6127 15.9849 11.5525 16.3136 11.5809C16.5685 11.595 16.8122 11.6909 17.0088 11.8546C17.1559 11.982 17.2688 12.1445 17.3371 12.3271C17.4174 12.5377 17.459 12.7611 17.4598 12.9866C17.4602 13.0751 17.4594 13.161 17.4594 13.2529ZM15.1277 12.9118H17.0417C17.043 12.7269 17.0054 12.5437 16.9314 12.3744C16.8883 12.2746 16.8242 12.1854 16.7435 12.1128C16.6629 12.0402 16.5676 11.9859 16.4641 11.9538C16.3177 11.9093 16.1632 11.8977 16.0118 11.9199C15.8157 11.9421 15.6318 12.027 15.4873 12.1622C15.3128 12.325 15.2154 12.5312 15.1589 12.7597C15.147 12.8092 15.1384 12.8598 15.1277 12.9118Z" fill="#0C2030"/>
<path d="M7.9129 12.7959C7.90991 12.5901 7.88982 12.3933 7.78722 12.2146C7.74165 12.1329 7.67682 12.0636 7.59841 12.0129C7.51999 11.9622 7.43039 11.9316 7.33747 11.9238C6.91894 11.8748 6.54828 12.002 6.21268 12.2477C6.19002 12.264 6.16779 12.2812 6.14043 12.3018C6.14043 12.2864 6.1383 12.2756 6.1383 12.2649C6.1383 12.1528 6.1383 12.0406 6.1383 11.9285C6.1368 11.9142 6.13968 11.8998 6.14656 11.8872C6.15343 11.8746 6.16398 11.8645 6.17677 11.858C6.34219 11.7612 6.52098 11.6895 6.70732 11.6454C6.88873 11.598 7.07567 11.5755 7.26308 11.5784C7.4382 11.5774 7.61174 11.6116 7.77354 11.6789C8.02791 11.7915 8.18352 11.9891 8.26176 12.2533C8.30268 12.3961 8.32298 12.5441 8.32204 12.6928C8.32204 13.3572 8.32204 14.0217 8.32204 14.6862C8.32204 14.6965 8.32203 14.7072 8.31947 14.7188H7.91461V14.1775L7.90521 14.1754C7.88939 14.2011 7.874 14.2265 7.85776 14.2518C7.77262 14.3912 7.65808 14.51 7.52223 14.6C7.38638 14.6899 7.23254 14.7488 7.07156 14.7725C6.80534 14.8238 6.52975 14.7869 6.28622 14.6673C6.1654 14.6104 6.0613 14.523 5.98405 14.4137C5.90681 14.3044 5.85906 14.1769 5.84545 14.0435C5.81467 13.8038 5.85229 13.5778 5.99551 13.3776C6.10494 13.2327 6.25326 13.1223 6.42302 13.0592C6.59912 12.9906 6.78336 12.9453 6.97109 12.9243L7.58073 12.8406L7.9129 12.7959ZM7.90948 13.122C7.83168 13.1318 7.75729 13.1409 7.6829 13.1507L7.16732 13.2195C6.99826 13.2373 6.83115 13.2704 6.66799 13.3183C6.54698 13.351 6.43882 13.4201 6.35804 13.5163C6.2956 13.6055 6.25985 13.7107 6.25501 13.8197C6.23743 13.9435 6.2631 14.0697 6.32763 14.1766C6.39217 14.2836 6.49159 14.3649 6.60899 14.4065C6.79475 14.4738 6.99671 14.4814 7.18699 14.4284C7.37446 14.3828 7.54253 14.2782 7.66666 14.1298C7.81512 13.9552 7.90028 13.7351 7.9082 13.5056C7.91632 13.3789 7.90948 13.2513 7.90948 13.122Z" fill="#0C2030"/>
<path d="M14.531 10.5357C14.373 10.4537 14.1912 10.4307 14.018 10.4708C13.82 10.5107 13.7016 10.6401 13.652 10.8304C13.6271 10.9272 13.6127 11.0264 13.6092 11.1264C13.6024 11.2901 13.6071 11.4546 13.6067 11.6187C13.6067 11.6269 13.6067 11.635 13.6067 11.6466H14.4147V11.9852H13.6097V14.7171H13.204V11.9882H12.6396V11.6479H13.2023V11.605C13.2023 11.4288 13.1984 11.2531 13.2023 11.0774C13.2091 10.8433 13.2621 10.622 13.4096 10.433C13.5391 10.2696 13.7258 10.162 13.9316 10.1323C14.113 10.0965 14.3001 10.1027 14.4788 10.1503C14.5297 10.1649 14.5297 10.1649 14.5297 10.2199L14.531 10.5357Z" fill="#0C2030"/>
<path d="M19.8658 12.0358C19.7783 11.9847 19.6811 11.9527 19.5805 11.9418C19.4798 11.9309 19.3781 11.9414 19.2818 11.9727C19.1316 12.0213 19.0028 12.1205 18.9171 12.2537C18.8125 12.4107 18.7405 12.5874 18.7055 12.7731C18.6754 12.9127 18.6603 13.0551 18.6606 13.1979C18.6606 13.6886 18.6606 14.1795 18.6606 14.6706V14.7175H18.2583V11.6513H18.661V12.3018H18.6691C18.6871 12.2588 18.7042 12.2137 18.7234 12.1707C18.8047 11.9741 18.947 11.8091 19.1291 11.7003C19.2515 11.6292 19.3901 11.5913 19.5314 11.5903C19.6313 11.5873 19.731 11.5985 19.8277 11.6238C19.8551 11.632 19.867 11.6428 19.8666 11.6745C19.864 11.7815 19.8666 11.8893 19.8666 11.9968L19.8658 12.0358Z" fill="#0C2030"/>
</svg>
