<svg width="100%" height="100%" viewBox="0 0 18 18" fill="none" xmlns="http://www.w3.org/2000/svg">
<circle cx="9" cy="9" r="8.5" fill="white" stroke="#E2EAEC"/>
<path d="M17.5 9C17.5 13.6944 13.6944 17.5 9 17.5C4.30558 17.5 0.5 13.6944 0.5 9C0.5 4.30558 4.30558 0.5 9 0.5C13.6944 0.5 17.5 4.30558 17.5 9Z" fill="white" stroke="#E2EAEC"/>
<path d="M12.961 10.5752H2V11.9484H12.961V10.5752Z" fill="#62CADD"/>
<path opacity="0.8" d="M16 10.8828H10.4562V11.9613H16V10.8828Z" fill="#008FCE"/>
<path opacity="0.6" d="M14.7381 10.2607H8.97668V11.3053H14.7381V10.2607Z" fill="#00AA96"/>
<path d="M8.00675 8.38933L7.99965 8.38695C7.99491 8.38002 7.99047 8.37317 7.98633 8.36643C7.89431 8.21082 7.74468 8.0982 7.57019 8.05325C7.43849 8.01935 7.30153 8.01127 7.16679 8.02945C7.00951 8.04589 6.85873 8.10117 6.72786 8.19036C6.52601 8.32836 6.40377 8.52288 6.33392 8.75397C6.28888 8.91259 6.27058 9.07766 6.27976 9.24234C6.28283 9.40503 6.3171 9.5656 6.38069 9.71525C6.49523 9.97579 6.68731 10.1465 6.96405 10.2155C7.12416 10.2541 7.29089 10.256 7.45181 10.2209C7.56123 10.2006 7.66508 10.1571 7.7564 10.0933C7.84773 10.0294 7.9244 9.94665 7.9813 9.85057L8.00172 9.81756L8.00853 9.81994V11.172H8.28911V8.07109H8.00764L8.00675 8.38933ZM12.0873 9.18137C12.0873 9.11772 12.0873 9.05824 12.0873 8.99875C12.0868 8.84266 12.058 8.68796 12.0024 8.54221C11.955 8.41575 11.8769 8.30325 11.7751 8.21504C11.639 8.10173 11.4703 8.03532 11.2938 8.02559C11.0662 8.00685 10.8516 8.04849 10.6589 8.1743C10.3576 8.37268 10.2126 8.66356 10.181 9.016C10.1753 9.11045 10.1765 9.20518 10.1845 9.29945C10.1926 9.43652 10.2255 9.57097 10.2816 9.69621C10.4322 10.0371 10.7025 10.2057 11.0632 10.2408C11.1938 10.2517 11.3252 10.245 11.4539 10.2209C11.6246 10.1931 11.7877 10.1299 11.9328 10.0353C11.9368 10.032 11.9402 10.0278 11.9425 10.0232C11.9449 10.0185 11.9464 10.0134 11.9467 10.0082C11.9467 9.93534 11.9467 9.86277 11.9467 9.7899C11.9467 9.78306 11.9467 9.77592 11.9467 9.7661C11.9384 9.77146 11.9322 9.77503 11.9263 9.77919C11.851 9.83452 11.7699 9.88149 11.6845 9.91928C11.4881 10.0095 11.2691 10.0378 11.0564 10.0005C10.9579 9.98581 10.864 9.94871 10.782 9.89201C10.6999 9.8353 10.6318 9.7605 10.5829 9.67331C10.522 9.56332 10.4848 9.44174 10.4737 9.3164C10.4689 9.27298 10.4669 9.22926 10.4633 9.18316L12.0873 9.18137ZM5.47827 8.86343L5.24623 8.89317L4.82418 8.95117C4.69415 8.96603 4.56661 8.99782 4.44474 9.04575C4.32722 9.08939 4.22453 9.16585 4.14877 9.26614C4.04962 9.40474 4.02358 9.56118 4.04489 9.72714C4.05431 9.81948 4.08737 9.90779 4.14084 9.98347C4.19432 10.0592 4.26639 10.1196 4.35003 10.159C4.51863 10.2418 4.70943 10.2674 4.89373 10.2319C5.00518 10.2155 5.11169 10.1747 5.20574 10.1124C5.29978 10.0501 5.37908 9.96785 5.43802 9.87139C5.44927 9.85384 5.45992 9.8363 5.47087 9.81845L5.47738 9.81994V10.1947H5.75767C5.75767 10.1867 5.75945 10.1792 5.75945 10.1721C5.75945 9.71227 5.75945 9.25226 5.75945 8.79204C5.76 8.68912 5.74585 8.58666 5.71742 8.48778C5.66325 8.30487 5.55552 8.16805 5.37942 8.09013C5.26741 8.04352 5.14726 8.01986 5.02603 8.02053C4.89628 8.01852 4.76686 8.03413 4.64127 8.06693C4.51227 8.0975 4.38849 8.14711 4.27397 8.21415C4.26511 8.21858 4.25781 8.22563 4.25305 8.23435C4.24829 8.24307 4.24629 8.25304 4.24733 8.26293C4.24881 8.34056 4.24733 8.41818 4.24733 8.49581C4.24733 8.50325 4.24733 8.51068 4.24881 8.52139C4.26775 8.50711 4.28314 8.49522 4.29883 8.48392C4.53117 8.31379 4.78777 8.22575 5.07753 8.25966C5.14238 8.26459 5.20501 8.28555 5.25985 8.32068C5.31468 8.35581 5.36003 8.40402 5.39185 8.46101C5.46229 8.58474 5.4762 8.72096 5.47827 8.86343ZM10.0599 7.29928V7.08335C10.0599 7.04528 10.0599 7.04528 10.0247 7.03517C9.90097 7.00222 9.77143 6.99795 9.64584 7.02268C9.50338 7.04326 9.37411 7.11773 9.28446 7.23087C9.18235 7.36204 9.14565 7.51521 9.14091 7.67701C9.13736 7.79865 9.14091 7.9203 9.14091 8.04224V8.07198H8.75053V8.30635H9.14121V10.1956H9.42208V8.30278H9.9794V8.06931H9.42208C9.42208 8.06128 9.42208 8.05563 9.42208 8.04998C9.42208 7.93636 9.41912 7.82245 9.42386 7.70913C9.42628 7.63994 9.4362 7.57123 9.45346 7.5042C9.48779 7.37245 9.56977 7.28292 9.70681 7.25526C9.82599 7.22776 9.95101 7.24334 10.0599 7.29928ZM13.7533 8.33699V8.30992C13.7533 8.23557 13.7533 8.16121 13.7533 8.08686C13.7533 8.06485 13.7453 8.05711 13.7264 8.05176C13.6595 8.03424 13.5904 8.02643 13.5213 8.02856C13.4234 8.02924 13.3275 8.05548 13.2428 8.1047C13.1167 8.18001 13.0182 8.29424 12.9619 8.43038C12.9486 8.46012 12.9367 8.48986 12.9243 8.52109H12.9187V8.07079H12.6399V10.1947H12.9184V10.1623C12.9184 9.82242 12.9184 9.48256 12.9184 9.14271C12.9182 9.04382 12.9286 8.9452 12.9495 8.84856C12.9737 8.72001 13.0235 8.5977 13.096 8.48897C13.1553 8.39682 13.2445 8.3281 13.3484 8.29446C13.4151 8.27255 13.4856 8.26502 13.5554 8.27234C13.6252 8.27967 13.6926 8.3017 13.7533 8.33699Z" fill="white"/>
<path d="M8.0068 8.38496V8.06672H8.28827V11.1677H8.00769V9.81557L8.00088 9.81319L7.98046 9.8462C7.92356 9.94228 7.84689 10.025 7.75556 10.0889C7.66424 10.1528 7.56039 10.1963 7.45097 10.2165C7.29005 10.2516 7.12333 10.2498 6.96321 10.2111C6.68647 10.1421 6.49439 9.97142 6.37985 9.71088C6.31626 9.56123 6.28199 9.40066 6.27892 9.23797C6.26996 9.07304 6.28857 8.90776 6.33397 8.74901C6.40382 8.51791 6.52606 8.3234 6.72791 8.18539C6.85909 8.09628 7.01019 8.0412 7.16772 8.02508C7.30246 8.0069 7.43943 8.01498 7.57113 8.04888C7.74533 8.09412 7.89463 8.20683 7.98638 8.36236C7.99052 8.3693 7.99496 8.37614 7.9997 8.38288L8.0068 8.38496ZM8.00295 9.09253H8.01213C8.00739 8.99498 8.00946 8.89623 7.99674 8.79957C7.97893 8.65101 7.90638 8.51455 7.79341 8.41709C7.62056 8.2657 7.41515 8.22346 7.19436 8.25737C6.93687 8.29722 6.76047 8.44742 6.65629 8.68536C6.59915 8.82093 6.56898 8.96643 6.56749 9.11365C6.56217 9.30281 6.58584 9.48662 6.67464 9.65734C6.71089 9.73203 6.76156 9.79874 6.8237 9.85358C6.88585 9.90842 6.95822 9.95029 7.03661 9.97677C7.16879 10.0197 7.31014 10.0254 7.44534 9.99343C7.76825 9.92561 7.97099 9.67608 8.00118 9.35724C8.00976 9.2695 8.00295 9.18087 8.00295 9.09253Z" fill="#0C2030"/>
<path d="M12.0874 9.17782H10.4652C10.4687 9.22392 10.4708 9.26704 10.4755 9.31106C10.4867 9.4364 10.5239 9.55798 10.5847 9.66797C10.6336 9.75516 10.7017 9.82997 10.7838 9.88667C10.8659 9.94337 10.9598 9.98047 11.0583 9.99513C11.271 10.0324 11.49 10.0041 11.6863 9.91394C11.7717 9.87615 11.8528 9.82918 11.9282 9.77385C11.9341 9.76969 11.9403 9.76612 11.9486 9.76077C11.9486 9.77058 11.9486 9.77772 11.9486 9.78456C11.9486 9.85743 11.9486 9.93 11.9486 10.0029C11.9482 10.0081 11.9468 10.0132 11.9444 10.0178C11.942 10.0225 11.9387 10.0266 11.9347 10.0299C11.7892 10.1247 11.6255 10.188 11.4543 10.2155C11.3255 10.2397 11.1942 10.2464 11.0636 10.2355C10.7028 10.2004 10.4326 10.0317 10.282 9.69087C10.2259 9.56563 10.193 9.43119 10.1849 9.29411C10.1769 9.19984 10.1757 9.10511 10.1813 9.01067C10.213 8.65822 10.3589 8.36734 10.6593 8.16896C10.852 8.04226 11.0666 8.00062 11.2942 8.02025C11.4707 8.02998 11.6393 8.09639 11.7754 8.20971C11.8773 8.29791 11.9554 8.41041 12.0027 8.53687C12.0584 8.68262 12.0871 8.83732 12.0877 8.99342C12.088 9.05468 12.0874 9.11417 12.0874 9.17782ZM10.4732 8.94166H11.7982C11.7991 8.81362 11.7731 8.68684 11.7219 8.56959C11.692 8.5005 11.6476 8.43872 11.5918 8.38846C11.536 8.33821 11.47 8.30067 11.3984 8.27841C11.297 8.24762 11.1901 8.2396 11.0852 8.25491C10.9494 8.27031 10.8221 8.32911 10.7221 8.42266C10.6013 8.53538 10.5338 8.67815 10.4948 8.83638C10.4865 8.87058 10.4806 8.90568 10.4732 8.94166Z" fill="#0C2030"/>
<path d="M5.47828 8.85967C5.47621 8.7172 5.46229 8.58098 5.39126 8.45726C5.35972 8.40066 5.31483 8.3527 5.26055 8.31759C5.20626 8.28249 5.14423 8.2613 5.0799 8.2559C4.79015 8.22199 4.53354 8.31003 4.3012 8.48016C4.28551 8.49146 4.27012 8.50336 4.25118 8.51763C4.25118 8.50693 4.2497 8.49949 4.2497 8.49205C4.2497 8.41443 4.2497 8.3368 4.2497 8.25917C4.24866 8.24928 4.25066 8.23931 4.25542 8.23059C4.26018 8.22188 4.26748 8.21483 4.27634 8.2104C4.39086 8.14335 4.51464 8.09374 4.64364 8.06317C4.76923 8.03038 4.89865 8.01477 5.0284 8.01677C5.14963 8.0161 5.26978 8.03977 5.38179 8.08637C5.55789 8.1643 5.66563 8.30111 5.71979 8.48402C5.74812 8.58292 5.76218 8.68538 5.76152 8.78829C5.76152 9.2483 5.76152 9.70832 5.76152 10.1683C5.76152 10.1755 5.76152 10.1829 5.75975 10.1909H5.47946V9.81618L5.47295 9.81469C5.462 9.83254 5.45134 9.85009 5.4401 9.86764C5.38115 9.96409 5.30186 10.0464 5.20781 10.1087C5.11376 10.1709 5.00726 10.2117 4.89581 10.2281C4.7115 10.2636 4.52071 10.238 4.35211 10.1552C4.26846 10.1159 4.1964 10.0554 4.14292 9.97971C4.08944 9.90403 4.05638 9.81572 4.04696 9.72339C4.02565 9.55742 4.0517 9.40098 4.15085 9.26238C4.22661 9.1621 4.32929 9.08563 4.44682 9.04199C4.56874 8.99447 4.69628 8.96308 4.82625 8.9486L5.24831 8.8906L5.47828 8.85967ZM5.47591 9.08541C5.42204 9.09225 5.37054 9.0985 5.31904 9.10534L4.9621 9.15293C4.84506 9.16527 4.72937 9.18816 4.61641 9.22134C4.53264 9.24396 4.45776 9.29181 4.40183 9.35845C4.35861 9.42017 4.33386 9.49303 4.3305 9.56843C4.31834 9.65418 4.3361 9.74151 4.38078 9.81558C4.42546 9.88965 4.49429 9.94588 4.57557 9.97471C4.70417 10.0213 4.84399 10.0266 4.97572 9.98988C5.10551 9.95831 5.22187 9.88589 5.3078 9.78317C5.41058 9.66227 5.46953 9.50993 5.47502 9.35101C5.48064 9.26327 5.47591 9.17494 5.47591 9.08541Z" fill="#0C2030"/>
<path d="M10.06 7.29512C9.95062 7.23838 9.82477 7.22247 9.70482 7.25021C9.56778 7.27787 9.4858 7.36739 9.45147 7.49915C9.43422 7.56618 9.42429 7.63489 9.42187 7.70408C9.41714 7.81739 9.42039 7.93131 9.4201 8.04492C9.4201 8.05058 9.4201 8.05623 9.4201 8.06426H9.97948V8.29863H9.42217V10.1899H9.14129V8.30071H8.75061V8.06515H9.14011V8.03541C9.14011 7.91346 9.13744 7.79182 9.14011 7.67017C9.14484 7.50808 9.18154 7.3549 9.28365 7.22404C9.37331 7.1109 9.50257 7.03643 9.64503 7.01584C9.77063 6.99111 9.90017 6.99538 10.0239 7.02833C10.0591 7.03844 10.0591 7.03844 10.0591 7.07651L10.06 7.29512Z" fill="#0C2030"/>
<path d="M13.7534 8.33318C13.6928 8.29778 13.6255 8.2756 13.5558 8.26806C13.4862 8.26053 13.4157 8.26782 13.3491 8.28946C13.2451 8.32311 13.1559 8.39182 13.0966 8.48398C13.0242 8.59271 12.9743 8.71501 12.9501 8.84356C12.9293 8.94021 12.9188 9.03883 12.919 9.13771C12.919 9.47737 12.919 9.81722 12.919 10.1573V10.1897H12.6405V8.06699H12.9193V8.51729H12.9249C12.9374 8.48755 12.9492 8.45632 12.9625 8.42658C13.0188 8.29044 13.1173 8.17621 13.2434 8.1009C13.3281 8.05168 13.4241 8.02544 13.5219 8.02476C13.591 8.02263 13.6601 8.03044 13.727 8.04796C13.746 8.05361 13.7542 8.06104 13.7539 8.08305C13.7522 8.15711 13.7539 8.23176 13.7539 8.30612L13.7534 8.33318Z" fill="#0C2030"/>
</svg>
