<svg width="100%" height="100%" viewBox="0 0 80 80" fill="none" xmlns="http://www.w3.org/2000/svg">
<path fill-rule="evenodd" clip-rule="evenodd" d="M48.6091 55.1919H33.751C32.7713 55.1919 31.976 54.396 31.976 53.4153C31.976 52.4346 32.7713 51.6388 33.751 51.6388H48.6091C49.5888 51.6388 50.3841 52.4346 50.3841 53.4153C50.3841 54.396 49.5888 55.1919 48.6091 55.1919Z" fill="#1E1E1E"/>
<path fill-rule="evenodd" clip-rule="evenodd" d="M68.2247 55.1919H59.491C58.5111 55.1919 57.716 54.3962 57.716 53.4155C57.716 52.4349 58.5111 51.639 59.491 51.639H66.4496V42.0995C66.4496 40.1365 64.861 38.5466 62.8994 38.5466H11.7751C10.7953 38.5466 10 37.7506 10 36.7699C10 35.7894 10.7953 34.9937 11.7751 34.9937H62.8994C66.8206 34.9937 70 38.1753 70 42.0995V53.4155C70 54.3962 69.2048 55.1919 68.2247 55.1919Z" fill="#1E1E1E"/>
<path fill-rule="evenodd" clip-rule="evenodd" d="M18.0412 55.1919H15.3251C14.3452 55.1919 13.5498 54.3962 13.5498 53.4155V36.8413C13.5498 35.8605 14.3452 35.0648 15.3251 35.0648C16.3048 35.0648 17.1004 35.8605 17.1004 36.8413V51.6392H17.9879C18.9676 51.6392 19.763 52.435 19.763 53.4155C19.763 54.3962 18.9676 55.1919 17.9879 55.1919H18.0412Z" fill="#1E1E1E"/>
<path fill-rule="evenodd" clip-rule="evenodd" d="M28.3017 60.6807C24.3111 60.6807 21.0767 57.4439 21.0767 53.4506C21.0767 49.4571 24.3111 46.2203 28.3017 46.2203C32.2922 46.2203 35.5267 49.4571 35.5267 53.4506C35.5267 57.4439 32.2922 60.6807 28.3017 60.6807ZM28.3017 49.791C26.2727 49.791 24.627 51.4379 24.627 53.4682C24.627 55.4987 26.2727 57.1454 28.3017 57.1454C30.3306 57.1454 31.9763 55.4987 31.9763 53.4682C31.9763 53.4629 31.9763 53.4557 31.9763 53.4506C31.9675 51.4271 30.3236 49.791 28.3017 49.791Z" fill="#1E1E1E"/>
<path fill-rule="evenodd" clip-rule="evenodd" d="M54.0409 60.6807C50.0504 60.6807 46.816 57.4439 46.816 53.4506C46.816 49.4571 50.0504 46.2203 54.0409 46.2203C58.0315 46.2203 61.2659 49.4571 61.2659 53.4506C61.2659 57.4439 58.0315 60.6807 54.0409 60.6807ZM54.0409 49.791C52.012 49.791 50.3663 51.4379 50.3663 53.4682C50.3663 55.4987 52.012 57.1454 54.0409 57.1454C56.0699 57.1454 57.7156 55.4987 57.7156 53.4682C57.7156 53.4629 57.7156 53.4557 57.7156 53.4506C57.7156 51.4289 56.0789 49.791 54.0587 49.791C54.0533 49.791 54.0462 49.791 54.0409 49.791Z" fill="#1E1E1E"/>
<path fill-rule="evenodd" clip-rule="evenodd" d="M54.0408 38.6167C53.3289 38.6167 52.6864 38.1904 52.4077 37.5331L47.0823 24.6182C46.8035 23.9807 46.1805 23.5648 45.4846 23.5523H26.2421C25.6386 23.5666 25.083 23.888 24.7689 24.405L16.9048 37.7462C16.3279 38.5402 15.2184 38.7144 14.425 38.1389C13.7452 37.6433 13.5054 36.7371 13.8517 35.97L21.7155 22.6286C22.6688 21.0334 24.3852 20.0511 26.2421 20.0351H45.5024C47.6275 20.0511 49.5374 21.3282 50.3664 23.2859L55.6916 36.2008C56.0698 37.105 55.6438 38.146 54.7402 38.5261C54.7367 38.5261 54.735 38.5279 54.7332 38.5279C54.5095 38.6007 54.2751 38.6308 54.0408 38.6167Z" fill="#1E1E1E"/>
<path fill-rule="evenodd" clip-rule="evenodd" d="M35.686 41.0332C34.706 41.0332 33.9108 40.2373 33.9108 39.2568V21.7764C33.9108 20.7957 34.706 19.9999 35.686 19.9999C36.6659 19.9999 37.4613 20.7957 37.4613 21.7764V39.2568C37.4613 40.2373 36.6659 41.0332 35.686 41.0332Z" fill="#1E1E1E"/>
</svg>
