<svg width="100%" height="100%" viewBox="0 0 18 18" fill="none" xmlns="http://www.w3.org/2000/svg">
<circle cx="9" cy="9" r="9" fill="#005587"/>
<path fill-rule="evenodd" clip-rule="evenodd" d="M10.9368 12.418H7.59373C7.37329 12.418 7.19434 12.2389 7.19434 12.0182C7.19434 11.7976 7.37329 11.6185 7.59373 11.6185H10.9368C11.1572 11.6185 11.3362 11.7976 11.3362 12.0182C11.3362 12.2389 11.1572 12.418 10.9368 12.418Z" fill="white"/>
<path fill-rule="evenodd" clip-rule="evenodd" d="M15.3506 12.418H13.3855C13.165 12.418 12.9861 12.2389 12.9861 12.0183C12.9861 11.7977 13.165 11.6186 13.3855 11.6186H14.9512V9.47218C14.9512 9.03051 14.5937 8.67278 14.1524 8.67278H2.64939C2.42895 8.67278 2.25 8.49369 2.25 8.27303C2.25 8.05241 2.42895 7.87338 2.64939 7.87338H14.1524C15.0346 7.87338 15.75 8.58923 15.75 9.47218V12.0183C15.75 12.2389 15.5711 12.418 15.3506 12.418Z" fill="white"/>
<path fill-rule="evenodd" clip-rule="evenodd" d="M4.05939 12.418H3.44827C3.22779 12.418 3.04883 12.2389 3.04883 12.0183V8.28907C3.04883 8.06841 3.22779 7.88937 3.44827 7.88937C3.66871 7.88937 3.84772 8.06841 3.84772 8.28907V11.6186H4.0474C4.26784 11.6186 4.44679 11.7977 4.44679 12.0183C4.44679 12.2389 4.26784 12.418 4.0474 12.418H4.05939Z" fill="white"/>
<path fill-rule="evenodd" clip-rule="evenodd" d="M6.36781 13.6533C5.46993 13.6533 4.74219 12.925 4.74219 12.0266C4.74219 11.128 5.46993 10.3997 6.36781 10.3997C7.26569 10.3997 7.99344 11.128 7.99344 12.0266C7.99344 12.925 7.26569 13.6533 6.36781 13.6533ZM6.36781 11.2031C5.9113 11.2031 5.54102 11.5737 5.54102 12.0305C5.54102 12.4874 5.9113 12.8579 6.36781 12.8579C6.82433 12.8579 7.19461 12.4874 7.19461 12.0305C7.19461 12.0293 7.19461 12.0277 7.19461 12.0266C7.19262 11.5713 6.82274 11.2031 6.36781 11.2031Z" fill="white"/>
<path fill-rule="evenodd" clip-rule="evenodd" d="M12.1593 13.6533C11.2614 13.6533 10.5337 12.925 10.5337 12.0266C10.5337 11.128 11.2614 10.3997 12.1593 10.3997C13.0572 10.3997 13.7849 11.128 13.7849 12.0266C13.7849 12.925 13.0572 13.6533 12.1593 13.6533ZM12.1593 11.2031C11.7028 11.2031 11.3325 11.5737 11.3325 12.0305C11.3325 12.4874 11.7028 12.8579 12.1593 12.8579C12.6158 12.8579 12.9861 12.4874 12.9861 12.0305C12.9861 12.0293 12.9861 12.0277 12.9861 12.0266C12.9861 11.5717 12.6178 11.2031 12.1633 11.2031C12.1621 11.2031 12.1605 11.2031 12.1593 11.2031Z" fill="white"/>
<path fill-rule="evenodd" clip-rule="evenodd" d="M12.159 8.68869C11.9989 8.68869 11.8543 8.59277 11.7916 8.44487L10.5934 5.53903C10.5306 5.39558 10.3905 5.30202 10.2339 5.2992H5.90434C5.76855 5.30241 5.64354 5.37474 5.57285 5.49106L3.80343 8.49283C3.67363 8.67147 3.424 8.71067 3.24549 8.58118C3.09252 8.46966 3.03856 8.26578 3.11648 8.09317L4.88584 5.09136C5.10034 4.73244 5.48653 4.51143 5.90434 4.50782H10.2379C10.716 4.51143 11.1458 4.79878 11.3323 5.23926L12.5305 8.14511C12.6156 8.34855 12.5197 8.58277 12.3164 8.6683C12.3156 8.6683 12.3152 8.66869 12.3148 8.66869C12.2645 8.68508 12.2118 8.69187 12.159 8.68869Z" fill="white"/>
<path fill-rule="evenodd" clip-rule="evenodd" d="M8.0293 9.23242C7.80882 9.23242 7.62988 9.05334 7.62988 8.83272V4.89964C7.62988 4.67898 7.80882 4.49994 8.0293 4.49994C8.24978 4.49994 8.42874 4.67898 8.42874 4.89964V8.83272C8.42874 9.05334 8.24978 9.23242 8.0293 9.23242Z" fill="white"/>
</svg>
