<svg width="100%" height="100%" viewBox="0 0 18 18" fill="none" xmlns="http://www.w3.org/2000/svg">
<circle cx="9" cy="9" r="8.5" fill="white" stroke="#E2EAEC"/>
<g clip-path="url(#azure_blob0)">
<path d="M8.99051 4.00278C9.90448 4.00278 10.8152 3.99949 11.7291 4.00606C11.9363 4.00606 12.0941 4.12778 12.1993 4.30541C12.3801 4.60805 12.5511 4.91398 12.7286 5.21662C13.4387 6.44691 14.1521 7.68049 14.8623 8.91407C14.9248 9.02592 14.9905 9.14105 14.9839 9.27921C14.9806 9.40751 14.9215 9.51606 14.8623 9.62133C14.2574 10.674 13.6491 11.7266 13.0409 12.7793C12.7648 13.2596 12.4886 13.7398 12.2091 14.2168C12.0875 14.4241 11.9067 14.5326 11.6601 14.5326C9.87818 14.5293 8.09955 14.5293 6.31763 14.5326C6.07105 14.5326 5.88694 14.4274 5.7653 14.2168C5.38064 13.5556 4.99927 12.8911 4.61462 12.2267C4.11489 11.3582 3.61188 10.4898 3.11215 9.62133C3.04311 9.5029 2.97407 9.38119 2.98722 9.23316C2.99708 9.11803 3.04968 9.01934 3.10229 8.92394C3.68092 7.91734 4.26284 6.91074 4.84475 5.90414C5.15051 5.37123 5.45626 4.83832 5.76859 4.31199C5.88694 4.11133 6.06119 4.00606 6.30119 4.00606C7.19872 4.00606 8.09297 4.00607 8.99051 4.00278Z" fill="#2979FF"/>
<path d="M10.4897 5.84473C9.17793 5.84473 7.86615 5.84473 6.55437 5.84473C6.53464 5.84473 6.51163 5.84473 6.4919 5.84802C6.31437 5.86775 6.18286 6.0092 6.18286 6.17697C6.18286 8.23951 6.18286 10.302 6.18615 12.3646C6.18615 12.4238 6.21245 12.4896 6.24204 12.5389C6.31766 12.6672 6.44259 12.6935 6.58067 12.6935C8.18505 12.6935 9.78944 12.6935 11.3938 12.6935C11.4168 12.6935 11.4398 12.6935 11.4661 12.6935C11.6601 12.687 11.7982 12.506 11.7982 12.3448C11.7916 10.6211 11.7949 8.89741 11.7949 7.1737" fill="#707070"/>
<path d="M11.7919 7.08791C11.7919 8.81163 11.7886 10.6176 11.7952 12.338C11.7952 12.4992 11.6571 12.6834 11.4631 12.6867C11.4401 12.6867 11.4171 12.6867 11.3908 12.6867C9.78639 12.6867 8.182 12.6867 6.57762 12.6867C6.43954 12.6867 6.3146 12.6604 6.23899 12.5321C6.2094 12.4795 6.1831 12.417 6.1831 12.3577C6.17981 10.2952 6.17981 8.23267 6.17981 6.17013C6.17981 6.00237 6.31132 5.86092 6.48885 5.84118C6.50858 5.83789 6.53159 5.83789 6.55132 5.83789C7.8631 5.83789 9.20447 5.83789 10.5162 5.83789L11.7919 7.08791Z" fill="white"/>
<path d="M10.5156 5.8418C10.5156 5.95035 10.5156 6.1247 10.5156 6.23326C10.5156 6.39773 10.5156 6.5655 10.5156 6.72998C10.5156 6.95696 10.6537 7.09183 10.8806 7.09183C11.1501 7.09183 11.5217 7.09183 11.7912 7.09183L10.5156 5.8418Z" fill="#B1CFFF"/>
<path d="M8.76382 10.7796C8.76053 10.7106 8.75396 10.5823 8.74738 10.4573C8.7441 10.4277 8.73095 10.3981 8.72437 10.3652C8.62245 9.94081 8.20492 9.84212 7.88273 9.98028C7.6493 10.079 7.56711 10.2895 7.54738 10.5198C7.53095 10.7237 7.53423 10.931 7.54738 11.1349C7.55396 11.2369 7.58355 11.3421 7.62958 11.4343C7.74793 11.6777 7.95834 11.75 8.21149 11.7336C8.43506 11.7172 8.58958 11.6086 8.68492 11.4079C8.7704 11.2237 8.75725 11.0296 8.76382 10.7796Z" fill="white"/>
<path d="M9.30859 10.5127C9.42037 10.4798 9.51243 10.4502 9.60448 10.4206C9.70312 10.391 9.71298 10.3976 9.71298 10.4995C9.71298 10.8746 9.71298 11.2528 9.71298 11.6279C9.71298 11.6904 9.72942 11.72 9.79846 11.7134C9.87079 11.7068 9.9464 11.7068 10.0187 11.7134C10.0943 11.72 10.1108 11.6871 10.1108 11.618C10.1075 11.0884 10.1108 10.562 10.1108 10.0324C10.1108 10.0061 10.1075 9.98309 10.1042 9.9502C10.0746 9.95348 10.0549 9.95349 10.0352 9.96006C9.80832 10.039 9.57818 10.1147 9.35462 10.1969C9.33818 10.2035 9.31846 10.2298 9.31517 10.2495C9.30859 10.3351 9.30859 10.4173 9.30859 10.5127Z" fill="white"/>
<path d="M8.42784 7.44336C8.35223 7.46639 8.28976 7.47954 8.2273 7.50257C8.04647 7.56507 7.86565 7.62428 7.68812 7.69007C7.67168 7.69665 7.64867 7.71968 7.64538 7.73613C7.64209 7.81837 7.64209 7.9006 7.64209 7.99929C7.78017 7.96311 7.90182 7.92692 8.03004 7.89074C8.03332 7.92034 8.03661 7.94008 8.03661 7.95982C8.03661 8.34798 8.03661 8.73286 8.03332 9.12102C8.03332 9.18023 8.04976 9.19997 8.10894 9.19997C8.19113 9.19668 8.27332 9.19668 8.35223 9.19997C8.4114 9.20326 8.43442 9.18352 8.43442 9.11773C8.43113 8.58812 8.43442 8.0585 8.43113 7.53218C8.43442 7.50586 8.43113 7.48283 8.42784 7.44336Z" fill="white"/>
<path d="M9.19434 8.32129C9.21406 8.1601 9.22064 7.99563 9.25351 7.83773C9.29954 7.60417 9.48365 7.44956 9.72036 7.42325C10.1543 7.37391 10.3878 7.62062 10.4206 8.01536C10.4371 8.2226 10.4371 8.43313 10.4206 8.63709C10.4042 8.86406 10.322 9.0713 10.0919 9.17328C9.76968 9.31473 9.34228 9.20288 9.24694 8.78511C9.24036 8.75551 9.22721 8.72919 9.22392 8.70288C9.21735 8.57787 9.21077 8.44958 9.2042 8.32458C9.20091 8.32458 9.19762 8.32129 9.19434 8.32129Z" fill="#03A9F4"/>
<path d="M10.052 8.31892C10.0389 8.17418 10.029 8.02944 10.0093 7.8847C9.99284 7.78272 9.91722 7.72022 9.82845 7.71693C9.73311 7.71364 9.66078 7.76957 9.63777 7.88141C9.62133 7.9472 9.61147 8.01628 9.60818 8.08207C9.60489 8.24655 9.60489 8.40774 9.60818 8.57221C9.60818 8.638 9.62133 8.70379 9.63777 8.76629C9.66407 8.87485 9.73969 8.93406 9.83174 8.93077C9.9238 8.92748 9.99941 8.86498 10.0159 8.75643C10.0323 8.61169 10.0389 8.46695 10.052 8.31892Z" fill="#03A9F4"/>
<path d="M8.76382 10.7796C8.75725 11.0296 8.7704 11.227 8.68492 11.4079C8.59286 11.6086 8.43506 11.7171 8.21149 11.7336C7.95834 11.75 7.74465 11.6777 7.62958 11.4342C7.58355 11.3421 7.55396 11.2369 7.54738 11.1349C7.53423 10.9309 7.53095 10.7237 7.54738 10.5197C7.56382 10.2862 7.6493 10.0757 7.88273 9.98026C8.20492 9.84539 8.62245 9.94408 8.72437 10.3651C8.73095 10.3947 8.74738 10.4243 8.74738 10.4572C8.75725 10.5822 8.76053 10.7072 8.76382 10.7796Z" fill="#03A9F4"/>
<path d="M8.38133 10.8388C8.36818 10.6875 8.3616 10.5361 8.3353 10.3914C8.31557 10.2796 8.23667 10.2236 8.14462 10.2236C8.04927 10.2269 7.97037 10.2927 7.96051 10.4046C7.94407 10.6184 7.93749 10.8355 7.9342 11.0493C7.9342 11.125 7.94735 11.2006 7.96379 11.2763C7.98352 11.3717 8.06571 11.4375 8.15119 11.4375C8.23667 11.4375 8.31886 11.3783 8.33201 11.2796C8.35832 11.1348 8.36489 10.9868 8.38133 10.8388Z" fill="#03A9F4"/>
<path d="M9.31027 10.5127C9.31027 10.4173 9.30698 10.3318 9.31356 10.2495C9.31356 10.2298 9.33328 10.2035 9.35301 10.1969C9.57984 10.118 9.80667 10.039 10.0335 9.96006C10.0532 9.95349 10.073 9.95348 10.1025 9.9502C10.1058 9.9798 10.1091 10.0061 10.1091 10.0324C10.1091 10.562 10.1091 11.0884 10.1091 11.618C10.1091 11.6871 10.0927 11.72 10.0171 11.7134C9.94474 11.7068 9.86913 11.7068 9.79681 11.7134C9.72777 11.72 9.71134 11.6904 9.71134 11.6279C9.71462 11.2528 9.71134 10.8746 9.71134 10.4995C9.71134 10.3976 9.70147 10.391 9.60285 10.4206C9.51409 10.4502 9.42204 10.4798 9.31027 10.5127Z" fill="#03A9F4"/>
<path d="M8.42855 7.44336C8.43184 7.48283 8.43513 7.50586 8.43513 7.53218C8.43513 8.06179 8.43513 8.59141 8.43841 9.11773C8.43841 9.18352 8.41869 9.19997 8.35622 9.19997C8.27403 9.19668 8.19184 9.19668 8.11293 9.19997C8.05376 9.20326 8.03732 9.18023 8.03732 9.12102C8.04061 8.73286 8.04061 8.34798 8.04061 7.95982C8.04061 7.94008 8.03732 7.92034 8.03403 7.89073C7.90581 7.92692 7.78088 7.95982 7.64609 7.99929C7.64609 7.90389 7.6428 7.81837 7.64937 7.73613C7.64937 7.71968 7.67239 7.69665 7.69211 7.69007C7.86965 7.62428 8.05047 7.56507 8.23129 7.50257C8.29047 7.47954 8.35293 7.46639 8.42855 7.44336Z" fill="#03A9F4"/>
<path d="M10.0525 8.31914C10.0393 8.46717 10.0295 8.61191 10.0097 8.75336C9.99331 8.86191 9.91769 8.92441 9.82564 8.9277C9.73358 8.93099 9.65797 8.87178 9.63166 8.76323C9.61523 8.70073 9.60536 8.63494 9.60208 8.56915C9.59879 8.40467 9.59879 8.24348 9.60208 8.07901C9.60208 8.00993 9.61523 7.94413 9.63166 7.87834C9.65797 7.76979 9.72701 7.71387 9.82235 7.71387C9.91112 7.71716 9.99002 7.77637 10.0032 7.88163C10.0295 8.02966 10.0393 8.17769 10.0525 8.31914Z" fill="white"/>
<path d="M8.38204 10.8385C8.36889 10.9866 8.35902 11.1346 8.33601 11.2826C8.31958 11.3813 8.24068 11.4372 8.1552 11.4405C8.06973 11.4405 7.98754 11.3747 7.96782 11.2793C7.95138 11.2037 7.93823 11.128 7.93823 11.0524C7.94152 10.8385 7.94809 10.6214 7.96453 10.4076C7.97439 10.2925 8.05329 10.2267 8.14863 10.2267C8.24068 10.2234 8.31958 10.2826 8.3393 10.3945C8.35902 10.5359 8.3656 10.6872 8.38204 10.8385Z" fill="white"/>
</g>
<defs>
<clipPath id="azure_blob0">
<rect width="12" height="10.5265" fill="white" transform="translate(3 4)"/>
</clipPath>
</defs>
</svg>
