<svg width="100%" height="100%" viewBox="0 0 26 26" fill="none" xmlns="http://www.w3.org/2000/svg">
<circle cx="13" cy="13" r="12.5" fill="white" stroke="#E2EAEC"/>
<g clip-path="url(#azure-blob0)">
<path d="M12.9863 5.78244C14.3064 5.78244 15.6219 5.77769 16.9421 5.78719C17.2412 5.78719 17.4692 5.963 17.6211 6.21958C17.8823 6.65673 18.1293 7.09862 18.3857 7.53577C19.4115 9.31286 20.442 11.0947 21.4677 12.8765C21.5579 13.0381 21.6529 13.2044 21.6434 13.404C21.6387 13.5893 21.5532 13.7461 21.4677 13.8981C20.5939 15.4186 19.7154 16.9391 18.8369 18.4596C18.4379 19.1534 18.039 19.8471 17.6354 20.5361C17.4597 20.8354 17.1985 20.9922 16.8423 20.9922C14.2684 20.9875 11.6993 20.9875 9.12544 20.9922C8.76927 20.9922 8.50334 20.8402 8.32763 20.5361C7.77201 19.581 7.22115 18.6212 6.66553 17.6614C5.9437 16.407 5.21713 15.1525 4.4953 13.8981C4.39557 13.7271 4.29585 13.5513 4.31484 13.3374C4.32909 13.1711 4.40507 13.0286 4.48105 12.8908C5.31685 11.4368 6.1574 9.98283 6.99795 8.52885C7.43959 7.75909 7.88124 6.98934 8.33238 6.22909C8.50334 5.93924 8.75503 5.78719 9.10169 5.78719C10.3981 5.78719 11.6898 5.78719 12.9863 5.78244Z" fill="#2979FF"/>
<path d="M15.1517 8.44141C13.2569 8.44141 11.3621 8.44141 9.46729 8.44141C9.43879 8.44141 9.40555 8.44141 9.37706 8.44616C9.12062 8.47467 8.93066 8.67898 8.93066 8.92131C8.93066 11.9005 8.93066 14.8798 8.93541 17.859C8.93541 17.9445 8.9734 18.0395 9.01614 18.1108C9.12537 18.2961 9.30582 18.3341 9.50528 18.3341C11.8227 18.3341 14.1402 18.3341 16.4576 18.3341C16.4908 18.3341 16.5241 18.3341 16.5621 18.3341C16.8423 18.3246 17.0417 18.0633 17.0417 17.8305C17.0322 15.3407 17.037 12.8508 17.037 10.361" fill="#707070"/>
<path d="M17.0328 10.2392C17.0328 12.729 17.0281 15.3376 17.0376 17.8226C17.0376 18.0555 16.8381 18.3216 16.5579 18.3263C16.5247 18.3263 16.4914 18.3263 16.4535 18.3263C14.136 18.3263 11.8186 18.3263 9.50113 18.3263C9.30167 18.3263 9.12122 18.2883 9.01199 18.103C8.96925 18.027 8.93126 17.9367 8.93126 17.8512C8.92651 14.8719 8.92651 11.8927 8.92651 8.9135C8.92651 8.67117 9.11647 8.46685 9.37291 8.43835C9.4014 8.43359 9.43464 8.43359 9.46313 8.43359C11.3579 8.43359 13.2955 8.43359 15.1903 8.43359L17.0328 10.2392Z" fill="white"/>
<path d="M15.1892 8.4375C15.1892 8.5943 15.1892 8.84614 15.1892 9.00294C15.1892 9.24052 15.1892 9.48285 15.1892 9.72043C15.1892 10.0483 15.3887 10.2431 15.7163 10.2431C16.1057 10.2431 16.6424 10.2431 17.0318 10.2431L15.1892 8.4375Z" fill="#B1CFFF"/>
<path d="M12.6589 15.571C12.6541 15.4712 12.6446 15.2859 12.6352 15.1054C12.6304 15.0626 12.6114 15.0198 12.6019 14.9723C12.4547 14.3594 11.8516 14.2168 11.3862 14.4164C11.049 14.5589 10.9303 14.863 10.9018 15.1956C10.8781 15.4902 10.8828 15.7896 10.9018 16.0842C10.9113 16.2315 10.9541 16.3835 11.0205 16.5166C11.1915 16.8682 11.4954 16.9727 11.8611 16.949C12.184 16.9252 12.4072 16.7684 12.5449 16.4786C12.6684 16.2125 12.6494 15.9321 12.6589 15.571Z" fill="white"/>
<path d="M13.4458 15.1875C13.6073 15.14 13.7402 15.0972 13.8732 15.0545C14.0157 15.0117 14.0299 15.0212 14.0299 15.1685C14.0299 15.7102 14.0299 16.2566 14.0299 16.7983C14.0299 16.8886 14.0537 16.9313 14.1534 16.9218C14.2579 16.9123 14.3671 16.9123 14.4716 16.9218C14.5808 16.9313 14.6045 16.8838 14.6045 16.784C14.5998 16.019 14.6045 15.2588 14.6045 14.4938C14.6045 14.4558 14.5998 14.4225 14.595 14.375C14.5523 14.3798 14.5238 14.3798 14.4953 14.3893C14.1676 14.5033 13.8352 14.6126 13.5123 14.7314C13.4885 14.7409 13.46 14.7789 13.4553 14.8074C13.4458 14.9309 13.4458 15.0497 13.4458 15.1875Z" fill="white"/>
<path d="M12.1736 10.7539C12.0643 10.7872 11.9741 10.8062 11.8839 10.8394C11.6227 10.9297 11.3615 11.0152 11.1051 11.1103C11.0813 11.1198 11.0481 11.153 11.0433 11.1768C11.0386 11.2956 11.0386 11.4144 11.0386 11.5569C11.238 11.5047 11.4137 11.4524 11.5989 11.4001C11.6037 11.4429 11.6084 11.4714 11.6084 11.4999C11.6084 12.0606 11.6084 12.6165 11.6037 13.1772C11.6037 13.2627 11.6274 13.2912 11.7129 13.2912C11.8316 13.2865 11.9504 13.2865 12.0643 13.2912C12.1498 13.296 12.183 13.2675 12.183 13.1724C12.1783 12.4074 12.183 11.6424 12.1783 10.8822C12.183 10.8442 12.1783 10.8109 12.1736 10.7539Z" fill="white"/>
<path d="M13.2805 12.0211C13.309 11.7882 13.3185 11.5506 13.366 11.3226C13.4325 10.9852 13.6984 10.7619 14.0403 10.7239C14.6672 10.6526 15.0044 11.009 15.0518 11.5792C15.0756 11.8785 15.0756 12.1826 15.0518 12.4772C15.0281 12.8051 14.9094 13.1044 14.577 13.2517C14.1116 13.456 13.4942 13.2945 13.3565 12.691C13.347 12.6483 13.328 12.6102 13.3233 12.5722C13.3138 12.3917 13.3043 12.2064 13.2948 12.0258C13.29 12.0258 13.2853 12.0211 13.2805 12.0211Z" fill="#03A9F4"/>
<path d="M14.5194 12.0182C14.5004 11.8091 14.4862 11.6 14.4577 11.391C14.4339 11.2437 14.3247 11.1534 14.1965 11.1486C14.0588 11.1439 13.9543 11.2247 13.9211 11.3862C13.8973 11.4812 13.8831 11.581 13.8783 11.6761C13.8736 11.9136 13.8736 12.1465 13.8783 12.384C13.8783 12.4791 13.8973 12.5741 13.9211 12.6644C13.959 12.8212 14.0683 12.9067 14.2012 12.902C14.3342 12.8972 14.4434 12.8069 14.4672 12.6501C14.4909 12.4411 14.5004 12.232 14.5194 12.0182Z" fill="#03A9F4"/>
<path d="M12.6589 15.5721C12.6494 15.9332 12.6684 16.2183 12.5449 16.4796C12.412 16.7695 12.184 16.9263 11.8611 16.95C11.4954 16.9738 11.1868 16.8693 11.0205 16.5176C10.9541 16.3846 10.9113 16.2325 10.9018 16.0852C10.8828 15.7906 10.8781 15.4913 10.9018 15.1967C10.9256 14.8593 11.049 14.5552 11.3862 14.4175C11.8516 14.2226 12.4547 14.3652 12.6019 14.9734C12.6114 15.0161 12.6352 15.0589 12.6352 15.1064C12.6494 15.287 12.6541 15.4675 12.6589 15.5721Z" fill="#03A9F4"/>
<path d="M12.1063 15.6581C12.0873 15.4395 12.0778 15.2209 12.0398 15.0119C12.0113 14.8503 11.8973 14.7695 11.7644 14.7695C11.6267 14.7743 11.5127 14.8693 11.4984 15.0309C11.4747 15.3397 11.4652 15.6533 11.4604 15.9622C11.4604 16.0715 11.4794 16.1807 11.5032 16.29C11.5317 16.4278 11.6504 16.5229 11.7739 16.5229C11.8973 16.5229 12.0161 16.4373 12.0351 16.2948C12.0731 16.0857 12.0826 15.8719 12.1063 15.6581Z" fill="#03A9F4"/>
<path d="M13.4482 15.1875C13.4482 15.0497 13.4435 14.9262 13.453 14.8074C13.453 14.7789 13.4814 14.7409 13.5099 14.7314C13.8376 14.6173 14.1652 14.5033 14.4929 14.3893C14.5214 14.3798 14.5499 14.3798 14.5926 14.375C14.5973 14.4178 14.6021 14.4558 14.6021 14.4938C14.6021 15.2588 14.6021 16.019 14.6021 16.784C14.6021 16.8838 14.5784 16.9313 14.4691 16.9218C14.3647 16.9123 14.2555 16.9123 14.151 16.9218C14.0513 16.9313 14.0275 16.8886 14.0275 16.7983C14.0323 16.2566 14.0275 15.7102 14.0275 15.1685C14.0275 15.0212 14.0133 15.0117 13.8708 15.0545C13.7426 15.0972 13.6097 15.14 13.4482 15.1875Z" fill="#03A9F4"/>
<path d="M12.1746 10.7539C12.1794 10.8109 12.1841 10.8442 12.1841 10.8822C12.1841 11.6472 12.1841 12.4122 12.1889 13.1724C12.1889 13.2675 12.1604 13.2912 12.0702 13.2912C11.9514 13.2865 11.8327 13.2865 11.7187 13.2912C11.6333 13.296 11.6095 13.2627 11.6095 13.1772C11.6143 12.6165 11.6143 12.0606 11.6143 11.4999C11.6143 11.4714 11.6095 11.4429 11.6048 11.4001C11.4196 11.4524 11.2391 11.4999 11.0444 11.5569C11.0444 11.4191 11.0397 11.2956 11.0491 11.1768C11.0491 11.153 11.0824 11.1198 11.1109 11.1103C11.3673 11.0152 11.6285 10.9297 11.8897 10.8394C11.9752 10.8062 12.0654 10.7872 12.1746 10.7539Z" fill="#03A9F4"/>
<path d="M14.5204 12.0149C14.5014 12.2287 14.4871 12.4378 14.4586 12.6421C14.4349 12.7989 14.3257 12.8892 14.1927 12.8939C14.0597 12.8987 13.9505 12.8132 13.9125 12.6564C13.8888 12.5661 13.8745 12.4711 13.8698 12.376C13.865 12.1384 13.865 11.9056 13.8698 11.668C13.8698 11.5683 13.8888 11.4732 13.9125 11.3782C13.9505 11.2214 14.0502 11.1406 14.1879 11.1406C14.3162 11.1454 14.4301 11.2309 14.4491 11.383C14.4871 11.5968 14.5014 11.8106 14.5204 12.0149Z" fill="white"/>
<path d="M12.1074 15.6574C12.0884 15.8712 12.0741 16.0851 12.0409 16.2989C12.0171 16.4414 11.9032 16.5222 11.7797 16.5269C11.6562 16.5269 11.5375 16.4319 11.509 16.2941C11.4853 16.1848 11.4663 16.0755 11.4663 15.9663C11.4711 15.6574 11.4806 15.3438 11.5043 15.035C11.5185 14.8687 11.6325 14.7736 11.7702 14.7736C11.9032 14.7689 12.0171 14.8544 12.0456 15.016C12.0741 15.2203 12.0836 15.4388 12.1074 15.6574Z" fill="white"/>
</g>
<defs>
<clipPath id="azure-blob0">
<rect width="17.3333" height="15.2049" fill="white" transform="translate(4.33325 5.77734)"/>
</clipPath>
</defs>
</svg>
