<svg width="100%" height="100%" viewBox="0 0 26 26" fill="none" xmlns="http://www.w3.org/2000/svg">
<circle cx="13" cy="13" r="12.5" fill="white" stroke="#E2EAEC"/>
<path d="M18.215 13.1969C18.5641 13.5929 18.9814 13.9505 19.2538 14.3932C21.2548 17.6203 19.3688 21.5455 15.8948 22.1756C13.1744 22.6737 10.6711 20.9963 10.0027 18.2589C10.7136 18.3824 11.4246 18.3781 12.1313 18.2376C12.1569 18.2887 12.1781 18.3398 12.2037 18.3909C12.7486 19.6638 14.1578 20.4131 15.5244 20.1619C17.1933 19.8511 18.2959 18.2461 17.9511 16.5772C17.7254 15.4789 17.0656 14.7168 16.0012 14.3251C15.9672 14.3038 15.9374 14.2698 15.899 14.257C15.4691 14.1208 15.0263 14.0697 14.5835 14.1506C14.3238 14.1974 14.0769 14.2996 13.8215 14.3805C13.0339 14.704 12.4889 15.2617 12.1696 16.0493C11.4544 16.3729 10.7264 16.3686 9.99414 16.1132C10.058 15.8876 10.1176 15.6619 10.1942 15.4448C10.505 14.555 11.05 13.8228 11.7482 13.2012C12.374 12.7244 13.0594 12.371 13.83 12.1879C14.5495 12.0262 15.2732 12.0177 15.997 12.1539C16.8186 12.3242 17.5509 12.6903 18.215 13.1969Z" fill="#5799C9"/>
<path d="M13.8299 12.1925C13.0594 12.3755 12.3739 12.7289 11.7481 13.2057C11.4246 12.8524 11.0754 12.516 10.7817 12.1414C10.3815 11.6348 10.1686 11.0302 9.99834 10.4172C9.98983 10.3491 9.98131 10.2767 9.9728 10.2086C9.93874 9.84245 9.8834 9.48058 9.87914 9.11445C9.87488 8.84198 9.93023 8.56951 9.95577 8.29704C10.109 7.73082 10.2836 7.17311 10.5944 6.66649C11.4501 5.27861 12.6847 4.42289 14.294 4.22706C16.3971 3.97162 18.0958 4.7507 19.2666 6.53026C20.5991 8.55248 20.2585 11.2559 18.5215 12.9418C18.4236 13.0354 18.3172 13.1163 18.215 13.2057C17.5509 12.6991 16.8186 12.333 15.9969 12.1627C15.9969 12.1542 15.9969 12.1457 15.9969 12.1371C16.0821 12.1031 16.1672 12.069 16.2524 12.0307C17.4827 11.4475 18.1895 10.1958 17.9808 8.84198C17.7126 7.10074 16.163 5.98958 14.4302 6.30462C13.2935 6.50897 12.5102 7.19014 12.127 8.29704C12.0759 8.48437 11.9993 8.67169 11.978 8.85901C11.9184 9.41672 11.9269 9.97017 12.2207 10.481C12.5187 11.2261 13.0466 11.7412 13.7831 12.0477C13.8001 12.0903 13.8129 12.1414 13.8299 12.1925Z" fill="#F4A152"/>
<path d="M9.95601 8.28906C9.92621 8.56153 9.87512 8.83399 9.87938 9.10646C9.8879 9.47259 9.93898 9.83446 9.97304 10.2006C9.98156 10.2687 9.99007 10.3411 9.99859 10.4092C9.97304 10.4177 9.94324 10.422 9.9177 10.4305C8.76397 10.8775 7.94231 12.0355 7.98488 13.3978C8.02319 14.5771 8.83634 15.701 9.99859 16.1139C10.7308 16.3694 11.4588 16.3736 12.1741 16.0501C12.9702 15.735 13.5151 15.1731 13.8259 14.3812C14.0771 14.3046 14.3283 14.2024 14.588 14.1513C15.0307 14.0705 15.4735 14.1173 15.9035 14.2578C15.9418 14.2705 15.9716 14.3046 16.0057 14.3259C15.9886 14.3812 15.9716 14.4323 15.9588 14.4877C15.7417 15.3519 15.3287 16.1054 14.7199 16.7568C14.009 17.5146 13.1362 17.9829 12.14 18.2383C11.4333 18.3788 10.7223 18.3831 10.0114 18.2596C9.22801 18.0808 8.50001 17.7743 7.87419 17.2634C6.73323 16.3396 6.06909 15.1518 5.95414 13.6788C5.75405 11.1329 7.37608 8.90211 9.8581 8.29758C9.88364 8.29332 9.92196 8.29332 9.95601 8.28906Z" fill="#E56580"/>
<path d="M13.8305 12.1927C13.8135 12.1416 13.8007 12.0947 13.7837 12.0437C13.4687 11.3157 12.9322 10.809 12.2213 10.477C11.9275 9.97035 11.919 9.41264 11.9786 8.85493C11.9999 8.66335 12.0765 8.48029 12.1276 8.29297C13.5368 8.63355 14.6479 9.39987 15.3759 10.66C15.6399 11.1198 15.7931 11.6435 15.9975 12.1331C15.9975 12.1416 15.9975 12.1501 15.9975 12.1586C15.2737 12.0181 14.55 12.0266 13.8305 12.1927Z" fill="#E56581"/>
<path d="M13.8257 14.3828C13.5106 15.1747 12.9699 15.7366 12.1738 16.0517C12.4889 15.2683 13.0381 14.7064 13.8257 14.3828Z" fill="#FEFDFE"/>
<path d="M12.2207 10.4766C12.9317 10.8086 13.4724 11.3153 13.7831 12.0433C13.0466 11.7368 12.5187 11.2216 12.2207 10.4766Z" fill="#FEFEFD"/>
</svg>
