<svg width="100%" height="100%" viewBox="0 0 26 26" fill="none" xmlns="http://www.w3.org/2000/svg">
<circle cx="13" cy="13" r="12.5" fill="white"/>
<circle cx="13" cy="13" r="12.5" stroke="#D0D0CE"/>
<circle cx="13" cy="13" r="12.5" stroke="black" stroke-opacity="0.2"/>
<g clip-path="url(#bluecore0)">
<path d="M4.50361 13.0016C4.50361 14.2282 4.51608 15.4549 4.50361 16.6816C4.47962 17.0545 4.56674 17.4262 4.75403 17.7499C4.94133 18.0736 5.22045 18.335 5.55632 18.5011C7.70566 19.7177 9.84847 20.9515 11.9848 22.2024C12.2874 22.3979 12.6403 22.5019 13.0009 22.5019C13.3616 22.5019 13.7145 22.3979 14.0171 22.2024C16.2045 20.9314 18.4007 19.6763 20.5952 18.4159C20.8759 18.2703 21.1096 18.0485 21.2694 17.7762C21.4292 17.5039 21.5085 17.1921 21.4983 16.8768C21.4983 14.2957 21.4983 11.7145 21.4983 9.13339C21.5091 8.81974 21.4314 8.50934 21.274 8.23755C21.1165 7.96575 20.8857 7.74349 20.6077 7.59607C18.3823 6.31792 16.1582 5.03918 13.9352 3.75985C13.6599 3.58628 13.3409 3.49414 13.0152 3.49414C12.6895 3.49414 12.3704 3.58628 12.0952 3.75985C9.89538 5.02379 7.69913 6.29307 5.49397 7.54814C5.18191 7.70719 4.9228 7.95298 4.74798 8.25575C4.57316 8.55852 4.49014 8.90529 4.50896 9.2541C4.51074 10.5056 4.50361 11.7536 4.50361 13.0016ZM12.4176 21.0912C12.3552 21.061 12.3214 21.0486 12.2911 21.0326L5.99272 17.4094C5.88839 17.3555 5.80222 17.2723 5.74491 17.17C5.6876 17.0678 5.66166 16.951 5.67031 16.8342C5.67031 14.4608 5.67031 12.0856 5.67031 9.71033V9.45116L8.52027 11.0914C8.50068 11.1536 8.48821 11.1926 8.47396 11.2317C8.20878 11.9069 8.09965 12.633 8.15467 13.356C8.2097 14.079 8.42747 14.7804 8.79181 15.4081C9.15615 16.0357 9.65769 16.5734 10.2592 16.9814C10.8607 17.3893 11.5467 17.657 12.2662 17.7644C12.414 17.7893 12.4265 17.8585 12.4265 17.9792C12.4265 18.9645 12.4265 19.9497 12.4265 20.9349C12.4247 20.9829 12.4212 21.0237 12.4176 21.0912ZM17.4763 11.1003L20.3262 9.46181C20.3262 9.51861 20.3387 9.54346 20.3387 9.56831V16.8644C20.3401 16.9822 20.3073 17.098 20.244 17.1975C20.1808 17.2971 20.0899 17.3762 19.9824 17.4254C17.9174 18.6088 15.8542 19.7923 13.7927 20.9758C13.7268 21.0131 13.6591 21.045 13.5789 21.0876V17.8177C15.1535 17.5745 16.3879 16.8111 17.1859 15.4354C17.9839 14.0596 18.0641 12.6039 17.4763 11.1003ZM6.25456 8.46059C6.30977 8.42153 6.33649 8.40023 6.36499 8.38426L12.6794 4.74687C12.7806 4.68721 12.8969 4.65784 13.0144 4.66224C13.1319 4.66665 13.2456 4.70465 13.342 4.77172C15.3928 5.95518 17.4436 7.13274 19.4944 8.30437C19.571 8.34875 19.6458 8.39668 19.7455 8.45881L16.8956 10.1009C15.8928 8.84403 14.596 8.16768 12.9983 8.17123C11.4005 8.17478 10.1056 8.84758 9.11342 10.1009L6.25456 8.46059ZM12.4176 16.6478C11.1707 16.4011 10.2712 15.7602 9.70835 14.6738C9.46682 14.2217 9.32588 13.723 9.29515 13.2118C9.26441 12.7005 9.34459 12.1886 9.53022 11.711C9.55573 11.7142 9.58081 11.7201 9.60504 11.7287C10.4956 12.2435 11.4041 12.7584 12.2982 13.282C12.3307 13.3091 12.3569 13.3427 12.3754 13.3807C12.3938 13.4186 12.4039 13.46 12.4051 13.5022C12.4158 13.9761 12.4051 14.4519 12.4051 14.9223L12.4176 16.6478ZM16.4556 11.6915C16.8653 12.8453 16.7745 13.9211 16.151 14.9348C15.8757 15.3902 15.5031 15.7798 15.0599 16.0759C14.6166 16.3719 14.1135 16.5672 13.5861 16.6478C13.5861 15.5525 13.5861 14.491 13.5861 13.4294C13.5892 13.4031 13.5981 13.3778 13.6123 13.3553C13.6265 13.3329 13.6455 13.3139 13.668 13.2998C14.5853 12.769 15.5027 12.2418 16.4556 11.6915ZM10.1572 10.6973C11.5822 8.82096 14.5461 8.92214 15.8571 10.6973C14.9327 11.2299 14.0118 11.7625 13.0855 12.295C13.0507 12.3038 13.0145 12.3055 12.979 12.3C12.9435 12.2945 12.9094 12.282 12.8789 12.2631C12.5227 12.0625 12.1664 11.8548 11.8102 11.6489L10.1572 10.6973Z" fill="#090A8E"/>
</g>
<defs>
<clipPath id="bluecore0">
<rect width="17" height="19" fill="white" transform="matrix(-1 0 0 1 21.5 3.5)"/>
</clipPath>
</defs>
</svg>
