<svg width="100%" height="100%" viewBox="0 0 18 18" fill="none" xmlns="http://www.w3.org/2000/svg">
<circle cx="9" cy="9" r="8.5" fill="white" stroke="#E2EAEC"/>
<mask id="bluecore0" style="mask-type:alpha" maskUnits="userSpaceOnUse" x="0" y="0" width="18" height="18">
<circle cx="9" cy="9" r="8.5" fill="white" stroke="#D0D0CE"/>
</mask>
<g mask="url(#bluecore0)">
<path d="M4.00229 8.69425C4.00229 9.42893 4.00963 10.1636 4.00229 10.8983C3.98818 11.1217 4.03943 11.3443 4.1496 11.5382C4.25978 11.7321 4.42397 11.8886 4.62155 11.9881C5.8859 12.7168 7.14641 13.4557 8.40308 14.2049C8.5811 14.322 8.78871 14.3843 9.00085 14.3843C9.21299 14.3843 9.4206 14.322 9.59862 14.2049C10.8853 13.4436 12.1773 12.6919 13.4682 11.9371C13.6333 11.8498 13.7708 11.717 13.8648 11.5539C13.9588 11.3908 14.0054 11.2041 13.9994 11.0153C13.9994 9.46933 13.9994 7.92342 13.9994 6.3775C14.0058 6.18964 13.9601 6.00374 13.8675 5.84095C13.7749 5.67817 13.639 5.54505 13.4755 5.45675C12.1664 4.69124 10.8581 3.92536 9.55043 3.15914C9.38851 3.05518 9.20084 3 9.00923 3C8.81763 3 8.62996 3.05518 8.46804 3.15914C7.174 3.91615 5.88206 4.67635 4.58487 5.42805C4.4013 5.52331 4.24888 5.67052 4.14604 5.85185C4.04321 6.03319 3.99437 6.24088 4.00544 6.4498C4.00648 7.19937 4.00229 7.94681 4.00229 8.69425ZM8.6577 13.5393C8.62102 13.5213 8.60111 13.5138 8.5833 13.5042L4.87826 11.3342C4.81689 11.3019 4.7662 11.2521 4.73249 11.1909C4.69878 11.1296 4.68352 11.0597 4.68861 10.9897C4.68861 9.56821 4.68861 8.14563 4.68861 6.72304V6.56782L6.3651 7.55023C6.35357 7.58744 6.34623 7.61083 6.33785 7.63422C6.18186 8.03863 6.11766 8.4735 6.15003 8.90654C6.1824 9.33958 6.31051 9.75965 6.52483 10.1356C6.73915 10.5115 7.03418 10.8335 7.38801 11.0779C7.74184 11.3222 8.14537 11.4825 8.56863 11.5469C8.6556 11.5617 8.66293 11.6032 8.66293 11.6755C8.66293 12.2656 8.66293 12.8557 8.66293 13.4458C8.66189 13.4745 8.65979 13.4989 8.6577 13.5393ZM11.6335 7.55554L13.31 6.57419C13.31 6.60822 13.3173 6.6231 13.3173 6.63799V11.0078C13.3181 11.0784 13.2988 11.1477 13.2616 11.2073C13.2244 11.267 13.171 11.3144 13.1077 11.3438C11.893 12.0526 10.6793 12.7614 9.4666 13.4702C9.42783 13.4925 9.38802 13.5117 9.34086 13.5372V11.5788C10.2671 11.4331 10.9933 10.9759 11.4627 10.1519C11.9321 9.32793 11.9792 8.45609 11.6335 7.55554ZM5.03229 5.97454C5.06477 5.95115 5.08049 5.93839 5.09725 5.92882L8.81172 3.75029C8.87125 3.71456 8.93966 3.69697 9.00877 3.69961C9.07788 3.70225 9.14479 3.72501 9.20151 3.76517C10.4079 4.47399 11.6143 5.17925 12.8206 5.88098C12.8657 5.90756 12.9097 5.93626 12.9684 5.97347L11.2919 6.95695C10.702 6.20419 9.93916 5.79911 8.99928 5.80123C8.0594 5.80336 7.29764 6.20632 6.71402 6.95695L5.03229 5.97454ZM8.6577 10.8781C7.92423 10.7303 7.39509 10.3465 7.06398 9.6958C6.9219 9.42502 6.839 9.12635 6.82092 8.82014C6.80283 8.51392 6.85 8.20734 6.9592 7.92129C6.97421 7.92321 6.98896 7.92678 7.00321 7.93192C7.52711 8.24025 8.06149 8.54859 8.58749 8.86224C8.60656 8.87846 8.62202 8.89859 8.63286 8.92132C8.64369 8.94404 8.64966 8.96884 8.65036 8.99407C8.65665 9.27795 8.65036 9.5629 8.65036 9.84465L8.6577 10.8781ZM11.0331 7.9096C11.2741 8.60069 11.2206 9.245 10.8539 9.85209C10.6919 10.1249 10.4728 10.3582 10.212 10.5355C9.95129 10.7128 9.6553 10.8298 9.34506 10.8781C9.34506 10.2221 9.34506 9.58629 9.34506 8.95048C9.34687 8.93471 9.35214 8.91956 9.36048 8.90613C9.36882 8.8927 9.38002 8.88134 9.39325 8.87287C9.93287 8.55497 10.4725 8.23919 11.0331 7.9096ZM7.32803 7.31419C8.16628 6.19037 9.90982 6.25098 10.681 7.31419C10.1372 7.63316 9.59548 7.95212 9.05062 8.27109C9.03014 8.27635 9.00881 8.27737 8.98793 8.27409C8.96704 8.2708 8.94703 8.26327 8.92908 8.25195C8.71952 8.13181 8.50995 8.00741 8.30039 7.88408L7.32803 7.31419Z" fill="#090A8E"/>
</g>
</svg>
