<svg width="100%" height="100%" viewBox="0 0 16 16" fill="none" xmlns="http://www.w3.org/2000/svg">
<circle cx="8" cy="8" r="7.5" fill="white" stroke="#E2EAEC"/>
<g clip-path="url(#clip0_10939:129306)">
<path d="M4.32422 8.78245C4.32422 8.41347 4.39689 8.04808 4.5381 7.7072C4.67931 7.36629 4.88628 7.05654 5.14719 6.79563C5.40811 6.53471 5.71785 6.32774 6.05875 6.18653C6.39966 6.04534 6.76503 5.97266 7.13403 5.97266V8.78245H4.32422Z" fill="#442781"/>
<path d="M4.32422 8.78125C4.32422 9.15025 4.39689 9.51562 4.5381 9.85653C4.67931 10.1974 4.88628 10.5072 5.14719 10.7681C5.40811 11.029 5.71785 11.236 6.05875 11.3772C6.39966 11.5184 6.76503 11.5911 7.13403 11.5911V8.78125H4.32422Z" fill="#61459C"/>
<path d="M9.94355 8.78125C9.94355 9.15025 9.87093 9.51562 9.72974 9.85653C9.58853 10.1974 9.38158 10.5072 9.12061 10.7681C8.8597 11.029 8.54995 11.236 8.20904 11.3772C7.86816 11.5184 7.50277 11.5911 7.13379 11.5911V8.78125H9.94355Z" fill="#A992DB"/>
<path d="M11.676 6.35581C11.676 7.52097 10.7314 8.46552 9.56624 8.46552H7.45654V6.35581C7.45654 5.19065 8.4011 4.24609 9.56624 4.24609C10.7314 4.24609 11.676 5.19065 11.676 6.35581Z" fill="#FF7917"/>
</g>
<defs>
<clipPath id="clip0_10939:129306">
<rect width="8" height="7.83673" fill="white" transform="translate(4 4)"/>
</clipPath>
</defs>
</svg>
