<svg width="100%" height="100%" viewBox="0 0 45 44" fill="none" xmlns="http://www.w3.org/2000/svg">
<circle cx="22.5703" cy="22" r="21.5" fill="white" stroke="#E2EAEC"/>
<mask id="cognitiveSpark0" style="mask-type:alpha" maskUnits="userSpaceOnUse" x="0" y="0" width="45" height="44">
<circle cx="22.5703" cy="22" r="21.5" fill="white" stroke="#D0D0CE"/>
</mask>
<g mask="url(#cognitiveSpark0)">
</g>
<g clip-path="url(#cognitiveSpark1)">
<path fill-rule="evenodd" clip-rule="evenodd" d="M35.6745 20.5443C35.647 20.4856 35.6347 20.4561 35.6199 20.4279C35.2228 19.6725 34.8267 18.917 34.4255 18.1616C34.3852 18.0858 34.3903 18.0411 34.4454 17.9758C35.0773 17.2377 35.701 16.4955 36.334 15.7605C36.3564 15.7345 36.3763 15.7071 36.3846 15.6608C36.2009 15.7087 36.0171 15.7561 35.8323 15.8048C35.0697 16.0069 34.301 16.208 33.5456 16.4132C33.4746 16.4323 33.4425 16.4116 33.4067 16.3526C32.9739 15.6288 32.538 14.9029 32.1 14.1883C32.0776 14.1508 32.0532 14.1145 32.0055 14.0832C31.9703 14.2761 31.9348 14.468 31.9003 14.661C31.7788 15.3419 31.6573 16.0188 31.5369 16.7027C31.5237 16.7761 31.5057 16.8497 31.4994 16.9233C31.4934 16.9935 31.4571 17.0194 31.3932 17.0396C30.4938 17.3224 29.5965 17.6072 28.6981 17.8921C28.6587 17.9044 28.62 17.9208 28.5777 17.959C29.3127 18.251 30.0477 18.543 30.793 18.8401C30.7658 18.8616 30.7478 18.8783 30.7279 18.8911C30.2685 19.1882 29.8081 19.4853 29.3497 19.7833C29.2947 19.8193 29.2512 19.8244 29.1895 19.7965C28.6402 19.5495 28.0869 19.3065 27.5356 19.0615C27.2886 18.9512 27.0671 18.8052 26.8945 18.5929C26.5035 18.1151 26.5811 17.572 27.1018 17.2351C27.2723 17.1259 27.4662 17.0452 27.6592 16.982C28.5402 16.6951 29.4253 16.4184 30.3032 16.1407C30.3774 16.1172 30.4115 16.0841 30.4258 16.0039C30.5442 15.322 30.6657 14.636 30.7892 13.9622C30.8549 13.5977 30.8896 13.2251 31.0669 12.8903C31.1348 12.7616 31.2159 12.6361 31.3139 12.5289C31.6651 12.1389 32.1541 12.1246 32.5288 12.4954C32.6543 12.621 32.7615 12.768 32.8544 12.9201C33.2628 13.5867 33.665 14.2574 34.0693 14.9312C34.1167 15.0105 34.1594 15.0265 34.2469 15.0034C35.2321 14.739 36.2172 14.4787 37.2075 14.2183C37.4116 14.1645 37.6168 14.145 37.8261 14.1841C38.2804 14.2691 38.4795 14.6149 38.3253 15.0549C38.2556 15.255 38.1344 15.4235 37.9986 15.5838C37.3106 16.3933 36.6205 17.207 35.9365 18.0134C35.8802 18.0796 35.8791 18.1268 35.9181 18.2013C36.3305 18.9782 36.7389 19.753 37.1534 20.5391C37.2515 20.7249 37.3269 20.9189 37.3289 21.1322C37.3337 21.6182 36.9778 22.0163 36.4949 22.0878C36.2244 22.1273 35.9732 22.0695 35.719 21.9913C35.1014 21.8004 34.4838 21.6126 33.861 21.4257C33.8035 21.4086 33.7816 21.3858 33.7713 21.3241C33.7002 20.8881 33.6222 20.4533 33.5467 20.0173C33.5447 20.0054 33.5483 19.9926 33.5504 19.9659C34.2558 20.1609 34.9592 20.3528 35.684 20.5539" fill="#E25A1C"/>
<path fill-rule="evenodd" clip-rule="evenodd" d="M34.4494 26.9221C33.892 26.9213 33.3366 26.9186 32.7752 26.921C32.7014 26.921 32.6598 26.8999 32.619 26.8372C31.9595 25.8327 31.2918 24.8261 30.6385 23.8256C30.6173 23.7938 30.595 23.763 30.5575 23.7092C30.4156 24.7914 30.2757 25.8531 30.1359 26.9148H28.676C28.6932 26.7729 28.7084 26.6351 28.7264 26.4983C28.8683 25.4059 29.0122 24.3238 29.1551 23.2315C29.2919 22.1902 29.4277 21.1489 29.5665 20.1076C29.5705 20.0768 29.5912 20.0373 29.6164 20.021C30.1186 19.6933 30.6229 19.3687 31.1273 19.044C31.1345 19.0392 31.1448 19.0388 31.1707 19.0312C31.0186 20.1951 30.8675 21.3486 30.7154 22.5022C30.7215 22.5062 30.7274 22.5106 30.7334 22.5146C31.5246 21.6387 32.3158 20.7587 33.1223 19.8705C33.1454 20.0053 33.1658 20.1206 33.1857 20.236C33.2423 20.5657 33.2969 20.8975 33.3572 21.2273C33.3695 21.2938 33.3516 21.3345 33.3073 21.3814C32.7959 21.9164 32.2865 22.4533 31.776 22.9944C31.7537 23.018 31.7325 23.0423 31.707 23.0703C31.7234 23.0961 31.7373 23.1213 31.7537 23.1444C32.6326 24.3796 33.5096 25.6149 34.3875 26.8502C34.4035 26.8725 34.4265 26.8901 34.4461 26.91V26.9295" fill="#3C3A3E"/>
<path fill-rule="evenodd" clip-rule="evenodd" d="M17.1966 23.657C17.1743 23.5436 17.1584 23.3762 17.1077 23.22C16.8627 22.4656 16.0899 22.0562 15.2906 22.239C14.4116 22.4431 13.7797 23.1343 13.698 24.0357C13.6306 24.6993 13.9879 25.3424 14.6515 25.5772C15.1864 25.7702 15.703 25.6895 16.1828 25.4027C16.8168 25.0229 17.1598 24.4584 17.2037 23.657H17.1966ZM13.3377 26.4644C13.2946 26.789 13.2532 27.0943 13.2132 27.4005C13.1598 27.8068 13.106 28.2142 13.0549 28.6256C13.049 28.6731 13.0346 28.6942 12.9836 28.6938C12.5824 28.6923 12.1812 28.6927 11.7789 28.6918C11.7697 28.6918 11.7606 28.687 11.739 28.6807C11.7633 28.4888 11.7869 28.2958 11.812 28.1039C11.9005 27.4301 11.9886 26.7564 12.0785 26.0826C12.1816 25.3108 12.2622 24.541 12.3939 23.7754C12.6267 22.4176 13.7823 21.2538 15.1299 20.9578C15.9129 20.7883 16.6612 20.8668 17.3452 21.3079C18.0271 21.7469 18.4171 22.3901 18.509 23.1863C18.6356 24.3195 18.218 25.2587 17.4166 26.0448C16.8878 26.5563 16.2528 26.8809 15.528 26.9912C14.7756 27.1045 14.0682 26.9792 13.4352 26.5358C13.412 26.5195 13.3869 26.5052 13.3471 26.4801" fill="#3C3A3E"/>
<path fill-rule="evenodd" clip-rule="evenodd" d="M12.6638 20.0358C12.2146 20.3706 11.7807 20.6932 11.3468 21.0169C11.2767 20.9066 11.2141 20.7963 11.1406 20.6932C10.9518 20.4288 10.717 20.2318 10.376 20.2083C10.0922 20.1883 9.84922 20.2816 9.65627 20.4911C9.48374 20.6779 9.46128 20.9444 9.62238 21.1557C9.80001 21.3885 9.99398 21.609 10.193 21.8244C10.5228 22.1817 10.8668 22.5247 11.1935 22.8861C11.4906 23.2128 11.7285 23.5782 11.802 24.0295C11.8893 24.5603 11.7833 25.0606 11.5324 25.5302C11.0679 26.3928 10.338 26.8981 9.36818 27.0513C8.94145 27.1202 8.51676 27.1067 8.10228 26.9842C7.54999 26.8219 7.16512 26.4595 6.91806 25.9531C6.83078 25.7724 6.76391 25.5815 6.6853 25.3876C7.16818 25.1293 7.63881 24.8771 8.11454 24.6229C8.13087 24.6624 8.14281 24.6955 8.15802 24.727C8.23939 24.8894 8.30605 25.0619 8.4061 25.212C8.70522 25.656 9.18707 25.7908 9.67199 25.5713C9.79756 25.5147 9.91904 25.4355 10.0222 25.3437C10.3366 25.0639 10.3958 24.674 10.163 24.3228C10.0293 24.1206 9.86187 23.9389 9.69853 23.7582C9.30856 23.3254 8.90225 22.9058 8.52452 22.4617C8.26215 22.1575 8.0835 21.8043 8.02633 21.4C7.96457 20.9549 8.05349 20.5363 8.28461 20.1647C8.85937 19.2347 9.69343 18.7559 10.796 18.7865C11.4259 18.8093 11.9292 19.104 12.3171 19.5941C12.4325 19.739 12.5407 19.8891 12.6581 20.0463" fill="#3C3A3E"/>
<path fill-rule="evenodd" clip-rule="evenodd" d="M23.3218 24.9839C23.2484 25.5443 23.1788 26.0762 23.1074 26.6071C23.1034 26.6342 23.0823 26.6709 23.0595 26.6813C21.9672 27.1856 20.5379 27.1152 19.6498 26.1004C19.1699 25.5553 18.9688 24.906 18.9984 24.1914C19.0682 22.5273 20.4481 21.0675 22.1019 20.8633C23.0666 20.7449 23.9089 21.0052 24.5622 21.7555C25.0073 22.266 25.2136 22.8785 25.1829 23.5523C25.163 23.9974 25.0932 24.4394 25.038 24.8794C24.9594 25.5063 24.8736 26.1351 24.7909 26.7579C24.7878 26.7797 24.7834 26.8021 24.7782 26.8304H23.4816C23.4988 26.6865 23.5147 26.5456 23.5331 26.4047C23.6272 25.6809 23.7311 24.9551 23.8138 24.2303C23.8653 23.779 23.8329 23.3309 23.626 22.9133C23.4065 22.4692 23.039 22.2334 22.5541 22.1824C21.5516 22.0762 20.594 22.7724 20.3898 23.7545C20.2489 24.4059 20.4712 25.0306 20.9901 25.3777C21.4954 25.7136 22.0314 25.7146 22.5827 25.4972C22.8624 25.3869 23.0992 25.2113 23.3259 24.9755" fill="#3C3A3E"/>
<path fill-rule="evenodd" clip-rule="evenodd" d="M28.8344 21.0343C28.7749 21.4855 28.7159 21.9296 28.6567 22.3819C28.3811 22.3819 28.1116 22.3803 27.8421 22.3823C27.6236 22.3839 27.4245 22.5252 27.3582 22.7294C27.3326 22.8091 27.3231 22.8948 27.3119 22.9785C27.1751 24.0198 27.0393 25.0509 26.9036 26.0819C26.8693 26.3433 26.8362 26.6046 26.8019 26.8701H25.4441C25.4692 26.671 25.4931 26.478 25.5182 26.2851C25.6063 25.6134 25.6948 24.9375 25.7836 24.274C25.8606 23.6931 25.9296 23.1102 26.0205 22.5283C26.142 21.7524 26.9138 21.0582 27.6947 21.0276C28.0684 21.0112 28.4431 21.0248 28.8279 21.0248" fill="#3C3A3E"/>
<path d="M36.0827 26.9233V26.3516H36.0796L35.855 26.9233H35.7836L35.559 26.3516H35.5554V26.9233H35.4431V26.2383H35.6177L35.8219 26.7589L36.023 26.2383H36.1966V26.9233H36.0827ZM35.0884 26.3302V26.9233H34.9761V26.3302H34.7617V26.2384H35.3038V26.3302H35.0894" fill="#3C3A3E"/>
<path d="M14.4707 19.0737H14.8066L14.7272 18.5654L14.4707 19.0737ZM14.8597 19.4025H14.3013L14.1236 19.7506H13.7275L14.6004 18.1172H14.9822L15.2793 19.7506H14.9128L14.8601 19.4025" fill="#3C3A3E"/>
<path d="M16.8597 18.449H16.6606L16.5936 18.8257H16.7927C16.9132 18.8257 17.0081 18.7468 17.0081 18.598C17.0081 18.4995 16.9483 18.449 16.8591 18.449H16.8597ZM16.3778 18.1202H16.9005C17.1741 18.1202 17.365 18.2836 17.365 18.5633C17.365 18.9165 17.1159 19.1534 16.7607 19.1534H16.535L16.4289 19.7506H16.0879L16.3758 18.1172" fill="#3C3A3E"/>
<path d="M18.5238 19.0737H18.8596L18.7803 18.5654L18.5238 19.0737ZM18.9117 19.4025H18.3533L18.1756 19.7506H17.7795L18.6524 18.1172H19.0342L19.3313 19.7506H18.9648L18.9121 19.4025" fill="#3C3A3E"/>
<path d="M21.0761 19.697C20.9607 19.7496 20.8341 19.7811 20.7065 19.7811C20.2747 19.7811 20.0042 19.4575 20.0042 19.0522C20.0042 18.5336 20.4401 18.0977 20.9587 18.0977C21.0883 18.0977 21.2058 18.1288 21.3017 18.1814L21.2538 18.5724C21.1821 18.493 21.066 18.4376 20.9231 18.4376C20.626 18.4376 20.3616 18.7061 20.3616 19.0175C20.3616 19.2543 20.5106 19.4401 20.7454 19.4401C20.8894 19.4401 21.0282 19.3847 21.1221 19.3084L21.0767 19.6964" fill="#3C3A3E"/>
<path d="M23.2197 19.0942H22.5102L22.3949 19.7506H22.0549L22.3428 18.1172H22.6838L22.5695 18.7624H23.279L23.3943 18.1172H23.7353L23.4474 19.7506H23.1064L23.2208 19.0942" fill="#3C3A3E"/>
<path d="M24.4448 19.7506L24.7327 18.1172H25.6372L25.5797 18.4459H25.0162L24.9587 18.7624H25.4763L25.4188 19.0911H24.9012L24.8438 19.4198H25.4073L25.3498 19.7486H24.4453" fill="#3C3A3E"/>
</g>
<defs>
<clipPath id="cognitiveSpark1">
<rect width="31.7778" height="16.503" fill="white" transform="translate(6.6814 12.2227)"/>
</clipPath>
</defs>
</svg>
