<svg width="100%" height="100%" viewBox="0 0 19 30" fill="none" xmlns="http://www.w3.org/2000/svg">
<path fill-rule="evenodd" clip-rule="evenodd" d="M15.4053 29.6641H2.95379C1.33013 29.6641 0.0146484 28.3502 0.0146484 26.7288V22.19C0.0154768 21.9397 0.116928 21.6995 0.296276 21.5242C0.470965 21.3507 0.707604 21.2531 0.953639 21.2523H13.3394V6.24799H5.01961V19.3768C5.01961 19.8943 4.59888 20.3145 4.08062 20.3145C3.56224 20.3145 3.14156 19.8943 3.14156 19.3768V5.31025C3.14156 4.7926 3.56224 4.37249 4.08062 4.37249H14.2784C14.7968 4.37249 15.2175 4.7926 15.2175 5.31025V22.19C15.2194 22.4395 15.1207 22.6787 14.9451 22.8559C14.7677 23.0312 14.5282 23.1296 14.2784 23.1278H1.89269V26.7288C1.89269 27.314 2.3678 27.7885 2.95379 27.7885H15.4053C15.9866 27.7942 16.4608 27.3281 16.4665 26.7475C16.4665 26.741 16.4665 26.7354 16.4665 26.7288V3.28471C16.4721 2.70421 16.0054 2.23067 15.424 2.22497C15.4175 2.22497 15.4118 2.22497 15.4053 2.22497H2.95379C2.55564 2.23439 2.19502 2.46128 2.01474 2.81583C1.93956 2.96111 1.90111 3.12152 1.90205 3.28471V19.0016C1.90205 19.5193 1.48132 19.9394 0.963056 19.9394C0.444685 19.9394 0.0239391 19.5193 0.0239391 19.0016V3.26586C0.0230072 2.8177 0.126373 2.37409 0.324464 1.9718C0.822125 0.970266 1.84387 0.334459 2.96314 0.330732H15.4147C17.0382 0.330732 18.3539 1.64447 18.3539 3.26586V26.71C18.3642 28.3315 17.057 29.6537 15.4334 29.6641C15.424 29.6641 15.4147 29.6641 15.4053 29.6641Z" fill="#4F4F4F"/>
<path fill-rule="evenodd" clip-rule="evenodd" d="M9.17937 24.1522C9.90039 24.1522 10.4848 24.1522 10.4848 24.1522V26.75C10.4848 26.75 9.90039 26.75 9.17937 26.75H9.18885V24.1522C8.46783 24.1522 7.88354 24.1522 7.88354 24.1522C7.88354 24.1522 8.46783 24.1522 9.18885 24.1522H9.17937Z" fill="#4F4F4F"/>
<path fill-rule="evenodd" clip-rule="evenodd" d="M11.6116 14.2386L11.931 14.2855L12.2033 14.4543L12.3818 14.7638L12.4663 15.0263L12.3818 15.3732L12.2033 15.6359L11.931 15.814L11.6116 15.9453L11.2549 15.814L10.9825 15.6359L10.8041 15.3732L10.7571 15.0263L10.8041 14.7638L10.9825 14.4543L11.2549 14.2855L11.6116 14.2386Z" fill="#4F4F4F"/>
<path fill-rule="evenodd" clip-rule="evenodd" d="M8.16541 14.2386L8.48464 14.2855L8.75698 14.4543L8.9354 14.7638L9.0199 15.0263L8.9354 15.3732L8.75698 15.6359L8.48464 15.814L8.16541 15.9453L7.80857 15.814L7.53611 15.6359L7.35769 15.3732L7.31079 15.0263L7.35769 14.7638L7.53611 14.4543L7.80857 14.2855L8.16541 14.2386Z" fill="#4F4F4F"/>
<path fill-rule="evenodd" clip-rule="evenodd" d="M11.5362 14.2383H8.07126L7.91162 14.1914L7.82718 14.0789L7.13227 11.2093H6.06176L5.9772 11.1718L5.89282 11.0123L5.9772 10.8435L6.06176 10.7684H7.25438L7.41397 10.8435L7.46092 10.9279L7.62051 11.575H11.9401H12.0622L12.1091 11.6594L12.1467 11.697V11.8187L11.7805 14.0789L11.696 14.1914L11.5362 14.2383Z" fill="#4F4F4F"/>
</svg>
