<svg width="100%" height="100%" viewBox="0 0 44 44" fill="none" xmlns="http://www.w3.org/2000/svg">
<g clip-path="url(#creatiff)">
<path d="M10.2061 24.5109C10.2061 23.327 10.4392 22.1548 10.8923 21.0611C11.3453 19.9673 12.0093 18.9736 12.8464 18.1365C13.6835 17.2994 14.6773 16.6353 15.771 16.1823C16.8648 15.7293 18.037 15.4961 19.2209 15.4961V24.5109H10.2061Z" fill="#442781"/>
<path d="M10.2061 24.5117C10.2061 25.6956 10.4392 26.8678 10.8923 27.9616C11.3453 29.0553 12.0093 30.0491 12.8464 30.8862C13.6835 31.7233 14.6773 32.3873 15.771 32.8403C16.8648 33.2934 18.037 33.5265 19.2209 33.5265V24.5117H10.2061Z" fill="#61459C"/>
<path d="M28.2363 24.5117C28.2363 25.6956 28.0033 26.8678 27.5504 27.9616C27.0973 29.0553 26.4333 30.0491 25.5961 30.8862C24.759 31.7233 23.7652 32.3873 22.6714 32.8403C21.5778 33.2934 20.4055 33.5265 19.2217 33.5265V24.5117H28.2363Z" fill="#A992DB"/>
<path d="M33.7942 16.7218C33.7942 20.46 30.7636 23.4905 27.0254 23.4905H20.2568V16.7218C20.2568 12.9836 23.2873 9.95312 27.0254 9.95312C30.7636 9.95312 33.7942 12.9836 33.7942 16.7218Z" fill="#FF7917"/>
</g>
<defs>
<clipPath id="creatiff">
<rect width="25.6667" height="25.1429" fill="white" transform="translate(9.16699 9.16797)"/>
</clipPath>
</defs>
</svg>
