<svg width="100%" height="100%" viewBox="0 0 26 26" fill="none" xmlns="http://www.w3.org/2000/svg">
<circle cx="13" cy="13" r="12.5" fill="white" stroke="#E2EAEC"/>
<path fill-rule="evenodd" clip-rule="evenodd" d="M6.8596 20.3589C6.7127 20.3589 6.56631 20.3483 6.42097 20.3271C6.12395 20.2938 5.86295 20.1156 5.72344 19.8512C5.43277 19.2696 5.82384 18.4659 6.25187 17.6887C6.29417 17.6147 6.33112 17.5512 6.35228 17.5036L9.91935 10.63C10.0509 10.3694 10.3691 10.2649 10.6291 10.3965C10.7152 10.44 10.7876 10.5062 10.8389 10.5877C11.1755 11.1525 11.7441 11.5396 12.3925 11.6452C12.6821 11.6829 12.8861 11.9481 12.8486 12.2377C12.8412 12.2945 12.8248 12.3498 12.7994 12.4013L9.62867 18.8731C9.02624 19.8164 7.97783 20.3789 6.8596 20.3589ZM6.68519 19.3013C7.47737 19.3817 8.24729 19.0095 8.67747 18.3391L11.5575 12.5229C11.1638 12.3653 10.8045 12.1318 10.5006 11.8356L7.30878 17.9742C7.30878 18.0218 7.24538 18.0958 7.19246 18.191C6.97481 18.5331 6.80413 18.9032 6.68519 19.2908V19.3013Z" fill="#005587"/>
<path fill-rule="evenodd" clip-rule="evenodd" d="M19.7332 20.3593C18.6351 20.3652 17.6104 19.8084 17.017 18.8842L13.804 12.3701C13.7268 12.219 13.7268 12.0401 13.804 11.889C13.8854 11.7374 14.0349 11.6348 14.2056 11.614C14.8535 11.5142 15.4242 11.1329 15.7645 10.5724C15.8665 10.413 16.0457 10.3202 16.2349 10.3292C16.4251 10.3365 16.5969 10.4456 16.684 10.6147L20.2511 17.4882C20.2775 17.5411 20.3093 17.6046 20.3515 17.6786C20.7796 18.4558 21.1706 19.2648 20.88 19.8411C20.7425 20.1071 20.4805 20.2864 20.1824 20.317C20.0339 20.3419 19.8838 20.3561 19.7332 20.3593ZM15.0352 12.4864L17.9418 18.3765C18.383 19.0158 19.135 19.3658 19.9077 19.2912C19.7945 18.9085 19.6312 18.5421 19.4214 18.202C19.3739 18.1069 19.3316 18.0329 19.2999 17.98L16.1292 11.7991C15.8131 12.0977 15.4411 12.3312 15.0352 12.4864Z" fill="#005587"/>
<path fill-rule="evenodd" clip-rule="evenodd" d="M13.297 11.1016C11.7618 11.0068 10.5939 9.68485 10.689 8.14882C10.7751 6.74504 11.8939 5.62587 13.297 5.53923C13.5887 5.53923 13.8254 5.77596 13.8254 6.06797C13.8254 6.36004 13.5887 6.59676 13.297 6.59676C12.3463 6.48285 11.4838 7.16149 11.3697 8.11246C11.2561 9.06348 11.9341 9.92676 12.8848 10.0407C13.8355 10.1545 14.6979 9.47593 14.8121 8.52491C14.82 8.45703 14.8242 8.38874 14.8242 8.3204C14.8332 7.82814 14.643 7.353 14.2958 7.00384C14.1008 6.78675 14.1182 6.45245 14.3354 6.25715C14.5299 6.08213 14.8231 6.07589 15.025 6.24246C15.5831 6.7892 15.8959 7.53892 15.8917 8.3204C15.9424 9.8051 14.7809 11.0499 13.297 11.1016Z" fill="#005587"/>
<path fill-rule="evenodd" clip-rule="evenodd" d="M13.2979 6.59375C13.0063 6.59375 12.7695 6.35702 12.7695 6.06507V4.79605C12.7695 4.50404 13.0063 4.26732 13.2979 4.26732C13.5895 4.26732 13.8263 4.50404 13.8263 4.79605V6.06507C13.8263 6.35702 13.5895 6.59375 13.2979 6.59375Z" fill="#005587"/>
<path fill-rule="evenodd" clip-rule="evenodd" d="M16.1129 16.3906H10.4797C10.1879 16.3906 9.95117 16.1537 9.95117 15.8618C9.95117 15.5699 10.1879 15.3331 10.4797 15.3331H16.1076C16.3993 15.3331 16.6361 15.5699 16.6361 15.8618C16.6361 16.1537 16.3993 16.3906 16.1076 16.3906H16.1129Z" fill="#005587"/>
<path fill-rule="evenodd" clip-rule="evenodd" d="M21.4305 16.3906H18.7882C18.4965 16.3906 18.2598 16.1537 18.2598 15.8618C18.2598 15.5699 18.4965 15.3331 18.7882 15.3331H21.4305C21.7222 15.3331 21.959 15.5699 21.959 15.8618C21.959 16.1537 21.7222 16.3906 21.4305 16.3906Z" fill="#005587"/>
<path fill-rule="evenodd" clip-rule="evenodd" d="M7.79569 16.3906H5.15343C4.86177 16.3906 4.625 16.1537 4.625 15.8618C4.625 15.5699 4.86177 15.3331 5.15343 15.3331H7.79569C8.08741 15.3331 8.32418 15.5699 8.32418 15.8618C8.32418 16.1537 8.08741 16.3906 7.79569 16.3906Z" fill="#005587"/>
<path fill-rule="evenodd" clip-rule="evenodd" d="M13.2979 17.7109C13.0063 17.7109 12.7695 17.474 12.7695 17.1822V14.5385C12.7695 14.2465 13.0063 14.0097 13.2979 14.0097C13.5895 14.0097 13.8263 14.2465 13.8263 14.5385V17.1822C13.8263 17.474 13.5895 17.7109 13.2979 17.7109Z" fill="#005587"/>
</svg>
