<svg width="100%" height="100%" viewBox="0 0 35 9" fill="none" xmlns="http://www.w3.org/2000/svg">
<g clip-path="url(#clip0_14758_58901)">
<path d="M15.1827 2.80345H14.9974C14.9569 2.79764 14.9156 2.80134 14.8767 2.81426C14.8379 2.82719 14.8026 2.84897 14.7736 2.8779C14.7447 2.90683 14.7228 2.94211 14.7099 2.98094C14.6969 3.01977 14.6932 3.06109 14.6989 3.10161V4.79639H15.4793V3.10139C15.4851 3.06103 15.4815 3.01988 15.4686 2.98118C15.4558 2.94248 15.4341 2.90729 15.4054 2.8784C15.3766 2.8495 15.3415 2.82769 15.3029 2.81468C15.2642 2.80168 15.2231 2.79783 15.1827 2.80345Z" fill="#818386"/>
<path d="M3.28516 2.80859H2.81055V6.66728H3.32143C3.50058 6.66728 3.59015 6.59163 3.59015 6.44033V3.17662C3.59048 2.93052 3.48837 2.80859 3.28516 2.80859Z" fill="#818386"/>
<path d="M26.3773 2.80731H26.192C26.1515 2.80156 26.1102 2.8053 26.0714 2.81825C26.0326 2.8312 25.9973 2.85299 25.9684 2.88191C25.9395 2.91083 25.9177 2.94609 25.9047 2.98488C25.8917 3.02368 25.888 3.06497 25.8937 3.10547V4.80025H26.6749V3.10524C26.6807 3.0648 26.677 3.02356 26.6641 2.9848C26.6512 2.94603 26.6294 2.9108 26.6005 2.88189C26.5717 2.85299 26.5365 2.8312 26.4977 2.81825C26.459 2.80531 26.4177 2.80156 26.3773 2.80731Z" fill="#818386"/>
<path d="M0.459229 0.109375V8.99575H34.6814V0.109375H0.459229ZM4.27134 6.54488C4.27134 7.03648 3.99927 7.28279 3.45513 7.28384H2.12938V2.18953H3.31271C3.9515 2.18953 4.27089 2.51601 4.27089 3.16898L4.27134 6.54488ZM5.91014 7.28384H5.22862V2.18953H5.91025L5.91014 7.28384ZM8.98912 3.62949H8.30849V3.17492C8.30849 2.9286 8.21052 2.80678 8.01739 2.80678H7.84721C7.64903 2.80678 7.54849 2.92882 7.54849 3.17492V6.29655C7.54849 6.54287 7.64926 6.66535 7.84721 6.66535H8.30861V5.41753H7.95335V4.79938H8.98923V7.28328H7.65541C7.13098 7.28328 6.86843 6.9968 6.86776 6.42385V3.0615C6.86776 2.48019 7.13031 2.18938 7.65541 2.18909H8.12375C8.70036 2.18909 8.98878 2.4847 8.989 3.07594L8.98912 3.62949ZM10.5776 7.28384H9.89725V2.18953H10.5776V7.28384ZM13.3095 2.80678H12.6567V7.28395H11.9753V2.80645H11.3232V2.18919H13.3095V2.80678ZM16.1608 7.28384H15.4798V5.41753H14.6993V7.28339H14.0188V3.06139C14.0188 2.48007 14.2906 2.18931 14.834 2.18909H15.3448C15.8897 2.18909 16.1616 2.47985 16.1607 3.06139L16.1608 7.28384ZM18.7359 7.28384H17.1186V2.18953H17.7999V6.66535H18.7356L18.7359 7.28384ZM22.6667 3.62949H21.9855V3.17492C21.9855 2.9286 21.8886 2.80678 21.6953 2.80678H21.5245C21.3256 2.80678 21.2272 2.92882 21.2272 3.17492V6.29655C21.2272 6.54287 21.3256 6.66535 21.5245 6.66535H21.9855V5.41753H21.6309V4.79938H22.6667V7.28328H21.3334C20.8084 7.28328 20.5457 6.9968 20.5451 6.42385V3.0615C20.5451 2.48019 20.8079 2.18938 21.3334 2.18909H21.8008C22.3782 2.18909 22.6667 2.4847 22.6664 3.07594L22.6667 3.62949ZM24.2559 7.28384H23.5745V2.18953H24.2559V7.28384ZM27.3565 7.28384H26.6751V5.41753H25.8939V7.28339H25.2138V3.06139C25.2138 2.48007 25.4855 2.18931 26.0289 2.18909H26.5404C27.0839 2.18909 27.3559 2.47985 27.3565 3.06139V7.28384ZM30.4064 7.28384H29.7247V6.268L28.994 3.94847V7.28384H28.3132V2.18953H28.994L29.7249 4.65081V2.18909H30.406L30.4064 7.28384ZM33.1383 2.80667H32.486V7.28384H31.8046V2.80645H31.1519V2.18919H33.1374L33.1383 2.80667Z" fill="#818386"/>
</g>
<defs>
<clipPath id="clip0_14758_58901">
<rect width="34.2222" height="8.88637" fill="white" transform="translate(0.459229 0.109375)"/>
</clipPath>
</defs>
</svg>
