<svg width="100%" height="100%" viewBox="0 0 26 26" fill="none" xmlns="http://www.w3.org/2000/svg">
<circle cx="13" cy="13" r="12.5" fill="white" stroke="#E2EAEC"/>
<g clip-path="url(#docker)">
<path d="M4.33398 18.8563C4.34847 18.8221 4.36823 18.7905 4.37613 18.7549C4.45648 18.4375 4.63692 18.1885 4.88717 17.9804C5.20065 17.7196 5.56417 17.6446 5.95535 17.6749C6.22931 17.6959 6.47956 17.7947 6.69557 17.9699C6.6982 17.9725 6.70347 17.9712 6.71796 17.9739C6.71928 17.9528 6.72323 17.933 6.72323 17.9133C6.72191 17.4918 6.71401 17.0703 6.72191 16.6488C6.72586 16.4381 6.9366 16.3643 7.10256 16.4289C7.20134 16.4671 7.25403 16.5421 7.27378 16.6435C7.27378 16.9992 7.27247 17.3548 7.27247 17.7104C7.27247 18.2149 7.27247 18.7194 7.27378 19.2251C7.24481 19.6176 7.0907 19.9509 6.79831 20.2169C6.56913 20.4264 6.30439 20.5594 5.99355 20.595C5.98433 20.5963 5.97643 20.6042 5.96721 20.6081C5.95799 20.6081 5.95008 20.6081 5.94086 20.6081C5.93164 20.6042 5.92374 20.6002 5.91452 20.5963C5.9053 20.5963 5.8974 20.595 5.88818 20.595C5.87106 20.595 5.85262 20.595 5.83549 20.595C5.8131 20.595 5.79071 20.595 5.76964 20.595C5.75252 20.595 5.73408 20.595 5.71695 20.5963C5.70773 20.6002 5.69983 20.6042 5.69061 20.6081C5.67349 20.6081 5.65505 20.6081 5.63793 20.6081C5.62476 20.6029 5.61159 20.5963 5.59841 20.5936C4.97015 20.483 4.56843 20.1182 4.38008 19.5123C4.36033 19.449 4.34847 19.3819 4.33398 19.3173C4.33398 19.212 4.33398 19.1066 4.33398 19.0012C4.33794 18.9828 4.34189 18.9657 4.34584 18.9472C4.34189 18.9393 4.33794 18.9301 4.33398 18.9222C4.33398 18.8998 4.33398 18.8787 4.33398 18.8563ZM6.72323 19.1382C6.72455 18.6324 6.30834 18.2149 5.80388 18.2149C5.29943 18.2149 4.88717 18.6258 4.88586 19.1316C4.88322 19.6427 5.29153 20.0549 5.79993 20.0562C6.30834 20.0562 6.72191 19.6453 6.72323 19.1382Z" fill="#2495EC"/>
<path d="M17.466 20.6062C17.4331 20.597 17.3988 20.5839 17.3646 20.5786C17.0221 20.514 16.7535 20.3296 16.5335 20.0662C16.3992 19.9055 16.3043 19.7238 16.2543 19.5196C16.2371 19.4498 16.2279 19.3787 16.2187 19.3076C16.2095 19.2391 16.1989 19.1693 16.2016 19.0995C16.2253 18.6214 16.4242 18.2354 16.8088 17.9457C17.0999 17.7257 17.4304 17.6493 17.7861 17.6717C18.2128 17.6994 18.5579 17.8917 18.8305 18.2209C19.0465 18.4817 19.144 18.7834 19.1506 19.1179C19.1532 19.2746 19.0676 19.3774 18.9135 19.4077C18.2273 19.4077 17.5424 19.4077 16.8562 19.4077C16.8404 19.4077 16.8246 19.4143 16.8088 19.4182C16.8443 19.5763 16.9365 19.7001 17.0511 19.8081C17.3962 20.1308 17.9599 20.1426 18.2997 19.8173C18.384 19.7369 18.4841 19.7106 18.5961 19.7567C18.7081 19.8015 18.7607 19.8937 18.7634 20.007C18.7673 20.1229 18.6988 20.2058 18.6119 20.2756C18.4394 20.4153 18.2471 20.5154 18.0324 20.5707C17.9836 20.5825 17.9349 20.5931 17.8862 20.6049C17.869 20.6049 17.8506 20.6049 17.8335 20.6049C17.8243 20.6049 17.8164 20.6049 17.8071 20.6049C17.6939 20.6062 17.5806 20.6062 17.466 20.6062ZM16.8101 18.8624C17.3923 18.8624 17.9744 18.8624 18.5553 18.8624C18.5118 18.5199 18.0653 18.2065 17.6438 18.2196C17.167 18.2341 16.8443 18.6148 16.8101 18.8624Z" fill="#2495EC"/>
<path d="M14.1692 18.7085C14.4958 18.4951 14.8225 18.2831 15.1491 18.0697C15.3296 17.9525 15.5074 17.83 15.6905 17.7167C15.8788 17.6008 16.1172 17.6877 16.1396 17.9222C16.1501 18.0276 16.108 18.1105 16.0158 18.1698C15.6681 18.395 15.3204 18.6216 14.974 18.8468C14.9647 18.8521 14.9568 18.8587 14.941 18.8692C14.9845 18.9192 15.0227 18.968 15.0648 19.0141C15.2585 19.2314 15.4534 19.4474 15.647 19.6647C15.7866 19.8215 15.9262 19.9782 16.0659 20.1363C16.2147 20.3048 16.1317 20.5301 15.9526 20.5933C15.9473 20.5946 15.9447 20.6025 15.9407 20.6065C15.8973 20.6065 15.8525 20.6065 15.809 20.6065C15.7563 20.5696 15.6957 20.5393 15.6536 20.4932C15.3836 20.1955 15.1188 19.8939 14.8515 19.5949C14.7263 19.454 14.6012 19.3144 14.4735 19.1721C14.3799 19.234 14.2904 19.2946 14.1995 19.3499C14.1626 19.3723 14.1521 19.3987 14.1521 19.4408C14.1534 19.7332 14.1534 20.0243 14.1521 20.3167C14.1521 20.4471 14.0823 20.5485 13.9716 20.588C13.9558 20.5933 13.94 20.5999 13.9242 20.6065C13.8847 20.6065 13.8452 20.6065 13.8057 20.6065C13.7635 20.5801 13.7135 20.5604 13.6819 20.5248C13.6476 20.4853 13.6305 20.43 13.6055 20.3826C13.6055 19.1313 13.6055 17.8814 13.6055 16.6301C13.616 16.5208 13.724 16.4194 13.8412 16.4075C13.9664 16.3957 14.0915 16.4681 14.1336 16.5814C14.1402 16.5972 14.1455 16.6143 14.1508 16.6301C14.1508 17.3032 14.1521 17.9762 14.1521 18.6492C14.1521 18.669 14.1521 18.6888 14.1534 18.7085C14.1521 18.7085 14.1626 18.7085 14.1692 18.7085Z" fill="#2495EC"/>
<path d="M8.85235 20.6068C8.78254 20.5923 8.71142 20.5831 8.64425 20.5633C8.44273 20.504 8.25833 20.4184 8.09501 20.2775C7.95934 20.1616 7.84344 20.0338 7.75256 19.881C7.66431 19.7322 7.6024 19.5728 7.5787 19.4003C7.56684 19.3107 7.5484 19.2198 7.55104 19.1303C7.55499 18.9327 7.59055 18.7417 7.66694 18.5547C7.7407 18.3742 7.85266 18.2215 7.987 18.0871C8.21486 17.8606 8.48883 17.7183 8.81284 17.6814C9.18427 17.638 9.53199 17.6959 9.84283 17.9119C10.1958 18.1569 10.4237 18.4888 10.4816 18.9195C10.5396 19.3476 10.4434 19.7375 10.1576 20.0733C9.92449 20.3486 9.63209 20.5198 9.2791 20.591C9.25144 20.5962 9.22246 20.6015 9.19349 20.6068C9.18032 20.6068 9.16714 20.6068 9.15397 20.6068C9.14475 20.6028 9.13685 20.5989 9.12763 20.5949C9.11446 20.5949 9.10129 20.5936 9.08812 20.5936C9.04465 20.5936 8.99987 20.5936 8.9564 20.5936C8.94719 20.5936 8.93928 20.5936 8.93006 20.5936C8.92084 20.5976 8.91294 20.6015 8.90372 20.6055C8.88791 20.6068 8.86947 20.6068 8.85235 20.6068ZM9.94688 19.1355C9.94688 18.6298 9.52935 18.2122 9.02621 18.2135C8.52175 18.2149 8.11081 18.6258 8.10554 19.1316C8.10159 19.636 8.5178 20.0549 9.0249 20.0549C9.5333 20.0549 9.94688 19.6426 9.94688 19.1355Z" fill="#2495EC"/>
<path d="M12.0653 20.6086C12.0034 20.5954 11.9428 20.581 11.8809 20.5678C11.6622 20.5177 11.4712 20.4163 11.3 20.2727C11.1578 20.1542 11.0458 20.0146 10.951 19.8565C10.868 19.7182 10.8166 19.5681 10.7903 19.4087C10.7771 19.3284 10.7653 19.2467 10.7626 19.1651C10.76 19.0847 10.7626 19.0031 10.7771 18.9253C10.81 18.7502 10.8522 18.5763 10.9497 18.4262C11.0195 18.3182 11.1024 18.2181 11.1854 18.118C11.3 17.9797 11.4449 17.8809 11.6069 17.8045C11.873 17.6794 12.1522 17.6517 12.4406 17.6846C12.6804 17.711 12.895 17.7992 13.0887 17.9388C13.1308 17.9691 13.173 18.0021 13.2098 18.0389C13.2928 18.118 13.3152 18.247 13.2691 18.3537C13.227 18.4499 13.1084 18.5223 12.9991 18.517C12.9095 18.5131 12.845 18.4591 12.7791 18.4077C12.4525 18.1562 11.9954 18.1627 11.6754 18.4104C11.4646 18.5737 11.3487 18.7884 11.3224 19.0544C11.275 19.5418 11.6082 19.9448 12.0455 20.0396C12.3221 20.1002 12.5776 20.0383 12.8002 19.8539C12.949 19.7301 13.1585 19.7551 13.2494 19.9066C13.3271 20.037 13.281 20.1898 13.1387 20.3004C12.9464 20.4506 12.7291 20.5441 12.4907 20.5928C12.463 20.5981 12.4341 20.6033 12.4051 20.6086C12.3959 20.6086 12.388 20.6086 12.3787 20.6086C12.3656 20.6047 12.3524 20.6007 12.3392 20.5968C12.33 20.5968 12.3221 20.5968 12.3129 20.5968C12.2997 20.5968 12.2865 20.5968 12.2734 20.5954C12.251 20.5954 12.2299 20.5954 12.2075 20.5954C12.1904 20.5954 12.1719 20.5968 12.1548 20.5968C12.1416 20.6007 12.1285 20.6047 12.1166 20.6086C12.1008 20.6086 12.0824 20.6086 12.0653 20.6086Z" fill="#2495EC"/>
<path d="M21.6666 18.0928C21.6205 18.21 21.5507 18.3036 21.4137 18.3062C21.3584 18.3075 21.3017 18.2904 21.2491 18.2706C20.7275 18.0862 20.1743 18.3668 20.0294 18.8923C20.007 18.9753 19.9965 19.0649 19.9965 19.1518C19.9925 19.5206 19.9899 19.8894 19.9978 20.2569C20.0017 20.4334 19.9411 20.5519 19.7712 20.6072C19.7278 20.6072 19.683 20.6072 19.6395 20.6072C19.5513 20.5638 19.4749 20.5071 19.4538 20.4031C19.4485 20.378 19.4459 20.353 19.4459 20.328C19.4459 19.5193 19.4446 18.7106 19.4459 17.9005C19.4459 17.8215 19.4894 17.7543 19.5579 17.7135C19.7436 17.6002 19.9912 17.7069 19.9951 17.9387C19.9951 17.9453 19.9978 17.9519 20.0017 17.969C20.0399 17.9453 20.0755 17.9255 20.1097 17.9032C20.3415 17.7491 20.5971 17.67 20.8737 17.6713C21.0014 17.6727 21.1318 17.6792 21.2583 17.699C21.4256 17.7253 21.5744 17.7912 21.6666 17.9466C21.6666 17.9967 21.6666 18.0441 21.6666 18.0928Z" fill="#2495EC"/>
<path d="M14.424 5.77734C14.4424 5.80764 14.4609 5.83925 14.4793 5.86954C14.4793 6.2199 14.4793 6.57157 14.4793 6.92192C14.4569 6.95353 14.4332 6.98515 14.4108 7.01676C13.9985 7.01676 13.5862 7.01676 13.174 7.01676C13.1516 6.9891 13.1279 6.96275 13.1055 6.93509C13.1055 6.57947 13.1055 6.22517 13.1055 5.86954C13.12 5.83925 13.1331 5.80764 13.1476 5.77734C13.5718 5.77734 13.9985 5.77734 14.424 5.77734Z" fill="#2495EC"/>
<path d="M8.95703 20.5938C9.0005 20.5938 9.04528 20.5938 9.08874 20.5938C9.08874 20.5977 9.08874 20.6017 9.08874 20.6069C9.04528 20.6069 9.0005 20.6069 8.95703 20.6069C8.95703 20.603 8.95703 20.599 8.95703 20.5938Z" fill="#62B4F1"/>
<path d="M5.76953 20.5977C5.79192 20.5977 5.81431 20.5977 5.83539 20.5977C5.83539 20.6016 5.83539 20.6056 5.83539 20.6095C5.813 20.6095 5.79192 20.6095 5.76953 20.6095C5.76953 20.6056 5.76953 20.6016 5.76953 20.5977Z" fill="#5CB0F0"/>
<path d="M12.2109 20.5977C12.2333 20.5977 12.2544 20.5977 12.2768 20.5977C12.2768 20.6016 12.2768 20.6069 12.2768 20.6108C12.2544 20.6108 12.2333 20.6108 12.2109 20.6108C12.2109 20.6056 12.2109 20.6016 12.2109 20.5977Z" fill="#5BB0F0"/>
<path d="M5.76948 20.5977C5.76948 20.6016 5.76948 20.6056 5.76948 20.6095C5.75236 20.6095 5.73392 20.6095 5.7168 20.6095C5.7168 20.6056 5.7168 20.6016 5.7168 20.5977C5.73392 20.5977 5.75104 20.5977 5.76948 20.5977Z" fill="#6EB9F2"/>
<path d="M4.34584 18.9453C4.34189 18.9638 4.33794 18.9809 4.33398 18.9993C4.33398 18.9822 4.33398 18.9638 4.33398 18.9466C4.33794 18.9466 4.34189 18.9466 4.34584 18.9453Z" fill="#99CEF5"/>
<path d="M5.83594 20.6095C5.83594 20.6056 5.83594 20.6016 5.83594 20.5977C5.85306 20.5977 5.8715 20.5977 5.88862 20.5977C5.88862 20.6016 5.88862 20.6056 5.88862 20.6095C5.8715 20.6095 5.85306 20.6095 5.83594 20.6095Z" fill="#6DB9F2"/>
<path d="M12.2103 20.5977C12.2103 20.6016 12.2103 20.6056 12.2103 20.6095C12.1931 20.6095 12.1747 20.6095 12.1576 20.6095C12.1576 20.6056 12.1576 20.6016 12.1562 20.5977C12.1747 20.5977 12.1918 20.5977 12.2103 20.5977Z" fill="#6DB9F2"/>
<path d="M9.08789 20.6069C9.08789 20.603 9.08789 20.599 9.08789 20.5938C9.10106 20.5938 9.11423 20.5951 9.1274 20.5951C9.1274 20.599 9.1274 20.603 9.1274 20.6069C9.11423 20.6069 9.10106 20.6069 9.08789 20.6069Z" fill="#7CC0F3"/>
<path d="M12.1573 20.5977C12.1573 20.6016 12.1587 20.6056 12.1587 20.6095C12.1455 20.6095 12.1323 20.6095 12.1191 20.6095C12.1323 20.6056 12.1455 20.6016 12.1573 20.5977Z" fill="#94CBF5"/>
<path d="M12.2754 20.6069C12.2754 20.603 12.2754 20.5977 12.2754 20.5938C12.2886 20.5938 12.3017 20.5937 12.3149 20.5951C12.3149 20.599 12.3149 20.603 12.3149 20.6069C12.3017 20.6069 12.2886 20.6069 12.2754 20.6069Z" fill="#69B7F2"/>
<path d="M12.3418 20.5977C12.355 20.6016 12.3681 20.6056 12.3813 20.6095C12.3681 20.6095 12.355 20.6095 12.3418 20.6095C12.3418 20.6056 12.3418 20.6016 12.3418 20.5977Z" fill="#9ACEF6"/>
<path d="M5.71775 20.5977C5.71775 20.6016 5.71775 20.6056 5.71775 20.6095C5.70853 20.6095 5.70063 20.6095 5.69141 20.6095C5.70063 20.6056 5.70853 20.6016 5.71775 20.5977Z" fill="#8EC8F5"/>
<path d="M5.88867 20.6095C5.88867 20.6056 5.88867 20.6016 5.88867 20.5977C5.89789 20.5977 5.90579 20.599 5.91501 20.599C5.91501 20.6029 5.91501 20.6069 5.91501 20.6108C5.90579 20.6095 5.89789 20.6095 5.88867 20.6095Z" fill="#8DC8F5"/>
<path d="M5.91406 20.6095C5.91406 20.6056 5.91406 20.6016 5.91406 20.5977C5.92329 20.6016 5.93119 20.6056 5.94041 20.6095C5.93119 20.6095 5.92329 20.6095 5.91406 20.6095Z" fill="#ABD6F8"/>
<path d="M8.9043 20.6095C8.91352 20.6056 8.92142 20.6016 8.93064 20.5977C8.93064 20.6016 8.93064 20.6056 8.93064 20.6095C8.92142 20.6095 8.91352 20.6095 8.9043 20.6095Z" fill="#99CEF6"/>
<path d="M8.93164 20.6095C8.93164 20.6056 8.93164 20.6016 8.93164 20.5977C8.94086 20.5977 8.94876 20.5977 8.95798 20.5977C8.95798 20.6016 8.95798 20.6056 8.95798 20.6108C8.94876 20.6095 8.94086 20.6095 8.93164 20.6095Z" fill="#7CBFF4"/>
<path d="M4.34584 18.9469C4.34189 18.9469 4.33794 18.9482 4.33398 18.9482C4.33398 18.939 4.33398 18.9311 4.33398 18.9219C4.33794 18.9298 4.34189 18.939 4.34584 18.9469Z" fill="#FDFDFD"/>
<path d="M9.12891 20.6095C9.12891 20.6056 9.12891 20.6016 9.12891 20.5977C9.13813 20.6016 9.14603 20.6056 9.15525 20.6095C9.14603 20.6095 9.13813 20.6095 9.12891 20.6095Z" fill="#9FD1F7"/>
<path d="M12.3427 20.5977C12.3427 20.6016 12.3427 20.6056 12.3427 20.6095C12.3335 20.6095 12.3256 20.6095 12.3164 20.6095C12.3164 20.6056 12.3164 20.6016 12.3164 20.5977C12.3256 20.5977 12.3348 20.5977 12.3427 20.5977Z" fill="#7FC1F4"/>
<path d="M7.14018 11.1265C7.13754 10.9724 7.13491 10.8183 7.13096 10.6642C7.12701 10.4956 7.24291 10.3402 7.40097 10.2901C7.42731 10.2822 7.45497 10.2756 7.48263 10.269C7.54585 10.269 7.61039 10.2677 7.67361 10.2677C10.5133 10.2677 13.3544 10.2677 16.1941 10.2677C16.2336 10.2677 16.2718 10.2624 16.3113 10.2585C16.6222 10.2427 16.9198 10.1782 17.2043 10.0359C17.0871 9.8357 16.9962 9.63154 16.958 9.40895C16.929 9.23641 16.9146 9.06386 16.9356 8.88605C16.9567 8.70429 16.991 8.52779 17.0476 8.35525C17.1319 8.09841 17.2557 7.86001 17.4177 7.64268C17.4361 7.61765 17.4519 7.60317 17.4875 7.6216C17.9037 7.84288 18.2225 8.16031 18.4227 8.58706C18.4898 8.73063 18.5254 8.89 18.5702 9.0441C18.586 9.09811 18.5939 9.1284 18.6663 9.11523C18.7888 9.09416 18.914 9.08494 19.0378 9.08098C19.4421 9.06913 19.8346 9.11523 20.1863 9.33519C20.2377 9.3668 20.2851 9.40763 20.3312 9.44715C20.3404 9.45505 20.343 9.47744 20.3391 9.49061C20.2482 9.80145 20.073 10.057 19.8307 10.269C19.533 10.5298 19.1853 10.6787 18.7941 10.7287C18.6545 10.7458 18.5135 10.7511 18.3726 10.7537C18.3212 10.7551 18.3015 10.7735 18.2817 10.8156C18.1329 11.1489 17.992 11.4861 17.8273 11.8127C17.6021 12.2592 17.3255 12.6741 17.0028 13.0574C16.6762 13.4459 16.3047 13.7858 15.8898 14.0795C15.5527 14.3192 15.1957 14.5234 14.8111 14.6748C14.499 14.7986 14.1815 14.9159 13.8588 15.0054C13.5677 15.0858 13.2661 15.1292 12.9671 15.1806C12.7999 15.2096 12.6286 15.2188 12.4587 15.2359C12.1347 15.2675 11.8094 15.2649 11.4841 15.261C11.351 15.2596 11.218 15.2596 11.0863 15.2491C10.9388 15.2372 10.7912 15.2175 10.645 15.1964C10.4527 15.1688 10.2591 15.1477 10.0721 15.1029C9.84423 15.0489 9.61637 14.9817 9.39509 14.904C9.2265 14.8447 9.06186 14.7683 8.90644 14.6814C8.77473 14.609 8.65092 14.5168 8.53238 14.4206C8.41647 14.3271 8.30583 14.2244 8.20837 14.1124C8.09114 13.9768 7.98182 13.8332 7.88567 13.6817C7.78425 13.5237 7.69205 13.3577 7.61698 13.1865C7.53005 12.9902 7.4576 12.7874 7.39438 12.5819C7.33248 12.3791 7.28638 12.171 7.24291 11.9642C7.21525 11.8338 7.20076 11.6994 7.18233 11.5664C7.16652 11.4558 7.15335 11.3451 7.14018 11.2332C7.13754 11.1963 7.14018 11.1607 7.14018 11.1265Z" fill="#2495EC"/>
<path d="M12.1646 8.51867C11.9763 8.51867 11.7879 8.51867 11.5982 8.51867C11.5258 8.51867 11.4902 8.48311 11.4902 8.4133C11.4902 8.06954 11.4902 7.72445 11.4902 7.38068C11.4902 7.31878 11.5139 7.2819 11.5785 7.27794C11.6009 7.27663 11.6219 7.27399 11.6443 7.27399C11.9947 7.27399 12.3464 7.27399 12.6967 7.27399C12.7244 7.27399 12.7573 7.27004 12.7797 7.28321C12.81 7.30034 12.8363 7.32931 12.8548 7.35961C12.8666 7.37936 12.8653 7.41097 12.8653 7.436C12.8653 7.74552 12.8653 8.05505 12.8653 8.36325C12.8653 8.48575 12.8324 8.51867 12.7112 8.51867C12.5281 8.51867 12.3464 8.51867 12.1646 8.51867Z" fill="#2495EC"/>
<path d="M10.815 8.51689C10.545 8.51557 10.2763 8.51557 10.0063 8.51426C9.89035 8.51426 9.85874 8.48265 9.85742 8.36542C9.85742 8.048 9.85742 7.72925 9.85742 7.41183C9.85742 7.3025 9.89035 7.27089 9.99835 7.26826C10.0682 7.26694 10.138 7.26562 10.2091 7.26562C10.4896 7.26694 10.7702 7.26826 11.0507 7.26826C11.0744 7.26826 11.0995 7.26826 11.1232 7.27089C11.2009 7.28143 11.2312 7.31172 11.2312 7.39075C11.2325 7.72135 11.2325 8.05326 11.2312 8.38386C11.2312 8.46157 11.1851 8.52084 11.0968 8.51426C11.0033 8.51031 10.9098 8.51689 10.815 8.51689Z" fill="#2495EC"/>
<path d="M14.4793 8.42592C14.4609 8.49309 14.4161 8.51944 14.3476 8.51944C13.9748 8.51812 13.6021 8.51812 13.2293 8.51944C13.1621 8.51944 13.1134 8.50231 13.1055 8.42592C13.1055 8.0703 13.1055 7.71599 13.1055 7.36037C13.1147 7.309 13.1424 7.27871 13.1977 7.27871C13.2148 7.27871 13.2319 7.27344 13.249 7.27344C13.606 7.27344 13.9643 7.27344 14.3212 7.27344C14.424 7.27344 14.4556 7.29451 14.4793 7.37354C14.4793 7.72389 14.4793 8.07425 14.4793 8.42592Z" fill="#2495EC"/>
<path d="M14.7913 10.0073C14.7702 9.97837 14.7307 9.94939 14.7307 9.92041C14.7267 9.57401 14.7294 9.22761 14.7294 8.87989C14.7294 8.80218 14.761 8.76661 14.8387 8.76661C15.2233 8.7653 15.6066 8.7653 15.9912 8.76661C16.0662 8.76661 16.1044 8.81139 16.1044 8.89701C16.1057 9.16702 16.1044 9.43703 16.1044 9.70704C16.1044 9.76236 16.1044 9.81636 16.1044 9.87168C16.1057 9.927 16.0913 9.97573 16.0412 10.0073C15.625 10.006 15.2088 10.006 14.7913 10.0073Z" fill="#2495EC"/>
<path d="M12.8021 10.0067C12.403 10.008 12.0053 10.0093 11.6062 10.008C11.5219 10.008 11.489 9.96978 11.489 9.87758C11.4876 9.67211 11.489 9.46533 11.489 9.25986C11.489 9.23616 11.4876 9.21245 11.4863 9.18742C11.4876 9.08206 11.489 8.97669 11.489 8.87132C11.489 8.80547 11.5193 8.76991 11.5838 8.76727C11.6536 8.76464 11.7247 8.76595 11.7945 8.76595C12.1054 8.76595 12.4175 8.76595 12.7284 8.76595C12.8192 8.76595 12.8627 8.80415 12.8627 8.89503C12.864 9.22167 12.864 9.54831 12.8627 9.87495C12.8627 9.92895 12.8508 9.97768 12.8021 10.0067Z" fill="#2495EC"/>
<path d="M11.2338 8.95266C11.2325 9.25296 11.2312 9.55326 11.2312 9.85489C11.2312 9.9866 11.2062 10.0116 11.0731 10.0116C10.7175 10.0116 10.3619 10.0116 10.0063 10.0116C9.8864 10.0116 9.85742 9.98265 9.85742 9.86542C9.85742 9.54668 9.85742 9.22925 9.85742 8.91051C9.85742 8.80119 9.89035 8.76826 9.99835 8.76826C10.35 8.76694 10.7004 8.76694 11.0521 8.76562C11.0665 8.76694 11.0823 8.76694 11.0968 8.76826C11.193 8.76958 11.2272 8.80382 11.2312 8.90129C11.2312 8.91841 11.2325 8.93553 11.2338 8.95266Z" fill="#2495EC"/>
<path d="M14.4793 9.91416C14.4569 9.94577 14.4332 9.97738 14.4108 10.009C13.9985 10.009 13.5862 10.009 13.174 10.009C13.1516 9.98134 13.1279 9.95499 13.1055 9.92733C13.1055 9.57171 13.1055 9.2174 13.1055 8.86178C13.1081 8.79197 13.1489 8.76827 13.2122 8.76958C13.5955 8.76958 13.9788 8.76958 14.3621 8.76958C14.4266 8.76958 14.4622 8.80383 14.4793 8.8631C14.4793 9.21214 14.4793 9.56249 14.4793 9.91416Z" fill="#2495EC"/>
<path d="M16.3111 10.2552C16.2716 10.2579 16.2334 10.2644 16.1939 10.2644C13.3542 10.2644 10.5131 10.2644 7.6734 10.2644C7.61018 10.2644 7.54564 10.2644 7.48242 10.2658C7.51008 10.2618 7.53774 10.2552 7.56408 10.2552C9.19336 10.2552 10.824 10.2552 12.4532 10.2552C12.4822 10.2552 12.5099 10.2539 12.5389 10.2539C13.395 10.2539 14.2498 10.2552 15.1059 10.2552C15.5076 10.2539 15.9094 10.2552 16.3111 10.2552Z" fill="#FDFDFD"/>
<path d="M13.6043 16.6289C13.6043 17.8802 13.6043 19.1301 13.6043 20.3814C13.6003 20.3577 13.5938 20.3353 13.5938 20.3116C13.5938 19.1064 13.5938 17.9026 13.5938 16.6974C13.5938 16.6763 13.6003 16.6526 13.6043 16.6289Z" fill="#FDFDFD"/>
<path d="M7.27476 19.2261C7.27476 18.7216 7.27344 18.2172 7.27344 17.7114C7.27344 17.3558 7.27344 17.0002 7.27476 16.6445C7.27871 16.6682 7.28531 16.6906 7.28531 16.7143C7.28531 17.5283 7.28531 18.3423 7.28531 19.1563C7.28531 19.1787 7.27739 19.2024 7.27476 19.2261Z" fill="#FDFDFD"/>
<path d="M14.1682 18.7112C14.1616 18.7112 14.1511 18.7112 14.1511 18.7112C14.1498 18.6915 14.1498 18.6717 14.1498 18.652C14.1498 17.9789 14.1484 17.3059 14.1484 16.6328C14.1524 16.6578 14.159 16.6829 14.159 16.7092C14.159 17.352 14.159 17.9934 14.1603 18.6362C14.159 18.6599 14.1656 18.6862 14.1682 18.7112Z" fill="#FDFDFD"/>
<path d="M16.8086 19.4246C16.8244 19.4206 16.8402 19.4141 16.856 19.4141C17.5422 19.4141 18.2271 19.4141 18.9134 19.4141C18.8883 19.418 18.8633 19.4246 18.837 19.4246C18.1613 19.4246 17.4856 19.4246 16.8086 19.4246Z" fill="#FDFDFD"/>
<path d="M8.93033 10.0087C8.74857 10.0087 8.56548 10.0087 8.38371 10.0087C8.27834 10.0087 8.24805 9.97705 8.24805 9.87431C8.24805 9.5424 8.24805 9.2118 8.24805 8.87989C8.24805 8.81008 8.28756 8.76661 8.35869 8.76661C8.74198 8.7653 9.12659 8.7653 9.50988 8.76661C9.57574 8.76661 9.61131 8.80086 9.61921 8.8654C9.62184 8.88647 9.62184 8.90886 9.62184 8.93125C9.62184 9.23814 9.62184 9.54503 9.62184 9.85324C9.62184 9.98232 9.5955 10.0087 9.46905 10.0087C9.29124 10.0087 9.11079 10.0087 8.93033 10.0087Z" fill="#2495EC"/>
<path d="M20.6585 20.585C20.5479 20.5863 20.4636 20.506 20.461 20.398C20.4596 20.2926 20.5439 20.2084 20.6533 20.207C20.7626 20.2057 20.8482 20.2874 20.8495 20.3927C20.8508 20.5007 20.7679 20.585 20.6585 20.585ZM20.648 20.5442C20.7323 20.5481 20.7955 20.4902 20.7995 20.4059C20.8034 20.319 20.7481 20.2531 20.6664 20.2479C20.5821 20.2426 20.5136 20.3045 20.5097 20.3901C20.5057 20.4718 20.5676 20.5402 20.648 20.5442Z" fill="#2797EC"/>
<path d="M20.6482 20.5465C20.5679 20.5426 20.506 20.4741 20.5099 20.3924C20.5139 20.3068 20.5824 20.2462 20.6666 20.2502C20.747 20.2555 20.8023 20.32 20.7996 20.4082C20.7957 20.4925 20.7325 20.5505 20.6482 20.5465ZM20.7259 20.5044C20.7298 20.4991 20.7338 20.4952 20.7377 20.4899C20.7338 20.4556 20.7193 20.4175 20.7285 20.3858C20.7417 20.3358 20.7338 20.3095 20.6811 20.3055C20.6495 20.3029 20.6179 20.3055 20.5876 20.3055C20.5758 20.4728 20.5771 20.4859 20.6219 20.4925C20.6258 20.4701 20.6285 20.4477 20.635 20.4016C20.6745 20.4451 20.7009 20.4754 20.7259 20.5044Z" fill="#FAFCFE"/>
<path d="M20.7247 20.5035C20.6984 20.4745 20.6734 20.4442 20.6338 20.402C20.6273 20.4468 20.6233 20.4692 20.6207 20.4929C20.5759 20.485 20.5746 20.4732 20.5864 20.3059C20.6167 20.3059 20.6483 20.3032 20.6799 20.3059C20.7326 20.3111 20.7405 20.3375 20.7274 20.3862C20.7181 20.4178 20.7326 20.4547 20.7366 20.4903C20.734 20.4942 20.73 20.4982 20.7247 20.5035Z" fill="#2897EC"/>
</g>
<defs>
<clipPath id="docker">
<rect width="17.3333" height="14.8308" fill="white" transform="translate(4.33398 5.77734)"/>
</clipPath>
</defs>
</svg>
