<svg width="100%" height="100%" viewBox="0 0 23 28" fill="none" xmlns="http://www.w3.org/2000/svg">
<path fill-rule="evenodd" clip-rule="evenodd" d="M11.5949 24.9999C11.3759 24.999 11.1664 24.9123 11.013 24.7591C10.6952 24.4459 10.6952 23.9402 11.013 23.6271C16.8486 18.0072 19.6435 13.399 19.5534 9.49719C19.4033 5.1766 15.7053 1.79339 11.2948 1.94051C7.36782 2.07152 4.12087 4.97933 3.63652 8.79876C3.02183 13.6157 7.79198 19.2355 9.8656 21.4353C10.1961 21.7383 10.2133 22.2463 9.904 22.5701C9.59463 22.8938 9.07603 22.9107 8.74559 22.6077C8.71812 22.5826 8.69253 22.5557 8.66894 22.5272C5.89044 19.6129 1.33342 13.9288 2.01363 8.59803C2.62153 3.42675 7.39412 -0.282644 12.6734 0.312733C17.4478 0.851315 21.0852 4.75834 21.1925 9.46509C21.2991 13.8325 18.3485 18.8422 12.1768 24.7751C12.0208 24.9224 11.8116 25.0033 11.5949 24.9999Z" fill="#86BC25"/>
<path d="M11.5703 4.375C8.53431 4.375 6.07031 6.839 6.07031 9.875C6.07031 12.911 8.53431 15.375 11.5703 15.375C11.5703 15.375 13.737 15.375 14.237 15.375C14.737 15.2083 14.737 14.5417 14.3203 14.275C13.6185 14.275 11.5703 14.275 11.5703 14.275C9.18331 14.275 7.17031 12.262 7.17031 9.875C7.17031 7.488 9.18331 5.475 11.5703 5.475C13.9573 5.475 15.9703 7.488 15.9703 9.875V10.6615C15.9703 11.096 15.5798 11.525 15.1453 11.525C14.7108 11.525 14.3203 11.096 14.3203 10.6615V9.875C14.3203 8.357 13.0883 7.125 11.5703 7.125C10.0523 7.125 8.82031 8.357 8.82031 9.875C8.82031 11.393 10.0523 12.625 11.5703 12.625C12.3293 12.625 13.0223 12.317 13.5173 11.8165C13.8748 12.306 14.4908 12.625 15.1453 12.625C16.2288 12.625 17.0703 11.745 17.0703 10.6615V9.875C17.0703 6.839 14.6063 4.375 11.5703 4.375ZM11.5703 11.525C10.6573 11.525 9.92031 10.788 9.92031 9.875C9.92031 8.962 10.6573 8.225 11.5703 8.225C12.4833 8.225 13.2203 8.962 13.2203 9.875C13.2203 10.788 12.4833 11.525 11.5703 11.525Z" fill="#86BC25"/>
<path fill-rule="evenodd" clip-rule="evenodd" d="M11.5494 27.75C6.25946 27.75 0.570312 26.6526 0.570312 24.2535C0.570312 21.7258 6.63386 21.037 8.49698 20.8781C8.95614 20.8406 9.362 21.1489 9.40355 21.5668C9.44519 21.9848 9.10583 22.3541 8.64658 22.3917C4.08027 22.7626 2.23385 23.86 2.23385 24.2535C2.23385 24.8287 5.49433 26.2363 11.5494 26.2363C17.6047 26.2363 20.8652 24.8287 20.8652 24.2535C20.8652 24.193 20.7987 23.9584 20.0334 23.5723C19.2708 23.1571 18.38 22.9816 17.4966 23.0729C17.3718 23.1343 17.2313 23.1655 17.0891 23.1637C16.8603 23.1571 16.6424 23.0703 16.4818 22.9215C16.2198 22.6835 16.1616 22.3163 16.3404 22.0209C16.4719 21.8166 16.6923 21.6733 16.9477 21.6273H17.0059C18.3134 21.4194 19.66 21.6392 20.807 22.2479C21.2394 22.4599 22.5703 23.0956 22.5703 24.2686C22.5288 26.6753 16.8394 27.75 11.5494 27.75Z" fill="#86BC25"/>
</svg>
