<svg width="100%" height="100%" viewBox="0 0 23 26" fill="none" xmlns="http://www.w3.org/2000/svg">
<path fill-rule="evenodd" clip-rule="evenodd" d="M3.37557 8.72656C2.89467 8.72656 2.50439 8.33606 2.50439 7.85477V2.91174C2.50439 1.73216 3.46015 0.775806 4.63878 0.775806H9.60447C10.0854 0.775806 10.4756 1.16641 10.4756 1.6476C10.4756 2.12889 10.0854 2.51951 9.60447 2.51951H4.63878C4.42455 2.52384 4.25104 2.69733 4.24681 2.91174V7.85477C4.24681 8.33606 3.85648 8.72656 3.37557 8.72656Z" fill="#4F4F4F"/>
<path fill-rule="evenodd" clip-rule="evenodd" d="M19.8928 8.72656C19.4119 8.72656 19.0216 8.33606 19.0216 7.85477V2.91174C19.0216 2.69819 18.8517 2.52384 18.6382 2.51951H13.6988C13.2179 2.51951 12.8276 2.12889 12.8276 1.6476C12.8276 1.16641 13.2179 0.775806 13.6988 0.775806H18.6382C19.8134 0.78109 20.7639 1.73571 20.7639 2.91174V7.85477C20.7639 8.33606 20.3737 8.72656 19.8928 8.72656Z" fill="#4F4F4F"/>
<path fill-rule="evenodd" clip-rule="evenodd" d="M9.60447 18.9453H4.63878C3.46361 18.9453 2.50881 17.9942 2.50439 16.8181V11.8751C2.50439 11.3938 2.89467 11.0033 3.37557 11.0033C3.85648 11.0033 4.24681 11.3938 4.24681 11.8751V16.8181C4.25104 17.0317 4.42542 17.2018 4.63878 17.2018H9.60447C10.0854 17.2018 10.4756 17.5923 10.4756 18.0735C10.4756 18.5548 10.0854 18.9453 9.60447 18.9453Z" fill="#4F4F4F"/>
<path fill-rule="evenodd" clip-rule="evenodd" d="M18.6382 18.9453H13.6988C13.2179 18.9453 12.8276 18.5548 12.8276 18.0735C12.8276 17.5923 13.2179 17.2018 13.6988 17.2018H18.6382C18.85 17.2018 19.0216 17.03 19.0216 16.8181V11.8751C19.0216 11.3938 19.4119 11.0033 19.8928 11.0033C20.3737 11.0033 20.7639 11.3938 20.7639 11.8751V16.8181C20.7639 17.9933 19.8126 18.9453 18.6382 18.9453Z" fill="#4F4F4F"/>
<path fill-rule="evenodd" clip-rule="evenodd" d="M11.6342 16.9141C8.43695 16.9141 5.83228 13.7581 5.83228 9.86122C5.83228 5.96433 8.44578 2.80839 11.6342 2.80839C12.4697 2.80839 13.2911 3.02205 14.0212 3.42735C14.4446 3.668 14.5927 4.20681 14.3523 4.63046C14.1117 5.0541 13.5734 5.20235 13.1501 4.96171C12.677 4.69407 12.143 4.5538 11.5994 4.55198C9.36047 4.55198 7.53969 6.94074 7.53969 9.86122C7.53969 12.7817 9.36047 15.1705 11.5994 15.1705C13.8383 15.1705 15.659 12.7905 15.659 9.86122C15.665 8.90057 15.4568 7.9502 15.0491 7.08023C14.8444 6.64429 15.0318 6.12563 15.4673 5.92072C15.9003 5.71495 16.4178 5.89806 16.626 6.33045C17.14 7.43684 17.4047 8.64158 17.4013 9.86122C17.4449 13.793 14.8314 16.9141 11.6342 16.9141Z" fill="#4F4F4F"/>
<path fill-rule="evenodd" clip-rule="evenodd" d="M21.8004 25.2227C21.3195 25.2227 20.9293 24.8321 20.9293 24.3509C20.9293 22.7118 19.0562 21.3344 16.8435 21.3344H6.38959C4.17691 21.3344 2.31267 22.7118 2.31267 24.3509C2.31267 24.8321 1.92234 25.2227 1.44143 25.2227C0.960626 25.2227 0.570312 24.8321 0.570312 24.3509C0.570312 21.7355 3.18379 19.5908 6.38959 19.5908H16.8435C20.0581 19.5908 22.6715 21.7267 22.6715 24.3509C22.6715 24.8321 22.2813 25.2227 21.8004 25.2227Z" fill="#4F4F4F"/>
</svg>
