<svg width="42" height="42" viewBox="0 0 42 42" fill="none" xmlns="http://www.w3.org/2000/svg">
<circle cx="21" cy="21" r="20.5" stroke="#D0D0CE"/>
<path d="M25.4375 20.5C27.625 20.5 29.375 22.25 29.375 24.4375C29.375 25.2075 29.1562 25.9337 28.7712 26.5375L31.4663 29.25L30.25 30.4662L27.52 27.78C26.9163 28.1562 26.1988 28.375 25.4375 28.375C23.25 28.375 21.5 26.625 21.5 24.4375C21.5 22.25 23.25 20.5 25.4375 20.5ZM25.4375 22.25C24.8573 22.25 24.3009 22.4805 23.8907 22.8907C23.4805 23.3009 23.25 23.8573 23.25 24.4375C23.25 25.0177 23.4805 25.5741 23.8907 25.9843C24.3009 26.3945 24.8573 26.625 25.4375 26.625C26.0177 26.625 26.5741 26.3945 26.9843 25.9843C27.3945 25.5741 27.625 25.0177 27.625 24.4375C27.625 23.8573 27.3945 23.3009 26.9843 22.8907C26.5741 22.4805 26.0177 22.25 25.4375 22.25ZM27.625 17H13.625V25.75H19.8988C20.0475 26.38 20.3013 26.9663 20.625 27.5H13.625C13.1609 27.5 12.7158 27.3156 12.3876 26.9874C12.0594 26.6592 11.875 26.2141 11.875 25.75V15.25C11.875 14.2788 12.6538 13.5 13.625 13.5H18.875L20.625 15.25H27.625C28.0891 15.25 28.5342 15.4344 28.8624 15.7626C29.1906 16.0908 29.375 16.5359 29.375 17V20.3338C28.8675 19.8525 28.2813 19.4587 27.625 19.1875V17Z" fill="#D0D0CE"/>
</svg>
