<svg width="100%" height="100%" viewBox="0 0 26 26" fill="none" xmlns="http://www.w3.org/2000/svg">
<circle cx="13" cy="13" r="12.5" fill="white" stroke="#E2EAEC"/>
<path d="M13 0C5.84999 0 0 5.76277 0 12.8603C0 19.2777 4.75799 24.6041 10.972 25.5667V16.5824H7.66999V12.8603H10.972V10.0239C10.972 6.80238 12.909 5.03119 15.886 5.03119C17.303 5.03119 18.785 5.27505 18.785 5.27505V8.44522H17.147C15.535 8.44522 15.028 9.43349 15.028 10.4474V12.8603H18.642L18.057 16.5824H15.028V25.5667C18.0914 25.089 20.8808 23.5459 22.8929 21.2158C24.9049 18.8857 26.0069 15.9222 26 12.8603C26 5.76277 20.15 0 13 0Z" fill="#395185"/>
<circle cx="13" cy="13" r="12.5" stroke="#E2EAEC"/>
</svg>
