<svg width="100%" height="100%" viewBox="0 0 18 18" fill="none" xmlns="http://www.w3.org/2000/svg">
<circle cx="9" cy="9" r="8.5" fill="white" stroke="#E2EAEC"/>
<path d="M8.94996 0.0996094C4.08247 0.0996094 0.0999756 4.08922 0.0999756 9.00292C0.0999756 13.4457 3.33907 17.1332 7.56937 17.7996V11.5797H5.32147V9.00292H7.56937V7.03922C7.56937 4.80895 8.88801 3.58274 10.9147 3.58274C11.8793 3.58274 12.8882 3.75157 12.8882 3.75157V5.9463H11.7731C10.6757 5.9463 10.3306 6.63048 10.3306 7.33244V9.00292H12.7909L12.3926 11.5797H10.3306V17.7996C12.416 17.4689 14.315 16.4006 15.6847 14.7875C17.0545 13.1743 17.8047 11.1227 17.8 9.00292C17.8 4.08922 13.8175 0.0996094 8.94996 0.0996094Z" fill="#395185"/>
<circle cx="9" cy="9" r="8.5" stroke="#E2EAEC"/>
</svg>
