<svg width="100%" height="100%" viewBox="0 0 18 18" fill="none" xmlns="http://www.w3.org/2000/svg">
<circle cx="9" cy="9" r="9" fill="#005587"/>
<path fill-rule="evenodd" clip-rule="evenodd" d="M11.0063 8.74929H10.1696H10.0594C10.3243 8.35887 10.4132 7.87534 10.3043 7.41638C10.1896 6.83463 9.67323 6.41878 9.07978 6.42994C8.59813 6.42994 7.78585 6.62565 7.75322 7.83217C7.73445 8.39232 8.0573 8.90799 8.56955 9.1365C8.52058 9.24398 8.52058 9.3674 8.56955 9.47484C8.6512 9.68373 8.88628 9.78757 9.09607 9.70718C9.24343 9.64943 9.38099 9.56972 9.50427 9.47075C9.72221 9.52579 9.94505 9.55855 10.1696 9.56859H11.0104V9.04274C10.9973 8.94547 10.9957 8.84691 11.0063 8.74929ZM9.22265 8.52104H9.18588C8.65936 8.32129 8.56136 8.11344 8.56955 7.84846C8.56955 7.34301 8.76138 7.2452 9.09198 7.24111C9.29812 7.25394 9.46789 7.40814 9.50017 7.61203C9.55364 7.94659 9.45121 8.28717 9.22265 8.53733V8.52104Z" fill="white"/>
<path fill-rule="evenodd" clip-rule="evenodd" d="M14.8961 3.82475H3.10834C2.88307 3.82475 2.7002 4.00723 2.7002 4.23236V10.6441C2.7002 10.8693 2.88307 11.0518 3.10834 11.0518H5.77772C5.92958 10.669 6.241 10.3713 6.63078 10.2365H3.51238V4.64002H14.4839V10.208H13.6676V11.0232H14.892C15.1173 11.0232 15.3002 10.8408 15.3002 10.6156V4.23236C15.3002 4.00885 15.1198 3.82696 14.8961 3.82475Z" fill="white"/>
<path fill-rule="evenodd" clip-rule="evenodd" d="M8.72855 10.2207C8.53758 9.37673 7.78696 8.77747 6.92044 8.77774H5.95713C5.81796 8.3542 5.48161 8.02447 5.0551 7.89322V7.01279C5.49142 6.87686 5.83346 6.53555 5.96939 6.09977H12.0347C12.1706 6.53555 12.5126 6.87686 12.949 7.01279V7.86063C13.2384 8.01416 13.462 8.2677 13.5775 8.57394C13.6918 8.50071 13.7625 8.3754 13.7653 8.2397V6.6663C13.7653 6.44121 13.5825 6.2587 13.3572 6.2587C13.0437 6.2587 12.7898 6.00507 12.7898 5.69211C12.7898 5.46698 12.6069 5.2845 12.3816 5.2845H5.62245C5.39713 5.2845 5.21426 5.46698 5.21426 5.69211C5.21426 6.00507 4.9604 6.2587 4.64696 6.2587C4.42164 6.2587 4.23877 6.44121 4.23877 6.6663V8.2397C4.23877 8.46483 4.42164 8.64735 4.64696 8.64735C4.95347 8.64721 5.20368 8.89171 5.21021 9.19759C5.21021 9.42273 5.39308 9.6052 5.61835 9.6052H6.92044C7.34123 9.60547 7.72043 9.85996 7.87958 10.2492C8.25429 10.3942 8.55063 10.6902 8.69592 11.0645H10.9653V10.2492L8.72855 10.2207Z" fill="white"/>
<path fill-rule="evenodd" clip-rule="evenodd" d="M12.3002 13.9297C11.3899 13.9297 10.6267 13.4976 10.394 12.8536C10.3181 12.6416 10.4287 12.4083 10.641 12.3326C10.6418 12.3323 10.6422 12.3321 10.643 12.3319C10.8549 12.2584 11.0863 12.3695 11.1614 12.5805C11.4132 12.9545 11.8512 13.1597 12.3002 13.1145C12.9777 13.1145 13.4553 12.772 13.4553 12.4663V12.3359C13.0977 12.5178 12.7014 12.6102 12.3002 12.6049C11.3899 12.6049 10.6267 12.1729 10.394 11.5288C10.3773 11.4831 10.3691 11.4348 10.3695 11.3862L10.394 10.0573C10.3912 9.85669 10.5348 9.68382 10.7328 9.64974C10.9283 9.61648 11.1193 9.72819 11.1859 9.91471C11.4303 10.2954 11.8704 10.5042 12.3206 10.4528C13.0022 10.4528 13.4757 10.1104 13.4757 9.80466V9.60896C13.4402 9.73292 13.3475 9.83271 13.2267 9.87803C12.9365 9.98354 12.6295 10.0374 12.3206 10.037C11.2144 10.037 10.3491 9.39292 10.3491 8.57365C10.3491 7.75435 11.2144 7.1062 12.3206 7.1062C13.4267 7.1062 14.2512 7.72581 14.292 8.51654V9.80466C14.2896 10.1537 14.1418 10.486 13.8839 10.7217C14.1091 10.7217 14.292 10.9043 14.292 11.1294V12.4541C14.2716 13.2857 13.4022 13.9297 12.3002 13.9297ZM11.1899 11.3087C11.4532 11.6481 11.872 11.8295 12.3002 11.7897C12.9777 11.7897 13.4553 11.4473 13.4553 11.1416C13.4467 11.0985 13.4467 11.0543 13.4553 11.0111C13.0969 11.1911 12.701 11.2834 12.3002 11.2802C11.9095 11.2845 11.5234 11.1965 11.1736 11.0234L11.1899 11.3087ZM13.0838 9.09945C13.2532 9.10062 13.4042 9.20604 13.4634 9.36442V9.39291V8.54922C13.4634 8.26795 12.9695 7.9337 12.3083 7.9337C11.6471 7.9337 11.1532 8.27609 11.1532 8.58589C11.1532 8.89565 11.6267 9.23399 12.3083 9.23399C12.5185 9.2357 12.7271 9.19982 12.9246 9.12799C12.9748 9.10702 13.0291 9.09729 13.0838 9.09945Z" fill="white"/>
<path fill-rule="evenodd" clip-rule="evenodd" d="M7.22285 15.2227C6.31672 15.2227 5.5534 14.7906 5.3208 14.1466C5.30405 14.1008 5.29586 14.0525 5.29626 14.0039L5.3167 12.6751C5.31427 12.4732 5.45996 12.2997 5.65953 12.2675C5.85506 12.2342 6.04608 12.3459 6.11265 12.5324C6.35674 12.9139 6.79711 13.1229 7.24734 13.0705C7.92487 13.0705 8.40241 12.7281 8.40241 12.4183V12.2267C8.36573 12.3491 8.27346 12.4472 8.15346 12.4917C7.86365 12.6001 7.55669 12.6553 7.24734 12.6547C6.14119 12.6547 5.27588 12.0106 5.27588 11.1873C5.27588 10.3639 6.14119 9.72394 7.24734 9.72394C8.35345 9.72394 9.17793 10.3435 9.2188 11.1343V12.4183C9.21551 12.7684 9.06775 13.1016 8.81061 13.3395C9.03588 13.3395 9.2188 13.522 9.2188 13.7471C9.19427 14.5786 8.32896 15.2227 7.22285 15.2227ZM6.11265 13.9264C6.37708 14.2646 6.79508 14.4457 7.22285 14.4074C7.90447 14.4074 8.37793 14.0651 8.37793 13.7594C8.37793 13.7134 8.38607 13.6678 8.40241 13.6248C7.68284 13.9777 6.84036 13.9777 6.1208 13.6248L6.11265 13.9264ZM8.01061 11.7172C8.17877 11.7177 8.32977 11.8212 8.39021 11.9781V12.0106V11.1669C8.39021 10.8857 7.89628 10.5514 7.23509 10.5514C6.57381 10.5514 6.07997 10.8938 6.07997 11.1995C6.07997 11.5052 6.55342 11.8517 7.23509 11.8517C7.44569 11.8538 7.65468 11.8164 7.85141 11.7416C7.90281 11.7242 7.95673 11.716 8.01061 11.7172Z" fill="white"/>
</svg>
