<svg width="100%" height="100%" viewBox="0 0 26 26" fill="none" xmlns="http://www.w3.org/2000/svg">
<circle cx="13" cy="13" r="12.5" fill="white" stroke="#E2EAEC"/>
<path fill-rule="evenodd" clip-rule="evenodd" d="M12.8713 19.9102C13.6525 20.4425 14.9317 20.7623 16.1744 20.7623C18.4838 20.7623 20.2222 19.7686 20.2222 17.53C20.2222 15.6111 19.1577 14.6883 16.7066 14.156C15.464 13.8362 15.0025 13.4456 15.0025 12.7717C15.0025 12.0979 15.5713 11.5633 16.6015 11.5633C17.7391 11.5633 18.662 11.954 19.5848 12.6278V10.4623C18.6962 9.93006 17.7368 9.68108 16.5307 9.68108C14.3652 9.68108 12.6954 10.7456 12.6954 12.9134C12.6954 14.7614 13.6548 15.6477 15.8569 16.1457C17.2411 16.4997 17.8808 16.8195 17.8808 17.6739C17.8808 18.5259 17.1703 18.8823 16.1058 18.8823C15.0048 18.8823 13.833 18.4208 12.8393 17.6739L12.8713 19.9102ZM12.3733 11.9197H11.2722V20.5498H8.892V11.9197H7.22217V9.93007H8.892V7.90617C8.892 5.27693 10.3471 4 12.6223 4C13.4743 4 14.1139 4.17818 14.717 4.53224V6.69777C14.1482 6.30715 13.6159 6.09471 12.869 6.09471C11.8388 6.09471 11.27 6.59269 11.27 7.90617V9.93007H13.8627C13.0837 10.3207 12.5515 11.0311 12.3733 11.9197Z" fill="black"/>
</svg>
