<svg width="100%" height="100%" viewBox="0 0 32 32" fill="none" xmlns="http://www.w3.org/2000/svg">
<circle cx="16" cy="16" r="15.75" fill="white" stroke="#E2EAEC" />
<path fill-rule="evenodd" clip-rule="evenodd" d="M16.0037 25.6279C15.8545 25.6292 15.7101 25.5753 15.5983 25.4766C13.4804 23.563 9.68642 19.2394 8.89979 15.1823C8.83632 14.8478 9.05573 14.5252 9.38993 14.4617C9.72409 14.3982 10.0465 14.6178 10.11 14.9522C10.7151 18.0344 13.5106 21.7949 16.0158 24.1807C20.2515 19.9419 22.1515 16.4964 21.8853 13.6078C21.5452 10.6096 19.0189 8.33906 16.0037 8.32151C14.6946 8.35701 13.4278 8.79233 12.3731 9.56889C11.6991 10.0573 11.2465 10.7935 11.1145 11.6156C10.9269 12.6329 11.5622 13.4323 12.5606 14.1589C12.9294 13.4711 13.4387 12.8687 14.0553 12.3907C14.8445 11.6815 15.9531 11.4503 16.9597 11.7852C17.7973 12.0617 18.4361 12.7466 18.654 13.6018C19.0375 15.064 18.164 16.5604 16.7031 16.9442C16.0344 17.1199 15.324 17.0356 14.7148 16.7082L14.5333 16.6235C14.1763 16.4539 13.7709 16.2602 13.3231 16.0179C13.3261 16.3238 13.3483 16.6292 13.3896 16.9323C13.4327 17.2612 13.2034 17.5636 12.8753 17.6105C12.5445 17.6573 12.2384 17.4268 12.1916 17.0958C12.1106 16.5153 12.1106 15.9263 12.1916 15.3458C10.7877 14.4253 9.59563 13.1537 9.92243 11.3674C10.1249 10.2482 10.7541 9.25148 11.6772 8.58795C12.9348 7.66485 14.4446 7.1492 16.0037 7.11037C19.653 7.10403 22.7135 9.86569 23.0834 13.4989C23.3859 16.8657 21.2136 20.7654 16.4273 25.4583C16.3136 25.568 16.1616 25.6289 16.0037 25.6279ZM13.5832 14.7948C14.0492 15.0491 14.5454 15.2974 15.0476 15.5335L15.2291 15.6183C15.7723 15.9136 16.4369 15.8688 16.9355 15.5032C17.4167 15.101 17.6218 14.4567 17.462 13.8501C17.3282 13.4169 16.988 13.0787 16.5543 12.9479C15.9536 12.7415 15.288 12.8835 14.8237 13.3172C14.3023 13.7077 13.8777 14.2133 13.5832 14.7948Z" fill="#005587" />
</svg>
