<svg width="100%" height="100%" viewBox="0 0 26 26" fill="none" xmlns="http://www.w3.org/2000/svg">
<circle cx="13" cy="13" r="12.5" fill="white" stroke="#D0D0CE"/>
<path d="M8.35294 6C8.97698 6 9.57546 6.25286 10.0167 6.70294C10.458 7.15303 10.7059 7.76348 10.7059 8.4C10.7059 9.424 10.0706 10.304 9.18431 10.648C9.2549 11.016 9.44314 11.464 9.92157 12.104C10.7059 13.136 12.2745 14.664 13.0588 15.736C13.8431 14.664 15.4118 13.136 16.1961 12.104C16.6745 11.464 16.8627 11.016 16.9333 10.648C16.4866 10.4741 16.1021 10.1662 15.8305 9.76489C15.5588 9.36356 15.4129 8.88768 15.4118 8.4C15.4118 7.76348 15.6597 7.15303 16.1009 6.70294C16.5422 6.25286 17.1407 6 17.7647 6C18.3887 6 18.9872 6.25286 19.4285 6.70294C19.8697 7.15303 20.1176 7.76348 20.1176 8.4C20.1176 9.456 19.4431 10.36 18.5098 10.68C18.4471 11.096 18.2667 11.6 17.7647 12.264C16.9804 13.336 15.4118 14.864 14.6275 15.904C14.149 16.536 13.9608 16.984 13.8902 17.352C14.7765 17.696 15.4118 18.576 15.4118 19.6C15.4118 20.2365 15.1639 20.847 14.7226 21.2971C14.2813 21.7471 13.6829 22 13.0588 22C12.4348 22 11.8363 21.7471 11.395 21.2971C10.9538 20.847 10.7059 20.2365 10.7059 19.6C10.7059 18.576 11.3412 17.696 12.2275 17.352C12.1569 16.984 11.9686 16.536 11.4902 15.904C10.7059 14.864 9.13725 13.336 8.35294 12.264C7.85098 11.6 7.67059 11.096 7.60784 10.68C7.14 10.5188 6.73338 10.2122 6.44502 9.80332C6.15667 9.39442 6.00105 8.90369 6 8.4C6 7.76348 6.2479 7.15303 6.68916 6.70294C7.13042 6.25286 7.7289 6 8.35294 6ZM8.35294 7.6C8.14493 7.6 7.94544 7.68429 7.79835 7.83431C7.65126 7.98434 7.56863 8.18783 7.56863 8.4C7.56863 8.61217 7.65126 8.81566 7.79835 8.96569C7.94544 9.11571 8.14493 9.2 8.35294 9.2C8.56095 9.2 8.76045 9.11571 8.90753 8.96569C9.05462 8.81566 9.13725 8.61217 9.13725 8.4C9.13725 8.18783 9.05462 7.98434 8.90753 7.83431C8.76045 7.68429 8.56095 7.6 8.35294 7.6ZM17.7647 7.6C17.5567 7.6 17.3572 7.68429 17.2101 7.83431C17.063 7.98434 16.9804 8.18783 16.9804 8.4C16.9804 8.61217 17.063 8.81566 17.2101 8.96569C17.3572 9.11571 17.5567 9.2 17.7647 9.2C17.9727 9.2 18.1722 9.11571 18.3193 8.96569C18.4664 8.81566 18.549 8.61217 18.549 8.4C18.549 8.18783 18.4664 7.98434 18.3193 7.83431C18.1722 7.68429 17.9727 7.6 17.7647 7.6ZM13.0588 18.8C12.8508 18.8 12.6513 18.8843 12.5042 19.0343C12.3571 19.1843 12.2745 19.3878 12.2745 19.6C12.2745 19.8122 12.3571 20.0157 12.5042 20.1657C12.6513 20.3157 12.8508 20.4 13.0588 20.4C13.2668 20.4 13.4663 20.3157 13.6134 20.1657C13.7605 20.0157 13.8431 19.8122 13.8431 19.6C13.8431 19.3878 13.7605 19.1843 13.6134 19.0343C13.4663 18.8843 13.2668 18.8 13.0588 18.8Z" fill="#005587"/>
</svg>
