<svg width="100%" height="100%" viewBox="0 0 18 18" fill="none" xmlns="http://www.w3.org/2000/svg">
<circle cx="9" cy="9" r="8.5" fill="white" stroke="#E2EAEC"/>
<g clip-path="url(#gamil0)">
<path d="M4.24999 13.1174H6V8.93704L3.5 7.09277V12.3797C3.5 12.7872 3.83562 13.1174 4.24999 13.1174Z" fill="#4285F4"/>
<path d="M12 13.1174H13.75C14.1644 13.1174 14.5 12.7872 14.5 12.3797V7.09277L12 8.93704V13.1174Z" fill="#34A853"/>
<path d="M12 5.7397V8.93641L14.5 7.09214V6.10854C14.5 5.19686 13.4419 4.67617 12.7 5.2233L12 5.7397Z" fill="#FBBC04"/>
<path d="M6 8.93597V5.73926L9 7.95237L12 5.73926V8.93597L9 11.1491L6 8.93597Z" fill="#EA4335"/>
<path d="M3.5 6.10854V7.09214L6 8.93641V5.7397L5.3 5.2233C4.55812 4.67617 3.5 5.19686 3.5 6.10854Z" fill="#C5221F"/>
</g>
<defs>
<clipPath id="gamil0">
<rect width="11" height="8.25" fill="white" transform="translate(3.5 5)"/>
</clipPath>
</defs>
</svg>
