<svg width="100%" height="100%" viewBox="0 0 26 26" fill="none" xmlns="http://www.w3.org/2000/svg">
<circle cx="13" cy="13" r="12.5" fill="white" stroke="#E2EAEC"/>
<g clip-path="url(#gmail0)">
<path d="M6.13899 18.9483H8.66677V12.91L5.05566 10.2461V17.8827C5.05566 18.4714 5.54045 18.9483 6.13899 18.9483Z" fill="#4285F4"/>
<path d="M17.3335 18.9483H19.8613C20.4598 18.9483 20.9446 18.4714 20.9446 17.8827V10.2461L17.3335 12.91V18.9483Z" fill="#34A853"/>
<path d="M17.3335 8.29111V12.9086L20.9446 10.2446V8.82388C20.9446 7.50701 19.4162 6.7549 18.3446 7.54521L17.3335 8.29111Z" fill="#FBBC04"/>
<path d="M8.66675 12.9065V8.28906L13.0001 11.4858L17.3334 8.28906V12.9065L13.0001 16.1033L8.66675 12.9065Z" fill="#EA4335"/>
<path d="M5.05566 8.82388V10.2446L8.66677 12.9086V8.29111L7.65566 7.54521C6.58406 6.7549 5.05566 7.50701 5.05566 8.82388Z" fill="#C5221F"/>
</g>
<defs>
<clipPath id="gmail0">
<rect width="15.8889" height="11.9167" fill="white" transform="translate(5.05566 7.22266)"/>
</clipPath>
</defs>
</svg>
