<svg width="100%" height="100%" viewBox="0 0 26 26" fill="none" xmlns="http://www.w3.org/2000/svg">
<circle cx="13" cy="13" r="12.5" fill="white" stroke="#E2EAEC"/>
<path d="M4.41367 15.6749L10.3902 5.46484C11.1493 5.91081 14.9771 8.02479 15.5946 8.42677L9.61871 18.6368C8.96576 19.4984 3.5863 16.9824 4.41367 15.6749Z" fill="#FBBC04"/>
<path d="M21.5975 15.6763L15.6216 5.46625C14.7861 4.07943 12.9868 3.57525 11.5089 4.3947C10.0311 5.21415 9.58109 6.97942 10.4165 8.42879L16.3925 18.6388C17.2279 20.0257 19.0273 20.5298 20.5051 19.7104C21.919 18.8909 22.4329 17.0631 21.5975 15.6769V15.6763Z" fill="#4285F4"/>
<path d="M6.99976 20.104C8.65648 20.104 9.99951 18.797 9.99951 17.1848C9.99951 15.5726 8.65648 14.2656 6.99976 14.2656C5.34304 14.2656 4 15.5726 4 17.1848C4 18.797 5.34304 20.104 6.99976 20.104Z" fill="#34A853"/>
</svg>
