<svg width="100%" height="100%" viewBox="0 0 26 26" fill="none" xmlns="http://www.w3.org/2000/svg">
<circle cx="13" cy="13" r="12.5" fill="white" stroke="#E2EAEC"/>
<path d="M17.6944 20.9401H8.3055C7.70967 20.9401 7.22217 20.4527 7.22217 19.857V6.13779C7.22217 5.54208 7.70967 5.05469 8.3055 5.05469H14.8055L18.7777 9.02605V19.857C18.7777 20.4527 18.2902 20.9401 17.6944 20.9401Z" fill="#0DC54C"/>
<path d="M14.8054 5.05469L18.7776 9.02605H14.8054V5.05469Z" fill="#08962D"/>
<path d="M9.38892 11.2812V16.3357H16.6111V11.2812H9.38892ZM10.2917 12.1838H12.5486V13.3572H10.2917V12.1838ZM10.2917 14.2598H12.5486V15.4331H10.2917V14.2598ZM15.7084 15.4331H13.4514V14.2598H15.7084V15.4331ZM15.7084 13.3572H13.4514V12.1838H15.7084V13.3572Z" fill="#FDFFFF"/>
</svg>
