<svg width="100%" height="100%" viewBox="0 0 26 26" fill="none" xmlns="http://www.w3.org/2000/svg">
<circle cx="13" cy="13" r="12.5" fill="white" stroke="#E2EAEC"/>
<path d="M15.2477 9.78906H15.3019L15.2748 9.76198L17.1706 7.86615V7.82552C15.5727 6.41719 13.3654 5.92969 11.3206 6.53906C9.27581 7.14844 7.70498 8.77344 7.13623 10.8318C7.16331 10.8182 7.20394 10.8047 7.24456 10.8047C7.94873 10.3443 8.78831 10.0734 9.66852 10.0734C9.96644 10.0734 10.2508 10.1005 10.5352 10.1547C10.5487 10.1411 10.5623 10.1411 10.5758 10.1411C11.7946 8.80052 13.8529 8.63802 15.2612 9.78906H15.2477Z" fill="#EA4535"/>
<path d="M18.9719 10.8052C18.6604 9.65417 18.0104 8.61146 17.1031 7.8125L15.1667 9.73542C15.9792 10.399 16.4531 11.401 16.426 12.4437V12.7823C18.7146 12.7823 18.7146 16.1948 16.426 16.1948H12.9864V18.9031H12.9729L12.9864 18.9302H16.426C18.4031 18.9438 20.15 17.6708 20.7323 15.8021C21.3146 13.9333 20.5969 11.9021 18.9719 10.8052Z" fill="#557EBF"/>
<path d="M9.61454 18.943H13.176V16.2076H9.61454C9.35724 16.2076 9.11349 16.1534 8.88329 16.0586L6.82495 18.0357V18.0628C7.63745 18.6451 8.61245 18.9565 9.62808 18.9565L9.61454 18.943Z" fill="#36A852"/>
<path d="M9.77703 10.0078C7.75932 10.0214 5.97182 11.2672 5.32182 13.0953C4.67182 14.937 5.32182 16.9547 6.91973 18.1464L9.03223 16.1286C7.86765 15.6276 7.59682 14.1651 8.49057 13.312C9.38432 12.4453 10.901 12.7161 11.4291 13.8266L13.5416 11.8089C12.6479 10.6849 11.2531 10.0214 9.77703 10.0349V10.0078Z" fill="#F9BC15"/>
</svg>
