<svg width="100%" height="100%" viewBox="0 0 18 18" fill="none" xmlns="http://www.w3.org/2000/svg">
<circle cx="9" cy="9" r="8.5" fill="white" stroke="#E2EAEC"/>
<path d="M12.25 14.4976H5.75C5.3375 14.4976 5 14.1602 5 13.7478V4.24984C5 3.83743 5.3375 3.5 5.75 3.5H10.25L13 6.2494V13.7478C13 14.1602 12.6625 14.4976 12.25 14.4976Z" fill="#0DC54C"/>
<path d="M10.25 3.5L13 6.2494H10.25V3.5Z" fill="#08962D"/>
<path d="M6.5 7.81152V11.3108H11.5V7.81152H6.5ZM7.125 8.43639H8.6875V9.24871H7.125V8.43639ZM7.125 9.87358H8.6875V10.6859H7.125V9.87358ZM10.875 10.6859H9.3125V9.87358H10.875V10.6859ZM10.875 9.24871H9.3125V8.43639H10.875V9.24871Z" fill="#FDFFFF"/>
</svg>
