<svg width="100%" height="100%" viewBox="0 0 18 18" fill="none" xmlns="http://www.w3.org/2000/svg">
<circle cx="9" cy="9" r="8.5" fill="white" stroke="#E2EAEC"/>
<g clip-path="url(#googleBigquery0)">
<path d="M5.60601 13.8981L3.14527 9.63385C3.05066 9.46991 3.00085 9.28393 3.00085 9.09463C3.00085 8.90532 3.05066 8.71935 3.14527 8.5554L5.60601 4.29122C5.70063 4.12726 5.83673 3.9911 6.00063 3.89643C6.16452 3.80177 6.35044 3.75194 6.53968 3.75195H11.4612C11.6504 3.75196 11.8363 3.8018 12.0002 3.89646C12.164 3.99112 12.3001 4.12727 12.3947 4.29122L14.8555 8.5554C14.9501 8.71936 14.9999 8.90535 14.9999 9.09467C14.9999 9.284 14.9501 9.46999 14.8555 9.63394L12.3947 13.8981C12.3001 14.0621 12.164 14.1982 12.0001 14.2928C11.8363 14.3875 11.6504 14.4373 11.4612 14.4373H6.53968C6.35044 14.4373 6.16452 14.3875 6.00062 14.2928C5.83672 14.1982 5.70063 14.062 5.60601 13.898V13.8981Z" fill="url(#googleBigquery1)"/>
<path opacity="0.07" d="M14.1777 11.203L10.5589 7.58229L9.0004 7.16504L7.60055 7.68555L7.05994 9.09469L7.49462 10.6636L11.3322 14.5031L12.1466 14.4669L14.1777 11.203Z" fill="black"/>
<path d="M9.00051 6.91895C7.79968 6.91895 6.82617 7.89292 6.82617 9.09441C6.82617 10.2958 7.79968 11.2698 9.00051 11.2698C10.2013 11.2698 11.1748 10.2958 11.1748 9.09441C11.1748 7.89292 10.2013 6.91895 9.00051 6.91895ZM9.00051 10.745C8.08934 10.745 7.35066 10.0059 7.35066 9.09432C7.35066 8.18271 8.08934 7.44377 9.00051 7.44377C9.91168 7.44377 10.6504 8.18281 10.6504 9.09441C10.6504 10.006 9.91168 10.745 9.00051 10.745" fill="white"/>
<path d="M7.96802 9.01046V9.68666C8.06802 9.85843 8.20911 10.0026 8.37861 10.1064V9.01046H7.96802ZM8.78218 8.44043V10.2609C8.85202 10.2738 8.92345 10.2815 8.99685 10.2815C9.06378 10.2815 9.12903 10.2745 9.19305 10.2638V8.44043H8.78218ZM9.6344 9.29145V10.0944C9.8066 9.98489 9.94799 9.83317 10.0452 9.65365V9.29154L9.6344 9.29145ZM10.5648 10.4344L10.3395 10.66C10.3205 10.6791 10.3097 10.705 10.3097 10.732C10.3097 10.7591 10.3205 10.785 10.3395 10.8041L11.194 11.6587C11.2131 11.6778 11.239 11.6885 11.266 11.6885C11.2931 11.6885 11.319 11.6778 11.3381 11.6587L11.5634 11.4334C11.5823 11.4143 11.5929 11.3884 11.5929 11.3614C11.5929 11.3344 11.5823 11.3085 11.5634 11.2894L10.7088 10.4344C10.6896 10.4154 10.6638 10.4047 10.6368 10.4047C10.6098 10.4047 10.5839 10.4154 10.5648 10.4344Z" fill="white"/>
</g>
<defs>
<linearGradient id="googleBigquery1" x1="9.00042" y1="3.75205" x2="9.00042" y2="14.4207" gradientUnits="userSpaceOnUse">
<stop stop-color="#4387FD"/>
<stop offset="1" stop-color="#4683EA"/>
</linearGradient>
<clipPath id="googleBigquery0">
<rect width="12" height="10.6859" fill="white" transform="translate(3 3.75)"/>
</clipPath>
</defs>
</svg>
