<svg width="100%" height="100%" viewBox="0 0 26 26" fill="none" xmlns="http://www.w3.org/2000/svg">
<circle cx="13" cy="13" r="12.5" fill="white" stroke="#E2EAEC"/>
<g clip-path="url(#google_bigquery0)">
<path d="M8.09748 20.0775L4.54308 13.9179C4.40642 13.6811 4.33447 13.4125 4.33447 13.1391C4.33447 12.8656 4.40642 12.597 4.54308 12.3602L8.09748 6.20082C8.23415 5.96398 8.43074 5.7673 8.66748 5.63057C8.90422 5.49383 9.17276 5.42186 9.44612 5.42188H16.5549C16.8282 5.42188 17.0968 5.49387 17.3335 5.6306C17.5702 5.76734 17.7668 5.964 17.9034 6.20082L21.4578 12.3602C21.5945 12.597 21.6665 12.8657 21.6665 13.1391C21.6665 13.4126 21.5945 13.6813 21.4578 13.9181L17.9034 20.0775C17.7667 20.3143 17.5702 20.5109 17.3335 20.6476C17.0967 20.7843 16.8282 20.8563 16.5549 20.8563H9.44612C9.17276 20.8563 8.90421 20.7843 8.66747 20.6476C8.43073 20.5109 8.23414 20.3142 8.09748 20.0773V20.0775Z" fill="url(#google_bigquery1)"/>
<path opacity="0.07" d="M20.4787 16.1842L15.2515 10.9543L13.0004 10.3516L10.9784 11.1034L10.1975 13.1388L10.8254 15.4051L16.3686 20.9509L17.5449 20.8986L20.4787 16.1842Z" fill="black"/>
<path d="M13.0006 9.99609C11.266 9.99609 9.85986 11.4029 9.85986 13.1384C9.85986 14.8738 11.266 16.2806 13.0006 16.2806C14.7351 16.2806 16.1412 14.8738 16.1412 13.1384C16.1412 11.4029 14.735 9.99609 13.0006 9.99609ZM13.0006 15.5226C11.6844 15.5226 10.6175 14.4551 10.6175 13.1383C10.6175 11.8215 11.6844 10.7542 13.0006 10.7542C14.3167 10.7542 15.3837 11.8217 15.3837 13.1384C15.3837 14.4552 14.3167 15.5227 13.0006 15.5227" fill="white"/>
<path d="M11.5093 13.0187V13.9954C11.6537 14.2435 11.8575 14.4518 12.1024 14.6016V13.0187H11.5093ZM12.6853 12.1953V14.8249C12.7862 14.8435 12.8893 14.8547 12.9954 14.8547C13.092 14.8547 13.1863 14.8445 13.2788 14.8291V12.1953H12.6853ZM13.9163 13.4246V14.5844C14.165 14.4262 14.3692 14.207 14.5096 13.9477V13.4247L13.9163 13.4246ZM15.2602 15.0755L14.9348 15.4013C14.9072 15.429 14.8918 15.4664 14.8918 15.5054C14.8918 15.5445 14.9072 15.5819 14.9348 15.6095L16.169 16.8439C16.1967 16.8715 16.2341 16.887 16.2731 16.887C16.3121 16.887 16.3495 16.8715 16.3772 16.8439L16.7025 16.5185C16.7299 16.4908 16.7453 16.4535 16.7453 16.4145C16.7453 16.3755 16.7299 16.3382 16.7025 16.3105L15.4682 15.0755C15.4405 15.0481 15.4031 15.0326 15.3642 15.0326C15.3252 15.0326 15.2878 15.0481 15.2602 15.0755Z" fill="white"/>
</g>
<defs>
<linearGradient id="google_bigquery1" x1="13.0005" y1="5.42201" x2="13.0005" y2="20.8323" gradientUnits="userSpaceOnUse">
<stop stop-color="#4387FD"/>
<stop offset="1" stop-color="#4683EA"/>
</linearGradient>
<clipPath id="google_bigquery0">
<rect width="17.3333" height="15.4352" fill="white" transform="translate(4.33325 5.41797)"/>
</clipPath>
</defs>
</svg>
