<svg width="100%" height="100%" viewBox="0 0 26 26" fill="none" xmlns="http://www.w3.org/2000/svg">
<circle cx="13" cy="13" r="12.5" fill="white" stroke="#E2EAEC"/>
<path d="M20 18.8756C20.0018 19.1751 19.9281 19.4715 19.7837 19.7452C19.6393 20.0188 19.4275 20.2635 19.1624 20.463C18.8972 20.6625 18.5848 20.8122 18.2458 20.9022C17.9068 20.9923 17.5489 21.0206 17.1959 20.9853C15.911 20.8251 14.9694 19.883 15.0008 18.7889V6.21059C14.9697 5.11537 15.9136 4.17279 17.2002 4.01433C17.5529 3.97955 17.9102 4.00824 18.2488 4.09852C18.5873 4.1888 18.8992 4.3386 19.1638 4.53801C19.4285 4.73743 19.6399 4.98192 19.784 5.25531C19.9282 5.52869 20.0018 5.82475 20 6.1239V18.8756Z" fill="#F9AB00"/>
<path d="M6.93544 17.0246C8.00437 17.0246 8.87088 17.9146 8.87088 19.0123C8.87088 20.1101 8.00437 21 6.93544 21C5.86651 21 5 20.1101 5 19.0124C5 17.9146 5.86651 17.0246 6.93544 17.0246ZM12.028 11.0002C10.954 11.0607 10.1207 11.9858 10.1457 13.0902V18.4293C10.1457 19.8783 10.7665 20.758 11.6761 20.9455C11.9581 21.0042 12.2493 20.9977 12.5285 20.9265C12.8078 20.8552 13.0681 20.7211 13.2906 20.5337C13.5131 20.3463 13.6922 20.1105 13.8149 19.8432C13.9376 19.5759 14.0008 19.2839 14 18.9884V12.9982C14.0005 12.7334 13.9496 12.4711 13.8503 12.2267C13.751 11.9823 13.6054 11.7606 13.4218 11.5747C13.2382 11.3887 13.0205 11.2421 12.7812 11.1435C12.5418 11.0449 12.2858 10.9962 12.028 11.0002V11.0002Z" fill="#E37400"/>
</svg>
