<svg width="100%" height="100%" viewBox="0 0 44 44" fill="none" xmlns="http://www.w3.org/2000/svg">
<circle cx="22" cy="22" r="21.5" fill="white" stroke="#E2EAEC"/>
<path d="M7.46949 26.5285L17.5837 9.25C18.8683 10.0047 25.346 13.5822 26.3911 14.2625L16.278 31.541C15.173 32.9991 6.06933 28.7413 7.46949 26.5285Z" fill="#FBBC04"/>
<path d="M36.5499 26.5294L26.4368 9.25087C25.023 6.90395 21.9779 6.05072 19.4769 7.43748C16.976 8.82425 16.2144 11.8116 17.6282 14.2644L27.7414 31.5429C29.1552 33.8899 32.2002 34.7431 34.7012 33.3563C37.094 31.9696 37.9637 28.8763 36.5499 26.5304V26.5294Z" fill="#4285F4"/>
<path d="M11.8458 34.0239C14.6495 34.0239 16.9223 31.8121 16.9223 29.0837C16.9223 26.3553 14.6495 24.1436 11.8458 24.1436C9.04212 24.1436 6.76929 26.3553 6.76929 29.0837C6.76929 31.8121 9.04212 34.0239 11.8458 34.0239Z" fill="#34A853"/>
</svg>
