<svg width="100%" height="100%" viewBox="0 0 18 18" fill="none" xmlns="http://www.w3.org/2000/svg">
<circle cx="9" cy="9" r="8.5" fill="white" stroke="#E2EAEC"/>
<path d="M3.0557 10.8527L7.19332 3.78418C7.71884 4.09292 10.3688 5.55645 10.7964 5.83475L6.65919 12.9032C6.20715 13.4997 2.48291 11.7579 3.0557 10.8527Z" fill="#FBBC04"/>
<path d="M14.9523 10.8531L10.8151 3.78462C10.2367 2.82452 8.99099 2.47547 7.96786 3.04278C6.94474 3.6101 6.63321 4.83221 7.21159 5.83562L11.3488 12.9041C11.9271 13.8642 13.1729 14.2133 14.196 13.6459C15.1748 13.0786 15.5306 11.8132 14.9523 10.8535V10.8531Z" fill="#4285F4"/>
<path d="M4.84604 13.9189C5.993 13.9189 6.9228 13.0141 6.9228 11.8979C6.9228 10.7818 5.993 9.87695 4.84604 9.87695C3.69908 9.87695 2.76929 10.7818 2.76929 11.8979C2.76929 13.0141 3.69908 13.9189 4.84604 13.9189Z" fill="#34A853"/>
</svg>
