<svg width="100%" height="100%" viewBox="0 0 18 18" fill="none" xmlns="http://www.w3.org/2000/svg">
<circle cx="9" cy="9" r="8.5" fill="white" stroke="#E2EAEC"/>
<path d="M10.5562 6.77809H10.5937L10.5749 6.75934L11.8874 5.44684V5.41872C10.7812 4.44372 9.25305 4.10622 7.83743 4.52809C6.4218 4.94997 5.3343 6.07497 4.94055 7.49997C4.9593 7.49059 4.98743 7.48122 5.01555 7.48122C5.50305 7.16247 6.0843 6.97497 6.69368 6.97497C6.89993 6.97497 7.0968 6.99372 7.29368 7.03122C7.30305 7.02184 7.31243 7.02184 7.3218 7.02184C8.16555 6.09372 9.59055 5.98122 10.5656 6.77809H10.5562Z" fill="#EA4535"/>
<path d="M13.1345 7.48105C12.9188 6.68418 12.4688 5.9623 11.8407 5.40918L10.5001 6.74043C11.0626 7.1998 11.3907 7.89355 11.372 8.61543V8.8498C12.9563 8.8498 12.9563 11.2123 11.372 11.2123H8.9907V13.0873H8.98132L8.9907 13.1061H11.372C12.7407 13.1154 13.9501 12.2342 14.3532 10.9404C14.7563 9.64668 14.2595 8.24043 13.1345 7.48105Z" fill="#557EBF"/>
<path d="M6.65623 13.115H9.12185V11.2213H6.65623C6.4781 11.2213 6.30935 11.1838 6.14998 11.1182L4.72498 12.4869V12.5057C5.28748 12.9088 5.96248 13.1244 6.6656 13.1244L6.65623 13.115Z" fill="#36A852"/>
<path d="M6.76874 6.92871C5.37186 6.93809 4.13436 7.80059 3.68436 9.06621C3.23436 10.3412 3.68436 11.7381 4.79061 12.5631L6.25311 11.1662C5.44686 10.8193 5.25936 9.80684 5.87811 9.21621C6.49686 8.61621 7.54686 8.80371 7.91249 9.57246L9.37499 8.17559C8.75624 7.39746 7.79061 6.93809 6.76874 6.94746V6.92871Z" fill="#F9BC15"/>
</svg>
