<svg width="18" height="18" viewBox="0 0 18 18" fill="none" xmlns="http://www.w3.org/2000/svg">
<circle cx="9" cy="9" r="8.5" fill="white" stroke="#D0D0CE"/>
<path d="M3.05582 10.8527L7.19344 3.78418C7.71896 4.09292 10.3689 5.55645 10.7965 5.83475L6.65932 12.9032C6.20727 13.4997 2.48303 11.7579 3.05582 10.8527Z" fill="#FBBC04"/>
<path d="M14.9521 10.8531L10.815 3.78462C10.2366 2.82452 8.99086 2.47547 7.96774 3.04278C6.94462 3.6101 6.63308 4.83221 7.21146 5.83562L11.3486 12.9041C11.927 13.8642 13.1727 14.2133 14.1959 13.6459C15.1747 13.0786 15.5305 11.8132 14.9521 10.8535V10.8531Z" fill="#4285F4"/>
<path d="M4.84604 13.9189C5.993 13.9189 6.9228 13.0141 6.9228 11.8979C6.9228 10.7818 5.993 9.87695 4.84604 9.87695C3.69908 9.87695 2.76929 10.7818 2.76929 11.8979C2.76929 13.0141 3.69908 13.9189 4.84604 13.9189Z" fill="#34A853"/>
</svg>
