<svg width="100%" height="100%" viewBox="0 0 18 18" fill="none" xmlns="http://www.w3.org/2000/svg">
<circle cx="9" cy="9" r="8.5" fill="white" stroke="#E2EAEC"/>
<path d="M13.8462 13.0681C13.8474 13.2754 13.7964 13.4806 13.6964 13.67C13.5965 13.8595 13.4498 14.0289 13.2663 14.167C13.0827 14.3051 12.8664 14.4087 12.6317 14.4711C12.397 14.5334 12.1493 14.553 11.9049 14.5286C11.0153 14.4177 10.3635 13.7655 10.3852 13.008V4.29994C10.3637 3.54171 11.0172 2.88916 11.9079 2.77946C12.152 2.75537 12.3994 2.77524 12.6338 2.83774C12.8681 2.90024 13.0841 3.00394 13.2673 3.142C13.4505 3.28006 13.5969 3.44932 13.6967 3.63859C13.7964 3.82786 13.8474 4.03282 13.8462 4.23992V13.0681Z" fill="#F9AB00"/>
<path d="M4.80147 11.7861C5.5415 11.7861 6.14139 12.4023 6.14139 13.1622C6.14139 13.9222 5.5415 14.5383 4.80147 14.5383C4.06144 14.5383 3.46155 13.9222 3.46155 13.1623C3.46155 12.4023 4.06144 11.7861 4.80147 11.7861ZM8.32708 7.61536C7.58358 7.65723 7.00667 8.29774 7.02396 9.06229V12.7586C7.02396 13.7618 7.45375 14.3708 8.08346 14.5006C8.27869 14.5412 8.48028 14.5367 8.6736 14.4874C8.86693 14.4381 9.04714 14.3452 9.20118 14.2155C9.35521 14.0858 9.4792 13.9225 9.56415 13.7374C9.6491 13.5524 9.69288 13.3502 9.69231 13.1457V8.99858C9.69264 8.81525 9.65741 8.63369 9.58869 8.46448C9.51996 8.29528 9.41912 8.14182 9.29203 8.01307C9.16495 7.88432 9.01418 7.78284 8.8485 7.71456C8.68283 7.64629 8.50557 7.61258 8.32708 7.6154V7.61536Z" fill="#E37400"/>
</svg>
