<svg width="auto" height="auto" viewBox="0 0 55 55" fill="none" xmlns="http://www.w3.org/2000/svg">
<circle cx="28.291" cy="28.0469" r="25.5" fill="white" stroke="#D0D0CE"/>
<path d="M41.3899 38.3382C41.3937 38.9457 41.2422 39.547 40.9454 40.1022C40.6487 40.6573 40.2135 41.1537 39.6686 41.5583C39.1238 41.963 38.4818 42.2667 37.7851 42.4494C37.0885 42.632 36.3531 42.6894 35.6278 42.6178C32.9873 42.2928 31.0524 40.3818 31.1168 38.1623V12.6456C31.053 10.4238 32.9927 8.51166 35.6365 8.19021C36.3612 8.11965 37.0956 8.17786 37.7912 8.361C38.4868 8.54413 39.1278 8.84802 39.6716 9.25256C40.2155 9.6571 40.6499 10.1531 40.9461 10.7077C41.2423 11.2623 41.3936 11.8629 41.3899 12.4697V38.3382Z" fill="#F9AB00"/>
<path d="M14.5429 34.583C16.7395 34.583 18.5201 36.3884 18.5201 38.6153C18.5201 40.8423 16.7395 42.6475 14.5429 42.6475C12.3463 42.6475 10.5657 40.8423 10.5657 38.6154C10.5657 36.3884 12.3463 34.583 14.5429 34.583ZM25.0078 22.3617C22.8009 22.4844 21.0885 24.3612 21.1398 26.6015V37.4326C21.1398 40.3721 22.4156 42.1566 24.2847 42.5369C24.8642 42.656 25.4625 42.6428 26.0364 42.4984C26.6102 42.3539 27.1451 42.0817 27.6024 41.7016C28.0596 41.3215 28.4276 40.843 28.6797 40.3008C28.9319 39.7586 29.0618 39.1663 29.0602 38.5668V26.4149C29.0611 25.8777 28.9566 25.3456 28.7526 24.8498C28.5486 24.354 28.2493 23.9044 27.872 23.5271C27.4948 23.1498 27.0473 22.8525 26.5555 22.6524C26.0638 22.4523 25.5376 22.3535 25.0078 22.3618V22.3617Z" fill="#E37400"/>
</svg>
