<svg width="100%" height="100%" viewBox="0 0 18 18" fill="none" xmlns="http://www.w3.org/2000/svg">
<circle cx="9" cy="9" r="8.5" fill="white" stroke="#E2EAEC"/>
<g clip-path="url(#clip0_12521_195854)">
<path d="M12.8925 7.89852C13.5424 7.49775 14.3889 7.7081 14.7829 8.36833C15.1774 9.02857 14.9704 9.8885 14.3205 10.2888C14.3031 10.2995 14.2858 10.3097 14.2685 10.3194L7.09878 14.5139C6.44889 14.9147 5.60245 14.7043 5.20796 14.0441C4.81347 13.3838 5.02052 12.5239 5.6704 12.1231C5.68773 12.1125 5.70506 12.1023 5.72239 12.0925L12.8925 7.89852Z" fill="#81C995"/>
<path d="M7.74093 4.90841C7.74412 4.1379 7.13163 3.51009 6.37321 3.50685C6.27561 3.50639 6.17847 3.51658 6.0827 3.53697C5.44011 3.69728 4.99089 4.28663 5.00001 4.95938V13.2904L7.73819 13.3409L7.74093 4.90841Z" fill="#34A853"/>
<path d="M12.9236 10.3242C13.5862 10.6731 14.4017 10.4498 14.8021 9.80945C15.187 9.15153 14.974 8.30086 14.3264 7.90982C14.3214 7.90704 14.3168 7.90426 14.3118 7.90101L7.09424 3.69912C6.45165 3.30483 5.61569 3.51425 5.22713 4.16707C5.21755 4.18329 5.20798 4.19997 5.19886 4.21665C4.81759 4.87967 5.03741 5.73172 5.69003 6.11953C5.69459 6.12231 5.69915 6.12462 5.70371 6.1274L12.9236 10.3242Z" fill="#5BB974"/>
<path d="M14.2644 10.3335L7.73865 14.0369V10.8557L12.9167 7.92236C13.6031 7.53594 14.4683 7.78799 14.8486 8.48576C14.8842 8.55062 14.9143 8.61827 14.9394 8.68777C15.1337 9.32947 14.85 10.0212 14.2644 10.3335Z" fill="#81C995"/>
<path d="M6.3719 14.7496C7.12802 14.7496 7.74098 14.1268 7.74098 13.3587C7.74098 12.5905 7.12802 11.9678 6.3719 11.9678C5.61577 11.9678 5.00281 12.5905 5.00281 13.3587C5.00281 14.1268 5.61577 14.7496 6.3719 14.7496Z" fill="#1E8E3E"/>
</g>
<defs>
<clipPath id="clip0_12521_195854">
<rect width="10" height="11.25" fill="white" transform="translate(5 3.5)"/>
</clipPath>
</defs>
</svg>
