<svg width="100%" height="100%" viewBox="0 0 26 26" fill="none" xmlns="http://www.w3.org/2000/svg">
<circle cx="13" cy="13" r="12.5" fill="white" stroke="#E2EAEC"/>
<g clip-path="url(#grafana)">
<path d="M13.2409 4.33203C13.3195 4.38251 13.3997 4.42885 13.4751 4.48264C13.864 4.75905 14.1611 5.11075 14.325 5.56342C14.3531 5.64204 14.3878 5.67597 14.4723 5.68755C14.8612 5.74383 15.2344 5.85803 15.5961 6.01112C15.6093 6.01692 15.6317 6.01443 15.6432 6.00616C16.0098 5.76286 16.417 5.67845 16.8506 5.69914C16.8647 5.69997 16.8846 5.71238 16.8912 5.72479C17.0112 5.9383 17.0873 6.1667 17.1204 6.40917C17.1469 6.60365 17.1395 6.79646 17.0964 6.98846C17.0931 7.00335 17.1022 7.02569 17.113 7.03811C17.2421 7.18707 17.3778 7.33023 17.5019 7.4825C17.6981 7.72332 17.8553 7.99144 17.9985 8.26701C18.0142 8.29681 18.0266 8.32825 18.0398 8.35887C18.0233 8.36218 18.0067 8.36963 17.9902 8.36963C17.7411 8.37046 17.4928 8.37046 17.2437 8.37046C17.1767 8.30177 17.1105 8.23143 17.0418 8.16357C16.5312 7.66291 15.9321 7.31368 15.2444 7.11755C14.9746 7.04059 14.6982 6.99508 14.4185 6.98018C14.2273 6.97025 14.0353 6.96528 13.8441 6.97273C13.6397 6.98101 13.437 7.0108 13.2359 7.05135C12.7476 7.14983 12.2817 7.30954 11.8597 7.57684C11.5973 7.74318 11.3731 7.95586 11.1778 8.1975C11.1339 8.25212 11.0901 8.30674 11.0462 8.36135C11.0305 8.35887 11.0139 8.35391 10.9982 8.35391C10.1698 8.35391 9.34226 8.35391 8.51388 8.35391C8.4965 8.35391 8.47912 8.3597 8.46175 8.36301C8.3674 8.15033 8.3012 7.92772 8.25155 7.70014C8.17872 7.36664 8.15638 7.02983 8.16962 6.68888C8.17376 6.57799 8.17293 6.57716 8.27472 6.53496C8.57016 6.41166 8.878 6.33469 9.19578 6.29994C9.4366 6.27345 9.67742 6.27345 9.91824 6.30159C10.1582 6.32973 10.3933 6.38269 10.6175 6.47538C10.6655 6.49524 10.6912 6.48696 10.7284 6.46214C11.009 6.27263 11.3069 6.11457 11.6205 5.98961C11.7579 5.93416 11.9002 5.88947 12.0393 5.83899C12.0508 5.83486 12.0641 5.82161 12.0674 5.81003C12.1468 5.50301 12.3041 5.23571 12.4977 4.9891C12.6922 4.74084 12.9256 4.53395 13.1887 4.35934C13.2011 4.35106 13.2127 4.34113 13.2251 4.33286C13.2301 4.33203 13.2351 4.33203 13.2409 4.33203Z" fill="#F05B2A"/>
<path d="M4.77539 18.8153C4.78036 18.7863 4.78698 18.7574 4.79029 18.7284C4.86228 18.0208 5.40929 17.4242 6.10443 17.2943C6.5993 17.2016 7.03294 17.3381 7.42271 17.6435C7.46574 17.6774 7.50712 17.7147 7.55346 17.7535C7.4674 17.862 7.38299 17.9687 7.29858 18.0755C7.25224 18.0399 7.2092 18.0043 7.16369 17.9712C6.98742 17.8446 6.79709 17.7469 6.57944 17.7138C6.2749 17.6667 5.99354 17.7345 5.74362 17.9091C5.38364 18.1599 5.19992 18.5116 5.21896 18.9502C5.24047 19.4401 5.4697 19.8108 5.92485 20.0103C6.48758 20.2569 7.1281 20.0095 7.39871 19.4567C7.45002 19.3524 7.48643 19.2431 7.50795 19.124C7.06604 19.124 6.62744 19.124 6.18636 19.124C6.18636 18.9932 6.18636 18.8666 6.18636 18.7367C6.78136 18.7367 7.3772 18.7367 7.98379 18.7367C7.97634 18.8724 7.97799 19.0081 7.95979 19.1414C7.906 19.5245 7.73718 19.8514 7.45333 20.1146C7.19762 20.3512 6.89391 20.487 6.54799 20.5283C6.53972 20.5292 6.53144 20.5341 6.52317 20.5374C6.51489 20.5374 6.50662 20.5374 6.49834 20.5374C6.49255 20.535 6.48758 20.5325 6.48179 20.53C6.476 20.5325 6.47021 20.535 6.46524 20.5374C6.40152 20.5374 6.33863 20.5374 6.2749 20.5374C6.26911 20.5374 6.26415 20.5374 6.25835 20.5374C6.24429 20.5374 6.23104 20.5374 6.21698 20.5374C6.18718 20.5316 6.15739 20.5242 6.12677 20.5192C5.40102 20.4042 4.89952 19.8365 4.80022 19.1579C4.79194 19.1016 4.78367 19.0454 4.77539 18.9891C4.77539 18.9312 4.77539 18.8732 4.77539 18.8153Z" fill="#565656"/>
<path d="M14.5476 20.5371C14.5078 20.5289 14.4689 20.5206 14.4292 20.5131C13.9227 20.4196 13.5387 19.9819 13.5114 19.4663C13.4808 18.8978 13.8846 18.393 14.4449 18.3044C14.7826 18.2506 15.0805 18.3383 15.3379 18.5643C15.3479 18.5734 15.3586 18.5825 15.3752 18.5965C15.3752 18.5022 15.3752 18.4145 15.3752 18.3243C15.5043 18.3243 15.6276 18.3243 15.7534 18.3243C15.7534 19.0509 15.7534 19.775 15.7534 20.5016C15.6284 20.5016 15.5051 20.5016 15.3768 20.5016C15.3768 20.4122 15.3768 20.3236 15.3768 20.2301C15.333 20.2649 15.2957 20.2971 15.256 20.3261C15.0979 20.4411 14.9208 20.509 14.7263 20.5289C14.7189 20.5297 14.7123 20.5347 14.7056 20.5371C14.6949 20.5371 14.6833 20.5371 14.6725 20.5371C14.6452 20.5371 14.6171 20.5371 14.5898 20.5371C14.5749 20.5371 14.5608 20.5371 14.5476 20.5371ZM14.6369 20.1002C15.0085 20.1002 15.3156 19.794 15.3164 19.4224C15.3172 19.0442 15.0102 18.7356 14.632 18.7339C14.2604 18.7323 13.9517 19.0393 13.9517 19.4108C13.9509 19.7957 14.2529 20.0994 14.6369 20.1002Z" fill="#565656"/>
<path d="M10.6666 20.5364C10.626 20.5282 10.5846 20.5199 10.5433 20.5124C10.079 20.4264 9.71157 20.0482 9.63875 19.5807C9.54358 18.9716 9.95239 18.4023 10.559 18.3047C10.9024 18.2492 11.2053 18.3419 11.4643 18.5744C11.4709 18.5802 11.4784 18.586 11.4908 18.596C11.4908 18.5025 11.4908 18.4147 11.4908 18.3245C11.6174 18.3245 11.7407 18.3245 11.8665 18.3245C11.8665 19.0503 11.8665 19.7751 11.8665 20.5009C11.7424 20.5009 11.6207 20.5009 11.4941 20.5009C11.4941 20.4123 11.4941 20.3238 11.4941 20.2278C11.4792 20.2385 11.4701 20.2435 11.4627 20.2509C11.2856 20.409 11.0803 20.5025 10.8437 20.5282C10.8362 20.529 10.8296 20.534 10.823 20.5364C10.8122 20.5364 10.8006 20.5364 10.7899 20.5364C10.765 20.5364 10.7402 20.5364 10.7154 20.5364C10.6997 20.5364 10.6831 20.5364 10.6666 20.5364ZM10.7659 20.0995C11.1316 20.0987 11.4428 19.7876 11.4428 19.421C11.4436 19.0412 11.1333 18.7317 10.7526 18.7333C10.3827 18.735 10.0782 19.0412 10.0782 19.4127C10.079 19.7975 10.3819 20.1003 10.7659 20.0995Z" fill="#565656"/>
<path d="M19.4292 20.5376C19.3894 20.5293 19.3505 20.5202 19.3108 20.5128C18.8523 20.4284 18.4857 20.046 18.4096 19.5867C18.3103 18.9892 18.7117 18.4124 19.3249 18.3065C19.6642 18.2477 19.9662 18.3387 20.2253 18.5663C20.2352 18.5754 20.246 18.5837 20.2567 18.592C20.2575 18.5928 20.2592 18.5936 20.26 18.5944C20.2608 18.5944 20.2625 18.5936 20.2625 18.5928C20.2633 18.5671 20.2642 18.5407 20.265 18.515C20.265 18.4538 20.265 18.3917 20.265 18.3304C20.3916 18.3304 20.5133 18.3304 20.6374 18.3304C20.6374 18.3445 20.6374 18.3561 20.6374 18.3669C20.6374 19.0695 20.6374 19.7721 20.6374 20.4755C20.6374 20.4855 20.6366 20.4946 20.6366 20.5045C20.5133 20.5045 20.3899 20.5045 20.2617 20.5045C20.2617 20.4127 20.2617 20.3241 20.2617 20.2298C20.2484 20.2405 20.241 20.2463 20.2344 20.2529C20.0912 20.3812 19.9265 20.4681 19.7387 20.5103C19.689 20.5219 19.6377 20.5293 19.5872 20.5384C19.5731 20.5384 19.5599 20.5384 19.5458 20.5384C19.5268 20.536 19.5069 20.5343 19.4879 20.5318C19.4796 20.5343 19.4714 20.536 19.4631 20.5384C19.4515 20.5376 19.4399 20.5376 19.4292 20.5376ZM18.8366 19.4171C18.8432 19.811 19.1478 20.1056 19.5417 20.0998C19.9067 20.0949 20.2062 19.7812 20.2004 19.4104C20.1946 19.0289 19.8827 18.7269 19.5003 18.7343C19.1354 18.7409 18.8308 19.0546 18.8366 19.4171Z" fill="#565656"/>
<path d="M20.6457 20.5035C20.6424 20.5035 20.6391 20.5026 20.6366 20.5026C20.6366 20.4927 20.6374 20.4836 20.6374 20.4737C20.6374 19.7711 20.6374 19.0686 20.6374 18.3652C20.6374 18.3545 20.6374 18.3437 20.6374 18.3288C20.5133 18.3288 20.3916 18.3288 20.265 18.3288C20.265 18.3901 20.265 18.4521 20.265 18.5134C20.265 18.539 20.2634 18.5655 20.2626 18.5911C20.2626 18.592 20.2609 18.5928 20.2601 18.5928C20.2592 18.5928 20.2576 18.5911 20.2568 18.5903C20.2568 18.5125 20.2576 18.4339 20.2559 18.3561C20.2551 18.3296 20.2609 18.3164 20.2915 18.3164C20.409 18.3181 20.5274 18.3181 20.6449 18.3181C20.6457 19.0471 20.6457 19.7753 20.6457 20.5035Z" fill="#C2C2C2"/>
<path d="M19.4863 20.5312C19.5054 20.5337 19.5252 20.5354 19.5443 20.5379C19.5252 20.5379 19.5054 20.5379 19.4863 20.5379C19.4863 20.5354 19.4863 20.5337 19.4863 20.5312Z" fill="#B0B0B0"/>
<path d="M19.4876 20.5312C19.4876 20.5337 19.4876 20.5354 19.4876 20.5379C19.4794 20.5379 19.4711 20.5379 19.4629 20.5379C19.4711 20.5354 19.4794 20.5337 19.4876 20.5312Z" fill="#BFBFBF"/>
<path d="M6.46289 20.5348C6.46868 20.5323 6.47446 20.5298 6.47942 20.5273C6.47942 20.5298 6.47942 20.5323 6.47942 20.5348C6.47364 20.5348 6.46785 20.5348 6.46289 20.5348Z" fill="#9B9B9B"/>
<path d="M6.48047 20.5348C6.48047 20.5323 6.48047 20.5298 6.48047 20.5273C6.48626 20.5298 6.49123 20.5323 6.49702 20.5348C6.49123 20.5348 6.48543 20.5348 6.48047 20.5348Z" fill="#B4B4B4"/>
<path d="M16.2246 18.3238C16.3429 18.3238 16.458 18.3238 16.5771 18.3238C16.5771 18.3842 16.5771 18.443 16.5771 18.5075C16.5904 18.4984 16.5978 18.4935 16.6044 18.4877C16.9321 18.2229 17.3856 18.2229 17.7149 18.4877C17.9458 18.6739 18.0658 18.918 18.0691 19.2126C18.0741 19.6347 18.0708 20.0567 18.0708 20.4787C18.0708 20.4854 18.0699 20.492 18.0691 20.5011C17.9243 20.5011 17.782 20.5011 17.6355 20.5011C17.6355 20.4837 17.6355 20.4672 17.6355 20.4514C17.6355 20.0418 17.6363 19.6322 17.6355 19.2225C17.6355 18.9718 17.4683 18.774 17.2217 18.7293C16.9421 18.6788 16.6632 18.9006 16.6599 19.1853C16.6549 19.5668 16.6582 19.9491 16.6582 20.3314C16.6582 20.3869 16.6582 20.4415 16.6582 20.5003C16.5142 20.5003 16.3719 20.5003 16.2263 20.5003C16.2246 19.777 16.2246 19.0521 16.2246 18.3238Z" fill="#565656"/>
<path d="M13.6138 17.4675C13.6088 17.4808 13.6038 17.4932 13.5989 17.5056C13.5509 17.6165 13.502 17.7274 13.4557 17.8391C13.4433 17.868 13.4284 17.8772 13.3978 17.8763C13.2927 17.8747 13.1884 17.8755 13.0833 17.8755C12.8921 17.8755 12.7564 17.9996 12.7398 18.1891C12.7357 18.2338 12.739 18.2793 12.739 18.3298C12.9683 18.3298 13.1967 18.3298 13.4267 18.3298C13.4267 18.4572 13.4267 18.5789 13.4267 18.7072C13.1991 18.7072 12.9707 18.7072 12.7382 18.7072C12.7382 19.3071 12.7382 19.9021 12.7382 20.4988C12.5958 20.4988 12.4585 20.4988 12.3145 20.4988C12.3145 20.4847 12.3145 20.4698 12.3145 20.4557C12.3145 19.7151 12.3145 18.9745 12.3145 18.2346C12.3145 18.0153 12.3749 17.8184 12.5404 17.6645C12.6695 17.5445 12.8259 17.4783 12.9989 17.47C13.2025 17.4601 13.406 17.4675 13.6138 17.4675Z" fill="#565656"/>
<path d="M8.75507 20.4996C8.60777 20.4996 8.46626 20.4996 8.32227 20.4996C8.32227 19.7739 8.32227 19.049 8.32227 18.3225C8.43978 18.3225 8.55481 18.3225 8.67563 18.3225C8.67563 18.3779 8.67563 18.4334 8.67563 18.4988C8.77245 18.4086 8.8792 18.3597 8.99754 18.3391C9.05133 18.3291 9.10678 18.3225 9.1614 18.3217C9.31863 18.3192 9.47587 18.3209 9.6331 18.3209C9.63807 18.3209 9.64303 18.3225 9.65213 18.3242C9.64882 18.3357 9.64634 18.3465 9.6422 18.3564C9.59503 18.4756 9.54786 18.5939 9.50235 18.7139C9.49324 18.7371 9.48249 18.7454 9.45766 18.7445C9.37656 18.7437 9.29463 18.742 9.21353 18.747C8.95699 18.7636 8.75673 18.9762 8.7559 19.2328C8.75507 19.6391 8.7559 20.0462 8.7559 20.4525C8.75507 20.4674 8.75507 20.4823 8.75507 20.4996Z" fill="#565656"/>
<path d="M9.8457 14.5926C9.85977 14.5438 9.87301 14.495 9.88708 14.4461C10.5392 14.4461 11.1913 14.4453 11.8434 14.4453C13.5059 14.4453 15.1684 14.4453 16.8317 14.4453C16.7887 14.4983 16.7456 14.5504 16.7026 14.6034C16.6803 14.6034 16.6588 14.6025 16.6364 14.6025C14.3913 14.6025 12.1462 14.6025 9.90115 14.6017C9.88211 14.6025 9.86391 14.5959 9.8457 14.5926Z" fill="#F6AB24"/>
<path d="M9.84636 14.5938C9.86457 14.5971 9.88278 14.6037 9.90098 14.6037C12.1461 14.6045 14.3913 14.6045 16.6364 14.6045C16.6588 14.6045 16.6803 14.6053 16.7027 14.6053C16.653 14.6574 16.6025 14.7095 16.5529 14.7624C16.5322 14.7624 16.5115 14.7616 16.4908 14.7616C14.2812 14.7616 12.0708 14.7616 9.86126 14.7616C9.84305 14.7616 9.82485 14.7558 9.80664 14.7533C9.81905 14.6996 9.83312 14.6467 9.84636 14.5938Z" fill="#F6AD24"/>
<path d="M9.74609 15.1715C9.74858 15.1367 9.75106 15.1012 9.75437 15.0664C9.77506 15.0664 9.79575 15.0664 9.81644 15.0664C11.9259 15.0664 14.0353 15.0664 16.1455 15.0664C16.167 15.0664 16.1885 15.0714 16.2101 15.0747C16.1447 15.1243 16.0793 15.1748 16.0139 15.2245C15.9932 15.2245 15.9726 15.2236 15.9519 15.2236C13.9037 15.2236 11.8547 15.2236 9.8065 15.2236C9.7883 15.2236 9.76927 15.2236 9.7494 15.2236C9.74775 15.2013 9.74692 15.1864 9.74609 15.1715Z" fill="#F7B323"/>
<path d="M9.74685 15.1719C9.74768 15.1868 9.74851 15.2017 9.74934 15.224C9.7692 15.224 9.7874 15.224 9.80644 15.224C11.8546 15.224 13.9036 15.224 15.9518 15.224C15.9725 15.224 15.9932 15.2248 16.0139 15.2248C15.9501 15.2563 15.9493 15.3142 15.9518 15.373C15.9328 15.3755 15.9146 15.3804 15.8955 15.3804C13.844 15.3804 11.7917 15.3804 9.74023 15.3804C9.74272 15.3117 9.7452 15.2422 9.74685 15.1719Z" fill="#F7B523"/>
<path d="M9.74219 15.3824C11.7936 15.3824 13.8459 15.3824 15.8973 15.3824C15.9164 15.3824 15.9346 15.3775 15.9536 15.375C15.9478 15.4304 15.9429 15.4851 15.9379 15.5405C13.8757 15.5405 11.8127 15.5405 9.75046 15.5405C9.74715 15.4875 9.74467 15.4354 9.74219 15.3824Z" fill="#F7B723"/>
<path d="M9.74805 15.5391C11.8103 15.5391 13.8734 15.5391 15.9356 15.5391C15.9248 15.5912 15.9149 15.6441 15.9042 15.6962C13.8576 15.6962 11.8111 15.6962 9.7646 15.6962C9.75963 15.6441 9.75384 15.592 9.74805 15.5391Z" fill="#F7B923"/>
<path d="M9.75781 15.0255C9.76278 14.99 9.76857 14.9544 9.77354 14.918C11.9823 14.918 14.1918 14.918 16.4005 14.918C16.3591 14.9536 16.3178 14.9883 16.2756 15.0239C16.2607 15.0214 16.2466 15.0173 16.2317 15.0173C14.0908 15.0173 11.95 15.0173 9.80912 15.0173C9.79257 15.0181 9.77519 15.0231 9.75781 15.0255Z" fill="#F6B124"/>
<path d="M12.5664 9.62089C12.6144 9.56627 12.6624 9.51165 12.7104 9.45703C12.7261 9.45951 12.7418 9.46448 12.7576 9.46448C14.0146 9.46448 15.2725 9.46448 16.5296 9.46448C16.5445 9.46448 16.5586 9.46034 16.5735 9.45869C16.6289 9.5133 16.6852 9.5671 16.7406 9.62171C16.7299 9.62171 16.7183 9.62254 16.7075 9.62254C15.3404 9.62254 13.9733 9.62254 12.607 9.62254C12.5937 9.62254 12.5805 9.62171 12.5664 9.62089Z" fill="#F16B29"/>
<path d="M16.5739 9.45825C16.559 9.4599 16.545 9.46404 16.5301 9.46404C15.273 9.46404 14.0152 9.46404 12.7581 9.46404C12.7424 9.46404 12.7267 9.45907 12.7109 9.45659C12.7664 9.40446 12.8218 9.35232 12.8764 9.30101C12.8897 9.3035 12.9029 9.30681 12.9162 9.30681C14.0532 9.30681 15.1894 9.30681 16.3265 9.30681C16.3406 9.30681 16.3546 9.30019 16.3687 9.29688C16.425 9.34156 16.4821 9.38708 16.5383 9.43177C16.5499 9.44087 16.5615 9.44997 16.5739 9.45825Z" fill="#F16929"/>
<path d="M12.5939 15.9276C12.4987 15.9069 12.4027 15.8904 12.3084 15.8655C12.2041 15.8374 12.1015 15.8026 11.998 15.7704C12.0171 15.7704 12.0369 15.7695 12.056 15.7695C13.3337 15.7695 14.6106 15.7695 15.8883 15.7695C15.8718 15.8217 15.8552 15.8746 15.8387 15.9268C14.7563 15.9268 13.6747 15.9276 12.5939 15.9276Z" fill="#F7BC23"/>
<path d="M16.4005 14.9188C14.1918 14.9188 11.9822 14.9188 9.77344 14.9188C9.7784 14.8915 9.78337 14.8633 9.78833 14.8359C9.80902 14.8359 9.82971 14.8359 9.8504 14.8359C12.0343 14.8359 14.2174 14.8359 16.4013 14.8359C16.427 14.8359 16.4526 14.8417 16.4783 14.8451C16.4526 14.8699 16.427 14.8948 16.4005 14.9188Z" fill="#F6B024"/>
<path d="M10.4506 12.1797C10.4721 12.2327 10.4936 12.2864 10.5159 12.3394C10.5002 12.3411 10.4837 12.3452 10.4679 12.3452C9.86301 12.3452 9.25725 12.3452 8.65231 12.3452C8.13261 12.3452 7.61291 12.3452 7.09321 12.3444C7.04521 12.2922 6.99722 12.2401 6.94922 12.188C6.96825 12.188 6.98811 12.188 7.00715 12.188C8.1384 12.188 9.26883 12.188 10.4001 12.188C10.4166 12.188 10.434 12.183 10.4506 12.1797Z" fill="#F48E26"/>
<path d="M10.4504 12.1785C10.433 12.181 10.4164 12.1868 10.399 12.1868C9.26779 12.1868 8.13736 12.1868 7.00611 12.1868C6.98707 12.1868 6.96721 12.1868 6.94818 12.1868C6.94652 12.1785 6.94156 12.1686 6.94404 12.1611C6.96142 12.1139 6.98045 12.0667 6.99866 12.0195C7.01273 12.0228 7.0268 12.0286 7.04086 12.0286C8.14398 12.0295 9.2471 12.0295 10.3502 12.0286C10.3643 12.0286 10.3784 12.0228 10.3924 12.0195C10.4123 12.0733 10.4313 12.1255 10.4504 12.1785Z" fill="#F48C26"/>
<path d="M16.3693 9.29619C16.3552 9.2995 16.3411 9.30612 16.3271 9.30612C15.19 9.30695 14.0537 9.30695 12.9167 9.30612C12.9034 9.30612 12.8902 9.30198 12.877 9.30033C12.9456 9.24737 13.0143 9.19358 13.083 9.14062C13.0987 9.14393 13.1145 9.1489 13.1294 9.1489C14.1175 9.1489 15.1048 9.1489 16.0929 9.1489C16.1069 9.1489 16.1218 9.14393 16.1359 9.14145C16.2137 9.19276 16.2915 9.24406 16.3693 9.29619Z" fill="#F16729"/>
<path d="M7.52988 12.7327C7.46616 12.6806 7.40161 12.6285 7.33789 12.5763C7.35692 12.5763 7.37679 12.5763 7.39582 12.5763C8.45673 12.5763 9.51765 12.5763 10.5786 12.5755C10.5968 12.5755 10.615 12.5697 10.6332 12.5664C10.663 12.6177 10.6928 12.6682 10.7234 12.7195C10.711 12.7245 10.6977 12.7327 10.6853 12.7327C9.6335 12.7327 8.58169 12.7327 7.52988 12.7327Z" fill="#F49326"/>
<path d="M10.6341 12.5665C10.6159 12.5698 10.5977 12.5756 10.5795 12.5756C9.51856 12.5765 8.45765 12.5756 7.39674 12.5765C7.3777 12.5765 7.35784 12.5765 7.33881 12.5765C7.28419 12.5268 7.2304 12.4763 7.17578 12.4266C7.93712 12.4266 8.69929 12.4266 9.46064 12.4266C9.82724 12.4266 10.1938 12.4266 10.5596 12.4258C10.5853 12.473 10.6101 12.5193 10.6341 12.5665Z" fill="#F49126"/>
<path d="M10.2844 11.6416C10.296 11.6879 10.3076 11.7351 10.3183 11.7814C10.301 11.7872 10.2836 11.798 10.2662 11.798C9.23093 11.7988 8.19566 11.7988 7.16039 11.7988C7.14963 11.7988 7.13804 11.8005 7.12728 11.798C7.11984 11.7963 7.11404 11.7872 7.10742 11.7814C7.13473 11.7293 7.16287 11.6771 7.19018 11.625C7.20673 11.63 7.22245 11.6399 7.239 11.6399C8.25524 11.6416 9.26982 11.6416 10.2844 11.6416Z" fill="#F38727"/>
<path d="M10.8837 12.9531C10.9243 13.0069 10.9648 13.0614 11.0062 13.1152C10.9905 13.1168 10.9739 13.121 10.9582 13.121C10.3011 13.121 9.64323 13.121 8.98616 13.121C8.71638 13.121 8.44578 13.1218 8.176 13.1218C8.07669 13.0697 7.97738 13.0168 7.87891 12.9647C7.89794 12.9647 7.9178 12.9639 7.93683 12.9639C8.90175 12.9639 9.86667 12.9639 10.8316 12.963C10.8473 12.9639 10.8655 12.9573 10.8837 12.9531Z" fill="#F59825"/>
<path d="M10.8839 12.9543C10.8657 12.9576 10.8475 12.9651 10.8301 12.9651C9.86516 12.9659 8.90023 12.9659 7.9353 12.9659C7.91627 12.9659 7.89641 12.9659 7.87737 12.9667C7.80041 12.917 7.72345 12.8674 7.64648 12.8177C8.67514 12.8177 9.70379 12.8177 10.7316 12.8169C10.749 12.8169 10.7655 12.8119 10.7829 12.8086C10.8168 12.8566 10.85 12.9055 10.8839 12.9543Z" fill="#F49626"/>
<path d="M15.8878 15.7681C14.6101 15.7681 13.3332 15.7681 12.0554 15.7681C12.0364 15.7681 12.0166 15.7681 11.9975 15.769C11.9801 15.769 11.9619 15.769 11.9446 15.7698C11.9255 15.7698 11.9057 15.769 11.8866 15.769C11.2014 15.769 10.5162 15.769 9.831 15.769C9.81197 15.769 9.79376 15.764 9.77473 15.7615C9.77142 15.7392 9.76894 15.7168 9.76562 15.6953C11.8121 15.6953 13.8587 15.6953 15.9052 15.6953C15.8994 15.7185 15.8936 15.7433 15.8878 15.7681Z" fill="#F7BA23"/>
<path d="M10.2847 11.6399C9.27018 11.6399 8.25479 11.6399 7.24023 11.6391C7.22368 11.6391 7.20796 11.6291 7.19141 11.6242C7.21871 11.5795 7.2452 11.5347 7.2725 11.49C7.28078 11.49 7.28906 11.4909 7.29733 11.4909C8.26803 11.4909 9.23956 11.4909 10.2103 11.4909C10.2202 11.4909 10.2301 11.4925 10.2392 11.4892C10.245 11.4867 10.2492 11.4785 10.2541 11.4727C10.2641 11.5281 10.2748 11.5836 10.2847 11.6399Z" fill="#F38527"/>
<path d="M7.33203 11.4011C7.3701 11.3482 7.40899 11.2952 7.44706 11.2422C7.46527 11.2455 7.48347 11.2521 7.50168 11.2521C8.41115 11.253 9.3198 11.2529 10.2293 11.2529C10.2351 11.3051 10.24 11.3581 10.2458 11.4102C9.29166 11.4102 8.3375 11.4102 7.38417 11.4102C7.36596 11.4094 7.34941 11.4036 7.33203 11.4011Z" fill="#F38227"/>
<path d="M16.8312 14.4483C15.1686 14.4483 13.5061 14.4483 11.8427 14.4483C11.1906 14.4483 10.5385 14.4483 9.88642 14.4491C9.86987 14.4301 9.85332 14.4102 9.83594 14.3912C10.157 14.3912 10.4781 14.3904 10.7992 14.3904C11.5804 14.3904 12.3616 14.3904 13.1428 14.3895C13.166 14.3895 13.19 14.3746 13.2132 14.3672C13.3075 14.3788 13.401 14.3937 13.4953 14.4003C13.7055 14.4144 13.9157 14.4168 14.1251 14.3788C14.1491 14.3746 14.1739 14.3713 14.1979 14.368C14.2153 14.3705 14.2327 14.3746 14.2501 14.3746C15.1289 14.3746 16.0086 14.3746 16.8875 14.3755C16.8701 14.3986 16.851 14.4235 16.8312 14.4483Z" fill="#F6AA24"/>
<path d="M10.3937 12.0217C10.3796 12.025 10.3656 12.0308 10.3515 12.0308C9.2484 12.0317 8.1453 12.0317 7.0422 12.0308C7.02814 12.0308 7.01407 12.025 7 12.0217C7.01738 11.9812 7.03476 11.9398 7.05213 11.8993C8.12544 11.8993 9.19875 11.8993 10.2712 11.8993C10.2985 11.8993 10.3267 11.8984 10.354 11.8984C10.3672 11.939 10.3805 11.9804 10.3937 12.0217Z" fill="#F48A26"/>
<path d="M9.74688 14.2884C9.70468 14.2387 9.6633 14.1891 9.62109 14.1403C9.64178 14.1403 9.66247 14.1394 9.68316 14.1394C10.5645 14.1394 11.4459 14.1394 12.3281 14.1394C12.3454 14.1394 12.3628 14.1353 12.3802 14.1328C12.4994 14.175 12.6185 14.218 12.7377 14.2594C12.7642 14.2685 12.7915 14.2735 12.8188 14.2809C12.8014 14.2834 12.784 14.2884 12.7675 14.2884C12.0574 14.2884 11.3474 14.2884 10.6373 14.2884C10.3402 14.2876 10.044 14.2884 9.74688 14.2884Z" fill="#F6A724"/>
<path d="M15.3652 13.8151C15.4256 13.7622 15.4861 13.7092 15.5465 13.6562C15.5647 13.6596 15.5829 13.6662 15.6011 13.6662C16.5023 13.667 17.4027 13.667 18.3039 13.667C18.2285 13.7191 18.1541 13.7713 18.0788 13.8234C17.1875 13.8234 16.2954 13.8234 15.4041 13.8234C15.3917 13.8234 15.3785 13.8184 15.3652 13.8151Z" fill="#F5A125"/>
<path d="M8.17383 13.1238C8.44361 13.1238 8.71422 13.123 8.98401 13.123C9.64109 13.123 10.299 13.123 10.9561 13.123C10.9718 13.123 10.9883 13.1188 11.0041 13.1172C11.0521 13.171 11.1009 13.2257 11.1489 13.2795C11.1299 13.2795 11.11 13.2804 11.091 13.2804C10.2692 13.2804 9.44826 13.2804 8.6265 13.2804C8.60747 13.2804 8.58761 13.2812 8.56857 13.2812C8.43782 13.229 8.30624 13.1768 8.17383 13.1238Z" fill="#F59A25"/>
<path d="M15.3669 13.8164C15.3801 13.8189 15.3925 13.8247 15.4058 13.8247C16.2971 13.8247 17.1892 13.8247 18.0805 13.8247C17.9646 13.8792 17.8488 13.9338 17.7329 13.9884C17.7155 13.9859 17.6982 13.9818 17.6808 13.9818C16.835 13.9818 15.9884 13.981 15.1426 13.981C15.2179 13.9264 15.2924 13.8718 15.3669 13.8164Z" fill="#F5A325"/>
<path d="M18.3288 13.4258C18.3404 13.4812 18.3512 13.5367 18.3628 13.5921C17.4616 13.5921 16.5604 13.5921 15.6592 13.5921C15.6467 13.5921 15.6343 13.5855 15.6211 13.5822C15.6641 13.5325 15.708 13.4837 15.751 13.4341C15.7593 13.4341 15.7676 13.4349 15.7758 13.4349C16.6141 13.4349 17.4525 13.4349 18.2899 13.4349C18.3032 13.4349 18.3164 13.4291 18.3288 13.4258Z" fill="#F59E25"/>
<path d="M12.3796 14.1318C12.3622 14.1343 12.3448 14.1384 12.3274 14.1384C11.4461 14.1384 10.5648 14.1384 9.68259 14.1384C9.6619 14.1384 9.64121 14.1392 9.62052 14.1392C9.57997 14.0863 9.53942 14.0342 9.49805 13.9813C9.51708 13.9813 9.53694 13.9805 9.55598 13.9805C10.3893 13.9805 11.2235 13.9805 12.0568 13.9805C12.1363 14.0202 12.2165 14.0607 12.2968 14.0995C12.3241 14.1119 12.3523 14.121 12.3796 14.1318Z" fill="#F6A524"/>
<path d="M7.63867 11.0132C7.69412 10.9577 7.74874 10.9023 7.80418 10.8477C7.82156 10.8501 7.83811 10.8559 7.85549 10.8559C8.64414 10.8559 9.43279 10.8559 10.2214 10.8559C10.2214 10.9114 10.2214 10.966 10.2214 11.0214C9.37817 11.0214 8.53408 11.0214 7.69081 11.0214C7.6726 11.0206 7.65522 11.0156 7.63867 11.0132Z" fill="#F37D27"/>
<path d="M10.2275 11.2501C9.31805 11.2501 8.4094 11.2501 7.49993 11.2493C7.48172 11.2493 7.46352 11.2426 7.44531 11.2393C7.48421 11.1905 7.52393 11.1426 7.56282 11.0938C7.5802 11.0962 7.59758 11.1004 7.61496 11.1004C8.48306 11.1004 9.35115 11.1004 10.2192 11.1004C10.2226 11.1508 10.225 11.2005 10.2275 11.2501Z" fill="#F38027"/>
<path d="M12.5938 15.9258C13.6754 15.9258 14.757 15.9258 15.8377 15.9258C15.8162 15.9812 15.7947 16.0375 15.7732 16.0929C15.7575 16.0896 15.7426 16.083 15.7268 16.083C15.1161 16.0822 14.5054 16.0822 13.8947 16.083C13.8806 16.083 13.8665 16.088 13.8516 16.0913C13.8177 16.0218 13.7598 16.0143 13.6886 16.0143C13.4875 16.0143 13.2864 16.0135 13.0861 15.9978C12.9215 15.9845 12.7576 15.9506 12.5938 15.9258Z" fill="#F7BE23"/>
<path d="M13.1973 9.06491C13.2966 9.0136 13.3967 8.96146 13.496 8.91016C13.5101 8.91264 13.525 8.91678 13.539 8.91678C14.23 8.91678 14.9202 8.91678 15.6112 8.91678C15.6261 8.91678 15.6402 8.91264 15.6551 8.91016C15.7685 8.96229 15.881 9.01443 15.9944 9.06656C15.9811 9.06904 15.9687 9.07401 15.9555 9.07401C15.0501 9.07401 14.1448 9.07401 13.2395 9.07401C13.2254 9.07401 13.2113 9.06822 13.1973 9.06491Z" fill="#F16429"/>
<path d="M18.3289 13.4268C18.3165 13.4301 18.3033 13.4359 18.2909 13.4359C17.4526 13.4367 16.6143 13.4359 15.7768 13.4359C15.7685 13.4359 15.7602 13.4351 15.752 13.4351C15.7942 13.3796 15.8364 13.3242 15.8786 13.2695C15.891 13.2728 15.9042 13.2786 15.9166 13.2786C16.7069 13.2786 17.4981 13.2786 18.2884 13.2786C18.3016 13.3283 18.3157 13.3771 18.3289 13.4268Z" fill="#F59C25"/>
<path d="M12.0569 13.9803C11.2236 13.9803 10.3894 13.9803 9.55607 13.9803C9.53703 13.9803 9.51717 13.9803 9.49814 13.9811C9.46007 13.9281 9.42201 13.876 9.38477 13.823C10.1709 13.823 10.9571 13.823 11.7441 13.823C11.7573 13.823 11.7706 13.8189 11.7838 13.8164C11.8749 13.871 11.9659 13.9256 12.0569 13.9803Z" fill="#F5A325"/>
<path d="M16.8887 14.3716C16.0099 14.3716 15.1302 14.3716 14.2514 14.3707C14.234 14.3707 14.2166 14.3666 14.1992 14.3641C14.3763 14.3327 14.5443 14.2707 14.7123 14.207C14.7272 14.2095 14.7413 14.2136 14.7562 14.2136C15.5051 14.2136 16.2548 14.2136 17.0038 14.2136C16.9657 14.2666 16.9268 14.3187 16.8887 14.3716Z" fill="#F6A824"/>
<path d="M11.7837 13.819C11.7704 13.8215 11.7572 13.8257 11.744 13.8257C10.9578 13.8257 10.1716 13.8257 9.38463 13.8257C9.34821 13.7702 9.3118 13.7156 9.27539 13.6602C9.29442 13.6626 9.31346 13.6676 9.33166 13.6676C10.0624 13.6676 10.7931 13.6676 11.5238 13.6676C11.5387 13.6676 11.5528 13.6635 11.5677 13.6618C11.6314 13.709 11.6951 13.757 11.7589 13.8041C11.7663 13.8108 11.7754 13.8149 11.7837 13.819Z" fill="#F5A125"/>
<path d="M10.9851 8.45442C10.9528 8.50407 10.9214 8.55289 10.8891 8.60255C10.1179 8.60255 9.34741 8.60255 8.57613 8.60255C8.55048 8.55041 8.52565 8.49745 8.5 8.44531C8.51903 8.4478 8.53724 8.45359 8.55627 8.45359C9.30934 8.45359 10.0624 8.45359 10.8155 8.45359C10.8717 8.45359 10.9288 8.45442 10.9851 8.45442Z" fill="#F05E2A"/>
<path d="M18.1979 13.0387C18.2202 13.0941 18.2425 13.1496 18.2649 13.2042C17.4994 13.2042 16.734 13.2042 15.9686 13.2042C15.9553 13.2042 15.9429 13.1984 15.9297 13.1959C15.9628 13.1413 15.9959 13.0859 16.029 13.0312C16.0439 13.037 16.0588 13.047 16.0737 13.047C16.7671 13.0478 17.4606 13.0478 18.154 13.047C18.1689 13.047 18.183 13.0412 18.1979 13.0387Z" fill="#F59925"/>
<path d="M11.5689 13.6605C11.554 13.663 11.5399 13.6663 11.525 13.6663C10.7943 13.6663 10.0636 13.6663 9.33285 13.6663C9.31382 13.6663 9.29478 13.6614 9.27658 13.6589C9.24596 13.6092 9.21617 13.5596 9.18555 13.5099C9.89972 13.5099 10.6147 13.5099 11.3289 13.5091C11.3454 13.5091 11.3628 13.5033 11.3794 13.5C11.4423 13.5538 11.5052 13.6068 11.5689 13.6605Z" fill="#F59F25"/>
<path d="M8.57422 8.60547C9.3455 8.60547 10.116 8.60547 10.8872 8.60547C10.8558 8.65843 10.8244 8.71139 10.7929 8.76353C10.7764 8.76353 10.7598 8.7627 10.7433 8.7627C10.0498 8.7627 9.35626 8.7627 8.66277 8.7627C8.6338 8.70974 8.60401 8.6576 8.57422 8.60547Z" fill="#F0602A"/>
<path d="M11.3794 13.5023C11.3628 13.5056 11.3454 13.5114 11.3289 13.5114C10.6147 13.5122 9.8997 13.5122 9.18553 13.5122C9.14994 13.3923 9.04733 13.394 8.95133 13.3799C8.91492 13.3749 8.87933 13.3642 8.84375 13.3559C8.86278 13.3551 8.88264 13.3551 8.90168 13.3551C9.65475 13.3551 10.4086 13.3551 11.1617 13.3551C11.1791 13.3551 11.1965 13.3501 11.213 13.3477C11.2685 13.3989 11.3239 13.451 11.3794 13.5023Z" fill="#F59D25"/>
<path d="M15.9876 10.6317C15.9263 10.5548 15.8651 10.4779 15.8047 10.4001C15.8841 10.4001 15.9644 10.3993 16.0438 10.3993C16.4733 10.3993 16.902 10.3984 17.3315 10.3984C17.3671 10.4729 17.4019 10.5465 17.4374 10.621C17.4209 10.6243 17.4043 10.6309 17.387 10.6309C16.9202 10.6317 16.4535 10.6317 15.9876 10.6317Z" fill="#F27728"/>
<path d="M10.2354 10.5568C10.2321 10.5899 10.2296 10.623 10.2263 10.6561C10.2222 10.6743 10.218 10.6925 10.2139 10.7116C10.2006 10.7124 10.1882 10.7132 10.1758 10.7132C9.4542 10.7132 8.73258 10.7132 8.01095 10.7132C7.99689 10.7132 7.98282 10.7074 7.96875 10.7049C8.04075 10.652 8.11192 10.5998 8.18391 10.5469C8.20046 10.5502 8.21784 10.556 8.23439 10.556C8.90139 10.5568 9.5684 10.5568 10.2354 10.5568Z" fill="#F27928"/>
<path d="M9.80479 14.75C9.82299 14.7533 9.8412 14.7583 9.8594 14.7583C12.0689 14.7583 14.2792 14.7583 16.4887 14.7583C16.5094 14.7583 16.5301 14.7591 16.5508 14.7591C16.5334 14.7781 16.516 14.7971 16.4995 14.8161C16.478 14.8136 16.4565 14.8078 16.435 14.8078C14.2983 14.8078 12.1616 14.8078 10.0241 14.807C9.94547 14.807 9.86768 14.802 9.78906 14.7987C9.79486 14.783 9.79982 14.7665 9.80479 14.75Z" fill="#F6AE24"/>
<path d="M7.96907 10.7051C7.98313 10.7084 7.9972 10.7134 8.01127 10.7134C8.73287 10.7142 9.45447 10.7134 10.1761 10.7134C10.1885 10.7134 10.2001 10.7125 10.2141 10.7117C10.2183 10.6918 10.2224 10.6736 10.2265 10.6562C10.2241 10.7225 10.2224 10.7887 10.2199 10.8549C9.4313 10.8549 8.64267 10.8549 7.85404 10.8549C7.83666 10.8549 7.82011 10.8499 7.80273 10.8466C7.85901 10.7986 7.91445 10.7522 7.96907 10.7051Z" fill="#F27B28"/>
<path d="M9.74609 14.2895C10.0423 14.2895 10.3386 14.2887 10.6357 14.2887C11.3457 14.2887 12.0557 14.2887 12.7657 14.2887C12.7831 14.2887 12.8005 14.2837 12.8171 14.2812C12.9495 14.3094 13.0819 14.3367 13.2143 14.3648C13.1911 14.3723 13.1671 14.3872 13.1439 14.3872C12.3627 14.388 11.5816 14.388 10.8004 14.388C10.4793 14.388 10.1582 14.388 9.83712 14.3888C9.8065 14.3557 9.77671 14.3226 9.74609 14.2895Z" fill="#F6A924"/>
<path d="M14.763 12.7266C14.7514 12.7415 14.7431 12.7597 14.7282 12.7713C14.6339 12.8466 14.5313 12.9078 14.4146 12.9417C14.0381 12.9417 13.6616 12.9426 13.2859 12.9426C13.1361 12.8946 12.9971 12.8242 12.8672 12.7348C13.4787 12.7348 14.0902 12.7348 14.7026 12.734C14.7232 12.734 14.7431 12.729 14.763 12.7266Z" fill="#F49526"/>
<path d="M10.3546 11.8971C10.3273 11.8971 10.2992 11.8979 10.2719 11.8979C9.19854 11.8979 8.12522 11.8979 7.05273 11.8979C7.07177 11.859 7.08997 11.8201 7.10901 11.7812C7.11563 11.787 7.12142 11.7953 7.12887 11.7978C7.1388 11.8003 7.15038 11.7986 7.16197 11.7986C8.19722 11.7986 9.2333 11.7986 10.2685 11.7978C10.2859 11.7978 10.3033 11.787 10.3207 11.7812C10.3314 11.8193 10.343 11.8582 10.3546 11.8971Z" fill="#F38927"/>
<path d="M9.75834 15.0231C9.77572 15.0206 9.7931 15.0156 9.81048 15.0156C11.9514 15.0156 14.0922 15.0156 16.2331 15.0156C16.248 15.0156 16.2621 15.0198 16.277 15.0222C16.2555 15.0396 16.2331 15.0562 16.2116 15.0736C16.1901 15.0711 16.1686 15.0653 16.1471 15.0653C14.0376 15.0653 11.9282 15.0653 9.81793 15.0653C9.79724 15.0653 9.77655 15.0653 9.75586 15.0653C9.75669 15.0504 9.75751 15.0371 9.75834 15.0231Z" fill="#F7B223"/>
<path d="M9.77344 15.7617C9.79247 15.7642 9.81068 15.7692 9.82971 15.7692C10.5149 15.7692 11.2001 15.7692 11.8853 15.7692C11.9044 15.7692 11.9242 15.77 11.9433 15.77C11.8655 15.8221 11.7877 15.8743 11.7107 15.9272C11.6917 15.9272 11.6718 15.9264 11.6528 15.9264C11.0371 15.9264 10.4214 15.9264 9.80488 15.9264C9.79413 15.8718 9.7842 15.8163 9.77344 15.7617Z" fill="#F7BC23"/>
<path d="M14.7102 9.77936C14.6515 9.77108 14.5935 9.76115 14.5348 9.7537C14.3486 9.73053 14.1649 9.74626 13.9811 9.77936C13.977 9.78019 13.9729 9.77936 13.9687 9.77936C13.9042 9.77357 13.8388 9.76363 13.7743 9.76281C13.3522 9.76115 12.9302 9.76198 12.5081 9.76198C12.4924 9.76198 12.4767 9.75701 12.4609 9.75453C12.4775 9.73219 12.494 9.70984 12.5098 9.6875C12.5255 9.69081 12.5404 9.6966 12.5561 9.6966C13.9605 9.6966 15.3648 9.6966 16.7683 9.6966C16.7832 9.6966 16.7973 9.69246 16.8122 9.69081C16.837 9.71729 16.8627 9.74377 16.8875 9.77108C16.8709 9.77439 16.8536 9.77936 16.837 9.78019C16.1295 9.77936 15.4202 9.77936 14.7102 9.77936Z" fill="#F16D29"/>
<path d="M16.8142 9.69061C16.7993 9.69309 16.7852 9.6964 16.7703 9.6964C15.366 9.6964 13.9616 9.6964 12.5581 9.6964C12.5423 9.6964 12.5274 9.69061 12.5117 9.6873C12.5299 9.66495 12.5481 9.64344 12.5672 9.62109C12.5812 9.62109 12.5945 9.62192 12.6085 9.62192C13.9757 9.62192 15.3428 9.62192 16.7091 9.62192C16.7199 9.62192 16.7314 9.62192 16.7422 9.62109C16.7654 9.64509 16.7902 9.66744 16.8142 9.69061Z" fill="#F16C29"/>
<path d="M16.3184 12.1135C16.3242 12.0416 16.3299 11.9704 16.3357 11.8984C16.7901 11.8984 17.2452 11.8984 17.6995 11.8984C17.6995 11.9646 17.6987 12.0308 17.6987 12.097C17.6813 12.1028 17.664 12.1127 17.6474 12.1127C17.2047 12.1135 16.7619 12.1135 16.3184 12.1135Z" fill="#F48B26"/>
<path d="M15.3138 10.01C15.1988 9.95708 15.0838 9.90496 14.9688 9.85202C15.6134 9.85202 16.2588 9.85202 16.9034 9.85202C16.9208 9.85202 16.9374 9.84706 16.9547 9.84375C16.9969 9.89917 17.0383 9.95377 17.0805 10.0092C16.9936 10.0092 16.9067 10.0092 16.8199 10.0092C16.3176 10.0092 15.8153 10.0092 15.3138 10.01Z" fill="#F27028"/>
<path d="M17.9648 12.6517C18.0012 12.7031 18.0368 12.7544 18.0732 12.8057C18.0591 12.809 18.045 12.8139 18.031 12.8139C17.4136 12.8148 16.7971 12.8148 16.1798 12.8139C16.1657 12.8139 16.1508 12.809 16.1367 12.8065C16.1558 12.7535 16.1748 12.7014 16.1938 12.6484C16.2095 12.6517 16.2244 12.6575 16.2402 12.6575C16.8004 12.6584 17.3607 12.6584 17.9201 12.6575C17.935 12.6575 17.9499 12.6542 17.9648 12.6517Z" fill="#F49426"/>
<path d="M17.0044 14.2152C16.2554 14.2152 15.5057 14.2152 14.7567 14.2152C14.7419 14.2152 14.7278 14.2111 14.7129 14.2086C14.8172 14.1573 14.9214 14.106 15.0257 14.0547C15.034 14.0894 15.0621 14.0828 15.0853 14.0828C15.4651 14.0828 15.8458 14.0828 16.2256 14.0828C16.5161 14.0828 16.8066 14.0837 17.0971 14.0837C17.0664 14.1275 17.0358 14.1714 17.0044 14.2152Z" fill="#F6A624"/>
<path d="M13.8516 16.0907C13.8656 16.0882 13.8797 16.0824 13.8946 16.0824C14.5053 16.0824 15.116 16.0816 15.7266 16.0824C15.7424 16.0824 15.7573 16.089 15.773 16.0923C15.7498 16.1412 15.7266 16.19 15.7043 16.2396C15.1309 16.2396 14.5566 16.2405 13.9831 16.2405C13.9384 16.1908 13.8946 16.1412 13.8516 16.0907Z" fill="#F8C022"/>
<path d="M8.31641 10.4637C8.36109 10.4389 8.40413 10.4107 8.45047 10.3901C8.4844 10.3743 8.50592 10.3536 8.5084 10.3164C9.09514 10.3164 9.68188 10.3164 10.2686 10.3164C10.2628 10.3603 10.2579 10.405 10.2521 10.4488C10.2438 10.4728 10.2248 10.4736 10.2032 10.4736C9.58837 10.4728 8.97349 10.4736 8.35944 10.4728C8.34454 10.4728 8.33047 10.467 8.31641 10.4637Z" fill="#F27628"/>
<path d="M10.452 9.5381C10.4371 9.58775 10.4222 9.63741 10.4073 9.68706C10.3883 9.68954 10.3701 9.69451 10.3511 9.69451C9.7718 9.69451 9.19254 9.69451 8.61328 9.69451C8.62652 9.63906 8.63976 9.58279 8.65383 9.52734C8.67038 9.53065 8.68776 9.53645 8.70431 9.53645C9.28688 9.5381 9.86945 9.5381 10.452 9.5381Z" fill="#F16C29"/>
<path d="M10.5603 12.4267C10.1937 12.4267 9.82714 12.4276 9.46136 12.4276C8.70002 12.4276 7.93785 12.4276 7.1765 12.4276C7.1492 12.4003 7.12106 12.3721 7.09375 12.3448C7.61345 12.3448 8.13315 12.3448 8.65285 12.3456C9.25778 12.3456 9.86355 12.3456 10.4685 12.3456C10.4842 12.3456 10.5008 12.3423 10.5165 12.3398C10.5314 12.368 10.5454 12.3969 10.5603 12.4267Z" fill="#F48F26"/>
<path d="M8.54688 10.0575C8.55515 10.0087 8.56343 9.95899 8.5717 9.91016C8.58742 9.91678 8.60315 9.92837 8.61887 9.92837C9.19402 9.92919 9.76833 9.92919 10.3427 9.92919C10.3319 9.97885 10.3203 10.0285 10.3095 10.0782C10.2905 10.0807 10.2723 10.0856 10.2533 10.0856C9.70296 10.0865 9.15181 10.0856 8.60149 10.0856C8.59156 10.0856 8.57998 10.0889 8.57336 10.0848C8.5626 10.079 8.55598 10.0674 8.54688 10.0575Z" fill="#F27128"/>
<path d="M8.76953 9.1489C8.78691 9.09927 8.80346 9.04963 8.82084 9C9.43652 9 10.0514 9 10.6671 9C10.6439 9.04963 10.6215 9.09927 10.5984 9.1489C9.98848 9.14973 9.37859 9.1489 8.76953 9.1489Z" fill="#F16529"/>
<path d="M8.66406 8.76172C9.35755 8.76172 10.051 8.76172 10.7445 8.76172C10.7611 8.76172 10.7776 8.76255 10.7942 8.76255C10.7685 8.80887 10.7429 8.85601 10.7172 8.90233C10.6973 8.89902 10.6767 8.89406 10.6568 8.89406C10.0452 8.89323 9.43451 8.89323 8.82295 8.89406C8.79978 8.89406 8.77661 8.89902 8.75426 8.90233C8.72447 8.85519 8.69468 8.80887 8.66406 8.76172Z" fill="#F16229"/>
<path d="M8.77107 9.14844C9.381 9.14844 9.9901 9.14844 10.6 9.14844C10.581 9.19561 10.5611 9.24279 10.5421 9.28913C10.5231 9.29162 10.5049 9.29658 10.4858 9.29658C9.92059 9.29741 9.35617 9.29658 8.79093 9.29658C8.781 9.29658 8.7719 9.29658 8.76197 9.29658C8.7388 9.29741 8.72969 9.28499 8.73052 9.26348C8.74459 9.22623 8.75783 9.18734 8.77107 9.14844Z" fill="#F16729"/>
<path d="M10.4526 9.53862C9.86996 9.53862 9.28737 9.53862 8.70478 9.5378C8.68823 9.5378 8.67085 9.532 8.6543 9.52869C8.66754 9.47904 8.68161 9.42856 8.69485 9.37891C8.70974 9.38222 8.72547 9.38884 8.74036 9.38966C8.86698 9.39049 8.99359 9.39049 9.12021 9.39049C9.58115 9.39049 10.0421 9.39132 10.503 9.39132C10.4865 9.44015 10.4699 9.48897 10.4526 9.53862Z" fill="#F16A29"/>
<path d="M17.9653 12.6527C17.9504 12.6544 17.9363 12.6585 17.9214 12.6585C17.3612 12.6585 16.801 12.6585 16.2417 12.6585C16.2259 12.6585 16.211 12.6527 16.1953 12.6494C16.2119 12.5998 16.2284 12.5509 16.245 12.5013C16.758 12.5013 17.271 12.5013 17.7832 12.5013C17.7973 12.5013 17.8114 12.4955 17.8255 12.4922C17.8718 12.546 17.9181 12.5998 17.9653 12.6527Z" fill="#F49226"/>
<path d="M10.7819 12.8056C10.7645 12.8081 10.7479 12.8139 10.7305 12.8139C9.7019 12.8147 8.67326 12.8147 7.64545 12.8147C7.60738 12.7874 7.56932 12.7593 7.53125 12.732C8.58306 12.732 9.63487 12.732 10.6867 12.732C10.6991 12.732 10.7123 12.7229 10.7248 12.7188C10.743 12.7469 10.7628 12.7767 10.7819 12.8056Z" fill="#F49426"/>
<path d="M10.268 10.3178C9.68127 10.3178 9.09454 10.3178 8.50781 10.3178C8.51526 10.2681 8.52271 10.2184 8.53016 10.168C9.11771 10.168 9.70527 10.168 10.2928 10.1688C10.2846 10.2184 10.2763 10.2681 10.268 10.3178Z" fill="#F27428"/>
<path d="M17.1298 10.0742C17.1653 10.1272 17.2009 10.181 17.2357 10.2339C17.2183 10.2372 17.2018 10.2422 17.1844 10.2422C16.6688 10.243 16.1533 10.243 15.6377 10.243C15.569 10.1909 15.5003 10.1379 15.4316 10.0858C15.9795 10.0858 16.5281 10.0858 17.076 10.085C17.0942 10.085 17.1124 10.0775 17.1298 10.0742Z" fill="#F27328"/>
<path d="M15.6552 8.91134C15.6403 8.91382 15.6262 8.91796 15.6113 8.91796C14.9203 8.91796 14.2301 8.91796 13.5391 8.91796C13.5251 8.91796 13.5102 8.91382 13.4961 8.91134C13.6277 8.86667 13.7584 8.82201 13.89 8.77734C14.3294 8.77734 14.7697 8.77734 15.2091 8.77817C15.3539 8.80629 15.4971 8.84351 15.6312 8.90638C15.6394 8.90886 15.6477 8.90969 15.6552 8.91134Z" fill="#F16229"/>
<path d="M10.9844 8.45564C10.9282 8.45564 10.8719 8.45481 10.8148 8.45481C10.0617 8.45481 9.30864 8.45481 8.55558 8.45481C8.53654 8.45481 8.51834 8.44984 8.4993 8.44653C8.48689 8.41921 8.4753 8.39189 8.46289 8.3654C8.48027 8.36209 8.49765 8.3563 8.51503 8.3563C9.34257 8.35547 10.1709 8.35547 10.9985 8.35547C11.0142 8.35547 11.0308 8.36044 11.0465 8.36292C11.0258 8.39438 11.0051 8.42501 10.9844 8.45564Z" fill="#F05D2A"/>
<path d="M16.1366 12.8094C16.1506 12.8119 16.1655 12.8169 16.1796 12.8169C16.7969 12.8169 17.4134 12.8169 18.0307 12.8169C18.0448 12.8169 18.0588 12.8111 18.0729 12.8086C18.0986 12.8525 18.1234 12.8971 18.149 12.941C17.7651 12.941 17.3811 12.9418 16.9972 12.9418C16.6902 12.9418 16.3832 12.941 16.0762 12.941C16.096 12.8971 16.1159 12.8533 16.1366 12.8094Z" fill="#F49626"/>
<path d="M17.0988 14.0805C16.8083 14.0805 16.5178 14.0797 16.2273 14.0797C15.8475 14.0797 15.4668 14.0797 15.0869 14.0797C15.0638 14.0797 15.0348 14.0871 15.0273 14.0516C15.0662 14.0276 15.1051 14.0036 15.1432 13.9805C15.989 13.9805 16.8356 13.9805 17.6814 13.9813C17.6988 13.9813 17.7162 13.9854 17.7336 13.9879C17.549 14.0557 17.3578 14.0863 17.1609 14.0821C17.1402 14.0813 17.1195 14.0813 17.0988 14.0805Z" fill="#F6A524"/>
<path d="M15.6387 10.2435C16.1543 10.2435 16.6699 10.2435 17.1855 10.2427C17.2029 10.2427 17.2194 10.2369 17.2368 10.2344C17.2682 10.2898 17.2989 10.3445 17.3303 10.4C16.9008 10.4 16.4721 10.4008 16.0425 10.4008C15.9631 10.4008 15.8828 10.4016 15.8034 10.4016C15.7479 10.3486 15.6933 10.2956 15.6387 10.2435Z" fill="#F27528"/>
<path d="M7.33107 11.3984C7.34845 11.4017 7.365 11.4067 7.38238 11.4067C8.33655 11.4067 9.29072 11.4067 10.2441 11.4067C10.2474 11.4282 10.2499 11.4497 10.2532 11.4713C10.2482 11.4771 10.2441 11.4853 10.2383 11.4878C10.23 11.4911 10.2192 11.4895 10.2093 11.4895C9.23858 11.4895 8.26703 11.4895 7.29631 11.4895C7.28804 11.4895 7.27976 11.4895 7.27148 11.4886C7.29135 11.4589 7.31121 11.4291 7.33107 11.3984Z" fill="#F38327"/>
<path d="M17.0176 11.9325C17.5505 11.9325 17.9824 11.8776 17.9824 11.81C17.9824 11.7423 17.5505 11.6875 17.0176 11.6875C16.4847 11.6875 16.0527 11.7423 16.0527 11.81C16.0527 11.8776 16.4847 11.9325 17.0176 11.9325Z" fill="#F38827"/>
<path d="M9.80664 15.9258C10.4223 15.9258 11.038 15.9258 11.6546 15.9258C11.6736 15.9258 11.6934 15.9266 11.7125 15.9266C11.6264 15.973 11.5403 16.0193 11.4535 16.0656C11.4402 16.0632 11.4278 16.0582 11.4146 16.0582C10.8899 16.0582 10.3644 16.0582 9.83974 16.0582C9.82816 16.0143 9.8174 15.9705 9.80664 15.9258Z" fill="#F7BE23"/>
<path d="M17.8249 12.4943C17.8108 12.4976 17.7968 12.5025 17.7827 12.5034C17.2696 12.5034 16.7564 12.5034 16.2441 12.5034C16.2582 12.4446 16.2715 12.3866 16.2855 12.3279C16.3012 12.3337 16.317 12.3453 16.3335 12.3453C16.7655 12.3461 17.1976 12.3461 17.6296 12.3461C17.6428 12.3461 17.6569 12.3461 17.6701 12.3461C17.6759 12.3304 17.6801 12.3179 17.6842 12.3047C17.6743 12.3519 17.6974 12.3808 17.733 12.4073C17.7653 12.433 17.7934 12.4645 17.8249 12.4943Z" fill="#F49026"/>
<path d="M16.1928 11.0187C16.168 10.9633 16.144 10.9078 16.1191 10.8524C16.5884 10.8524 17.0585 10.8516 17.5278 10.8516C17.5443 10.9037 17.5609 10.955 17.5774 11.0071C17.5609 11.0105 17.5443 11.0171 17.5269 11.0171C17.0833 11.0187 16.6381 11.0187 16.1928 11.0187Z" fill="#F37D27"/>
<path d="M15.664 16.3164C15.6318 16.3694 15.5995 16.4215 15.568 16.4745C15.549 16.4745 15.5291 16.4736 15.5101 16.4736C15.0905 16.4736 14.671 16.4736 14.2514 16.4736C14.1869 16.4215 14.1231 16.3694 14.0586 16.3172C14.594 16.3172 15.1294 16.3164 15.664 16.3164Z" fill="#F8C322"/>
<path d="M16.0745 12.9375C16.3815 12.9375 16.6886 12.9383 16.9956 12.9383C17.3796 12.9383 17.7635 12.9383 18.1475 12.9375C18.1632 12.9706 18.1798 13.0037 18.1955 13.0369C18.1814 13.0402 18.1674 13.0451 18.1525 13.0451C17.459 13.046 16.7655 13.046 16.072 13.0451C16.0571 13.0451 16.0422 13.0352 16.0273 13.0294C16.0431 12.9996 16.0588 12.969 16.0745 12.9375Z" fill="#F59725"/>
<path d="M15.9863 10.6319C16.453 10.6319 16.9197 10.6319 17.3856 10.631C17.4021 10.631 17.4187 10.6244 17.4361 10.6211C17.4584 10.6765 17.4807 10.732 17.5039 10.7874C17.4476 10.7874 17.3914 10.7883 17.3351 10.7883C16.9181 10.7883 16.5018 10.7891 16.0848 10.7891C16.0517 10.7369 16.0186 10.684 15.9863 10.6319Z" fill="#F27A28"/>
<path d="M8.6155 9.69495C9.19476 9.69495 9.77402 9.69495 10.3533 9.69495C10.3723 9.69495 10.3905 9.68998 10.4095 9.6875C10.3971 9.73219 10.3847 9.77605 10.3715 9.82073C10.3525 9.82073 10.3326 9.81991 10.3136 9.81991C9.73926 9.81991 9.16414 9.81991 8.58984 9.81991C8.59812 9.7777 8.60722 9.73633 8.6155 9.69495Z" fill="#F16E29"/>
<path d="M13.1971 9.06641C13.2111 9.06972 13.2252 9.07551 13.2393 9.07551C14.1446 9.07634 15.05 9.07634 15.9553 9.07551C15.9686 9.07551 15.981 9.07054 15.9942 9.06806C16.0414 9.09289 16.0877 9.11771 16.1349 9.14254C16.1209 9.14502 16.106 9.14999 16.0919 9.14999C15.1038 9.14999 14.1165 9.14999 13.1284 9.14999C13.1127 9.14999 13.0969 9.1442 13.082 9.14171C13.1201 9.11689 13.159 9.09123 13.1971 9.06641Z" fill="#F16629"/>
<path d="M16.3173 12.1142C16.76 12.1142 17.2035 12.1142 17.6462 12.1134C17.6636 12.1134 17.681 12.1034 17.6975 12.0977C17.6926 12.1556 17.6884 12.2135 17.6835 12.2714C17.2408 12.2714 16.7989 12.2714 16.3562 12.2714C16.3455 12.2714 16.3322 12.2748 16.3239 12.2706C16.314 12.2657 16.3082 12.2541 16.3008 12.245C16.3066 12.2011 16.3115 12.1572 16.3173 12.1142Z" fill="#F48D26"/>
<path d="M16.1914 11.0186C16.6366 11.0186 17.0809 11.0186 17.5261 11.0177C17.5427 11.0177 17.5592 11.0111 17.5766 11.0078C17.5907 11.0599 17.6039 11.1121 17.618 11.165C17.6031 11.1683 17.5873 11.175 17.5724 11.175C17.1463 11.1758 16.7193 11.1758 16.2932 11.175C16.2775 11.175 16.2609 11.17 16.2452 11.1675C16.227 11.1179 16.2096 11.0682 16.1914 11.0186Z" fill="#F37F27"/>
<path d="M10.2209 11.1027C9.3528 11.1027 8.4847 11.1027 7.61659 11.1027C7.59921 11.1027 7.58183 11.0986 7.56445 11.0961C7.58928 11.068 7.61411 11.0399 7.63811 11.0117C7.65548 11.0142 7.67204 11.0192 7.68941 11.0192C8.5327 11.0192 9.3768 11.0192 10.2201 11.0192C10.2209 11.0473 10.2209 11.0746 10.2209 11.1027Z" fill="#F37E27"/>
<path d="M16.2441 11.1705C16.2599 11.1729 16.2764 11.1779 16.2921 11.1779C16.7183 11.1787 17.1453 11.1787 17.5715 11.1779C17.5864 11.1779 17.6021 11.1713 17.617 11.168C17.627 11.2242 17.6377 11.2796 17.6477 11.3359C17.2107 11.3359 16.7729 11.3359 16.336 11.3351C16.3186 11.3351 16.3012 11.3251 16.2847 11.3193C16.2714 11.2697 16.2582 11.2201 16.2441 11.1705Z" fill="#F38127"/>
<path d="M17.6992 11.7231C17.245 11.7231 16.7898 11.7231 16.3356 11.7231C16.3331 11.671 16.3306 11.618 16.3281 11.5659C16.765 11.5659 17.2011 11.5659 17.638 11.5651C17.6537 11.5651 17.6694 11.5527 17.6852 11.5469C17.6893 11.6048 17.6943 11.6636 17.6992 11.7231Z" fill="#F38627"/>
<path d="M16.2871 11.3164C16.3045 11.3222 16.3219 11.3321 16.3384 11.3321C16.7754 11.333 17.2131 11.333 17.6501 11.333C17.6584 11.3851 17.6675 11.4381 17.6757 11.4902C17.2239 11.4902 16.7712 11.4902 16.3194 11.4902C16.3086 11.4323 16.2979 11.3743 16.2871 11.3164Z" fill="#F38327"/>
<path d="M11.2373 16.161C11.0735 16.2106 10.9104 16.2677 10.7441 16.3074C10.4942 16.3678 10.2385 16.3835 9.98109 16.3769C9.95378 16.3761 9.93806 16.3703 9.92896 16.343C9.90909 16.2818 9.88675 16.2214 9.86523 16.1602C10.322 16.1602 10.7797 16.1602 11.2373 16.161Z" fill="#F8C122"/>
<path d="M15.6214 13.582C15.6338 13.5853 15.6462 13.592 15.6594 13.592C16.5606 13.592 17.4617 13.592 18.3629 13.592C18.3571 13.6061 18.3546 13.6226 18.3455 13.6343C18.3347 13.6475 18.3182 13.6566 18.3041 13.6674C17.403 13.6674 16.5026 13.6674 15.6015 13.6666C15.5833 13.6666 15.5651 13.6599 15.5469 13.6566C15.5717 13.6318 15.5965 13.6069 15.6214 13.582Z" fill="#F5A025"/>
<path d="M8.75391 8.90343C8.77708 8.90094 8.80025 8.89515 8.82259 8.89515C9.43415 8.89432 10.0449 8.89432 10.6564 8.89515C10.6763 8.89515 10.697 8.90094 10.7168 8.90343C10.7003 8.93652 10.6837 8.96962 10.6672 9.00272C10.0515 9.00272 9.43663 9.00272 8.82094 9.00272C8.79777 8.96962 8.77542 8.93652 8.75391 8.90343Z" fill="#F16329"/>
<path d="M14.25 16.4727C14.6696 16.4727 15.0891 16.4727 15.5087 16.4727C15.5277 16.4727 15.5476 16.4735 15.5666 16.4735C15.5236 16.5338 15.4806 16.5942 15.4375 16.6546C15.1446 16.6546 14.8525 16.6554 14.5595 16.6554C14.4569 16.595 14.3534 16.5338 14.25 16.4727Z" fill="#F8C522"/>
<path d="M12.082 10.6227C12.1044 10.5425 12.1259 10.4622 12.1482 10.3828C12.1631 10.3886 12.1772 10.3994 12.1921 10.3994C12.4677 10.4002 12.7424 10.4002 13.018 10.4002C12.9708 10.4771 12.9236 10.5549 12.8765 10.6318C12.6274 10.6318 12.3783 10.6318 12.1292 10.6318C12.1127 10.631 12.0969 10.6252 12.082 10.6227Z" fill="#F27828"/>
<path d="M8.58882 9.82031C9.16313 9.82031 9.73828 9.82031 10.3126 9.82031C10.3316 9.82031 10.3515 9.82114 10.3705 9.82114C10.3614 9.85672 10.3515 9.89231 10.3424 9.92789C9.76807 9.92789 9.19375 9.92789 8.61944 9.92707C8.60371 9.92707 8.58799 9.91548 8.57227 9.90886C8.57723 9.8799 8.58302 9.8501 8.58882 9.82031Z" fill="#F26F28"/>
<path d="M11.2127 13.3452C11.1953 13.3477 11.1779 13.3526 11.1614 13.3526C10.4083 13.3526 9.6544 13.3526 8.90133 13.3526C8.8823 13.3526 8.86244 13.3535 8.8434 13.3535C8.75237 13.3287 8.66134 13.3038 8.57031 13.279C8.58935 13.279 8.60921 13.2782 8.62824 13.2782C9.44999 13.2782 10.2709 13.2782 11.0927 13.2782C11.1117 13.2782 11.1316 13.2773 11.1506 13.2773C11.1713 13.3005 11.192 13.3229 11.2127 13.3452Z" fill="#F59B25"/>
<path d="M13.5456 9.93451C13.4686 9.98414 13.3925 10.0338 13.3155 10.0842C12.9837 10.0842 12.6519 10.0842 12.32 10.0834C12.3035 10.0834 12.2869 10.0768 12.2695 10.0735C12.2977 10.0214 12.3258 9.97008 12.3531 9.91797C12.3688 9.92045 12.3846 9.92624 12.4003 9.92624C12.7627 9.92707 13.126 9.92624 13.4885 9.92707C13.5084 9.92624 13.5266 9.9312 13.5456 9.93451Z" fill="#F27128"/>
<path d="M15.9286 13.1953C15.9418 13.1986 15.9542 13.2036 15.9675 13.2036C16.7329 13.2036 17.4984 13.2036 18.2639 13.2036C18.2722 13.2284 18.2804 13.2531 18.2887 13.2779C17.4984 13.2779 16.7073 13.2779 15.917 13.2779C15.9046 13.2779 15.8913 13.2721 15.8789 13.2688C15.8955 13.2441 15.912 13.2193 15.9286 13.1953Z" fill="#F59A25"/>
<path d="M9.79072 14.8008C9.86933 14.8033 9.94712 14.8091 10.0257 14.8091C12.1625 14.8099 14.2992 14.8091 16.4367 14.8099C16.4583 14.8099 16.4798 14.8148 16.5013 14.8182C16.4938 14.8264 16.4864 14.8355 16.4789 14.8438C16.4533 14.8405 16.4276 14.8347 16.402 14.8347C14.2181 14.8339 12.035 14.8347 9.85113 14.8347C9.83044 14.8347 9.80975 14.8347 9.78906 14.8347C9.78906 14.8231 9.78989 14.8124 9.79072 14.8008Z" fill="#F6AF24"/>
<path d="M8.3157 10.4641C8.32977 10.4674 8.34384 10.4732 8.35791 10.4732C8.97278 10.474 9.58764 10.4732 10.2017 10.474C10.2232 10.474 10.2422 10.4732 10.2505 10.4492C10.2447 10.4848 10.2397 10.5203 10.234 10.5567C9.56695 10.5567 8.89995 10.5567 8.23212 10.5567C8.21557 10.5567 8.19819 10.5509 8.18164 10.5476C8.22716 10.5195 8.27102 10.4914 8.3157 10.4641Z" fill="#F27828"/>
<path d="M10.5035 9.39141C10.0426 9.39141 9.58163 9.39058 9.12068 9.39058C8.99406 9.39058 8.86745 9.39058 8.74083 9.38976C8.72593 9.38976 8.71021 9.38314 8.69531 9.379C8.7069 9.34093 8.71848 9.30369 8.73007 9.26562C8.72924 9.28714 8.73752 9.29955 8.76152 9.29873C8.77145 9.29873 8.78055 9.29873 8.79048 9.29873C9.35571 9.29873 9.9201 9.29873 10.4853 9.29873C10.5044 9.29873 10.5226 9.29376 10.5416 9.29128C10.5284 9.32438 10.5159 9.35748 10.5035 9.39141Z" fill="#F16829"/>
<path d="M14.7624 12.7237C14.7426 12.7262 14.7219 12.7312 14.702 12.7312C14.0904 12.732 13.4789 12.7312 12.8665 12.732C12.8309 12.7072 12.7953 12.6823 12.7598 12.6575C12.9964 12.6575 13.2331 12.6575 13.4698 12.6575C13.5343 12.6575 13.5989 12.6584 13.6643 12.6567C13.6717 12.6567 13.6783 12.6468 13.6858 12.6418C13.7487 12.6567 13.8116 12.6708 13.8745 12.6857C13.8794 12.6873 13.8852 12.6898 13.8902 12.6898C14.0259 12.6881 14.1633 12.7055 14.2957 12.6617C14.3942 12.6286 14.4918 12.5922 14.5895 12.5558C14.6424 12.5359 14.7128 12.55 14.75 12.5905C14.7831 12.6244 14.7872 12.6732 14.7624 12.7237Z" fill="#F49326"/>
<path d="M17.5604 8.7626C17.4983 8.68315 17.4371 8.60288 17.375 8.52344C17.3907 8.52592 17.4073 8.53089 17.423 8.53089C17.6539 8.53089 17.8839 8.53089 18.1148 8.53089C18.1454 8.60785 18.1761 8.68481 18.2075 8.7626C17.9915 8.76177 17.7755 8.76177 17.5604 8.7626Z" fill="#F0602A"/>
<path d="M12.2705 10.0742C12.287 10.0775 12.3036 10.0841 12.3209 10.0841C12.6528 10.085 12.9846 10.085 13.3165 10.085C13.2602 10.1371 13.2048 10.1892 13.1485 10.2414C12.8481 10.2414 12.5485 10.2414 12.2481 10.2406C12.234 10.2406 12.2191 10.229 12.2051 10.2232C12.2266 10.1735 12.2481 10.1239 12.2705 10.0742Z" fill="#F27328"/>
<path d="M16.9551 9.84478C16.9377 9.84726 16.9212 9.85304 16.9038 9.85304C16.2592 9.85304 15.6137 9.85304 14.9691 9.85304C14.8831 9.82824 14.797 9.80426 14.7109 9.77945C15.4201 9.77945 16.1293 9.77945 16.8384 9.77863C16.855 9.77863 16.8724 9.77284 16.8889 9.76953C16.9113 9.79434 16.9336 9.81914 16.9551 9.84478Z" fill="#F26F28"/>
<path d="M12.3272 12.1861C12.2842 12.1059 12.2403 12.0256 12.1973 11.9453C12.213 11.9478 12.2295 11.9528 12.2453 11.9528C12.4281 11.9536 12.611 11.9536 12.793 11.9528C12.8063 11.9528 12.8195 11.9494 12.8328 11.947C12.8832 12.0223 12.9337 12.0984 12.9834 12.1737C12.9685 12.177 12.9527 12.1845 12.9379 12.1845C12.7343 12.1861 12.5307 12.1861 12.3272 12.1861Z" fill="#F48B26"/>
<path d="M11.2373 16.1578C10.7796 16.1578 10.322 16.1578 9.8652 16.1578C9.8561 16.1247 9.84699 16.0916 9.83789 16.0586C10.3626 16.0586 10.888 16.0586 11.4127 16.0586C11.426 16.0586 11.4384 16.0636 11.4516 16.066C11.3804 16.0966 11.3084 16.1272 11.2373 16.1578Z" fill="#F8BF22"/>
<path d="M12.8344 11.9499C12.8212 11.9515 12.808 11.9557 12.7947 11.9557C12.6118 11.9557 12.4289 11.9565 12.2468 11.9557C12.2311 11.9557 12.2145 11.9507 12.1988 11.9482C12.1707 11.8737 12.1425 11.7993 12.1152 11.7248C12.3097 11.7248 12.5042 11.7248 12.6987 11.7239C12.7144 11.7239 12.7293 11.7182 12.7451 11.7148C12.7749 11.7935 12.8046 11.8721 12.8344 11.9499Z" fill="#F38927"/>
<path d="M10.2939 10.1664C9.70637 10.1664 9.11881 10.1664 8.53125 10.1656C8.53704 10.1283 8.54284 10.0919 8.5478 10.0547C8.55608 10.0638 8.56352 10.0762 8.57428 10.082C8.58173 10.0861 8.59332 10.0828 8.60242 10.0828C9.15274 10.0828 9.70388 10.0828 10.2542 10.0828C10.2732 10.0828 10.2914 10.0779 10.3105 10.0754C10.3047 10.1052 10.2997 10.1358 10.2939 10.1664Z" fill="#F27328"/>
<path d="M12.2044 10.2227C12.2185 10.2284 12.2334 10.24 12.2475 10.24C12.5479 10.2409 12.8475 10.2409 13.148 10.2409C13.1041 10.293 13.0602 10.346 13.0164 10.3981C12.7407 10.3981 12.466 10.3981 12.1904 10.3973C12.1755 10.3973 12.1614 10.3865 12.1465 10.3807C12.1663 10.3278 12.1854 10.2748 12.2044 10.2227Z" fill="#F27528"/>
<path d="M13.5472 9.93782C13.5282 9.93534 13.5099 9.92955 13.4909 9.92955C13.1284 9.92872 12.7651 9.92955 12.4026 9.92872C12.3869 9.92872 12.3712 9.92376 12.3555 9.92045C12.377 9.88734 12.3977 9.85341 12.4192 9.82031C12.4382 9.82031 12.4581 9.82114 12.4771 9.82114C12.9248 9.82114 13.3726 9.82114 13.8211 9.82114C13.7293 9.86004 13.6382 9.89893 13.5472 9.93782Z" fill="#F27028"/>
<path d="M13.6873 12.6404C13.6799 12.6453 13.6733 12.6553 13.6658 12.6553C13.6013 12.6561 13.5367 12.6561 13.4713 12.6561C13.2347 12.6561 12.998 12.6561 12.7613 12.6561C12.7009 12.604 12.6405 12.551 12.5801 12.4988C12.8209 12.4988 13.0625 12.4988 13.3034 12.4988C13.3149 12.4988 13.3274 12.4947 13.3389 12.4922C13.4035 12.5245 13.4664 12.5601 13.5326 12.5882C13.5822 12.6106 13.636 12.6238 13.6873 12.6404Z" fill="#F49226"/>
<path d="M17.13 10.0746C17.1117 10.0787 17.0944 10.0854 17.0762 10.0854C16.5284 10.0862 15.9798 10.0862 15.432 10.0862C15.3931 10.0614 15.3533 10.0374 15.3145 10.0125C15.8159 10.0125 16.3182 10.0117 16.8196 10.0117C16.9065 10.0117 16.9934 10.0117 17.0803 10.0117C17.0969 10.0324 17.1134 10.0531 17.13 10.0746Z" fill="#F27228"/>
<path d="M15.6633 16.3174C15.1278 16.3174 14.5932 16.3174 14.0577 16.3174C14.0329 16.2926 14.0073 16.2678 13.9824 16.243C14.556 16.243 15.1303 16.2422 15.7039 16.2422C15.6906 16.2678 15.6774 16.2926 15.6633 16.3174Z" fill="#F8C122"/>
<path d="M18.1138 8.52819C17.8829 8.52819 17.6529 8.52819 17.422 8.52819C17.4063 8.52819 17.3898 8.52323 17.374 8.52075C17.331 8.47109 17.2872 8.42144 17.2441 8.37096C17.4932 8.37096 17.7414 8.37096 17.9905 8.37013C18.007 8.37013 18.0236 8.36351 18.0401 8.35938C18.0649 8.41648 18.0898 8.47275 18.1138 8.52819Z" fill="#F05D2A"/>
<path d="M13.3382 12.4953C13.3266 12.4977 13.3142 12.5019 13.3026 12.5019C13.0618 12.5019 12.8201 12.5019 12.5793 12.5019C12.533 12.4497 12.4858 12.3976 12.4395 12.3446C12.6745 12.3446 12.9087 12.3438 13.1437 12.3438C13.2025 12.3918 13.2612 12.439 13.32 12.487C13.3258 12.4903 13.3324 12.4919 13.3382 12.4953Z" fill="#F49026"/>
<path d="M12.0312 10.968C12.0346 10.9332 12.037 10.8977 12.0404 10.8629C12.2704 10.8629 12.5013 10.8629 12.7314 10.8629C12.7487 10.8629 12.7661 10.858 12.7835 10.8555C12.7686 10.9109 12.7529 10.9663 12.738 11.0217C12.503 11.0217 12.2679 11.0209 12.0329 11.0209C12.0321 11.0027 12.0321 10.9853 12.0312 10.968Z" fill="#F37D27"/>
<path d="M12.7841 10.8537C12.7667 10.8562 12.7493 10.8611 12.732 10.8611C12.5019 10.862 12.2711 10.8611 12.041 10.8611C12.0493 10.8082 12.0567 10.7552 12.065 10.7031C12.0807 10.7064 12.0956 10.7122 12.1114 10.7122C12.3315 10.7131 12.5524 10.7122 12.7725 10.7131C12.7924 10.7131 12.813 10.718 12.8329 10.7213C12.8172 10.7652 12.8006 10.809 12.7841 10.8537Z" fill="#F27B28"/>
<path d="M14.5605 16.6571C14.8535 16.6571 15.1456 16.6562 15.4386 16.6562C15.3823 16.7232 15.3277 16.7927 15.2673 16.8572C15.2549 16.8704 15.2209 16.8729 15.2002 16.868C15.067 16.8349 14.9329 16.8026 14.8022 16.7613C14.7194 16.7348 14.6408 16.6926 14.5605 16.6571Z" fill="#F8C722"/>
<path d="M12.0332 11.0195C12.2682 11.0195 12.5032 11.0204 12.7383 11.0204C12.7292 11.0642 12.7192 11.1081 12.7101 11.1519C12.7019 11.1759 12.6828 11.1768 12.6613 11.1768C12.4519 11.1759 12.2426 11.1768 12.0332 11.1768C12.0332 11.1238 12.0332 11.0717 12.0332 11.0195Z" fill="#F37F27"/>
<path d="M17.973 9.46483C17.9341 9.38785 17.8944 9.31087 17.8555 9.23388C18.0053 9.23388 18.1542 9.23388 18.304 9.23223C18.3189 9.23223 18.333 9.22147 18.347 9.21484C18.3636 9.29514 18.3801 9.3746 18.3975 9.4549C18.3818 9.45821 18.3669 9.464 18.3512 9.464C18.2246 9.46483 18.0988 9.46483 17.973 9.46483Z" fill="#F16829"/>
<path d="M13.1442 12.3429C12.9091 12.3429 12.6749 12.3438 12.4399 12.3438C12.4026 12.2916 12.3654 12.2395 12.3281 12.1874C12.5317 12.1874 12.7361 12.1874 12.9397 12.1865C12.9546 12.1865 12.9704 12.1799 12.9853 12.1758C13.0192 12.2147 13.0523 12.2544 13.087 12.2925C13.1036 12.3107 13.1251 12.3264 13.1442 12.3429Z" fill="#F48E26"/>
<path d="M12.0322 11.0209C12.0322 11.073 12.0322 11.126 12.0322 11.1781C12.0313 11.2692 12.0247 11.2518 12.105 11.2526C12.3036 11.2534 12.5031 11.2526 12.7017 11.2526C12.7009 11.2882 12.7009 11.3246 12.7001 11.3602C12.6959 11.3751 12.6918 11.3908 12.6885 11.4049C12.6844 11.4065 12.6819 11.4082 12.6794 11.4082C12.4774 11.4082 12.2755 11.409 12.0735 11.4082C12.0628 11.4082 12.052 11.3933 12.0413 11.385C12.0106 11.2551 12.0297 11.1235 12.0255 10.9927C12.0255 10.9853 12.0289 10.977 12.0305 10.9688C12.0313 10.9861 12.0313 11.0035 12.0322 11.0209Z" fill="#F38227"/>
<path d="M16.3014 12.2422C16.3089 12.2513 16.3155 12.2629 16.3246 12.2678C16.3337 12.272 16.3461 12.2687 16.3569 12.2687C16.7996 12.2687 17.2416 12.2687 17.6844 12.2687C17.6836 12.2794 17.6827 12.291 17.6819 12.3018C17.6778 12.3142 17.6736 12.3266 17.6678 12.3431C17.6546 12.3431 17.6413 12.3431 17.6273 12.3431C17.1952 12.3431 16.7632 12.3431 16.3312 12.3423C16.3155 12.3423 16.2998 12.3307 16.2832 12.3249C16.2898 12.2968 16.2956 12.2695 16.3014 12.2422Z" fill="#F48E26"/>
<path d="M12.041 11.3842C12.0518 11.3925 12.0625 11.4074 12.0733 11.4074C12.2752 11.4082 12.4771 11.4082 12.6791 11.4074C12.6815 11.4074 12.684 11.4057 12.6882 11.404C12.6915 11.39 12.6956 11.3743 12.6997 11.3594C12.7031 11.4247 12.7072 11.4901 12.7105 11.5554C12.6948 11.5587 12.6799 11.5654 12.6642 11.5654C12.4655 11.5662 12.2678 11.5662 12.0692 11.567C12.06 11.5058 12.0509 11.4454 12.041 11.3842Z" fill="#F38427"/>
<path d="M16.3184 11.4922C16.7702 11.4922 17.2229 11.4922 17.6747 11.4922C17.678 11.5104 17.6805 11.5294 17.6838 11.5476C17.6681 11.5543 17.6524 11.5658 17.6366 11.5658C17.1997 11.5667 16.7636 11.5667 16.3266 11.5667C16.3233 11.5418 16.3208 11.517 16.3184 11.4922Z" fill="#F38527"/>
<path d="M12.0703 11.5663C12.2689 11.5663 12.4667 11.5663 12.6653 11.5646C12.681 11.5646 12.6959 11.558 12.7116 11.5547C12.7224 11.6077 12.7331 11.6598 12.7439 11.7127C12.7281 11.7161 12.7133 11.7219 12.6975 11.7219C12.5031 11.7227 12.3086 11.7227 12.1142 11.7227C12.0993 11.6705 12.0844 11.6184 12.0703 11.5663Z" fill="#F38627"/>
<path d="M17.5605 8.76255C17.7765 8.76255 17.9925 8.76255 18.2077 8.76172C18.2234 8.80806 18.24 8.8544 18.2557 8.90075C18.2416 8.90737 18.2275 8.91895 18.2127 8.91895C18.0306 8.91978 17.8494 8.91978 17.6673 8.91978C17.6317 8.86682 17.5961 8.81468 17.5605 8.76255Z" fill="#F16229"/>
<path d="M16.084 10.7868C16.5011 10.7868 16.9174 10.786 17.3345 10.786C17.3908 10.786 17.4471 10.786 17.5034 10.7852C17.5116 10.8075 17.5191 10.8291 17.5274 10.8514C17.0581 10.8514 16.588 10.8523 16.1187 10.8523C16.1072 10.8307 16.0956 10.8092 16.084 10.7868Z" fill="#F27C28"/>
<path d="M17.668 8.91747C17.85 8.91747 18.0313 8.9183 18.2133 8.91664C18.2274 8.91664 18.2415 8.90506 18.2564 8.89844C18.2729 8.9514 18.2895 9.00353 18.306 9.05649C18.2919 9.06311 18.277 9.07386 18.263 9.07469C18.0975 9.07635 17.932 9.07552 17.7673 9.07552C17.7333 9.02173 17.7002 8.9696 17.668 8.91747Z" fill="#F16429"/>
<path d="M13.8198 9.82011C13.3721 9.82011 12.9244 9.82011 12.4759 9.82011C12.4569 9.82011 12.437 9.81928 12.418 9.81928C12.4329 9.79777 12.4478 9.77625 12.4618 9.75391C12.4776 9.75639 12.4933 9.76135 12.509 9.76135C12.931 9.76218 13.3531 9.76135 13.7751 9.76218C13.8397 9.76218 13.9051 9.77294 13.9696 9.77873C13.92 9.7928 13.8703 9.80604 13.8198 9.82011Z" fill="#F16E29"/>
<path d="M17.7656 9.07373C17.9311 9.07373 18.0966 9.07373 18.2613 9.0729C18.2754 9.0729 18.2903 9.06131 18.3044 9.05469C18.3184 9.10767 18.3317 9.15983 18.3457 9.21281C18.3317 9.2186 18.3168 9.22937 18.3027 9.2302C18.1529 9.23185 18.004 9.23185 17.8542 9.23185C17.8244 9.17887 17.7946 9.12671 17.7656 9.07373Z" fill="#F16629"/>
<path d="M13.2871 12.9422C13.6637 12.9422 14.0403 12.9414 14.416 12.9414C14.2919 12.9961 14.1652 13.0391 14.0279 13.0383C13.9012 13.0375 13.7746 13.04 13.6488 13.0309C13.5246 13.0218 13.403 12.9903 13.2871 12.9422Z" fill="#F59725"/>
<path d="M18.4212 9.60156C18.4295 9.66694 18.4378 9.73231 18.4469 9.79769C18.4345 9.80431 18.4221 9.8159 18.4088 9.81672C18.3294 9.81838 18.2507 9.81838 18.1713 9.81755C18.1556 9.81755 18.1399 9.81259 18.1241 9.8101C18.0993 9.74638 18.0737 9.68266 18.0488 9.61977C18.1597 9.61977 18.2714 9.6206 18.3823 9.61894C18.3947 9.61894 18.408 9.60736 18.4212 9.60156Z" fill="#F16D29"/>
<path d="M15.2096 8.77566C14.7702 8.77566 14.33 8.77566 13.8906 8.77483C13.985 8.75577 14.0776 8.72842 14.1728 8.7193C14.517 8.68781 14.8596 8.70107 15.1988 8.76986C15.2021 8.77151 15.2055 8.774 15.2096 8.77566Z" fill="#F0612A"/>
<path d="M12.8324 10.722C12.8126 10.7195 12.7919 10.7145 12.772 10.7137C12.5519 10.7129 12.3309 10.7137 12.1108 10.7129C12.0951 10.7129 12.0802 10.7071 12.0645 10.7038C12.0702 10.6765 12.076 10.6492 12.081 10.6211C12.0967 10.6244 12.1125 10.6294 12.1273 10.6294C12.3764 10.6302 12.6255 10.6294 12.8746 10.6294C12.8606 10.6608 12.8465 10.6914 12.8324 10.722Z" fill="#F27A28"/>
<path d="M18.4201 9.60204C18.4068 9.60783 18.3936 9.61859 18.3803 9.61859C18.2694 9.62024 18.1577 9.61942 18.0468 9.61942C18.0212 9.56729 17.9964 9.51517 17.9707 9.46305C18.0965 9.46305 18.2231 9.46305 18.3489 9.46223C18.3646 9.46223 18.3795 9.45643 18.3952 9.45312C18.4035 9.50276 18.4118 9.5524 18.4201 9.60204Z" fill="#F16B29"/>
<path d="M18.123 9.81319C18.1388 9.81568 18.1545 9.82064 18.1702 9.82064C18.2497 9.82147 18.3284 9.82147 18.4078 9.81981C18.4203 9.81981 18.4327 9.8074 18.4459 9.80078C18.4517 9.86781 18.4567 9.93401 18.4625 10.001C18.4501 10.0043 18.4376 10.0101 18.4252 10.0101C18.3772 10.011 18.3292 10.0118 18.282 10.0101C18.2514 10.0093 18.2199 10.0052 18.1893 10.0027C18.1661 9.9398 18.1446 9.87691 18.123 9.81319Z" fill="#F27028"/>
<path d="M18.1895 10.0017C18.2201 10.0041 18.2515 10.0083 18.2821 10.0091C18.3301 10.0108 18.3781 10.0099 18.4253 10.0091C18.4377 10.0091 18.4501 10.0033 18.4625 10C18.465 10.0687 18.4683 10.1374 18.4708 10.2053C18.4741 10.2342 18.4601 10.2425 18.4319 10.2417C18.3756 10.24 18.3194 10.2409 18.2631 10.2409C18.2383 10.1614 18.2135 10.0811 18.1895 10.0017Z" fill="#F27328"/>
<path d="M12.7012 11.2517C12.5026 11.2517 12.3032 11.2525 12.1045 11.2517C12.0243 11.2517 12.0309 11.2682 12.0317 11.1772C12.2411 11.1772 12.4505 11.1772 12.6599 11.1772C12.6814 11.1772 12.7004 11.1763 12.7087 11.1523C12.7062 11.1854 12.7037 11.2186 12.7012 11.2517Z" fill="#F38127"/>
<path d="M18.2617 10.2426C18.318 10.2426 18.3743 10.2409 18.4306 10.2434C18.4587 10.2443 18.472 10.236 18.4695 10.207C18.4728 10.2492 18.4778 10.2914 18.4786 10.3336C18.4794 10.3857 18.4513 10.423 18.4074 10.4312C18.3635 10.4395 18.3122 10.4114 18.2957 10.365C18.2816 10.3253 18.2733 10.2831 18.2617 10.2426Z" fill="#F27528"/>
</g>
<defs>
<clipPath id="grafana">
<rect width="15.8889" height="16.2034" fill="white" transform="translate(4.76758 4.33203)"/>
</clipPath>
</defs>
</svg>
