<svg width="100%" height="100%" viewBox="0 0 18 18" fill="none" xmlns="http://www.w3.org/2000/svg">
<circle cx="9" cy="9" r="9" fill="#005587"/>
<path fill-rule="evenodd" clip-rule="evenodd" d="M9.06476 16.1719C8.93813 16.1714 8.81522 16.1289 8.71549 16.0509C6.95555 14.8203 5.46647 13.242 4.34047 11.4128C4.21437 11.1999 4.28452 10.9252 4.49721 10.7988C4.7099 10.6724 4.98452 10.7428 5.11069 10.9556C6.15263 12.6402 7.52335 14.0975 9.1409 15.2398C9.34243 15.1457 9.90665 14.7692 11.3799 13.3173L11.5143 13.1874C12.4888 12.2315 13.3872 11.2003 14.2011 10.1042H11.68C10.9411 10.1176 10.9411 10.1177 10.4933 10.7405L10.3141 11.0049C10.2307 11.1255 10.0935 11.1972 9.94697 11.1977C9.81003 11.1878 9.68343 11.121 9.59765 11.0139C9.50363 10.884 9.34243 10.633 9.14988 10.3327C8.83194 9.83534 8.19606 8.84501 7.93185 8.54023C7.76446 8.80639 7.63059 9.09236 7.5333 9.39166C7.47821 9.54404 7.41545 9.69371 7.34523 9.83983C7.26984 9.99355 7.11345 10.0912 6.94222 10.0908H3.2971C3.132 10.0903 2.98056 9.9989 2.90303 9.85327C1.89547 7.94426 1.87754 5.39438 4.11655 3.99172C5.71916 3.00451 7.7848 3.21961 9.14988 4.51605C9.93702 3.83484 10.9313 3.44009 11.971 3.39574H12.0472C13.4401 3.46112 14.7002 4.24267 15.3788 5.46159C15.9111 6.45058 15.8683 7.65024 15.2669 8.5985C15.1078 8.78807 14.8254 8.81272 14.636 8.65361C14.4898 8.5308 14.4374 8.32869 14.5056 8.15037C14.9294 7.47099 14.9584 6.61641 14.5817 5.90972C14.063 4.96734 13.0979 4.35695 12.0248 4.29196C10.8291 4.42193 10.0052 4.81179 9.50363 5.48401C9.42003 5.59872 9.28714 5.66682 9.14537 5.66776C9.00442 5.66776 8.87176 5.60139 8.78715 5.48846C7.76781 4.2252 5.9663 3.92318 4.59122 4.78492C2.92989 5.82908 2.88063 7.72462 3.57472 9.23033H6.64216C6.64216 9.19004 6.6735 9.1497 6.68695 9.10491C6.89742 8.54473 7.13476 7.91285 7.6139 7.70224C7.81948 7.61261 8.05316 7.61261 8.25873 7.70224C8.54087 7.81878 8.84983 8.22208 9.89771 9.8667C9.92457 9.90255 9.94246 9.93841 9.96486 9.96976C10.3813 9.39621 10.6635 9.23487 11.68 9.23487H15.0385C15.2045 9.2362 15.3562 9.32939 15.4326 9.47685C15.5044 9.62025 15.4942 9.79094 15.4057 9.92496C14.4308 11.3325 13.3241 12.6438 12.1009 13.8416L11.9755 13.9671C10.2739 15.6476 9.52603 16.1719 9.06476 16.1719Z" fill="white"/>
</svg>
