<svg width="100%" height="100%" viewBox="0 0 80 80" fill="none" xmlns="http://www.w3.org/2000/svg">
<path fill-rule="evenodd" clip-rule="evenodd" d="M40.2878 68.8745C39.725 68.8725 39.1788 68.6834 38.7355 68.3368C30.9136 62.8676 24.2954 55.8529 19.291 47.7229C18.7306 46.7767 19.0423 45.5559 19.9876 44.9942C20.9329 44.4326 22.1534 44.7454 22.7142 45.6913C27.345 53.178 33.4371 59.655 40.6262 64.732C41.5219 64.3137 44.0295 62.6405 50.5775 56.1876L51.1746 55.61C55.5059 51.3617 59.4986 46.7787 63.116 41.9071H51.9109C48.627 41.9668 48.627 41.9668 46.6368 44.7352L45.8406 45.9103C45.4696 46.446 44.8599 46.7649 44.2088 46.7668C43.6001 46.7232 43.0374 46.4262 42.6562 45.9502C42.2384 45.3728 41.5219 44.2572 40.6661 42.9228C39.2531 40.7121 36.4269 36.3106 35.2527 34.9561C34.5087 36.139 33.9137 37.41 33.4813 38.7402C33.2365 39.4175 32.9576 40.0827 32.6455 40.7321C32.3104 41.4153 31.6153 41.8494 30.8543 41.8475H14.6538C13.92 41.8453 13.2469 41.4391 12.9023 40.7918C8.42429 32.3074 8.34463 20.9746 18.2958 14.7405C25.4185 10.3529 34.5991 11.3089 40.6661 17.0708C44.1645 14.0433 48.5835 12.2888 53.2046 12.0917H53.543C59.7336 12.3823 65.334 15.8558 68.3503 21.2732C70.7162 25.6688 70.526 31.0006 67.8528 35.2151C67.146 36.0576 65.8905 36.1671 65.0487 35.46C64.3991 34.9142 64.1663 34.0159 64.4693 33.2234C66.3529 30.2039 66.4818 26.4058 64.8077 23.2649C62.5023 19.0766 58.213 16.3637 53.4434 16.0749C48.1295 16.6525 44.4674 18.3853 42.2384 21.3729C41.8668 21.8827 41.2762 22.1854 40.6461 22.1895C40.0197 22.1895 39.43 21.8946 39.054 21.3927C34.5236 15.7782 26.5169 14.4359 20.4054 18.2658C13.0217 22.9065 12.8028 31.3311 15.8877 38.0232H29.5207C29.5207 37.8441 29.66 37.6648 29.7198 37.4658C30.6552 34.9761 31.71 32.1677 33.8396 31.2317C34.7532 30.8334 35.7918 30.8334 36.7055 31.2317C37.9594 31.7496 39.3326 33.5421 43.9898 40.8515C44.1092 41.0109 44.1887 41.1702 44.2883 41.3096C46.1392 38.7604 47.3931 38.0434 51.9109 38.0434H66.8377C67.5757 38.0493 68.2497 38.4635 68.5891 39.1188C68.9083 39.7562 68.863 40.5148 68.4697 41.1104C64.1368 47.3662 59.2184 53.1941 53.7818 58.5177L53.2245 59.0754C45.6616 66.5444 42.3379 68.8745 40.2878 68.8745Z" fill="#1E1E1E"/>
</svg>
