<svg width="100%" height="100%" viewBox="0 0 18 18" fill="none" xmlns="http://www.w3.org/2000/svg">
<circle cx="9" cy="9" r="9" fill="#005587"/>
<path fill-rule="evenodd" clip-rule="evenodd" d="M12.1451 14.4873H6.95083C6.7172 14.4873 6.52783 14.2977 6.52783 14.064C6.52783 13.8303 6.7172 13.6407 6.95083 13.6407H12.1451C12.3787 13.6407 12.5681 13.8303 12.5681 14.064C12.5681 14.2977 12.3787 14.4873 12.1451 14.4873Z" fill="white"/>
<path fill-rule="evenodd" clip-rule="evenodd" d="M5.27182 15.2998C4.90017 15.3019 4.55159 15.1195 4.34125 14.813C4.29497 14.744 4.26996 14.6631 4.26934 14.5802V14.4321C4.01115 14.3749 3.82681 14.1463 3.8252 13.8818V5.69098C3.82967 4.94897 4.4247 4.34623 5.16604 4.33224H12.7798C13.4608 4.33224 13.9895 4.81058 14.1334 5.60213C14.1356 5.62624 14.1356 5.64994 14.1334 5.67405V13.8521C14.1329 13.8982 14.1257 13.9435 14.1122 13.9875C14.0487 14.1895 13.8908 14.3474 13.6892 14.4108V14.5337C13.6885 14.6081 13.668 14.6813 13.63 14.7453C13.4247 15.0738 13.0563 15.2638 12.6698 15.2405C12.3034 15.2456 11.9645 15.0466 11.79 14.7241C11.7598 14.6653 11.7439 14.6001 11.7435 14.5337V6.99478C11.7435 6.91856 11.7054 6.86352 11.5743 6.83815H6.37155C6.28043 6.8576 6.20922 6.92915 6.18968 7.02015V14.576C6.18902 14.6314 6.17748 14.686 6.15585 14.7368C6.02271 15.0509 5.72592 15.2647 5.38601 15.2913L5.27182 15.2998ZM5.11528 14.4108C5.17214 14.4422 5.23667 14.4566 5.30142 14.4532H5.34369V6.99478C5.34164 6.96511 5.34164 6.93549 5.34369 6.90587C5.42695 6.45842 5.7766 6.10882 6.22354 6.02542H6.31235H11.6547C12.1384 6.07747 12.5186 6.46355 12.5641 6.94818C12.5661 6.96511 12.5661 6.98204 12.5641 6.99898V14.4108C12.5973 14.4257 12.6335 14.4329 12.6698 14.4321C12.7208 14.4337 12.7715 14.4236 12.8179 14.4024V14.0511C12.8179 13.8174 13.0072 13.6278 13.2409 13.6278H13.2705V5.72484C13.2281 5.50053 13.1012 5.18728 12.7671 5.17459H5.1872C5.12663 5.17669 5.06673 5.18812 5.00955 5.20845C4.80306 5.29484 4.6682 5.49671 4.66695 5.72065V13.5982H4.68807C4.92169 13.5982 5.11106 13.7878 5.11106 14.0214L5.11528 14.4108Z" fill="white"/>
<path fill-rule="evenodd" clip-rule="evenodd" d="M10.4362 9.19627H7.4753C6.93099 9.19627 6.48975 8.75478 6.48975 8.20998C6.48975 7.66523 6.93099 7.22373 7.4753 7.22373H12.1282C12.3618 7.22373 12.5512 7.41335 12.5512 7.64699C12.5512 7.88067 12.3618 8.07032 12.1282 8.07032H7.4753C7.39821 8.07032 7.33573 8.13292 7.33573 8.20998C7.33573 8.28704 7.39821 8.34968 7.4753 8.34968H10.4362C10.4734 8.35098 10.5092 8.33527 10.5335 8.30737C10.698 8.14141 10.9658 8.14015 11.1317 8.3048C11.1325 8.30569 11.1333 8.30649 11.1342 8.30737C11.2981 8.4724 11.2981 8.73911 11.1342 8.90418C10.951 9.09258 10.6989 9.19799 10.4362 9.19627Z" fill="white"/>
<path fill-rule="evenodd" clip-rule="evenodd" d="M10.3223 5.17969H7.62367C7.39005 5.17969 7.20068 4.99003 7.20068 4.75639V4.18491C7.20068 3.95132 7.39005 3.76166 7.62367 3.76166C7.8573 3.76166 8.04667 3.95132 8.04667 4.18491V4.3331H9.89931V3.94367C9.92609 3.28123 10.4481 2.74618 11.1091 2.7034C11.3427 2.67672 11.5539 2.84436 11.5807 3.07805C11.6075 3.31169 11.44 3.52331 11.2064 3.54999C11.1302 3.54999 10.7453 3.63041 10.7453 3.94787V4.76063C10.743 4.9926 10.5543 5.17969 10.3223 5.17969Z" fill="white"/>
<path fill-rule="evenodd" clip-rule="evenodd" d="M11.1554 3.5498H6.79018C6.55655 3.5498 6.36719 3.36015 6.36719 3.12647C6.36719 2.89283 6.55655 2.70317 6.79018 2.70317H11.1554C11.389 2.70317 11.5784 2.89283 11.5784 3.12647C11.5784 3.36015 11.389 3.5498 11.1554 3.5498Z" fill="white"/>
</svg>
