<svg width="100%" height="100%" viewBox="0 0 80 80" fill="none" xmlns="http://www.w3.org/2000/svg">
<path fill-rule="evenodd" clip-rule="evenodd" d="M55.3479 66.1646H30.6131C29.5006 66.1646 28.5989 65.2615 28.5989 64.1487C28.5989 63.0359 29.5006 62.133 30.6131 62.133H55.3479C56.4602 62.133 57.3621 63.0359 57.3621 64.1487C57.3621 65.2615 56.4602 66.1646 55.3479 66.1646Z" fill="black"/>
<path fill-rule="evenodd" clip-rule="evenodd" d="M22.6167 70.0341C20.847 70.0441 19.1871 69.1754 18.1854 67.7159C17.9651 67.3876 17.846 67.0024 17.843 66.6075V65.9021C16.6135 65.6298 15.7357 64.5414 15.728 63.2816V24.2779C15.7494 20.7445 18.5828 17.8743 22.113 17.8077H58.3691C61.6119 17.8077 64.1297 20.0855 64.8146 23.8548C64.8252 23.9696 64.8252 24.0824 64.8146 24.1973V63.1403C64.8121 63.36 64.778 63.5757 64.7138 63.7853C64.4116 64.7471 63.6596 65.4987 62.6996 65.801V66.3859C62.6959 66.7404 62.5987 67.0891 62.4175 67.3936C61.4398 68.9577 59.6858 69.8628 57.8452 69.752C56.1005 69.776 54.4868 68.8287 53.6557 67.2927C53.5119 67.0127 53.436 66.7022 53.4341 66.3859V30.4864C53.4341 30.1235 53.2529 29.8614 52.6285 29.7406H27.8535C27.4196 29.8332 27.0805 30.1739 26.9875 30.6073V66.5873C26.9843 66.8514 26.9294 67.1113 26.8264 67.3532C26.1924 68.8489 24.7791 69.8668 23.1605 69.9939L22.6167 70.0341ZM21.8713 65.801C22.142 65.9503 22.4493 66.0189 22.7577 66.0027H22.959V30.4864C22.9492 30.3452 22.9492 30.2041 22.959 30.0631C23.3554 27.9323 25.0204 26.2676 27.1487 25.8704H27.5716H53.0112C55.3149 26.1183 57.1252 27.9568 57.3417 30.2645C57.3515 30.3452 57.3515 30.4258 57.3417 30.5064V65.801C57.5 65.8717 57.6721 65.9061 57.8452 65.9021C58.088 65.9101 58.3294 65.8617 58.5503 65.7608V64.0879C58.5503 62.9751 59.452 62.0722 60.5645 62.0722H60.7054V24.4391C60.504 23.371 59.8997 21.8793 58.3086 21.8189H22.2138C21.9253 21.8289 21.6401 21.8833 21.3678 21.9801C20.3845 22.3915 19.7423 23.3528 19.7364 24.4192V61.9311H19.837C20.9494 61.9311 21.8512 62.834 21.8512 63.9466L21.8713 65.801Z" fill="black"/>
<path fill-rule="evenodd" clip-rule="evenodd" d="M47.21 40.9677H33.1104C30.5184 40.9677 28.4172 38.8654 28.4172 36.2711C28.4172 33.677 30.5184 31.5747 33.1104 31.5747H55.267C56.3793 31.5747 57.2811 32.4776 57.2811 33.5901C57.2811 34.7029 56.3793 35.606 55.267 35.606H33.1104C32.7432 35.606 32.4458 35.9041 32.4458 36.2711C32.4458 36.638 32.7432 36.9363 33.1104 36.9363H47.21C47.3869 36.9425 47.5575 36.8677 47.6733 36.7348C48.4566 35.9446 49.7319 35.9385 50.5218 36.7226C50.5256 36.7268 50.5296 36.7306 50.5335 36.7348C51.3144 37.5207 51.3144 38.7907 50.5335 39.5768C49.6611 40.4739 48.4608 40.9759 47.21 40.9677Z" fill="black"/>
<path fill-rule="evenodd" clip-rule="evenodd" d="M46.6664 21.8394H33.8158C32.7033 21.8394 31.8015 20.9362 31.8015 19.8237V17.1023C31.8015 15.99 32.7033 15.0869 33.8158 15.0869C34.9283 15.0869 35.83 15.99 35.83 17.1023V17.808H44.6521V15.9535C44.7796 12.7991 47.2654 10.2512 50.4129 10.0475C51.5253 9.92048 52.5309 10.7187 52.6587 11.8315C52.7866 12.9441 51.9885 13.9519 50.8762 14.0789C50.5135 14.0789 48.6806 14.4618 48.6806 15.9735V19.8439C48.6696 20.9484 47.771 21.8394 46.6664 21.8394Z" fill="black"/>
<path fill-rule="evenodd" clip-rule="evenodd" d="M50.6342 14.0786H29.8475C28.735 14.0786 27.8333 13.1755 27.8333 12.0627C27.8333 10.9501 28.735 10.047 29.8475 10.047H50.6342C51.7466 10.047 52.6485 10.9501 52.6485 12.0627C52.6485 13.1755 51.7466 14.0786 50.6342 14.0786Z" fill="black"/>
</svg>
