<svg width="100%" height="100%" viewBox="0 0 18 18" fill="none" xmlns="http://www.w3.org/2000/svg">
<circle cx="9" cy="9" r="8.5" fill="white" stroke="#E2EAEC"/>
<path d="M11.25 10C11.294 9.67 11.3269 9.34 11.3269 9C11.3269 8.66 11.294 8.33003 11.25 8H13.1071C13.1951 8.32 13.25 8.65499 13.25 9C13.25 9.345 13.1951 9.67999 13.1071 10H11.25ZM10.25 12.75C10.5618 12.2043 10.8008 11.6145 10.9671 11H12.5C12.0012 11.8111 11.2062 12.4403 10.2501 12.75H10.25ZM10.412 10H7.838C7.783 9.67 7.75 9.34 7.75 9C7.75 8.66 7.783 8.32502 7.838 8H10.412C10.4615 8.325 10.5 8.66 10.5 9C10.5 9.34 10.4615 9.66997 10.412 10ZM9.00003 13C8.56547 12.3939 8.21471 11.7222 8 11H10C9.78534 11.7222 9.43458 12.3939 8.99997 13H9.00003ZM6.7708 6.75H5.25C5.74479 5.934 6.54683 5.30477 7.5 5C7.18751 5.54566 6.95313 6.13554 6.77086 6.75H6.7708ZM5.25006 11H6.77086C6.95315 11.6145 7.18752 12.2043 7.5 12.75C6.54689 12.4403 5.74479 11.8111 5.25 11H5.25006ZM4.89286 10C4.80495 9.68 4.75 9.34501 4.75 9C4.75 8.655 4.80495 8.32001 4.89286 8H6.75C6.70604 8.33 6.67308 8.66 6.67308 9C6.67308 9.34 6.70604 9.66997 6.75 10H4.89286ZM8.99997 4.75C9.43453 5.35453 9.78529 6.02963 10 6.75H8C8.21466 6.02958 8.56542 5.35453 9.00003 4.75H8.99997ZM12.5 6.75H10.9671C10.8008 6.13554 10.5618 5.54566 10.25 5C11.2061 5.30969 12.0011 5.934 12.4999 6.75H12.5ZM9 3.75C6.09677 3.75 3.75 6.1125 3.75 9C3.75 11.8995 6.10051 14.25 9 14.25C11.8995 14.25 14.25 11.8995 14.25 9C14.25 6.10051 11.8995 3.75 9 3.75Z" fill="#E53935"/>
</svg>
