<svg width="100%" height="100%" viewBox="0 0 26 26" fill="none" xmlns="http://www.w3.org/2000/svg">
<circle cx="13" cy="13" r="12.5" fill="white" stroke="#E2EAEC"/>
<path d="M16.2498 14.4418C16.3133 13.9652 16.3609 13.4885 16.3609 12.9974C16.3609 12.5063 16.3133 12.0297 16.2498 11.553H18.9324C19.0594 12.0152 19.1387 12.4991 19.1387 12.9974C19.1387 13.4957 19.0594 13.9796 18.9324 14.4418H16.2498ZM14.8054 18.4141C15.2557 17.6259 15.601 16.7738 15.8412 15.8863H18.0554C17.3348 17.0579 16.1865 17.9667 14.8055 18.4141H14.8054ZM15.0394 14.4418H11.3214C11.2419 13.9652 11.1943 13.4885 11.1943 12.9974C11.1943 12.5063 11.2419 12.0224 11.3214 11.553H15.0394C15.1109 12.0224 15.1665 12.5063 15.1665 12.9974C15.1665 13.4885 15.1109 13.9651 15.0394 14.4418ZM12.9999 18.7752C12.3722 17.8997 11.8655 16.9295 11.5554 15.8863H14.4443C14.1342 16.9295 13.6276 17.8997 12.9998 18.7752H12.9999ZM9.77988 9.7474H7.58317C8.29786 8.56873 9.45637 7.65984 10.8332 7.21962C10.3818 8.00779 10.0432 8.85984 9.77996 9.7474H9.77988ZM7.58325 15.8863H9.77996C10.0433 16.7738 10.3818 17.6259 10.8332 18.4141C9.45646 17.9667 8.29787 17.0578 7.58317 15.8863H7.58325ZM7.0673 14.4418C6.94032 13.9796 6.86095 13.4957 6.86095 12.9974C6.86095 12.4991 6.94031 12.0152 7.0673 11.553H9.74984C9.68634 12.0296 9.63873 12.5063 9.63873 12.9974C9.63873 13.4885 9.68635 13.9651 9.74984 14.4418H7.0673ZM12.9998 6.85851C13.6275 7.73172 14.1341 8.70686 14.4443 9.7474H11.5554C11.8655 8.70678 12.3721 7.73172 12.9999 6.85851H12.9998ZM18.0554 9.7474H15.8412C15.601 8.85984 15.2558 8.00779 14.8054 7.21962C16.1864 7.66695 17.3348 8.56873 18.0553 9.7474H18.0554ZM12.9998 5.41406C8.80628 5.41406 5.4165 8.82656 5.4165 12.9974C5.4165 17.1856 8.81168 20.5807 12.9998 20.5807C17.188 20.5807 20.5832 17.1856 20.5832 12.9974C20.5832 8.80924 17.188 5.41406 12.9998 5.41406Z" fill="#E53935"/>
</svg>
