<svg width="100%" height="100%" viewBox="0 0 26 26" fill="none" xmlns="http://www.w3.org/2000/svg">
<circle cx="13" cy="13" r="12.5" fill="white" stroke="#E2EAEC"/>
<g clip-path="url(#hubspot0)">
<path d="M20.2383 13.2883C19.8522 12.6291 19.3012 12.0818 18.6395 11.7C18.1343 11.4064 17.6119 11.2199 17.0221 11.1393V9.02732C17.3082 8.9088 17.5521 8.70719 17.7223 8.44856C17.8925 8.18993 17.9812 7.88618 17.9769 7.5766C17.978 7.36753 17.9377 7.16032 17.8584 6.96686C17.7791 6.77341 17.6624 6.59753 17.5149 6.44933C17.3675 6.30113 17.1922 6.18352 16.9991 6.10328C16.8061 6.02303 16.5991 5.98172 16.39 5.98172C15.9665 5.98172 15.5603 6.14958 15.2604 6.44853C14.9604 6.74747 14.7912 7.15312 14.7898 7.5766C14.7898 8.2246 15.1337 8.77738 15.7248 9.02732V11.1274C15.2351 11.1982 14.76 11.3474 14.3177 11.5691L8.66426 7.2883C8.70393 7.13887 8.73831 6.98414 8.73831 6.82148C8.73831 5.84551 7.94749 5.05469 6.97152 5.05469C5.99556 5.05469 5.20605 5.84551 5.20605 6.82148C5.20605 7.79745 5.99688 8.58827 6.97285 8.58827C7.3061 8.58827 7.61423 8.49041 7.88005 8.33039L8.25033 8.61075L13.3219 12.2673C13.0535 12.5133 12.8035 12.7937 12.6038 13.1084C12.1992 13.7498 11.9519 14.4547 11.9519 15.2243V15.383C11.9537 15.905 12.0477 16.4225 12.2296 16.9118C12.383 17.3297 12.6078 17.7105 12.8868 18.0544L11.202 19.7431C10.7035 19.558 10.1441 19.681 9.76718 20.0579C9.51062 20.3131 9.36648 20.6609 9.3678 21.0233C9.36912 21.3856 9.51062 21.7308 9.7685 21.9886C10.0264 22.2465 10.3715 22.3893 10.7339 22.3893C11.0962 22.3893 11.444 22.2465 11.6993 21.9886C11.9545 21.7308 12.1 21.3856 12.0987 21.0233C12.0986 20.8842 12.0771 20.7459 12.0352 20.6133L13.7755 18.873C14.0136 19.0383 14.2714 19.1771 14.5492 19.2961C15.1199 19.5465 15.7363 19.6761 16.3596 19.677H16.4786C17.2086 19.677 17.8976 19.5051 18.5443 19.1546C19.209 18.7982 19.7675 18.2721 20.1629 17.6299C20.5689 16.9819 20.7911 16.2638 20.7911 15.4743V15.4346C20.7911 14.6583 20.6113 13.9429 20.2357 13.2869L20.2383 13.2883ZM18.1132 16.9409C17.641 17.4659 17.0975 17.7899 16.4839 17.7899H16.3675C16.0171 17.7899 15.6732 17.6933 15.3387 17.5161C14.9718 17.3254 14.6609 17.0423 14.4367 16.6949C14.1934 16.351 14.0612 15.9755 14.0612 15.5774V15.4584C14.0612 15.0669 14.1365 14.6953 14.3257 14.3449C14.528 13.9482 14.8017 13.6638 15.1654 13.4271C15.5291 13.1904 15.9033 13.0767 16.3292 13.0767H16.3688C16.7524 13.0767 17.1187 13.152 17.4625 13.3279C17.8108 13.5111 18.1067 13.7801 18.3221 14.1095C18.5354 14.4398 18.6672 14.816 18.7069 15.2071L18.7162 15.4544C18.7162 15.9927 18.5099 16.4912 18.0986 16.9435L18.1132 16.9409Z" fill="#F8761F"/>
</g>
<defs>
<clipPath id="hubspot0">
<rect width="17.3333" height="17.3333" fill="white" transform="translate(4.33325 5.05469)"/>
</clipPath>
</defs>
</svg>
