<svg width="100%" height="100%" viewBox="0 0 18 18" fill="none" xmlns="http://www.w3.org/2000/svg">
<circle cx="9" cy="9" r="8.5" fill="white" stroke="#E2EAEC"/>
<g clip-path="url(#hubspot0)">
<path d="M14.0112 9.20016C13.7439 8.74384 13.3624 8.36491 12.9043 8.1006C12.5546 7.89735 12.1929 7.76825 11.7846 7.71241V6.25029C11.9826 6.16823 12.1515 6.02865 12.2693 5.8496C12.3872 5.67055 12.4486 5.46027 12.4456 5.24594C12.4464 5.1012 12.4185 4.95774 12.3636 4.82382C12.3087 4.68989 12.2279 4.56812 12.1258 4.46552C12.0237 4.36292 11.9023 4.2815 11.7687 4.22595C11.635 4.17039 11.4917 4.14179 11.347 4.14179C11.0538 4.14179 10.7726 4.258 10.5649 4.46497C10.3573 4.67193 10.2401 4.95276 10.2392 5.24594C10.2392 5.69455 10.4772 6.07725 10.8865 6.25029V7.70417C10.5475 7.75322 10.2186 7.85647 9.91233 8.00996L5.99839 5.04635C6.02585 4.94289 6.04966 4.83577 6.04966 4.72316C6.04966 4.04749 5.50217 3.5 4.8265 3.5C4.15083 3.5 3.60425 4.04749 3.60425 4.72316C3.60425 5.39883 4.15174 5.94633 4.82741 5.94633C5.05813 5.94633 5.27145 5.87858 5.45547 5.7678L5.71182 5.96189L9.22293 8.49336C9.03707 8.66365 8.86403 8.85775 8.72579 9.07565C8.44563 9.51968 8.27442 10.0077 8.27442 10.5405V10.6504C8.27566 11.0117 8.34075 11.37 8.46669 11.7087C8.57289 11.9981 8.72853 12.2617 8.92171 12.4998L7.75531 13.6689C7.41015 13.5407 7.02288 13.6259 6.76195 13.8868C6.58434 14.0635 6.48454 14.3043 6.48546 14.5552C6.48637 14.806 6.58434 15.045 6.76287 15.2235C6.9414 15.402 7.18035 15.5009 7.43121 15.5009C7.68207 15.5009 7.92286 15.402 8.09956 15.2235C8.27626 15.045 8.37697 14.806 8.37605 14.5552C8.37598 14.4589 8.36116 14.3632 8.3321 14.2713L9.53696 13.0665C9.70175 13.1809 9.88028 13.2771 10.0725 13.3595C10.4677 13.5328 10.8944 13.6226 11.3259 13.6231H11.4083C11.9137 13.6231 12.3907 13.5041 12.8384 13.2615C13.2986 13.0147 13.6852 12.6505 13.959 12.2059C14.2401 11.7573 14.3939 11.2601 14.3939 10.7136V10.6861C14.3939 10.1487 14.2694 9.65335 14.0094 9.19925L14.0112 9.20016ZM12.5399 11.7289C12.2131 12.0924 11.8368 12.3167 11.412 12.3167H11.3314C11.0888 12.3167 10.8508 12.2498 10.6191 12.1271C10.3651 11.9951 10.1499 11.7991 9.99473 11.5586C9.82627 11.3206 9.73471 11.0605 9.73471 10.785V10.7026C9.73471 10.4316 9.7869 10.1743 9.91782 9.93168C10.0579 9.65702 10.2474 9.46017 10.4992 9.29629C10.751 9.13241 11.0101 9.05367 11.3049 9.05367H11.3323C11.5978 9.05367 11.8514 9.10586 12.0895 9.22763C12.3306 9.35445 12.5355 9.54068 12.6846 9.76871C12.8322 9.99738 12.9235 10.2578 12.951 10.5286L12.9574 10.6998C12.9574 11.0724 12.8146 11.4176 12.5299 11.7307L12.5399 11.7289Z" fill="#F8761F"/>
</g>
<defs>
<clipPath id="hubspot0">
<rect width="12" height="12" fill="white" transform="translate(3 3.5)"/>
</clipPath>
</defs>
</svg>
