<svg width="100%" height="100%" viewBox="0 0 26 26" fill="none" xmlns="http://www.w3.org/2000/svg">
<circle cx="13" cy="13" r="12.5" fill="white" stroke="#E2EAEC"/>
<g clip-path="url(#IBMDB20)">
<path d="M19.7215 20.2218H6.27857C6.00413 20.2218 5.77783 19.9955 5.77783 19.721V6.27808C5.77783 6.00364 6.00413 5.77734 6.27857 5.77734H19.7215C19.996 5.77734 20.2223 6.00364 20.2223 6.27808V19.721C20.2223 19.9955 19.996 20.2218 19.7215 20.2218Z" fill="#262626"/>
<path d="M20.2223 16.3609H5.77783V13.5972V9.27344H20.2223V13.6838V16.3609Z" fill="black"/>
<path d="M7.64722 7.01953V7.31324H9.73203V7.01953H7.64722ZM10.0257 7.01953V7.31324H12.9965C12.9965 7.31324 12.6931 7.01953 12.2935 7.01953H10.0257ZM13.5791 7.01953V7.31324H15.375L15.2691 7.01953H13.5791ZM16.6654 7.01953L16.5594 7.31324H18.3409V7.01953H16.6654ZM7.64722 7.58768V7.88138H9.73203V7.58768H7.64722ZM10.0257 7.59249V7.8862H13.3383C13.3383 7.8862 13.2998 7.6599 13.2324 7.59249H10.0257ZM13.5791 7.59249V7.8862H15.5724L15.4713 7.59249H13.5791ZM16.4535 7.59249L16.3524 7.8862H18.3361V7.59249H16.4535ZM8.24425 8.16064V8.45435H9.14944V8.16064H8.24425ZM10.6276 8.16064V8.45435H11.528V8.16064H10.6276ZM12.4043 8.16064V8.45435H13.3046C13.3046 8.45435 13.3624 8.30027 13.3624 8.16064H12.4043ZM14.1809 8.16064V8.45435H15.7794L15.6735 8.16064H14.1809ZM16.2561 8.16064L16.1502 8.45435H17.7583V8.16064H16.2561ZM8.24425 8.72879V9.02249H9.14944V8.72879H8.24425ZM10.6276 8.72879V9.02249H12.9339C12.9339 9.02249 13.1265 8.87324 13.1891 8.72879H10.6276ZM14.1809 8.72879V9.02249H15.0813V8.85879L15.1391 9.02249H16.7906L16.8531 8.85879V9.02249H17.7535V8.72879H16.0587L15.9672 8.97916L15.8757 8.72879H14.1809ZM8.24425 9.30175V9.59546H9.14944V9.30175H8.24425ZM10.6276 9.30175V9.59546H13.1891C13.1265 9.45101 12.9339 9.30175 12.9339 9.30175H10.6276ZM14.1809 9.30175V9.59546H15.0813V9.30175H14.1809ZM15.245 9.30175L15.3557 9.59546H16.5931L16.6991 9.30175H15.245ZM16.8531 9.30175V9.59546H17.7535V9.30175H16.8531ZM8.24425 9.8699V10.1636H9.14944V9.8699H8.24425ZM10.6276 9.8699V10.1636H11.528V9.8699H10.6276ZM12.4043 9.8699V10.1636H13.3624C13.3624 10.024 13.3046 9.8699 13.3046 9.8699H12.4043ZM14.1809 9.8699V10.1636H15.0813V9.8699H14.1809ZM15.452 9.8699L15.558 10.1636H16.3909L16.4968 9.8699H15.452ZM16.8531 9.8699V10.1636H17.7535V9.8699H16.8531ZM7.66166 10.4381V10.7318H9.74648V10.4381H7.66166ZM10.0257 10.4381V10.7318H13.2324C13.2998 10.6643 13.3383 10.4381 13.3383 10.4381H10.0257ZM13.5983 10.4381V10.7318H15.0813V10.4381H13.5983ZM15.6543 10.4381L15.765 10.7318H16.1887L16.2898 10.4381H15.6543ZM16.8531 10.4381V10.7318H18.3554V10.4381H16.8531ZM7.66166 11.011V11.3047H9.74648V11.011H7.66166ZM10.0257 11.011V11.3047H12.2887C12.6883 11.3047 12.9917 11.011 12.9917 11.011H10.0257ZM13.5983 11.011V11.3047H15.0813V11.011H13.5983ZM15.8613 11.011L15.9672 11.3047H15.9865L16.0924 11.011H15.8613ZM16.8531 11.011V11.3047H18.3554V11.011H16.8531Z" fill="white"/>
<path d="M19.6975 20.2204H6.30265C6.01376 20.2204 5.77783 19.9845 5.77783 19.6956V12.6275L20.2223 12.5938V19.6956C20.2223 19.9845 19.9864 20.2204 19.6975 20.2204Z" fill="#019934"/>
<path d="M9.52327 14.0586C9.85068 14.0586 10.1203 14.1116 10.3225 14.2223C10.5248 14.3282 10.6836 14.4823 10.7944 14.6845C10.9051 14.8867 10.9822 15.1227 11.0207 15.4067C11.0592 15.686 11.0785 16.0038 11.0785 16.3504C11.0785 16.7645 11.0544 17.1208 11.0014 17.429C10.9485 17.7323 10.8618 17.9875 10.7414 18.1849C10.6162 18.3823 10.4525 18.5316 10.2455 18.6279C10.0385 18.7241 9.77846 18.7723 9.46068 18.7723H7.9729V14.0586H9.52327ZM9.34031 18.0645C9.50883 18.0645 9.63883 18.0356 9.73994 17.9779C9.84105 17.9201 9.9229 17.8286 9.98068 17.6938C10.0385 17.559 10.0818 17.3904 10.101 17.1738C10.1203 16.9571 10.1299 16.6923 10.1299 16.3697C10.1299 16.1001 10.1203 15.869 10.1059 15.6667C10.0866 15.4645 10.0529 15.296 9.99512 15.1612C9.94216 15.0264 9.86031 14.9253 9.74957 14.8579C9.64364 14.7904 9.4992 14.7567 9.31623 14.7567H8.9166V18.0645H9.34031Z" fill="white"/>
<path d="M13.2923 14.0586C13.4849 14.0586 13.6631 14.0779 13.8268 14.1164C13.9905 14.1549 14.1349 14.2223 14.2505 14.3138C14.3708 14.4053 14.4623 14.5304 14.5249 14.6845C14.5923 14.8386 14.626 15.0264 14.626 15.2527C14.626 15.5079 14.5683 15.7245 14.4479 15.9075C14.3275 16.0904 14.1494 16.2156 13.9134 16.2782V16.2927C14.1783 16.3264 14.3853 16.4419 14.5394 16.6297C14.6934 16.8175 14.7705 17.0727 14.7705 17.3856C14.7705 17.5686 14.7464 17.7467 14.6983 17.9104C14.6501 18.079 14.5683 18.2234 14.4527 18.3486C14.3371 18.4738 14.1831 18.5749 14.0001 18.6471C13.8123 18.7241 13.5812 18.7579 13.3068 18.7579H11.7083V14.0586H13.2923ZM12.9216 15.9893C13.1864 15.9893 13.379 15.9412 13.4994 15.8497C13.6197 15.7534 13.6823 15.5945 13.6823 15.373C13.6823 15.1516 13.6294 14.9927 13.5186 14.8964C13.4079 14.8049 13.2345 14.7567 12.9986 14.7567H12.6568V15.9893H12.9216ZM13.0227 18.0645C13.249 18.0645 13.4368 18.0164 13.5764 17.9153C13.716 17.8142 13.7883 17.6264 13.7883 17.3567C13.7883 17.2219 13.769 17.1064 13.7305 17.0197C13.692 16.9282 13.6438 16.856 13.5812 16.803C13.5186 16.7501 13.4416 16.7116 13.3549 16.6875C13.2683 16.6634 13.172 16.6538 13.066 16.6538H12.6568V18.0693H13.0227V18.0645Z" fill="white"/>
<path d="M15.1572 18.7623C15.1572 18.5553 15.1765 18.3627 15.2198 18.1845C15.2632 18.0064 15.3257 17.833 15.4124 17.6693C15.4991 17.5056 15.605 17.3467 15.735 17.1927C15.865 17.0386 16.0143 16.8797 16.1876 16.7208L16.568 16.3645C16.6739 16.273 16.7557 16.1864 16.8232 16.1093C16.8857 16.0323 16.9339 15.9505 16.9724 15.8734C17.0061 15.7964 17.0302 15.7097 17.0398 15.6182C17.0494 15.5267 17.0543 15.4208 17.0543 15.3005C17.0543 14.9153 16.9002 14.7227 16.592 14.7227C16.4717 14.7227 16.3802 14.7467 16.3128 14.7949C16.2454 14.843 16.1924 14.9105 16.1539 14.9923C16.1154 15.0742 16.0913 15.1705 16.0817 15.2812C16.072 15.3919 16.0672 15.5075 16.0672 15.6279H15.1572V15.4497C15.1572 15.0164 15.2728 14.6793 15.5087 14.4482C15.7398 14.2171 16.1057 14.1016 16.6065 14.1016C17.0783 14.1016 17.4298 14.2123 17.6609 14.429C17.8872 14.6505 18.0028 14.9634 18.0028 15.3727C18.0028 15.5219 17.9883 15.6616 17.9643 15.7916C17.9402 15.9216 17.8969 16.0467 17.8391 16.1623C17.7813 16.2827 17.7091 16.3982 17.6128 16.509C17.5213 16.6197 17.4106 16.7353 17.2757 16.8556L16.7509 17.3419C16.6113 17.4671 16.5006 17.5923 16.4235 17.7127C16.3465 17.833 16.2935 17.939 16.2743 18.0256H18.0317V18.7623H15.1572Z" fill="white"/>
</g>
<defs>
<clipPath id="IBMDB20">
<rect width="14.4444" height="14.4444" fill="white" transform="translate(5.77783 5.77734)"/>
</clipPath>
</defs>
</svg>
