<svg width="100%" height="100%" viewBox="0 0 18 18" fill="none" xmlns="http://www.w3.org/2000/svg">
<circle cx="9" cy="9" r="8.5" fill="white" stroke="#E2EAEC"/>
<path d="M13.6533 14H4.34667C4.15667 14 4 13.8433 4 13.6533V4.34667C4 4.15667 4.15667 4 4.34667 4H13.6533C13.8433 4 14 4.15667 14 4.34667V13.6533C14 13.8433 13.8433 14 13.6533 14Z" fill="#262626"/>
<path d="M14 11.3266H4V9.41327V6.41992H14V9.47327V11.3266Z" fill="black"/>
<path d="M5.29407 4.85938V5.06271H6.7374V4.85938H5.29407ZM6.94073 4.85938V5.06271H8.9974C8.9974 5.06271 8.7874 4.85938 8.51073 4.85938H6.94073ZM9.40073 4.85938V5.06271H10.6441L10.5707 4.85938H9.40073ZM11.5374 4.85938L11.4641 5.06271H12.6974V4.85938H11.5374ZM5.29407 5.25271V5.45604H6.7374V5.25271H5.29407ZM6.94073 5.25604V5.45937H9.23407C9.23407 5.45937 9.2074 5.30271 9.16073 5.25604H6.94073ZM9.40073 5.25604V5.45937H10.7807L10.7107 5.25604H9.40073ZM11.3907 5.25604L11.3207 5.45937H12.6941V5.25604H11.3907ZM5.7074 5.64937V5.85271H6.33407V5.64937H5.7074ZM7.3574 5.64937V5.85271H7.98073V5.64937H7.3574ZM8.5874 5.64937V5.85271H9.21073C9.21073 5.85271 9.25073 5.74604 9.25073 5.64937H8.5874ZM9.8174 5.64937V5.85271H10.9241L10.8507 5.64937H9.8174ZM11.2541 5.64937L11.1807 5.85271H12.2941V5.64937H11.2541ZM5.7074 6.04271V6.24604H6.33407V6.04271H5.7074ZM7.3574 6.04271V6.24604H8.95407C8.95407 6.24604 9.0874 6.14271 9.13073 6.04271H7.3574ZM9.8174 6.04271V6.24604H10.4407V6.13271L10.4807 6.24604H11.6241L11.6674 6.13271V6.24604H12.2907V6.04271H11.1174L11.0541 6.21604L10.9907 6.04271H9.8174ZM5.7074 6.43937V6.64271H6.33407V6.43937H5.7074ZM7.3574 6.43937V6.64271H9.13073C9.0874 6.54271 8.95407 6.43937 8.95407 6.43937H7.3574ZM9.8174 6.43937V6.64271H10.4407V6.43937H9.8174ZM10.5541 6.43937L10.6307 6.64271H11.4874L11.5607 6.43937H10.5541ZM11.6674 6.43937V6.64271H12.2907V6.43937H11.6674ZM5.7074 6.83271V7.03604H6.33407V6.83271H5.7074ZM7.3574 6.83271V7.03604H7.98073V6.83271H7.3574ZM8.5874 6.83271V7.03604H9.25073C9.25073 6.93937 9.21073 6.83271 9.21073 6.83271H8.5874ZM9.8174 6.83271V7.03604H10.4407V6.83271H9.8174ZM10.6974 6.83271L10.7707 7.03604H11.3474L11.4207 6.83271H10.6974ZM11.6674 6.83271V7.03604H12.2907V6.83271H11.6674ZM5.30407 7.22604V7.42937H6.7474V7.22604H5.30407ZM6.94073 7.22604V7.42937H9.16073C9.2074 7.38271 9.23407 7.22604 9.23407 7.22604H6.94073ZM9.41407 7.22604V7.42937H10.4407V7.22604H9.41407ZM10.8374 7.22604L10.9141 7.42937H11.2074L11.2774 7.22604H10.8374ZM11.6674 7.22604V7.42937H12.7074V7.22604H11.6674ZM5.30407 7.62271V7.82604H6.7474V7.62271H5.30407ZM6.94073 7.62271V7.82604H8.5074C8.78407 7.82604 8.99407 7.62271 8.99407 7.62271H6.94073ZM9.41407 7.62271V7.82604H10.4407V7.62271H9.41407ZM10.9807 7.62271L11.0541 7.82604H11.0674L11.1407 7.62271H10.9807ZM11.6674 7.62271V7.82604H12.7074V7.62271H11.6674Z" fill="white"/>
<path d="M13.6367 13.9997H4.36333C4.16333 13.9997 4 13.8364 4 13.6364V8.74306L14 8.71973V13.6364C14 13.8364 13.8367 13.9997 13.6367 13.9997Z" fill="#019934"/>
<path d="M6.59311 9.7334C6.81978 9.7334 7.00644 9.77006 7.14644 9.84673C7.28644 9.92006 7.39644 10.0267 7.47311 10.1667C7.54978 10.3067 7.60311 10.4701 7.62978 10.6667C7.65644 10.8601 7.66978 11.0801 7.66978 11.3201C7.66978 11.6067 7.65311 11.8534 7.61644 12.0667C7.57978 12.2767 7.51978 12.4534 7.43644 12.5901C7.34978 12.7267 7.23644 12.8301 7.09311 12.8967C6.94978 12.9634 6.76978 12.9967 6.54978 12.9967H5.51978V9.7334H6.59311ZM6.46644 12.5067C6.58311 12.5067 6.67311 12.4867 6.74311 12.4467C6.81311 12.4067 6.86978 12.3434 6.90978 12.2501C6.94978 12.1567 6.97978 12.0401 6.99311 11.8901C7.00644 11.7401 7.01311 11.5567 7.01311 11.3334C7.01311 11.1467 7.00644 10.9867 6.99644 10.8467C6.98311 10.7067 6.95978 10.5901 6.91978 10.4967C6.88311 10.4034 6.82644 10.3334 6.74978 10.2867C6.67644 10.2401 6.57644 10.2167 6.44978 10.2167H6.17311V12.5067H6.46644Z" fill="white"/>
<path d="M9.2025 9.7334C9.33584 9.7334 9.45917 9.74673 9.5725 9.7734C9.68584 9.80007 9.78584 9.84673 9.86584 9.91007C9.94917 9.9734 10.0125 10.0601 10.0558 10.1667C10.1025 10.2734 10.1258 10.4034 10.1258 10.5601C10.1258 10.7367 10.0858 10.8867 10.0025 11.0134C9.91917 11.1401 9.79584 11.2267 9.6325 11.2701V11.2801C9.81584 11.3034 9.95917 11.3834 10.0658 11.5134C10.1725 11.6434 10.2258 11.8201 10.2258 12.0367C10.2258 12.1634 10.2092 12.2867 10.1758 12.4001C10.1425 12.5167 10.0858 12.6167 10.0058 12.7034C9.92584 12.7901 9.81917 12.8601 9.6925 12.9101C9.5625 12.9634 9.4025 12.9867 9.2125 12.9867H8.10583V9.7334H9.2025ZM8.94583 11.0701C9.12917 11.0701 9.2625 11.0367 9.34583 10.9734C9.42917 10.9067 9.4725 10.7967 9.4725 10.6434C9.4725 10.4901 9.43584 10.3801 9.35917 10.3134C9.2825 10.2501 9.1625 10.2167 8.99917 10.2167H8.7625V11.0701H8.94583ZM9.01584 12.5067C9.1725 12.5067 9.3025 12.4734 9.39917 12.4034C9.49584 12.3334 9.54583 12.2034 9.54583 12.0167C9.54583 11.9234 9.5325 11.8434 9.50584 11.7834C9.47917 11.7201 9.44584 11.6701 9.4025 11.6334C9.35917 11.5967 9.30583 11.5701 9.24583 11.5534C9.18583 11.5367 9.11917 11.5301 9.04583 11.5301H8.7625V12.5101H9.01584V12.5067Z" fill="white"/>
<path d="M10.4935 12.9903C10.4935 12.847 10.5069 12.7137 10.5369 12.5903C10.5669 12.467 10.6102 12.347 10.6702 12.2337C10.7302 12.1203 10.8035 12.0103 10.8935 11.9037C10.9835 11.797 11.0869 11.687 11.2069 11.577L11.4702 11.3303C11.5435 11.267 11.6002 11.207 11.6469 11.1537C11.6902 11.1003 11.7235 11.0437 11.7502 10.9903C11.7735 10.937 11.7902 10.877 11.7969 10.8137C11.8035 10.7503 11.8069 10.677 11.8069 10.5937C11.8069 10.327 11.7002 10.1937 11.4869 10.1937C11.4035 10.1937 11.3402 10.2103 11.2935 10.2437C11.2469 10.277 11.2102 10.3237 11.1835 10.3803C11.1569 10.437 11.1402 10.5037 11.1335 10.5803C11.1269 10.657 11.1235 10.737 11.1235 10.8203H10.4935V10.697C10.4935 10.397 10.5735 10.1637 10.7369 10.0037C10.8969 9.84367 11.1502 9.76367 11.4969 9.76367C11.8235 9.76367 12.0669 9.84034 12.2269 9.99034C12.3835 10.1437 12.4635 10.3603 12.4635 10.6437C12.4635 10.747 12.4535 10.8437 12.4369 10.9337C12.4202 11.0237 12.3902 11.1103 12.3502 11.1903C12.3102 11.2737 12.2602 11.3537 12.1935 11.4303C12.1302 11.507 12.0535 11.587 11.9602 11.6703L11.5969 12.007C11.5002 12.0937 11.4235 12.1803 11.3702 12.2637C11.3169 12.347 11.2802 12.4203 11.2669 12.4803H12.4835V12.9903H10.4935Z" fill="white"/>
</svg>
