<svg width="100%" height="100%" viewBox="0 0 45 44" fill="none" xmlns="http://www.w3.org/2000/svg">
<g clip-path="url(#insightIQ)">
<path d="M21.3444 24.4289C21.3233 24.45 21.3021 24.4571 21.2951 24.4711C20.999 24.8518 20.5973 25.0139 20.125 25.035C19.688 25.0562 19.2721 24.9786 18.8985 24.739C18.539 24.5134 18.2923 24.1892 18.1232 23.8086C17.9399 23.3927 17.8765 22.9557 17.8906 22.5046C17.9047 21.99 18.0245 21.4966 18.3346 21.0667C18.6095 20.6861 18.969 20.4394 19.4272 20.3407C19.8642 20.242 20.2942 20.2561 20.7171 20.4182C20.9426 20.5028 21.147 20.6367 21.3021 20.827C21.3374 20.8693 21.3585 20.8693 21.3726 20.8129C21.4713 20.4817 21.718 20.3336 22.0281 20.2702C22.1903 20.242 22.3524 20.235 22.5145 20.2209C22.5709 20.2138 22.6273 20.2209 22.6343 20.2984C22.6414 20.3689 22.6343 20.4182 22.5497 20.4464C22.3524 20.5169 22.2043 20.7072 22.2114 20.9187C22.2114 22.0887 22.2114 23.2588 22.2114 24.4359C22.2114 24.7249 22.2043 25.0068 22.1762 25.2958C22.148 25.5989 22.0281 25.8668 21.859 26.1205C21.6616 26.4095 21.3938 26.6139 21.0766 26.7619C20.7876 26.8888 20.4845 26.9663 20.1743 26.9875C19.6668 27.0298 19.1805 26.9452 18.7082 26.776C18.68 26.769 18.6448 26.7196 18.6448 26.6914C18.6377 26.4518 18.6448 26.2051 18.6448 25.9654C18.6448 25.902 18.68 25.895 18.7364 25.9161C18.8844 25.9725 19.0324 26.0289 19.1875 26.0782C19.4554 26.1628 19.7303 26.191 20.0052 26.1769C20.2519 26.1628 20.4986 26.1205 20.7241 26.0077C21.0343 25.8527 21.2387 25.613 21.2951 25.2747C21.3374 25.0209 21.3374 24.7531 21.3585 24.4923C21.3585 24.4711 21.3515 24.457 21.3444 24.4289ZM21.3726 22.6526C21.3797 22.413 21.3656 22.1804 21.2951 21.9548C21.2246 21.7222 21.1189 21.5037 20.9215 21.3486C20.6607 21.1372 20.3505 21.0808 20.0263 21.0878C19.5118 21.0949 19.0888 21.398 18.9338 21.8843C18.7575 22.4412 18.7716 22.9909 19.0184 23.5266C19.1241 23.7592 19.2932 23.9355 19.5118 24.0623C19.7444 24.1963 19.9911 24.2244 20.2519 24.2103C20.7453 24.1822 21.1118 23.8791 21.2598 23.428C21.3444 23.1742 21.3867 22.9134 21.3726 22.6526Z" fill="black"/>
<path d="M39.7622 21.8635C39.7763 22.2088 39.7058 22.5472 39.6071 22.8785C39.5719 22.9842 39.5225 23.0829 39.4732 23.1886C39.4309 23.2802 39.4027 23.2802 39.3252 23.2238C39.2053 23.1322 39.0925 23.0406 38.9798 22.9419C38.8952 22.8785 38.8177 22.808 38.7331 22.7445C38.6837 22.7093 38.6767 22.667 38.6908 22.6106C38.7824 22.3146 38.8317 22.0044 38.8106 21.6943C38.7895 21.3489 38.7119 21.0247 38.5639 20.7145C38.4018 20.3903 38.1833 20.1154 37.9013 19.8969C37.6969 19.7348 37.4643 19.622 37.2176 19.5374C36.8018 19.4035 36.3788 19.3894 35.9489 19.474C35.6951 19.5233 35.4625 19.622 35.2511 19.7559C34.8845 19.9815 34.6026 20.2846 34.4123 20.6723C34.2784 20.9401 34.1938 21.222 34.1656 21.5181C34.1374 21.8 34.1444 22.089 34.2008 22.3639C34.2784 22.7375 34.4193 23.0758 34.6519 23.3789C34.948 23.7736 35.3286 24.0415 35.7868 24.2036C35.9207 24.2529 36.0687 24.2882 36.2097 24.2882C36.4493 24.2952 36.689 24.2811 36.9216 24.267C37.0132 24.26 37.0837 24.2529 37.1612 24.3164C37.3515 24.4714 37.5489 24.6195 37.7392 24.7675C37.8238 24.838 37.8238 24.8662 37.7181 24.9084C37.0907 25.1551 36.4564 25.2115 35.7938 25.0776C35.2793 24.9719 34.8282 24.7534 34.4193 24.4291C34.1515 24.2177 33.933 23.9639 33.7497 23.6749C33.5805 23.4141 33.4537 23.1322 33.355 22.8362C33.2704 22.5683 33.2352 22.3005 33.214 22.0256C33.1858 21.6168 33.2281 21.222 33.3409 20.8273C33.4748 20.3762 33.7004 19.9744 34.0176 19.622C34.3418 19.2625 34.7224 18.9876 35.1735 18.8044C35.6669 18.6 36.1885 18.5154 36.7172 18.5718C36.9709 18.6 37.2176 18.6352 37.4643 18.6987C37.7392 18.7691 37.993 18.889 38.2326 19.044C38.4088 19.1568 38.585 19.2766 38.7401 19.4247C38.9516 19.6291 39.1419 19.8476 39.2899 20.1013C39.4873 20.4256 39.6282 20.7709 39.6917 21.1445C39.734 21.3771 39.7481 21.6168 39.7763 21.8564C39.7763 21.8635 39.7692 21.8635 39.7622 21.8635Z" fill="black"/>
<path d="M24.2479 21.1356C24.2832 21.1075 24.3043 21.0934 24.3114 21.0722C24.5158 20.7832 24.7836 20.5718 25.1149 20.4308C25.418 20.3039 25.7352 20.2757 26.0594 20.2969C26.2638 20.311 26.4682 20.3462 26.6585 20.4308C27.025 20.5929 27.2365 20.8889 27.3563 21.2625C27.4409 21.5445 27.4621 21.8264 27.4621 22.1154C27.4691 22.8766 27.4621 23.6379 27.4691 24.3991C27.4691 24.6317 27.5889 24.8009 27.8004 24.8855C27.885 24.9137 27.9061 24.9701 27.885 25.0406C27.8779 25.0687 27.8427 25.104 27.8145 25.104C27.5466 25.111 27.2788 25.0969 27.0321 24.9842C26.7643 24.8643 26.6303 24.6529 26.5951 24.3709C26.588 24.2934 26.588 24.2159 26.588 24.1383C26.588 23.4828 26.588 22.8344 26.588 22.1788C26.588 21.9462 26.5669 21.7207 26.4541 21.5092C26.3554 21.3189 26.1933 21.1991 25.9819 21.1709C25.425 21.0863 24.9528 21.2555 24.5933 21.6854C24.3748 21.9462 24.2409 22.2423 24.2479 22.6017C24.262 23.37 24.255 24.1383 24.255 24.9066C24.255 24.9489 24.255 24.9912 24.255 25.0335C24.262 25.111 24.2268 25.1392 24.1422 25.1392C23.9308 25.1322 23.7263 25.1392 23.5149 25.1392C23.3951 25.1392 23.381 25.1251 23.381 25.0053C23.381 24.4978 23.388 23.9974 23.381 23.4899C23.381 22.2 23.381 20.9101 23.3739 19.6202C23.3739 19.5074 23.3669 19.3946 23.3457 19.2889C23.3105 19.1198 23.1977 19.007 23.0356 18.9506C22.951 18.9224 22.9369 18.866 22.944 18.7955C22.951 18.718 23.0074 18.7109 23.0708 18.7109C23.3316 18.718 23.5924 18.725 23.8321 18.8378C24.0647 18.9435 24.2197 19.1198 24.2268 19.3806C24.2409 19.7823 24.2409 20.1841 24.2409 20.5859C24.2409 20.7409 24.2409 20.896 24.2409 21.0511C24.2338 21.0581 24.2409 21.0863 24.2479 21.1356Z" fill="black"/>
<path d="M8.29007 21.2273C8.41695 21.0864 8.52267 20.9454 8.6425 20.8256C8.93854 20.5295 9.29802 20.3533 9.71388 20.311C10.0522 20.2758 10.3905 20.2828 10.7148 20.4168C11.0108 20.5366 11.2364 20.741 11.3703 21.037C11.5254 21.3754 11.5676 21.7348 11.5676 22.0943C11.5747 22.8697 11.5817 23.652 11.5747 24.4274C11.5747 24.6177 11.7439 24.8432 11.906 24.8855C11.9624 24.8996 11.9906 24.9349 11.9976 24.9913C12.0047 25.0617 11.9835 25.104 11.8989 25.104C11.6029 25.1111 11.3139 25.0899 11.0531 24.949C10.8064 24.808 10.6866 24.5754 10.6866 24.2864C10.6866 23.6802 10.6866 23.067 10.6866 22.4608C10.6866 22.2 10.6936 21.9463 10.6231 21.6926C10.5386 21.3824 10.3412 21.2062 10.024 21.1569C9.58701 21.1005 9.19229 21.2062 8.85396 21.4881C8.61431 21.6855 8.45924 21.9463 8.36761 22.2423C8.28302 22.489 8.26188 22.7498 8.26893 23.0106C8.27598 23.6802 8.26893 24.3428 8.27598 25.0124C8.27598 25.1322 8.26893 25.1393 8.1491 25.1393C7.93765 25.1393 7.73324 25.1393 7.52178 25.1393C7.41605 25.1393 7.39491 25.1111 7.39491 25.0124C7.39491 23.7366 7.40196 22.4608 7.40196 21.1851C7.40196 20.9947 7.36671 20.8185 7.19755 20.7058C7.16231 20.6776 7.12001 20.6564 7.07772 20.6423C6.99314 20.6141 6.97199 20.5789 6.97904 20.4873C6.98609 20.4027 7.04248 20.4097 7.10592 20.4097C7.33147 20.4168 7.54998 20.4238 7.76848 20.4873C8.01518 20.5648 8.18434 20.7199 8.24073 20.9736C8.25483 21.037 8.26188 21.1005 8.26893 21.1639C8.26893 21.178 8.27598 21.1992 8.29007 21.2273Z" fill="black"/>
<path d="M14.1192 25.2488C13.7174 25.2417 13.3297 25.1854 12.9421 25.0867C12.7799 25.0514 12.6178 25.0021 12.4627 24.9527C12.4275 24.9387 12.3852 24.8893 12.3852 24.8611C12.3782 24.6497 12.3852 24.4382 12.3852 24.2267C12.3852 24.1704 12.4205 24.1563 12.4627 24.1774C12.5967 24.2197 12.7235 24.262 12.8575 24.2972C13.365 24.4382 13.8795 24.551 14.4152 24.4875C14.5421 24.4734 14.683 24.4171 14.7817 24.3395C15.0566 24.1351 15.0496 23.7615 14.7606 23.5783C14.5562 23.4443 14.3236 23.3457 14.1051 23.2399C13.8725 23.1342 13.6328 23.0355 13.4002 22.9298C13.1676 22.8241 12.9561 22.6831 12.787 22.4928C12.5473 22.232 12.4557 21.9148 12.505 21.5694C12.5262 21.4355 12.5685 21.3016 12.6178 21.1747C12.7094 20.9491 12.8857 20.78 13.0971 20.6601C13.4143 20.4769 13.7526 20.4064 14.1121 20.4064C14.6901 20.3993 15.0919 20.6883 15.4231 21.1253C15.4866 21.2099 15.5571 21.2945 15.543 21.4143C15.543 21.4425 15.5289 21.4778 15.5077 21.4919C15.4936 21.4989 15.4513 21.4848 15.4372 21.4707C15.1976 21.2663 14.9086 21.1747 14.6055 21.1253C14.3941 21.0901 14.1756 21.0689 13.957 21.1253C13.802 21.1676 13.654 21.2099 13.5412 21.3368C13.3438 21.5624 13.2945 21.9148 13.6469 22.1192C13.8866 22.2531 14.1403 22.3589 14.3941 22.4646C14.7535 22.6126 15.1271 22.7465 15.4302 23.0003C15.7333 23.247 15.8813 23.5642 15.8672 23.9659C15.8531 24.3959 15.6487 24.7201 15.3033 24.9527C14.9932 25.1713 14.6337 25.2488 14.2531 25.2558C14.2178 25.2488 14.1685 25.2488 14.1192 25.2488Z" fill="black"/>
<path d="M29.4005 22.8504C29.4005 23.3579 29.4005 23.8654 29.4005 24.3729C29.4005 24.6337 29.5133 24.7958 29.76 24.8875C29.8446 24.9227 29.8235 24.9862 29.8235 25.0496C29.8235 25.113 29.7741 25.113 29.7318 25.113C29.5274 25.0919 29.323 25.0989 29.1327 25.0496C28.7309 24.9439 28.5265 24.6619 28.5265 24.2249C28.5265 23.6681 28.5265 23.1112 28.5265 22.5544C28.5265 22.1244 28.5265 21.6945 28.5265 21.2645C28.5265 21.187 28.5054 21.1588 28.4278 21.1658C28.2728 21.1729 28.1177 21.1658 27.9626 21.1658C27.8851 21.1658 27.8499 21.1376 27.8499 21.0531C27.8499 20.8909 27.8499 20.7288 27.8499 20.5738C27.8499 20.4821 27.878 20.4539 27.9767 20.4539C28.1318 20.4539 28.2869 20.4539 28.4419 20.4539C28.5124 20.4539 28.5265 20.4328 28.5265 20.3623C28.5265 20.1649 28.5265 19.9746 28.5265 19.7773C28.5265 19.5235 28.4137 19.3544 28.1811 19.2698C28.0966 19.2416 28.1036 19.1852 28.1106 19.1218C28.1177 19.0583 28.167 19.0442 28.2234 19.0442C28.4631 19.0372 28.7027 19.0583 28.9283 19.1429C29.2525 19.2698 29.3864 19.4812 29.4076 19.8055C29.4217 19.9817 29.4146 20.1579 29.4076 20.3341C29.4076 20.4187 29.4358 20.4398 29.5133 20.4398C29.7882 20.4328 30.0631 20.4398 30.331 20.4398C30.5001 20.4398 30.5001 20.4398 30.5001 20.6161C30.5001 20.7641 30.4931 20.9121 30.5001 21.0672C30.5001 21.1376 30.479 21.1588 30.4085 21.1588C30.1054 21.1588 29.8023 21.1588 29.5063 21.1588C29.4287 21.1588 29.4005 21.1799 29.4005 21.2575C29.4005 21.7861 29.4005 22.3218 29.4005 22.8504Z" fill="black"/>
<path d="M31.3321 21.8189C31.3321 20.9378 31.3391 20.0638 31.325 19.1827C31.325 18.9783 31.177 18.8444 31.0008 18.7527C30.9797 18.7457 30.9515 18.7386 30.9374 18.7245C30.9233 18.7034 30.9021 18.6752 30.9092 18.654C30.9092 18.6329 30.9374 18.6118 30.9585 18.6047C30.9867 18.5977 31.022 18.5977 31.0572 18.5977C31.5647 18.5977 32.0651 18.5977 32.5726 18.5977C32.622 18.5977 32.6783 18.6047 32.6783 18.6611C32.6783 18.6893 32.6361 18.7316 32.6008 18.7457C32.3964 18.8373 32.2766 18.9783 32.2695 19.2038C32.2625 19.9721 32.2554 20.7404 32.2554 21.5087C32.2554 22.4885 32.2484 23.4682 32.2625 24.448C32.2625 24.6594 32.4105 24.7934 32.6008 24.885C32.6361 24.8991 32.6713 24.9414 32.6783 24.9766C32.6995 25.0682 32.6572 25.1035 32.5656 25.1035C32.051 25.1035 31.5365 25.1035 31.029 25.1035C30.9797 25.1035 30.9233 25.1105 30.9092 25.0401C30.9021 24.9766 30.8951 24.9061 30.9797 24.8779C31.1559 24.8215 31.2475 24.6876 31.318 24.5255C31.325 24.5044 31.3321 24.4762 31.3321 24.455C31.3321 23.581 31.3321 22.6999 31.3321 21.8189Z" fill="black"/>
<path d="M16.4311 22.6671C16.4311 22.1525 16.4311 21.638 16.4311 21.1234C16.4311 20.8697 16.3254 20.7146 16.0858 20.623C16.0153 20.5948 16.0012 20.5455 16.0082 20.475C16.0153 20.4045 16.0646 20.3974 16.121 20.4045C16.3324 20.4115 16.5439 20.4115 16.7483 20.4679C17.0584 20.5596 17.284 20.7428 17.3051 21.1516C17.3122 21.3279 17.3122 21.5041 17.3122 21.6732C17.3122 22.5684 17.3122 23.4636 17.3122 24.3587C17.3122 24.6266 17.4179 24.7887 17.6717 24.8874C17.7421 24.9156 17.7492 24.9649 17.7421 25.0213C17.7351 25.0777 17.6999 25.0988 17.6505 25.0988C17.4109 25.0988 17.1712 25.0847 16.9457 25.0001C16.6144 24.8733 16.4593 24.6266 16.4523 24.2882C16.4382 23.7667 16.4452 23.2451 16.4452 22.7235C16.4382 22.7094 16.4382 22.6882 16.4311 22.6671C16.4382 22.6671 16.4382 22.6671 16.4311 22.6671Z" fill="black"/>
<path d="M5.37181 22.702C5.37181 22.1734 5.37181 21.6447 5.37181 21.1161C5.37181 20.9328 5.28722 20.7848 5.1392 20.6791C5.11101 20.6579 5.08281 20.6438 5.04757 20.6368C4.95594 20.6086 4.91365 20.5381 4.94889 20.4465C4.95594 20.4253 4.99118 20.4042 5.01233 20.4042C5.30132 20.3971 5.59736 20.4042 5.86521 20.5381C6.10486 20.6579 6.21764 20.8623 6.23174 21.1231C6.24583 21.3205 6.23879 21.5179 6.23879 21.7152C6.23879 22.5963 6.23879 23.4703 6.23879 24.3514C6.23879 24.6122 6.33747 24.8025 6.59826 24.8871C6.66875 24.9082 6.66875 24.9717 6.6617 25.0281C6.65465 25.0563 6.61941 25.1056 6.59122 25.1056C6.28813 25.1197 5.97799 25.0985 5.71014 24.9364C5.47049 24.7955 5.37181 24.5629 5.37181 24.295C5.36476 23.7593 5.37181 23.2307 5.37181 22.702Z" fill="black"/>
<path d="M39.3743 23.9081C39.325 23.9222 39.2756 23.9434 39.2192 23.9504C39.0712 23.9716 38.9303 23.9857 38.7822 24.0139C38.747 24.0209 38.7117 24.042 38.6835 24.0632C38.6765 24.0702 38.7047 24.1196 38.7258 24.1478C38.9796 24.465 39.2404 24.7892 39.5012 25.1064C39.5646 25.1839 39.6281 25.2614 39.6845 25.3319C39.6845 25.346 39.6845 25.3531 39.6845 25.3601C39.5928 25.494 39.614 25.5363 39.4378 25.3954C39.2333 25.2333 39.0289 25.0852 38.8245 24.9231C38.5849 24.7399 38.3593 24.5495 38.1197 24.3592C37.8659 24.1619 37.6051 23.9645 37.3443 23.7601C37.2879 23.7178 37.2386 23.6755 37.1892 23.6332C37.1681 23.6191 37.154 23.5839 37.154 23.5627C37.154 23.5487 37.1963 23.5275 37.2174 23.5205C37.3866 23.4923 37.5558 23.4641 37.7249 23.4359C37.8236 23.4147 37.8377 23.3724 37.7743 23.2879C37.4994 22.9495 37.2245 22.6112 36.9566 22.2729C36.9355 22.2447 36.9143 22.2235 36.8932 22.1953C36.8157 22.1107 36.8298 22.0332 36.9355 21.9909C36.9566 21.9839 36.9989 21.9909 37.0201 22.0121C37.3655 22.287 37.7108 22.5619 38.0562 22.8367C38.4368 23.1328 38.8175 23.4288 39.1981 23.7249C39.2615 23.7742 39.325 23.8235 39.3884 23.8799C39.3743 23.894 39.3743 23.9011 39.3743 23.9081Z" fill="black"/>
<path d="M30.2748 27.0873C30.2748 27.038 30.2818 26.9957 30.2818 26.9463C30.2818 26.6996 30.2818 26.4529 30.2818 26.2062C30.2818 26.0723 30.3241 26.0371 30.4581 26.0371C30.4863 26.0371 30.5215 26.0371 30.5497 26.0371C30.6061 26.03 30.6343 26.0653 30.6413 26.1146C30.6484 26.164 30.6343 26.2133 30.5849 26.2203C30.5074 26.2344 30.5003 26.2767 30.5003 26.3402C30.5003 26.7067 30.5074 27.0662 30.5003 27.4327C30.5003 27.4679 30.4863 27.5314 30.4581 27.5455C30.3946 27.5737 30.3241 27.5807 30.2748 27.5102C30.1832 27.3833 30.0915 27.2565 29.9999 27.1225C29.866 26.9322 29.7321 26.7419 29.6052 26.5587C29.5911 26.5305 29.577 26.5093 29.5558 26.4811C29.5418 26.4882 29.5347 26.4952 29.5206 26.5023C29.5136 26.5305 29.5136 26.5587 29.5136 26.5869C29.5136 26.8547 29.5136 27.1226 29.5206 27.3904C29.5206 27.5032 29.4713 27.5525 29.3585 27.5596C29.3303 27.5596 29.3021 27.5596 29.2739 27.5596C29.2316 27.5525 29.1682 27.5807 29.1611 27.5032C29.1541 27.4397 29.147 27.3833 29.2316 27.3551C29.2598 27.3481 29.2951 27.2988 29.2951 27.2635C29.3021 26.904 29.2951 26.5516 29.3021 26.1922C29.3021 26.1428 29.3162 26.0653 29.3514 26.0441C29.4078 26.0089 29.4924 26.0159 29.5418 26.0864C29.6404 26.2274 29.7391 26.3684 29.8378 26.5023C29.9647 26.6855 30.0915 26.8688 30.2184 27.0521C30.2255 27.0662 30.2396 27.0732 30.2537 27.0803C30.2537 27.0944 30.2677 27.0944 30.2748 27.0873Z" fill="black"/>
<path d="M32.3399 26.7764C32.347 27.2205 32.0228 27.5588 31.5928 27.58C31.1487 27.6011 30.7893 27.2416 30.7822 26.8117C30.7822 26.3605 31.0924 26.0434 31.5012 26.0152C31.9523 25.9729 32.354 26.3253 32.3399 26.7764ZM31.5576 26.2196C31.2474 26.2196 31.0219 26.4663 31.0219 26.7976C31.0148 27.1148 31.2827 27.3826 31.5787 27.3685C31.8747 27.3544 32.1144 27.1289 32.1144 26.7835C32.1144 26.4663 31.8677 26.2196 31.5576 26.2196Z" fill="black"/>
<path d="M35.1666 26.7974C35.1595 27.2767 34.793 27.5939 34.356 27.5798C33.912 27.5657 33.6018 27.1921 33.6159 26.7763C33.63 26.3322 33.9825 26.0009 34.4124 26.0079C34.8353 26.022 35.1948 26.3956 35.1666 26.7974ZM34.4194 26.2194C34.0952 26.2053 33.8556 26.4379 33.8415 26.7692C33.8274 27.0864 34.067 27.3613 34.3701 27.3754C34.652 27.3825 34.9199 27.1499 34.934 26.8326C34.9551 26.4943 34.7225 26.2264 34.4194 26.2194Z" fill="black"/>
<path d="M27.6528 26.8742C27.6528 26.691 27.6528 26.5077 27.6528 26.3245C27.6528 26.2681 27.6457 26.2258 27.5752 26.2187C27.5541 26.2187 27.5259 26.1553 27.5259 26.1201C27.5259 26.0919 27.5611 26.0425 27.5823 26.0355C27.6387 26.0214 27.7091 26.0284 27.7655 26.0355C27.8431 26.0496 27.8783 26.1201 27.8783 26.2117C27.8783 26.3386 27.8783 26.4725 27.8783 26.5993C27.8783 26.6698 27.9065 26.691 27.977 26.691C28.1673 26.691 28.3576 26.691 28.5409 26.691C28.6043 26.691 28.6395 26.6698 28.6395 26.5993C28.6395 26.4584 28.6395 26.3245 28.6395 26.1835C28.6395 26.0778 28.6889 26.0284 28.7946 26.0284C28.8369 26.0284 28.8721 26.0284 28.9144 26.0284C28.9638 26.0284 28.999 26.0496 28.999 26.0989C29.0061 26.1483 29.0061 26.1976 28.9426 26.2117C28.8721 26.2258 28.858 26.2751 28.858 26.3456C28.858 26.7121 28.8651 27.0716 28.8651 27.4381C28.8651 27.5508 28.851 27.5579 28.7453 27.5579C28.6818 27.5579 28.6466 27.5227 28.6466 27.4592C28.6466 27.3042 28.6395 27.142 28.6466 26.987C28.6466 26.9095 28.6254 26.8813 28.5479 26.8813C28.3646 26.8883 28.1743 26.8883 27.9911 26.8813C27.9206 26.8813 27.8924 26.9095 27.8994 26.9729C27.8994 27.128 27.8994 27.276 27.8994 27.431C27.8994 27.5367 27.8854 27.5508 27.7937 27.5508C27.7021 27.5579 27.6668 27.5227 27.6598 27.431C27.6457 27.2478 27.6457 27.0645 27.6528 26.8742C27.6457 26.8742 27.6457 26.8742 27.6528 26.8742Z" fill="black"/>
<path d="M36.4988 27.4354C36.4635 27.4495 36.4353 27.4636 36.4071 27.4777C35.9349 27.7456 35.378 27.4495 35.3146 26.8998C35.2934 26.7024 35.3216 26.5051 35.4344 26.343C35.5824 26.1386 35.7939 26.0117 36.0547 26.0047C36.2098 25.9976 36.3578 26.0399 36.4917 26.1104C36.5411 26.1386 36.6045 26.1738 36.5763 26.2443C36.5411 26.3289 36.4776 26.35 36.3931 26.2936C36.2098 26.1809 36.0195 26.1809 35.8291 26.2655C35.6247 26.3641 35.512 26.5967 35.5331 26.8363C35.5542 27.0971 35.7446 27.3227 35.9913 27.3579C36.1675 27.3861 36.3226 27.3368 36.4565 27.231C36.5481 27.1606 36.527 27.0407 36.4212 26.9703C36.3931 26.9491 36.3719 26.8927 36.379 26.8575C36.379 26.8364 36.4283 26.8082 36.4565 26.7941C36.4847 26.78 36.5199 26.787 36.5552 26.7941C36.6609 26.8011 36.7173 26.8504 36.7173 26.9562C36.7173 27.1183 36.7173 27.2804 36.7173 27.4354C36.7173 27.4918 36.7032 27.5341 36.6398 27.5482C36.5763 27.5553 36.527 27.5412 36.5129 27.4707C36.5129 27.4636 36.5129 27.4566 36.4988 27.4354Z" fill="black"/>
<path d="M24.932 26.8676C24.932 26.6914 24.932 26.5152 24.932 26.346C24.932 26.2826 24.9179 26.2403 24.8474 26.2192C24.8192 26.2121 24.8051 26.1487 24.7981 26.1135C24.7981 26.0641 24.8263 26.043 24.8827 26.043C25.1435 26.043 25.4042 26.043 25.658 26.043C25.7919 26.043 25.8342 26.0994 25.8201 26.2333C25.806 26.3601 25.7989 26.3742 25.7003 26.3672C25.6509 26.3672 25.6227 26.346 25.6157 26.2967C25.6086 26.2403 25.5804 26.2262 25.5311 26.2262C25.4324 26.2262 25.3408 26.2262 25.2421 26.2262C25.1787 26.2262 25.1505 26.2544 25.1505 26.3108C25.1505 26.4165 25.1505 26.5223 25.1505 26.6209C25.1505 26.6985 25.2139 26.6914 25.2633 26.6914C25.369 26.6985 25.4747 26.6914 25.5734 26.6914C25.665 26.6914 25.6932 26.7337 25.6791 26.8183C25.665 26.8747 25.6368 26.8817 25.5875 26.8817C25.4677 26.8817 25.3479 26.8817 25.2351 26.8817C25.1787 26.8817 25.1505 26.9029 25.1576 26.9593C25.1576 27.065 25.1576 27.1707 25.1576 27.2694C25.1576 27.3328 25.1857 27.361 25.2492 27.354C25.3549 27.3469 25.4606 27.354 25.5593 27.354C25.6227 27.354 25.665 27.3328 25.6791 27.2764C25.7003 27.213 25.7426 27.2059 25.7989 27.213C25.8553 27.22 25.8765 27.2553 25.8835 27.3187C25.9047 27.502 25.806 27.5584 25.6509 27.5513C25.4677 27.5443 25.2844 27.5513 25.1012 27.5513C24.9532 27.5513 24.9109 27.509 24.9109 27.3681C24.932 27.2059 24.932 27.0368 24.932 26.8676Z" fill="black"/>
<path d="M37.7179 26.8535C37.7179 26.6773 37.7179 26.5011 37.7179 26.3249C37.7179 26.2685 37.7108 26.2262 37.6403 26.2262C37.591 26.2262 37.5769 26.191 37.5769 26.1487C37.5769 26.0993 37.584 26.0571 37.6403 26.05C37.6897 26.043 37.739 26.05 37.7813 26.05C37.9928 26.05 38.2113 26.05 38.4228 26.05C38.5779 26.05 38.6624 26.191 38.599 26.3319C38.5849 26.3601 38.5285 26.3742 38.4862 26.3742C38.4651 26.3742 38.4228 26.346 38.4157 26.3179C38.4016 26.2544 38.3664 26.2333 38.31 26.2333C38.2184 26.2333 38.1267 26.2333 38.028 26.2333C37.9646 26.2333 37.9294 26.2544 37.9294 26.3319C37.9294 26.4236 37.9364 26.5152 37.9294 26.5998C37.9223 26.6773 37.9646 26.7055 38.0351 26.7055C38.1408 26.7055 38.2466 26.7055 38.3452 26.7055C38.4157 26.7055 38.458 26.7196 38.458 26.8042C38.458 26.8888 38.4087 26.9029 38.3452 26.8958C38.2395 26.8958 38.1338 26.8958 38.0351 26.8888C37.9646 26.8888 37.9294 26.917 37.9294 26.9875C37.9294 27.0861 37.9294 27.1778 37.9294 27.2765C37.9294 27.3399 37.9575 27.3681 38.021 27.3681C38.1338 27.3681 38.2536 27.3681 38.3664 27.3681C38.4157 27.3681 38.451 27.354 38.458 27.3046C38.4721 27.2271 38.5356 27.2271 38.592 27.2342C38.6554 27.2412 38.6624 27.2906 38.6624 27.3399C38.6554 27.3892 38.6624 27.4527 38.6413 27.495C38.6131 27.5302 38.5497 27.5654 38.5003 27.5654C38.2889 27.5725 38.0844 27.5725 37.873 27.5654C37.7602 27.5654 37.7108 27.5161 37.7108 27.3963C37.7108 27.213 37.7108 27.0298 37.7179 26.8535Z" fill="black"/>
<path d="M26.0104 26.8239C26.0034 26.2812 26.4616 25.9146 26.955 26.0345C27.0819 26.0627 27.2017 26.105 27.2934 26.2107C27.3568 26.2812 27.3427 26.3728 27.3286 26.4504C27.3286 26.4715 27.2652 26.4926 27.2299 26.4926C27.1947 26.4856 27.1383 26.4574 27.1383 26.4363C27.1171 26.3164 27.0396 26.2741 26.9409 26.2459C26.7365 26.1895 26.5462 26.2248 26.3911 26.3728C26.236 26.5279 26.2008 26.7112 26.2501 26.9226C26.2924 27.0988 26.384 27.2328 26.5391 27.3103C26.7647 27.4231 26.9691 27.3596 27.1594 27.2398C27.2229 27.1975 27.2652 27.1834 27.3145 27.2539C27.3568 27.3173 27.3498 27.3667 27.2722 27.416C26.9691 27.6275 26.5532 27.6557 26.2642 27.4019C26.088 27.2328 25.9964 27.0213 26.0104 26.8239Z" fill="black"/>
<path d="M39.2755 27.5724C39.1205 27.5865 38.9865 27.516 38.8596 27.4314C38.8103 27.3962 38.7821 27.3468 38.8314 27.2904C38.8878 27.22 38.9231 27.2129 38.9936 27.2622C39.1205 27.3609 39.2614 27.4173 39.4236 27.3468C39.5646 27.2834 39.5857 27.1001 39.4659 27.0085C39.4024 26.9591 39.3249 26.9239 39.2544 26.8887C39.1769 26.8464 39.0852 26.8041 39.0077 26.7547C38.8737 26.6631 38.7962 26.5433 38.8173 26.3811C38.8455 26.2049 38.9583 26.0992 39.1205 26.0498C39.3249 25.9934 39.5082 26.0075 39.6703 26.1626C39.6985 26.1908 39.7267 26.2402 39.7337 26.2895C39.7478 26.3459 39.7549 26.4093 39.6773 26.4305C39.5998 26.4516 39.5505 26.4234 39.5223 26.3459C39.48 26.2472 39.3319 26.1908 39.198 26.2331C39.0993 26.2613 39.0288 26.367 39.057 26.4587C39.0852 26.5644 39.1839 26.5996 39.2685 26.649C39.3883 26.7124 39.5152 26.7618 39.621 26.8464C39.769 26.9591 39.8113 27.1213 39.7549 27.2904C39.6985 27.4667 39.5505 27.5724 39.3601 27.5865C39.3319 27.5724 39.3037 27.5724 39.2755 27.5724Z" fill="black"/>
<path d="M24.1424 26.9029C24.1424 27.0932 24.1424 27.2835 24.1424 27.4738C24.1424 27.5161 24.1424 27.5584 24.086 27.5584C24.0296 27.5584 23.9521 27.5866 23.9309 27.4949C23.9239 27.4597 23.9239 27.4174 23.9239 27.3751C23.9239 27.0297 23.9239 26.6914 23.9309 26.346C23.9309 26.2474 23.9098 26.2192 23.8041 26.2192C23.7618 26.2192 23.7195 26.2192 23.6772 26.2192C23.6208 26.2192 23.5785 26.2403 23.5715 26.3038C23.5574 26.3813 23.4939 26.3601 23.4516 26.3601C23.4305 26.3601 23.4094 26.3108 23.3882 26.2897C23.3882 26.2826 23.3882 26.2756 23.3882 26.2756C23.3741 26.0641 23.3953 26.043 23.6067 26.043C23.9168 26.043 24.2199 26.043 24.53 26.043C24.5935 26.043 24.664 26.043 24.671 26.1135C24.6851 26.191 24.671 26.2685 24.6569 26.346C24.6569 26.3601 24.5935 26.3742 24.5582 26.3672C24.5371 26.3672 24.5018 26.339 24.4948 26.3179C24.4807 26.2474 24.4384 26.2333 24.3679 26.2333C24.1142 26.2403 24.1283 26.198 24.1283 26.4659C24.1424 26.6068 24.1424 26.7549 24.1424 26.9029Z" fill="black"/>
<path d="M32.8541 26.7175C32.8541 26.8867 32.8541 27.0629 32.8541 27.2321C32.8541 27.3237 32.8893 27.3589 32.981 27.3589C33.0726 27.3589 33.1642 27.3589 33.2488 27.3589C33.3052 27.3589 33.3405 27.3448 33.3545 27.2884C33.3757 27.218 33.425 27.2039 33.4885 27.218C33.5519 27.2321 33.566 27.2814 33.559 27.3307C33.559 27.3589 33.559 27.3871 33.559 27.4153C33.5519 27.507 33.5096 27.5492 33.418 27.5563C33.1924 27.5563 32.9739 27.5563 32.7484 27.5563C32.6779 27.5563 32.6286 27.4999 32.6286 27.4083C32.6286 27.3096 32.6286 27.218 32.6286 27.1193C32.6286 26.8655 32.6286 26.6118 32.6286 26.358C32.6286 26.2875 32.6286 26.2171 32.5299 26.203C32.5087 26.203 32.4946 26.1325 32.4946 26.0972C32.4946 26.0761 32.5299 26.0549 32.551 26.0267H32.5651C32.8189 26.0126 32.8471 26.0338 32.8471 26.2875C32.8541 26.4356 32.8541 26.5765 32.8541 26.7175Z" fill="black"/>
<path d="M37.1541 27.5584C37.0977 27.5584 37.0413 27.5584 36.9849 27.5584C36.9285 27.5584 36.9074 27.5302 36.9074 27.4809C36.9074 27.4315 36.8933 27.3751 36.9638 27.3681C37.0413 27.3611 37.0554 27.3188 37.0554 27.2553C37.0554 26.9452 37.0554 26.6421 37.0625 26.332C37.0625 26.2685 37.0484 26.2192 36.9708 26.2192C36.9144 26.2192 36.9074 26.1698 36.9074 26.1276C36.9074 26.0782 36.9215 26.043 36.9779 26.043C37.0977 26.043 37.2175 26.043 37.3444 26.043C37.4078 26.043 37.4149 26.0853 37.4149 26.1346C37.4149 26.1839 37.4008 26.2262 37.3444 26.2192C37.2669 26.2192 37.2598 26.2615 37.2598 26.3249C37.2598 26.635 37.2598 26.9452 37.2598 27.2553C37.2598 27.3188 37.281 27.3611 37.3444 27.3611C37.4078 27.3611 37.4079 27.4104 37.4079 27.4597C37.4079 27.5091 37.3867 27.5514 37.3374 27.5584C37.2739 27.5584 37.2105 27.5584 37.1541 27.5584Z" fill="black"/>
<path d="M40.2694 18.9053C40.3047 18.8137 40.3399 18.7221 40.3681 18.6304C40.3963 18.5529 40.4457 18.5458 40.5161 18.5529C40.5866 18.5599 40.5937 18.6163 40.5937 18.6727C40.6007 18.8137 40.6148 18.9476 40.6219 19.0815C40.6219 19.1309 40.6219 19.1802 40.5584 19.1802C40.5373 19.1802 40.495 19.145 40.495 19.1168C40.4809 19.0392 40.4879 18.9688 40.4809 18.8912C40.4809 18.8701 40.4598 18.856 40.4457 18.8348C40.4316 18.8489 40.4034 18.863 40.3963 18.8842C40.3752 18.9476 40.354 19.0181 40.3329 19.0886C40.3188 19.1379 40.2835 19.1943 40.2272 19.1732C40.1919 19.1591 40.1567 19.1168 40.1355 19.0815C40.1003 19.004 40.0791 18.9194 40.0509 18.8348C40.0439 18.8348 40.0368 18.8348 40.0227 18.8348C40.0157 18.8912 40.0016 18.9547 39.9946 19.011C39.9875 19.0604 39.9875 19.1097 39.9734 19.152C39.9664 19.1661 39.9311 19.1873 39.91 19.1873C39.8888 19.1802 39.8677 19.152 39.8677 19.1309C39.8747 18.9688 39.8818 18.8066 39.8959 18.6445C39.8959 18.6163 39.9452 18.5811 39.9805 18.567C40.0298 18.5529 40.0932 18.5458 40.1214 18.6093C40.1496 18.6798 40.1708 18.7432 40.1919 18.8137C40.206 18.8489 40.2272 18.8842 40.2483 18.9265C40.2483 18.9124 40.2553 18.9053 40.2694 18.9053Z" fill="black"/>
<path d="M39.5013 18.9322C39.5013 18.8758 39.5013 18.8264 39.5013 18.7701C39.5084 18.6996 39.4732 18.6643 39.4027 18.6643C39.3815 18.6643 39.3604 18.6643 39.3463 18.6573C39.3251 18.6432 39.311 18.622 39.311 18.6009C39.311 18.5868 39.3392 18.5586 39.3533 18.5586C39.4943 18.5586 39.6282 18.5586 39.7692 18.5586C39.7903 18.5586 39.8115 18.5868 39.8326 18.6079C39.8115 18.6291 39.7974 18.6502 39.7692 18.6643C39.7269 18.6855 39.6635 18.6784 39.6423 18.7066C39.6212 18.7419 39.6353 18.7983 39.6353 18.8476C39.6353 18.9322 39.6353 19.0097 39.6353 19.0943C39.6353 19.1507 39.6071 19.193 39.5507 19.1859C39.5295 19.1859 39.5084 19.1295 39.5084 19.1013C39.4943 19.0379 39.5013 18.9815 39.5013 18.9322Z" fill="black"/>
</g>
<defs>
<clipPath id="insightIQ">
<rect width="36.6667" height="10.7843" fill="white" transform="translate(4.23706 18.332)"/>
</clipPath>
</defs>
</svg>
