<svg width="100%" height="100%" viewBox="0 0 18 18" fill="none" xmlns="http://www.w3.org/2000/svg">
<circle cx="9" cy="9" r="8.5" fill="white" stroke="#E2EAEC"/>
<g clip-path="url(#insightIQ0)">
<path d="M8.49843 9.9938C8.48978 10.0025 8.48113 10.0053 8.47824 10.0111C8.35713 10.1668 8.19277 10.2331 7.99957 10.2418C7.82079 10.2504 7.65067 10.2187 7.49784 10.1207C7.35078 10.0284 7.24985 9.89576 7.18065 9.74005C7.10568 9.56992 7.07972 9.39115 7.08549 9.2066C7.09126 8.99611 7.14028 8.79426 7.26715 8.61837C7.37961 8.46266 7.52667 8.36174 7.7141 8.32137C7.89288 8.281 8.06878 8.28676 8.24179 8.35309C8.33407 8.38769 8.41769 8.44247 8.48113 8.52033C8.49554 8.53763 8.5042 8.53763 8.50996 8.51456C8.55033 8.37904 8.65126 8.31848 8.77813 8.29253C8.84445 8.281 8.91077 8.27811 8.9771 8.27235C9.00016 8.26946 9.02323 8.27235 9.02612 8.30407C9.029 8.3329 9.02612 8.35309 8.99151 8.36462C8.91077 8.39345 8.85022 8.47131 8.8531 8.55781C8.8531 9.03648 8.8531 9.51514 8.8531 9.99668C8.8531 10.1149 8.85022 10.2302 8.83869 10.3485C8.82715 10.4725 8.77813 10.582 8.70893 10.6858C8.62819 10.8041 8.51861 10.8877 8.38885 10.9482C8.27063 11.0001 8.14664 11.0319 8.01976 11.0405C7.81214 11.0578 7.61318 11.0232 7.41998 10.954C7.40845 10.9511 7.39403 10.9309 7.39403 10.9194C7.39115 10.8214 7.39403 10.7204 7.39403 10.6224C7.39403 10.5965 7.40845 10.5936 7.43152 10.6022C7.49207 10.6253 7.55262 10.6484 7.61606 10.6685C7.72564 10.7031 7.8381 10.7147 7.95055 10.7089C8.05148 10.7031 8.1524 10.6858 8.24468 10.6397C8.37155 10.5763 8.45517 10.4782 8.47824 10.3398C8.49554 10.236 8.49554 10.1264 8.50419 10.0198C8.50419 10.0111 8.50131 10.0053 8.49843 9.9938ZM8.50996 9.26716C8.51285 9.16912 8.50708 9.07396 8.47824 8.98169C8.44941 8.88653 8.40615 8.79714 8.32541 8.73371C8.21872 8.6472 8.09185 8.62413 7.95921 8.62702C7.74871 8.6299 7.57569 8.75389 7.51226 8.95285C7.44017 9.18065 7.44593 9.40556 7.54686 9.62471C7.59011 9.71987 7.65932 9.79195 7.74871 9.84386C7.84386 9.89864 7.94479 9.91018 8.05148 9.90441C8.25333 9.89288 8.40327 9.76889 8.46383 9.58434C8.49843 9.48054 8.51573 9.37385 8.50996 9.26716Z" fill="black"/>
<path d="M16.033 8.94539C16.0387 9.08668 16.0099 9.22509 15.9695 9.36061C15.9551 9.40386 15.9349 9.44423 15.9147 9.48748C15.8974 9.52497 15.8859 9.52497 15.8542 9.5019C15.8052 9.46442 15.759 9.42693 15.7129 9.38656C15.6783 9.36061 15.6466 9.33178 15.612 9.30582C15.5918 9.29141 15.5889 9.27411 15.5947 9.25104C15.6321 9.12993 15.6523 9.00306 15.6437 8.87618C15.635 8.73489 15.6033 8.60225 15.5428 8.47537C15.4764 8.34273 15.387 8.23028 15.2717 8.14089C15.1881 8.07457 15.0929 8.02843 14.992 7.99383C14.8219 7.93904 14.6489 7.93327 14.473 7.96788C14.3692 7.98806 14.274 8.02843 14.1875 8.08322C14.0376 8.17549 13.9222 8.29948 13.8444 8.45807C13.7896 8.56765 13.755 8.68299 13.7434 8.80409C13.7319 8.91943 13.7348 9.03766 13.7579 9.15011C13.7896 9.30294 13.8472 9.44135 13.9424 9.56534C14.0635 9.72682 14.2192 9.83639 14.4067 9.90271C14.4614 9.92289 14.522 9.93731 14.5797 9.93731C14.6777 9.9402 14.7757 9.93443 14.8709 9.92866C14.9084 9.92578 14.9372 9.92289 14.9689 9.94885C15.0468 10.0123 15.1275 10.0728 15.2054 10.1334C15.24 10.1622 15.24 10.1738 15.1967 10.1911C14.9401 10.292 14.6806 10.3151 14.4095 10.2603C14.199 10.217 14.0145 10.1276 13.8472 9.99498C13.7377 9.90848 13.6483 9.80467 13.5733 9.68645C13.5041 9.57976 13.4522 9.46442 13.4118 9.34331C13.3772 9.23374 13.3628 9.12416 13.3542 9.01171C13.3426 8.84446 13.3599 8.68299 13.4061 8.52151C13.4609 8.33697 13.5531 8.17261 13.6829 8.02843C13.8155 7.88137 13.9712 7.76891 14.1558 7.69394C14.3576 7.61032 14.571 7.57572 14.7873 7.59879C14.8911 7.61032 14.992 7.62474 15.0929 7.65069C15.2054 7.67953 15.3092 7.72855 15.4072 7.79198C15.4793 7.83812 15.5514 7.88714 15.6148 7.94769C15.7013 8.03131 15.7792 8.1207 15.8398 8.22451C15.9205 8.35715 15.9782 8.49844 16.0041 8.65127C16.0214 8.74642 16.0272 8.84446 16.0387 8.9425C16.0387 8.94539 16.0358 8.94539 16.033 8.94539Z" fill="black"/>
<path d="M9.68631 8.6472C9.70073 8.63567 9.70938 8.6299 9.71226 8.62125C9.79588 8.50302 9.90546 8.41652 10.041 8.35885C10.165 8.30695 10.2947 8.29541 10.4274 8.30406C10.511 8.30983 10.5946 8.32425 10.6725 8.35885C10.8224 8.42517 10.9089 8.54628 10.9579 8.6991C10.9925 8.81444 11.0012 8.92978 11.0012 9.04801C11.0041 9.35943 11.0012 9.67084 11.0041 9.98226C11.0041 10.0774 11.0531 10.1466 11.1396 10.1812C11.1742 10.1928 11.1828 10.2158 11.1742 10.2447C11.1713 10.2562 11.1569 10.2706 11.1454 10.2706C11.0358 10.2735 10.9262 10.2677 10.8253 10.2216C10.7157 10.1726 10.6609 10.0861 10.6465 9.97073C10.6436 9.93901 10.6436 9.90729 10.6436 9.87557C10.6436 9.60741 10.6436 9.34213 10.6436 9.07396C10.6436 8.9788 10.635 8.88653 10.5888 8.80003C10.5485 8.72217 10.4822 8.67315 10.3956 8.66162C10.1679 8.62701 9.97466 8.69622 9.8276 8.87211C9.73821 8.9788 9.68343 9.09991 9.68631 9.24697C9.69208 9.56127 9.6892 9.87557 9.6892 10.1899C9.6892 10.2072 9.6892 10.2245 9.6892 10.2418C9.69208 10.2735 9.67766 10.285 9.64306 10.285C9.55656 10.2821 9.47294 10.285 9.38643 10.285C9.33741 10.285 9.33165 10.2793 9.33165 10.2302C9.33165 10.0226 9.33453 9.8179 9.33165 9.61029C9.33165 9.08261 9.33164 8.55493 9.32876 8.02725C9.32876 7.98111 9.32588 7.93497 9.31723 7.89172C9.30281 7.82252 9.25667 7.77638 9.19035 7.75331C9.15575 7.74178 9.14999 7.71871 9.15287 7.68988C9.15575 7.65816 9.17882 7.65527 9.20477 7.65527C9.31146 7.65816 9.41815 7.66104 9.51619 7.70718C9.61134 7.75043 9.67478 7.82252 9.67766 7.92921C9.68343 8.09357 9.68343 8.25793 9.68343 8.42229C9.68343 8.48572 9.68343 8.54916 9.68343 8.6126C9.68055 8.61548 9.68343 8.62701 9.68631 8.6472Z" fill="black"/>
<path d="M3.15806 8.68498C3.20996 8.62731 3.25322 8.56964 3.30224 8.52062C3.42334 8.39952 3.5704 8.32743 3.74053 8.31013C3.87894 8.29571 4.01734 8.29859 4.14998 8.35338C4.27109 8.4024 4.36336 8.48602 4.41815 8.60713C4.48159 8.74553 4.49889 8.89259 4.49889 9.03965C4.50177 9.35683 4.50465 9.6769 4.50177 9.99408C4.50177 10.0719 4.57097 10.1642 4.6373 10.1815C4.66036 10.1873 4.6719 10.2017 4.67478 10.2248C4.67766 10.2536 4.66901 10.2709 4.63441 10.2709C4.51331 10.2738 4.39508 10.2651 4.28839 10.2075C4.18747 10.1498 4.13845 10.0546 4.13845 9.93641C4.13845 9.68843 4.13845 9.43757 4.13845 9.18959C4.13845 9.0829 4.14133 8.9791 4.1125 8.87529C4.0779 8.74842 3.99716 8.67633 3.8674 8.65615C3.68862 8.63308 3.52715 8.67633 3.38874 8.79167C3.2907 8.87241 3.22727 8.9791 3.18978 9.1002C3.15518 9.20113 3.14653 9.30781 3.14941 9.4145C3.15229 9.68843 3.14941 9.95948 3.15229 10.2334C3.15229 10.2824 3.14941 10.2853 3.10039 10.2853C3.01389 10.2853 2.93027 10.2853 2.84376 10.2853C2.80051 10.2853 2.79186 10.2738 2.79186 10.2334C2.79186 9.7115 2.79474 9.18959 2.79474 8.66768C2.79474 8.58983 2.78032 8.51774 2.71112 8.4716C2.6967 8.46007 2.6794 8.45142 2.6621 8.44565C2.6275 8.43412 2.61885 8.4197 2.62173 8.38221C2.62461 8.34761 2.64768 8.3505 2.67363 8.3505C2.76591 8.35338 2.85529 8.35626 2.94468 8.38221C3.04561 8.41393 3.11481 8.47737 3.13788 8.58118C3.14364 8.60713 3.14653 8.63308 3.14941 8.65903C3.14941 8.6648 3.15229 8.67345 3.15806 8.68498Z" fill="black"/>
<path d="M5.54266 10.3287C5.3783 10.3258 5.2197 10.3027 5.06111 10.2624C4.99479 10.248 4.92847 10.2278 4.86503 10.2076C4.85061 10.2018 4.83331 10.1816 4.83331 10.1701C4.83043 10.0836 4.83331 9.99709 4.83331 9.91058C4.83331 9.88752 4.84773 9.88175 4.86503 9.8904C4.91982 9.9077 4.97172 9.925 5.02651 9.93942C5.23412 9.99709 5.44462 10.0432 5.66376 10.0173C5.71567 10.0115 5.77334 9.98844 5.81371 9.95672C5.92616 9.8731 5.92328 9.72027 5.80505 9.6453C5.72143 9.59051 5.62628 9.55014 5.53689 9.50689C5.44173 9.46364 5.34369 9.42327 5.24854 9.38001C5.15338 9.33676 5.06688 9.27909 4.99767 9.20123C4.89963 9.09454 4.86215 8.96478 4.88233 8.82349C4.89098 8.7687 4.90828 8.71392 4.92847 8.66201C4.96595 8.56974 5.03804 8.50054 5.12455 8.45152C5.25431 8.37654 5.39271 8.34771 5.53977 8.34771C5.77622 8.34482 5.94058 8.46305 6.0761 8.64183C6.10206 8.67643 6.13089 8.71103 6.12512 8.76005C6.12512 8.77159 6.11936 8.786 6.11071 8.79177C6.10494 8.79466 6.08764 8.78889 6.08187 8.78312C5.98383 8.6995 5.86561 8.66201 5.74162 8.64183C5.65511 8.62741 5.56572 8.61876 5.47634 8.64183C5.4129 8.65913 5.35234 8.67643 5.30621 8.72833C5.22547 8.82061 5.20529 8.96478 5.34946 9.04841C5.4475 9.10319 5.55131 9.14645 5.65511 9.1897C5.80217 9.25025 5.955 9.30504 6.07899 9.40885C6.20298 9.50977 6.26353 9.63953 6.25777 9.80389C6.252 9.97979 6.16838 10.1124 6.02709 10.2076C5.90021 10.297 5.75315 10.3287 5.59744 10.3316C5.58302 10.3287 5.56284 10.3287 5.54266 10.3287Z" fill="black"/>
<path d="M11.7942 9.34764C11.7942 9.55526 11.7942 9.76287 11.7942 9.97048C11.7942 10.0772 11.8403 10.1435 11.9412 10.181C11.9758 10.1954 11.9672 10.2213 11.9672 10.2473C11.9672 10.2732 11.947 10.2732 11.9297 10.2732C11.8461 10.2646 11.7624 10.2675 11.6846 10.2473C11.5202 10.204 11.4366 10.0887 11.4366 9.90993C11.4366 9.68213 11.4366 9.45433 11.4366 9.22654C11.4366 9.05064 11.4366 8.87475 11.4366 8.69886C11.4366 8.66714 11.428 8.6556 11.3962 8.65849C11.3328 8.66137 11.2694 8.65849 11.2059 8.65849C11.1742 8.65849 11.1598 8.64695 11.1598 8.61235C11.1598 8.54603 11.1598 8.47971 11.1598 8.41627C11.1598 8.37879 11.1713 8.36725 11.2117 8.36725C11.2751 8.36725 11.3386 8.36725 11.402 8.36725C11.4308 8.36725 11.4366 8.3586 11.4366 8.32977C11.4366 8.24903 11.4366 8.17118 11.4366 8.09044C11.4366 7.98663 11.3905 7.91743 11.2953 7.88283C11.2607 7.87129 11.2636 7.84822 11.2665 7.82227C11.2694 7.79632 11.2895 7.79055 11.3126 7.79055C11.4107 7.78767 11.5087 7.79632 11.601 7.83092C11.7336 7.88283 11.7884 7.96933 11.797 8.10197C11.8028 8.17406 11.7999 8.24615 11.797 8.31823C11.797 8.35284 11.8086 8.36149 11.8403 8.36149C11.9528 8.3586 12.0652 8.36149 12.1748 8.36149C12.244 8.36149 12.244 8.36149 12.244 8.43357C12.244 8.49413 12.2411 8.55468 12.244 8.61812C12.244 8.64695 12.2353 8.6556 12.2065 8.6556C12.0825 8.6556 11.9585 8.6556 11.8374 8.6556C11.8057 8.6556 11.7942 8.66425 11.7942 8.69597C11.7942 8.91224 11.7942 9.13138 11.7942 9.34764Z" fill="black"/>
<path d="M12.5844 8.92714C12.5844 8.5667 12.5873 8.20914 12.5815 7.84871C12.5815 7.76508 12.521 7.7103 12.4489 7.67281C12.4402 7.66993 12.4287 7.66705 12.4229 7.66128C12.4172 7.65263 12.4085 7.64109 12.4114 7.63244C12.4114 7.62379 12.4229 7.61514 12.4316 7.61226C12.4431 7.60938 12.4575 7.60938 12.4719 7.60938C12.6796 7.60938 12.8843 7.60938 13.0919 7.60938C13.1121 7.60938 13.1351 7.61226 13.1351 7.63533C13.1351 7.64686 13.1178 7.66416 13.1034 7.66993C13.0198 7.70741 12.9708 7.76508 12.9679 7.85736C12.965 8.17166 12.9621 8.48596 12.9621 8.80026C12.9621 9.20107 12.9592 9.60188 12.965 10.0027C12.965 10.0892 13.0256 10.144 13.1034 10.1815C13.1178 10.1872 13.1323 10.2045 13.1351 10.2189C13.1438 10.2564 13.1265 10.2709 13.089 10.2709C12.8785 10.2709 12.668 10.2709 12.4604 10.2709C12.4402 10.2709 12.4172 10.2737 12.4114 10.2449C12.4085 10.2189 12.4056 10.1901 12.4402 10.1786C12.5123 10.1555 12.5498 10.1007 12.5786 10.0344C12.5815 10.0258 12.5844 10.0142 12.5844 10.0056C12.5844 9.64801 12.5844 9.28758 12.5844 8.92714Z" fill="black"/>
<path d="M6.48849 9.27316C6.48849 9.06267 6.48849 8.85217 6.48849 8.64168C6.48849 8.53787 6.44524 8.47443 6.3472 8.43695C6.31837 8.42541 6.3126 8.40523 6.31548 8.3764C6.31837 8.34756 6.33855 8.34468 6.36162 8.34756C6.44812 8.35044 6.53463 8.35044 6.61825 8.37351C6.74512 8.411 6.83739 8.48597 6.84604 8.65321C6.84893 8.7253 6.84893 8.79739 6.84893 8.86659C6.84893 9.23279 6.84893 9.599 6.84893 9.9652C6.84893 10.0748 6.89218 10.1411 6.99598 10.1815C7.02482 10.193 7.0277 10.2132 7.02482 10.2363C7.02193 10.2593 7.00752 10.268 6.98733 10.268C6.88929 10.268 6.79126 10.2622 6.69899 10.2276C6.56346 10.1757 6.50003 10.0748 6.49714 9.93637C6.49138 9.72299 6.49426 9.50961 6.49426 9.29623C6.49138 9.29046 6.49138 9.28181 6.48849 9.27316C6.49138 9.27316 6.49138 9.27316 6.48849 9.27316Z" fill="black"/>
<path d="M1.9642 9.28746C1.9642 9.0712 1.9642 8.85493 1.9642 8.63867C1.9642 8.5637 1.9296 8.50314 1.86905 8.45989C1.85751 8.45124 1.84598 8.44547 1.83156 8.44259C1.79408 8.43105 1.77677 8.40222 1.79119 8.36473C1.79408 8.35608 1.80849 8.34743 1.81714 8.34743C1.93537 8.34455 2.05648 8.34743 2.16605 8.40222C2.26409 8.45124 2.31023 8.53486 2.31599 8.64155C2.32176 8.72229 2.31888 8.80303 2.31888 8.88377C2.31888 9.24421 2.31888 9.60176 2.31888 9.9622C2.31888 10.0689 2.35925 10.1467 2.46594 10.1813C2.49477 10.19 2.49477 10.216 2.49189 10.239C2.489 10.2506 2.47459 10.2707 2.46305 10.2707C2.33906 10.2765 2.21219 10.2679 2.10261 10.2015C2.00457 10.1439 1.9642 10.0487 1.9642 9.93913C1.96132 9.71999 1.9642 9.50372 1.9642 9.28746Z" fill="black"/>
<path d="M15.8744 9.78149C15.8542 9.78725 15.834 9.7959 15.8109 9.79879C15.7504 9.80744 15.6927 9.8132 15.6322 9.82474C15.6177 9.82762 15.6033 9.83627 15.5918 9.84492C15.5889 9.84781 15.6004 9.86799 15.6091 9.87952C15.7129 10.0093 15.8196 10.1419 15.9263 10.2717C15.9522 10.3034 15.9782 10.3351 16.0012 10.364C16.0012 10.3697 16.0012 10.3726 16.0012 10.3755C15.9638 10.4303 15.9724 10.4476 15.9003 10.3899C15.8167 10.3236 15.7331 10.263 15.6495 10.1967C15.5514 10.1217 15.4591 10.0439 15.3611 9.96603C15.2573 9.88529 15.1506 9.80455 15.0439 9.72093C15.0208 9.70363 15.0007 9.68633 14.9805 9.66903C14.9718 9.66326 14.9661 9.64884 14.9661 9.64019C14.9661 9.63443 14.9834 9.62578 14.992 9.62289C15.0612 9.61136 15.1304 9.59983 15.1996 9.58829C15.24 9.57964 15.2458 9.56234 15.2198 9.52774C15.1073 9.38933 14.9949 9.25092 14.8853 9.11251C14.8767 9.10098 14.868 9.09233 14.8594 9.0808C14.8276 9.04619 14.8334 9.01448 14.8767 8.99718C14.8853 8.99429 14.9026 8.99717 14.9113 9.00583C15.0526 9.11828 15.1939 9.23074 15.3351 9.34319C15.4909 9.4643 15.6466 9.58541 15.8023 9.70651C15.8282 9.7267 15.8542 9.74688 15.8801 9.76995C15.8744 9.77572 15.8744 9.7786 15.8744 9.78149Z" fill="black"/>
<path d="M12.1518 11.0807C12.1518 11.0605 12.1547 11.0432 12.1547 11.0231C12.1547 10.9221 12.1547 10.8212 12.1547 10.7203C12.1547 10.6655 12.172 10.6511 12.2267 10.6511C12.2383 10.6511 12.2527 10.6511 12.2642 10.6511C12.2873 10.6482 12.2988 10.6626 12.3017 10.6828C12.3046 10.703 12.2988 10.7232 12.2786 10.7261C12.2469 10.7318 12.244 10.7491 12.244 10.7751C12.244 10.925 12.2469 11.0721 12.244 11.222C12.244 11.2364 12.2383 11.2624 12.2267 11.2682C12.2008 11.2797 12.172 11.2826 12.1518 11.2537C12.1143 11.2018 12.0768 11.1499 12.0393 11.0951C11.9845 11.0173 11.9297 10.9394 11.8778 10.8645C11.8721 10.8529 11.8663 10.8443 11.8577 10.8327C11.8519 10.8356 11.849 10.8385 11.8432 10.8414C11.8404 10.8529 11.8404 10.8645 11.8404 10.876C11.8404 10.9856 11.8404 11.0951 11.8432 11.2047C11.8432 11.2509 11.8231 11.271 11.7769 11.2739C11.7654 11.2739 11.7538 11.2739 11.7423 11.2739C11.725 11.271 11.6991 11.2826 11.6962 11.2509C11.6933 11.2249 11.6904 11.2018 11.725 11.1903C11.7365 11.1874 11.751 11.1672 11.751 11.1528C11.7538 11.0058 11.751 10.8616 11.7538 10.7145C11.7538 10.6943 11.7596 10.6626 11.774 10.654C11.7971 10.6396 11.8317 10.6424 11.8519 10.6713C11.8923 10.7289 11.9326 10.7866 11.973 10.8414C12.0249 10.9164 12.0768 10.9913 12.1287 11.0663C12.1316 11.0721 12.1374 11.075 12.1431 11.0778C12.1431 11.0836 12.1489 11.0836 12.1518 11.0807Z" fill="black"/>
<path d="M12.9966 10.9544C12.9995 11.1361 12.8669 11.2745 12.691 11.2832C12.5093 11.2918 12.3623 11.1447 12.3594 10.9689C12.3594 10.7843 12.4862 10.6545 12.6535 10.643C12.838 10.6257 13.0024 10.7699 12.9966 10.9544ZM12.6766 10.7266C12.5497 10.7266 12.4574 10.8276 12.4574 10.9631C12.4545 11.0928 12.5641 11.2024 12.6852 11.1967C12.8063 11.1909 12.9043 11.0986 12.9043 10.9573C12.9043 10.8276 12.8034 10.7266 12.6766 10.7266Z" fill="black"/>
<path d="M14.153 10.9627C14.1501 11.1588 14.0001 11.2885 13.8214 11.2827C13.6397 11.277 13.5129 11.1241 13.5186 10.954C13.5244 10.7723 13.6686 10.6368 13.8444 10.6397C14.0174 10.6455 14.1645 10.7983 14.153 10.9627ZM13.8473 10.7262C13.7147 10.7204 13.6167 10.8156 13.6109 10.9511C13.6051 11.0809 13.7032 11.1934 13.8271 11.1991C13.9425 11.202 14.052 11.1068 14.0578 10.9771C14.0665 10.8387 13.9713 10.7291 13.8473 10.7262Z" fill="black"/>
<path d="M11.0791 10.9949C11.0791 10.9199 11.0791 10.845 11.0791 10.77C11.0791 10.7469 11.0762 10.7296 11.0474 10.7267C11.0388 10.7267 11.0272 10.7008 11.0272 10.6864C11.0272 10.6748 11.0416 10.6547 11.0503 10.6518C11.0734 10.646 11.1022 10.6489 11.1253 10.6518C11.157 10.6575 11.1714 10.6864 11.1714 10.7239C11.1714 10.7758 11.1714 10.8305 11.1714 10.8824C11.1714 10.9113 11.1829 10.9199 11.2118 10.9199C11.2896 10.9199 11.3675 10.9199 11.4424 10.9199C11.4684 10.9199 11.4828 10.9113 11.4828 10.8824C11.4828 10.8248 11.4828 10.77 11.4828 10.7123C11.4828 10.6691 11.503 10.6489 11.5462 10.6489C11.5635 10.6489 11.578 10.6489 11.5953 10.6489C11.6154 10.6489 11.6299 10.6575 11.6299 10.6777C11.6328 10.6979 11.6328 10.7181 11.6068 10.7239C11.578 10.7296 11.5722 10.7498 11.5722 10.7786C11.5722 10.9286 11.5751 11.0756 11.5751 11.2256C11.5751 11.2717 11.5693 11.2746 11.5261 11.2746C11.5001 11.2746 11.4857 11.2602 11.4857 11.2342C11.4857 11.1708 11.4828 11.1045 11.4857 11.041C11.4857 11.0093 11.477 10.9978 11.4453 10.9978C11.3704 11.0007 11.2925 11.0007 11.2175 10.9978C11.1887 10.9978 11.1772 11.0093 11.18 11.0353C11.18 11.0987 11.18 11.1592 11.18 11.2227C11.18 11.2659 11.1743 11.2717 11.1368 11.2717C11.0993 11.2746 11.0849 11.2602 11.082 11.2227C11.0762 11.1477 11.0762 11.0727 11.0791 10.9949C11.0762 10.9949 11.0762 10.9949 11.0791 10.9949Z" fill="black"/>
<path d="M14.6979 11.2243C14.6835 11.2301 14.672 11.2358 14.6604 11.2416C14.4672 11.3512 14.2394 11.2301 14.2135 11.0052C14.2048 10.9244 14.2164 10.8437 14.2625 10.7774C14.323 10.6938 14.4096 10.6419 14.5162 10.639C14.5797 10.6361 14.6402 10.6534 14.695 10.6822C14.7152 10.6938 14.7412 10.7082 14.7296 10.737C14.7152 10.7716 14.6893 10.7803 14.6547 10.7572C14.5797 10.7111 14.5018 10.7111 14.424 10.7457C14.3403 10.786 14.2942 10.8812 14.3029 10.9792C14.3115 11.0859 14.3894 11.1782 14.4903 11.1926C14.5624 11.2041 14.6258 11.1839 14.6806 11.1407C14.7181 11.1119 14.7094 11.0628 14.6662 11.034C14.6547 11.0254 14.646 11.0023 14.6489 10.9879C14.6489 10.9792 14.6691 10.9677 14.6806 10.9619C14.6921 10.9562 14.7066 10.959 14.721 10.9619C14.7642 10.9648 14.7873 10.985 14.7873 11.0282C14.7873 11.0946 14.7873 11.1609 14.7873 11.2243C14.7873 11.2474 14.7815 11.2647 14.7556 11.2704C14.7296 11.2733 14.7094 11.2675 14.7037 11.2387C14.7037 11.2358 14.7037 11.2329 14.6979 11.2243Z" fill="black"/>
<path d="M9.96616 10.9917C9.96616 10.9196 9.96616 10.8475 9.96616 10.7783C9.96616 10.7523 9.96039 10.735 9.93156 10.7264C9.92003 10.7235 9.91426 10.6975 9.91138 10.6831C9.91138 10.6629 9.92291 10.6543 9.94598 10.6543C10.0527 10.6543 10.1593 10.6543 10.2631 10.6543C10.3179 10.6543 10.3352 10.6774 10.3295 10.7321C10.3237 10.7841 10.3208 10.7898 10.2804 10.7869C10.2603 10.7869 10.2487 10.7783 10.2458 10.7581C10.243 10.735 10.2314 10.7293 10.2112 10.7293C10.1709 10.7293 10.1334 10.7293 10.093 10.7293C10.0671 10.7293 10.0555 10.7408 10.0555 10.7639C10.0555 10.8071 10.0555 10.8504 10.0555 10.8907C10.0555 10.9225 10.0815 10.9196 10.1017 10.9196C10.1449 10.9225 10.1882 10.9196 10.2285 10.9196C10.266 10.9196 10.2776 10.9369 10.2718 10.9715C10.266 10.9945 10.2545 10.9974 10.2343 10.9974C10.1853 10.9974 10.1363 10.9974 10.0901 10.9974C10.0671 10.9974 10.0555 11.0061 10.0584 11.0291C10.0584 11.0724 10.0584 11.1156 10.0584 11.156C10.0584 11.182 10.07 11.1935 10.0959 11.1906C10.1392 11.1877 10.1824 11.1906 10.2228 11.1906C10.2487 11.1906 10.266 11.182 10.2718 11.1589C10.2804 11.1329 10.2977 11.1301 10.3208 11.1329C10.3439 11.1358 10.3525 11.1502 10.3554 11.1762C10.3641 11.2512 10.3237 11.2742 10.2603 11.2713C10.1853 11.2685 10.1103 11.2713 10.0354 11.2713C9.97481 11.2713 9.95751 11.254 9.95751 11.1964C9.96616 11.1301 9.96616 11.0609 9.96616 10.9917Z" fill="black"/>
<path d="M15.1967 10.9853C15.1967 10.9132 15.1967 10.8411 15.1967 10.769C15.1967 10.7459 15.1938 10.7286 15.165 10.7286C15.1448 10.7286 15.139 10.7142 15.139 10.6969C15.139 10.6767 15.1419 10.6594 15.165 10.6566C15.1852 10.6537 15.2054 10.6566 15.2227 10.6566C15.3092 10.6566 15.3986 10.6566 15.4851 10.6566C15.5485 10.6566 15.5831 10.7142 15.5572 10.7719C15.5514 10.7834 15.5283 10.7892 15.511 10.7892C15.5024 10.7892 15.4851 10.7777 15.4822 10.7661C15.4764 10.7402 15.462 10.7315 15.4389 10.7315C15.4015 10.7315 15.364 10.7315 15.3236 10.7315C15.2976 10.7315 15.2832 10.7402 15.2832 10.7719C15.2832 10.8094 15.2861 10.8469 15.2832 10.8815C15.2803 10.9132 15.2976 10.9247 15.3265 10.9247C15.3697 10.9247 15.413 10.9247 15.4534 10.9247C15.4822 10.9247 15.4995 10.9305 15.4995 10.9651C15.4995 10.9997 15.4793 11.0055 15.4534 11.0026C15.4101 11.0026 15.3668 11.0026 15.3265 10.9997C15.2976 10.9997 15.2832 11.0112 15.2832 11.0401C15.2832 11.0804 15.2832 11.1179 15.2832 11.1583C15.2832 11.1842 15.2948 11.1958 15.3207 11.1958C15.3668 11.1958 15.4159 11.1958 15.462 11.1958C15.4822 11.1958 15.4966 11.19 15.4995 11.1698C15.5053 11.1381 15.5312 11.1381 15.5543 11.141C15.5802 11.1439 15.5831 11.1641 15.5831 11.1842C15.5802 11.2044 15.5831 11.2304 15.5745 11.2477C15.5629 11.2621 15.537 11.2765 15.5168 11.2765C15.4303 11.2794 15.3467 11.2794 15.2602 11.2765C15.214 11.2765 15.1938 11.2563 15.1938 11.2073C15.1938 11.1323 15.1938 11.0574 15.1967 10.9853Z" fill="black"/>
<path d="M10.4073 10.9739C10.4044 10.7518 10.5919 10.6019 10.7937 10.6509C10.8456 10.6624 10.8947 10.6797 10.9321 10.723C10.9581 10.7518 10.9523 10.7893 10.9466 10.821C10.9466 10.8297 10.9206 10.8383 10.9062 10.8383C10.8918 10.8355 10.8687 10.8239 10.8687 10.8153C10.8601 10.7663 10.8283 10.749 10.788 10.7374C10.7043 10.7144 10.6265 10.7288 10.563 10.7893C10.4996 10.8528 10.4852 10.9277 10.5054 11.0142C10.5227 11.0863 10.5602 11.1411 10.6236 11.1728C10.7159 11.219 10.7995 11.193 10.8774 11.144C10.9033 11.1267 10.9206 11.1209 10.9408 11.1498C10.9581 11.1757 10.9552 11.1959 10.9235 11.2161C10.7995 11.3026 10.6294 11.3141 10.5111 11.2103C10.439 11.1411 10.4016 11.0546 10.4073 10.9739Z" fill="black"/>
<path d="M15.8339 11.2808C15.7705 11.2865 15.7157 11.2577 15.6638 11.2231C15.6436 11.2087 15.6321 11.1885 15.6523 11.1654C15.6753 11.1366 15.6898 11.1337 15.7186 11.1539C15.7705 11.1943 15.8282 11.2173 15.8945 11.1885C15.9522 11.1625 15.9608 11.0876 15.9118 11.0501C15.8859 11.0299 15.8541 11.0155 15.8253 11.0011C15.7936 10.9838 15.7561 10.9665 15.7244 10.9463C15.6696 10.9088 15.6379 10.8598 15.6465 10.7934C15.658 10.7213 15.7042 10.6781 15.7705 10.6579C15.8541 10.6348 15.9291 10.6406 15.9954 10.704C16.007 10.7156 16.0185 10.7358 16.0214 10.7559C16.0272 10.779 16.03 10.805 15.9983 10.8136C15.9666 10.8223 15.9464 10.8107 15.9349 10.779C15.9176 10.7386 15.857 10.7156 15.8022 10.7329C15.7619 10.7444 15.733 10.7877 15.7446 10.8252C15.7561 10.8684 15.7965 10.8828 15.8311 10.903C15.8801 10.929 15.932 10.9492 15.9752 10.9838C16.0358 11.0299 16.0531 11.0962 16.03 11.1654C16.007 11.2375 15.9464 11.2808 15.8686 11.2865C15.857 11.2808 15.8455 11.2808 15.8339 11.2808Z" fill="black"/>
<path d="M9.64306 11.0061C9.64306 11.0839 9.64306 11.1618 9.64306 11.2396C9.64306 11.2569 9.64306 11.2742 9.62 11.2742C9.59693 11.2742 9.56521 11.2858 9.55656 11.2483C9.55368 11.2339 9.55368 11.2166 9.55368 11.1993C9.55368 11.058 9.55368 10.9196 9.55656 10.7783C9.55656 10.7379 9.54791 10.7264 9.50466 10.7264C9.48736 10.7264 9.47006 10.7264 9.45276 10.7264C9.42969 10.7264 9.41239 10.735 9.40951 10.761C9.40374 10.7927 9.37779 10.7841 9.36049 10.7841C9.35184 10.7841 9.34319 10.7639 9.33454 10.7552C9.33454 10.7523 9.33454 10.7494 9.33454 10.7494C9.32877 10.6629 9.33742 10.6543 9.42392 10.6543C9.55079 10.6543 9.67478 10.6543 9.80165 10.6543C9.8276 10.6543 9.85644 10.6543 9.85932 10.6831C9.86509 10.7148 9.85932 10.7466 9.85355 10.7783C9.85355 10.7841 9.8276 10.7898 9.81318 10.7869C9.80453 10.7869 9.79012 10.7754 9.78723 10.7667C9.78147 10.7379 9.76417 10.7321 9.73533 10.7321C9.63153 10.735 9.6373 10.7177 9.6373 10.8273C9.64306 10.885 9.64306 10.9455 9.64306 11.0061Z" fill="black"/>
<path d="M13.207 10.9304C13.207 10.9996 13.207 11.0717 13.207 11.1409C13.207 11.1784 13.2214 11.1928 13.2589 11.1928C13.2964 11.1928 13.3339 11.1928 13.3685 11.1928C13.3915 11.1928 13.406 11.1871 13.4117 11.164C13.4204 11.1352 13.4406 11.1294 13.4665 11.1352C13.4925 11.1409 13.4982 11.1611 13.4953 11.1813C13.4953 11.1928 13.4953 11.2044 13.4953 11.2159C13.4925 11.2534 13.4752 11.2707 13.4377 11.2736C13.3454 11.2736 13.256 11.2736 13.1637 11.2736C13.1349 11.2736 13.1147 11.2505 13.1147 11.213C13.1147 11.1726 13.1147 11.1352 13.1147 11.0948C13.1147 10.991 13.1147 10.8872 13.1147 10.7834C13.1147 10.7545 13.1147 10.7257 13.0744 10.7199C13.0657 10.7199 13.0599 10.6911 13.0599 10.6767C13.0599 10.668 13.0744 10.6594 13.083 10.6478H13.0888C13.1926 10.6421 13.2041 10.6507 13.2041 10.7545C13.207 10.8151 13.207 10.8728 13.207 10.9304Z" fill="black"/>
<path d="M14.966 11.2743C14.943 11.2743 14.9199 11.2743 14.8968 11.2743C14.8737 11.2743 14.8651 11.2627 14.8651 11.2425C14.8651 11.2223 14.8593 11.1993 14.8882 11.1964C14.9199 11.1935 14.9256 11.1762 14.9256 11.1503C14.9256 11.0234 14.9256 10.8994 14.9285 10.7725C14.9285 10.7466 14.9228 10.7264 14.891 10.7264C14.868 10.7264 14.8651 10.7062 14.8651 10.6889C14.8651 10.6687 14.8709 10.6543 14.8939 10.6543C14.943 10.6543 14.992 10.6543 15.0439 10.6543C15.0698 10.6543 15.0727 10.6716 15.0727 10.6918C15.0727 10.712 15.0669 10.7293 15.0439 10.7264C15.0122 10.7264 15.0093 10.7437 15.0093 10.7696C15.0093 10.8965 15.0093 11.0234 15.0093 11.1503C15.0093 11.1762 15.0179 11.1935 15.0439 11.1935C15.0698 11.1935 15.0698 11.2137 15.0698 11.2339C15.0698 11.2541 15.0612 11.2714 15.041 11.2743C15.015 11.2743 14.9891 11.2743 14.966 11.2743Z" fill="black"/>
<path d="M16.2405 7.7339C16.2549 7.69642 16.2694 7.65893 16.2809 7.62145C16.2924 7.58973 16.3126 7.58685 16.3415 7.58973C16.3703 7.59261 16.3732 7.61568 16.3732 7.63875C16.3761 7.69642 16.3818 7.75121 16.3847 7.80599C16.3847 7.82618 16.3847 7.84636 16.3588 7.84636C16.3501 7.84636 16.3328 7.83194 16.3328 7.82041C16.327 7.78869 16.3299 7.75986 16.327 7.72814C16.327 7.71949 16.3184 7.71372 16.3126 7.70507C16.3069 7.71084 16.2953 7.7166 16.2924 7.72525C16.2838 7.75121 16.2751 7.78004 16.2665 7.80887C16.2607 7.82906 16.2463 7.85213 16.2232 7.84348C16.2088 7.83771 16.1944 7.82041 16.1857 7.80599C16.1713 7.77427 16.1627 7.73967 16.1511 7.70507C16.1483 7.70507 16.1454 7.70507 16.1396 7.70507C16.1367 7.72814 16.131 7.75409 16.1281 7.77716C16.1252 7.79734 16.1252 7.81753 16.1194 7.83483C16.1165 7.84059 16.1021 7.84924 16.0935 7.84924C16.0848 7.84636 16.0762 7.83483 16.0762 7.82618C16.0791 7.75986 16.0819 7.69354 16.0877 7.62721C16.0877 7.61568 16.1079 7.60126 16.1223 7.5955C16.1425 7.58973 16.1684 7.58685 16.18 7.6128C16.1915 7.64163 16.2002 7.66758 16.2088 7.69642C16.2146 7.71084 16.2232 7.72525 16.2319 7.74255C16.2319 7.73679 16.2348 7.7339 16.2405 7.7339Z" fill="black"/>
<path d="M15.9264 7.74463C15.9264 7.72156 15.9264 7.70137 15.9264 7.6783C15.9292 7.64947 15.9148 7.63505 15.886 7.63505C15.8773 7.63505 15.8687 7.63505 15.8629 7.63217C15.8543 7.6264 15.8485 7.61775 15.8485 7.6091C15.8485 7.60333 15.86 7.5918 15.8658 7.5918C15.9235 7.5918 15.9783 7.5918 16.0359 7.5918C16.0446 7.5918 16.0532 7.60333 16.0619 7.61198C16.0532 7.62063 16.0475 7.62928 16.0359 7.63505C16.0186 7.6437 15.9927 7.64082 15.984 7.65235C15.9754 7.66677 15.9812 7.68984 15.9812 7.71002C15.9812 7.74463 15.9812 7.77635 15.9812 7.81095C15.9812 7.83402 15.9696 7.85132 15.9465 7.84844C15.9379 7.84844 15.9292 7.82537 15.9292 7.81383C15.9235 7.78788 15.9264 7.76481 15.9264 7.74463Z" fill="black"/>
</g>
<defs>
<clipPath id="insightIQ0">
<rect width="15" height="4.41176" fill="white" transform="translate(1.5 7.5)"/>
</clipPath>
</defs>
</svg>
