<svg width="100%" height="100%" viewBox="0 0 18 18" fill="none" xmlns="http://www.w3.org/2000/svg">
<circle cx="9" cy="9" r="8.5" fill="white" stroke="#E2EAEC"/>
<path d="M7.00048 9C7.00048 7.89547 7.89567 6.99984 9.00024 6.99984C10.1048 6.99984 11.0005 7.89547 11.0005 9C11.0005 10.1045 10.1048 11.0002 9.00024 11.0002C7.89567 11.0002 7.00048 10.1045 7.00048 9ZM5.91919 9C5.91919 10.7016 7.29857 12.0809 9.00024 12.0809C10.7019 12.0809 12.0813 10.7016 12.0813 9C12.0813 7.2984 10.7019 5.91907 9.00024 5.91907C7.29857 5.91907 5.91919 7.2984 5.91919 9ZM11.4832 5.79691C11.4831 6.19456 11.8053 6.51704 12.203 6.5172C12.6006 6.51736 12.9231 6.19513 12.9233 5.79749C12.9235 5.39984 12.6012 5.07736 12.2036 5.0772H12.2033C11.8058 5.07739 11.4836 5.39946 11.4832 5.79691ZM6.57614 13.8839C5.99114 13.8572 5.67318 13.7598 5.46187 13.6775C5.18174 13.5684 4.98186 13.4385 4.7717 13.2287C4.56155 13.0188 4.43147 12.8191 4.32288 12.539C4.24051 12.3278 4.14307 12.0097 4.11648 11.4248C4.08739 10.7923 4.08158 10.6023 4.08158 9.00005C4.08158 7.39776 4.08787 7.2083 4.11648 6.57533C4.14312 5.99035 4.24128 5.67293 4.32288 5.4611C4.43195 5.18098 4.56184 4.9811 4.7717 4.77096C4.98157 4.56082 5.18126 4.43074 5.46187 4.32216C5.67308 4.23979 5.99114 4.14235 6.57614 4.11576C7.20862 4.08667 7.39861 4.08086 9.00024 4.08086C10.6019 4.08086 10.7921 4.08715 11.4251 4.11576C12.0101 4.1424 12.3275 4.24056 12.5393 4.32216C12.8195 4.43074 13.0193 4.5611 13.2295 4.77096C13.4396 4.98082 13.5693 5.18098 13.6783 5.4611C13.7607 5.6723 13.8581 5.99035 13.8847 6.57533C13.9138 7.2083 13.9196 7.39776 13.9196 9.00005C13.9196 10.6023 13.9138 10.7918 13.8847 11.4248C13.8581 12.0097 13.7602 12.3277 13.6783 12.539C13.5693 12.8191 13.4394 13.019 13.2295 13.2287C13.0196 13.4383 12.8195 13.5684 12.5393 13.6775C12.3281 13.7598 12.0101 13.8573 11.4251 13.8839C10.7926 13.9129 10.6026 13.9188 9.00024 13.9188C7.39789 13.9188 7.20842 13.9129 6.57614 13.8839ZM6.52646 3.03634C5.8877 3.06542 5.45122 3.1667 5.07003 3.31502C4.67527 3.46819 4.34108 3.67368 4.00713 4.00709C3.67318 4.3405 3.46821 4.6752 3.31504 5.06995C3.16671 5.45136 3.06543 5.88758 3.03634 6.52632C3.00677 7.16606 3 7.37059 3 9C3 10.6294 3.00677 10.8339 3.03634 11.4737C3.06543 12.1125 3.16671 12.5486 3.31504 12.93C3.46821 13.3246 3.67323 13.6596 4.00713 13.9929C4.34103 14.3262 4.67527 14.5314 5.07003 14.685C5.45194 14.8333 5.8877 14.9346 6.52646 14.9637C7.16657 14.9928 7.37077 15 9.00024 15C10.6297 15 10.8342 14.9932 11.474 14.9637C12.1128 14.9346 12.549 14.8333 12.9304 14.685C13.325 14.5314 13.6594 14.3263 13.9934 13.9929C14.3273 13.6595 14.5318 13.3246 14.6854 12.93C14.8338 12.5486 14.9355 12.1124 14.9641 11.4737C14.9932 10.8335 15 10.6294 15 9C15 7.37059 14.9932 7.16606 14.9641 6.52632C14.9351 5.88754 14.8338 5.45112 14.6854 5.06995C14.5318 4.67544 14.3268 4.34102 13.9934 4.00709C13.6599 3.67315 13.325 3.46819 12.9309 3.31502C12.549 3.1667 12.1128 3.06494 11.4745 3.03634C10.8347 3.00725 10.6302 3 9.00072 3C7.37125 3 7.16657 3.00677 6.52646 3.03634Z" fill="url(#instagram1)"/>
<defs>
<radialGradient id="instagram1" cx="0" cy="0" r="1" gradientUnits="userSpaceOnUse" gradientTransform="translate(4.59434 15.0567) scale(15.6656)">
<stop offset="0.09" stop-color="#FA8F21"/>
<stop offset="0.78" stop-color="#D82D7E"/>
</radialGradient>
</defs>
</svg>
