<svg width="100%" height="100%" viewBox="0 0 26 26" fill="none" xmlns="http://www.w3.org/2000/svg">
<circle cx="13" cy="13" r="12.5" fill="white" stroke="#E2EAEC"/>
<g clip-path="url(#instagram0)">
<path d="M10.1117 12.9987C10.1117 11.4033 11.4048 10.1096 13.0003 10.1096C14.5958 10.1096 15.8895 11.4033 15.8895 12.9987C15.8895 14.5941 14.5958 15.8878 13.0003 15.8878C11.4048 15.8878 10.1117 14.5941 10.1117 12.9987ZM8.54986 12.9987C8.54986 15.4566 10.5423 17.4489 13.0003 17.4489C15.4582 17.4489 17.4507 15.4566 17.4507 12.9987C17.4507 10.5408 15.4582 8.54847 13.0003 8.54847C10.5423 8.54847 8.54986 10.5408 8.54986 12.9987ZM16.5868 8.37201C16.5866 8.94639 17.052 9.4122 17.6264 9.41243C18.2008 9.41266 18.6667 8.94722 18.6669 8.37285C18.6671 7.79847 18.2017 7.33266 17.6273 7.33243H17.6269C17.0527 7.3327 16.5873 7.79791 16.5868 8.37201ZM9.49879 20.0532C8.65379 20.0147 8.19451 19.8739 7.88929 19.755C7.48465 19.5975 7.19593 19.4099 6.89238 19.1068C6.58882 18.8036 6.40092 18.5152 6.24409 18.1106C6.1251 17.8055 5.98435 17.3461 5.94594 16.5011C5.90392 15.5876 5.89553 15.3132 5.89553 12.9988C5.89553 10.6844 5.90462 10.4107 5.94594 9.49639C5.98442 8.65143 6.12621 8.19293 6.24409 7.88696C6.40162 7.48233 6.58924 7.19363 6.89238 6.89008C7.19552 6.58654 7.48395 6.39865 7.88929 6.24182C8.19437 6.12284 8.65379 5.9821 9.49879 5.94368C10.4124 5.90167 10.6868 5.89328 13.0003 5.89328C15.3137 5.89328 15.5884 5.90236 16.5028 5.94368C17.3478 5.98216 17.8063 6.12395 18.1123 6.24182C18.5169 6.39865 18.8056 6.58696 19.1092 6.89008C19.4127 7.19321 19.6 7.48233 19.7575 7.88696C19.8765 8.19203 20.0172 8.65143 20.0556 9.49639C20.0976 10.4107 20.106 10.6844 20.106 12.9988C20.106 15.3132 20.0976 15.5868 20.0556 16.5011C20.0171 17.3461 19.8757 17.8054 19.7575 18.1106C19.6 18.5152 19.4123 18.8039 19.1092 19.1068C18.8061 19.4096 18.5169 19.5975 18.1123 19.755C17.8072 19.874 17.3478 20.0147 16.5028 20.0532C15.5892 20.0952 15.3148 20.1036 13.0003 20.1036C10.6858 20.1036 10.4121 20.0952 9.49879 20.0532ZM9.42703 4.38452C8.50437 4.42653 7.8739 4.57283 7.3233 4.78707C6.75308 5.00831 6.27036 5.30512 5.78799 5.78671C5.30562 6.2683 5.00956 6.75176 4.7883 7.32196C4.57406 7.87288 4.42776 8.50299 4.38574 9.4256C4.34303 10.3497 4.33325 10.6451 4.33325 12.9987C4.33325 15.3523 4.34303 15.6477 4.38574 16.5718C4.42776 17.4945 4.57406 18.1245 4.7883 18.6754C5.00956 19.2453 5.30569 19.7293 5.78799 20.2107C6.27029 20.6921 6.75308 20.9885 7.3233 21.2103C7.87494 21.4246 8.50437 21.5709 9.42703 21.6129C10.3516 21.6549 10.6466 21.6654 13.0003 21.6654C15.3539 21.6654 15.6494 21.6556 16.5735 21.6129C17.4962 21.5709 18.1263 21.4246 18.6772 21.2103C19.2471 20.9885 19.7302 20.6923 20.2125 20.2107C20.6949 19.7291 20.9903 19.2453 21.2122 18.6754C21.4265 18.1245 21.5735 17.4944 21.6148 16.5718C21.6568 15.647 21.6666 15.3523 21.6666 12.9987C21.6666 10.6451 21.6568 10.3497 21.6148 9.4256C21.5728 8.50292 21.4265 7.87254 21.2122 7.32196C20.9903 6.75211 20.6941 6.26907 20.2125 5.78671C19.7309 5.30436 19.2471 5.00831 18.6779 4.78707C18.1263 4.57283 17.4962 4.42584 16.5742 4.38452C15.6501 4.3425 15.3546 4.33203 13.001 4.33203C10.6473 4.33203 10.3516 4.34181 9.42703 4.38452Z" fill="url(#instagram1)"/>
</g>
<defs>
<radialGradient id="instagram1" cx="0" cy="0" r="1" gradientUnits="userSpaceOnUse" gradientTransform="translate(6.63618 21.7472) scale(22.6281)">
<stop offset="0.09" stop-color="#FA8F21"/>
<stop offset="0.78" stop-color="#D82D7E"/>
</radialGradient>
<clipPath id="instagram0">
<rect width="17.3333" height="17.3333" fill="white" transform="translate(4.33325 4.33203)"/>
</clipPath>
</defs>
</svg>
