<svg width="100%" height="100%" viewBox="0 0 31 24" fill="none" xmlns="http://www.w3.org/2000/svg">
<path fill-rule="evenodd" clip-rule="evenodd" d="M23.1436 23.1434H22.8565C21.7982 23.0014 20.8756 22.3509 20.3847 21.4015C20.1681 20.9948 20.0079 20.5618 19.9061 20.1125C19.5405 20.1125 19.1489 20.1822 18.7485 20.2431C18.2682 20.3128 17.8217 19.9792 17.752 19.4984C17.6823 19.0177 18.0158 18.5709 18.4961 18.5012C18.8268 18.4576 19.1401 18.4141 19.4535 18.3879L19.3577 18.1179C19.2237 17.7452 18.9573 17.4351 18.6092 17.247C18.2211 17.0771 17.7886 17.031 17.3734 17.1164C17.2238 17.1425 17.0757 17.1782 16.9295 17.2209C16.7807 17.3855 16.6205 17.5396 16.4509 17.6824C15.6945 18.3008 14.7981 18.7224 13.8398 18.9105C13.0461 19.0586 12.2315 19.0586 11.4378 18.9105C10.6352 18.7868 9.86853 18.489 9.1923 18.0395C8.57 17.6162 8.05913 17.0484 7.70413 16.3848C6.90505 16.5267 6.08175 16.4421 5.32797 16.1409C4.49069 15.802 3.79366 15.188 3.35237 14.3989C3.28279 14.2682 3.22182 14.1376 3.16088 13.9983C2.51766 13.6794 1.97293 13.1918 1.58557 12.5873C1.16175 11.9455 0.925842 11.1964 0.906743 10.4274C0.873632 9.62338 1.09993 8.82908 1.55072 8.16273C1.9207 7.63152 2.41765 7.2004 2.99551 6.90864C3.03554 6.60987 3.11124 6.31814 3.2218 6.0377C3.56213 5.12317 4.16868 4.33146 4.96239 3.76444C5.74313 3.20011 6.6648 2.8621 7.62569 2.78897C7.86582 2.76719 8.10785 2.76719 8.34807 2.78897C9.21309 1.76377 10.4063 1.07142 11.7249 0.829275C13.0261 0.615925 14.362 0.823225 15.537 1.42153C16.396 1.04262 17.322 0.840601 18.261 0.829275C19.6554 0.806625 21.0409 1.05222 22.3429 1.55224C23.6937 2.02597 24.8948 2.84906 25.8243 3.93865C26.3482 4.57362 26.7182 5.3226 26.9035 6.12475C27.5972 6.3024 28.2325 6.65606 28.7487 7.15253C29.2335 7.61848 29.6137 8.18279 29.8627 8.8073C30.109 9.4222 30.236 10.078 30.2369 10.7409C30.2386 11.6179 29.981 12.475 29.4971 13.2056C29.7407 13.8651 29.8243 14.5723 29.7407 15.2698C29.6704 15.9248 29.4849 16.5615 29.1925 17.1512C28.6094 18.327 27.9044 18.9889 27.1037 19.1195C26.4048 19.2171 25.7051 18.9549 25.2412 18.4227C24.5998 17.8506 24.2273 17.0354 24.2143 16.1757C24.2255 15.6278 24.4814 15.1139 24.9105 14.7734C24.8644 14.7656 24.8173 14.7656 24.7713 14.7734C24.3709 14.8675 23.9871 15.0199 23.6311 15.2264C22.3935 16.0678 20.7494 15.9928 19.5927 15.0434C19.0722 14.7708 18.772 14.2082 18.8356 13.6238C18.9835 12.6657 20.1497 12.1867 21.3943 11.8208C21.6816 11.7338 21.96 11.6641 22.2646 11.5944C23.6136 11.2809 24.1707 11.0631 24.1707 10.5144C24.1559 10.4125 24.0985 10.3211 24.014 10.2618C23.7259 10.0414 23.3639 9.94219 23.0044 9.98307C22.2742 10.1582 21.591 10.4909 21.0028 10.9586L20.7677 11.124C18.8991 12.3557 16.8694 13.3224 14.7362 13.9983C13.2915 14.4512 12.1254 14.2596 11.5683 13.4408C11.1914 12.9749 11.0617 12.3557 11.2201 11.7773C11.5944 10.497 13.2915 9.82636 14.7015 9.28632C15.0322 9.1557 15.3717 9.01633 15.5197 8.93801L15.7895 8.7812C17.1993 8.00602 17.53 7.62281 17.53 7.43988C17.53 7.25705 16.7554 6.64731 11.5422 9.01633L11.0374 9.24285C10.8459 9.3299 10.6108 9.4605 10.3498 9.59122C9.57174 10.0371 8.74137 10.3855 7.87799 10.6276C7.39763 10.7339 6.92154 10.4291 6.81626 9.94825C6.71011 9.46751 7.01471 8.99198 7.49506 8.88573C8.20968 8.68016 8.89727 8.38753 9.54049 8.01477C9.84511 7.85795 10.1149 7.71858 10.3411 7.62279L10.8197 7.39639C13.248 6.29893 17.7825 4.24345 19.0445 6.52542C19.2803 6.93475 19.3395 7.42164 19.2098 7.87541C18.8878 9.00771 17.5213 9.75667 16.5988 10.2531L16.3465 10.3925C16.0095 10.571 15.6605 10.7252 15.302 10.854C13.7528 11.4638 12.9434 11.9167 12.8911 12.2128C12.9086 12.2659 12.9355 12.3164 12.9695 12.3608C13.0391 12.448 13.4656 12.5177 14.2054 12.2825C16.1862 11.6606 18.0697 10.7636 19.8016 9.61734L20.0366 9.4605C20.8373 8.83523 21.7737 8.40584 22.7694 8.2064C23.6242 8.09575 24.4857 8.34137 25.1542 8.88573C25.6145 9.27251 25.8896 9.8351 25.9113 10.436C25.9113 12.4828 23.8834 12.9618 22.6563 13.2405C22.404 13.3015 22.1689 13.3538 21.96 13.4235C21.6171 13.5193 21.2795 13.636 20.9505 13.7719C21.7512 14.1986 22.1254 14.007 22.839 13.6325C23.3447 13.3433 23.8904 13.1325 24.4579 13.0054C25.3099 12.765 26.2142 13.1491 26.6338 13.9286C26.9235 14.6942 26.6755 15.5591 26.0245 16.0537C25.9845 16.0851 25.9618 16.1339 25.9636 16.1844C26.0097 16.5476 26.1899 16.8794 26.4684 17.1164C26.6338 17.2818 26.7642 17.3515 26.8252 17.3428C26.8861 17.334 27.2604 17.0815 27.6433 16.3151C27.8452 15.9118 27.9723 15.4745 28.0175 15.026C28.0959 14.5113 28.0045 13.9852 27.7565 13.528C27.5354 13.1935 27.571 12.751 27.8435 12.4567C28.2752 11.9594 28.5102 11.321 28.505 10.6625C28.5023 10.2296 28.4206 9.802 28.2613 9.39958C28.102 9.00589 27.8618 8.64971 27.5564 8.3544C27.1586 7.96158 26.6337 7.72386 26.0767 7.68374C25.6519 7.65159 25.3134 7.31625 25.2761 6.89118C25.2142 6.18395 24.9374 5.51243 24.484 4.96643C23.7547 4.12502 22.819 3.48832 21.7685 3.11988C20.6842 2.6975 19.5283 2.4902 18.3656 2.51026C17.5571 2.50066 16.7606 2.69837 16.0505 3.08505C15.7816 3.24101 15.4491 3.24101 15.1802 3.08505C14.2602 2.52418 13.1732 2.30553 12.108 2.46667C11.0426 2.68185 10.1053 3.30808 9.4969 4.20861C9.29497 4.47772 8.95636 4.60673 8.62649 4.53954C8.37591 4.47946 8.11747 4.45949 7.86065 4.47868C7.2323 4.52916 6.63007 4.75212 6.12006 5.12316C5.60305 5.48805 5.20353 5.99671 4.97117 6.58637C4.87021 6.86595 4.81713 7.1603 4.81454 7.45734C4.81194 7.81878 4.58733 8.14106 4.24873 8.26727C3.78585 8.42937 3.38634 8.73417 3.10869 9.13832C2.8676 9.50149 2.74924 9.93089 2.7692 10.3663C2.78139 10.8149 2.9172 11.2521 3.16088 11.6292C3.42894 12.0281 3.8153 12.333 4.26619 12.5002C4.52551 12.5925 4.72576 12.8024 4.80581 13.0663C4.8537 13.2266 4.91806 13.3808 4.99724 13.528C5.24533 13.9756 5.6378 14.3257 6.11133 14.5208C6.60646 14.7211 7.15214 14.7577 7.66915 14.6253C7.79104 14.6001 7.91023 14.5644 8.02607 14.5208C8.24528 14.4268 8.49426 14.4268 8.71366 14.5208C8.93037 14.6254 9.094 14.8144 9.16617 15.0434C9.3585 15.6636 9.75794 16.1983 10.2976 16.5589C10.7658 16.8742 11.2976 17.0823 11.8555 17.1686C12.4308 17.2739 13.0208 17.2739 13.5961 17.1686C14.2706 17.0344 14.9016 16.7349 15.4325 16.2976C15.5875 16.1687 15.7302 16.0259 15.859 15.8709C15.9573 15.7489 16.0862 15.6557 16.2332 15.6008C16.5423 15.4902 16.8591 15.4057 17.1819 15.3483C17.9592 15.1949 18.7641 15.296 19.4795 15.6357C20.1924 15.9954 20.7538 16.5972 21.0636 17.334C21.1245 17.4908 21.2464 17.8566 21.3509 18.205C22.0985 18.2033 22.8444 18.2704 23.5789 18.4053C24.0966 18.4785 24.5893 18.6754 25.0148 18.9802C25.8748 19.6718 26.0872 20.8954 25.5111 21.8369C25.0175 22.6705 24.1115 23.1713 23.1436 23.1434ZM21.6989 20.0602C21.7511 20.2326 21.8217 20.3991 21.9078 20.5567C22.1246 21.0113 22.545 21.3344 23.0392 21.4276C23.3744 21.4598 23.7025 21.3187 23.9096 21.0531C24.0167 20.8641 23.9809 20.6272 23.8225 20.4782C23.6119 20.3554 23.3778 20.278 23.135 20.2518C22.6606 20.1673 22.1802 20.1151 21.6989 20.095V20.0602Z" fill="#4F4F4F"/>
</svg>
