<svg width="100%" height="100%" viewBox="0 0 18 18" fill="none" xmlns="http://www.w3.org/2000/svg">
<circle cx="9" cy="9" r="8.5" fill="white" stroke="#E2EAEC"/>
<g clip-path="url(#jira0)">
<path fill-rule="evenodd" clip-rule="evenodd" d="M6.47813 3.51855C6.03849 3.51855 5.6825 3.88474 5.6825 4.33867C5.6825 4.79147 6.03849 5.15892 6.47813 5.15892C6.91778 5.15892 7.27375 4.79147 7.27375 4.33867C7.27375 3.88474 6.91812 3.51855 6.47813 3.51855Z" fill="#264970"/>
<path fill-rule="evenodd" clip-rule="evenodd" d="M11.7053 3.51786C11.2655 3.51786 10.9099 3.88405 10.9099 4.33798C10.9099 4.79078 11.2655 5.15823 11.7053 5.15823C12.1439 5.15823 12.5008 4.79078 12.5008 4.33798C12.5008 3.88405 12.1439 3.51847 11.7053 3.51786ZM9.09173 2.76953C8.6521 2.76953 8.29611 3.13564 8.29611 3.58971C8.29611 4.04251 8.6521 4.41004 9.09173 4.41004C9.53136 4.41004 9.88722 4.04251 9.88722 3.58971C9.88722 3.13564 9.53168 2.76953 9.09173 2.76953ZM13.5862 5.80316C13.5419 5.76852 13.4888 5.75051 13.4348 5.75051C13.4043 5.75053 13.3742 5.75631 13.3459 5.76755C12.8071 5.97971 12.26 6.1408 11.7607 6.26063C11.6589 6.28511 11.5766 6.363 11.5425 6.45652C11.1787 7.48285 10.2498 8.46016 9.27513 9.48376C9.23601 9.52201 9.18124 9.57248 9.09203 9.57248C9.00281 9.57248 8.94877 9.5236 8.90891 9.48376C7.93442 8.46016 7.00548 7.48624 6.64152 6.45985C6.60738 6.36637 6.5251 6.28851 6.42346 6.26396C5.92385 6.14412 5.37539 5.97805 4.83732 5.76589C4.80852 5.75459 4.77822 5.74894 4.74818 5.74894C4.6936 5.74882 4.6406 5.76722 4.59782 5.80113C4.52879 5.85535 4.49297 5.94334 4.50115 6.02783C4.58364 6.8813 4.91112 7.71565 5.50206 8.58999C6.05753 9.41199 6.78207 10.1729 7.48257 10.9087C8.77326 12.2646 9.99252 13.5452 10.0995 15.0301C10.1092 15.1641 10.2175 15.2679 10.3482 15.2679H11.8646C11.9329 15.2679 11.9981 15.239 12.0453 15.188C12.0925 15.137 12.1171 15.0687 12.1137 14.9984C12.066 14.0056 11.7032 13.0113 11.0046 11.9591C10.8582 11.7386 10.7014 11.5239 10.5375 11.3139C10.4708 11.2283 10.4987 11.122 10.5497 11.0684L10.7016 10.9087C11.4021 10.1728 12.1265 9.41199 12.6821 8.58999C13.273 7.71558 13.6003 6.88614 13.6829 6.0328C13.6912 5.94701 13.6534 5.85604 13.5862 5.80316ZM7.4648 12.0638C7.42896 12.0251 7.37624 11.9857 7.28775 11.9857C7.17456 11.9857 7.10741 12.0662 7.08203 12.1062C6.44423 13.1058 6.11479 14.0493 6.06924 14.9975C6.06594 15.0673 6.09095 15.1368 6.13789 15.1878C6.18483 15.2389 6.25118 15.2679 6.31934 15.2679H7.83313C7.96339 15.2679 8.07307 15.1629 8.08266 15.0292C8.11562 14.5722 8.25376 14.1142 8.50525 13.6328C8.59242 13.4663 8.5247 13.3099 8.47454 13.243C8.22503 12.9088 7.91943 12.5523 7.4648 12.0638Z" fill="#264970"/>
<path fill-rule="evenodd" clip-rule="evenodd" d="M9.09343 6.56843L9.94113 6.53906C10.0584 6.53906 10.1705 6.63802 10.1705 6.7766C10.1705 6.81705 10.1613 6.84598 10.152 6.87151C10.089 7.04503 9.80176 7.66939 9.26698 8.20497C9.20701 8.26505 9.139 8.27628 9.0922 8.27628H9.09161C9.04488 8.27628 8.97695 8.26505 8.91699 8.20497C8.38221 7.66939 8.09489 7.04503 8.03199 6.87151C8.02271 6.84598 8.01343 6.81705 8.01343 6.7766C8.01343 6.63802 8.12566 6.53906 8.24297 6.53906L9.0903 6.56843H9.09343Z" fill="#264970"/>
</g>
<defs>
<clipPath id="jira0">
<rect width="9.18219" height="12.4615" fill="white" transform="translate(4.5 2.76953)"/>
</clipPath>
</defs>
</svg>
