<svg width="100%" height="100%" viewBox="0 0 26 26" fill="none" xmlns="http://www.w3.org/2000/svg">
<circle cx="13" cy="13" r="12.5" fill="white" stroke="#E2EAEC"/>
<g clip-path="url(#jira0)">
<path fill-rule="evenodd" clip-rule="evenodd" d="M9.35726 5.08203C8.72222 5.08203 8.20801 5.61097 8.20801 6.26664C8.20801 6.92068 8.72222 7.45145 9.35726 7.45145C9.9923 7.45145 10.5065 6.92068 10.5065 6.26664C10.5065 5.61097 9.9928 5.08203 9.35726 5.08203Z" fill="#264970"/>
<path fill-rule="evenodd" clip-rule="evenodd" d="M16.9077 5.08092C16.2723 5.08092 15.7588 5.60986 15.7588 6.26554C15.7588 6.91958 16.2723 7.45034 16.9077 7.45034C17.5412 7.45034 18.0567 6.91958 18.0567 6.26554C18.0567 5.60986 17.5412 5.0818 16.9077 5.08092ZM13.1325 4C12.4975 4 11.9833 4.52882 11.9833 5.18471C11.9833 5.83875 12.4975 6.36963 13.1325 6.36963C13.7675 6.36963 14.2815 5.83875 14.2815 5.18471C14.2815 4.52882 13.768 4 13.1325 4ZM19.6246 8.38191C19.5606 8.33187 19.4838 8.30586 19.4058 8.30586C19.3618 8.30589 19.3182 8.31424 19.2773 8.33047C18.4992 8.63692 17.709 8.86962 16.9878 9.0427C16.8406 9.07806 16.7218 9.19056 16.6725 9.32565C16.1471 10.8081 14.8052 12.2198 13.3974 13.6983C13.3409 13.7536 13.2618 13.8265 13.1329 13.8265C13.0041 13.8265 12.926 13.7559 12.8684 13.6983C11.4608 12.2198 10.119 10.813 9.5933 9.33046C9.54399 9.19544 9.42514 9.08296 9.27833 9.04751C8.55667 8.8744 7.76446 8.63453 6.98723 8.32808C6.94564 8.31176 6.90188 8.30359 6.85849 8.30359C6.77965 8.30342 6.70308 8.33 6.6413 8.37897C6.54159 8.4573 6.48984 8.58439 6.50166 8.70643C6.62082 9.93922 7.09384 11.1444 7.94742 12.4073C8.74977 13.5947 9.79632 14.6938 10.8082 15.7565C12.6725 17.715 14.4336 19.5648 14.5882 21.7098C14.6021 21.9032 14.7587 22.0532 14.9474 22.0532H17.1377C17.2364 22.0532 17.3306 22.0114 17.3988 21.9378C17.4669 21.8642 17.5025 21.7655 17.4975 21.6639C17.4286 20.2298 16.9046 18.7937 15.8956 17.2739C15.6841 16.9553 15.4576 16.6452 15.2208 16.3418C15.1246 16.2182 15.1648 16.0647 15.2384 15.9873L15.4578 15.7565C16.4698 14.6937 17.5161 13.5947 18.3187 12.4073C19.1721 11.1443 19.6449 9.94621 19.7642 8.71361C19.7761 8.58969 19.7215 8.45829 19.6246 8.38191ZM10.7825 17.425C10.7307 17.3692 10.6546 17.3122 10.5267 17.3122C10.3633 17.3122 10.2663 17.4286 10.2296 17.4862C9.30833 18.9302 8.83247 20.293 8.76668 21.6626C8.76192 21.7635 8.79803 21.8638 8.86584 21.9376C8.93365 22.0113 9.02948 22.0532 9.12793 22.0532H11.3145C11.5027 22.0532 11.6611 21.9016 11.675 21.7084C11.7226 21.0483 11.9221 20.3867 12.2854 19.6914C12.4113 19.4509 12.3135 19.2249 12.241 19.1283C11.8806 18.6456 11.4392 18.1307 10.7825 17.425Z" fill="#264970"/>
<path fill-rule="evenodd" clip-rule="evenodd" d="M13.135 9.48773L14.3594 9.44531C14.5288 9.44531 14.6908 9.58825 14.6908 9.78843C14.6908 9.84685 14.6774 9.88863 14.6641 9.92551C14.573 10.1762 14.1581 11.078 13.3856 11.8516C13.299 11.9384 13.2008 11.9546 13.1332 11.9546H13.1323C13.0648 11.9546 12.9667 11.9384 12.8801 11.8516C12.1076 11.078 11.6926 10.1762 11.6018 9.92551C11.5884 9.88863 11.575 9.84685 11.575 9.78843C11.575 9.58825 11.7371 9.44531 11.9065 9.44531L13.1304 9.48773H13.135Z" fill="#264970"/>
</g>
<defs>
<clipPath id="jira0">
<rect width="13.2632" height="18" fill="white" transform="translate(6.5 4)"/>
</clipPath>
</defs>
</svg>
