<svg width="100%" height="100%" viewBox="0 0 24 24" fill="none" xmlns="http://www.w3.org/2000/svg">
<circle cx="12" cy="12" r="11.5" fill="white" stroke="#E2EAEC"/>
<g clip-path="url(#jupyter-hub)">
<path d="M8.98572 10.8731L7.58527 10.0585C7.49393 10.224 7.40895 10.383 7.31964 10.5392C6.99648 11.1049 6.67255 11.6702 6.34785 12.2351C6.06285 12.7313 5.77496 13.2246 5.49111 13.7208C5.22721 14.1823 4.97082 14.6482 4.70143 15.1064C4.64651 15.1998 4.65807 15.2363 4.74449 15.2859C5.14916 15.5181 5.55287 15.7533 5.95561 15.9917C6.01342 16.0256 6.04724 16.027 6.08019 15.9681C6.24495 15.673 6.40913 15.3773 6.57591 15.0831C6.69674 14.8697 6.82132 14.6587 6.94676 14.4427C6.97133 14.4543 6.9855 14.4599 6.99879 14.4675C7.37648 14.6862 7.75437 14.9049 8.13245 15.1236C8.69609 15.4523 9.25926 15.7816 9.82194 16.1114C10.344 16.4161 10.8665 16.72 11.3895 17.023C11.849 17.288 12.324 17.504 12.8596 17.5717C13.2608 17.6225 13.64 17.5694 13.9941 17.3893C14.3983 17.1814 14.7402 16.8683 14.9847 16.4824C15.1396 16.2428 15.2783 15.992 15.4214 15.7448C15.5948 15.4453 15.7651 15.1444 15.9417 14.8358L14.5629 14.0369C14.5173 14.1137 14.4834 14.1683 14.4522 14.2243C14.2349 14.6131 14.0441 15.0203 13.7952 15.3875C13.3877 15.9894 12.9966 15.9777 12.4621 15.7448C12.163 15.6143 11.8898 15.4237 11.6054 15.2585C11.0834 14.9555 10.5615 14.652 10.0399 14.3481C9.61093 14.0976 9.18285 13.8452 8.7539 13.5944C8.4267 13.4032 8.09892 13.2135 7.76044 13.0168L8.98572 10.8731ZM16.4209 14.2103C16.4332 14.1722 16.4479 14.1348 16.4649 14.0985C16.6961 13.6934 16.9274 13.2886 17.1586 12.8843C17.5417 12.2176 17.9252 11.551 18.309 10.8845C18.642 10.3048 18.9746 9.72492 19.3068 9.14484C19.3441 9.08004 19.3513 9.03596 19.2672 8.99101C19.0649 8.88359 18.8727 8.761 18.6752 8.64629C18.4376 8.50793 18.1992 8.37132 17.9581 8.23268L17.0508 9.82202C16.7123 9.62908 16.3776 9.44257 16.0466 9.24904C15.4483 8.89877 14.8534 8.54296 14.2545 8.19327C13.7507 7.89905 13.24 7.61708 12.7393 7.3176C12.3219 7.06774 11.8944 6.84824 11.4184 6.73703C11.0299 6.64654 10.6379 6.63457 10.2622 6.76417C9.75083 6.93931 9.34356 7.27936 9.05162 7.73208C8.73367 8.22538 8.45271 8.74349 8.15557 9.24992C8.12175 9.3083 8.09053 9.36667 8.05758 9.42505L9.43201 10.2243C9.47219 10.1542 9.50745 10.0958 9.53954 10.036C9.79275 9.56458 9.99913 9.06369 10.3703 8.66409C10.5284 8.49479 10.7093 8.38417 10.9541 8.37979C11.2747 8.37424 11.5438 8.50705 11.8086 8.66001C12.2355 8.90665 12.6593 9.15622 13.0853 9.40549C13.5648 9.68454 14.0461 9.96009 14.5254 10.2403C14.9404 10.4829 15.3535 10.7292 15.7683 10.9727C15.922 11.0631 16.0778 11.1507 16.2374 11.2418L15.0112 13.3872L16.4209 14.2103Z" fill="#EA3B25"/>
<path d="M8.98501 10.8733L7.75973 13.0175C8.0982 13.2142 8.42598 13.404 8.75319 13.5951C9.18214 13.8459 9.61022 14.0984 10.0392 14.3488C10.5606 14.653 11.0824 14.9564 11.6047 15.2592C11.8891 15.4241 12.1622 15.615 12.4614 15.7455C12.9959 15.979 13.3864 15.9901 13.7945 15.3882C14.0434 15.021 14.2341 14.6138 14.4515 14.225C14.4827 14.169 14.5165 14.1144 14.5622 14.0377L15.941 14.836C15.7644 15.1445 15.5941 15.4454 15.4207 15.7449C15.2776 15.9922 15.1389 16.2429 14.9839 16.4825C14.7392 16.8686 14.3968 17.1817 13.9922 17.3894C13.639 17.5695 13.2589 17.623 12.8577 17.5719C12.3221 17.5042 11.846 17.2882 11.3876 17.0231C10.864 16.7211 10.3415 16.4172 9.82007 16.1115C9.25681 15.7829 8.69364 15.4536 8.13058 15.1238C7.75327 14.9039 7.37539 14.6852 6.99692 14.4676C6.98363 14.46 6.96946 14.4545 6.94489 14.4428C6.81945 14.6588 6.69487 14.8698 6.57404 15.0832C6.40726 15.3774 6.24308 15.6731 6.07832 15.9682C6.04537 16.0266 6.0104 16.0266 5.95374 15.9919C5.55254 15.7537 5.14884 15.5184 4.74263 15.2861C4.65591 15.2365 4.64464 15.1985 4.69956 15.1066C4.96866 14.6483 5.22534 14.1824 5.48924 13.721C5.77309 13.2247 6.06098 12.7309 6.34598 12.2352C6.67068 11.6709 6.99461 11.1056 7.31777 10.5393C7.40708 10.3832 7.4912 10.2241 7.5834 10.0586L8.98501 10.8733Z" fill="#EA3B25"/>
<path d="M16.4209 14.2107L15.0103 13.3907L16.2365 11.2453C16.0769 11.1543 15.9211 11.0667 15.7673 10.9762C15.3525 10.7328 14.9395 10.4864 14.5244 10.2439C14.0452 9.96424 13.5639 9.68928 13.0844 9.40906C12.6583 9.16125 12.2346 8.91022 11.8076 8.66357C11.5429 8.51062 11.2738 8.37781 10.9532 8.38336C10.7084 8.38774 10.5274 8.49836 10.3693 8.66766C9.99819 9.0658 9.79123 9.56668 9.5386 10.0395C9.50651 10.0994 9.47125 10.1578 9.43107 10.2278L8.05664 9.42862C8.08959 9.37024 8.12081 9.3104 8.15463 9.25348C8.45119 8.74618 8.73273 8.22807 9.05068 7.73565C9.34262 7.28293 9.74989 6.94404 10.2612 6.76774C10.637 6.63814 11.0298 6.65098 11.4174 6.74059C11.8935 6.8518 12.321 7.07131 12.7384 7.32117C13.239 7.62065 13.7501 7.90261 14.2536 8.19684C14.8525 8.54711 15.4473 8.90263 16.0457 9.25261C16.3766 9.44613 16.7105 9.63207 17.0498 9.82559L17.9586 8.23624C18.1997 8.37489 18.4381 8.5115 18.6757 8.64985C18.8732 8.76457 19.0665 8.88716 19.2677 8.99458C19.3518 9.03953 19.3446 9.0836 19.3073 9.1484C18.9747 9.72829 18.6421 10.3082 18.3095 10.8881C17.9262 11.5548 17.5428 12.2213 17.1591 12.8878C16.9279 13.2922 16.6966 13.6969 16.4654 14.1021C16.4484 14.1373 16.4335 14.1736 16.4209 14.2107Z" fill="#EA3B25"/>
</g>
<defs>
<clipPath id="jupyter-hub">
<rect width="14.6667" height="10.922" fill="white" transform="translate(4.66699 6.66797)"/>
</clipPath>
</defs>
</svg>
