<svg width="100%" height="100%" viewBox="0 0 26 26" fill="none" xmlns="http://www.w3.org/2000/svg">
<circle cx="13" cy="13" r="12.5" fill="white" stroke="#E2EAEC"/>
<path d="M17.8649 6.59903C17.8722 6.76881 17.8294 6.93697 17.742 7.08223C17.6545 7.22749 17.5263 7.34333 17.3735 7.41508C17.2208 7.48684 17.0504 7.51129 16.8838 7.48535C16.7173 7.4594 16.5622 7.38422 16.438 7.26932C16.3138 7.15443 16.2263 7.00497 16.1864 6.83986C16.1464 6.67476 16.156 6.50142 16.2138 6.34179C16.2715 6.18215 16.375 6.04339 16.511 5.94305C16.647 5.84271 16.8094 5.78532 16.9778 5.77812C17.2033 5.76847 17.4235 5.84951 17.5898 6.00344C17.7561 6.15736 17.855 6.37158 17.8649 6.59903Z" fill="#767677"/>
<path d="M12.8981 16.6979C10.63 16.6979 8.64928 15.8668 7.62109 14.6367C8.00402 15.7405 8.7177 16.6969 9.66335 17.3737C10.609 18.0504 11.7398 18.4139 12.8994 18.4139C14.0589 18.4139 15.1897 18.0504 16.1354 17.3737C17.081 16.6969 17.7947 15.7405 18.1776 14.6367C17.1469 15.8668 15.1662 16.6979 12.8981 16.6979Z" fill="#F37726"/>
<path d="M12.8986 8.69645C15.1667 8.69645 17.1475 9.52753 18.1757 10.7576C17.7927 9.65385 17.079 8.6974 16.1334 8.02069C15.1878 7.34398 14.0569 6.98047 12.8974 6.98047C11.7379 6.98047 10.6071 7.34398 9.66139 8.02069C8.71575 8.6974 8.00207 9.65385 7.61914 10.7576C8.64984 9.53007 10.6306 8.69645 12.8986 8.69645Z" fill="#F37726"/>
<path d="M9.78473 19.09C9.79403 19.3041 9.74014 19.5161 9.62988 19.6993C9.51962 19.8824 9.35796 20.0285 9.16535 20.1189C8.97275 20.2093 8.75786 20.2401 8.54791 20.2073C8.33795 20.1745 8.14236 20.0796 7.98591 19.9347C7.82945 19.7897 7.71917 19.6012 7.66901 19.393C7.61886 19.1848 7.63109 18.9662 7.70416 18.765C7.77723 18.5638 7.90786 18.389 8.07949 18.2627C8.25113 18.1364 8.45606 18.0643 8.66835 18.0556C8.95229 18.0439 9.22925 18.1462 9.43852 18.3401C9.64779 18.534 9.77229 18.8037 9.78473 19.09Z" fill="#989798"/>
<path d="M7.87986 8.41861C7.75532 8.42404 7.63197 8.39207 7.52544 8.32677C7.41891 8.26147 7.33398 8.16576 7.28141 8.05176C7.22884 7.93776 7.21099 7.81059 7.23011 7.68635C7.24924 7.56211 7.30448 7.44639 7.38885 7.35383C7.47321 7.26126 7.58291 7.19602 7.70406 7.16637C7.82521 7.13671 7.95235 7.14397 8.06941 7.18722C8.18646 7.23047 8.28817 7.30778 8.36164 7.40935C8.43511 7.51092 8.47705 7.63219 8.48216 7.75781C8.48899 7.92594 8.42941 8.08993 8.3165 8.21381C8.20358 8.3377 8.04656 8.41135 7.87986 8.41861Z" fill="#6F7070"/>
</svg>
