<svg width="100%" height="100%" viewBox="0 0 26 26" fill="none" xmlns="http://www.w3.org/2000/svg">
<circle cx="13" cy="13" r="12.5" fill="white" stroke="#E2EAEC"/>
<g clip-path="url(#kubernetes)">
<path d="M21.3418 7.23813C21.2262 6.86813 20.9487 6.56751 20.6018 6.38251L13.5487 3.00625C13.3637 2.91375 13.1556 2.89062 12.9706 2.89062C12.7856 2.89062 12.5775 2.89062 12.3925 2.93688L5.33933 6.33626C4.99245 6.49813 4.73808 6.79876 4.64558 7.19188L2.9112 14.8C2.84183 15.1931 2.93433 15.5863 3.16558 15.91L8.04495 21.9457C8.32245 22.2232 8.71558 22.4082 9.1087 22.4313H16.8787C17.295 22.4775 17.6881 22.2925 17.9425 21.9457L22.8218 15.91C23.0531 15.5863 23.1456 15.1931 23.0993 14.8L21.3418 7.23813Z" fill="#326DE6"/>
<path d="M20.2553 14.4982C20.2321 14.4982 20.209 14.4982 20.209 14.4751C20.209 14.4519 20.1628 14.4519 20.1165 14.4519C20.024 14.4288 19.9315 14.4288 19.839 14.4288C19.7928 14.4288 19.7465 14.4288 19.7003 14.4057H19.6771C19.4228 14.3826 19.1453 14.3363 18.8909 14.2669C18.8215 14.2438 18.7521 14.1744 18.729 14.1051C18.7521 14.1051 18.729 14.1051 18.729 14.1051L18.544 14.0588C18.6365 13.3882 18.5903 12.6944 18.4515 12.0238C18.2896 11.3532 18.0121 10.7057 17.6421 10.1276L17.7809 9.98881V9.96568C17.7809 9.89631 17.804 9.80381 17.8503 9.75756C18.0584 9.57256 18.2665 9.43381 18.4978 9.29506C18.544 9.27193 18.5903 9.24881 18.6365 9.22568C18.729 9.17943 18.7984 9.13318 18.8909 9.08693C18.914 9.06381 18.9371 9.06381 18.9603 9.04068C18.9834 9.01756 18.9603 9.01756 18.9603 8.99443C19.1684 8.83256 19.2146 8.55506 19.0528 8.34693C18.9834 8.25443 18.8446 8.18506 18.729 8.18506C18.6134 8.18506 18.4978 8.23131 18.4053 8.30068L18.3821 8.32381C18.359 8.34693 18.3359 8.37006 18.3128 8.37006C18.2434 8.43943 18.174 8.50881 18.1278 8.57818C18.1046 8.62443 18.0584 8.64756 18.0353 8.67068C17.8734 8.85568 17.6653 9.04068 17.4571 9.17943C17.4109 9.20256 17.3646 9.22568 17.3184 9.22568C17.2953 9.22568 17.249 9.22568 17.2259 9.20256H17.2028L17.0178 9.31818C16.8328 9.13318 16.6246 8.94818 16.4396 8.76318C15.584 8.09256 14.5203 7.67631 13.4334 7.56068L13.4102 7.37568V7.39881C13.3409 7.35256 13.3177 7.28318 13.2946 7.21381C13.2946 6.95943 13.2946 6.70506 13.3409 6.42756V6.40443C13.3409 6.35818 13.364 6.31193 13.364 6.26568C13.3871 6.17318 13.3871 6.08068 13.4102 5.98818V5.84943C13.4334 5.61818 13.2484 5.38693 13.0171 5.36381C12.8784 5.34068 12.7396 5.41006 12.624 5.52568C12.5315 5.61818 12.4852 5.73381 12.4852 5.84943V5.96506C12.4852 6.05756 12.5084 6.15006 12.5315 6.24256C12.5546 6.28881 12.5546 6.33506 12.5546 6.38131V6.40443C12.6009 6.65881 12.6009 6.91318 12.6009 7.19068C12.5777 7.26006 12.5546 7.32943 12.4852 7.37568V7.42193L12.4621 7.60693C12.2077 7.63006 11.9534 7.67631 11.6759 7.72256C10.589 7.95381 9.59461 8.53193 8.83148 9.34131L8.69273 9.24881H8.66961C8.64648 9.24881 8.62336 9.27193 8.57711 9.27193C8.53086 9.27193 8.48461 9.24881 8.43835 9.22568C8.23023 9.06381 8.0221 8.87881 7.86023 8.69381C7.8371 8.64756 7.79085 8.62443 7.76773 8.60131C7.69835 8.53193 7.6521 8.46256 7.58273 8.39318C7.5596 8.37006 7.53648 8.37006 7.51335 8.34693C7.49023 8.32381 7.49023 8.32381 7.49023 8.32381C7.39773 8.25443 7.2821 8.20818 7.16648 8.20818C7.02772 8.20818 6.9121 8.25443 6.84272 8.37006C6.70397 8.57818 6.75022 8.85568 6.93522 9.01756C6.95835 9.01756 6.95835 9.04068 6.95835 9.04068C6.95835 9.04068 7.0046 9.08693 7.02772 9.08693C7.0971 9.13318 7.1896 9.17943 7.2821 9.22568C7.32835 9.24881 7.3746 9.27193 7.42085 9.29506C7.6521 9.43381 7.88335 9.57256 8.06835 9.75756C8.1146 9.80381 8.16085 9.89631 8.13773 9.96568V9.94256L8.27648 10.0813C8.25335 10.1276 8.23023 10.1507 8.2071 10.1969C7.49023 11.3301 7.1896 12.6713 7.39773 13.9894L7.21273 14.0357C7.21273 14.0588 7.1896 14.0588 7.1896 14.0588C7.16648 14.1282 7.0971 14.1744 7.02772 14.2207C6.77335 14.2901 6.51897 14.3363 6.24147 14.3594C6.19522 14.3594 6.14897 14.3594 6.10272 14.3826C6.01022 14.3826 5.91772 14.4057 5.82522 14.4057C5.8021 14.4057 5.77897 14.4288 5.73272 14.4288C5.7096 14.4288 5.7096 14.4288 5.68647 14.4519C5.43209 14.4982 5.27022 14.7294 5.31647 14.9838C5.36272 15.1919 5.57084 15.3307 5.77897 15.3076C5.82522 15.3076 5.84835 15.3076 5.8946 15.2844C5.91772 15.2844 5.91772 15.2844 5.91772 15.2613C5.91772 15.2382 5.9871 15.2613 6.01022 15.2613C6.10272 15.2382 6.19522 15.1919 6.2646 15.1688C6.31085 15.1457 6.3571 15.1226 6.40335 15.1226H6.42647C6.68085 15.0301 6.9121 14.9607 7.1896 14.9144H7.21273C7.2821 14.9144 7.35148 14.9376 7.39773 14.9838C7.42085 14.9838 7.42085 15.0069 7.42085 15.0069L7.62898 14.9838C7.97585 16.0476 8.62336 16.9957 9.52523 17.6894C9.73336 17.8513 9.91836 17.9901 10.1496 18.1057L10.034 18.2676C10.034 18.2907 10.0571 18.2907 10.0571 18.2907C10.1034 18.3601 10.1034 18.4526 10.0802 18.5219C9.98774 18.7532 9.84899 18.9844 9.71023 19.1926V19.2157C9.68711 19.2619 9.66398 19.2851 9.61773 19.3313C9.57148 19.3776 9.52523 19.4701 9.45586 19.5626C9.43273 19.5857 9.43273 19.6088 9.40961 19.6319C9.40961 19.6319 9.40961 19.6551 9.38648 19.6551C9.27086 19.8863 9.36336 20.1638 9.57148 20.2794C9.61773 20.3026 9.68711 20.3257 9.73336 20.3257C9.91836 20.3257 10.0802 20.2101 10.1727 20.0482C10.1727 20.0482 10.1727 20.0251 10.1959 20.0251C10.1959 20.0019 10.219 19.9788 10.2421 19.9557C10.2652 19.8632 10.3115 19.7938 10.3346 19.7013L10.3809 19.5626C10.4502 19.3082 10.5659 19.0769 10.6815 18.8457C10.7277 18.7763 10.7971 18.7301 10.8665 18.7069C10.8896 18.7069 10.8896 18.7069 10.8896 18.6838L10.9821 18.4988C11.6296 18.7532 12.3002 18.8688 12.994 18.8688C13.4102 18.8688 13.8265 18.8226 14.2428 18.7069C14.4971 18.6607 14.7515 18.5682 14.9828 18.4988L15.0753 18.6607C15.0984 18.6607 15.0984 18.6607 15.0984 18.6838C15.1678 18.7069 15.2371 18.7532 15.2834 18.8226C15.399 19.0538 15.5146 19.2851 15.584 19.5394V19.5626L15.6303 19.7013C15.6534 19.7938 15.6765 19.8863 15.7228 19.9557C15.7459 19.9788 15.7459 20.0019 15.769 20.0251C15.769 20.0251 15.769 20.0482 15.7921 20.0482C15.8846 20.2101 16.0465 20.3257 16.2315 20.3257C16.3009 20.3257 16.3471 20.3026 16.4165 20.2794C16.509 20.2332 16.6015 20.1407 16.6246 20.0251C16.6478 19.9094 16.6478 19.7938 16.6015 19.6782C16.6015 19.6551 16.5784 19.6551 16.5784 19.6551C16.5784 19.6319 16.5553 19.6088 16.5321 19.5857C16.4859 19.4932 16.4396 19.4238 16.3703 19.3544C16.3471 19.3082 16.324 19.2851 16.2778 19.2388V19.1926C16.1159 18.9844 16.0003 18.7532 15.9078 18.5219C15.8846 18.4526 15.8846 18.3601 15.9309 18.2907C15.9309 18.2676 15.954 18.2676 15.954 18.2676L15.8846 18.0826C17.064 17.3657 17.9659 16.2557 18.3821 14.9376L18.5671 14.9607C18.5903 14.9607 18.5903 14.9376 18.5903 14.9376C18.6365 14.8913 18.7059 14.8682 18.7753 14.8682H18.7984C19.0528 14.9144 19.3071 14.9838 19.5384 15.0763H19.5615C19.6078 15.0994 19.654 15.1226 19.7003 15.1226C19.7928 15.1688 19.8621 15.2151 19.9546 15.2382C19.9778 15.2382 20.0009 15.2613 20.0471 15.2613C20.0703 15.2613 20.0703 15.2613 20.0934 15.2844C20.1396 15.3076 20.1628 15.3076 20.209 15.3076C20.4171 15.3076 20.6021 15.1688 20.6715 14.9838C20.6484 14.7294 20.4634 14.5444 20.2553 14.4982ZM13.5721 13.7813L12.9477 14.0819L12.3234 13.7813L12.1615 13.1107L12.6009 12.5557H13.2946L13.734 13.1107L13.5721 13.7813ZM17.3415 12.2782C17.4571 12.7638 17.4803 13.2494 17.434 13.7351L15.2371 13.1107C15.029 13.0644 14.9134 12.8563 14.9596 12.6482C14.9828 12.5788 15.0059 12.5326 15.0521 12.4863L16.7865 10.9138C17.0409 11.3301 17.2259 11.7926 17.3415 12.2782ZM16.0928 10.0582L14.1965 11.3994C14.0346 11.4919 13.8034 11.4688 13.6877 11.3069C13.6415 11.2607 13.6184 11.2144 13.6184 11.1451L13.4796 8.80943C14.4971 8.92506 15.399 9.36443 16.0928 10.0582ZM11.9071 8.87881L12.3696 8.78631L12.254 11.0988C12.254 11.3069 12.069 11.4688 11.8609 11.4688C11.7915 11.4688 11.7452 11.4457 11.6759 11.4226L9.75648 10.0582C10.3577 9.48006 11.0977 9.06381 11.9071 8.87881ZM9.08586 10.9138L10.7971 12.4401C10.959 12.5788 10.9821 12.8101 10.8434 12.9719C10.7971 13.0413 10.7509 13.0644 10.6584 13.0876L8.41523 13.7351C8.34585 12.7638 8.57711 11.7694 9.08586 10.9138ZM8.69273 14.8219L10.9821 14.4288C11.1671 14.4288 11.3521 14.5444 11.3752 14.7294C11.3984 14.7988 11.3984 14.8913 11.3521 14.9607L10.4734 17.0882C9.66398 16.5563 9.01648 15.7469 8.69273 14.8219ZM13.9421 17.6894C13.6184 17.7588 13.2946 17.8051 12.9477 17.8051C12.4621 17.8051 11.9534 17.7126 11.4909 17.5738L12.624 15.5157C12.7396 15.3769 12.9246 15.3307 13.0865 15.4232C13.1559 15.4694 13.2021 15.5157 13.2715 15.5851L14.3815 17.5969C14.2428 17.6201 14.104 17.6432 13.9421 17.6894ZM16.7634 15.6776C16.4165 16.2326 15.9309 16.7182 15.3759 17.0651L14.474 14.8913C14.4278 14.7063 14.5203 14.5213 14.6821 14.4519C14.7515 14.4288 14.8209 14.4057 14.8903 14.4057L17.2028 14.7988C17.0871 15.1226 16.9484 15.4232 16.7634 15.6776Z" fill="white"/>
</g>
<defs>
<clipPath id="kubernetes">
<rect width="20.2222" height="20.2222" fill="white" transform="translate(2.88867 2.89062)"/>
</clipPath>
</defs>
</svg>
