<svg width="100%" height="100%" viewBox="0 0 26 26" fill="none" xmlns="http://www.w3.org/2000/svg">
<circle cx="13" cy="13" r="12.5" fill="white" stroke="#E2EAEC"/>
<path d="M10.3379 6.77717L10.5945 13.1685L15.2144 7.27796C15.2832 7.19032 15.3896 7.13398 15.5023 7.1152C15.615 7.10268 15.7277 7.13398 15.8153 7.20284L18.6949 9.51275L17.7559 5.40625L10.3379 6.77717Z" fill="#5172B8"/>
<path d="M10.7559 14.3477H14.8499L12.3334 12.332L10.7559 14.3477Z" fill="#253D98"/>
<path d="M15.6137 8.14453L12.8594 11.6626L15.7953 14.0163L18.5747 10.5233L15.6137 8.14453Z" fill="#3357A7"/>
<path d="M9.56676 6.16496L11.9893 3.12891L8.08316 5.00688L7.11914 9.23231L9.56676 6.16496Z" fill="#C2DBF2"/>
<path d="M7.16992 10.528L9.76778 13.7831L9.51739 7.58594L7.16992 10.528Z" fill="#799BD0"/>
<path d="M16.9971 4.68722L13.2662 2.89062L10.9375 5.80774L16.9971 4.68722Z" fill="#A6C1E5"/>
<path d="M6.70023 17.0117H6.03042L4.89112 18.3138V17.0117H4.33398V20.0165H4.89112V19.065L5.15403 18.7708L6.10554 20.0165H6.78161L5.51711 18.3513L6.70023 17.0117Z" fill="#5172B8"/>
<path d="M8.16459 19.3172C8.16459 19.3985 8.13329 19.4486 8.06443 19.4924C7.98305 19.5425 7.88915 19.5675 7.77022 19.5675C7.65754 19.5675 7.56364 19.5425 7.48226 19.4924C7.4134 19.4486 7.3821 19.3923 7.3821 19.3172V17.8149H6.84375V19.3046C6.84375 19.5488 6.94391 19.7428 7.14422 19.8805C7.33202 20.012 7.54486 20.0746 7.77648 20.0746C8.00809 20.0746 8.22093 20.0057 8.40873 19.8743C8.60904 19.7366 8.7092 19.5425 8.7092 19.2984V17.8086H8.17085V19.3172H8.16459Z" fill="#5172B8"/>
<path d="M10.8387 18.1208C10.7699 18.0081 10.6634 17.9205 10.5382 17.8516C10.413 17.7828 10.2691 17.7515 10.1 17.7515C9.9498 17.7515 9.78705 17.7765 9.61803 17.8266V16.8125H9.08594V20.0176H9.80583C10.2252 20.0176 10.5382 19.9174 10.7386 19.7171C10.9389 19.5168 11.0453 19.2226 11.0453 18.847C11.0453 18.7218 11.0265 18.5903 10.9952 18.4714C10.9576 18.3462 10.9076 18.2272 10.8387 18.1208ZM9.80583 19.5105H9.61803V18.3274C9.75575 18.2836 9.91225 18.2585 10.1 18.2585C10.2378 18.2585 10.3317 18.3086 10.3943 18.4088C10.4631 18.5277 10.5007 18.6654 10.5007 18.8282C10.5007 19.0723 10.4506 19.2476 10.3442 19.354C10.244 19.4604 10.0625 19.5105 9.80583 19.5105Z" fill="#5172B8"/>
<path d="M13.2354 19.0372C13.2354 18.455 13.0727 17.7539 12.2965 17.7539C11.9898 17.7539 11.7331 17.8603 11.5454 18.0732C11.3576 18.2797 11.2637 18.5614 11.2637 18.912C11.2637 19.0685 11.2887 19.2187 11.3325 19.3502C11.3763 19.4879 11.4452 19.6131 11.5391 19.7195C11.633 19.8322 11.7582 19.9198 11.9084 19.9824C12.0586 20.045 12.2339 20.0763 12.428 20.0763C12.647 20.0763 12.8724 20.0325 13.0789 19.9511L13.1415 19.9261V19.3877L12.9976 19.4503C12.8286 19.5255 12.622 19.5693 12.3779 19.5693C12.1838 19.5693 12.0524 19.5192 11.9585 19.4128C11.8896 19.3251 11.8396 19.2375 11.8145 19.1373H13.2292V19.0372H13.2354ZM12.3028 18.261C12.4217 18.261 12.5093 18.3048 12.5719 18.3924C12.6283 18.4675 12.6658 18.5677 12.6846 18.6804H11.8396C11.8646 18.5677 11.9147 18.4738 11.9835 18.3987C12.0712 18.3048 12.1776 18.261 12.3028 18.261Z" fill="#5172B8"/>
<path d="M13.9434 16.9893C13.8307 17.102 13.7681 17.2523 13.7681 17.4401V17.8157H13.4551V18.3227H13.7681V20.0192H14.3064V18.3227H14.8385V17.8157H14.3064V17.6216C14.3064 17.4463 14.3377 17.39 14.3502 17.3712C14.3565 17.3587 14.4003 17.3274 14.5443 17.3274H14.9575V16.8203H14.3628C14.2 16.8203 14.056 16.8767 13.9434 16.9893Z" fill="#253D98"/>
<path d="M15.7454 16.8125H15.207V20.0113H15.7454V16.8125Z" fill="#253D98"/>
<path d="M17.2746 17.7578C16.9365 17.7578 16.6486 17.8705 16.4294 18.0958C16.2103 18.3212 16.0977 18.5966 16.0977 18.9222C16.0977 19.2477 16.2103 19.5231 16.4232 19.7485C16.6423 19.9738 16.924 20.0865 17.2683 20.0865C17.6064 20.0865 17.8881 19.9738 18.1072 19.7485C18.3263 19.5231 18.439 19.2477 18.439 18.9284C18.439 18.6092 18.3263 18.3275 18.1072 18.1084C17.8943 17.8705 17.6126 17.7578 17.2746 17.7578ZM17.2746 19.5732C17.0805 19.5732 16.9303 19.5106 16.8176 19.3854C16.6986 19.2602 16.6423 19.1037 16.6423 18.9159C16.6423 18.7281 16.6986 18.5716 16.8176 18.4464C16.9303 18.3212 17.0805 18.2586 17.2746 18.2586C17.4686 18.2586 17.6126 18.3212 17.7316 18.4464C17.8505 18.5716 17.9069 18.7281 17.9069 18.9159C17.9069 19.1037 17.8505 19.2602 17.7316 19.3854C17.6189 19.5106 17.4686 19.5732 17.2746 19.5732Z" fill="#253D98"/>
<path d="M21.0979 17.8164L20.7098 19.1435L20.3279 17.8164H19.8397L19.4515 19.1435L19.0697 17.8164H18.5L19.1886 20.0199H19.7458L20.0963 18.7554L20.4469 20.0199H20.979L21.6676 17.8164H21.0979Z" fill="#253D98"/>
</svg>
