<svg width="100%" height="100%" viewBox="0 0 128 128" fill="none" xmlns="http://www.w3.org/2000/svg">
<path d="M68.2898 126.19C53.2898 126.37 44.2198 122.83 36.4398 116.45C20.6998 103.55 9.73978 87.34 4.84978 67.47C1.00978 51.87 4.26978 37.43 15.2498 25.72C32.9998 6.79999 55.0998 -1.26001 80.9898 2.07999C87.6898 2.93999 93.8798 5.72999 98.9998 10.12C121.19 29.2 134.71 62.44 115.66 93.96C104.09 113.07 86.4798 124.47 68.2898 126.19Z" fill="#E00083"/>
<path d="M72 75.97C76.06 81.01 80.12 86.06 84.17 91.1C84.9 92.01 85.54 93.01 86.37 93.8C88.43 95.76 90.91 97.27 93.36 94.91C95.65 92.71 94.33 90.22 92.49 88.33C89.24 85 85.82 81.83 82.46 78.6C81.41 77.59 80.33 76.61 78.79 75.16C83.07 74.75 86.25 76.32 89.51 77.12C96.45 78.82 103.29 80.89 110.19 82.72C112.2 83.25 113.77 83.64 112.25 86.28C107.4 94.7 101.78 102.41 93.97 107.97C86.17 97.48 78.57 87.24 70.96 77C66.37 72.31 66.17 72.28 63.08 78.44C60.63 83.34 58.23 88.29 56.25 93.39C55.35 95.7 54.45 98.9 58.21 100.02C61.96 101.13 63.92 99.02 64.53 95.59C65.36 90.9 65.96 86.17 66.83 80.24C75.52 90.65 77.96 103.41 86.53 112.66C76.9 117.78 66.99 120.21 56.19 117.86C53.32 117.23 51.42 116.29 51.5 112.74C51.59 108.93 51.38 105.02 50.57 101.32C48.26 90.84 51.95 82.85 59.78 76.1C61.49 74.62 65.98 72.91 63.29 70.35C60.57 67.76 58.7 72.16 57.05 74.05C49.48 82.75 40.77 90.23 32.21 97.88C29.77 100.06 28.79 98.85 27.15 97.07C25.28 95.05 25.24 93.85 27.45 91.98C35.97 84.79 44.33 77.41 52.73 70.06C54.2 68.78 56.6 67.6 56.02 65.45C55.34 62.92 52.5 63.32 50.47 63.25C42.99 63 35.49 62.91 28 62.9C25.08 62.9 21.79 63.42 21.85 67.16C21.92 71.37 25.41 71.39 28.5 71.06C34.44 70.43 40.36 69.63 46.4 68.89C46.29 71.02 44.58 71.4 43.48 72.2C37.82 76.3 32.09 80.3 26.37 84.31C20.32 88.55 20.32 88.53 16.84 81.7C13.49 75.11 11.21 68.22 10.9 60.76C10.82 58.7 10.51 56.73 13.7 56.88C15.17 56.95 15.95 55.62 16.09 54.15C16.24 52.67 15.7 51.32 14.24 51C11.65 50.42 11.63 48.86 12.32 46.92C13.15 44.59 14.86 46.04 16.1 46.24C29.56 48.41 43 50.71 56.46 52.86C58.14 53.13 60.39 53.97 61.43 51.89C62.26 50.23 60.77 48.73 59.8 47.47C55.01 41.29 50.16 35.15 45.23 29.08C43.48 26.93 41.19 25.01 38.45 27.36C35.56 29.84 36.95 32.54 39.11 34.69C42.97 38.53 47.01 42.19 50.75 46.55C38.83 45.13 27.67 40.26 15.08 39.83C18.19 31.25 23.95 25.41 30.32 20.05C32.35 18.34 34.45 15.87 36.76 15.55C39.59 15.16 39.94 19.08 41.52 20.97C48.33 29.16 54.93 37.52 61.41 45.97C63.92 49.24 65.67 49.73 67.57 45.63C70.29 39.76 73.66 34.16 75.36 27.85C76.03 25.37 76.5 22.64 72.97 21.91C69.89 21.27 67.92 22.68 66.99 25.75C65.51 30.65 66.35 35.95 64.14 41.67C56.11 31.91 53.16 19.89 45.45 10.5C55.23 5.73003 65.19 4.49003 75.66 6.40003C78.65 6.95003 79.82 8.41003 79.87 11.41C79.92 14.56 80.21 17.74 80.78 20.84C82.74 31.33 79.49 39.72 71.33 46.52C69.71 47.87 65.72 49.65 68.1 51.99C70.83 54.68 72.48 50.52 73.97 48.77C81.76 39.59 90.8 31.73 99.66 23.66C102.24 21.31 103.31 22.95 104.75 24.63C106.27 26.39 108.06 27.76 105.12 30.18C96.26 37.46 87.59 45 78.9 52.5C77.35 53.84 74.62 55.06 75.62 57.49C76.41 59.42 79.08 59.06 81.06 59.14C88.38 59.43 95.7 59.75 103.02 59.92C105.94 59.99 109.17 59.7 109.14 55.78C109.11 51.54 105.73 51.38 102.63 51.65C96.96 52.16 91.3 52.9 85.64 53.54C85.47 53.15 85.3 52.75 85.13 52.36C93.44 46.61 101.76 40.88 110.06 35.11C111.57 34.06 112.34 34.67 113.14 36.07C117.82 44.22 120.01 52.96 119.58 62.34C119.57 62.51 119.61 62.72 119.52 62.83C116.78 66.19 114.56 69.31 117.15 74.17C118.17 76.08 115.37 76.48 113.38 76.13C101.09 74 88.8 71.94 76.49 69.92C74.45 69.58 71.98 68.07 70.4 70.13C68.72 72.31 71.29 74.21 72 75.97Z" fill="#FDFDFD"/>
<path d="M42.9598 111.07C42.0498 110.94 41.8598 110.97 41.7398 110.88C33.1898 105.07 33.1898 105.07 40.0598 97.42C41.6898 95.61 43.3298 93.8 45.9398 90.91C45.2298 98.59 43.0498 104.59 42.9598 111.07Z" fill="#F9F9F9"/>
<path d="M85.21 30.71C86.17 24.94 87.17 19.58 87.92 14.18C88.22 11.98 88.94 11.58 90.72 12.77C91.13 13.05 91.58 13.27 92 13.54C97.83 17.18 97.83 17.18 93.29 22.35C90.99 24.97 88.69 27.59 86.37 30.19C86.17 30.4 85.79 30.45 85.21 30.71Z" fill="#F9F9F9"/>
<path d="M22.97 58.66C20.39 58.66 18.8701 57.61 19.0301 54.78C19.1801 51.98 20.6801 51.08 23.3301 51.35C33.2301 52.35 43.14 53.34 52.94 55.12C53.75 55.27 54.5401 55.57 55.3 55.88C56.34 56.3 57.74 56.62 57.37 58.14C57.08 59.31 55.7701 59.22 54.84 59.23C49.3701 59.29 43.89 59.26 38.42 59.26L22.97 58.66Z" fill="#E00083"/>
<path d="M108.1 64.2C110.8 64.18 112.74 65 112.53 68.13C112.32 71.17 110.57 71.79 107.72 71.45C97.8398 70.29 87.9498 69.21 78.2298 67.02C76.5798 66.65 73.9498 66.46 74.3798 64.16C74.7398 62.27 77.1998 62.95 78.7598 63.01C83.3998 63.18 88.0398 63.53 92.6698 63.81L108.1 64.2Z" fill="#E00083"/>
</svg>
