<svg width="100%" height="100%" viewBox="0 0 26 26" fill="none" xmlns="http://www.w3.org/2000/svg">
<circle cx="13" cy="13" r="12.5" fill="white" stroke="#E2EAEC"/>
<g clip-path="url(#linkedIn0)">
<path d="M13 0C5.82024 0 0 5.82024 0 13C0 20.1797 5.82024 25.9999 13 25.9999C20.1797 25.9999 26 20.1797 26 13C25.9999 5.82024 20.1796 0 13 0ZM9.53156 19.2849H6.67728V10.0635H9.53156V19.2849ZM8.09082 8.85591C7.15864 8.85591 6.40295 8.09405 6.40295 7.15441C6.40295 6.21466 7.15874 5.45286 8.09082 5.45286C9.02289 5.45286 9.77858 6.21466 9.77858 7.15441C9.77863 8.09411 9.02294 8.85591 8.09082 8.85591ZM20.228 19.2849H17.3875V14.4444C17.3875 13.1168 16.8832 12.3758 15.8335 12.3758C14.691 12.3758 14.0941 13.1476 14.0941 14.4444V19.2849H11.3565V10.0635H14.0941V11.3055C14.0941 11.3055 14.9176 9.78224 16.8729 9.78224C18.8283 9.78224 20.228 10.9762 20.228 13.446L20.228 19.2849Z" fill="url(#linkedIn1)"/>
<circle cx="13" cy="13" r="12.5" stroke="#E2EAEC"/>
</g>
<defs>
<linearGradient id="linkedIn1" x1="3.8076" y1="3.8076" x2="22.1923" y2="22.1923" gradientUnits="userSpaceOnUse">
<stop stop-color="#2489BE"/>
<stop offset="1" stop-color="#0575B3"/>
</linearGradient>
<clipPath id="linkedIn0">
<rect width="26" height="26" fill="white"/>
</clipPath>
</defs>
</svg>
