<svg width="100%" height="100%" viewBox="0 0 18 18" fill="none" xmlns="http://www.w3.org/2000/svg">
<circle cx="9" cy="9" r="8.5" fill="white" stroke="#E2EAEC"/>
<g clip-path="url(#litmus0)">
<path d="M7.71218 11.0635L5.65479 13.9192C6.5507 14.5497 7.64575 14.9146 8.80912 14.9457V11.4286C8.411 11.3953 8.04387 11.2979 7.71406 11.0635H7.71218Z" fill="#48555C"/>
<path d="M8.80716 6.55039V3C7.64585 3.03322 6.54874 3.39812 5.65283 4.02656L7.71042 6.88226C8.04228 6.6831 8.40719 6.58361 8.80548 6.55039H8.80716Z" fill="#B2AD4B"/>
<path d="M12.3244 4.02656C11.4285 3.39812 10.3314 3.03322 9.17419 3V6.51718C9.57231 6.55039 9.93944 6.68516 10.2693 6.88226L12.3244 4.02656Z" fill="#E4B33A"/>
<path d="M6.74777 9.93457L3.42957 10.9985C3.82768 12.0935 4.49346 13.0225 5.38935 13.6862L7.44658 10.8305C7.14795 10.5983 6.91575 10.2997 6.74983 9.93457H6.74777Z" fill="#4E5C5A"/>
<path d="M7.41355 7.11419L5.38935 4.26074C4.49346 4.95749 3.82973 5.88457 3.42957 6.98169L6.74777 8.07655C6.87842 7.67844 7.14589 7.3798 7.41148 7.11419H7.41355Z" fill="#9F9540"/>
<path d="M6.58393 8.97268C6.58393 8.77354 6.61716 8.57456 6.65036 8.40864L3.33216 7.31152C3.16418 7.84459 3.09998 8.40864 3.09998 8.97268C3.09998 9.56994 3.16643 10.1008 3.33216 10.665L6.65036 9.56994C6.58393 9.3708 6.58393 9.20486 6.58393 8.97268Z" fill="#6A7B54"/>
<path d="M10.5658 10.8645L12.623 13.7202C13.5189 13.0235 14.1826 12.0964 14.5828 10.9993L11.2646 9.90234C11.0966 10.2674 10.8665 10.5991 10.5678 10.8647L10.5658 10.8645Z" fill="#D55641"/>
<path d="M9.20539 11.4286V14.9457C10.3667 14.9125 11.4638 14.5476 12.3597 13.9192L10.3003 11.0635C9.9684 11.2626 9.60351 11.3953 9.2052 11.4286H9.20539Z" fill="#993428"/>
<path d="M14.6803 7.31152L11.3621 8.40658C11.3953 8.60572 11.4285 8.8047 11.4285 9.00384C11.4285 9.20299 11.3953 9.40196 11.3621 9.56994L14.6803 10.665C14.8482 10.1342 14.9124 9.56994 14.9124 9.00384C14.9124 8.40658 14.846 7.84254 14.6803 7.31152Z" fill="#E8703E"/>
<path d="M11.2646 8.04352L14.5828 6.94846C14.1847 5.8534 13.5189 4.92445 12.623 4.26074L10.5658 7.11644C10.8644 7.38185 11.0966 7.68048 11.2625 8.04556L11.2646 8.04352Z" fill="#F2A838"/>
</g>
<defs>
<clipPath id="litmus0">
<rect width="12" height="12" fill="white" transform="translate(3.09998 3)"/>
</clipPath>
</defs>
</svg>
