<svg width="100%" height="100%" viewBox="0 0 26 26" fill="none" xmlns="http://www.w3.org/2000/svg">
<circle cx="13" cy="13" r="12.5" fill="white" stroke="#E2EAEC"/>
<path d="M8.02343 14.215C7.79232 14.2255 7.56861 14.2298 7.366 14.2298C6.87847 14.2298 6.41626 14.1939 6.41626 13.3359V10.167H6.73389V13.0869C6.73389 13.7264 6.82043 13.8541 7.35122 13.8541H8.01921V14.215H8.02343ZM8.28408 10.4815C8.28408 10.2525 8.32418 10.1712 8.46453 10.1712C8.60488 10.1712 8.64498 10.2525 8.64498 10.4815C8.64498 10.7105 8.6091 10.7864 8.46453 10.7864C8.31995 10.7864 8.28408 10.7105 8.28408 10.4815ZM8.31679 11.122H8.61332V14.2203H8.31362L8.31679 11.122ZM10.1508 13.9607C10.097 14.1643 10.0284 14.2604 9.91657 14.2604C9.80049 14.2604 9.72873 14.1643 9.67491 13.9607L8.89824 11.122H9.22009L9.92395 13.7581L10.6352 11.122H10.9423L10.1508 13.9607ZM10.9993 12.6711C10.9993 11.5483 11.2378 11.0819 11.9638 11.0819C12.7109 11.0819 12.9135 11.6306 12.9135 12.4791C12.9135 12.5656 12.9104 12.6827 12.9061 12.7735C12.6529 12.8347 12.1295 12.9054 11.8266 12.9212L11.3063 12.9518C11.3422 13.5871 11.4794 13.9121 12.0355 13.9121C12.3205 13.9121 12.5885 13.8667 12.8122 13.8256L12.8375 14.1654C12.5843 14.216 12.3321 14.2667 11.9163 14.2667C11.1913 14.2604 10.9993 13.5903 10.9993 12.6711ZM11.8772 12.5846C12.0725 12.574 12.4007 12.5339 12.6033 12.4981C12.6064 12.4369 12.6107 12.3461 12.6107 12.2849C12.6107 11.7615 12.4481 11.427 11.9638 11.427C11.4077 11.427 11.2916 11.8227 11.2916 12.6258L11.8772 12.5846Z" fill="#809FB4"/>
<path d="M13.9498 14.2203H13.3652V10.2388C13.6143 10.1723 13.9572 10.127 14.3002 10.127C14.9355 10.127 15.4557 10.3042 15.4557 11.4017C15.4557 12.1182 15.2425 12.4528 14.9028 12.6005L15.5633 14.2203H14.888L14.2991 12.6965C14.1799 12.6965 14.0459 12.686 13.9456 12.6817L13.9498 14.2203ZM13.9498 12.0212C14.0691 12.0412 14.1883 12.0412 14.3034 12.0412C14.6643 12.0412 14.8774 11.9093 14.8774 11.3964C14.8774 10.949 14.7329 10.7717 14.3139 10.7717C14.1978 10.7717 14.0649 10.7823 13.9456 10.8076L13.9498 12.0212ZM15.7375 13.2706C15.7375 12.7218 15.9074 12.3821 16.3474 12.285C16.5785 12.2343 16.8096 12.2185 17.0513 12.209C17.0513 11.8534 16.932 11.6909 16.6471 11.6909C16.3801 11.6909 16.091 11.732 15.8704 11.7721L15.8272 11.198C16.0583 11.1421 16.3685 11.0809 16.6904 11.0809C17.1811 11.0809 17.5895 11.274 17.5895 12.076V13.3814C17.5895 13.5945 17.5821 13.7729 17.5715 13.9702C17.3183 14.1781 16.9827 14.2594 16.5891 14.2594C15.9791 14.2604 15.7375 13.9301 15.7375 13.2706ZM17.0523 12.7166C16.8866 12.7271 16.6988 12.7366 16.5426 12.7873C16.3474 12.8538 16.2756 12.9392 16.2756 13.2643C16.2756 13.5893 16.4097 13.6758 16.6471 13.6758C16.7695 13.6758 16.9141 13.6653 17.0333 13.5893C17.0407 13.4626 17.0481 13.3149 17.0481 13.1724L17.0523 12.7166ZM18.4896 14.2203H17.944V11.9547C17.944 11.7415 17.9514 11.5632 17.962 11.3658C18.2078 11.1833 18.5508 11.0767 18.8938 11.0767C19.1354 11.0767 19.3053 11.1432 19.4246 11.254C19.6198 11.1474 19.8646 11.0767 20.0999 11.0767C20.8038 11.0767 20.9093 11.6096 20.9093 12.2449V14.215H20.3637V12.3103C20.3637 11.9093 20.2951 11.6909 19.9881 11.6909C19.9015 11.6909 19.7749 11.7215 19.6736 11.7922C19.6958 11.9293 19.7021 12.0813 19.7021 12.2343V14.2045H19.1565V12.2997C19.1565 11.904 19.0911 11.6803 18.7882 11.6803C18.6943 11.6803 18.5751 11.7162 18.5065 11.7616C18.4991 11.8882 18.4917 12.0359 18.4917 12.1784L18.4896 14.2203ZM21.8506 15.6724H21.305V11.9547C21.305 11.7415 21.3124 11.5632 21.323 11.3658C21.572 11.1622 21.9118 11.0767 22.2115 11.0767C22.9449 11.0767 23.2552 11.4524 23.2552 12.6659C23.2552 13.8647 22.9555 14.2551 22.2769 14.2551C22.1429 14.2551 21.9878 14.2298 21.858 14.1887L21.8506 15.6724ZM22.1577 13.6558C22.6853 13.6558 22.6959 13.2389 22.6959 12.6754C22.6959 12.1731 22.6737 11.6898 22.2052 11.6898C22.0828 11.6898 21.9456 11.7204 21.8622 11.7711C21.8548 11.8977 21.8474 12.0454 21.8474 12.1879V13.5893C21.9414 13.6252 22.0638 13.6558 22.1577 13.6558Z" fill="#809FB4"/>
<path d="M3.06161 14.3115L2.16675 15.6369H3.32543L3.06161 14.3115Z" fill="#809FB4"/>
<path d="M3.23901 14.2715L3.51022 15.637H5.90039V15.1653L3.23901 14.2715Z" fill="#3B7E3E"/>
<path d="M3.34766 14.0483L5.89717 14.9115V12.7988L3.34766 14.0483Z" fill="#73BF6A"/>
<path d="M3.44482 13.7372L5.89726 12.5342V10.1113L3.44482 13.7372Z" fill="#A2D397"/>
<path d="M23.8335 11.4277C23.8335 11.4731 23.8261 11.5142 23.8156 11.5501C23.805 11.586 23.7902 11.6208 23.7691 11.6419C23.747 11.6672 23.729 11.6873 23.7037 11.7031C23.6784 11.7179 23.653 11.7232 23.6246 11.7232C23.5918 11.7232 23.5665 11.7126 23.5412 11.6979C23.5159 11.6831 23.4905 11.662 23.4758 11.6314C23.4578 11.6008 23.4431 11.5754 23.4325 11.5396C23.4219 11.5037 23.4177 11.4636 23.4177 11.4224C23.4177 11.3771 23.4251 11.3359 23.4357 11.3C23.4462 11.2641 23.461 11.2293 23.4821 11.2082C23.5043 11.1829 23.5222 11.1628 23.5475 11.147C23.5728 11.1322 23.5982 11.127 23.6267 11.127C23.6552 11.127 23.6805 11.1375 23.7058 11.147C23.7311 11.1565 23.7522 11.1829 23.7712 11.2082C23.7892 11.2335 23.8071 11.2641 23.8177 11.3C23.8261 11.3412 23.8335 11.3813 23.8335 11.4277ZM23.7871 11.4277C23.7871 11.3918 23.7839 11.357 23.7765 11.3264C23.7691 11.2958 23.7544 11.2705 23.7406 11.2504C23.7259 11.2304 23.7079 11.2093 23.69 11.1998C23.6678 11.1892 23.6499 11.185 23.6246 11.185C23.5992 11.185 23.5781 11.1903 23.5591 11.1998C23.537 11.2103 23.5233 11.2304 23.5085 11.2504C23.4937 11.2757 23.4832 11.3011 23.4726 11.3264C23.4652 11.357 23.462 11.3929 23.462 11.4277C23.462 11.4583 23.4652 11.4942 23.4726 11.5237C23.48 11.5533 23.4905 11.5797 23.5053 11.5997C23.5201 11.625 23.538 11.6409 23.556 11.6504C23.5739 11.6609 23.5992 11.6704 23.6246 11.6704C23.6467 11.6704 23.6678 11.6651 23.69 11.6556C23.7121 11.6451 23.7259 11.625 23.7406 11.605C23.7554 11.5849 23.766 11.5543 23.7765 11.529C23.7828 11.4931 23.7871 11.4625 23.7871 11.4277ZM23.5813 11.5944H23.5454V11.2589H23.6362C23.6647 11.2589 23.6868 11.2694 23.7016 11.2842C23.7164 11.299 23.7237 11.3253 23.7237 11.3549C23.7237 11.3855 23.7164 11.4055 23.7058 11.4214C23.6953 11.4372 23.6805 11.4414 23.6625 11.4467L23.728 11.5944H23.6847L23.6235 11.452H23.5876L23.5813 11.5944ZM23.6246 11.4119C23.6319 11.4119 23.6393 11.4119 23.6467 11.4119C23.6541 11.4119 23.6573 11.4066 23.6647 11.4013C23.672 11.396 23.672 11.3908 23.6752 11.3865C23.6784 11.376 23.6826 11.3718 23.6826 11.3559C23.6826 11.3454 23.6794 11.3412 23.6752 11.3306C23.672 11.3253 23.6678 11.3201 23.6647 11.3201C23.6615 11.3201 23.6573 11.3095 23.6499 11.3095C23.6425 11.3095 23.6393 11.3095 23.6319 11.3095H23.5855V11.4055H23.6256V11.4119H23.6246Z" fill="#80A1B6"/>
</svg>
