<svg width="18" height="18" viewBox="0 0 18 18" fill="none" xmlns="http://www.w3.org/2000/svg">
<path fill-rule="evenodd" clip-rule="evenodd" d="M9 18C13.9706 18 18 13.9706 18 9C18 4.02944 13.9706 0 9 0C4.02944 0 0 4.02944 0 9C0 13.9706 4.02944 18 9 18ZM11.0358 5.25C11.0358 4.55965 11.5954 4 12.2858 4H14.5805C15.2708 4 15.8305 4.55964 15.8305 5.25V8.26049C15.8305 8.95084 15.2708 9.51049 14.5805 9.51049H12.2858C11.5954 9.51049 11.0358 8.95084 11.0358 8.26049V5.25ZM12.2858 4.5C11.8716 4.5 11.5358 4.83579 11.5358 5.25V8.26049C11.5358 8.6747 11.8716 9.01049 12.2858 9.01049H14.5805C14.9947 9.01049 15.3305 8.6747 15.3305 8.26049V5.25C15.3305 4.83579 14.9947 4.5 14.5805 4.5H12.2858ZM14.079 4.65626C14.118 4.61721 14.1813 4.61721 14.2204 4.65626L14.6976 5.13345L15.1748 5.61064C15.2138 5.64969 15.2138 5.71301 15.1748 5.75206C15.1357 5.79112 15.0724 5.79112 15.0333 5.75206L14.5562 5.27487L14.079 4.79768C14.0399 4.75863 14.0399 4.69532 14.079 4.65626ZM14.5562 4.65626C14.5952 4.61721 14.6585 4.61721 14.6976 4.65626L15.1748 5.13345C15.2138 5.1725 15.2138 5.23582 15.1748 5.27487C15.1357 5.31393 15.0724 5.31393 15.0333 5.27487L14.5562 4.79768C14.5171 4.75863 14.5171 4.69532 14.5562 4.65626ZM13.4333 6.71475C13.6077 6.71475 13.7491 6.57337 13.7491 6.39897C13.7491 6.22456 13.6077 6.08318 13.4333 6.08318C13.2589 6.08318 13.1175 6.22456 13.1175 6.39897C13.1175 6.57337 13.2589 6.71475 13.4333 6.71475ZM13.4333 7.11475C13.8286 7.11475 14.1491 6.79428 14.1491 6.39897C14.1491 6.00365 13.8286 5.68318 13.4333 5.68318C13.038 5.68318 12.7175 6.00365 12.7175 6.39897C12.7175 6.79428 13.038 7.11475 13.4333 7.11475ZM13.433 7.69502C13.093 7.69509 12.847 7.78901 12.7615 7.8745C12.7533 7.88276 12.7447 7.89384 12.7361 7.90765H14.1301C14.1214 7.8937 14.1127 7.88253 14.1044 7.87422C14.0687 7.83849 13.9928 7.79069 13.8642 7.75256C13.7397 7.71565 13.5894 7.69499 13.433 7.69502ZM14.5631 7.90765C14.5279 7.79355 14.473 7.67709 14.3873 7.59142C13.992 7.19605 12.8738 7.19629 12.4786 7.59176C12.393 7.67739 12.3381 7.7937 12.303 7.90765C12.24 8.11141 12.24 8.30765 12.24 8.30765H12.6401H14.2259H14.626C14.626 8.30765 14.6259 8.11141 14.5631 7.90765ZM7.96956 9.88193C9.20427 9.88193 10.2043 8.88767 10.2043 7.66012C10.2043 6.43258 9.20427 5.43832 7.96956 5.43832C6.73486 5.43832 5.7348 6.43258 5.7348 7.66012C5.7348 8.88767 6.73486 9.88193 7.96956 9.88193ZM7.96956 6.54922C8.58412 6.54922 9.08695 7.04913 9.08695 7.66012C9.08695 8.27112 8.58412 8.77103 7.96956 8.77103C7.355 8.77103 6.85218 8.27112 6.85218 7.66012C6.85218 7.04913 7.355 6.54922 7.96956 6.54922ZM11.5396 11.3039C10.601 10.8262 9.38305 10.4374 7.96956 10.4374C6.55608 10.4374 5.33813 10.8262 4.39953 11.3039C4.12692 11.4435 3.89855 11.6554 3.73977 11.9163C3.58099 12.1771 3.49801 12.4765 3.50004 12.7814V14.3255H12.4391V12.7814C12.4391 12.1593 12.0983 11.5872 11.5396 11.3039ZM4.61742 13.2146V12.7814C4.61742 12.5703 4.72916 12.3815 4.90794 12.2926C5.57278 11.9538 6.64547 11.5483 7.96956 11.5483C9.29366 11.5483 10.3663 11.9538 11.0312 12.2926C11.21 12.3815 11.3217 12.5703 11.3217 12.7814V13.2146H4.61742Z" fill="#00A3E0"/>
</svg>
