<svg width="100%" height="100%" viewBox="0 0 18 18" fill="none" xmlns="http://www.w3.org/2000/svg">
<path d="M18 9C18 13.9706 13.9706 18 9 18C4.02944 18 0 13.9706 0 9C0 4.02944 4.02944 0 9 0C13.9706 0 18 4.02944 18 9Z" fill="#FFE01B"/>
<g clip-path="url(#mailchimp0)">
<path d="M8.4941 2.5H8.71478C8.74847 2.50518 8.78217 2.51029 8.81586 2.51562C9.03043 2.54965 9.22419 2.63181 9.38228 2.78646C9.58935 2.98925 9.79297 3.19526 9.99702 3.40106C10.017 3.42118 10.0315 3.42359 10.0567 3.41217C10.3108 3.30071 10.5643 3.18768 10.8291 3.10386C11.2899 2.95815 11.7583 2.86915 12.2435 2.91384C12.4523 2.93307 12.6548 2.98023 12.8436 3.07644C13.2442 3.28066 13.4347 3.61556 13.428 4.06928C13.4241 4.33636 13.3504 4.58714 13.2428 4.82786C13.0609 5.23561 12.7997 5.58711 12.4999 5.91082C12.4909 5.92051 12.4827 5.93095 12.4758 5.93906C12.5211 5.99164 12.5664 6.03955 12.6065 6.09145C12.8086 6.35335 12.9212 6.65686 12.9951 6.97771C13.0551 7.23758 13.0586 7.50346 13.0673 7.76814C13.0733 7.95065 13.0775 8.13315 13.0814 8.31574C13.0819 8.33827 13.0892 8.34781 13.1108 8.35367C13.2054 8.37928 13.2999 8.40557 13.3936 8.43463C13.6392 8.51079 13.8782 8.6031 14.0924 8.75076C14.5174 9.04322 14.6427 9.56552 14.3995 10.026C14.3798 10.0635 14.3444 10.099 14.3423 10.137C14.3401 10.1767 14.3713 10.2175 14.3843 10.2591C14.43 10.4054 14.4737 10.5524 14.5195 10.6987C14.5234 10.7113 14.5363 10.7288 14.5465 10.73C14.6251 10.7381 14.692 10.7719 14.7524 10.8218C14.8604 10.9111 14.9224 11.0299 14.9596 11.1639C15.0122 11.3534 15.0045 11.546 14.9792 11.7375C14.9178 12.2024 14.7853 12.6449 14.5681 13.0598C14.0787 13.9944 13.3461 14.6561 12.396 15.071C11.7105 15.3703 10.9903 15.4965 10.248 15.5001C9.88765 15.5023 9.52786 15.4702 9.17336 15.404C8.69992 15.3152 8.24539 15.1674 7.81248 14.9516C7.22915 14.6606 6.72194 14.2681 6.29911 13.764C6.0158 13.4262 5.78262 13.0477 5.60705 12.6407C5.59528 12.6136 5.58116 12.6031 5.55306 12.6024C5.49673 12.6014 5.44048 12.5975 5.38453 12.5907C5.07006 12.5482 4.78435 12.4288 4.52482 12.2452C4.18644 12.0054 3.92648 11.697 3.78046 11.301C3.61215 10.844 3.62547 10.3828 3.77759 9.9234C3.78745 9.89336 3.78355 9.87758 3.75994 9.85753C3.6326 9.74968 3.50748 9.63919 3.38058 9.53074C3.19072 9.36843 3.07597 9.16159 3.02845 8.91487C3.01602 8.8502 3.00859 8.78448 2.99902 8.71959V8.48601C3.00241 8.45649 3.00594 8.42697 3.0091 8.39738C3.03669 8.13871 3.10157 7.88928 3.18815 7.64526C3.3669 7.1416 3.61826 6.67593 3.90757 6.23145C4.53385 5.26761 5.29944 4.40614 6.17833 3.67632C6.57556 3.34585 6.99566 3.05128 7.45711 2.82116C7.71421 2.69287 7.97939 2.58833 8.26216 2.53462C8.33889 2.52005 8.41679 2.51142 8.4941 2.5ZM13.9316 11.519L13.9415 11.5258C13.9361 11.5404 13.9342 11.5583 13.9246 11.5693C13.8472 11.6577 13.7746 11.7518 13.6892 11.8311C13.4267 12.074 13.1209 12.2471 12.7953 12.3849C12.3723 12.5639 11.9315 12.6682 11.4757 12.7079C11.1818 12.7334 10.8885 12.7394 10.5968 12.6839C10.3446 12.636 10.1044 12.5556 9.8847 12.4154C9.45819 12.1437 9.40479 11.618 9.61326 11.2767C9.74802 11.0559 9.9423 10.9547 10.2008 10.9844C10.3942 11.007 10.5884 11.0253 10.7827 11.0356C11.029 11.0486 11.2749 11.0314 11.52 11.0037C11.9233 10.9583 12.3175 10.8717 12.6993 10.7308C13.0371 10.6062 13.3588 10.4486 13.6461 10.2253C13.7905 10.1131 13.9201 9.98574 14.0054 9.81908C14.0947 9.64475 14.1113 9.46915 14.0032 9.29543C13.9508 9.21116 13.8755 9.15115 13.7938 9.09903C13.6451 9.00424 13.4815 8.94348 13.3152 8.89158C13.1607 8.84329 13.0055 8.79807 12.8512 8.74971C12.7511 8.71831 12.6907 8.64764 12.6684 8.54369C12.6597 8.50723 12.6538 8.47015 12.6507 8.43276C12.636 8.16808 12.6207 7.9034 12.6084 7.63865C12.5984 7.42084 12.5892 7.20363 12.5327 6.99198C12.496 6.85536 12.4432 6.72618 12.3421 6.62531C12.1975 6.48103 12.025 6.45482 11.8345 6.50694C11.7209 6.53811 11.6285 6.60458 11.543 6.68277C11.2487 6.95195 10.907 7.08001 10.5114 7.04929C10.3001 7.03292 10.0891 7.01234 9.87786 6.99544C9.75332 6.98545 9.62863 6.97629 9.50446 7.00295C9.17093 7.07362 8.90862 7.25831 8.7189 7.54131C8.41561 7.99413 8.38898 8.4818 8.57914 8.98607C8.67153 9.23114 8.82924 9.43475 8.9977 9.62988C9.07943 9.72459 9.16167 9.8193 9.23692 9.91934C9.30585 10.011 9.29783 10.0792 9.22265 10.1646C9.2161 10.1722 9.20948 10.1797 9.20271 10.1867C9.04753 10.3527 8.92014 10.5435 8.82564 10.7517C8.63306 11.1739 8.56126 11.6177 8.60253 12.0811C8.6296 12.385 8.70993 12.6728 8.85175 12.9418C9.09149 13.3963 9.45495 13.7143 9.90713 13.9326C10.2639 14.1047 10.6417 14.1925 11.0345 14.2142C11.5116 14.2405 11.9756 14.1696 12.4248 14.0066C12.9479 13.817 13.416 13.5387 13.8022 13.1231C14.1684 12.729 14.4262 12.2787 14.5304 11.7423C14.5555 11.613 14.5758 11.4836 14.5561 11.3513C14.5356 11.214 14.4543 11.1309 14.3203 11.1128C14.2892 11.1087 14.2576 11.1089 14.2246 11.1071C14.1823 10.8688 14.1223 10.6357 14.0246 10.415C14.0216 10.4153 14.0186 10.4159 14.0157 10.4168C13.9891 10.4368 13.9628 10.4573 13.9359 10.4769C13.31 10.9338 12.6071 11.1889 11.8504 11.3025C11.52 11.3519 11.1883 11.3766 10.8541 11.3647C10.7184 11.3598 10.5831 11.3452 10.4476 11.3351C10.3318 11.3265 10.2159 11.3106 10.1002 11.3117C9.96775 11.313 9.85741 11.4216 9.84652 11.5431C9.84934 11.5454 9.85243 11.5474 9.85571 11.5489C9.90213 11.5649 9.94833 11.5814 9.99504 11.5962C10.2516 11.6764 10.5155 11.7298 10.7827 11.7556C11.046 11.7832 11.3112 11.7881 11.5753 11.7702C11.6511 11.7649 11.7266 11.7552 11.8023 11.7506C11.8177 11.7498 11.8411 11.7611 11.8482 11.774C11.8602 11.7958 11.8452 11.814 11.8229 11.8232C11.8173 11.8256 11.8116 11.828 11.8059 11.8302C11.5571 11.9278 11.2971 11.9659 11.0329 11.9761C10.7039 11.9888 10.3799 11.9488 10.0607 11.8681C9.98033 11.8478 9.90051 11.8251 9.81577 11.8023C9.82214 11.8719 9.84557 11.9388 9.88389 11.9967C9.96017 12.1169 10.0712 12.1924 10.1959 12.2501C10.4083 12.3487 10.6344 12.3899 10.8643 12.4133C11.2365 12.4508 11.6062 12.4266 11.9723 12.3523C12.6641 12.2113 13.3009 11.9334 13.8914 11.5422C13.9043 11.5337 13.9182 11.5267 13.9316 11.519ZM3.98518 9.49867C3.99629 9.48553 4.00144 9.48027 4.00563 9.47434C4.25574 9.12704 4.59235 8.91802 5.00106 8.82444C5.02379 8.81925 5.03615 8.80942 5.04453 8.78688C5.22047 8.30688 5.43417 7.8422 5.68356 7.39741C6.05872 6.72836 6.50744 6.11594 7.04443 5.57277C7.25636 5.35856 7.48484 5.16419 7.7156 4.97191C8.21376 4.55522 8.73935 4.18014 9.28856 3.83833C9.38132 3.78049 9.4754 3.72477 9.57272 3.66558C9.52557 3.6118 9.48063 3.55931 9.43443 3.50786C9.29422 3.35224 9.15556 3.19466 8.99137 3.06473C8.95327 3.03351 8.90916 3.01084 8.86191 2.99818C8.79265 2.98226 8.72192 2.97405 8.65093 2.9737C8.42628 2.97152 8.21192 3.02808 8.00235 3.10506C7.60879 3.24949 7.2496 3.46061 6.90563 3.69998C6.35237 4.08475 5.85444 4.53539 5.39571 5.03267C4.87247 5.5995 4.41551 6.21696 4.03837 6.89472C3.84262 7.24644 3.66902 7.60868 3.55411 7.99736C3.48004 8.24792 3.42994 8.50253 3.46253 8.76615C3.47945 8.90255 3.50983 9.03721 3.60965 9.13816C3.73118 9.26028 3.85777 9.37662 3.98518 9.49852V9.49867ZM6.55768 10.7993C6.55202 10.7356 6.54474 10.612 6.52958 10.4894C6.50384 10.2808 6.44668 10.0813 6.34899 9.89486C6.11926 9.45654 5.65244 9.16692 5.12391 9.2892C4.75816 9.37384 4.47466 9.5731 4.29377 9.91303C4.1877 10.1124 4.14076 10.3284 4.13282 10.5538C4.12598 10.749 4.14525 10.9411 4.21705 11.1246C4.35836 11.4856 4.60523 11.7515 4.9339 11.9399C5.15223 12.0651 5.38608 12.1378 5.63964 12.1227C6.0126 12.1007 6.27447 11.9117 6.42726 11.5653C6.52605 11.341 6.55518 11.1026 6.55768 10.7993ZM11.3545 5.40378C11.3607 5.40177 11.3661 5.39808 11.3703 5.39311C11.3882 5.36577 11.3667 5.35556 11.3478 5.34564C10.9958 5.16178 10.6219 5.06347 10.2273 5.04522C10.2137 5.04462 10.2004 5.03771 10.187 5.0341C10.1917 5.01968 10.1925 5.00128 10.2017 4.99137C10.2637 4.92572 10.3277 4.86211 10.3903 4.79721C10.3997 4.78745 10.4054 4.77408 10.4128 4.76244C10.3991 4.75718 10.3848 4.74614 10.3717 4.74742C10.2927 4.75636 10.2132 4.76424 10.1352 4.77964C9.73595 4.85736 9.35514 5.01291 9.01359 5.23779C9.00366 5.24432 8.98917 5.24357 8.97681 5.24628C8.9749 5.23373 8.96842 5.21961 8.97188 5.20872C8.99395 5.14008 9.01668 5.07135 9.04316 5.00428C9.06184 4.95689 9.0873 4.91243 9.10848 4.86586C9.11275 4.85632 9.10929 4.84333 9.10936 4.83169C9.09914 4.83221 9.08803 4.83034 9.07876 4.83379C9.06412 4.84023 9.04995 4.84776 9.03639 4.85632C8.44849 5.18544 7.9535 5.62895 7.51353 6.14035C7.50618 6.14929 7.50691 6.16581 7.50382 6.1788C7.51677 6.17715 7.53229 6.1797 7.54207 6.17324C7.61615 6.12435 7.68721 6.0705 7.76276 6.02416C8.43385 5.61272 9.15828 5.36675 9.9395 5.30073C10.322 5.26836 10.7034 5.28879 11.0822 5.3524C11.1704 5.3672 11.258 5.38545 11.3545 5.40378Z" fill="black"/>
<path d="M12.2892 8.64098C12.205 8.64098 12.1256 8.64211 12.0465 8.63993C12.0387 8.63896 12.0312 8.63639 12.0243 8.63238C12.0175 8.62837 12.0116 8.62299 12.0069 8.61657C11.9318 8.50602 11.8855 8.38186 11.8614 8.25118C11.8407 8.13852 11.8307 8.0239 11.821 7.90967C11.8178 7.87211 11.8259 7.83208 11.8363 7.79543C11.8762 7.65506 12.0388 7.61465 12.1406 7.71845C12.1929 7.77215 12.2221 7.83974 12.2444 7.91019C12.2988 8.08099 12.3355 8.25501 12.3281 8.43632C12.3253 8.50647 12.3167 8.57519 12.2892 8.64098Z" fill="black"/>
<path d="M10.6871 8.96033C10.6724 8.95559 10.6457 8.94808 10.6195 8.93779C10.5105 8.89573 10.4044 8.84661 10.2938 8.81146C10.1099 8.75326 9.9252 8.77737 9.74299 8.82754C9.66038 8.85007 9.57902 8.87793 9.49663 8.90182C9.47205 8.90937 9.4466 8.91354 9.42094 8.91421C9.38114 8.91421 9.35995 8.88605 9.3768 8.84932C9.39387 8.81076 9.41759 8.77566 9.44683 8.74567C9.7705 8.43285 10.3204 8.40108 10.6549 8.75318C10.6944 8.79351 10.723 8.84661 10.7472 8.89919C10.7647 8.93674 10.7402 8.96243 10.6871 8.96033Z" fill="black"/>
<path d="M10.6273 9.25628C10.5467 9.24989 10.4665 9.24021 10.3855 9.23758C10.2554 9.23382 10.1304 9.26304 10.0085 9.30833C9.97891 9.32024 9.94833 9.32929 9.91711 9.33536C9.90027 9.33814 9.87437 9.33431 9.86562 9.3229C9.85686 9.31148 9.8551 9.28249 9.86275 9.26807C9.87951 9.23483 9.90119 9.20443 9.92704 9.17794C10.0027 9.10389 10.0975 9.06679 10.1985 9.04546C10.3365 9.01631 10.4693 9.03043 10.5931 9.10246C10.6219 9.11886 10.6478 9.14008 10.6698 9.16525C10.683 9.18072 10.6941 9.21167 10.6874 9.22736C10.6801 9.24486 10.6514 9.25297 10.632 9.26492C10.6302 9.26259 10.6287 9.25943 10.6273 9.25628Z" fill="black"/>
<path d="M12.0627 9.17579C12.0637 9.113 12.0768 9.05788 12.1104 9.00906C12.1744 8.91608 12.2811 8.9148 12.3466 9.0062C12.4139 9.10016 12.4077 9.25788 12.3333 9.34628C12.2739 9.41673 12.1871 9.41921 12.1252 9.35139C12.0794 9.30092 12.0644 9.23873 12.0627 9.17579Z" fill="black"/>
<path d="M11.6336 9.61364C11.5439 9.60808 11.4668 9.57285 11.4098 9.49812C11.3706 9.44667 11.3524 9.38839 11.3828 9.32673C11.4132 9.26506 11.4725 9.24636 11.535 9.24816C11.5769 9.24855 11.6181 9.25839 11.6559 9.27699C11.6936 9.29558 11.7268 9.32247 11.7531 9.35572C11.7955 9.40829 11.817 9.4677 11.7866 9.5329C11.7571 9.59614 11.6984 9.61063 11.6336 9.61364Z" fill="black"/>
<path d="M5.92968 10.4183C5.9291 10.5371 5.87819 10.6732 5.82221 10.8088C5.79588 10.873 5.76918 10.9388 5.75704 11.0066C5.73011 11.1575 5.84149 11.2619 5.98927 11.2319C6.01301 11.2259 6.03709 11.2213 6.06136 11.2181C6.11947 11.2132 6.14831 11.257 6.12102 11.3102C6.0949 11.3611 6.05113 11.3933 6.0003 11.4154C5.80978 11.4972 5.60594 11.3934 5.53731 11.1815C5.4906 11.0371 5.51002 10.8953 5.54901 10.7534C5.56872 10.6815 5.59667 10.6099 5.60256 10.5365C5.61639 10.365 5.51237 10.2191 5.35341 10.1691C5.19444 10.1192 5.0229 10.1817 4.9386 10.3274C4.90535 10.3848 4.88586 10.4505 4.85974 10.5124C4.84576 10.5454 4.83363 10.58 4.8156 10.6105C4.79648 10.6433 4.76632 10.6645 4.72637 10.6563C4.68643 10.6482 4.67746 10.6135 4.67091 10.5803C4.65171 10.4834 4.66672 10.3883 4.69298 10.2949C4.73616 10.1399 4.80979 10.0019 4.93448 9.90032C5.23071 9.65817 5.65001 9.74259 5.8473 10.0812C5.90526 10.1808 5.93241 10.2808 5.92968 10.4183Z" fill="black"/>
</g>
<circle cx="9" cy="9" r="8.5" stroke="#E2EAEC"/>
<defs>
<clipPath id="mailchimp0">
<rect width="12" height="13" fill="white" transform="translate(3 2.5)"/>
</clipPath>
</defs>
</svg>
