<svg width="100%" height="100%" viewBox="0 0 26 26" fill="none" xmlns="http://www.w3.org/2000/svg">
<path d="M26 13C26 20.1797 20.1797 26 13 26C5.8203 26 0 20.1797 0 13C0 5.8203 5.8203 0 13 0C20.1797 0 26 5.8203 26 13Z" fill="#FFE01B"/>
<g clip-path="url(#mailchimp0)">
<path d="M12.2691 3.60938H12.5879C12.6365 3.61686 12.6852 3.62424 12.7339 3.63194C13.0438 3.68109 13.3237 3.79977 13.552 4.02315C13.8511 4.31606 14.1453 4.61364 14.44 4.9109C14.4688 4.93997 14.4897 4.94345 14.5262 4.92696C14.8932 4.76596 15.2593 4.60269 15.6419 4.48161C16.3074 4.27115 16.9841 4.14259 17.6849 4.20714C17.9866 4.23491 18.279 4.30304 18.5517 4.44202C19.1304 4.73699 19.4055 5.22074 19.3958 5.87611C19.3902 6.26189 19.2837 6.62413 19.1284 6.97184C18.8656 7.56082 18.4883 8.06854 18.0552 8.53612C18.0423 8.55011 18.0305 8.56519 18.0205 8.57691C18.0859 8.65285 18.1513 8.72206 18.2092 8.79703C18.5012 9.17533 18.6638 9.61372 18.7706 10.0772C18.8572 10.4525 18.8623 10.8366 18.8749 11.2189C18.8836 11.4825 18.8895 11.7462 18.8952 12.0099C18.8959 12.0424 18.9065 12.0562 18.9377 12.0647C19.0743 12.1017 19.2108 12.1396 19.3461 12.1816C19.7009 12.2916 20.0462 12.425 20.3555 12.6382C20.9695 13.0607 21.1504 13.8151 20.7991 14.4803C20.7707 14.5345 20.7196 14.5857 20.7165 14.6406C20.7133 14.6979 20.7584 14.7569 20.7771 14.8169C20.8431 15.0283 20.9064 15.2406 20.9724 15.452C20.9781 15.4701 20.9968 15.4954 21.0114 15.4971C21.125 15.5088 21.2216 15.5576 21.309 15.6297C21.4648 15.7588 21.5544 15.9304 21.6082 16.1238C21.6841 16.3976 21.673 16.6758 21.6364 16.9525C21.5478 17.6239 21.3564 18.2631 21.0427 18.8624C20.3358 20.2124 19.2776 21.1682 17.9052 21.7675C16.915 22.1998 15.8748 22.3821 14.8026 22.3873C14.282 22.3905 13.7623 22.3441 13.2503 22.2485C12.5664 22.1203 11.9099 21.9068 11.2846 21.595C10.442 21.1747 9.70934 20.6077 9.09859 19.8796C8.68935 19.3916 8.35254 18.8449 8.09894 18.257C8.08194 18.2179 8.06154 18.2028 8.02095 18.2017C7.93958 18.2003 7.85834 18.1947 7.77752 18.1849C7.32328 18.1235 6.91059 17.951 6.53572 17.6858C6.04695 17.3393 5.67145 16.8939 5.46053 16.3219C5.21742 15.6618 5.23665 14.9956 5.45639 14.3321C5.47063 14.2887 5.46499 14.2659 5.43089 14.2369C5.24696 14.0811 5.06622 13.9215 4.88293 13.7649C4.60869 13.5304 4.44293 13.2317 4.37429 12.8753C4.35633 12.7819 4.3456 12.687 4.33179 12.5932V12.2558C4.33667 12.2132 4.34178 12.1706 4.34634 12.1278C4.38619 11.7542 4.47991 11.3939 4.60497 11.0414C4.86317 10.3139 5.22624 9.64128 5.64414 8.99925C6.54876 7.60703 7.65462 6.36268 8.92412 5.30851C9.49789 4.83116 10.1047 4.40567 10.7712 4.07327C11.1426 3.88797 11.5257 3.73696 11.9341 3.65939C12.0449 3.63834 12.1574 3.62587 12.2691 3.60938ZM20.1233 16.6369L20.1376 16.6466C20.1297 16.6678 20.127 16.6936 20.1132 16.7095C20.0014 16.8371 19.8965 16.9731 19.7731 17.0876C19.394 17.4385 18.9523 17.6886 18.4819 17.8876C17.871 18.1462 17.2343 18.2968 16.5758 18.3541C16.1514 18.391 15.7277 18.3996 15.3064 18.3195C14.9421 18.2502 14.5951 18.1341 14.2778 17.9317C13.6617 17.5392 13.5846 16.7798 13.8857 16.2868C14.0803 15.9679 14.361 15.8217 14.7343 15.8647C15.0137 15.8972 15.2942 15.9237 15.5748 15.9385C15.9307 15.9574 16.2859 15.9325 16.6399 15.8925C17.2224 15.8269 17.7918 15.7018 18.3433 15.4983C18.8312 15.3183 19.2959 15.0907 19.7109 14.7682C19.9195 14.6061 20.1067 14.4221 20.2299 14.1814C20.3588 13.9296 20.3828 13.6759 20.2267 13.425C20.151 13.3033 20.0423 13.2166 19.9242 13.1413C19.7094 13.0044 19.4732 12.9166 19.2329 12.8417C19.0098 12.7719 18.7856 12.7066 18.5627 12.6367C18.4182 12.5914 18.3308 12.4893 18.2986 12.3391C18.2861 12.2865 18.2775 12.2329 18.273 12.1789C18.2518 11.7966 18.2298 11.4143 18.2121 11.0319C18.1975 10.7173 18.1843 10.4035 18.1027 10.0978C18.0496 9.90046 17.9734 9.71386 17.8273 9.56816C17.6184 9.35975 17.3693 9.32189 17.0941 9.39718C16.93 9.4422 16.7966 9.53822 16.6731 9.65115C16.248 10.04 15.7545 10.2249 15.1829 10.1806C14.8778 10.1569 14.573 10.1272 14.2679 10.1028C14.088 10.0884 13.9079 10.0751 13.7285 10.1136C13.2468 10.2157 12.8679 10.4825 12.5938 10.8913C12.1557 11.5453 12.1173 12.2498 12.392 12.9781C12.5254 13.3321 12.7532 13.6262 12.9965 13.9081C13.1146 14.0449 13.2334 14.1817 13.3421 14.3262C13.4416 14.4587 13.4301 14.5571 13.3215 14.6805C13.312 14.6914 13.3024 14.7022 13.2927 14.7124C13.0685 14.9521 12.8845 15.2278 12.748 15.5285C12.4698 16.1384 12.3661 16.7793 12.4257 17.4487C12.4648 17.8877 12.5809 18.3034 12.7857 18.692C13.132 19.3484 13.657 19.8079 14.3102 20.1231C14.8255 20.3718 15.3712 20.4985 15.9386 20.5298C16.6277 20.5679 17.2979 20.4654 17.9468 20.23C18.7024 19.9562 19.3785 19.5541 19.9364 18.9538C20.4654 18.3846 20.8377 17.7342 20.9883 16.9593C21.0245 16.7726 21.0538 16.5857 21.0254 16.3945C20.9957 16.1963 20.8783 16.0762 20.6847 16.0501C20.6399 16.0441 20.5942 16.0444 20.5466 16.0418C20.4854 15.6976 20.3988 15.361 20.2576 15.0422C20.2532 15.0425 20.249 15.0434 20.2448 15.0447C20.2063 15.0736 20.1683 15.1032 20.1295 15.1315C19.2254 15.7915 18.2101 16.1601 17.1171 16.3241C16.6399 16.3955 16.1608 16.4311 15.678 16.4139C15.4821 16.4069 15.2865 16.3857 15.0908 16.3712C14.9236 16.3588 14.7561 16.3358 14.589 16.3375C14.3977 16.3393 14.2383 16.4962 14.2226 16.6716C14.2267 16.675 14.2311 16.6778 14.2359 16.6801C14.3029 16.7031 14.3697 16.7269 14.4371 16.7483C14.8078 16.8641 15.1889 16.9413 15.5748 16.9786C15.9552 17.0185 16.3382 17.0255 16.7198 16.9997C16.8293 16.992 16.9383 16.978 17.0476 16.9713C17.0698 16.9702 17.1036 16.9865 17.1139 17.0052C17.1312 17.0367 17.1097 17.0629 17.0774 17.0763C17.0693 17.0796 17.0611 17.0832 17.0528 17.0863C16.6935 17.2274 16.318 17.2824 15.9363 17.297C15.4611 17.3155 14.9931 17.2576 14.5319 17.141C14.4159 17.1117 14.3006 17.079 14.1782 17.046C14.1874 17.1466 14.2212 17.2431 14.2766 17.3269C14.3868 17.5004 14.5471 17.6095 14.7272 17.6929C15.0341 17.8352 15.3607 17.8948 15.6928 17.9285C16.2304 17.9828 16.7644 17.9478 17.2932 17.8404C18.2924 17.6368 19.2123 17.2354 20.0652 16.6703C20.0838 16.658 20.1039 16.6479 20.1233 16.6369ZM5.75624 13.7186C5.77228 13.6996 5.77972 13.692 5.78578 13.6834C6.14704 13.1818 6.63326 12.8798 7.22362 12.7447C7.25645 12.7372 7.2743 12.723 7.28641 12.6904C7.54054 11.9971 7.84922 11.3259 8.20945 10.6834C8.75135 9.717 9.3995 8.8324 10.1752 8.04782C10.4813 7.73841 10.8113 7.45764 11.1446 7.17992C11.8642 6.57803 12.6234 6.03624 13.4167 5.54251C13.5507 5.45898 13.6866 5.37848 13.8271 5.29299C13.759 5.21532 13.6941 5.13948 13.6274 5.06517C13.4249 4.84038 13.2246 4.61278 12.9874 4.42509C12.9324 4.38001 12.8686 4.34726 12.8004 4.32897C12.7004 4.30597 12.5982 4.29411 12.4957 4.29361C12.1712 4.29046 11.8615 4.37215 11.5588 4.48335C10.9903 4.69197 10.4715 4.99693 9.97466 5.34268C9.17551 5.89846 8.45628 6.54939 7.79367 7.26768C7.03788 8.08644 6.37783 8.97831 5.83306 9.9573C5.55032 10.4654 5.29956 10.9886 5.13359 11.55C5.02659 11.9119 4.95423 12.2797 5.0013 12.6605C5.02574 12.8575 5.06962 13.052 5.21381 13.1978C5.38934 13.3742 5.5722 13.5423 5.75624 13.7183V13.7186ZM9.47207 15.5972C9.46389 15.5052 9.45337 15.3267 9.43148 15.1496C9.39429 14.8482 9.31173 14.5601 9.17063 14.2908C8.83879 13.6577 8.1645 13.2394 7.40106 13.416C6.87276 13.5383 6.46326 13.8261 6.20198 14.3171C6.04876 14.6051 5.98097 14.9171 5.96949 15.2426C5.95961 15.5247 5.98745 15.8021 6.09115 16.0671C6.29527 16.5886 6.65186 16.9726 7.1266 17.2448C7.44197 17.4257 7.77975 17.5306 8.14601 17.5089C8.68472 17.4771 9.06299 17.2041 9.28368 16.7037C9.42638 16.3798 9.46846 16.0353 9.47207 15.5972ZM16.4008 7.80372C16.4097 7.80083 16.4176 7.7955 16.4237 7.78831C16.4495 7.74882 16.4185 7.73407 16.3912 7.71975C15.8827 7.45417 15.3425 7.31216 14.7726 7.2858C14.7529 7.28493 14.7338 7.27495 14.7145 7.26974C14.7213 7.24891 14.7223 7.22233 14.7357 7.20801C14.8252 7.1132 14.9176 7.02131 15.008 6.92757C15.0216 6.91347 15.0298 6.89416 15.0406 6.87734C15.0208 6.86975 15.0001 6.8538 14.9813 6.85565C14.867 6.86856 14.7523 6.87995 14.6396 6.90219C14.0629 7.01444 13.5128 7.23913 13.0195 7.56396C13.0051 7.5734 12.9842 7.57231 12.9664 7.57622C12.9636 7.5581 12.9543 7.53771 12.9592 7.52198C12.9911 7.42282 13.024 7.32355 13.0622 7.22667C13.0892 7.15822 13.126 7.09399 13.1566 7.02673C13.1627 7.01295 13.1577 6.99418 13.1578 6.97737C13.1431 6.97813 13.127 6.97542 13.1136 6.98041C13.0925 6.98971 13.072 7.00058 13.0524 7.01295C12.2032 7.48835 11.4883 8.12896 10.8527 8.86766C10.8421 8.88057 10.8432 8.90443 10.8387 8.9232C10.8574 8.92081 10.8798 8.9245 10.894 8.91517C11.001 8.84455 11.1036 8.76676 11.2127 8.69983C12.1821 8.10553 13.2285 7.75023 14.3569 7.65487C14.9094 7.60812 15.4603 7.63762 16.0075 7.72951C16.1349 7.75089 16.2614 7.77725 16.4008 7.80372Z" fill="black"/>
<path d="M17.751 12.4792C17.6294 12.4792 17.5146 12.4809 17.4004 12.4777C17.3891 12.4763 17.3783 12.4726 17.3685 12.4668C17.3586 12.461 17.3501 12.4533 17.3432 12.444C17.2348 12.2843 17.1678 12.105 17.1331 11.9162C17.1032 11.7535 17.0888 11.5879 17.0747 11.4229C17.0702 11.3687 17.0818 11.3108 17.0968 11.2579C17.1544 11.0551 17.3893 10.9968 17.5363 11.1467C17.612 11.2243 17.654 11.3219 17.6863 11.4237C17.7649 11.6704 17.8179 11.9217 17.8073 12.1836C17.8032 12.2849 17.7908 12.3842 17.751 12.4792Z" fill="black"/>
<path d="M15.4369 12.9423C15.4157 12.9354 15.3771 12.9246 15.3394 12.9097C15.1819 12.849 15.0287 12.778 14.8689 12.7272C14.6032 12.6432 14.3364 12.678 14.0732 12.7505C13.9539 12.783 13.8364 12.8232 13.7174 12.8577C13.6819 12.8687 13.6451 12.8747 13.6081 12.8756C13.5506 12.8756 13.52 12.835 13.5443 12.7819C13.569 12.7262 13.6032 12.6755 13.6455 12.6322C14.113 12.1804 14.9072 12.1345 15.3905 12.6431C15.4475 12.7013 15.4889 12.778 15.5238 12.854C15.549 12.9082 15.5136 12.9453 15.4369 12.9423Z" fill="black"/>
<path d="M15.3503 13.368C15.234 13.3588 15.118 13.3448 15.0012 13.341C14.8132 13.3356 14.6326 13.3778 14.4565 13.4432C14.4138 13.4604 14.3696 13.4735 14.3245 13.4822C14.3002 13.4863 14.2628 13.4807 14.2501 13.4642C14.2375 13.4477 14.235 13.4059 14.246 13.385C14.2702 13.337 14.3015 13.2931 14.3389 13.2549C14.4482 13.1479 14.5851 13.0943 14.731 13.0635C14.9303 13.0214 15.1222 13.0418 15.3009 13.1458C15.3426 13.1695 15.38 13.2002 15.4117 13.2365C15.4307 13.2589 15.4469 13.3036 15.4372 13.3262C15.4266 13.3515 15.3852 13.3632 15.3571 13.3805C15.3546 13.3771 15.3524 13.3726 15.3503 13.368Z" fill="black"/>
<path d="M17.4238 13.2529C17.4252 13.1623 17.4441 13.0826 17.4927 13.0121C17.5851 12.8778 17.7393 12.876 17.8339 13.008C17.9311 13.1437 17.9222 13.3715 17.8146 13.4992C17.7289 13.601 17.6034 13.6046 17.514 13.5066C17.4478 13.4337 17.4262 13.3439 17.4238 13.2529Z" fill="black"/>
<path d="M16.804 13.8835C16.6745 13.8755 16.563 13.8246 16.4808 13.7167C16.4241 13.6424 16.3978 13.5582 16.4417 13.4691C16.4855 13.38 16.5713 13.353 16.6615 13.3556C16.722 13.3562 16.7816 13.3704 16.8361 13.3973C16.8906 13.4241 16.9386 13.463 16.9766 13.511C17.0379 13.5869 17.0689 13.6727 17.025 13.7669C16.9824 13.8583 16.8976 13.8792 16.804 13.8835Z" fill="black"/>
<path d="M8.5649 15.046C8.56405 15.2177 8.49052 15.4142 8.40966 15.6101C8.37162 15.7028 8.33305 15.7979 8.31552 15.8958C8.27663 16.1138 8.4375 16.2646 8.65096 16.2212C8.68526 16.2125 8.72003 16.2059 8.75509 16.2014C8.83903 16.1942 8.88069 16.2576 8.84127 16.3344C8.80355 16.4079 8.74032 16.4544 8.6669 16.4863C8.3917 16.6044 8.09727 16.4546 7.99813 16.1484C7.93066 15.9398 7.95871 15.7351 8.01503 15.5301C8.04351 15.4262 8.08388 15.3227 8.09238 15.2169C8.11236 14.9691 7.96211 14.7583 7.7325 14.6861C7.50288 14.614 7.2551 14.7044 7.13333 14.9148C7.0853 14.9977 7.05714 15.0926 7.01942 15.1819C6.99923 15.2297 6.9817 15.2796 6.95567 15.3237C6.92804 15.371 6.88448 15.4016 6.82678 15.3899C6.76909 15.3782 6.75612 15.3281 6.74667 15.28C6.71893 15.14 6.74061 15.0027 6.77854 14.8677C6.84091 14.6439 6.94728 14.4446 7.12738 14.2979C7.55527 13.9481 8.16092 14.07 8.44589 14.5591C8.52962 14.7029 8.56883 14.8475 8.5649 15.046Z" fill="black"/>
</g>
<circle cx="13" cy="13" r="12.5" stroke="#E2EAEC"/>
<defs>
<clipPath id="mailchimp0">
<rect width="17.3333" height="18.7778" fill="white" transform="translate(4.33325 3.60938)"/>
</clipPath>
</defs>
</svg>
