<?xml version="1.0" encoding="utf-8"?>
<svg version="1.1" id="Layer_1" xmlns="http://www.w3.org/2000/svg" xmlns:xlink="http://www.w3.org/1999/xlink" x="0px" y="0px"
	 viewBox="0 0 1000 1000" style="enable-background:new 0 0 1000 1000;" xml:space="preserve">
	<style type="text/css">
		.st0{fill:#FFE01B;}
		.st1{fill:#1E1E1E;}
	</style>
	<circle class="st0" cx="500" cy="500" r="500"/>
	<g>
		<path class="st1" d="M701.8,476.7c6.2-0.7,12.1-0.8,17.6,0c3.2-7.2,3.7-19.7,0.9-33.3c-4.2-20.2-9.9-32.4-21.7-30.5
			c-11.8,1.9-12.2,16.5-8,36.7C692.8,461,697.1,470.7,701.8,476.7z"/>
		<path class="st1" d="M600.4,492.7c8.4,3.7,13.6,6.2,15.7,4c1.3-1.3,0.9-3.9-1.1-7.2c-4.2-6.8-12.7-13.7-21.8-17.6
			c-18.6-8-40.8-5.3-57.9,7c-5.7,4.1-11,9.9-10.2,13.4c0.2,1.1,1.1,2,3.1,2.3c4.7,0.5,20.9-7.7,39.7-8.8
			C581,484.8,592,489,600.4,492.7z"/>
		<path class="st1" d="M583.4,502.4c-11,1.7-17.1,5.4-21,8.7c-3.3,2.9-5.4,6.1-5.4,8.4c0,1.1,0.5,1.7,0.8,2
			c0.5,0.4,1.1,0.7,1.8,0.7c2.5,0,8.1-2.2,8.1-2.2c15.3-5.5,25.4-4.8,35.4-3.7c5.5,0.6,8.1,1,9.4-0.9c0.4-0.5,0.8-1.7-0.3-3.5
			C609.7,507.6,598.6,500.6,583.4,502.4z"/>
		<path class="st1" d="M667.5,538c7.5,3.7,15.7,2.2,18.4-3.2c2.7-5.4-1.2-12.8-8.7-16.5c-7.5-3.7-15.7-2.2-18.4,3.2
			C656.2,526.9,660.1,534.3,667.5,538z"/>
		<path class="st1" d="M715.6,496c-6.1-0.1-11.1,6.6-11.2,14.9c-0.1,8.3,4.7,15.2,10.7,15.3c6.1,0.1,11.1-6.6,11.2-14.9
			C726.4,502.9,721.6,496.1,715.6,496z"/>
		<path class="st1" d="M307.9,646.1c-1.5-1.9-4-1.3-6.4-0.8c-1.7,0.4-3.6,0.8-5.7,0.8c-4.5-0.1-8.2-2-10.4-5.3
			c-2.8-4.2-2.6-10.6,0.4-17.8c0.4-1,0.9-2.1,1.4-3.2c4.9-10.9,13-29.2,3.9-46.6c-6.9-13.1-18.1-21.3-31.6-23
			c-13-1.6-26.3,3.2-34.8,12.6c-13.4,14.8-15.5,35-12.9,42.1c1,2.6,2.4,3.3,3.5,3.5c2.3,0.3,5.7-1.4,7.8-7c0.2-0.4,0.4-1,0.6-1.9
			c0.9-3,2.7-8.6,5.6-13.1c3.5-5.4,8.9-9.1,15.2-10.5c6.5-1.4,13.1-0.2,18.6,3.5c9.4,6.2,13,17.7,9,28.7
			c-2.1,5.7-5.4,16.6-4.7,25.5c1.5,18.1,12.6,25.3,22.6,26.1c9.7,0.4,16.5-5.1,18.2-9.1C309.3,648.1,308.5,646.7,307.9,646.1z"/>
		<path class="st1" d="M868.7,613c-0.4-1.3-2.8-10.1-6.1-20.7c-3.3-10.6-6.7-18.1-6.7-18.1c13.3-19.9,13.5-37.7,11.8-47.7
			c-1.9-12.5-7.1-23.1-17.6-34.1c-10.5-11-31.9-22.3-62-30.7c-3.4-1-14.8-4.1-15.8-4.4c-0.1-0.7-0.8-37.2-1.5-52.9
			c-0.5-11.4-1.5-29.1-7-46.5c-6.6-23.6-18-44.3-32.2-57.5c39.3-40.8,63.9-85.7,63.8-124.2c-0.1-74.1-91.1-96.5-203.3-50.1
			c-0.1,0-23.6,10-23.8,10.1c-0.1-0.1-43-42.2-43.6-42.7C396.9-18.3-2.9,426.2,124.9,534.1l27.9,23.7c-7.2,18.8-10.1,40.3-7.8,63.4
			c3,29.7,18.3,58.2,43.1,80.2c23.6,20.9,54.6,34.1,84.7,34.1c49.7,114.6,163.4,185,296.7,188.9c143,4.2,263-62.8,313.2-183.3
			c3.3-8.5,17.2-46.6,17.2-80.2C900,627,880.9,613,868.7,613z M283.8,703.2c-4.3,0.7-8.8,1-13.2,0.9c-43.2-1.2-89.8-40-94.4-86.1
			c-5.1-51,20.9-90.2,67-99.5c5.5-1.1,12.2-1.8,19.4-1.4c25.8,1.4,63.9,21.2,72.6,77.5C342.8,644.5,330.6,695.3,283.8,703.2z
			M235.6,488.1c-28.7,5.6-54,21.8-69.5,44.3c-9.2-7.7-26.5-22.6-29.5-28.4c-24.7-46.9,26.9-138,63-189.5
			c89.1-127.2,228.8-223.5,293.4-206c10.5,3,45.3,43.3,45.3,43.3s-64.6,35.8-124.5,85.8C333.1,299.7,272.2,390,235.6,488.1z
			M688.8,684.2c0.9-0.4,1.6-1.5,1.5-2.5c-0.1-1.3-1.3-2.3-2.6-2.1c0,0-67.6,10-131.5-13.4c7-22.6,25.5-14.5,53.4-12.2
			c50.4,3,95.6-4.4,129-13.9c28.9-8.3,66.9-24.7,96.5-48c10,21.9,13.5,45.9,13.5,45.9s7.7-1.4,14.1,2.6c6.1,3.7,10.6,11.5,7.5,31.7
			c-6.2,37.6-22.2,68.1-49.1,96.2c-16.4,17.6-36.2,32.9-58.9,44c-12.1,6.3-24.9,11.8-38.5,16.3c-101.3,33.1-205-3.3-238.4-81.4
			c-2.7-5.9-4.9-12-6.7-18.4c-14.2-51.5-2.1-113.2,35.6-152.1c0,0,0,0,0,0c2.3-2.5,4.7-5.4,4.7-9.1c0-3.1-1.9-6.3-3.6-8.6
			c-13.2-19.2-59-51.9-49.8-115.1c6.6-45.4,46.3-77.4,83.4-75.5c3.1,0.2,6.3,0.4,9.4,0.5c16.1,0.9,30.1,3,43.3,3.6
			c22.1,1,42-2.3,65.6-21.9c7.9-6.6,14.3-12.4,25.1-14.2c1.1-0.2,4-1.2,9.6-0.9c5.8,0.3,11.2,1.9,16.1,5.2
			c18.9,12.6,21.6,43,22.5,65.3c0.6,12.7,2.1,43.5,2.6,52.3c1.2,20.2,6.5,23,17.2,26.6c6,2,11.6,3.5,19.9,5.8
			c25,7,39.8,14.1,49.2,23.3c5.6,5.7,8.2,11.8,9,17.6c2.9,21.5-16.7,48.1-68.7,72.2c-56.8,26.4-125.8,33.1-173.5,27.8
			c-3.7-0.4-16.6-1.9-16.7-1.9c-38.1-5.1-59.9,44.1-37,77.9c14.7,21.8,54.9,35.9,95.1,35.9c92.1,0,162.9-39.3,189.3-73.3
			c0.8-1,0.9-1.1,2.1-3c1.3-2,0.2-3-1.4-1.9c-21.5,14.7-117.1,73.2-219.3,55.6c0,0-12.4-2-23.8-6.5c-9-3.5-27.9-12.2-30.2-31.5
			C636.9,708.3,688.8,684.2,688.8,684.2z M558.1,668.7C558.1,668.8,558.1,668.8,558.1,668.7C558.1,668.8,558.1,668.8,558.1,668.7
			C558.1,668.8,558.1,668.8,558.1,668.7z M400.3,313.9c31.7-36.6,70.7-68.5,105.7-86.3c1.2-0.6,2.5,0.7,1.8,1.9
			c-2.8,5-8.1,15.8-9.8,23.9c-0.3,1.3,1.1,2.2,2.2,1.5c21.7-14.8,59.6-30.7,92.7-32.7c1.4-0.1,2.1,1.7,1,2.6
			c-5,3.9-10.6,9.2-14.6,14.6c-0.7,0.9,0,2.2,1.1,2.3c23.3,0.2,56.1,8.3,77.5,20.3c1.4,0.8,0.4,3.6-1.2,3.2
			c-32.4-7.4-85.4-13.1-140.5,0.4c-49.2,12-86.7,30.5-114.1,50.4C400.8,317,399.2,315.2,400.3,313.9z"/>
	</g>
</svg>
