<svg width="100%" height="100%" viewBox="0 0 26 26" fill="none" xmlns="http://www.w3.org/2000/svg">
<circle cx="13" cy="13" r="12.5" fill="white" stroke="#E2EAEC"/>
<g clip-path="url(#mandrill0)">
<path d="M4.96338 5.80469H21.1784V20.1614H4.96338V5.80469Z" fill="#E6E6E1"/>
<path d="M21.1783 5.80475H4.96338L13.0713 17.6543L21.1783 5.80469" fill="#D8D8D3"/>
<path d="M11.3565 20.1632H14.7876L13.0721 17.6562L11.3564 20.1632" fill="#B4B6B4"/>
<path d="M13.0746 13.3384L9.61572 8.26172V12.6196L11.5908 15.5206L13.0712 13.3427L13.0746 13.3384Z" fill="#1A1918"/>
<path d="M13.0745 13.3384L14.5641 15.5253L16.5265 12.6559V8.26172L13.0745 13.3384" fill="#ED9D4A"/>
<path d="M13.071 13.3441L11.5906 15.5221L13.0759 17.7029L14.564 15.5268L13.0743 13.3398L13.071 13.3441" fill="#BB7731"/>
<path d="M7.15918 17.705H9.61563V12.6174L7.15918 9.01172V17.705Z" fill="#4CB2D4"/>
<path d="M7.15918 8.26172V9.01396L9.61563 12.6195V8.26172H7.15918Z" fill="#1B82AD"/>
<path d="M16.5266 12.6561V17.7072H18.9822V9.06641L16.5266 12.6561Z" fill="#C02439"/>
<path d="M18.9821 8.26172H16.5266V12.6559L18.9822 9.06626V8.26172" fill="#8F202F"/>
</g>
<defs>
<clipPath id="mandrill0">
<rect width="16.2883" height="14.4444" fill="white" transform="translate(4.91113 5.77734)"/>
</clipPath>
</defs>
</svg>
