<svg width="100%" height="100%" viewBox="0 0 18 18" fill="none" xmlns="http://www.w3.org/2000/svg">
<circle cx="9" cy="9" r="8.5" fill="white" stroke="#E2EAEC"/>
<g clip-path="url(#mandrill0)">
<path d="M3.43616 4.01953H14.662V13.9588H3.43616V4.01953Z" fill="#E6E6E1"/>
<path d="M14.6619 4.01958H3.43616L9.04934 12.2231L14.6619 4.01953" fill="#D8D8D3"/>
<path d="M7.86223 13.9592H10.2376L9.04996 12.2236L7.86218 13.9592" fill="#B4B6B4"/>
<path d="M9.05157 9.23434L6.65698 5.71973V8.73672L8.02435 10.7451L9.04924 9.23733L9.05157 9.23434Z" fill="#1A1918"/>
<path d="M9.05164 9.23434L10.0829 10.7483L11.4415 8.76187V5.71973L9.05164 9.23438" fill="#ED9D4A"/>
<path d="M9.04923 9.23733L8.02429 10.7452L9.05257 12.2549L10.0828 10.7484L9.05152 9.23438L9.04918 9.23733" fill="#BB7731"/>
<path d="M4.95642 12.2586H6.65704V8.73649L4.95642 6.24023V12.2586Z" fill="#4CB2D4"/>
<path d="M4.95642 5.71973V6.24051L6.65704 8.73668V5.71973H4.95642Z" fill="#1B82AD"/>
<path d="M11.4415 8.76152V12.2585H13.1415V6.27637L11.4415 8.76152Z" fill="#C02439"/>
<path d="M13.1415 5.71973H11.4415V8.76183L13.1415 6.27672V5.71973" fill="#8F202F"/>
</g>
<defs>
<clipPath id="mandrill0">
<rect width="11.2765" height="10" fill="white" transform="translate(3.40002 4)"/>
</clipPath>
</defs>
</svg>
