<svg width="100%" height="100%" viewBox="0 0 26 26" fill="none" xmlns="http://www.w3.org/2000/svg">
<circle cx="13" cy="13" r="12.5" fill="white" stroke="#E2EAEC"/>
<path d="M4.3333 16.6165C4.75744 16.0864 5.31809 16.2153 5.8711 16.2758C6.27265 16.3289 6.65893 16.4272 7.0678 16.4272C7.32554 16.4349 7.49195 16.3289 7.65868 16.1469C7.97687 15.7985 8.20405 15.3832 8.53751 15.0485C9.06669 14.516 9.71243 14.1138 10.4237 13.8738C11.643 13.4496 12.8932 13.1101 14.0975 12.6239C15.1125 12.2074 15.8851 11.5421 16.4305 10.5875C16.7865 9.9664 17.135 9.33766 17.576 8.76205C18.1745 8.00445 18.947 7.61053 19.9092 7.61657C20.4183 7.62421 20.8558 7.40434 21.3029 7.22266H21.4165C21.6074 7.29075 21.6666 7.44221 21.6666 7.63185C21.6666 8.14668 21.4922 8.59373 21.0983 8.92687C20.8332 9.14674 20.5529 9.35134 20.271 9.5483C19.8847 9.82098 19.6499 10.177 19.5363 10.639C19.3168 11.586 19.1424 12.5482 18.8395 13.4872C18.5744 14.3205 18.2486 15.1233 17.6275 15.7826C17.4371 15.9872 17.2145 16.1593 16.9685 16.292C16.8244 16.3601 16.7487 16.3601 16.7716 16.1708C16.789 16.0244 16.7838 15.8762 16.7563 15.7313C16.6729 15.913 16.5972 16.0874 16.5138 16.2691C15.9532 17.4053 15.1275 18.2084 13.8627 18.4964C13.8462 18.505 13.8281 18.5102 13.8096 18.5117C13.6657 18.5269 13.4688 18.6027 13.4007 18.4964C13.3173 18.3602 13.528 18.2768 13.605 18.1709C14.2095 17.3907 14.6353 16.5421 14.7186 15.5347C14.6276 15.5271 14.6353 15.6028 14.62 15.6407C14.5978 15.6843 14.5801 15.73 14.5672 15.7772C14.4838 16.0043 14.4157 16.2315 14.2869 16.4361C14.158 16.648 13.9763 16.7543 13.7262 16.762C13.0749 16.7769 12.4235 16.7012 11.7872 16.6102C11.2189 16.5344 10.6417 16.4893 10.069 16.5344C9.4173 16.5799 8.84934 16.8755 8.32656 17.2316C7.722 17.6405 7.07671 17.9739 6.41743 18.2768C6.12183 18.413 5.80364 18.504 5.49309 18.5874H4.80294C4.70462 18.4359 4.74981 18.2921 4.83476 18.1633C4.95599 17.9813 5.07722 17.7996 5.20609 17.6255C5.27418 17.5345 5.34227 17.4435 5.20609 17.3601C4.90317 17.1785 4.66803 16.8981 4.34253 16.7556C4.33592 16.7095 4.33283 16.6631 4.3333 16.6165Z" fill="#24525E"/>
</svg>
