<svg width="100%" height="100%" viewBox="0 0 18 18" fill="none" xmlns="http://www.w3.org/2000/svg">
<circle cx="9" cy="9" r="8.5" fill="white" stroke="#E2EAEC"/>
<path d="M3.00003 11.5035C3.29367 11.1365 3.68181 11.2257 4.06466 11.2675C4.34266 11.3043 4.61009 11.3724 4.89315 11.3724C5.07158 11.3777 5.18679 11.3043 5.30222 11.1783C5.5225 10.9371 5.67979 10.6496 5.91064 10.4179C6.27699 10.0492 6.72405 9.77081 7.21649 9.60461C8.06061 9.31097 8.92611 9.07592 9.75988 8.73933C10.4626 8.45098 10.9974 7.99036 11.375 7.32951C11.6215 6.89951 11.8627 6.46423 12.168 6.06574C12.5824 5.54124 13.1172 5.26853 13.7834 5.27271C14.1358 5.278 14.4387 5.12578 14.7482 5H14.8269C14.959 5.04714 15 5.152 15 5.28329C15 5.63971 14.8793 5.94921 14.6066 6.17984C14.4231 6.33206 14.229 6.4737 14.0338 6.61006C13.7664 6.79884 13.6038 7.04534 13.5252 7.36519C13.3732 8.02076 13.2525 8.6869 13.0428 9.33696C12.8593 9.91389 12.6337 10.4697 12.2037 10.9261C12.0719 11.0677 11.9178 11.1869 11.7475 11.2788C11.6477 11.3259 11.5953 11.3259 11.6112 11.1948C11.6232 11.0935 11.6196 10.9909 11.6006 10.8906C11.5429 11.0164 11.4904 11.1371 11.4327 11.2629C11.0446 12.0495 10.4729 12.6055 9.59732 12.8049C9.58588 12.8108 9.57337 12.8144 9.56053 12.8155C9.46096 12.826 9.3246 12.8785 9.27746 12.8049C9.21975 12.7106 9.36558 12.6529 9.41889 12.5795C9.83743 12.0394 10.1322 11.4519 10.1899 10.7545C10.1269 10.7492 10.1322 10.8016 10.1216 10.8278C10.1062 10.858 10.094 10.8897 10.085 10.9223C10.0273 11.0796 9.98017 11.2369 9.89095 11.3786C9.80174 11.5253 9.67596 11.5988 9.50281 11.6041C9.05189 11.6145 8.60097 11.5621 8.1604 11.4991C7.76698 11.4466 7.36738 11.4153 6.97087 11.4466C6.51973 11.4781 6.12652 11.6828 5.76459 11.9293C5.34606 12.2123 4.89932 12.4432 4.44289 12.6529C4.23825 12.7472 4.01796 12.8102 3.80297 12.8679H3.32517C3.2571 12.763 3.28838 12.6635 3.3472 12.5743C3.43113 12.4483 3.51506 12.3225 3.60427 12.202C3.65141 12.139 3.69855 12.076 3.60427 12.0183C3.39456 11.8925 3.23177 11.6984 3.00642 11.5997C3.00185 11.5678 2.99971 11.5357 3.00003 11.5035Z" fill="#24525E"/>
</svg>
