<svg width="100%" height="100%" viewBox="0 0 26 26" fill="none" xmlns="http://www.w3.org/2000/svg">
<circle cx="13" cy="13" r="12.5" fill="white" stroke="#E2EAEC"/>
<g clip-path="url(#matillion)">
<path d="M9.1589 16.4518V14.4069H8.37274L8.26367 14.1797H10.1132V14.4069H9.43156V16.4518H9.1589Z" fill="#222222"/>
<path d="M11.2956 14.1797H11.0684V16.4518H11.2956V14.1797Z" fill="#222222"/>
<path d="M12.4316 16.4518V14.1797H12.6589V16.2246H13.7495V16.4518H12.4316Z" fill="#222222"/>
<path d="M14.7031 16.4518V14.1797H14.9303V16.2246H16.021V16.4518H14.7031Z" fill="#222222"/>
<path d="M17.2038 14.1328H16.9766V16.4504H17.2038V14.1328Z" fill="#2D8825"/>
<path d="M19.3069 16.501C18.9843 16.501 18.7252 16.3919 18.5389 16.1738C18.3526 15.9602 18.2617 15.6648 18.2617 15.2967C18.2617 14.9286 18.3571 14.6378 18.5435 14.4242C18.7298 14.2106 18.9888 14.1016 19.3115 14.1016C19.6386 14.1016 19.8931 14.2106 20.0794 14.4242C20.2612 14.6378 20.3566 14.9332 20.3566 15.2967C20.3566 15.6603 20.2612 15.9556 20.0794 16.1692C19.8931 16.3919 19.6341 16.501 19.3069 16.501ZM19.3115 14.3379C19.057 14.3379 18.8616 14.4197 18.7252 14.5833C18.5889 14.7469 18.5162 14.9877 18.5162 15.2967C18.5162 15.6057 18.5844 15.8511 18.7207 16.0147C18.857 16.1829 19.0479 16.2647 19.3069 16.2647C19.5659 16.2647 19.7568 16.1829 19.8931 16.0193C20.0295 15.8557 20.0976 15.6103 20.0976 15.2967C20.0976 14.9832 20.0295 14.7423 19.8931 14.5787C19.7613 14.4197 19.5705 14.3379 19.3115 14.3379Z" fill="#2D8825"/>
<path d="M22.8389 14.1797H23.1116V16.4518H22.8708L21.6438 14.5978C21.6529 14.7704 21.6574 14.875 21.6574 14.9704V16.4518H21.3848V14.1797H21.6392L22.8571 16.0292" fill="#222222"/>
<path d="M5.05177 14.1797H4.76548L3.99294 15.7475V15.7566L3.21586 14.1797H2.88867V16.4518H3.16133V14.7432C3.16133 14.6705 3.1477 14.5841 3.1477 14.516L3.9066 16.0883H3.9884H4.06111H4.07019L4.81546 14.5251C4.81092 14.5887 4.79729 14.6614 4.79729 14.7205V14.7386V16.4518H5.05177H5.06995V14.1797H5.05177Z" fill="#222222"/>
<path d="M7.65517 16.4529H7.92329L7.00534 14.0898H6.84629L5.91016 16.4529H6.17373L6.46456 15.7258H7.36888L7.65517 16.4529ZM6.86901 14.717C6.88718 14.6715 6.90536 14.617 6.92354 14.567C6.94172 14.6215 6.95989 14.6761 6.97353 14.717L7.26891 15.5031H6.56908L6.86901 14.717Z" fill="#222222"/>
<path d="M9.27259 12.5939L14.3031 7.55883L13.2443 6.5L7.15039 12.5939H9.27259Z" fill="#2D8825"/>
<path d="M13.5083 12.5928L15.3624 10.7387L17.2164 12.5928H19.3341L15.3624 8.62109L11.3906 12.5928H13.5083Z" fill="#2D8825"/>
</g>
<defs>
<clipPath id="matillion">
<rect width="20.2222" height="10.002" fill="white" transform="translate(2.88867 6.5)"/>
</clipPath>
</defs>
</svg>
