<svg width="100%" height="100%" viewBox="0 0 18 18" fill="none" xmlns="http://www.w3.org/2000/svg">
<circle cx="9" cy="9" r="8.5" fill="white" stroke="#E2EAEC"/>
<g clip-path="url(#microsoftSharepoint0)">
<path d="M10.347 3.5L4 4.71V13.279L10.347 14.5V3.5ZM11.194 5.194C11.04 5.194 10.908 5.227 10.765 5.271V7.647C10.908 7.702 11.04 7.724 11.194 7.724C11.667 7.724 12.074 7.471 12.294 7.097C12.624 7.284 12.899 7.57 13.097 7.9C12.723 8.12 12.459 8.527 12.459 9C12.459 9.473 12.723 9.88 13.097 10.1C12.899 10.43 12.624 10.705 12.294 10.903C12.074 10.529 11.667 10.265 11.194 10.265C11.04 10.265 10.908 10.298 10.765 10.342V12.729C10.908 12.773 11.04 12.806 11.194 12.806C11.876 12.806 12.437 12.267 12.459 11.585C13.031 11.31 13.504 10.837 13.779 10.265C14.461 10.243 15 9.682 15 9C15 8.318 14.461 7.757 13.779 7.724C13.504 7.152 13.031 6.69 12.459 6.404C12.437 5.733 11.876 5.194 11.194 5.194ZM7.124 6.833C7.344 6.833 7.531 6.844 7.707 6.866C7.872 6.899 8.026 6.932 8.169 6.987V7.867C8.092 7.812 8.026 7.768 7.938 7.724C7.85 7.68 7.762 7.658 7.674 7.636C7.586 7.614 7.509 7.592 7.421 7.581C7.344 7.57 7.256 7.57 7.179 7.57C7.069 7.57 6.97 7.581 6.882 7.592C6.794 7.614 6.717 7.658 6.662 7.691C6.607 7.724 6.563 7.768 6.53 7.823C6.497 7.878 6.475 7.933 6.475 7.999C6.475 8.065 6.486 8.12 6.53 8.175C6.563 8.23 6.618 8.285 6.684 8.34C6.75 8.384 6.838 8.439 6.937 8.483C7.036 8.527 7.146 8.582 7.267 8.626C7.432 8.703 7.586 8.769 7.718 8.857C7.85 8.934 7.96 9.022 8.059 9.121C8.158 9.22 8.224 9.33 8.268 9.462C8.323 9.594 8.345 9.737 8.345 9.913C8.345 10.144 8.312 10.331 8.213 10.496C8.125 10.65 8.015 10.782 7.861 10.881C7.707 10.969 7.531 11.046 7.333 11.09C7.135 11.134 6.904 11.156 6.684 11.156C6.453 11.156 6.244 11.145 6.035 11.101C5.826 11.057 5.65 10.991 5.496 10.914V9.99C5.661 10.133 5.848 10.232 6.046 10.309C6.244 10.386 6.442 10.408 6.64 10.408C6.761 10.408 6.871 10.408 6.959 10.386C7.047 10.364 7.124 10.331 7.19 10.298C7.245 10.254 7.289 10.21 7.322 10.166C7.355 10.122 7.355 10.045 7.355 9.99C7.355 9.913 7.344 9.825 7.289 9.77C7.234 9.715 7.179 9.649 7.091 9.594C7.014 9.539 6.915 9.484 6.805 9.44C6.695 9.385 6.574 9.33 6.442 9.275C6.123 9.143 5.881 8.978 5.716 8.791C5.562 8.593 5.485 8.351 5.485 8.076C5.485 7.856 5.529 7.658 5.617 7.504C5.705 7.35 5.815 7.218 5.969 7.119C6.123 7.02 6.288 6.943 6.486 6.899C6.684 6.855 6.904 6.833 7.124 6.833Z" fill="#0078D4"/>
</g>
<defs>
<clipPath id="microsoftSharepoint0">
<rect width="11" height="11" fill="white" transform="translate(4 3.5)"/>
</clipPath>
</defs>
</svg>
