<svg width="100%" height="100%" viewBox="0 0 18 18" fill="none" xmlns="http://www.w3.org/2000/svg">
<circle cx="9" cy="9" r="8.5" fill="white" stroke="#E2EAEC"/>
<mask id="microsoftDynamics0" style="mask-type:alpha" maskUnits="userSpaceOnUse" x="0" y="0" width="18" height="18">
<circle cx="9" cy="9" r="8.5" fill="white" stroke="#D0D0CE"/>
</mask>
<g mask="url(#microsoftDynamics0)">
</g>
<mask id="microsoftDynamics1" style="mask-type:alpha" maskUnits="userSpaceOnUse" x="4" y="3" width="10" height="12">
<path d="M13.25 6.88078C13.25 6.35252 12.9179 5.88128 12.4204 5.70361L5.16816 3.11354C4.84255 2.99724 4.5 3.23864 4.5 3.58441V7.52254C4.5 7.73384 4.63284 7.92234 4.83184 7.99342L8.08184 9.15413C8.40745 9.27042 8.75 9.02902 8.75 8.68326V6.42201C8.75 6.24733 8.92457 6.12649 9.08805 6.18802L9.94027 6.50874C10.4274 6.69208 10.75 7.15812 10.75 7.67864V8.66336L7.0784 10.0049C6.88119 10.077 6.75 10.2646 6.75 10.4745V14.4099C6.75 14.7572 7.09539 14.9987 7.4216 14.8795L12.429 13.0499C12.922 12.8697 13.25 12.4007 13.25 11.8758L13.25 6.88078Z" fill="white"/>
</mask>
<g mask="url(#microsoftDynamics1)">
<path d="M4.5 2.875L13.25 5.99998V10.2906C13.25 10.6363 12.9075 10.8777 12.5819 10.7615L10.75 10.1074V7.67801C10.75 7.15725 10.4271 6.69104 9.93965 6.50788L9.08792 6.18786C8.92446 6.12645 8.75 6.24728 8.75 6.42189V9.39285L4.5 7.875V2.875Z" fill="url(#microsoftDynamics4)"/>
<g filter="url(#microsoftDynamics3)">
<path d="M13.25 6.9248C13.25 7.44973 12.922 7.91966 12.429 8.09981L6.75 10.1748V15.1748L13.25 12.7998V6.9248Z" fill="black" fill-opacity="0.24"/>
</g>
<g filter="url(#microsoftDynamics2)">
<path d="M13.25 7.125C13.25 7.64992 12.922 8.11984 12.429 8.29999L6.75 10.375V15.375L13.25 13V7.125Z" fill="black" fill-opacity="0.32"/>
</g>
<path d="M13.25 6.875C13.25 7.39992 12.922 7.86984 12.429 8.04999L6.75 10.125V15.125L13.25 12.75V6.875Z" fill="url(#microsoftDynamics53)"/>
<path opacity="0.5" d="M13.25 6.875C13.25 7.39992 12.922 7.86984 12.429 8.04999L6.75 10.125V15.125L13.25 12.75V6.875Z" fill="url(#microsoftDynamics6)"/>
<path opacity="0.5" d="M10.7502 8.66504L8.74902 9.39711L8.74904 12.3294C8.74904 12.504 8.92362 12.6249 9.0871 12.5633L9.94051 12.2421C10.4276 12.0587 10.7502 11.5927 10.7502 11.0722V8.66504Z" fill="#B0ADFF"/>
</g>
<defs>
<filter id="microsoftDynamics3" x="5.95" y="6.1248" width="8.1" height="9.85" filterUnits="userSpaceOnUse" color-interpolation-filters="sRGB">
<feFlood flood-opacity="0" result="BackgroundImageFix"/>
<feBlend mode="normal" in="SourceGraphic" in2="BackgroundImageFix" result="shape"/>
<feGaussianBlur stdDeviation="0.4" result="effect1_foregroundBlur_7981:119683"/>
</filter>
<filter id="microsoftDynamics2" x="-1.25" y="-0.875" width="22.5" height="24.25" filterUnits="userSpaceOnUse" color-interpolation-filters="sRGB">
<feFlood flood-opacity="0" result="BackgroundImageFix"/>
<feBlend mode="normal" in="SourceGraphic" in2="BackgroundImageFix" result="shape"/>
<feGaussianBlur stdDeviation="4" result="effect1_foregroundBlur_7981:119683"/>
</filter>
<linearGradient id="microsoftDynamics4" x1="7.75564" y1="2.875" x2="10.0823" y2="8.96541" gradientUnits="userSpaceOnUse">
<stop stop-color="#0B53CE"/>
<stop offset="1" stop-color="#7252AA"/>
</linearGradient>
<linearGradient id="microsoftDynamics53" x1="11.0172" y1="14.6865" x2="11.0172" y2="7.42691" gradientUnits="userSpaceOnUse">
<stop stop-color="#2266E3"/>
<stop offset="1" stop-color="#AE7FE2"/>
</linearGradient>
<linearGradient id="microsoftDynamics6" x1="13.25" y1="10.0982" x2="10.7596" y2="10.0982" gradientUnits="userSpaceOnUse">
<stop stop-color="#94B9FF"/>
<stop offset="0.287843" stop-color="#94B9FF" stop-opacity="0.523646"/>
<stop offset="1" stop-color="#538FFF" stop-opacity="0"/>
</linearGradient>
</defs>
</svg>
