<svg width="100%" height="100%" viewBox="0 0 26 26" fill="none" xmlns="http://www.w3.org/2000/svg">
<circle cx="13" cy="13" r="12.5" fill="white" stroke="#E2EAEC"/>
<path d="M14.625 6.5H9.56949C9.40188 6.50002 9.24114 6.56661 9.12262 6.68512C9.00411 6.80364 8.93752 6.96438 8.9375 7.13199V9.75H14.625V6.5Z" fill="#21A366"/>
<path d="M19.6805 6.5H14.625V9.75H20.3125V7.13199C20.3125 6.96438 20.2459 6.80364 20.1274 6.68512C20.0089 6.56661 19.8481 6.50002 19.6805 6.5Z" fill="#33C481"/>
<path d="M20.3125 13H14.625V16.25H20.3125V13Z" fill="#107C41"/>
<path d="M14.625 16.25V13H8.9375V18.868C8.93752 19.0356 9.00411 19.1964 9.12262 19.3149C9.24114 19.4334 9.40188 19.5 9.56949 19.5H19.6805C19.8481 19.5 20.0089 19.4334 20.1274 19.3149C20.2459 19.1964 20.3125 19.0356 20.3125 18.868V16.25H14.625Z" fill="#185C37"/>
<path d="M14.625 9.75H8.9375V13H14.625V9.75Z" fill="#107C41"/>
<path d="M20.3125 9.75H14.625V13H20.3125V9.75Z" fill="#21A366"/>
<path opacity="0.2" d="M13.2708 9.8381V16.9718C13.2714 17.0082 13.2678 17.0445 13.26 17.0801C13.2354 17.2266 13.1595 17.3596 13.0459 17.4554C12.9323 17.5511 12.7883 17.6034 12.6398 17.6029H8.9375V9.20703H12.6398C12.7227 9.20689 12.8048 9.22311 12.8814 9.25477C12.9581 9.28643 13.0277 9.33291 13.0863 9.39154C13.1449 9.45017 13.1914 9.5198 13.2231 9.59643C13.2548 9.67306 13.271 9.75518 13.2708 9.8381Z" fill="black"/>
<path opacity="0.1" d="M13.5417 9.8394V16.4314C13.5394 16.6699 13.4437 16.898 13.275 17.0667C13.1064 17.2354 12.8783 17.3311 12.6398 17.3333H8.9375V8.9375H12.6398C12.8787 8.93833 13.1076 9.03362 13.2766 9.20258C13.4455 9.37154 13.5408 9.60046 13.5417 9.8394Z" fill="black"/>
<path opacity="0.2" d="M13.2708 9.8381V16.4301C13.271 16.513 13.2548 16.5952 13.2231 16.6718C13.1914 16.7484 13.145 16.8181 13.0863 16.8767C13.0277 16.9353 12.9581 16.9818 12.8814 17.0135C12.8048 17.0451 12.7227 17.0613 12.6398 17.0612H8.9375V9.20703H12.6398C12.7227 9.20689 12.8048 9.22311 12.8814 9.25477C12.9581 9.28643 13.0277 9.33291 13.0863 9.39154C13.145 9.45017 13.1914 9.5198 13.2231 9.59643C13.2548 9.67306 13.271 9.75518 13.2708 9.8381Z" fill="black"/>
<path opacity="0.1" d="M13 9.8381V16.4301C13.0001 16.513 12.9839 16.5952 12.9523 16.6718C12.9206 16.7484 12.8741 16.8181 12.8155 16.8767C12.7569 16.9353 12.6872 16.9818 12.6106 17.0135C12.534 17.0451 12.4518 17.0613 12.3689 17.0612H8.9375V9.20703H12.3689C12.4518 9.20689 12.534 9.22311 12.6106 9.25477C12.6872 9.28643 12.7569 9.33291 12.8155 9.39154C12.8741 9.45017 12.9206 9.5198 12.9523 9.59643C12.9839 9.67306 13.0001 9.75518 13 9.8381Z" fill="black"/>
<path d="M12.3679 9.20703H6.04845C5.69943 9.20703 5.4165 9.48996 5.4165 9.83897V16.1584C5.4165 16.5074 5.69943 16.7904 6.04845 16.7904H12.3679C12.7169 16.7904 12.9998 16.5074 12.9998 16.1584V9.83897C12.9998 9.48996 12.7169 9.20703 12.3679 9.20703Z" fill="#107C41"/>
<path d="M7.37354 15.053L8.70267 12.9934L7.48525 10.9453H8.46492L9.12949 12.2544C9.19059 12.3786 9.2326 12.4712 9.25553 12.5323H9.26412C9.30803 12.433 9.35386 12.3365 9.40162 12.2429L10.112 10.9453H11.0115L9.76254 12.982L11.043 15.053H10.0862L9.31855 13.6151C9.28237 13.5539 9.2517 13.4897 9.22688 13.4231H9.21542C9.19301 13.4884 9.16322 13.5508 9.12662 13.6093L8.33601 15.053H7.37354Z" fill="white"/>
</svg>
