<svg width="100%" height="100%" viewBox="0 0 26 26" fill="none" xmlns="http://www.w3.org/2000/svg">
<circle cx="13" cy="13" r="12.5" fill="white" stroke="#E2EAEC"/>
<g clip-path="url(#microsoft_sharepoint0)">
<path d="M14.9457 5.05469L5.77783 6.80247V19.1799L14.9457 20.9436V5.05469ZM16.1692 7.50158C15.9467 7.50158 15.7561 7.54924 15.5495 7.6128V11.0448C15.7561 11.1242 15.9467 11.156 16.1692 11.156C16.8524 11.156 17.4403 10.7906 17.7581 10.2504C18.2347 10.5205 18.6319 10.9336 18.9179 11.4102C18.3777 11.728 17.9964 12.3159 17.9964 12.9991C17.9964 13.6824 18.3777 14.2702 18.9179 14.588C18.6319 15.0647 18.2347 15.4619 17.7581 15.7479C17.4403 15.2077 16.8524 14.8264 16.1692 14.8264C15.9467 14.8264 15.7561 14.874 15.5495 14.9376V18.3855C15.7561 18.449 15.9467 18.4967 16.1692 18.4967C17.1543 18.4967 17.9646 17.7181 17.9964 16.733C18.8226 16.3358 19.5058 15.6526 19.9031 14.8264C20.8882 14.7946 21.6667 13.9842 21.6667 12.9991C21.6667 12.014 20.8882 11.2037 19.9031 11.156C19.5058 10.3298 18.8226 9.66247 17.9964 9.24935C17.9646 8.28013 17.1543 7.50158 16.1692 7.50158ZM10.2903 9.86902C10.6081 9.86902 10.8782 9.88491 11.1324 9.91669C11.3707 9.96435 11.5932 10.012 11.7997 10.0915V11.3626C11.6885 11.2831 11.5932 11.2196 11.4661 11.156C11.3389 11.0925 11.2118 11.0607 11.0847 11.0289C10.9576 10.9971 10.8464 10.9654 10.7193 10.9495C10.6081 10.9336 10.4809 10.9336 10.3697 10.9336C10.2108 10.9336 10.0678 10.9495 9.94072 10.9654C9.81361 10.9971 9.70239 11.0607 9.62294 11.1084C9.5435 11.156 9.47994 11.2196 9.43228 11.299C9.38461 11.3785 9.35283 11.4579 9.35283 11.5532C9.35283 11.6486 9.36872 11.728 9.43228 11.8075C9.47994 11.8869 9.55939 11.9664 9.65472 12.0458C9.75005 12.1094 9.87716 12.1888 10.0202 12.2524C10.1632 12.3159 10.3221 12.3954 10.4968 12.4589C10.7352 12.5701 10.9576 12.6655 11.1483 12.7926C11.3389 12.9038 11.4978 13.0309 11.6408 13.1739C11.7838 13.3169 11.8792 13.4758 11.9427 13.6665C12.0222 13.8571 12.0539 14.0637 12.0539 14.3179C12.0539 14.6516 12.0063 14.9217 11.8633 15.16C11.7362 15.3825 11.5773 15.5731 11.3548 15.7161C11.1324 15.8432 10.8782 15.9545 10.5922 16.018C10.3062 16.0816 9.9725 16.1134 9.65472 16.1134C9.32105 16.1134 9.01917 16.0975 8.71728 16.0339C8.41539 15.9704 8.16117 15.875 7.93872 15.7638V14.4291C8.17705 14.6357 8.44717 14.7787 8.73317 14.8899C9.01917 15.0011 9.30517 15.0329 9.59117 15.0329C9.76594 15.0329 9.92483 15.0329 10.0519 15.0011C10.1791 14.9694 10.2903 14.9217 10.3856 14.874C10.4651 14.8105 10.5286 14.7469 10.5763 14.6834C10.6239 14.6198 10.6239 14.5086 10.6239 14.4291C10.6239 14.3179 10.6081 14.1908 10.5286 14.1114C10.4492 14.0319 10.3697 13.9366 10.2426 13.8571C10.1314 13.7777 9.98839 13.6982 9.8295 13.6347C9.67061 13.5552 9.49583 13.4758 9.30517 13.3964C8.84439 13.2057 8.49483 12.9674 8.2565 12.6972C8.03405 12.4112 7.92283 12.0617 7.92283 11.6645C7.92283 11.3467 7.98639 11.0607 8.1135 10.8382C8.24061 10.6158 8.3995 10.4251 8.62194 10.2821C8.84439 10.1391 9.08272 10.0279 9.36872 9.96435C9.65472 9.9008 9.9725 9.86902 10.2903 9.86902Z" fill="#0078D4"/>
</g>
<defs>
<clipPath id="microsoft_sharepoint0">
<rect width="15.8889" height="15.8889" fill="white" transform="translate(5.77783 5.05469)"/>
</clipPath>
</defs>
</svg>
