<svg width="100%" height="100%" viewBox="0 0 18 18" fill="none" xmlns="http://www.w3.org/2000/svg">
<circle cx="9" cy="9" r="8.5" fill="white" stroke="#E2EAEC"/>
<path d="M10.125 4.5H6.62503C6.50899 4.50001 6.39771 4.54611 6.31566 4.62816C6.23361 4.71021 6.18751 4.82149 6.1875 4.93753V6.75H10.125V4.5Z" fill="#21A366"/>
<path d="M13.625 4.5H10.125V6.75H14.0625V4.93753C14.0625 4.82149 14.0164 4.71021 13.9343 4.62816C13.8523 4.54611 13.741 4.50001 13.625 4.5Z" fill="#33C481"/>
<path d="M14.0625 9H10.125V11.25H14.0625V9Z" fill="#107C41"/>
<path d="M10.125 11.25V9H6.1875V13.0625C6.18751 13.1785 6.23361 13.2898 6.31566 13.3718C6.39771 13.4539 6.50899 13.5 6.62503 13.5H13.625C13.741 13.5 13.8523 13.4539 13.9343 13.3718C14.0164 13.2898 14.0625 13.1785 14.0625 13.0625V11.25H10.125Z" fill="#185C37"/>
<path d="M10.125 6.75H6.1875V9H10.125V6.75Z" fill="#107C41"/>
<path d="M14.0625 6.75H10.125V9H14.0625V6.75Z" fill="#21A366"/>
<path opacity="0.2" d="M9.1875 6.81189V11.7506C9.18791 11.7758 9.1854 11.801 9.18 11.8256C9.16295 11.927 9.11041 12.0191 9.03176 12.0854C8.95311 12.1517 8.85347 12.1879 8.75061 12.1875H6.1875V6.375H8.75061C8.80801 6.3749 8.86487 6.38613 8.91792 6.40805C8.97097 6.42997 9.01917 6.46215 9.05976 6.50274C9.10035 6.54333 9.13253 6.59153 9.15445 6.64458C9.17637 6.69763 9.1876 6.75449 9.1875 6.81189Z" fill="black"/>
<path opacity="0.1" d="M9.375 6.81189V11.3756C9.37345 11.5407 9.30717 11.6986 9.19041 11.8154C9.07365 11.9322 8.91573 11.9985 8.75061 12H6.1875V6.1875H8.75061C8.91603 6.18808 9.07451 6.25405 9.19148 6.37102C9.30845 6.48799 9.37442 6.64647 9.375 6.81189Z" fill="black"/>
<path opacity="0.2" d="M9.1875 6.81189V11.3756C9.1876 11.433 9.17637 11.4899 9.15445 11.5429C9.13253 11.596 9.10035 11.6442 9.05976 11.6848C9.01917 11.7254 8.97097 11.7575 8.91792 11.7794C8.86487 11.8014 8.80801 11.8126 8.75061 11.8125H6.1875V6.375H8.75061C8.80801 6.3749 8.86487 6.38613 8.91792 6.40805C8.97097 6.42997 9.01917 6.46215 9.05976 6.50274C9.10035 6.54333 9.13253 6.59153 9.15445 6.64458C9.17637 6.69763 9.1876 6.75449 9.1875 6.81189Z" fill="black"/>
<path opacity="0.1" d="M9 6.81189V11.3756C9.0001 11.433 8.98887 11.4899 8.96695 11.5429C8.94503 11.596 8.91285 11.6442 8.87226 11.6848C8.83167 11.7254 8.78347 11.7575 8.73042 11.7794C8.67737 11.8014 8.62051 11.8126 8.56311 11.8125H6.1875V6.375H8.56311C8.62051 6.3749 8.67737 6.38613 8.73042 6.40805C8.78347 6.42997 8.83167 6.46215 8.87226 6.50274C8.91285 6.54333 8.94503 6.59153 8.96695 6.64458C8.98887 6.69763 9.0001 6.75449 9 6.81189Z" fill="black"/>
<path d="M8.56249 6.375H4.1875C3.94588 6.375 3.75 6.57088 3.75 6.8125V11.1875C3.75 11.4291 3.94588 11.625 4.1875 11.625H8.56249C8.80412 11.625 8.99999 11.4291 8.99999 11.1875V6.8125C8.99999 6.57088 8.80412 6.375 8.56249 6.375Z" fill="#107C41"/>
<path d="M5.10486 10.4219L6.02503 8.99607L5.1822 7.57812H5.86043L6.32052 8.48442C6.36282 8.57037 6.3919 8.63449 6.40778 8.67678H6.41373C6.44412 8.60805 6.47585 8.54129 6.50892 8.47648L7.00073 7.57812H7.62343L6.75879 8.98813L7.64525 10.4219H6.98288L6.4514 9.42641C6.42636 9.38408 6.40513 9.33962 6.38794 9.29354H6.38001C6.36449 9.33871 6.34387 9.38195 6.31853 9.42244L5.77119 10.4219H5.10486Z" fill="white"/>
</svg>
