<svg width="100%" height="100%" viewBox="0 0 24 24" fill="none" xmlns="http://www.w3.org/2000/svg">
<circle cx="11.9999" cy="12.0009" r="11.5556" fill="white"/>
<path fill-rule="evenodd" clip-rule="evenodd" d="M13.5329 14.8555C13.3333 14.8555 13.1714 14.6934 13.1714 14.4937V11.7443C13.1714 11.5447 13.3333 11.3826 13.5329 11.3826C13.7325 11.3826 13.8944 11.5447 13.8944 11.7443V14.5118C13.8847 14.7047 13.7256 14.8559 13.5329 14.8555Z" fill="#005587"/>
<path fill-rule="evenodd" clip-rule="evenodd" d="M13.5329 10.8711C13.3333 10.8711 13.1714 10.709 13.1714 10.5093V7.75997C13.1714 7.5603 13.3333 7.39821 13.5329 7.39821C13.7325 7.39821 13.8944 7.5603 13.8944 7.75997V10.5274C13.8847 10.7203 13.7256 10.8715 13.5329 10.8711Z" fill="#005587"/>
<path fill-rule="evenodd" clip-rule="evenodd" d="M6.31729 14.8555C6.11777 14.8555 5.95581 14.6934 5.95581 14.4937V11.7443C5.95581 11.5447 6.11777 11.3826 6.31729 11.3826C6.51684 11.3826 6.67881 11.5447 6.67881 11.7443V14.5118C6.66904 14.7047 6.50999 14.8559 6.31729 14.8555Z" fill="#005587"/>
<path fill-rule="evenodd" clip-rule="evenodd" d="M6.31729 10.8711C6.11777 10.8711 5.95581 10.709 5.95581 10.5093V7.75997C5.95581 7.5603 6.11777 7.39821 6.31729 7.39821C6.51684 7.39821 6.67881 7.5603 6.67881 7.75997V10.5274C6.66904 10.7203 6.50999 10.8715 6.31729 10.8711Z" fill="#005587"/>
<path fill-rule="evenodd" clip-rule="evenodd" d="M14.4221 15.8828H5.42813C5.22861 15.8828 5.06665 15.7208 5.06665 15.5211V14.4937C5.06665 14.294 5.22861 14.1319 5.42813 14.1319C5.62768 14.1319 5.78964 14.294 5.78964 14.4937V15.1593H14.0607V14.8555H6.3174C6.11788 14.8555 5.95592 14.6934 5.95592 14.4937C5.95592 14.294 6.11788 14.1319 6.3174 14.1319H14.4221C14.6217 14.1319 14.7836 14.294 14.7836 14.4937V15.5211C14.7836 15.7208 14.6217 15.8828 14.4221 15.8828Z" fill="#005587"/>
<path fill-rule="evenodd" clip-rule="evenodd" d="M14.4221 11.959H6.3174C6.11788 11.959 5.95592 11.7969 5.95592 11.5973C5.95592 11.3975 6.11788 11.2355 6.3174 11.2355H14.0607V10.9316H5.78964V11.5973C5.78964 11.7969 5.62768 11.959 5.42813 11.959C5.22861 11.959 5.06665 11.7969 5.06665 11.5973V10.5698C5.06665 10.3702 5.22861 10.2081 5.42813 10.2081H14.4221C14.6217 10.2081 14.7836 10.3702 14.7836 10.5698V11.5973C14.7836 11.7969 14.6217 11.959 14.4221 11.959Z" fill="#005587"/>
<path fill-rule="evenodd" clip-rule="evenodd" d="M14.4221 7.97266H6.3174C6.11788 7.97266 5.95592 7.81061 5.95592 7.61094C5.95592 7.41122 6.11788 7.24918 6.3174 7.24918H14.0607V6.9453H5.78964V7.61094C5.78964 7.81061 5.62768 7.97266 5.42813 7.97266C5.22861 7.97266 5.06665 7.81061 5.06665 7.61094V6.5835C5.06665 6.38383 5.22861 6.22179 5.42813 6.22179H14.4221C14.6217 6.22179 14.7836 6.38383 14.7836 6.5835V7.61094C14.7836 7.81061 14.6217 7.97266 14.4221 7.97266Z" fill="#005587"/>
<path fill-rule="evenodd" clip-rule="evenodd" d="M9.92524 14.8555C9.72568 14.8555 9.56372 14.6934 9.56372 14.4937V11.7046C9.56372 11.5049 9.72568 11.3428 9.92524 11.3428C10.1248 11.3428 10.2868 11.5049 10.2868 11.7046V14.4937C10.2868 14.6934 10.1248 14.8555 9.92524 14.8555Z" fill="#005587"/>
<path fill-rule="evenodd" clip-rule="evenodd" d="M9.92524 10.8711C9.72568 10.8711 9.56372 10.709 9.56372 10.5093V7.72019C9.56372 7.52048 9.72568 7.35843 9.92524 7.35843C10.1248 7.35843 10.2868 7.52048 10.2868 7.72019V10.5093C10.2868 10.709 10.1248 10.8711 9.92524 10.8711Z" fill="#005587"/>
<path fill-rule="evenodd" clip-rule="evenodd" d="M8.12129 14.8555C7.92174 14.8555 7.75977 14.6934 7.75977 14.4937V11.7443C7.75977 11.5447 7.92174 11.3826 8.12129 11.3826C8.32081 11.3826 8.48277 11.5447 8.48277 11.7443V14.5118C8.47305 14.7047 8.31395 14.8559 8.12129 14.8555Z" fill="#005587"/>
<path fill-rule="evenodd" clip-rule="evenodd" d="M8.12129 10.8711C7.92174 10.8711 7.75977 10.709 7.75977 10.5093V7.75997C7.75977 7.5603 7.92174 7.39821 8.12129 7.39821C8.32081 7.39821 8.48277 7.5603 8.48277 7.75997V10.5274C8.47305 10.7203 8.31395 10.8715 8.12129 10.8711Z" fill="#005587"/>
<path fill-rule="evenodd" clip-rule="evenodd" d="M11.729 14.8555C11.5294 14.8555 11.3674 14.6934 11.3674 14.4937V11.7443C11.3674 11.5447 11.5294 11.3826 11.729 11.3826C11.9285 11.3826 12.0905 11.5447 12.0905 11.7443V14.5118C12.0807 14.7047 11.9216 14.8559 11.729 14.8555Z" fill="#005587"/>
<path fill-rule="evenodd" clip-rule="evenodd" d="M11.729 10.8711C11.5294 10.8711 11.3674 10.709 11.3674 10.5093V7.75997C11.3674 7.5603 11.5294 7.39821 11.729 7.39821C11.9285 7.39821 12.0905 7.5603 12.0905 7.75997V10.5274C12.0807 10.7203 11.9216 10.8715 11.729 10.8711Z" fill="#005587"/>
<path fill-rule="evenodd" clip-rule="evenodd" d="M18.8638 18.5488H15.2535C15.1586 18.5488 15.0815 18.4719 15.0815 18.3771V13.7176C15.0811 13.6228 15.1576 13.5454 15.2525 13.5449C15.2996 13.5445 15.3446 13.5636 15.3773 13.5974L15.9532 14.1931L16.5549 14.9194C16.6176 14.8936 16.6828 14.8735 16.7492 14.8593C16.9684 14.8158 17.196 14.8449 17.3973 14.9417C17.4647 14.9731 17.5273 15.0143 17.583 15.0636C17.6891 15.0464 17.7977 15.0698 17.8873 15.1288C18.0059 15.1987 18.0595 15.3417 18.0162 15.4722C17.9847 15.5586 17.9117 15.6233 17.8219 15.6439C17.7503 15.6645 17.6737 15.6597 17.6053 15.6302C17.6053 15.6971 17.5933 15.7641 17.5898 15.8293V15.8911C17.5898 15.9237 17.5898 15.9564 17.5898 15.9873C17.6481 15.9993 17.7056 16.0154 17.7618 16.0353C17.9645 16.1085 18.1202 16.2736 18.1812 16.48C18.2454 16.7041 18.2002 16.9451 18.0592 17.1307C17.9332 17.2938 17.7595 17.4136 17.5624 17.4741C17.5347 17.5812 17.4747 17.677 17.3904 17.7488C17.2711 17.8501 17.1131 17.8933 16.9589 17.8672C16.726 17.8245 16.549 17.6337 16.524 17.3985C16.2932 17.2756 16.0957 17.0989 15.948 16.8835C15.892 16.8067 15.909 16.6991 15.9858 16.6431C16.0627 16.5871 16.1705 16.6041 16.2265 16.6809C16.3084 16.7971 16.4074 16.9001 16.5205 16.9865V16.5985C16.5205 16.4955 16.5205 16.3804 16.5377 16.2551V16.2311C16.3933 16.1905 16.2626 16.1116 16.1595 16.0027C16.0455 15.8722 15.9946 15.6983 16.0202 15.5272C16.0424 15.3589 16.1263 15.2047 16.2558 15.0945L15.6953 14.4181L15.4237 14.1382V18.202H18.6901V14.1416L18.3824 14.4575C18.3165 14.5259 18.2077 14.5278 18.1393 14.462C18.1378 14.4606 18.1362 14.4591 18.1348 14.4575L17.6569 13.9648L17.1772 14.4575C17.1449 14.4914 17.1002 14.5106 17.0535 14.5108C17.0067 14.5106 16.962 14.4914 16.9297 14.4575L16.4518 13.9648L16.3383 14.0815C16.2712 14.1482 16.1629 14.1482 16.0959 14.0815C16.0292 14.0146 16.0292 13.9064 16.0959 13.8395L16.3314 13.594C16.4009 13.5286 16.5095 13.5286 16.579 13.594L17.0569 14.0884L17.5365 13.594C17.5692 13.5608 17.6137 13.5421 17.6603 13.5425C17.7069 13.5421 17.7515 13.5608 17.7841 13.594L18.2621 14.0884L18.7417 13.594C18.8076 13.5256 18.9164 13.5237 18.9848 13.5895C19.0187 13.6221 19.0377 13.6671 19.0374 13.7141V18.3737C19.0393 18.4685 18.9638 18.5469 18.8689 18.5488C18.8672 18.5488 18.8655 18.5488 18.8638 18.5488ZM16.8575 17.1547C16.9139 17.169 16.9715 17.1788 17.0294 17.1839C17.0958 17.1891 17.1625 17.1891 17.2288 17.1839V17.105C17.2288 16.9333 17.2288 16.753 17.2288 16.5779V16.3049H17.0174C16.9864 16.3049 16.9383 16.3049 16.8798 16.3049C16.8798 16.4113 16.8661 16.5143 16.8644 16.6036L16.8575 17.1547ZM17.5675 16.3375V16.5813C17.5675 16.753 17.5675 16.9247 17.5675 17.0964C17.6493 17.0562 17.7207 16.9975 17.7755 16.9247C17.8505 16.827 17.8752 16.6999 17.8426 16.5813C17.8132 16.4786 17.7356 16.3966 17.6345 16.3615L17.5675 16.3375ZM16.8936 15.9564H17.0122H17.2323V15.8619V15.8019C17.2323 15.7091 17.246 15.6164 17.2581 15.5254V15.498C17.266 15.4267 17.2814 15.3565 17.3045 15.2885C17.2825 15.2724 17.2589 15.2585 17.234 15.2473C17.1009 15.1817 16.9498 15.1618 16.8042 15.1906L16.7543 15.2027C16.7647 15.2198 16.7732 15.2387 16.7818 15.2559C16.8705 15.4782 16.9087 15.7175 16.8936 15.9564ZM16.4655 15.3726C16.4079 15.4248 16.3697 15.4951 16.3572 15.5718C16.3431 15.6461 16.3641 15.7227 16.4139 15.7795C16.4524 15.8202 16.4987 15.8528 16.5497 15.8757C16.5592 15.7146 16.5353 15.5533 16.4792 15.4018C16.4755 15.3917 16.4708 15.3821 16.4655 15.3726Z" fill="#005587"/>
</svg>
