<svg width="100%" height="100%" viewBox="0 0 14 14" fill="none" xmlns="http://www.w3.org/2000/svg">
<path fill-rule="evenodd" clip-rule="evenodd" d="M10.8649 2.7207H3.52477C3.25464 2.7207 3.0354 2.50124 3.0354 2.23093C3.0354 1.96057 3.25464 1.74121 3.52477 1.74121H10.8649C11.135 1.74121 11.3542 1.96057 11.3542 2.23093C11.3542 2.50124 11.135 2.7207 10.8649 2.7207Z" fill="#005587"/>
<path fill-rule="evenodd" clip-rule="evenodd" d="M10.8649 12.6426H3.52477C3.25464 12.6426 3.0354 12.4231 3.0354 12.1528C3.0354 11.8824 3.25464 11.663 3.52477 11.663H10.8649C11.135 11.663 11.3542 11.8824 11.3542 12.1528C11.3542 12.4231 11.135 12.6426 10.8649 12.6426Z" fill="#005587"/>
<path fill-rule="evenodd" clip-rule="evenodd" d="M2.22816 11.3633C1.95808 11.3633 1.73877 11.1439 1.73877 10.8736V3.52775C1.73877 3.25745 1.95808 3.0381 2.22816 3.0381C2.49829 3.0381 2.71753 3.25745 2.71753 3.52775V10.8736C2.71753 11.1439 2.49829 11.3633 2.22816 11.3633Z" fill="#005587"/>
<path fill-rule="evenodd" clip-rule="evenodd" d="M12.1617 10.1738C11.8916 10.1738 11.6724 9.95447 11.6724 9.68411V3.50867C11.6724 3.23837 11.8916 3.019 12.1617 3.019C12.4319 3.019 12.6511 3.23837 12.6511 3.50867V9.68411C12.6511 9.95447 12.4319 10.1738 12.1617 10.1738Z" fill="#005587"/>
<path fill-rule="evenodd" clip-rule="evenodd" d="M2.71248 3.99805H1.73377C1.02661 3.99556 0.454574 3.42259 0.45166 2.71496V1.73547C0.454574 1.02784 1.02661 0.454844 1.73377 0.452415H2.71248C3.42056 0.452415 3.99454 1.02687 3.99454 1.73547V2.71496C3.99454 3.42361 3.42056 3.99805 2.71248 3.99805ZM1.73377 1.44162C1.56638 1.44162 1.43035 1.57778 1.43035 1.74528V2.72473C1.43035 2.89223 1.56638 3.02839 1.73377 3.02839H2.71248C2.87981 3.02839 3.01585 2.89223 3.01585 2.72473V1.74528C3.01585 1.57778 2.87981 1.44162 2.71248 1.44162H1.73377Z" fill="#005587"/>
<path fill-rule="evenodd" clip-rule="evenodd" d="M12.6509 3.99805H11.6722C10.9651 3.99556 10.3926 3.42259 10.3901 2.71496V1.73547C10.3926 1.02784 10.9651 0.454844 11.6722 0.452415H12.6509C13.359 0.452415 13.933 1.02687 13.933 1.73547V2.71496C13.933 3.42361 13.359 3.99805 12.6509 3.99805ZM11.6722 1.44162C11.5048 1.44162 11.3688 1.57778 11.3688 1.74528V2.72473C11.3688 2.89223 11.5048 3.02839 11.6722 3.02839H12.6509C12.8183 3.02839 12.9543 2.89223 12.9543 2.72473V1.74528C12.9543 1.57778 12.8183 1.44162 12.6509 1.44162H11.6722Z" fill="#005587"/>
<path fill-rule="evenodd" clip-rule="evenodd" d="M12.5583 13.9209H11.5208C10.8886 13.9209 10.3757 13.4076 10.3757 12.7749V11.531C10.3757 10.8983 10.8886 10.3851 11.5208 10.3851H12.7637C13.396 10.3851 13.9089 10.8983 13.9089 11.531V12.579C13.9089 12.8493 13.6896 13.0687 13.4195 13.0687C13.1493 13.0687 12.9302 12.8493 12.9302 12.579V11.5457C12.9302 11.4536 12.8558 11.3792 12.7637 11.3792H11.5208C11.4288 11.3792 11.3544 11.4536 11.3544 11.5457V12.7896C11.3544 12.8817 11.4288 12.9561 11.5208 12.9561H12.5583C12.8283 12.9561 13.0476 13.1755 13.0476 13.4458C13.0476 13.7162 12.8283 13.9355 12.5583 13.9355V13.9209Z" fill="#005587"/>
<path fill-rule="evenodd" clip-rule="evenodd" d="M2.71248 13.9199H1.73377C1.02661 13.9174 0.454574 13.3445 0.45166 12.6368V11.6574C0.454574 10.9497 1.02661 10.3768 1.73377 10.3743H2.71248C3.42056 10.3743 3.99454 10.9487 3.99454 11.6574V12.6368C3.99454 13.3455 3.42056 13.9199 2.71248 13.9199ZM1.73377 11.3636C1.56638 11.3636 1.43035 11.4996 1.43035 11.6672V12.6466C1.43035 12.8141 1.56638 12.9502 1.73377 12.9502H2.71248C2.87981 12.9502 3.01585 12.8141 3.01585 12.6466V11.6672C3.01585 11.4996 2.87981 11.3636 2.71248 11.3636H1.73377Z" fill="#005587"/>
<path fill-rule="evenodd" clip-rule="evenodd" d="M7.99736 8.49023H4.76281C4.49273 8.49023 4.27344 8.27088 4.27344 8.00052V4.74386C4.27344 4.47356 4.49273 4.25419 4.76281 4.25419H7.99736C8.26749 4.25419 8.48673 4.47356 8.48673 4.74386V7.98092C8.49747 8.25128 8.28757 8.47896 8.01744 8.48975C8.01058 8.49023 8.00422 8.49023 7.99736 8.49023ZM5.25218 7.51085H7.50804V5.23363H5.25218V7.51085Z" fill="#005587"/>
<path fill-rule="evenodd" clip-rule="evenodd" d="M9.61235 10.1289H6.3778C6.10772 10.1289 5.88843 9.90954 5.88843 9.63919V8.01823C5.88843 7.74792 6.10772 7.5285 6.3778 7.5285C6.64793 7.5285 6.86719 7.74792 6.86719 8.01823V9.14946H9.12308V6.8919C8.85289 6.8919 8.63371 6.67247 8.63371 6.40212C8.63371 6.13181 8.85289 5.91239 9.12308 5.91239H9.61235C9.88254 5.91239 10.1017 6.13181 10.1017 6.40212V9.63919C10.1017 9.90954 9.88254 10.1289 9.61235 10.1289Z" fill="#005587"/>
</svg>
