<svg width="19" height="19" viewBox="0 0 19 19" fill="none" xmlns="http://www.w3.org/2000/svg">
<path fill-rule="evenodd" clip-rule="evenodd" d="M11.6711 11.5195C11.5859 11.5183 11.5049 11.4851 11.4451 11.4273C11.3199 11.3075 11.3199 11.114 11.4451 10.9942L13.2789 9.24599L11.4451 7.49785C11.3186 7.37833 11.3176 7.18386 11.4432 7.06342C11.4439 7.06281 11.4445 7.06221 11.4451 7.06156C11.571 6.94238 11.7744 6.94238 11.9003 7.06156L13.9634 9.02788C14.0886 9.14767 14.0886 9.34123 13.9634 9.46106L11.9003 11.4243C11.8406 11.4842 11.758 11.5183 11.6711 11.5195Z" fill="#00A3E0"/>
<path fill-rule="evenodd" clip-rule="evenodd" d="M13.4797 9.5H9.71272C9.52953 9.5 9.38086 9.38682 9.38086 9.24739C9.38086 9.10792 9.52953 8.99474 9.71272 8.99474H13.4797C13.6629 8.99474 13.8116 9.10792 13.8116 9.24739C13.8116 9.38682 13.6629 9.5 13.4797 9.5Z" fill="#00A3E0"/>
<path fill-rule="evenodd" clip-rule="evenodd" d="M9.81071 12.7832H8.27226C8.10239 12.7832 7.96456 12.6405 7.96456 12.4647C7.96456 12.2889 8.10239 12.1461 8.27226 12.1461H9.50301V6.094H5.50301C5.33315 6.094 5.19531 5.95128 5.19531 5.77543C5.19531 5.59962 5.33315 5.45691 5.50301 5.45691H9.81071C9.98054 5.45691 10.1184 5.59962 10.1184 5.77543V12.4647C10.1184 12.6405 9.98054 12.7832 9.81071 12.7832Z" fill="#00A3E0"/>
<path fill-rule="evenodd" clip-rule="evenodd" d="M8.32415 14.2985C8.27295 14.2992 8.22205 14.2873 8.1765 14.2633L5.37441 12.7947C5.26636 12.7374 5.19756 12.6245 5.19537 12.5003V5.78126C5.19316 5.66609 5.25191 5.55856 5.34929 5.4997C5.44635 5.44243 5.56636 5.44243 5.66342 5.4997L8.46552 6.96511C8.57139 7.02591 8.63828 7.13886 8.64144 7.26266V13.9817C8.64268 14.096 8.58393 14.2019 8.48752 14.2601C8.43756 14.2876 8.38103 14.3011 8.32415 14.2985ZM5.81107 12.3116L8.01001 13.4602V7.45462L5.81107 6.30599V12.3116Z" fill="#00A3E0"/>
<path fill-rule="evenodd" clip-rule="evenodd" d="M8.32298 14.2988C8.27217 14.2992 8.22207 14.2856 8.177 14.2593L4.64873 12.2079C4.48787 12.1293 4.41362 11.9184 4.48308 11.7366C4.5526 11.5548 4.73918 11.4708 4.90003 11.5493C4.91399 11.5562 4.92763 11.564 4.94062 11.573L8.46889 13.6209C8.62502 13.7113 8.68657 13.9272 8.60661 14.1037C8.55203 14.2238 8.44258 14.2995 8.32298 14.2988Z" fill="#00A3E0"/>
<path fill-rule="evenodd" clip-rule="evenodd" d="M5.44144 13.2891C5.30557 13.2891 5.19531 13.1501 5.19531 12.979V5.00969C5.19531 4.83851 5.30557 4.69962 5.44144 4.69962C5.57735 4.69962 5.68762 4.83851 5.68762 5.00969V12.979C5.68762 13.1501 5.57735 13.2891 5.44144 13.2891Z" fill="#00A3E0"/>
<path fill-rule="evenodd" clip-rule="evenodd" d="M8.34123 7.47852C8.26971 7.47852 8.20035 7.45075 8.14596 7.40022L4.87489 5.5733C4.72499 5.49598 4.66103 5.30156 4.73222 5.13877C4.8034 4.97598 4.98244 4.90648 5.13234 4.9838C5.13773 4.98671 5.1431 4.98966 5.14823 4.9926L8.47039 6.8489C8.57281 6.90988 8.638 7.02537 8.64158 7.15228C8.64158 7.33235 8.50702 7.47852 8.34123 7.47852Z" fill="#00A3E0"/>
</svg>
