<svg width="100%" height="100%" viewBox="0 0 33 34" fill="none" xmlns="http://www.w3.org/2000/svg">
<path fill-rule="evenodd" clip-rule="evenodd" d="M15.5996 33.5898C15.145 33.5898 14.7092 33.4093 14.3885 33.0873L2.44794 21.1629C2.11359 20.8315 2.11103 20.2924 2.44275 19.9585C2.44454 19.9568 2.44625 19.9551 2.44794 19.9534C2.78051 19.623 3.31782 19.623 3.65049 19.9534L15.6337 31.8778L25.2799 22.2361L11.753 8.72735L2.9085 9.53657L1.91052 16.3505L4.55449 14.0934L4.7251 13.9485C4.47436 13.0628 4.32849 12.1514 4.29012 11.2315C4.262 10.7613 4.62109 10.3567 5.09192 10.3287C5.56265 10.3006 5.96783 10.6591 5.99595 11.1292C6.02492 11.6344 6.0821 12.1378 6.16656 12.6369C6.68939 12.2255 7.32733 11.9845 7.99171 11.9469H8.06846C9.3154 11.9632 10.3816 12.8464 10.6272 14.0678C10.7978 14.9485 10.4932 15.8531 9.82545 16.4527C9.11075 17.0421 8.13591 17.2083 7.26678 16.8871C6.55283 16.6359 5.93801 16.1639 5.50979 15.5413L1.48409 18.9483C1.27097 19.1323 0.980074 19.1996 0.707982 19.1272C0.434197 19.0506 0.216742 18.8427 0.128052 18.5735C0.0213969 18.2856 -0.0195002 17.9765 0.0086213 17.6707L1.23682 9.26391C1.35194 8.4846 1.98642 7.88663 2.77194 7.81599L11.6166 7.00686C12.1197 6.96256 12.6162 7.1439 12.9727 7.50083L26.4996 21.0096C27.1665 21.6747 27.1665 22.7531 26.5013 23.4183C26.5004 23.4192 26.5004 23.4192 26.4996 23.4199L16.8021 33.0873C16.484 33.4077 16.0517 33.5882 15.5996 33.5898ZM6.7636 14.3915C6.99553 14.8114 7.37079 15.135 7.82111 15.3028C8.12047 15.4187 8.45822 15.3735 8.71667 15.1836C8.92227 14.9783 9.00833 14.6837 8.94701 14.4C8.85145 13.9989 8.50598 13.7058 8.09404 13.6761C7.57891 13.7467 7.10642 14.0006 6.7636 14.3915Z" fill="#005587"/>
<path fill-rule="evenodd" clip-rule="evenodd" d="M32.5635 8.89844H21.4363C21.1955 8.89844 21 8.70322 21 8.46267V3.08521C21 2.84466 21.1955 2.64944 21.4363 2.64944H32.1272V0.871504H21.8727V1.62105C21.8727 1.86159 21.6772 2.05681 21.4363 2.05681C21.1955 2.05681 21 1.86159 21 1.62105V0.435743C21 0.195197 21.1955 -2.47955e-05 21.4363 -2.47955e-05H32.5635C32.8044 -2.47955e-05 32.9999 0.195197 32.9999 0.435743V3.08521C32.9999 3.3258 32.8044 3.52097 32.5635 3.52097H21.8727V8.02691H32.1272V5.04619H23.4873V6.38404H24.7963V5.89159C24.7963 5.65104 24.9918 5.45583 25.2327 5.45583C25.4735 5.45583 25.6691 5.65104 25.6691 5.89159V6.81109C25.6691 7.05164 25.4735 7.24686 25.2327 7.24686H23.0509C22.81 7.24686 22.6145 7.05164 22.6145 6.81109V4.60172C22.6136 4.4858 22.6594 4.37465 22.7411 4.29232C22.8236 4.21085 22.9348 4.16504 23.0509 4.16591H32.5635C32.8044 4.16591 32.9999 4.36118 32.9999 4.60172V8.45392C33.0047 8.69451 32.8131 8.89363 32.5723 8.89844C32.5692 8.89844 32.5666 8.89844 32.5635 8.89844Z" fill="#005587"/>
</svg>
