<svg width="100%" height="100%" viewBox="0 0 36 31" fill="none" xmlns="http://www.w3.org/2000/svg">
<path d="M34.8 23.3H32.4V16.1C32.4 15.38 31.92 14.9 31.2 14.9H19.2V8.9H21.6C22.32 8.9 22.8 8.42 22.8 7.7V1.7C22.8 0.98 22.32 0.5 21.6 0.5H14.4C13.68 0.5 13.2 0.98 13.2 1.7V7.7C13.2 8.42 13.68 8.9 14.4 8.9H16.8V14.9H4.8C4.08 14.9 3.6 15.38 3.6 16.1V23.3H1.2C0.48 23.3 0 23.78 0 24.5V29.3C0 30.02 0.48 30.5 1.2 30.5H8.4C9.12 30.5 9.6 30.02 9.6 29.3V24.5C9.6 23.78 9.12 23.3 8.4 23.3H6V17.3H16.8V23.3H14.4C13.68 23.3 13.2 23.78 13.2 24.5V29.3C13.2 30.02 13.68 30.5 14.4 30.5H21.6C22.32 30.5 22.8 30.02 22.8 29.3V24.5C22.8 23.78 22.32 23.3 21.6 23.3H19.2V17.3H30V23.3H27.6C26.88 23.3 26.4 23.78 26.4 24.5V29.3C26.4 30.02 26.88 30.5 27.6 30.5H34.8C35.52 30.5 36 30.02 36 29.3V24.5C36 23.78 35.52 23.3 34.8 23.3ZM15.6 2.9H20.4V6.5H15.6V2.9ZM7.2 28.1H2.4V25.7H7.2V28.1ZM20.4 28.1H15.6V25.7H20.4V28.1ZM33.6 28.1H28.8V25.7H33.6V28.1Z" fill="#005587"/>
</svg>
