<svg width="100%" height="100%" viewBox="0 0 37 32" fill="none" xmlns="http://www.w3.org/2000/svg">
<path fill-rule="evenodd" clip-rule="evenodd" d="M21.9793 22.4131C21.4612 22.4131 21.0408 21.9924 21.0408 21.4739V14.3361C21.0408 13.8177 21.4612 13.397 21.9793 13.397C22.4974 13.397 22.9179 13.8177 22.9179 14.3361V21.5209C22.8925 22.0216 22.4795 22.4141 21.9793 22.4131Z" fill="#005587"/>
<path fill-rule="evenodd" clip-rule="evenodd" d="M21.9793 12.0674C21.4612 12.0674 21.0408 11.6467 21.0408 11.1282V3.99043C21.0408 3.47205 21.4612 3.05125 21.9793 3.05125C22.4974 3.05125 22.9179 3.47205 22.9179 3.99043V11.1752C22.8925 11.6759 22.4795 12.0684 21.9793 12.0674Z" fill="#005587"/>
<path fill-rule="evenodd" clip-rule="evenodd" d="M3.24705 22.4131C2.72908 22.4131 2.30859 21.9924 2.30859 21.4739V14.3361C2.30859 13.8177 2.72908 13.397 3.24705 13.397C3.76512 13.397 4.1856 13.8177 4.1856 14.3361V21.5209C4.16024 22.0216 3.74732 22.4141 3.24705 22.4131Z" fill="#005587"/>
<path fill-rule="evenodd" clip-rule="evenodd" d="M3.24705 12.0674C2.72908 12.0674 2.30859 11.6467 2.30859 11.1282V3.99043C2.30859 3.47205 2.72908 3.05125 3.24705 3.05125C3.76512 3.05125 4.1856 3.47205 4.1856 3.99043V11.1752C4.16024 11.6759 3.74732 12.0684 3.24705 12.0674Z" fill="#005587"/>
<path fill-rule="evenodd" clip-rule="evenodd" d="M24.2883 25.0801H0.938455C0.420483 25.0801 0 24.6594 0 24.141V21.4736C0 20.9552 0.420483 20.5344 0.938455 20.5344C1.45653 20.5344 1.87701 20.9552 1.87701 21.4736V23.2018H23.3498V22.4129H3.24714C2.72916 22.4129 2.30868 21.9921 2.30868 21.4736C2.30868 20.9552 2.72916 20.5344 3.24714 20.5344H24.2883C24.8064 20.5344 25.2267 20.9552 25.2267 21.4736V24.141C25.2267 24.6594 24.8064 25.0801 24.2883 25.0801Z" fill="#005587"/>
<path fill-rule="evenodd" clip-rule="evenodd" d="M24.2883 14.8896H3.24714C2.72916 14.8896 2.30868 14.469 2.30868 13.9506C2.30868 13.4321 2.72916 13.0114 3.24714 13.0114H23.3498V12.2225H1.87701V13.9506C1.87701 14.469 1.45653 14.8896 0.938455 14.8896C0.420483 14.8896 0 14.469 0 13.9506V11.2832C0 10.7648 0.420483 10.3441 0.938455 10.3441H24.2883C24.8064 10.3441 25.2267 10.7648 25.2267 11.2832V13.9506C25.2267 14.469 24.8064 14.8896 24.2883 14.8896Z" fill="#005587"/>
<path fill-rule="evenodd" clip-rule="evenodd" d="M24.2883 4.5459H3.24714C2.72916 4.5459 2.30868 4.12521 2.30868 3.60682C2.30868 3.08833 2.72916 2.66765 3.24714 2.66765H23.3498V1.87874H1.87701V3.60682C1.87701 4.12521 1.45653 4.5459 0.938455 4.5459C0.420483 4.5459 0 4.12521 0 3.60682V0.939444C0 0.421057 0.420483 0.00037241 0.938455 0.00037241H24.2883C24.8064 0.00037241 25.2267 0.421057 25.2267 0.939444V3.60682C25.2267 4.12521 24.8064 4.5459 24.2883 4.5459Z" fill="#005587"/>
<path fill-rule="evenodd" clip-rule="evenodd" d="M12.6134 22.4131C12.0953 22.4131 11.6748 21.9924 11.6748 21.4739V14.2329C11.6748 13.7144 12.0953 13.2937 12.6134 13.2937C13.1314 13.2937 13.5519 13.7144 13.5519 14.2329V21.4739C13.5519 21.9924 13.1314 22.4131 12.6134 22.4131Z" fill="#005587"/>
<path fill-rule="evenodd" clip-rule="evenodd" d="M12.6134 12.0674C12.0953 12.0674 11.6748 11.6467 11.6748 11.1282V3.88715C11.6748 3.36866 12.0953 2.94797 12.6134 2.94797C13.1314 2.94797 13.5519 3.36866 13.5519 3.88715V11.1282C13.5519 11.6467 13.1314 12.0674 12.6134 12.0674Z" fill="#005587"/>
<path fill-rule="evenodd" clip-rule="evenodd" d="M7.93028 22.4131C7.41221 22.4131 6.9917 21.9924 6.9917 21.4739V14.3361C6.9917 13.8177 7.41221 13.397 7.93028 13.397C8.44825 13.397 8.86874 13.8177 8.86874 14.3361V21.5209C8.84348 22.0216 8.43045 22.4141 7.93028 22.4131Z" fill="#005587"/>
<path fill-rule="evenodd" clip-rule="evenodd" d="M7.93028 12.0674C7.41221 12.0674 6.9917 11.6467 6.9917 11.1282V3.99043C6.9917 3.47205 7.41221 3.05125 7.93028 3.05125C8.44825 3.05125 8.86874 3.47205 8.86874 3.99043V11.1752C8.84348 11.6759 8.43045 12.0684 7.93028 12.0674Z" fill="#005587"/>
<path fill-rule="evenodd" clip-rule="evenodd" d="M17.2965 22.4131C16.7784 22.4131 16.3579 21.9924 16.3579 21.4739V14.3361C16.3579 13.8177 16.7784 13.397 17.2965 13.397C17.8146 13.397 18.235 13.8177 18.235 14.3361V21.5209C18.2097 22.0216 17.7967 22.4141 17.2965 22.4131Z" fill="#005587"/>
<path fill-rule="evenodd" clip-rule="evenodd" d="M17.2965 12.0674C16.7784 12.0674 16.3579 11.6467 16.3579 11.1282V3.99043C16.3579 3.47205 16.7784 3.05125 17.2965 3.05125C17.8146 3.05125 18.235 3.47205 18.235 3.99043V11.1752C18.2097 11.6759 17.7967 12.0684 17.2965 12.0674Z" fill="#005587"/>
<path fill-rule="evenodd" clip-rule="evenodd" d="M35.8192 32H26.4464C26.2 32 26 31.8003 26 31.5543V19.4573C25.9987 19.2113 26.1973 19.0103 26.4437 19.0089C26.566 19.008 26.6829 19.0575 26.7678 19.1453L28.263 20.692L29.8251 22.5774C29.9879 22.5105 30.1571 22.4584 30.3294 22.4214C30.8985 22.3086 31.4894 22.384 32.0121 22.6354C32.187 22.7169 32.3495 22.8239 32.4941 22.9518C32.7695 22.9072 33.0516 22.9678 33.2841 23.1211C33.5921 23.3026 33.7313 23.6739 33.6188 24.0126C33.5371 24.2368 33.3475 24.4048 33.1145 24.4583C32.9284 24.5118 32.7297 24.4993 32.5521 24.4227C32.5521 24.5966 32.5209 24.7703 32.5119 24.9397V25.1002C32.5119 25.1848 32.5119 25.2696 32.5119 25.3498C32.6632 25.381 32.8123 25.4229 32.9583 25.4746C33.4845 25.6645 33.8889 26.0933 34.0473 26.629C34.2138 27.2107 34.0964 27.8365 33.7304 28.3183C33.4033 28.7418 32.9525 29.0529 32.4406 29.2097C32.3687 29.4879 32.213 29.7366 31.9942 29.9229C31.6845 30.1859 31.2743 30.2982 30.874 30.2305C30.2692 30.1195 29.8099 29.6243 29.7448 29.0136C29.1458 28.6945 28.633 28.2359 28.2496 27.6765C28.104 27.4773 28.1482 27.1978 28.3477 27.0525C28.5472 26.9071 28.8271 26.9513 28.9726 27.1505C29.185 27.4523 29.4421 27.7197 29.7358 27.9439V26.9366C29.7358 26.6691 29.7358 26.3705 29.7804 26.0451V25.9827C29.4055 25.8775 29.0663 25.6725 28.7985 25.3899C28.5026 25.0512 28.3705 24.5997 28.437 24.1553C28.4946 23.7185 28.7124 23.3182 29.0484 23.032L27.5934 21.2759L26.8883 20.5494V31.0996H35.3684V20.5583L34.5695 21.3784C34.3986 21.5558 34.1161 21.5607 33.9384 21.39C33.9344 21.3864 33.9304 21.3824 33.9268 21.3784L32.686 20.0992L31.4408 21.3784C31.3569 21.4662 31.2408 21.5161 31.1194 21.5166C30.998 21.5161 30.882 21.4662 30.798 21.3784L29.5573 20.0992L29.2627 20.4023C29.0886 20.5752 28.8074 20.5752 28.6334 20.4023C28.4602 20.2284 28.4602 19.9476 28.6334 19.7738L29.2449 19.1364C29.4252 18.9666 29.7072 18.9666 29.8875 19.1364L31.1283 20.4201L32.3736 19.1364C32.4584 19.0504 32.574 19.0018 32.6949 19.0027C32.8159 19.0018 32.9315 19.0504 33.0163 19.1364L34.2571 20.4201L35.5023 19.1364C35.6733 18.959 35.9558 18.9541 36.1334 19.1249C36.2213 19.2095 36.2709 19.3262 36.27 19.4484V31.5454C36.2749 31.7914 36.079 31.9951 35.8327 32C35.8281 32 35.8237 32 35.8192 32ZM30.6106 28.3807C30.757 28.4177 30.9065 28.4431 31.0569 28.4565C31.2292 28.4698 31.4024 28.4698 31.5747 28.4565V28.2515C31.5747 27.8058 31.5747 27.3377 31.5747 26.8831V26.1744H31.0257C30.9453 26.1744 30.8204 26.1744 30.6686 26.1744C30.6686 26.4507 30.6329 26.7182 30.6285 26.9499L30.6106 28.3807ZM32.4539 26.2591V26.892C32.4539 27.3377 32.4539 27.7835 32.4539 28.2292C32.6664 28.1249 32.8516 27.9724 32.994 27.7835C33.1886 27.5298 33.2529 27.2 33.168 26.892C33.0918 26.6255 32.8905 26.4124 32.628 26.3214L32.4539 26.2591ZM30.7043 25.2696H31.0123H31.5836V25.0244V24.8684C31.5836 24.6278 31.6193 24.387 31.6506 24.1508V24.0795C31.6711 23.8945 31.7113 23.7122 31.7711 23.5357C31.7139 23.4938 31.6528 23.4577 31.5881 23.4287C31.2426 23.2585 30.8503 23.2068 30.4722 23.2817L30.3429 23.3128C30.3696 23.3574 30.3919 23.4064 30.4142 23.451C30.6445 24.0282 30.7436 24.6496 30.7043 25.2696ZM29.593 23.7541C29.4434 23.8896 29.3444 24.0719 29.3118 24.2712C29.2752 24.4642 29.3297 24.6629 29.4591 24.8104C29.559 24.9161 29.6792 25.0008 29.8117 25.0601C29.8363 24.642 29.7742 24.223 29.6287 23.8299C29.6189 23.8036 29.6068 23.7787 29.593 23.7541Z" fill="#005587"/>
</svg>
