<svg width="100%" height="100%" viewBox="0 0 40 19" fill="none" xmlns="http://www.w3.org/2000/svg">
<path fill-rule="evenodd" clip-rule="evenodd" d="M30.579 18.0611C30.2068 18.0611 29.8345 18.0611 29.4159 18.0611C23.6001 17.4901 19.1567 9.97423 18.9474 9.64797C18.7392 9.28782 18.7392 8.84275 18.9474 8.4827C19.1335 8.15643 23.6001 0.64048 29.4159 0.0695515C32.1935 -0.263777 34.9815 0.605488 37.0811 2.45827C40.723 5.77225 40.9939 11.4179 37.6859 15.0663C37.494 15.2784 37.2916 15.4801 37.0811 15.6723C35.2851 17.25 32.967 18.1019 30.579 18.0611ZM21.3784 9.01864C22.4718 10.6733 25.8566 15.3227 29.6835 15.6956C31.7875 15.9403 33.8974 15.2889 35.4992 13.9011C38.1907 11.4622 38.3989 7.29877 35.9644 4.60234C35.8167 4.43925 35.662 4.28313 35.4992 4.13628C33.8986 2.74611 31.7875 2.0947 29.6835 2.34179C26.1939 2.69136 22.8091 6.83968 21.3784 9.01864Z" fill="#005587"/>
<path fill-rule="evenodd" clip-rule="evenodd" d="M9.42096 0.00237299C9.79321 0.00237302 10.1655 0.00237305 10.5841 0.00237309C16.3999 0.573405 20.8433 8.08925 21.0526 8.41551C21.2608 8.77566 21.2608 9.22073 21.0526 9.58078C20.8665 9.90705 16.3999 17.423 10.5841 17.9939C7.80652 18.3273 5.01851 17.458 2.91894 15.6052C-0.722976 12.2912 -0.993882 6.64553 2.31414 2.99713C2.50604 2.78503 2.70845 2.58342 2.91894 2.39119C4.71489 0.813442 7.03304 -0.0383794 9.42096 0.00237299ZM18.6216 9.04484C17.5282 7.39014 14.1434 2.74075 10.3165 2.3679C8.21248 2.12313 6.10256 2.77454 4.50082 4.1624C1.80927 6.60124 1.60109 10.7647 4.03557 13.4611C4.18334 13.6242 4.33804 13.7803 4.50082 13.9272C6.1014 15.3174 8.21248 15.9688 10.3165 15.7217C13.8061 15.3721 17.1909 11.2238 18.6216 9.04484Z" fill="#005587"/>
</svg>
