<svg width="100%" height="100%" viewBox="0 0 24 24" fill="none" xmlns="http://www.w3.org/2000/svg">
<circle cx="11.9999" cy="12.0009" r="11.5556" fill="white"/>
<path fill-rule="evenodd" clip-rule="evenodd" d="M11.8456 18.3906C11.6706 18.3906 11.5027 18.3211 11.3791 18.1971L6.77983 13.6039C6.65104 13.4763 6.65005 13.2687 6.77783 13.14C6.77851 13.1394 6.77917 13.1387 6.77983 13.1381C6.90793 13.0108 7.11489 13.0108 7.24303 13.1381L11.8588 17.7312L15.5744 14.0173L10.364 8.81396L6.95723 9.12566L6.57282 11.7503L7.59124 10.8809L7.65695 10.8251C7.56037 10.4839 7.50418 10.1329 7.4894 9.77851C7.47857 9.59741 7.61689 9.44156 7.79824 9.43077C7.97956 9.41994 8.13563 9.55803 8.14647 9.73913C8.15762 9.93371 8.17965 10.1276 8.21218 10.3199C8.41357 10.1614 8.65929 10.0686 8.9152 10.0541H8.94477C9.42507 10.0604 9.83575 10.4005 9.93034 10.871C9.99605 11.2103 9.87874 11.5587 9.62153 11.7896C9.34624 12.0167 8.97075 12.0807 8.63597 11.957C8.36097 11.8602 8.12415 11.6784 7.9592 11.4386L6.40856 12.7509C6.32647 12.8218 6.21442 12.8477 6.10962 12.8198C6.00416 12.7903 5.9204 12.7102 5.88624 12.6066C5.84516 12.4957 5.8294 12.3766 5.84023 12.2588L6.31332 9.02063C6.35766 8.72046 6.60205 8.49013 6.90462 8.46292L10.3114 8.15125C10.5053 8.13419 10.6965 8.20404 10.8338 8.34152L16.0442 13.5449C16.3011 13.8011 16.3011 14.2165 16.0448 14.4727C16.0445 14.473 16.0445 14.473 16.0442 14.4733L12.3088 18.1971C12.1863 18.3205 12.0198 18.39 11.8456 18.3906ZM8.44215 10.9957C8.53149 11.1574 8.67603 11.2821 8.84949 11.3467C8.9648 11.3914 9.0949 11.374 9.19445 11.3008C9.27364 11.2217 9.30679 11.1082 9.28317 10.999C9.24636 10.8445 9.11329 10.7316 8.95462 10.7201C8.7562 10.7473 8.5742 10.8451 8.44215 10.9957Z" fill="#005587"/>
<path fill-rule="evenodd" clip-rule="evenodd" d="M18.3799 8.88086H14.0939C14.0011 8.88086 13.9258 8.80566 13.9258 8.71301V6.64169C13.9258 6.54903 14.0011 6.47384 14.0939 6.47384H18.2118V5.789H14.2619V6.07772C14.2619 6.17037 14.1866 6.24557 14.0939 6.24557C14.0011 6.24557 13.9258 6.17037 13.9258 6.07772V5.62115C13.9258 5.5285 14.0011 5.4533 14.0939 5.4533H18.3799C18.4727 5.4533 18.548 5.5285 18.548 5.62115V6.64169C18.548 6.73436 18.4727 6.80954 18.3799 6.80954H14.2619V8.54516H18.2118V7.39703H14.8838V7.91235H15.3881V7.72267C15.3881 7.63001 15.4634 7.55482 15.5562 7.55482C15.6489 7.55482 15.7242 7.63001 15.7242 7.72267V8.07684C15.7242 8.1695 15.6489 8.2447 15.5562 8.2447H14.7157C14.623 8.2447 14.5477 8.1695 14.5477 8.07684V7.22583C14.5473 7.18118 14.565 7.13836 14.5964 7.10665C14.6282 7.07527 14.671 7.05763 14.7157 7.05796H18.3799C18.4727 7.05796 18.548 7.13317 18.548 7.22583V8.70964C18.5498 8.80231 18.476 8.87901 18.3832 8.88086C18.3821 8.88086 18.3811 8.88086 18.3799 8.88086Z" fill="#005587"/>
</svg>
