<svg width="100%" height="100%" viewBox="0 0 28 32" fill="none" xmlns="http://www.w3.org/2000/svg">
<path fill-rule="evenodd" clip-rule="evenodd" d="M14.0035 31.2832C9.68065 31.2832 7.39648 23.2264 7.39648 15.6417C7.39648 8.05705 9.72791 8.76763e-05 14.0035 8.76763e-05C18.2792 8.76763e-05 20.6577 8.08536 20.6577 15.6417C20.6577 23.198 18.3264 31.2832 14.0035 31.2832ZM14.0035 1.88929C11.7477 1.88929 9.28423 7.77374 9.28423 15.6417C9.28423 23.5097 11.795 29.3942 14.0035 29.3942C16.2122 29.3942 18.77 23.5097 18.77 15.6417C18.77 7.77374 16.2498 1.88929 14.0035 1.88929Z" fill="#005587"/>
<path fill-rule="evenodd" clip-rule="evenodd" d="M23.0078 25.4658C19.5156 25.4658 14.7868 23.7845 10.6716 21.4137C4.11192 17.6356 -1.70217 11.5716 0.459178 7.82177C2.62053 4.07204 10.766 6.08393 17.3258 9.87145C23.9327 13.6496 29.6997 19.7136 27.5382 23.4633C26.736 24.8613 25.0842 25.4658 23.0078 25.4658ZM4.98027 7.73684C3.51731 7.73684 2.48844 8.08621 2.09199 8.76628C0.96885 10.7121 4.80084 15.841 11.6155 19.7703C18.4301 23.6996 24.8294 24.4929 25.9054 22.5189C26.9813 20.5448 23.1965 15.4442 16.382 11.515C11.9553 8.94582 7.7174 7.73684 4.98027 7.73684Z" fill="#005587"/>
<path fill-rule="evenodd" clip-rule="evenodd" d="M4.98974 25.4658C2.91321 25.4658 1.27091 24.8613 0.459178 23.4633C-1.70217 19.6852 4.11192 13.6684 10.6716 9.87145C17.2786 6.0933 25.3768 4.07204 27.5382 7.82177C29.6997 11.5716 23.8951 17.6167 17.3258 21.4136C13.2201 23.7845 8.49145 25.4658 4.98974 25.4658ZM11.5966 11.515C4.78197 15.4442 0.950046 20.5731 2.07319 22.5188C3.19643 24.4646 9.54853 23.7089 16.3631 19.7702C23.1778 15.8314 27.0569 10.7121 25.9054 8.76628C24.754 6.82059 18.4301 7.57622 11.6155 11.515H11.5966Z" fill="#005587"/>
<path fill-rule="evenodd" clip-rule="evenodd" d="M13.9657 14.1494C13.4447 14.1494 13.0219 13.7265 13.0219 13.2049V9.19993C13.0219 8.67828 13.4447 8.25539 13.9657 8.25539C14.4868 8.25539 14.9097 8.67828 14.9097 9.19993V13.2049C14.9097 13.7265 14.4868 14.1494 13.9657 14.1494Z" fill="#005587"/>
<path fill-rule="evenodd" clip-rule="evenodd" d="M13.9659 18.3535C12.2876 18.3535 10.9266 16.9918 10.9266 15.312C10.9277 14.975 10.9814 14.6404 11.0872 14.3202C11.2382 13.8211 11.7658 13.539 12.2641 13.6905C12.7634 13.8419 13.0447 14.3694 12.8937 14.8685C12.8872 14.8907 12.8795 14.9126 12.871 14.9342C12.8332 15.0565 12.8144 15.1839 12.8144 15.312C12.8144 15.9536 13.3345 16.4738 13.9753 16.4738C14.6161 16.4737 15.1363 15.9535 15.1363 15.3119C15.1363 14.6702 14.6161 14.1501 13.9753 14.1502C13.9725 14.1502 13.9687 14.1502 13.9659 14.1502C13.4449 14.1502 13.022 13.7273 13.022 13.2056C13.022 12.684 13.4449 12.2611 13.9659 12.2611C15.6468 12.1673 17.0853 13.4552 17.1796 15.1376C17.2731 16.82 15.9857 18.26 14.3047 18.3535C14.1924 18.36 14.0792 18.36 13.9659 18.3535Z" fill="#005587"/>
</svg>
