<svg width="100%" height="100%" viewBox="0 0 44 44" fill="none" xmlns="http://www.w3.org/2000/svg">
<path d="M0 22C0 9.84974 9.84974 0 22 0C34.1503 0 44 9.84974 44 22C44 34.1503 34.1503 44 22 44C9.84974 44 0 34.1503 0 22Z" fill="#4A274F"/>
<circle cx="22.0004" cy="21.9994" r="13.64" fill="#F0A07C"/>
<path fill-rule="evenodd" clip-rule="evenodd" d="M24.6792 19.035L21.8189 11.8789L14.96 29.0389H28.6778L26.9537 24.7254C27.9324 24.2095 28.5996 23.1821 28.5996 21.9989C28.5996 20.2979 27.2206 18.9189 25.5196 18.9189C25.2282 18.9189 24.9463 18.9594 24.6792 19.035ZM24.6792 19.035C23.3866 19.4007 22.4396 20.5892 22.4396 21.9989C22.4396 23.6999 23.8185 25.0789 25.5196 25.0789C26.0374 25.0789 26.5254 24.9511 26.9537 24.7254L24.6792 19.035Z" fill="#4A274F"/>
</svg>
