<svg width="26" height="26" viewBox="0 0 26 26" fill="none" xmlns="http://www.w3.org/2000/svg">
<circle cx="13" cy="13" r="12.5" fill="white" stroke="#E2EAEC"/>
<g clip-path="url(#mongodb)">
<path fill-rule="evenodd" clip-rule="evenodd" d="M16.1504 17.8916C16.1733 17.8476 16.1952 17.8088 16.2139 17.7685C16.2257 17.7428 16.2438 17.7377 16.2694 17.7383C16.4228 17.7427 16.5763 17.7474 16.7298 17.7489C16.8602 17.7503 16.9909 17.7478 17.1215 17.7463C17.2685 17.7446 17.4156 17.7368 17.5625 17.741C17.7582 17.7467 17.9489 17.7851 18.1258 17.8721C18.3372 17.9763 18.4972 18.1348 18.6062 18.3438C18.6747 18.4763 18.7175 18.6206 18.7322 18.769C18.7555 18.9867 18.7402 19.1995 18.6712 19.4078C18.5856 19.6659 18.4231 19.8634 18.1973 20.0114C18.0236 20.1253 17.8331 20.1926 17.6289 20.2311C17.4127 20.2718 17.1959 20.2587 16.9791 20.2594C16.7413 20.2603 16.5037 20.2552 16.2659 20.2525C16.2243 20.2521 16.2184 20.2442 16.2293 20.2045L16.2395 20.168C16.2627 20.0951 16.2751 20.0919 16.349 20.0797C16.4015 20.0714 16.4516 20.0524 16.4962 20.0238C16.5212 20.0072 16.5315 19.9642 16.5412 19.931C16.5496 19.902 16.55 19.8702 16.5503 19.8396C16.5537 19.3758 16.5572 18.9121 16.5591 18.4486C16.5596 18.3314 16.5567 18.2141 16.5503 18.0971C16.5457 18.0151 16.5019 17.9591 16.4044 17.9397C16.3286 17.9247 16.2522 17.913 16.176 17.8996L16.1504 17.8916ZM18.3273 19.0146C18.3171 18.9223 18.312 18.8291 18.2955 18.7381C18.256 18.5197 18.1604 18.3294 17.9925 18.1803C17.721 17.9394 17.3941 17.9023 17.0515 17.931C16.9735 17.9375 16.9567 17.9642 16.9554 18.0444C16.9535 18.1581 16.9517 18.2719 16.9515 18.3856C16.951 18.7464 16.951 19.1071 16.9515 19.4679C16.9517 19.5705 16.9527 19.6732 16.9557 19.7755C16.959 19.8804 16.997 19.9691 17.0997 20.0097C17.2615 20.0737 17.4317 20.0813 17.6015 20.0552C17.8728 20.0136 18.0625 19.8556 18.1898 19.6187C18.2905 19.4308 18.319 19.2256 18.3273 19.0146ZM18.9867 20.243C18.9834 20.1868 19.0065 20.1404 19.0349 20.0977C19.0426 20.0862 19.0692 20.0867 19.0874 20.0831L19.2426 20.0523C19.2975 20.0407 19.3263 20.0039 19.334 19.9501C19.3392 19.9146 19.3441 19.8787 19.3445 19.8428C19.3481 19.5589 19.3508 19.2749 19.3525 18.9909C19.3538 18.7066 19.3527 18.4222 19.3527 18.1378L19.3515 18.0835C19.346 17.9921 19.3018 17.9447 19.2111 17.9313L19.0143 17.9014C18.9901 17.8981 18.9813 17.8865 18.9901 17.865C19.0052 17.8283 19.0197 17.7902 19.0411 17.7572C19.0491 17.745 19.0761 17.7402 19.0942 17.7406C19.1882 17.742 19.2822 17.749 19.3762 17.7489L20.1942 17.744C20.3518 17.7439 20.504 17.7714 20.6454 17.8468C20.801 17.9297 20.8881 18.0579 20.913 18.2326C20.939 18.4161 20.8833 18.5707 20.7493 18.6936C20.6942 18.7442 20.6228 18.7773 20.5589 18.8184L20.538 18.8314C20.5973 18.8532 20.6538 18.872 20.7088 18.8945C20.8697 18.9605 20.9976 19.0635 21.0653 19.2281C21.1188 19.3579 21.1188 19.4933 21.0871 19.6279C21.0378 19.8386 20.899 19.9788 20.7185 20.0848C20.5491 20.1844 20.3658 20.2423 20.1705 20.2521C19.9904 20.2611 19.8095 20.2578 19.629 20.2598L19.5244 20.2603C19.3505 20.2563 19.1765 20.252 19.0025 20.2473L18.9867 20.243ZM19.7365 19.4185H19.7383C19.7383 19.5076 19.737 19.5967 19.7387 19.6858C19.7397 19.7435 19.7377 19.8028 19.7502 19.8583C19.7689 19.9413 19.8068 20.0162 19.8999 20.04C20.0245 20.0727 20.1546 20.0785 20.2815 20.0568C20.4409 20.029 20.5681 19.9491 20.6378 19.7973C20.6896 19.6845 20.6973 19.565 20.6795 19.4428C20.656 19.282 20.5705 19.1652 20.4285 19.0887C20.3353 19.0385 20.2359 19.0077 20.13 19.0037C20.0114 18.9992 19.8926 18.9989 19.774 18.9953C19.7407 18.9943 19.7361 19.0113 19.7362 19.0386C19.7369 19.1651 19.7365 19.2917 19.7365 19.4185ZM19.989 18.8125C20.0539 18.8092 20.1273 18.8083 20.2003 18.801C20.34 18.787 20.4385 18.7167 20.4898 18.5831C20.516 18.5152 20.5149 18.4453 20.5155 18.3748C20.5176 18.191 20.4103 18.0405 20.2358 17.9782C20.101 17.9301 19.9621 17.9293 19.8224 17.9331C19.7657 17.9346 19.7404 17.9593 19.7396 18.0163L19.7312 18.7596C19.7308 18.7892 19.7435 18.8019 19.7722 18.8028L19.989 18.8125Z" fill="#94795D"/>
<path fill-rule="evenodd" clip-rule="evenodd" d="M5.76148 20.1019L5.7516 20.2297C5.65951 20.2297 5.57461 20.2291 5.4897 20.23C5.32977 20.2316 5.16985 20.2342 5.00978 20.2365L4.99435 20.2375C4.97146 20.2348 4.92989 20.2348 4.9288 20.228C4.92203 20.1899 4.9242 20.15 4.92596 20.1106C4.9261 20.1061 4.94167 20.1004 4.95074 20.0983L5.07519 20.0705C5.15278 20.0503 5.18014 20.0169 5.18379 19.9367C5.18799 19.8464 5.19219 19.7559 5.1926 19.6656C5.19382 19.4432 5.19246 19.2212 5.19341 18.9988C5.19354 18.9468 5.17553 18.9081 5.12705 18.887C5.06945 18.8614 5.01144 18.8367 4.95304 18.813C4.92542 18.8019 4.88953 18.7958 4.89278 18.7587C4.89603 18.7209 4.93084 18.7111 4.96361 18.7036C5.09929 18.6726 5.23512 18.6424 5.3704 18.6094C5.414 18.5987 5.45571 18.5806 5.50785 18.5625C5.51055 18.5907 5.51557 18.6175 5.51502 18.6443L5.50703 18.7717C5.5069 18.7861 5.51435 18.8053 5.52504 18.8133C5.53154 18.8183 5.55335 18.8092 5.56418 18.8008C5.67983 18.7128 5.80224 18.6368 5.94186 18.5926C6.15812 18.5239 6.34377 18.5876 6.47377 18.774C6.51954 18.8397 6.51968 18.8397 6.58319 18.7938C6.6922 18.7146 6.80622 18.6447 6.93378 18.5987C7.21383 18.4975 7.4829 18.6259 7.58026 18.9079C7.61574 19.0103 7.62928 19.1161 7.62901 19.2241L7.62644 19.9416C7.6263 20.0008 7.64594 20.0345 7.70227 20.0529C7.76551 20.0736 7.83105 20.0878 7.90228 20.1065L7.88576 20.2299C7.80478 20.2299 7.7303 20.2293 7.65583 20.23C7.47383 20.2316 7.29183 20.2326 7.10996 20.2368C7.07827 20.2376 7.07001 20.2297 7.06839 20.2001C7.06311 20.1052 7.06229 20.1053 7.15167 20.0839L7.18173 20.0762C7.26908 20.0524 7.29819 20.0255 7.29887 19.937C7.3009 19.6827 7.30618 19.4277 7.29332 19.1739C7.27991 18.9107 7.07096 18.7705 6.81584 18.8379C6.73349 18.8605 6.65594 18.8978 6.58698 18.9482C6.56328 18.9651 6.55882 18.9846 6.56071 19.0142C6.56789 19.1264 6.57236 19.2386 6.5733 19.3509C6.57493 19.5474 6.57249 19.7439 6.5733 19.9405C6.57358 20.0201 6.60079 20.0506 6.67947 20.069L6.79634 20.096L6.818 20.1008C6.81963 20.1382 6.82112 20.1756 6.81936 20.213C6.81827 20.2364 6.80013 20.2384 6.77982 20.238C6.6662 20.2352 6.55245 20.2314 6.43884 20.2316C6.30058 20.2319 6.16245 20.2358 6.02433 20.2383H5.99183C5.99183 20.1986 5.98993 20.1607 5.99318 20.1229C5.99386 20.1138 6.00984 20.1011 6.0208 20.0983L6.15703 20.0694C6.21486 20.0552 6.24248 20.0255 6.24573 19.9668C6.26117 19.6946 6.27227 19.4223 6.24668 19.1502C6.24044 19.0965 6.22553 19.0441 6.20253 18.9952C6.13279 18.8411 5.97585 18.7767 5.79479 18.823C5.7088 18.845 5.63121 18.8844 5.55782 18.9341C5.54181 18.9439 5.52866 18.9578 5.51968 18.9743C5.5107 18.9908 5.5062 19.0094 5.50663 19.0282C5.50663 19.2997 5.50758 19.5712 5.50839 19.8426L5.50988 19.9473C5.5115 20.0203 5.54251 20.0587 5.61496 20.0744C5.66154 20.085 5.70867 20.0922 5.76148 20.1019Z" fill="#50382B"/>
<path fill-rule="evenodd" clip-rule="evenodd" d="M13.949 18.59C13.97 18.6921 13.9696 18.7839 13.8945 18.8535C13.8201 18.9227 13.7258 18.8994 13.6339 18.884C13.6424 18.9325 13.6519 18.9736 13.6565 19.0153C13.6899 19.3253 13.5565 19.5554 13.269 19.6869C13.1604 19.7364 13.0452 19.7548 12.9275 19.7643C12.869 19.7689 12.8178 19.8136 12.8123 19.8617C12.8066 19.9104 12.8372 19.9605 12.8984 19.9752C12.9706 19.9924 13.0459 19.9972 13.12 20.0058C13.2789 20.0239 13.4397 20.0322 13.5968 20.0606C13.8343 20.1034 13.9668 20.3107 13.925 20.5493C13.8878 20.7617 13.7648 20.9162 13.5934 21.0347C13.3045 21.2348 12.9876 21.2933 12.6502 21.1912C12.4572 21.1327 12.3211 21.0058 12.2741 20.8005C12.2506 20.6977 12.2756 20.6047 12.353 20.535C12.4449 20.4524 12.545 20.3787 12.6413 20.3007L12.6724 20.2694L12.6366 20.2444C12.5385 20.1978 12.4599 20.134 12.4295 20.0232C12.419 19.9857 12.4299 19.9611 12.4617 19.9419C12.5159 19.9092 12.5698 19.876 12.6232 19.8423C12.6484 19.8266 12.6733 19.8104 12.6968 19.7922C12.7287 19.7678 12.7259 19.7497 12.6877 19.7356C12.5989 19.7028 12.5199 19.6553 12.4587 19.5822C12.3565 19.4602 12.3275 19.3149 12.3359 19.1614C12.349 18.9218 12.4792 18.7639 12.6907 18.6623C12.9421 18.5416 13.1944 18.5341 13.4508 18.644C13.5456 18.6846 13.6455 18.6933 13.7472 18.6863C13.8232 18.6809 13.8895 18.6521 13.949 18.59ZM13.0223 20.3072C12.8335 20.3056 12.7744 20.3289 12.6636 20.4417C12.5396 20.5682 12.5402 20.7435 12.664 20.8705C12.758 20.9668 12.8753 21.0119 13.0057 21.0255C13.158 21.0412 13.308 21.0348 13.4464 20.9586C13.594 20.8769 13.6674 20.7252 13.6343 20.5725C13.6068 20.4464 13.5139 20.3887 13.4008 20.3555C13.2722 20.3179 13.1392 20.3107 13.0223 20.3072ZM12.6515 19.1009C12.6585 19.1533 12.6613 19.2064 12.6729 19.2577C12.7031 19.3907 12.761 19.5076 12.8933 19.5667C13.0486 19.6365 13.247 19.6066 13.315 19.3885C13.3614 19.2434 13.356 19.0867 13.2996 18.9452C13.2758 18.8805 13.2328 18.8246 13.1764 18.7849C13.0415 18.6907 12.7982 18.6783 12.6991 18.8863C12.6668 18.9539 12.6543 19.0258 12.6515 19.1009Z" fill="#4F382B"/>
<path fill-rule="evenodd" clip-rule="evenodd" d="M10.7456 18.5563C10.7506 18.5795 10.7607 18.6058 10.7609 18.6322C10.7613 18.6824 10.7559 18.7327 10.7531 18.7829V18.8265L10.7956 18.794C10.9121 18.6981 11.0372 18.6165 11.1829 18.5725C11.4459 18.4932 11.7086 18.6372 11.7943 18.905C11.8268 19.0069 11.8397 19.1116 11.8409 19.218C11.8436 19.4544 11.8452 19.6909 11.8477 19.9273C11.8485 20.0122 11.8582 20.0274 11.9385 20.0519C11.9842 20.0655 12.0308 20.0759 12.078 20.0829C12.1039 20.087 12.115 20.0971 12.1136 20.1224L12.1139 20.1457C12.1129 20.2436 12.1062 20.2481 12.0112 20.2478C11.784 20.2474 11.5569 20.2488 11.3297 20.2507C11.262 20.2512 11.2618 20.2533 11.2551 20.1864L11.2537 20.1479C11.2579 20.0902 11.2593 20.0908 11.316 20.0824C11.3542 20.0767 11.3921 20.0679 11.4294 20.0581C11.4677 20.0482 11.4861 20.0199 11.4912 19.982C11.4938 19.9628 11.4972 19.9436 11.4971 19.9243C11.4938 19.666 11.498 19.4073 11.4839 19.1493C11.4726 18.9407 11.3133 18.8163 11.1038 18.8306C11.0028 18.8376 10.9058 18.8724 10.8234 18.9312C10.7674 18.9703 10.7562 19.0268 10.7565 19.0876C10.7576 19.3292 10.7599 19.5708 10.7624 19.8125C10.763 19.8654 10.7645 19.9184 10.7695 19.9709C10.7747 20.0283 10.7949 20.0515 10.8513 20.0639C10.9052 20.0759 10.9601 20.0828 11.0177 20.0924L11.0226 20.1368C11.0245 20.2404 11.0136 20.2481 10.913 20.2477C10.6781 20.2468 10.4431 20.2482 10.2083 20.2508C10.1713 20.2514 10.1556 20.2397 10.1566 20.2037L10.156 20.1883C10.1499 20.095 10.1526 20.0914 10.2409 20.0763L10.2826 20.0679C10.3782 20.0463 10.4028 20.0209 10.4041 19.9238C10.4086 19.6163 10.4102 19.3089 10.4133 19.0013C10.4137 18.9572 10.3971 18.9229 10.3559 18.9046C10.2981 18.8793 10.24 18.8548 10.1816 18.831C10.1494 18.8177 10.1126 18.8093 10.1113 18.7648C10.1105 18.7333 10.1441 18.7056 10.19 18.6962C10.2822 18.6775 10.3753 18.662 10.4664 18.6391C10.5571 18.6165 10.6462 18.5861 10.7456 18.5563Z" fill="#4F372B"/>
<path fill-rule="evenodd" clip-rule="evenodd" d="M15.8255 19.3593C15.8212 19.6465 15.7466 19.8788 15.5434 20.0531C15.2861 20.2742 14.8848 20.3494 14.5567 20.184C14.4166 20.1135 14.3137 20.0053 14.2467 19.8648C14.1439 19.6489 14.1182 19.4218 14.1718 19.1891C14.2249 18.959 14.3642 18.7923 14.5728 18.6844C14.7873 18.5735 15.0131 18.5302 15.2513 18.5884C15.5526 18.6619 15.7692 18.9076 15.8122 19.2204C15.82 19.2752 15.8229 19.3308 15.8255 19.3593ZM15.4765 19.5149L15.4649 19.5136C15.4649 19.4865 15.4664 19.4594 15.4646 19.4323C15.4547 19.2636 15.4168 19.1029 15.319 18.9616C15.2263 18.8278 15.0999 18.7489 14.9355 18.7374C14.7515 18.7244 14.5969 18.8273 14.5426 19.0152C14.461 19.2974 14.4887 19.5725 14.6319 19.831C14.6944 19.9437 14.7869 20.0268 14.9108 20.0705C15.1536 20.156 15.3689 20.0454 15.4321 19.7967C15.4554 19.7049 15.4622 19.6089 15.4765 19.5149Z" fill="#4F382B"/>
<path fill-rule="evenodd" clip-rule="evenodd" d="M9.86071 19.3822C9.8557 19.5883 9.80709 19.7789 9.6798 19.9445C9.54343 20.1219 9.35602 20.2167 9.14287 20.2566C8.89086 20.3037 8.65415 20.2609 8.4517 20.0918C8.35556 20.0114 8.28988 19.9083 8.24655 19.791C8.17545 19.5987 8.15771 19.4017 8.20145 19.2009C8.24817 18.986 8.3695 18.8217 8.5576 18.7115C8.77508 18.5843 9.00976 18.5276 9.26041 18.5847C9.5827 18.6584 9.76877 18.8684 9.83756 19.1864C9.85137 19.2506 9.85327 19.3169 9.86071 19.3822ZM9.50782 19.5182L9.49847 19.5168V19.4781C9.49319 19.289 9.45622 19.1089 9.34342 18.9519C9.25987 18.8353 9.14802 18.7621 9.00461 18.7417C8.77088 18.7084 8.61813 18.847 8.56748 19.0354C8.5014 19.2815 8.52212 19.5245 8.62436 19.7579C8.68814 19.9033 8.78889 20.0166 8.94367 20.0716C9.18498 20.1573 9.40355 20.0439 9.46462 19.7962C9.4871 19.7056 9.49387 19.6111 9.50782 19.5182Z" fill="#4F372B"/>
<path fill-rule="evenodd" clip-rule="evenodd" d="M15.4871 8.875C15.6533 9.35532 15.7727 9.84567 15.8121 10.3537C15.8608 10.9842 15.8386 11.6104 15.7057 12.2305L15.6886 12.2801C15.6469 12.2802 15.6044 12.2749 15.5636 12.2813C15.2192 12.3354 14.8753 12.3915 14.5312 12.4473C14.1755 12.505 13.8194 12.5604 13.4644 12.6218C13.3386 12.6435 13.1828 12.6176 13.1321 12.7915L13.1077 12.7998L13.1249 11.7601L13.1074 9.25132L13.2732 9.22289C13.5441 9.1786 13.8151 9.13351 14.0865 9.09031C14.4101 9.03899 14.734 8.98889 15.058 8.93878C15.201 8.91684 15.3441 8.8964 15.4871 8.875Z" fill="#439934"/>
<path fill-rule="evenodd" clip-rule="evenodd" d="M12.7662 15.8316C12.5914 15.6813 12.4105 15.5376 12.243 15.3795C11.3414 14.5291 10.6817 13.5279 10.3569 12.321C10.2674 11.9889 10.2078 11.6513 10.1886 11.3082C10.175 11.0679 10.1556 10.8257 10.1727 10.5867C10.2178 9.95117 10.3097 9.32175 10.4961 8.70953L10.5064 8.69531C10.5245 8.71942 10.5505 8.74081 10.5597 8.76803C10.7417 9.30374 10.9222 9.83999 11.1019 10.3766C11.6665 12.0627 12.2304 13.7492 12.7959 15.435C12.807 15.4679 12.8355 15.4948 12.8561 15.5245L12.7662 15.8316Z" fill="#45A538"/>
<path fill-rule="evenodd" clip-rule="evenodd" d="M15.4864 8.87632C15.3433 8.89758 15.2001 8.91817 15.0573 8.9401C14.7333 8.99021 14.4094 9.04031 14.0858 9.09163C13.8145 9.1347 13.5436 9.17979 13.2725 9.22421L13.1067 9.25265L13.1054 9.14458C13.0998 9.05575 13.0906 8.96692 13.0894 8.87808L13.0708 7.17806C13.0665 6.82341 13.06 6.46875 13.0528 6.11423C13.0492 5.89388 13.0428 5.67359 13.0337 5.4534C13.0283 5.33518 13.0092 5.2175 13.0016 5.09928C12.9972 5.0313 13.0031 4.96278 13.0046 4.89453C13.0891 5.05825 13.1719 5.22319 13.2587 5.38569C13.3958 5.64257 13.6145 5.83189 13.8116 6.0384C14.5897 6.85509 15.142 7.80409 15.4864 8.87632Z" fill="#46A037"/>
<path fill-rule="evenodd" clip-rule="evenodd" d="M13.1077 12.799L13.1321 12.7907C13.1828 12.6169 13.3386 12.6427 13.4644 12.6211C13.8194 12.5596 14.1754 12.5042 14.5312 12.4465C14.8753 12.3909 15.2192 12.3348 15.5636 12.2805C15.6044 12.2741 15.6469 12.2794 15.6886 12.2793C15.6243 12.5089 15.5736 12.7436 15.492 12.9669C15.3992 13.2201 15.2871 13.4674 15.168 13.7098C14.9897 14.0713 14.7691 14.4103 14.5109 14.7197C14.3123 14.9584 14.0911 15.1792 13.8694 15.3971C13.7467 15.5175 13.6024 15.6157 13.4678 15.724L13.4328 15.7002L13.3073 15.5929L13.1774 15.308C13.0887 14.9757 13.0403 14.634 13.0332 14.2902L13.0356 14.2322L13.0534 13.9812C13.0592 13.8955 13.0671 13.8099 13.0707 13.7242C13.0837 13.416 13.0954 13.1075 13.1077 12.799Z" fill="#409433"/>
<path fill-rule="evenodd" clip-rule="evenodd" d="M13.1072 12.7987C13.0951 13.1072 13.0834 13.4158 13.0703 13.7242C13.0666 13.8101 13.0589 13.8957 13.0529 13.9813L12.9739 14.0112C12.7981 13.4938 12.6222 12.9818 12.4502 12.4685C12.1657 11.6193 11.8847 10.7689 11.6006 9.91945C11.3712 9.23388 11.1402 8.54885 10.9075 7.86436C10.8966 7.83241 10.8654 7.80722 10.8438 7.77892L11.3502 6.84766C11.3677 6.87785 11.3906 6.90616 11.4015 6.93866C11.6358 7.63199 11.8697 8.32546 12.1015 9.0196C12.4032 9.92283 12.7029 10.8265 13.0043 11.7298C13.0164 11.7659 13.0361 11.7992 13.0551 11.8397L13.1244 11.7589L13.1072 12.7987Z" fill="#4FAA41"/>
<path fill-rule="evenodd" clip-rule="evenodd" d="M10.8444 7.78125C10.8662 7.80955 10.8973 7.83474 10.9082 7.8667C11.1408 8.55118 11.3718 9.23621 11.6012 9.92178C11.8853 10.7712 12.1663 11.6217 12.4508 12.4709C12.6228 12.9841 12.7987 13.496 12.9745 14.0135L13.0536 13.9836L13.0358 14.2347L13.0197 14.2925C12.9922 14.5672 12.9691 14.8426 12.9355 15.1168C12.9187 15.2542 12.8828 15.3891 12.8556 15.5251C12.8352 15.4954 12.8065 15.4684 12.7953 15.4355C12.2297 13.7497 11.666 12.0633 11.1014 10.3772C10.9218 9.84061 10.7411 9.3044 10.5592 8.76857C10.55 8.74135 10.524 8.71996 10.5059 8.69585L10.8444 7.78125Z" fill="#4AA73C"/>
<path fill-rule="evenodd" clip-rule="evenodd" d="M13.1258 11.7586L13.0565 11.8393C13.0375 11.7988 13.0177 11.7655 13.0057 11.7295C12.7042 10.8261 12.4046 9.92249 12.1029 9.01926C11.8707 8.3252 11.6374 7.63155 11.4029 6.93831C11.3919 6.90581 11.369 6.87751 11.3516 6.84731L11.9779 6.02344C11.9976 6.04971 12.0258 6.07314 12.036 6.10279C12.2098 6.61196 12.3821 7.12153 12.5535 7.63151C12.7136 8.10791 12.8712 8.58484 13.0332 9.06043C13.044 9.09225 13.0818 9.11473 13.107 9.14181L13.1083 9.24988L13.1258 11.7586Z" fill="#57AE47"/>
<path fill-rule="evenodd" clip-rule="evenodd" d="M13.1057 9.14315C13.0803 9.1162 13.0427 9.09372 13.0319 9.06176C12.87 8.58618 12.7123 8.10924 12.5522 7.63284C12.3809 7.12286 12.2084 6.61329 12.0347 6.10412C12.0245 6.07447 11.9963 6.05104 11.9766 6.02477C12.1802 5.8253 12.3775 5.61866 12.5895 5.4284C12.7778 5.2594 12.9292 5.07821 12.9363 4.81103L12.9512 4.75781L13.0048 4.89296C13.0034 4.96121 12.9973 5.02973 13.0018 5.09771C13.0095 5.21593 13.0286 5.3336 13.0339 5.45182C13.0438 5.67187 13.0485 5.89233 13.053 6.11266C13.0602 6.46718 13.0667 6.82183 13.071 7.17649L13.0896 8.87651C13.0909 8.96548 13.1003 9.05431 13.1057 9.14315Z" fill="#60B24F"/>
<path fill-rule="evenodd" clip-rule="evenodd" d="M12.8557 15.5227C12.8829 15.3868 12.9188 15.2519 12.9356 15.1144C12.9692 14.8403 12.9923 14.5649 13.0198 14.2901L13.0267 14.2891L13.0335 14.2903C13.0405 14.6341 13.089 14.9758 13.1777 15.3081C13.1594 15.3322 13.1338 15.3534 13.1241 15.3805C13.0489 15.5926 12.978 15.8064 12.9024 16.0183C12.8921 16.0473 12.8631 16.0699 12.8429 16.0953L12.7656 15.8298L12.8557 15.5227Z" fill="#A9AA88"/>
<path fill-rule="evenodd" clip-rule="evenodd" d="M12.8438 16.0958C12.8639 16.0703 12.8929 16.0478 12.9032 16.0189C12.9788 15.8069 13.0497 15.5931 13.1249 15.381C13.1345 15.354 13.1602 15.3327 13.1785 15.3086L13.3084 15.5935C13.2828 15.6298 13.2473 15.6627 13.2331 15.7032L12.9844 16.4334C12.9742 16.4627 12.9394 16.4833 12.9158 16.5081L12.8438 16.0958Z" fill="#B6B598"/>
<path fill-rule="evenodd" clip-rule="evenodd" d="M12.9141 16.5084C12.9375 16.4836 12.9724 16.463 12.9827 16.4336L13.2313 15.7034C13.2454 15.6629 13.281 15.63 13.3066 15.5938L13.4323 15.7009C13.3716 15.7609 13.3379 15.8302 13.3582 15.9178L13.32 16.0428C13.3027 16.0642 13.2775 16.0829 13.269 16.1074C13.1822 16.356 13.0994 16.606 13.012 16.8545C13.0009 16.8859 12.9701 16.9107 12.9486 16.9386L12.9141 16.5084Z" fill="#C2C1A7"/>
<path fill-rule="evenodd" clip-rule="evenodd" d="M12.9489 16.9387C12.9706 16.9109 13.0013 16.8861 13.0123 16.8547C13.0998 16.6062 13.1826 16.3562 13.2693 16.1076C13.2778 16.0831 13.303 16.0645 13.3204 16.043L13.2677 16.6166C13.2536 16.6328 13.2333 16.6471 13.2265 16.6659L13.0513 17.168C13.039 17.2023 13.0154 17.2329 12.997 17.265C12.9806 17.2436 12.9513 17.2229 12.95 17.2006C12.9448 17.1137 12.9485 17.0261 12.9489 16.9387Z" fill="#CECDB7"/>
<path fill-rule="evenodd" clip-rule="evenodd" d="M12.998 17.2656C13.0165 17.2335 13.04 17.2029 13.0523 17.1686L13.2276 16.6665C13.2343 16.6475 13.2548 16.6334 13.2687 16.6172L13.2701 16.9936L13.144 17.3169L12.998 17.2656Z" fill="#DBDAC7"/>
<path fill-rule="evenodd" clip-rule="evenodd" d="M13.1426 17.3154L13.2687 16.9922L13.2947 17.3746L13.1426 17.3154Z" fill="#EBE9DC"/>
<path fill-rule="evenodd" clip-rule="evenodd" d="M13.3594 15.9162C13.3392 15.8287 13.3728 15.7593 13.4335 15.6992L13.4684 15.7231L13.3594 15.9162Z" fill="#CECDB7"/>
<path fill-rule="evenodd" clip-rule="evenodd" d="M13.0332 14.2923L13.0264 14.2911L13.0195 14.2922L13.0356 14.2344L13.0332 14.2923Z" fill="#4FAA41"/>
</g>
<defs>
<clipPath id="mongodb">
<rect width="17.3333" height="17.3333" fill="white" transform="translate(4.33398 4.33203)"/>
</clipPath>
</defs>
</svg>
