<svg width="100%" height="100%" viewBox="0 0 18 18" fill="none" xmlns="http://www.w3.org/2000/svg">
<circle cx="9" cy="9" r="8.5" fill="white" stroke="#E2EAEC"/>
<path fill-rule="evenodd" clip-rule="evenodd" d="M11.1805 12.3874C11.1964 12.3569 11.2116 12.33 11.2245 12.3022C11.2327 12.2844 11.2452 12.2808 11.2629 12.2813C11.3692 12.2843 11.4754 12.2876 11.5817 12.2886C11.672 12.2895 11.7624 12.2879 11.8528 12.2868C11.9546 12.2856 12.0564 12.2803 12.1582 12.2832C12.2936 12.2871 12.4256 12.3136 12.5482 12.3739C12.6945 12.446 12.8052 12.5558 12.8807 12.7004C12.9281 12.7922 12.9578 12.8921 12.968 12.9948C12.9841 13.1456 12.9735 13.2929 12.9257 13.437C12.8664 13.6157 12.7539 13.7525 12.5977 13.855C12.4774 13.9338 12.3455 13.9804 12.2041 14.007C12.0545 14.0353 11.9044 14.0262 11.7543 14.0266C11.5897 14.0273 11.4251 14.0237 11.2605 14.0219C11.2317 14.0216 11.2276 14.0161 11.2352 13.9887L11.2422 13.9634C11.2583 13.9129 11.2669 13.9107 11.3181 13.9022C11.3544 13.8965 11.3891 13.8833 11.42 13.8635C11.4372 13.8521 11.4444 13.8223 11.4511 13.7993C11.4569 13.7792 11.4572 13.7572 11.4574 13.736C11.4597 13.4149 11.4622 13.0939 11.4635 12.773C11.4638 12.6918 11.4618 12.6107 11.4574 12.5296C11.4542 12.4729 11.4239 12.4341 11.3564 12.4207C11.3039 12.4103 11.251 12.4022 11.1983 12.3929L11.1805 12.3874ZM12.6877 13.1649C12.6805 13.1009 12.6771 13.0364 12.6656 12.9734C12.6383 12.8222 12.5721 12.6905 12.4558 12.5873C12.2679 12.4205 12.0415 12.3948 11.8044 12.4147C11.7504 12.4192 11.7387 12.4377 11.7379 12.4932C11.7366 12.5719 11.7353 12.6507 11.7352 12.7294C11.7348 12.9792 11.7348 13.2289 11.7352 13.4787C11.7353 13.5497 11.736 13.6208 11.7381 13.6917C11.7403 13.7642 11.7667 13.8256 11.8377 13.8538C11.9498 13.8981 12.0676 13.9034 12.1852 13.8853C12.3729 13.8565 12.5043 13.7471 12.5924 13.5831C12.6622 13.453 12.6819 13.3109 12.6877 13.1649ZM13.1441 14.0153C13.1419 13.9764 13.1578 13.9442 13.1775 13.9147C13.1829 13.9067 13.2012 13.9071 13.2139 13.9046L13.3213 13.8833C13.3593 13.8752 13.3793 13.8497 13.3846 13.8125C13.3882 13.7879 13.3915 13.7631 13.3918 13.7383C13.3944 13.5417 13.3962 13.3451 13.3974 13.1485C13.3983 12.9516 13.3975 12.7547 13.3975 12.5579L13.3967 12.5203C13.3929 12.457 13.3623 12.4242 13.2995 12.4149L13.1633 12.3942C13.1465 12.3919 13.1404 12.3839 13.1465 12.3689C13.157 12.3435 13.167 12.3172 13.1818 12.2943C13.1874 12.2859 13.206 12.2826 13.2186 12.2829C13.2836 12.2838 13.3487 12.2887 13.4138 12.2886L13.9801 12.2852C14.0892 12.2851 14.1946 12.3042 14.2925 12.3564C14.4002 12.4138 14.4605 12.5025 14.4777 12.6235C14.4957 12.7505 14.4572 12.8576 14.3644 12.9426C14.3262 12.9777 14.2768 13.0005 14.2326 13.029L14.2181 13.038C14.2592 13.0531 14.2983 13.0662 14.3364 13.0817C14.4477 13.1274 14.5363 13.1987 14.5832 13.3126C14.6202 13.4025 14.6202 13.4963 14.5983 13.5895C14.5642 13.7354 14.4681 13.8324 14.3431 13.9058C14.2258 13.9747 14.0989 14.0148 13.9637 14.0216C13.839 14.0279 13.7138 14.0255 13.5888 14.0269L13.5164 14.0273C13.396 14.0245 13.2755 14.0215 13.1551 14.0183L13.1441 14.0153ZM13.6632 13.4444H13.6644C13.6644 13.5061 13.6636 13.5678 13.6647 13.6295C13.6655 13.6694 13.6641 13.7105 13.6727 13.7489C13.6856 13.8064 13.7119 13.8583 13.7764 13.8748C13.8626 13.8974 13.9527 13.9014 14.0406 13.8864C14.1509 13.8672 14.2389 13.8119 14.2872 13.7068C14.323 13.6287 14.3284 13.5459 14.3161 13.4613C14.2998 13.3499 14.2406 13.2691 14.1423 13.2162C14.0778 13.1814 14.009 13.1601 13.9357 13.1573C13.8535 13.1542 13.7713 13.154 13.6892 13.1515C13.6661 13.1508 13.6629 13.1625 13.663 13.1815C13.6635 13.269 13.6632 13.3567 13.6632 13.4444ZM13.8381 13.0249C13.883 13.0227 13.9338 13.022 13.9843 13.0169C14.0811 13.0073 14.1492 12.9586 14.1848 12.8661C14.2029 12.8191 14.2021 12.7708 14.2026 12.7219C14.204 12.5947 14.1297 12.4904 14.0089 12.4473C13.9156 12.414 13.8194 12.4135 13.7227 12.4161C13.6835 12.4171 13.6659 12.4343 13.6654 12.4738L13.6596 12.9884C13.6593 13.0088 13.6681 13.0176 13.688 13.0183L13.8381 13.0249Z" fill="#94795D"/>
<path fill-rule="evenodd" clip-rule="evenodd" d="M3.98839 13.9173L3.98155 14.0058C3.9178 14.0058 3.85901 14.0053 3.80023 14.006C3.68951 14.0071 3.5788 14.0089 3.46798 14.0105L3.4573 14.0112C3.44145 14.0093 3.41267 14.0093 3.41192 14.0046C3.40723 13.9782 3.40873 13.9506 3.40995 13.9233C3.41005 13.9202 3.42083 13.9163 3.42711 13.9148L3.51326 13.8956C3.56698 13.8816 3.58592 13.8584 3.58845 13.8029C3.59136 13.7404 3.59426 13.6778 3.59455 13.6152C3.59539 13.4613 3.59445 13.3076 3.59511 13.1536C3.5952 13.1176 3.58273 13.0908 3.54917 13.0762C3.50929 13.0585 3.46913 13.0414 3.4287 13.025C3.40958 13.0173 3.38473 13.0131 3.38698 12.9874C3.38923 12.9612 3.41333 12.9544 3.43601 12.9492C3.52995 12.9278 3.62398 12.9069 3.71764 12.884C3.74783 12.8766 3.7767 12.8641 3.8128 12.8516C3.81467 12.8711 3.81814 12.8896 3.81776 12.9082L3.81223 12.9964C3.81214 13.0063 3.8173 13.0197 3.8247 13.0252C3.8292 13.0287 3.8443 13.0224 3.8518 13.0166C3.93186 12.9556 4.01661 12.903 4.11326 12.8724C4.26298 12.8248 4.39151 12.8689 4.48151 12.998C4.5132 13.0435 4.5133 13.0435 4.55726 13.0117C4.63273 12.9568 4.71167 12.9085 4.79998 12.8766C4.99386 12.8066 5.18014 12.8954 5.24755 13.0907C5.27211 13.1616 5.28148 13.2348 5.2813 13.3096L5.27951 13.8063C5.27942 13.8473 5.29301 13.8706 5.33201 13.8834C5.3758 13.8977 5.42117 13.9076 5.47048 13.9205L5.45905 14.0059C5.40298 14.0059 5.35142 14.0055 5.29986 14.006C5.17386 14.0071 5.04786 14.0078 4.92195 14.0107C4.90001 14.0112 4.8943 14.0058 4.89317 13.9853C4.88951 13.9196 4.88895 13.9197 4.95083 13.9048L4.97164 13.8995C5.03211 13.883 5.05226 13.8644 5.05273 13.8031C5.05414 13.6271 5.0578 13.4505 5.04889 13.2748C5.03961 13.0926 4.89495 12.9956 4.71833 13.0422C4.66132 13.0579 4.60763 13.0837 4.55989 13.1186C4.54348 13.1303 4.54039 13.1438 4.5417 13.1643C4.54667 13.2419 4.54976 13.3197 4.55042 13.3974C4.55155 13.5334 4.54986 13.6694 4.55042 13.8056C4.55061 13.8607 4.56945 13.8818 4.62392 13.8945L4.70483 13.9132L4.71983 13.9166C4.72095 13.9424 4.72198 13.9683 4.72076 13.9942C4.72001 14.0104 4.70745 14.0118 4.69339 14.0115C4.61473 14.0096 4.53598 14.0069 4.45733 14.0071C4.36161 14.0073 4.26598 14.01 4.17036 14.0117H4.14786C4.14786 13.9842 4.14655 13.958 4.1488 13.9318C4.14926 13.9256 4.16033 13.9167 4.16792 13.9148L4.26223 13.8948C4.30226 13.885 4.32139 13.8644 4.32364 13.8237C4.33433 13.6353 4.34201 13.4468 4.3243 13.2584C4.31998 13.2212 4.30966 13.185 4.29373 13.1511C4.24545 13.0444 4.1368 12.9999 4.01145 13.0319C3.95192 13.0471 3.8982 13.0744 3.84739 13.1088C3.83631 13.1156 3.82721 13.1252 3.82099 13.1367C3.81477 13.1481 3.81166 13.161 3.81195 13.174C3.81195 13.3619 3.81261 13.5499 3.81317 13.7378L3.8142 13.8102C3.81533 13.8608 3.8368 13.8874 3.88695 13.8983C3.9192 13.9056 3.95183 13.9106 3.98839 13.9173Z" fill="#50382B"/>
<path fill-rule="evenodd" clip-rule="evenodd" d="M9.65624 12.8708C9.67077 12.9415 9.67049 13.0051 9.61855 13.0533C9.56699 13.1012 9.50174 13.085 9.43808 13.0743C9.44399 13.1079 9.45055 13.1364 9.45374 13.1653C9.47689 13.3799 9.38455 13.5392 9.18552 13.6302C9.11033 13.6645 9.03055 13.6773 8.94908 13.6838C8.90858 13.687 8.87314 13.7179 8.8693 13.7512C8.86536 13.785 8.88655 13.8197 8.92893 13.8298C8.97889 13.8417 9.03102 13.8451 9.0823 13.851C9.19236 13.8635 9.30364 13.8693 9.41239 13.8889C9.57683 13.9186 9.66861 14.0621 9.63964 14.2273C9.61386 14.3743 9.52874 14.4813 9.41005 14.5633C9.21008 14.7018 8.99071 14.7423 8.75708 14.6717C8.62349 14.6312 8.52927 14.5433 8.49674 14.4012C8.48043 14.33 8.49777 14.2656 8.5513 14.2173C8.61496 14.1602 8.68424 14.1092 8.7509 14.0552L8.77246 14.0335L8.74771 14.0162C8.67974 13.9839 8.62536 13.9398 8.60427 13.8631C8.59705 13.8371 8.60455 13.82 8.62658 13.8067C8.66408 13.7841 8.70139 13.7612 8.73843 13.7378C8.75586 13.7269 8.77311 13.7157 8.78933 13.7031C8.81146 13.6863 8.80949 13.6737 8.78305 13.6639C8.72155 13.6413 8.66689 13.6083 8.62452 13.5577C8.55374 13.4733 8.53368 13.3727 8.53949 13.2664C8.54858 13.1005 8.63868 12.9912 8.78511 12.9209C8.95921 12.8373 9.13386 12.8321 9.31133 12.9082C9.37696 12.9363 9.44614 12.9423 9.51655 12.9375C9.56914 12.9337 9.61508 12.9138 9.65624 12.8708ZM9.01471 14.0597C8.88402 14.0585 8.84305 14.0747 8.76636 14.1528C8.68049 14.2403 8.68096 14.3617 8.76665 14.4497C8.83171 14.5163 8.9129 14.5475 9.00318 14.5569C9.10865 14.5678 9.21252 14.5634 9.30833 14.5106C9.41052 14.4541 9.46133 14.3491 9.43836 14.2433C9.41933 14.156 9.35502 14.1161 9.27674 14.0931C9.18768 14.0671 9.09561 14.0621 9.01471 14.0597ZM8.75802 13.2245C8.7628 13.2608 8.76477 13.2976 8.77283 13.3331C8.79374 13.4252 8.83377 13.5061 8.92536 13.547C9.03289 13.5953 9.17024 13.5746 9.2173 13.4237C9.24945 13.3232 9.24571 13.2147 9.20671 13.1167C9.19018 13.0719 9.16043 13.0332 9.12139 13.0057C9.02802 12.9406 8.85955 12.9319 8.79093 13.0759C8.76861 13.1227 8.75989 13.1725 8.75802 13.2245Z" fill="#4F382B"/>
<path fill-rule="evenodd" clip-rule="evenodd" d="M7.43901 12.8476C7.44248 12.8636 7.44942 12.8818 7.44961 12.9001C7.44989 12.9349 7.44614 12.9697 7.44417 13.0044V13.0346L7.47361 13.0121C7.55423 12.9458 7.64086 12.8892 7.74173 12.8588C7.92379 12.8039 8.10567 12.9036 8.16501 13.089C8.18751 13.1595 8.19642 13.232 8.19726 13.3057C8.19914 13.4694 8.20026 13.633 8.20195 13.7967C8.20251 13.8555 8.20926 13.866 8.26486 13.883C8.29649 13.8924 8.32876 13.8996 8.36142 13.9044C8.37933 13.9073 8.38701 13.9143 8.38608 13.9318L8.38626 13.9479C8.38561 14.0157 8.38092 14.0188 8.3152 14.0186C8.15789 14.0184 8.00067 14.0193 7.84336 14.0206C7.79648 14.021 7.79639 14.0224 7.7917 13.9761L7.79076 13.9494C7.79367 13.9095 7.79461 13.9099 7.83389 13.9041C7.86033 13.9001 7.88658 13.894 7.91236 13.8873C7.93889 13.8804 7.95164 13.8609 7.9552 13.8346C7.95698 13.8213 7.95933 13.808 7.95923 13.7947C7.95698 13.6158 7.95989 13.4367 7.95014 13.2581C7.94226 13.1137 7.83201 13.0276 7.68698 13.0374C7.61707 13.0423 7.54987 13.0664 7.49283 13.1071C7.45411 13.1342 7.44633 13.1733 7.44651 13.2154C7.44726 13.3826 7.44886 13.5499 7.45064 13.7172C7.45101 13.7539 7.45204 13.7905 7.45551 13.8269C7.45917 13.8667 7.47314 13.8827 7.51214 13.8913C7.54945 13.8996 7.58751 13.9044 7.62736 13.911L7.63073 13.9418C7.63204 14.0135 7.62454 14.0188 7.55489 14.0185C7.39223 14.0179 7.22958 14.0189 7.06701 14.0207C7.04142 14.0211 7.03054 14.013 7.0312 13.9881L7.03083 13.9774C7.02661 13.9128 7.02848 13.9104 7.08961 13.8999L7.11848 13.894C7.18467 13.8791 7.20164 13.8615 7.20258 13.7943C7.20567 13.5814 7.20679 13.3686 7.20895 13.1557C7.20923 13.1251 7.1977 13.1014 7.1692 13.0887C7.1292 13.0712 7.08898 13.0542 7.04854 13.0377C7.02623 13.0285 7.00073 13.0227 6.99989 12.9919C6.99933 12.9701 7.02258 12.9509 7.05436 12.9444C7.1182 12.9315 7.18261 12.9207 7.2457 12.9049C7.30851 12.8892 7.3702 12.8682 7.43901 12.8476Z" fill="#4F372B"/>
<path fill-rule="evenodd" clip-rule="evenodd" d="M10.956 13.4032C10.953 13.6021 10.9013 13.7628 10.7607 13.8835C10.5826 14.0366 10.3047 14.0886 10.0776 13.9742C9.98061 13.9253 9.90936 13.8504 9.86296 13.7532C9.7918 13.6037 9.77399 13.4464 9.81111 13.2854C9.84786 13.1261 9.94433 13.0107 10.0887 12.936C10.2372 12.8592 10.3936 12.8292 10.5585 12.8695C10.7671 12.9204 10.917 13.0905 10.9468 13.307C10.9521 13.345 10.9542 13.3834 10.956 13.4032ZM10.7144 13.5109L10.7063 13.51C10.7063 13.4912 10.7074 13.4725 10.7061 13.4537C10.6993 13.3369 10.6731 13.2257 10.6054 13.1279C10.5411 13.0352 10.4537 12.9806 10.3399 12.9726C10.2125 12.9636 10.1054 13.0349 10.0678 13.165C10.0114 13.3604 10.0305 13.5508 10.1297 13.7297C10.1729 13.8077 10.2369 13.8653 10.3227 13.8956C10.4908 13.9547 10.6399 13.8782 10.6836 13.706C10.6998 13.6425 10.7045 13.576 10.7144 13.5109Z" fill="#4F382B"/>
<path fill-rule="evenodd" clip-rule="evenodd" d="M6.82676 13.4181C6.82329 13.5608 6.78964 13.6927 6.70151 13.8073C6.6071 13.9301 6.47735 13.9958 6.32979 14.0234C6.15532 14.0561 5.99145 14.0264 5.85129 13.9093C5.78473 13.8536 5.73926 13.7823 5.70926 13.7011C5.66004 13.568 5.64776 13.4316 5.67804 13.2926C5.71039 13.1438 5.79439 13.0301 5.9246 12.9537C6.07517 12.8657 6.23764 12.8264 6.41117 12.866C6.63429 12.917 6.7631 13.0624 6.81073 13.2825C6.82029 13.327 6.8216 13.3729 6.82676 13.4181ZM6.58245 13.5122L6.57598 13.5113V13.4845C6.57232 13.3536 6.54673 13.2289 6.46864 13.1201C6.41079 13.0394 6.33335 12.9888 6.23407 12.9746C6.07226 12.9516 5.96651 13.0476 5.93145 13.178C5.8857 13.3483 5.90004 13.5166 5.97082 13.6781C6.01498 13.7788 6.08473 13.8573 6.19189 13.8954C6.35895 13.9547 6.51026 13.8761 6.55254 13.7047C6.5681 13.642 6.57279 13.5765 6.58245 13.5122Z" fill="#4F372B"/>
<path fill-rule="evenodd" clip-rule="evenodd" d="M10.7214 6.14453C10.8365 6.47706 10.9192 6.81653 10.9464 7.16828C10.9802 7.60478 10.9648 8.03828 10.8728 8.46756L10.8609 8.50187C10.8321 8.50197 10.8026 8.49831 10.7744 8.50272C10.536 8.54022 10.2979 8.57903 10.0597 8.61766C9.81338 8.65759 9.56691 8.69594 9.3211 8.7385C9.23401 8.7535 9.12619 8.73559 9.09104 8.85597L9.07416 8.86169L9.08607 8.14187L9.07397 6.40506L9.18872 6.38538C9.37632 6.35472 9.56391 6.3235 9.75179 6.29359C9.97585 6.25806 10.2001 6.22338 10.4243 6.18869C10.5233 6.1735 10.6224 6.15934 10.7214 6.14453Z" fill="#439934"/>
<path fill-rule="evenodd" clip-rule="evenodd" d="M8.83736 10.9601C8.71633 10.856 8.59108 10.7565 8.47511 10.647C7.85093 10.0583 7.39427 9.36519 7.16936 8.52959C7.1074 8.29972 7.06615 8.066 7.05283 7.82844C7.04346 7.66212 7.03005 7.49441 7.04186 7.32894C7.07308 6.88897 7.13674 6.45322 7.26574 6.02937L7.27286 6.01953C7.28543 6.03622 7.30343 6.05103 7.3098 6.06987C7.4358 6.44075 7.56077 6.812 7.68518 7.18353C8.07602 8.35081 8.4664 9.51837 8.8579 10.6855C8.86558 10.7082 8.88536 10.7269 8.89961 10.7474L8.83736 10.9601Z" fill="#45A538"/>
<path fill-rule="evenodd" clip-rule="evenodd" d="M10.7214 6.14432C10.6223 6.15904 10.5232 6.17329 10.4243 6.18848C10.2 6.22316 9.97576 6.25785 9.75169 6.29338C9.56391 6.3232 9.37632 6.35441 9.18863 6.38516L9.07388 6.40485L9.07294 6.33004C9.0691 6.26854 9.06272 6.20704 9.06188 6.14554L9.04904 4.9686C9.04604 4.72307 9.04154 4.47754 9.03657 4.2321C9.03404 4.07955 9.02963 3.92704 9.02335 3.7746C9.0196 3.69276 9.00638 3.61129 9.00113 3.52945C8.99804 3.48238 9.00216 3.43495 9.00319 3.3877C9.06169 3.50104 9.11897 3.61523 9.17907 3.72773C9.27404 3.90557 9.42544 4.03663 9.56185 4.1796C10.1005 4.74501 10.4829 5.40201 10.7214 6.14432Z" fill="#46A037"/>
<path fill-rule="evenodd" clip-rule="evenodd" d="M9.07427 8.86115L9.09114 8.85543C9.1263 8.73505 9.23411 8.75296 9.32121 8.73796C9.56702 8.6954 9.81349 8.65705 10.0598 8.61712C10.298 8.57858 10.5361 8.53977 10.7745 8.50218C10.8027 8.49777 10.8322 8.50143 10.861 8.50133C10.8165 8.66033 10.7815 8.8228 10.7249 8.9774C10.6607 9.15271 10.5831 9.3239 10.5007 9.49171C10.3772 9.74196 10.2245 9.97667 10.0457 10.1909C9.90827 10.3561 9.75508 10.509 9.60161 10.6598C9.51667 10.7432 9.41674 10.8111 9.32355 10.8861L9.29936 10.8696L9.21246 10.7954L9.12255 10.5981C9.06112 10.3681 9.0276 10.1316 9.02271 9.89352L9.02439 9.8534L9.03667 9.67958C9.04071 9.62024 9.04614 9.56099 9.04867 9.50165C9.05767 9.28827 9.06574 9.07471 9.07427 8.86115Z" fill="#409433"/>
<path fill-rule="evenodd" clip-rule="evenodd" d="M9.07423 8.86213C9.0658 9.07569 9.05773 9.28934 9.04864 9.50291C9.04611 9.56234 9.04077 9.62159 9.03664 9.68084L8.98189 9.70156C8.8602 9.34334 8.73842 8.98888 8.61936 8.63356C8.42239 8.04566 8.22786 7.45691 8.03117 6.86881C7.87234 6.39419 7.71241 5.91994 7.55136 5.44606C7.54376 5.42394 7.5222 5.4065 7.5072 5.38691L7.85783 4.74219C7.86992 4.76309 7.88576 4.78269 7.89336 4.80519C8.05555 5.28519 8.21745 5.76528 8.37795 6.24584C8.58683 6.87116 8.7943 7.49675 9.00298 8.12216C9.01133 8.14709 9.02502 8.17016 9.03814 8.19819L9.08614 8.14231L9.07423 8.86213Z" fill="#4FAA41"/>
<path fill-rule="evenodd" clip-rule="evenodd" d="M7.50708 5.38672C7.52217 5.40631 7.54374 5.42375 7.55124 5.44588C7.7123 5.91975 7.87224 6.394 8.03105 6.86862C8.22774 7.45672 8.42227 8.04547 8.61924 8.63338C8.7383 8.98869 8.86008 9.34306 8.98177 9.70138L9.03652 9.68066L9.02424 9.85447L9.01308 9.8945C8.99405 10.0847 8.97802 10.2753 8.95477 10.4652C8.94314 10.5603 8.9183 10.6537 8.89946 10.7478C8.8853 10.7273 8.86542 10.7086 8.85774 10.6858C8.46614 9.51875 8.07586 8.35119 7.68502 7.18391C7.56067 6.81243 7.43554 6.44121 7.30964 6.07025C7.30327 6.05141 7.28527 6.03659 7.27271 6.01991L7.50708 5.38672Z" fill="#4AA73C"/>
<path fill-rule="evenodd" clip-rule="evenodd" d="M9.0861 8.14237L9.0381 8.19825C9.02498 8.17022 9.01129 8.14716 9.00294 8.12222C8.79426 7.49681 8.58679 6.87122 8.37791 6.24591C8.21722 5.7654 8.05569 5.28518 7.89332 4.80525C7.88573 4.78275 7.86988 4.76316 7.85779 4.74225L8.29138 4.17188C8.30507 4.19006 8.32457 4.20628 8.3316 4.22681C8.45198 4.57931 8.57123 4.93209 8.68991 5.28516C8.80073 5.61497 8.90985 5.94516 9.02198 6.27441C9.02948 6.29644 9.05563 6.312 9.07307 6.33075L9.07401 6.40556L9.0861 8.14237Z" fill="#57AE47"/>
<path fill-rule="evenodd" clip-rule="evenodd" d="M9.07307 6.33092C9.05554 6.31227 9.02948 6.2967 9.02198 6.27458C8.90994 5.94533 8.80073 5.61514 8.68991 5.28533C8.57132 4.93226 8.45188 4.57948 8.3316 4.22698C8.32457 4.20645 8.30507 4.19023 8.29138 4.17205C8.43238 4.03395 8.56898 3.89089 8.71569 3.75917C8.8461 3.64217 8.95091 3.51673 8.95579 3.33177L8.9661 3.29492L9.00323 3.38848C9.00229 3.43573 8.99807 3.48317 9.00116 3.53023C9.00651 3.61208 9.01973 3.69355 9.02338 3.77539C9.03023 3.92773 9.03351 4.08036 9.0366 4.23289C9.04157 4.47833 9.04607 4.72386 9.04907 4.96939L9.06191 6.14633C9.06285 6.20792 9.06932 6.26942 9.07307 6.33092Z" fill="#60B24F"/>
<path fill-rule="evenodd" clip-rule="evenodd" d="M8.89962 10.7476C8.91847 10.6535 8.94331 10.5601 8.95494 10.465C8.97819 10.2752 8.99422 10.0845 9.01325 9.8943L9.01803 9.89355L9.02272 9.8944C9.02761 10.1324 9.06113 10.369 9.12256 10.599C9.10991 10.6157 9.09219 10.6304 9.08544 10.6492C9.03341 10.796 8.98428 10.944 8.93197 11.0907C8.92484 11.1108 8.90478 11.1265 8.89081 11.144L8.83728 10.9602L8.89962 10.7476Z" fill="#A9AA88"/>
<path fill-rule="evenodd" clip-rule="evenodd" d="M8.89087 11.1436C8.90484 11.126 8.9249 11.1104 8.93203 11.0904C8.98434 10.9436 9.03346 10.7956 9.08549 10.6488C9.09215 10.63 9.10996 10.6153 9.12262 10.5986L9.21252 10.7959C9.19481 10.821 9.17024 10.8438 9.1604 10.8718L8.98828 11.3773C8.98115 11.3977 8.95706 11.4119 8.94074 11.4291L8.89087 11.1436Z" fill="#B6B598"/>
<path fill-rule="evenodd" clip-rule="evenodd" d="M8.94067 11.4291C8.95689 11.4119 8.98108 11.3977 8.98821 11.3773L9.16033 10.8718C9.17008 10.8438 9.19474 10.821 9.21246 10.7959L9.29946 10.8701C9.25746 10.9116 9.23411 10.9596 9.24817 11.0202L9.22174 11.1068C9.20974 11.1216 9.1923 11.1345 9.18639 11.1515C9.1263 11.3236 9.06902 11.4967 9.00845 11.6687C9.00077 11.6905 8.97949 11.7076 8.96458 11.7269L8.94067 11.4291Z" fill="#C2C1A7"/>
<path fill-rule="evenodd" clip-rule="evenodd" d="M8.96439 11.7266C8.97939 11.7073 9.00067 11.6901 9.00827 11.6684C9.06883 11.4964 9.1262 11.3233 9.1862 11.1512C9.19211 11.1342 9.20955 11.1214 9.22155 11.1064L9.18508 11.5036C9.17533 11.5148 9.16127 11.5247 9.15658 11.5377L9.03527 11.8853C9.02673 11.909 9.01042 11.9302 8.99767 11.9524C8.98633 11.9376 8.96608 11.9233 8.96514 11.9079C8.96158 11.8477 8.96411 11.7871 8.96439 11.7266Z" fill="#CECDB7"/>
<path fill-rule="evenodd" clip-rule="evenodd" d="M8.9978 11.9528C9.01055 11.9306 9.02686 11.9094 9.0354 11.8857L9.15671 11.538C9.1614 11.5249 9.17555 11.5152 9.18521 11.5039L9.18615 11.7645L9.09886 11.9883L8.9978 11.9528Z" fill="#DBDAC7"/>
<path fill-rule="evenodd" clip-rule="evenodd" d="M9.09888 11.9884L9.18616 11.7646L9.20416 12.0294L9.09888 11.9884Z" fill="#EBE9DC"/>
<path fill-rule="evenodd" clip-rule="evenodd" d="M9.24808 11.0203C9.23411 10.9597 9.25736 10.9117 9.29936 10.8701L9.32355 10.8866L9.24808 11.0203Z" fill="#CECDB7"/>
<path fill-rule="evenodd" clip-rule="evenodd" d="M9.02265 9.89462L9.01797 9.89377L9.01318 9.89452L9.02434 9.85449L9.02265 9.89462Z" fill="#4FAA41"/>
</svg>
