<svg width="100%" height="100%" viewBox="0 0 26 26" fill="none" xmlns="http://www.w3.org/2000/svg">
<circle cx="13" cy="13" r="12.5" fill="white" stroke="#E2EAEC"/>
<g clip-path="url(#mongo_db0)">
<path fill-rule="evenodd" clip-rule="evenodd" d="M16.1497 17.8916C16.1725 17.8476 16.1945 17.8088 16.2132 17.7685C16.2249 17.7428 16.2431 17.7377 16.2687 17.7383C16.4221 17.7427 16.5755 17.7474 16.7291 17.7489C16.8595 17.7503 16.9902 17.7478 17.1207 17.7463C17.2678 17.7446 17.4149 17.7368 17.5618 17.741C17.7575 17.7467 17.9481 17.7851 18.1251 17.8721C18.3365 17.9763 18.4964 18.1348 18.6054 18.3438C18.674 18.4763 18.7168 18.6206 18.7315 18.769C18.7548 18.9867 18.7395 19.1995 18.6704 19.4078C18.5849 19.6659 18.4224 19.8634 18.1966 20.0114C18.0229 20.1253 17.8323 20.1926 17.6281 20.2311C17.412 20.2718 17.1952 20.2587 16.9784 20.2594C16.7406 20.2603 16.503 20.2552 16.2652 20.2525C16.2236 20.2521 16.2176 20.2442 16.2286 20.2045L16.2388 20.168C16.2619 20.0951 16.2744 20.0919 16.3483 20.0797C16.4007 20.0714 16.4508 20.0524 16.4955 20.0238C16.5204 20.0072 16.5307 19.9642 16.5405 19.931C16.5489 19.902 16.5493 19.8702 16.5495 19.8396C16.5529 19.3758 16.5564 18.9121 16.5583 18.4486C16.5589 18.3314 16.5559 18.2141 16.5495 18.0971C16.5449 18.0151 16.5012 17.9591 16.4037 17.9397C16.3279 17.9247 16.2515 17.913 16.1753 17.8996L16.1497 17.8916ZM18.3266 19.0146C18.3163 18.9223 18.3113 18.8291 18.2948 18.7381C18.2553 18.5197 18.1596 18.3294 17.9917 18.1803C17.7202 17.9394 17.3933 17.9023 17.0507 17.931C16.9727 17.9375 16.9559 17.9642 16.9547 18.0444C16.9528 18.1581 16.9509 18.2719 16.9508 18.3856C16.9502 18.7464 16.9502 19.1071 16.9508 19.4679C16.9509 19.5705 16.952 19.6732 16.955 19.7755C16.9582 19.8804 16.9963 19.9691 17.0989 20.0097C17.2608 20.0737 17.431 20.0813 17.6008 20.0552C17.872 20.0136 18.0617 19.8556 18.189 19.6187C18.2898 19.4308 18.3182 19.2256 18.3266 19.0146ZM18.986 20.243C18.9827 20.1868 19.0057 20.1404 19.0342 20.0977C19.0419 20.0862 19.0684 20.0867 19.0867 20.0831L19.2419 20.0523C19.2967 20.0407 19.3256 20.0039 19.3333 19.9501C19.3384 19.9146 19.3433 19.8787 19.3437 19.8428C19.3474 19.5589 19.3501 19.2749 19.3517 18.9909C19.3531 18.7066 19.352 18.4222 19.352 18.1378L19.3508 18.0835C19.3452 17.9921 19.3011 17.9447 19.2103 17.9313L19.0136 17.9014C18.9893 17.8981 18.9805 17.8865 18.9893 17.865C19.0045 17.8283 19.019 17.7902 19.0404 17.7572C19.0484 17.745 19.0753 17.7402 19.0935 17.7406C19.1875 17.742 19.2814 17.749 19.3754 17.7489L20.1935 17.744C20.3511 17.7439 20.5033 17.7714 20.6447 17.8468C20.8003 17.9297 20.8873 18.0579 20.9123 18.2326C20.9383 18.4161 20.8826 18.5707 20.7485 18.6936C20.6934 18.7442 20.6221 18.7773 20.5581 18.8184L20.5373 18.8314C20.5966 18.8532 20.6531 18.872 20.7081 18.8945C20.8689 18.9605 20.9969 19.0635 21.0646 19.2281C21.1181 19.3579 21.1181 19.4933 21.0864 19.6279C21.0371 19.8386 20.8983 19.9788 20.7178 20.0848C20.5484 20.1844 20.365 20.2423 20.1698 20.2521C19.9897 20.2611 19.8088 20.2578 19.6282 20.2598L19.5237 20.2603C19.3497 20.2563 19.1758 20.252 19.0018 20.2473L18.986 20.243ZM19.7358 19.4185H19.7375C19.7375 19.5076 19.7363 19.5967 19.7379 19.6858C19.739 19.7435 19.737 19.8028 19.7494 19.8583C19.7681 19.9413 19.806 20.0162 19.8992 20.04C20.0238 20.0727 20.1539 20.0785 20.2808 20.0568C20.4402 20.029 20.5674 19.9491 20.6371 19.7973C20.6888 19.6845 20.6965 19.565 20.6788 19.4428C20.6552 19.282 20.5698 19.1652 20.4277 19.0887C20.3346 19.0385 20.2352 19.0077 20.1293 19.0037C20.0107 18.9992 19.8919 18.9989 19.7733 18.9953C19.74 18.9943 19.7354 19.0113 19.7355 19.0386C19.7362 19.1651 19.7358 19.2917 19.7358 19.4185ZM19.9883 18.8125C20.0532 18.8092 20.1266 18.8083 20.1996 18.801C20.3393 18.787 20.4378 18.7167 20.4891 18.5831C20.5152 18.5152 20.5141 18.4453 20.5148 18.3748C20.5168 18.191 20.4096 18.0405 20.235 17.9782C20.1003 17.9301 19.9614 17.9293 19.8216 17.9331C19.765 17.9346 19.7397 17.9593 19.7389 18.0163L19.7305 18.7596C19.7301 18.7892 19.7428 18.8019 19.7715 18.8028L19.9883 18.8125Z" fill="#94795D"/>
<path fill-rule="evenodd" clip-rule="evenodd" d="M5.76099 20.1019L5.75111 20.2297C5.65902 20.2297 5.57412 20.2291 5.48921 20.23C5.32929 20.2316 5.16936 20.2342 5.0093 20.2365L4.99386 20.2375C4.97097 20.2348 4.9294 20.2348 4.92832 20.228C4.92155 20.1899 4.92371 20.15 4.92547 20.1106C4.92561 20.1061 4.94118 20.1004 4.95025 20.0983L5.0747 20.0705C5.1523 20.0503 5.17965 20.0169 5.18331 19.9367C5.1875 19.8464 5.1917 19.7559 5.19211 19.6656C5.19333 19.4432 5.19197 19.2212 5.19292 18.9988C5.19306 18.9468 5.17505 18.9081 5.12657 18.887C5.06896 18.8614 5.01095 18.8367 4.95256 18.813C4.92493 18.8019 4.88905 18.7958 4.8923 18.7587C4.89555 18.7209 4.93035 18.7111 4.96312 18.7036C5.09881 18.6726 5.23463 18.6424 5.36991 18.6094C5.41351 18.5987 5.45522 18.5806 5.50736 18.5625C5.51007 18.5907 5.51508 18.6175 5.51454 18.6443L5.50655 18.7717C5.50641 18.7861 5.51386 18.8053 5.52456 18.8133C5.53106 18.8183 5.55286 18.8092 5.56369 18.8008C5.67934 18.7128 5.80175 18.6368 5.94137 18.5926C6.15763 18.5239 6.34329 18.5876 6.47329 18.774C6.51906 18.8397 6.51919 18.8397 6.5827 18.7938C6.69171 18.7146 6.80573 18.6447 6.9333 18.5987C7.21334 18.4975 7.48241 18.6259 7.57978 18.9079C7.61525 19.0103 7.6288 19.1161 7.62852 19.2241L7.62595 19.9416C7.62582 20.0008 7.64545 20.0345 7.70179 20.0529C7.76502 20.0736 7.83057 20.0878 7.9018 20.1065L7.88527 20.2299C7.8043 20.2299 7.72982 20.2293 7.65534 20.23C7.47334 20.2316 7.29134 20.2326 7.10947 20.2368C7.07779 20.2376 7.06953 20.2297 7.0679 20.2001C7.06262 20.1052 7.06181 20.1053 7.15118 20.0839L7.18124 20.0762C7.26859 20.0524 7.2977 20.0255 7.29838 19.937C7.30041 19.6827 7.30569 19.4277 7.29283 19.1739C7.27942 18.9107 7.07047 18.7705 6.81535 18.8379C6.73301 18.8605 6.65546 18.8978 6.58649 18.9482C6.5628 18.9651 6.55833 18.9846 6.56022 19.0142C6.5674 19.1264 6.57187 19.2386 6.57282 19.3509C6.57444 19.5474 6.572 19.7439 6.57282 19.9405C6.57309 20.0201 6.60031 20.0506 6.67898 20.069L6.79585 20.096L6.81751 20.1008C6.81914 20.1382 6.82063 20.1756 6.81887 20.213C6.81779 20.2364 6.79964 20.2384 6.77933 20.238C6.66571 20.2352 6.55196 20.2314 6.43835 20.2316C6.30009 20.2319 6.16196 20.2358 6.02384 20.2383H5.99134C5.99134 20.1986 5.98944 20.1607 5.99269 20.1229C5.99337 20.1138 6.00935 20.1011 6.02032 20.0983L6.15655 20.0694C6.21437 20.0552 6.24199 20.0255 6.24524 19.9668C6.26068 19.6946 6.27179 19.4223 6.24619 19.1502C6.23995 19.0965 6.22505 19.0441 6.20205 18.9952C6.13231 18.8411 5.97536 18.7767 5.79431 18.823C5.70832 18.845 5.63072 18.8844 5.55733 18.9341C5.54132 18.9439 5.52818 18.9578 5.51919 18.9743C5.51021 18.9908 5.50571 19.0094 5.50614 19.0282C5.50614 19.2997 5.50709 19.5712 5.5079 19.8426L5.50939 19.9473C5.51101 20.0203 5.54202 20.0587 5.61447 20.0744C5.66106 20.085 5.70818 20.0922 5.76099 20.1019Z" fill="#50382B"/>
<path fill-rule="evenodd" clip-rule="evenodd" d="M13.9477 18.59C13.9687 18.6921 13.9683 18.7839 13.8933 18.8535C13.8188 18.9227 13.7246 18.8994 13.6326 18.884C13.6412 18.9325 13.6506 18.9736 13.6553 19.0153C13.6887 19.3253 13.5553 19.5554 13.2678 19.6869C13.1592 19.7364 13.044 19.7548 12.9263 19.7643C12.8678 19.7689 12.8166 19.8136 12.8111 19.8617C12.8054 19.9104 12.836 19.9605 12.8972 19.9752C12.9694 19.9924 13.0447 19.9972 13.1187 20.0058C13.2777 20.0239 13.4384 20.0322 13.5955 20.0606C13.8331 20.1034 13.9656 20.3107 13.9238 20.5493C13.8865 20.7617 13.7636 20.9162 13.5921 21.0347C13.3033 21.2348 12.9864 21.2933 12.649 21.1912C12.456 21.1327 12.3199 21.0058 12.2729 20.8005C12.2494 20.6977 12.2744 20.6047 12.3517 20.535C12.4437 20.4524 12.5438 20.3787 12.64 20.3007L12.6712 20.2694L12.6354 20.2444C12.5373 20.1978 12.4587 20.134 12.4282 20.0232C12.4178 19.9857 12.4286 19.9611 12.4605 19.9419C12.5146 19.9092 12.5685 19.876 12.622 19.8423C12.6472 19.8266 12.6721 19.8104 12.6956 19.7922C12.7275 19.7678 12.7247 19.7497 12.6865 19.7356C12.5976 19.7028 12.5187 19.6553 12.4575 19.5822C12.3553 19.4602 12.3263 19.3149 12.3347 19.1614C12.3478 18.9218 12.4779 18.7639 12.6895 18.6623C12.9409 18.5416 13.1932 18.5341 13.4496 18.644C13.5443 18.6846 13.6443 18.6933 13.746 18.6863C13.8219 18.6809 13.8883 18.6521 13.9477 18.59ZM13.0211 20.3072C12.8323 20.3056 12.7731 20.3289 12.6624 20.4417C12.5383 20.5682 12.539 20.7435 12.6628 20.8705C12.7568 20.9668 12.874 21.0119 13.0044 21.0255C13.1568 21.0412 13.3068 21.0348 13.4452 20.9586C13.5928 20.8769 13.6662 20.7252 13.633 20.5725C13.6056 20.4464 13.5127 20.3887 13.3996 20.3555C13.2709 20.3179 13.138 20.3107 13.0211 20.3072ZM12.6503 19.1009C12.6572 19.1533 12.6601 19.2064 12.6717 19.2577C12.7019 19.3907 12.7597 19.5076 12.892 19.5667C13.0474 19.6365 13.2458 19.6066 13.3137 19.3885C13.3602 19.2434 13.3548 19.0867 13.2984 18.9452C13.2746 18.8805 13.2316 18.8246 13.1752 18.7849C13.0403 18.6907 12.797 18.6783 12.6979 18.8863C12.6656 18.9539 12.653 19.0258 12.6503 19.1009Z" fill="#4F382B"/>
<path fill-rule="evenodd" clip-rule="evenodd" d="M10.7451 18.5563C10.7502 18.5795 10.7602 18.6058 10.7604 18.6322C10.7609 18.6824 10.7554 18.7327 10.7526 18.7829V18.8265L10.7951 18.794C10.9116 18.6981 11.0367 18.6165 11.1824 18.5725C11.4454 18.4932 11.7081 18.6372 11.7938 18.905C11.8263 19.0069 11.8392 19.1116 11.8404 19.218C11.8431 19.4544 11.8447 19.6909 11.8472 19.9273C11.848 20.0122 11.8577 20.0274 11.938 20.0519C11.9837 20.0655 12.0303 20.0759 12.0775 20.0829C12.1034 20.087 12.1145 20.0971 12.1131 20.1224L12.1134 20.1457C12.1124 20.2436 12.1057 20.2481 12.0108 20.2478C11.7835 20.2474 11.5564 20.2488 11.3292 20.2507C11.2615 20.2512 11.2614 20.2533 11.2546 20.1864L11.2532 20.1479C11.2574 20.0902 11.2588 20.0908 11.3155 20.0824C11.3537 20.0767 11.3916 20.0679 11.4289 20.0581C11.4672 20.0482 11.4856 20.0199 11.4908 19.982C11.4933 19.9628 11.4967 19.9436 11.4966 19.9243C11.4933 19.666 11.4975 19.4073 11.4834 19.1493C11.4721 18.9407 11.3128 18.8163 11.1033 18.8306C11.0023 18.8376 10.9053 18.8724 10.8229 18.9312C10.7669 18.9703 10.7557 19.0268 10.756 19.0876C10.7571 19.3292 10.7594 19.5708 10.7619 19.8125C10.7625 19.8654 10.764 19.9184 10.769 19.9709C10.7743 20.0283 10.7944 20.0515 10.8508 20.0639C10.9047 20.0759 10.9596 20.0828 11.0172 20.0924L11.0221 20.1368C11.024 20.2404 11.0131 20.2481 10.9125 20.2477C10.6776 20.2468 10.4426 20.2482 10.2078 20.2508C10.1708 20.2514 10.1551 20.2397 10.1561 20.2037L10.1555 20.1883C10.1494 20.095 10.1522 20.0914 10.2404 20.0763L10.2822 20.0679C10.3778 20.0463 10.4023 20.0209 10.4036 19.9238C10.4081 19.6163 10.4097 19.3089 10.4128 19.0013C10.4132 18.9572 10.3966 18.9229 10.3554 18.9046C10.2976 18.8793 10.2395 18.8548 10.1811 18.831C10.1489 18.8177 10.1121 18.8093 10.1109 18.7648C10.11 18.7333 10.1436 18.7056 10.1895 18.6962C10.2818 18.6775 10.3748 18.662 10.4659 18.6391C10.5566 18.6165 10.6457 18.5861 10.7451 18.5563Z" fill="#4F372B"/>
<path fill-rule="evenodd" clip-rule="evenodd" d="M15.8253 19.3593C15.8209 19.6465 15.7463 19.8788 15.5432 20.0531C15.2859 20.2742 14.8845 20.3494 14.5564 20.184C14.4164 20.1135 14.3135 20.0053 14.2464 19.8648C14.1437 19.6489 14.1179 19.4218 14.1716 19.1891C14.2246 18.959 14.364 18.7923 14.5725 18.6844C14.787 18.5735 15.0129 18.5302 15.2511 18.5884C15.5524 18.6619 15.7689 18.9076 15.812 19.2204C15.8197 19.2752 15.8227 19.3308 15.8253 19.3593ZM15.4763 19.5149L15.4646 19.5136C15.4646 19.4865 15.4661 19.4594 15.4644 19.4323C15.4545 19.2636 15.4166 19.1029 15.3188 18.9616C15.226 18.8278 15.0997 18.7489 14.9353 18.7374C14.7513 18.7244 14.5966 18.8273 14.5423 19.0152C14.4608 19.2974 14.4884 19.5725 14.6317 19.831C14.6941 19.9437 14.7866 20.0268 14.9105 20.0705C15.1533 20.156 15.3686 20.0453 15.4319 19.7967C15.4552 19.7049 15.4619 19.6089 15.4763 19.5149Z" fill="#4F382B"/>
<path fill-rule="evenodd" clip-rule="evenodd" d="M9.86096 19.3822C9.85595 19.5883 9.80733 19.7789 9.68004 19.9445C9.54368 20.1219 9.35626 20.2167 9.14311 20.2566C8.8911 20.3037 8.65439 20.2609 8.45195 20.0918C8.3558 20.0114 8.29012 19.9083 8.24679 19.791C8.1757 19.5987 8.15796 19.4017 8.2017 19.2009C8.24842 18.986 8.36975 18.8217 8.55784 18.7115C8.77532 18.5843 9.01 18.5276 9.26066 18.5847C9.58295 18.6584 9.76901 18.8684 9.8378 19.1864C9.85161 19.2506 9.85351 19.3169 9.86096 19.3822ZM9.50806 19.5182L9.49872 19.5168V19.4781C9.49344 19.289 9.45647 19.1089 9.34367 18.9519C9.26011 18.8353 9.14826 18.7621 9.00485 18.7417C8.77112 18.7084 8.61837 18.847 8.56773 19.0354C8.50164 19.2815 8.52236 19.5245 8.6246 19.7579C8.68838 19.9033 8.78913 20.0166 8.94392 20.0716C9.18523 20.1573 9.40379 20.0439 9.46486 19.7962C9.48734 19.7056 9.49411 19.6111 9.50806 19.5182Z" fill="#4F372B"/>
<path fill-rule="evenodd" clip-rule="evenodd" d="M15.4864 8.875C15.6525 9.35532 15.772 9.84567 15.8114 10.3537C15.8601 10.9842 15.8379 11.6104 15.7049 12.2305L15.6879 12.2801C15.6462 12.2802 15.6036 12.2749 15.5629 12.2813C15.2185 12.3354 14.8746 12.3915 14.5305 12.4473C14.1747 12.505 13.8187 12.5604 13.4636 12.6218C13.3378 12.6435 13.1821 12.6176 13.1313 12.7915L13.107 12.7998L13.1242 11.7601L13.1067 9.25132L13.2724 9.22289C13.5434 9.1786 13.8144 9.13351 14.0857 9.09031C14.4094 9.03899 14.7333 8.98889 15.0572 8.93878C15.2002 8.91684 15.3434 8.8964 15.4864 8.875Z" fill="#439934"/>
<path fill-rule="evenodd" clip-rule="evenodd" d="M12.765 15.8316C12.5902 15.6813 12.4092 15.5376 12.2417 15.3795C11.3401 14.5291 10.6805 13.5279 10.3557 12.321C10.2661 11.9889 10.2066 11.6513 10.1873 11.3082C10.1738 11.0679 10.1544 10.8257 10.1715 10.5867C10.2166 9.95117 10.3085 9.32175 10.4949 8.70953L10.5052 8.69531C10.5233 8.71942 10.5493 8.74081 10.5585 8.76803C10.7405 9.30374 10.921 9.83999 11.1007 10.3766C11.6653 12.0627 12.2291 13.7492 12.7946 15.435C12.8057 15.4679 12.8343 15.4949 12.8549 15.5245L12.765 15.8316Z" fill="#45A538"/>
<path fill-rule="evenodd" clip-rule="evenodd" d="M15.4864 8.87242C15.3433 8.89368 15.2001 8.91426 15.0573 8.9362C14.7333 8.9863 14.4094 9.03641 14.0858 9.08773C13.8145 9.13079 13.5436 9.17588 13.2725 9.2203L13.1067 9.24874L13.1054 9.14068C13.0998 9.05184 13.0906 8.96301 13.0894 8.87418L13.0708 7.17416C13.0665 6.8195 13.06 6.46484 13.0528 6.11032C13.0492 5.88998 13.0428 5.66968 13.0337 5.44949C13.0283 5.33127 13.0092 5.21359 13.0016 5.09537C12.9972 5.0274 13.0031 4.95887 13.0046 4.89062C13.0891 5.05434 13.1719 5.21928 13.2587 5.38178C13.3958 5.63867 13.6145 5.82798 13.8116 6.03449C14.5897 6.85119 15.142 7.80019 15.4864 8.87242Z" fill="#46A037"/>
<path fill-rule="evenodd" clip-rule="evenodd" d="M13.1072 12.799L13.1316 12.7907C13.1824 12.6169 13.3381 12.6427 13.4639 12.6211C13.8189 12.5596 14.175 12.5042 14.5307 12.4465C14.8748 12.3909 15.2187 12.3348 15.5631 12.2805C15.6039 12.2741 15.6464 12.2794 15.6881 12.2793C15.6238 12.5089 15.5731 12.7436 15.4915 12.9669C15.3987 13.2201 15.2866 13.4674 15.1676 13.7098C14.9893 14.0713 14.7686 14.4103 14.5104 14.7197C14.3119 14.9584 14.0906 15.1792 13.8689 15.3971C13.7462 15.5175 13.6019 15.6157 13.4673 15.724L13.4323 15.7002L13.3068 15.5929L13.1769 15.308C13.0882 14.9757 13.0398 14.634 13.0327 14.2902L13.0352 14.2322L13.0529 13.9812C13.0587 13.8955 13.0666 13.8099 13.0702 13.7242C13.0832 13.416 13.0949 13.1075 13.1072 12.799Z" fill="#409433"/>
<path fill-rule="evenodd" clip-rule="evenodd" d="M13.1072 12.7987C13.0951 13.1072 13.0834 13.4158 13.0703 13.7242C13.0666 13.8101 13.0589 13.8957 13.0529 13.9813L12.9739 14.0112C12.7981 13.4938 12.6222 12.9818 12.4502 12.4685C12.1657 11.6193 11.8847 10.7689 11.6006 9.91945C11.3712 9.23388 11.1402 8.54885 10.9075 7.86436C10.8966 7.83241 10.8654 7.80722 10.8438 7.77892L11.3502 6.84766C11.3677 6.87785 11.3906 6.90616 11.4015 6.93866C11.6358 7.63199 11.8697 8.32546 12.1015 9.0196C12.4032 9.92283 12.7029 10.8265 13.0043 11.7298C13.0164 11.7659 13.0361 11.7992 13.0551 11.8397L13.1244 11.7589L13.1072 12.7987Z" fill="#4FAA41"/>
<path fill-rule="evenodd" clip-rule="evenodd" d="M10.8434 7.78125C10.8652 7.80955 10.8964 7.83474 10.9072 7.8667C11.1398 8.55118 11.3709 9.23621 11.6003 9.92178C11.8844 10.7712 12.1654 11.6217 12.4499 12.4709C12.6219 12.9841 12.7978 13.496 12.9735 14.0135L13.0526 13.9836L13.0349 14.2347L13.0188 14.2925C12.9913 14.5672 12.9681 14.8426 12.9345 15.1168C12.9177 15.2542 12.8819 15.3891 12.8546 15.5251C12.8342 15.4954 12.8055 15.4684 12.7944 15.4355C12.2287 13.7497 11.665 12.0633 11.1004 10.3772C10.9208 9.84061 10.7401 9.3044 10.5582 8.76857C10.549 8.74135 10.523 8.71996 10.5049 8.69585L10.8434 7.78125Z" fill="#4AA73C"/>
<path fill-rule="evenodd" clip-rule="evenodd" d="M13.1243 11.7586L13.055 11.8393C13.036 11.7988 13.0163 11.7655 13.0042 11.7295C12.7028 10.8261 12.4031 9.92249 12.1014 9.01926C11.8693 8.3252 11.636 7.63155 11.4014 6.93831C11.3905 6.90581 11.3676 6.87751 11.3501 6.84731L11.9764 6.02344C11.9962 6.04971 12.0243 6.07314 12.0345 6.10279C12.2084 6.61196 12.3806 7.12153 12.5521 7.63151C12.7121 8.10791 12.8697 8.58484 13.0317 9.06043C13.0425 9.09225 13.0803 9.11473 13.1055 9.14181L13.1069 9.24988L13.1243 11.7586Z" fill="#57AE47"/>
<path fill-rule="evenodd" clip-rule="evenodd" d="M13.1054 9.14315C13.0801 9.1162 13.0425 9.09372 13.0316 9.06176C12.8698 8.58618 12.712 8.10924 12.552 7.63284C12.3807 7.12286 12.2081 6.61328 12.0344 6.10412C12.0243 6.07447 11.9961 6.05104 11.9763 6.02477C12.18 5.8253 12.3773 5.61866 12.5892 5.4284C12.7776 5.2594 12.929 5.07821 12.936 4.81103L12.9509 4.75781L13.0045 4.89296C13.0032 4.96121 12.9971 5.02973 13.0016 5.09771C13.0093 5.21593 13.0284 5.3336 13.0337 5.45182C13.0435 5.67187 13.0483 5.89233 13.0527 6.11266C13.0599 6.46718 13.0664 6.82183 13.0708 7.17649L13.0893 8.87651C13.0907 8.96548 13.1 9.05431 13.1054 9.14315Z" fill="#60B24F"/>
<path fill-rule="evenodd" clip-rule="evenodd" d="M12.8549 15.5227C12.8822 15.3868 12.918 15.2519 12.9348 15.1144C12.9684 14.8403 12.9916 14.5649 13.0191 14.2901L13.026 14.2891L13.0327 14.2903C13.0398 14.6341 13.0882 14.9758 13.177 15.3081C13.1587 15.3322 13.1331 15.3534 13.1233 15.3805C13.0482 15.5926 12.9772 15.8064 12.9017 16.0183C12.8914 16.0473 12.8624 16.0699 12.8422 16.0953L12.7649 15.8298L12.8549 15.5227Z" fill="#A9AA88"/>
<path fill-rule="evenodd" clip-rule="evenodd" d="M12.8423 16.0958C12.8625 16.0703 12.8914 16.0478 12.9017 16.0189C12.9773 15.8069 13.0483 15.5931 13.1234 15.381C13.133 15.354 13.1588 15.3327 13.177 15.3086L13.3069 15.5935C13.2813 15.6298 13.2458 15.6627 13.2316 15.7032L12.983 16.4334C12.9727 16.4627 12.9379 16.4833 12.9143 16.5081L12.8423 16.0958Z" fill="#B6B598"/>
<path fill-rule="evenodd" clip-rule="evenodd" d="M12.9143 16.5084C12.9377 16.4836 12.9727 16.463 12.983 16.4336L13.2316 15.7034C13.2457 15.6629 13.2813 15.63 13.3069 15.5938L13.4325 15.7009C13.3719 15.7609 13.3382 15.8302 13.3585 15.9178L13.3203 16.0428C13.303 16.0642 13.2778 16.0829 13.2692 16.1074C13.1824 16.356 13.0997 16.606 13.0122 16.8545C13.0011 16.8859 12.9704 16.9107 12.9488 16.9386L12.9143 16.5084Z" fill="#C2C1A7"/>
<path fill-rule="evenodd" clip-rule="evenodd" d="M12.9484 16.9387C12.9701 16.9109 13.0008 16.8861 13.0118 16.8547C13.0993 16.6062 13.1821 16.3562 13.2688 16.1076C13.2773 16.0831 13.3025 16.0645 13.3199 16.043L13.2672 16.6166C13.2531 16.6328 13.2328 16.6471 13.226 16.6659L13.0508 17.168C13.0385 17.2023 13.0149 17.2329 12.9965 17.265C12.9801 17.2436 12.9509 17.2229 12.9495 17.2006C12.9444 17.1137 12.948 17.0261 12.9484 16.9387Z" fill="#CECDB7"/>
<path fill-rule="evenodd" clip-rule="evenodd" d="M12.9968 17.2656C13.0152 17.2335 13.0388 17.2029 13.0511 17.1686L13.2264 16.6665C13.2331 16.6475 13.2536 16.6334 13.2675 16.6172L13.2689 16.9936L13.1428 17.3169L12.9968 17.2656Z" fill="#DBDAC7"/>
<path fill-rule="evenodd" clip-rule="evenodd" d="M13.1428 17.3154L13.2689 16.9922L13.2949 17.3746L13.1428 17.3154Z" fill="#EBE9DC"/>
<path fill-rule="evenodd" clip-rule="evenodd" d="M13.3582 15.9162C13.338 15.8287 13.3716 15.7593 13.4322 15.6992L13.4672 15.7231L13.3582 15.9162Z" fill="#CECDB7"/>
<path fill-rule="evenodd" clip-rule="evenodd" d="M13.0327 14.2923L13.0259 14.2911L13.019 14.2922L13.0352 14.2344L13.0327 14.2923Z" fill="#4FAA41"/>
</g>
<defs>
<clipPath id="mongo_db0">
<rect width="17.3333" height="17.3333" fill="white" transform="translate(4.33325 4.33203)"/>
</clipPath>
</defs>
</svg>
