<svg width="100%" height="100%" viewBox="0 0 26 26" fill="none" xmlns="http://www.w3.org/2000/svg">
<circle cx="13" cy="13" r="12.5" fill="white" stroke="#E2EAEC"/>
<g clip-path="url(#ms_bing0)">
<path d="M19.0332 15.4599C19.0331 16.6428 18.5852 17.7818 17.7794 18.6479C17.8641 18.5539 17.9401 18.4526 18.0066 18.345C18.0582 18.2631 18.1036 18.1774 18.1423 18.0886C18.1564 18.0594 18.1689 18.0294 18.1797 17.9988C18.1923 17.9694 18.2032 17.9394 18.2125 17.9089C18.2231 17.8806 18.2322 17.8514 18.2402 17.8221C18.2483 17.7928 18.2569 17.7615 18.2635 17.7307L18.267 17.7201C18.2741 17.6899 18.2796 17.6596 18.2857 17.6288C18.2917 17.598 18.2973 17.5657 18.3023 17.5339C18.3069 17.5046 18.3104 17.4753 18.3129 17.4451C18.3201 17.3758 18.3236 17.3062 18.3235 17.2366C18.3246 16.8544 18.2209 16.4793 18.0237 16.1519C17.9807 16.0785 17.9326 16.0082 17.8799 15.9414C17.8182 15.862 17.7508 15.7872 17.678 15.7178C17.4969 15.542 17.2856 15.4004 17.0541 15.2999C16.9527 15.2551 16.8477 15.2189 16.7402 15.1919H16.7356L16.6983 15.1793L16.1526 14.992L14.7257 14.5014C14.7212 14.5014 14.7151 14.5014 14.7116 14.5014L14.6223 14.4686C14.3359 14.355 14.0982 14.1451 13.95 13.875L13.4306 12.5435L12.8335 11.0212L12.7189 10.7274L12.6896 10.6679C12.6562 10.5865 12.6391 10.4994 12.6391 10.4115C12.6379 10.3888 12.6379 10.366 12.6391 10.3433C12.6499 10.2398 12.6847 10.1402 12.7409 10.0525C12.7971 9.96489 12.873 9.89165 12.9627 9.83868C13.0523 9.78572 13.1531 9.75451 13.257 9.74757C13.3609 9.74063 13.4649 9.75815 13.5608 9.79872L16.2203 11.1615L16.7447 11.4295C17.0224 11.5945 17.2819 11.7882 17.519 12.0075C18.4025 12.8168 18.9409 13.9349 19.0226 15.1303C19.0287 15.2408 19.0332 15.3499 19.0332 15.4599Z" fill="url(#paint0_linear_10151:34777)"/>
<path d="M18.322 17.2361C18.322 17.3685 18.3098 17.5007 18.2857 17.6309C18.2786 17.6647 18.2715 17.699 18.2634 17.7318C18.2483 17.7924 18.2322 17.8509 18.213 17.91C18.2024 17.9403 18.1918 17.9705 18.1802 17.9998C18.1686 18.0291 18.1554 18.0594 18.1428 18.0897C18.1041 18.1784 18.0587 18.2641 18.007 18.3461C17.9405 18.4536 17.8644 18.5549 17.7799 18.6489C17.3923 19.0774 16.0764 19.8416 15.5913 20.1525L14.5147 20.8087C13.7258 21.2948 12.9798 21.639 12.0415 21.6622C11.9971 21.6622 11.9537 21.6622 11.9103 21.6622C11.8497 21.6622 11.7896 21.6622 11.7301 21.6587C10.9703 21.6295 10.229 21.4158 9.57021 21.0362C8.91141 20.6566 8.35485 20.1224 7.94854 19.4797C7.57376 18.8897 7.33768 18.2223 7.25806 17.5279C7.31594 17.8509 7.44955 18.1555 7.64794 18.4169C7.84633 18.6782 8.10384 18.8888 8.39935 19.0314C8.69487 19.174 9.01998 19.2445 9.34801 19.2372C9.67605 19.2298 9.99767 19.1448 10.2865 18.9891L10.2936 18.9856L10.3991 18.9225L10.8276 18.6701L11.3732 18.3471V18.3319L11.4434 18.29L16.3247 15.3984L16.7003 15.1758L16.7376 15.1884H16.7422C16.8497 15.2153 16.9547 15.2515 17.0561 15.2964C17.2876 15.397 17.4989 15.5385 17.68 15.7143C17.7527 15.7837 17.8202 15.8585 17.8819 15.9379C17.9345 16.0047 17.9826 16.0751 18.0257 16.1484C18.2217 16.4772 18.3241 16.8534 18.322 17.2361Z" fill="url(#paint1_linear_10151:34777)"/>
<path d="M11.3741 7.58344V18.3491L10.8264 18.6701L10.3974 18.9225L10.2919 18.9866C10.2895 18.9869 10.2872 18.9879 10.2853 18.9896C9.99655 19.1453 9.67496 19.2303 9.34696 19.2377C9.01896 19.2451 8.69387 19.1746 8.39837 19.0321C8.10286 18.8895 7.84534 18.679 7.64692 18.4177C7.44851 18.1564 7.31485 17.8518 7.2569 17.5289C7.24882 17.484 7.24276 17.4375 7.23772 17.3926C7.23115 17.3078 7.22661 17.2245 7.2251 17.1402V5.02642C7.22521 4.90041 7.25959 4.7768 7.32454 4.66882C7.38949 4.56083 7.48258 4.47254 7.59384 4.41338C7.70511 4.35422 7.83036 4.32643 7.9562 4.33297C8.08205 4.33951 8.20374 4.38014 8.30827 4.45051L10.4317 5.83754C10.4433 5.8471 10.4556 5.8557 10.4686 5.86328C10.7484 6.05437 10.9772 6.31102 11.135 6.61086C11.2929 6.9107 11.3749 7.2446 11.3741 7.58344Z" fill="url(#paint2_linear_10151:34777)"/>
<g opacity="0.149">
<g opacity="0.149">
<path opacity="0.149" d="M18.322 17.2361C18.322 17.3685 18.3098 17.5007 18.2857 17.6309C18.2786 17.6647 18.2715 17.699 18.2634 17.7318C18.2483 17.7924 18.2322 17.8509 18.213 17.91C18.2024 17.9403 18.1918 17.9705 18.1802 17.9998C18.1686 18.0291 18.1554 18.0594 18.1428 18.0897C18.1041 18.1784 18.0587 18.2641 18.007 18.3461C17.9405 18.4536 17.8645 18.555 17.7799 18.6489C17.3923 19.0774 16.0764 19.8416 15.5913 20.1525L14.5147 20.8087C13.7258 21.2948 12.9798 21.639 12.0415 21.6622C11.9971 21.6622 11.9537 21.6622 11.9103 21.6622C11.8497 21.6622 11.7896 21.6622 11.7301 21.6587C10.9703 21.6295 10.229 21.4158 9.57021 21.0362C8.91141 20.6566 8.35485 20.1224 7.94854 19.4797C7.57376 18.8897 7.33768 18.2223 7.25806 17.5279C7.31594 17.8509 7.44955 18.1555 7.64794 18.4169C7.84633 18.6782 8.10384 18.8888 8.39935 19.0314C8.69487 19.174 9.01998 19.2445 9.34801 19.2372C9.67605 19.2298 9.99767 19.1448 10.2865 18.9891L10.2936 18.9856L10.3991 18.9225L10.8276 18.6701L11.3732 18.3471V18.3319L11.4434 18.29L16.3247 15.3984L16.7003 15.1758L16.7376 15.1884H16.7422C16.8497 15.2153 16.9547 15.2515 17.0561 15.2964C17.2876 15.397 17.4989 15.5385 17.68 15.7143C17.7527 15.7837 17.8202 15.8585 17.8819 15.9379C17.9345 16.0047 17.9826 16.0751 18.0257 16.1484C18.2217 16.4772 18.3241 16.8534 18.322 17.2361Z" fill="url(#paint3_linear_10151:34777)"/>
</g>
</g>
<g opacity="0.098">
<g opacity="0.098">
<path opacity="0.098" d="M11.3741 7.58344V18.3491L10.8264 18.6701L10.3974 18.9225L10.2919 18.9866C10.2895 18.9869 10.2872 18.9879 10.2853 18.9896C9.99655 19.1453 9.67496 19.2303 9.34696 19.2377C9.01896 19.2451 8.69387 19.1746 8.39837 19.0321C8.10286 18.8895 7.84534 18.679 7.64692 18.4177C7.44851 18.1564 7.31485 17.8518 7.2569 17.5289C7.24882 17.484 7.24276 17.4375 7.23772 17.3926C7.23115 17.3078 7.22661 17.2245 7.2251 17.1402V5.02642C7.22521 4.90041 7.25959 4.7768 7.32454 4.66882C7.38949 4.56083 7.48258 4.47254 7.59384 4.41338C7.70511 4.35422 7.83036 4.32643 7.9562 4.33297C8.08205 4.33951 8.20374 4.38014 8.30827 4.45051L10.4317 5.83754C10.4433 5.8471 10.4556 5.8557 10.4686 5.86328C10.7484 6.05437 10.9772 6.31102 11.135 6.61086C11.2929 6.9107 11.3749 7.2446 11.3741 7.58344Z" fill="url(#paint4_linear_10151:34777)"/>
</g>
</g>
</g>
<defs>
<linearGradient id="paint0_linear_10151:34777" x1="11.7153" y1="11.9863" x2="19.3173" y2="16.3797" gradientUnits="userSpaceOnUse">
<stop stop-color="#37BDFF"/>
<stop offset="0.18" stop-color="#33BFFD"/>
<stop offset="0.36" stop-color="#28C5F5"/>
<stop offset="0.53" stop-color="#15D0E9"/>
<stop offset="0.55" stop-color="#12D1E7"/>
<stop offset="0.59" stop-color="#1CD2E5"/>
<stop offset="0.77" stop-color="#42D8DC"/>
<stop offset="0.91" stop-color="#59DBD6"/>
<stop offset="1" stop-color="#62DCD4"/>
</linearGradient>
<linearGradient id="paint1_linear_10151:34777" x1="7.26023" y1="18.5779" x2="18.33" y2="18.5779" gradientUnits="userSpaceOnUse">
<stop stop-color="#39D2FF"/>
<stop offset="0.15" stop-color="#38CEFE"/>
<stop offset="0.29" stop-color="#35C3FA"/>
<stop offset="0.43" stop-color="#2FB0F3"/>
<stop offset="0.55" stop-color="#299AEB"/>
<stop offset="0.58" stop-color="#2692EC"/>
<stop offset="0.76" stop-color="#1A6CF1"/>
<stop offset="0.91" stop-color="#1355F4"/>
<stop offset="1" stop-color="#104CF5"/>
</linearGradient>
<linearGradient id="paint2_linear_10151:34777" x1="9.30968" y1="19.539" x2="9.30968" y2="4.74223" gradientUnits="userSpaceOnUse">
<stop stop-color="#1B48EF"/>
<stop offset="0.12" stop-color="#1C51F0"/>
<stop offset="0.32" stop-color="#1E69F5"/>
<stop offset="0.57" stop-color="#2190FB"/>
<stop offset="1" stop-color="#26B8F4"/>
</linearGradient>
<linearGradient id="paint3_linear_10151:34777" x1="9.45691" y1="21.3053" x2="16.2938" y2="14.4808" gradientUnits="userSpaceOnUse">
<stop stop-color="white"/>
<stop offset="0.37" stop-color="#FDFDFD"/>
<stop offset="0.51" stop-color="#F6F6F6"/>
<stop offset="0.6" stop-color="#EBEBEB"/>
<stop offset="0.68" stop-color="#DADADA"/>
<stop offset="0.75" stop-color="#C4C4C4"/>
<stop offset="0.81" stop-color="#A8A8A8"/>
<stop offset="0.86" stop-color="#888888"/>
<stop offset="0.91" stop-color="#626262"/>
<stop offset="0.95" stop-color="#373737"/>
<stop offset="0.99" stop-color="#090909"/>
<stop offset="1"/>
</linearGradient>
<linearGradient id="paint4_linear_10151:34777" x1="-122.223" y1="9963.14" x2="-122.223" y2="9783.08" gradientUnits="userSpaceOnUse">
<stop stop-color="white"/>
<stop offset="0.37" stop-color="#FDFDFD"/>
<stop offset="0.51" stop-color="#F6F6F6"/>
<stop offset="0.6" stop-color="#EBEBEB"/>
<stop offset="0.68" stop-color="#DADADA"/>
<stop offset="0.75" stop-color="#C4C4C4"/>
<stop offset="0.81" stop-color="#A8A8A8"/>
<stop offset="0.86" stop-color="#888888"/>
<stop offset="0.91" stop-color="#626262"/>
<stop offset="0.95" stop-color="#373737"/>
<stop offset="0.99" stop-color="#090909"/>
<stop offset="1"/>
</linearGradient>
<clipPath id="ms_bing0">
<rect width="11.811" height="17.3333" fill="white" transform="translate(7.22217 4.33203)"/>
</clipPath>
</defs>
</svg>
