<svg width="100%" height="100%" viewBox="0 0 18 18" fill="none" xmlns="http://www.w3.org/2000/svg">
<circle cx="9" cy="9" r="8.5" fill="white" stroke="#E2EAEC"/>
<g clip-path="url(#ms_bing0)">
<path d="M13.1768 10.7038C13.1768 11.5227 12.8667 12.3112 12.3088 12.9108C12.3674 12.8458 12.42 12.7756 12.4661 12.7011C12.5018 12.6444 12.5333 12.5851 12.5601 12.5236C12.5698 12.5034 12.5784 12.4826 12.5859 12.4614C12.5946 12.4411 12.6022 12.4204 12.6086 12.3992C12.616 12.3797 12.6223 12.3594 12.6279 12.3391C12.6335 12.3189 12.6394 12.2972 12.6439 12.2759L12.6464 12.2685C12.6513 12.2476 12.6551 12.2266 12.6593 12.2053C12.6635 12.184 12.6673 12.1616 12.6708 12.1396C12.674 12.1193 12.6764 12.0991 12.6782 12.0781C12.6831 12.0302 12.6856 11.982 12.6855 11.9338C12.6863 11.6692 12.6145 11.4095 12.478 11.1828C12.4482 11.132 12.4149 11.0833 12.3784 11.0371C12.3357 10.9821 12.289 10.9304 12.2386 10.8823C12.1133 10.7606 11.9669 10.6626 11.8067 10.593C11.7365 10.562 11.6638 10.5369 11.5893 10.5182H11.5862L11.5603 10.5095L11.1826 10.3798L10.1947 10.0402C10.1916 10.0402 10.1874 10.0402 10.185 10.0402L10.1231 10.0175C9.92488 9.93881 9.76028 9.79349 9.65766 9.60653L9.29809 8.68472L8.88471 7.63082L8.80539 7.42745L8.78512 7.38621C8.762 7.32989 8.75013 7.26958 8.75018 7.2087C8.74929 7.19299 8.74929 7.17724 8.75018 7.16153C8.75759 7.08983 8.78172 7.02088 8.82062 6.9602C8.85952 6.89952 8.91211 6.84881 8.97416 6.81215C9.03621 6.77548 9.106 6.75388 9.17791 6.74907C9.24983 6.74427 9.32187 6.7564 9.38824 6.78448L11.2294 7.72796L11.5925 7.91351C11.7847 8.02769 11.9644 8.1618 12.1285 8.31362C12.7402 8.8739 13.1129 9.64801 13.1695 10.4756C13.1737 10.5521 13.1768 10.6276 13.1768 10.7038Z" fill="url(#ms_bing1)"/>
<path d="M12.6844 11.9323C12.6844 12.0239 12.676 12.1154 12.6593 12.2055C12.6544 12.2289 12.6495 12.2527 12.6439 12.2754C12.6334 12.3173 12.6222 12.3579 12.609 12.3988C12.6016 12.4197 12.5943 12.4407 12.5862 12.461C12.5782 12.4812 12.5691 12.5022 12.5604 12.5232C12.5336 12.5846 12.5021 12.644 12.4664 12.7007C12.4203 12.7751 12.3677 12.8453 12.3091 12.9103C12.0408 13.207 11.1298 13.7361 10.794 13.9513L10.0486 14.4056C9.50246 14.7421 8.98599 14.9804 8.33639 14.9965C8.30564 14.9965 8.27559 14.9965 8.24554 14.9965C8.2036 14.9965 8.16202 14.9965 8.12079 14.994C7.59478 14.9738 7.0816 14.8259 6.6255 14.5631C6.16941 14.3003 5.7841 13.9304 5.50281 13.4855C5.24335 13.077 5.0799 12.615 5.02478 12.1342C5.06485 12.3578 5.15735 12.5687 5.2947 12.7497C5.43204 12.9306 5.61032 13.0764 5.81491 13.1751C6.0195 13.2739 6.24457 13.3227 6.47167 13.3176C6.69878 13.3125 6.92144 13.2536 7.1214 13.1459L7.12629 13.1434L7.19932 13.0997L7.496 12.925L7.87374 12.7014V12.6909L7.92231 12.6619L11.3017 10.66L11.5617 10.5059L11.5875 10.5146H11.5907C11.6652 10.5332 11.7379 10.5583 11.808 10.5894C11.9683 10.659 12.1146 10.757 12.2399 10.8787C12.2903 10.9268 12.337 10.9785 12.3797 11.0335C12.4162 11.0798 12.4495 11.1284 12.4793 11.1792C12.615 11.4069 12.6859 11.6673 12.6844 11.9323Z" fill="url(#ms_bing2)"/>
<path d="M7.87432 5.25098V12.7041L7.49518 12.9264L7.19816 13.1011L7.12513 13.1454C7.12344 13.1457 7.12185 13.1464 7.12059 13.1475C6.92065 13.2553 6.69801 13.3142 6.47094 13.3193C6.24386 13.3244 6.0188 13.2756 5.81422 13.1769C5.60963 13.0783 5.43135 12.9325 5.29399 12.7516C5.15662 12.5707 5.06409 12.3598 5.02397 12.1363C5.01838 12.1052 5.01418 12.073 5.01069 12.0419C5.00615 11.9832 5.003 11.9256 5.00195 11.8672V3.48073C5.00203 3.39349 5.02583 3.30792 5.0708 3.23316C5.11576 3.1584 5.18021 3.09727 5.25724 3.05632C5.33427 3.01536 5.42098 2.99612 5.5081 3.00065C5.59522 3.00518 5.67948 3.03331 5.75184 3.08203L7.22192 4.04228C7.22994 4.04889 7.23847 4.05485 7.24743 4.0601C7.44116 4.19239 7.59957 4.37007 7.70884 4.57765C7.81811 4.78523 7.87492 5.0164 7.87432 5.25098Z" fill="url(#ms_bing3)"/>
<g opacity="0.149">
<g opacity="0.149">
<path opacity="0.149" d="M12.6844 11.9323C12.6844 12.0239 12.676 12.1154 12.6593 12.2055C12.6544 12.2289 12.6495 12.2527 12.6439 12.2754C12.6334 12.3173 12.6222 12.3579 12.609 12.3988C12.6016 12.4197 12.5943 12.4407 12.5862 12.461C12.5782 12.4812 12.5691 12.5022 12.5604 12.5232C12.5336 12.5846 12.5021 12.644 12.4664 12.7007C12.4204 12.7751 12.3677 12.8453 12.3091 12.9103C12.0408 13.207 11.1298 13.7361 10.794 13.9513L10.0486 14.4056C9.50246 14.7421 8.98599 14.9804 8.33639 14.9965C8.30564 14.9965 8.27559 14.9965 8.24554 14.9965C8.2036 14.9965 8.16202 14.9965 8.12079 14.994C7.59478 14.9738 7.0816 14.8259 6.6255 14.5631C6.16941 14.3003 5.7841 13.9304 5.50281 13.4855C5.24335 13.077 5.0799 12.615 5.02478 12.1342C5.06485 12.3578 5.15735 12.5687 5.2947 12.7497C5.43204 12.9306 5.61032 13.0764 5.81491 13.1751C6.0195 13.2739 6.24457 13.3227 6.47167 13.3176C6.69878 13.3125 6.92144 13.2536 7.1214 13.1459L7.12629 13.1434L7.19932 13.0997L7.496 12.925L7.87374 12.7014V12.6909L7.92231 12.6619L11.3017 10.66L11.5617 10.5059L11.5875 10.5146H11.5907C11.6652 10.5332 11.7379 10.5583 11.808 10.5894C11.9683 10.659 12.1146 10.757 12.2399 10.8787C12.2903 10.9268 12.337 10.9785 12.3797 11.0335C12.4162 11.0798 12.4495 11.1284 12.4793 11.1792C12.615 11.4069 12.6859 11.6673 12.6844 11.9323Z" fill="url(#ms_bing4)"/>
</g>
</g>
<g opacity="0.098">
<g opacity="0.098">
<path opacity="0.098" d="M7.87432 5.25098V12.7041L7.49518 12.9264L7.19816 13.1011L7.12513 13.1454C7.12344 13.1457 7.12185 13.1464 7.12059 13.1475C6.92065 13.2553 6.69801 13.3142 6.47094 13.3193C6.24386 13.3244 6.0188 13.2756 5.81422 13.1769C5.60963 13.0783 5.43135 12.9325 5.29399 12.7516C5.15662 12.5707 5.06409 12.3598 5.02397 12.1363C5.01838 12.1052 5.01418 12.073 5.01069 12.0419C5.00615 11.9832 5.003 11.9256 5.00195 11.8672V3.48073C5.00203 3.39349 5.02583 3.30792 5.0708 3.23316C5.11576 3.1584 5.18021 3.09727 5.25724 3.05632C5.33427 3.01536 5.42098 2.99612 5.5081 3.00065C5.59522 3.00518 5.67948 3.03331 5.75184 3.08203L7.22192 4.04228C7.22994 4.04889 7.23847 4.05485 7.24743 4.0601C7.44116 4.19239 7.59957 4.37007 7.70884 4.57765C7.81811 4.78523 7.87492 5.0164 7.87432 5.25098Z" fill="url(#ms_bing5)"/>
</g>
</g>
</g>
<defs>
<linearGradient id="ms_bing1" x1="8.11062" y1="8.29898" x2="13.3735" y2="11.3405" gradientUnits="userSpaceOnUse">
<stop stop-color="#37BDFF"/>
<stop offset="0.18" stop-color="#33BFFD"/>
<stop offset="0.36" stop-color="#28C5F5"/>
<stop offset="0.53" stop-color="#15D0E9"/>
<stop offset="0.55" stop-color="#12D1E7"/>
<stop offset="0.59" stop-color="#1CD2E5"/>
<stop offset="0.77" stop-color="#42D8DC"/>
<stop offset="0.91" stop-color="#59DBD6"/>
<stop offset="1" stop-color="#62DCD4"/>
</linearGradient>
<linearGradient id="ms_bing2" x1="5.02628" y1="12.8612" x2="12.69" y2="12.8612" gradientUnits="userSpaceOnUse">
<stop stop-color="#39D2FF"/>
<stop offset="0.15" stop-color="#38CEFE"/>
<stop offset="0.29" stop-color="#35C3FA"/>
<stop offset="0.43" stop-color="#2FB0F3"/>
<stop offset="0.55" stop-color="#299AEB"/>
<stop offset="0.58" stop-color="#2692EC"/>
<stop offset="0.76" stop-color="#1A6CF1"/>
<stop offset="0.91" stop-color="#1355F4"/>
<stop offset="1" stop-color="#104CF5"/>
</linearGradient>
<linearGradient id="ms_bing3" x1="6.44513" y1="13.5279" x2="6.44513" y2="3.28398" gradientUnits="userSpaceOnUse">
<stop stop-color="#1B48EF"/>
<stop offset="0.12" stop-color="#1C51F0"/>
<stop offset="0.32" stop-color="#1E69F5"/>
<stop offset="0.57" stop-color="#2190FB"/>
<stop offset="1" stop-color="#26B8F4"/>
</linearGradient>
<linearGradient id="ms_bing4" x1="6.54707" y1="14.7494" x2="11.2803" y2="10.0247" gradientUnits="userSpaceOnUse">
<stop stop-color="white"/>
<stop offset="0.37" stop-color="#FDFDFD"/>
<stop offset="0.51" stop-color="#F6F6F6"/>
<stop offset="0.6" stop-color="#EBEBEB"/>
<stop offset="0.68" stop-color="#DADADA"/>
<stop offset="0.75" stop-color="#C4C4C4"/>
<stop offset="0.81" stop-color="#A8A8A8"/>
<stop offset="0.86" stop-color="#888888"/>
<stop offset="0.91" stop-color="#626262"/>
<stop offset="0.95" stop-color="#373737"/>
<stop offset="0.99" stop-color="#090909"/>
<stop offset="1"/>
</linearGradient>
<linearGradient id="ms_bing5" x1="-84.6161" y1="6897.56" x2="-84.6161" y2="6772.9" gradientUnits="userSpaceOnUse">
<stop stop-color="white"/>
<stop offset="0.37" stop-color="#FDFDFD"/>
<stop offset="0.51" stop-color="#F6F6F6"/>
<stop offset="0.6" stop-color="#EBEBEB"/>
<stop offset="0.68" stop-color="#DADADA"/>
<stop offset="0.75" stop-color="#C4C4C4"/>
<stop offset="0.81" stop-color="#A8A8A8"/>
<stop offset="0.86" stop-color="#888888"/>
<stop offset="0.91" stop-color="#626262"/>
<stop offset="0.95" stop-color="#373737"/>
<stop offset="0.99" stop-color="#090909"/>
<stop offset="1"/>
</linearGradient>
<clipPath id="ms_bing0">
<rect width="8.17682" height="12" fill="white" transform="translate(5 3)"/>
</clipPath>
</defs>
</svg>
