<svg width="100%" height="100%" viewBox="0 0 18 18" fill="none" xmlns="http://www.w3.org/2000/svg">
<circle cx="9" cy="9" r="8.5" fill="white" stroke="#E2EAEC"/>
<path d="M3.20323 11.1867H3.62045V9.53906L4.26638 10.9755C4.34255 11.1493 4.44686 11.2108 4.65151 11.2108C4.85616 11.2108 4.9565 11.1493 5.03267 10.9755L5.67861 9.53906V11.1867H6.09583V9.5418C6.09583 9.38133 6.03164 9.30364 5.8992 9.26362C5.58223 9.1647 5.36955 9.25032 5.27327 9.46431L4.63942 10.8819L4.02568 9.46421C3.93336 9.25032 3.71673 9.1647 3.39975 9.26352C3.26731 9.30364 3.20312 9.38123 3.20312 9.5417V11.1867H3.20323ZM6.44287 9.84547H6.85998V10.7532C6.85613 10.8025 6.87583 10.9183 7.10434 10.9219C7.22094 10.9238 8.00439 10.9219 8.0117 10.9219V9.841H8.42984C8.43177 9.841 8.42943 11.3151 8.42943 11.3212C8.43166 11.6848 7.97839 11.7637 7.76937 11.7698H6.45191V11.4891C6.45414 11.4891 7.76846 11.4894 7.77171 11.489C8.04034 11.4606 8.00855 11.3272 8.00845 11.2823V11.1728H7.12171C6.70916 11.169 6.44632 10.989 6.44297 10.7818C6.44277 10.7628 6.45201 9.85461 6.44287 9.84547Z" fill="#00618A"/>
<path d="M8.75146 11.1874H9.95112C10.0916 11.1874 10.2281 11.1581 10.3363 11.1073C10.5168 11.0244 10.6051 10.9121 10.6051 10.7648V10.46C10.6051 10.3396 10.5048 10.2272 10.3082 10.1524C10.2039 10.1122 10.0754 10.091 9.95102 10.091H9.44544C9.27695 10.091 9.19671 10.0402 9.17671 9.92787C9.17275 9.91446 9.17275 9.9038 9.17275 9.89039V9.70047C9.17275 9.6898 9.17275 9.67904 9.17671 9.66573C9.19671 9.58012 9.24089 9.55605 9.38938 9.54264L9.4295 9.54H10.6211V9.26192H9.44961C9.28111 9.26192 9.19286 9.27259 9.11262 9.29666C8.86389 9.37425 8.75543 9.49724 8.75543 9.71123V9.95458C8.75543 10.1419 8.9682 10.3023 9.32519 10.3398C9.36541 10.3423 9.40543 10.3452 9.44554 10.3452H9.87891C9.89496 10.3452 9.911 10.3452 9.92309 10.3477C10.0555 10.3584 10.1116 10.3826 10.1518 10.4306C10.1621 10.4401 10.1703 10.4517 10.1758 10.4646C10.1813 10.4775 10.184 10.4914 10.1838 10.5055V10.7489C10.1838 10.7782 10.1638 10.8157 10.1237 10.8478C10.0876 10.8799 10.0274 10.9013 9.94716 10.9067L9.90298 10.9094H8.75146V11.1874ZM13.2081 10.7034C13.2081 10.9895 13.4208 11.15 13.85 11.1822C13.8901 11.1848 13.9302 11.1874 13.9704 11.1874H15.0577V10.9094H13.9624C13.7177 10.9094 13.6255 10.8478 13.6255 10.7007V9.26172H13.2082V10.7034H13.2081ZM10.8714 10.7178V9.72606C10.8714 9.47419 11.0483 9.32134 11.3981 9.27309C11.4354 9.26775 11.473 9.26507 11.5106 9.26507H12.3027C12.3429 9.26507 12.3791 9.26771 12.4192 9.27309C12.769 9.32134 12.946 9.47409 12.946 9.72606V10.7178C12.946 10.9224 12.8708 11.0316 12.6977 11.1029L13.1088 11.474H12.6242L12.2917 11.1737L11.957 11.195H11.5106C11.4277 11.1944 11.3452 11.1827 11.2654 11.1601C11.0001 11.0878 10.8714 10.9484 10.8714 10.7178ZM11.3217 10.6937C11.3217 10.7072 11.3257 10.7207 11.3297 10.7367C11.3538 10.852 11.4625 10.9163 11.6272 10.9163H12.0062L11.6581 10.6019H12.1426L12.4462 10.8762C12.5023 10.8462 12.539 10.8007 12.5519 10.7421C12.5559 10.7287 12.5559 10.7153 12.5559 10.7019V9.75044C12.5559 9.73977 12.5559 9.72627 12.5519 9.71286C12.5278 9.60561 12.4192 9.54406 12.2584 9.54406H11.6271C11.4423 9.54406 11.3216 9.6245 11.3216 9.75044V10.6937H11.3217Z" fill="#E48E00"/>
<path d="M15.4248 8.7997C15.1683 8.79269 14.9724 8.81656 14.8048 8.88714C14.7572 8.90725 14.6813 8.90776 14.6736 8.96738C14.6997 8.9949 14.7038 9.03583 14.7246 9.06955C14.7646 9.13424 14.8322 9.22098 14.8924 9.26638C14.9581 9.31604 15.0259 9.36926 15.0966 9.41232C15.2221 9.4889 15.3622 9.53257 15.4832 9.60915C15.5544 9.65445 15.6251 9.71132 15.6946 9.76241C15.7291 9.78749 15.752 9.8268 15.7968 9.84254V9.83533C15.7733 9.80547 15.7672 9.76444 15.7457 9.73316L15.6509 9.6383C15.5581 9.5152 15.4405 9.40724 15.3153 9.31746C15.2156 9.24586 14.9923 9.14907 14.9507 9.03299L14.9434 9.02578C15.0141 9.01775 15.0969 8.99216 15.1621 8.97469C15.2718 8.94524 15.3698 8.95285 15.4831 8.9236L15.6362 8.87973V8.85068C15.579 8.79198 15.5381 8.71418 15.4758 8.66106C15.3125 8.52202 15.1342 8.38309 14.9507 8.2671C14.8489 8.20292 14.7231 8.16117 14.6151 8.10674C14.579 8.08835 14.5152 8.07891 14.4911 8.04834C14.4343 7.97613 14.4036 7.88462 14.3598 7.80042C14.2663 7.61854 14.1787 7.43366 14.0972 7.24609C14.042 7.11965 14.0058 6.99493 13.9369 6.88149C13.6057 6.33701 13.2492 6.00835 12.697 5.68538C12.5795 5.61663 12.438 5.58961 12.2886 5.55416L12.0479 5.53954C11.9991 5.51913 11.9481 5.4592 11.9021 5.43016C11.7191 5.31458 11.2498 5.06321 11.1144 5.3938C11.0288 5.60241 11.2423 5.80594 11.3186 5.91167C11.3721 5.98581 11.4408 6.06888 11.4791 6.15227C11.5043 6.20711 11.5085 6.26206 11.5302 6.32005C11.5831 6.46284 11.6293 6.61834 11.6978 6.75027C11.7325 6.81709 11.7708 6.88748 11.8145 6.9472C11.8413 6.98376 11.8875 7.00001 11.8947 7.05658C11.8497 7.11955 11.847 7.21745 11.8217 7.29718C11.7078 7.65661 11.7507 8.10338 11.9166 8.36938C11.9675 8.45113 12.0873 8.62623 12.2521 8.55899C12.3962 8.50029 12.3641 8.31839 12.4053 8.15782C12.4147 8.12156 12.4089 8.09475 12.4272 8.07038V8.07769L12.5585 8.34023C12.6557 8.49674 12.828 8.66015 12.9742 8.77055C13.0499 8.82773 13.1097 8.92675 13.2076 8.96017V8.95275H13.2004C13.1813 8.9232 13.1517 8.91101 13.1273 8.88714C13.0702 8.83118 13.0068 8.76171 12.9596 8.69752C12.8267 8.51715 12.7093 8.31961 12.6022 8.11405C12.5512 8.01594 12.5068 7.90767 12.4637 7.80774C12.4471 7.76924 12.4473 7.71095 12.4127 7.69114C12.3654 7.76427 12.296 7.82348 12.2595 7.90991C12.2012 8.04803 12.1937 8.21652 12.172 8.39121L12.1574 8.39842C12.0557 8.37395 12.0201 8.26934 11.9823 8.17966C11.8868 7.95287 11.8691 7.58755 11.9532 7.32643C11.9749 7.25879 12.0731 7.04602 12.0333 6.98356C12.0143 6.9213 11.9516 6.88534 11.9167 6.83761C11.8709 6.77374 11.8318 6.70529 11.8 6.63337C11.7218 6.45655 11.6853 6.25799 11.6032 6.07914C11.5638 5.99363 11.4973 5.9072 11.4427 5.83123C11.3823 5.74693 11.3145 5.68498 11.2676 5.58321C11.251 5.54706 11.2283 5.48906 11.253 5.45189C11.2608 5.42681 11.2721 5.41634 11.2969 5.40812C11.3391 5.37552 11.4569 5.41899 11.501 5.43727C11.618 5.48592 11.7156 5.53213 11.8147 5.59774C11.8623 5.62932 11.9103 5.69026 11.9679 5.70712H12.0335C12.1362 5.73068 12.2512 5.71433 12.3471 5.74348C12.5167 5.79507 12.6687 5.8752 12.8066 5.96234C13.227 6.22783 13.5705 6.60564 13.8058 7.05638C13.8435 7.12899 13.86 7.19816 13.8932 7.27514C13.9604 7.43033 14.0451 7.59009 14.112 7.74192C14.1787 7.89335 14.2438 8.0462 14.3382 8.17224C14.3877 8.23846 14.5793 8.27401 14.6663 8.31078C14.7273 8.33657 14.8273 8.36349 14.8851 8.39822C14.9955 8.46485 15.1025 8.54417 15.206 8.61709C15.2577 8.65385 15.4169 8.73378 15.4248 8.7997ZM12.1647 6.02105C12.1205 6.02032 12.0764 6.02524 12.0334 6.03567V6.04288H12.0407C12.0662 6.09539 12.1112 6.12911 12.1428 6.1742L12.2158 6.32736L12.223 6.32015C12.2682 6.28836 12.2888 6.23748 12.2886 6.15968C12.2704 6.14059 12.2678 6.11672 12.2522 6.09407C12.2314 6.0636 12.191 6.04654 12.1647 6.02105Z" fill="#00618A"/>
</svg>
