<svg width="100%" height="100%" viewBox="0 0 26 26" fill="none" xmlns="http://www.w3.org/2000/svg">
<circle cx="13" cy="13" r="12.5" fill="white" stroke="#E2EAEC"/>
<g clip-path="url(#mysql0)">
<path d="M4.62686 16.1612H5.22951V13.7812L6.16253 15.856C6.27255 16.1072 6.42321 16.1959 6.71882 16.1959C7.01442 16.1959 7.15936 16.1072 7.26939 15.856L8.20241 13.7812V16.1612H8.80506V13.7852C8.80506 13.5534 8.71234 13.4412 8.52104 13.3834C8.06319 13.2405 7.756 13.3642 7.61692 13.6733L6.70136 15.7209L5.81484 13.6731C5.68149 13.3642 5.36858 13.2405 4.91072 13.3832C4.71942 13.4412 4.62671 13.5533 4.62671 13.7851V16.1612H4.62686ZM9.30634 14.2238H9.90884V15.5351C9.90326 15.6062 9.93172 15.7734 10.2618 15.7787C10.4302 15.7814 11.5619 15.7787 11.5724 15.7787V14.2174H12.1764C12.1792 14.2174 12.1758 16.3466 12.1758 16.3554C12.179 16.8806 11.5243 16.9946 11.2224 17.0034H9.31939V16.5979C9.32262 16.5979 11.2211 16.5983 11.2258 16.5978C11.6138 16.5568 11.5679 16.3641 11.5677 16.2992V16.1411H10.2869C9.69099 16.1357 9.31132 15.8756 9.30648 15.5763C9.30619 15.5488 9.31954 14.237 9.30634 14.2238Z" fill="#00618A"/>
<path d="M12.6409 16.1605H14.3737C14.5766 16.1605 14.7738 16.1181 14.9301 16.0448C15.1908 15.9251 15.3183 15.7628 15.3183 15.5501V15.1097C15.3183 14.9358 15.1735 14.7734 14.8895 14.6655C14.7388 14.6074 14.5533 14.5767 14.3736 14.5767H13.6433C13.3999 14.5767 13.284 14.5034 13.2551 14.3411C13.2494 14.3218 13.2494 14.3064 13.2494 14.287V14.0127C13.2494 13.9973 13.2494 13.9817 13.2551 13.9625C13.284 13.8388 13.3478 13.804 13.5623 13.7847L13.6202 13.7809H15.3415V13.3792H13.6493C13.4059 13.3792 13.2784 13.3946 13.1625 13.4294C12.8033 13.5415 12.6466 13.7191 12.6466 14.0282V14.3797C12.6466 14.6502 12.9539 14.882 13.4696 14.9361C13.5277 14.9398 13.5855 14.9439 13.6434 14.9439H14.2694C14.2926 14.9439 14.3158 14.9439 14.3332 14.9476C14.5245 14.963 14.6055 14.9979 14.6636 15.0673C14.6785 15.081 14.6903 15.0978 14.6983 15.1164C14.7062 15.135 14.7102 15.1551 14.7098 15.1754V15.5271C14.7098 15.5695 14.6809 15.6236 14.623 15.6699C14.5709 15.7163 14.4839 15.7473 14.368 15.755L14.3042 15.7588H12.6409V16.1605ZM19.0783 15.4613C19.0783 15.8746 19.3855 16.1064 20.0054 16.1529C20.0634 16.1567 20.1213 16.1605 20.1793 16.1605H21.7499V15.7588H20.1678C19.8143 15.7588 19.6811 15.6699 19.6811 15.4574V13.3789H19.0784V15.4613H19.0783ZM15.703 15.4822V14.0496C15.703 13.6858 15.9585 13.465 16.4638 13.3953C16.5176 13.3876 16.5719 13.3837 16.6263 13.3837H17.7704C17.8285 13.3837 17.8808 13.3876 17.9387 13.3953C18.4439 13.465 18.6996 13.6857 18.6996 14.0496V15.4822C18.6996 15.7776 18.5911 15.9355 18.341 16.0385L18.9348 16.5744H18.2349L17.7546 16.1407L17.2711 16.1714H16.6263C16.5065 16.1706 16.3874 16.1537 16.2722 16.121C15.8888 16.0166 15.703 15.8152 15.703 15.4822ZM16.3534 15.4474C16.3534 15.4668 16.3592 15.4863 16.365 15.5094C16.3998 15.676 16.5568 15.7688 16.7947 15.7688H17.3422L16.8393 15.3148H17.5392L17.9777 15.7109C18.0587 15.6676 18.1118 15.6019 18.1304 15.5172C18.1362 15.4979 18.1362 15.4785 18.1362 15.4591V14.0848C18.1362 14.0694 18.1362 14.0499 18.1304 14.0306C18.0955 13.8756 17.9387 13.7867 17.7065 13.7867H16.7946C16.5276 13.7867 16.3533 13.9029 16.3533 14.0848V15.4474H16.3534Z" fill="#E48E00"/>
<path d="M22.28 12.7116C21.9096 12.7015 21.6266 12.736 21.3845 12.838C21.3157 12.867 21.2062 12.8677 21.195 12.9539C21.2327 12.9936 21.2386 13.0527 21.2687 13.1014C21.3265 13.1949 21.424 13.3202 21.511 13.3857C21.6059 13.4575 21.7039 13.5344 21.806 13.5966C21.9872 13.7072 22.1896 13.7702 22.3644 13.8809C22.4672 13.9463 22.5693 14.0284 22.6698 14.1022C22.7195 14.1385 22.7527 14.1952 22.8174 14.218V14.2076C22.7835 14.1644 22.7747 14.1052 22.7436 14.06L22.6066 13.923C22.4726 13.7452 22.3027 13.5892 22.1219 13.4595C21.9778 13.3561 21.6554 13.2163 21.5952 13.0486L21.5846 13.0382C21.6867 13.0266 21.8065 12.9896 21.9006 12.9644C22.0591 12.9219 22.2006 12.9329 22.3642 12.8906L22.5854 12.8272V12.7853C22.5028 12.7005 22.4437 12.5881 22.3537 12.5114C22.1179 12.3106 21.8603 12.1099 21.5952 11.9423C21.4482 11.8496 21.2664 11.7893 21.1105 11.7107C21.0583 11.6842 20.9662 11.6705 20.9314 11.6264C20.8494 11.522 20.8049 11.3899 20.7417 11.2683C20.6067 11.0055 20.4802 10.7385 20.3625 10.4676C20.2827 10.2849 20.2304 10.1048 20.1308 9.9409C19.6524 9.15443 19.1375 8.67971 18.3399 8.2132C18.1702 8.11388 17.9658 8.07486 17.75 8.02366L17.4023 8.00253C17.3318 7.97305 17.2581 7.88649 17.1917 7.84454C16.9273 7.67759 16.2496 7.3145 16.0539 7.79202C15.9303 8.09334 16.2387 8.38733 16.3489 8.54005C16.4262 8.64714 16.5254 8.76714 16.5807 8.88758C16.617 8.9668 16.6232 9.04617 16.6544 9.12993C16.7309 9.3362 16.7976 9.5608 16.8967 9.75136C16.9467 9.84789 17.002 9.94956 17.0652 10.0358C17.1039 10.0886 17.1705 10.1121 17.181 10.1938C17.116 10.2848 17.1122 10.4262 17.0756 10.5413C16.911 11.0605 16.9731 11.7059 17.2126 12.0901C17.2861 12.2082 17.4593 12.4611 17.6972 12.364C17.9054 12.2792 17.859 12.0164 17.9186 11.7845C17.9321 11.7321 17.9237 11.6934 17.9501 11.6582V11.6687L18.1398 12.048C18.2802 12.274 18.5291 12.5101 18.7403 12.6695C18.8497 12.7521 18.936 12.8952 19.0774 12.9434V12.9327H19.067C19.0394 12.89 18.9967 12.8724 18.9615 12.838C18.879 12.7571 18.7873 12.6568 18.7193 12.5641C18.5272 12.3035 18.3577 12.0182 18.203 11.7213C18.1292 11.5796 18.0651 11.4232 18.0029 11.2788C17.9789 11.2232 17.9792 11.139 17.9293 11.1104C17.8609 11.216 17.7607 11.3016 17.7079 11.4264C17.6237 11.6259 17.6129 11.8693 17.5816 12.1216L17.5605 12.132C17.4136 12.0967 17.3621 11.9456 17.3076 11.816C17.1697 11.4885 17.144 10.9608 17.2655 10.5836C17.2969 10.4859 17.4387 10.1786 17.3812 10.0883C17.3538 9.99841 17.2633 9.94647 17.2128 9.87752C17.1466 9.78526 17.0901 9.6864 17.0442 9.58251C16.9313 9.3271 16.8786 9.0403 16.7599 8.78196C16.703 8.65844 16.6071 8.53359 16.5281 8.42386C16.4409 8.3021 16.343 8.21261 16.2752 8.06562C16.2512 8.01339 16.2185 7.92962 16.2541 7.87593C16.2654 7.8397 16.2817 7.82459 16.3175 7.8127C16.3785 7.76561 16.5487 7.8284 16.6123 7.85481C16.7813 7.92508 16.9223 7.99183 17.0655 8.08659C17.1342 8.13222 17.2036 8.22024 17.2867 8.24459H17.3815C17.5298 8.27863 17.696 8.25501 17.8345 8.29711C18.0795 8.37164 18.299 8.48738 18.4982 8.61325C19.1054 8.99673 19.6017 9.54246 19.9414 10.1935C19.996 10.2984 20.0198 10.3983 20.0678 10.5095C20.1649 10.7337 20.2872 10.9644 20.3837 11.1838C20.4801 11.4025 20.5742 11.6233 20.7105 11.8053C20.782 11.901 21.0587 11.9523 21.1844 12.0054C21.2726 12.0427 21.417 12.0816 21.5004 12.1317C21.6599 12.228 21.8145 12.3425 21.964 12.4479C22.0387 12.501 22.2686 12.6164 22.28 12.7116ZM17.571 8.69805C17.5072 8.697 17.4434 8.7041 17.3814 8.71917V8.72959H17.3919C17.4287 8.80543 17.4937 8.85414 17.5394 8.91927L17.6448 9.1405L17.6552 9.13008C17.7205 9.08416 17.7503 9.01067 17.75 8.89829C17.7238 8.87071 17.7199 8.83624 17.6974 8.80352C17.6674 8.75951 17.609 8.73487 17.571 8.69805Z" fill="#00618A"/>
</g>
<defs>
<clipPath id="mysql0">
<rect width="18.7778" height="18.7778" fill="white" transform="translate(4.33325 2.89062)"/>
</clipPath>
</defs>
</svg>
