<svg width="100%" height="100%" viewBox="0 0 18 18" fill="none" xmlns="http://www.w3.org/2000/svg">
<circle cx="9" cy="9" r="8.5" fill="white" stroke="#E2EAEC"/>
<mask id="odata0" style="mask-type:alpha" maskUnits="userSpaceOnUse" x="0" y="0" width="18" height="18">
<circle cx="9" cy="9" r="8.5" fill="white" stroke="#D0D0CE"/>
</mask>
<g mask="url(#odata0)">
</g>
<g clip-path="url(#odata1)">
<path d="M4 13.964C4 10.644 4 7.32 4 4C7.33466 4 10.6653 4 14 4C14 7.332 14 10.664 14 13.992C13.9761 13.992 13.9522 13.992 13.9283 13.992C10.6454 13.992 7.36653 13.992 4.08367 13.992C4.05578 13.992 4.02789 13.976 4 13.964ZM5.16733 11.716C5.1753 12.62 5.87649 13.268 6.68526 13.3C7.15936 13.316 7.56972 13.148 7.89641 12.8C8.20717 12.468 8.34661 12.068 8.31873 11.616C8.29482 11.184 8.11554 10.82 7.79283 10.532C7.46614 10.24 7.0757 10.112 6.64143 10.136C5.86853 10.18 5.17131 10.84 5.16733 11.716ZM9.47012 4.932C9.47012 5.216 9.47012 5.5 9.47012 5.78C9.47012 5.796 9.47809 5.812 9.48606 5.824C10.0916 5.824 10.6853 5.824 11.2829 5.824C11.8805 5.824 12.4741 5.828 13.0837 5.824C13.0837 5.72 13.0837 5.632 13.0837 5.544C13.0837 5.364 13.0837 5.184 13.0837 5.004C13.0837 4.94 13.0757 4.924 13.004 4.924C11.8526 4.924 10.7012 4.924 9.5498 4.924C9.52191 4.92 9.49801 4.928 9.47012 4.932ZM8.54183 4.928C8.51394 4.924 8.48606 4.92 8.46215 4.92C7.32271 4.92 6.18725 4.92 5.04781 4.92C5.03187 4.92 5.01195 4.924 4.99602 4.924C4.94422 4.924 4.93625 4.952 4.93625 5C4.94024 5.24 4.93625 5.484 4.93625 5.724C4.93625 5.744 4.94024 5.768 4.94821 5.788C4.95219 5.8 4.96813 5.808 4.9761 5.812C5.03586 5.816 5.09562 5.824 5.15538 5.824C5.79681 5.824 6.43825 5.824 7.07968 5.824C7.5498 5.824 8.01992 5.816 8.49004 5.816C8.52988 5.816 8.54183 5.8 8.54183 5.768C8.54183 5.488 8.54183 5.212 8.54183 4.928ZM11.2669 7.636C11.8446 7.636 12.4223 7.636 12.996 7.636C13.0757 7.636 13.0797 7.632 13.0797 7.548C13.0797 7.316 13.0797 7.08 13.0797 6.848C13.0797 6.828 13.0717 6.812 13.0717 6.792C13.0757 6.748 13.0518 6.74 13.012 6.74C11.8486 6.74 10.6813 6.74 9.51793 6.74C9.47809 6.74 9.46215 6.752 9.46215 6.792C9.46215 7.052 9.46614 7.312 9.46215 7.572C9.46215 7.62 9.47809 7.632 9.52191 7.632C10.1076 7.632 10.6892 7.636 11.2669 7.636ZM9.48606 11.256C9.51793 11.252 9.54183 11.252 9.56574 11.252C10.7131 11.252 11.8566 11.252 13.004 11.252C13.0199 11.252 13.0319 11.256 13.0478 11.252C13.0598 11.248 13.0717 11.236 13.0757 11.228C13.0837 11.196 13.0877 11.164 13.0877 11.136C13.0877 10.912 13.0877 10.688 13.0877 10.464C13.0877 10.36 13.0876 10.36 12.9841 10.36C11.8685 10.36 10.757 10.36 9.64143 10.36C9.58566 10.36 9.53386 10.368 9.47809 10.368C9.45418 10.516 9.46614 11.224 9.48606 11.256ZM4.93625 7.624C4.96016 7.628 4.98406 7.636 5.00398 7.636C6.16335 7.636 7.32271 7.636 8.48606 7.636C8.5259 7.636 8.54582 7.624 8.54582 7.58C8.54183 7.324 8.54582 7.064 8.54582 6.808C8.54582 6.748 8.54183 6.744 8.48207 6.744C7.32669 6.744 6.1753 6.744 5.01992 6.744C4.94024 6.744 4.94024 6.756 4.94024 6.82C4.93626 7.084 4.93625 7.352 4.93625 7.624ZM11.2709 8.556C10.6892 8.556 10.1116 8.556 9.52988 8.556C9.46614 8.556 9.46614 8.556 9.46614 8.616C9.46614 8.868 9.46614 9.12 9.46614 9.372C9.46614 9.436 9.46614 9.436 9.52988 9.436C10.6853 9.436 11.8446 9.436 13 9.436C13.0757 9.436 13.0837 9.432 13.0837 9.352C13.0837 9.108 13.0837 8.864 13.0837 8.62C13.0837 8.564 13.0757 8.556 13.0159 8.556C12.4343 8.556 11.8526 8.556 11.2709 8.556ZM6.749 9.436C7.32271 9.436 7.9004 9.436 8.4741 9.436C8.53785 9.436 8.54183 9.432 8.54183 9.368C8.54183 9.12 8.54183 8.876 8.54183 8.628C8.54183 8.56 8.52988 8.552 8.46614 8.552C7.55379 8.552 6.63745 8.552 5.7251 8.552C5.49402 8.552 5.25896 8.552 5.02789 8.552C4.94422 8.552 4.93625 8.56 4.93625 8.64C4.93625 8.876 4.93625 9.108 4.93625 9.344C4.93625 9.428 4.94422 9.436 5.02789 9.436C5.60159 9.436 6.1753 9.436 6.749 9.436Z" fill="#FF8C00"/>
<path d="M4 13.9639C4.02789 13.9719 4.05578 13.9919 4.08765 13.9919C7.37052 13.9919 10.6494 13.9919 13.9323 13.9919C13.9562 13.9919 13.9801 13.9919 14.004 13.9919C14.004 13.9959 14 13.9999 14 13.9999C13.988 13.9999 13.9761 13.9999 13.9681 13.9999C10.6454 13.9999 7.32669 13.9999 4.00398 13.9999C4 13.9919 4 13.9759 4 13.9639Z" fill="white"/>
<path d="M5.16736 11.7166C5.17134 10.8366 5.86855 10.1806 6.64545 10.1366C7.07971 10.1126 7.47015 10.2406 7.79684 10.5326C8.11955 10.8206 8.29883 11.1846 8.32274 11.6166C8.34664 12.0686 8.21118 12.4686 7.90043 12.8006C7.57373 13.1486 7.15939 13.3166 6.68927 13.3006C5.87254 13.2726 5.17533 12.6246 5.16736 11.7166Z" fill="white"/>
<path d="M9.47009 4.93192C9.49798 4.92792 9.52587 4.91992 9.54977 4.91992C10.7012 4.91992 11.8526 4.91992 13.004 4.91992C13.0757 4.91992 13.0836 4.93592 13.0836 4.99992C13.0797 5.17992 13.0836 5.35992 13.0836 5.53992C13.0836 5.62792 13.0836 5.71592 13.0836 5.81992C12.4741 5.82392 11.8805 5.81992 11.2828 5.81992C10.6852 5.81992 10.0876 5.81992 9.48603 5.81992C9.48205 5.80792 9.47009 5.79192 9.47009 5.77592C9.47009 5.49592 9.47009 5.21592 9.47009 4.93192Z" fill="white"/>
<path d="M8.54173 4.92811C8.54173 5.21211 8.54173 5.48811 8.54173 5.76011C8.54173 5.79611 8.52978 5.80811 8.48994 5.80811C8.01982 5.80811 7.5497 5.81611 7.07958 5.81611C6.43815 5.81611 5.79672 5.81611 5.15528 5.81611C5.09552 5.81611 5.03576 5.81211 4.976 5.80411C4.96405 5.80411 4.95209 5.79211 4.94811 5.78011C4.94014 5.76011 4.93616 5.73611 4.93616 5.71611C4.93616 5.47611 4.93616 5.23211 4.93616 4.99211C4.93616 4.94411 4.94413 4.91611 4.99592 4.91611C5.01185 4.91611 5.03177 4.91211 5.04771 4.91211C6.18715 4.91211 7.32261 4.91211 8.46205 4.91211C8.48596 4.92011 8.51385 4.92811 8.54173 4.92811Z" fill="white"/>
<path d="M11.2669 7.63614C10.6852 7.63614 10.1075 7.63614 9.52583 7.63614C9.482 7.63614 9.46606 7.62414 9.46606 7.57614C9.47005 7.31614 9.46606 7.05614 9.46606 6.79614C9.46606 6.75214 9.47802 6.74414 9.52184 6.74414C10.6852 6.74414 11.8525 6.74414 13.0159 6.74414C13.0557 6.74414 13.0756 6.74814 13.0756 6.79614C13.0756 6.81614 13.0836 6.83214 13.0836 6.85214C13.0836 7.08414 13.0836 7.32014 13.0836 7.55214C13.0836 7.63214 13.0796 7.64014 12.9999 7.64014C12.4222 7.63614 11.8446 7.63614 11.2669 7.63614Z" fill="white"/>
<path d="M9.48613 11.2564C9.46621 11.2244 9.45824 10.5164 9.47418 10.3684C9.52995 10.3644 9.58175 10.3604 9.63752 10.3604C10.7531 10.3604 11.8646 10.3604 12.9802 10.3604C13.0837 10.3604 13.0837 10.3604 13.0837 10.4644C13.0837 10.6884 13.0837 10.9124 13.0837 11.1364C13.0837 11.1684 13.0798 11.2004 13.0718 11.2284C13.0678 11.2364 13.0559 11.2484 13.0439 11.2524C13.0319 11.2564 13.016 11.2524 13.0001 11.2524C11.8527 11.2524 10.7092 11.2524 9.56183 11.2524C9.54191 11.2524 9.51402 11.2524 9.48613 11.2564Z" fill="white"/>
<path d="M4.93634 7.62414C4.93634 7.35214 4.93236 7.08814 4.93634 6.82014C4.93634 6.75614 4.93634 6.74414 5.01602 6.74414C6.1714 6.74414 7.32279 6.74414 8.47817 6.74414C8.53395 6.74414 8.54192 6.74814 8.54192 6.80814C8.54192 7.06414 8.54192 7.32414 8.54192 7.58014C8.54192 7.62414 8.52598 7.63614 8.48216 7.63614C7.3228 7.63614 6.16343 7.63614 5.00009 7.63614C4.98415 7.63214 4.96025 7.62814 4.93634 7.62414Z" fill="white"/>
<path d="M11.2708 8.55566C11.8525 8.55566 12.4342 8.55566 13.0159 8.55566C13.0716 8.55566 13.0836 8.56366 13.0836 8.61966C13.0836 8.86366 13.0836 9.10766 13.0836 9.35166C13.0836 9.43166 13.0756 9.43566 12.9999 9.43566C11.8446 9.43566 10.6852 9.43566 9.52981 9.43566C9.46606 9.43566 9.46606 9.43566 9.46606 9.37166C9.46606 9.11966 9.46606 8.86766 9.46606 8.61566C9.46606 8.55566 9.46606 8.55566 9.52981 8.55566C10.1115 8.55566 10.6932 8.55566 11.2708 8.55566Z" fill="white"/>
<path d="M6.74891 9.43576C6.1752 9.43576 5.6015 9.43576 5.02779 9.43576C4.94014 9.43576 4.93616 9.42776 4.93616 9.34376C4.93616 9.10776 4.93616 8.87576 4.93616 8.63976C4.93616 8.55976 4.94413 8.55176 5.02779 8.55176C5.25887 8.55176 5.49393 8.55176 5.725 8.55176C6.63735 8.55176 7.55369 8.55176 8.46604 8.55176C8.52978 8.55176 8.54173 8.55976 8.54173 8.62776C8.54173 8.87576 8.54173 9.11976 8.54173 9.36776C8.54173 9.43176 8.53775 9.43576 8.47401 9.43576C7.9003 9.43576 7.32261 9.43576 6.74891 9.43576Z" fill="white"/>
</g>
<defs>
<clipPath id="odata1">
<rect width="10" height="10" fill="white" transform="translate(4 4)"/>
</clipPath>
</defs>
</svg>
