<svg width="100%" height="100%" viewBox="0 0 26 26" fill="none" xmlns="http://www.w3.org/2000/svg">
<circle cx="13" cy="13" r="12.5" fill="white" stroke="#E2EAEC"/>
<g clip-path="url(#oracle_db0)">
<path d="M22.145 9.4812H22.2114C22.2557 9.49964 22.2557 9.5357 22.2557 9.55414V9.57218C22.2557 9.5816 22.245 9.59964 22.2225 9.61808H22.2114L22.2782 9.72668H22.2225L22.1668 9.62709H22.1336V9.72668H22.0893V9.4812H22.145ZM22.1668 9.59021C22.1782 9.59021 22.2004 9.59021 22.2114 9.57218V9.55414C22.2114 9.5357 22.2004 9.52669 22.1893 9.51767H22.1336V9.59021H22.1668ZM22.0004 9.60865C22.0004 9.50865 22.0782 9.43571 22.1668 9.43571C22.2667 9.43571 22.3446 9.50865 22.3446 9.60865C22.3446 9.69963 22.2667 9.78119 22.1668 9.78119C22.0782 9.78119 22.0004 9.69963 22.0004 9.60865ZM22.1668 9.82668C22.2893 9.82668 22.3893 9.72668 22.3893 9.60865C22.3893 9.49062 22.2893 9.39062 22.1668 9.39062C22.0446 9.39062 21.9451 9.49062 21.9451 9.60865C21.9451 9.72668 22.0446 9.82668 22.1668 9.82668Z" fill="#E12925"/>
<path d="M20.0736 11.5024C19.729 11.5024 19.4401 11.275 19.3516 10.9569H21.262L21.5287 10.5479H19.3516C19.4401 10.2295 19.729 9.99303 20.0736 9.99303H21.3845L21.6509 9.58444H20.04C19.3958 9.58444 18.8844 10.1025 18.8844 10.7479C18.8844 11.3934 19.3958 11.911 20.04 11.911H21.4287L21.684 11.5024H20.0736ZM14.5969 11.911C13.9527 11.911 13.4307 11.3934 13.4307 10.7479C13.4307 10.1025 13.9527 9.58444 14.5969 9.58444H16.2077L15.941 9.99303H14.6305C14.2084 9.99303 13.8749 10.3299 13.8749 10.7479C13.8749 11.166 14.2084 11.5024 14.6305 11.5024H16.2413L15.9746 11.911H14.5969ZM6.09968 11.5024C6.51028 11.5024 6.8545 11.166 6.8545 10.7479C6.8545 10.3299 6.51028 9.99303 6.09968 9.99303H4.79986C4.38885 9.99303 4.04463 10.3299 4.04463 10.7479C4.04463 11.166 4.38885 11.5024 4.79986 11.5024H6.09968ZM4.77773 11.911C4.13314 11.911 3.61108 11.3934 3.61108 10.7479C3.61108 10.1025 4.13314 9.58444 4.77773 9.58444H6.12181C6.76598 9.58444 7.28804 10.1025 7.28804 10.7479C7.28804 11.3934 6.76598 11.911 6.12181 11.911H4.77773ZM9.48734 11.1569C9.92047 11.1569 10.2762 10.8115 10.2762 10.375C10.2762 9.93894 9.92047 9.58444 9.48734 9.58444H7.53227V11.911H7.97648V9.99303H9.45414C9.66518 9.99303 9.83196 10.166 9.83196 10.375C9.83196 10.5844 9.66518 10.7479 9.45414 10.7479H8.19899L9.53159 11.911H10.1762L9.2763 11.1569H9.48734ZM16.8966 11.5024V9.58444H16.4409V11.693C16.4409 11.7475 16.4741 11.802 16.5073 11.8475C16.5524 11.893 16.6187 11.911 16.6741 11.911H18.7181L18.9848 11.5024H16.8966ZM11.4092 11.0934H12.6086L11.9755 10.075L10.8204 11.911H10.2868L11.6977 9.70247C11.7534 9.61149 11.8645 9.56641 11.9755 9.56641C12.0866 9.56641 12.1866 9.61149 12.2534 9.70247L13.6642 11.911H13.1307L12.8865 11.5024H11.676" fill="#E20619"/>
<path d="M3.61108 13.4197H21.7045V13.1836H3.61108V13.4197Z" fill="#5E5E5D"/>
<path d="M3.91958 15.0149V16.3824H4.3232C4.52976 16.3824 4.67377 16.2805 4.75526 16.0768C4.79979 15.965 4.82206 15.8318 4.82206 15.6773C4.82206 15.4641 4.78842 15.3006 4.72115 15.1869C4.65482 15.0722 4.52218 15.0149 4.3232 15.0149H3.91958ZM4.39711 14.651C4.52691 14.6529 4.63493 14.668 4.72115 14.6965C4.86801 14.7448 4.98692 14.8334 5.07788 14.9623C5.15083 15.0665 5.20058 15.1793 5.22711 15.3006C5.25363 15.4219 5.2669 15.5375 5.2669 15.6475C5.2669 15.9261 5.211 16.1621 5.09919 16.3554C4.9476 16.616 4.71357 16.7463 4.39711 16.7463H3.49463V14.651H4.39711Z" fill="#19171B"/>
<path d="M6.56413 15.9545H7.09567L6.83417 15.13L6.56413 15.9545ZM6.59114 14.651H7.08573L7.82761 16.7463H7.35292L7.2179 16.3156H6.44617L6.30121 16.7463H5.84357L6.59114 14.651Z" fill="#19171B"/>
<path d="M9.79424 14.651V15.022H9.16748V16.7463H8.7269V15.022H8.09729V14.651H9.79424Z" fill="#19171B"/>
<path d="M10.8015 15.9545H11.3331L11.0716 15.13L10.8015 15.9545ZM10.8285 14.651H11.3231L12.065 16.7463H11.5903L11.4553 16.3156H10.6836L10.5386 16.7463H10.081L10.8285 14.651Z" fill="#19171B"/>
<path d="M13.1505 15.0149V15.4769H13.665C13.7569 15.4769 13.8313 15.4598 13.8881 15.4257C13.9459 15.3906 13.9748 15.329 13.9748 15.2409C13.9748 15.1433 13.9369 15.0789 13.8611 15.0476C13.7957 15.0258 13.7123 15.0149 13.611 15.0149H13.1505ZM13.1505 15.8237V16.3824H13.665C13.7569 16.3824 13.8284 16.3701 13.8796 16.3455C13.9724 16.3 14.0189 16.2128 14.0189 16.0839C14.0189 15.9749 13.9739 15.9 13.8838 15.8593C13.8336 15.8365 13.763 15.8247 13.6721 15.8237H13.1505ZM13.7502 14.651C14.007 14.6548 14.1889 14.7292 14.296 14.8742C14.3604 14.9632 14.3926 15.0699 14.3926 15.194C14.3926 15.3219 14.3604 15.4248 14.296 15.5025C14.26 15.5461 14.2069 15.5859 14.1368 15.6219C14.2439 15.6607 14.3244 15.7223 14.3784 15.8067C14.4334 15.891 14.4609 15.9934 14.4609 16.1137C14.4609 16.2379 14.4296 16.3492 14.3671 16.4478C14.3273 16.5132 14.2775 16.5682 14.2178 16.6127C14.1506 16.6639 14.071 16.6989 13.9791 16.7179C13.8881 16.7369 13.7891 16.7463 13.682 16.7463H12.7326V14.651H13.7502Z" fill="#19171B"/>
<path d="M15.795 15.9545H16.3266L16.0651 15.13L15.795 15.9545ZM15.822 14.651H16.3166L17.0585 16.7463H16.5838L16.4488 16.3156H15.6771L15.5321 16.7463H15.0745L15.822 14.651Z" fill="#19171B"/>
<path d="M18.036 16.0995C18.0492 16.1952 18.0753 16.2668 18.1141 16.3142C18.1852 16.4004 18.307 16.4435 18.4794 16.4435C18.5827 16.4435 18.6665 16.4322 18.731 16.4094C18.8532 16.3658 18.9143 16.2848 18.9143 16.1663C18.9143 16.0972 18.884 16.0436 18.8233 16.0057C18.7627 15.9687 18.6675 15.936 18.5377 15.9076L18.316 15.8579C18.098 15.8086 17.9474 15.755 17.864 15.6972C17.7228 15.6006 17.6522 15.4494 17.6522 15.2438C17.6522 15.0561 17.7205 14.9002 17.8569 14.7761C17.9933 14.6519 18.1937 14.5898 18.4581 14.5898C18.6788 14.5898 18.8669 14.6486 19.0223 14.7661C19.1786 14.8827 19.2606 15.0523 19.2682 15.275H18.8475C18.8399 15.149 18.785 15.0594 18.6826 15.0064C18.6144 14.9713 18.5296 14.9538 18.4282 14.9538C18.3155 14.9538 18.2255 14.9765 18.1582 15.022C18.0909 15.0675 18.0573 15.131 18.0573 15.2125C18.0573 15.2873 18.0905 15.3433 18.1568 15.3802C18.1994 15.4049 18.2904 15.4338 18.4297 15.4669L18.7906 15.5537C18.9489 15.5916 19.0683 15.6423 19.1488 15.7058C19.2739 15.8043 19.3364 15.9469 19.3364 16.1336C19.3364 16.3251 19.263 16.4843 19.1161 16.6113C18.9702 16.7373 18.7636 16.8004 18.4965 16.8004C18.2236 16.8004 18.009 16.7383 17.8526 16.6141C17.6963 16.489 17.6181 16.3175 17.6181 16.0995H18.036Z" fill="#19171B"/>
<path d="M21.6029 15.022H20.4944V15.4669H21.512V15.8309H20.4944V16.3696H21.6541V16.7463H20.0666V14.651H21.6029V15.022Z" fill="#19171B"/>
</g>
<defs>
<clipPath id="oracle_db0">
<rect width="18.7778" height="7.49093" fill="white" transform="translate(3.61108 9.39062)"/>
</clipPath>
</defs>
</svg>
