<svg width="100%" height="100%" viewBox="0 0 18 18" fill="none" xmlns="http://www.w3.org/2000/svg">
<circle cx="9" cy="9" r="8.5" fill="white" stroke="#E2EAEC"/>
<g clip-path="url(#oracle_db0)">
<path d="M15.3312 6.5627H15.3772C15.4078 6.57547 15.4078 6.60044 15.4078 6.61321V6.62569C15.4078 6.63222 15.4004 6.6447 15.3848 6.65747H15.3772L15.4234 6.73265H15.3848L15.3462 6.66371H15.3233V6.73265H15.2926V6.5627H15.3312ZM15.3462 6.63817C15.3542 6.63817 15.3695 6.63817 15.3772 6.62569V6.61321C15.3772 6.60044 15.3695 6.5942 15.3618 6.58795H15.3233V6.63817H15.3462ZM15.231 6.65094C15.231 6.58171 15.285 6.53121 15.3462 6.53121C15.4155 6.53121 15.4694 6.58171 15.4694 6.65094C15.4694 6.71393 15.4155 6.77039 15.3462 6.77039C15.285 6.77039 15.231 6.71393 15.231 6.65094ZM15.3462 6.80188C15.4311 6.80188 15.5003 6.73265 15.5003 6.65094C15.5003 6.56923 15.4311 6.5 15.3462 6.5C15.2617 6.5 15.1927 6.56923 15.1927 6.65094C15.1927 6.73265 15.2617 6.80188 15.3462 6.80188Z" fill="#E12925"/>
<path d="M13.8971 7.96238C13.6585 7.96238 13.4585 7.80492 13.3973 7.58475H14.7198L14.9045 7.30159H13.3973C13.4585 7.08114 13.6585 6.91743 13.8971 6.91743H14.8047L14.9891 6.63455H13.8739C13.4279 6.63455 13.0738 6.99318 13.0738 7.44005C13.0738 7.88691 13.4279 8.24526 13.8739 8.24526H14.8353L15.012 7.96238H13.8971ZM10.1056 8.24526C9.65959 8.24526 9.29816 7.88691 9.29816 7.44005C9.29816 6.99318 9.65959 6.63455 10.1056 6.63455H11.2208L11.0361 6.91743H10.1288C9.83661 6.91743 9.60569 7.15065 9.60569 7.44005C9.60569 7.72945 9.83661 7.96238 10.1288 7.96238H11.244L11.0593 8.24526H10.1056ZM4.22287 7.96238C4.50714 7.96238 4.74544 7.72945 4.74544 7.44005C4.74544 7.15065 4.50714 6.91743 4.22287 6.91743H3.323C3.03845 6.91743 2.80015 7.15065 2.80015 7.44005C2.80015 7.72945 3.03845 7.96238 3.323 7.96238H4.22287ZM3.30768 8.24526C2.86143 8.24526 2.5 7.88691 2.5 7.44005C2.5 6.99318 2.86143 6.63455 3.30768 6.63455H4.23819C4.68416 6.63455 5.04559 6.99318 5.04559 7.44005C5.04559 7.88691 4.68416 8.24526 4.23819 8.24526H3.30768ZM6.56817 7.72321C6.86804 7.72321 7.11429 7.48403 7.11429 7.18186C7.11429 6.87998 6.86804 6.63455 6.56817 6.63455H5.21467V8.24526H5.52219V6.91743H6.5452C6.6913 6.91743 6.80676 7.03716 6.80676 7.18186C6.80676 7.32684 6.6913 7.44005 6.5452 7.44005H5.67624L6.59881 8.24526H7.04506L6.42207 7.72321H6.56817ZM11.6976 7.96238V6.63455H11.3822V8.09432C11.3822 8.13205 11.4052 8.16979 11.4281 8.20128C11.4593 8.23277 11.5053 8.24526 11.5436 8.24526H12.9587L13.1434 7.96238H11.6976ZM7.8987 7.67923H8.72907L8.29077 6.97417L7.49103 8.24526H7.12166L8.09842 6.71627C8.137 6.65328 8.21388 6.62207 8.29077 6.62207C8.36765 6.62207 8.43687 6.65328 8.48311 6.71627L9.45987 8.24526H9.0905L8.92142 7.96238H8.08338" fill="#E20619"/>
<path d="M2.5 9.2894H15.0262V9.12598H2.5V9.2894Z" fill="#5E5E5D"/>
<path d="M2.71351 10.3948V11.3416H2.99294C3.13594 11.3416 3.23564 11.2711 3.29205 11.13C3.32288 11.0526 3.3383 10.9604 3.3383 10.8535C3.3383 10.7058 3.31501 10.5927 3.26844 10.5139C3.22252 10.4345 3.13069 10.3948 2.99294 10.3948H2.71351ZM3.0441 10.1429C3.13397 10.1442 3.20875 10.1547 3.26844 10.1744C3.37011 10.2079 3.45243 10.2692 3.51541 10.3584C3.56591 10.4306 3.60035 10.5087 3.61872 10.5927C3.63708 10.6766 3.64627 10.7567 3.64627 10.8328C3.64627 11.0257 3.60757 11.1891 3.53016 11.3229C3.42521 11.5033 3.26319 11.5935 3.0441 11.5935H2.41931V10.1429H3.0441Z" fill="#19171B"/>
<path d="M4.54435 11.0454H4.91234L4.7313 10.4746L4.54435 11.0454ZM4.56305 10.1429H4.90545L5.41906 11.5935H5.09043L4.99696 11.2953H4.46269L4.36233 11.5935H4.0455L4.56305 10.1429Z" fill="#19171B"/>
<path d="M6.78058 10.1429V10.3998H6.34667V11.5935H6.04165V10.3998H5.60577V10.1429H6.78058Z" fill="#19171B"/>
<path d="M7.47794 11.0454H7.84593L7.66489 10.4746L7.47794 11.0454ZM7.49664 10.1429H7.83905L8.35266 11.5935H8.02402L7.93055 11.2953H7.39628L7.29592 11.5935H6.97909L7.49664 10.1429Z" fill="#19171B"/>
<path d="M9.10414 10.3948V10.7147H9.46032C9.52394 10.7147 9.57544 10.7029 9.61479 10.6793C9.65481 10.655 9.67481 10.6123 9.67481 10.5513C9.67481 10.4837 9.64858 10.4391 9.5961 10.4175C9.55084 10.4024 9.49311 10.3948 9.42293 10.3948H9.10414ZM9.10414 10.9548V11.3416H9.46032C9.52394 11.3416 9.57347 11.3331 9.60889 11.316C9.67317 11.2845 9.70532 11.2242 9.70532 11.1349C9.70532 11.0595 9.67416 11.0076 9.61184 10.9794C9.57708 10.9637 9.52821 10.9555 9.46524 10.9548H9.10414ZM9.51935 10.1429C9.69712 10.1455 9.82306 10.197 9.89718 10.2974C9.94179 10.3591 9.96409 10.4329 9.96409 10.5188C9.96409 10.6074 9.94179 10.6786 9.89718 10.7324C9.87225 10.7626 9.83552 10.7901 9.78698 10.8151C9.8611 10.842 9.91686 10.8846 9.95425 10.943C9.99229 11.0014 10.0113 11.0723 10.0113 11.1556C10.0113 11.2415 9.98967 11.3186 9.94638 11.3869C9.91883 11.4321 9.88439 11.4702 9.84306 11.501C9.79649 11.5365 9.74139 11.5607 9.67777 11.5739C9.61479 11.587 9.54625 11.5935 9.47212 11.5935H8.81486V10.1429H9.51935Z" fill="#19171B"/>
<path d="M10.935 11.0454H11.303L11.1219 10.4746L10.935 11.0454ZM10.9537 10.1429H11.2961L11.8097 11.5935H11.4811L11.3876 11.2953H10.8533L10.753 11.5935H10.4361L10.9537 10.1429Z" fill="#19171B"/>
<path d="M12.4864 11.1458C12.4956 11.212 12.5136 11.2616 12.5405 11.2944C12.5897 11.3541 12.674 11.3839 12.7934 11.3839C12.8649 11.3839 12.9229 11.376 12.9675 11.3603C13.0522 11.3301 13.0945 11.274 13.0945 11.192C13.0945 11.1441 13.0735 11.107 13.0315 11.0808C12.9895 11.0552 12.9236 11.0326 12.8337 11.0129L12.6802 10.9784C12.5294 10.9443 12.4251 10.9073 12.3673 10.8672C12.2696 10.8003 12.2207 10.6957 12.2207 10.5533C12.2207 10.4234 12.268 10.3155 12.3624 10.2295C12.4569 10.1436 12.5956 10.1006 12.7786 10.1006C12.9315 10.1006 13.0617 10.1413 13.1692 10.2226C13.2775 10.3033 13.3342 10.4208 13.3395 10.5749H13.0482C13.043 10.4877 13.0049 10.4257 12.9341 10.3889C12.8869 10.3647 12.8281 10.3525 12.758 10.3525C12.6799 10.3525 12.6176 10.3683 12.571 10.3998C12.5244 10.4313 12.5012 10.4752 12.5012 10.5316C12.5012 10.5835 12.5241 10.6222 12.57 10.6478C12.5995 10.6648 12.6625 10.6848 12.7589 10.7078L13.0089 10.7678C13.1184 10.7941 13.2011 10.8292 13.2568 10.8731C13.3434 10.9414 13.3867 11.0401 13.3867 11.1694C13.3867 11.3019 13.3359 11.4121 13.2342 11.5C13.1332 11.5873 12.9902 11.6309 12.8052 11.6309C12.6163 11.6309 12.4677 11.588 12.3595 11.502C12.2512 11.4154 12.1971 11.2967 12.1971 11.1458H12.4864Z" fill="#19171B"/>
<path d="M14.9558 10.3998H14.1884V10.7078H14.8928V10.9597H14.1884V11.3327H14.9912V11.5935H13.8922V10.1429H14.9558V10.3998Z" fill="#19171B"/>
</g>
<defs>
<clipPath id="oracle_db0">
<rect width="13" height="5.18603" fill="white" transform="translate(2.5 6.5)"/>
</clipPath>
</defs>
</svg>
