<svg width="100%" height="100%" viewBox="0 0 18 18" fill="none" xmlns="http://www.w3.org/2000/svg">
<circle cx="9" cy="9" r="8.5" fill="white" stroke="#E2EAEC"/>
<mask id="oracle_crm0" style="mask-type:alpha" maskUnits="userSpaceOnUse" x="0" y="0" width="18" height="18">
<circle cx="9" cy="9" r="8.5" fill="white" stroke="white"/>
</mask>
<g mask="url(#oracle_crm0)">
<path d="M8.05714 9.17874H8.98047L8.49276 8.3939L7.59608 9.81144H7.18833L8.27889 8.11075C8.30266 8.07681 8.33425 8.04905 8.37101 8.02978C8.40776 8.01051 8.44862 8.0003 8.49015 8.00001C8.53169 7.99971 8.57269 8.00934 8.60972 8.02808C8.64675 8.04682 8.67873 8.07414 8.70299 8.10773L9.79657 9.81144H9.38883L9.19677 9.49449H8.26253L8.05896 9.17874H8.05714ZM12.2958 9.49449V8.01717H11.9492V9.63998C11.9491 9.66253 11.9537 9.68486 11.9625 9.70562C11.9714 9.72637 11.9844 9.74512 12.0007 9.76073C12.0171 9.77745 12.0367 9.79072 12.0584 9.79974C12.08 9.80876 12.1033 9.81336 12.1267 9.81325H13.702L13.9073 9.4963H12.2939L12.2958 9.49449ZM6.56611 9.23066C6.7276 9.23066 6.88247 9.16673 6.99666 9.05295C7.11085 8.93916 7.175 8.78483 7.175 8.62392C7.175 8.463 7.11085 8.30867 6.99666 8.19488C6.88247 8.0811 6.7276 8.01717 6.56611 8.01717H5.05146V9.81144H5.3974V8.33473H6.54491C6.6222 8.33473 6.69632 8.36533 6.75097 8.41979C6.80562 8.47424 6.83633 8.54811 6.83633 8.62512C6.83633 8.70214 6.80562 8.776 6.75097 8.83046C6.69632 8.88492 6.6222 8.91551 6.54491 8.91551H5.56886L6.60246 9.81144H7.10472L6.41041 9.23066H6.56611ZM2.92367 9.81144H3.96999C4.20464 9.80537 4.42764 9.70822 4.59146 9.5407C4.75527 9.37317 4.84695 9.14851 4.84695 8.91461C4.84695 8.6807 4.75527 8.45605 4.59146 8.28852C4.42764 8.12099 4.20464 8.02384 3.96999 8.01778H2.92367C2.80351 8.01467 2.68395 8.03557 2.57203 8.07924C2.4601 8.12292 2.35809 8.18848 2.27201 8.27206C2.18592 8.35565 2.1175 8.45557 2.07078 8.56592C2.02407 8.67628 2 8.79484 2 8.91461C2 9.03438 2.02407 9.15294 2.07078 9.2633C2.1175 9.37365 2.18592 9.47357 2.27201 9.55715C2.35809 9.64074 2.4601 9.7063 2.57203 9.74998C2.68395 9.79365 2.80351 9.81455 2.92367 9.81144V9.81144ZM3.94636 9.49569H2.94669C2.79544 9.49083 2.65202 9.42754 2.54676 9.31921C2.44149 9.21088 2.38264 9.066 2.38264 8.91521C2.38264 8.76442 2.44149 8.61954 2.54676 8.51121C2.65202 8.40288 2.79544 8.33959 2.94669 8.33473H3.94636C4.02444 8.33222 4.10223 8.34538 4.17511 8.37342C4.24798 8.40146 4.31446 8.44382 4.37058 8.49797C4.42671 8.55212 4.47133 8.61696 4.50181 8.68864C4.53229 8.76032 4.54799 8.83737 4.54799 8.91521C4.54799 8.99306 4.53229 9.07011 4.50181 9.14179C4.47133 9.21346 4.42671 9.2783 4.37058 9.33245C4.31446 9.38661 4.24798 9.42896 4.17511 9.457C4.10223 9.48505 4.02444 9.4982 3.94636 9.49569V9.49569ZM10.5194 9.81144H11.5875L11.7899 9.49569H10.543C10.4649 9.4982 10.3871 9.48505 10.3142 9.457C10.2414 9.42896 10.1749 9.38661 10.1188 9.33245C10.0626 9.2783 10.018 9.21346 9.98755 9.14179C9.95707 9.07011 9.94137 8.99306 9.94137 8.91521C9.94137 8.83737 9.95707 8.76032 9.98755 8.68864C10.018 8.61696 10.0626 8.55212 10.1188 8.49797C10.1749 8.44382 10.2414 8.40146 10.3142 8.37342C10.3871 8.34538 10.4649 8.33222 10.543 8.33473H11.5578L11.7626 8.01778H10.5194C10.3992 8.01467 10.2796 8.03557 10.1677 8.07924C10.0558 8.12292 9.95379 8.18848 9.86771 8.27206C9.78162 8.35565 9.7132 8.45557 9.66648 8.56592C9.61977 8.67628 9.5957 8.79484 9.5957 8.91461C9.5957 9.03438 9.61977 9.15294 9.66648 9.2633C9.7132 9.37365 9.78162 9.47357 9.86771 9.55715C9.95379 9.64074 10.0558 9.7063 10.1677 9.74998C10.2796 9.79365 10.3992 9.81455 10.5194 9.81144V9.81144ZM14.7525 9.49569C14.6256 9.49574 14.5021 9.45449 14.4008 9.37821C14.2996 9.30193 14.2261 9.1948 14.1915 9.07309H15.671L15.8746 8.75673H14.1915C14.226 8.63497 14.2995 8.52778 14.4007 8.45149C14.502 8.37519 14.6256 8.33398 14.7525 8.33413H15.768L15.9709 8.01717H14.7289C14.4942 8.02324 14.2712 8.12039 14.1074 8.28792C13.9436 8.45544 13.8519 8.6801 13.8519 8.914C13.8519 9.14791 13.9436 9.37257 14.1074 9.54009C14.2712 9.70762 14.4942 9.80477 14.7289 9.81084H15.797L16 9.49509H14.7519" fill="#C74634"/>
</g>
</svg>
