<svg width="100%" height="100%" viewBox="0 0 26 26" fill="none" xmlns="http://www.w3.org/2000/svg">
<circle cx="13" cy="13" r="12.5" fill="white" stroke="#E2EAEC"/>
<mask id="oracle_crm0" style="mask-type:alpha" maskUnits="userSpaceOnUse" x="0" y="0" width="26" height="26">
<circle cx="13" cy="13" r="12.5" fill="white" stroke="white"/>
</mask>
<g mask="url(#oracle_crm0)">
<path d="M11.6381 13.2573H12.9718L12.2673 12.1236L10.9721 14.1712H10.3832L11.9584 11.7147C11.9928 11.6656 12.0384 11.6255 12.0915 11.5977C12.1446 11.5699 12.2036 11.5551 12.2636 11.5547C12.3236 11.5543 12.3828 11.5682 12.4363 11.5952C12.4898 11.6223 12.536 11.6618 12.571 11.7103L14.1506 14.1712H13.5617L13.2842 13.7134H11.9348L11.6407 13.2573H11.6381ZM17.7606 13.7134V11.5795H17.26V13.9236C17.2599 13.9561 17.2664 13.9884 17.2792 14.0184C17.292 14.0483 17.3108 14.0754 17.3344 14.098C17.3581 14.1221 17.3864 14.1413 17.4177 14.1543C17.4489 14.1673 17.4825 14.174 17.5164 14.1738H19.7917L20.0884 13.716H17.7579L17.7606 13.7134ZM9.48441 13.3323C9.71767 13.3323 9.94138 13.24 10.1063 13.0756C10.2713 12.9113 10.3639 12.6883 10.3639 12.4559C10.3639 12.2235 10.2713 12.0005 10.1063 11.8362C9.94138 11.6718 9.71767 11.5795 9.48441 11.5795H7.29657V14.1712H7.79628V12.0382H9.45378C9.56542 12.0382 9.67249 12.0824 9.75143 12.161C9.83037 12.2397 9.87472 12.3464 9.87472 12.4576C9.87472 12.5689 9.83037 12.6756 9.75143 12.7542C9.67249 12.8329 9.56542 12.8771 9.45378 12.8771H8.04394L9.53692 14.1712H10.2624L9.2595 13.3323H9.48441ZM4.2231 14.1712H5.73446C6.0734 14.1625 6.39551 14.0221 6.63213 13.7801C6.86875 13.5382 7.00118 13.2137 7.00118 12.8758C7.00118 12.5379 6.86875 12.2134 6.63213 11.9714C6.39551 11.7295 6.0734 11.5891 5.73446 11.5804H4.2231C4.04954 11.5759 3.87684 11.6061 3.71517 11.6691C3.55351 11.7322 3.40616 11.8269 3.28181 11.9477C3.15747 12.0684 3.05864 12.2127 2.99116 12.3721C2.92368 12.5315 2.88892 12.7028 2.88892 12.8758C2.88892 13.0488 2.92368 13.22 2.99116 13.3794C3.05864 13.5388 3.15747 13.6832 3.28181 13.8039C3.40616 13.9246 3.55351 14.0193 3.71517 14.0824C3.87684 14.1455 4.04954 14.1757 4.2231 14.1712ZM5.70033 13.7151H4.25635C4.03789 13.7081 3.83072 13.6167 3.67868 13.4602C3.52663 13.3037 3.44161 13.0945 3.44161 12.8767C3.44161 12.6589 3.52663 12.4496 3.67868 12.2931C3.83072 12.1366 4.03789 12.0452 4.25635 12.0382H5.70033C5.81311 12.0346 5.92547 12.0536 6.03074 12.0941C6.136 12.1346 6.23202 12.1958 6.31309 12.274C6.39416 12.3522 6.45862 12.4459 6.50264 12.5494C6.54666 12.6529 6.56935 12.7642 6.56935 12.8767C6.56935 12.9891 6.54666 13.1004 6.50264 13.2039C6.45862 13.3075 6.39416 13.4011 6.31309 13.4793C6.23202 13.5576 6.136 13.6187 6.03074 13.6592C5.92547 13.6998 5.81311 13.7188 5.70033 13.7151ZM15.1947 14.1712H16.7375L17.0298 13.7151H15.2288C15.116 13.7188 15.0036 13.6998 14.8984 13.6592C14.7931 13.6187 14.6971 13.5576 14.616 13.4793C14.535 13.4011 14.4705 13.3075 14.4265 13.2039C14.3825 13.1004 14.3598 12.9891 14.3598 12.8767C14.3598 12.7642 14.3825 12.6529 14.4265 12.5494C14.4705 12.4459 14.535 12.3522 14.616 12.274C14.6971 12.1958 14.7931 12.1346 14.8984 12.0941C15.0036 12.0536 15.116 12.0346 15.2288 12.0382H16.6946L16.9904 11.5804H15.1947C15.0211 11.5759 14.8484 11.6061 14.6867 11.6691C14.5251 11.7322 14.3777 11.8269 14.2534 11.9477C14.129 12.0684 14.0302 12.2127 13.9627 12.3721C13.8952 12.5315 13.8605 12.7028 13.8605 12.8758C13.8605 13.0488 13.8952 13.22 13.9627 13.3794C14.0302 13.5388 14.129 13.6832 14.2534 13.8039C14.3777 13.9246 14.5251 14.0193 14.6867 14.0824C14.8484 14.1455 15.0211 14.1757 15.1947 14.1712ZM21.3092 13.7151C21.1259 13.7152 20.9475 13.6556 20.8012 13.5454C20.655 13.4353 20.5488 13.2805 20.4989 13.1047H22.6359L22.93 12.6477H20.4989C20.5487 12.4719 20.6548 12.317 20.8011 12.2068C20.9474 12.0966 21.1258 12.0371 21.3092 12.0373H22.776L23.0691 11.5795H21.2751C20.9362 11.5883 20.614 11.7286 20.3774 11.9706C20.1408 12.2126 20.0084 12.5371 20.0084 12.8749C20.0084 13.2128 20.1408 13.5373 20.3774 13.7793C20.614 14.0213 20.9362 14.1616 21.2751 14.1703H22.818L23.1111 13.7143H21.3084" fill="#C74634"/>
</g>
</svg>
