<svg width="100%" height="100%" viewBox="0 0 26 26" fill="none" xmlns="http://www.w3.org/2000/svg">
<circle cx="13" cy="13" r="12.5" fill="white" stroke="#E2EAEC"/>
<path d="M20.3025 13.2805C20.3027 13.2246 20.2885 13.1697 20.2612 13.1209C20.2338 13.0722 20.1943 13.0314 20.1464 13.0026V13.0026L20.1447 13.0016L20.1386 12.998L15.0653 10.0253C15.0434 10.0107 15.0207 9.99738 14.9972 9.98539H14.9972C14.9006 9.93594 14.7937 9.91016 14.6852 9.91016C14.5766 9.91016 14.4697 9.93594 14.3731 9.98539H14.3731C14.3496 9.99738 14.3269 10.0107 14.3051 10.0253L9.23176 12.998L9.22559 13.0016L9.22389 13.0026V13.0026C9.17558 13.0321 9.13579 13.0736 9.10843 13.1232C9.08108 13.1727 9.06711 13.2285 9.0679 13.2851C9.0687 13.3417 9.08423 13.3971 9.11297 13.4458C9.14171 13.4946 9.18266 13.535 9.23178 13.5631L14.3051 16.5358C14.327 16.5503 14.3497 16.5636 14.3731 16.5756L14.3731 16.5757C14.4697 16.6251 14.5766 16.6509 14.6852 16.6509C14.7937 16.6509 14.9006 16.6251 14.9972 16.5757L14.9972 16.5756C15.0206 16.5636 15.0434 16.5503 15.0653 16.5358L20.1385 13.5631C20.1885 13.5348 20.2301 13.4938 20.2589 13.4441C20.2878 13.3944 20.3028 13.3379 20.3025 13.2805Z" fill="#123B6D"/>
<path d="M13 11.3125H9.62964V14.402H13V11.3125Z" fill="#0364B8"/>
<path d="M19.7707 8.39586V7.13197C19.7692 6.96287 19.7005 6.8013 19.5799 6.68279C19.4593 6.56429 19.2965 6.49854 19.1274 6.50002H10.1222C9.95314 6.49854 9.79038 6.56428 9.66976 6.68279C9.54913 6.8013 9.48052 6.96287 9.479 7.13196V8.39586H19.7707Z" fill="#0358A7"/>
<path d="M12.9998 8.125H9.479V11.375H12.9998V8.125Z" fill="#0078D4"/>
<path d="M16.5208 8.125H13V11.375H16.5208V8.125Z" fill="#28A8EA"/>
<path d="M19.7708 8.125H16.5208V11.375H19.7708V8.125Z" fill="#50D9FF"/>
<path d="M19.7708 11.375H16.5208V14.625H19.7708V11.375Z" fill="#28A8EA"/>
<path d="M16.5208 11.375H13V14.625H16.5208V11.375Z" fill="#0078D4"/>
<path d="M16.5208 14.625H13V17.875H16.5208V14.625Z" fill="#0364B8"/>
<path d="M13 14.4023H9.62964V17.211H13V14.4023Z" fill="#14447D"/>
<path d="M19.7708 14.625H16.5208V17.6042H19.7708V14.625Z" fill="#0078D4"/>
<path d="M20.1545 13.5261V13.5264L20.1482 13.5298L20.1467 13.5306L15.0098 16.2778C14.9876 16.2912 14.9646 16.3035 14.9411 16.3146C14.8421 16.3606 14.7342 16.3843 14.625 16.3841C14.6188 16.3841 14.613 16.3823 14.6068 16.3821L14.3187 16.224C14.2951 16.2126 14.2721 16.2 14.2498 16.1861L9.10372 13.3608L9.10214 13.36L9.09962 13.3585L8.93763 13.2695H8.9375V18.8313C8.94346 19.014 9.02166 19.1869 9.15494 19.312C9.28823 19.4371 9.46571 19.5043 9.64844 19.4987H19.6209C19.7715 19.4991 19.9186 19.4527 20.0417 19.3659L20.0308 19.3601C20.1167 19.3009 20.1871 19.222 20.2361 19.13C20.2851 19.038 20.3113 18.9355 20.3125 18.8313V13.2695C20.3118 13.3226 20.2968 13.3745 20.2689 13.4196C20.2411 13.4648 20.2015 13.5016 20.1545 13.5261Z" fill="url(#outlook0)"/>
<path d="M20.1545 13.5262V13.5264L20.1482 13.5297L20.1467 13.5306L15.0099 16.2777C14.9876 16.2912 14.9646 16.3035 14.941 16.3146H14.941C14.842 16.3604 14.7342 16.3841 14.625 16.3841C14.5159 16.3841 14.4081 16.3604 14.3091 16.3146L14.309 16.3146C14.2854 16.3035 14.2625 16.2912 14.2402 16.2777L9.10341 13.5306L9.10184 13.5297L9.09556 13.5264V13.5262C9.0485 13.5016 9.00895 13.4648 8.98113 13.4197C8.95331 13.3745 8.93826 13.3226 8.93758 13.2695H8.9375V18.8313C8.94345 19.014 9.02165 19.1869 9.15494 19.312C9.28822 19.4372 9.46571 19.5043 9.64844 19.4987H19.6016C19.7843 19.5043 19.9618 19.4372 20.0951 19.312C20.2283 19.1869 20.3065 19.014 20.3125 18.8313V13.2696C20.3118 13.3226 20.2968 13.3745 20.2689 13.4197C20.2411 13.4649 20.2016 13.5017 20.1545 13.5262Z" fill="#1490DF"/>
<path d="M9.64972 19.4987H19.6209C19.7715 19.4991 19.9185 19.4528 20.0417 19.366L14.3187 16.2239C14.295 16.2126 14.272 16.2 14.2498 16.1861L9.10371 13.3608L9.10213 13.3599L9.09968 13.3586L8.9375 13.2695V18.8123C8.94099 18.9977 9.01797 19.1742 9.15152 19.3029C9.28507 19.4316 9.46427 19.5021 9.64972 19.4987Z" fill="#28A8EA"/>
<path opacity="0.5" d="M19.7707 13.423V13.7291L15.0094 16.2776C14.9877 16.2912 14.9634 16.302 14.9417 16.3129C14.8427 16.36 14.7344 16.384 14.6248 16.3832H14.6086L14.3188 16.2235C14.2945 16.2126 14.2728 16.199 14.2483 16.1855L9.479 13.5666V13.2578L14.3811 15.9472C14.4054 15.9635 14.4217 15.9716 14.4352 15.9796L14.6736 16.1098C14.7262 16.1052 14.7775 16.0914 14.8253 16.069C14.8388 16.061 18.7388 13.9755 19.7707 13.423Z" fill="#0A2767"/>
<path opacity="0.2" d="M13.2708 9.8381V16.9718C13.2714 17.0082 13.2678 17.0445 13.26 17.0801C13.2354 17.2266 13.1595 17.3596 13.0459 17.4554C12.9323 17.5511 12.7883 17.6034 12.6398 17.6029H8.9375V13.2695L9.07556 13.3454C9.07028 13.3241 9.06757 13.3023 9.0675 13.2804C9.06718 13.2242 9.08151 13.1689 9.10906 13.12C9.13661 13.0711 9.17643 13.0302 9.2246 13.0013C9.22725 12.9987 9.23002 12.9987 9.23267 12.996L9.63085 12.763V11.3737H9.47917V9.20703H12.6398C12.7227 9.20689 12.8048 9.22311 12.8814 9.25477C12.9581 9.28643 13.0277 9.33291 13.0863 9.39154C13.1449 9.45017 13.1914 9.5198 13.2231 9.59643C13.2548 9.67306 13.271 9.75518 13.2708 9.8381Z" fill="black"/>
<path opacity="0.1" d="M13.5417 9.8394V16.4314C13.5394 16.6699 13.4437 16.898 13.275 17.0667C13.1064 17.2354 12.8783 17.3311 12.6398 17.3333H8.9375V13.2708L9.07556 13.3467C9.07028 13.3254 9.06757 13.3036 9.0675 13.2817C9.06718 13.2255 9.08151 13.1703 9.10906 13.1213C9.13661 13.0724 9.17643 13.0315 9.2246 13.0026C9.22725 13 9.23002 13 9.23267 12.9973L9.63085 12.7643V11.375H9.47917V8.9375H12.6398C12.8787 8.93833 13.1076 9.03362 13.2766 9.20258C13.4455 9.37154 13.5408 9.60046 13.5417 9.8394Z" fill="black"/>
<path opacity="0.2" d="M13.2708 9.8381V16.4301C13.271 16.513 13.2548 16.5952 13.2231 16.6718C13.1914 16.7484 13.145 16.8181 13.0863 16.8767C13.0277 16.9353 12.9581 16.9818 12.8814 17.0135C12.8048 17.0451 12.7227 17.0613 12.6398 17.0612H8.9375V13.2695L9.07556 13.3454C9.07028 13.3241 9.06757 13.3023 9.0675 13.2804C9.06718 13.2242 9.08151 13.169 9.10906 13.12C9.13661 13.0711 9.17643 13.0302 9.2246 13.0013C9.22725 12.9987 9.23002 12.9987 9.23267 12.996L9.63085 12.763V11.3737H9.47917V9.20703H12.6398C12.7227 9.20689 12.8048 9.22311 12.8814 9.25477C12.9581 9.28643 13.0277 9.33291 13.0863 9.39154C13.145 9.45017 13.1914 9.5198 13.2231 9.59643C13.2548 9.67306 13.271 9.75518 13.2708 9.8381Z" fill="black"/>
<path opacity="0.1" d="M13 9.8381V16.4301C13.0001 16.513 12.9839 16.5952 12.9523 16.6718C12.9206 16.7484 12.8741 16.8181 12.8155 16.8767C12.7569 16.9353 12.6872 16.9818 12.6106 17.0135C12.534 17.0451 12.4518 17.0613 12.3689 17.0612H8.9375V13.2695L9.07556 13.3454C9.07028 13.3241 9.06757 13.3023 9.0675 13.2804C9.06718 13.2242 9.08151 13.169 9.10906 13.12C9.13661 13.0711 9.17643 13.0302 9.2246 13.0013C9.22725 12.9987 9.23002 12.9987 9.23267 12.996L9.63085 12.763V11.3737H9.47917V9.20703H12.3689C12.4518 9.20689 12.534 9.22311 12.6106 9.25477C12.6872 9.28643 12.7569 9.33291 12.8155 9.39154C12.8741 9.45017 12.9206 9.5198 12.9523 9.59643C12.9839 9.67306 13.0001 9.75518 13 9.8381Z" fill="black"/>
<path d="M12.3679 9.20703H6.04845C5.69943 9.20703 5.4165 9.48996 5.4165 9.83897V16.1584C5.4165 16.5074 5.69943 16.7904 6.04845 16.7904H12.3679C12.7169 16.7904 12.9998 16.5074 12.9998 16.1584V9.83897C12.9998 9.48996 12.7169 9.20703 12.3679 9.20703Z" fill="#0F78D4"/>
<path d="M7.51043 11.9794C7.65593 11.6694 7.8908 11.4099 8.18488 11.2344C8.51065 11.0479 8.88158 10.9549 9.2568 10.9657C9.60445 10.9581 9.94748 11.0463 10.2484 11.2205C10.5316 11.3891 10.7597 11.6365 10.9048 11.9324C11.0629 12.2584 11.1417 12.6171 11.1347 12.9793C11.1425 13.358 11.0613 13.7332 10.8979 14.0748C10.7495 14.3812 10.5145 14.6373 10.2221 14.8116C9.90948 14.9913 9.55358 15.0818 9.1931 15.0733C8.83798 15.0818 8.48735 14.9927 8.17934 14.8157C7.89385 14.6468 7.66307 14.3992 7.51459 14.1025C7.35544 13.7812 7.27566 13.4265 7.28192 13.068C7.27494 12.6925 7.35307 12.3204 7.51043 11.9794ZM8.22919 13.7286C8.30683 13.9246 8.4384 14.0945 8.60866 14.2188C8.78208 14.3402 8.98981 14.4028 9.2014 14.3975C9.42675 14.4063 9.64887 14.3417 9.8343 14.2133C10.0026 14.089 10.1306 13.918 10.2027 13.7217C10.2836 13.5028 10.3235 13.2709 10.3204 13.0375C10.3229 12.8021 10.2855 12.5679 10.2096 12.3451C10.1426 12.1444 10.019 11.9674 9.85369 11.8354C9.67307 11.7006 9.45152 11.6321 9.22633 11.6415C9.0102 11.636 8.79786 11.699 8.61974 11.8216C8.44618 11.9462 8.31169 12.1177 8.23197 12.316C8.05566 12.7702 8.05467 13.2737 8.2292 13.7286H8.22919Z" fill="white"/>
<path opacity="0.05" d="M15.2794 16.1328L15.0096 16.2771C14.8936 16.3473 14.7604 16.3841 14.6248 16.3834L14.6099 16.3831L20.0321 19.3602C20.1082 19.306 20.1719 19.2363 20.2191 19.1557C20.2662 19.0751 20.2958 18.9853 20.3057 18.8925L15.2794 16.1328Z" fill="black"/>
<path opacity="0.05" d="M20.033 19.3601C20.1095 19.3054 20.1739 19.2355 20.2223 19.155L14.9944 16.2852C14.977 16.2951 14.9592 16.3046 14.9409 16.3132C14.8419 16.3592 14.734 16.383 14.6248 16.3828L14.6099 16.3825L20.033 19.3601Z" fill="black"/>
<defs>
<linearGradient id="outlook0" x1="14.625" y1="13.2695" x2="14.625" y2="19.4987" gradientUnits="userSpaceOnUse">
<stop stop-color="#35B8F1"/>
<stop offset="1" stop-color="#28A8EA"/>
</linearGradient>
</defs>
</svg>
