<svg width="100%" height="100%" viewBox="0 0 18 18" fill="none" xmlns="http://www.w3.org/2000/svg">
<circle cx="9" cy="9" r="8.5" fill="white" stroke="#E2EAEC"/>
<path d="M14.0556 9.19465C14.0558 9.15597 14.046 9.1179 14.027 9.08417C14.0081 9.05044 13.9807 9.02221 13.9476 9.00224V9.00222L13.9464 9.00154L13.9422 8.99904L10.4299 6.94103C10.4147 6.93094 10.399 6.92172 10.3828 6.91341H10.3828C10.3159 6.87918 10.2418 6.86133 10.1667 6.86133C10.0916 6.86133 10.0175 6.87918 9.95067 6.91341H9.95065C9.93445 6.92171 9.91873 6.93093 9.90357 6.94103L6.39129 8.99905L6.38702 9.00155L6.38585 9.00223V9.00225C6.3524 9.02265 6.32485 9.05142 6.30591 9.08571C6.28697 9.12001 6.2773 9.15865 6.27785 9.19782C6.27841 9.23699 6.28916 9.27535 6.30905 9.3091C6.32895 9.34284 6.3573 9.37082 6.39131 9.39027L9.90357 11.4483C9.91873 11.4584 9.93445 11.4676 9.95065 11.4759L9.95067 11.4759C10.0175 11.5101 10.0916 11.528 10.1667 11.528C10.2418 11.528 10.3159 11.5101 10.3828 11.4759L10.3828 11.4759C10.399 11.4676 10.4147 11.4584 10.4299 11.4483L13.9421 9.39027C13.9768 9.37073 14.0055 9.34229 14.0255 9.3079C14.0454 9.27351 14.0558 9.23441 14.0556 9.19465Z" fill="#123B6D"/>
<path d="M8.99996 7.83398H6.66663V9.97287H8.99996V7.83398Z" fill="#0364B8"/>
<path d="M13.6875 5.81252V4.93752C13.6865 4.82045 13.639 4.7086 13.5554 4.62655C13.4719 4.54451 13.3593 4.49899 13.2422 4.50002H7.00781C6.89075 4.49899 6.77807 4.5445 6.69456 4.62655C6.61105 4.70859 6.56355 4.82045 6.5625 4.93751V5.81252H13.6875Z" fill="#0358A7"/>
<path d="M9 5.625H6.5625V7.875H9V5.625Z" fill="#0078D4"/>
<path d="M11.4375 5.625H9V7.875H11.4375V5.625Z" fill="#28A8EA"/>
<path d="M13.6875 5.625H11.4375V7.875H13.6875V5.625Z" fill="#50D9FF"/>
<path d="M13.6875 7.875H11.4375V10.125H13.6875V7.875Z" fill="#28A8EA"/>
<path d="M11.4375 7.875H9V10.125H11.4375V7.875Z" fill="#0078D4"/>
<path d="M11.4375 10.125H9V12.375H11.4375V10.125Z" fill="#0364B8"/>
<path d="M8.99996 9.97168H6.66663V11.9161H8.99996V9.97168Z" fill="#14447D"/>
<path d="M13.6875 10.125H11.4375V12.1875H13.6875V10.125Z" fill="#0078D4"/>
<path d="M13.9531 9.36511V9.3653L13.9488 9.36768L13.9477 9.36823L10.3914 11.2701C10.376 11.2795 10.3601 11.2879 10.3438 11.2956C10.2753 11.3275 10.2006 11.3439 10.125 11.3437C10.1207 11.3437 10.1167 11.3425 10.1124 11.3424L9.91296 11.2329C9.89659 11.225 9.88067 11.2163 9.86527 11.2067L6.30258 9.25067L6.30148 9.25012L6.29974 9.24911L6.18759 9.1875H6.1875V13.0379C6.19163 13.1644 6.24577 13.2841 6.33804 13.3707C6.43031 13.4574 6.55318 13.5039 6.67969 13.5H13.5837C13.688 13.5003 13.7898 13.4682 13.875 13.4081L13.8675 13.4041C13.9269 13.3631 13.9757 13.3085 14.0096 13.2448C14.0435 13.181 14.0617 13.1101 14.0625 13.0379V9.1875C14.062 9.22423 14.0516 9.26015 14.0323 9.29143C14.0131 9.3227 13.9857 9.34817 13.9531 9.36511Z" fill="url(#outlook0)"/>
<path d="M13.9531 9.36516V9.36531L13.9488 9.36764L13.9477 9.36822L10.3915 11.2701C10.376 11.2795 10.3601 11.288 10.3438 11.2956H10.3438C10.2752 11.3273 10.2006 11.3438 10.125 11.3438C10.0495 11.3438 9.97484 11.3273 9.90628 11.2956L9.90626 11.2956C9.88992 11.288 9.87401 11.2795 9.85859 11.2701L6.30236 9.36822L6.30127 9.36764L6.29693 9.36531V9.36516C6.26434 9.3482 6.23697 9.32272 6.21771 9.29143C6.19845 9.26015 6.18803 9.22423 6.18755 9.1875H6.1875V13.0379C6.19162 13.1644 6.24576 13.2841 6.33803 13.3708C6.43031 13.4574 6.55318 13.5039 6.67969 13.5H13.5703C13.6968 13.5039 13.8197 13.4574 13.912 13.3708C14.0042 13.2841 14.0584 13.1644 14.0625 13.0379V9.18752C14.062 9.22425 14.0516 9.26017 14.0323 9.29144C14.0131 9.32272 13.9857 9.3482 13.9531 9.36516Z" fill="#1490DF"/>
<path d="M6.68058 13.5H13.5837C13.688 13.5003 13.7898 13.4682 13.875 13.4081L9.91292 11.2329C9.89656 11.225 9.88065 11.2163 9.86524 11.2067L6.30257 9.25068L6.30148 9.25008L6.29978 9.24914L6.1875 9.1875V13.0248C6.18991 13.1532 6.24321 13.2754 6.33567 13.3645C6.42813 13.4536 6.55219 13.5023 6.68058 13.5Z" fill="#28A8EA"/>
<path opacity="0.5" d="M13.6875 9.29403V9.50598L10.3912 11.2703C10.3762 11.2797 10.3594 11.2872 10.3444 11.2947C10.2759 11.3273 10.2009 11.344 10.125 11.3434H10.1137L9.91315 11.2328C9.8963 11.2253 9.88129 11.2159 9.86435 11.2066L6.5625 9.39346V9.17969L9.95627 11.0416C9.97311 11.0529 9.98438 11.0584 9.99371 11.064L10.1588 11.1541C10.1952 11.1509 10.2307 11.1414 10.2638 11.1259C10.2731 11.1203 12.9731 9.67654 13.6875 9.29403Z" fill="#0A2767"/>
<path opacity="0.2" d="M9.1875 6.81189V11.7506C9.18791 11.7758 9.1854 11.801 9.18 11.8256C9.16295 11.927 9.11041 12.0191 9.03176 12.0854C8.95311 12.1517 8.85347 12.1879 8.75061 12.1875H6.1875V9.1875L6.28308 9.24005C6.27942 9.22531 6.27755 9.21019 6.2775 9.195C6.27728 9.15613 6.2872 9.11787 6.30627 9.08399C6.32534 9.05012 6.35291 9.0218 6.38626 9.00183C6.38809 8.99999 6.39002 8.99999 6.39185 8.99816L6.66751 8.83685V7.875H6.5625V6.375H8.75061C8.80801 6.3749 8.86487 6.38613 8.91792 6.40805C8.97097 6.42997 9.01917 6.46215 9.05976 6.50274C9.10035 6.54333 9.13253 6.59153 9.15445 6.64458C9.17637 6.69763 9.1876 6.75449 9.1875 6.81189Z" fill="black"/>
<path opacity="0.1" d="M9.375 6.81189V11.3756C9.37345 11.5407 9.30717 11.6986 9.19041 11.8154C9.07365 11.9322 8.91573 11.9985 8.75061 12H6.1875V9.1875L6.28308 9.24005C6.27942 9.22531 6.27755 9.21019 6.2775 9.195C6.27728 9.15613 6.2872 9.11787 6.30627 9.08399C6.32534 9.05012 6.35291 9.0218 6.38626 9.00182C6.38809 8.99999 6.39002 8.99999 6.39185 8.99816L6.66751 8.83685V7.875H6.5625V6.1875H8.75061C8.91603 6.18808 9.07451 6.25405 9.19148 6.37102C9.30845 6.48799 9.37442 6.64647 9.375 6.81189Z" fill="black"/>
<path opacity="0.2" d="M9.1875 6.81189V11.3756C9.1876 11.433 9.17637 11.4899 9.15445 11.5429C9.13253 11.596 9.10035 11.6442 9.05976 11.6848C9.01917 11.7254 8.97097 11.7575 8.91792 11.7794C8.86487 11.8014 8.80801 11.8126 8.75061 11.8125H6.1875V9.1875L6.28308 9.24005C6.27942 9.22531 6.27755 9.21019 6.2775 9.195C6.27728 9.15613 6.2872 9.11787 6.30627 9.08399C6.32534 9.05012 6.35291 9.0218 6.38626 9.00183C6.38809 8.99999 6.39002 8.99999 6.39185 8.99816L6.66751 8.83685V7.875H6.5625V6.375H8.75061C8.80801 6.3749 8.86487 6.38613 8.91792 6.40805C8.97097 6.42997 9.01917 6.46215 9.05976 6.50274C9.10035 6.54333 9.13253 6.59153 9.15445 6.64458C9.17637 6.69763 9.1876 6.75449 9.1875 6.81189Z" fill="black"/>
<path opacity="0.1" d="M9 6.81189V11.3756C9.0001 11.433 8.98887 11.4899 8.96695 11.5429C8.94503 11.596 8.91285 11.6442 8.87226 11.6848C8.83167 11.7254 8.78347 11.7575 8.73042 11.7794C8.67737 11.8014 8.62051 11.8126 8.56311 11.8125H6.1875V9.1875L6.28308 9.24005C6.27942 9.22531 6.27755 9.21019 6.2775 9.195C6.27728 9.15613 6.2872 9.11787 6.30627 9.08399C6.32534 9.05012 6.35291 9.0218 6.38626 9.00183C6.38809 8.99999 6.39002 8.99999 6.39185 8.99816L6.66751 8.83685V7.875H6.5625V6.375H8.56311C8.62051 6.3749 8.67737 6.38613 8.73042 6.40805C8.78347 6.42997 8.83167 6.46215 8.87226 6.50274C8.91285 6.54333 8.94503 6.59153 8.96695 6.64458C8.98887 6.69763 9.0001 6.75449 9 6.81189Z" fill="black"/>
<path d="M8.5625 6.375H4.1875C3.94588 6.375 3.75 6.57088 3.75 6.8125V11.1875C3.75 11.4291 3.94588 11.625 4.1875 11.625H8.5625C8.80412 11.625 9 11.4291 9 11.1875V6.8125C9 6.57088 8.80412 6.375 8.5625 6.375Z" fill="#0F78D4"/>
<path d="M5.19963 8.29519C5.30036 8.08054 5.46297 7.9009 5.66656 7.77936C5.89209 7.65025 6.14889 7.58588 6.40866 7.59336C6.64934 7.58812 6.88682 7.64915 7.09515 7.76977C7.2912 7.88652 7.44909 8.05774 7.54961 8.26259C7.65904 8.48829 7.71357 8.73665 7.70877 8.98743C7.71411 9.24956 7.65796 9.50931 7.54482 9.74583C7.44207 9.95793 7.2794 10.1353 7.07693 10.2559C6.86051 10.3803 6.61412 10.443 6.36456 10.4371C6.11871 10.443 5.87596 10.3813 5.66273 10.2588C5.46508 10.1418 5.30531 9.97038 5.20251 9.765C5.09233 9.54258 5.0371 9.29697 5.04144 9.04879C5.0366 8.78887 5.09069 8.53123 5.19963 8.29519ZM5.69724 9.50613C5.75098 9.64181 5.84207 9.75949 5.95994 9.84554C6.08 9.92955 6.22381 9.97289 6.3703 9.96922C6.52632 9.97533 6.68009 9.93058 6.80847 9.84171C6.92495 9.75564 7.01362 9.6373 7.0635 9.50134C7.11952 9.3498 7.14715 9.18924 7.145 9.0277C7.14675 8.86471 7.12082 8.70261 7.0683 8.54831C7.02193 8.40938 6.93635 8.28684 6.82189 8.19547C6.69684 8.10215 6.54346 8.05475 6.38756 8.06124C6.23793 8.05742 6.09093 8.10105 5.96761 8.18589C5.84746 8.27219 5.75435 8.39091 5.69916 8.52817C5.5771 8.84261 5.57641 9.19122 5.69724 9.50613H5.69724Z" fill="white"/>
<path opacity="0.05" d="M10.5782 11.1699L10.3914 11.2698C10.311 11.3184 10.2189 11.3439 10.125 11.3434L10.1146 11.3432L13.8685 13.4043C13.9212 13.3668 13.9653 13.3185 13.9979 13.2627C14.0306 13.2069 14.051 13.1447 14.0579 13.0804L10.5782 11.1699Z" fill="black"/>
<path opacity="0.05" d="M13.8691 13.4052C13.922 13.3673 13.9666 13.3189 14.0001 13.2632L10.3809 11.2764C10.3688 11.2832 10.3565 11.2898 10.3438 11.2958C10.2752 11.3276 10.2006 11.3441 10.125 11.3439L10.1146 11.3437L13.8691 13.4052Z" fill="black"/>
<defs>
<linearGradient id="outlook0" x1="10.125" y1="9.1875" x2="10.125" y2="13.5" gradientUnits="userSpaceOnUse">
<stop stop-color="#35B8F1"/>
<stop offset="1" stop-color="#28A8EA"/>
</linearGradient>
</defs>
</svg>
