<svg width="100%" height="100%" viewBox="0 0 18 18" fill="none" xmlns="http://www.w3.org/2000/svg">
<circle cx="9" cy="9" r="8.5" fill="white" stroke="#E2EAEC"/>
<path d="M12.5167 4.19347C11.9922 3.59599 11.044 3.33984 9.83112 3.33984H6.31084C6.06268 3.33984 5.85181 3.52021 5.81295 3.76478L4.34719 13.0554C4.31805 13.2386 4.45999 13.4046 4.64579 13.4046H6.81906L7.36489 9.94466L7.34797 10.053C7.38682 9.80844 7.59613 9.62807 7.84397 9.62807H8.87671C10.9055 9.62807 12.4941 8.80451 12.9582 6.42211C12.972 6.35166 12.9839 6.28308 12.9942 6.21606C12.9356 6.18506 12.9356 6.18506 12.9942 6.21606C13.1324 5.33551 12.9932 4.73615 12.5167 4.19347Z" fill="#003087"/>
<path d="M12.5167 4.19347C11.9922 3.59599 11.044 3.33984 9.83112 3.33984H6.31084C6.06268 3.33984 5.85181 3.52021 5.81295 3.76478L4.34719 13.0554C4.31805 13.2386 4.45999 13.4046 4.64579 13.4046H6.81906L7.36489 9.94466L7.34797 10.053C7.38682 9.80844 7.59613 9.62807 7.84397 9.62807H8.87671C10.9055 9.62807 12.4941 8.80451 12.9582 6.42211C12.972 6.35166 12.9839 6.28308 12.9942 6.21606C12.9356 6.18506 12.9356 6.18506 12.9942 6.21606C13.1324 5.33551 12.9932 4.73615 12.5167 4.19347Z" fill="#003087"/>
<path d="M7.95144 6.22765C7.97463 6.08047 8.06926 5.95991 8.19647 5.89885C8.25444 5.87129 8.31898 5.85595 8.38666 5.85595H11.1465C11.4733 5.85595 11.7782 5.87724 12.0567 5.92202C12.1366 5.93485 12.214 5.94958 12.2892 5.96649C12.3644 5.98307 12.4374 6.00187 12.5082 6.02254C12.5436 6.03286 12.5784 6.04354 12.6126 6.0548C12.7495 6.10052 12.877 6.15375 12.9942 6.21606C13.1324 5.33519 12.9932 4.73615 12.5167 4.19347C11.9919 3.59599 11.044 3.33984 9.83112 3.33984H6.31053C6.06268 3.33984 5.85181 3.52021 5.81296 3.76478L4.34719 13.0551C4.31805 13.2386 4.45999 13.4043 4.64548 13.4043H6.81906L7.36489 9.94435L7.95144 6.22765Z" fill="#002F86"/>
<path d="M12.9943 6.21582C12.9837 6.28315 12.972 6.35141 12.9583 6.42187C12.4942 8.80395 10.9056 9.62783 8.87681 9.62783H7.84376C7.59591 9.62783 7.38661 9.8082 7.34807 10.0528L6.81916 13.404L6.66908 14.3547C6.6437 14.5151 6.76777 14.6604 6.93008 14.6604H8.76213C8.97896 14.6604 9.16351 14.5025 9.19735 14.2887L9.21522 14.1953L9.56051 12.0083L9.58277 11.8875C9.61661 11.6736 9.80116 11.5158 10.018 11.5158H10.2922C12.0669 11.5158 13.4565 10.7952 13.8626 8.71126C14.0321 7.84041 13.9444 7.11329 13.496 6.60255C13.36 6.44786 13.1911 6.3201 12.9943 6.21582" fill="#009CDE"/>
<path d="M12.5084 6.02206C12.4376 6.00139 12.3646 5.98261 12.2894 5.96601C12.2142 5.9494 12.1365 5.93469 12.0569 5.92186C11.778 5.87676 11.4735 5.85547 11.1464 5.85547H8.38684C8.31885 5.85547 8.2543 5.87083 8.19665 5.89868C8.06912 5.95975 7.97481 6.07999 7.95162 6.22748L7.36506 9.94418L7.34814 10.0525C7.38668 9.80796 7.59599 9.62759 7.84384 9.62759H8.87689C10.9057 9.62759 12.4943 8.80403 12.9583 6.42163C12.9721 6.35117 12.9837 6.28291 12.9944 6.21558C12.8769 6.15358 12.7497 6.10003 12.6127 6.05463C12.5786 6.04335 12.5438 6.03238 12.5084 6.02206Z" fill="#012069"/>
</svg>
