<svg width="100%" height="100%" viewBox="0 0 26 26" fill="none" xmlns="http://www.w3.org/2000/svg">
<circle cx="13" cy="13" r="12.5" fill="white" stroke="#E2EAEC"/>
<g clip-path="url(#paypal0)">
<path d="M18.0798 6.05724C17.3222 5.19421 15.9526 4.82422 14.2007 4.82422H9.11581C8.75735 4.82422 8.45276 5.08475 8.39664 5.43801L6.27942 18.8578C6.23733 19.1224 6.44235 19.3622 6.71074 19.3622H9.84991L10.6383 14.3645L10.6139 14.521C10.67 14.1678 10.9723 13.9072 11.3303 13.9072H12.8221C15.7526 13.9072 18.0472 12.7176 18.7175 9.27638C18.7374 9.17461 18.7546 9.07556 18.7696 8.97876C18.6849 8.93398 18.6849 8.93398 18.7696 8.97876C18.9691 7.70684 18.7681 6.8411 18.0798 6.05724Z" fill="#003087"/>
<path d="M18.0798 6.05724C17.3222 5.19421 15.9526 4.82422 14.2007 4.82422H9.11581C8.75735 4.82422 8.45276 5.08475 8.39664 5.43801L6.27942 18.8578C6.23733 19.1224 6.44235 19.3622 6.71074 19.3622H9.84991L10.6383 14.3645L10.6139 14.521C10.67 14.1678 10.9723 13.9072 11.3303 13.9072H12.8221C15.7526 13.9072 18.0472 12.7176 18.7175 9.27638C18.7374 9.17461 18.7546 9.07556 18.7696 8.97876C18.6849 8.93398 18.6849 8.93398 18.7696 8.97876C18.9691 7.70684 18.7681 6.8411 18.0798 6.05724Z" fill="#003087"/>
<path d="M11.4856 8.9955C11.5191 8.78291 11.6557 8.60876 11.8395 8.52056C11.9232 8.48076 12.0165 8.45859 12.1142 8.45859H16.1006C16.5727 8.45859 17.0131 8.48935 17.4154 8.55403C17.5308 8.57256 17.6426 8.59384 17.7512 8.61826C17.8598 8.64222 17.9653 8.66937 18.0676 8.69923C18.1187 8.71414 18.169 8.72955 18.2183 8.74582C18.4161 8.81186 18.6003 8.88875 18.7696 8.97876C18.9691 7.70639 18.7681 6.8411 18.0798 6.05724C17.3217 5.19421 15.9526 4.82422 14.2007 4.82422H9.11535C8.75735 4.82422 8.45276 5.08475 8.39664 5.43801L6.27942 18.8574C6.23733 19.1224 6.44235 19.3617 6.71029 19.3617H9.84991L10.6383 14.3641L11.4856 8.9955Z" fill="#002F86"/>
<path d="M18.7696 8.97656C18.7542 9.07381 18.7375 9.17242 18.7176 9.27419C18.0473 12.715 15.7527 13.905 12.8221 13.905H11.33C10.972 13.905 10.6696 14.1656 10.614 14.5188L9.84998 19.3595L9.63319 20.7328C9.59653 20.9643 9.77576 21.1742 10.0102 21.1742H12.6565C12.9697 21.1742 13.2363 20.9463 13.2851 20.6373L13.311 20.5025L13.8097 17.3435L13.8419 17.1689C13.8907 16.86 14.1573 16.632 14.4705 16.632H14.8665C17.43 16.632 19.4372 15.5913 20.0238 12.5811C20.2686 11.3232 20.1419 10.2729 19.4943 9.53518C19.2978 9.31173 19.0539 9.12718 18.7697 8.97656" fill="#009CDE"/>
<path d="M18.0677 8.69766C17.9654 8.66781 17.86 8.64067 17.7514 8.6167C17.6427 8.59271 17.5305 8.57147 17.4155 8.55292C17.0127 8.48779 16.5728 8.45703 16.1003 8.45703H12.1144C12.0161 8.45703 11.9229 8.47921 11.8396 8.51945C11.6554 8.60765 11.5192 8.78134 11.4857 8.99439L10.6385 14.3629L10.614 14.5194C10.6697 14.1662 10.972 13.9057 11.33 13.9057H12.8222C15.7527 13.9057 18.0474 12.7161 18.7176 9.27482C18.7376 9.17305 18.7543 9.07445 18.7697 8.9772C18.6 8.88764 18.4162 8.81029 18.2184 8.74471C18.1691 8.72842 18.1189 8.71257 18.0677 8.69766Z" fill="#012069"/>
</g>
<defs>
<clipPath id="paypal0">
<rect width="14.8571" height="17.3333" fill="white" transform="translate(5.77783 4.33203)"/>
</clipPath>
</defs>
</svg>
