<svg width="16" height="16" viewBox="0 0 16 16" fill="none" xmlns="http://www.w3.org/2000/svg">
<circle cx="8" cy="8" r="7.5" fill="white" stroke="#D0D0CE"/>
<path d="M5.59998 3.65751V3.3999H8.88249C9.64482 3.3999 10.2861 3.64797 10.8063 4.14411C11.3354 4.6307 11.6 5.28904 11.6 6.11911C11.6 6.94919 11.3354 7.61229 10.8063 8.10843C10.2861 8.59502 9.64482 8.83832 8.88249 8.83832H7.52374V12.3419C7.52374 12.4755 7.52374 12.5423 7.52374 12.5423H8.39998V12.7999H5.59998V12.5423H6.4206C6.4206 12.5423 6.4206 12.4755 6.4206 12.3419C6.4206 12.3419 6.4206 7.15366 6.4206 3.82925C6.4206 3.76218 6.4206 3.65751 6.4206 3.65751H5.59998ZM8.81522 3.80063H7.52374V8.4376H8.81522C9.34437 8.4376 9.76141 8.20861 10.0663 7.75064C10.3713 7.28312 10.5237 6.73928 10.5237 6.11911C10.5237 5.49894 10.3713 4.95987 10.0663 4.5019C9.76141 4.03438 9.34437 3.80063 8.81522 3.80063Z" fill="#01395A"/>
</svg>
