<svg width="100%" height="100%" viewBox="0 0 26 26" fill="none" xmlns="http://www.w3.org/2000/svg">
<circle cx="13" cy="13" r="12.5" fill="white" stroke="#E2EAEC"/>
<g clip-path="url(#clip0_10825:21057)">
<path d="M13 0C5.82058 0 0 5.82058 0 13C0 18.5103 3.42387 23.2181 8.26008 25.1119C8.14239 24.0848 8.04609 22.5012 8.30288 21.3778C8.53827 20.3613 9.82222 14.9152 9.82222 14.9152C9.82222 14.9152 9.43704 14.1342 9.43704 12.9893C9.43704 11.1811 10.4856 9.83292 11.7909 9.83292C12.9037 9.83292 13.4387 10.6675 13.4387 11.6626C13.4387 12.7753 12.7325 14.4444 12.358 15.9959C12.0477 17.2905 13.0107 18.3498 14.2839 18.3498C16.5951 18.3498 18.3712 15.9103 18.3712 12.4008C18.3712 9.28724 16.135 7.11523 12.9358 7.11523C9.23374 7.11523 7.06173 9.88642 7.06173 12.7539C7.06173 13.8667 7.48971 15.065 8.02469 15.7177C8.13169 15.8461 8.14239 15.9638 8.11029 16.0922C8.01399 16.4988 7.7893 17.3868 7.7465 17.5687C7.693 17.8041 7.55391 17.8576 7.30782 17.7399C5.68148 16.9802 4.66502 14.6156 4.66502 12.7004C4.66502 8.60247 7.63951 4.83621 13.2568 4.83621C17.7613 4.83621 21.2708 8.04609 21.2708 12.3473C21.2708 16.8305 18.4461 20.4362 14.53 20.4362C13.214 20.4362 11.9728 19.7514 11.5556 18.9383C11.5556 18.9383 10.9029 21.4206 10.7424 22.0305C10.4535 23.1646 9.66173 24.577 9.12675 25.4436C10.3465 25.8181 11.6305 26.0214 12.9786 26.0214C20.158 26.0214 25.9786 20.2008 25.9786 13.0214C26 5.82058 20.1794 0 13 0Z" fill="#E60023"/>
</g>
<circle cx="13" cy="13" r="12.5" stroke="#E2EAEC"/>
<defs>
<clipPath id="clip0_10825:21057">
<rect width="26" height="26" fill="white"/>
</clipPath>
</defs>
</svg>
