<svg width="100%" height="100%" viewBox="0 0 26 26" fill="none" xmlns="http://www.w3.org/2000/svg">
<circle cx="13" cy="13" r="12.5" fill="white" stroke="#E2EAEC"/>
<g clip-path="url(#prometheus)">
<path d="M13.0009 1.44531C6.61895 1.44531 1.44531 6.61859 1.44531 13.0009C1.44531 19.3831 6.61931 24.5564 13.0009 24.5564C19.3824 24.5564 24.5564 19.3828 24.5564 13.0009C24.5564 6.61895 19.3824 1.44531 13.0009 1.44531ZM13.0009 23.0723C11.1852 23.0723 9.71295 21.8589 9.71295 20.3639H16.2852C16.2852 21.8596 14.8129 23.0723 12.9973 23.0723H13.0009ZM18.4356 19.4673H7.56976V17.4978H18.4356V19.4673ZM18.3966 16.4845H7.60117L7.49392 16.3603C6.3817 15.0097 6.12026 14.302 5.86603 13.587C5.8617 13.5631 7.21442 13.8636 8.17353 14.0791C8.17353 14.0791 8.66717 14.1933 9.38831 14.3247C8.6957 13.5122 8.28439 12.4805 8.28439 11.425C8.28439 9.10845 10.0611 7.08442 9.42009 5.44859C10.0441 5.49915 10.7111 6.7652 10.7562 8.74409C11.4196 7.82759 11.6969 6.1542 11.6969 5.12792C11.6969 4.06553 12.3975 2.83126 13.0973 2.78901C12.4726 3.81817 13.2591 4.69928 13.9575 6.88762C14.2196 7.70951 14.186 9.09256 14.3883 9.9697C14.4554 8.1479 14.7685 5.49012 15.9244 4.57253C15.4145 5.72809 16.0003 7.17434 16.4004 7.86948C17.0468 8.99109 17.4378 9.84115 17.4378 11.4445C17.4378 12.522 17.0399 13.5364 16.3689 14.3334C17.132 14.19 17.6588 14.0611 17.6588 14.0611L20.1368 13.5772C20.1368 13.5768 19.7768 15.0578 18.3933 16.4841L18.3966 16.4845Z" fill="#DA4E31"/>
</g>
<defs>
<clipPath id="prometheus">
<rect width="23.1111" height="23.1111" fill="white" transform="translate(1.44531 1.44531)"/>
</clipPath>
</defs>
</svg>
