<svg width="100%" height="100%" viewBox="0 0 26 26" fill="none" xmlns="http://www.w3.org/2000/svg">
<circle cx="13" cy="13" r="12.5" fill="white" stroke="#E2EAEC"/>
<path d="M18.3773 8.14292L16.4245 15.312H16.4072L14.3162 8.14292H9.68475L8.09484 11.0643L6.41855 8.14292H4.06827L6.79873 12.7312L3.79175 17.875H5.95193L7.87019 14.4697L9.85756 17.875H13.4175V11.1181H13.4348C13.4867 11.4049 13.5385 11.6379 13.5731 11.8529C13.6076 12.068 13.6595 12.2472 13.694 12.4086C13.7286 12.5878 13.7805 12.7491 13.8323 12.8925C13.8842 13.0358 13.936 13.2151 13.9705 13.3943L15.3703 17.8571H17.2022L18.602 13.3943C18.7057 13.0358 18.8094 12.6953 18.8958 12.3548C18.9995 11.9784 19.0686 11.602 19.1204 11.2256H19.1377V17.875H21.1251V8.125L18.3773 8.14292ZM9.13173 12.7491L11.5857 8.53722V16.8892L9.13173 12.7491Z" fill="url(#qualtricsGradient)"/>
<defs>
<linearGradient id="qualtricsGradient" x1="6.09029" y1="8.22617" x2="11.9957" y2="22.3379" gradientUnits="userSpaceOnUse">
<stop offset="0.042" stop-color="#21DBAA"/>
<stop offset="0.358" stop-color="#00B4EF"/>
<stop offset="0.433" stop-color="#01A7EC"/>
<stop offset="0.568" stop-color="#0487E4"/>
<stop offset="0.68" stop-color="#0768DD"/>
<stop offset="0.965" stop-color="#5F1AE5"/>
</linearGradient>
</defs>
</svg>
