<svg width="100%" height="100%" viewBox="0 0 26 26" fill="none" xmlns="http://www.w3.org/2000/svg">
<circle cx="13" cy="13" r="12.5" fill="white" stroke="#E2EAEC"/>
<g clip-path="url(#clip0_10641:24636)">
<path d="M12.9263 5.77734C13.0792 5.79378 13.2323 5.80864 13.3849 5.82683C14.5385 5.96374 15.592 6.3659 16.5309 7.04852C18.005 8.12019 18.9219 9.55573 19.2626 11.3474C19.4765 12.4728 19.3964 13.5855 19.0451 14.6771C19.0408 14.691 19.0361 14.7046 19.0308 14.7181C19.0256 14.7269 19.0197 14.7354 19.0133 14.7434L16.3088 14.0903C16.3819 13.8067 16.4755 13.5404 16.517 13.2664C16.7442 11.7583 16.285 10.4921 15.1226 9.50345C14.3799 8.87188 13.5013 8.58407 12.5268 8.59316C10.6973 8.61065 9.07242 9.94407 8.69909 11.7347C8.2534 13.866 9.53873 15.9235 11.6476 16.4515C12.1148 16.5693 12.6001 16.5974 13.0778 16.5344C13.1317 16.5274 13.1727 16.5252 13.2065 16.5869C13.6476 17.397 14.0904 18.2062 14.5348 19.0144C14.5456 19.0343 14.5547 19.0551 14.5724 19.0915C14.3401 19.1469 14.1165 19.2119 13.8886 19.2529C11.8717 19.6153 10.0311 19.2004 8.40668 17.945C7.01247 16.8666 6.17615 15.4365 5.87064 13.699C5.83096 13.4731 5.81821 13.2423 5.79304 13.0138C5.78989 12.9853 5.78308 12.9571 5.77783 12.9288V12.2294C5.78308 12.2011 5.78972 12.1729 5.79304 12.1442C5.82467 11.882 5.8397 11.6153 5.88934 11.356C6.23436 9.55841 7.14781 8.12083 8.6297 7.04327C9.56687 6.36362 10.6182 5.96304 11.7687 5.82683C11.9213 5.80934 12.0744 5.79378 12.2272 5.77734H12.9263Z" fill="black"/>
<path d="M13.5454 14.6094C13.6885 14.6419 13.8958 14.6867 14.1021 14.7357C16.0568 15.1997 18.0115 15.6643 19.9663 16.1294C20.0088 16.1379 20.0497 16.1531 20.0874 16.1745C20.2302 16.2649 20.2459 16.3069 20.198 16.4681C19.907 17.4473 19.4954 18.3672 18.8403 19.1622C18.3176 19.7968 17.6971 20.3227 17.0155 20.7784C16.9031 20.8532 16.7888 20.8183 16.7108 20.6864C15.6896 18.9675 14.6686 17.2484 13.6476 15.5291C13.5603 15.3816 13.4702 15.235 13.3865 15.0852C13.3468 15.0141 13.3138 14.9395 13.2879 14.8623C13.2313 14.6892 13.2955 14.6071 13.5454 14.6094Z" fill="black"/>
</g>
<defs>
<clipPath id="clip0_10641:24636">
<rect width="14.4444" height="15.0401" fill="white" transform="translate(5.77783 5.77734)"/>
</clipPath>
</defs>
</svg>
