<svg width="100%" height="100%" viewBox="0 0 18 18" fill="none" xmlns="http://www.w3.org/2000/svg">
<circle cx="9" cy="9" r="8.5" fill="white" stroke="#E2EAEC"/>
<path d="M9 18C13.9706 18 18 13.9706 18 9C18 4.02944 13.9706 0 9 0C4.02944 0 0 4.02944 0 9C0 13.9706 4.02944 18 9 18Z" fill="#2CA01C"/>
<path d="M2.50513 9.00064C2.50513 10.9305 4.06389 12.5079 6.01234 12.5079H6.51337V11.2089H6.01234C4.80616 11.2089 3.8041 10.2254 3.8041 9.00064C3.8041 7.79445 4.7876 6.79239 6.01234 6.79239H7.21853V13.6027C7.21853 14.3264 7.79379 14.9017 8.5175 14.9017V5.51198H6.01234C4.06389 5.51198 2.50513 7.07074 2.50513 9.00064ZM12.0062 5.51198H11.5051V6.81095H12.0062C13.2123 6.81095 14.2144 7.79446 14.2144 9.0192C14.2144 10.2439 13.2123 11.2089 12.0062 11.2089H10.8V4.39858C10.8 3.67487 10.2247 3.09961 9.501 3.09961V12.5079H12.0062C13.9361 12.5079 15.5134 10.9491 15.5134 9.00064C15.5134 7.07074 13.9361 5.51198 12.0062 5.51198Z" fill="white"/>
<circle cx="9" cy="9" r="8.5" stroke="#E2EAEC"/>
</svg>
