<svg width="100%" height="100%" viewBox="0 0 26 26" fill="none" xmlns="http://www.w3.org/2000/svg">
<circle cx="13" cy="13" r="12.5" fill="white" stroke="#E2EAEC"/>
<path d="M13 26C20.1797 26 26 20.1797 26 13C26 5.8203 20.1797 0 13 0C5.8203 0 0 5.8203 0 13C0 20.1797 5.8203 26 13 26Z" fill="#2CA01C"/>
<path d="M3.61841 13.0003C3.61841 15.7879 5.86995 18.0663 8.68439 18.0663H9.4081V16.19H8.68439C6.94212 16.19 5.4947 14.7693 5.4947 13.0003C5.4947 11.258 6.91532 9.81058 8.68439 9.81058H10.4267V19.6477C10.4267 20.6931 11.2576 21.524 12.3029 21.524V7.9611H8.68439C5.86995 7.9611 3.61841 10.2126 3.61841 13.0003ZM17.3421 7.9611H16.6184V9.83739H17.3421C19.0844 9.83739 20.5318 11.258 20.5318 13.0271C20.5318 14.7962 19.0844 16.19 17.3421 16.19H15.5999V6.35285C15.5999 5.30749 14.7689 4.47656 13.7236 4.47656V18.0663H17.3421C20.1297 18.0663 22.4081 15.8147 22.4081 13.0003C22.4081 10.2126 20.1297 7.9611 17.3421 7.9611Z" fill="white"/>
<circle cx="13" cy="13" r="12.5" stroke="#E2EAEC"/>
</svg>
