<svg width="100%" height="100%" viewBox="0 0 18 18" fill="none" xmlns="http://www.w3.org/2000/svg">
<circle cx="9" cy="9" r="8.5" fill="white" stroke="#E2EAEC"/>
<path d="M6.26989 8.0247C6.29629 8.01421 6.31213 8.00896 6.33326 8.00372C6.48639 7.94601 6.63953 7.88831 6.80322 7.89355C6.85075 7.89355 6.87715 7.87782 6.89299 7.8306C6.95636 7.63126 7.01973 7.43191 7.08309 7.23257C7.12534 7.09093 7.1623 6.94929 7.20982 6.80765C7.28375 6.56634 7.35768 6.32503 7.43161 6.07847C7.43689 6.06273 7.42633 6.02601 7.41048 6.01552C7.28903 5.93683 7.20982 5.82667 7.12534 5.71651C7.08837 5.66929 7.05141 5.63782 6.98804 5.67978C6.9722 5.69028 6.9458 5.69028 6.92996 5.69552C6.81906 5.72175 6.71346 5.74798 6.60256 5.77421C6.42303 5.81618 6.24877 5.86339 6.06923 5.9106C5.89497 5.95257 5.71544 5.99978 5.54118 6.04175C5.43029 6.06798 5.3194 6.09946 5.2085 6.12044C5.08177 6.14667 5.06593 6.16765 5.03953 6.29355C5.01841 6.39847 4.98144 6.50339 4.9392 6.60306C4.91808 6.65028 4.91808 6.67651 4.95504 6.71323C5.13458 6.89159 5.31412 7.06995 5.49365 7.24831C5.73656 7.49487 5.97418 7.74667 6.21709 7.99323C6.23293 8.00372 6.25405 8.01421 6.26989 8.0247Z" fill="white"/>
<path d="M9 17C13.4183 17 17 13.4183 17 9C17 4.58172 13.4183 1 9 1C4.58172 1 1 4.58172 1 9C1 13.4183 4.58172 17 9 17Z" fill="#8CC63F"/>
<path d="M1.0845 8.32318C1.1373 8.15006 1.20595 8.05564 1.29044 7.94023C1.44357 7.72515 1.64423 7.57301 1.89242 7.4681C2.14588 7.35793 2.40991 7.3422 2.67394 7.37892C3.00133 7.43138 3.2812 7.58351 3.50298 7.83531C3.61387 7.96121 3.69308 8.09761 3.75644 8.24449C3.78285 8.31269 3.80397 8.38613 3.81981 8.45433C3.83037 8.49105 3.85149 8.50679 3.88846 8.51203C4.33202 8.56974 4.78087 8.6222 5.22443 8.6799C5.32476 8.69039 5.43037 8.71138 5.5307 8.72187C5.5571 8.72711 5.59935 8.71662 5.60991 8.69564C5.63631 8.66416 5.59935 8.63793 5.57295 8.61695C5.40397 8.44908 5.23499 8.27597 5.06602 8.1081C4.87592 7.91924 4.6911 7.73039 4.501 7.54154C4.43763 7.47859 4.37955 7.40515 4.31618 7.3422C4.29506 7.32121 4.24753 7.30547 4.22113 7.31597C3.94126 7.42613 3.65611 7.43662 3.36568 7.36842C3.17031 7.32646 3.00133 7.23728 2.84819 7.11662C2.53136 6.87531 2.3571 6.55006 2.3043 6.16187C2.26733 5.87859 2.32542 5.6058 2.45743 5.354C2.58945 5.09695 2.79011 4.89761 3.04357 4.76121C3.3076 4.61957 3.59803 4.57236 3.89902 4.61433C4.20001 4.65105 4.44819 4.77695 4.66998 4.97105C4.73862 5.034 4.79671 5.10744 4.85479 5.17564C4.88648 5.21236 4.91816 5.21761 4.9604 5.20711C5.25083 5.13367 5.54126 5.06023 5.83169 4.98679C6.14324 4.9081 6.44951 4.82941 6.76107 4.74547C6.77163 4.74547 6.77691 4.74023 6.78747 4.74023C6.9142 4.74547 6.95116 4.67203 6.97229 4.56711C7.04093 4.21564 7.24159 3.94285 7.53202 3.74351C7.92278 3.47597 8.3505 3.41301 8.80991 3.57039C9.21651 3.71203 9.50166 3.99006 9.66008 4.38351C9.70232 4.49367 9.72344 4.61433 9.74457 4.72974C9.78681 4.96056 9.74985 5.18613 9.66536 5.40121C9.58615 5.6058 9.4647 5.78941 9.29044 5.94154C9.05281 6.15138 8.77823 6.26679 8.46668 6.29826C8.44027 6.29826 8.40331 6.32449 8.39803 6.34547C8.33994 6.5081 8.29242 6.67597 8.23961 6.84383C8.17097 7.06941 8.10232 7.29498 8.03367 7.52056C7.98087 7.69367 7.92278 7.86679 7.86998 8.0399C7.85414 8.09236 7.8647 8.11859 7.90694 8.15006C8.18153 8.36515 8.39803 8.62219 8.49308 8.96318C8.56173 9.20974 8.58285 9.46154 8.53004 9.71334C8.46668 10.0281 8.31882 10.3009 8.08648 10.5212C8.04951 10.5527 8.04951 10.5789 8.07064 10.6261C8.23961 10.9514 8.39803 11.2819 8.56173 11.6124C8.58285 11.6491 8.59341 11.6963 8.61981 11.7278C8.64093 11.7488 8.6779 11.7697 8.70958 11.7645C9.17427 11.7278 9.56503 11.8799 9.88186 12.2104C10.13 12.4727 10.2462 12.7927 10.2462 13.1547C10.2462 13.312 10.2304 13.4642 10.1828 13.611C10.1195 13.7999 10.0192 13.9678 9.88186 14.1147C9.57031 14.4399 9.19011 14.5973 8.74126 14.5658C8.41915 14.5448 8.12344 14.4294 7.88582 14.1933C7.77493 14.0832 7.66932 13.9678 7.59539 13.8261C7.38945 13.4274 7.37889 13.0183 7.54786 12.6038C7.59539 12.4832 7.67988 12.3783 7.7538 12.2681C7.79077 12.2156 7.79605 12.1737 7.76965 12.1212C7.63763 11.8642 7.50562 11.6071 7.37889 11.3448C7.3208 11.2347 7.268 11.1245 7.21519 11.0143C7.19407 10.9671 7.16239 10.9514 7.10958 10.9566C6.76635 10.9776 6.44951 10.9094 6.15908 10.7206C6.14324 10.7101 6.10628 10.7153 6.09044 10.7258C5.8845 10.9042 5.68384 11.0825 5.4779 11.2609C5.43037 11.3029 5.40925 11.3501 5.40925 11.4183C5.42509 11.6858 5.3142 11.8956 5.11882 12.0688C5.03961 12.1422 4.94984 12.2051 4.84423 12.2314C4.62773 12.2943 4.41123 12.2943 4.20001 12.2051C4.02575 12.1317 3.88846 12.011 3.79869 11.8484C3.66667 11.6071 3.65083 11.3553 3.75116 11.0983C3.84621 10.8569 4.02575 10.6996 4.26337 10.6104C4.39539 10.5632 4.53796 10.5632 4.67526 10.5842C4.75974 10.5947 4.81783 10.5789 4.88648 10.5212C5.08186 10.3429 5.28252 10.1697 5.48318 9.99662C5.52014 9.96515 5.5307 9.93367 5.51486 9.88646C5.49374 9.82351 5.48318 9.76056 5.46205 9.6976C5.45149 9.67138 5.42509 9.64515 5.40397 9.6399C5.14522 9.60318 4.88648 9.5717 4.62773 9.54023C4.42707 9.514 4.22113 9.47728 4.02047 9.45105C3.92542 9.43531 3.83037 9.41957 3.73532 9.41433C3.70892 9.41433 3.67724 9.44056 3.65611 9.46679C3.57691 9.56121 3.51354 9.67138 3.42377 9.75531C3.10166 10.0491 2.72146 10.1855 2.2779 10.133C1.85017 10.0858 1.52278 9.87597 1.27459 9.53498C1.17955 9.40384 1.1109 9.34613 1.06865 9.07334C1.00001 8.73236 1.03697 8.49629 1.0845 8.32318Z" fill="white"/>
<path d="M8.92079 8.78456C8.92079 8.92619 8.92607 9.06783 8.92079 9.20947C8.92079 9.29341 8.92607 9.3039 9.01056 9.3039C9.26402 9.3039 9.51221 9.3039 9.76567 9.3039C9.87656 9.3039 9.98746 9.29341 10.0931 9.24619C10.2251 9.18849 10.3254 9.09931 10.3835 8.96292C10.431 8.85275 10.4205 8.73734 10.3993 8.62718C10.3835 8.55374 10.3518 8.48554 10.3096 8.42259C10.204 8.2757 10.0403 8.24423 9.87128 8.24423C9.57557 8.23898 9.28514 8.24423 8.98944 8.23898C8.93663 8.23898 8.92079 8.26521 8.92079 8.31767C8.92079 8.48029 8.92079 8.63242 8.92079 8.78456ZM10.1247 9.37734C10.3096 9.44029 10.4099 9.56619 10.4257 9.75505C10.4416 9.95964 10.4574 10.1642 10.4733 10.3688C10.4733 10.3898 10.4574 10.4108 10.4521 10.4265C10.4363 10.4108 10.4099 10.395 10.4099 10.3741C10.3941 10.2691 10.3835 10.1642 10.3729 10.0541C10.3677 9.95439 10.3677 9.85472 10.3624 9.75505C10.3518 9.59242 10.2356 9.45078 10.0772 9.41931C9.95577 9.39308 9.82904 9.38259 9.70231 9.38259C9.46996 9.37734 9.23762 9.38259 9.00528 9.38259C8.94191 9.38259 8.92607 9.41406 8.92607 9.47177C8.92607 9.76554 8.92607 10.0541 8.92607 10.3478C8.92607 10.3741 8.90495 10.395 8.89439 10.4213C8.87854 10.395 8.85742 10.3741 8.85742 10.3478C8.85742 9.66587 8.85742 8.9839 8.85742 8.29669C8.85742 8.19702 8.86798 8.18652 8.96831 8.18652C9.16369 8.18652 9.35907 8.18652 9.55445 8.18652C9.69703 8.19177 9.84488 8.19701 9.98746 8.20751C10.2568 8.22849 10.4363 8.40685 10.468 8.67439C10.4944 8.90521 10.4416 9.09931 10.2409 9.2357C10.1828 9.27767 10.1089 9.29865 10.0297 9.33537C10.0667 9.34587 10.0931 9.36685 10.1247 9.37734Z" fill="white"/>
<path d="M11.0381 8.30193C11.0381 8.19177 11.0434 8.18652 11.1543 8.18652C11.5873 8.18652 12.0256 8.18652 12.4586 8.18652C12.4797 8.18652 12.5009 8.20751 12.522 8.22325C12.5009 8.23374 12.485 8.25997 12.4639 8.25997C12.0309 8.25997 11.6031 8.25997 11.1701 8.25472C11.1067 8.25472 11.0962 8.28095 11.0962 8.32816C11.0962 8.4698 11.0962 8.61144 11.0962 8.75833C11.0962 8.88423 11.0962 9.01538 11.0962 9.14128C11.0962 9.23046 11.1067 9.24095 11.1965 9.24095C11.545 9.24095 11.8988 9.24095 12.2474 9.24095C12.2896 9.24095 12.3266 9.2357 12.3688 9.2357C12.39 9.2357 12.4058 9.25669 12.4216 9.26718C12.4058 9.27767 12.39 9.3039 12.3741 9.3039C12.316 9.30914 12.2579 9.3039 12.1946 9.3039C11.8724 9.3039 11.5503 9.3039 11.2282 9.3039C11.0962 9.3039 11.0962 9.3039 11.0962 9.43505C11.0962 9.71832 11.0962 10.0068 11.0962 10.2901C11.0962 10.3373 11.1067 10.3741 11.1648 10.3688C11.5662 10.3688 11.9622 10.3688 12.3636 10.3688C12.4058 10.3688 12.4428 10.3636 12.485 10.3688C12.5008 10.3688 12.5167 10.3898 12.5325 10.4003C12.5167 10.4108 12.5061 10.4318 12.4903 10.437C12.4639 10.4423 12.4375 10.437 12.4111 10.437C11.9833 10.437 11.5556 10.437 11.1279 10.437C11.0698 10.437 11.0434 10.416 11.0434 10.3583C11.0434 10.0068 11.0434 9.66062 11.0434 9.30914C11.0381 8.97341 11.0381 8.63767 11.0381 8.30193Z" fill="white"/>
<path d="M14.1802 9.41898C13.9584 9.36127 13.7366 9.31406 13.5149 9.25111C13.3776 9.21439 13.2455 9.16717 13.1347 9.07799C12.8812 8.86816 12.9446 8.40652 13.235 8.25438C13.4356 8.14947 13.6416 8.12324 13.8634 8.13898C14.0323 8.14947 14.1908 8.18619 14.3228 8.3016C14.4601 8.41701 14.5234 8.57439 14.5393 8.7475C14.5393 8.76324 14.5234 8.78422 14.5129 8.79996C14.5023 8.78422 14.4812 8.76848 14.4759 8.7475C14.4653 8.63734 14.4389 8.53766 14.3756 8.44848C14.2858 8.31734 14.1644 8.24389 14.0165 8.21242C13.8317 8.1757 13.6416 8.18094 13.4568 8.21766C13.2878 8.25439 13.1452 8.34357 13.0818 8.50619C12.9974 8.72652 13.0343 8.96258 13.2719 9.08848C13.4304 9.17242 13.6099 9.19865 13.7842 9.24062C13.9848 9.29307 14.196 9.32455 14.3809 9.44521C14.5182 9.53439 14.5762 9.66553 14.5921 9.81767C14.6185 10.1114 14.4284 10.3265 14.1802 10.4157C13.9531 10.4944 13.7208 10.4944 13.4937 10.4524C13.198 10.3947 12.9604 10.1849 12.9287 9.87012C12.9234 9.82816 12.9076 9.78619 12.9076 9.74947C12.9076 9.73373 12.9287 9.71275 12.9393 9.69701C12.9498 9.71275 12.9657 9.72849 12.971 9.74422C12.9974 9.84914 13.0132 9.95931 13.0502 10.059C13.103 10.2059 13.2244 10.2898 13.3617 10.3527C13.5624 10.4419 13.7736 10.4157 13.9795 10.4052C14.1696 10.3947 14.3281 10.316 14.4442 10.1639C14.5129 10.0747 14.5446 9.9698 14.5287 9.87537C14.5234 9.6498 14.3861 9.47144 14.1802 9.41898Z" fill="white"/>
<path d="M15.796 10.3587C15.796 10.3849 15.7749 10.4059 15.7643 10.4321C15.7538 10.4111 15.7326 10.3902 15.7326 10.3639C15.7326 9.85508 15.7379 9.34623 15.7379 8.83738C15.7379 8.66951 15.7379 8.50689 15.7326 8.33902C15.7326 8.26033 15.7168 8.24984 15.6323 8.24984C15.4211 8.25508 15.2151 8.25508 15.0039 8.24984C14.9828 8.24984 14.9617 8.22885 14.9406 8.21312C14.9617 8.20262 14.9828 8.18164 15.0039 8.18164C15.5109 8.18164 16.0178 8.18164 16.5247 8.18164C16.5458 8.18164 16.5722 8.20262 16.5934 8.21836C16.5722 8.22885 16.5511 8.24984 16.5247 8.24984C16.3029 8.24984 16.0811 8.24984 15.8594 8.24459C15.8013 8.24459 15.7907 8.27082 15.7907 8.31803C15.7907 8.65902 15.7907 8.99475 15.7907 9.33574C15.796 9.68197 15.8013 10.0177 15.796 10.3587Z" fill="white"/>
<path d="M6.26989 8.02406C6.25405 8.01357 6.23293 8.00308 6.21709 7.98734C5.97418 7.74079 5.73656 7.48898 5.49365 7.24243C5.3194 7.06407 5.13986 6.88571 4.95504 6.70735C4.91808 6.67063 4.91808 6.64441 4.9392 6.59719C4.98144 6.49752 5.01841 6.3926 5.03953 6.28769C5.06593 6.16179 5.08177 6.1408 5.2085 6.11458C5.3194 6.09359 5.43029 6.06212 5.54118 6.03589C5.71544 5.99392 5.89497 5.95195 6.06923 5.90474C6.24877 5.86277 6.42303 5.81556 6.60256 5.76835C6.71346 5.74212 6.81906 5.71589 6.92996 5.68966C6.95108 5.68442 6.9722 5.68442 6.98804 5.67393C7.05141 5.63196 7.08837 5.66343 7.12534 5.71065C7.20982 5.82081 7.29431 5.93097 7.41048 6.00966C7.42633 6.02015 7.43689 6.05687 7.43161 6.07261C7.35768 6.31392 7.28375 6.55523 7.20982 6.80178C7.16758 6.94342 7.13062 7.08506 7.08309 7.22669C7.01973 7.42604 6.95636 7.62538 6.89299 7.82472C6.87715 7.86669 6.85075 7.88767 6.80322 7.88767C6.63953 7.88242 6.48639 7.94013 6.33326 7.99783C6.31213 8.00832 6.29629 8.01357 6.26989 8.02406Z" fill="#8CC63F"/>
</svg>
