<svg width="100%" height="100%" viewBox="0 0 18 18" fill="none" xmlns="http://www.w3.org/2000/svg">
<circle cx="9" cy="9" r="9" fill="#005587"/>
<path fill-rule="evenodd" clip-rule="evenodd" d="M13.2082 12.9922H5.59998C5.34909 12.9922 5.14551 12.7889 5.14551 12.5383L5.02733 5.9753L3.02757 5.38983C2.78666 5.31947 2.64809 5.06757 2.71856 4.82701C2.78897 4.58644 3.04121 4.44805 3.28208 4.51837L5.60454 5.19918C5.79544 5.25455 5.92764 5.42748 5.93175 5.62586L6.04538 12.0799H12.8628L14.2262 7.54118H7.55427C7.30343 7.54118 7.09986 7.33783 7.09986 7.08732C7.09986 6.83677 7.30343 6.63342 7.55427 6.63342H14.8489C15.0997 6.63524 15.302 6.83993 15.3002 7.09048C15.2997 7.13405 15.2933 7.17718 15.2806 7.21893L13.6444 12.6654C13.5881 12.8592 13.4099 12.9922 13.2082 12.9922Z" fill="white"/>
<path fill-rule="evenodd" clip-rule="evenodd" d="M6.11798 15.1797C5.25716 15.1797 4.55908 14.4825 4.55908 13.6229C4.55908 12.7632 5.25716 12.0661 6.11798 12.0661C6.97881 12.0661 7.6769 12.7632 7.6769 13.6229C7.6769 14.4825 6.97881 15.1797 6.11798 15.1797ZM6.11798 12.9783C5.75894 12.9783 5.46806 13.2688 5.46806 13.6274C5.46806 13.986 5.75894 14.2764 6.11798 14.2764C6.47703 14.2764 6.76792 13.986 6.76792 13.6274C6.76792 13.6261 6.76792 13.6242 6.76792 13.6229C6.76561 13.2661 6.47517 12.9783 6.11798 12.9783Z" fill="white"/>
<path fill-rule="evenodd" clip-rule="evenodd" d="M12.6899 15.1797C11.8291 15.1824 11.1292 14.4871 11.1265 13.6274C11.1242 12.7678 11.82 12.0688 12.6808 12.0661C13.5416 12.0638 14.2415 12.7587 14.2443 13.6183C14.2443 13.6197 14.2443 13.6215 14.2443 13.6229C14.242 14.4798 13.548 15.1747 12.6899 15.1797ZM12.6899 12.9783C12.3309 12.9756 12.0382 13.2643 12.0355 13.6229C12.0331 13.9815 12.3218 14.2737 12.6808 14.2764C13.0399 14.2787 13.3326 13.9905 13.3353 13.6319C13.3353 13.6288 13.3353 13.626 13.3353 13.6229C13.3331 13.2679 13.0453 12.9806 12.6899 12.9783Z" fill="white"/>
</svg>
