<svg width="100%" height="100%" viewBox="0 0 26 26" fill="none" xmlns="http://www.w3.org/2000/svg">
<circle cx="13" cy="13" r="12.5" fill="white" stroke="#E2EAEC"/>
<g clip-path="url(#clip0_10825:21147)">
<path d="M13.8955 11.81V12.6942H14.0433C14.0444 12.6777 14.046 12.6647 14.0461 12.6515C14.0461 12.4967 14.0461 12.342 14.0461 12.1873C14.0461 12.1095 14.0677 12.0384 14.1218 11.981C14.1891 11.9099 14.2727 11.8909 14.3661 11.9158C14.4529 11.9389 14.4887 12.005 14.5023 12.086C14.5076 12.1219 14.5099 12.1582 14.5092 12.1944C14.5098 12.3598 14.5092 12.5252 14.5092 12.6921H14.6608V12.6198C14.6608 12.4788 14.6599 12.3377 14.6613 12.1967C14.6623 12.0995 14.6933 12.0121 14.7742 11.9521C14.8477 11.8978 14.931 11.8887 15.0137 11.9276C15.102 11.969 15.1233 12.0529 15.1254 12.1392C15.1294 12.3005 15.1268 12.462 15.1269 12.6235V12.6925H15.2752C15.2752 12.4875 15.2848 12.2873 15.2726 12.0883C15.2591 11.8673 15.0905 11.751 14.8719 11.7899C14.7656 11.8086 14.6911 11.8697 14.6313 11.957C14.5416 11.7605 14.2456 11.7049 14.0412 11.9185C14.0359 11.8803 14.031 11.846 14.026 11.81H13.8955ZM13.6748 12.6947C13.6748 12.4768 13.6828 12.2632 13.6719 12.0506C13.6645 11.9089 13.5573 11.8104 13.4158 11.7884C13.2561 11.7636 13.1288 11.8171 13.0357 11.9606C12.9792 11.8389 12.8821 11.7863 12.7556 11.7825C12.6323 11.7787 12.5307 11.8257 12.4486 11.9243C12.4412 11.88 12.4358 11.845 12.4303 11.8114H12.3013V12.6941H12.4523C12.4523 12.6663 12.4523 12.6418 12.4523 12.6174C12.453 12.4604 12.449 12.3033 12.456 12.1466C12.4625 12.0026 12.5763 11.901 12.7111 11.9056C12.8414 11.9101 12.9108 11.9955 12.9122 12.1544C12.913 12.2454 12.9122 12.3364 12.9122 12.4274V12.6921H13.064C13.064 12.5341 13.0605 12.3817 13.0658 12.2295C13.0675 12.1663 13.0805 12.1039 13.1041 12.0453C13.1487 11.9392 13.2592 11.8887 13.369 11.9117C13.4695 11.9327 13.5249 12.0029 13.528 12.1278C13.5319 12.2892 13.5297 12.4508 13.5302 12.6123C13.5302 12.6389 13.5302 12.6655 13.5302 12.695L13.6748 12.6947ZM23.1109 12.694V11.4658H22.9608V11.8898C22.9388 11.8745 22.928 11.8669 22.9171 11.8592C22.6982 11.704 22.4025 11.7855 22.3007 12.032C22.2363 12.1881 22.2394 12.3476 22.3049 12.503C22.3658 12.6474 22.4787 12.7192 22.636 12.7232C22.7659 12.7266 22.878 12.6891 22.9661 12.5767L22.9863 12.6946L23.1109 12.694ZM18.5613 12.3083C18.5532 12.2273 18.5527 12.1543 18.5375 12.0847C18.4976 11.902 18.3715 11.7963 18.1885 11.7831C17.9934 11.7689 17.8383 11.8634 17.7724 12.0379C17.7323 12.145 17.7237 12.2614 17.7475 12.3733C17.779 12.5313 17.86 12.6537 18.0213 12.7005C18.1992 12.7521 18.3661 12.7214 18.5224 12.6117L18.4565 12.5183C18.1567 12.6982 17.8919 12.5743 17.8957 12.3083H18.5613ZM15.6006 12.3089H16.1056C16.2764 12.3089 16.2764 12.3089 16.2542 12.1384C16.2261 11.9226 16.0876 11.7906 15.8811 11.7826C15.6625 11.774 15.4992 11.8976 15.4585 12.1101C15.4449 12.1792 15.4411 12.2498 15.4471 12.32C15.4635 12.4916 15.5354 12.6342 15.709 12.694C15.893 12.7573 16.0663 12.7235 16.2294 12.6129L16.1638 12.519C15.843 12.7036 15.5999 12.5617 15.6006 12.3089ZM12.1309 12.2477C12.13 11.9751 11.9805 11.8046 11.7245 11.7835C11.4684 11.7625 11.2846 11.8976 11.2425 12.1436C11.2334 12.2043 11.232 12.2659 11.2383 12.3269C11.2555 12.5238 11.3819 12.6704 11.5629 12.71C11.89 12.7818 12.1319 12.5849 12.1309 12.2477ZM20.2791 12.2468C20.2783 12.5164 20.4292 12.6996 20.6696 12.7209C20.9336 12.7442 21.1208 12.611 21.1659 12.3606C21.1775 12.2934 21.1786 12.2248 21.169 12.1572C21.1444 11.9808 21.0535 11.8501 20.874 11.803C20.5671 11.7225 20.2762 11.8722 20.2791 12.2468ZM21.9592 11.8107C21.9581 11.836 21.9562 11.8582 21.9561 11.8804C21.9561 12.0169 21.9621 12.1538 21.9533 12.2898C21.9485 12.3594 21.9288 12.4273 21.8957 12.4887C21.8424 12.5857 21.7294 12.6232 21.6227 12.5961C21.5359 12.574 21.4772 12.4978 21.4731 12.3824C21.4673 12.2187 21.4693 12.0549 21.4681 11.8911C21.4681 11.8646 21.4681 11.8381 21.4681 11.8127H21.3219C21.3219 12.0225 21.3153 12.2271 21.3243 12.431C21.3298 12.5563 21.3932 12.6611 21.5206 12.7014C21.6581 12.7449 21.7918 12.7338 21.9043 12.6297C21.9235 12.612 21.9405 12.5922 21.9617 12.57C21.9776 12.7118 21.9828 12.7156 22.1071 12.6901V11.811L21.9592 11.8107ZM19.7259 12.5264C19.6782 12.5459 19.6376 12.5666 19.5944 12.5795C19.3992 12.6377 19.2412 12.5527 19.2067 12.3605C19.1935 12.2777 19.1964 12.1932 19.2155 12.1115C19.248 11.9674 19.3651 11.8914 19.5131 11.9106C19.5836 11.9198 19.6518 11.9475 19.7306 11.9691L19.7794 11.8833C19.5995 11.7359 19.3001 11.7535 19.1559 11.9142C18.9965 12.0919 19.0042 12.4466 19.1706 12.6114C19.3172 12.7562 19.6202 12.7618 19.7747 12.6198L19.7259 12.5264ZM17.6815 11.8839C17.5049 11.7384 17.2096 11.7525 17.0627 11.9089C16.9002 12.0817 16.9024 12.4364 17.0671 12.6061C17.2125 12.7559 17.5129 12.7645 17.6773 12.6208L17.628 12.5265C17.5807 12.5457 17.5397 12.5662 17.4969 12.5792C17.3038 12.637 17.1467 12.5556 17.1104 12.3677C17.0956 12.2852 17.0974 12.2006 17.1155 12.1188C17.1487 11.9665 17.267 11.8895 17.4209 11.9115C17.491 11.9215 17.5586 11.9489 17.6315 11.9695L17.6815 11.8839ZM11.1271 12.5262C11.0761 12.5469 11.0351 12.5678 10.9917 12.5804C10.8084 12.6335 10.6634 12.5604 10.6133 12.3903C10.585 12.296 10.5863 12.1952 10.6169 12.1017C10.6531 11.9886 10.7282 11.9129 10.8487 11.9136C10.9407 11.9141 11.0326 11.9419 11.1246 11.9578C11.1246 11.9648 11.1629 11.9144 11.1814 11.8829C10.9872 11.7317 10.6877 11.7557 10.5442 11.9293C10.3872 12.1194 10.4137 12.4841 10.5957 12.6337C10.7489 12.7598 11.0579 12.7516 11.1748 12.617L11.1271 12.5262ZM20.1002 12.6948V11.4658H19.9571V12.6948H20.1002ZM16.5626 11.8121H16.4292V12.6925H16.5813C16.5813 12.5398 16.5813 12.3924 16.5813 12.245C16.5813 12.0146 16.6599 11.9299 16.8885 11.9128C16.8925 11.9116 16.8962 11.91 16.8998 11.908C16.9024 11.8711 16.9052 11.8316 16.9083 11.7866C16.7659 11.7724 16.6556 11.8106 16.5746 11.9424C16.5698 11.8888 16.5665 11.8534 16.5626 11.8121Z" fill="white"/>
<path d="M13.8955 11.8093H14.0261C14.0311 11.8453 14.036 11.8796 14.0413 11.9178C14.2457 11.7041 14.5416 11.7599 14.6317 11.9562C14.6911 11.869 14.7656 11.8078 14.8719 11.7893C15.0905 11.7504 15.2591 11.8666 15.2726 12.0877C15.2848 12.2866 15.2752 12.487 15.2752 12.6918H15.1269V12.6229C15.1269 12.4614 15.1294 12.2999 15.1254 12.1385C15.1233 12.0523 15.1017 11.9684 15.0137 11.927C14.931 11.888 14.8474 11.8971 14.7742 11.9514C14.6932 12.0115 14.6623 12.0988 14.6613 12.1964C14.6599 12.3373 14.6608 12.4783 14.6608 12.6193V12.6917H14.5097C14.5097 12.5247 14.5101 12.3594 14.5097 12.194C14.5104 12.1577 14.5081 12.1214 14.5029 12.0855C14.4892 12.0045 14.4534 11.9382 14.3667 11.9153C14.2732 11.8904 14.1896 11.9094 14.1224 11.9805C14.0682 12.0378 14.0467 12.1089 14.0466 12.1868C14.0466 12.3416 14.0466 12.4963 14.0466 12.651C14.0466 12.6641 14.045 12.6772 14.0438 12.6938H13.8955V11.8093Z" fill="#7C868D"/>
<path d="M13.6747 12.6956H13.5297C13.5297 12.6662 13.5297 12.6395 13.5297 12.6129C13.5293 12.4514 13.5315 12.2898 13.5275 12.1284C13.5244 12.0035 13.469 11.9333 13.3686 11.9123C13.2591 11.8894 13.1486 11.9398 13.1037 12.0459C13.0801 12.1046 13.0671 12.1669 13.0653 12.2301C13.06 12.3823 13.0636 12.5347 13.0636 12.6927H12.9121V12.4283C12.9121 12.3373 12.9127 12.2463 12.9121 12.1553C12.9108 11.9964 12.8414 11.911 12.711 11.9065C12.5762 11.902 12.4625 12.0036 12.456 12.1475C12.4487 12.3042 12.453 12.4613 12.4523 12.6183C12.4523 12.6427 12.4523 12.6672 12.4523 12.695H12.3013V11.8123H12.4303C12.4358 11.8459 12.4414 11.8807 12.4486 11.9252C12.5307 11.8266 12.6325 11.7797 12.7556 11.7834C12.8821 11.7872 12.9792 11.8399 13.0357 11.9615C13.1286 11.818 13.2564 11.7645 13.4157 11.7893C13.5572 11.8114 13.6646 11.9098 13.6719 12.0515C13.6828 12.2641 13.6747 12.4777 13.6747 12.6956Z" fill="#7C868D"/>
<path d="M23.111 12.694H22.9859L22.9658 12.5761C22.8775 12.6885 22.7655 12.726 22.6357 12.7226C22.4783 12.7186 22.3655 12.6468 22.3045 12.5024C22.239 12.347 22.2359 12.1875 22.3003 12.0315C22.4021 11.7846 22.6976 11.7034 22.9167 11.8586C22.9276 11.8663 22.9388 11.8739 22.9605 11.8892V11.4658H23.1108L23.111 12.694ZM22.9701 12.196C22.9619 12.1364 22.9716 12.0651 22.9415 12.02C22.8796 11.9268 22.7756 11.8965 22.6647 11.906C22.5592 11.9149 22.4891 11.9758 22.4484 12.0705C22.4048 12.1723 22.4028 12.2787 22.4282 12.3843C22.4649 12.5384 22.563 12.6106 22.7127 12.6009C22.8488 12.5922 22.9441 12.4952 22.9583 12.3465C22.963 12.2971 22.9664 12.1963 22.9701 12.196Z" fill="#7C868D"/>
<path d="M18.5611 12.3079H17.8955C17.8917 12.5739 18.1564 12.6977 18.4563 12.5178L18.5221 12.6112C18.3659 12.7209 18.199 12.7519 18.0211 12.7001C17.8598 12.6532 17.7787 12.5306 17.7473 12.3729C17.7235 12.261 17.7321 12.1446 17.7722 12.0374C17.8381 11.863 17.9929 11.7685 18.1883 11.7826C18.3713 11.7959 18.4974 11.9016 18.5373 12.0842C18.5525 12.1538 18.5531 12.2268 18.5611 12.3079ZM18.4013 12.1868C18.4125 12.0196 18.3144 11.9028 18.1632 11.8994C17.9973 11.896 17.8899 12.0088 17.8925 12.1868H18.4013Z" fill="#7C868D"/>
<path d="M15.6005 12.3088C15.5999 12.5617 15.843 12.7036 16.1637 12.519L16.2294 12.6129C16.0663 12.7234 15.8927 12.7572 15.709 12.6939C15.5354 12.6342 15.4635 12.4916 15.4471 12.32C15.4411 12.2498 15.4449 12.1791 15.4585 12.1101C15.4996 11.8976 15.6625 11.774 15.8811 11.7826C16.0876 11.7907 16.2261 11.9226 16.2542 12.1385C16.2763 12.3089 16.2763 12.3089 16.1056 12.3089H15.6005V12.3088ZM15.5978 12.1859H16.1122C16.11 12.0025 16.0131 11.8978 15.8521 11.9001C15.6997 11.9023 15.5966 12.0172 15.5978 12.1859Z" fill="#7C868D"/>
<path d="M12.1308 12.2476C12.1318 12.5848 11.8899 12.7817 11.5628 12.7099C11.3818 12.6702 11.2554 12.5236 11.2382 12.3268C11.2319 12.2658 11.2333 12.2042 11.2424 12.1435C11.2845 11.8975 11.4683 11.7622 11.7244 11.7834C11.9805 11.8046 12.1299 11.9752 12.1308 12.2476ZM11.9836 12.241C11.9735 12.1926 11.9676 12.1332 11.9482 12.0785C11.9049 11.9563 11.8114 11.9003 11.6706 11.9032C11.541 11.906 11.4551 11.9674 11.4142 12.0887C11.3813 12.1864 11.3787 12.2917 11.4068 12.3908C11.4462 12.5361 11.541 12.6049 11.6924 12.6019C11.8359 12.5991 11.9286 12.524 11.9626 12.3797C11.9724 12.3378 11.9755 12.2946 11.9834 12.241H11.9836Z" fill="#7C868D"/>
<path d="M20.2788 12.2463C20.276 11.8715 20.5669 11.7217 20.8738 11.8025C21.0533 11.8497 21.1442 11.9804 21.1688 12.1567C21.1784 12.2243 21.1773 12.2929 21.1656 12.3601C21.1206 12.6106 20.9333 12.7438 20.6694 12.7204C20.4294 12.6994 20.2781 12.5162 20.2788 12.2463ZM21.0278 12.2397C21.0174 12.1906 21.0112 12.1311 20.9918 12.0764C20.9498 11.9577 20.8562 11.9009 20.7195 11.9026C20.588 11.9041 20.5014 11.9631 20.4594 12.0831C20.4239 12.1845 20.4231 12.2883 20.4509 12.3913C20.4893 12.5332 20.5834 12.6026 20.7306 12.6012C20.875 12.5999 20.9701 12.526 21.0052 12.384C21.0166 12.3406 21.0197 12.295 21.0278 12.24V12.2397Z" fill="#7C868D"/>
<path d="M21.9591 11.8105H22.1072V12.69C21.9828 12.7155 21.9777 12.7117 21.9617 12.5699C21.9405 12.592 21.9235 12.6119 21.9044 12.6295C21.7918 12.7337 21.6582 12.7448 21.5206 12.7013C21.3932 12.661 21.3298 12.5565 21.3243 12.4309C21.3153 12.2269 21.3219 12.0223 21.3219 11.8125H21.4681C21.4681 11.838 21.4681 11.8641 21.4681 11.8909C21.4693 12.0547 21.4673 12.2186 21.4731 12.3823C21.4772 12.4974 21.5359 12.5738 21.6227 12.5959C21.7294 12.6231 21.8427 12.5858 21.8958 12.4889C21.9289 12.4274 21.9485 12.3596 21.9534 12.2899C21.9621 12.154 21.9559 12.0173 21.9562 11.8805C21.9561 11.858 21.958 11.8358 21.9591 11.8105Z" fill="#7C868D"/>
<path d="M19.7258 12.5259L19.7746 12.6193C19.6201 12.7613 19.3168 12.7557 19.1702 12.6109C19.0035 12.4462 18.9958 12.0914 19.1555 11.9138C19.2997 11.7531 19.599 11.7359 19.7789 11.8828L19.7304 11.9687C19.6516 11.9466 19.5833 11.9194 19.5129 11.9102C19.3649 11.8909 19.248 11.967 19.2153 12.1111C19.1963 12.1927 19.1935 12.2773 19.2068 12.36C19.241 12.5522 19.3993 12.6372 19.5945 12.579C19.6374 12.5661 19.6781 12.5454 19.7258 12.5259Z" fill="#7C868D"/>
<path d="M17.6814 11.8835L17.6314 11.9689C17.5585 11.9483 17.4909 11.921 17.4208 11.9109C17.2669 11.8888 17.1486 11.966 17.1154 12.1183C17.0973 12.2001 17.0955 12.2847 17.1103 12.3672C17.1466 12.555 17.3037 12.6365 17.4968 12.5786C17.5398 12.5656 17.5806 12.5452 17.628 12.5259L17.6773 12.6202C17.5128 12.764 17.2124 12.7554 17.067 12.6055C16.9024 12.436 16.9002 12.0811 17.0626 11.9083C17.2095 11.752 17.5048 11.7379 17.6814 11.8835Z" fill="#7C868D"/>
<path d="M11.1269 12.5258L11.1744 12.6163C11.0575 12.7508 10.7485 12.7591 10.5953 12.633C10.4136 12.4834 10.387 12.1188 10.5438 11.9287C10.6873 11.755 10.9868 11.7311 11.181 11.8823C11.1625 11.9137 11.1243 11.9641 11.1241 11.9571C11.0322 11.9415 10.9402 11.9137 10.8483 11.9129C10.7278 11.9122 10.6527 11.988 10.6165 12.101C10.5859 12.1946 10.5846 12.2953 10.6129 12.3896C10.663 12.5597 10.808 12.6327 10.9913 12.5797C11.0349 12.5674 11.0759 12.5465 11.1269 12.5258Z" fill="#7C868D"/>
<path d="M20.1001 12.6948H19.957V11.4658H20.1001V12.6948Z" fill="#7C868D"/>
<path d="M16.5625 11.8121C16.5664 11.8537 16.5699 11.8892 16.5747 11.9427C16.6557 11.811 16.7661 11.7728 16.9084 11.787C16.9053 11.832 16.9025 11.8714 16.8999 11.9083C16.8963 11.9104 16.8926 11.912 16.8886 11.9132C16.66 11.93 16.5812 12.0146 16.5812 12.245C16.5812 12.3923 16.5812 12.5397 16.5812 12.6925H16.4292V11.8121H16.5625Z" fill="#7C868D"/>
<path d="M18.4014 12.1878H17.8926C17.89 12.0102 17.9974 11.8973 18.1633 11.9005C18.3145 11.9038 18.4126 12.0206 18.4014 12.1878Z" fill="white"/>
<path d="M15.5977 12.1862C15.5964 12.0175 15.6995 11.9026 15.852 11.9004C16.013 11.8981 16.1099 12.0028 16.1121 12.1862H15.5977Z" fill="white"/>
<path d="M5.81942 10.6489C6.04654 10.4123 6.36273 10.2655 6.71241 10.2655C7.1773 10.2655 7.58288 10.5247 7.79884 10.9096C7.99204 10.8233 8.2013 10.7788 8.41289 10.7791C9.25133 10.7791 9.93105 11.4647 9.93105 12.3106C9.93105 13.1565 9.25133 13.8422 8.41289 13.8422C8.31057 13.8422 8.21056 13.8319 8.11385 13.8124C7.92363 14.1516 7.56121 14.3809 7.14519 14.3809C6.97696 14.3811 6.81089 14.3429 6.65968 14.2691C6.46687 14.7227 6.01765 15.0407 5.49409 15.0407C4.94888 15.0407 4.48424 14.6957 4.30586 14.2118C4.22793 14.2284 4.14717 14.237 4.06432 14.237C3.41518 14.237 2.88892 13.7053 2.88892 13.0493C2.88845 12.8415 2.94247 12.6371 3.0456 12.4566C3.14872 12.2761 3.29735 12.1257 3.47667 12.0206C3.40221 11.8491 3.36389 11.6642 3.36411 11.4773C3.36411 10.7229 3.97653 10.1113 4.73195 10.1113C5.17544 10.1113 5.56959 10.3222 5.81945 10.6489" fill="#009ED8"/>
<path d="M3.90906 12.6666C3.90465 12.6782 3.91066 12.6806 3.91209 12.6826C3.92531 12.6922 3.93874 12.6991 3.95229 12.7069C4.02413 12.745 4.09193 12.7561 4.16286 12.7561C4.30731 12.7561 4.397 12.6793 4.397 12.5556V12.5532C4.397 12.4388 4.29577 12.3973 4.20077 12.3673L4.18844 12.3633C4.11682 12.34 4.05503 12.3199 4.05503 12.2728V12.2703C4.05503 12.23 4.09113 12.2002 4.14711 12.2002C4.20931 12.2002 4.28313 12.2209 4.33069 12.2472C4.33069 12.2472 4.34462 12.2562 4.34974 12.2427C4.35255 12.2355 4.37662 12.1707 4.37915 12.1636C4.38185 12.156 4.37703 12.1504 4.37213 12.1474C4.31786 12.1144 4.24282 12.0918 4.16517 12.0918L4.15071 12.0919C4.01851 12.0919 3.92621 12.1718 3.92621 12.2862V12.2886C3.92621 12.4093 4.02804 12.4484 4.12343 12.4757L4.13879 12.4805C4.20829 12.5018 4.26821 12.5202 4.26821 12.5691V12.5716C4.26821 12.6163 4.22927 12.6496 4.16647 12.6496C4.1421 12.6496 4.06436 12.6491 3.98038 12.596C3.97024 12.5901 3.96432 12.5858 3.9565 12.5811C3.95237 12.5785 3.94208 12.5739 3.93756 12.5876L3.90906 12.6666Z" fill="white"/>
<path d="M6.02356 12.6666C6.01916 12.6782 6.02516 12.6806 6.02659 12.6826C6.03981 12.6922 6.05325 12.6991 6.06679 12.7069C6.13861 12.745 6.20643 12.7561 6.27736 12.7561C6.42181 12.7561 6.5115 12.6793 6.5115 12.5556V12.5532C6.5115 12.4388 6.41028 12.3973 6.31528 12.3673L6.30294 12.3633C6.23132 12.34 6.1695 12.3199 6.1695 12.2728V12.2703C6.1695 12.23 6.20563 12.2002 6.26161 12.2002C6.32381 12.2002 6.39764 12.2209 6.44519 12.2472C6.44519 12.2472 6.45912 12.2562 6.46425 12.2427C6.46705 12.2355 6.49112 12.1707 6.49363 12.1636C6.49635 12.156 6.49153 12.1504 6.48661 12.1474C6.43236 12.1144 6.3573 12.0918 6.27967 12.0918L6.26522 12.0919C6.13299 12.0919 6.04072 12.1718 6.04072 12.2862V12.2886C6.04072 12.4093 6.14252 12.4484 6.23793 12.4757L6.25327 12.4805C6.32279 12.5018 6.38279 12.5202 6.38279 12.5691V12.5716C6.38279 12.6163 6.34375 12.6496 6.28097 12.6496C6.2566 12.6496 6.17884 12.6491 6.09488 12.596C6.08475 12.5901 6.07872 12.586 6.07112 12.5811C6.0685 12.5794 6.05625 12.5746 6.05203 12.5876L6.02356 12.6666Z" fill="white"/>
<path d="M7.4672 12.4254C7.4672 12.4953 7.45415 12.5504 7.42848 12.5893C7.40309 12.6279 7.36468 12.6466 7.3111 12.6466C7.25743 12.6466 7.21921 12.6279 7.19423 12.5893C7.16896 12.5505 7.15613 12.4953 7.15613 12.4254C7.15613 12.3556 7.16896 12.3006 7.19423 12.2621C7.21921 12.2239 7.25743 12.2054 7.3111 12.2054C7.36468 12.2054 7.40307 12.2239 7.42856 12.262C7.45417 12.3006 7.4672 12.3556 7.4672 12.4254ZM7.58778 12.2958C7.57594 12.2557 7.55749 12.2204 7.5329 12.191C7.50831 12.1616 7.47722 12.1379 7.44029 12.1206C7.40348 12.1035 7.35995 12.0947 7.3111 12.0947C7.26214 12.0947 7.2186 12.1035 7.18179 12.1206C7.14489 12.1379 7.11378 12.1615 7.0891 12.191C7.06462 12.2205 7.04615 12.2558 7.03422 12.2958C7.02249 12.3356 7.0166 12.3791 7.0166 12.4254C7.0166 12.4716 7.02249 12.5153 7.03422 12.555C7.04618 12.5949 7.06451 12.6302 7.08921 12.6597C7.11378 12.6892 7.14497 12.7128 7.18179 12.7295C7.21869 12.7463 7.26214 12.7548 7.3111 12.7548C7.35995 12.7548 7.4034 12.7463 7.44029 12.7295C7.47711 12.7128 7.50831 12.6892 7.5329 12.6597C7.55749 12.6303 7.57594 12.595 7.58778 12.555C7.59962 12.5152 7.60554 12.4715 7.60554 12.4254C7.60554 12.3792 7.59962 12.3356 7.58778 12.2958Z" fill="white"/>
<path d="M8.57786 12.6275C8.57387 12.6158 8.56252 12.6202 8.56252 12.6202C8.54498 12.627 8.52632 12.6332 8.50646 12.6363C8.48458 12.6395 8.46247 12.6411 8.44035 12.641C8.38197 12.641 8.3356 12.6237 8.30239 12.5893C8.2691 12.555 8.25043 12.4995 8.25063 12.4245C8.25085 12.3562 8.26731 12.3048 8.29689 12.2657C8.3263 12.2268 8.37101 12.2068 8.43071 12.2068C8.48047 12.2068 8.51839 12.2125 8.55812 12.225C8.55812 12.225 8.56765 12.2292 8.57216 12.2167C8.58268 12.1874 8.59053 12.1665 8.60176 12.1343C8.60496 12.1251 8.59714 12.1212 8.59433 12.1201C8.57869 12.114 8.54176 12.1041 8.51387 12.0999C8.48779 12.0958 8.45731 12.0938 8.42339 12.0938C8.37272 12.0938 8.32759 12.1024 8.28896 12.1196C8.25043 12.1368 8.21775 12.1604 8.19186 12.1899C8.16598 12.2194 8.14632 12.2548 8.13319 12.2947C8.12013 12.3345 8.11353 12.3782 8.11353 12.4245C8.11353 12.5245 8.14051 12.6054 8.19376 12.6646C8.24713 12.7239 8.32731 12.7542 8.43181 12.7542C8.4936 12.7542 8.55702 12.7416 8.60253 12.7236C8.60253 12.7236 8.61129 12.7194 8.60749 12.7093L8.57786 12.6275Z" fill="white"/>
<path d="M8.78915 12.3584C8.79485 12.3195 8.80559 12.2872 8.82214 12.2621C8.84711 12.2238 8.88522 12.2029 8.93881 12.2029C8.99236 12.2029 9.02777 12.2239 9.05316 12.2621C9.07001 12.2872 9.07734 12.3209 9.08023 12.3584H8.78915ZM9.19511 12.273C9.18487 12.2344 9.15948 12.1953 9.14285 12.1775C9.11655 12.1492 9.09089 12.1294 9.06539 12.1184C9.02839 12.1027 8.9886 12.0947 8.94842 12.0947C8.89747 12.0947 8.85121 12.1033 8.81371 12.1209C8.7761 12.1386 8.74448 12.1626 8.7197 12.1926C8.69492 12.2225 8.67628 12.2581 8.66444 12.2986C8.65249 12.3388 8.64648 12.3827 8.64648 12.4289C8.64648 12.476 8.65271 12.5198 8.66504 12.5592C8.67746 12.5989 8.69734 12.6339 8.72425 12.6629C8.75101 12.6921 8.78551 12.715 8.82684 12.731C8.86787 12.7468 8.91771 12.755 8.97499 12.7549C9.09287 12.7545 9.15499 12.7282 9.18054 12.7141C9.18506 12.7116 9.18938 12.7072 9.18396 12.6945L9.15727 12.6198C9.15328 12.6087 9.14194 12.6128 9.14194 12.6128C9.11275 12.6236 9.07123 12.6431 8.97441 12.6429C8.9111 12.6428 8.86416 12.6241 8.83477 12.5949C8.80457 12.565 8.78984 12.5211 8.78722 12.4591L9.19541 12.4595C9.19541 12.4595 9.20615 12.4593 9.20725 12.4489C9.20764 12.4445 9.2213 12.365 9.19511 12.273Z" fill="white"/>
<path d="M5.52033 12.3584C5.52614 12.3195 5.53677 12.2872 5.55335 12.2621C5.57833 12.2238 5.61644 12.2029 5.67 12.2029C5.72359 12.2029 5.75901 12.2239 5.78448 12.2621C5.80125 12.2872 5.80858 12.3209 5.81147 12.3584H5.52033ZM5.92625 12.273C5.916 12.2344 5.89072 12.1953 5.87406 12.1775C5.84779 12.1492 5.8221 12.1294 5.79663 12.1184C5.75962 12.1027 5.71983 12.0947 5.67964 12.0947C5.62878 12.0947 5.58243 12.1033 5.54493 12.1209C5.50728 12.1386 5.47569 12.1626 5.45091 12.1926C5.42613 12.2225 5.40748 12.2581 5.39564 12.2986C5.3838 12.3388 5.37769 12.3827 5.37769 12.4289C5.37769 12.476 5.38388 12.5198 5.39625 12.5592C5.40867 12.5989 5.42855 12.6339 5.45543 12.6629C5.48222 12.6921 5.51673 12.715 5.55806 12.731C5.59909 12.7468 5.64894 12.755 5.70622 12.7549C5.82411 12.7545 5.88621 12.7282 5.91179 12.7141C5.91631 12.7116 5.9206 12.7072 5.91521 12.6945L5.88863 12.6198C5.8845 12.6087 5.87318 12.6128 5.87318 12.6128C5.84399 12.6236 5.80255 12.6431 5.70553 12.6429C5.64233 12.6428 5.59538 12.6241 5.56599 12.5949C5.53578 12.565 5.52102 12.5211 5.51843 12.4591L5.92663 12.4595C5.92663 12.4595 5.93737 12.4593 5.93848 12.4489C5.93889 12.4445 5.95252 12.365 5.92625 12.273Z" fill="white"/>
<path d="M4.63799 12.6254C4.62202 12.6126 4.61982 12.6094 4.61442 12.6012C4.60638 12.5887 4.60228 12.5708 4.60228 12.5481C4.60228 12.5122 4.61412 12.4864 4.63868 12.4691C4.63841 12.4692 4.67379 12.4385 4.75709 12.4396C4.81555 12.4404 4.86781 12.449 4.86781 12.449V12.6346H4.86792C4.86792 12.6346 4.81604 12.6457 4.75766 12.6492C4.67459 12.6542 4.63769 12.6253 4.63799 12.6254ZM4.8004 12.3386C4.78385 12.3373 4.7624 12.3366 4.73671 12.3366C4.70168 12.3366 4.66787 12.341 4.6362 12.3496C4.60426 12.3581 4.5756 12.3715 4.55093 12.3891C4.52628 12.4067 4.50602 12.4297 4.49172 12.4564C4.4773 12.4833 4.46997 12.515 4.46997 12.5505C4.46997 12.5866 4.47617 12.618 4.48861 12.6437C4.50075 12.6691 4.51907 12.6911 4.54189 12.7075C4.56456 12.7241 4.59256 12.7362 4.62505 12.7436C4.65705 12.7509 4.69334 12.7546 4.73308 12.7546C4.77493 12.7546 4.81665 12.7512 4.85707 12.7442C4.89147 12.7383 4.92575 12.7317 4.95989 12.7244C4.97344 12.7212 4.9885 12.7171 4.9885 12.7171C4.99863 12.7146 4.9978 12.7037 4.9978 12.7037L4.99761 12.3304C4.99761 12.2486 4.97575 12.1879 4.93271 12.1503C4.88989 12.1127 4.82678 12.0938 4.74522 12.0938C4.71465 12.0938 4.66536 12.098 4.6359 12.1039C4.6359 12.1039 4.54669 12.1211 4.50998 12.1498C4.50998 12.1498 4.50197 12.1549 4.50637 12.1661L4.53529 12.2437C4.53887 12.2538 4.54861 12.2504 4.54861 12.2504C4.54861 12.2504 4.55172 12.2492 4.55533 12.2471C4.63386 12.2043 4.73319 12.2056 4.73319 12.2056C4.77733 12.2056 4.81122 12.2144 4.8341 12.232C4.85638 12.2491 4.8677 12.2748 4.8677 12.3292V12.3465C4.83259 12.3414 4.8004 12.3386 4.8004 12.3386Z" fill="white"/>
<path d="M8.09235 12.1286C8.09294 12.1273 8.09324 12.1258 8.09325 12.1243C8.09326 12.1228 8.09297 12.1213 8.0924 12.12C8.09182 12.1186 8.09098 12.1174 8.08992 12.1163C8.08885 12.1153 8.08759 12.1145 8.0862 12.114C8.07929 12.1112 8.04456 12.1039 8.01776 12.1022C7.9665 12.0991 7.93799 12.1077 7.91252 12.1192C7.88723 12.1306 7.85914 12.1491 7.84346 12.17V12.1204C7.84346 12.1135 7.83856 12.108 7.83173 12.108H7.72707C7.72026 12.108 7.71533 12.1135 7.71533 12.1204V12.7293C7.71533 12.7361 7.72095 12.7417 7.72778 12.7417H7.83504C7.83832 12.7417 7.84146 12.7403 7.84377 12.738C7.84609 12.7357 7.84738 12.7325 7.84738 12.7293V12.4251C7.84738 12.3842 7.85189 12.3435 7.86093 12.3179C7.86974 12.2926 7.8818 12.2724 7.89665 12.2578C7.91084 12.2439 7.92814 12.2335 7.94714 12.2275C7.96609 12.2217 7.98708 12.2198 8.00192 12.2198C8.0233 12.2198 8.04676 12.2253 8.04676 12.2253C8.05459 12.2262 8.05902 12.2214 8.06164 12.2143C8.06863 12.1956 8.08852 12.1397 8.09232 12.1286" fill="white"/>
<path d="M7.08592 11.8449C7.07268 11.8409 7.05921 11.8377 7.04558 11.8353C7.02725 11.8323 7.0087 11.8309 6.99013 11.8311C6.91627 11.8311 6.85809 11.8519 6.81728 11.8931C6.77664 11.934 6.74905 11.9963 6.73523 12.0783L6.73019 12.1058H6.6375C6.6375 12.1058 6.62627 12.1054 6.62387 12.1177L6.60873 12.2026C6.60763 12.2107 6.61112 12.2158 6.62194 12.2158H6.71215L6.62065 12.7266C6.61355 12.7678 6.60531 12.8016 6.59617 12.8272C6.58725 12.8525 6.57855 12.8715 6.5677 12.8853C6.55723 12.8986 6.54743 12.9084 6.53036 12.9141C6.51632 12.9188 6.50007 12.9211 6.48231 12.9211C6.47248 12.9211 6.45934 12.9194 6.44962 12.9174C6.442 12.916 6.43459 12.9136 6.42754 12.9103C6.42754 12.9103 6.41702 12.9063 6.41281 12.9168C6.4095 12.9256 6.38541 12.9917 6.38252 12.9998C6.37971 13.0079 6.3837 13.0142 6.38883 13.0161C6.40086 13.0204 6.40978 13.0232 6.42614 13.0271C6.44883 13.0324 6.46799 13.0327 6.48594 13.0327C6.52345 13.0327 6.55776 13.0274 6.58615 13.0172C6.61465 13.0068 6.63951 12.9889 6.6616 12.9646C6.68536 12.9383 6.70031 12.9108 6.71455 12.8732C6.7287 12.8361 6.74084 12.7899 6.75045 12.7361L6.84245 12.2158H6.97688C6.97688 12.2158 6.9882 12.2162 6.99051 12.2039L7.00577 12.119C7.00676 12.1109 7.00337 12.1058 6.99241 12.1058H6.86189C6.86261 12.1029 6.86853 12.057 6.88348 12.0138C6.8899 11.9954 6.90193 11.9804 6.91206 11.9702C6.92162 11.9605 6.93335 11.9532 6.94629 11.9489C6.95923 11.9447 6.97396 11.9427 6.99013 11.9427C7.00235 11.9427 7.01449 11.9441 7.02361 11.946C7.03628 11.9487 7.04118 11.9501 7.04448 11.9511C7.05784 11.9552 7.05963 11.9513 7.06224 11.9448L7.09344 11.8592C7.09666 11.8499 7.08873 11.846 7.08592 11.8449Z" fill="white"/>
<path d="M5.26248 12.7283C5.26248 12.7351 5.25755 12.7406 5.25075 12.7406H5.14251C5.13568 12.7406 5.13086 12.7351 5.13086 12.7283V11.8571C5.13086 11.8503 5.13568 11.8447 5.14251 11.8447H5.25072C5.25755 11.8447 5.26248 11.8502 5.26248 11.8571V12.7283Z" fill="white"/>
</g>
<defs>
<clipPath id="clip0_10825:21147">
<rect width="20.2222" height="4.92939" fill="white" transform="translate(2.88892 10.1113)"/>
</clipPath>
</defs>
</svg>
