<svg width="100%" height="100%" viewBox="0 0 18 18" fill="none" xmlns="http://www.w3.org/2000/svg">
<circle cx="9" cy="9" r="8.5" fill="white" stroke="#E2EAEC"/>
<g clip-path="url(#salesforcedatorama0)">
<path d="M4.45563 6.84512C4.68858 6.60507 5.01288 6.4562 5.37153 6.4562C5.84834 6.4562 6.26432 6.71915 6.48583 7.10949C6.68398 7.02196 6.89861 6.97684 7.11563 6.9771C7.97557 6.9771 8.67273 7.6726 8.67273 8.53056C8.67273 9.38857 7.97557 10.0841 7.11563 10.0841C7.01068 10.0841 6.9081 10.0737 6.80892 10.0538C6.61382 10.398 6.24209 10.6305 5.81541 10.6305C5.64286 10.6307 5.47254 10.592 5.31744 10.5172C5.11969 10.9772 4.65895 11.2998 4.12195 11.2998C3.56276 11.2998 3.0862 10.9498 2.90324 10.4591C2.82332 10.4758 2.74048 10.4846 2.6555 10.4846C1.98972 10.4846 1.44995 9.94525 1.44995 9.27991C1.44947 9.06904 1.50488 8.86173 1.61065 8.67863C1.71642 8.49554 1.86886 8.34305 2.05278 8.23638C1.97641 8.0625 1.93711 7.87491 1.93733 7.68534C1.93733 6.92012 2.56547 6.2998 3.34026 6.2998C3.79513 6.2998 4.19939 6.51371 4.45566 6.84512" fill="#0097D8"/>
<path d="M2.49614 8.89265C2.49162 8.90438 2.49777 8.90681 2.49924 8.90885C2.5128 8.91862 2.52658 8.92561 2.54048 8.93346C2.61416 8.97211 2.68369 8.98343 2.75645 8.98343C2.9046 8.98343 2.99659 8.9055 2.99659 8.78V8.77757C2.99659 8.66157 2.89277 8.61942 2.79533 8.58903L2.78268 8.58492C2.70922 8.56132 2.64585 8.54099 2.64585 8.49314V8.49062C2.64585 8.4497 2.68287 8.41957 2.74029 8.41957C2.80409 8.41957 2.87981 8.44054 2.92858 8.46719C2.92858 8.46719 2.94287 8.47635 2.94812 8.46264C2.95101 8.45529 2.97569 8.38957 2.97829 8.38244C2.98106 8.37471 2.97611 8.36901 2.97109 8.36596C2.91542 8.33247 2.83846 8.30957 2.75882 8.30957L2.74399 8.30968C2.6084 8.30968 2.51373 8.39068 2.51373 8.5068V8.50923C2.51373 8.63165 2.61817 8.67132 2.716 8.699L2.73176 8.7038C2.80304 8.72548 2.8645 8.74408 2.8645 8.79374V8.7962C2.8645 8.84156 2.82457 8.87536 2.76014 8.87536C2.73515 8.87536 2.65542 8.87486 2.56928 8.821C2.55889 8.815 2.55282 8.81064 2.5448 8.80586C2.54056 8.80321 2.53 8.7986 2.52537 8.81246L2.49614 8.89265Z" fill="white"/>
<path d="M4.66508 8.89265C4.66056 8.90438 4.66672 8.90681 4.66819 8.90885C4.68174 8.91862 4.69553 8.92561 4.70942 8.93346C4.78308 8.97211 4.85264 8.98343 4.92539 8.98343C5.07355 8.98343 5.16553 8.9055 5.16553 8.78V8.77757C5.16553 8.66157 5.06172 8.61942 4.96428 8.58903L4.95163 8.58492C4.87817 8.56132 4.81477 8.54099 4.81477 8.49314V8.49062C4.81477 8.4497 4.85182 8.41957 4.90924 8.41957C4.97303 8.41957 5.04875 8.44054 5.09753 8.46719C5.09753 8.46719 5.11182 8.47635 5.11707 8.46264C5.11995 8.45529 5.14463 8.38957 5.1472 8.38244C5.15 8.37471 5.14506 8.36901 5.14 8.36596C5.08437 8.33247 5.00738 8.30957 4.92776 8.30957L4.91294 8.30968C4.77732 8.30968 4.68268 8.39068 4.68268 8.5068V8.50923C4.68268 8.63165 4.78709 8.67132 4.88495 8.699L4.90068 8.7038C4.97199 8.72548 5.03353 8.74408 5.03353 8.79374V8.7962C5.03353 8.84156 4.99348 8.87536 4.92909 8.87536C4.9041 8.87536 4.82434 8.87486 4.73823 8.821C4.72784 8.815 4.72165 8.81084 4.71386 8.80586C4.71117 8.80413 4.69861 8.79933 4.69428 8.81246L4.66508 8.89265Z" fill="white"/>
<path d="M6.14575 8.6469C6.14575 8.71785 6.13236 8.77371 6.10604 8.81318C6.08 8.85228 6.0406 8.87128 5.98564 8.87128C5.9306 8.87128 5.8914 8.85237 5.86578 8.81318C5.83986 8.7738 5.8267 8.71785 5.8267 8.6469C5.8267 8.57609 5.83986 8.52031 5.86578 8.48127C5.8914 8.44258 5.9306 8.42375 5.98564 8.42375C6.0406 8.42375 6.07997 8.44258 6.10613 8.48124C6.13239 8.52034 6.14575 8.57609 6.14575 8.6469ZM6.26942 8.51545C6.25728 8.47484 6.23836 8.43903 6.21314 8.4092C6.18792 8.37931 6.15603 8.35529 6.11816 8.33778C6.0804 8.32038 6.03575 8.31152 5.98564 8.31152C5.93543 8.31152 5.89078 8.32038 5.85302 8.33778C5.81517 8.35526 5.78326 8.37929 5.75796 8.4092C5.73285 8.43912 5.7139 8.47495 5.70167 8.51545C5.68964 8.55584 5.68359 8.6 5.68359 8.6469C5.68359 8.69383 5.68964 8.7381 5.70167 8.77838C5.71393 8.81888 5.73274 8.85471 5.75807 8.88463C5.78326 8.91452 5.81526 8.93845 5.85302 8.95544C5.89086 8.97245 5.93543 8.98108 5.98564 8.98108C6.03575 8.98108 6.08031 8.97242 6.11816 8.95544C6.15592 8.93845 6.18792 8.91454 6.21314 8.88463C6.23836 8.8548 6.25728 8.81899 6.26942 8.77838C6.28157 8.73799 6.28764 8.69374 6.28764 8.6469C6.28764 8.60012 6.28157 8.55584 6.26942 8.51545Z" fill="white"/>
<path d="M7.28509 8.85198C7.28099 8.84008 7.26936 8.84455 7.26936 8.84455C7.25137 8.85139 7.23222 8.85768 7.21185 8.86083C7.18941 8.86413 7.16674 8.86574 7.14404 8.86564C7.08417 8.86564 7.03661 8.84804 7.00255 8.81321C6.96841 8.77841 6.94926 8.72215 6.94946 8.64604C6.94968 8.57674 6.96657 8.52464 6.9969 8.48495C7.02707 8.44546 7.07293 8.42521 7.13416 8.42521C7.18519 8.42521 7.22408 8.43102 7.26484 8.44373C7.26484 8.44373 7.27461 8.44792 7.27924 8.43529C7.29003 8.40557 7.29808 8.38431 7.3096 8.35163C7.31288 8.34239 7.30486 8.33842 7.30198 8.33731C7.28593 8.33108 7.24806 8.32102 7.21945 8.31675C7.19271 8.31267 7.16144 8.31055 7.12665 8.31055C7.07468 8.31055 7.02839 8.31929 6.98877 8.3368C6.94926 8.35418 6.91573 8.3782 6.88919 8.40811C6.86264 8.43803 6.84247 8.47386 6.829 8.51437C6.81562 8.55476 6.80884 8.59911 6.80884 8.64604C6.80884 8.74749 6.83652 8.82949 6.89114 8.88955C6.94587 8.94977 7.02811 8.98041 7.13529 8.98041C7.19867 8.98041 7.26371 8.9677 7.31039 8.94946C7.31039 8.94946 7.31937 8.94519 7.31548 8.93494L7.28509 8.85198Z" fill="white"/>
<path d="M7.50143 8.57894C7.50727 8.53956 7.51829 8.5068 7.53526 8.48127C7.56088 8.4425 7.59996 8.42121 7.65492 8.42121C7.70985 8.42121 7.74617 8.44258 7.77221 8.48127C7.7895 8.5068 7.79701 8.54098 7.79997 8.57894H7.50143ZM7.9178 8.49235C7.90729 8.45317 7.88125 8.41359 7.8642 8.39546C7.83722 8.36677 7.8109 8.34672 7.78475 8.33555C7.7468 8.31963 7.706 8.31146 7.66478 8.31152C7.61253 8.31152 7.56508 8.32018 7.52662 8.33806C7.48804 8.35599 7.45562 8.3804 7.4302 8.41085C7.40478 8.44116 7.38566 8.47727 7.37352 8.5183C7.36126 8.55908 7.3551 8.60358 7.3551 8.65048C7.3551 8.69821 7.36149 8.74265 7.37414 8.78265C7.38688 8.82296 7.40727 8.85846 7.43486 8.88787C7.46231 8.91748 7.4977 8.94069 7.54009 8.95686C7.58217 8.97295 7.63329 8.9813 7.69203 8.98119C7.81294 8.98077 7.87665 8.9541 7.90286 8.93977C7.90749 8.93725 7.91193 8.93276 7.90636 8.91994L7.879 8.84413C7.8749 8.83282 7.86326 8.83701 7.86326 8.83701C7.83333 8.84798 7.79074 8.86773 7.69144 8.86754C7.62651 8.86742 7.57836 8.84849 7.54822 8.81888C7.51724 8.78857 7.50213 8.74399 7.49945 8.68112L7.91811 8.68151C7.91811 8.68151 7.92912 8.68131 7.93025 8.67073C7.93065 8.66626 7.94466 8.58565 7.9178 8.49235Z" fill="white"/>
<path d="M4.14861 8.57894C4.15457 8.53956 4.16547 8.5068 4.18248 8.48127C4.20809 8.4425 4.24718 8.42121 4.30211 8.42121C4.35707 8.42121 4.39339 8.44258 4.41951 8.48127C4.43671 8.5068 4.44423 8.54098 4.44719 8.57894H4.14861ZM4.5649 8.49235C4.5544 8.45317 4.52847 8.41359 4.51139 8.39546C4.48444 8.36677 4.45809 8.34672 4.43197 8.33555C4.39402 8.31963 4.35321 8.31146 4.312 8.31152C4.25983 8.31152 4.2123 8.32018 4.17383 8.33806C4.13523 8.35599 4.10283 8.3804 4.07742 8.41085C4.052 8.44116 4.03288 8.47727 4.02073 8.5183C4.00859 8.55908 4.00232 8.60358 4.00232 8.65048C4.00232 8.69821 4.00867 8.74265 4.02135 8.78265C4.03409 8.82296 4.05448 8.85846 4.08205 8.88787C4.10953 8.91748 4.14491 8.94069 4.18731 8.95686C4.22939 8.97295 4.28051 8.9813 4.33925 8.98119C4.46015 8.98077 4.52384 8.9541 4.55008 8.93977C4.55471 8.93725 4.55911 8.93276 4.55358 8.91994L4.52633 8.84413C4.52209 8.83282 4.51048 8.83701 4.51048 8.83701C4.48054 8.84798 4.43804 8.86773 4.33854 8.86754C4.27373 8.86742 4.22557 8.84849 4.19544 8.81888C4.16446 8.78857 4.14932 8.74399 4.14667 8.68112L4.5653 8.68151C4.5653 8.68151 4.57631 8.68131 4.57744 8.67073C4.57787 8.66626 4.59185 8.58565 4.5649 8.49235Z" fill="white"/>
<path d="M3.24375 8.84977C3.22736 8.83684 3.22511 8.83357 3.21957 8.82525C3.21132 8.81254 3.20711 8.79441 3.20711 8.77142C3.20711 8.735 3.21926 8.70886 3.24445 8.69126C3.24417 8.69134 3.28046 8.6602 3.36589 8.66132C3.42585 8.66215 3.47945 8.6709 3.47945 8.6709V8.85916H3.47957C3.47957 8.85916 3.42636 8.87044 3.36649 8.87399C3.28128 8.87907 3.24343 8.84969 3.24375 8.84977ZM3.41032 8.55886C3.39334 8.55763 3.37134 8.55691 3.34499 8.55691C3.30907 8.55691 3.27439 8.56138 3.24191 8.57003C3.20915 8.57869 3.17975 8.59224 3.15444 8.61014C3.12916 8.62798 3.10838 8.65134 3.09372 8.67841C3.07892 8.7057 3.07141 8.73785 3.07141 8.77385C3.07141 8.8105 3.07777 8.84234 3.09053 8.8684C3.10298 8.89416 3.12177 8.91642 3.14518 8.93312C3.16842 8.94988 3.19715 8.96223 3.23047 8.96966C3.26329 8.97709 3.30051 8.98083 3.34127 8.98083C3.38419 8.98083 3.42698 8.97739 3.46844 8.97035C3.50373 8.96434 3.53889 8.95763 3.5739 8.95021C3.58779 8.94695 3.60324 8.94278 3.60324 8.94278C3.61363 8.94024 3.61279 8.92924 3.61279 8.92924L3.61259 8.55062C3.61259 8.46758 3.59016 8.40602 3.54602 8.36786C3.5021 8.32979 3.43737 8.31055 3.35372 8.31055C3.32237 8.31055 3.27182 8.31485 3.2416 8.32083C3.2416 8.32083 3.15009 8.33834 3.11245 8.36744C3.11245 8.36744 3.10423 8.37253 3.10875 8.38392L3.1384 8.46269C3.14207 8.47286 3.15207 8.4694 3.15207 8.4694C3.15207 8.4694 3.15526 8.46819 3.15896 8.46604C3.23951 8.42269 3.34138 8.42403 3.34138 8.42403C3.38665 8.42403 3.42142 8.43297 3.44489 8.45079C3.46773 8.46808 3.47934 8.49423 3.47934 8.54939V8.56688C3.44333 8.56179 3.41032 8.55886 3.41032 8.55886Z" fill="white"/>
<path d="M6.78697 8.3458C6.78757 8.34442 6.78789 8.34293 6.7879 8.34142C6.78791 8.33992 6.78761 8.33843 6.78702 8.33704C6.78643 8.33565 6.78557 8.3344 6.78448 8.33335C6.78339 8.3323 6.78209 8.33148 6.78067 8.33094C6.77358 8.32817 6.73797 8.32074 6.71049 8.31901C6.65793 8.31585 6.6287 8.3246 6.60258 8.33622C6.57665 8.34781 6.54784 8.36655 6.53177 8.38781V8.33747C6.53177 8.33043 6.52675 8.32485 6.51974 8.32485H6.41242C6.40545 8.32485 6.40039 8.33043 6.40039 8.33747V8.95505C6.40039 8.96195 6.40615 8.96764 6.41316 8.96764H6.52313C6.5265 8.96763 6.52972 8.96629 6.53209 8.96393C6.53446 8.96157 6.53579 8.95838 6.53578 8.95505V8.64648C6.53578 8.60506 6.54042 8.56375 6.54968 8.5378C6.55872 8.51216 6.57109 8.4916 6.58631 8.47685C6.60085 8.46269 6.6186 8.45216 6.63808 8.44613C6.65751 8.44021 6.67903 8.43831 6.69425 8.43831C6.71617 8.43831 6.74023 8.44389 6.74023 8.44389C6.74825 8.44479 6.7528 8.4399 6.75548 8.43269C6.76265 8.41376 6.78304 8.35708 6.78694 8.3458" fill="white"/>
<path d="M5.7545 8.05897C5.74092 8.0549 5.7271 8.05164 5.71313 8.04919C5.69433 8.04614 5.6753 8.04472 5.65625 8.04494C5.5805 8.04494 5.52083 8.06609 5.47897 8.10782C5.43729 8.14933 5.40899 8.21254 5.39481 8.29566L5.38964 8.32365H5.29458C5.29458 8.32365 5.28306 8.32323 5.2806 8.33566L5.26507 8.42183C5.26394 8.42999 5.26752 8.43518 5.27862 8.43518H5.37114L5.27729 8.95332C5.27001 8.99505 5.26156 9.02935 5.25219 9.05538C5.24304 9.08102 5.23411 9.10027 5.22298 9.11432C5.21225 9.12772 5.2022 9.13772 5.18469 9.1435C5.17028 9.14828 5.15362 9.15054 5.13541 9.15054C5.12532 9.15054 5.11185 9.1489 5.10188 9.14686C5.09407 9.14536 5.08646 9.14294 5.07923 9.13965C5.07923 9.13965 5.06844 9.13557 5.06412 9.14627C5.06073 9.15512 5.03602 9.22216 5.03306 9.2304C5.03018 9.23864 5.03427 9.24507 5.03952 9.24699C5.05187 9.25127 5.06102 9.25412 5.07779 9.25808C5.10106 9.26347 5.12072 9.26378 5.13913 9.26378C5.1776 9.26378 5.21279 9.25839 5.24191 9.24803C5.27114 9.23752 5.29664 9.21931 5.31929 9.19468C5.34366 9.16803 5.359 9.14015 5.3736 9.102C5.38812 9.06435 5.40057 9.01753 5.41043 8.96298L5.50479 8.43518H5.64266C5.64266 8.43518 5.65427 8.43557 5.65664 8.42306L5.67229 8.33697C5.67331 8.32873 5.66983 8.32365 5.65859 8.32365H5.52472C5.52546 8.32069 5.53153 8.2741 5.54687 8.23024C5.55345 8.21161 5.56579 8.19645 5.57618 8.18606C5.58598 8.17621 5.59802 8.16882 5.61129 8.16449C5.62456 8.16022 5.63967 8.15818 5.65625 8.15818C5.66879 8.15818 5.68124 8.1596 5.69059 8.16153C5.70358 8.1643 5.70861 8.16572 5.712 8.16673C5.7257 8.17081 5.72753 8.16684 5.73022 8.1603L5.76221 8.07343C5.76552 8.06405 5.75738 8.06008 5.7545 8.05897Z" fill="white"/>
<path d="M3.88427 8.95479C3.88427 8.96169 3.87921 8.9673 3.87223 8.9673H3.76121C3.75421 8.9673 3.74927 8.96172 3.74927 8.95479V8.07111C3.74927 8.06421 3.75421 8.05859 3.76121 8.05859H3.87221C3.87921 8.05859 3.88427 8.06418 3.88427 8.07111V8.95479Z" fill="white"/>
<g clip-path="url(#salesforcedatorama1)">
<path d="M9.93867 9.06001H9.8027C9.79519 9.01537 9.79108 8.97018 9.7904 8.92486H9.78696C9.72139 9.03149 9.61698 9.08485 9.47371 9.08493C9.34979 9.08493 9.25484 9.04107 9.18886 8.95334C9.12288 8.86562 9.0901 8.75119 9.09051 8.61007C9.08936 8.52574 9.10615 8.44219 9.13969 8.36532C9.16994 8.29536 9.21853 8.23555 9.27996 8.19267C9.34382 8.14948 9.41883 8.12732 9.4951 8.1291C9.61214 8.1291 9.70738 8.16826 9.78082 8.24657V7.7998H9.92662V8.85926C9.92671 8.92637 9.93073 8.99341 9.93867 9.06001ZM9.78032 8.6702V8.38541C9.74934 8.34334 9.70965 8.30898 9.66415 8.28484C9.61764 8.26215 9.56668 8.25088 9.51527 8.25191C9.43027 8.25191 9.36344 8.28514 9.31475 8.35159C9.26607 8.41804 9.24168 8.50407 9.2416 8.60968C9.2416 8.71886 9.26512 8.80523 9.31217 8.8688C9.35921 8.93237 9.42388 8.96411 9.50617 8.96402C9.58878 8.96402 9.65505 8.93643 9.70496 8.88126C9.75537 8.82595 9.78032 8.75577 9.78032 8.6702Z" fill="#14377D"/>
<path d="M10.0933 8.81242C10.0933 8.69494 10.1342 8.61336 10.2162 8.56768C10.2982 8.52199 10.422 8.49915 10.5878 8.49915C10.6281 8.49915 10.6585 8.49974 10.6791 8.50093V8.44931C10.6791 8.3815 10.6613 8.33107 10.6257 8.29801C10.5901 8.26496 10.5354 8.24856 10.4616 8.24881C10.3687 8.24866 10.2776 8.27506 10.1983 8.3251L10.1466 8.22338C10.2437 8.16091 10.3559 8.12816 10.4702 8.12892C10.5931 8.12892 10.6829 8.15859 10.7396 8.21792C10.7962 8.27725 10.8246 8.36743 10.8248 8.48847V8.85908C10.825 8.92628 10.8291 8.9934 10.837 9.06009H10.7026C10.6955 9.01952 10.6914 8.97847 10.6903 8.93727H10.6851C10.6547 8.98445 10.6129 9.02255 10.5638 9.04776C10.5151 9.07268 10.4522 9.08509 10.3753 9.08501C10.2905 9.08501 10.2222 9.06162 10.1705 9.01483C10.1188 8.96804 10.093 8.90057 10.0933 8.81242ZM10.6785 8.72533V8.60785L10.601 8.60595C10.532 8.60435 10.4631 8.61036 10.3953 8.62387C10.3443 8.63566 10.3064 8.65579 10.2817 8.68426C10.2571 8.71274 10.2448 8.7525 10.2448 8.80352C10.2448 8.85582 10.2598 8.89587 10.2896 8.92367C10.3194 8.95147 10.3607 8.96541 10.4135 8.9655C10.4635 8.9669 10.5128 8.95429 10.5564 8.92901C10.594 8.90726 10.6255 8.87564 10.6476 8.83734C10.6674 8.80354 10.6781 8.76485 10.6785 8.72533Z" fill="#14377D"/>
<path d="M11.2258 8.15446H11.4581V8.27003H11.2258V8.81673C11.2258 8.91395 11.2688 8.96256 11.3548 8.96256C11.384 8.96274 11.413 8.95845 11.4409 8.94984L11.4633 9.06198C11.4197 9.07815 11.3736 9.08595 11.3273 9.08499C11.2505 9.08499 11.19 9.06274 11.1457 9.01825C11.1015 8.97375 11.0794 8.91064 11.0796 8.82893V8.26952H10.9247V8.17175L11.0779 8.15395V7.93146L11.2254 7.87793L11.2258 8.15446Z" fill="#14377D"/>
<path d="M12.4049 8.60479C12.4064 8.69121 12.3884 8.77681 12.3523 8.85475C12.3191 8.92549 12.2664 8.9845 12.2009 9.02435C12.1349 9.06461 12.056 9.08474 11.9643 9.08474C11.8725 9.08474 11.7939 9.06427 11.7283 9.02333C11.6627 8.98349 11.61 8.92431 11.577 8.85335C11.5414 8.77575 11.5237 8.69067 11.5252 8.60479C11.5252 8.46002 11.5637 8.34462 11.6406 8.25859C11.7174 8.17256 11.8255 8.12933 11.9648 8.12891C12.0575 8.12891 12.1369 8.14882 12.203 8.18866C12.2681 8.2273 12.3206 8.28522 12.3536 8.35496C12.3894 8.43292 12.407 8.51851 12.4049 8.60479ZM11.6767 8.60479C11.6767 8.71277 11.7005 8.79965 11.7481 8.86543C11.7958 8.9312 11.868 8.964 11.9648 8.96383C12.0622 8.96383 12.135 8.93086 12.1832 8.86492C12.2314 8.79897 12.2555 8.7121 12.2555 8.60428C12.2555 8.49621 12.2314 8.41014 12.1832 8.34606C12.135 8.28198 12.0622 8.24994 11.9648 8.24994C11.8671 8.24994 11.7948 8.28198 11.7479 8.34606C11.7009 8.41014 11.6772 8.49638 11.6767 8.60479Z" fill="#14377D"/>
<path d="M12.5872 8.35738C12.5871 8.28937 12.583 8.22144 12.575 8.15395H12.7147C12.7213 8.20172 12.7254 8.2498 12.727 8.298H12.7305C12.781 8.18536 12.8728 8.12899 13.0059 8.12891C13.0226 8.12965 13.0393 8.13148 13.0558 8.13437L13.0472 8.26418C13.0295 8.26145 13.0117 8.2603 12.9938 8.26075C12.9101 8.26075 12.8459 8.28978 12.801 8.34784C12.7562 8.4059 12.7338 8.4813 12.7339 8.57402V9.05982H12.5876L12.5872 8.35738Z" fill="#14377D"/>
<path d="M13.0521 8.81242C13.0521 8.69495 13.0931 8.61336 13.1751 8.56768C13.257 8.52199 13.3807 8.49915 13.546 8.49915C13.5861 8.49915 13.6166 8.49974 13.6373 8.50093V8.44931C13.6373 8.3815 13.6195 8.33107 13.5838 8.29802C13.5482 8.26496 13.4937 8.24856 13.4205 8.24881C13.3276 8.24871 13.2366 8.2751 13.1574 8.3251L13.1056 8.22338C13.2027 8.16089 13.3149 8.12813 13.4293 8.12892C13.5522 8.12892 13.642 8.15859 13.6987 8.21792C13.7553 8.27725 13.7837 8.36743 13.7839 8.48847V8.85908C13.784 8.92628 13.7881 8.99341 13.7962 9.06009H13.6614C13.6543 9.01953 13.6502 8.97847 13.6491 8.93727H13.644C13.6135 8.9844 13.5717 9.02248 13.5226 9.04776C13.4734 9.07268 13.4106 9.08509 13.3341 9.08501C13.2492 9.08501 13.1809 9.06162 13.1292 9.01483C13.0775 8.96804 13.0518 8.90057 13.0521 8.81242ZM13.6373 8.72533V8.60785L13.5597 8.60595C13.4908 8.60433 13.4218 8.61034 13.3541 8.62387C13.3029 8.63566 13.2651 8.65579 13.2405 8.68427C13.2159 8.71275 13.2036 8.7525 13.2036 8.80352C13.2036 8.85582 13.2185 8.89587 13.2483 8.92367C13.2782 8.95147 13.3195 8.96541 13.3723 8.9655C13.4222 8.96688 13.4715 8.95427 13.5151 8.92901C13.5528 8.90726 13.5842 8.87564 13.6063 8.83734C13.6259 8.80347 13.6365 8.76481 13.6368 8.72533H13.6373Z" fill="#14377D"/>
<path d="M14.0158 8.35701C14.0157 8.28901 14.0116 8.22107 14.0035 8.15358H14.143C14.1498 8.19593 14.1539 8.2387 14.1552 8.28161H14.1587C14.1876 8.23518 14.2276 8.19723 14.2749 8.17138C14.3282 8.14209 14.3879 8.12751 14.4482 8.12905C14.5229 8.12905 14.5837 8.14536 14.6307 8.178C14.6777 8.21068 14.7138 8.25768 14.7339 8.31251H14.7374C14.7657 8.25717 14.8079 8.21072 14.8596 8.178C14.9159 8.14412 14.9803 8.12717 15.0455 8.12905C15.1177 8.12905 15.178 8.14536 15.2262 8.178C15.2731 8.20905 15.3102 8.25359 15.3329 8.30615C15.3562 8.3608 15.3679 8.41997 15.3673 8.4797V9.05996H15.221V8.50055C15.221 8.43062 15.2046 8.37193 15.1718 8.32446C15.1391 8.27699 15.0864 8.25339 15.0137 8.25364C14.9654 8.25255 14.918 8.26752 14.8785 8.29636C14.8402 8.32559 14.8104 8.36519 14.7924 8.41079C14.7728 8.45929 14.7628 8.5114 14.7632 8.56399V9.06047H14.6169V8.4975C14.6189 8.43558 14.6014 8.37466 14.567 8.32395C14.5342 8.27716 14.482 8.25373 14.4103 8.25364C14.3346 8.25364 14.2744 8.28123 14.2296 8.33641C14.1843 8.39363 14.1604 8.46587 14.1625 8.53984V9.05958H14.0162L14.0158 8.35701Z" fill="#14377D"/>
<path d="M15.5063 8.81242C15.5063 8.69494 15.5473 8.61336 15.6293 8.56768C15.7112 8.52199 15.8349 8.49915 16.0002 8.49915C16.0404 8.49915 16.0708 8.49974 16.0914 8.50093V8.44931C16.0914 8.3815 16.0736 8.33107 16.0381 8.29801C16.0025 8.26496 15.9479 8.24856 15.8743 8.24881C15.7814 8.24866 15.6903 8.27506 15.611 8.3251L15.5593 8.22338C15.6564 8.16091 15.7686 8.12816 15.8829 8.12892C16.0059 8.12892 16.0956 8.15859 16.1523 8.21792C16.2089 8.27725 16.2373 8.36743 16.2375 8.48847V8.85908C16.2377 8.92628 16.2418 8.9934 16.2498 9.06009H16.1156C16.1086 9.01952 16.1045 8.97847 16.1033 8.93727H16.0982C16.0678 8.98445 16.0259 9.02255 15.9768 9.04776C15.9282 9.07268 15.8653 9.08509 15.7884 9.08501C15.7035 9.08501 15.6353 9.06162 15.5836 9.01483C15.5318 8.96804 15.5061 8.90057 15.5063 8.81242ZM16.0915 8.72533V8.60785L16.0141 8.60595C15.9451 8.60435 15.8762 8.61036 15.8084 8.62387C15.7574 8.63566 15.7195 8.65579 15.6948 8.68426C15.6701 8.71274 15.6579 8.7525 15.6579 8.80352C15.6579 8.85582 15.6729 8.89587 15.7027 8.92367C15.7325 8.95147 15.7738 8.96541 15.8266 8.9655C15.8765 8.9669 15.9259 8.95429 15.9695 8.92901C16.0071 8.90726 16.0386 8.87564 16.0607 8.83734C16.0805 8.80354 16.0911 8.76485 16.0915 8.72533Z" fill="#14377D"/>
</g>
</g>
<defs>
<clipPath id="salesforcedatorama0">
<rect width="15.5" height="5.66832" fill="white" transform="translate(1.25 6)"/>
</clipPath>
<clipPath id="salesforcedatorama1">
<rect width="7.16" height="1.28513" fill="white" transform="translate(9.08997 7.7998)"/>
</clipPath>
</defs>
</svg>
