<svg width="100%" height="100%" viewBox="0 0 18 18" fill="none" xmlns="http://www.w3.org/2000/svg">
<circle cx="9" cy="9" r="8.5" fill="white" stroke="#E2EAEC"/>
<path d="M7.83883 5.21128C8.28538 4.746 8.90708 4.45743 9.59461 4.45743C10.5087 4.45743 11.3061 4.96711 11.7307 5.72373C12.1106 5.55406 12.522 5.4666 12.9381 5.4671C14.5866 5.4671 15.9231 6.8152 15.9231 8.47819C15.9231 10.1413 14.5866 11.4894 12.9381 11.4894C12.7369 11.4894 12.5402 11.4693 12.3501 11.4308C11.9761 12.0979 11.2635 12.5486 10.4455 12.5486C10.1148 12.549 9.78825 12.4738 9.49093 12.3288C9.11184 13.2205 8.22859 13.8459 7.19916 13.8459C6.12717 13.8459 5.2136 13.1675 4.86288 12.2162C4.70966 12.2488 4.55087 12.2658 4.38796 12.2658C3.11165 12.2658 2.07691 11.2203 2.07691 9.93067C2.07599 9.52194 2.18221 9.1201 2.38497 8.7652C2.58773 8.41031 2.87997 8.11475 3.23254 7.90798C3.08614 7.57094 3.01079 7.20735 3.01122 6.83989C3.01122 5.35665 4.21536 4.1543 5.70065 4.1543C6.57264 4.1543 7.34761 4.56891 7.83888 5.21128" fill="#009ED8"/>
<path d="M4.08235 9.17999C4.07369 9.20273 4.08549 9.20744 4.0883 9.21139C4.11429 9.23034 4.14071 9.24388 4.16735 9.25909C4.3086 9.33402 4.4419 9.35595 4.58136 9.35595C4.86538 9.35595 5.04172 9.20489 5.04172 8.96164V8.95693C5.04172 8.73208 4.8427 8.65039 4.65591 8.59148L4.63166 8.58352C4.49084 8.53777 4.36935 8.49836 4.36935 8.40562V8.40074C4.36935 8.32143 4.44033 8.26301 4.55039 8.26301C4.6727 8.26301 4.81785 8.30367 4.91135 8.35532C4.91135 8.35532 4.93874 8.37308 4.94881 8.3465C4.95434 8.33226 5.00166 8.20486 5.00664 8.19106C5.01194 8.17606 5.00247 8.16502 4.99283 8.15911C4.88612 8.0942 4.73859 8.0498 4.58591 8.0498L4.55749 8.05002C4.29756 8.05002 4.11608 8.20703 4.11608 8.43209V8.4368C4.11608 8.6741 4.31629 8.75098 4.50383 8.80463L4.53404 8.81395C4.67069 8.85596 4.7885 8.89202 4.7885 8.98828V8.99304C4.7885 9.08097 4.71195 9.14648 4.58845 9.14648C4.54054 9.14648 4.3877 9.1455 4.22257 9.04112C4.20265 9.02948 4.19101 9.02103 4.17563 9.01178C4.16751 9.00663 4.14726 8.9977 4.13838 9.02455L4.08235 9.17999Z" fill="white"/>
<path d="M8.24031 9.17999C8.23164 9.20273 8.24345 9.20744 8.24626 9.21139C8.27225 9.23034 8.29867 9.24388 8.32531 9.25909C8.46651 9.33402 8.59985 9.35595 8.73932 9.35595C9.02334 9.35595 9.19968 9.20489 9.19968 8.96164V8.95693C9.19968 8.73208 9.00066 8.65039 8.81387 8.59148L8.78962 8.58352C8.6488 8.53777 8.52725 8.49836 8.52725 8.40562V8.40074C8.52725 8.32143 8.59828 8.26301 8.70835 8.26301C8.83066 8.26301 8.97581 8.30367 9.06931 8.35532C9.06931 8.35532 9.0967 8.37308 9.10677 8.3465C9.1123 8.33226 9.15962 8.20486 9.16454 8.19106C9.1699 8.17606 9.16043 8.16502 9.15074 8.15911C9.04408 8.0942 8.89649 8.0498 8.74387 8.0498L8.71545 8.05002C8.45546 8.05002 8.27404 8.20703 8.27404 8.43209V8.4368C8.27404 8.6741 8.47419 8.75098 8.66179 8.80463L8.69195 8.81395C8.82865 8.85596 8.94663 8.89202 8.94663 8.98828V8.99304C8.94663 9.08097 8.86985 9.14648 8.74641 9.14648C8.6985 9.14648 8.54561 9.1455 8.38053 9.04112C8.36061 9.02948 8.34875 9.02141 8.33381 9.01178C8.32866 9.00842 8.30457 8.99911 8.29629 9.02455L8.24031 9.17999Z" fill="white"/>
<path d="M11.0788 8.7028C11.0788 8.84032 11.0532 8.9486 11.0027 9.0251C10.9528 9.1009 10.8773 9.13771 10.7719 9.13771C10.6664 9.13771 10.5912 9.10106 10.5421 9.0251C10.4924 8.94876 10.4672 8.84032 10.4672 8.7028C10.4672 8.56555 10.4924 8.45744 10.5421 8.38175C10.5912 8.30676 10.6664 8.27027 10.7719 8.27027C10.8773 8.27027 10.9527 8.30676 11.0029 8.38169C11.0532 8.45749 11.0788 8.56555 11.0788 8.7028ZM11.3159 8.44802C11.2926 8.36929 11.2564 8.29989 11.208 8.24206C11.1597 8.18413 11.0985 8.13757 11.0259 8.10363C10.9535 8.0699 10.868 8.05273 10.7719 8.05273C10.6756 8.05273 10.59 8.0699 10.5177 8.10363C10.4451 8.13752 10.3839 8.18408 10.3354 8.24206C10.2873 8.30005 10.251 8.36951 10.2275 8.44802C10.2045 8.5263 10.1929 8.6119 10.1929 8.7028C10.1929 8.79376 10.2045 8.87957 10.2275 8.95764C10.251 9.03615 10.2871 9.10561 10.3356 9.16359C10.3839 9.22152 10.4453 9.26792 10.5177 9.30084C10.5902 9.33381 10.6756 9.35054 10.7719 9.35054C10.868 9.35054 10.9534 9.33376 11.0259 9.30084C11.0983 9.26792 11.1597 9.22158 11.208 9.16359C11.2564 9.10577 11.2926 9.03636 11.3159 8.95764C11.3392 8.87935 11.3508 8.79359 11.3508 8.7028C11.3508 8.61212 11.3392 8.5263 11.3159 8.44802Z" fill="white"/>
<path d="M13.263 9.10122C13.2551 9.07816 13.2328 9.08682 13.2328 9.08682C13.1983 9.10008 13.1616 9.11226 13.1226 9.11838C13.0795 9.12478 13.0361 9.12789 12.9926 9.12769C12.8778 9.12769 12.7866 9.09359 12.7213 9.02607C12.6559 8.95861 12.6192 8.84957 12.6195 8.70204C12.62 8.56772 12.6524 8.46675 12.7105 8.38981C12.7683 8.31326 12.8562 8.27401 12.9736 8.27401C13.0715 8.27401 13.146 8.28527 13.2241 8.3099C13.2241 8.3099 13.2429 8.31802 13.2517 8.29355C13.2724 8.23594 13.2879 8.19474 13.3099 8.1314C13.3162 8.11348 13.3008 8.10579 13.2953 8.10362C13.2646 8.09155 13.192 8.07206 13.1371 8.06378C13.0859 8.05587 13.0259 8.05176 12.9592 8.05176C12.8596 8.05176 12.7709 8.0687 12.6949 8.10265C12.6192 8.13633 12.5549 8.18289 12.504 8.24087C12.4531 8.29886 12.4145 8.36832 12.3886 8.44682C12.363 8.52511 12.35 8.61108 12.35 8.70204C12.35 8.89868 12.403 9.05764 12.5077 9.17404C12.6127 9.29077 12.7703 9.35016 12.9758 9.35016C13.0973 9.35016 13.222 9.32552 13.3115 9.29017C13.3115 9.29017 13.3287 9.28189 13.3212 9.26202L13.263 9.10122Z" fill="white"/>
<path d="M13.6777 8.57108C13.6889 8.49474 13.71 8.43123 13.7426 8.38175C13.7917 8.3066 13.8666 8.26535 13.972 8.26535C14.0773 8.26535 14.1469 8.30676 14.1968 8.38175C14.23 8.43123 14.2444 8.4975 14.25 8.57108H13.6777ZM14.4759 8.40324C14.4558 8.32728 14.4059 8.25056 14.3732 8.21543C14.3215 8.15983 14.271 8.12095 14.2209 8.0993C14.1481 8.06845 14.0699 8.05261 13.9909 8.05274C13.8907 8.05274 13.7998 8.06952 13.726 8.10417C13.6521 8.13893 13.5899 8.18625 13.5412 8.24526C13.4925 8.304 13.4558 8.37401 13.4325 8.45354C13.409 8.53258 13.3972 8.61883 13.3972 8.70973C13.3972 8.80226 13.4095 8.8884 13.4337 8.96592C13.4581 9.04405 13.4972 9.11286 13.5501 9.16987C13.6027 9.22726 13.6706 9.27225 13.7518 9.3036C13.8325 9.33478 13.9305 9.35097 14.0431 9.35076C14.2749 9.34994 14.397 9.29824 14.4473 9.27047C14.4562 9.26559 14.4647 9.25688 14.454 9.23203L14.4015 9.08509C14.3937 9.06316 14.3714 9.07128 14.3714 9.07128C14.314 9.09256 14.2323 9.13084 14.042 9.13046C13.9175 9.13024 13.8252 9.09353 13.7674 9.03615C13.708 8.9774 13.6791 8.89099 13.6739 8.76912L14.4765 8.76988C14.4765 8.76988 14.4976 8.7695 14.4998 8.74898C14.5005 8.74032 14.5274 8.58407 14.4759 8.40324Z" fill="white"/>
<path d="M7.2503 8.57108C7.26172 8.49474 7.28262 8.43123 7.31521 8.38175C7.36432 8.3066 7.43925 8.26535 7.54455 8.26535C7.64991 8.26535 7.71953 8.30676 7.76961 8.38175C7.80259 8.43123 7.81699 8.4975 7.82267 8.57108H7.2503ZM8.04833 8.40324C8.02819 8.32728 7.97849 8.25056 7.94573 8.21543C7.89408 8.15983 7.84357 8.12095 7.79349 8.0993C7.72074 8.06845 7.64252 8.05261 7.5635 8.05274C7.4635 8.05274 7.37238 8.06952 7.29864 8.10417C7.22463 8.13893 7.16254 8.18625 7.11381 8.24526C7.06508 8.304 7.02843 8.37401 7.00515 8.45354C6.98187 8.53258 6.96985 8.61883 6.96985 8.70973C6.96985 8.80226 6.98203 8.8884 7.00634 8.96592C7.03076 9.04405 7.06985 9.11286 7.12269 9.16987C7.17537 9.22726 7.24321 9.27225 7.32447 9.3036C7.40514 9.33478 7.50313 9.35097 7.61575 9.35076C7.84752 9.34994 7.96961 9.29824 8.01991 9.27047C8.02879 9.26559 8.03723 9.25688 8.02662 9.23203L7.97437 9.08509C7.96625 9.06316 7.944 9.07128 7.944 9.07128C7.88661 9.09256 7.80513 9.13084 7.61439 9.13046C7.49014 9.13024 7.39783 9.09353 7.34006 9.03615C7.28067 8.9774 7.25165 8.89099 7.24656 8.76912L8.04909 8.76988C8.04909 8.76988 8.0702 8.7695 8.07237 8.74898C8.07318 8.74032 8.09998 8.58407 8.04833 8.40324Z" fill="white"/>
<path d="M5.51567 9.09694C5.48427 9.07188 5.47994 9.06554 5.46932 9.04941C5.45352 9.02477 5.44545 8.98964 5.44545 8.94508C5.44545 8.87448 5.46873 8.8238 5.51702 8.78969C5.51648 8.78986 5.58605 8.72949 5.74983 8.73166C5.86477 8.73328 5.96753 8.75023 5.96753 8.75023V9.11513H5.96774C5.96774 9.11513 5.86574 9.13701 5.75096 9.14388C5.58762 9.15374 5.51507 9.09678 5.51567 9.09694ZM5.83499 8.53307C5.80245 8.53069 5.76028 8.52928 5.70976 8.52928C5.6409 8.52928 5.57441 8.53794 5.51215 8.55472C5.44935 8.57151 5.39299 8.59777 5.34448 8.63247C5.29602 8.66704 5.25618 8.71232 5.22807 8.76479C5.1997 8.81769 5.1853 8.88 5.1853 8.94979C5.1853 9.02082 5.19748 9.08254 5.22196 9.13305C5.24582 9.18299 5.28184 9.22612 5.32672 9.2585C5.37128 9.29098 5.42634 9.31491 5.49022 9.32931C5.55313 9.34372 5.62449 9.35097 5.70262 9.35097C5.78491 9.35097 5.86693 9.34431 5.94641 9.33067C6.01405 9.31902 6.08146 9.306 6.14857 9.29163C6.17521 9.2853 6.20482 9.27723 6.20482 9.27723C6.22475 9.2723 6.22312 9.25097 6.22312 9.25097L6.22275 8.5171C6.22275 8.35614 6.17976 8.23681 6.09514 8.16285C6.01095 8.08906 5.88686 8.05176 5.72649 8.05176C5.6664 8.05176 5.56948 8.0601 5.51155 8.07168C5.51155 8.07168 5.33614 8.10563 5.26397 8.16204C5.26397 8.16204 5.24821 8.1719 5.25688 8.19399L5.31372 8.34666C5.32076 8.36637 5.33993 8.35966 5.33993 8.35966C5.33993 8.35966 5.34605 8.35733 5.35314 8.35316C5.50755 8.26913 5.70283 8.27173 5.70283 8.27173C5.78962 8.27173 5.85627 8.28906 5.90126 8.3236C5.94506 8.35711 5.96731 8.40779 5.96731 8.51471V8.54861C5.89828 8.53875 5.83499 8.53307 5.83499 8.53307Z" fill="white"/>
<path d="M12.308 8.11959C12.3091 8.11691 12.3097 8.11403 12.3098 8.11111C12.3098 8.1082 12.3092 8.10531 12.3081 8.10262C12.3069 8.09993 12.3053 8.09749 12.3032 8.09546C12.3011 8.09343 12.2986 8.09184 12.2959 8.09079C12.2823 8.08543 12.214 8.07102 12.1614 8.06767C12.0606 8.06155 12.0046 8.0785 11.9545 8.10102C11.9048 8.12349 11.8496 8.15982 11.8188 8.20102V8.10345C11.8188 8.08981 11.8091 8.07898 11.7957 8.07898H11.59C11.5766 8.07898 11.5669 8.08981 11.5669 8.10345V9.30051C11.5669 9.31388 11.5779 9.32492 11.5914 9.32492H11.8022C11.8086 9.32489 11.8148 9.32231 11.8194 9.31773C11.8239 9.31315 11.8265 9.30696 11.8264 9.30051V8.70241C11.8264 8.62212 11.8353 8.54205 11.8531 8.49175C11.8704 8.44205 11.8941 8.4022 11.9233 8.37362C11.9512 8.34617 11.9852 8.32575 12.0225 8.31406C12.0598 8.30258 12.101 8.2989 12.1302 8.2989C12.1722 8.2989 12.2184 8.30973 12.2184 8.30973C12.2337 8.31146 12.2425 8.30199 12.2476 8.28802C12.2614 8.25131 12.3004 8.14146 12.3079 8.11959" fill="white"/>
<path d="M10.3288 7.56433C10.3028 7.55646 10.2763 7.55013 10.2495 7.54538C10.2135 7.53948 10.177 7.53672 10.1405 7.53715C9.99526 7.53715 9.88086 7.57814 9.80062 7.65902C9.72071 7.73948 9.66646 7.862 9.63928 8.02312L9.62937 8.07737H9.44714C9.44714 8.07737 9.42505 8.07656 9.42034 8.10065L9.39056 8.26767C9.38839 8.28348 9.39527 8.29355 9.41655 8.29355H9.59391L9.414 9.29786C9.40003 9.37875 9.38385 9.44523 9.36587 9.49569C9.34833 9.54539 9.33122 9.5827 9.30989 9.60993C9.28932 9.63592 9.27004 9.6553 9.23647 9.66651C9.20886 9.67576 9.17692 9.68015 9.142 9.68015C9.12267 9.68015 9.09685 9.67695 9.07773 9.673C9.06275 9.67011 9.04817 9.66542 9.03431 9.65903C9.03431 9.65903 9.01363 9.65113 9.00535 9.67187C8.99885 9.68903 8.95148 9.81897 8.94579 9.83494C8.94027 9.85091 8.94812 9.86336 8.95819 9.8671C8.98185 9.87538 8.99939 9.8809 9.03155 9.88859C9.07616 9.89904 9.11385 9.89964 9.14915 9.89964C9.22289 9.89964 9.29034 9.88919 9.34616 9.8691C9.4022 9.84874 9.45109 9.81344 9.49451 9.76569C9.54123 9.71404 9.57063 9.66001 9.59862 9.58605C9.62645 9.51307 9.65033 9.42233 9.66922 9.31659L9.85011 8.29355H10.1144C10.1144 8.29355 10.1367 8.29431 10.1412 8.27006L10.1712 8.10319C10.1732 8.08722 10.1665 8.07737 10.145 8.07737H9.88833C9.88974 8.07163 9.90138 7.98132 9.93077 7.89632C9.94339 7.86021 9.96705 7.83081 9.98697 7.81067C10.0058 7.79159 10.0288 7.77726 10.0543 7.76888C10.0797 7.76059 10.1087 7.75664 10.1405 7.75664C10.1645 7.75664 10.1884 7.7594 10.2063 7.76314C10.2312 7.7685 10.2408 7.77126 10.2473 7.77321C10.2736 7.78111 10.2771 7.77342 10.2823 7.76075L10.3436 7.59238C10.3499 7.57419 10.3343 7.5665 10.3288 7.56433Z" fill="white"/>
<path d="M6.74366 9.30058C6.74366 9.31395 6.73396 9.32483 6.72059 9.32483H6.50776C6.49434 9.32483 6.48486 9.31401 6.48486 9.30058V7.58773C6.48486 7.57436 6.49434 7.56348 6.50776 7.56348H6.72054C6.73396 7.56348 6.74366 7.5743 6.74366 7.58773V9.30058Z" fill="white"/>
</svg>
