<svg width="100%" height="100%" viewBox="0 0 28 26" fill="none" xmlns="http://www.w3.org/2000/svg">
<circle cx="13" cy="13" r="12.5" fill="white" stroke="#E2EAEC"/>
<path d="M12.8806 12.243C12.8806 12.1888 12.8806 12.1346 12.8806 12.0913C12.8806 12.048 12.8806 12.0046 12.8806 11.9613H13.0648C13.0648 11.9938 13.0648 12.0263 13.0648 12.0588C13.0648 12.0913 13.0648 12.1238 13.0648 12.1563C13.0756 12.1238 13.0973 12.1021 13.119 12.0696C13.1406 12.048 13.1731 12.0155 13.2056 11.9938C13.2381 11.9721 13.2815 11.9613 13.314 11.9396C13.3573 11.9288 13.4006 11.918 13.444 11.918C13.509 11.918 13.5631 11.9288 13.6065 11.9396C13.6498 11.9505 13.6823 11.9721 13.7148 11.9938C13.7473 12.0155 13.769 12.0371 13.7798 12.0696C13.7906 12.0913 13.8123 12.113 13.8231 12.1346C13.8665 12.0696 13.9206 12.0155 13.9748 11.9721C14.029 11.9288 14.1048 11.918 14.1915 11.918C14.2781 11.918 14.3431 11.9288 14.3973 11.9505C14.4515 11.9721 14.4948 12.0046 14.5381 12.048C14.5706 12.0913 14.6031 12.1455 14.614 12.1996C14.6248 12.2646 14.6356 12.3296 14.6356 12.4055V13.1096H14.4406V12.4163C14.4406 12.373 14.4406 12.3405 14.4298 12.2971C14.419 12.2538 14.4081 12.2213 14.3865 12.1996C14.3648 12.1671 14.3323 12.1455 14.2998 12.1238C14.2673 12.1021 14.2131 12.0913 14.159 12.0913C14.1156 12.0913 14.0831 12.1021 14.0398 12.113C14.0073 12.1346 13.9748 12.1563 13.9423 12.178C13.9098 12.2105 13.8881 12.243 13.8773 12.2863C13.8665 12.3296 13.8556 12.373 13.8556 12.4271V13.0988H13.6606V12.438C13.6606 12.308 13.639 12.2213 13.6065 12.1671C13.574 12.113 13.509 12.0913 13.4331 12.0913C13.3681 12.0913 13.314 12.1021 13.2706 12.1238C13.2273 12.1455 13.184 12.178 13.1623 12.2213C13.1298 12.2646 13.1081 12.308 13.0973 12.3621C13.0865 12.4163 13.0756 12.4813 13.0756 12.5463V13.1096H12.8806V12.243Z" fill="#818B91"/>
<path d="M14.9933 12.1226C15.0583 12.0576 15.1233 12.0143 15.21 11.9818C15.2966 11.9493 15.3725 11.9385 15.4591 11.9385C15.6325 11.9385 15.7516 11.9818 15.8383 12.0576C15.9141 12.1443 15.9575 12.2635 15.9575 12.426V12.9243C15.9575 12.9568 15.9575 12.9893 15.9575 13.0326C15.9575 13.0651 15.9683 13.0976 15.9683 13.1301H15.7841C15.7733 13.1085 15.7733 13.076 15.7733 13.0435C15.7733 13.011 15.7733 12.9785 15.7733 12.9568C15.73 13.0218 15.6866 13.0651 15.6216 13.1085C15.5566 13.1518 15.4808 13.1626 15.3941 13.1626C15.3291 13.1626 15.275 13.1518 15.2208 13.141C15.1666 13.1301 15.1233 13.1085 15.08 13.076C15.0366 13.0435 15.015 13.011 14.9825 12.9676C14.9608 12.9243 14.95 12.8701 14.95 12.816C14.95 12.7185 14.9716 12.6426 15.0258 12.5885C15.08 12.5343 15.1341 12.491 15.21 12.4693C15.2858 12.4476 15.3616 12.426 15.4483 12.4151C15.535 12.4043 15.6108 12.4043 15.6866 12.4043H15.7625V12.3718C15.7625 12.2851 15.7408 12.2201 15.6866 12.1768C15.6325 12.1335 15.5675 12.1118 15.47 12.1118C15.405 12.1118 15.34 12.1226 15.2858 12.1443C15.2208 12.166 15.1666 12.1985 15.1233 12.2418L14.9933 12.1226ZM15.5566 12.5776C15.4266 12.5776 15.3291 12.5993 15.2641 12.6318C15.1883 12.6643 15.1558 12.7293 15.1558 12.8051C15.1558 12.881 15.1775 12.9351 15.2316 12.9568C15.2858 12.9893 15.34 13.0001 15.4158 13.0001C15.47 13.0001 15.5241 12.9893 15.5675 12.9676C15.6108 12.946 15.6433 12.9243 15.6758 12.8918C15.7083 12.8593 15.73 12.8268 15.7408 12.7835C15.7516 12.7401 15.7625 12.6968 15.7625 12.6426V12.5668H15.5566V12.5776Z" fill="#818B91"/>
<path d="M16.2932 12.243C16.2932 12.1888 16.2932 12.1346 16.2932 12.0913C16.2932 12.048 16.2932 12.0046 16.2932 11.9613H16.4774C16.4774 11.9938 16.4774 12.0263 16.4774 12.0588C16.4774 12.0913 16.4774 12.1238 16.4774 12.1563C16.4882 12.1238 16.5099 12.1021 16.5315 12.0696C16.5532 12.0371 16.5857 12.0155 16.6182 11.9938C16.6507 11.9721 16.694 11.9613 16.7265 11.9396C16.7699 11.9288 16.8132 11.918 16.8565 11.918C16.8674 11.918 16.8782 11.918 16.8999 11.918C16.9215 11.918 16.9215 11.918 16.9432 11.9288L16.9324 12.1238C16.8999 12.113 16.8674 12.113 16.824 12.113C16.7049 12.113 16.6182 12.1563 16.564 12.2321C16.5099 12.308 16.4882 12.4163 16.4882 12.5463V13.1096H16.2932V12.243Z" fill="#818B91"/>
<path d="M17.1707 11.2559H17.3657V12.4909L17.8965 11.9817H18.1782L17.6148 12.5125L18.2323 13.1517H17.9507L17.3765 12.5342V13.1517H17.1815V11.2559H17.1707Z" fill="#818B91"/>
<path d="M19.4674 12.9243C19.4024 13.011 19.3266 13.076 19.2399 13.1085C19.1532 13.141 19.0557 13.1626 18.9474 13.1626C18.8607 13.1626 18.7741 13.141 18.6982 13.1193C18.6224 13.0868 18.5682 13.0435 18.5141 12.9893C18.4599 12.9351 18.4274 12.8701 18.3949 12.7943C18.3624 12.7185 18.3516 12.6426 18.3516 12.556C18.3516 12.4693 18.3624 12.3826 18.3949 12.3068C18.4274 12.231 18.4707 12.166 18.5249 12.1118C18.5791 12.0576 18.6441 12.0143 18.7091 11.9818C18.7849 11.9493 18.8607 11.9385 18.9474 11.9385C19.0341 11.9385 19.0991 11.9493 19.1749 11.9818C19.2399 12.0143 19.3049 12.0468 19.3482 12.101C19.3916 12.1551 19.4349 12.2201 19.4566 12.296C19.4782 12.3718 19.4999 12.4585 19.4999 12.556V12.621H18.5574C18.5574 12.6751 18.5682 12.7185 18.5899 12.7618C18.6116 12.8051 18.6332 12.8485 18.6657 12.881C18.6982 12.9135 18.7416 12.946 18.7849 12.9568C18.8282 12.9785 18.8824 12.9893 18.9366 12.9893C19.0232 12.9893 19.0882 12.9785 19.1532 12.946C19.2074 12.9135 19.2616 12.8701 19.3049 12.816L19.4674 12.9243ZM19.2941 12.4476C19.2941 12.3501 19.2616 12.2635 19.1966 12.2093C19.1316 12.1443 19.0557 12.1226 18.9474 12.1226C18.8391 12.1226 18.7524 12.1551 18.6874 12.2093C18.6224 12.2743 18.5791 12.3501 18.5682 12.4476H19.2941Z" fill="#818B91"/>
<path d="M20.4424 12.1331H20.0957V12.7181C20.0957 12.7614 20.0957 12.7939 20.0957 12.8264C20.0957 12.8589 20.1065 12.8914 20.1174 12.9131C20.1282 12.9348 20.1499 12.9564 20.1715 12.9673C20.1932 12.9781 20.2257 12.9889 20.269 12.9889C20.3015 12.9889 20.3232 12.9889 20.3557 12.9781C20.3882 12.9673 20.4099 12.9564 20.4424 12.9456L20.4532 13.1189C20.4207 13.1298 20.3882 13.1406 20.3449 13.1514C20.3015 13.1623 20.269 13.1623 20.2257 13.1623C20.1607 13.1623 20.0957 13.1514 20.0632 13.1298C20.0199 13.1081 19.9874 13.0864 19.9657 13.0539C19.944 13.0214 19.9224 12.9781 19.9224 12.9348C19.9115 12.8806 19.9115 12.8264 19.9115 12.7723V12.1331H19.6624V11.9706H19.9115V11.6348H20.1065V11.9706H20.4532V12.1331H20.4424Z" fill="#818B91"/>
<path d="M20.6589 11.5168C20.6589 11.4735 20.6698 11.441 20.7023 11.4193C20.7348 11.3868 20.7673 11.376 20.7998 11.376C20.8431 11.376 20.8756 11.3868 20.8973 11.4193C20.9298 11.4518 20.9406 11.4843 20.9406 11.5168C20.9406 11.5601 20.9298 11.5926 20.8973 11.6143C20.8756 11.636 20.8323 11.6576 20.7998 11.6576C20.7673 11.6576 20.7239 11.6468 20.7023 11.6143C20.6698 11.5926 20.6589 11.5601 20.6589 11.5168ZM20.7023 11.9718H20.8973V13.1418H20.7023V11.9718Z" fill="#818B91"/>
<path d="M21.2873 12.243C21.2873 12.1888 21.2873 12.1346 21.2873 12.0913C21.2873 12.048 21.2873 12.0046 21.2873 11.9613H21.4715C21.4715 11.9938 21.4715 12.0263 21.4715 12.0588C21.4715 12.0913 21.4715 12.1238 21.4715 12.1563C21.4823 12.1238 21.504 12.1021 21.5256 12.0696C21.5473 12.0371 21.5798 12.0155 21.6123 11.9938C21.6448 11.9721 21.6881 11.9613 21.7206 11.9396C21.764 11.9288 21.8073 11.918 21.8506 11.918C21.9265 11.918 21.9915 11.9288 22.0456 11.9505C22.0998 11.9721 22.1431 12.0046 22.1865 12.048C22.219 12.0913 22.2515 12.1346 22.2623 12.1996C22.284 12.2538 22.284 12.3188 22.284 12.3946V13.1096H22.089V12.4055C22.089 12.308 22.0673 12.2321 22.024 12.178C21.9806 12.1238 21.9156 12.0913 21.8181 12.0913C21.7531 12.0913 21.699 12.1021 21.6556 12.1238C21.6123 12.1455 21.569 12.178 21.5473 12.2213C21.5148 12.2646 21.4931 12.308 21.4823 12.3621C21.4715 12.4163 21.4606 12.4813 21.4606 12.5463V13.1096H21.2656V12.243H21.2873Z" fill="#818B91"/>
<path d="M23.8331 13.0868C23.8331 13.3035 23.7789 13.466 23.6706 13.5743C23.5622 13.6827 23.3997 13.7368 23.1939 13.7368C23.0747 13.7368 22.9772 13.7152 22.8797 13.6827C22.7822 13.6502 22.6956 13.596 22.6197 13.5093L22.7606 13.3468C22.8256 13.4118 22.8906 13.466 22.9556 13.4985C23.0206 13.531 23.1072 13.5526 23.1939 13.5526C23.2806 13.5526 23.3564 13.5418 23.4106 13.5093C23.4647 13.4876 23.5081 13.4443 23.5514 13.401C23.5947 13.3576 23.6056 13.3035 23.6164 13.2493C23.6272 13.1951 23.6381 13.1301 23.6381 13.076V12.9243C23.5947 13.0001 23.5297 13.0543 23.4539 13.0868C23.3781 13.1193 23.3022 13.141 23.2264 13.141C23.1397 13.141 23.0531 13.1301 22.9772 13.0976C22.9014 13.0651 22.8364 13.0218 22.7822 12.9785C22.7281 12.9351 22.6847 12.8593 22.6522 12.7943C22.6197 12.7185 22.6089 12.6426 22.6089 12.556C22.6089 12.4585 22.6197 12.3718 22.6522 12.296C22.6847 12.2201 22.7281 12.1551 22.7822 12.101C22.8364 12.0468 22.9014 12.0035 22.9772 11.9818C23.0531 11.9493 23.1397 11.9385 23.2264 11.9385C23.2697 11.9385 23.3022 11.9385 23.3456 11.9493C23.3889 11.9601 23.4214 11.971 23.4647 11.9926C23.4972 12.0143 23.5406 12.036 23.5622 12.0685C23.5947 12.101 23.6164 12.1335 23.6381 12.166V11.971H23.8331V13.0868ZM22.8147 12.556C22.8147 12.621 22.8256 12.6751 22.8472 12.7185C22.8689 12.7726 22.9014 12.816 22.9339 12.8485C22.9664 12.881 23.0097 12.9135 23.0639 12.9351C23.1181 12.9568 23.1722 12.9676 23.2264 12.9676C23.2914 12.9676 23.3564 12.9568 23.3997 12.9351C23.4431 12.9135 23.4972 12.881 23.5297 12.8376C23.5622 12.7943 23.5947 12.751 23.6056 12.7076C23.6164 12.6643 23.6381 12.5993 23.6381 12.5451C23.6381 12.4801 23.6272 12.426 23.6056 12.3718C23.5839 12.3176 23.5622 12.2743 23.5189 12.231C23.4864 12.1876 23.4431 12.166 23.3889 12.1443C23.3347 12.1226 23.2806 12.1118 23.2156 12.1118C23.1506 12.1118 23.0964 12.1226 23.0422 12.1443C22.9881 12.166 22.9447 12.1985 22.9122 12.2418C22.8797 12.2851 22.8472 12.3285 22.8256 12.3826C22.8256 12.4368 22.8147 12.491 22.8147 12.556Z" fill="#818B91"/>
<path d="M13.7148 14.9293C13.6715 14.8751 13.6282 14.8426 13.5848 14.821C13.5415 14.7993 13.4873 14.7885 13.4223 14.7885C13.3573 14.7885 13.3032 14.7993 13.249 14.821C13.1948 14.8426 13.1623 14.8751 13.1298 14.9185C13.0973 14.9618 13.0757 15.0051 13.054 15.0593C13.0323 15.1135 13.0323 15.1676 13.0323 15.2326C13.0323 15.2976 13.0432 15.3518 13.0648 15.406C13.0865 15.4601 13.1082 15.5035 13.1407 15.5468C13.1732 15.5901 13.2165 15.6226 13.2598 15.6443C13.3032 15.666 13.3573 15.6768 13.4223 15.6768C13.5523 15.6768 13.6498 15.6335 13.7148 15.536L13.8557 15.6768C13.8015 15.7418 13.7365 15.7851 13.6607 15.8176C13.5848 15.8501 13.509 15.861 13.4223 15.861C13.3357 15.861 13.249 15.8501 13.1732 15.8176C13.0973 15.7851 13.0323 15.7418 12.9782 15.6876C12.924 15.6335 12.8807 15.5685 12.859 15.4926C12.8373 15.4168 12.8157 15.341 12.8157 15.2435C12.8157 15.1568 12.8265 15.0701 12.859 14.9943C12.8915 14.9185 12.924 14.8535 12.9782 14.7993C13.0323 14.7451 13.0973 14.7018 13.1732 14.6693C13.249 14.6368 13.3248 14.626 13.4223 14.626C13.509 14.626 13.5957 14.6368 13.6715 14.6693C13.7473 14.7018 13.8123 14.7451 13.8773 14.8101L13.7148 14.9293Z" fill="#818B91"/>
<path d="M14.1047 13.9219H14.2997V15.8069H14.1047V13.9219Z" fill="#818B91"/>
<path d="M14.614 15.22C14.614 15.1334 14.6248 15.0467 14.6573 14.9709C14.6898 14.895 14.7332 14.83 14.7874 14.7759C14.8415 14.7217 14.9065 14.6784 14.9824 14.6459C15.0582 14.6134 15.1449 14.6025 15.2315 14.6025C15.3182 14.6025 15.4049 14.6134 15.4807 14.6459C15.5565 14.6784 15.6215 14.7217 15.6757 14.7759C15.7299 14.83 15.7732 14.895 15.8057 14.9709C15.8382 15.0467 15.849 15.1334 15.849 15.22C15.849 15.3067 15.8382 15.3934 15.8057 15.4692C15.7732 15.545 15.7299 15.61 15.6757 15.6642C15.6215 15.7184 15.5565 15.7617 15.4807 15.7942C15.4049 15.8267 15.3182 15.8375 15.2315 15.8375C15.1449 15.8375 15.0582 15.8267 14.9824 15.7942C14.9065 15.7617 14.8415 15.7184 14.7874 15.6642C14.7332 15.61 14.6898 15.545 14.6573 15.4692C14.6248 15.3934 14.614 15.3067 14.614 15.22ZM14.8199 15.22C14.8199 15.285 14.8307 15.3392 14.8524 15.3934C14.874 15.4475 14.8957 15.4909 14.939 15.5342C14.9824 15.5775 15.0149 15.5992 15.069 15.6317C15.1232 15.6534 15.1774 15.6642 15.2424 15.6642C15.3074 15.6642 15.3615 15.6534 15.4157 15.6317C15.4699 15.61 15.5132 15.5775 15.5457 15.5342C15.5782 15.4909 15.6107 15.4475 15.6324 15.3934C15.654 15.3392 15.6649 15.285 15.6649 15.22C15.6649 15.155 15.654 15.1009 15.6324 15.0467C15.6107 14.9925 15.589 14.9492 15.5457 14.9059C15.5132 14.8625 15.4699 14.8409 15.4157 14.8084C15.3615 14.7759 15.3074 14.7759 15.2424 14.7759C15.1774 14.7759 15.1232 14.7867 15.069 14.8084C15.0149 14.83 14.9715 14.8625 14.939 14.9059C14.9065 14.9492 14.874 14.9925 14.8524 15.0467C14.8307 15.1009 14.8199 15.155 14.8199 15.22Z" fill="#818B91"/>
<path d="M17.1816 15.5229C17.1816 15.5771 17.1816 15.6313 17.1816 15.6746C17.1816 15.7179 17.1816 15.7613 17.1816 15.8046H17.0083C17.0083 15.7721 17.0083 15.7396 17.0083 15.7071C17.0083 15.6746 17.0083 15.6421 17.0083 15.6096C16.9975 15.6421 16.9758 15.6638 16.9541 15.6963C16.9325 15.7179 16.9 15.7504 16.8675 15.7721C16.835 15.7938 16.7916 15.8046 16.7591 15.8263C16.7158 15.8371 16.6725 15.8479 16.6291 15.8479C16.5533 15.8479 16.4883 15.8371 16.4341 15.8154C16.38 15.7938 16.3366 15.7613 16.2933 15.7179C16.2608 15.6746 16.2283 15.6313 16.2175 15.5663C16.1958 15.5121 16.1958 15.4471 16.1958 15.3713V14.6562H16.3908V15.3604C16.3908 15.4579 16.4125 15.5338 16.4558 15.5879C16.4991 15.6421 16.5641 15.6746 16.6616 15.6746C16.7266 15.6746 16.7808 15.6638 16.8241 15.6421C16.8675 15.6204 16.9108 15.5879 16.9325 15.5446C16.965 15.5013 16.9866 15.4579 16.9975 15.4038C17.0083 15.3496 17.0191 15.2846 17.0191 15.2196V14.6562H17.2141V15.5229H17.1816Z" fill="#818B91"/>
<path d="M18.5142 15.601C18.4708 15.666 18.4167 15.7202 18.3408 15.7744C18.265 15.8177 18.1675 15.8394 18.07 15.8394C17.9833 15.8394 17.9075 15.8285 17.8425 15.796C17.7667 15.7635 17.7125 15.7202 17.6583 15.666C17.6042 15.6119 17.5608 15.5469 17.5392 15.471C17.5067 15.3952 17.4958 15.3194 17.4958 15.2219C17.4958 15.1244 17.5067 15.0485 17.5392 14.9727C17.5717 14.8969 17.615 14.8319 17.6692 14.7777C17.7233 14.7235 17.7883 14.6802 17.8642 14.6477C17.94 14.6152 18.0267 14.6044 18.1133 14.6044C18.2 14.6044 18.2758 14.626 18.3517 14.6585C18.4275 14.691 18.4817 14.7452 18.5358 14.8102V13.9219H18.7308V15.8069H18.5358V15.601H18.5142ZM18.5142 15.2219C18.5142 15.1569 18.5033 15.1027 18.4817 15.0485C18.46 14.9944 18.4383 14.951 18.395 14.9077C18.3625 14.8644 18.3192 14.8427 18.265 14.8102C18.2108 14.7885 18.1567 14.7777 18.0917 14.7777C18.0267 14.7777 17.9725 14.7885 17.9183 14.8102C17.8642 14.8319 17.8208 14.8644 17.7883 14.9077C17.7558 14.951 17.7233 14.9944 17.7017 15.0485C17.68 15.1027 17.6692 15.1569 17.6692 15.2219C17.6692 15.2869 17.68 15.341 17.7017 15.3952C17.7233 15.4494 17.745 15.4927 17.7883 15.536C17.8317 15.5794 17.8642 15.601 17.9183 15.6335C17.9725 15.6552 18.0267 15.666 18.0917 15.666C18.1567 15.666 18.2108 15.6552 18.265 15.6335C18.3192 15.6119 18.3625 15.5794 18.395 15.536C18.4275 15.4927 18.46 15.4494 18.4817 15.3952C18.5033 15.341 18.5142 15.2869 18.5142 15.2219Z" fill="#818B91"/>
<path d="M5.02654 13.3673C5.02654 13.3673 4.9507 13.3564 4.87487 13.3564C4.7557 13.3564 4.71237 13.3998 4.71237 13.3998C4.67987 13.4214 4.6582 13.4648 4.6582 13.5081C4.6582 13.5406 4.66904 13.5623 4.67987 13.5839C4.6907 13.5948 4.6907 13.5948 4.71237 13.6164C4.71237 13.6164 4.76654 13.6598 4.87487 13.6489C4.9507 13.6489 5.02654 13.6273 5.02654 13.6273V13.3673Z" fill="#009ED8"/>
<path d="M6.13161 13.0215C6.05578 13.0215 6.00161 13.054 5.96911 13.1082C5.94745 13.1407 5.93661 13.184 5.92578 13.2382H6.32661C6.32661 13.184 6.31578 13.1407 6.29411 13.1082C6.26161 13.054 6.20745 13.0215 6.13161 13.0215Z" fill="#009ED8"/>
<path d="M8.40661 13.0215C8.33078 13.0215 8.27661 13.0432 8.24411 13.0973C8.21161 13.1515 8.18994 13.2273 8.18994 13.3248C8.18994 13.4223 8.21161 13.4982 8.24411 13.5523C8.27661 13.6065 8.33078 13.6281 8.40661 13.6281C8.48244 13.6281 8.53661 13.6065 8.56911 13.5523C8.60161 13.4982 8.62328 13.4223 8.62328 13.3248C8.62328 13.2273 8.60161 13.1515 8.56911 13.0973C8.53661 13.054 8.48244 13.0215 8.40661 13.0215Z" fill="#009ED8"/>
<path d="M10.6599 13.0215C10.5841 13.0215 10.5299 13.054 10.4974 13.1082C10.4758 13.1407 10.4649 13.184 10.4541 13.2382H10.8549C10.8549 13.184 10.8441 13.1407 10.8224 13.1082C10.7899 13.054 10.7358 13.0215 10.6599 13.0215Z" fill="#009ED8"/>
<path d="M9.93407 11.0498C9.63073 11.0498 9.33823 11.1148 9.07824 11.234C8.7749 10.7032 8.21157 10.3348 7.5724 10.3348C7.0849 10.3348 6.65157 10.5407 6.3374 10.8657C5.99074 10.4107 5.44907 10.1182 4.83157 10.1182C3.78074 10.1182 2.93574 10.9632 2.93574 12.014C2.93574 12.2848 2.9899 12.534 3.0874 12.7723C2.5999 13.054 2.2749 13.5957 2.2749 14.2023C2.2749 15.1123 3.00074 15.849 3.8999 15.849C4.01907 15.849 4.1274 15.8382 4.23574 15.8165C4.4849 16.4882 5.12407 16.9648 5.8824 16.9648C6.60823 16.9648 7.22574 16.5207 7.49657 15.8923C7.7024 15.9898 7.9299 16.044 8.16824 16.044C8.7424 16.044 9.25157 15.7298 9.51157 15.2532C9.64157 15.2748 9.7824 15.2965 9.92323 15.2965C11.0824 15.2965 12.0249 14.3432 12.0249 13.1732C12.0357 12.0032 11.0932 11.0498 9.93407 11.0498ZM4.36574 13.5198C4.36574 13.6932 4.24657 13.8015 4.04074 13.8015C3.94324 13.8015 3.84574 13.7907 3.74824 13.7365C3.72657 13.7257 3.71574 13.7148 3.69407 13.704C3.69407 13.704 3.68324 13.6932 3.69407 13.6823L3.7374 13.574C3.74824 13.5523 3.75907 13.5632 3.75907 13.5632C3.7699 13.574 3.78074 13.574 3.79157 13.5848C3.91074 13.6607 4.01907 13.6607 4.05157 13.6607C4.13824 13.6607 4.1924 13.6173 4.1924 13.5523C4.1924 13.4873 4.10574 13.4548 4.00824 13.4332L3.98657 13.4223C3.85657 13.3898 3.71574 13.3248 3.71574 13.1623C3.71574 12.9998 3.84574 12.8915 4.0299 12.8915H4.05157C4.1599 12.8915 4.26824 12.924 4.33324 12.9673C4.34407 12.9673 4.34407 12.9782 4.34407 12.989C4.34407 12.9998 4.31157 13.0865 4.30074 13.0973C4.2899 13.119 4.27907 13.1082 4.27907 13.1082C4.21407 13.0757 4.10574 13.0432 4.0299 13.0432C3.95407 13.0432 3.8999 13.0865 3.8999 13.1407C3.8999 13.2057 3.98657 13.2382 4.08407 13.2707L4.10574 13.2815C4.2249 13.2923 4.36574 13.3573 4.36574 13.5198ZM5.18907 13.7365C5.18907 13.7365 5.1674 13.7473 5.14574 13.7473C5.12407 13.7473 5.05907 13.769 5.0049 13.7798C4.95074 13.7907 4.88574 13.7907 4.83157 13.7907C4.7774 13.7907 4.72324 13.7907 4.6799 13.7798C4.63657 13.769 4.59324 13.7582 4.56074 13.7257C4.52824 13.704 4.50657 13.6715 4.4849 13.639C4.46324 13.6065 4.46324 13.5632 4.46324 13.509C4.46324 13.4548 4.47407 13.4115 4.49574 13.379C4.5174 13.3465 4.53907 13.314 4.5824 13.2815C4.6149 13.2598 4.65824 13.2382 4.70157 13.2273C4.7449 13.2165 4.78824 13.2057 4.8424 13.2057C4.8749 13.2057 4.9074 13.2057 4.92907 13.2057C4.92907 13.2057 4.9724 13.2057 5.02657 13.2165V13.1948C5.02657 13.119 5.01574 13.0865 4.98324 13.0648C4.95074 13.0432 4.9074 13.0323 4.8424 13.0323C4.8424 13.0323 4.70157 13.0323 4.59324 13.0865H4.5824C4.5824 13.0865 4.57157 13.0865 4.56074 13.0757L4.5174 12.9673C4.50657 12.9565 4.5174 12.9457 4.5174 12.9457C4.57157 12.9023 4.69074 12.8807 4.69074 12.8807C4.73407 12.8698 4.79907 12.8698 4.8424 12.8698C4.95074 12.8698 5.04824 12.8915 5.1024 12.9457C5.1674 12.9998 5.18907 13.0865 5.18907 13.1948V13.7148C5.1999 13.7148 5.1999 13.7365 5.18907 13.7365ZM5.56824 13.7582C5.56824 13.769 5.5574 13.7798 5.5574 13.7798H5.40574C5.3949 13.7798 5.3949 13.769 5.3949 13.7582V12.5448C5.3949 12.534 5.40574 12.5232 5.40574 12.5232H5.5574C5.56824 12.5232 5.56824 12.534 5.56824 12.5448V13.7582ZM6.51074 13.3682C6.51074 13.379 6.48907 13.379 6.48907 13.379H5.92574C5.92574 13.4657 5.9474 13.5307 5.99074 13.5632C6.03407 13.6065 6.09907 13.6282 6.18573 13.6282C6.31573 13.6282 6.38074 13.6065 6.41324 13.5848C6.41324 13.5848 6.42407 13.574 6.4349 13.5957L6.4674 13.704C6.47824 13.7257 6.4674 13.7257 6.4674 13.7365C6.4349 13.7582 6.34824 13.7907 6.18573 13.7907C6.1099 13.7907 6.03407 13.7798 5.9799 13.7582C5.92574 13.7365 5.87157 13.704 5.83907 13.6607C5.80657 13.6173 5.77407 13.574 5.7524 13.5198C5.73074 13.4657 5.73074 13.4007 5.73074 13.3357C5.73074 13.2707 5.74157 13.2057 5.7524 13.1515C5.77407 13.0973 5.79574 13.0432 5.82824 12.9998C5.86074 12.9565 5.90407 12.924 5.95824 12.9023C6.0124 12.8807 6.0774 12.8698 6.1424 12.8698C6.2074 12.8698 6.26157 12.8807 6.3049 12.9023C6.3374 12.9132 6.38074 12.9457 6.41324 12.989C6.4349 13.0107 6.4674 13.0648 6.48907 13.119C6.52157 13.249 6.51074 13.3573 6.51074 13.3682ZM6.68407 13.7257C6.6624 13.7148 6.65157 13.704 6.6299 13.6932C6.6299 13.6932 6.61907 13.6823 6.6299 13.6715L6.67323 13.5632C6.68407 13.5415 6.6949 13.5523 6.6949 13.5523C6.70574 13.5632 6.71657 13.5632 6.7274 13.574C6.84657 13.6498 6.9549 13.6498 6.9874 13.6498C7.07407 13.6498 7.12823 13.6065 7.12823 13.5415C7.12823 13.4765 7.04157 13.444 6.94407 13.4223L6.9224 13.4115C6.7924 13.379 6.65157 13.314 6.65157 13.1515C6.65157 12.989 6.78157 12.8807 6.96573 12.8807H6.9874C7.09574 12.8807 7.20407 12.9132 7.26907 12.9565C7.2799 12.9565 7.2799 12.9673 7.2799 12.9782C7.2799 12.989 7.2474 13.0757 7.23657 13.0865C7.22574 13.1082 7.2149 13.0973 7.2149 13.0973C7.1499 13.0648 7.04157 13.0323 6.96573 13.0323C6.8899 13.0323 6.83573 13.0757 6.83573 13.1298C6.83573 13.1948 6.9224 13.2273 7.0199 13.2598L7.04157 13.2707C7.17157 13.314 7.3124 13.3682 7.3124 13.5307C7.3124 13.704 7.19323 13.8123 6.9874 13.8123C6.87907 13.7907 6.78157 13.7798 6.68407 13.7257ZM7.9624 13.0215C7.9624 13.0432 7.94073 13.0432 7.94073 13.0432H7.75657L7.62657 13.769C7.61574 13.8448 7.59407 13.9098 7.5724 13.964C7.55073 14.0182 7.52907 14.0507 7.49657 14.094C7.46407 14.1265 7.43157 14.1482 7.38824 14.1698C7.3449 14.1807 7.30157 14.1915 7.2474 14.1915C7.22574 14.1915 7.19323 14.1915 7.16073 14.1807C7.13907 14.1807 7.12823 14.1698 7.10657 14.1698C7.09574 14.1698 7.09574 14.159 7.09574 14.1482C7.09574 14.1373 7.12824 14.0398 7.13907 14.029C7.1499 14.0182 7.16073 14.0182 7.16073 14.0182C7.17157 14.0182 7.1824 14.029 7.19324 14.029C7.20407 14.029 7.22574 14.029 7.23657 14.029C7.25823 14.029 7.2799 14.029 7.30157 14.0182C7.32324 14.0073 7.33407 13.9965 7.35574 13.9748C7.36657 13.9532 7.3774 13.9315 7.39907 13.899C7.4099 13.8665 7.42073 13.8123 7.43157 13.7582L7.56157 13.054H7.43157C7.42073 13.054 7.4099 13.0432 7.4099 13.0323L7.43157 12.9132C7.43157 12.8915 7.45324 12.8915 7.45324 12.8915H7.58323L7.59407 12.8482C7.61574 12.729 7.64823 12.6532 7.7024 12.5882C7.75657 12.534 7.84324 12.5015 7.94073 12.5015C7.97323 12.5015 7.9949 12.5015 8.01657 12.5123C8.03823 12.5123 8.04907 12.5232 8.07073 12.5232C8.07073 12.5232 8.08157 12.534 8.08157 12.5448L8.03823 12.664C8.03823 12.6748 8.0274 12.6748 8.01657 12.6748C8.01657 12.6748 8.00573 12.6748 7.98407 12.664C7.97324 12.664 7.95157 12.664 7.94073 12.664C7.91907 12.664 7.8974 12.664 7.87573 12.6748C7.85407 12.6857 7.84324 12.6857 7.8324 12.7073C7.82157 12.7182 7.7999 12.7398 7.78907 12.7723C7.7674 12.8373 7.75657 12.8915 7.75657 12.9023H7.9624C7.97324 12.9023 7.98407 12.9132 7.98407 12.924L7.9624 13.0215ZM8.79657 13.509C8.7749 13.5632 8.75323 13.6173 8.72074 13.6498C8.68823 13.6932 8.6449 13.7257 8.59073 13.7473C8.53657 13.769 8.4824 13.7798 8.40657 13.7798C8.33073 13.7798 8.27657 13.769 8.2224 13.7473C8.16824 13.7257 8.1249 13.6932 8.0924 13.6498C8.0599 13.6065 8.0274 13.5632 8.01657 13.509C7.9949 13.4548 7.9949 13.3898 7.9949 13.3248C7.9949 13.2598 8.00573 13.1948 8.01657 13.1407C8.03823 13.0865 8.0599 13.0323 8.0924 12.9998C8.1249 12.9565 8.16824 12.924 8.2224 12.9023C8.27657 12.8807 8.33073 12.8698 8.40657 12.8698C8.47157 12.8698 8.53657 12.8807 8.59073 12.9023C8.6449 12.924 8.68823 12.9565 8.72074 12.9998C8.75323 13.0432 8.78573 13.0865 8.79657 13.1407C8.81823 13.1948 8.81823 13.2598 8.81823 13.3248C8.81823 13.4007 8.8074 13.4548 8.79657 13.509ZM9.44657 13.0432C9.44657 13.054 9.43573 13.0648 9.4249 13.054C9.4249 13.054 9.3924 13.0432 9.3599 13.0432C9.33823 13.0432 9.30573 13.0432 9.28407 13.054C9.2624 13.0648 9.2299 13.0757 9.21907 13.0973C9.1974 13.119 9.18657 13.1407 9.1649 13.184C9.15407 13.2165 9.14323 13.2707 9.14323 13.3357V13.7582C9.14323 13.769 9.1324 13.7798 9.12157 13.7798H8.9699C8.95907 13.7798 8.94823 13.769 8.94823 13.7582V12.9132C8.94823 12.9023 8.95907 12.8915 8.95907 12.8915H9.0999C9.11073 12.8915 9.11073 12.9023 9.11073 12.9132V12.9782C9.1324 12.9457 9.17573 12.924 9.20823 12.9023C9.24073 12.8915 9.28407 12.8698 9.34907 12.8807C9.38157 12.8807 9.43573 12.8915 9.44657 12.8915C9.44657 12.8915 9.4574 12.9023 9.4574 12.9132C9.4899 12.9348 9.4574 13.0107 9.44657 13.0432ZM10.1941 13.7473C10.1291 13.769 10.0424 13.7907 9.95573 13.7907C9.8149 13.7907 9.69573 13.7473 9.63073 13.6715C9.5549 13.5848 9.5224 13.4765 9.5224 13.3357C9.5224 13.2707 9.53323 13.2057 9.5549 13.1515C9.57657 13.0973 9.59823 13.0432 9.64157 13.0107C9.67407 12.9673 9.7174 12.9348 9.77157 12.9132C9.82573 12.8915 9.89073 12.8807 9.95573 12.8807C9.99907 12.8807 10.0424 12.8807 10.0857 12.8915C10.1291 12.9023 10.1724 12.9132 10.1941 12.924C10.1941 12.924 10.2049 12.9348 10.2049 12.9457C10.1941 12.989 10.1832 13.0215 10.1616 13.0648C10.1507 13.0865 10.1399 13.0757 10.1399 13.0757C10.0857 13.054 10.0316 13.054 9.96657 13.054C9.8799 13.054 9.82574 13.0865 9.7824 13.1407C9.73907 13.1948 9.7174 13.2707 9.7174 13.3573C9.7174 13.4657 9.73907 13.5415 9.79323 13.5848C9.83657 13.6282 9.90157 13.6607 9.98823 13.6607C10.0207 13.6607 10.0532 13.6607 10.0749 13.6498C10.1074 13.6498 10.1291 13.639 10.1507 13.6282C10.1507 13.6282 10.1616 13.6173 10.1724 13.639L10.2157 13.7473C10.2157 13.7365 10.1941 13.7473 10.1941 13.7473ZM11.0391 13.3682C11.0391 13.379 11.0174 13.379 11.0174 13.379H10.4541C10.4541 13.4657 10.4757 13.5307 10.5191 13.5632C10.5624 13.6065 10.6274 13.6282 10.7141 13.6282C10.8441 13.6282 10.9091 13.6065 10.9416 13.5848C10.9416 13.5848 10.9524 13.574 10.9632 13.5957L10.9957 13.704C11.0066 13.7257 10.9957 13.7257 10.9957 13.7365C10.9632 13.7582 10.8766 13.7907 10.7141 13.7907C10.6382 13.7907 10.5624 13.7798 10.5082 13.7582C10.4541 13.7365 10.3999 13.704 10.3674 13.6607C10.3349 13.6173 10.3024 13.574 10.2807 13.5198C10.2591 13.4657 10.2591 13.4007 10.2591 13.3357C10.2591 13.2707 10.2699 13.2057 10.2807 13.1515C10.3024 13.0973 10.3241 13.0432 10.3566 12.9998C10.3891 12.9565 10.4324 12.924 10.4866 12.9023C10.5407 12.8807 10.6057 12.8698 10.6707 12.8698C10.7357 12.8698 10.7899 12.8807 10.8332 12.9023C10.8657 12.9132 10.9091 12.9457 10.9416 12.989C10.9632 13.0107 10.9957 13.0648 11.0174 13.119C11.0607 13.249 11.0391 13.3573 11.0391 13.3682Z" fill="#009ED8"/>
</svg>
