<svg width="100%" height="100%" viewBox="0 0 26 26" fill="none" xmlns="http://www.w3.org/2000/svg">
<circle cx="13" cy="13" r="12.5" fill="white" stroke="#E2EAEC"/>
<path d="M11.3228 7.52676C11.9678 6.85468 12.8658 6.43786 13.8589 6.43786C15.1792 6.43786 16.3311 7.17406 16.9444 8.26695C17.4931 8.02187 18.0874 7.89555 18.6883 7.89627C21.0696 7.89627 23 9.84353 23 12.2456C23 14.6479 21.0696 16.5951 18.6883 16.5951C18.3977 16.5951 18.1137 16.5661 17.8391 16.5105C17.2988 17.474 16.2695 18.1251 15.088 18.1251C14.6102 18.1257 14.1386 18.0171 13.7091 17.8077C13.1616 19.0957 11.8858 19.9989 10.3988 19.9989C8.85039 19.9989 7.53079 19.019 7.02419 17.645C6.80287 17.692 6.5735 17.7166 6.33819 17.7166C4.49463 17.7166 3.00001 16.2065 3.00001 14.3437C2.99868 13.7533 3.1521 13.1728 3.44498 12.6602C3.73786 12.1476 4.15998 11.7206 4.66926 11.422C4.45778 10.9352 4.34895 10.41 4.34956 9.87919C4.34956 7.73674 6.08888 6 8.2343 6C9.49384 6 10.6132 6.59888 11.3229 7.52676" fill="#009ED8"/>
<path d="M5.89685 13.2575C5.88433 13.2903 5.90138 13.2971 5.90545 13.3028C5.94299 13.3302 5.98115 13.3498 6.01963 13.3717C6.22366 13.48 6.41619 13.5117 6.61765 13.5117C7.0279 13.5117 7.28261 13.2935 7.28261 12.9421V12.9353C7.28261 12.6105 6.99513 12.4925 6.72533 12.4074L6.6903 12.3959C6.48689 12.3298 6.3114 12.2729 6.3114 12.139V12.1319C6.3114 12.0173 6.41393 11.933 6.57291 11.933C6.74957 11.933 6.95924 11.9917 7.09429 12.0663C7.09429 12.0663 7.13386 12.092 7.14841 12.0536C7.15639 12.033 7.22474 11.849 7.23193 11.829C7.23959 11.8074 7.22591 11.7914 7.21199 11.7829C7.05785 11.6891 6.84475 11.625 6.62421 11.625L6.58316 11.6253C6.2077 11.6253 5.94557 11.8521 5.94557 12.1772V12.184C5.94557 12.5268 6.23476 12.6378 6.50566 12.7153L6.5493 12.7288C6.74668 12.7894 6.91685 12.8415 6.91685 12.9806V12.9875C6.91685 13.1145 6.80627 13.2091 6.62789 13.2091C6.55868 13.2091 6.33791 13.2077 6.09939 13.0569C6.07061 13.0401 6.0538 13.0279 6.03159 13.0145C6.01986 13.0071 5.99061 12.9942 5.97779 13.033L5.89685 13.2575Z" fill="white"/>
<path d="M11.9027 13.2575C11.8902 13.2903 11.9072 13.2971 11.9113 13.3028C11.9488 13.3302 11.987 13.3498 12.0255 13.3717C12.2294 13.48 12.4221 13.5117 12.6235 13.5117C13.0338 13.5117 13.2885 13.2935 13.2885 12.9421V12.9353C13.2885 12.6105 13.001 12.4925 12.7312 12.4074L12.6962 12.3959C12.4927 12.3298 12.3172 12.2729 12.3172 12.139V12.1319C12.3172 12.0173 12.4198 11.933 12.5788 11.933C12.7554 11.933 12.9651 11.9917 13.1002 12.0663C13.1002 12.0663 13.1397 12.092 13.1543 12.0536C13.1622 12.033 13.2306 11.849 13.2377 11.829C13.2455 11.8074 13.2318 11.7914 13.2178 11.7829C13.0637 11.6891 12.8505 11.625 12.6301 11.625L12.589 11.6253C12.2135 11.6253 11.9514 11.8521 11.9514 12.1772V12.184C11.9514 12.5268 12.2405 12.6378 12.5115 12.7153L12.5551 12.7288C12.7525 12.7894 12.9229 12.8415 12.9229 12.9806V12.9875C12.9229 13.1145 12.8121 13.2091 12.6337 13.2091C12.5645 13.2091 12.3437 13.2077 12.1053 13.0569C12.0765 13.0401 12.0593 13.0284 12.0378 13.0145C12.0303 13.0097 11.9955 12.9962 11.9836 13.033L11.9027 13.2575Z" fill="white"/>
<path d="M16.0029 12.5718C16.0029 12.7704 15.9658 12.9268 15.8929 13.0373C15.8208 13.1468 15.7117 13.2 15.5595 13.2C15.4071 13.2 15.2986 13.1471 15.2276 13.0373C15.1558 12.9271 15.1194 12.7704 15.1194 12.5718C15.1194 12.3736 15.1558 12.2174 15.2276 12.1081C15.2986 11.9997 15.4071 11.947 15.5595 11.947C15.7117 11.947 15.8207 11.9997 15.8931 12.108C15.9659 12.2175 16.0029 12.3736 16.0029 12.5718ZM16.3453 12.2038C16.3117 12.0901 16.2593 11.9898 16.1895 11.9063C16.1196 11.8226 16.0313 11.7554 15.9265 11.7063C15.8219 11.6576 15.6983 11.6328 15.5595 11.6328C15.4205 11.6328 15.2968 11.6576 15.1923 11.7063C15.0875 11.7553 14.9991 11.8225 14.9291 11.9063C14.8595 11.99 14.8071 12.0904 14.7732 12.2038C14.7399 12.3169 14.7231 12.4405 14.7231 12.5718C14.7231 12.7032 14.7399 12.8271 14.7732 12.9399C14.8071 13.0533 14.8592 13.1536 14.9294 13.2374C14.9991 13.3211 15.0877 13.3881 15.1923 13.4356C15.2971 13.4833 15.4205 13.5074 15.5595 13.5074C15.6983 13.5074 15.8217 13.4832 15.9265 13.4356C16.031 13.3881 16.1196 13.3211 16.1895 13.2374C16.2593 13.1539 16.3117 13.0536 16.3453 12.9399C16.3789 12.8268 16.3958 12.7029 16.3958 12.5718C16.3958 12.4408 16.3789 12.3169 16.3453 12.2038Z" fill="white"/>
<path d="M19.1576 13.1448C19.1463 13.1115 19.114 13.124 19.114 13.124C19.0642 13.1432 19.0112 13.1608 18.9548 13.1696C18.8927 13.1788 18.8299 13.1833 18.7671 13.183C18.6013 13.183 18.4696 13.1338 18.3753 13.0363C18.2807 12.9388 18.2277 12.7813 18.2282 12.5682C18.2289 12.3742 18.2756 12.2283 18.3596 12.1172C18.4431 12.0066 18.5701 11.9499 18.7397 11.9499C18.881 11.9499 18.9887 11.9662 19.1015 12.0018C19.1015 12.0018 19.1286 12.0135 19.1414 11.9782C19.1713 11.895 19.1936 11.8354 19.2255 11.7439C19.2346 11.7181 19.2124 11.707 19.2044 11.7038C19.16 11.6864 19.0551 11.6582 18.9759 11.6463C18.9018 11.6348 18.8152 11.6289 18.7189 11.6289C18.575 11.6289 18.4468 11.6534 18.3371 11.7024C18.2277 11.7511 18.1349 11.8183 18.0614 11.9021C17.9878 11.9858 17.932 12.0862 17.8947 12.1996C17.8576 12.3126 17.8389 12.4368 17.8389 12.5682C17.8389 12.8522 17.9155 13.0818 18.0668 13.25C18.2183 13.4186 18.446 13.5044 18.7428 13.5044C18.9183 13.5044 19.0984 13.4688 19.2277 13.4177C19.2277 13.4177 19.2525 13.4058 19.2418 13.3771L19.1576 13.1448Z" fill="white"/>
<path d="M19.7567 12.3815C19.7729 12.2713 19.8034 12.1795 19.8504 12.1081C19.9214 11.9995 20.0296 11.9399 20.1818 11.9399C20.3339 11.9399 20.4344 11.9997 20.5065 12.1081C20.5544 12.1795 20.5752 12.2753 20.5834 12.3815H19.7567ZM20.9097 12.1391C20.8806 12.0294 20.8085 11.9186 20.7613 11.8678C20.6866 11.7875 20.6137 11.7313 20.5413 11.7001C20.4362 11.6555 20.3232 11.6326 20.2091 11.6328C20.0644 11.6328 19.933 11.6571 19.8265 11.7071C19.7197 11.7573 19.6299 11.8257 19.5595 11.9109C19.4891 11.9958 19.4362 12.0969 19.4026 12.2118C19.3686 12.3259 19.3516 12.4505 19.3516 12.5818C19.3516 12.7155 19.3692 12.8399 19.4043 12.9519C19.4395 13.0647 19.496 13.1641 19.5724 13.2465C19.6484 13.3294 19.7464 13.3943 19.8638 13.4396C19.9803 13.4847 20.1219 13.508 20.2845 13.5077C20.6193 13.5066 20.7957 13.4319 20.8683 13.3918C20.8811 13.3847 20.8934 13.3721 20.878 13.3362L20.8022 13.124C20.7909 13.0923 20.7587 13.104 20.7587 13.104C20.6758 13.1348 20.5578 13.1901 20.2829 13.1895C20.1031 13.1892 19.9698 13.1362 19.8863 13.0533C19.8005 12.9684 19.7587 12.8436 19.7513 12.6676L20.9105 12.6687C20.9105 12.6687 20.941 12.6681 20.9442 12.6385C20.9453 12.626 20.9841 12.4003 20.9097 12.1391Z" fill="white"/>
<path d="M10.4727 12.3815C10.4892 12.2713 10.5194 12.1795 10.5665 12.1081C10.6374 11.9995 10.7456 11.9399 10.8978 11.9399C11.0499 11.9399 11.1505 11.9997 11.2228 12.1081C11.2705 12.1795 11.2913 12.2753 11.2995 12.3815H10.4727ZM11.6254 12.1391C11.5963 12.0294 11.5246 11.9186 11.4772 11.8678C11.4026 11.7875 11.3297 11.7313 11.2573 11.7001C11.1523 11.6555 11.0393 11.6326 10.9251 11.6328C10.7807 11.6328 10.6491 11.6571 10.5426 11.7071C10.4357 11.7573 10.346 11.8257 10.2756 11.9109C10.2052 11.9958 10.1522 12.0969 10.1186 12.2118C10.085 12.3259 10.0676 12.4505 10.0676 12.5818C10.0676 12.7155 10.0852 12.8399 10.1203 12.9519C10.1556 13.0647 10.2121 13.1641 10.2884 13.2465C10.3645 13.3294 10.4625 13.3943 10.5799 13.4396C10.6964 13.4847 10.8379 13.508 11.0006 13.5077C11.3354 13.5066 11.5117 13.4319 11.5844 13.3918C11.5972 13.3847 11.6094 13.3721 11.5941 13.3362L11.5186 13.124C11.5069 13.0923 11.4747 13.104 11.4747 13.104C11.3918 13.1348 11.2741 13.1901 10.9986 13.1895C10.8192 13.1892 10.6858 13.1362 10.6024 13.0533C10.5166 12.9684 10.4747 12.8436 10.4673 12.6676L11.6265 12.6687C11.6265 12.6687 11.657 12.6681 11.6602 12.6385C11.6613 12.626 11.7 12.4003 11.6254 12.1391Z" fill="white"/>
<path d="M7.96694 13.1386C7.92158 13.1024 7.91533 13.0933 7.9 13.07C7.87716 13.0344 7.86551 12.9836 7.86551 12.9193C7.86551 12.8173 7.89914 12.7441 7.9689 12.6948C7.96811 12.695 8.06861 12.6079 8.30517 12.611C8.4712 12.6133 8.61962 12.6378 8.61962 12.6378V13.1649H8.61994C8.61994 13.1649 8.4726 13.1965 8.30681 13.2064C8.07087 13.2207 7.96608 13.1384 7.96694 13.1386ZM8.42818 12.3241C8.38118 12.3207 8.32026 12.3187 8.2473 12.3187C8.14782 12.3187 8.05179 12.3312 7.96186 12.3554C7.87114 12.3797 7.78973 12.4176 7.71966 12.4677C7.64966 12.5176 7.59213 12.583 7.55153 12.6588C7.51055 12.7352 7.48975 12.8253 7.48975 12.9261C7.48975 13.0287 7.50734 13.1178 7.54269 13.1908C7.57715 13.2629 7.62919 13.3252 7.69401 13.372C7.75837 13.4189 7.83791 13.4535 7.93019 13.4743C8.02106 13.4951 8.12413 13.5055 8.23698 13.5055C8.35585 13.5055 8.47432 13.4959 8.58913 13.4762C8.68683 13.4594 8.78419 13.4406 8.88114 13.4198C8.91961 13.4107 8.96239 13.399 8.96239 13.399C8.99117 13.3919 8.98882 13.3611 8.98882 13.3611L8.98827 12.3011C8.98827 12.0686 8.92618 11.8962 8.80395 11.7894C8.68234 11.6828 8.5031 11.6289 8.27146 11.6289C8.18466 11.6289 8.04468 11.6409 7.961 11.6577C7.961 11.6577 7.70762 11.7067 7.60338 11.7882C7.60338 11.7882 7.58062 11.8024 7.59313 11.8343L7.67524 12.0549C7.68541 12.0833 7.71309 12.0736 7.71309 12.0736C7.71309 12.0736 7.72193 12.0703 7.73218 12.0643C7.95521 11.9429 8.23729 11.9466 8.23729 11.9466C8.36265 11.9466 8.45892 11.9717 8.5239 12.0216C8.58717 12.07 8.61931 12.1432 8.61931 12.2976V12.3466C8.5196 12.3323 8.42818 12.3241 8.42818 12.3241Z" fill="white"/>
<path d="M17.7782 11.7292C17.7799 11.7253 17.7808 11.7211 17.7808 11.7169C17.7808 11.7127 17.78 11.7085 17.7783 11.7046C17.7767 11.7008 17.7743 11.6972 17.7713 11.6943C17.7683 11.6914 17.7647 11.6891 17.7608 11.6876C17.7411 11.6798 17.6425 11.659 17.5664 11.6542C17.4209 11.6453 17.34 11.6698 17.2676 11.7023C17.1958 11.7348 17.1161 11.7873 17.0716 11.8468V11.7059C17.0716 11.6862 17.0576 11.6705 17.0383 11.6705H16.7411C16.7218 11.6705 16.7078 11.6862 16.7078 11.7059V13.4349C16.7078 13.4542 16.7237 13.4702 16.7431 13.4702H17.0476C17.057 13.4702 17.0659 13.4664 17.0724 13.4598C17.079 13.4532 17.0827 13.4443 17.0827 13.4349V12.571C17.0827 12.455 17.0955 12.3394 17.1211 12.2667C17.1462 12.1949 17.1804 12.1374 17.2226 12.0961C17.2628 12.0564 17.312 12.027 17.3659 12.0101C17.4197 11.9935 17.4793 11.9882 17.5215 11.9882C17.5822 11.9882 17.6488 12.0038 17.6488 12.0038C17.671 12.0063 17.6836 11.9926 17.691 11.9725C17.7109 11.9194 17.7673 11.7608 17.7781 11.7292" fill="white"/>
<path d="M14.9193 10.926C14.8817 10.9147 14.8434 10.9055 14.8047 10.8987C14.7527 10.8901 14.7 10.8862 14.6472 10.8868C14.4375 10.8868 14.2722 10.946 14.1563 11.0628C14.0409 11.179 13.9625 11.356 13.9233 11.5887L13.909 11.6671H13.6457C13.6457 11.6671 13.6138 11.6659 13.607 11.7007L13.564 11.942C13.5609 11.9648 13.5708 11.9794 13.6016 11.9794H13.8578L13.5979 13.43C13.5777 13.5469 13.5543 13.6429 13.5284 13.7158C13.503 13.7876 13.4783 13.8415 13.4475 13.8808C13.4178 13.9183 13.3899 13.9463 13.3415 13.9625C13.3016 13.9759 13.2554 13.9822 13.205 13.9822C13.1771 13.9822 13.1398 13.9776 13.1122 13.9719C13.0905 13.9677 13.0695 13.9609 13.0494 13.9517C13.0494 13.9517 13.0196 13.9403 13.0076 13.9703C12.9982 13.995 12.9298 14.1827 12.9216 14.2058C12.9136 14.2289 12.9249 14.2469 12.9395 14.2523C12.9737 14.2642 12.999 14.2722 13.0455 14.2833C13.1099 14.2984 13.1643 14.2993 13.2153 14.2993C13.3218 14.2993 13.4193 14.2842 13.4999 14.2552C13.5808 14.2257 13.6515 14.1748 13.7142 14.1058C13.7817 14.0312 13.8241 13.9531 13.8646 13.8463C13.9048 13.7409 13.9392 13.6098 13.9665 13.4571L14.2278 11.9794H14.6096C14.6096 11.9794 14.6417 11.9805 14.6483 11.9454L14.6916 11.7044C14.6944 11.6813 14.6848 11.6671 14.6537 11.6671H14.283C14.2851 11.6588 14.3019 11.5284 14.3443 11.4056C14.3626 11.3534 14.3967 11.311 14.4255 11.2819C14.4526 11.2543 14.486 11.2336 14.5227 11.2215C14.5595 11.2095 14.6013 11.2038 14.6472 11.2038C14.6819 11.2038 14.7164 11.2078 14.7423 11.2132C14.7783 11.2209 14.7922 11.2249 14.8016 11.2277C14.8395 11.2392 14.8446 11.2281 14.852 11.2098L14.9406 10.9665C14.9498 10.9403 14.9273 10.9292 14.9193 10.926Z" fill="white"/>
<path d="M9.74075 13.4349C9.74075 13.4542 9.72676 13.47 9.70744 13.47H9.40002C9.38063 13.47 9.36694 13.4543 9.36694 13.4349V10.9608C9.36694 10.9415 9.38063 10.9258 9.40002 10.9258H9.70736C9.72676 10.9258 9.74075 10.9414 9.74075 10.9608V13.4349Z" fill="white"/>
</svg>
