<svg width="100%" height="100%" viewBox="0 0 26 26" fill="none" xmlns="http://www.w3.org/2000/svg">
<circle cx="13" cy="13" r="12.5" fill="white" stroke="#E2EAEC"/>
<g clip-path="url(#salesforce_datorama)">
<path d="M17.8489 5.77734H14.0199C13.6907 5.77734 13.4238 6.04424 13.4238 6.37346V19.6257C13.4238 19.9549 13.6907 20.2218 14.0199 20.2218H17.8489C18.1781 20.2218 18.445 19.9549 18.445 19.6257V6.37346C18.445 6.04424 18.1781 5.77734 17.8489 5.77734Z" fill="url(#paint0_linear_19780_109024)"/>
<g filter="url(#filter0_d_19780_109024)">
<path d="M15.488 19.6276V20.2237H14.8919H11.0629C10.7337 20.2237 10.4668 19.9568 10.4668 19.6276V9.97503C10.4668 9.6458 10.7337 9.37891 11.0629 9.37891H14.8919C15.2211 9.37891 15.488 9.6458 15.488 9.97503V19.6276Z" fill="black"/>
</g>
<path d="M15.488 19.6276V20.2237H14.8919H11.0629C10.7337 20.2237 10.4668 19.9568 10.4668 19.6276V9.97503C10.4668 9.6458 10.7337 9.37891 11.0629 9.37891H14.8919C15.2211 9.37891 15.488 9.6458 15.488 9.97503V19.6276Z" fill="url(#paint1_linear_19780_109024)"/>
<path fill-rule="evenodd" clip-rule="evenodd" d="M12.5759 19.6261V20.2222H11.9797H8.15081C7.82158 20.2222 7.55469 19.9553 7.55469 19.6261V13.5961C7.55469 13.2669 7.82158 13 8.15081 13H11.9797C12.309 13 12.5759 13.2669 12.5759 13.5961V19.6261Z" fill="url(#paint2_linear_19780_109024)"/>
</g>
<defs>
<filter id="filter0_d_19780_109024" x="10.4668" y="-0.621094" width="45.0215" height="50.8438" filterUnits="userSpaceOnUse" color-interpolation-filters="sRGB">
<feFlood flood-opacity="0" result="BackgroundImageFix"/>
<feColorMatrix in="SourceAlpha" type="matrix" values="0 0 0 0 0 0 0 0 0 0 0 0 0 0 0 0 0 0 127 0" result="hardAlpha"/>
<feOffset dx="20" dy="10"/>
<feGaussianBlur stdDeviation="10"/>
<feColorMatrix type="matrix" values="0 0 0 0 0 0 0 0 0 0 0 0 0 0 0 0 0 0 0.0530212 0"/>
<feBlend mode="normal" in2="BackgroundImageFix" result="effect1_dropShadow_19780_109024"/>
<feBlend mode="normal" in="SourceGraphic" in2="effect1_dropShadow_19780_109024" result="shape"/>
</filter>
<linearGradient id="paint0_linear_19780_109024" x1="15.9344" y1="5.77734" x2="15.9344" y2="20.2218" gradientUnits="userSpaceOnUse">
<stop stop-color="#EBBB14"/>
<stop offset="1" stop-color="#B25400"/>
</linearGradient>
<linearGradient id="paint1_linear_19780_109024" x1="12.9774" y1="9.37891" x2="12.9774" y2="20.2237" gradientUnits="userSpaceOnUse">
<stop stop-color="#F9E583"/>
<stop offset="1" stop-color="#DE9800"/>
</linearGradient>
<linearGradient id="paint2_linear_19780_109024" x1="10.0653" y1="13" x2="10.0653" y2="20.2222" gradientUnits="userSpaceOnUse">
<stop stop-color="#F9E68B"/>
<stop offset="1" stop-color="#F3CD32"/>
</linearGradient>
<clipPath id="salesforce_datorama">
<rect width="14.4444" height="14.4444" fill="white" transform="translate(5.77734 5.77734)"/>
</clipPath>
</defs>
</svg>
