<svg width="100%" height="100%" viewBox="0 0 18 18" fill="none" xmlns="http://www.w3.org/2000/svg">
<circle cx="9" cy="9" r="8.5" fill="white" stroke="#E2EAEC"/>
<mask id="mask0_1997:12937" style="mask-type:alpha" maskUnits="userSpaceOnUse" x="0" y="0" width="18" height="18">
<circle cx="9" cy="9" r="8.5" fill="white" stroke="#D0D0CE"/>
</mask>
<g mask="url(#mask0_1997:12937)">
</g>
<g clip-path="url(#clip0_1997:12937)">
<path d="M2.698 6.2002V12.7975H9.4373L16.0339 6.20094H2.698V6.2002Z" fill="url(#paint0_linear_1997:12937)"/>
<path d="M11.2343 12.1234V12.6154H11.3086V12.4019H11.3921L11.5268 12.6154H11.6103L11.4664 12.4019C11.5383 12.393 11.5964 12.3512 11.5964 12.2627C11.5964 12.1657 11.537 12.1234 11.42 12.1234H11.2343ZM11.3086 12.1884H11.4107C11.4609 12.1884 11.5175 12.1966 11.5175 12.258C11.5175 12.3348 11.4602 12.3416 11.3968 12.3416H11.3086V12.1884ZM11.4014 11.9424C11.1659 11.9424 10.9651 12.1239 10.9651 12.3694C10.9651 12.6167 11.1658 12.8011 11.4014 12.8011C11.6338 12.8011 11.8285 12.6168 11.8285 12.3694C11.8285 12.1239 11.6338 11.9424 11.4014 11.9424ZM11.4014 12.012C11.5936 12.012 11.7449 12.1673 11.7449 12.3694C11.7449 12.575 11.5936 12.7268 11.4014 12.7268C11.2059 12.7268 11.0487 12.575 11.0487 12.3694C11.0487 12.1673 11.2059 12.012 11.4014 12.012Z" fill="#1870C5"/>
<path fill-rule="evenodd" clip-rule="evenodd" d="M10.6889 9.35689H10.3998V8.29975H10.6889C11.0748 8.29975 11.3819 8.4269 11.3819 8.82156C11.3819 9.22915 11.0748 9.35689 10.6889 9.35689ZM7.57774 10.1127C7.42475 10.1127 7.28126 10.0847 7.15723 10.0381L7.57358 8.72501H7.58249L7.99023 10.0417C7.86739 10.0856 7.72762 10.1127 7.57819 10.1127H7.57774ZM10.6122 7.44091H9.29959V10.5621L8.15288 7.44091H7.01627L6.03651 10.0504C5.93298 9.39269 5.25164 9.16498 4.71601 8.99521C4.36294 8.88157 3.98714 8.71462 3.99056 8.52969C3.99353 8.37848 4.19242 8.23826 4.58471 8.2592C4.8491 8.27257 5.08231 8.29396 5.5453 8.5178L6.00131 7.72343C5.57887 7.5076 4.99348 7.37213 4.5146 7.37109H4.51163C3.95298 7.37109 3.48746 7.5532 3.1987 7.85132C2.99803 8.05986 2.88945 8.32367 2.88454 8.61733C2.87712 9.01957 3.02521 9.30505 3.33521 9.53336C3.59752 9.72557 3.93218 9.8493 4.22777 9.94198C4.59243 10.0544 4.8901 10.1526 4.88668 10.3619C4.88371 10.4381 4.85534 10.5095 4.80023 10.566C4.70948 10.6603 4.57 10.6952 4.37705 10.6995C4.00511 10.707 3.72928 10.649 3.2899 10.3894L2.88454 11.1949C3.32258 11.4443 3.84113 11.5902 4.37037 11.5902H4.43884C4.89931 11.5812 5.27125 11.4498 5.56847 11.2109L5.6166 11.1689L5.48529 11.5218H6.67731L6.87753 10.913C7.08697 10.9838 7.32552 11.0236 7.57804 11.0236C7.82446 11.0236 8.05692 10.9865 8.26265 10.9188L8.45515 11.5218H10.4001V10.2607H10.8245C11.8494 10.2607 12.4563 9.73908 12.4563 8.8636C12.4563 7.88919 11.8669 7.44224 10.6121 7.44224" fill="white"/>
</g>
<defs>
<linearGradient id="paint0_linear_1997:12937" x1="9.36125" y1="6.20376" x2="9.36125" y2="12.7977" gradientUnits="userSpaceOnUse">
<stop stop-color="#00B8F1"/>
<stop offset="0.219864" stop-color="#06A5E5"/>
<stop offset="0.794312" stop-color="#1870C5"/>
<stop offset="1" stop-color="#1D61BC"/>
</linearGradient>
<clipPath id="clip0_1997:12937">
<rect width="13.7318" height="7" fill="white" transform="translate(2.5 6)"/>
</clipPath>
</defs>
</svg>
