<svg width="100%" height="100%" viewBox="0 0 18 18" fill="none" xmlns="http://www.w3.org/2000/svg">
<circle cx="9" cy="9" r="8.5" fill="white" stroke="#E2EAEC"/>
<mask id="mask0_7981:119732" style="mask-type:alpha" maskUnits="userSpaceOnUse" x="0" y="0" width="18" height="18">
<circle cx="9" cy="9" r="8.5" fill="white" stroke="#D0D0CE"/>
</mask>
<g mask="url(#mask0_7981:119732)">
</g>
<g clip-path="url(#clip0_7981:119732)">
<path d="M3.1875 6.18945V12.4352H9.56765L15.8127 6.19016H3.1875V6.18945Z" fill="url(#paint0_linear_7981:119732)"/>
<path d="M11.2688 11.7974V12.2632H11.3391V12.061H11.4182L11.5457 12.2632H11.6248L11.4885 12.061C11.5566 12.0526 11.6116 12.013 11.6116 11.9292C11.6116 11.8374 11.5554 11.7974 11.4446 11.7974H11.2688ZM11.3391 11.8589H11.4358C11.4833 11.8589 11.5369 11.8666 11.5369 11.9248C11.5369 11.9975 11.4827 12.0039 11.4226 12.0039H11.3391V11.8589ZM11.427 11.626C11.204 11.626 11.0139 11.7978 11.0139 12.0303C11.0139 12.2644 11.204 12.4389 11.427 12.4389C11.647 12.4389 11.8313 12.2644 11.8313 12.0303C11.8313 11.7978 11.647 11.626 11.427 11.626ZM11.427 11.6919C11.609 11.6919 11.7522 11.8389 11.7522 12.0303C11.7522 12.2249 11.609 12.3686 11.427 12.3686C11.2419 12.3686 11.093 12.2249 11.093 12.0303C11.093 11.8389 11.2419 11.6919 11.427 11.6919Z" fill="#1870C5"/>
<path fill-rule="evenodd" clip-rule="evenodd" d="M10.7524 9.17782H10.4788V8.17702H10.7524C11.1178 8.17702 11.4086 8.29739 11.4086 8.67102C11.4086 9.05689 11.1178 9.17782 10.7524 9.17782V9.17782ZM7.80711 9.89331C7.66227 9.89331 7.52643 9.86687 7.40901 9.82272L7.80317 8.57962H7.81161L8.19761 9.82609C8.08132 9.86771 7.94899 9.89331 7.80753 9.89331H7.80711ZM10.6799 7.36394H9.43719V10.3188L8.35159 7.36394H7.27556L6.34801 9.83439C6.25 9.21171 5.60497 8.99614 5.09789 8.83541C4.76363 8.72783 4.40786 8.56978 4.41109 8.3947C4.4139 8.25155 4.6022 8.1188 4.97358 8.13863C5.22388 8.15129 5.44466 8.17153 5.88298 8.38345L6.31469 7.63141C5.91476 7.42708 5.36057 7.29884 4.9072 7.29785H4.90439C4.37551 7.29785 3.9348 7.47025 3.66144 7.75248C3.47146 7.94991 3.36866 8.19966 3.36402 8.47767C3.35699 8.85847 3.49719 9.12875 3.79067 9.34488C4.03901 9.52685 4.35583 9.64398 4.63566 9.73173C4.98089 9.83818 5.2627 9.93113 5.25946 10.1293C5.25665 10.2014 5.22979 10.269 5.17762 10.3225C5.0917 10.4118 4.95966 10.4448 4.77699 10.4489C4.42487 10.4559 4.16374 10.4011 3.74778 10.1553L3.36402 10.9179C3.77871 11.154 4.26963 11.2921 4.77066 11.2921H4.83549C5.27141 11.2836 5.62353 11.1592 5.90492 10.9331L5.95048 10.8933L5.82617 11.2274H6.95466L7.14422 10.651C7.34249 10.7181 7.56833 10.7557 7.80739 10.7557C8.04068 10.7557 8.26075 10.7206 8.45551 10.6565L8.63776 11.2274H10.4791V10.0335H10.8808C11.8511 10.0335 12.4257 9.53964 12.4257 8.71082C12.4257 7.78834 11.8677 7.36521 10.6797 7.36521" fill="white"/>
</g>
<defs>
<linearGradient id="paint0_linear_7981:119732" x1="9.49565" y1="6.19283" x2="9.49565" y2="12.4354" gradientUnits="userSpaceOnUse">
<stop stop-color="#00B8F1"/>
<stop offset="0.219864" stop-color="#06A5E5"/>
<stop offset="0.794312" stop-color="#1870C5"/>
<stop offset="1" stop-color="#1D61BC"/>
</linearGradient>
<clipPath id="clip0_7981:119732">
<rect width="13" height="6.62695" fill="white" transform="translate(3 6)"/>
</clipPath>
</defs>
</svg>
