<svg width="100%" height="100%" viewBox="0 0 26 25" fill="none" xmlns="http://www.w3.org/2000/svg">
<path fill-rule="evenodd" clip-rule="evenodd" d="M1.47723 10.4648C0.976634 10.4648 0.570312 10.0583 0.570312 9.55743V2.66034C0.570312 1.19194 1.76009 0.00134182 3.22729 0.00134182H10.1194C10.6199 0.00134182 11.0262 0.407843 11.0262 0.908843C11.0262 1.40974 10.6199 1.81634 10.1194 1.81634H3.22729C2.76129 1.81634 2.38403 2.19384 2.38403 2.66034V9.55743C2.38403 10.0583 1.97773 10.4648 1.47723 10.4648Z" fill="#4F4F4F"/>
<path fill-rule="evenodd" clip-rule="evenodd" d="M24.4925 10.4648C23.9918 10.4648 23.5856 10.0583 23.5856 9.55743V2.66034C23.5856 2.19384 23.2084 1.81634 22.7422 1.81634H15.8503C15.3497 1.81634 14.9434 1.40974 14.9434 0.908843C14.9434 0.407843 15.3497 0.00134182 15.8503 0.00134182H22.7422C24.2095 0.00134182 25.3993 1.19194 25.3993 2.66034V9.55743C25.3993 10.0583 24.993 10.4648 24.4925 10.4648Z" fill="#4F4F4F"/>
<path fill-rule="evenodd" clip-rule="evenodd" d="M10.1194 24.707H3.22729C1.76009 24.707 0.570312 23.5164 0.570312 22.048V15.1509C0.570312 14.65 0.976634 14.2434 1.47723 14.2434C1.97773 14.2434 2.38403 14.65 2.38403 15.1509V22.048C2.38403 22.5145 2.76129 22.892 3.22729 22.892H10.1194C10.6199 22.892 11.0262 23.2986 11.0262 23.7995C11.0262 24.3005 10.6199 24.707 10.1194 24.707Z" fill="#4F4F4F"/>
<path fill-rule="evenodd" clip-rule="evenodd" d="M22.7422 24.707H15.8503C15.3497 24.707 14.9434 24.3005 14.9434 23.7995C14.9434 23.2986 15.3497 22.892 15.8503 22.892H22.7422C23.2084 22.892 23.5856 22.5145 23.5856 22.048V15.1509C23.5856 14.65 23.9918 14.2434 24.4925 14.2434C24.993 14.2434 25.3993 14.65 25.3993 15.1509V22.048C25.3993 23.5164 24.2095 24.707 22.7422 24.707Z" fill="#4F4F4F"/>
<path fill-rule="evenodd" clip-rule="evenodd" d="M11.5106 18.7656C10.214 18.7656 8.67649 17.5745 8.03076 16.9276C5.4503 14.3476 5.44618 10.1606 8.022 7.57555C10.5974 4.99045 14.7767 4.98633 17.3572 7.56679C19.9371 10.1467 19.9412 14.3337 17.3659 16.9188C16.634 17.6536 15.7392 18.2055 14.7547 18.5295C14.4826 18.6075 14.1992 18.4493 14.1213 18.1768C14.0475 17.9185 14.1853 17.6469 14.437 17.5539C17.3593 16.581 18.9408 13.4189 17.9697 10.4913C17.6975 9.6708 17.2393 8.92482 16.6305 8.31227C14.5446 6.04656 11.0202 5.90436 8.75849 7.99396C6.4968 10.0841 6.35488 13.6144 8.44075 15.8802C8.5422 15.9906 8.64828 16.0968 8.75849 16.1985C9.41959 16.8608 10.747 17.785 11.5669 17.7388C11.8499 17.726 12.0897 17.9457 12.1025 18.2292C12.1153 18.5125 11.896 18.7529 11.6131 18.7656H11.5106Z" fill="#4F4F4F"/>
<path fill-rule="evenodd" clip-rule="evenodd" d="M20.546 20.6328C20.4118 20.6323 20.2826 20.5789 20.1873 20.4839L16.6407 16.9361C16.4397 16.7349 16.4397 16.4083 16.6407 16.2071C16.8416 16.0058 17.1676 16.0058 17.3685 16.2071L20.9099 19.76C21.1087 19.9602 21.1087 20.2837 20.9099 20.4839C20.813 20.5799 20.6823 20.6339 20.546 20.6328Z" fill="#4F4F4F"/>
</svg>
