<svg width="100%" height="100%" viewBox="0 0 18 18" fill="none" xmlns="http://www.w3.org/2000/svg">
<circle cx="9" cy="9" r="8.5" fill="white" stroke="#E2EAEC"/>
<path d="M4 10.6593H7.33899V7.32031H4V10.6593Z" fill="white"/>
<path d="M4 10.6593H7.33899V7.32031H4V10.6593Z" fill="#99E1F4"/>
<path d="M7.33887 13.9814H10.6591V10.6611H7.33887V13.9814Z" fill="white"/>
<path d="M7.33887 13.9814H10.6591V10.6611H7.33887V13.9814Z" fill="#99E1F4"/>
<path d="M4 14.0001H7.33899V13.9814H4V14.0001ZM4 13.9814H7.33899V10.6611H4V13.9814Z" fill="#1A82E2"/>
<path d="M7.33887 7.32024H10.6591V4H7.33887V7.32024ZM10.6607 10.6592H13.9997V7.33899H10.6607V10.6592Z" fill="#00B3E3"/>
<path d="M7.33887 7.32031H10.6591V10.6609H7.33887V7.32031Z" fill="#009DD9"/>
<path d="M10.661 7.32024H14V4H10.661V7.32024Z" fill="#1A82E2"/>
<path d="M10.661 7.33906H14V7.32031H10.661V7.33906Z" fill="#1A82E2"/>
</svg>
