<svg width="100%" height="100%" viewBox="0 0 26 26" fill="none" version="1.1" xmlns="http://www.w3.org/2000/svg">
<circle cx="13" cy="13" r="12.5" fill="white" stroke="#D0D0CE"/>   
    <g transform="translate(4,0) scale(.65)"><polygon id="Fill-2" fill="#9DD6E3" points="8.52940076 31.8478028 17.0162015 31.8478028 17.0162015 23.3610021 8.52940076 23.3610021"></polygon><polygon id="Fill-3" fill="#9DD6E3" points="0.0426000038 23.3614021 8.52940076 23.3614021 8.52940076 14.8744013 0.0426000038 14.8744013"></polygon><polygon id="Fill-4" fill="#3F72AB" points="0.0428000038 31.8478028 8.52960076 31.8478028 8.52960076 23.3610021 0.0428000038 23.3610021"></polygon><polygon id="Fill-5" fill="#00A9D1" points="17.0162015 23.3614021 25.5030023 23.3614021 25.5030023 14.8744013 17.0162015 14.8744013"></polygon><polygon id="Fill-6" fill="#00A9D1" points="8.52940076 14.8746013 17.0162015 14.8746013 17.0162015 6.38780057 8.52940076 6.38780057"></polygon><polygon id="Fill-7" fill="#2191C4" points="8.52940076 23.3612021 17.0162015 23.3612021 17.0162015 14.8744013 8.52940076 14.8744013"></polygon><polygon id="Fill-8" fill="#3F72AB" points="17.0162015 14.8746013 25.5030023 14.8746013 25.5030023 6.38780057 17.0162015 6.38780057"></polygon></g>
</svg>
