<svg width="100%" height="100%" viewBox="0 0 26 26" fill="none" xmlns="http://www.w3.org/2000/svg">
<circle cx="13" cy="13" r="12.5" fill="white" stroke="#E2EAEC"/>
<path d="M5.77783 15.3972H10.6008V10.5742H5.77783V15.3972Z" fill="white"/>
<path d="M5.77783 15.3972H10.6008V10.5742H5.77783V15.3972Z" fill="#99E1F4"/>
<path d="M10.6006 20.1943H15.3965V15.3984H10.6006V20.1943Z" fill="white"/>
<path d="M10.6006 20.1943H15.3965V15.3984H10.6006V20.1943Z" fill="#99E1F4"/>
<path d="M5.77783 20.2214H10.6008V20.1943H5.77783V20.2214ZM5.77783 20.1943H10.6008V15.3984H5.77783V20.1943Z" fill="#1A82E2"/>
<path d="M10.6006 10.5732H15.3965V5.77734H10.6006V10.5732ZM15.3987 15.3962H20.2217V10.6003H15.3987V15.3962Z" fill="#00B3E3"/>
<path d="M10.6006 10.5742H15.3965V15.3995H10.6006V10.5742Z" fill="#009DD9"/>
<path d="M15.3994 10.5732H20.2224V5.77734H15.3994V10.5732Z" fill="#1A82E2"/>
<path d="M15.3994 10.6013H20.2224V10.5742H15.3994V10.6013Z" fill="#1A82E2"/>
</svg>
