<svg width="100%" height="100%" viewBox="0 0 26 26" fill="none" xmlns="http://www.w3.org/2000/svg">
<circle cx="13" cy="13" r="12.5" fill="white" stroke="#E2EAEC"/>
<mask id="servicenow0" style="mask-type:alpha" maskUnits="userSpaceOnUse" x="0" y="0" width="26" height="26">
<circle cx="13" cy="13" r="12.5" fill="white" stroke="#D0D0CE"/>
</mask>
<g mask="url(#servicenow0)">
</g>
<g clip-path="url(#servicenow1)">
<path fill-rule="evenodd" clip-rule="evenodd" d="M7.80879 11.7461C7.59152 11.7461 7.40528 11.8237 7.25008 11.9479V11.7771H6.72241V13.7792H7.2656V12.5066C7.3432 12.3979 7.52944 12.2582 7.76223 12.2582C7.83983 12.2582 7.91743 12.2738 7.97951 12.2893V11.7771C7.91743 11.7616 7.85535 11.7461 7.80879 11.7461Z" fill="#293E40"/>
<path fill-rule="evenodd" clip-rule="evenodd" d="M3.13723 13.1583C3.27691 13.2824 3.49419 13.36 3.68042 13.36C3.8201 13.36 3.94426 13.2824 3.94426 13.1893C3.94426 12.8789 2.96651 12.9876 2.96651 12.3513C2.96651 11.9633 3.33899 11.7305 3.72698 11.7305C3.99082 11.7305 4.27017 11.8236 4.40985 11.9322L4.16153 12.3202C4.0529 12.2581 3.92874 12.1805 3.77354 12.1805C3.61834 12.1805 3.50971 12.2426 3.50971 12.3513C3.50971 12.6151 4.48745 12.5065 4.48745 13.2048C4.48745 13.5928 4.11498 13.8256 3.69594 13.8256C3.41659 13.8256 3.12171 13.7325 2.88892 13.5618L3.13723 13.1583Z" fill="#293E40"/>
<path fill-rule="evenodd" clip-rule="evenodd" d="M6.48939 12.7548C6.48939 12.1961 6.10139 11.7305 5.54268 11.7305C4.95293 11.7305 4.56494 12.2271 4.56494 12.7703C4.56494 13.4066 5.01501 13.8101 5.60476 13.8101C5.91516 13.8101 6.22555 13.686 6.42731 13.4532L6.11691 13.1428C6.02379 13.2514 5.83756 13.3756 5.62028 13.3756C5.34093 13.3756 5.10813 13.1738 5.07709 12.8945H6.45835C6.48939 12.8634 6.48939 12.8169 6.48939 12.7548ZM5.12365 12.522C5.15469 12.3357 5.34093 12.165 5.5582 12.165C5.77548 12.165 5.93068 12.3357 5.96172 12.522H5.12365Z" fill="#293E40"/>
<path fill-rule="evenodd" clip-rule="evenodd" d="M10.3383 11.7812L9.42266 13.7833H9.05019L8.13452 11.7812H8.67771L9.23643 13.0073L9.77962 11.7812H10.3383Z" fill="#293E40"/>
<path fill-rule="evenodd" clip-rule="evenodd" d="M10.7885 10.832C10.9902 10.832 11.1454 10.9872 11.1454 11.1735C11.1454 11.3752 10.9902 11.5149 10.7885 11.5149C10.5867 11.5149 10.447 11.3597 10.447 11.1735C10.447 10.9717 10.5867 10.832 10.7885 10.832Z" fill="#293E40"/>
<path d="M11.0679 11.7773H10.5247V13.7794H11.0679V11.7773Z" fill="#293E40"/>
<path fill-rule="evenodd" clip-rule="evenodd" d="M13.2718 13.36C13.039 13.6704 12.7441 13.8101 12.3716 13.8101C11.7509 13.8101 11.3008 13.3445 11.3008 12.7703C11.3008 12.1805 11.7664 11.7305 12.3716 11.7305C12.7286 11.7305 13.0235 11.9012 13.2097 12.134L12.8528 12.4599C12.7441 12.3202 12.5889 12.2271 12.4027 12.2271C12.0923 12.2271 11.8595 12.4754 11.8595 12.7703C11.8595 13.0807 12.0768 13.3135 12.4027 13.3135C12.62 13.3135 12.7907 13.1893 12.8838 13.0496L13.2718 13.36Z" fill="#293E40"/>
<path fill-rule="evenodd" clip-rule="evenodd" d="M15.2115 13.4532C15.0097 13.686 14.6993 13.8101 14.3889 13.8101C13.7992 13.8101 13.3491 13.4066 13.3491 12.7703C13.3491 12.2116 13.7216 11.7305 14.3269 11.7305C14.8701 11.7305 15.2736 12.1961 15.2736 12.7548C15.2736 12.8169 15.2736 12.8634 15.2581 12.91H13.8613C13.8923 13.1893 14.1251 13.3911 14.4045 13.3911C14.6217 13.3911 14.808 13.2669 14.9011 13.1583L15.2115 13.4532ZM14.7149 12.522C14.6993 12.3513 14.5441 12.165 14.3113 12.165C14.0941 12.165 13.9078 12.3357 13.8768 12.522H14.7149Z" fill="#293E40"/>
<path fill-rule="evenodd" clip-rule="evenodd" d="M15.4753 13.7792V11.7771H15.9875V11.9479C16.1427 11.8237 16.3289 11.7461 16.5462 11.7461C16.8256 11.7461 17.0739 11.8703 17.2446 12.072C17.3688 12.2272 17.4619 12.429 17.4619 12.7704V13.7947H16.9187V12.7238C16.9187 12.5221 16.8721 12.4134 16.7945 12.3514C16.7169 12.2738 16.6238 12.2272 16.4841 12.2272C16.2668 12.2272 16.0806 12.3669 15.9875 12.4755V13.7792H15.4753Z" fill="#293E40"/>
<path fill-rule="evenodd" clip-rule="evenodd" d="M18.8432 11.7305C18.1914 11.7305 17.6792 12.2426 17.6792 12.8944C17.6792 13.2359 17.8189 13.5463 18.0362 13.7636C18.1138 13.8412 18.2534 13.8412 18.3465 13.7791C18.4707 13.6704 18.6569 13.6084 18.8432 13.6084C19.0449 13.6084 19.2001 13.6704 19.3398 13.7791C19.4329 13.8567 19.5571 13.8412 19.6502 13.748C19.8675 13.5308 20.0072 13.2359 20.0072 12.8944C19.9916 12.2581 19.4795 11.7305 18.8432 11.7305ZM18.8277 13.4997C18.4707 13.4997 18.2379 13.2359 18.2379 12.91C18.2379 12.5841 18.4707 12.3202 18.8277 12.3202C19.1846 12.3202 19.4174 12.5841 19.4174 12.91C19.4174 13.2359 19.1846 13.4997 18.8277 13.4997Z" fill="#81B5A1"/>
<path fill-rule="evenodd" clip-rule="evenodd" d="M19.8674 11.7812H20.3951L20.8297 12.9297L21.2642 11.7812H21.7143L22.1333 12.9297L22.5679 11.7812H23.1111L22.3196 13.7833H21.916L21.4815 12.6504L21.0625 13.7833H20.6589L19.8674 11.7812Z" fill="#293E40"/>
</g>
<defs>
<clipPath id="servicenow1">
<rect width="20.2222" height="2.99906" fill="white" transform="translate(2.88892 10.832)"/>
</clipPath>
</defs>
</svg>
