<svg width="100%" height="100%" viewBox="0 0 18 18" fill="none" xmlns="http://www.w3.org/2000/svg">
<circle cx="9" cy="9" r="8.5" fill="white" stroke="#E2EAEC"/>
<mask id="servicenow0" style="mask-type:alpha" maskUnits="userSpaceOnUse" x="0" y="0" width="18" height="18">
<circle cx="9" cy="9" r="8.5" fill="white" stroke="#D0D0CE"/>
</mask>
<g mask="url(#servicenow0)">
</g>
<g clip-path="url(#servicenow1)">
<path fill-rule="evenodd" clip-rule="evenodd" d="M5.40604 8.13379C5.25562 8.13379 5.12669 8.18751 5.01924 8.27347V8.15528H4.65393V9.54131H5.02999V8.66027C5.08371 8.58506 5.21264 8.48836 5.37381 8.48836C5.42753 8.48836 5.48125 8.4991 5.52423 8.50984V8.15528C5.48125 8.14453 5.43827 8.13379 5.40604 8.13379Z" fill="#293E40"/>
<path fill-rule="evenodd" clip-rule="evenodd" d="M2.17191 9.11153C2.26861 9.19749 2.41903 9.25121 2.54797 9.25121C2.64467 9.25121 2.73062 9.19749 2.73062 9.13302C2.73062 8.91813 2.05372 8.99335 2.05372 8.55282C2.05372 8.28421 2.31159 8.12305 2.5802 8.12305C2.76285 8.12305 2.95625 8.18751 3.05295 8.26272L2.88104 8.53134C2.80583 8.48836 2.71988 8.43464 2.61243 8.43464C2.50499 8.43464 2.42978 8.47761 2.42978 8.55282C2.42978 8.73548 3.10668 8.66027 3.10668 9.14377C3.10668 9.41238 2.84881 9.57355 2.55871 9.57355C2.36531 9.57355 2.16117 9.50908 2 9.39089L2.17191 9.11153Z" fill="#293E40"/>
<path fill-rule="evenodd" clip-rule="evenodd" d="M4.49271 8.83218C4.49271 8.44538 4.2241 8.12305 3.8373 8.12305C3.42901 8.12305 3.1604 8.46687 3.1604 8.84292C3.1604 9.28345 3.47199 9.5628 3.88028 9.5628C4.09517 9.5628 4.31005 9.47685 4.44973 9.31568L4.23484 9.10079C4.17038 9.176 4.04144 9.26196 3.89102 9.26196C3.69762 9.26196 3.53646 9.12228 3.51497 8.92888H4.47122C4.49271 8.90739 4.49271 8.87516 4.49271 8.83218ZM3.5472 8.67101C3.56869 8.54208 3.69762 8.42389 3.84804 8.42389C3.99847 8.42389 4.10591 8.54208 4.1274 8.67101H3.5472Z" fill="#293E40"/>
<path fill-rule="evenodd" clip-rule="evenodd" d="M7.15718 8.15625L6.52326 9.54228H6.26539L5.63147 8.15625H6.00753L6.39433 9.00506L6.77038 8.15625H7.15718Z" fill="#293E40"/>
<path fill-rule="evenodd" clip-rule="evenodd" d="M7.46892 7.5C7.6086 7.5 7.71604 7.60744 7.71604 7.73638C7.71604 7.87606 7.6086 7.97276 7.46892 7.97276C7.32924 7.97276 7.23254 7.86531 7.23254 7.73638C7.23254 7.5967 7.32924 7.5 7.46892 7.5Z" fill="#293E40"/>
<path d="M7.66231 8.15527H7.28625V9.54131H7.66231V8.15527Z" fill="#293E40"/>
<path fill-rule="evenodd" clip-rule="evenodd" d="M9.18815 9.25121C9.02698 9.4661 8.82284 9.5628 8.56497 9.5628C8.1352 9.5628 7.82361 9.24047 7.82361 8.84292C7.82361 8.43464 8.14594 8.12305 8.56497 8.12305C8.8121 8.12305 9.01624 8.24124 9.14517 8.4024L8.89805 8.62804C8.82284 8.53134 8.7154 8.46687 8.58646 8.46687C8.37157 8.46687 8.21041 8.63878 8.21041 8.84292C8.21041 9.05781 8.36083 9.21898 8.58646 9.21898C8.73688 9.21898 8.85507 9.13302 8.91954 9.03632L9.18815 9.25121Z" fill="#293E40"/>
<path fill-rule="evenodd" clip-rule="evenodd" d="M10.531 9.31568C10.3914 9.47685 10.1765 9.5628 9.96158 9.5628C9.55329 9.5628 9.2417 9.28345 9.2417 8.84292C9.2417 8.45612 9.49957 8.12305 9.9186 8.12305C10.2947 8.12305 10.574 8.44538 10.574 8.83218C10.574 8.87516 10.574 8.90739 10.5633 8.93962H9.59627C9.61775 9.13302 9.77892 9.2727 9.97232 9.2727C10.1227 9.2727 10.2517 9.18675 10.3161 9.11154L10.531 9.31568ZM10.1872 8.67101C10.1765 8.55282 10.069 8.42389 9.90785 8.42389C9.75743 8.42389 9.6285 8.54208 9.60701 8.67101H10.1872Z" fill="#293E40"/>
<path fill-rule="evenodd" clip-rule="evenodd" d="M10.7137 9.54131V8.15528H11.0683V8.27347C11.1758 8.18751 11.3047 8.13379 11.4551 8.13379C11.6485 8.13379 11.8204 8.21974 11.9386 8.35942C12.0246 8.46687 12.089 8.60654 12.089 8.84292V9.55205H11.713V8.81069C11.713 8.67101 11.6807 8.5958 11.627 8.55282C11.5733 8.4991 11.5088 8.46687 11.4121 8.46687C11.2617 8.46687 11.1328 8.56357 11.0683 8.63878V9.54131H10.7137Z" fill="#293E40"/>
<path fill-rule="evenodd" clip-rule="evenodd" d="M13.0452 8.12305C12.5939 8.12305 12.2394 8.47761 12.2394 8.92888C12.2394 9.16526 12.3361 9.38015 12.4865 9.53057C12.5402 9.58429 12.6369 9.58429 12.7014 9.54131C12.7873 9.4661 12.9163 9.42312 13.0452 9.42312C13.1849 9.42312 13.2923 9.4661 13.389 9.54131C13.4535 9.59503 13.5395 9.58429 13.6039 9.51982C13.7543 9.3694 13.851 9.16526 13.851 8.92888C13.8403 8.48836 13.4857 8.12305 13.0452 8.12305ZM13.0345 9.34791C12.7873 9.34791 12.6262 9.16526 12.6262 8.93962C12.6262 8.71399 12.7873 8.53134 13.0345 8.53134C13.2816 8.53134 13.4428 8.71399 13.4428 8.93962C13.4428 9.16526 13.2816 9.34791 13.0345 9.34791Z" fill="#81B5A1"/>
<path fill-rule="evenodd" clip-rule="evenodd" d="M13.7544 8.15625H14.1197L14.4206 8.95134L14.7214 8.15625H15.033L15.3231 8.95134L15.6239 8.15625H16L15.452 9.54228H15.1727L14.8718 8.75794L14.5817 9.54228H14.3024L13.7544 8.15625Z" fill="#293E40"/>
</g>
<defs>
<clipPath id="servicenow1">
<rect width="14" height="2.07627" fill="white" transform="translate(2 7.5)"/>
</clipPath>
</defs>
</svg>
