<svg width="100%" height="100%" viewBox="0 0 44 44" fill="none" xmlns="http://www.w3.org/2000/svg">
<circle cx="22" cy="22" r="21.5" fill="white" stroke="#E2EAEC"/>
<path d="M19.1616 12.738C20.2532 11.6007 21.7729 10.8953 23.4535 10.8953C25.6879 10.8953 27.6372 12.1412 28.6751 13.9907C29.6037 13.5759 30.6094 13.3622 31.6264 13.3634C35.6561 13.3634 38.9231 16.6587 38.9231 20.7238C38.9231 24.7891 35.6561 28.0845 31.6264 28.0845C31.1346 28.0845 30.654 28.0354 30.1892 27.9413C29.2749 29.5719 27.533 30.6737 25.5336 30.6737C24.725 30.6747 23.9268 30.4909 23.2001 30.1365C22.2734 32.3162 20.1144 33.8448 17.598 33.8448C14.9776 33.8448 12.7444 32.1865 11.8871 29.8612C11.5125 29.9408 11.1244 29.9823 10.7261 29.9823C7.60627 29.9823 5.07692 27.4268 5.07692 24.2743C5.07467 23.2752 5.33431 22.2929 5.82995 21.4254C6.3256 20.5579 7.03994 19.8354 7.9018 19.33C7.54392 18.5061 7.35975 17.6173 7.36078 16.7191C7.36078 13.0934 10.3042 10.1543 13.935 10.1543C16.0665 10.1543 17.9609 11.1678 19.1617 12.738" fill="#009ED8"/>
<path d="M9.97907 22.4394C9.9579 22.495 9.98675 22.5065 9.99363 22.5162C10.0572 22.5625 10.1217 22.5956 10.1869 22.6328C10.5321 22.816 10.858 22.8696 11.1989 22.8696C11.8932 22.8696 12.3242 22.5003 12.3242 21.9057V21.8942C12.3242 21.3446 11.8377 21.1448 11.3811 21.0009L11.3218 20.9814C10.9776 20.8696 10.6806 20.7732 10.6806 20.5465V20.5346C10.6806 20.3407 10.8541 20.1979 11.1232 20.1979C11.4221 20.1979 11.777 20.2973 12.0055 20.4236C12.0055 20.4236 12.0725 20.467 12.0971 20.402C12.1106 20.3672 12.2263 20.0558 12.2384 20.022C12.2514 19.9854 12.2283 19.9584 12.2047 19.944C11.9438 19.7853 11.5832 19.6768 11.21 19.6768L11.1405 19.6773C10.5051 19.6773 10.0615 20.0611 10.0615 20.6112V20.6228C10.0615 21.2028 10.5509 21.3907 11.0094 21.5219L11.0832 21.5447C11.4173 21.6474 11.7052 21.7355 11.7052 21.9708V21.9825C11.7052 22.1974 11.5181 22.3575 11.2162 22.3575C11.0991 22.3575 10.7255 22.3551 10.3218 22.1C10.2731 22.0715 10.2447 22.0509 10.2071 22.0282C10.1872 22.0157 10.1378 21.9938 10.116 22.0595L9.97907 22.4394V22.4394Z" fill="white"/>
<path d="M20.1429 22.4394C20.1217 22.495 20.1506 22.5065 20.1574 22.5162C20.221 22.5625 20.2856 22.5956 20.3507 22.6328C20.6958 22.816 21.0218 22.8696 21.3627 22.8696C22.057 22.8696 22.488 22.5003 22.488 21.9057V21.8942C22.488 21.3446 22.0015 21.1448 21.5449 21.0009L21.4857 20.9814C21.1414 20.8696 20.8443 20.7732 20.8443 20.5465V20.5346C20.8443 20.3407 21.0179 20.1979 21.287 20.1979C21.586 20.1979 21.9408 20.2973 22.1693 20.4236C22.1693 20.4236 22.2363 20.467 22.2609 20.402C22.2744 20.3672 22.3901 20.0558 22.4021 20.022C22.4152 19.9854 22.3921 19.9584 22.3684 19.944C22.1077 19.7853 21.7469 19.6768 21.3738 19.6768L21.3043 19.6773C20.6688 19.6773 20.2253 20.0611 20.2253 20.6112V20.6228C20.2253 21.2028 20.7146 21.3907 21.1732 21.5219L21.2469 21.5447C21.5811 21.6474 21.8694 21.7355 21.8694 21.9708V21.9825C21.8694 22.1974 21.6818 22.3575 21.38 22.3575C21.2629 22.3575 20.8892 22.3551 20.4857 22.1C20.437 22.0715 20.408 22.0518 20.3714 22.0282C20.3589 22.02 20.3 21.9973 20.2797 22.0595L20.1429 22.4394V22.4394Z" fill="white"/>
<path d="M27.0817 21.2736C27.0817 21.6098 27.019 21.8745 26.8956 22.0615C26.7736 22.2467 26.589 22.3367 26.3314 22.3367C26.0735 22.3367 25.8898 22.2471 25.7698 22.0615C25.6483 21.8749 25.5866 21.6098 25.5866 21.2736C25.5866 20.9381 25.6483 20.6738 25.7698 20.4888C25.8898 20.3055 26.0735 20.2163 26.3314 20.2163C26.589 20.2163 26.7735 20.3055 26.896 20.4887C27.0191 20.674 27.0817 20.9381 27.0817 21.2736V21.2736ZM27.6612 20.6508C27.6043 20.4584 27.5156 20.2887 27.3975 20.1474C27.2793 20.0058 27.1299 19.892 26.9524 19.809C26.7754 19.7265 26.5662 19.6846 26.3314 19.6846C26.0961 19.6846 25.8869 19.7265 25.7099 19.809C25.5326 19.8918 25.3831 20.0056 25.2645 20.1474C25.1468 20.2891 25.058 20.4589 25.0007 20.6508C24.9443 20.8422 24.916 21.0514 24.916 21.2736C24.916 21.496 24.9443 21.7057 25.0007 21.8966C25.0582 22.0885 25.1463 22.2583 25.265 22.4C25.3831 22.5416 25.533 22.655 25.7099 22.7355C25.8873 22.8161 26.0961 22.857 26.3314 22.857C26.5662 22.857 26.775 22.816 26.9524 22.7355C27.1293 22.655 27.2793 22.5417 27.3975 22.4C27.5156 22.2587 27.6043 22.089 27.6612 21.8966C27.7181 21.7052 27.7466 21.4956 27.7466 21.2736C27.7466 21.0519 27.7181 20.8422 27.6612 20.6508Z" fill="white"/>
<path d="M32.4207 22.247C32.4015 22.1906 32.347 22.2118 32.347 22.2118C32.2627 22.2442 32.1729 22.274 32.0775 22.2889C31.9723 22.3046 31.8661 22.3122 31.7598 22.3117C31.4792 22.3117 31.2563 22.2283 31.0967 22.0633C30.9367 21.8984 30.847 21.6319 30.8479 21.2712C30.849 20.9429 30.9281 20.6961 31.0702 20.508C31.2116 20.3209 31.4265 20.2249 31.7134 20.2249C31.9526 20.2249 32.1348 20.2524 32.3258 20.3127C32.3258 20.3127 32.3716 20.3325 32.3933 20.2727C32.4438 20.1319 32.4816 20.0312 32.5356 19.8763C32.5509 19.8325 32.5133 19.8137 32.4998 19.8084C32.4246 19.7789 32.2472 19.7313 32.1131 19.711C31.9878 19.6917 31.8413 19.6816 31.6782 19.6816C31.4347 19.6816 31.2178 19.7231 31.0321 19.806C30.847 19.8884 30.6899 20.0022 30.5655 20.1439C30.4411 20.2857 30.3466 20.4555 30.2835 20.6474C30.2207 20.8387 30.189 21.0489 30.189 21.2712C30.189 21.7519 30.3187 22.1405 30.5746 22.425C30.8311 22.7103 31.2165 22.8555 31.7187 22.8555C32.0157 22.8555 32.3205 22.7953 32.5393 22.7089C32.5393 22.7089 32.5813 22.6886 32.5631 22.6401L32.4207 22.247V22.247Z" fill="white"/>
<path d="M33.4345 20.9516C33.4618 20.765 33.5135 20.6098 33.593 20.4888C33.713 20.3051 33.8962 20.2043 34.1537 20.2043C34.4111 20.2043 34.5813 20.3055 34.7034 20.4888C34.7844 20.6098 34.8196 20.7718 34.8335 20.9516H33.4345ZM35.3856 20.5414C35.3364 20.3557 35.2143 20.1682 35.1344 20.0823C35.008 19.9463 34.8847 19.8513 34.7621 19.7984C34.5843 19.723 34.3931 19.6843 34.1999 19.6846C33.9551 19.6846 33.7328 19.7256 33.5525 19.8103C33.3717 19.8953 33.2198 20.0109 33.1007 20.1552C32.9816 20.2988 32.892 20.4699 32.8351 20.6643C32.7776 20.8575 32.7488 21.0684 32.7488 21.2906C32.7488 21.5167 32.7787 21.7273 32.838 21.9168C32.8977 22.1078 32.9932 22.276 33.1225 22.4154C33.2512 22.5556 33.417 22.6656 33.6156 22.7422C33.8128 22.8185 34.0524 22.858 34.3276 22.8575C34.8942 22.8555 35.1928 22.7291 35.3156 22.6612C35.3373 22.6493 35.3581 22.628 35.332 22.5673L35.2038 22.2081C35.1846 22.1545 35.13 22.1744 35.13 22.1744C34.9898 22.2264 34.7902 22.3199 34.3249 22.319C34.0206 22.3185 33.795 22.2287 33.6537 22.0885C33.5086 21.9449 33.4378 21.7337 33.4252 21.4357L35.3871 21.4376C35.3871 21.4376 35.4387 21.4367 35.444 21.3865C35.4458 21.3653 35.5115 20.9834 35.3856 20.5414V20.5414Z" fill="white"/>
<path d="M17.7229 20.9516C17.7508 20.765 17.8019 20.6098 17.8816 20.4888C18.0016 20.3051 18.1848 20.2043 18.4422 20.2043C18.6997 20.2043 18.8699 20.3055 18.9923 20.4888C19.0729 20.6098 19.1081 20.7718 19.122 20.9516H17.7229ZM19.6736 20.5414C19.6244 20.3557 19.5029 20.1682 19.4229 20.0823C19.2966 19.9463 19.1731 19.8513 19.0507 19.7984C18.8729 19.723 18.6817 19.6843 18.4885 19.6846C18.2441 19.6846 18.0213 19.7256 17.8411 19.8103C17.6602 19.8953 17.5084 20.0109 17.3893 20.1552C17.2701 20.2988 17.1805 20.4699 17.1236 20.6643C17.0667 20.8575 17.0374 21.0684 17.0374 21.2906C17.0374 21.5167 17.0671 21.7273 17.1266 21.9168C17.1862 22.1078 17.2818 22.276 17.411 22.4154C17.5397 22.5556 17.7056 22.6656 17.9042 22.7422C18.1014 22.8185 18.3409 22.858 18.6162 22.8575C19.1828 22.8555 19.4812 22.7291 19.6042 22.6612C19.6259 22.6493 19.6465 22.628 19.6206 22.5673L19.4929 22.2081C19.473 22.1545 19.4186 22.1744 19.4186 22.1744C19.2783 22.2264 19.0792 22.3199 18.6129 22.319C18.3092 22.3185 18.0835 22.2287 17.9423 22.0885C17.7971 21.9449 17.7262 21.7337 17.7138 21.4357L19.6755 21.4376C19.6755 21.4376 19.7271 21.4367 19.7324 21.3865C19.7344 21.3653 19.7999 20.9834 19.6736 20.5414V20.5414Z" fill="white"/>
<path d="M13.4826 22.2365C13.4059 22.1753 13.3953 22.1598 13.3693 22.1203C13.3307 22.0601 13.311 21.9742 13.311 21.8653C13.311 21.6927 13.3679 21.5689 13.4859 21.4855C13.4846 21.4859 13.6547 21.3383 14.055 21.3436C14.336 21.3476 14.5872 21.389 14.5872 21.389V22.281H14.5877C14.5877 22.281 14.3383 22.3345 14.0578 22.3513C13.6585 22.3754 13.4812 22.2361 13.4826 22.2365V22.2365ZM14.2632 20.8582C14.1836 20.8524 14.0805 20.8489 13.9571 20.8489C13.7887 20.8489 13.6262 20.8701 13.474 20.9111C13.3205 20.9521 13.1827 21.0163 13.0641 21.1012C12.9457 21.1857 12.8483 21.2963 12.7796 21.4246C12.7103 21.5539 12.675 21.7062 12.675 21.8768C12.675 22.0505 12.7048 22.2013 12.7646 22.3248C12.823 22.4469 12.911 22.5523 13.0207 22.6315C13.1296 22.7109 13.2642 22.7694 13.4204 22.8046C13.5742 22.8398 13.7486 22.8575 13.9396 22.8575C14.1408 22.8575 14.3413 22.8412 14.5355 22.8079C14.7009 22.7794 14.8656 22.7476 15.0297 22.7124C15.0948 22.697 15.1672 22.6772 15.1672 22.6772C15.2159 22.6652 15.2119 22.6131 15.2119 22.6131L15.211 20.8191C15.211 20.4257 15.1059 20.134 14.8991 19.9532C14.6933 19.7728 14.39 19.6816 13.998 19.6816C13.8511 19.6816 13.6142 19.702 13.4726 19.7303C13.4726 19.7303 13.0438 19.8133 12.8673 19.9512C12.8673 19.9512 12.8288 19.9753 12.85 20.0293L12.989 20.4025C13.0062 20.4507 13.053 20.4343 13.053 20.4343C13.053 20.4343 13.068 20.4286 13.0853 20.4184C13.4628 20.213 13.9401 20.2194 13.9401 20.2194C14.1523 20.2194 14.3152 20.2617 14.4252 20.3461C14.5322 20.4281 14.5866 20.5519 14.5866 20.8133V20.8962C14.4179 20.8721 14.2632 20.8582 14.2632 20.8582Z" fill="white"/>
<path d="M30.0862 19.8468C30.089 19.8403 30.0905 19.8332 30.0905 19.8261C30.0906 19.8189 30.0892 19.8119 30.0864 19.8053C30.0837 19.7987 30.0796 19.7928 30.0745 19.7878C30.0694 19.7828 30.0633 19.779 30.0567 19.7764C30.0234 19.7633 29.8566 19.7281 29.7278 19.7199C29.4815 19.7049 29.3445 19.7463 29.2221 19.8014C29.1006 19.8563 28.9656 19.9451 28.8903 20.0458V19.8074C28.8903 19.774 28.8668 19.7475 28.8339 19.7475H28.331C28.2983 19.7475 28.2747 19.774 28.2747 19.8074V22.7335C28.2747 22.7662 28.3017 22.7932 28.3345 22.7932H28.8498C28.8656 22.7931 28.8807 22.7868 28.8918 22.7756C28.9029 22.7644 28.9091 22.7493 28.9091 22.7335V21.2715C28.9091 21.0752 28.9308 20.8795 28.9742 20.7565C29.0166 20.635 29.0745 20.5376 29.1459 20.4678C29.214 20.4007 29.2972 20.3508 29.3885 20.3222C29.4795 20.2941 29.5804 20.2851 29.6517 20.2851C29.7544 20.2851 29.8672 20.3116 29.8672 20.3116C29.9047 20.3158 29.926 20.2927 29.9386 20.2585C29.9722 20.1688 30.0678 19.9003 30.086 19.8468" fill="white"/>
<path d="M25.2482 18.4904C25.1846 18.4711 25.1198 18.4557 25.0543 18.4441C24.9662 18.4296 24.8771 18.4229 24.7878 18.4239C24.4328 18.4239 24.1532 18.5241 23.9571 18.7218C23.7617 18.9185 23.6291 19.218 23.5627 19.6119L23.5385 19.7445H23.093C23.093 19.7445 23.039 19.7425 23.0275 19.8014L22.9547 20.2097C22.9494 20.2483 22.9662 20.2729 23.0182 20.2729H23.4518L23.012 22.7279C22.9779 22.9256 22.9383 23.0881 22.8944 23.2115C22.8515 23.333 22.8097 23.4242 22.7575 23.4907C22.7072 23.5542 22.6601 23.6016 22.578 23.629C22.5106 23.6516 22.4325 23.6624 22.3471 23.6624C22.2999 23.6624 22.2367 23.6546 22.19 23.6449C22.1534 23.6378 22.1178 23.6264 22.0839 23.6108C22.0839 23.6108 22.0333 23.5914 22.0131 23.6421C21.9972 23.6841 21.8814 24.0017 21.8675 24.0407C21.854 24.0798 21.8732 24.1102 21.8978 24.1194C21.9556 24.1396 21.9985 24.1531 22.0771 24.1719C22.1862 24.1974 22.2783 24.1989 22.3646 24.1989C22.5448 24.1989 22.7097 24.1733 22.8462 24.1242C22.9832 24.0745 23.1027 23.9882 23.2088 23.8715C23.323 23.7452 23.3949 23.6131 23.4633 23.4324C23.5313 23.254 23.5897 23.0321 23.6359 22.7737L24.078 20.2729H24.7241C24.7241 20.2729 24.7785 20.2748 24.7896 20.2155L24.863 19.8076C24.8677 19.7685 24.8515 19.7445 24.7988 19.7445H24.1715C24.1749 19.7304 24.2034 19.5097 24.2752 19.3019C24.3061 19.2136 24.3639 19.1418 24.4126 19.0925C24.4585 19.0459 24.5149 19.0109 24.5771 18.9904C24.6393 18.9701 24.7101 18.9605 24.7878 18.9605C24.8466 18.9605 24.9049 18.9672 24.9487 18.9763C25.0096 18.9894 25.0332 18.9962 25.049 19.001C25.1132 19.0203 25.1218 19.0015 25.1344 18.9705L25.2844 18.5589C25.2998 18.5145 25.2617 18.4957 25.2482 18.4904" fill="white"/>
<path d="M16.4844 22.7345C16.4844 22.7672 16.4607 22.7938 16.428 22.7938H15.9078C15.875 22.7938 15.8518 22.7674 15.8518 22.7345V18.5476C15.8518 18.5149 15.875 18.4883 15.9078 18.4883H16.4279C16.4607 18.4883 16.4844 18.5148 16.4844 18.5476V22.7345V22.7345Z" fill="white"/>
</svg>
