<svg width="100%" height="100%" viewBox="0 0 19 18" fill="none" xmlns="http://www.w3.org/2000/svg">
<circle cx="9" cy="9" r="8.5" fill="white" stroke="#E2EAEC"/>
<path d="M8.91748 8.475C8.91748 8.4375 8.91748 8.4 8.91748 8.37C8.91748 8.34 8.91748 8.31 8.91748 8.28H9.04498C9.04498 8.3025 9.04498 8.325 9.04498 8.3475C9.04498 8.37 9.04498 8.3925 9.04498 8.415C9.05248 8.3925 9.06748 8.3775 9.08248 8.355C9.09748 8.34 9.11998 8.3175 9.14248 8.3025C9.16498 8.2875 9.19498 8.28 9.21748 8.265C9.24748 8.2575 9.27748 8.25 9.30748 8.25C9.35248 8.25 9.38998 8.2575 9.41998 8.265C9.44999 8.2725 9.47249 8.2875 9.49499 8.3025C9.51749 8.3175 9.53249 8.3325 9.53999 8.355C9.54749 8.37 9.56249 8.385 9.56999 8.4C9.59999 8.355 9.63749 8.3175 9.67499 8.2875C9.71249 8.2575 9.76499 8.25 9.82499 8.25C9.88499 8.25 9.92999 8.2575 9.96749 8.2725C10.005 8.2875 10.035 8.31 10.065 8.34C10.0875 8.37 10.11 8.4075 10.1175 8.445C10.125 8.49 10.1325 8.535 10.1325 8.5875V9.075H9.99749V8.595C9.99749 8.565 9.99749 8.5425 9.98999 8.5125C9.98249 8.4825 9.97499 8.46 9.95999 8.445C9.94499 8.4225 9.92249 8.4075 9.89999 8.3925C9.87749 8.3775 9.83999 8.37 9.80249 8.37C9.77249 8.37 9.74999 8.3775 9.71999 8.385C9.69749 8.4 9.67499 8.415 9.65249 8.43C9.62999 8.4525 9.61499 8.475 9.60749 8.505C9.59999 8.535 9.59249 8.565 9.59249 8.6025V9.0675H9.45749V8.61C9.45749 8.52 9.44248 8.46 9.41998 8.4225C9.39748 8.385 9.35248 8.37 9.29998 8.37C9.25498 8.37 9.21748 8.3775 9.18748 8.3925C9.15748 8.4075 9.12748 8.43 9.11248 8.46C9.08998 8.49 9.07498 8.52 9.06748 8.5575C9.05998 8.595 9.05248 8.64 9.05248 8.685V9.075H8.91748V8.475Z" fill="#818B91"/>
<path d="M10.38 8.39215C10.425 8.34715 10.47 8.31715 10.53 8.29465C10.59 8.27215 10.6425 8.26465 10.7025 8.26465C10.8225 8.26465 10.905 8.29465 10.965 8.34715C11.0175 8.40715 11.0475 8.48965 11.0475 8.60215V8.94715C11.0475 8.96965 11.0475 8.99215 11.0475 9.02215C11.0475 9.04465 11.055 9.06715 11.055 9.08965H10.9275C10.92 9.07465 10.92 9.05215 10.92 9.02965C10.92 9.00715 10.92 8.98465 10.92 8.96965C10.89 9.01465 10.86 9.04465 10.815 9.07465C10.77 9.10465 10.7175 9.11215 10.6575 9.11215C10.6125 9.11215 10.575 9.10465 10.5375 9.09715C10.5 9.08965 10.47 9.07465 10.44 9.05215C10.41 9.02965 10.395 9.00715 10.3725 8.97715C10.3575 8.94715 10.35 8.90965 10.35 8.87215C10.35 8.80465 10.365 8.75215 10.4025 8.71465C10.44 8.67715 10.4775 8.64715 10.53 8.63215C10.5825 8.61715 10.635 8.60215 10.695 8.59465C10.755 8.58715 10.8075 8.58715 10.86 8.58715H10.9125V8.56465C10.9125 8.50465 10.8975 8.45965 10.86 8.42965C10.8225 8.39965 10.7775 8.38465 10.71 8.38465C10.665 8.38465 10.62 8.39215 10.5825 8.40715C10.5375 8.42215 10.5 8.44465 10.47 8.47465L10.38 8.39215ZM10.77 8.70715C10.68 8.70715 10.6125 8.72215 10.5675 8.74465C10.515 8.76715 10.4925 8.81215 10.4925 8.86465C10.4925 8.91715 10.5075 8.95465 10.545 8.96965C10.5825 8.99215 10.62 8.99965 10.6725 8.99965C10.71 8.99965 10.7475 8.99215 10.7775 8.97715C10.8075 8.96215 10.83 8.94715 10.8525 8.92465C10.875 8.90215 10.89 8.87965 10.8975 8.84965C10.905 8.81965 10.9125 8.78965 10.9125 8.75215V8.69965H10.77V8.70715Z" fill="#818B91"/>
<path d="M11.2799 8.475C11.2799 8.4375 11.2799 8.4 11.2799 8.37C11.2799 8.34 11.2799 8.31 11.2799 8.28H11.4074C11.4074 8.3025 11.4074 8.325 11.4074 8.3475C11.4074 8.37 11.4074 8.3925 11.4074 8.415C11.4149 8.3925 11.4299 8.3775 11.4449 8.355C11.4599 8.3325 11.4824 8.3175 11.5049 8.3025C11.5274 8.2875 11.5574 8.28 11.5799 8.265C11.6099 8.2575 11.6399 8.25 11.6699 8.25C11.6774 8.25 11.6849 8.25 11.6999 8.25C11.7149 8.25 11.7149 8.25 11.7299 8.2575L11.7224 8.3925C11.6999 8.385 11.6774 8.385 11.6474 8.385C11.5649 8.385 11.5049 8.415 11.4674 8.4675C11.4299 8.52 11.4149 8.595 11.4149 8.685V9.075H11.2799V8.475Z" fill="#818B91"/>
<path d="M11.8875 7.79199H12.0225V8.64699L12.39 8.29449H12.585L12.195 8.66199L12.6225 9.10449H12.4275L12.03 8.67699V9.10449H11.895V7.79199H11.8875Z" fill="#818B91"/>
<path d="M13.4775 8.94715C13.4325 9.00715 13.38 9.05215 13.32 9.07465C13.26 9.09715 13.1925 9.11215 13.1175 9.11215C13.0575 9.11215 12.9975 9.09715 12.945 9.08215C12.8925 9.05965 12.855 9.02965 12.8175 8.99215C12.78 8.95465 12.7575 8.90965 12.735 8.85715C12.7125 8.80465 12.705 8.75215 12.705 8.69215C12.705 8.63215 12.7125 8.57215 12.735 8.51965C12.7575 8.46715 12.7875 8.42215 12.825 8.38465C12.8625 8.34715 12.9075 8.31715 12.9525 8.29465C13.005 8.27215 13.0575 8.26465 13.1175 8.26465C13.1775 8.26465 13.2225 8.27215 13.275 8.29465C13.32 8.31715 13.365 8.33965 13.395 8.37715C13.425 8.41465 13.455 8.45965 13.47 8.51215C13.485 8.56465 13.5 8.62465 13.5 8.69215V8.73715H12.8475C12.8475 8.77465 12.855 8.80465 12.87 8.83465C12.885 8.86465 12.9 8.89465 12.9225 8.91715C12.945 8.93965 12.975 8.96215 13.005 8.96965C13.035 8.98465 13.0725 8.99215 13.11 8.99215C13.17 8.99215 13.215 8.98465 13.26 8.96215C13.2975 8.93965 13.335 8.90965 13.365 8.87215L13.4775 8.94715ZM13.3575 8.61715C13.3575 8.54965 13.335 8.48965 13.29 8.45215C13.245 8.40715 13.1925 8.39215 13.1175 8.39215C13.0425 8.39215 12.9825 8.41465 12.9375 8.45215C12.8925 8.49715 12.8625 8.54965 12.855 8.61715H13.3575Z" fill="#818B91"/>
<path d="M14.1525 8.39969H13.9125V8.80469C13.9125 8.83469 13.9125 8.85719 13.9125 8.87969C13.9125 8.90219 13.92 8.92469 13.9275 8.93969C13.935 8.95469 13.95 8.96969 13.965 8.97719C13.98 8.98469 14.0025 8.99219 14.0325 8.99219C14.055 8.99219 14.07 8.99219 14.0925 8.98469C14.115 8.97719 14.13 8.96969 14.1525 8.96219L14.16 9.08219C14.1375 9.08969 14.115 9.09719 14.085 9.10469C14.055 9.11219 14.0325 9.11219 14.0025 9.11219C13.9575 9.11219 13.9125 9.10469 13.89 9.08969C13.86 9.07469 13.8375 9.05969 13.8225 9.03719C13.8075 9.01469 13.7925 8.98469 13.7925 8.95469C13.785 8.91719 13.785 8.87969 13.785 8.84219V8.39969H13.6125V8.28719H13.785V8.05469H13.92V8.28719H14.16V8.39969H14.1525Z" fill="#818B91"/>
<path d="M14.3024 7.9725C14.3024 7.9425 14.3099 7.92 14.3324 7.905C14.3549 7.8825 14.3774 7.875 14.3999 7.875C14.4299 7.875 14.4524 7.8825 14.4674 7.905C14.4899 7.9275 14.4974 7.95 14.4974 7.9725C14.4974 8.0025 14.4899 8.025 14.4674 8.04C14.4524 8.055 14.4224 8.07 14.3999 8.07C14.3774 8.07 14.3474 8.0625 14.3324 8.04C14.3099 8.025 14.3024 8.0025 14.3024 7.9725ZM14.3324 8.2875H14.4674V9.0975H14.3324V8.2875Z" fill="#818B91"/>
<path d="M14.7374 8.475C14.7374 8.4375 14.7374 8.4 14.7374 8.37C14.7374 8.34 14.7374 8.31 14.7374 8.28H14.8649C14.8649 8.3025 14.8649 8.325 14.8649 8.3475C14.8649 8.37 14.8649 8.3925 14.8649 8.415C14.8724 8.3925 14.8874 8.3775 14.9024 8.355C14.9174 8.3325 14.9399 8.3175 14.9624 8.3025C14.9849 8.2875 15.0149 8.28 15.0374 8.265C15.0674 8.2575 15.0974 8.25 15.1274 8.25C15.1799 8.25 15.2249 8.2575 15.2624 8.2725C15.2999 8.2875 15.3299 8.31 15.3599 8.34C15.3824 8.37 15.4049 8.4 15.4124 8.445C15.4274 8.4825 15.4274 8.5275 15.4274 8.58V9.075H15.2924V8.5875C15.2924 8.52 15.2774 8.4675 15.2474 8.43C15.2174 8.3925 15.1724 8.37 15.1049 8.37C15.0599 8.37 15.0224 8.3775 14.9924 8.3925C14.9624 8.4075 14.9324 8.43 14.9174 8.46C14.8949 8.49 14.8799 8.52 14.8724 8.5575C14.8649 8.595 14.8574 8.64 14.8574 8.685V9.075H14.7224V8.475H14.7374Z" fill="#818B91"/>
<path d="M16.4998 9.05965C16.4998 9.20965 16.4623 9.32215 16.3873 9.39715C16.3123 9.47215 16.1998 9.50965 16.0573 9.50965C15.9748 9.50965 15.9073 9.49465 15.8398 9.47215C15.7723 9.44965 15.7123 9.41215 15.6598 9.35215L15.7573 9.23965C15.8023 9.28465 15.8473 9.32215 15.8923 9.34465C15.9373 9.36715 15.9973 9.38215 16.0573 9.38215C16.1173 9.38215 16.1698 9.37465 16.2073 9.35215C16.2448 9.33715 16.2748 9.30715 16.3048 9.27715C16.3348 9.24715 16.3423 9.20965 16.3498 9.17215C16.3573 9.13465 16.3648 9.08965 16.3648 9.05215V8.94715C16.3348 8.99965 16.2898 9.03715 16.2373 9.05965C16.1848 9.08215 16.1323 9.09715 16.0798 9.09715C16.0198 9.09715 15.9598 9.08965 15.9073 9.06715C15.8548 9.04465 15.8098 9.01465 15.7723 8.98465C15.7348 8.95465 15.7048 8.90215 15.6823 8.85715C15.6598 8.80465 15.6523 8.75215 15.6523 8.69215C15.6523 8.62465 15.6598 8.56465 15.6823 8.51215C15.7048 8.45965 15.7348 8.41465 15.7723 8.37715C15.8098 8.33965 15.8548 8.30965 15.9073 8.29465C15.9598 8.27215 16.0198 8.26465 16.0798 8.26465C16.1098 8.26465 16.1323 8.26465 16.1623 8.27215C16.1923 8.27965 16.2148 8.28715 16.2448 8.30215C16.2673 8.31715 16.2973 8.33215 16.3123 8.35465C16.3348 8.37715 16.3498 8.39965 16.3648 8.42215V8.28715H16.4998V9.05965ZM15.7948 8.69215C15.7948 8.73715 15.8023 8.77465 15.8173 8.80465C15.8323 8.84215 15.8548 8.87215 15.8773 8.89465C15.8998 8.91715 15.9298 8.93965 15.9673 8.95465C16.0048 8.96965 16.0423 8.97715 16.0798 8.97715C16.1248 8.97715 16.1698 8.96965 16.1998 8.95465C16.2298 8.93965 16.2673 8.91715 16.2898 8.88715C16.3123 8.85715 16.3348 8.82715 16.3423 8.79715C16.3498 8.76715 16.3648 8.72215 16.3648 8.68465C16.3648 8.63965 16.3573 8.60215 16.3423 8.56465C16.3273 8.52715 16.3123 8.49715 16.2823 8.46715C16.2598 8.43715 16.2298 8.42215 16.1923 8.40715C16.1548 8.39215 16.1173 8.38465 16.0723 8.38465C16.0273 8.38465 15.9898 8.39215 15.9523 8.40715C15.9148 8.42215 15.8848 8.44465 15.8623 8.47465C15.8398 8.50465 15.8173 8.53465 15.8023 8.57215C15.8023 8.60965 15.7948 8.64715 15.7948 8.69215Z" fill="#818B91"/>
<path d="M9.49494 10.335C9.46494 10.2975 9.43494 10.275 9.40494 10.26C9.37494 10.245 9.33744 10.2375 9.29244 10.2375C9.24744 10.2375 9.20994 10.245 9.17244 10.26C9.13494 10.275 9.11244 10.2975 9.08994 10.3275C9.06744 10.3575 9.05244 10.3875 9.03744 10.425C9.02244 10.4625 9.02244 10.5 9.02244 10.545C9.02244 10.59 9.02994 10.6275 9.04494 10.665C9.05994 10.7025 9.07494 10.7325 9.09744 10.7625C9.11994 10.7925 9.14994 10.815 9.17994 10.83C9.20994 10.845 9.24744 10.8525 9.29244 10.8525C9.38244 10.8525 9.44994 10.8225 9.49494 10.755L9.59244 10.8525C9.55494 10.8975 9.50994 10.9275 9.45744 10.95C9.40494 10.9725 9.35244 10.98 9.29244 10.98C9.23244 10.98 9.17244 10.9725 9.11994 10.95C9.06744 10.9275 9.02244 10.8975 8.98494 10.86C8.94744 10.8225 8.91744 10.7775 8.90244 10.725C8.88744 10.6725 8.87244 10.62 8.87244 10.5525C8.87244 10.4925 8.87994 10.4325 8.90244 10.38C8.92494 10.3275 8.94744 10.2825 8.98494 10.245C9.02244 10.2075 9.06744 10.1775 9.11994 10.155C9.17244 10.1325 9.22494 10.125 9.29244 10.125C9.35244 10.125 9.41244 10.1325 9.46494 10.155C9.51744 10.1775 9.56244 10.2075 9.60744 10.2525L9.49494 10.335Z" fill="#818B91"/>
<path d="M9.76489 9.6377H9.8999V10.9427H9.76489V9.6377Z" fill="#818B91"/>
<path d="M10.1174 10.5369C10.1174 10.4769 10.1249 10.4169 10.1474 10.3644C10.1699 10.3119 10.1999 10.2669 10.2374 10.2294C10.2749 10.1919 10.3199 10.1619 10.3724 10.1394C10.4249 10.1169 10.4849 10.1094 10.5449 10.1094C10.6049 10.1094 10.6649 10.1169 10.7174 10.1394C10.7699 10.1619 10.815 10.1919 10.8525 10.2294C10.89 10.2669 10.92 10.3119 10.9425 10.3644C10.965 10.4169 10.9725 10.4769 10.9725 10.5369C10.9725 10.5969 10.965 10.6569 10.9425 10.7094C10.92 10.7619 10.89 10.8069 10.8525 10.8444C10.815 10.8819 10.7699 10.9119 10.7174 10.9344C10.6649 10.9569 10.6049 10.9644 10.5449 10.9644C10.4849 10.9644 10.4249 10.9569 10.3724 10.9344C10.3199 10.9119 10.2749 10.8819 10.2374 10.8444C10.1999 10.8069 10.1699 10.7619 10.1474 10.7094C10.1249 10.6569 10.1174 10.5969 10.1174 10.5369ZM10.2599 10.5369C10.2599 10.5819 10.2674 10.6194 10.2824 10.6569C10.2974 10.6944 10.3124 10.7244 10.3424 10.7544C10.3724 10.7844 10.3949 10.7994 10.4324 10.8219C10.4699 10.8369 10.5074 10.8444 10.5524 10.8444C10.5974 10.8444 10.6349 10.8369 10.6724 10.8219C10.7099 10.8069 10.7399 10.7844 10.7624 10.7544C10.7849 10.7244 10.8075 10.6944 10.8225 10.6569C10.8375 10.6194 10.845 10.5819 10.845 10.5369C10.845 10.4919 10.8375 10.4544 10.8225 10.4169C10.8075 10.3794 10.7924 10.3494 10.7624 10.3194C10.7399 10.2894 10.7099 10.2744 10.6724 10.2519C10.6349 10.2294 10.5974 10.2294 10.5524 10.2294C10.5074 10.2294 10.4699 10.2369 10.4324 10.2519C10.3949 10.2669 10.3649 10.2894 10.3424 10.3194C10.3199 10.3494 10.2974 10.3794 10.2824 10.4169C10.2674 10.4544 10.2599 10.4919 10.2599 10.5369Z" fill="#818B91"/>
<path d="M11.895 10.7465C11.895 10.784 11.895 10.8215 11.895 10.8515C11.895 10.8815 11.895 10.9115 11.895 10.9415H11.775C11.775 10.919 11.775 10.8965 11.775 10.874C11.775 10.8515 11.775 10.829 11.775 10.8065C11.7675 10.829 11.7525 10.844 11.7375 10.8665C11.7225 10.8815 11.7 10.904 11.6775 10.919C11.655 10.934 11.625 10.9415 11.6025 10.9565C11.5725 10.964 11.5425 10.9715 11.5125 10.9715C11.46 10.9715 11.415 10.964 11.3775 10.949C11.34 10.934 11.31 10.9115 11.28 10.8815C11.2575 10.8515 11.235 10.8215 11.2275 10.7765C11.2125 10.739 11.2125 10.694 11.2125 10.6415V10.1465H11.3475V10.634C11.3475 10.7015 11.3625 10.754 11.3925 10.7915C11.4225 10.829 11.4675 10.8515 11.535 10.8515C11.58 10.8515 11.6175 10.844 11.6475 10.829C11.6775 10.814 11.7075 10.7915 11.7225 10.7615C11.745 10.7315 11.76 10.7015 11.7675 10.664C11.775 10.6265 11.7825 10.5815 11.7825 10.5365V10.1465H11.9175V10.7465H11.895Z" fill="#818B91"/>
<path d="M12.8175 10.8002C12.7875 10.8452 12.75 10.8827 12.6975 10.9202C12.645 10.9502 12.5775 10.9652 12.51 10.9652C12.45 10.9652 12.3975 10.9577 12.3525 10.9352C12.3 10.9127 12.2625 10.8827 12.225 10.8452C12.1875 10.8077 12.1575 10.7627 12.1425 10.7102C12.12 10.6577 12.1125 10.6052 12.1125 10.5377C12.1125 10.4702 12.12 10.4177 12.1425 10.3652C12.165 10.3127 12.195 10.2677 12.2325 10.2302C12.27 10.1927 12.315 10.1627 12.3675 10.1402C12.42 10.1177 12.48 10.1102 12.54 10.1102C12.6 10.1102 12.6525 10.1252 12.705 10.1477C12.7575 10.1702 12.795 10.2077 12.8325 10.2527V9.6377H12.9675V10.9427H12.8325V10.8002H12.8175ZM12.8175 10.5377C12.8175 10.4927 12.81 10.4552 12.795 10.4177C12.78 10.3802 12.765 10.3502 12.735 10.3202C12.7125 10.2902 12.6825 10.2752 12.645 10.2527C12.6075 10.2377 12.57 10.2302 12.525 10.2302C12.48 10.2302 12.4425 10.2377 12.405 10.2527C12.3675 10.2677 12.3375 10.2902 12.315 10.3202C12.2925 10.3502 12.27 10.3802 12.255 10.4177C12.24 10.4552 12.2325 10.4927 12.2325 10.5377C12.2325 10.5827 12.24 10.6202 12.255 10.6577C12.27 10.6952 12.285 10.7252 12.315 10.7552C12.345 10.7852 12.3675 10.8002 12.405 10.8227C12.4425 10.8377 12.48 10.8452 12.525 10.8452C12.57 10.8452 12.6075 10.8377 12.645 10.8227C12.6825 10.8077 12.7125 10.7852 12.735 10.7552C12.7575 10.7252 12.78 10.6952 12.795 10.6577C12.81 10.6202 12.8175 10.5827 12.8175 10.5377Z" fill="#818B91"/>
<path d="M3.47998 9.25457C3.47998 9.25457 3.42748 9.24707 3.37498 9.24707C3.29248 9.24707 3.26248 9.27707 3.26248 9.27707C3.23998 9.29207 3.22498 9.32207 3.22498 9.35207C3.22498 9.37457 3.23248 9.38957 3.23998 9.40457C3.24748 9.41207 3.24748 9.41207 3.26248 9.42707C3.26248 9.42707 3.29998 9.45707 3.37498 9.44957C3.42748 9.44957 3.47998 9.43457 3.47998 9.43457V9.25457Z" fill="#009ED8"/>
<path d="M4.24504 9.01465C4.19254 9.01465 4.15504 9.03715 4.13254 9.07465C4.11754 9.09715 4.11004 9.12715 4.10254 9.16465H4.38004C4.38004 9.12715 4.37254 9.09715 4.35754 9.07465C4.33504 9.03715 4.29754 9.01465 4.24504 9.01465Z" fill="#009ED8"/>
<path d="M5.81992 9.01465C5.76742 9.01465 5.72992 9.02965 5.70742 9.06715C5.68492 9.10465 5.66992 9.15715 5.66992 9.22465C5.66992 9.29215 5.68492 9.34465 5.70742 9.38215C5.72992 9.41965 5.76742 9.43465 5.81992 9.43465C5.87242 9.43465 5.90992 9.41965 5.93242 9.38215C5.95492 9.34465 5.96992 9.29215 5.96992 9.22465C5.96992 9.15715 5.95492 9.10465 5.93242 9.06715C5.90992 9.03715 5.87242 9.01465 5.81992 9.01465Z" fill="#009ED8"/>
<path d="M7.37993 9.01465C7.32743 9.01465 7.28993 9.03715 7.26743 9.07465C7.25243 9.09715 7.24493 9.12715 7.23743 9.16465H7.51493C7.51493 9.12715 7.50743 9.09715 7.49243 9.07465C7.46993 9.03715 7.43243 9.01465 7.37993 9.01465Z" fill="#009ED8"/>
<path d="M6.87745 7.64988C6.66745 7.64988 6.46495 7.69488 6.28495 7.77738C6.07495 7.40988 5.68495 7.15488 5.24245 7.15488C4.90495 7.15488 4.60495 7.29738 4.38745 7.52238C4.14745 7.20738 3.77245 7.00488 3.34495 7.00488C2.61745 7.00488 2.03245 7.58988 2.03245 8.31738C2.03245 8.50488 2.06995 8.67738 2.13745 8.84238C1.79995 9.03738 1.57495 9.41238 1.57495 9.83238C1.57495 10.4624 2.07745 10.9724 2.69995 10.9724C2.78245 10.9724 2.85745 10.9649 2.93245 10.9499C3.10495 11.4149 3.54745 11.7449 4.07245 11.7449C4.57495 11.7449 5.00245 11.4374 5.18995 11.0024C5.33245 11.0699 5.48995 11.1074 5.65495 11.1074C6.05245 11.1074 6.40495 10.8899 6.58495 10.5599C6.67495 10.5749 6.77245 10.5899 6.86995 10.5899C7.67245 10.5899 8.32495 9.92988 8.32495 9.11988C8.33245 8.30988 7.67995 7.64988 6.87745 7.64988ZM3.02245 9.35988C3.02245 9.47988 2.93995 9.55488 2.79745 9.55488C2.72995 9.55488 2.66245 9.54738 2.59495 9.50988C2.57995 9.50238 2.57245 9.49488 2.55745 9.48738C2.55745 9.48738 2.54995 9.47988 2.55745 9.47238L2.58745 9.39738C2.59495 9.38238 2.60245 9.38988 2.60245 9.38988C2.60995 9.39738 2.61745 9.39738 2.62495 9.40488C2.70745 9.45738 2.78245 9.45738 2.80495 9.45738C2.86495 9.45738 2.90245 9.42738 2.90245 9.38238C2.90245 9.33738 2.84245 9.31488 2.77495 9.29988L2.75995 9.29238C2.66995 9.26988 2.57245 9.22488 2.57245 9.11238C2.57245 8.99988 2.66245 8.92488 2.78995 8.92488H2.80495C2.87995 8.92488 2.95495 8.94738 2.99995 8.97738C3.00745 8.97738 3.00745 8.98488 3.00745 8.99238C3.00745 8.99988 2.98495 9.05988 2.97745 9.06738C2.96995 9.08238 2.96245 9.07488 2.96245 9.07488C2.91745 9.05238 2.84245 9.02988 2.78995 9.02988C2.73745 9.02988 2.69995 9.05988 2.69995 9.09738C2.69995 9.14238 2.75995 9.16488 2.82745 9.18738L2.84245 9.19488C2.92495 9.20238 3.02245 9.24738 3.02245 9.35988ZM3.59245 9.50988C3.59245 9.50988 3.57745 9.51738 3.56245 9.51738C3.54745 9.51738 3.50245 9.53238 3.46495 9.53988C3.42745 9.54738 3.38245 9.54738 3.34495 9.54738C3.30745 9.54738 3.26995 9.54738 3.23995 9.53988C3.20995 9.53238 3.17995 9.52488 3.15745 9.50238C3.13495 9.48738 3.11995 9.46488 3.10495 9.44238C3.08995 9.41988 3.08995 9.38988 3.08995 9.35238C3.08995 9.31488 3.09745 9.28488 3.11245 9.26238C3.12745 9.23988 3.14245 9.21738 3.17245 9.19488C3.19495 9.17988 3.22495 9.16488 3.25495 9.15738C3.28495 9.14988 3.31495 9.14238 3.35245 9.14238C3.37495 9.14238 3.39745 9.14238 3.41245 9.14238C3.41245 9.14238 3.44245 9.14238 3.47995 9.14988V9.13488C3.47995 9.08238 3.47245 9.05988 3.44995 9.04488C3.42745 9.02988 3.39745 9.02238 3.35245 9.02238C3.35245 9.02238 3.25495 9.02238 3.17995 9.05988H3.17245C3.17245 9.05988 3.16495 9.05988 3.15745 9.05238L3.12745 8.97738C3.11995 8.96988 3.12745 8.96238 3.12745 8.96238C3.16495 8.93238 3.24745 8.91738 3.24745 8.91738C3.27745 8.90988 3.32245 8.90988 3.35245 8.90988C3.42745 8.90988 3.49495 8.92488 3.53245 8.96238C3.57745 8.99988 3.59245 9.05988 3.59245 9.13488V9.49488C3.59995 9.49488 3.59995 9.50988 3.59245 9.50988ZM3.85495 9.52488C3.85495 9.53238 3.84745 9.53988 3.84745 9.53988H3.74245C3.73495 9.53988 3.73495 9.53238 3.73495 9.52488V8.68488C3.73495 8.67738 3.74245 8.66988 3.74245 8.66988H3.84745C3.85495 8.66988 3.85495 8.67738 3.85495 8.68488V9.52488ZM4.50745 9.25488C4.50745 9.26238 4.49245 9.26238 4.49245 9.26238H4.10245C4.10245 9.32238 4.11745 9.36738 4.14745 9.38988C4.17745 9.41988 4.22245 9.43488 4.28245 9.43488C4.37245 9.43488 4.41745 9.41988 4.43995 9.40488C4.43995 9.40488 4.44745 9.39738 4.45495 9.41238L4.47745 9.48738C4.48495 9.50238 4.47745 9.50238 4.47745 9.50988C4.45495 9.52488 4.39495 9.54738 4.28245 9.54738C4.22995 9.54738 4.17745 9.53988 4.13995 9.52488C4.10245 9.50988 4.06495 9.48738 4.04245 9.45738C4.01995 9.42738 3.99745 9.39738 3.98245 9.35988C3.96745 9.32238 3.96745 9.27738 3.96745 9.23238C3.96745 9.18738 3.97495 9.14238 3.98245 9.10488C3.99745 9.06738 4.01245 9.02988 4.03495 8.99988C4.05745 8.96988 4.08745 8.94738 4.12495 8.93238C4.16245 8.91738 4.20745 8.90988 4.25245 8.90988C4.29745 8.90988 4.33495 8.91738 4.36495 8.93238C4.38745 8.93988 4.41745 8.96238 4.43995 8.99238C4.45495 9.00738 4.47745 9.04488 4.49245 9.08238C4.51495 9.17238 4.50745 9.24738 4.50745 9.25488ZM4.62745 9.50238C4.61245 9.49488 4.60495 9.48738 4.58995 9.47988C4.58995 9.47988 4.58245 9.47238 4.58995 9.46488L4.61995 9.38988C4.62745 9.37488 4.63495 9.38238 4.63495 9.38238C4.64245 9.38988 4.64995 9.38988 4.65745 9.39738C4.73995 9.44988 4.81495 9.44988 4.83745 9.44988C4.89745 9.44988 4.93495 9.41988 4.93495 9.37488C4.93495 9.32988 4.87495 9.30738 4.80745 9.29238L4.79245 9.28488C4.70245 9.26238 4.60495 9.21738 4.60495 9.10488C4.60495 8.99238 4.69495 8.91738 4.82245 8.91738H4.83745C4.91245 8.91738 4.98745 8.93988 5.03245 8.96988C5.03995 8.96988 5.03995 8.97738 5.03995 8.98488C5.03995 8.99238 5.01745 9.05238 5.00995 9.05988C5.00245 9.07488 4.99495 9.06738 4.99495 9.06738C4.94995 9.04488 4.87495 9.02238 4.82245 9.02238C4.76995 9.02238 4.73245 9.05238 4.73245 9.08988C4.73245 9.13488 4.79245 9.15738 4.85995 9.17988L4.87495 9.18738C4.96495 9.21738 5.06245 9.25488 5.06245 9.36738C5.06245 9.48738 4.97995 9.56238 4.83745 9.56238C4.76245 9.54738 4.69495 9.53988 4.62745 9.50238ZM5.51245 9.01488C5.51245 9.02988 5.49745 9.02988 5.49745 9.02988H5.36995L5.27995 9.53238C5.27245 9.58488 5.25745 9.62988 5.24245 9.66738C5.22745 9.70488 5.21245 9.72738 5.18995 9.75738C5.16745 9.77988 5.14495 9.79488 5.11495 9.80988C5.08495 9.81738 5.05495 9.82488 5.01745 9.82488C5.00245 9.82488 4.97995 9.82488 4.95745 9.81738C4.94245 9.81738 4.93495 9.80988 4.91995 9.80988C4.91245 9.80988 4.91245 9.80238 4.91245 9.79488C4.91245 9.78738 4.93495 9.71988 4.94245 9.71238C4.94995 9.70488 4.95745 9.70488 4.95745 9.70488C4.96495 9.70488 4.97245 9.71238 4.97995 9.71238C4.98745 9.71238 5.00245 9.71238 5.00995 9.71238C5.02495 9.71238 5.03995 9.71238 5.05495 9.70488C5.06995 9.69738 5.07745 9.68988 5.09245 9.67488C5.09995 9.65988 5.10745 9.64488 5.12245 9.62238C5.12995 9.59988 5.13745 9.56238 5.14495 9.52488L5.23495 9.03738H5.14495C5.13745 9.03738 5.12995 9.02988 5.12995 9.02238L5.14495 8.93988C5.14495 8.92488 5.15995 8.92488 5.15995 8.92488H5.24995L5.25745 8.89488C5.27245 8.81238 5.29495 8.75988 5.33245 8.71488C5.36995 8.67738 5.42995 8.65488 5.49745 8.65488C5.51995 8.65488 5.53495 8.65488 5.54995 8.66238C5.56495 8.66238 5.57245 8.66988 5.58745 8.66988C5.58745 8.66988 5.59495 8.67738 5.59495 8.68488L5.56495 8.76738C5.56495 8.77488 5.55745 8.77488 5.54995 8.77488C5.54995 8.77488 5.54245 8.77488 5.52745 8.76738C5.51995 8.76738 5.50495 8.76738 5.49745 8.76738C5.48245 8.76738 5.46745 8.76738 5.45245 8.77488C5.43745 8.78238 5.42995 8.78238 5.42245 8.79738C5.41495 8.80488 5.39995 8.81988 5.39245 8.84238C5.37745 8.88738 5.36995 8.92488 5.36995 8.93238H5.51245C5.51995 8.93238 5.52745 8.93988 5.52745 8.94738L5.51245 9.01488ZM6.08995 9.35238C6.07495 9.38988 6.05995 9.42738 6.03745 9.44988C6.01495 9.47988 5.98495 9.50238 5.94745 9.51738C5.90995 9.53238 5.87245 9.53988 5.81995 9.53988C5.76745 9.53988 5.72995 9.53238 5.69245 9.51738C5.65495 9.50238 5.62495 9.47988 5.60245 9.44988C5.57995 9.41988 5.55745 9.38988 5.54995 9.35238C5.53495 9.31488 5.53495 9.26988 5.53495 9.22488C5.53495 9.17988 5.54245 9.13488 5.54995 9.09738C5.56495 9.05988 5.57995 9.02238 5.60245 8.99988C5.62495 8.96988 5.65495 8.94738 5.69245 8.93238C5.72995 8.91738 5.76745 8.90988 5.81995 8.90988C5.86495 8.90988 5.90995 8.91738 5.94745 8.93238C5.98495 8.94738 6.01495 8.96988 6.03745 8.99988C6.05995 9.02988 6.08245 9.05988 6.08995 9.09738C6.10495 9.13488 6.10495 9.17988 6.10495 9.22488C6.10495 9.27738 6.09745 9.31488 6.08995 9.35238ZM6.53995 9.02988C6.53995 9.03738 6.53245 9.04488 6.52495 9.03738C6.52495 9.03738 6.50245 9.02988 6.47995 9.02988C6.46495 9.02988 6.44245 9.02988 6.42745 9.03738C6.41245 9.04488 6.38995 9.05238 6.38245 9.06738C6.36745 9.08238 6.35995 9.09738 6.34495 9.12738C6.33745 9.14988 6.32995 9.18738 6.32995 9.23238V9.52488C6.32995 9.53238 6.32245 9.53988 6.31495 9.53988H6.20995C6.20245 9.53988 6.19495 9.53238 6.19495 9.52488V8.93988C6.19495 8.93238 6.20245 8.92488 6.20245 8.92488H6.29995C6.30745 8.92488 6.30745 8.93238 6.30745 8.93988V8.98488C6.32245 8.96238 6.35245 8.94738 6.37495 8.93238C6.39745 8.92488 6.42745 8.90988 6.47245 8.91738C6.49495 8.91738 6.53245 8.92488 6.53995 8.92488C6.53995 8.92488 6.54745 8.93238 6.54745 8.93988C6.56995 8.95488 6.54745 9.00738 6.53995 9.02988ZM7.05745 9.51738C7.01245 9.53238 6.95245 9.54738 6.89245 9.54738C6.79495 9.54738 6.71245 9.51738 6.66745 9.46488C6.61495 9.40488 6.59245 9.32988 6.59245 9.23238C6.59245 9.18738 6.59995 9.14238 6.61495 9.10488C6.62995 9.06738 6.64495 9.02988 6.67495 9.00738C6.69745 8.97738 6.72745 8.95488 6.76495 8.93988C6.80245 8.92488 6.84745 8.91738 6.89245 8.91738C6.92245 8.91738 6.95245 8.91738 6.98245 8.92488C7.01245 8.93238 7.04245 8.93988 7.05745 8.94738C7.05745 8.94738 7.06495 8.95488 7.06495 8.96238C7.05745 8.99238 7.04995 9.01488 7.03495 9.04488C7.02745 9.05988 7.01995 9.05238 7.01995 9.05238C6.98245 9.03738 6.94495 9.03738 6.89995 9.03738C6.83995 9.03738 6.80245 9.05988 6.77245 9.09738C6.74245 9.13488 6.72745 9.18738 6.72745 9.24738C6.72745 9.32238 6.74245 9.37488 6.77995 9.40488C6.80995 9.43488 6.85495 9.45738 6.91495 9.45738C6.93745 9.45738 6.95995 9.45738 6.97495 9.44988C6.99745 9.44988 7.01245 9.44238 7.02745 9.43488C7.02745 9.43488 7.03495 9.42738 7.04245 9.44238L7.07245 9.51738C7.07245 9.50988 7.05745 9.51738 7.05745 9.51738ZM7.64245 9.25488C7.64245 9.26238 7.62745 9.26238 7.62745 9.26238H7.23745C7.23745 9.32238 7.25245 9.36738 7.28245 9.38988C7.31245 9.41988 7.35745 9.43488 7.41745 9.43488C7.50745 9.43488 7.55245 9.41988 7.57495 9.40488C7.57495 9.40488 7.58245 9.39738 7.58995 9.41238L7.61245 9.48738C7.61995 9.50238 7.61245 9.50238 7.61245 9.50988C7.58995 9.52488 7.52995 9.54738 7.41745 9.54738C7.36495 9.54738 7.31245 9.53988 7.27495 9.52488C7.23745 9.50988 7.19995 9.48738 7.17745 9.45738C7.15495 9.42738 7.13245 9.39738 7.11745 9.35988C7.10245 9.32238 7.10245 9.27738 7.10245 9.23238C7.10245 9.18738 7.10995 9.14238 7.11745 9.10488C7.13245 9.06738 7.14745 9.02988 7.16995 8.99988C7.19245 8.96988 7.22245 8.94738 7.25995 8.93238C7.29745 8.91738 7.34245 8.90988 7.38745 8.90988C7.43245 8.90988 7.46995 8.91738 7.49995 8.93238C7.52245 8.93988 7.55245 8.96238 7.57495 8.99238C7.58995 9.00738 7.61245 9.04488 7.62745 9.08238C7.65745 9.17238 7.64245 9.24738 7.64245 9.25488Z" fill="#009ED8"/>
</svg>
