<svg width="100%" height="100%" viewBox="0 0 28 26" fill="none" xmlns="http://www.w3.org/2000/svg">
<circle cx="13" cy="13" r="12.5" fill="white" stroke="#E2EAEC"/>
<path d="M12.8806 12.2391C12.8806 12.1849 12.8806 12.1307 12.8806 12.0874C12.8806 12.0441 12.8806 12.0007 12.8806 11.9574H13.0648C13.0648 11.9899 13.0648 12.0224 13.0648 12.0549C13.0648 12.0874 13.0648 12.1199 13.0648 12.1524C13.0756 12.1199 13.0973 12.0982 13.119 12.0657C13.1406 12.0441 13.1731 12.0116 13.2056 11.9899C13.2381 11.9682 13.2815 11.9574 13.314 11.9357C13.3573 11.9249 13.4006 11.9141 13.444 11.9141C13.509 11.9141 13.5631 11.9249 13.6065 11.9357C13.6498 11.9466 13.6823 11.9682 13.7148 11.9899C13.7473 12.0116 13.769 12.0332 13.7798 12.0657C13.7906 12.0874 13.8123 12.1091 13.8231 12.1307C13.8665 12.0657 13.9206 12.0116 13.9748 11.9682C14.029 11.9249 14.1048 11.9141 14.1915 11.9141C14.2781 11.9141 14.3431 11.9249 14.3973 11.9466C14.4515 11.9682 14.4948 12.0007 14.5381 12.0441C14.5706 12.0874 14.6031 12.1416 14.614 12.1957C14.6248 12.2607 14.6356 12.3257 14.6356 12.4016V13.1057H14.4406V12.4124C14.4406 12.3691 14.4406 12.3366 14.4298 12.2932C14.419 12.2499 14.4081 12.2174 14.3865 12.1957C14.3648 12.1632 14.3323 12.1416 14.2998 12.1199C14.2673 12.0982 14.2131 12.0874 14.159 12.0874C14.1156 12.0874 14.0831 12.0982 14.0398 12.1091C14.0073 12.1307 13.9748 12.1524 13.9423 12.1741C13.9098 12.2066 13.8881 12.2391 13.8773 12.2824C13.8665 12.3257 13.8556 12.3691 13.8556 12.4232V13.0949H13.6606V12.4341C13.6606 12.3041 13.639 12.2174 13.6065 12.1632C13.574 12.1091 13.509 12.0874 13.4331 12.0874C13.3681 12.0874 13.314 12.0982 13.2706 12.1199C13.2273 12.1416 13.184 12.1741 13.1623 12.2174C13.1298 12.2607 13.1081 12.3041 13.0973 12.3582C13.0865 12.4124 13.0756 12.4774 13.0756 12.5424V13.1057H12.8806V12.2391V12.2391Z" fill="#818B91"/>
<path d="M14.9933 12.1217C15.0583 12.0567 15.1233 12.0133 15.21 11.9808C15.2966 11.9483 15.3725 11.9375 15.4591 11.9375C15.6325 11.9375 15.7516 11.9808 15.8383 12.0567C15.9141 12.1433 15.9575 12.2625 15.9575 12.425V12.9233C15.9575 12.9558 15.9575 12.9883 15.9575 13.0317C15.9575 13.0642 15.9683 13.0967 15.9683 13.1292H15.7841C15.7733 13.1075 15.7733 13.075 15.7733 13.0425C15.7733 13.01 15.7733 12.9775 15.7733 12.9558C15.73 13.0208 15.6866 13.0642 15.6216 13.1075C15.5566 13.1508 15.4808 13.1617 15.3941 13.1617C15.3291 13.1617 15.275 13.1508 15.2208 13.14C15.1666 13.1292 15.1233 13.1075 15.08 13.075C15.0366 13.0425 15.015 13.01 14.9825 12.9667C14.9608 12.9233 14.95 12.8692 14.95 12.815C14.95 12.7175 14.9716 12.6417 15.0258 12.5875C15.08 12.5333 15.1341 12.49 15.21 12.4683C15.2858 12.4467 15.3616 12.425 15.4483 12.4142C15.535 12.4033 15.6108 12.4033 15.6866 12.4033H15.7625V12.3708C15.7625 12.2842 15.7408 12.2192 15.6866 12.1758C15.6325 12.1325 15.5675 12.1108 15.47 12.1108C15.405 12.1108 15.34 12.1217 15.2858 12.1433C15.2208 12.165 15.1666 12.1975 15.1233 12.2408L14.9933 12.1217ZM15.5566 12.5767C15.4266 12.5767 15.3291 12.5983 15.2641 12.6308C15.1883 12.6633 15.1558 12.7283 15.1558 12.8042C15.1558 12.88 15.1775 12.9342 15.2316 12.9558C15.2858 12.9883 15.34 12.9992 15.4158 12.9992C15.47 12.9992 15.5241 12.9883 15.5675 12.9667C15.6108 12.945 15.6433 12.9233 15.6758 12.8908C15.7083 12.8583 15.73 12.8258 15.7408 12.7825C15.7516 12.7392 15.7625 12.6958 15.7625 12.6417V12.5658H15.5566V12.5767Z" fill="#818B91"/>
<path d="M16.2932 12.2391C16.2932 12.1849 16.2932 12.1307 16.2932 12.0874C16.2932 12.0441 16.2932 12.0007 16.2932 11.9574H16.4774C16.4774 11.9899 16.4774 12.0224 16.4774 12.0549C16.4774 12.0874 16.4774 12.1199 16.4774 12.1524C16.4882 12.1199 16.5099 12.0982 16.5315 12.0657C16.5532 12.0332 16.5857 12.0116 16.6182 11.9899C16.6507 11.9682 16.694 11.9574 16.7265 11.9357C16.7699 11.9249 16.8132 11.9141 16.8565 11.9141C16.8674 11.9141 16.8782 11.9141 16.8999 11.9141C16.9215 11.9141 16.9215 11.9141 16.9432 11.9249L16.9324 12.1199C16.8999 12.1091 16.8674 12.1091 16.824 12.1091C16.7049 12.1091 16.6182 12.1524 16.564 12.2282C16.5099 12.3041 16.4882 12.4124 16.4882 12.5424V13.1057H16.2932V12.2391Z" fill="#818B91"/>
<path d="M17.1707 11.2539H17.3657V12.4889L17.8965 11.9797H18.1782L17.6148 12.5106L18.2323 13.1497H17.9507L17.3765 12.5322V13.1497H17.1815V11.2539H17.1707Z" fill="#818B91"/>
<path d="M19.4674 12.9233C19.4024 13.01 19.3266 13.075 19.2399 13.1075C19.1532 13.14 19.0557 13.1617 18.9474 13.1617C18.8607 13.1617 18.7741 13.14 18.6982 13.1183C18.6224 13.0858 18.5682 13.0425 18.5141 12.9883C18.4599 12.9342 18.4274 12.8692 18.3949 12.7933C18.3624 12.7175 18.3516 12.6417 18.3516 12.555C18.3516 12.4683 18.3624 12.3817 18.3949 12.3058C18.4274 12.23 18.4707 12.165 18.5249 12.1108C18.5791 12.0567 18.6441 12.0133 18.7091 11.9808C18.7849 11.9483 18.8607 11.9375 18.9474 11.9375C19.0341 11.9375 19.0991 11.9483 19.1749 11.9808C19.2399 12.0133 19.3049 12.0458 19.3482 12.1C19.3916 12.1542 19.4349 12.2192 19.4566 12.295C19.4782 12.3708 19.4999 12.4575 19.4999 12.555V12.62H18.5574C18.5574 12.6742 18.5682 12.7175 18.5899 12.7608C18.6116 12.8042 18.6332 12.8475 18.6657 12.88C18.6982 12.9125 18.7416 12.945 18.7849 12.9558C18.8282 12.9775 18.8824 12.9883 18.9366 12.9883C19.0232 12.9883 19.0882 12.9775 19.1532 12.945C19.2074 12.9125 19.2616 12.8692 19.3049 12.815L19.4674 12.9233ZM19.2941 12.4467C19.2941 12.3492 19.2616 12.2625 19.1966 12.2083C19.1316 12.1433 19.0557 12.1217 18.9474 12.1217C18.8391 12.1217 18.7524 12.1542 18.6874 12.2083C18.6224 12.2733 18.5791 12.3492 18.5682 12.4467H19.2941Z" fill="#818B91"/>
<path d="M20.4424 12.1311H20.0957V12.7161C20.0957 12.7595 20.0957 12.792 20.0957 12.8245C20.0957 12.857 20.1065 12.8895 20.1174 12.9111C20.1282 12.9328 20.1499 12.9545 20.1715 12.9653C20.1932 12.9761 20.2257 12.987 20.269 12.987C20.3015 12.987 20.3232 12.987 20.3557 12.9761C20.3882 12.9653 20.4099 12.9545 20.4424 12.9436L20.4532 13.117C20.4207 13.1278 20.3882 13.1386 20.3449 13.1495C20.3015 13.1603 20.269 13.1603 20.2257 13.1603C20.1607 13.1603 20.0957 13.1495 20.0632 13.1278C20.0199 13.1061 19.9874 13.0845 19.9657 13.052C19.944 13.0195 19.9224 12.9761 19.9224 12.9328C19.9115 12.8786 19.9115 12.8245 19.9115 12.7703V12.1311H19.6624V11.9686H19.9115V11.6328H20.1065V11.9686H20.4532V12.1311H20.4424Z" fill="#818B91"/>
<path d="M20.6589 11.5158C20.6589 11.4725 20.6698 11.44 20.7023 11.4183C20.7348 11.3858 20.7673 11.375 20.7998 11.375C20.8431 11.375 20.8756 11.3858 20.8973 11.4183C20.9298 11.4508 20.9406 11.4833 20.9406 11.5158C20.9406 11.5592 20.9298 11.5917 20.8973 11.6133C20.8756 11.635 20.8323 11.6567 20.7998 11.6567C20.7673 11.6567 20.7239 11.6458 20.7023 11.6133C20.6698 11.5917 20.6589 11.5592 20.6589 11.5158ZM20.7023 11.9708H20.8973V13.1408H20.7023V11.9708Z" fill="#818B91"/>
<path d="M21.2873 12.2391C21.2873 12.1849 21.2873 12.1307 21.2873 12.0874C21.2873 12.0441 21.2873 12.0007 21.2873 11.9574H21.4715C21.4715 11.9899 21.4715 12.0224 21.4715 12.0549C21.4715 12.0874 21.4715 12.1199 21.4715 12.1524C21.4823 12.1199 21.504 12.0982 21.5256 12.0657C21.5473 12.0332 21.5798 12.0116 21.6123 11.9899C21.6448 11.9682 21.6881 11.9574 21.7206 11.9357C21.764 11.9249 21.8073 11.9141 21.8506 11.9141C21.9265 11.9141 21.9915 11.9249 22.0456 11.9466C22.0998 11.9682 22.1431 12.0007 22.1865 12.0441C22.219 12.0874 22.2515 12.1307 22.2623 12.1957C22.284 12.2499 22.284 12.3149 22.284 12.3907V13.1057H22.089V12.4016C22.089 12.3041 22.0673 12.2282 22.024 12.1741C21.9806 12.1199 21.9156 12.0874 21.8181 12.0874C21.7531 12.0874 21.699 12.0982 21.6556 12.1199C21.6123 12.1416 21.569 12.1741 21.5473 12.2174C21.5148 12.2607 21.4931 12.3041 21.4823 12.3582C21.4715 12.4124 21.4606 12.4774 21.4606 12.5424V13.1057H21.2656V12.2391H21.2873Z" fill="#818B91"/>
<path d="M23.8331 13.0858C23.8331 13.3025 23.7789 13.465 23.6706 13.5733C23.5622 13.6817 23.3997 13.7358 23.1939 13.7358C23.0747 13.7358 22.9772 13.7142 22.8797 13.6817C22.7822 13.6492 22.6956 13.595 22.6197 13.5083L22.7606 13.3458C22.8256 13.4108 22.8906 13.465 22.9556 13.4975C23.0206 13.53 23.1072 13.5517 23.1939 13.5517C23.2806 13.5517 23.3564 13.5408 23.4106 13.5083C23.4647 13.4867 23.5081 13.4433 23.5514 13.4C23.5947 13.3567 23.6056 13.3025 23.6164 13.2483C23.6272 13.1942 23.6381 13.1292 23.6381 13.075V12.9233C23.5947 12.9992 23.5297 13.0533 23.4539 13.0858C23.3781 13.1183 23.3022 13.14 23.2264 13.14C23.1397 13.14 23.0531 13.1292 22.9772 13.0967C22.9014 13.0642 22.8364 13.0208 22.7822 12.9775C22.7281 12.9342 22.6847 12.8583 22.6522 12.7933C22.6197 12.7175 22.6089 12.6417 22.6089 12.555C22.6089 12.4575 22.6197 12.3708 22.6522 12.295C22.6847 12.2192 22.7281 12.1542 22.7822 12.1C22.8364 12.0458 22.9014 12.0025 22.9772 11.9808C23.0531 11.9483 23.1397 11.9375 23.2264 11.9375C23.2697 11.9375 23.3022 11.9375 23.3456 11.9483C23.3889 11.9592 23.4214 11.97 23.4647 11.9917C23.4972 12.0133 23.5406 12.035 23.5622 12.0675C23.5947 12.1 23.6164 12.1325 23.6381 12.165V11.97H23.8331V13.0858ZM22.8147 12.555C22.8147 12.62 22.8256 12.6742 22.8472 12.7175C22.8689 12.7717 22.9014 12.815 22.9339 12.8475C22.9664 12.88 23.0097 12.9125 23.0639 12.9342C23.1181 12.9558 23.1722 12.9667 23.2264 12.9667C23.2914 12.9667 23.3564 12.9558 23.3997 12.9342C23.4431 12.9125 23.4972 12.88 23.5297 12.8367C23.5622 12.7933 23.5947 12.75 23.6056 12.7067C23.6164 12.6633 23.6381 12.5983 23.6381 12.5442C23.6381 12.4792 23.6272 12.425 23.6056 12.3708C23.5839 12.3167 23.5622 12.2733 23.5189 12.23C23.4864 12.1867 23.4431 12.165 23.3889 12.1433C23.3347 12.1217 23.2806 12.1108 23.2156 12.1108C23.1506 12.1108 23.0964 12.1217 23.0422 12.1433C22.9881 12.165 22.9447 12.1975 22.9122 12.2408C22.8797 12.2842 22.8472 12.3275 22.8256 12.3817C22.8256 12.4358 22.8147 12.49 22.8147 12.555Z" fill="#818B91"/>
<path d="M13.7148 14.9283C13.6715 14.8742 13.6282 14.8417 13.5848 14.82C13.5415 14.7983 13.4873 14.7875 13.4223 14.7875C13.3573 14.7875 13.3032 14.7983 13.249 14.82C13.1948 14.8417 13.1623 14.8742 13.1298 14.9175C13.0973 14.9608 13.0757 15.0042 13.054 15.0583C13.0323 15.1125 13.0323 15.1667 13.0323 15.2317C13.0323 15.2967 13.0432 15.3508 13.0648 15.405C13.0865 15.4592 13.1082 15.5025 13.1407 15.5458C13.1732 15.5892 13.2165 15.6217 13.2598 15.6433C13.3032 15.665 13.3573 15.6758 13.4223 15.6758C13.5523 15.6758 13.6498 15.6325 13.7148 15.535L13.8557 15.6758C13.8015 15.7408 13.7365 15.7842 13.6607 15.8167C13.5848 15.8492 13.509 15.86 13.4223 15.86C13.3357 15.86 13.249 15.8492 13.1732 15.8167C13.0973 15.7842 13.0323 15.7408 12.9782 15.6867C12.924 15.6325 12.8807 15.5675 12.859 15.4917C12.8373 15.4158 12.8157 15.34 12.8157 15.2425C12.8157 15.1558 12.8265 15.0692 12.859 14.9933C12.8915 14.9175 12.924 14.8525 12.9782 14.7983C13.0323 14.7442 13.0973 14.7008 13.1732 14.6683C13.249 14.6358 13.3248 14.625 13.4223 14.625C13.509 14.625 13.5957 14.6358 13.6715 14.6683C13.7473 14.7008 13.8123 14.7442 13.8773 14.8092L13.7148 14.9283Z" fill="#818B91"/>
<path d="M14.1047 13.918H14.2997V15.803H14.1047V13.918Z" fill="#818B91"/>
<path d="M14.614 15.2191C14.614 15.1324 14.6248 15.0457 14.6573 14.9699C14.6898 14.8941 14.7332 14.8291 14.7874 14.7749C14.8415 14.7207 14.9065 14.6774 14.9824 14.6449C15.0582 14.6124 15.1449 14.6016 15.2315 14.6016C15.3182 14.6016 15.4049 14.6124 15.4807 14.6449C15.5565 14.6774 15.6215 14.7207 15.6757 14.7749C15.7299 14.8291 15.7732 14.8941 15.8057 14.9699C15.8382 15.0457 15.849 15.1324 15.849 15.2191C15.849 15.3057 15.8382 15.3924 15.8057 15.4682C15.7732 15.5441 15.7299 15.6091 15.6757 15.6632C15.6215 15.7174 15.5565 15.7607 15.4807 15.7932C15.4049 15.8257 15.3182 15.8366 15.2315 15.8366C15.1449 15.8366 15.0582 15.8257 14.9824 15.7932C14.9065 15.7607 14.8415 15.7174 14.7874 15.6632C14.7332 15.6091 14.6898 15.5441 14.6573 15.4682C14.6248 15.3924 14.614 15.3057 14.614 15.2191ZM14.8199 15.2191C14.8199 15.2841 14.8307 15.3382 14.8524 15.3924C14.874 15.4466 14.8957 15.4899 14.939 15.5332C14.9824 15.5766 15.0149 15.5982 15.069 15.6307C15.1232 15.6524 15.1774 15.6632 15.2424 15.6632C15.3074 15.6632 15.3615 15.6524 15.4157 15.6307C15.4699 15.6091 15.5132 15.5766 15.5457 15.5332C15.5782 15.4899 15.6107 15.4466 15.6324 15.3924C15.654 15.3382 15.6649 15.2841 15.6649 15.2191C15.6649 15.1541 15.654 15.0999 15.6324 15.0457C15.6107 14.9916 15.589 14.9482 15.5457 14.9049C15.5132 14.8616 15.4699 14.8399 15.4157 14.8074C15.3615 14.7749 15.3074 14.7749 15.2424 14.7749C15.1774 14.7749 15.1232 14.7857 15.069 14.8074C15.0149 14.8291 14.9715 14.8616 14.939 14.9049C14.9065 14.9482 14.874 14.9916 14.8524 15.0457C14.8307 15.0999 14.8199 15.1541 14.8199 15.2191Z" fill="#818B91"/>
<path d="M17.1816 15.5229C17.1816 15.5771 17.1816 15.6313 17.1816 15.6746C17.1816 15.7179 17.1816 15.7613 17.1816 15.8046H17.0083C17.0083 15.7721 17.0083 15.7396 17.0083 15.7071C17.0083 15.6746 17.0083 15.6421 17.0083 15.6096C16.9975 15.6421 16.9758 15.6638 16.9541 15.6963C16.9325 15.7179 16.9 15.7504 16.8675 15.7721C16.835 15.7938 16.7916 15.8046 16.7591 15.8263C16.7158 15.8371 16.6725 15.8479 16.6291 15.8479C16.5533 15.8479 16.4883 15.8371 16.4341 15.8154C16.38 15.7938 16.3366 15.7613 16.2933 15.7179C16.2608 15.6746 16.2283 15.6313 16.2175 15.5663C16.1958 15.5121 16.1958 15.4471 16.1958 15.3713V14.6562H16.3908V15.3604C16.3908 15.4579 16.4125 15.5338 16.4558 15.5879C16.4991 15.6421 16.5641 15.6746 16.6616 15.6746C16.7266 15.6746 16.7808 15.6638 16.8241 15.6421C16.8675 15.6204 16.9108 15.5879 16.9325 15.5446C16.965 15.5013 16.9866 15.4579 16.9975 15.4038C17.0083 15.3496 17.0191 15.2846 17.0191 15.2196V14.6562H17.2141V15.5229H17.1816Z" fill="#818B91"/>
<path d="M18.5142 15.5971C18.4708 15.6621 18.4167 15.7163 18.3408 15.7705C18.265 15.8138 18.1675 15.8355 18.07 15.8355C17.9833 15.8355 17.9075 15.8246 17.8425 15.7921C17.7667 15.7596 17.7125 15.7163 17.6583 15.6621C17.6042 15.608 17.5608 15.543 17.5392 15.4671C17.5067 15.3913 17.4958 15.3155 17.4958 15.218C17.4958 15.1205 17.5067 15.0446 17.5392 14.9688C17.5717 14.893 17.615 14.828 17.6692 14.7738C17.7233 14.7196 17.7883 14.6763 17.8642 14.6438C17.94 14.6113 18.0267 14.6005 18.1133 14.6005C18.2 14.6005 18.2758 14.6221 18.3517 14.6546C18.4275 14.6871 18.4817 14.7413 18.5358 14.8063V13.918H18.7308V15.803H18.5358V15.5971H18.5142ZM18.5142 15.218C18.5142 15.153 18.5033 15.0988 18.4817 15.0446C18.46 14.9905 18.4383 14.9471 18.395 14.9038C18.3625 14.8605 18.3192 14.8388 18.265 14.8063C18.2108 14.7846 18.1567 14.7738 18.0917 14.7738C18.0267 14.7738 17.9725 14.7846 17.9183 14.8063C17.8642 14.828 17.8208 14.8605 17.7883 14.9038C17.7558 14.9471 17.7233 14.9905 17.7017 15.0446C17.68 15.0988 17.6692 15.153 17.6692 15.218C17.6692 15.283 17.68 15.3371 17.7017 15.3913C17.7233 15.4455 17.745 15.4888 17.7883 15.5321C17.8317 15.5755 17.8642 15.5971 17.9183 15.6296C17.9725 15.6513 18.0267 15.6621 18.0917 15.6621C18.1567 15.6621 18.2108 15.6513 18.265 15.6296C18.3192 15.608 18.3625 15.5755 18.395 15.5321C18.4275 15.4888 18.46 15.4455 18.4817 15.3913C18.5033 15.3371 18.5142 15.283 18.5142 15.218Z" fill="#818B91"/>
<path d="M5.02654 13.3663C5.02654 13.3663 4.9507 13.3555 4.87487 13.3555C4.7557 13.3555 4.71237 13.3988 4.71237 13.3988C4.67987 13.4205 4.6582 13.4638 4.6582 13.5071C4.6582 13.5396 4.66904 13.5613 4.67987 13.583C4.6907 13.5938 4.6907 13.5938 4.71237 13.6155C4.71237 13.6155 4.76654 13.6588 4.87487 13.648C4.9507 13.648 5.02654 13.6263 5.02654 13.6263V13.3663Z" fill="#009ED8"/>
<path d="M6.13161 13.0195C6.05578 13.0195 6.00161 13.052 5.96911 13.1062C5.94745 13.1387 5.93661 13.182 5.92578 13.2362H6.32661C6.32661 13.182 6.31578 13.1387 6.29411 13.1062C6.26161 13.052 6.20745 13.0195 6.13161 13.0195Z" fill="#009ED8"/>
<path d="M8.40661 13.0195C8.33078 13.0195 8.27661 13.0412 8.24411 13.0954C8.21161 13.1495 8.18994 13.2254 8.18994 13.3229C8.18994 13.4204 8.21161 13.4962 8.24411 13.5504C8.27661 13.6045 8.33078 13.6262 8.40661 13.6262C8.48244 13.6262 8.53661 13.6045 8.56911 13.5504C8.60161 13.4962 8.62328 13.4204 8.62328 13.3229C8.62328 13.2254 8.60161 13.1495 8.56911 13.0954C8.53661 13.052 8.48244 13.0195 8.40661 13.0195Z" fill="#009ED8"/>
<path d="M10.6599 13.0195C10.5841 13.0195 10.5299 13.052 10.4974 13.1062C10.4758 13.1387 10.4649 13.182 10.4541 13.2362H10.8549C10.8549 13.182 10.8441 13.1387 10.8224 13.1062C10.7899 13.052 10.7358 13.0195 10.6599 13.0195Z" fill="#009ED8"/>
<path d="M9.93407 11.0489C9.63073 11.0489 9.33824 11.1139 9.07824 11.233C8.7749 10.7022 8.21157 10.3339 7.5724 10.3339C7.0849 10.3339 6.65157 10.5397 6.3374 10.8647C5.99074 10.4097 5.44907 10.1172 4.83157 10.1172C3.78074 10.1172 2.93574 10.9622 2.93574 12.013C2.93574 12.2839 2.9899 12.533 3.0874 12.7714C2.5999 13.053 2.2749 13.5947 2.2749 14.2014C2.2749 15.1114 3.00074 15.848 3.8999 15.848C4.01907 15.848 4.1274 15.8372 4.23574 15.8155C4.4849 16.4872 5.12407 16.9639 5.8824 16.9639C6.60824 16.9639 7.22574 16.5197 7.49657 15.8914C7.7024 15.9889 7.9299 16.043 8.16824 16.043C8.7424 16.043 9.25157 15.7289 9.51157 15.2522C9.64157 15.2739 9.7824 15.2955 9.92323 15.2955C11.0824 15.2955 12.0249 14.3422 12.0249 13.1722C12.0357 12.0022 11.0932 11.0489 9.93407 11.0489ZM4.36574 13.5189C4.36574 13.6922 4.24657 13.8005 4.04074 13.8005C3.94324 13.8005 3.84574 13.7897 3.74824 13.7355C3.72657 13.7247 3.71574 13.7139 3.69407 13.703C3.69407 13.703 3.68324 13.6922 3.69407 13.6814L3.7374 13.573C3.74824 13.5514 3.75907 13.5622 3.75907 13.5622C3.7699 13.573 3.78074 13.573 3.79157 13.5839C3.91074 13.6597 4.01907 13.6597 4.05157 13.6597C4.13824 13.6597 4.1924 13.6164 4.1924 13.5514C4.1924 13.4864 4.10574 13.4539 4.00824 13.4322L3.98657 13.4214C3.85657 13.3889 3.71574 13.3239 3.71574 13.1614C3.71574 12.9989 3.84574 12.8905 4.0299 12.8905H4.05157C4.1599 12.8905 4.26824 12.923 4.33324 12.9664C4.34407 12.9664 4.34407 12.9772 4.34407 12.988C4.34407 12.9989 4.31157 13.0855 4.30074 13.0964C4.2899 13.118 4.27907 13.1072 4.27907 13.1072C4.21407 13.0747 4.10574 13.0422 4.0299 13.0422C3.95407 13.0422 3.8999 13.0855 3.8999 13.1397C3.8999 13.2047 3.98657 13.2372 4.08407 13.2697L4.10574 13.2805C4.2249 13.2914 4.36574 13.3564 4.36574 13.5189ZM5.18907 13.7355C5.18907 13.7355 5.1674 13.7464 5.14574 13.7464C5.12407 13.7464 5.05907 13.768 5.0049 13.7789C4.95074 13.7897 4.88574 13.7897 4.83157 13.7897C4.7774 13.7897 4.72324 13.7897 4.6799 13.7789C4.63657 13.768 4.59324 13.7572 4.56074 13.7247C4.52824 13.703 4.50657 13.6705 4.4849 13.638C4.46324 13.6055 4.46324 13.5622 4.46324 13.508C4.46324 13.4539 4.47407 13.4105 4.49574 13.378C4.5174 13.3455 4.53907 13.313 4.5824 13.2805C4.6149 13.2589 4.65824 13.2372 4.70157 13.2264C4.7449 13.2155 4.78824 13.2047 4.8424 13.2047C4.8749 13.2047 4.9074 13.2047 4.92907 13.2047C4.92907 13.2047 4.9724 13.2047 5.02657 13.2155V13.1939C5.02657 13.118 5.01574 13.0855 4.98324 13.0639C4.95074 13.0422 4.9074 13.0314 4.8424 13.0314C4.8424 13.0314 4.70157 13.0314 4.59324 13.0855H4.5824C4.5824 13.0855 4.57157 13.0855 4.56074 13.0747L4.5174 12.9664C4.50657 12.9555 4.5174 12.9447 4.5174 12.9447C4.57157 12.9014 4.69074 12.8797 4.69074 12.8797C4.73407 12.8689 4.79907 12.8689 4.8424 12.8689C4.95074 12.8689 5.04824 12.8905 5.1024 12.9447C5.1674 12.9989 5.18907 13.0855 5.18907 13.1939V13.7139C5.1999 13.7139 5.1999 13.7355 5.18907 13.7355ZM5.56824 13.7572C5.56824 13.768 5.5574 13.7789 5.5574 13.7789H5.40574C5.3949 13.7789 5.3949 13.768 5.3949 13.7572V12.5439C5.3949 12.533 5.40574 12.5222 5.40574 12.5222H5.5574C5.56824 12.5222 5.56824 12.533 5.56824 12.5439V13.7572ZM6.51073 13.3672C6.51073 13.378 6.48907 13.378 6.48907 13.378H5.92574C5.92574 13.4647 5.9474 13.5297 5.99074 13.5622C6.03407 13.6055 6.09907 13.6272 6.18574 13.6272C6.31573 13.6272 6.38074 13.6055 6.41324 13.5839C6.41324 13.5839 6.42407 13.573 6.4349 13.5947L6.4674 13.703C6.47824 13.7247 6.4674 13.7247 6.4674 13.7355C6.4349 13.7572 6.34823 13.7897 6.18574 13.7897C6.1099 13.7897 6.03407 13.7789 5.9799 13.7572C5.92574 13.7355 5.87157 13.703 5.83907 13.6597C5.80657 13.6164 5.77407 13.573 5.7524 13.5189C5.73074 13.4647 5.73074 13.3997 5.73074 13.3347C5.73074 13.2697 5.74157 13.2047 5.7524 13.1505C5.77407 13.0964 5.79574 13.0422 5.82824 12.9989C5.86074 12.9555 5.90407 12.923 5.95824 12.9014C6.0124 12.8797 6.0774 12.8689 6.1424 12.8689C6.2074 12.8689 6.26157 12.8797 6.3049 12.9014C6.3374 12.9122 6.38074 12.9447 6.41324 12.988C6.4349 13.0097 6.4674 13.0639 6.48907 13.118C6.52157 13.248 6.51073 13.3564 6.51073 13.3672ZM6.68407 13.7247C6.6624 13.7139 6.65157 13.703 6.6299 13.6922C6.6299 13.6922 6.61907 13.6814 6.6299 13.6705L6.67323 13.5622C6.68407 13.5405 6.6949 13.5514 6.6949 13.5514C6.70574 13.5622 6.71657 13.5622 6.7274 13.573C6.84657 13.6489 6.9549 13.6489 6.9874 13.6489C7.07407 13.6489 7.12823 13.6055 7.12823 13.5405C7.12823 13.4755 7.04157 13.443 6.94407 13.4214L6.9224 13.4105C6.7924 13.378 6.65157 13.313 6.65157 13.1505C6.65157 12.988 6.78157 12.8797 6.96573 12.8797H6.9874C7.09574 12.8797 7.20407 12.9122 7.26907 12.9555C7.2799 12.9555 7.2799 12.9664 7.2799 12.9772C7.2799 12.988 7.2474 13.0747 7.23657 13.0855C7.22573 13.1072 7.2149 13.0964 7.2149 13.0964C7.1499 13.0639 7.04157 13.0314 6.96573 13.0314C6.8899 13.0314 6.83573 13.0747 6.83573 13.1289C6.83573 13.1939 6.9224 13.2264 7.0199 13.2589L7.04157 13.2697C7.17157 13.313 7.3124 13.3672 7.3124 13.5297C7.3124 13.703 7.19324 13.8114 6.9874 13.8114C6.87907 13.7897 6.78157 13.7789 6.68407 13.7247ZM7.9624 13.0205C7.9624 13.0422 7.94073 13.0422 7.94073 13.0422H7.75657L7.62657 13.768C7.61574 13.8439 7.59407 13.9089 7.5724 13.963C7.55074 14.0172 7.52907 14.0497 7.49657 14.093C7.46407 14.1255 7.43157 14.1472 7.38824 14.1689C7.3449 14.1797 7.30157 14.1905 7.2474 14.1905C7.22574 14.1905 7.19323 14.1905 7.16073 14.1797C7.13907 14.1797 7.12823 14.1689 7.10657 14.1689C7.09573 14.1689 7.09574 14.158 7.09574 14.1472C7.09574 14.1364 7.12824 14.0389 7.13907 14.028C7.1499 14.0172 7.16073 14.0172 7.16073 14.0172C7.17157 14.0172 7.1824 14.028 7.19324 14.028C7.20407 14.028 7.22573 14.028 7.23657 14.028C7.25823 14.028 7.2799 14.028 7.30157 14.0172C7.32324 14.0064 7.33407 13.9955 7.35574 13.9739C7.36657 13.9522 7.3774 13.9305 7.39907 13.898C7.4099 13.8655 7.42073 13.8114 7.43157 13.7572L7.56157 13.053H7.43157C7.42073 13.053 7.4099 13.0422 7.4099 13.0314L7.43157 12.9122C7.43157 12.8905 7.45323 12.8905 7.45323 12.8905H7.58323L7.59407 12.8472C7.61573 12.728 7.64823 12.6522 7.7024 12.5872C7.75657 12.533 7.84323 12.5005 7.94073 12.5005C7.97323 12.5005 7.9949 12.5005 8.01657 12.5114C8.03823 12.5114 8.04907 12.5222 8.07073 12.5222C8.07073 12.5222 8.08157 12.533 8.08157 12.5439L8.03823 12.663C8.03823 12.6739 8.0274 12.6739 8.01657 12.6739C8.01657 12.6739 8.00574 12.6739 7.98407 12.663C7.97324 12.663 7.95157 12.663 7.94073 12.663C7.91907 12.663 7.8974 12.663 7.87574 12.6739C7.85407 12.6847 7.84323 12.6847 7.8324 12.7064C7.82157 12.7172 7.7999 12.7389 7.78907 12.7714C7.7674 12.8364 7.75657 12.8905 7.75657 12.9014H7.9624C7.97323 12.9014 7.98407 12.9122 7.98407 12.923L7.9624 13.0205ZM8.79657 13.508C8.7749 13.5622 8.75323 13.6164 8.72073 13.6489C8.68823 13.6922 8.6449 13.7247 8.59074 13.7464C8.53657 13.768 8.4824 13.7789 8.40657 13.7789C8.33073 13.7789 8.27657 13.768 8.2224 13.7464C8.16824 13.7247 8.1249 13.6922 8.0924 13.6489C8.0599 13.6055 8.0274 13.5622 8.01657 13.508C7.9949 13.4539 7.9949 13.3889 7.9949 13.3239C7.9949 13.2589 8.00573 13.1939 8.01657 13.1397C8.03823 13.0855 8.0599 13.0314 8.0924 12.9989C8.1249 12.9555 8.16824 12.923 8.2224 12.9014C8.27657 12.8797 8.33073 12.8689 8.40657 12.8689C8.47157 12.8689 8.53657 12.8797 8.59074 12.9014C8.6449 12.923 8.68823 12.9555 8.72073 12.9989C8.75323 13.0422 8.78573 13.0855 8.79657 13.1397C8.81823 13.1939 8.81824 13.2589 8.81824 13.3239C8.81824 13.3997 8.8074 13.4539 8.79657 13.508ZM9.44657 13.0422C9.44657 13.053 9.43573 13.0639 9.4249 13.053C9.4249 13.053 9.3924 13.0422 9.3599 13.0422C9.33823 13.0422 9.30573 13.0422 9.28407 13.053C9.2624 13.0639 9.2299 13.0747 9.21907 13.0964C9.1974 13.118 9.18657 13.1397 9.1649 13.183C9.15407 13.2155 9.14323 13.2697 9.14323 13.3347V13.7572C9.14323 13.768 9.1324 13.7789 9.12157 13.7789H8.9699C8.95907 13.7789 8.94823 13.768 8.94823 13.7572V12.9122C8.94823 12.9014 8.95907 12.8905 8.95907 12.8905H9.0999C9.11073 12.8905 9.11073 12.9014 9.11073 12.9122V12.9772C9.1324 12.9447 9.17573 12.923 9.20823 12.9014C9.24073 12.8905 9.28407 12.8689 9.34907 12.8797C9.38157 12.8797 9.43573 12.8905 9.44657 12.8905C9.44657 12.8905 9.4574 12.9014 9.4574 12.9122C9.4899 12.9339 9.4574 13.0097 9.44657 13.0422ZM10.1941 13.7464C10.1291 13.768 10.0424 13.7897 9.95573 13.7897C9.8149 13.7897 9.69573 13.7464 9.63073 13.6705C9.5549 13.5839 9.5224 13.4755 9.5224 13.3347C9.5224 13.2697 9.53323 13.2047 9.5549 13.1505C9.57657 13.0964 9.59823 13.0422 9.64157 13.0097C9.67407 12.9664 9.7174 12.9339 9.77157 12.9122C9.82573 12.8905 9.89073 12.8797 9.95573 12.8797C9.99907 12.8797 10.0424 12.8797 10.0857 12.8905C10.1291 12.9014 10.1724 12.9122 10.1941 12.923C10.1941 12.923 10.2049 12.9339 10.2049 12.9447C10.1941 12.988 10.1832 13.0205 10.1616 13.0639C10.1507 13.0855 10.1399 13.0747 10.1399 13.0747C10.0857 13.053 10.0316 13.053 9.96657 13.053C9.8799 13.053 9.82574 13.0855 9.7824 13.1397C9.73907 13.1939 9.7174 13.2697 9.7174 13.3564C9.7174 13.4647 9.73907 13.5405 9.79323 13.5839C9.83657 13.6272 9.90157 13.6597 9.98823 13.6597C10.0207 13.6597 10.0532 13.6597 10.0749 13.6489C10.1074 13.6489 10.1291 13.638 10.1507 13.6272C10.1507 13.6272 10.1616 13.6164 10.1724 13.638L10.2157 13.7464C10.2157 13.7355 10.1941 13.7464 10.1941 13.7464ZM11.0391 13.3672C11.0391 13.378 11.0174 13.378 11.0174 13.378H10.4541C10.4541 13.4647 10.4757 13.5297 10.5191 13.5622C10.5624 13.6055 10.6274 13.6272 10.7141 13.6272C10.8441 13.6272 10.9091 13.6055 10.9416 13.5839C10.9416 13.5839 10.9524 13.573 10.9632 13.5947L10.9957 13.703C11.0066 13.7247 10.9957 13.7247 10.9957 13.7355C10.9632 13.7572 10.8766 13.7897 10.7141 13.7897C10.6382 13.7897 10.5624 13.7789 10.5082 13.7572C10.4541 13.7355 10.3999 13.703 10.3674 13.6597C10.3349 13.6164 10.3024 13.573 10.2807 13.5189C10.2591 13.4647 10.2591 13.3997 10.2591 13.3347C10.2591 13.2697 10.2699 13.2047 10.2807 13.1505C10.3024 13.0964 10.3241 13.0422 10.3566 12.9989C10.3891 12.9555 10.4324 12.923 10.4866 12.9014C10.5407 12.8797 10.6057 12.8689 10.6707 12.8689C10.7357 12.8689 10.7899 12.8797 10.8332 12.9014C10.8657 12.9122 10.9091 12.9447 10.9416 12.988C10.9632 13.0097 10.9957 13.0639 11.0174 13.118C11.0607 13.248 11.0391 13.3564 11.0391 13.3672Z" fill="#009ED8"/>
</svg>
