<svg width="100%" height="100%" viewBox="0 0 18 18" fill="none" xmlns="http://www.w3.org/2000/svg">
<circle cx="9" cy="9" r="8.5" fill="white" stroke="#E2EAEC"/>
<path d="M11.0616 13.2293H6.93838C6.75263 13.2293 6.60205 13.0787 6.60205 12.893C6.60205 12.7072 6.75263 12.5566 6.93838 12.5566H11.0616C11.2474 12.5566 11.3979 12.7072 11.3979 12.893C11.3979 13.0787 11.2474 13.2293 11.0616 13.2293Z" fill="#656766"/>
<path d="M9.33624 12.8561V10.8305C9.33624 10.6447 9.18566 10.4941 8.99991 10.4941C8.81415 10.4941 8.66357 10.6447 8.66357 10.8305V12.8561H9.33624Z" fill="#656766"/>
<path d="M13.6352 10.4573V5.77007C13.6352 5.3582 13.3013 5.02431 12.8894 5.02431H9.10364C8.86632 5.02431 8.64317 4.91136 8.50266 4.72011L8.34418 4.5044C8.20366 4.31315 7.98051 4.2002 7.74319 4.2002H5.1105C4.69863 4.2002 4.36475 4.53408 4.36475 4.94595V10.4573C4.36475 10.8692 4.69863 11.2031 5.1105 11.2031H12.8894C13.3013 11.2031 13.6352 10.8692 13.6352 10.4573Z" fill="#FFC966"/>
<path d="M7.00751 7.6765C6.98205 7.69744 6.96922 7.72535 6.96922 7.76005C6.96922 7.79476 6.98488 7.82229 7.016 7.84266C7.04731 7.86322 7.11954 7.88736 7.23271 7.91528C7.34587 7.94319 7.43376 7.98487 7.49619 8.04051C7.55881 8.09634 7.59012 8.17763 7.59012 8.28457C7.59012 8.39151 7.54994 8.47808 7.46979 8.54466C7.38963 8.61124 7.2842 8.64443 7.15349 8.64443C6.9647 8.64443 6.79457 8.57446 6.64331 8.4347L6.80193 8.24025C6.93056 8.35285 7.04938 8.40905 7.15858 8.40905C7.20743 8.40905 7.24572 8.39849 7.27363 8.37755C7.30155 8.35643 7.3155 8.32795 7.3155 8.29212C7.3155 8.25647 7.3006 8.22799 7.27118 8.20687C7.24157 8.18593 7.18291 8.16462 7.0954 8.14293C6.95659 8.10992 6.85511 8.06711 6.79099 8.01411C6.72667 7.9613 6.69461 7.87831 6.69461 7.76515C6.69461 7.65198 6.73516 7.56466 6.81645 7.50336C6.89774 7.44188 6.99921 7.41113 7.12105 7.41113C7.20064 7.41113 7.28023 7.4249 7.35983 7.45206C7.43942 7.47941 7.50883 7.51807 7.56786 7.56805L7.43319 7.76251C7.32965 7.68405 7.22271 7.64482 7.11237 7.64482C7.06806 7.64482 7.03316 7.65538 7.00751 7.6765Z" fill="white"/>
<path d="M8.80629 7.43848V7.67216H8.25367V7.9298H8.77913V8.16348H8.25367V8.63085H7.98755V7.43848H8.80629Z" fill="white"/>
<path d="M9.70707 7.66877V8.63085H9.44094V7.66877H9.10315V7.43848H10.0447V7.66877H9.70707Z" fill="white"/>
<path d="M11.231 7.54504C11.3145 7.61614 11.3564 7.72535 11.3564 7.87265C11.3564 8.01995 11.3134 8.12765 11.2276 8.19592C11.1418 8.26401 11.0107 8.29815 10.8345 8.29815H10.6757V8.63085H10.4098V7.43848H10.831C11.0141 7.43848 11.1474 7.47393 11.231 7.54504ZM11.0358 8.01411C11.0675 7.97827 11.0835 7.92603 11.0835 7.85718C11.0835 7.78853 11.0627 7.73949 11.0213 7.71045C10.9798 7.68159 10.9153 7.66707 10.8276 7.66707H10.6757V8.06786H10.8549C10.9435 8.06786 11.0039 8.04994 11.0358 8.01411Z" fill="white"/>
<path d="M8.99989 13.7998C9.50121 13.7998 9.90761 13.3934 9.90761 12.8921C9.90761 12.3908 9.50121 11.9844 8.99989 11.9844C8.49856 11.9844 8.09216 12.3908 8.09216 12.8921C8.09216 13.3934 8.49856 13.7998 8.99989 13.7998Z" fill="#EC6E62"/>
</svg>
