<svg width="100%" height="100%" viewBox="0 0 26 26" fill="none" xmlns="http://www.w3.org/2000/svg">
<circle cx="13" cy="13" r="12.5" fill="white" stroke="#E2EAEC"/>
<path d="M15.978 19.1084H10.0222C9.75388 19.1084 9.53638 18.8908 9.53638 18.6225C9.53638 18.3542 9.75388 18.1367 10.0222 18.1367H15.978C16.2463 18.1367 16.4638 18.3542 16.4638 18.6225C16.4638 18.8908 16.2463 19.1084 15.978 19.1084Z" fill="#656766"/>
<path d="M13.4858 18.5679V15.6421C13.4858 15.3738 13.2683 15.1562 13 15.1562C12.7317 15.1562 12.5142 15.3738 12.5142 15.6421V18.5679H13.4858Z" fill="#656766"/>
<path d="M19.6953 15.1045V8.334C19.6953 7.73908 19.213 7.2568 18.6181 7.2568H13.1498C12.807 7.2568 12.4846 7.09364 12.2817 6.81739L12.0528 6.50581C11.8498 6.22956 11.5275 6.06641 11.1847 6.06641H7.38189C6.78697 6.06641 6.30469 6.54869 6.30469 7.14361V15.1045C6.30469 15.6994 6.78697 16.1817 7.38189 16.1817H18.6181C19.213 16.1817 19.6953 15.6994 19.6953 15.1045Z" fill="#FFC966"/>
<path d="M10.122 11.0864C10.0852 11.1167 10.0667 11.157 10.0667 11.2071C10.0667 11.2573 10.0893 11.297 10.1343 11.3264C10.1795 11.3561 10.2838 11.391 10.4473 11.4313C10.6108 11.4717 10.7377 11.5319 10.8279 11.6122C10.9183 11.6929 10.9636 11.8103 10.9636 11.9648C10.9636 12.1192 10.9055 12.2443 10.7897 12.3404C10.674 12.4366 10.5217 12.4846 10.3329 12.4846C10.0602 12.4846 9.81444 12.3835 9.59595 12.1816L9.82506 11.9007C10.0109 12.0634 10.1825 12.1446 10.3402 12.1446C10.4108 12.1446 10.4661 12.1293 10.5064 12.0991C10.5467 12.0686 10.5669 12.0274 10.5669 11.9757C10.5669 11.9242 10.5454 11.883 10.5029 11.8525C10.4601 11.8223 10.3754 11.7915 10.249 11.7602C10.0485 11.7125 9.90189 11.6506 9.80926 11.5741C9.71636 11.4978 9.67005 11.3779 9.67005 11.2145C9.67005 11.051 9.72862 10.9249 9.84604 10.8363C9.96346 10.7475 10.11 10.7031 10.286 10.7031C10.401 10.7031 10.5159 10.723 10.6309 10.7622C10.7459 10.8017 10.8461 10.8576 10.9314 10.9298L10.7369 11.2107C10.5873 11.0973 10.4329 11.0407 10.2735 11.0407C10.2095 11.0407 10.1591 11.0559 10.122 11.0864Z" fill="white"/>
<path d="M12.7202 10.7422V11.0797H11.922V11.4519H12.681V11.7894H11.922V12.4645H11.5376V10.7422H12.7202Z" fill="white"/>
<path d="M14.0213 11.0748V12.4645H13.6369V11.0748H13.1489V10.7422H14.5089V11.0748H14.0213Z" fill="white"/>
<path d="M16.2225 10.8961C16.3432 10.9988 16.4037 11.1566 16.4037 11.3693C16.4037 11.5821 16.3416 11.7377 16.2176 11.8363C16.0937 11.9346 15.9043 11.9839 15.6499 11.9839H15.4205V12.4645H15.0364V10.7422H15.6447C15.9093 10.7422 16.1019 10.7934 16.2225 10.8961ZM15.9406 11.5737C15.9863 11.5219 16.0095 11.4464 16.0095 11.347C16.0095 11.2478 15.9795 11.177 15.9196 11.135C15.8597 11.0934 15.7665 11.0724 15.6398 11.0724H15.4205V11.6513H15.6793C15.8074 11.6513 15.8945 11.6254 15.9406 11.5737Z" fill="white"/>
<path d="M12.9999 19.9309C13.724 19.9309 14.311 19.3439 14.311 18.6198C14.311 17.8956 13.724 17.3086 12.9999 17.3086C12.2757 17.3086 11.6887 17.8956 11.6887 18.6198C11.6887 19.3439 12.2757 19.9309 12.9999 19.9309Z" fill="#EC6E62"/>
</svg>
