<svg width="100%" height="100%" viewBox="0 0 18 18" fill="none" xmlns="http://www.w3.org/2000/svg">
<circle cx="9" cy="9" r="8.5" fill="white" stroke="#E2EAEC"/>
<g clip-path="url(#shopify0)">
<path d="M12.7412 5.25882C12.7333 5.20132 12.6833 5.1695 12.6421 5.166C12.3376 5.14293 12.0331 5.12005 11.7287 5.09735C11.7287 5.09735 11.1229 4.49104 11.0564 4.42393C10.9899 4.35686 10.86 4.37726 10.8096 4.39223C10.8021 4.39443 10.6772 4.4333 10.4706 4.49778C10.2682 3.91072 9.91111 3.37125 9.28287 3.37125C9.26553 3.37125 9.24768 3.37196 9.22982 3.37298C9.05115 3.13475 8.82982 3.03125 8.63865 3.03125C7.17518 3.03125 6.476 4.87578 6.25678 5.81311C5.68811 5.99077 5.28412 6.11707 5.23252 6.13341C4.9151 6.2338 4.90506 6.24389 4.86338 6.54545C4.83201 6.77375 4.00146 13.2496 4.00146 13.2496L10.4733 14.4721L13.9799 13.7073C13.9799 13.7073 12.7489 5.31632 12.7412 5.25882H12.7412ZM10.1129 4.60931L9.56525 4.7802C9.56545 4.74128 9.56564 4.703 9.56564 4.66114C9.56564 4.29629 9.51541 4.00253 9.43482 3.76965C9.75854 3.81061 9.97412 4.18196 10.1129 4.60931ZM9.03326 3.842C9.12326 4.06936 9.18178 4.39565 9.18178 4.83596C9.18178 4.85849 9.18158 4.87909 9.18139 4.89992C8.82525 5.01114 8.43826 5.13189 8.05041 5.25303C8.26818 4.40566 8.67639 3.99638 9.03326 3.842ZM8.59846 3.42702C8.66162 3.42702 8.72525 3.44864 8.78615 3.4909C8.31713 3.71341 7.81439 4.27384 7.60209 5.393L6.70811 5.67215C6.95678 4.81852 7.54725 3.42702 8.59842 3.42702H8.59846Z" fill="#95BF46"/>
<path d="M12.642 5.16523C12.3375 5.14217 12.0331 5.11928 11.7286 5.09658C11.7286 5.09658 11.1228 4.49027 11.0564 4.42317C11.0315 4.3982 10.9979 4.3854 10.9628 4.37988L10.4735 14.4713L13.9798 13.7065C13.9798 13.7065 12.7488 5.31556 12.7411 5.25806C12.7332 5.20056 12.6833 5.16874 12.642 5.16523Z" fill="#5E8E3E"/>
<path d="M9.2828 7.11909L8.85042 8.41583C8.85042 8.41583 8.47159 8.21198 8.00722 8.21198C7.32644 8.21198 7.29218 8.64272 7.29218 8.75126C7.29218 9.34351 8.82343 9.57044 8.82343 10.9577C8.82343 12.0491 8.13683 12.7519 7.21105 12.7519C6.10011 12.7519 5.53198 12.0548 5.53198 12.0548L5.82944 11.0639C5.82944 11.0639 6.41343 11.5694 6.9062 11.5694C7.22819 11.5694 7.35917 11.3138 7.35917 11.1271C7.35917 10.3545 6.10292 10.3201 6.10292 9.05061C6.10292 7.98218 6.86355 6.94824 8.39894 6.94824C8.99054 6.94824 9.2828 7.11909 9.2828 7.11909Z" fill="white"/>
</g>
<defs>
<clipPath id="shopify0">
<rect width="10" height="11.5" fill="white" transform="translate(4 3)"/>
</clipPath>
</defs>
</svg>
