<svg width="100%" height="100%" viewBox="0 0 26 26" fill="none" xmlns="http://www.w3.org/2000/svg">
<circle cx="13" cy="13" r="12.5" fill="white" stroke="#E2EAEC"/>
<g clip-path="url(#shopify0)">
<path d="M18.404 7.59651C18.3927 7.51346 18.3205 7.46749 18.2609 7.46243C17.8211 7.42911 17.3813 7.39606 16.9415 7.36327C16.9415 7.36327 16.0666 6.48749 15.9705 6.39056C15.8744 6.29368 15.6868 6.32315 15.6139 6.34476C15.6032 6.34795 15.4228 6.4041 15.1243 6.49722C14.832 5.64926 14.3162 4.87001 13.4087 4.87001C13.3837 4.87001 13.3579 4.87104 13.3321 4.87252C13.074 4.52841 12.7543 4.37891 12.4782 4.37891C10.3643 4.37891 9.35435 7.04323 9.0377 8.39715C8.21629 8.65376 7.63276 8.8362 7.55822 8.85981C7.09972 9.00482 7.08522 9.01938 7.02502 9.45497C6.97971 9.78474 5.78003 19.1387 5.78003 19.1387L15.1282 20.9046L20.1933 19.7998C20.1933 19.7998 18.4153 7.67957 18.4041 7.59651H18.404ZM14.6076 6.65833L13.8166 6.90516C13.8169 6.84896 13.8172 6.79366 13.8172 6.73319C13.8172 6.20619 13.7446 5.78186 13.6282 5.44549C14.0958 5.50465 14.4072 6.04104 14.6076 6.65833ZM13.0482 5.54999C13.1782 5.8784 13.2627 6.34971 13.2627 6.98571C13.2627 7.01825 13.2624 7.048 13.2621 7.0781C12.7477 7.23875 12.1887 7.41316 11.6285 7.58815C11.9431 6.36416 12.5327 5.77299 13.0482 5.54999ZM12.4201 4.95057C12.5114 4.95057 12.6033 4.9818 12.6912 5.04284C12.0138 5.36425 11.2876 6.17376 10.9809 7.79033L9.68962 8.19355C10.0488 6.96051 10.9017 4.95057 12.4201 4.95057H12.4201Z" fill="#95BF46"/>
<path d="M18.2607 7.45861C17.8209 7.42529 17.3811 7.39224 16.9413 7.35946C16.9413 7.35946 16.0663 6.48367 15.9703 6.38674C15.9344 6.35067 15.8859 6.33218 15.8352 6.32422L15.1284 20.9006L20.1931 19.796C20.1931 19.796 18.415 7.67575 18.4038 7.59269C18.3925 7.50964 18.3203 7.46367 18.2607 7.45861Z" fill="#5E8E3E"/>
<path d="M13.4086 10.2819L12.784 12.155C12.784 12.155 12.2368 11.8606 11.5661 11.8606C10.5827 11.8606 10.5332 12.4827 10.5332 12.6395C10.5332 13.495 12.745 13.8228 12.745 15.8266C12.745 17.4031 11.7533 18.4182 10.416 18.4182C8.81135 18.4182 7.99072 17.4113 7.99072 17.4113L8.42039 15.9801C8.42039 15.9801 9.26392 16.7102 9.97571 16.7102C10.4408 16.7102 10.63 16.341 10.63 16.0712C10.63 14.9553 8.81541 14.9056 8.81541 13.0719C8.81541 11.5286 9.91409 10.0352 12.1319 10.0352C12.9864 10.0352 13.4086 10.2819 13.4086 10.2819Z" fill="white"/>
</g>
<defs>
<clipPath id="shopify0">
<rect width="14.4444" height="16.6111" fill="white" transform="translate(5.77783 4.33203)"/>
</clipPath>
</defs>
</svg>
