<svg width="100%" height="100%" viewBox="0 0 18 18" fill="none" xmlns="http://www.w3.org/2000/svg">
<circle cx="9" cy="9" r="8.5" fill="white" stroke="#E2EAEC"/>
<mask id="snapchat0" style="mask-type:alpha" maskUnits="userSpaceOnUse" x="0" y="0" width="18" height="18">
<circle cx="9" cy="9" r="8.5" fill="white" stroke="white"/>
</mask>
<g mask="url(#snapchat0)">
<path d="M-14.2134 -9.83301H32.2321V25.0014H-14.2132L-14.2134 -9.83301Z" fill="#BDCF31"/>
<path d="M14.5736 8.11083C14.4312 8.11083 14.2904 8.13045 14.1578 8.1626C13.6339 6.08876 11.9003 4.4991 9.75283 4.18137C9.72047 3.81934 9.859 3.25164 10.7645 2.70456L10.7374 2.65137C10.7374 2.65137 9.22092 3.1311 8.87811 4.07802C8.89307 3.78233 8.78548 3.3382 8.12696 3.02229C8.12696 3.02229 8.07498 3.04009 8.10127 3.06395C8.23193 3.18469 8.64795 3.58716 8.47139 4.14759C6.18802 4.3553 4.31925 5.99613 3.77157 8.16301C3.63553 8.12917 3.49593 8.11179 3.35575 8.11123C2.3975 8.11123 1.61743 8.88948 1.61743 9.85056C1.61743 10.8098 2.3977 11.5893 3.35575 11.5893C3.58024 11.5893 3.79422 11.5448 3.9908 11.4675C4.139 11.8379 4.32849 12.1905 4.55568 12.5184L6.00498 11.5411L5.98638 11.5294C5.60474 11.039 5.37154 10.3167 5.33231 9.59795C5.28903 8.80514 5.48238 8.01779 5.9886 7.55485C7.0322 6.66638 8.16842 7.07148 8.88074 7.92294H9.07085C9.78316 7.08827 10.9066 6.70036 11.9419 7.57912C12.4415 8.03903 12.6369 8.81283 12.5988 9.59512C12.5645 10.3208 12.3299 11.0545 11.9466 11.5484L13.3753 12.5182C13.6014 12.1898 13.7904 11.8373 13.9387 11.4671C14.1353 11.544 14.3489 11.5889 14.5732 11.5889C15.5339 11.5889 16.3119 10.8092 16.3119 9.84955C16.312 9.62119 16.2671 9.39506 16.1798 9.18406C16.0925 8.97306 15.9644 8.78134 15.803 8.61985C15.6415 8.45836 15.4498 8.33027 15.2388 8.24289C15.0279 8.15552 14.8017 8.11057 14.5734 8.11063L14.5736 8.11083ZM3.415 10.1978C3.22368 10.1978 3.06714 10.0427 3.06714 9.84914C3.06696 9.7856 3.08415 9.72322 3.11685 9.66874C3.14954 9.61426 3.1965 9.56975 3.25266 9.54002C3.30881 9.51029 3.37202 9.49647 3.43546 9.50005C3.4989 9.50363 3.56015 9.52447 3.6126 9.56033C3.61462 9.74498 3.62878 9.9268 3.65002 10.1064C3.58589 10.1652 3.50203 10.1978 3.415 10.1978ZM14.5133 10.1986C14.4275 10.1985 14.3447 10.1668 14.2807 10.1096C14.3016 9.92883 14.3157 9.7462 14.3179 9.56074C14.374 9.52312 14.4413 9.50047 14.5137 9.50047C14.7059 9.50047 14.8628 9.65721 14.8628 9.85036C14.8628 10.0441 14.7051 10.1988 14.5135 10.1988" fill="white"/>
<path d="M15.1319 -1.90735e-06C16.7156 -1.90735e-06 18 1.28409 18 2.86835V15.1319C18 16.7156 16.7156 18 15.1319 18H2.86835C1.28436 18 0 16.7156 0 15.1319V2.86835C0 1.28409 1.28436 -1.90735e-06 2.86835 -1.90735e-06H15.1319Z" fill="#FFFC00"/>
<path d="M9.06636 15.1807C9.03231 15.1807 8.99904 15.1796 8.96551 15.178C8.94413 15.1799 8.92195 15.1807 8.89978 15.1807C8.11861 15.1807 7.61727 14.8264 7.13231 14.4834C6.79755 14.2469 6.48155 14.0236 6.10931 13.9615C5.92768 13.9314 5.74684 13.9164 5.57234 13.9164C5.25738 13.9164 5.00923 13.9649 4.82786 14.0003C4.71777 14.022 4.62273 14.0405 4.5504 14.0405C4.47489 14.0405 4.39332 14.0241 4.35768 13.9026C4.32679 13.7973 4.30461 13.6957 4.28296 13.5969C4.22752 13.3435 4.18819 13.1875 4.08206 13.1711C2.84311 12.9797 2.4883 12.7186 2.40936 12.5335C2.39828 12.5071 2.39168 12.4805 2.39036 12.4543C2.3864 12.3831 2.43656 12.3202 2.50704 12.3089C4.41153 11.9952 5.26557 10.0485 5.30121 9.96589C5.302 9.96377 5.30306 9.9614 5.30411 9.95929C5.4208 9.72301 5.4435 9.51788 5.37222 9.34971C5.24154 9.04189 4.81519 8.90646 4.53297 8.81696C4.46407 8.79505 4.3986 8.77446 4.34685 8.75386C3.78374 8.53131 3.73701 8.30295 3.75919 8.18653C3.79694 7.988 4.062 7.84967 4.27663 7.84967C4.33524 7.84967 4.38698 7.86023 4.43054 7.88056C4.68398 7.99909 4.91207 8.05928 5.10928 8.05928C5.38146 8.05928 5.50026 7.94497 5.51478 7.92992C5.50766 7.80109 5.49921 7.66645 5.4905 7.52732C5.43374 6.62709 5.36325 5.50799 5.64837 4.86938C6.50214 2.95512 8.31264 2.80622 8.84724 2.80622C8.86097 2.80622 9.08167 2.80385 9.08167 2.80385H9.11335C9.64901 2.80385 11.4637 2.95274 12.318 4.86832C12.6029 5.5072 12.5324 6.62709 12.4756 7.5268L12.4733 7.56613C12.4653 7.69127 12.4577 7.81297 12.4514 7.92966C12.4651 7.94365 12.5744 8.04872 12.821 8.05823H12.8212C13.0089 8.0511 13.2243 7.99117 13.4609 7.88056C13.5301 7.84808 13.6071 7.84122 13.6594 7.84122C13.7397 7.84122 13.8207 7.8568 13.888 7.88478L13.8923 7.88663C14.0834 7.95447 14.2088 8.08832 14.2114 8.22851C14.2141 8.36051 14.1132 8.55877 13.6193 8.75386C13.5681 8.77419 13.5026 8.79479 13.4332 8.81696C13.1507 8.90646 12.7246 9.04189 12.5939 9.34971C12.5226 9.51788 12.5453 9.72274 12.662 9.95902C12.6631 9.9614 12.6641 9.96351 12.6652 9.96589C12.7006 10.0485 13.5538 11.9947 15.4594 12.3086C15.5296 12.3202 15.58 12.3831 15.576 12.4541C15.5745 12.4807 15.5679 12.5077 15.5565 12.5338C15.4778 12.7176 15.1236 12.9784 13.8843 13.1698C13.783 13.1854 13.7436 13.3174 13.6832 13.594C13.6613 13.6946 13.6391 13.7936 13.6085 13.8976C13.5821 13.9879 13.5258 14.0302 13.4311 14.0302H13.4157C13.35 14.0302 13.2568 14.0183 13.1385 13.995C12.9287 13.9541 12.6934 13.9164 12.3941 13.9164C12.2193 13.9164 12.0385 13.9314 11.8566 13.9615C11.4849 14.0236 11.1691 14.2464 10.8349 14.4826C10.3491 14.8264 9.8478 15.1807 9.06636 15.1807Z" fill="white"/>
<path d="M9.11309 2.94252C9.62023 2.94252 11.3671 3.07874 12.1903 4.92436C12.4614 5.53183 12.392 6.6327 12.3363 7.5171C12.3273 7.65755 12.3188 7.79351 12.312 7.9234L12.3088 7.9791L12.3463 8.02081C12.3611 8.03744 12.502 8.18476 12.8154 8.1969L12.8207 8.19716L12.8257 8.1969C13.033 8.18898 13.2663 8.12483 13.52 8.00603C13.557 7.9886 13.6069 7.98016 13.6594 7.98016C13.7193 7.98016 13.783 7.99124 13.8355 8.01342L13.8434 8.01659C13.9762 8.06305 14.0702 8.15096 14.0718 8.23043C14.0726 8.27557 14.0388 8.43714 13.5678 8.62326C13.5216 8.64147 13.4609 8.66075 13.3907 8.68292C13.0842 8.78034 12.6211 8.92712 12.4651 9.29408C12.3774 9.50132 12.4012 9.74552 12.5366 10.0201C12.5923 10.1497 13.467 12.121 15.4364 12.4454C15.4359 12.4547 15.4335 12.465 15.4282 12.4771C15.395 12.5558 15.1827 12.8272 13.8627 13.0307C13.656 13.0627 13.6056 13.2942 13.5467 13.5635C13.5258 13.6596 13.5039 13.7567 13.4744 13.8573C13.4654 13.8877 13.4638 13.8895 13.4311 13.8895H13.4155C13.3571 13.8895 13.2679 13.8774 13.165 13.8573C12.9778 13.8206 12.7214 13.7757 12.3938 13.7757C12.2111 13.7757 12.0226 13.7918 11.8336 13.823C11.4297 13.8903 11.101 14.1226 10.753 14.3684C10.286 14.6989 9.80292 15.0403 9.06609 15.0403C9.03415 15.0403 9.00273 15.0392 8.97105 15.0376L8.96287 15.0374L8.95442 15.0379C8.93647 15.0395 8.91825 15.0403 8.89951 15.0403C8.16269 15.0403 7.67957 14.6989 7.21255 14.3687C6.8646 14.1226 6.53592 13.8903 6.13227 13.823C5.94324 13.7918 5.75475 13.7757 5.57206 13.7757C5.24444 13.7757 4.98809 13.8256 4.80065 13.8623C4.69769 13.8827 4.60873 13.8998 4.55012 13.8998C4.5026 13.8998 4.50154 13.8972 4.49151 13.8626C4.46194 13.762 4.44003 13.6622 4.41917 13.5661C4.3603 13.2968 4.30935 13.064 4.10317 13.032C2.7829 12.8282 2.57091 12.5563 2.53738 12.4779C2.5321 12.4658 2.52999 12.4549 2.52946 12.4457C4.49864 12.1212 5.37353 10.1502 5.42924 10.0201C5.5644 9.74552 5.58843 9.50158 5.50052 9.29434C5.34476 8.92712 4.8817 8.78034 4.57493 8.68292C4.50471 8.66075 4.44399 8.64147 4.39805 8.62326C3.99994 8.46591 3.87771 8.30778 3.89619 8.21168C3.91705 8.10107 4.10897 7.9886 4.27635 7.9886C4.31384 7.9886 4.34684 7.99441 4.37113 8.00603C4.64304 8.13328 4.89147 8.19796 5.109 8.19796C5.45115 8.19796 5.60374 8.03876 5.61984 8.02055L5.65707 7.9791L5.6539 7.92366C5.64704 7.79377 5.63832 7.65808 5.62961 7.51789C5.57391 6.63323 5.50448 5.53315 5.7756 4.92542C6.59559 3.08667 8.33376 2.9449 8.84697 2.9449C8.85965 2.9449 9.08273 2.94279 9.08273 2.94279C9.09223 2.94252 9.10226 2.94252 9.11309 2.94252ZM9.11309 2.66347H9.11256H9.07956C9.07956 2.66347 8.86387 2.66559 8.84671 2.66559C8.29125 2.66559 6.40867 2.82055 5.52058 4.81164C5.22173 5.48167 5.29328 6.6195 5.35083 7.53373C5.35769 7.64145 5.36482 7.75338 5.37089 7.86162C5.32496 7.88696 5.241 7.91864 5.109 7.91864C4.93265 7.91864 4.72436 7.8632 4.48966 7.75312C4.42736 7.72408 4.35555 7.70929 4.27635 7.70929C4.00153 7.70929 3.67285 7.89013 3.62189 8.15941C3.58493 8.35345 3.67179 8.63646 4.29536 8.88277C4.35159 8.90521 4.41917 8.92659 4.49072 8.94903C4.74838 9.03087 5.13778 9.15442 5.24364 9.40338C5.29829 9.53247 5.27638 9.69853 5.1787 9.89653C5.17659 9.90101 5.17448 9.9055 5.17263 9.91025C5.13831 9.98998 4.3141 11.8689 2.48406 12.1701C2.34334 12.1933 2.24276 12.319 2.25068 12.4613C2.25306 12.5038 2.26309 12.5458 2.28025 12.5867C2.41779 12.9077 2.99701 13.1432 4.05195 13.3069C4.08733 13.3544 4.12402 13.5228 4.14646 13.6255C4.16837 13.7269 4.19108 13.8312 4.22355 13.9415C4.25523 14.0498 4.33786 14.1791 4.55012 14.1791C4.63592 14.1791 4.73729 14.1593 4.85424 14.1364C5.03007 14.102 5.27084 14.055 5.57206 14.055C5.73917 14.055 5.91235 14.0696 6.08659 14.0983C6.42689 14.1551 6.71623 14.3597 7.05098 14.5962C7.53067 14.9355 8.07398 15.3193 8.89951 15.3193C8.92221 15.3193 8.94492 15.3188 8.96762 15.317C8.99429 15.3183 9.02913 15.3193 9.06609 15.3193C9.89188 15.3193 10.4352 14.9355 10.9144 14.5965C11.2499 14.3594 11.539 14.1551 11.8793 14.0983C12.0535 14.0696 12.2267 14.055 12.3938 14.055C12.6813 14.055 12.9086 14.0915 13.1114 14.1311C13.2386 14.1562 13.3408 14.1688 13.4155 14.1688H13.4234H13.4311C13.5879 14.1688 13.6985 14.0859 13.7423 13.9357C13.7743 13.8277 13.797 13.7261 13.8194 13.6231C13.8418 13.5207 13.8783 13.3531 13.9134 13.3055C14.9686 13.1419 15.5478 12.9069 15.6851 12.5872C15.7025 12.5463 15.7128 12.5038 15.7152 12.461C15.7231 12.3185 15.6225 12.1933 15.4818 12.1701C13.651 11.8683 12.8273 9.98972 12.7932 9.90999C12.7914 9.9055 12.7893 9.90101 12.7869 9.89653C12.6892 9.69826 12.6676 9.53247 12.7222 9.40338C12.8278 9.15442 13.2172 9.03087 13.4749 8.9493C13.547 8.92633 13.6145 8.90468 13.6702 8.88277C14.1267 8.70246 14.3556 8.48123 14.3508 8.22488C14.3469 8.02345 14.1901 7.84393 13.9408 7.75496L13.9401 7.7547C13.8564 7.71985 13.7568 7.70084 13.6594 7.70084C13.5926 7.70084 13.4939 7.70982 13.4015 7.75312C13.1845 7.85476 12.9894 7.9102 12.8212 7.91759C12.7096 7.91257 12.6367 7.88432 12.595 7.86136C12.6003 7.76869 12.6063 7.67312 12.6124 7.57333L12.6148 7.53452C12.6726 6.61977 12.7441 5.48088 12.4453 4.81058C11.5567 2.81844 9.67012 2.66347 9.11309 2.66347Z" fill="#030303"/>
</g>
<circle cx="9" cy="9" r="8.5" stroke="#E2EAEC"/>
</svg>
