<svg width="100%" height="100%" viewBox="0 0 26 26" fill="none" xmlns="http://www.w3.org/2000/svg">
<circle cx="13" cy="13" r="12.5" fill="white" stroke="#E2EAEC"/>
<mask id="snapchat0" style="mask-type:alpha" maskUnits="userSpaceOnUse" x="0" y="0" width="26" height="26">
<circle cx="13" cy="13" r="12.5" fill="white" stroke="white"/>
</mask>
<g mask="url(#snapchat0)">
<path d="M-20.5303 -14.2031H46.5576V36.1133H-20.53L-20.5303 -14.2031Z" fill="#BDCF31"/>
<path d="M21.0506 11.714C20.845 11.714 20.6416 11.7423 20.45 11.7888C19.6934 8.79325 17.1892 6.49707 14.0873 6.03812C14.0406 5.5152 14.2407 4.69518 15.5486 3.90496L15.5094 3.82812C15.5094 3.82812 13.319 4.52107 12.8238 5.88884C12.8454 5.46174 12.69 4.82021 11.7388 4.3639C11.7388 4.3639 11.6638 4.38961 11.7017 4.42408C11.8905 4.59848 12.4914 5.17983 12.2363 5.98934C8.93814 6.28936 6.23881 8.65945 5.44771 11.7894C5.25122 11.7405 5.04956 11.7154 4.84708 11.7146C3.46295 11.7146 2.33618 12.8387 2.33618 14.227C2.33618 15.6126 3.46324 16.7384 4.84708 16.7384C5.17135 16.7384 5.48043 16.6742 5.76438 16.5626C5.97845 17.0976 6.25216 17.6068 6.58032 18.0805L8.67376 16.6689L8.64688 16.652C8.09562 15.9435 7.75879 14.9003 7.70211 13.8621C7.6396 12.7169 7.91888 11.5796 8.65009 10.9109C10.1575 9.62759 11.7987 10.2127 12.8276 11.4426H13.1022C14.1311 10.237 15.7539 9.67666 17.2494 10.946C17.9709 11.6103 18.2531 12.728 18.1982 13.858C18.1486 14.9062 17.8097 15.966 17.2561 16.6794L19.3197 18.0802C19.6464 17.6058 19.9194 17.0966 20.1336 16.562C20.4176 16.673 20.7261 16.7379 21.05 16.7379C22.4377 16.7379 23.5615 15.6117 23.5615 14.2255C23.5617 13.8956 23.4968 13.569 23.3707 13.2642C23.2446 12.9595 23.0596 12.6825 22.8264 12.4493C22.5932 12.216 22.3163 12.031 22.0116 11.9048C21.7068 11.7786 21.3802 11.7136 21.0503 11.7137L21.0506 11.714ZM4.93268 14.7286C4.65632 14.7286 4.4302 14.5045 4.4302 14.2249C4.42995 14.1331 4.45477 14.043 4.502 13.9643C4.54923 13.8856 4.61706 13.8213 4.69817 13.7784C4.77928 13.7355 4.87059 13.7155 4.96222 13.7207C5.05385 13.7258 5.14233 13.7559 5.21809 13.8077C5.22101 14.0745 5.24146 14.3371 5.27214 14.5965C5.17951 14.6815 5.05837 14.7286 4.93268 14.7286ZM20.9636 14.7297C20.8396 14.7295 20.7201 14.6838 20.6276 14.6012C20.6577 14.34 20.6782 14.0762 20.6814 13.8083C20.7623 13.754 20.8596 13.7213 20.9642 13.7213C21.2417 13.7213 21.4684 13.9477 21.4684 14.2267C21.4684 14.5065 21.2405 14.73 20.9639 14.73" fill="white"/>
<path d="M21.8572 0C24.1448 0 26 1.8548 26 4.14318V21.8572C26 24.1448 24.1448 26 21.8572 26H4.14318C1.85518 26 0 24.1448 0 21.8572V4.14318C0 1.8548 1.85518 0 4.14318 0H21.8572Z" fill="#FFFC00"/>
<path d="M13.0958 21.9258C13.0466 21.9258 12.9986 21.9243 12.9502 21.922C12.9193 21.9246 12.8872 21.9258 12.8552 21.9258C11.7268 21.9258 11.0027 21.414 10.3022 20.9187C9.81866 20.577 9.36221 20.2544 8.82453 20.1648C8.56217 20.1213 8.30096 20.0996 8.0489 20.0996C7.59397 20.0996 7.23552 20.1697 6.97355 20.2208C6.81453 20.2521 6.67725 20.2788 6.57277 20.2788C6.4637 20.2788 6.34587 20.2552 6.29439 20.0798C6.24978 19.9276 6.21775 19.7808 6.18648 19.6382C6.1064 19.2721 6.04958 19.0467 5.89628 19.0231C4.10669 18.7466 3.59418 18.3695 3.48016 18.1022C3.46415 18.064 3.45462 18.0255 3.45271 17.9878C3.44699 17.8848 3.51944 17.794 3.62126 17.7776C6.37219 17.3246 7.60579 14.5127 7.65727 14.3933C7.65842 14.3903 7.65994 14.3868 7.66147 14.3838C7.83002 14.0425 7.86281 13.7462 7.75985 13.5033C7.57109 13.0587 6.95524 12.863 6.5476 12.7338C6.44807 12.7021 6.3535 12.6724 6.27876 12.6426C5.46538 12.3212 5.39788 11.9913 5.42991 11.8231C5.48444 11.5364 5.8673 11.3366 6.17733 11.3366C6.26198 11.3366 6.33672 11.3518 6.39964 11.3812C6.76572 11.5524 7.09519 11.6393 7.38005 11.6393C7.7732 11.6393 7.9448 11.4742 7.96577 11.4525C7.95548 11.2664 7.94327 11.0719 7.93069 10.871C7.8487 9.57061 7.74689 7.95415 8.15873 7.0317C9.39195 4.26666 12.0071 4.05159 12.7793 4.05159C12.7992 4.05159 13.1179 4.04816 13.1179 4.04816H13.1637C13.9374 4.04816 16.5587 4.26323 17.7927 7.03018C18.2042 7.953 18.1023 9.57061 18.0203 10.8702L18.0169 10.927C18.0055 11.1078 17.9944 11.2836 17.9853 11.4521C18.0051 11.4723 18.163 11.6241 18.5191 11.6378H18.5195C18.7906 11.6275 19.1018 11.541 19.4435 11.3812C19.5434 11.3343 19.6547 11.3244 19.7302 11.3244C19.8462 11.3244 19.9632 11.3469 20.0605 11.3873L20.0666 11.39C20.3427 11.488 20.5238 11.6813 20.5276 11.8838C20.5314 12.0744 20.3857 12.3608 19.6723 12.6426C19.5983 12.672 19.5037 12.7017 19.4034 12.7338C18.9954 12.863 18.3799 13.0587 18.1912 13.5033C18.0882 13.7462 18.121 14.0421 18.2896 14.3834C18.2911 14.3868 18.2926 14.3899 18.2941 14.3933C18.3452 14.5127 19.5777 17.3239 22.3302 17.7773C22.4316 17.794 22.5044 17.8848 22.4987 17.9874C22.4964 18.0259 22.4869 18.0648 22.4705 18.1025C22.3569 18.368 21.8451 18.7447 20.0551 19.0212C19.9087 19.0437 19.8519 19.2343 19.7646 19.634C19.7329 19.7793 19.7009 19.9223 19.6566 20.0725C19.6185 20.2029 19.5373 20.2639 19.4004 20.2639H19.3783C19.2833 20.2639 19.1487 20.2468 18.9779 20.2132C18.6747 20.1541 18.3349 20.0996 17.9025 20.0996C17.6501 20.0996 17.3889 20.1213 17.1261 20.1648C16.5892 20.2544 16.1331 20.5762 15.6504 20.9175C14.9487 21.414 14.2246 21.9258 13.0958 21.9258Z" fill="white"/>
<path d="M13.1632 4.25129C13.8958 4.25129 16.4191 4.44805 17.608 7.11395C17.9997 7.99139 17.8994 9.58155 17.8189 10.859C17.806 11.0619 17.7938 11.2583 17.7838 11.4459L17.7793 11.5263L17.8334 11.5866C17.8548 11.6106 18.0584 11.8234 18.511 11.8409L18.5187 11.8413L18.5259 11.8409C18.8253 11.8295 19.1624 11.7368 19.5288 11.5652C19.5822 11.5401 19.6543 11.5279 19.7302 11.5279C19.8167 11.5279 19.9086 11.5439 19.9845 11.5759L19.996 11.5805C20.1878 11.6476 20.3235 11.7746 20.3258 11.8894C20.327 11.9546 20.2781 12.188 19.5978 12.4568C19.5311 12.4831 19.4434 12.5109 19.342 12.543C18.8992 12.6837 18.2304 12.8957 18.005 13.4258C17.8784 13.7251 17.9127 14.0778 18.1084 14.4744C18.1888 14.6617 19.4522 17.5091 22.2969 17.9777C22.2962 17.9911 22.2927 18.0059 22.2851 18.0235C22.237 18.1371 21.9305 18.5291 20.0238 18.8231C19.7252 18.8693 19.6524 19.2037 19.5673 19.5927C19.5372 19.7315 19.5056 19.8718 19.4629 20.0171C19.4499 20.0609 19.4476 20.0636 19.4003 20.0636H19.3778C19.2935 20.0636 19.1646 20.0461 19.0159 20.0171C18.7456 19.9641 18.3753 19.8993 17.9021 19.8993C17.6382 19.8993 17.3659 19.9225 17.0929 19.9675C16.5094 20.0648 16.0347 20.4003 15.5321 20.7553C14.8575 21.2328 14.1597 21.7258 13.0954 21.7258C13.0492 21.7258 13.0038 21.7243 12.9581 21.722L12.9463 21.7216L12.9341 21.7224C12.9081 21.7247 12.8818 21.7258 12.8547 21.7258C11.7904 21.7258 11.0926 21.2328 10.418 20.7557C9.91543 20.4003 9.44067 20.0648 8.85761 19.9675C8.58458 19.9225 8.3123 19.8993 8.04842 19.8993C7.57519 19.8993 7.20491 19.9713 6.93417 20.0243C6.78545 20.0537 6.65694 20.0785 6.57228 20.0785C6.50364 20.0785 6.50212 20.0747 6.48763 20.0247C6.44492 19.8794 6.41327 19.7353 6.38314 19.5965C6.2981 19.2075 6.22451 18.8712 5.92669 18.825C4.01964 18.5307 3.71343 18.1379 3.665 18.0246C3.65738 18.0071 3.65433 17.9915 3.65356 17.9781C6.49792 17.5094 7.76166 14.6624 7.84212 14.4744C8.03736 14.0778 8.07206 13.7255 7.94508 13.4261C7.72009 12.8957 7.05124 12.6837 6.60813 12.543C6.50669 12.5109 6.41899 12.4831 6.35263 12.4568C5.77759 12.2295 5.60103 12.0011 5.62772 11.8623C5.65785 11.7025 5.93508 11.5401 6.17684 11.5401C6.23099 11.5401 6.27866 11.5485 6.31374 11.5652C6.70651 11.749 7.06535 11.8425 7.37956 11.8425C7.87377 11.8425 8.09418 11.6125 8.11744 11.5862L8.17121 11.5263L8.16663 11.4463C8.15672 11.2586 8.14414 11.0626 8.13155 10.8602C8.05109 9.58231 7.9508 7.9933 8.34243 7.11547C9.52685 4.45949 12.0375 4.25472 12.7789 4.25472C12.7972 4.25472 13.1194 4.25167 13.1194 4.25167C13.1331 4.25129 13.1476 4.25129 13.1632 4.25129ZM13.1632 3.84822H13.1625H13.1148C13.1148 3.84822 12.8033 3.85127 12.7785 3.85127C11.9761 3.85127 9.25687 4.07511 7.97406 6.95112C7.54239 7.91894 7.64573 9.56248 7.72886 10.883C7.73878 11.0386 7.74908 11.2003 7.75785 11.3566C7.69149 11.3933 7.57023 11.439 7.37956 11.439C7.12483 11.439 6.82396 11.3589 6.48496 11.1999C6.39496 11.158 6.29124 11.1366 6.17684 11.1366C5.77987 11.1366 5.30511 11.3978 5.23152 11.7868C5.17813 12.0671 5.30359 12.4759 6.2043 12.8316C6.28552 12.8641 6.38314 12.8949 6.48648 12.9274C6.85866 13.0456 7.42113 13.224 7.57404 13.5836C7.65298 13.7701 7.62133 14.01 7.48024 14.296C7.47719 14.3024 7.47413 14.3089 7.47147 14.3158C7.42189 14.431 6.23137 17.1449 3.58797 17.58C3.38472 17.6136 3.23944 17.7951 3.25088 18.0006C3.25431 18.062 3.2688 18.1226 3.29358 18.1817C3.49226 18.6454 4.3289 18.9856 5.85271 19.222C5.90381 19.2906 5.95681 19.5339 5.98923 19.6823C6.02088 19.8287 6.05367 19.9793 6.10057 20.1387C6.14633 20.2951 6.26569 20.4819 6.57228 20.4819C6.69622 20.4819 6.84265 20.4533 7.01158 20.4202C7.26555 20.3706 7.61332 20.3027 8.04842 20.3027C8.2898 20.3027 8.53996 20.3237 8.79164 20.3652C9.28318 20.4472 9.70112 20.7428 10.1846 21.0844C10.8775 21.5744 11.6623 22.1289 12.8547 22.1289C12.8875 22.1289 12.9203 22.1281 12.9531 22.1255C12.9916 22.1274 13.042 22.1289 13.0954 22.1289C14.2882 22.1289 15.0729 21.5744 15.7651 21.0848C16.2497 20.7424 16.6673 20.4472 17.1588 20.3652C17.4105 20.3237 17.6607 20.3027 17.9021 20.3027C18.3173 20.3027 18.6457 20.3553 18.9385 20.4125C19.1223 20.4488 19.2699 20.4671 19.3778 20.4671H19.3893H19.4003C19.6268 20.4671 19.7866 20.3473 19.8499 20.1303C19.896 19.9744 19.9288 19.8276 19.9613 19.6788C19.9937 19.5309 20.0463 19.2887 20.097 19.2201C21.6212 18.9837 22.4578 18.6443 22.6561 18.1825C22.6813 18.1234 22.6962 18.062 22.6996 18.0002C22.711 17.7943 22.5658 17.6136 22.3625 17.58C19.718 17.1441 18.5282 14.4306 18.479 14.3154C18.4763 14.3089 18.4733 14.3024 18.4699 14.296C18.3288 14.0096 18.2975 13.7701 18.3764 13.5836C18.529 13.224 19.0914 13.0456 19.4636 12.9277C19.5677 12.8946 19.6653 12.8633 19.7458 12.8316C20.4051 12.5712 20.7357 12.2516 20.7289 11.8814C20.7232 11.5904 20.4966 11.3311 20.1367 11.2026L20.1355 11.2022C20.0146 11.1519 19.8709 11.1244 19.7302 11.1244C19.6337 11.1244 19.4911 11.1374 19.3576 11.1999C19.0441 11.3467 18.7623 11.4268 18.5194 11.4375C18.3581 11.4302 18.2529 11.3894 18.1926 11.3563C18.2003 11.2224 18.209 11.0844 18.2178 10.9402L18.2212 10.8842C18.3047 9.56286 18.4081 7.9178 17.9764 6.94959C16.6929 4.07206 13.9678 3.84822 13.1632 3.84822Z" fill="#030303"/>
</g>
<circle cx="13" cy="13" r="12.5" stroke="#E2EAEC"/>
</svg>
