<svg width="100%" height="100%" viewBox="0 0 26 26" fill="none" xmlns="http://www.w3.org/2000/svg">
<circle cx="13" cy="13" r="12.5" fill="white" stroke="#E2EAEC"/>
<path d="M4.35241 12.477C4.41706 12.4124 4.44946 12.3369 4.44946 12.2399V11.0001C4.44946 10.8276 4.30927 10.6875 4.13679 10.6875C3.96428 10.6875 3.82414 10.8276 3.82414 11.0001V11.7117L3.22043 11.3559C3.06951 11.2589 2.87543 11.302 2.78923 11.4529C2.69221 11.6039 2.7353 11.7979 2.88622 11.8842C2.897 11.8842 2.897 11.8949 2.90783 11.8949L3.98589 12.5202C4.09368 12.5957 4.25538 12.5741 4.35241 12.477ZM3.88884 13.2317C3.88884 13.1131 3.8349 13.0053 3.72709 12.9514L2.64907 12.3261C2.49811 12.2291 2.30408 12.2722 2.21783 12.4231C2.12078 12.5741 2.16394 12.7681 2.31486 12.8544C2.32564 12.8544 2.32564 12.8651 2.3364 12.8651L2.95089 13.2209L2.3364 13.5767C2.18548 13.6629 2.12078 13.8462 2.20705 14.0079C2.29331 14.1697 2.47656 14.2235 2.63825 14.1373C2.64907 14.1373 2.64907 14.1373 2.65979 14.1373L3.73792 13.512C3.8349 13.4581 3.88884 13.3503 3.88884 13.2317ZM4.44946 14.2128V15.4633C4.44946 15.6358 4.30927 15.7759 4.13679 15.7759C3.96428 15.7759 3.82414 15.6358 3.82414 15.4633V14.7626L3.20965 15.1184C3.05873 15.2153 2.86465 15.1723 2.77845 15.0213C2.6814 14.8704 2.72451 14.6763 2.87543 14.5901C2.8862 14.5901 2.8862 14.5793 2.89698 14.5793L3.9751 13.954C4.12602 13.8678 4.33086 13.9217 4.41709 14.0834C4.43863 14.1157 4.46018 14.1697 4.44946 14.2128ZM5.01001 14.2451V15.4633C5.01001 15.6358 5.15015 15.7759 5.32266 15.7759C5.49512 15.7759 5.63526 15.6358 5.63526 15.4633V14.7626L6.23897 15.1076C6.38989 15.2045 6.58397 15.1614 6.67021 15.0105C6.76726 14.8595 6.72411 14.6655 6.57318 14.5793C6.5624 14.5793 6.5624 14.5685 6.55164 14.5685L5.47356 13.9432C5.32264 13.857 5.12856 13.9109 5.04232 14.0618C5.02079 14.1157 4.99923 14.1912 5.01001 14.2451ZM5.57063 13.2317C5.57063 13.1131 5.6245 13.0053 5.73231 12.9514L6.81039 12.3261C6.96131 12.2291 7.15539 12.2722 7.24163 12.4231C7.33862 12.5741 7.29553 12.7681 7.14459 12.8544C7.13382 12.8544 7.13382 12.8651 7.12304 12.8651L6.50851 13.2209L7.12304 13.5767C7.27396 13.6629 7.33862 13.8462 7.2524 14.0079C7.16615 14.1588 6.98284 14.2235 6.82116 14.1372C6.81039 14.1372 6.81039 14.1265 6.79961 14.1265L5.72155 13.5012C5.6245 13.4581 5.55984 13.3503 5.57063 13.2317ZM5.01001 12.2183V11.0001C5.01001 10.8276 5.15015 10.6875 5.32266 10.6875C5.49512 10.6875 5.63526 10.8276 5.63526 11.0001V11.7009L6.23897 11.3559C6.38989 11.2589 6.58397 11.302 6.67021 11.4529C6.76726 11.6039 6.72411 11.7979 6.57318 11.8841C6.5624 11.8841 6.5624 11.8949 6.55164 11.8949L5.47356 12.5202C5.32264 12.6064 5.12856 12.5525 5.04232 12.4016C5.02079 12.3477 4.99923 12.283 5.01001 12.2183ZM4.85909 12.6711C4.83754 12.6496 4.81593 12.6388 4.78361 12.6388H4.6758C4.64347 12.6388 4.6219 12.6496 4.60036 12.6711L4.16911 13.1024C4.14757 13.1239 4.13679 13.1455 4.13679 13.1778V13.2856C4.13679 13.318 4.14757 13.3395 4.16911 13.3611L4.60036 13.7923C4.6219 13.8138 4.64347 13.8246 4.6758 13.8246H4.78361C4.81593 13.8246 4.83754 13.8138 4.85909 13.7923L5.29029 13.3611C5.30107 13.3395 5.31187 13.3072 5.31187 13.2856V13.1778C5.31187 13.1454 5.30107 13.1239 5.2795 13.1024L4.85909 12.6711ZM4.79439 13.0485C4.78361 13.0377 4.76206 13.0269 4.74049 13.0269C4.71889 13.0269 4.69734 13.0377 4.6866 13.0485L4.5572 13.1778C4.54642 13.1886 4.53564 13.2102 4.53564 13.2317C4.53564 13.2533 4.54642 13.2749 4.5572 13.2857L4.6866 13.415C4.69732 13.4258 4.71889 13.4366 4.74049 13.4366C4.76204 13.4366 4.78361 13.4258 4.79439 13.415L4.92374 13.2857C4.93451 13.2749 4.94533 13.2533 4.94533 13.2317C4.94533 13.2102 4.93451 13.1886 4.92374 13.1778L4.79439 13.0485Z" fill="#31BEF0"/>
<path d="M8.26112 14.0613C8.38049 14.1155 8.52157 14.1481 8.65178 14.1481C8.81455 14.159 8.98813 14.1047 9.11836 14.0071C9.24857 13.9202 9.32457 13.7683 9.32457 13.6164C9.32457 13.2583 9.00989 13.1824 8.68434 13.0739C8.46733 12.9979 8.22858 12.9436 8.22858 12.7592C8.22858 12.5313 8.51072 12.4336 8.6626 12.4336C9.03158 12.4336 9.11836 12.7266 9.21603 12.6398C9.31368 12.553 8.95559 12.2709 8.68434 12.2709C8.52157 12.26 8.35879 12.3034 8.22858 12.3903C8.09837 12.4662 8.01157 12.6073 8.02239 12.77C8.01157 13.1498 8.47815 13.2149 8.68434 13.2909C8.89048 13.3669 9.11836 13.4428 9.12923 13.6273C9.12923 13.8877 8.80368 13.9745 8.6626 13.9745C8.25027 13.9745 8.13091 13.7358 8.05494 13.8118C7.979 13.8877 8.06578 13.9636 8.26112 14.0613ZM11.039 14.0613C11.0498 14.1155 11.0933 14.1481 11.1367 14.1481C11.18 14.1481 11.2127 14.1047 11.2235 14.0613V13.0413C11.2235 12.6181 10.8871 12.2817 10.4639 12.2817C10.236 12.2817 10.019 12.3794 9.87793 12.553V12.3685C9.87793 12.3143 9.83457 12.2817 9.79113 12.2817C9.74772 12.2817 9.70429 12.3251 9.70429 12.3685V14.083C9.70429 14.083 9.70429 14.083 9.70429 14.0939V14.1047C9.7152 14.1264 9.7369 14.1481 9.7694 14.159H9.80198C9.83455 14.159 9.85624 14.1481 9.86704 14.1264C9.87791 14.1156 9.88878 14.1047 9.88878 14.083V13.0413C9.88878 12.7266 10.1492 12.4662 10.4747 12.4662C10.7894 12.4662 11.0498 12.7266 11.0498 13.0413L11.039 14.0613ZM11.5599 13.2149C11.5816 13.7032 12.0047 14.083 12.4931 14.0505C12.9814 14.0288 13.3612 13.6056 13.3286 13.1173C13.3069 12.6398 12.9163 12.2709 12.4388 12.2709C11.9505 12.2925 11.549 12.7049 11.5599 13.2149ZM17.1591 11.6632H17.1482C17.0613 11.6524 16.9745 11.6741 16.9094 11.7392C16.8444 11.8368 16.8226 11.9453 16.8335 12.0538V12.2492H17.0939C17.1482 12.2492 17.1808 12.2817 17.1916 12.336C17.1916 12.3903 17.1482 12.4336 17.0939 12.4336H16.8335V14.0613C16.8335 14.1155 16.801 14.1481 16.7467 14.159C16.6924 14.159 16.649 14.1264 16.649 14.0721C16.649 14.0721 16.649 14.0721 16.649 14.0613V12.4336H16.3994C16.3452 12.4336 16.3018 12.3902 16.3018 12.3359C16.3018 12.2817 16.3451 12.2491 16.3886 12.2491H16.6382V12.0538C16.6273 11.9019 16.6707 11.7391 16.7575 11.6198C16.8552 11.5221 16.9962 11.4678 17.1264 11.4787H17.1807C17.2349 11.4787 17.2784 11.5221 17.2784 11.5764C17.2784 11.6306 17.2349 11.674 17.1807 11.674L17.1591 11.6632ZM11.7444 13.139C11.7661 12.7483 12.1024 12.4336 12.4931 12.4553C12.8837 12.4771 13.1766 12.8351 13.1549 13.2258C13.1333 13.5947 12.7969 13.8877 12.428 13.8877C12.0265 13.866 11.7335 13.5405 11.7444 13.139ZM14.2617 14.1481C14.2943 14.1481 14.3269 14.1264 14.3377 14.0939C14.3377 14.0939 14.3377 14.0939 14.3377 14.083L14.7718 13.0522L15.2058 14.0939C15.2167 14.1264 15.2492 14.1481 15.2818 14.159H15.2926C15.3143 14.159 15.3361 14.1481 15.3469 14.1373C15.3578 14.1264 15.3686 14.1155 15.3794 14.0939L16.0089 12.412C16.0305 12.3685 16.0089 12.3143 15.9546 12.2926C15.9112 12.2709 15.8569 12.2926 15.8352 12.3468L15.2927 13.8334L14.8586 12.8026C14.8369 12.77 14.8044 12.7483 14.7718 12.7483C14.7393 12.7483 14.6959 12.77 14.685 12.8026L14.2509 13.8334L13.7084 12.3468C13.6867 12.3034 13.6324 12.2817 13.589 12.2926C13.5456 12.3143 13.5239 12.3685 13.5456 12.412L14.175 14.0939C14.1859 14.1156 14.1967 14.1264 14.2075 14.1373L14.2184 14.1481C14.2401 14.1373 14.2509 14.1373 14.2617 14.1481ZM17.6582 14.0505C17.6582 14.1047 17.7016 14.1481 17.7558 14.1481C17.8101 14.1481 17.8535 14.1047 17.8535 14.0505V11.5547C17.8535 11.5004 17.8101 11.4571 17.7558 11.4571C17.7016 11.4571 17.6582 11.5004 17.6582 11.5547V14.0505ZM19.8936 12.2709C19.8393 12.2709 19.8067 12.3143 19.7959 12.3577V12.629C19.6331 12.4011 19.3727 12.2601 19.0906 12.2601C18.5697 12.2818 18.1682 12.7267 18.2008 13.2475C18.2225 13.7358 18.6131 14.1156 19.0906 14.1373C19.3727 14.1373 19.6331 13.9962 19.7959 13.7684V14.0505C19.8067 14.1048 19.8501 14.1373 19.8936 14.1373C19.9369 14.1373 19.9695 14.0939 19.9804 14.0505V12.3577C19.9804 12.3143 19.9369 12.2709 19.8936 12.2709ZM19.1557 13.9745C18.7325 14.0071 18.3961 13.6815 18.3635 13.2583C18.331 12.8351 18.624 12.4879 19.0363 12.4553C19.4595 12.4228 19.7742 12.7375 19.7959 13.1607C19.7959 13.1824 19.7959 13.2041 19.7959 13.2149C19.8067 13.6164 19.492 13.9528 19.0906 13.9636H19.1557V13.9745ZM20.4036 14.0505C20.4036 14.1047 20.4469 14.1481 20.5012 14.1481C20.5555 14.1481 20.5989 14.1047 20.5989 14.0505V13.6164L20.9787 13.2366L21.6948 14.1047C21.7057 14.1264 21.7382 14.1373 21.7708 14.1373C21.825 14.1373 21.8576 14.1047 21.8684 14.0504C21.8684 14.0287 21.8576 13.9962 21.8467 13.9853L21.1197 13.1064L21.8467 12.4119C21.8792 12.3685 21.8792 12.3143 21.8359 12.2817C21.8033 12.2491 21.7491 12.2491 21.7165 12.2817L20.5989 13.3668V11.5547C20.5989 11.5004 20.5555 11.457 20.5012 11.457C20.4469 11.457 20.4036 11.5004 20.4036 11.5547V14.0505ZM23.7674 13.6815C23.7891 13.6381 23.7783 13.5839 23.7348 13.5513C23.6914 13.5296 23.6372 13.5404 23.6155 13.5838C23.4961 13.8009 23.2683 13.9528 23.0078 13.9636H22.921C22.5304 13.9528 22.2048 13.6381 22.2048 13.2474H23.7457C23.7891 13.2474 23.8325 13.2149 23.8325 13.1715V13.1498C23.7783 12.6506 23.3334 12.2817 22.8342 12.3359C22.3351 12.3902 21.9661 12.8351 22.0204 13.3342C22.0638 13.8009 22.4545 14.1481 22.921 14.1589H23.0079C23.3334 14.1264 23.6155 13.9528 23.7674 13.6815ZM22.9318 12.4987C23.2791 12.4987 23.5829 12.7158 23.6372 13.063H22.2157C22.2808 12.7158 22.5738 12.4987 22.9318 12.4987Z" fill="#31BEF0"/>
</svg>
