<svg width="100%" height="100%" viewBox="0 0 26 26" fill="none" xmlns="http://www.w3.org/2000/svg">
<circle cx="13" cy="13" r="12.5" fill="white" stroke="#E2EAEC"/>
<g clip-path="url(#sparkpost)">
<path d="M2.91406 14.0914L3.22908 13.7103C3.44756 13.8933 3.67621 14.005 3.95566 14.005C4.17414 14.005 4.30625 13.9187 4.30625 13.7764V13.7713C4.30625 13.6341 4.22495 13.5681 3.81339 13.4614C3.3307 13.3344 3.0106 13.1972 3.0106 12.7145V12.7094C3.0106 12.2674 3.36627 11.9727 3.8642 11.9727C4.21987 11.9727 4.51965 12.0844 4.76861 12.2826L4.48916 12.684C4.27576 12.5366 4.06236 12.4452 3.85404 12.4452C3.6508 12.4452 3.53902 12.5417 3.53902 12.6586V12.6637C3.53902 12.8263 3.64572 12.8771 4.06236 12.9838C4.55521 13.1108 4.83467 13.2886 4.83467 13.7154V13.7205C4.83467 14.2032 4.46376 14.4776 3.94042 14.4776C3.57967 14.4776 3.20876 14.3505 2.91406 14.0914ZM5.17001 12.0082H6.16588C6.74511 12.0082 7.10077 12.3537 7.10077 12.8517V12.8567C7.10077 13.4207 6.66381 13.7154 6.11507 13.7154H5.70859V14.4471H5.17001V12.0082ZM6.13031 13.2378C6.3996 13.2378 6.55711 13.0752 6.55711 12.8669V12.8618C6.55711 12.623 6.38944 12.4909 6.12015 12.4909H5.70351V13.2378H6.13031ZM7.85784 11.993H8.35069L9.39737 14.4471H8.83846L8.6149 13.8983H7.58346L7.3599 14.4471H6.81624L7.85784 11.993ZM8.42182 13.4258L8.09664 12.6332L7.77146 13.4258H8.42182ZM9.65141 12.0082H10.7641C11.0741 12.0082 11.3129 12.0946 11.4755 12.2572C11.6127 12.3944 11.6838 12.5824 11.6838 12.8161V12.8212C11.6838 13.2124 11.4704 13.4614 11.1605 13.5782L11.7549 14.4471H11.13L10.6066 13.6697H10.1849V14.4471H9.64633V12.0082H9.65141ZM10.7286 13.1921C10.9877 13.1921 11.1401 13.0549 11.1401 12.8466V12.8415C11.1401 12.6129 10.9775 12.4909 10.7184 12.4909H10.1849V13.1921H10.7286ZM14.5342 12.0082H15.4183C15.9569 12.0082 16.3227 12.2826 16.3227 12.7551V12.7602C16.3227 13.2734 15.8807 13.5376 15.3726 13.5376H14.7171V14.4471H14.5342V12.0082ZM15.3827 13.3699C15.8349 13.3699 16.1398 13.1311 16.1398 12.7704V12.7653C16.1398 12.3791 15.84 12.1759 15.4031 12.1759H14.712V13.3699H15.3827ZM19.2239 14.0914L19.3408 13.9542C19.6101 14.2032 19.854 14.315 20.2147 14.315C20.5806 14.315 20.8295 14.1117 20.8295 13.8323V13.8272C20.8295 13.5681 20.6923 13.4207 20.1385 13.3089C19.5542 13.1921 19.3154 12.9939 19.3154 12.623V12.6179C19.3154 12.2572 19.6457 11.9777 20.0979 11.9777C20.4535 11.9777 20.6873 12.0743 20.9311 12.2724L20.8143 12.4147C20.5856 12.2165 20.357 12.1403 20.0877 12.1403C19.727 12.1403 19.4932 12.3436 19.4932 12.5976V12.6027C19.4932 12.8618 19.6253 13.0193 20.2046 13.1362C20.7686 13.2531 21.0074 13.4512 21.0074 13.8069V13.812C21.0074 14.2032 20.672 14.4776 20.1995 14.4776C19.8133 14.4776 19.5136 14.3505 19.2239 14.0914ZM22.054 12.1759H21.2055V12.0082H23.0855V12.1759H22.2369V14.4471H22.054V12.1759ZM12.5882 13.0346L13.4316 12.0082H14.0871L13.0963 13.1667L14.1582 14.4471H13.4672L12.5882 13.3547V14.442H12.0547V12.0031H12.5882V13.0346Z" fill="#55555A"/>
<path d="M18.6649 11.4539C18.3956 11.6571 18.3397 12.0179 18.3346 12.2618C17.9078 11.7638 19.1272 10.3056 17.7401 9.40625C18.5988 10.519 16.5156 11.6165 16.5156 13.2576C16.5156 13.9029 16.917 14.4669 17.8011 14.6651C18.6649 14.4821 19.0968 13.9029 19.0968 13.2576C19.0917 12.2973 18.4921 11.9772 18.6649 11.4539ZM17.8011 14.1366C17.3286 14.1366 16.9475 13.7556 16.9475 13.283C16.9475 12.8105 17.3286 12.4294 17.8011 12.4294C18.2736 12.4294 18.6547 12.8105 18.6547 13.283C18.6547 13.7556 18.2686 14.1366 17.8011 14.1366Z" fill="#FA6423"/>
</g>
<defs>
<clipPath id="sparkpost">
<rect width="20.2222" height="5.29254" fill="white" transform="translate(2.88867 9.39062)"/>
</clipPath>
</defs>
</svg>
