<svg width="100%" height="100%" viewBox="0 0 26 26" fill="none" xmlns="http://www.w3.org/2000/svg">
<circle cx="13" cy="13" r="12.5" fill="white" stroke="#E2EAEC"/>
<g clip-path="url(#square0)">
<path d="M17.7695 5.82031H8.19879C6.87316 5.82031 5.79858 6.89488 5.79858 8.22052V17.7912C5.79858 19.1169 6.87316 20.1914 8.19879 20.1914H17.7695C19.0951 20.1914 20.1697 19.1169 20.1697 17.7912V8.22052C20.1697 6.89488 19.0951 5.82031 17.7695 5.82031ZM17.5586 16.8221C17.5586 17.2389 17.2172 17.5803 16.8004 17.5803H9.16791C8.75114 17.5803 8.40969 17.2389 8.40969 16.8221V9.18965C8.40969 8.77287 8.75114 8.43142 9.16791 8.43142H16.8004C17.2172 8.43142 17.5586 8.77287 17.5586 9.18965V16.8221Z" fill="black"/>
<path d="M11.4579 14.9607C11.2168 14.9607 11.021 14.7649 11.021 14.5239V11.4759C11.021 11.2349 11.2168 11.0391 11.4579 11.0391H14.5108C14.7519 11.0391 14.9477 11.2349 14.9477 11.4759V14.5239C14.9477 14.7649 14.7519 14.9607 14.5108 14.9607H11.4579Z" fill="black"/>
</g>
<defs>
<clipPath id="square0">
<rect width="14.4444" height="14.4444" fill="white" transform="translate(5.77783 5.77734)"/>
</clipPath>
</defs>
</svg>
