<svg width="100%" height="100%" viewBox="0 0 18 18" fill="none" xmlns="http://www.w3.org/2000/svg">
<circle cx="9" cy="9" r="8.5" fill="white" stroke="#E2EAEC"/>
<path d="M12.302 4.03027H5.67608C4.75834 4.03027 4.0144 4.77421 4.0144 5.69195V12.3178C4.0144 13.2356 4.75834 13.9795 5.67608 13.9795H12.302C13.2197 13.9795 13.9637 13.2356 13.9637 12.3178V5.69195C13.9637 4.77421 13.2197 4.03027 12.302 4.03027ZM12.156 11.6469C12.156 11.9354 11.9196 12.1718 11.631 12.1718H6.34701C6.05848 12.1718 5.82209 11.9354 5.82209 11.6469V6.36289C5.82209 6.07435 6.05848 5.83796 6.34701 5.83796H11.631C11.9196 5.83796 12.156 6.07435 12.156 6.36289V11.6469Z" fill="black"/>
<path d="M7.93232 10.3576C7.76546 10.3576 7.62988 10.222 7.62988 10.0551V7.94502C7.62988 7.77816 7.76546 7.64258 7.93232 7.64258H10.0459C10.2128 7.64258 10.3484 7.77816 10.3484 7.94502V10.0551C10.3484 10.222 10.2128 10.3576 10.0459 10.3576H7.93232Z" fill="black"/>
</svg>
