<svg width="100%" height="100%" viewBox="0 0 26 26" fill="none" xmlns="http://www.w3.org/2000/svg">
<circle cx="13" cy="13" r="12.5" fill="white" stroke="#E2EAEC"/>
<g clip-path="url(#stripe0)">
<path d="M18.7778 5.77734H7.22228C6.42453 5.77734 5.77783 6.42404 5.77783 7.22179V18.7773C5.77783 19.5751 6.42453 20.2218 7.22228 20.2218H18.7778C19.5756 20.2218 20.2223 19.5751 20.2223 18.7773V7.22179C20.2223 6.42404 19.5756 5.77734 18.7778 5.77734Z" fill="#6772E5"/>
<path fill-rule="evenodd" clip-rule="evenodd" d="M12.355 11.1799C12.355 10.8044 12.6631 10.6599 13.1735 10.6599C13.9054 10.6599 14.8298 10.8814 15.5617 11.2762V9.01328C14.7624 8.6955 13.9728 8.57031 13.1735 8.57031C11.2187 8.57031 9.9187 9.59105 9.9187 11.2955C9.9187 13.9533 13.578 13.5296 13.578 14.6755C13.578 15.1185 13.1928 15.2629 12.6535 15.2629C11.8543 15.2629 10.8335 14.9355 10.0246 14.4925V16.7844C10.9202 17.1696 11.8254 17.3333 12.6535 17.3333C14.6565 17.3333 16.0335 16.3414 16.0335 14.6177C16.0239 11.7481 12.355 12.2585 12.355 11.1799Z" fill="white"/>
</g>
<defs>
<clipPath id="stripe0">
<rect width="14.4444" height="14.4444" fill="white" transform="translate(5.77783 5.77734)"/>
</clipPath>
</defs>
</svg>
