<svg width="100%" height="100%" viewBox="0 0 18 18" fill="none" xmlns="http://www.w3.org/2000/svg">
<circle cx="9" cy="9" r="8.5" fill="white" stroke="#E2EAEC"/>
<path d="M13 4H5C4.44772 4 4 4.44772 4 5V13C4 13.5523 4.44772 14 5 14H13C13.5523 14 14 13.5523 14 13V5C14 4.44772 13.5523 4 13 4Z" fill="#6772E5"/>
<path fill-rule="evenodd" clip-rule="evenodd" d="M8.55337 7.74026C8.55337 7.48026 8.7667 7.38026 9.12003 7.38026C9.6267 7.38026 10.2667 7.53359 10.7734 7.80693V6.24026C10.22 6.02026 9.67337 5.93359 9.12003 5.93359C7.7667 5.93359 6.8667 6.64026 6.8667 7.82026C6.8667 9.66026 9.40003 9.36693 9.40003 10.1603C9.40003 10.4669 9.13337 10.5669 8.76003 10.5669C8.2067 10.5669 7.50003 10.3403 6.94003 10.0336V11.6203C7.56003 11.8869 8.1867 12.0003 8.76003 12.0003C10.1467 12.0003 11.1 11.3136 11.1 10.1203C11.0934 8.13359 8.55337 8.48693 8.55337 7.74026Z" fill="white"/>
</svg>
