<svg width="100%" height="100%" viewBox="0 0 26 26" fill="none" xmlns="http://www.w3.org/2000/svg">
<circle cx="13" cy="13" r="12.5" fill="white" stroke="#E2EAEC"/>
<mask id="surveymonkey0" style="mask-type:alpha" maskUnits="userSpaceOnUse" x="0" y="0" width="26" height="26">
<circle cx="13" cy="13" r="12.5" fill="white" stroke="white"/>
</mask>
<g mask="url(#surveymonkey0)">
<path d="M-20.5303 -14.2031H46.5576V36.1133H-20.53L-20.5303 -14.2031Z" fill="#BDCF31"/>
<path d="M21.0506 11.714C20.845 11.714 20.6416 11.7423 20.45 11.7888C19.6934 8.79325 17.1892 6.49707 14.0873 6.03812C14.0406 5.5152 14.2407 4.69518 15.5486 3.90496L15.5094 3.82812C15.5094 3.82812 13.319 4.52107 12.8238 5.88884C12.8454 5.46174 12.69 4.82021 11.7388 4.3639C11.7388 4.3639 11.6638 4.38961 11.7017 4.42408C11.8905 4.59848 12.4914 5.17983 12.2363 5.98934C8.93814 6.28936 6.23881 8.65945 5.44771 11.7894C5.25122 11.7405 5.04956 11.7154 4.84708 11.7146C3.46295 11.7146 2.33618 12.8387 2.33618 14.227C2.33618 15.6126 3.46324 16.7384 4.84708 16.7384C5.17135 16.7384 5.48043 16.6742 5.76438 16.5626C5.97845 17.0976 6.25216 17.6068 6.58032 18.0805L8.67376 16.6689L8.64688 16.652C8.09562 15.9435 7.75879 14.9003 7.70211 13.8621C7.6396 12.7169 7.91888 11.5796 8.65009 10.9109C10.1575 9.62759 11.7987 10.2127 12.8276 11.4426H13.1022C14.1311 10.237 15.7539 9.67666 17.2494 10.946C17.9709 11.6103 18.2531 12.728 18.1982 13.858C18.1486 14.9062 17.8097 15.966 17.2561 16.6794L19.3197 18.0802C19.6464 17.6058 19.9194 17.0966 20.1336 16.562C20.4176 16.673 20.7261 16.7379 21.05 16.7379C22.4377 16.7379 23.5615 15.6117 23.5615 14.2255C23.5617 13.8956 23.4968 13.569 23.3707 13.2642C23.2446 12.9595 23.0596 12.6825 22.8264 12.4493C22.5932 12.216 22.3163 12.031 22.0116 11.9048C21.7068 11.7786 21.3802 11.7136 21.0503 11.7137L21.0506 11.714ZM4.93268 14.7285C4.65632 14.7285 4.4302 14.5045 4.4302 14.2249C4.42995 14.1331 4.45477 14.043 4.502 13.9643C4.54923 13.8856 4.61706 13.8213 4.69817 13.7784C4.77928 13.7355 4.87059 13.7155 4.96222 13.7207C5.05385 13.7258 5.14233 13.7559 5.21809 13.8077C5.22101 14.0745 5.24146 14.3371 5.27214 14.5965C5.17951 14.6815 5.05837 14.7286 4.93268 14.7285ZM20.9636 14.7297C20.8396 14.7295 20.7201 14.6838 20.6276 14.6012C20.6577 14.34 20.6782 14.0762 20.6814 13.8083C20.7623 13.754 20.8596 13.7213 20.9642 13.7213C21.2417 13.7213 21.4684 13.9477 21.4684 14.2267C21.4684 14.5065 21.2405 14.73 20.9639 14.73" fill="white"/>
</g>
<circle cx="13" cy="13" r="12.5" stroke="#E2EAEC"/>
</svg>
