<svg width="100%" height="100%" viewBox="0 0 18 18" fill="none" xmlns="http://www.w3.org/2000/svg">
<circle cx="9" cy="9" r="8.5" fill="white" stroke="#E2EAEC"/>
<mask id="survey_monkey0" style="mask-type:alpha" maskUnits="userSpaceOnUse" x="0" y="0" width="18" height="18">
<circle cx="9" cy="9" r="8.5" fill="white" stroke="white"/>
</mask>
<g mask="url(#survey_monkey0)">
<path d="M-14.2134 -9.83301H32.2321V25.0014H-14.2132L-14.2134 -9.83301Z" fill="#BDCF31"/>
<path d="M14.5736 8.11083C14.4312 8.11083 14.2904 8.13045 14.1578 8.1626C13.6339 6.08876 11.9003 4.4991 9.75283 4.18137C9.72047 3.81934 9.859 3.25164 10.7645 2.70456L10.7374 2.65137C10.7374 2.65137 9.22092 3.1311 8.87811 4.07802C8.89307 3.78233 8.78548 3.3382 8.12696 3.02229C8.12696 3.02229 8.07498 3.04009 8.10127 3.06395C8.23193 3.18469 8.64795 3.58716 8.47139 4.14759C6.18802 4.3553 4.31925 5.99613 3.77157 8.16301C3.63553 8.12917 3.49593 8.11179 3.35575 8.11123C2.3975 8.11123 1.61743 8.88948 1.61743 9.85056C1.61743 10.8098 2.3977 11.5893 3.35575 11.5893C3.58024 11.5893 3.79422 11.5448 3.9908 11.4675C4.139 11.8379 4.32849 12.1905 4.55568 12.5184L6.00498 11.5411L5.98638 11.5294C5.60474 11.039 5.37154 10.3167 5.33231 9.59795C5.28903 8.80514 5.48238 8.01779 5.9886 7.55485C7.0322 6.66638 8.16842 7.07148 8.88074 7.92294H9.07085C9.78316 7.08827 10.9066 6.70036 11.9419 7.57912C12.4415 8.03903 12.6369 8.81283 12.5988 9.59512C12.5645 10.3208 12.3299 11.0545 11.9466 11.5484L13.3753 12.5182C13.6014 12.1898 13.7904 11.8373 13.9387 11.4671C14.1353 11.544 14.3489 11.5889 14.5732 11.5889C15.5339 11.5889 16.3119 10.8092 16.3119 9.84955C16.312 9.62119 16.2671 9.39506 16.1798 9.18406C16.0925 8.97306 15.9644 8.78134 15.803 8.61985C15.6415 8.45836 15.4498 8.33027 15.2388 8.24289C15.0279 8.15552 14.8017 8.11057 14.5734 8.11063L14.5736 8.11083ZM3.415 10.1978C3.22368 10.1978 3.06714 10.0427 3.06714 9.84914C3.06696 9.7856 3.08415 9.72322 3.11685 9.66874C3.14954 9.61426 3.1965 9.56975 3.25266 9.54002C3.30881 9.51029 3.37202 9.49647 3.43546 9.50005C3.4989 9.50363 3.56015 9.52447 3.6126 9.56033C3.61462 9.74498 3.62878 9.9268 3.65002 10.1064C3.58589 10.1652 3.50203 10.1978 3.415 10.1978ZM14.5133 10.1986C14.4275 10.1985 14.3447 10.1668 14.2807 10.1096C14.3016 9.92883 14.3157 9.7462 14.3179 9.56074C14.374 9.52312 14.4413 9.50047 14.5137 9.50047C14.7059 9.50047 14.8628 9.65721 14.8628 9.85036C14.8628 10.0441 14.7051 10.1988 14.5135 10.1988" fill="white"/>
</g>
<circle cx="9" cy="9" r="8.5" stroke="#E2EAEC"/>
</svg>
