<svg viewBox="0 0 26 26" fill="none" xmlns="http://www.w3.org/2000/svg">
<circle cx="13" cy="13" r="12.5" fill="white" stroke="#D0D0CE"/>
<path d="M12.3738 16.3655H13.626V13.038H16.7753V11.8548H13.626V8.52734H12.3738V11.8548H9.26245V13.038H12.3738V16.3655Z" fill="#E8762D"/>
<path d="M6.56857 21.1698H7.63099V18.212H10.4388V17.2877H7.63099V14.293H6.56857V17.2877H3.76074V18.212H6.56857V21.1698Z" fill="#C72037"/>
<path d="M18.369 10.4844H19.4314V7.52662H22.2772V6.63929H19.4314V3.64453H18.369V6.63929H15.5612V7.52662H18.369V10.4844Z" fill="#5B879B"/>
<path d="M12.5637 23.4991H13.4743V21.3916H15.4095V20.6152H13.4743V18.5078H12.5637V20.6152H10.6665V21.3916H12.5637V23.4991Z" fill="#5C6692"/>
<path d="M6.60651 10.4844H7.59305V7.48965H10.4388V6.63929H7.59305V3.64453H6.60651V6.63929H3.76074V7.48965H6.60651V10.4844Z" fill="#EB9129"/>
<path d="M21.5942 14.923H22.5049V12.8526H24.44V12.0392H22.5049V9.96875H21.5942V12.0392H19.697V12.8526H21.5942V14.923Z" fill="#5C6692"/>
<path fill-rule="evenodd" clip-rule="evenodd" d="M18.369 21.1698H19.4314V18.212H22.2772V17.2877H19.4314V14.293H18.369V17.2877H15.5612V18.212H18.369V21.1698Z" fill="#1F457E"/>
<path d="M15.2577 4.162V3.53348H13.3605V1.5H12.6775V3.53348H10.7804V4.162H12.6775V6.19548H13.3605V4.162H15.2577ZM3.45724 14.7731H4.14022V12.7396H6.03741V12.111H4.14022V10.1145H3.45724V12.111H1.56006V12.7765L3.45724 12.7396V14.7731Z" fill="#7199A6"/>
</svg>
