<svg width="100%" height="100%" viewBox="0 0 18 18" fill="none" xmlns="http://www.w3.org/2000/svg">
<circle cx="9" cy="9" r="8.5" fill="white" stroke="#E2EAEC"/>
<path d="M8.56651 11.3287H9.43337V9.02508H11.6137V8.206H9.43337V5.90234H8.56651V8.206H6.41248V9.02508H8.56651V11.3287Z" fill="#E8762D"/>
<path d="M4.54752 14.6564H5.28304V12.6087H7.22692V11.9688H5.28304V9.89551H4.54752V11.9688H2.60364V12.6087H4.54752V14.6564Z" fill="#C72037"/>
<path d="M12.7171 7.25873H13.4526V5.21104H15.4227V4.59673H13.4526V2.52344H12.7171V4.59673H10.7732V5.21104H12.7171V7.25873Z" fill="#5B879B"/>
<path d="M8.69795 16.269H9.3284V14.81H10.6681V14.2725H9.3284V12.8135H8.69795V14.2725H7.38452V14.81H8.69795V16.269Z" fill="#5C6692"/>
<path d="M4.57379 7.25873H5.25677V5.18544H7.22692V4.59673H5.25677V2.52344H4.57379V4.59673H2.60364V5.18544H4.57379V7.25873Z" fill="#EB9129"/>
<path d="M14.9498 10.3303H15.5802V8.89689H16.9199V8.33378H15.5802V6.90039H14.9498V8.33378H13.6364V8.89689H14.9498V10.3303Z" fill="#5C6692"/>
<path fill-rule="evenodd" clip-rule="evenodd" d="M12.7171 14.6564H13.4526V12.6087H15.4227V11.9688H13.4526V9.89551H12.7171V11.9688H10.7732V12.6087H12.7171V14.6564Z" fill="#1F457E"/>
<path d="M10.5629 2.88199V2.44685H9.24951V1.03906H8.77667V2.44685H7.46324V2.88199H8.77667V4.28978H9.24951V2.88199H10.5629ZM2.39339 10.2281H2.86623V8.82031H4.17966V8.38517H2.86623V7.00298H2.39339V8.38517H1.07996V8.8459L2.39339 8.82031V10.2281Z" fill="#7199A6"/>
</svg>
