<svg width="100%" height="100%" viewBox="0 0 51 50" fill="none" xmlns="http://www.w3.org/2000/svg">
<path d="M49.6111 24.7093C49.6111 38.0818 38.8177 48.9186 25.508 48.9186C12.1982 48.9186 1.40479 38.0818 1.40479 24.7093C1.40479 11.3368 12.1982 0.5 25.508 0.5C38.8177 0.5 49.6111 11.3368 49.6111 24.7093Z" fill="white" stroke="#D0D0CE"/>
<g clip-path="url(#clip0)">
<path d="M24.323 32.3465H26.6927V25.7689H32.653V23.4302H26.6927V16.8525H24.323V23.4302H18.4346V25.7689H24.323V32.3465Z" fill="#E8762D"/>
<path d="M13.3362 41.8477H15.3469V36.0009H20.6608V34.1738H15.3469V28.2539H13.3362V34.1738H8.02222V36.0009H13.3362V41.8477Z" fill="#C72037"/>
<path d="M35.6689 20.7258H37.6796V14.879H43.0654V13.1249H37.6796V7.20508H35.6689V13.1249H30.355V14.879H35.6689V20.7258Z" fill="#5B879B"/>
<path d="M24.6821 46.4524H26.4055V42.2865H30.0678V40.7518H26.4055V36.5859H24.6821V40.7518H21.0916V42.2865H24.6821V46.4524Z" fill="#5C6692"/>
<path d="M13.408 20.7258H15.275V14.8059H20.6608V13.1249H15.275V7.20508H13.408V13.1249H8.02222V14.8059H13.408V20.7258Z" fill="#EB9129"/>
<path d="M41.7729 29.4965H43.4963V25.4037H47.1587V23.7959H43.4963V19.7031H41.7729V23.7959H38.1824V25.4037H41.7729V29.4965Z" fill="#5C6692"/>
<path fill-rule="evenodd" clip-rule="evenodd" d="M35.6689 41.8477H37.6796V36.0009H43.0654V34.1738H37.6796V28.2539H35.6689V34.1738H30.355V36.0009H35.6689V41.8477Z" fill="#1F457E"/>
<path d="M29.7807 8.2289V6.98646H26.1902V2.9668H24.8976V6.98646H21.3071V8.2289H24.8976V12.2486H26.1902V8.2289H29.7807ZM7.44769 29.2042H8.74028V25.1846H12.3308V23.9421H8.74028V19.9955H7.44769V23.9421H3.85718V25.2576L7.44769 25.1846V29.2042Z" fill="#7199A6"/>
</g>
<defs>
<clipPath id="clip0">
<rect width="43.3016" height="43.4884" fill="white" transform="translate(3.85718 2.96484)"/>
</clipPath>
</defs>
</svg>
