<svg width="100%" height="100%" viewBox="0 0 26 26" fill="none" xmlns="http://www.w3.org/2000/svg">
<circle cx="13" cy="13" r="12.5" fill="white" stroke="#E2EAEC"/>
<path d="M12.3731 16.3655H13.6252V13.038H16.7746V11.8548H13.6252V8.52734H12.3731V11.8548H9.26172V13.038H12.3731V16.3655Z" fill="#E8762D"/>
<path d="M6.56759 21.1698H7.63001V18.212H10.4378V17.2877H7.63001V14.293H6.56759V17.2877H3.75977V18.212H6.56759V21.1698Z" fill="#C72037"/>
<path d="M18.3684 10.4844H19.4308V7.52662H22.2766V6.63929H19.4308V3.64453H18.3684V6.63929H15.5605V7.52662H18.3684V10.4844Z" fill="#5B879B"/>
<path d="M12.5632 23.4991H13.4738V21.3916H15.409V20.6152H13.4738V18.5078H12.5632V20.6152H10.666V21.3916H12.5632V23.4991Z" fill="#5C6692"/>
<path d="M6.60554 10.4844H7.59207V7.48965H10.4378V6.63929H7.59207V3.64453H6.60554V6.63929H3.75977V7.48965H6.60554V10.4844Z" fill="#EB9129"/>
<path d="M21.5944 14.923H22.5051V12.8526H24.4402V12.0392H22.5051V9.96875H21.5944V12.0392H19.6973V12.8526H21.5944V14.923Z" fill="#5C6692"/>
<path fill-rule="evenodd" clip-rule="evenodd" d="M18.3684 21.1698H19.4308V18.212H22.2766V17.2877H19.4308V14.293H18.3684V17.2877H15.5605V18.212H18.3684V21.1698Z" fill="#1F457E"/>
<path d="M15.2582 4.162V3.53348H13.361V1.5H12.678V3.53348H10.7808V4.162H12.678V6.19548H13.361V4.162H15.2582ZM3.45773 14.773H4.14071V12.7396H6.0379V12.111H4.14071V10.1145H3.45773V12.111H1.56055V12.7765L3.45773 12.7396V14.773Z" fill="#7199A6"/>
</svg>
