<svg width="100%" height="100%" viewBox="0 0 26 26" fill="none" xmlns="http://www.w3.org/2000/svg">
<circle cx="13" cy="13" r="12.5" fill="white" stroke="#E2EAEC"/>
<path d="M9.39404 5.34473V7.71733H11.8186V13.9274H14.1609V7.67607V5.34473H9.39404Z" fill="#009BDF"/>
<path d="M8.12017 13.3714C8.12017 11.5146 9.14752 9.90533 10.668 9.08008H7.19557C6.31205 10.2767 5.77783 11.7622 5.77783 13.3714C5.77783 16.5693 7.83252 19.272 10.7091 20.2416V17.704C9.16806 16.8787 8.12017 15.2489 8.12017 13.3714Z" fill="#009BDF"/>
<path d="M15.3321 6.52148V9.07977C16.8525 9.90502 17.8799 11.5143 17.8799 13.3711C17.8799 16.0738 15.7019 18.2607 13.0103 18.2607C12.5993 18.2607 12.209 18.2195 11.8391 18.1163V20.5095C12.209 20.5714 12.5993 20.6127 13.0103 20.6127C16.9964 20.6127 20.2222 17.3736 20.2222 13.3711C20.2017 10.1939 18.1675 7.51179 15.3321 6.52148Z" fill="#009BDF"/>
</svg>
