<svg width="100%" height="100%" viewBox="0 0 26 26" fill="none" xmlns="http://www.w3.org/2000/svg">
<circle cx="13" cy="13" r="12.5" fill="white" stroke="#E2EAEC"/>
<path d="M13.0001 22.574C7.71249 22.574 3.42601 18.2875 3.42601 13.0001C3.42601 7.71249 7.71249 3.42611 13.0001 3.42611C18.2875 3.42611 22.5739 7.71249 22.5739 13.0001C22.5739 18.2875 18.2875 22.574 13.0001 22.574ZM13.0001 0C5.82033 0 0 5.82044 0 13.0001C0 20.1798 5.82033 26 13.0001 26C20.1797 26 26 20.1798 26 13.0001C26 5.82044 20.1797 0 12.9999 0H13.0001Z" fill="#CF272D"/>
<path d="M13.5344 9.7616C13.5344 8.26882 14.7447 7.05859 16.2375 7.05859C17.7304 7.05859 18.9406 8.26882 18.9406 9.7616C18.9406 11.2546 17.7304 12.4647 16.2375 12.4647C14.7447 12.4647 13.5344 11.2546 13.5344 9.7616ZM13.5344 16.2368C13.5344 14.744 14.7447 13.5337 16.2375 13.5337C17.7304 13.5337 18.9406 14.744 18.9406 16.2368C18.9406 17.7297 17.7304 18.9399 16.2375 18.9399C14.7447 18.9399 13.5344 17.7297 13.5344 16.2368ZM7.05933 16.2368C7.05933 14.744 8.26965 13.5337 9.76243 13.5337C11.2553 13.5337 12.4655 14.744 12.4655 16.2368C12.4655 17.7297 11.2553 18.9399 9.76243 18.9399C8.26965 18.9399 7.05933 17.7297 7.05933 16.2368ZM7.05933 9.7617C7.05933 8.26882 8.26965 7.0587 9.76243 7.0587C11.2553 7.0587 12.4655 8.26882 12.4655 9.7617C12.4655 11.2547 11.2553 12.4648 9.76243 12.4648C8.26965 12.4648 7.05933 11.2547 7.05933 9.7617Z" fill="#CF272D"/>
<circle cx="13" cy="13" r="12.5" stroke="#E2EAEC"/>
</svg>
