<svg width="100%" height="100%" viewBox="0 0 26 26" fill="none" xmlns="http://www.w3.org/2000/svg">
<circle cx="13" cy="13" r="12.5" fill="white" stroke="#D0D0CE"/>
<path d="M13 4C17.968 4 22 8.032 22 13C22 17.968 17.968 22 13 22C8.032 22 4 17.968 4 13C4 8.032 8.032 4 13 4ZM13 6.376C9.328 6.376 6.376 9.328 6.376 13C6.376 16.672 9.328 19.624 13 19.624C16.672 19.624 19.624 16.672 19.624 13C19.624 9.328 16.672 6.376 13 6.376ZM15.232 13.36C16.2659 13.36 17.104 14.1981 17.104 15.232C17.104 16.2659 16.2659 17.104 15.232 17.104C14.1981 17.104 13.36 16.2659 13.36 15.232C13.36 14.1981 14.1981 13.36 15.232 13.36ZM10.768 13.36C11.8019 13.36 12.64 14.1981 12.64 15.232C12.64 16.2659 11.8019 17.104 10.768 17.104C9.73412 17.104 8.896 16.2659 8.896 15.232C8.896 14.1981 9.73412 13.36 10.768 13.36ZM15.232 8.896C16.2659 8.896 17.104 9.73412 17.104 10.768C17.104 11.8019 16.2659 12.64 15.232 12.64C14.1981 12.64 13.36 11.8019 13.36 10.768C13.36 9.73412 14.1981 8.896 15.232 8.896ZM10.768 8.896C11.8019 8.896 12.64 9.73412 12.64 10.768C12.64 11.8019 11.8019 12.64 10.768 12.64C9.73412 12.64 8.896 11.8019 8.896 10.768C8.896 9.73412 9.73412 8.896 10.768 8.896Z" fill="#F12E45"/>
</svg>