<svg width="100%" height="100%" viewBox="0 0 18 18" fill="none" xmlns="http://www.w3.org/2000/svg">
<circle cx="9" cy="9" r="8.5" fill="white" stroke="#E2EAEC"/>
<path d="M9.00004 15.6281C5.33942 15.6281 2.37185 12.6606 2.37185 9.00004C2.37185 5.33942 5.33942 2.37192 9.00004 2.37192C12.6606 2.37192 15.6281 5.33942 15.6281 9.00004C15.6281 12.6606 12.6606 15.6281 9.00004 15.6281ZM9.00004 0C4.02946 0 0 4.02953 0 9.00004C0 13.9706 4.02946 18 9.00004 18C13.9705 18 18 13.9706 18 9.00004C18 4.02953 13.9705 0 8.99996 0H9.00004Z" fill="#CF272D"/>
<path d="M9.36998 6.75803C9.36998 5.72457 10.2078 4.88672 11.2414 4.88672C12.2749 4.88672 13.1127 5.72457 13.1127 6.75803C13.1127 7.79163 12.2749 8.62941 11.2414 8.62941C10.2078 8.62941 9.36998 7.79163 9.36998 6.75803ZM9.36998 11.2409C9.36998 10.2074 10.2078 9.36949 11.2414 9.36949C12.2749 9.36949 13.1127 10.2074 13.1127 11.2409C13.1127 12.2744 12.2749 13.1123 11.2414 13.1123C10.2078 13.1123 9.36998 12.2744 9.36998 11.2409ZM4.88721 11.2409C4.88721 10.2074 5.72513 9.36949 6.75859 9.36949C7.79212 9.36949 8.62997 10.2074 8.62997 11.2409C8.62997 12.2744 7.79212 13.1123 6.75859 13.1123C5.72513 13.1123 4.88721 12.2744 4.88721 11.2409ZM4.88721 6.7581C4.88721 5.72457 5.72513 4.88679 6.75859 4.88679C7.79212 4.88679 8.62997 5.72457 8.62997 6.7581C8.62997 7.7917 7.79212 8.62948 6.75859 8.62948C5.72513 8.62948 4.88721 7.7917 4.88721 6.7581Z" fill="#CF272D"/>
<circle cx="9" cy="9" r="8.5" stroke="#E2EAEC"/>
</svg>
