<svg width="100%" height="100%" viewBox="0 0 26 26" fill="none" xmlns="http://www.w3.org/2000/svg">
<circle cx="13" cy="13" r="12.5" fill="white" stroke="#E2EAEC"/>
<g clip-path="url(#twitter0)">
<path d="M19.8458 9.36294C19.8563 9.51461 19.8563 9.66628 19.8563 9.81934C19.8563 14.4833 16.3058 19.8622 9.81345 19.8622V19.8594C7.8956 19.8622 6.01759 19.3128 4.40308 18.277C4.68195 18.3106 4.96222 18.3274 5.24318 18.3281C6.83254 18.3294 8.37646 17.7962 9.62684 16.8142C8.11646 16.7855 6.792 15.8007 6.32931 14.3631C6.8584 14.4651 7.40356 14.4441 7.92286 14.3022C6.27619 13.9696 5.09152 12.5228 5.09152 10.8426C5.09152 10.8272 5.09152 10.8125 5.09152 10.7978C5.58216 11.0711 6.13152 11.2228 6.69345 11.2396C5.14254 10.2031 4.66447 8.13982 5.60103 6.52671C7.39308 8.73181 10.0371 10.0724 12.8754 10.2142C12.591 8.98832 12.9796 7.7037 13.8966 6.84192C15.3182 5.50558 17.554 5.57407 18.8904 6.99499C19.6809 6.83913 20.4385 6.54907 21.1318 6.1381C20.8683 6.95515 20.3169 7.64918 19.5802 8.0902C20.2798 8.00773 20.9634 7.82042 21.6071 7.53456C21.1332 8.24466 20.5364 8.86321 19.8458 9.36294Z" fill="#1D9BF0"/>
</g>
<defs>
<clipPath id="twitter0">
<rect width="17.3333" height="14.2581" fill="white" transform="translate(4.33325 5.77734)"/>
</clipPath>
</defs>
</svg>
