<svg width="100%" height="100%" viewBox="0 0 18 18" fill="none" xmlns="http://www.w3.org/2000/svg">
<circle cx="9" cy="9" r="8.5" fill="white" stroke="#E2EAEC"/>
<g clip-path="url(#twitter0)">
<path d="M13.7395 6.48159C13.7467 6.58659 13.7467 6.69159 13.7467 6.79755C13.7467 10.0264 11.2887 13.7503 6.79399 13.7503V13.7484C5.46624 13.7503 4.16608 13.37 3.04834 12.6529C3.2414 12.6761 3.43544 12.6877 3.62995 12.6882C4.73028 12.6892 5.79915 12.32 6.66479 11.6401C5.61915 11.6203 4.70221 10.9385 4.38189 9.9432C4.74818 10.0138 5.1256 9.99933 5.48511 9.9011C4.34511 9.67078 3.52495 8.66917 3.52495 7.50594C3.52495 7.4953 3.52495 7.48514 3.52495 7.47497C3.86463 7.66417 4.24495 7.76917 4.63398 7.78078C3.56028 7.0632 3.22931 5.63481 3.87769 4.51804C5.11834 6.04465 6.94882 6.97272 8.91382 7.07094C8.71689 6.22223 8.98592 5.33288 9.62076 4.73626C10.605 3.8111 12.1529 3.85852 13.078 4.84223C13.6253 4.73433 14.1498 4.53352 14.6298 4.24901C14.4474 4.81465 14.0656 5.29513 13.5556 5.60046C14.04 5.54336 14.5132 5.41368 14.9588 5.21578C14.6308 5.70739 14.2175 6.13562 13.7395 6.48159Z" fill="#1D9BF0"/>
</g>
<defs>
<clipPath id="twitter0">
<rect width="12" height="9.87097" fill="white" transform="translate(3 4)"/>
</clipPath>
</defs>
</svg>
