<svg width="100%" height="100%" viewBox="0 0 18 18" fill="none" xmlns="http://www.w3.org/2000/svg">
<circle cx="9" cy="9" r="8.5" fill="white" stroke="#E2EAEC"/>
<path d="M7.45054 5.00006C9.97359 5.00006 11.9011 6.88082 11.9011 9.34396C11.9011 11.8071 9.97359 13.6886 7.45054 13.6886C4.92749 13.6886 3 11.807 3 9.34396C3 6.88082 4.92749 5 7.45054 5V5.00006Z" fill="#6B0094"/>
<path d="M7.25932 7.85406C7.26952 7.70331 7.28044 7.55335 7.30162 7.40332H3.91589V7.85406C4.25597 7.87534 4.58663 7.90774 4.92749 7.92901C5.56607 8.71208 6.20464 9.49515 6.8542 10.2885V11.5009C6.49222 11.5333 6.13024 11.5545 5.76821 11.5869V11.9832H9.11163V11.5869C8.74959 11.5649 8.38762 11.5546 8.02564 11.5436C8.03656 11.1149 8.04676 10.6752 8.05774 10.2458C8.68533 9.68773 9.30357 9.13049 9.92103 8.57239C10.2399 8.55106 10.5595 8.52978 10.8894 8.49744V7.97169C9.94215 7.98269 9.00501 7.99303 8.05774 8.0143V8.45477C8.40873 8.47604 8.76057 8.48638 9.11163 8.49738C8.65401 8.89445 8.19568 9.28045 7.73806 9.67746C7.26946 9.09809 6.80098 8.50844 6.33238 7.92901C6.64114 7.89668 6.94978 7.87534 7.25926 7.85406H7.25932Z" fill="white"/>
<path d="M14.9999 5.43013C14.1373 5.38679 13.2856 5.34418 12.4339 5.30078C12.3908 7.34994 12.3485 9.40937 12.3062 11.4585C12.7105 11.5012 13.1258 11.5439 13.5301 11.5872C14.0199 9.52784 14.5102 7.47863 15 5.43013H14.9999ZM12.1887 13.6783H13.6578V12.4452C13.1258 12.4019 12.5937 12.3592 12.0609 12.3166C12.1032 12.7776 12.1464 13.2283 12.1887 13.6783Z" fill="#6B0094"/>
</svg>
