<svg width="100%" height="100%" viewBox="0 0 26 26" fill="none" xmlns="http://www.w3.org/2000/svg">
<circle cx="13" cy="13" r="12.5" fill="white" stroke="#E2EAEC"/>
<path d="M10.7618 7.22274C14.4062 7.22274 17.1904 9.93939 17.1904 13.4973C17.1904 17.0551 14.4062 19.7728 10.7618 19.7728C7.11741 19.7728 4.33325 17.0551 4.33325 13.4973C4.33325 9.93939 7.11741 7.22266 10.7618 7.22266V7.22274Z" fill="#6B0094"/>
<path d="M10.4856 11.3464C10.5004 11.1286 10.5162 10.912 10.5467 10.6953H5.65625V11.3464C6.14747 11.3771 6.62509 11.4239 7.11744 11.4546C8.03983 12.5857 8.96222 13.7168 9.90047 14.8628V16.6141C9.37761 16.6608 8.85476 16.6915 8.33181 16.7383V17.3107H13.1612V16.7383C12.6383 16.7064 12.1154 16.6916 11.5925 16.6757C11.6083 16.0565 11.6231 15.4214 11.6389 14.8012C12.5454 13.995 13.4385 13.1901 14.3303 12.384C14.791 12.3532 15.2526 12.3224 15.7291 12.2757V11.5163C14.3608 11.5322 13.0072 11.5471 11.6389 11.5778V12.2141C12.1459 12.2448 12.6541 12.2597 13.1612 12.2756C12.5002 12.8492 11.8382 13.4067 11.1772 13.9802C10.5003 13.1433 9.8236 12.2916 9.14674 11.4546C9.59272 11.4079 10.0385 11.3771 10.4856 11.3464H10.4856Z" fill="white"/>
<path d="M21.6664 7.84309C20.4204 7.78049 19.1901 7.71894 17.9599 7.65625C17.8976 10.6161 17.8365 13.5909 17.7754 16.5508C18.3594 16.6124 18.9593 16.674 19.5433 16.7367C20.2507 13.762 20.959 10.802 21.6665 7.84309H21.6664ZM17.6057 19.757H19.7278V17.9759C18.9593 17.9134 18.1907 17.8518 17.4211 17.7902C17.4822 18.456 17.5446 19.1071 17.6057 19.757Z" fill="#6B0094"/>
</svg>
