<svg width="100%" height="100%" viewBox="0 0 26 26" fill="none" xmlns="http://www.w3.org/2000/svg">
<circle cx="13" cy="13" r="12.5" fill="white" stroke="#E2EAEC"/>
<g clip-path="url(#youtube0)">
<path d="M15.5478 13.0385C14.0198 12.222 11.0613 10.6875 11.0613 10.6875L15.0058 13.3387C15.0061 13.3387 14.2873 13.7372 15.5478 13.0385Z" fill="#E8E0E0"/>
<path d="M11.3488 19.0449C8.17506 18.9865 7.09108 18.9339 6.4248 18.7966C5.97402 18.7054 5.58229 18.5029 5.29506 18.2092C5.07307 17.9869 4.89653 17.6477 4.75957 17.1772C4.64208 16.7851 4.59632 16.4589 4.53108 15.6622C4.43122 13.864 4.40741 12.3938 4.53108 10.7512C4.63311 9.84405 4.68258 8.76718 5.3603 8.13893C5.6803 7.8449 6.05255 7.65568 6.47056 7.57746C7.12355 7.45348 9.90554 7.35547 12.7855 7.35547C15.659 7.35547 18.4472 7.45348 19.1008 7.57746C19.623 7.67547 20.1128 7.96919 20.4003 8.34793C21.0187 9.32061 21.0295 10.5301 21.0922 11.4762C21.1182 11.927 21.1182 14.4867 21.0922 14.9375C20.9945 16.4326 20.916 16.9617 20.694 17.5101C20.5567 17.8564 20.4396 18.0391 20.2367 18.2417C19.9186 18.5533 19.5131 18.7606 19.0742 18.8359C16.3278 19.0424 13.9957 19.0873 11.3488 19.0449ZM15.5545 13.0369C14.0266 12.2204 12.5635 11.4632 11.068 10.6794V15.3685C12.6418 14.513 14.3008 13.7292 15.561 13.0304L15.5545 13.0369Z" fill="#CD201F"/>
</g>
<defs>
<clipPath id="youtube0">
<rect width="17.3333" height="12.058" fill="white" transform="translate(4.33325 7.22266)"/>
</clipPath>
</defs>
</svg>
