<svg width="100%" height="100%" viewBox="0 0 18 18" fill="none" xmlns="http://www.w3.org/2000/svg">
<circle cx="9" cy="9" r="8.5" fill="white" stroke="#E2EAEC"/>
<g clip-path="url(#youtube0)">
<path d="M10.7639 9.02605C9.70605 8.46075 7.65784 7.39844 7.65784 7.39844L10.3886 9.23389C10.3889 9.23389 9.8912 9.5098 10.7639 9.02605Z" fill="#E8E0E0"/>
<path d="M7.857 13.1855C5.65981 13.145 4.90936 13.1086 4.44809 13.0136C4.13601 12.9504 3.86481 12.8102 3.66596 12.6069C3.51228 12.453 3.39006 12.2182 3.29524 11.8924C3.2139 11.621 3.18222 11.3952 3.13705 10.8436C3.06792 9.59867 3.05144 8.58088 3.13705 7.44365C3.20769 6.81564 3.24194 6.07011 3.71113 5.63517C3.93267 5.43161 4.19038 5.30061 4.47977 5.24646C4.93184 5.16063 6.85783 5.09277 8.85168 5.09277C10.841 5.09277 12.7713 5.16063 13.2238 5.24646C13.5853 5.31431 13.9244 5.51766 14.1234 5.77986C14.5515 6.45326 14.559 7.29061 14.6025 7.94559C14.6205 8.25767 14.6205 10.0298 14.6025 10.3418C14.5348 11.377 14.4805 11.7432 14.3268 12.1229C14.2317 12.3627 14.1506 12.4892 14.0102 12.6294C13.79 12.8451 13.5092 12.9886 13.2054 13.0408C11.304 13.1837 9.68946 13.2148 7.857 13.1855ZM10.7687 9.0261C9.71086 8.4608 8.69799 7.9366 7.66265 7.39399V10.6402C8.75214 10.048 9.90072 9.50535 10.7732 9.0216L10.7687 9.0261Z" fill="#CD201F"/>
</g>
<defs>
<clipPath id="youtube0">
<rect width="12" height="8.34783" fill="white" transform="translate(3 5)"/>
</clipPath>
</defs>
</svg>
