<svg width="100%" height="100%" viewBox="0 0 18 18" fill="none" xmlns="http://www.w3.org/2000/svg">
<circle cx="9" cy="9" r="8.5" fill="white" stroke="#E2EAEC"/>
<mask id="zendesk0" style="mask-type:alpha" maskUnits="userSpaceOnUse" x="0" y="0" width="18" height="18">
<circle cx="9" cy="9" r="8.5" fill="white" stroke="#D0D0CE"/>
</mask>
<g mask="url(#zendesk0)">
</g>
<g clip-path="url(#zendesk1)">
<path d="M8.74612 5.83884V9.56975H5.65587L8.74612 5.83884ZM8.74612 4.5C8.74612 4.90979 8.58333 5.3028 8.29356 5.59257C8.00379 5.88233 7.61078 6.04512 7.20099 6.04512C6.7912 6.04512 6.39819 5.88233 6.10842 5.59257C5.81866 5.3028 5.65587 4.90979 5.65587 4.5H8.74612ZM9.25521 9.57008C9.25521 9.16029 9.418 8.76728 9.70776 8.47751C9.99753 8.18775 10.3905 8.02496 10.8003 8.02496C11.2101 8.02496 11.6031 8.18775 11.8929 8.47751C12.1827 8.76728 12.3455 9.16029 12.3455 9.57008H9.25521ZM9.25521 8.23124V4.5H12.3461L9.25521 8.23091V8.23124ZM10.9835 12.7621C11.1424 12.7657 11.2963 12.7063 11.4116 12.5969L11.6238 12.8259C11.4836 12.9701 11.2893 13.0772 10.9871 13.0772C10.4691 13.0772 10.1342 12.7334 10.1342 12.2686C10.1321 12.1621 10.1515 12.0562 10.1912 11.9573C10.2309 11.8585 10.2901 11.7686 10.3653 11.6931C10.4405 11.6176 10.5301 11.558 10.6288 11.5179C10.7275 11.4778 10.8333 11.458 10.9398 11.4597C11.4542 11.4597 11.7458 11.8511 11.72 12.3939H10.5041C10.5471 12.6193 10.7058 12.7631 10.9825 12.7631L10.9835 12.7621ZM11.3527 12.135C11.3197 11.9245 11.194 11.7694 10.9428 11.7694C10.7091 11.7694 10.5461 11.9017 10.5041 12.135H11.3531H11.3527ZM3 12.7446L3.93554 11.7939H3.02215V11.4957H4.36959V11.7998L3.43405 12.7502H4.38281V13.0488H3V12.7446ZM5.43306 12.7618C5.59198 12.7654 5.74586 12.706 5.86116 12.5965L6.07339 12.8256C5.93322 12.9698 5.73884 13.0769 5.43669 13.0769C4.91868 13.0769 4.5838 12.7331 4.5838 12.2683C4.5817 12.1617 4.60108 12.0559 4.64078 11.957C4.68048 11.8581 4.73969 11.7683 4.81488 11.6928C4.89006 11.6173 4.97969 11.5577 5.0784 11.5176C5.17711 11.4775 5.28289 11.4577 5.38942 11.4593C5.9038 11.4593 6.19537 11.8507 6.16959 12.3936H4.95438C4.99736 12.619 5.15603 12.7628 5.43273 12.7628L5.43306 12.7618ZM5.80298 12.1347C5.76992 11.9241 5.6443 11.7691 5.39306 11.7691C5.15934 11.7691 4.99636 11.9013 4.95438 12.1347H5.80331H5.80298ZM8.19074 12.2679C8.19074 11.7721 8.56198 11.46 8.97091 11.46C9.06903 11.4587 9.16625 11.4789 9.25574 11.5191C9.34522 11.5594 9.42482 11.6188 9.48892 11.6931V10.7767H9.8195V13.0445H9.48892V12.8306C9.42604 12.9079 9.34657 12.9701 9.25638 13.0126C9.1662 13.0551 9.06761 13.0767 8.96793 13.0759C8.57124 13.0759 8.19107 12.7618 8.19107 12.2683L8.19074 12.2679ZM9.50744 12.265C9.50484 12.168 9.47371 12.074 9.41794 11.9946C9.36217 11.9152 9.28425 11.8541 9.1939 11.8188C9.10356 11.7835 9.00482 11.7756 8.91002 11.7961C8.81522 11.8167 8.72858 11.8647 8.66093 11.9342C8.59328 12.0037 8.54763 12.0916 8.52969 12.1869C8.51174 12.2822 8.52229 12.3807 8.56003 12.4701C8.59777 12.5594 8.66102 12.6357 8.74186 12.6893C8.8227 12.7429 8.91755 12.7714 9.01455 12.7714C9.29884 12.7714 9.50711 12.5446 9.50711 12.265H9.50744ZM11.9362 12.7145L12.2357 12.5592C12.2753 12.6298 12.3334 12.6882 12.4038 12.7282C12.4742 12.7681 12.5541 12.7881 12.635 12.7859C12.8221 12.7859 12.9193 12.6901 12.9193 12.581C12.9193 12.4567 12.7385 12.4289 12.5418 12.3883C12.2774 12.3321 12.002 12.2451 12.002 11.9255C12.002 11.6798 12.2357 11.4527 12.6036 11.456C12.8936 11.456 13.1094 11.5711 13.2317 11.7569L12.954 11.9089C12.9157 11.8521 12.8635 11.806 12.8023 11.775C12.7412 11.744 12.6731 11.7291 12.6046 11.7317C12.4268 11.7317 12.3362 11.8187 12.3362 11.9182C12.3362 12.0299 12.4797 12.061 12.7045 12.1109C12.9603 12.1671 13.2499 12.2507 13.2499 12.5737C13.2499 12.7879 13.0628 13.0769 12.6198 13.0739C12.2959 13.0739 12.0678 12.9433 11.9365 12.7136L11.9362 12.7145ZM14.1481 12.3542L13.8859 12.6402V13.0435H13.5554V10.7757H13.8859V12.261L14.5878 11.4907H14.9904L14.3821 12.1552L15.0063 13.0438H14.6321L14.1484 12.3542H14.1481ZM7.19174 11.4597C6.79835 11.4597 6.46942 11.7142 6.46942 12.1374V13.0448H6.80661V12.1793C6.80661 11.9248 6.95306 11.7721 7.20331 11.7721C7.45355 11.7721 7.57785 11.9241 7.57785 12.1793V13.0448H7.91306V12.1374C7.91306 11.7149 7.58248 11.4597 7.19074 11.4597" fill="#03363D"/>
</g>
<defs>
<clipPath id="zendesk1">
<rect width="12" height="8.56198" fill="white" transform="translate(3 4.5)"/>
</clipPath>
</defs>
</svg>
