<svg width="100%" height="100%" viewBox="0 0 26 26" fill="none" xmlns="http://www.w3.org/2000/svg">
<circle cx="13" cy="13" r="12.5" fill="white" stroke="#E2EAEC"/>
<mask id="zendesk_crm0" style="mask-type:alpha" maskUnits="userSpaceOnUse" x="0" y="0" width="26" height="26">
<circle cx="13" cy="13" r="12.5" fill="white" stroke="#D0D0CE"/>
</mask>
<g mask="url(#zendesk_crm0)">
</g>
<g clip-path="url(#zendesk_crm1)">
<path d="M12.6332 8.43388V13.823H8.16951L12.6332 8.43388ZM12.6332 6.5C12.6332 7.09192 12.3981 7.6596 11.9795 8.07815C11.561 8.49671 10.9933 8.73185 10.4014 8.73185C9.80943 8.73185 9.24175 8.49671 8.8232 8.07815C8.40465 7.6596 8.16951 7.09192 8.16951 6.5H12.6332ZM13.3686 13.8235C13.3686 13.2315 13.6037 12.6639 14.0222 12.2453C14.4408 11.8267 15.0085 11.5916 15.6004 11.5916C16.1923 11.5916 16.76 11.8267 17.1785 12.2453C17.5971 12.6639 17.8322 13.2315 17.8322 13.8235H13.3686ZM13.3686 11.8896V6.5H17.8332L13.3686 11.8891V11.8896ZM15.8649 18.4342C16.0945 18.4393 16.3168 18.3535 16.4833 18.1955L16.7899 18.5264C16.5874 18.7346 16.3066 18.8893 15.8702 18.8893C15.1219 18.8893 14.6382 18.3927 14.6382 17.7213C14.6352 17.5674 14.6632 17.4145 14.7205 17.2717C14.7779 17.1289 14.8634 16.9991 14.972 16.89C15.0806 16.781 15.2101 16.6949 15.3526 16.637C15.4952 16.5791 15.648 16.5505 15.8019 16.5529C16.5449 16.5529 16.9661 17.1182 16.9288 17.9023H15.1726C15.2346 18.2279 15.4638 18.4356 15.8635 18.4356L15.8649 18.4342ZM16.3983 17.5284C16.3506 17.2242 16.1691 17.0003 15.8062 17.0003C15.4686 17.0003 15.2332 17.1913 15.1726 17.5284H16.3988H16.3983ZM4.33325 18.4089L5.68458 17.0356H4.36524V16.6049H6.31154V17.0442L4.96021 18.417H6.33064V18.8482H4.33325V18.4089ZM7.84767 18.4337C8.07722 18.4389 8.29949 18.353 8.46603 18.195L8.77259 18.5259C8.57013 18.7341 8.28936 18.8888 7.85292 18.8888C7.10468 18.8888 6.62097 18.3922 6.62097 17.7208C6.61793 17.567 6.64592 17.414 6.70327 17.2712C6.76062 17.1284 6.84614 16.9986 6.95474 16.8896C7.06334 16.7805 7.1928 16.6945 7.33538 16.6365C7.47796 16.5786 7.63076 16.55 7.78464 16.5524C8.52763 16.5524 8.94879 17.1177 8.91154 17.9018H7.15625C7.21832 18.2275 7.44752 18.4352 7.84719 18.4352L7.84767 18.4337ZM8.38199 17.5279C8.33424 17.2237 8.15279 16.9998 7.78989 16.9998C7.4523 16.9998 7.21689 17.1908 7.15625 17.5279H8.38247H8.38199ZM11.831 17.7203C11.831 17.0041 12.3672 16.5533 12.9579 16.5533C13.0996 16.5514 13.2401 16.5806 13.3693 16.6388C13.4986 16.6969 13.6135 16.7827 13.7061 16.89V15.5663H14.1836V18.842H13.7061V18.5331C13.6153 18.6448 13.5005 18.7346 13.3702 18.796C13.24 18.8573 13.0976 18.8885 12.9536 18.8874C12.3806 18.8874 11.8315 18.4337 11.8315 17.7208L11.831 17.7203ZM13.7329 17.7161C13.7291 17.576 13.6842 17.4402 13.6036 17.3255C13.5231 17.2109 13.4105 17.1226 13.28 17.0716C13.1495 17.0206 13.0069 17.0092 12.8699 17.0389C12.733 17.0685 12.6079 17.1379 12.5102 17.2383C12.4124 17.3387 12.3465 17.4656 12.3206 17.6033C12.2947 17.741 12.3099 17.8833 12.3644 18.0123C12.4189 18.1414 12.5103 18.2515 12.627 18.3289C12.7438 18.4064 12.8808 18.4476 13.0209 18.4476C13.4316 18.4476 13.7324 18.12 13.7324 17.7161H13.7329ZM17.2411 18.3655L17.6737 18.141C17.7309 18.243 17.8149 18.3274 17.9165 18.3851C18.0182 18.4428 18.1337 18.4717 18.2505 18.4686C18.5208 18.4686 18.6612 18.3301 18.6612 18.1725C18.6612 17.993 18.4 17.9529 18.1159 17.8942C17.7339 17.813 17.3361 17.6874 17.3361 17.2257C17.3361 16.8709 17.6737 16.5428 18.2052 16.5476C18.6239 16.5476 18.9357 16.7138 19.1124 16.9821L18.7113 17.2018C18.6559 17.1197 18.5805 17.0531 18.4922 17.0083C18.4038 16.9636 18.3056 16.942 18.2066 16.9458C17.9497 16.9458 17.8189 17.0714 17.8189 17.2152C17.8189 17.3765 18.0261 17.4214 18.3508 17.4935C18.7204 17.5747 19.1387 17.6955 19.1387 18.162C19.1387 18.4715 18.8684 18.8888 18.2286 18.8845C17.7606 18.8845 17.4311 18.6959 17.2416 18.364L17.2411 18.3655ZM20.4361 17.845L20.0574 18.258V18.8406H19.5799V15.5649H20.0574V17.7103L21.0711 16.5977H21.6527L20.7741 17.5575L21.6757 18.841H21.1351L20.4365 17.845H20.4361ZM10.388 16.5529C9.81975 16.5529 9.34464 16.9205 9.34464 17.5317V18.8425H9.83169V17.5924C9.83169 17.2247 10.0432 17.0041 10.4047 17.0041C10.7662 17.0041 10.9457 17.2237 10.9457 17.5924V18.8425H11.4299V17.5317C11.4299 16.9215 10.9524 16.5529 10.3865 16.5529" fill="#03363D"/>
</g>
<defs>
<clipPath id="zendesk_crm1">
<rect width="17.3333" height="12.3673" fill="white" transform="translate(4.33325 6.5)"/>
</clipPath>
</defs>
</svg>
