<svg width="1011" height="276" viewBox="0 0 1011 276" fill="none" xmlns="http://www.w3.org/2000/svg">
  <path d="M25.7349 0.00390625V240.065" stroke="#ECECEC"/>
  <path d="M28.2422 266.139H28.1895C27.7403 266.791 27.0684 267.117 26.1739 267.117C25.334 267.117 24.6797 266.83 24.211 266.256C23.7462 265.682 23.5137 264.865 23.5137 263.807C23.5137 262.748 23.7481 261.926 24.2169 261.34C24.6856 260.754 25.3379 260.461 26.1739 260.461C27.045 260.461 27.7129 260.777 28.1778 261.41H28.254L28.2129 260.947L28.1895 260.496V257.883H29.1622V267H28.3712L28.2422 266.139ZM26.2969 266.303C26.961 266.303 27.4415 266.123 27.7383 265.764C28.0391 265.4 28.1895 264.816 28.1895 264.012V263.807C28.1895 262.896 28.0372 262.248 27.7325 261.861C27.4317 261.471 26.9493 261.275 26.2852 261.275C25.7149 261.275 25.2774 261.498 24.9727 261.943C24.6719 262.385 24.5215 263.01 24.5215 263.818C24.5215 264.639 24.6719 265.258 24.9727 265.676C25.2735 266.094 25.7149 266.303 26.2969 266.303ZM35.1797 267L34.9864 266.086H34.9395C34.6192 266.488 34.2989 266.762 33.9786 266.906C33.6622 267.047 33.2657 267.117 32.7891 267.117C32.1524 267.117 31.6524 266.953 31.2891 266.625C30.9297 266.297 30.7501 265.83 30.7501 265.225C30.7501 263.928 31.7872 263.248 33.8614 263.186L34.9512 263.15V262.752C34.9512 262.248 34.8419 261.877 34.6231 261.639C34.4083 261.396 34.0626 261.275 33.586 261.275C33.0508 261.275 32.4454 261.439 31.7696 261.768L31.4708 261.023C31.7872 260.852 32.1329 260.717 32.5079 260.619C32.8868 260.521 33.2657 260.473 33.6446 260.473C34.4102 260.473 34.9766 260.643 35.3438 260.982C35.7149 261.322 35.9004 261.867 35.9004 262.617V267H35.1797ZM32.9825 266.314C33.5879 266.314 34.0626 266.148 34.4063 265.816C34.754 265.484 34.9278 265.02 34.9278 264.422V263.842L33.9551 263.883C33.1817 263.91 32.6231 264.031 32.2794 264.246C31.9395 264.457 31.7696 264.787 31.7696 265.236C31.7696 265.588 31.8751 265.855 32.086 266.039C32.3008 266.223 32.5997 266.314 32.9825 266.314ZM39.9844 266.314C40.1563 266.314 40.3223 266.303 40.4825 266.279C40.6426 266.252 40.7696 266.225 40.8633 266.197V266.941C40.7579 266.992 40.6016 267.033 40.3946 267.064C40.1915 267.1 40.0079 267.117 39.8438 267.117C38.6016 267.117 37.9805 266.463 37.9805 265.154V261.334H37.0606V260.865L37.9805 260.461L38.3907 259.09H38.9532V260.578H40.8165V261.334H38.9532V265.113C38.9532 265.5 39.045 265.797 39.2286 266.004C39.4122 266.211 39.6641 266.314 39.9844 266.314ZM44.8653 267.117C43.9161 267.117 43.1661 266.828 42.6153 266.25C42.0684 265.672 41.795 264.869 41.795 263.842C41.795 262.807 42.0489 261.984 42.5567 261.375C43.0684 260.766 43.754 260.461 44.6133 260.461C45.418 260.461 46.0547 260.727 46.5235 261.258C46.9922 261.785 47.2266 262.482 47.2266 263.35V263.965H42.8028C42.8223 264.719 43.0118 265.291 43.3712 265.682C43.7344 266.072 44.2442 266.268 44.9004 266.268C45.5919 266.268 46.2754 266.123 46.9512 265.834V266.701C46.6075 266.85 46.2813 266.955 45.9727 267.018C45.668 267.084 45.2989 267.117 44.8653 267.117ZM44.6016 261.275C44.086 261.275 43.6739 261.443 43.3653 261.779C43.0606 262.115 42.8809 262.58 42.8262 263.174H46.1837C46.1837 262.561 46.0469 262.092 45.7735 261.768C45.5001 261.439 45.1094 261.275 44.6016 261.275Z" fill="#4F4F4F"/>
  <path d="M125.322 266.201H125.27C124.82 266.854 124.149 267.18 123.254 267.18C122.414 267.18 121.76 266.893 121.291 266.318C120.826 265.744 120.594 264.928 120.594 263.869C120.594 262.811 120.828 261.988 121.297 261.402C121.766 260.816 122.418 260.523 123.254 260.523C124.125 260.523 124.793 260.84 125.258 261.473H125.334L125.293 261.01L125.27 260.559V257.945H126.242V267.062H125.451L125.322 266.201ZM123.377 266.365C124.041 266.365 124.522 266.186 124.818 265.826C125.119 265.463 125.27 264.879 125.27 264.074V263.869C125.27 262.959 125.117 262.311 124.813 261.924C124.512 261.533 124.029 261.338 123.365 261.338C122.795 261.338 122.358 261.561 122.053 262.006C121.752 262.447 121.602 263.072 121.602 263.881C121.602 264.701 121.752 265.32 122.053 265.738C122.354 266.156 122.795 266.365 123.377 266.365ZM132.26 267.062L132.067 266.148H132.02C131.699 266.551 131.379 266.824 131.059 266.969C130.742 267.109 130.346 267.18 129.869 267.18C129.233 267.18 128.733 267.016 128.369 266.688C128.01 266.359 127.83 265.893 127.83 265.287C127.83 263.99 128.867 263.311 130.942 263.248L132.031 263.213V262.814C132.031 262.311 131.922 261.939 131.703 261.701C131.488 261.459 131.143 261.338 130.666 261.338C130.131 261.338 129.525 261.502 128.85 261.83L128.551 261.086C128.867 260.914 129.213 260.779 129.588 260.682C129.967 260.584 130.346 260.535 130.725 260.535C131.49 260.535 132.057 260.705 132.424 261.045C132.795 261.385 132.981 261.93 132.981 262.68V267.062H132.26ZM130.063 266.377C130.668 266.377 131.143 266.211 131.486 265.879C131.834 265.547 132.008 265.082 132.008 264.484V263.904L131.035 263.945C130.262 263.973 129.703 264.094 129.359 264.309C129.02 264.52 128.85 264.85 128.85 265.299C128.85 265.65 128.955 265.918 129.166 266.102C129.381 266.285 129.68 266.377 130.063 266.377ZM137.065 266.377C137.236 266.377 137.402 266.365 137.563 266.342C137.723 266.314 137.85 266.287 137.943 266.26V267.004C137.838 267.055 137.682 267.096 137.475 267.127C137.272 267.162 137.088 267.18 136.924 267.18C135.682 267.18 135.061 266.525 135.061 265.217V261.396H134.141V260.928L135.061 260.523L135.471 259.152H136.033V260.641H137.897V261.396H136.033V265.176C136.033 265.562 136.125 265.859 136.309 266.066C136.492 266.273 136.744 266.377 137.065 266.377ZM141.945 267.18C140.996 267.18 140.246 266.891 139.695 266.312C139.149 265.734 138.875 264.932 138.875 263.904C138.875 262.869 139.129 262.047 139.637 261.438C140.149 260.828 140.834 260.523 141.693 260.523C142.498 260.523 143.135 260.789 143.604 261.32C144.072 261.848 144.307 262.545 144.307 263.412V264.027H139.883C139.902 264.781 140.092 265.354 140.451 265.744C140.815 266.135 141.324 266.33 141.981 266.33C142.672 266.33 143.356 266.186 144.031 265.896V266.764C143.688 266.912 143.361 267.018 143.053 267.08C142.748 267.146 142.379 267.18 141.945 267.18ZM141.682 261.338C141.166 261.338 140.754 261.506 140.445 261.842C140.141 262.178 139.961 262.643 139.906 263.236H143.264C143.264 262.623 143.127 262.154 142.854 261.83C142.58 261.502 142.19 261.338 141.682 261.338Z" fill="#4F4F4F"/>
  <path d="M232.017 266.201H231.964C231.515 266.854 230.843 267.18 229.949 267.18C229.109 267.18 228.455 266.893 227.986 266.318C227.521 265.744 227.289 264.928 227.289 263.869C227.289 262.811 227.523 261.988 227.992 261.402C228.461 260.816 229.113 260.523 229.949 260.523C230.82 260.523 231.488 260.84 231.953 261.473H232.029L231.988 261.01L231.964 260.559V257.945H232.937V267.062H232.146L232.017 266.201ZM230.072 266.365C230.736 266.365 231.216 266.186 231.513 265.826C231.814 265.463 231.964 264.879 231.964 264.074V263.869C231.964 262.959 231.812 262.311 231.507 261.924C231.207 261.533 230.724 261.338 230.06 261.338C229.49 261.338 229.052 261.561 228.748 262.006C228.447 262.447 228.296 263.072 228.296 263.881C228.296 264.701 228.447 265.32 228.748 265.738C229.048 266.156 229.49 266.365 230.072 266.365ZM238.955 267.062L238.761 266.148H238.714C238.394 266.551 238.074 266.824 237.754 266.969C237.437 267.109 237.041 267.18 236.564 267.18C235.927 267.18 235.427 267.016 235.064 266.688C234.705 266.359 234.525 265.893 234.525 265.287C234.525 263.99 235.562 263.311 237.636 263.248L238.726 263.213V262.814C238.726 262.311 238.617 261.939 238.398 261.701C238.183 261.459 237.837 261.338 237.361 261.338C236.826 261.338 236.22 261.502 235.545 261.83L235.246 261.086C235.562 260.914 235.908 260.779 236.283 260.682C236.662 260.584 237.041 260.535 237.42 260.535C238.185 260.535 238.752 260.705 239.119 261.045C239.49 261.385 239.675 261.93 239.675 262.68V267.062H238.955ZM236.757 266.377C237.363 266.377 237.837 266.211 238.181 265.879C238.529 265.547 238.703 265.082 238.703 264.484V263.904L237.73 263.945C236.957 263.973 236.398 264.094 236.054 264.309C235.714 264.52 235.545 264.85 235.545 265.299C235.545 265.65 235.65 265.918 235.861 266.102C236.076 266.285 236.375 266.377 236.757 266.377ZM243.759 266.377C243.931 266.377 244.097 266.365 244.257 266.342C244.418 266.314 244.545 266.287 244.638 266.26V267.004C244.533 267.055 244.377 267.096 244.17 267.127C243.966 267.162 243.783 267.18 243.619 267.18C242.377 267.18 241.755 266.525 241.755 265.217V261.396H240.836V260.928L241.755 260.523L242.166 259.152H242.728V260.641H244.591V261.396H242.728V265.176C242.728 265.562 242.82 265.859 243.004 266.066C243.187 266.273 243.439 266.377 243.759 266.377ZM248.64 267.18C247.691 267.18 246.941 266.891 246.39 266.312C245.843 265.734 245.57 264.932 245.57 263.904C245.57 262.869 245.824 262.047 246.332 261.438C246.843 260.828 247.529 260.523 248.388 260.523C249.193 260.523 249.83 260.789 250.298 261.32C250.767 261.848 251.002 262.545 251.002 263.412V264.027H246.578C246.597 264.781 246.787 265.354 247.146 265.744C247.509 266.135 248.019 266.33 248.675 266.33C249.367 266.33 250.05 266.186 250.726 265.896V266.764C250.382 266.912 250.056 267.018 249.748 267.08C249.443 267.146 249.074 267.18 248.64 267.18ZM248.377 261.338C247.861 261.338 247.449 261.506 247.14 261.842C246.836 262.178 246.656 262.643 246.601 263.236H249.959C249.959 262.623 249.822 262.154 249.548 261.83C249.275 261.502 248.884 261.338 248.377 261.338Z" fill="#4F4F4F"/>
  <path d="M338.715 266.201H338.662C338.213 266.854 337.541 267.18 336.647 267.18C335.807 267.18 335.152 266.893 334.684 266.318C334.219 265.744 333.986 264.928 333.986 263.869C333.986 262.811 334.221 261.988 334.69 261.402C335.158 260.816 335.811 260.523 336.647 260.523C337.518 260.523 338.186 260.84 338.65 261.473H338.727L338.686 261.01L338.662 260.559V257.945H339.635V267.062H338.844L338.715 266.201ZM336.77 266.365C337.434 266.365 337.914 266.186 338.211 265.826C338.512 265.463 338.662 264.879 338.662 264.074V263.869C338.662 262.959 338.51 262.311 338.205 261.924C337.904 261.533 337.422 261.338 336.758 261.338C336.188 261.338 335.75 261.561 335.445 262.006C335.145 262.447 334.994 263.072 334.994 263.881C334.994 264.701 335.145 265.32 335.445 265.738C335.746 266.156 336.188 266.365 336.77 266.365ZM345.652 267.062L345.459 266.148H345.412C345.092 266.551 344.772 266.824 344.451 266.969C344.135 267.109 343.738 267.18 343.262 267.18C342.625 267.18 342.125 267.016 341.762 266.688C341.402 266.359 341.223 265.893 341.223 265.287C341.223 263.99 342.26 263.311 344.334 263.248L345.424 263.213V262.814C345.424 262.311 345.315 261.939 345.096 261.701C344.881 261.459 344.535 261.338 344.059 261.338C343.524 261.338 342.918 261.502 342.242 261.83L341.943 261.086C342.26 260.914 342.606 260.779 342.981 260.682C343.359 260.584 343.738 260.535 344.117 260.535C344.883 260.535 345.449 260.705 345.817 261.045C346.188 261.385 346.373 261.93 346.373 262.68V267.062H345.652ZM343.455 266.377C344.061 266.377 344.535 266.211 344.879 265.879C345.227 265.547 345.4 265.082 345.4 264.484V263.904L344.428 263.945C343.654 263.973 343.096 264.094 342.752 264.309C342.412 264.52 342.242 264.85 342.242 265.299C342.242 265.65 342.348 265.918 342.559 266.102C342.774 266.285 343.072 266.377 343.455 266.377ZM350.457 266.377C350.629 266.377 350.795 266.365 350.955 266.342C351.115 266.314 351.242 266.287 351.336 266.26V267.004C351.231 267.055 351.074 267.096 350.867 267.127C350.664 267.162 350.481 267.18 350.317 267.18C349.074 267.18 348.453 266.525 348.453 265.217V261.396H347.533V260.928L348.453 260.523L348.863 259.152H349.426V260.641H351.289V261.396H349.426V265.176C349.426 265.562 349.518 265.859 349.701 266.066C349.885 266.273 350.137 266.377 350.457 266.377ZM355.338 267.18C354.389 267.18 353.639 266.891 353.088 266.312C352.541 265.734 352.268 264.932 352.268 263.904C352.268 262.869 352.522 262.047 353.029 261.438C353.541 260.828 354.227 260.523 355.086 260.523C355.891 260.523 356.527 260.789 356.996 261.32C357.465 261.848 357.699 262.545 357.699 263.412V264.027H353.275C353.295 264.781 353.484 265.354 353.844 265.744C354.207 266.135 354.717 266.33 355.373 266.33C356.065 266.33 356.748 266.186 357.424 265.896V266.764C357.08 266.912 356.754 267.018 356.445 267.08C356.141 267.146 355.772 267.18 355.338 267.18ZM355.074 261.338C354.559 261.338 354.147 261.506 353.838 261.842C353.533 262.178 353.354 262.643 353.299 263.236H356.656C356.656 262.623 356.52 262.154 356.246 261.83C355.973 261.502 355.582 261.338 355.074 261.338Z" fill="#4F4F4F"/>
  <path d="M445.409 266.201H445.356C444.907 266.854 444.235 267.18 443.34 267.18C442.501 267.18 441.846 266.893 441.378 266.318C440.913 265.744 440.68 264.928 440.68 263.869C440.68 262.811 440.915 261.988 441.383 261.402C441.852 260.816 442.504 260.523 443.34 260.523C444.212 260.523 444.879 260.84 445.344 261.473H445.421L445.379 261.01L445.356 260.559V257.945H446.329V267.062H445.538L445.409 266.201ZM443.463 266.365C444.128 266.365 444.608 266.186 444.905 265.826C445.206 265.463 445.356 264.879 445.356 264.074V263.869C445.356 262.959 445.204 262.311 444.899 261.924C444.598 261.533 444.116 261.338 443.452 261.338C442.881 261.338 442.444 261.561 442.139 262.006C441.838 262.447 441.688 263.072 441.688 263.881C441.688 264.701 441.838 265.32 442.139 265.738C442.44 266.156 442.881 266.365 443.463 266.365ZM452.346 267.062L452.153 266.148H452.106C451.786 266.551 451.465 266.824 451.145 266.969C450.829 267.109 450.432 267.18 449.956 267.18C449.319 267.18 448.819 267.016 448.456 266.688C448.096 266.359 447.917 265.893 447.917 265.287C447.917 263.99 448.954 263.311 451.028 263.248L452.118 263.213V262.814C452.118 262.311 452.008 261.939 451.79 261.701C451.575 261.459 451.229 261.338 450.753 261.338C450.217 261.338 449.612 261.502 448.936 261.83L448.637 261.086C448.954 260.914 449.299 260.779 449.674 260.682C450.053 260.584 450.432 260.535 450.811 260.535C451.577 260.535 452.143 260.705 452.51 261.045C452.881 261.385 453.067 261.93 453.067 262.68V267.062H452.346ZM450.149 266.377C450.754 266.377 451.229 266.211 451.573 265.879C451.921 265.547 452.094 265.082 452.094 264.484V263.904L451.122 263.945C450.348 263.973 449.79 264.094 449.446 264.309C449.106 264.52 448.936 264.85 448.936 265.299C448.936 265.65 449.042 265.918 449.253 266.102C449.467 266.285 449.766 266.377 450.149 266.377ZM457.151 266.377C457.323 266.377 457.489 266.365 457.649 266.342C457.809 266.314 457.936 266.287 458.03 266.26V267.004C457.924 267.055 457.768 267.096 457.561 267.127C457.358 267.162 457.174 267.18 457.01 267.18C455.768 267.18 455.147 266.525 455.147 265.217V261.396H454.227V260.928L455.147 260.523L455.557 259.152H456.12V260.641H457.983V261.396H456.12V265.176C456.12 265.562 456.212 265.859 456.395 266.066C456.579 266.273 456.831 266.377 457.151 266.377ZM462.032 267.18C461.083 267.18 460.333 266.891 459.782 266.312C459.235 265.734 458.962 264.932 458.962 263.904C458.962 262.869 459.215 262.047 459.723 261.438C460.235 260.828 460.921 260.523 461.78 260.523C462.585 260.523 463.221 260.789 463.69 261.32C464.159 261.848 464.393 262.545 464.393 263.412V264.027H459.969C459.989 264.781 460.178 265.354 460.538 265.744C460.901 266.135 461.411 266.33 462.067 266.33C462.758 266.33 463.442 266.186 464.118 265.896V266.764C463.774 266.912 463.448 267.018 463.139 267.08C462.835 267.146 462.465 267.18 462.032 267.18ZM461.768 261.338C461.253 261.338 460.84 261.506 460.532 261.842C460.227 262.178 460.047 262.643 459.993 263.236H463.35C463.35 262.623 463.213 262.154 462.94 261.83C462.667 261.502 462.276 261.338 461.768 261.338Z" fill="#4F4F4F"/>
  <path d="M552.106 266.201H552.053C551.604 266.854 550.932 267.18 550.038 267.18C549.198 267.18 548.544 266.893 548.075 266.318C547.61 265.744 547.378 264.928 547.378 263.869C547.378 262.811 547.612 261.988 548.081 261.402C548.549 260.816 549.202 260.523 550.038 260.523C550.909 260.523 551.577 260.84 552.042 261.473H552.118L552.077 261.01L552.053 260.559V257.945H553.026V267.062H552.235L552.106 266.201ZM550.161 266.365C550.825 266.365 551.305 266.186 551.602 265.826C551.903 265.463 552.053 264.879 552.053 264.074V263.869C552.053 262.959 551.901 262.311 551.596 261.924C551.296 261.533 550.813 261.338 550.149 261.338C549.579 261.338 549.141 261.561 548.837 262.006C548.536 262.447 548.385 263.072 548.385 263.881C548.385 264.701 548.536 265.32 548.837 265.738C549.137 266.156 549.579 266.365 550.161 266.365ZM559.044 267.062L558.85 266.148H558.803C558.483 266.551 558.163 266.824 557.842 266.969C557.526 267.109 557.129 267.18 556.653 267.18C556.016 267.18 555.516 267.016 555.153 266.688C554.794 266.359 554.614 265.893 554.614 265.287C554.614 263.99 555.651 263.311 557.725 263.248L558.815 263.213V262.814C558.815 262.311 558.706 261.939 558.487 261.701C558.272 261.459 557.926 261.338 557.45 261.338C556.915 261.338 556.309 261.502 555.633 261.83L555.335 261.086C555.651 260.914 555.997 260.779 556.372 260.682C556.751 260.584 557.129 260.535 557.508 260.535C558.274 260.535 558.84 260.705 559.208 261.045C559.579 261.385 559.764 261.93 559.764 262.68V267.062H559.044ZM556.846 266.377C557.452 266.377 557.926 266.211 558.27 265.879C558.618 265.547 558.792 265.082 558.792 264.484V263.904L557.819 263.945C557.046 263.973 556.487 264.094 556.143 264.309C555.803 264.52 555.633 264.85 555.633 265.299C555.633 265.65 555.739 265.918 555.95 266.102C556.165 266.285 556.463 266.377 556.846 266.377ZM563.848 266.377C564.02 266.377 564.186 266.365 564.346 266.342C564.506 266.314 564.633 266.287 564.727 266.26V267.004C564.622 267.055 564.465 267.096 564.258 267.127C564.055 267.162 563.872 267.18 563.708 267.18C562.465 267.18 561.844 266.525 561.844 265.217V261.396H560.924V260.928L561.844 260.523L562.254 259.152H562.817V260.641H564.68V261.396H562.817V265.176C562.817 265.562 562.909 265.859 563.092 266.066C563.276 266.273 563.528 266.377 563.848 266.377ZM568.729 267.18C567.78 267.18 567.03 266.891 566.479 266.312C565.932 265.734 565.659 264.932 565.659 263.904C565.659 262.869 565.913 262.047 566.421 261.438C566.932 260.828 567.618 260.523 568.477 260.523C569.282 260.523 569.919 260.789 570.387 261.32C570.856 261.848 571.09 262.545 571.09 263.412V264.027H566.667C566.686 264.781 566.876 265.354 567.235 265.744C567.598 266.135 568.108 266.33 568.764 266.33C569.456 266.33 570.139 266.186 570.815 265.896V266.764C570.471 266.912 570.145 267.018 569.837 267.08C569.532 267.146 569.163 267.18 568.729 267.18ZM568.465 261.338C567.95 261.338 567.538 261.506 567.229 261.842C566.924 262.178 566.745 262.643 566.69 263.236H570.047C570.047 262.623 569.911 262.154 569.637 261.83C569.364 261.502 568.973 261.338 568.465 261.338Z" fill="#4F4F4F"/>
  <path d="M655.393 266.139H655.34C654.891 266.791 654.219 267.117 653.325 267.117C652.485 267.117 651.831 266.83 651.362 266.256C650.897 265.682 650.665 264.865 650.665 263.807C650.665 262.748 650.899 261.926 651.368 261.34C651.836 260.754 652.489 260.461 653.325 260.461C654.196 260.461 654.864 260.777 655.329 261.41H655.405L655.364 260.947L655.34 260.496V257.883H656.313V267H655.522L655.393 266.139ZM653.448 266.303C654.112 266.303 654.592 266.123 654.889 265.764C655.19 265.4 655.34 264.816 655.34 264.012V263.807C655.34 262.896 655.188 262.248 654.883 261.861C654.583 261.471 654.1 261.275 653.436 261.275C652.866 261.275 652.428 261.498 652.124 261.943C651.823 262.385 651.672 263.01 651.672 263.818C651.672 264.639 651.823 265.258 652.124 265.676C652.424 266.094 652.866 266.303 653.448 266.303ZM662.331 267L662.137 266.086H662.09C661.77 266.488 661.45 266.762 661.129 266.906C660.813 267.047 660.417 267.117 659.94 267.117C659.303 267.117 658.803 266.953 658.44 266.625C658.081 266.297 657.901 265.83 657.901 265.225C657.901 263.928 658.938 263.248 661.012 263.186L662.102 263.15V262.752C662.102 262.248 661.993 261.877 661.774 261.639C661.559 261.396 661.213 261.275 660.737 261.275C660.202 261.275 659.596 261.439 658.92 261.768L658.622 261.023C658.938 260.852 659.284 260.717 659.659 260.619C660.038 260.521 660.417 260.473 660.795 260.473C661.561 260.473 662.127 260.643 662.495 260.982C662.866 261.322 663.051 261.867 663.051 262.617V267H662.331ZM660.133 266.314C660.739 266.314 661.213 266.148 661.557 265.816C661.905 265.484 662.079 265.02 662.079 264.422V263.842L661.106 263.883C660.333 263.91 659.774 264.031 659.43 264.246C659.09 264.457 658.92 264.787 658.92 265.236C658.92 265.588 659.026 265.855 659.237 266.039C659.452 266.223 659.75 266.314 660.133 266.314ZM667.135 266.314C667.307 266.314 667.473 266.303 667.633 266.279C667.793 266.252 667.92 266.225 668.014 266.197V266.941C667.909 266.992 667.752 267.033 667.545 267.064C667.342 267.1 667.159 267.117 666.995 267.117C665.752 267.117 665.131 266.463 665.131 265.154V261.334H664.211V260.865L665.131 260.461L665.542 259.09H666.104V260.578H667.967V261.334H666.104V265.113C666.104 265.5 666.196 265.797 666.379 266.004C666.563 266.211 666.815 266.314 667.135 266.314ZM672.016 267.117C671.067 267.117 670.317 266.828 669.766 266.25C669.219 265.672 668.946 264.869 668.946 263.842C668.946 262.807 669.2 261.984 669.708 261.375C670.219 260.766 670.905 260.461 671.764 260.461C672.569 260.461 673.206 260.727 673.674 261.258C674.143 261.785 674.377 262.482 674.377 263.35V263.965H669.954C669.973 264.719 670.163 265.291 670.522 265.682C670.885 266.072 671.395 266.268 672.051 266.268C672.743 266.268 673.426 266.123 674.102 265.834V266.701C673.758 266.85 673.432 266.955 673.124 267.018C672.819 267.084 672.45 267.117 672.016 267.117ZM671.752 261.275C671.237 261.275 670.825 261.443 670.516 261.779C670.211 262.115 670.032 262.58 669.977 263.174H673.334C673.334 262.561 673.198 262.092 672.924 261.768C672.651 261.439 672.26 261.275 671.752 261.275Z" fill="#4F4F4F"/>
  <path d="M765.498 266.201H765.445C764.996 266.854 764.324 267.18 763.429 267.18C762.589 267.18 761.935 266.893 761.466 266.318C761.002 265.744 760.769 264.928 760.769 263.869C760.769 262.811 761.004 261.988 761.472 261.402C761.941 260.816 762.593 260.523 763.429 260.523C764.3 260.523 764.968 260.84 765.433 261.473H765.509L765.468 261.01L765.445 260.559V257.945H766.418V267.062H765.627L765.498 266.201ZM763.552 266.365C764.216 266.365 764.697 266.186 764.994 265.826C765.295 265.463 765.445 264.879 765.445 264.074V263.869C765.445 262.959 765.293 262.311 764.988 261.924C764.687 261.533 764.205 261.338 763.541 261.338C762.97 261.338 762.533 261.561 762.228 262.006C761.927 262.447 761.777 263.072 761.777 263.881C761.777 264.701 761.927 265.32 762.228 265.738C762.529 266.156 762.97 266.365 763.552 266.365ZM772.435 267.062L772.242 266.148H772.195C771.875 266.551 771.554 266.824 771.234 266.969C770.918 267.109 770.521 267.18 770.045 267.18C769.408 267.18 768.908 267.016 768.545 266.688C768.185 266.359 768.005 265.893 768.005 265.287C768.005 263.99 769.043 263.311 771.117 263.248L772.207 263.213V262.814C772.207 262.311 772.097 261.939 771.879 261.701C771.664 261.459 771.318 261.338 770.841 261.338C770.306 261.338 769.701 261.502 769.025 261.83L768.726 261.086C769.043 260.914 769.388 260.779 769.763 260.682C770.142 260.584 770.521 260.535 770.9 260.535C771.666 260.535 772.232 260.705 772.599 261.045C772.97 261.385 773.156 261.93 773.156 262.68V267.062H772.435ZM770.238 266.377C770.843 266.377 771.318 266.211 771.662 265.879C772.009 265.547 772.183 265.082 772.183 264.484V263.904L771.211 263.945C770.437 263.973 769.879 264.094 769.535 264.309C769.195 264.52 769.025 264.85 769.025 265.299C769.025 265.65 769.13 265.918 769.341 266.102C769.556 266.285 769.855 266.377 770.238 266.377ZM777.24 266.377C777.412 266.377 777.578 266.365 777.738 266.342C777.898 266.314 778.025 266.287 778.119 266.26V267.004C778.013 267.055 777.857 267.096 777.65 267.127C777.447 267.162 777.263 267.18 777.099 267.18C775.857 267.18 775.236 266.525 775.236 265.217V261.396H774.316V260.928L775.236 260.523L775.646 259.152H776.209V260.641H778.072V261.396H776.209V265.176C776.209 265.562 776.3 265.859 776.484 266.066C776.668 266.273 776.92 266.377 777.24 266.377ZM782.121 267.18C781.171 267.18 780.421 266.891 779.871 266.312C779.324 265.734 779.05 264.932 779.05 263.904C779.05 262.869 779.304 262.047 779.812 261.438C780.324 260.828 781.009 260.523 781.869 260.523C782.673 260.523 783.31 260.789 783.779 261.32C784.248 261.848 784.482 262.545 784.482 263.412V264.027H780.058C780.078 264.781 780.267 265.354 780.627 265.744C780.99 266.135 781.5 266.33 782.156 266.33C782.847 266.33 783.531 266.186 784.207 265.896V266.764C783.863 266.912 783.537 267.018 783.228 267.08C782.923 267.146 782.554 267.18 782.121 267.18ZM781.857 261.338C781.341 261.338 780.929 261.506 780.621 261.842C780.316 262.178 780.136 262.643 780.082 263.236H783.439C783.439 262.623 783.302 262.154 783.029 261.83C782.755 261.502 782.365 261.338 781.857 261.338Z" fill="#4F4F4F"/>
  <path d="M871.393 266.139H871.34C870.891 266.791 870.219 267.117 869.324 267.117C868.484 267.117 867.83 266.83 867.361 266.256C866.896 265.682 866.664 264.865 866.664 263.807C866.664 262.748 866.898 261.926 867.367 261.34C867.836 260.754 868.488 260.461 869.324 260.461C870.195 260.461 870.863 260.777 871.328 261.41H871.404L871.363 260.947L871.34 260.496V257.883H872.312V267H871.521L871.393 266.139ZM869.447 266.303C870.111 266.303 870.592 266.123 870.889 265.764C871.189 265.4 871.34 264.816 871.34 264.012V263.807C871.34 262.896 871.188 262.248 870.883 261.861C870.582 261.471 870.1 261.275 869.436 261.275C868.865 261.275 868.428 261.498 868.123 261.943C867.822 262.385 867.672 263.01 867.672 263.818C867.672 264.639 867.822 265.258 868.123 265.676C868.424 266.094 868.865 266.303 869.447 266.303ZM878.33 267L878.137 266.086H878.09C877.77 266.488 877.449 266.762 877.129 266.906C876.812 267.047 876.416 267.117 875.939 267.117C875.303 267.117 874.803 266.953 874.439 266.625C874.08 266.297 873.9 265.83 873.9 265.225C873.9 263.928 874.938 263.248 877.012 263.186L878.102 263.15V262.752C878.102 262.248 877.992 261.877 877.773 261.639C877.559 261.396 877.213 261.275 876.736 261.275C876.201 261.275 875.596 261.439 874.92 261.768L874.621 261.023C874.938 260.852 875.283 260.717 875.658 260.619C876.037 260.521 876.416 260.473 876.795 260.473C877.561 260.473 878.127 260.643 878.494 260.982C878.865 261.322 879.051 261.867 879.051 262.617V267H878.33ZM876.133 266.314C876.738 266.314 877.213 266.148 877.557 265.816C877.904 265.484 878.078 265.02 878.078 264.422V263.842L877.105 263.883C876.332 263.91 875.773 264.031 875.43 264.246C875.09 264.457 874.92 264.787 874.92 265.236C874.92 265.588 875.025 265.855 875.236 266.039C875.451 266.223 875.75 266.314 876.133 266.314ZM883.135 266.314C883.307 266.314 883.473 266.303 883.633 266.279C883.793 266.252 883.92 266.225 884.014 266.197V266.941C883.908 266.992 883.752 267.033 883.545 267.064C883.342 267.1 883.158 267.117 882.994 267.117C881.752 267.117 881.131 266.463 881.131 265.154V261.334H880.211V260.865L881.131 260.461L881.541 259.09H882.104V260.578H883.967V261.334H882.104V265.113C882.104 265.5 882.195 265.797 882.379 266.004C882.562 266.211 882.814 266.314 883.135 266.314ZM888.016 267.117C887.066 267.117 886.316 266.828 885.766 266.25C885.219 265.672 884.945 264.869 884.945 263.842C884.945 262.807 885.199 261.984 885.707 261.375C886.219 260.766 886.904 260.461 887.764 260.461C888.568 260.461 889.205 260.727 889.674 261.258C890.143 261.785 890.377 262.482 890.377 263.35V263.965H885.953C885.973 264.719 886.162 265.291 886.521 265.682C886.885 266.072 887.395 266.268 888.051 266.268C888.742 266.268 889.426 266.123 890.102 265.834V266.701C889.758 266.85 889.432 266.955 889.123 267.018C888.818 267.084 888.449 267.117 888.016 267.117ZM887.752 261.275C887.236 261.275 886.824 261.443 886.516 261.779C886.211 262.115 886.031 262.58 885.977 263.174H889.334C889.334 262.561 889.197 262.092 888.924 261.768C888.65 261.439 888.26 261.275 887.752 261.275Z" fill="#4F4F4F"/>
  <path d="M25.7344 249.065V240.062" stroke="#ECECEC"/>
  <path d="M132.43 249.065V240.062" stroke="#ECECEC"/>
  <path d="M239.125 249.065V240.062" stroke="#ECECEC"/>
  <path d="M345.822 249.065V240.062" stroke="#ECECEC"/>
  <path d="M452.516 249.065V240.062" stroke="#ECECEC"/>
  <path d="M559.213 249.065V240.062" stroke="#ECECEC"/>
  <path d="M666 249.065V240.062" stroke="#ECECEC"/>
  <path d="M772.605 249.065V240.062" stroke="#ECECEC"/>
  <path d="M879.299 249.065V240.062" stroke="#ECECEC"/>
  <path d="M985.997 249.065V240.062" stroke="#ECECEC"/>
  <path d="M965.25 266.139H965.198C964.748 266.791 964.076 267.117 963.182 267.117C962.342 267.117 961.688 266.83 961.219 266.256C960.754 265.682 960.522 264.865 960.522 263.807C960.522 262.748 960.756 261.926 961.225 261.34C961.694 260.754 962.346 260.461 963.182 260.461C964.053 260.461 964.721 260.777 965.186 261.41H965.262L965.221 260.947L965.198 260.496V257.883H966.17V267H965.379L965.25 266.139ZM963.305 266.303C963.969 266.303 964.45 266.123 964.746 265.764C965.047 265.4 965.198 264.816 965.198 264.012V263.807C965.198 262.896 965.045 262.248 964.741 261.861C964.44 261.471 963.957 261.275 963.293 261.275C962.723 261.275 962.285 261.498 961.981 261.943C961.68 262.385 961.53 263.01 961.53 263.818C961.53 264.639 961.68 265.258 961.981 265.676C962.282 266.094 962.723 266.303 963.305 266.303ZM972.188 267L971.994 266.086H971.948C971.627 266.488 971.307 266.762 970.987 266.906C970.67 267.047 970.274 267.117 969.797 267.117C969.16 267.117 968.66 266.953 968.297 266.625C967.938 266.297 967.758 265.83 967.758 265.225C967.758 263.928 968.795 263.248 970.869 263.186L971.959 263.15V262.752C971.959 262.248 971.85 261.877 971.631 261.639C971.416 261.396 971.071 261.275 970.594 261.275C970.059 261.275 969.453 261.439 968.778 261.768L968.479 261.023C968.795 260.852 969.141 260.717 969.516 260.619C969.895 260.521 970.274 260.473 970.653 260.473C971.418 260.473 971.985 260.643 972.352 260.982C972.723 261.322 972.909 261.867 972.909 262.617V267H972.188ZM969.991 266.314C970.596 266.314 971.071 266.148 971.414 265.816C971.762 265.484 971.936 265.02 971.936 264.422V263.842L970.963 263.883C970.19 263.91 969.631 264.031 969.287 264.246C968.948 264.457 968.778 264.787 968.778 265.236C968.778 265.588 968.883 265.855 969.094 266.039C969.309 266.223 969.608 266.314 969.991 266.314ZM976.992 266.314C977.164 266.314 977.33 266.303 977.491 266.279C977.651 266.252 977.778 266.225 977.871 266.197V266.941C977.766 266.992 977.61 267.033 977.403 267.064C977.2 267.1 977.016 267.117 976.852 267.117C975.61 267.117 974.989 266.463 974.989 265.154V261.334H974.069V260.865L974.989 260.461L975.399 259.09H975.961V260.578H977.825V261.334H975.961V265.113C975.961 265.5 976.053 265.797 976.237 266.004C976.42 266.211 976.672 266.314 976.992 266.314ZM981.873 267.117C980.924 267.117 980.174 266.828 979.623 266.25C979.076 265.672 978.803 264.869 978.803 263.842C978.803 262.807 979.057 261.984 979.565 261.375C980.076 260.766 980.762 260.461 981.621 260.461C982.426 260.461 983.063 260.727 983.532 261.258C984 261.785 984.235 262.482 984.235 263.35V263.965H979.811C979.83 264.719 980.02 265.291 980.379 265.682C980.742 266.072 981.252 266.268 981.909 266.268C982.6 266.268 983.284 266.123 983.959 265.834V266.701C983.616 266.85 983.289 266.955 982.981 267.018C982.676 267.084 982.307 267.117 981.873 267.117ZM981.61 261.275C981.094 261.275 980.682 261.443 980.373 261.779C980.069 262.115 979.889 262.58 979.834 263.174H983.192C983.192 262.561 983.055 262.092 982.782 261.768C982.508 261.439 982.117 261.275 981.61 261.275Z" fill="#4F4F4F"/>
</svg>
