<svg width="19" height="19" viewBox="0 0 19 19" fill="none" xmlns="http://www.w3.org/2000/svg">
<path fill-rule="evenodd" clip-rule="evenodd" d="M11.1775 13.9977C10.9207 14.0106 10.6644 13.9699 10.4242 13.8782C10.1824 13.7381 10.0379 13.4759 10.0492 13.197C10.0537 13.1563 10.0537 13.115 10.0492 13.0743C9.89434 13.0585 9.73852 13.0585 9.5837 13.0743C9.5837 13.0743 9.5837 13.0937 9.5837 13.1034C9.65767 13.3068 9.63379 13.5331 9.51903 13.7168C9.22158 14.0816 7.94142 13.9815 7.72482 13.8847C7.39863 13.7917 7.20948 13.4524 7.30227 13.1266C7.3068 13.1111 7.31198 13.096 7.3175 13.0808C7.36727 12.9665 7.36727 12.8367 7.3175 12.7224C7.05142 12.4464 6.76502 12.1907 6.46083 11.9573C6.32793 11.946 6.19409 11.9534 6.06315 11.9799C5.73989 12.0219 5.31317 12.0735 5.07393 11.7539C4.83469 11.4343 4.86379 10.0073 4.98019 9.70707C5.09658 9.4068 5.21619 9.0969 5.60736 9.16791C5.73926 9.18645 5.87341 9.16392 5.99205 9.10335C6.27396 8.88023 6.51255 8.60787 6.69678 8.29947C6.72234 8.08009 6.69129 7.85775 6.60626 7.65377C6.5093 7.33093 6.40261 6.95644 6.65154 6.68526C6.90044 6.41408 7.36599 6.50124 7.78304 6.611C8.09108 6.69809 8.36458 6.87858 8.56532 7.12756C8.65587 7.23671 8.7655 7.32861 8.88863 7.39873C9.25781 7.49555 9.64285 7.51538 10.0201 7.45688C10.2011 7.45688 10.3725 7.43424 10.518 7.43424C11.3197 7.43424 12.1634 7.48594 12.9037 8.12836C13.0686 8.27855 13.2193 8.44396 13.3531 8.62231L13.3951 8.67717C13.3997 8.23149 13.7653 7.87379 14.2114 7.87832C14.2379 7.8786 14.2644 7.88017 14.2906 7.88298C14.5777 7.92402 14.835 8.08174 15.0018 8.31884C15.199 8.59864 15.199 8.97206 15.0018 9.25187C14.9356 9.35518 14.8563 9.44958 14.7658 9.53274C14.8014 9.53588 14.837 9.53588 14.8725 9.53274C14.9501 9.53274 14.9986 9.53275 15.1796 9.43585C15.3325 9.34395 15.5314 9.39326 15.6232 9.54608C15.7153 9.69884 15.6658 9.89719 15.5129 9.98913C15.4994 9.99729 15.4851 10.0044 15.4706 10.0105C15.2805 10.1249 15.062 10.1829 14.8402 10.1784C14.643 10.1626 14.449 10.118 14.2647 10.0461C14.1448 9.99519 14.0355 9.92299 13.9415 9.83298C13.7268 9.81112 13.5235 9.72699 13.3564 9.59085C13.1572 9.42843 12.98 9.24068 12.8294 9.03235C12.7211 8.88522 12.5989 8.74897 12.4641 8.62555C11.8919 8.12836 11.2098 8.08961 10.5018 8.08961C10.3693 8.08961 10.2109 8.08961 10.046 8.11221C9.54167 8.14451 8.96619 8.18323 8.57505 7.98309C8.38917 7.87782 8.22297 7.74132 8.08366 7.57954C7.96309 7.4249 7.79691 7.31197 7.60843 7.25671C7.4565 7.20948 7.29872 7.18235 7.13969 7.17597C7.16037 7.27842 7.18625 7.37973 7.21726 7.47948C7.35077 7.81154 7.38021 8.17634 7.30136 8.52545C7.05274 9.01427 6.67775 9.42776 6.21514 9.72322C6.02698 9.80211 5.82427 9.84064 5.62028 9.83619C5.60089 9.88139 5.58473 9.92981 5.57179 9.95565C5.49614 10.426 5.49614 10.9058 5.57179 11.3762C5.70144 11.3852 5.83201 11.3774 5.95974 11.3535C6.20283 11.3013 6.4553 11.3113 6.69358 11.3826C7.13096 11.6745 7.52504 12.0267 7.86381 12.4286C7.99346 12.6834 8.01996 12.9781 7.93818 13.2519V13.2874L7.9867 13.31C8.30865 13.3536 8.63488 13.3536 8.95654 13.31C8.95654 13.2874 8.95654 13.268 8.95654 13.2486C8.88249 13.0462 8.9064 12.8209 9.02116 12.6385C9.23131 12.3705 10.1559 12.4093 10.3143 12.4964C10.5613 12.6262 10.7109 12.8864 10.699 13.1647C10.699 13.3035 10.699 13.3067 10.7442 13.3229C11.1124 13.3907 11.4913 13.3752 11.8531 13.2777C11.8531 13.2228 11.8304 13.1324 11.8208 13.0743C11.7532 12.8632 11.76 12.6352 11.8402 12.4286C11.9562 12.2549 12.1127 12.1122 12.296 12.0122C12.3658 11.967 12.4328 11.9172 12.4964 11.8637C12.9022 11.4898 13.1611 10.9839 13.227 10.4367C13.2484 10.2585 13.4106 10.1312 13.5891 10.1526C13.7675 10.1739 13.8949 10.336 13.8736 10.5142C13.7882 11.2167 13.4546 11.8659 12.9328 12.3447C12.8472 12.4163 12.7576 12.4832 12.6645 12.5449C12.5811 12.5978 12.5013 12.6559 12.4253 12.7192C12.4308 12.7983 12.4415 12.8771 12.4576 12.9549C12.5394 13.1937 12.5136 13.4566 12.3865 13.6748C12.199 13.9008 11.6559 13.9977 11.1775 13.9977ZM14.1936 8.5287C14.1322 8.52741 14.0737 8.5549 14.0352 8.60296C13.9987 8.69525 13.9987 8.79799 14.0352 8.89029C14.0714 8.98707 14.1193 9.07922 14.1774 9.16467C14.2893 9.10168 14.3837 9.01181 14.4522 8.90319C14.4965 8.84141 14.4965 8.75839 14.4522 8.69657C14.3918 8.61062 14.3003 8.55151 14.1969 8.53194L14.1936 8.5287Z" fill="#00A3E0"/>
<path fill-rule="evenodd" clip-rule="evenodd" d="M11.1925 9.18936C11.1492 9.1905 11.1059 9.18166 11.0664 9.16355C10.6878 8.98698 10.2521 8.97871 9.86707 9.14091C9.70091 9.2069 9.51276 9.12593 9.44681 8.96013C9.38086 8.79433 9.46166 8.60639 9.62786 8.5404C10.1713 8.31752 10.7829 8.32801 11.3186 8.56946C11.4828 8.63933 11.5591 8.82898 11.4893 8.99304C11.4385 9.11186 11.3218 9.18907 11.1925 9.18936Z" fill="#00A3E0"/>
<path fill-rule="evenodd" clip-rule="evenodd" d="M10.5603 7.0632H10.473C10.1992 7.03863 9.94608 6.90762 9.7683 6.6984C9.4014 6.26188 9.45633 5.6114 9.89114 5.24236C10.3286 4.87528 10.9812 4.93189 11.3488 5.36873C11.7161 5.80557 11.6594 6.45727 11.2221 6.82428C11.0365 6.97989 10.8024 7.06555 10.5603 7.06641V7.0632ZM10.5603 5.63942C10.4676 5.63903 10.378 5.67228 10.3082 5.73307C10.2299 5.79877 10.1811 5.89284 10.1724 5.99458C10.1624 6.09764 10.195 6.20038 10.2629 6.27867C10.4042 6.44197 10.6511 6.46016 10.8147 6.31917C10.8904 6.25383 10.9382 6.16192 10.9483 6.06236C10.9651 5.84875 10.8063 5.66148 10.5927 5.64266L10.5603 5.63942Z" fill="#00A3E0"/>
</svg>
