<svg width="100%" height="100%" viewBox="0 0 80 80" fill="none" xmlns="http://www.w3.org/2000/svg">
<path fill-rule="evenodd" clip-rule="evenodd" d="M40.0005 67.5117C38.8816 67.5117 37.9731 66.6016 37.9731 65.4805V31.7427C37.9731 30.6215 38.8816 29.7115 40.0005 29.7115C41.12 29.7115 42.0282 30.6215 42.0282 31.7427V65.4805C42.0282 66.6016 41.12 67.5117 40.0005 67.5117Z"/>
<path fill-rule="evenodd" clip-rule="evenodd" d="M65.9723 41.4937H14.0275C12.9082 41.4937 12 40.5837 12 39.4624C12 38.3411 12.9082 37.4311 14.0275 37.4311H65.9723C67.0916 37.4311 68 38.3411 68 39.4624C68 40.5837 67.0916 41.4937 65.9723 41.4937Z"/>
<path fill-rule="evenodd" clip-rule="evenodd" d="M39.939 57.0107C38.8197 57.0107 37.9115 56.1008 37.9115 54.9796V14.0312C37.9115 12.91 38.8197 12 39.939 12C41.0583 12 41.9666 12.91 41.9666 14.0312V54.9796C41.9666 56.1008 41.0583 57.0107 39.939 57.0107Z"/>
</svg>
