<svg width="100%" height="100%" viewBox="0 0 80 80" fill="none" xmlns="http://www.w3.org/2000/svg">
<path fill-rule="evenodd" clip-rule="evenodd" d="M40.0062 48.1763C39.6776 48.1735 39.3542 48.0862 39.067 47.9233L12.8806 32.0371C12.0298 31.5219 11.7554 30.4148 12.2664 29.561C12.7774 28.7043 13.8865 28.4249 14.7424 28.9371C14.7478 28.9403 14.7534 28.9435 14.7588 28.9465L40.0423 44.2544L64.0797 29.7961C64.2948 29.6792 64.4157 29.4428 64.3868 29.1996V26.1271C64.3868 25.314 63.4657 24.6271 62.3822 24.6271H17.6301C16.7686 24.5558 15.9652 25.0649 15.6617 25.8742C15.4269 26.8723 14.4282 27.4913 13.4312 27.2567C12.4345 27.0221 11.8149 26.0229 12.0497 25.0248C12.7434 22.6161 14.9629 20.9719 17.4678 21.0126H62.2197C65.2049 20.81 67.7893 23.0676 67.9916 26.0553C67.9952 26.0973 67.9968 26.1393 67.9988 26.1815V29.1996C68.0004 30.6891 67.2096 32.0664 65.9219 32.8142L40.9092 47.9233C40.6327 48.0805 40.3241 48.1675 40.0062 48.1763Z"/>
<path fill-rule="evenodd" clip-rule="evenodd" d="M66.194 29.813C65.1971 29.813 64.3879 29.0038 64.3879 28.0057V26.8851C64.3879 25.887 65.1971 25.0776 66.194 25.0776C67.1908 25.0776 67.9999 25.887 67.9999 26.8851V28.0057C67.9999 29.0038 67.1908 29.813 66.194 29.813Z"/>
<path fill-rule="evenodd" clip-rule="evenodd" d="M62.7437 59.021H17.2693C14.3707 59.0108 12.0229 56.6623 12.0139 53.7616V30.5019C12.0139 29.5037 12.8231 28.6946 13.8198 28.6946C14.8168 28.6946 15.6259 29.5037 15.6259 30.5019V53.7616C15.6259 54.6702 16.3608 55.4062 17.2693 55.4062H62.7437C63.652 55.4062 64.3869 54.6702 64.3869 53.7616V36.6106C64.3869 35.6123 65.196 34.8032 66.1929 34.8032C67.1899 34.8032 67.999 35.6123 67.999 36.6106V53.7616C67.9901 56.6623 65.6423 59.0108 62.7437 59.021Z"/>
</svg>
