<svg width="100%" height="100%" viewBox="0 0 80 80" fill="none" xmlns="http://www.w3.org/2000/svg">
<path fill-rule="evenodd" clip-rule="evenodd" d="M62.0479 64H17.7012C16.6784 64 15.8481 63.2356 15.8481 62.2938V41.3759C15.8481 40.4336 16.6784 39.6697 17.7012 39.6697H62.0479C63.0709 39.6697 63.9012 40.4336 63.9012 41.3759V62.2938C63.9012 63.2356 63.0709 64 62.0479 64ZM19.5546 60.5877H60.1948V43.0822H19.5546V60.5877Z"/>
<path fill-rule="evenodd" clip-rule="evenodd" d="M58.1946 43.082H21.557C20.5342 43.082 19.7039 42.3182 19.7039 41.3759V32.0258C19.7039 31.0835 20.5342 30.3196 21.557 30.3196H58.1946C59.2176 30.3196 60.0479 31.0835 60.0479 32.0258V41.3759C60.0479 42.3182 59.2176 43.082 58.1946 43.082ZM23.4103 39.6695H56.3413V33.732H23.4103V39.6695Z"/>
<path fill-rule="evenodd" clip-rule="evenodd" d="M55.5812 51.5607C53.6612 51.658 51.7783 51.0438 50.3551 49.8545C47.3123 52.1717 42.909 52.1717 39.8662 49.8545C36.8306 52.1768 32.431 52.1768 29.3955 49.8545C27.965 51.0472 26.0766 51.6614 24.1511 51.5607C20.074 51.5607 16.7383 47.9438 16.7383 43.5075C16.7383 42.5654 17.5686 41.8015 18.5916 41.8015C19.6144 41.8015 20.4447 42.5654 20.4447 43.5075C20.4447 46.0329 22.1497 48.1485 24.1511 48.1485C26.6529 48.1485 27.3201 47.0052 27.598 46.0157C27.8222 45.2492 28.5895 44.726 29.4513 44.7533C30.3129 44.726 31.0802 45.2492 31.3044 46.0157C31.6009 47.0052 32.268 48.1485 34.7699 48.1485C37.2716 48.1485 37.9203 47.0052 38.2168 46.0157C38.441 45.2492 39.2083 44.726 40.0699 44.7533C40.9317 44.726 41.6988 45.2492 41.9232 46.0157C42.2197 47.0052 42.8682 48.1485 45.3701 48.1485C47.8718 48.1485 48.5204 47.0052 48.817 46.0157C49.0411 45.2492 49.8085 44.726 50.6701 44.7533C51.532 44.726 52.2992 45.2492 52.5234 46.0157C52.8199 47.0052 53.4869 48.1485 55.9703 48.1485C57.9903 48.1485 59.6767 46.0329 59.6767 43.5075C59.6767 42.5654 60.507 41.8015 61.5298 41.8015C62.5528 41.8015 63.3831 42.5654 63.3831 43.5075C62.9938 47.9438 59.6397 51.5607 55.5812 51.5607Z"/>
<path fill-rule="evenodd" clip-rule="evenodd" d="M51.3733 28.3231C48.6417 28.5296 46.2065 26.7435 45.8135 24.2455C45.6468 22.9198 46.0306 21.585 46.8885 20.509L47.0182 20.304C47.6205 19.542 48.7788 19.3736 49.607 19.9278C50.3168 20.4035 50.5671 21.2732 50.2056 22.0104L50.0574 22.2152C49.557 22.9828 49.4088 23.2558 49.483 23.7166C49.557 24.1772 49.6498 24.8597 51.4475 24.8597C51.9645 24.8386 52.4647 24.685 52.8929 24.416C53.0447 24.2633 53.1171 24.0587 53.0968 23.8531C53.0968 23.3753 52.7075 22.9828 52.0589 22.3174C51.5678 21.8609 51.1379 21.3509 50.78 20.7991C49.9649 19.512 49.6571 18.0051 49.9093 16.5336C50.0724 15.5911 51.0359 14.9496 52.0589 15.1002C53.0817 15.251 53.7788 16.1371 53.6155 17.0795C53.4914 17.7739 53.6359 18.4864 54.0232 19.0929C54.2641 19.4276 54.5365 19.7417 54.8386 20.0311C55.9376 21.0038 56.6028 22.317 56.7102 23.7166C56.7865 24.8525 56.3434 25.9661 55.4872 26.7877C54.3939 27.7849 52.9113 28.3378 51.3733 28.3231Z"/>
<path fill-rule="evenodd" clip-rule="evenodd" d="M28.7102 28.3231C25.9786 28.5296 23.5437 26.7435 23.1507 24.2455C22.984 22.9198 23.3675 21.585 24.2256 20.509L24.3552 20.304C24.9576 19.542 26.1157 19.3736 26.9442 19.9278C27.6539 20.4035 27.904 21.2732 27.5427 22.0104L27.3946 22.2152C26.8941 22.9828 26.7459 23.2558 26.8201 23.7166C26.8941 24.1772 26.9867 24.8597 28.7844 24.8597C29.3069 24.8717 29.8185 24.7147 30.23 24.416C30.3819 24.2633 30.454 24.0587 30.4338 23.8531C30.4338 23.3753 30.0445 22.9828 29.3958 22.3174C28.9048 21.8609 28.4748 21.3509 28.1172 20.7991C27.311 19.5092 27.0034 18.0051 27.2464 16.5336C27.4093 15.5911 28.373 14.9496 29.3958 15.1002C30.4189 15.251 31.1157 16.1371 30.9526 17.0795C30.8286 17.7739 30.9731 18.4864 31.3603 19.0929C31.6013 19.4276 31.8736 19.7417 32.1757 20.0311C33.2784 21.0021 33.953 22.315 34.0658 23.7166C34.1271 24.854 33.6786 25.9644 32.8243 26.7877C31.7308 27.7849 30.2484 28.3378 28.7102 28.3231Z"/>
<path fill-rule="evenodd" clip-rule="evenodd" d="M40.0518 25.252C37.3183 25.4402 34.8924 23.6528 34.4923 21.157C34.3274 19.8289 34.7183 18.4926 35.5858 17.4206L35.697 17.2328C36.1175 16.3741 37.2164 15.9926 38.1484 16.3807C39.0809 16.7687 39.4958 17.7795 39.0752 18.6381C39.0214 18.7442 38.9583 18.8449 38.8843 18.9389L38.7545 19.1437C38.2543 19.8944 38.1061 20.1847 38.1615 20.6282C38.2173 21.0719 38.3469 21.7884 40.126 21.7884C40.6522 21.8032 41.1674 21.6393 41.5714 21.3278C41.7253 21.1834 41.7937 20.9805 41.7567 20.7816C41.7567 20.3038 41.3675 19.8944 40.7376 19.2461C40.2503 18.7823 39.8145 18.2734 39.4404 17.7276C38.6379 16.4362 38.3377 14.9319 38.5878 13.4621C38.7472 12.5198 39.7054 11.8744 40.7282 12.0204C41.7512 12.1665 42.4536 13.0488 42.2942 13.9911C42.1757 14.6928 42.3257 15.4108 42.7203 16.0214C42.9539 16.361 43.2281 16.6757 43.5359 16.96C44.6682 17.9212 45.3743 19.2337 45.5188 20.6451C45.593 21.7791 45.1425 22.8892 44.2771 23.6993C43.1615 24.7301 41.6325 25.2917 40.0518 25.252Z"/>
<path fill-rule="evenodd" clip-rule="evenodd" d="M28.6895 33.7324C27.6665 33.7324 26.8362 32.9685 26.8362 32.0262V26.6176C26.8362 25.6753 27.6665 24.9115 28.6895 24.9115C29.7125 24.9115 30.5428 25.6753 30.5428 26.6176V32.0262C30.5428 32.9685 29.7125 33.7324 28.6895 33.7324Z"/>
<path fill-rule="evenodd" clip-rule="evenodd" d="M40.033 33.7324C39.01 33.7324 38.1797 32.9685 38.1797 32.0262V23.4952C38.1797 22.5529 39.01 21.789 40.033 21.789C41.0558 21.789 41.8863 22.5529 41.8863 23.4952V32.0262C41.8863 32.9685 41.0558 33.7324 40.033 33.7324Z"/>
<path fill-rule="evenodd" clip-rule="evenodd" d="M51.356 33.7324C50.333 33.7324 49.5027 32.9685 49.5027 32.0262V26.6176C49.5027 25.6753 50.333 24.9115 51.356 24.9115C52.3788 24.9115 53.2091 25.6753 53.2091 26.6176V32.0262C53.2091 32.9685 52.3788 33.7324 51.356 33.7324Z"/>
</svg>
