<svg width="100%" height="100%" viewBox="0 0 80 80" fill="none" xmlns="http://www.w3.org/2000/svg">
<path fill-rule="evenodd" clip-rule="evenodd" d="M40.5237 67.995H40.3533C37.3512 68.0081 34.4514 66.9103 32.2139 64.9147C30.7581 63.6767 29.8421 61.9211 29.6584 60.0199C29.6641 58.9011 30.1545 57.841 31.0026 57.1095C31.8125 56.4559 32.7779 56.0192 33.8039 55.8434C35.3656 55.5127 36.9614 55.3748 38.555 55.4276V59.2073C37.285 59.1657 36.0148 59.2735 34.7694 59.5285C34.3586 59.5928 33.961 59.727 33.5959 59.9254C33.6942 60.8154 34.1617 61.6242 34.8829 62.1553C36.4502 63.5294 38.4773 64.2643 40.5614 64.2155C42.653 64.306 44.6954 63.5652 46.2401 62.1553C47.1676 61.2294 47.9437 59.9633 47.5843 59.5098C47.444 59.3529 47.2452 59.2641 47.035 59.2641L46.7514 55.4844C48.1995 55.3766 49.6098 55.9758 50.5372 57.0908C52.2786 59.1884 51.6538 62.1364 48.9282 64.82C46.6568 66.9442 43.6357 68.0857 40.5237 67.995Z"/>
<path fill-rule="evenodd" clip-rule="evenodd" d="M58.0715 59.187H46.7141C45.6691 59.187 44.8212 58.3403 44.8212 57.297C44.8212 56.254 45.6691 55.4073 46.7141 55.4073H59.5289L59.0367 54.5003C58.7908 54.0844 58.5067 53.612 58.2228 53.0829C55.6144 48.6854 54.2177 43.6793 54.1722 38.5692C54.2289 35.451 54.0907 32.3329 53.7557 29.2336C53.6194 28.1903 54.3574 27.2342 55.4024 27.0981C56.4474 26.9621 57.4052 27.6989 57.5415 28.7422C57.9049 31.9983 58.0563 35.2753 57.9959 38.5503C58.0469 43.0234 59.281 47.406 61.5734 51.2498L62.3493 52.6292C63.5041 54.6515 64.3557 56.1254 63.4851 57.5995C62.6144 59.0736 60.6457 59.187 58.0715 59.187Z"/>
<path fill-rule="evenodd" clip-rule="evenodd" d="M40.2954 59.1899H22.6916C20.1174 59.1899 18.2245 59.0764 17.3539 57.5835C16.4832 56.0905 17.3539 54.6355 18.5084 52.6133L19.2845 51.2338C21.5633 47.3842 22.7902 43.0055 22.8432 38.5343C22.8432 28.8585 22.8432 16.8393 35.0898 12.8139C36.8049 12.2528 38.6032 11.9768 40.4089 12.0013C42.1957 11.9901 43.9714 12.2659 45.6712 12.8139C48.4878 13.7571 51.0695 15.2897 53.2426 17.3118C54.1759 18.0921 54.9215 19.075 55.4196 20.1843C55.7905 21.1593 55.3002 22.2519 54.3216 22.6222C53.3449 22.9925 52.2508 22.503 51.8797 21.526C51.5599 20.9704 51.1434 20.479 50.6493 20.0709C48.8967 18.4266 46.8126 17.1757 44.5354 16.4047C41.8664 15.573 39.0082 15.573 36.3392 16.4047C26.7613 19.5606 26.7234 29.2176 26.6856 38.553C26.6384 43.6594 25.249 48.6654 22.6536 53.0668L21.84 54.503L21.329 55.3913H40.2576C41.3026 55.3913 42.1505 56.2378 42.1505 57.281C42.1505 58.3243 41.3026 59.1708 40.2576 59.1708L40.2954 59.1899Z"/>
<path d="M62.1701 21.7466C62.1701 27.6006 57.3589 32.3682 51.3964 32.3682C45.434 32.3682 40.6228 27.6006 40.6228 21.7466C40.6228 15.8927 45.434 11.125 51.3964 11.125C57.3589 11.125 62.1701 15.8927 62.1701 21.7466Z" stroke="white" stroke-width="2"/>
</svg>
