<svg width="100%" height="100%" viewBox="0 0 80 80" fill="none" xmlns="http://www.w3.org/2000/svg">
<path fill-rule="evenodd" clip-rule="evenodd" d="M40.5235 67.995H40.3531C37.351 68.0081 34.4512 66.9103 32.2137 64.9147C30.7579 63.6767 29.842 61.9211 29.6583 60.02C29.664 58.9012 30.1543 57.8411 31.0025 57.1097C31.8124 56.456 32.7778 56.0193 33.8038 55.8436C35.3654 55.5128 36.9612 55.3749 38.5548 55.4277V59.2074C37.2848 59.1658 36.0146 59.2736 34.7693 59.5286C34.3584 59.5929 33.9608 59.7271 33.5957 59.9255C33.694 60.8155 34.1616 61.6243 34.8828 62.1554C36.45 63.5294 38.4771 64.2644 40.5612 64.2155C42.6528 64.306 44.6951 63.5652 46.2398 62.1554C47.1673 61.2295 47.9434 59.9634 47.584 59.5099C47.4437 59.353 47.2449 59.2642 47.0347 59.2642L46.7511 55.4845C48.1992 55.3768 49.6094 55.9759 50.5369 57.0909C52.2782 59.1885 51.6534 62.1365 48.9279 64.82C46.6565 66.9442 43.6354 68.0857 40.5235 67.995Z"/>
<path fill-rule="evenodd" clip-rule="evenodd" d="M58.0711 59.1875H46.7138C45.6688 59.1875 44.8209 58.3408 44.8209 57.2975C44.8209 56.2545 45.6688 55.4078 46.7138 55.4078H59.5285L59.0363 54.5008C58.7904 54.085 58.5064 53.6125 58.2225 53.0835C55.614 48.686 54.2173 43.6799 54.1718 38.5699C54.2286 35.4518 54.0904 32.3336 53.7553 29.2344C53.619 28.1911 54.3571 27.235 55.4021 27.099C56.447 26.9629 57.4048 27.6997 57.5411 28.743C57.9045 31.9991 58.0559 35.276 57.9956 38.551C58.0465 43.024 59.2806 47.4066 61.573 51.2503L62.3489 52.6298C63.5037 54.652 64.3553 56.1259 63.4846 57.6C62.614 59.0741 60.6453 59.1875 58.0711 59.1875Z"/>
<path fill-rule="evenodd" clip-rule="evenodd" d="M40.2951 59.1895H22.6916C20.1173 59.1895 18.2245 59.0759 17.3538 57.583C16.4832 56.09 17.3538 54.6351 18.5084 52.6128L19.2844 51.2334C21.5633 47.3838 22.7902 43.0052 22.8432 38.534C22.8432 28.8584 22.8431 16.8392 35.0897 12.8139C36.8047 12.2528 38.603 11.9768 40.4086 12.0013C42.1955 11.9901 43.9711 12.2659 45.6709 12.8139C48.4875 13.7571 51.0692 15.2896 53.2422 17.3117C54.1755 18.092 54.9212 19.0749 55.4192 20.1842C55.7902 21.1592 55.2998 22.2517 54.3212 22.622C53.3445 22.9923 52.2505 22.5028 51.8793 21.5259C51.5596 20.9703 51.1431 20.4789 50.649 20.0708C48.8964 18.4265 46.8123 17.1756 44.5351 16.4047C41.8661 15.573 39.008 15.573 36.339 16.4047C26.7612 19.5605 26.7233 29.2174 26.6855 38.5527C26.6383 43.659 25.2489 48.6651 22.6536 53.0663L21.84 54.5026L21.3289 55.3908H40.2574C41.3024 55.3908 42.1503 56.2373 42.1503 57.2806C42.1503 58.3238 41.3024 59.1703 40.2574 59.1703L40.2951 59.1895Z"/>
</svg>
