<svg width="100%" height="100%" viewBox="0 0 80 80" fill="none" xmlns="http://www.w3.org/2000/svg">
<path fill-rule="evenodd" clip-rule="evenodd" d="M19.9693 62.4012C19.5117 62.4012 19.0557 62.368 18.6029 62.3018C17.6777 62.1974 16.8646 61.6395 16.43 60.8115C15.5246 58.9902 16.7428 56.4733 18.0761 54.0393C18.2079 53.8076 18.323 53.6089 18.3889 53.4599L29.5007 31.9347C29.9106 31.1186 30.9015 30.7911 31.7115 31.2035C31.9798 31.3396 32.2054 31.5468 32.365 31.8023C33.4137 33.5708 35.1849 34.7832 37.2047 35.1138C38.1068 35.2317 38.7423 36.0624 38.6254 36.9694C38.6023 37.1472 38.5513 37.3202 38.4724 37.4817L28.5952 57.7484C26.7185 60.7024 23.4527 62.464 19.9693 62.4012ZM19.426 59.0895C21.8937 59.3412 24.2921 58.1756 25.6321 56.0761L34.6038 37.8625C33.3774 37.3687 32.2581 36.6375 31.3114 35.7101L21.3685 54.9335C21.3685 55.0826 21.171 55.3143 21.0062 55.6124C20.3282 56.6836 19.7965 57.8428 19.426 59.0564V59.0895Z"/>
<path fill-rule="evenodd" clip-rule="evenodd" d="M60.057 62.4027C56.6362 62.4209 53.4442 60.6774 51.5955 57.7831L41.5868 37.3839C41.3464 36.9106 41.3464 36.3503 41.5868 35.8772C41.8403 35.4025 42.3061 35.0813 42.8378 35.016C44.8561 34.7035 46.634 33.5095 47.6941 31.7543C48.0118 31.2549 48.57 30.9644 49.1592 30.9925C49.7519 31.0153 50.2869 31.3571 50.5585 31.8868L61.6702 53.4117C61.7525 53.5772 61.8514 53.7761 61.983 54.0078C63.3165 56.4417 64.5346 58.9751 63.6293 60.7799C63.201 61.6127 62.3847 62.1743 61.4562 62.2702C60.9937 62.348 60.526 62.3927 60.057 62.4027ZM45.4223 37.7481L54.4764 56.1934C55.8509 58.1953 58.1934 59.2915 60.6003 59.0579C60.2479 57.8592 59.7391 56.7118 59.0856 55.647C58.9376 55.349 58.8059 55.1173 58.7071 54.9517L48.8299 35.5957C47.8455 36.5308 46.6866 37.262 45.4223 37.7481Z"/>
<path fill-rule="evenodd" clip-rule="evenodd" d="M40.0092 33.4097C35.2268 33.113 31.5888 28.9731 31.885 24.1629C32.1533 19.7669 35.6385 16.2621 40.0092 15.9908C40.9178 15.9908 41.6553 16.7321 41.6553 17.6466C41.6553 18.5612 40.9178 19.3025 40.0092 19.3025C37.0476 18.9458 34.3609 21.0711 34.0055 24.0491C33.6515 27.0273 35.7636 29.7307 38.725 30.0874C41.6865 30.4439 44.3732 28.3189 44.7288 25.3407C44.7535 25.1281 44.7665 24.9143 44.7665 24.7002C44.7945 23.1587 44.202 21.6708 43.1204 20.5773C42.513 19.8975 42.5673 18.8506 43.2438 18.239C43.8496 17.6909 44.7632 17.6714 45.3921 18.193C47.1306 19.9052 48.105 22.253 48.0919 24.7002C48.2499 29.3497 44.6317 33.248 40.0092 33.4097Z"/>
<path fill-rule="evenodd" clip-rule="evenodd" d="M40.0146 19.2852C39.1061 19.2852 38.3687 18.5438 38.3687 17.6296V13.6555C38.3687 12.7411 39.1061 11.9998 40.0146 11.9998C40.923 11.9998 41.6606 12.7411 41.6606 13.6555V17.6296C41.6606 18.5438 40.923 19.2852 40.0146 19.2852Z"/>
<path fill-rule="evenodd" clip-rule="evenodd" d="M48.7985 49.9683H31.2504C30.3417 49.9683 29.6041 49.2262 29.6041 48.3123C29.6041 47.3982 30.3417 46.6566 31.2504 46.6566H48.7819C49.6906 46.6566 50.4282 47.3982 50.4282 48.3123C50.4282 49.2262 49.6906 49.9683 48.7819 49.9683H48.7985Z"/>
<path fill-rule="evenodd" clip-rule="evenodd" d="M65.3537 49.9678H57.1228C56.2141 49.9678 55.4766 49.2257 55.4766 48.3118C55.4766 47.3977 56.2141 46.6561 57.1228 46.6561H65.3537C66.2625 46.6561 67 47.3977 67 48.3118C67 49.2257 66.2625 49.9678 65.3537 49.9678Z"/>
<path fill-rule="evenodd" clip-rule="evenodd" d="M22.877 49.9668H14.6461C13.7376 49.9668 13 49.2248 13 48.3109C13 47.3968 13.7376 46.6551 14.6461 46.6551H22.877C23.7857 46.6551 24.5233 47.3968 24.5233 48.3109C24.5233 49.2248 23.7857 49.9668 22.877 49.9668Z"/>
<path fill-rule="evenodd" clip-rule="evenodd" d="M40.0146 54.1064C39.1061 54.1064 38.3687 53.3646 38.3687 52.4507V44.1717C38.3687 43.2572 39.1061 42.5159 40.0146 42.5159C40.923 42.5159 41.6606 43.2572 41.6606 44.1717V52.4507C41.6606 53.3646 40.923 54.1064 40.0146 54.1064Z"/>
</svg>
