<svg width="100%" height="100%" viewBox="0 0 80 80" fill="none" xmlns="http://www.w3.org/2000/svg">
<path d="M69 32.2344C69 33.1784 68.2318 33.9337 67.2716 33.9337H60.358V40.7305C60.358 41.6746 59.5898 42.4298 58.6296 42.4298C57.6694 42.4298 56.9012 41.6746 56.9012 40.7305V33.9337H49.9876C49.0274 33.9337 48.2593 33.1784 48.2593 32.2344C48.2593 31.2904 49.0274 30.5352 49.9876 30.5352H56.9012V23.7382C56.9012 22.7942 57.6694 22.0391 58.6296 22.0391C59.5898 22.0391 60.358 22.7942 60.358 23.7382V30.5352H67.2716C68.2318 30.5352 69 31.2904 69 32.2344Z"/>
<path d="M49.9114 53.2388C48.0447 52.2192 45.5559 52.0153 43.4818 51.8114C42.2373 51.6075 40.7855 51.6075 40.3707 51.4036C39.3336 50.7918 38.0892 47.1215 38.504 46.102C39.9559 43.859 41.6151 40.1887 42.4447 36.9261C43.8966 31.2167 43.2744 26.9346 40.7855 23.876C37.467 19.7978 32.0744 20.0017 32.0744 20.0017C31.867 20.0017 26.4744 20.0017 23.1559 23.876C20.667 26.9346 20.0447 31.2167 21.4966 36.9261C22.3262 40.1887 23.9855 43.859 25.4373 46.102C25.6447 47.1215 24.6077 50.7918 23.5707 51.4036C22.9485 51.6075 21.704 51.8114 20.4596 51.8114C18.3855 52.0153 15.8966 52.2192 14.0299 53.2388C12.9929 53.6466 12.7855 54.87 13.2003 55.8896C13.6151 56.9091 14.8596 57.1129 15.8966 56.7051C17.141 56.0934 19.2151 55.8895 20.8744 55.6856C22.741 55.4817 24.1929 55.4817 25.4373 54.87C27.9262 53.6466 28.9633 50.1802 29.1707 49.1606C29.5855 47.5294 29.7929 45.4903 28.9633 44.0629C27.7188 42.2277 26.267 38.9652 25.6447 36.1105C24.6077 31.6245 24.8151 28.362 26.4744 26.3229C28.5484 23.6721 32.2818 23.6721 32.4892 23.876C32.4892 23.876 36.2225 23.876 38.2966 26.3229C39.9559 28.362 40.3707 31.6245 39.1262 36.1105C38.504 38.9652 37.0522 42.2277 35.8077 44.0629C34.7707 45.2864 35.1855 47.5294 35.6003 49.1606C35.8077 50.1802 36.8447 53.6466 39.3336 54.87C40.5781 55.4817 42.0299 55.6856 43.8966 55.6856C45.7633 55.8895 47.6299 56.0934 48.8744 56.7051C49.0818 56.909 49.4966 56.9091 49.704 56.9091C50.3262 56.9091 51.1559 56.5013 51.3633 55.8896C51.1559 55.0739 50.9484 53.8505 49.9114 53.2388Z"/>
</svg>
