<svg width="100%" height="100%" viewBox="0 0 80 80" fill="none" xmlns="http://www.w3.org/2000/svg">
<path fill-rule="evenodd" clip-rule="evenodd" d="M48.609 55.1919H33.751C32.7712 55.1919 31.9759 54.396 31.9759 53.4153C31.9759 52.4346 32.7712 51.6388 33.751 51.6388H48.609C49.5887 51.6388 50.3841 52.4346 50.3841 53.4153C50.3841 54.396 49.5887 55.1919 48.609 55.1919Z"/>
<path fill-rule="evenodd" clip-rule="evenodd" d="M68.2247 55.1919H59.491C58.5111 55.1919 57.716 54.3962 57.716 53.4155C57.716 52.4349 58.5111 51.639 59.491 51.639H66.4496V42.0995C66.4496 40.1365 64.861 38.5466 62.8994 38.5466H11.7751C10.7953 38.5466 10 37.7506 10 36.7699C10 35.7894 10.7953 34.9937 11.7751 34.9937H62.8994C66.8206 34.9937 70 38.1753 70 42.0995V53.4155C70 54.3962 69.2048 55.1919 68.2247 55.1919Z"/>
<path fill-rule="evenodd" clip-rule="evenodd" d="M18.0412 55.1919H15.3251C14.3452 55.1919 13.5498 54.3962 13.5498 53.4155V36.8413C13.5498 35.8605 14.3452 35.0648 15.3251 35.0648C16.3048 35.0648 17.1004 35.8605 17.1004 36.8413V51.6392H17.9879C18.9676 51.6392 19.763 52.435 19.763 53.4155C19.763 54.3962 18.9676 55.1919 17.9879 55.1919H18.0412Z"/>
<path fill-rule="evenodd" clip-rule="evenodd" d="M28.3017 60.6807C24.3111 60.6807 21.0767 57.4439 21.0767 53.4506C21.0767 49.4571 24.3111 46.2203 28.3017 46.2203C32.2922 46.2203 35.5267 49.4571 35.5267 53.4506C35.5267 57.4439 32.2922 60.6807 28.3017 60.6807ZM28.3017 49.791C26.2727 49.791 24.627 51.4379 24.627 53.4682C24.627 55.4987 26.2727 57.1454 28.3017 57.1454C30.3306 57.1454 31.9763 55.4987 31.9763 53.4682C31.9763 53.4629 31.9763 53.4557 31.9763 53.4506C31.9675 51.4271 30.3236 49.791 28.3017 49.791Z"/>
<path fill-rule="evenodd" clip-rule="evenodd" d="M54.0409 60.6807C50.0503 60.6807 46.816 57.4439 46.816 53.4506C46.816 49.4571 50.0503 46.2203 54.0409 46.2203C58.0315 46.2203 61.2659 49.4571 61.2659 53.4506C61.2659 57.4439 58.0315 60.6807 54.0409 60.6807ZM54.0409 49.791C52.0119 49.791 50.3662 51.4379 50.3662 53.4682C50.3662 55.4987 52.0119 57.1454 54.0409 57.1454C56.0698 57.1454 57.7155 55.4987 57.7155 53.4682C57.7155 53.4629 57.7155 53.4557 57.7155 53.4506C57.7155 51.4289 56.0788 49.791 54.0587 49.791C54.0532 49.791 54.0462 49.791 54.0409 49.791Z"/>
<path fill-rule="evenodd" clip-rule="evenodd" d="M54.0409 38.6167C53.3289 38.6167 52.6865 38.1904 52.4078 37.5331L47.0823 24.6182C46.8036 23.9807 46.1806 23.5648 45.4847 23.5523H26.2422C25.6387 23.5666 25.0831 23.888 24.7689 24.405L16.9048 37.7462C16.3279 38.5402 15.2185 38.7144 14.4251 38.1389C13.7452 37.6433 13.5054 36.7371 13.8517 35.97L21.7156 22.6286C22.6689 21.0334 24.3853 20.0511 26.2422 20.0351H45.5025C47.6275 20.0511 49.5375 21.3282 50.3665 23.2859L55.6917 36.2008C56.0699 37.105 55.6439 38.146 54.7403 38.5261C54.7368 38.5261 54.735 38.5279 54.7333 38.5279C54.5095 38.6007 54.2752 38.6308 54.0409 38.6167Z"/>
<path fill-rule="evenodd" clip-rule="evenodd" d="M35.6859 41.0332C34.706 41.0332 33.9107 40.2373 33.9107 39.2568V21.7764C33.9107 20.7957 34.706 19.9999 35.6859 19.9999C36.6658 19.9999 37.4612 20.7957 37.4612 21.7764V39.2568C37.4612 40.2373 36.6658 41.0332 35.6859 41.0332Z"/>
</svg>
