<svg width="100%" height="100%" viewBox="0 0 80 80" fill="none" xmlns="http://www.w3.org/2000/svg">
<path fill-rule="evenodd" clip-rule="evenodd" d="M31.2672 26.3975C30.303 26.3975 29.5205 25.6134 29.5205 24.6475V11.7499C29.5205 10.7838 30.303 9.99994 31.2672 9.99994C32.2317 9.99994 33.0142 10.7838 33.0142 11.7499V24.6475C33.0142 25.6134 32.2317 26.3975 31.2672 26.3975Z"/>
<path fill-rule="evenodd" clip-rule="evenodd" d="M48.5259 26.3975C47.5616 26.3975 46.7791 25.6134 46.7791 24.6475V11.7499C46.7791 10.7838 47.5616 9.99994 48.5259 9.99994C49.4903 9.99994 50.2728 10.7838 50.2728 11.7499V24.6475C50.2728 25.6134 49.4903 26.3975 48.5259 26.3975Z"/>
<path fill-rule="evenodd" clip-rule="evenodd" d="M58.1686 66H21.9218C18.6517 66 16 63.3435 16 60.0674V31.1227C16 30.1566 16.7825 29.3725 17.7469 29.3725H62.3435C63.3076 29.3725 64.0903 30.1566 64.0903 31.1227V60.0674C64.0903 63.3435 61.4386 66 58.1686 66ZM19.4937 32.8726V60.0674C19.4937 61.4115 20.5802 62.5001 21.9218 62.5001H58.1686C59.5049 62.4912 60.588 61.4063 60.5966 60.0674V32.8726H19.4937Z"/>
<path fill-rule="evenodd" clip-rule="evenodd" d="M62.3435 32.8716H17.7469C16.7825 32.8716 16 32.0875 16 31.1218V20.9017C16 19.9356 16.7825 19.1517 17.7469 19.1517H62.3435C63.3076 19.1517 64.0903 19.9356 64.0903 20.9017V26.0117C64.0903 26.9777 63.3076 27.7616 62.3435 27.7616C61.3793 27.7616 60.5966 26.9777 60.5966 26.0117V22.6518H19.4937V29.3717H62.3435C63.3076 29.3717 64.0903 30.1557 64.0903 31.1218C64.0903 32.0875 63.3076 32.8716 62.3435 32.8716Z"/>
</svg>
