<svg width="100%" height="100%" viewBox="0 0 80 80" fill="none" xmlns="http://www.w3.org/2000/svg">
<path fill-rule="evenodd" clip-rule="evenodd" d="M30.092 61.4995C29.58 61.4975 29.0895 61.2901 28.731 60.9233L17.6331 49.6518C16.1632 48.0945 14.6163 46.6141 12.9947 45.2162C12.573 44.8705 12.1512 44.4864 11.7488 44.1025L11.5956 43.9488C10.8289 43.2172 10.7981 41.9998 11.5284 41.2317C12.2587 40.4637 13.474 40.4329 14.2407 41.1645L14.3937 41.3181C14.7389 41.6446 15.0646 41.9711 15.4288 42.2591C17.1558 43.7434 18.8062 45.3121 20.374 46.9636L30.092 56.8334L63.7113 22.5769C64.4531 21.8186 65.6664 21.8051 66.4235 22.5482C67.1805 23.2912 67.194 24.5068 66.4522 25.2653L31.4721 60.9233C31.1096 61.2939 30.6114 61.5033 30.092 61.4995Z"/>
</svg>
