<svg width="100%" height="100%" viewBox="0 0 80 80" fill="none" xmlns="http://www.w3.org/2000/svg">
<path fill-rule="evenodd" clip-rule="evenodd" d="M37.1241 26.7534C36.0997 26.7534 35.2683 25.9216 35.2683 24.8966V19.1397C35.2683 18.1147 36.0997 17.2827 37.1241 17.2827C38.1483 17.2827 38.9797 18.1147 38.9797 19.1397V24.8966C38.9797 25.9216 38.1483 26.7534 37.1241 26.7534Z"/>
<path fill-rule="evenodd" clip-rule="evenodd" d="M37.1239 46.5693H14.8558C13.8314 46.5693 13 45.7375 13 44.7123V19.1409C13 18.1159 13.8314 17.2839 14.8558 17.2839C15.8802 17.2839 16.7116 18.1159 16.7116 19.1409V42.8553H35.2683V36.2257C35.2683 35.2005 36.0997 34.3687 37.1239 34.3687C38.1482 34.3687 38.9797 35.2005 38.9797 36.2257V44.7123C38.9797 45.7375 38.1482 46.5693 37.1239 46.5693Z"/>
<path fill-rule="evenodd" clip-rule="evenodd" d="M37.1238 26.7534C36.7305 26.7552 36.3482 26.631 36.029 26.4006L25.9899 19.1395L15.9505 26.4006C15.1248 26.9949 13.9743 26.8129 13.3713 25.992C12.7662 25.1638 12.9461 24.0032 13.7738 23.396C13.7756 23.396 13.7775 23.394 13.7793 23.3923L24.9135 15.3512C25.5612 14.8832 26.4369 14.8832 27.0846 15.3512L38.2187 23.3923C39.0481 23.994 39.2337 25.1565 38.6307 25.9864C38.6307 25.9883 38.6289 25.9903 38.627 25.992C38.2763 26.4712 37.7178 26.7552 37.1238 26.7534Z"/>
<path fill-rule="evenodd" clip-rule="evenodd" d="M33.5058 65.7515H18.3822C17.3578 65.7515 16.5264 64.9194 16.5264 63.8944V49.4467C16.5264 48.4217 17.3578 47.5897 18.3822 47.5897C19.4063 47.5897 20.2378 48.4217 20.2378 49.4467V62.0374H31.65V44.7114C31.65 43.6864 32.4814 42.8543 33.5058 42.8543C34.5301 42.8543 35.3614 43.6864 35.3614 44.7114V63.8944C35.3614 64.9194 34.5301 65.7515 33.5058 65.7515Z"/>
<path fill-rule="evenodd" clip-rule="evenodd" d="M61.8042 65.7515H33.5053C32.4809 65.7515 31.6494 64.9194 31.6494 63.8944V51.8794C31.6494 50.8544 32.4809 50.0223 33.5053 50.0223H59.9484V45.7511C59.9484 44.7261 60.7796 43.8941 61.8042 43.8941C62.8283 43.8941 63.6596 44.7261 63.6596 45.7511V50.0223H65.1443C66.1685 50.0223 66.9999 50.8544 66.9999 51.8794C66.9999 52.9044 66.1685 53.7364 65.1443 53.7364H63.6596V63.8944C63.6596 64.9194 62.8283 65.7515 61.8042 65.7515ZM35.3608 62.0374H59.9484V53.7364H35.3608V62.0374Z"/>
<path fill-rule="evenodd" clip-rule="evenodd" d="M47.181 53.7358C46.1566 53.7358 45.3252 52.9038 45.3252 51.8786V45.7506C45.3252 44.7256 46.1566 43.8935 47.181 43.8935C48.2053 43.8935 49.0368 44.7256 49.0368 45.7506V51.8786C49.0368 52.9038 48.2053 53.7358 47.181 53.7358Z"/>
<path fill-rule="evenodd" clip-rule="evenodd" d="M25.9896 40.998C21.5322 41.0091 17.91 37.399 17.8987 32.9385C17.8895 28.4779 21.4951 24.8529 25.9523 24.8418C30.4098 24.8308 34.0322 28.4407 34.0433 32.9014C34.0433 32.9145 34.0433 32.9256 34.0433 32.9385C34.034 37.3861 30.434 40.9886 25.9896 40.998ZM25.9896 28.5745C23.5809 28.5634 21.6213 30.5095 21.6101 32.9198C21.599 35.3304 23.5436 37.2913 25.9523 37.3026C28.361 37.3118 30.3208 35.3674 30.3318 32.9571C30.3318 32.9515 30.3318 32.944 30.3318 32.9385C30.3523 30.5281 28.4169 28.5577 26.0082 28.5374C26.0025 28.5374 25.9951 28.5374 25.9896 28.5374V28.5745Z"/>
<path fill-rule="evenodd" clip-rule="evenodd" d="M27.3633 34.7568H25.9901C24.9659 34.7568 24.1345 33.9248 24.1345 32.8998V31.0426C24.1345 30.0176 24.9659 29.1856 25.9901 29.1856C27.0145 29.1856 27.8459 30.0176 27.8459 31.0426C28.7014 31.245 29.299 32.0195 29.2748 32.8998C29.2748 33.9248 28.4454 34.7568 27.419 34.7568C27.4006 34.7568 27.3818 34.7568 27.3633 34.7568Z"/>
<path fill-rule="evenodd" clip-rule="evenodd" d="M23.5404 53.7734C22.5162 53.7734 21.6848 52.9414 21.6848 51.9164V49.3721C21.6848 48.3471 22.5162 47.515 23.5404 47.515C24.5648 47.515 25.3962 48.3471 25.3962 49.3721V51.9164C25.3962 52.9414 24.5648 53.7734 23.5404 53.7734Z"/>
<path fill-rule="evenodd" clip-rule="evenodd" d="M28.3465 53.7734C27.3221 53.7734 26.4907 52.9414 26.4907 51.9164V49.3721C26.4907 48.3471 27.3221 47.515 28.3465 47.515C29.3709 47.515 30.2023 48.3471 30.2023 49.3721V51.9164C30.2023 52.9414 29.3709 53.7734 28.3465 53.7734Z"/>
<path fill-rule="evenodd" clip-rule="evenodd" d="M28.3465 61.0537C27.3221 61.0537 26.4907 60.2219 26.4907 59.1967V56.6523C26.4907 55.6273 27.3221 54.7953 28.3465 54.7953C29.3709 54.7953 30.2023 55.6273 30.2023 56.6523V59.1967C30.2023 60.2219 29.3709 61.0537 28.3465 61.0537Z"/>
<path fill-rule="evenodd" clip-rule="evenodd" d="M23.5404 61.0537C22.5162 61.0537 21.6848 60.2219 21.6848 59.1967V56.6523C21.6848 55.6273 22.5162 54.7953 23.5404 54.7953C24.5648 54.7953 25.3962 55.6273 25.3962 56.6523V59.1967C25.3962 60.2219 24.5648 61.0537 23.5404 61.0537Z"/>
<path fill-rule="evenodd" clip-rule="evenodd" d="M42.9698 61.0537C41.9454 61.0537 41.114 60.2219 41.114 59.1967V56.6523C41.114 55.6273 41.9454 54.7953 42.9698 54.7953C43.9942 54.7953 44.8256 55.6273 44.8256 56.6523V59.1967C44.8256 60.2219 43.9942 61.0537 42.9698 61.0537Z"/>
<path fill-rule="evenodd" clip-rule="evenodd" d="M38.2372 61.0537C37.2128 61.0537 36.3813 60.2219 36.3813 59.1967V56.6523C36.3813 55.6273 37.2128 54.7953 38.2372 54.7953C39.2614 54.7953 40.0928 55.6273 40.0928 56.6523V59.1967C40.0928 60.2219 39.2614 61.0537 38.2372 61.0537Z"/>
<path fill-rule="evenodd" clip-rule="evenodd" d="M52.4144 61.0537C51.3902 61.0537 50.5588 60.2219 50.5588 59.1967V56.6523C50.5588 55.6273 51.3902 54.7953 52.4144 54.7953C53.4388 54.7953 54.2702 55.6273 54.2702 56.6523V59.1967C54.2702 60.2219 53.4388 61.0537 52.4144 61.0537Z"/>
<path fill-rule="evenodd" clip-rule="evenodd" d="M57.1466 61.0537C56.1222 61.0537 55.2908 60.2219 55.2908 59.1967V56.6523C55.2908 55.6273 56.1222 54.7953 57.1466 54.7953C58.1708 54.7953 59.0024 55.6273 59.0024 56.6523V59.1967C59.0024 60.2219 58.1708 61.0537 57.1466 61.0537Z"/>
<path fill-rule="evenodd" clip-rule="evenodd" d="M47.6827 61.0537C46.6583 61.0537 45.8269 60.2219 45.8269 59.1967V56.6523C45.8269 55.6273 46.6583 54.7953 47.6827 54.7953C48.7071 54.7953 49.5385 55.6273 49.5385 56.6523V59.1967C49.5385 60.2219 48.7071 61.0537 47.6827 61.0537Z"/>
<path fill-rule="evenodd" clip-rule="evenodd" d="M37.1236 38.082C36.0994 38.082 35.268 37.2502 35.268 36.2252C35.268 32.3997 30.3875 29.0198 25.9894 28.537C24.9652 28.4237 24.2247 27.5006 24.3378 26.4756C24.4512 25.4504 25.3733 24.7096 26.3979 24.8228C32.466 25.4729 38.9607 30.1896 38.9607 36.188C38.9812 37.213 38.1663 38.0616 37.1422 38.082C37.1366 38.082 37.1293 38.082 37.1236 38.082Z"/>
</svg>
