<svg width="100%" height="100%" viewBox="0 0 80 80" fill="none" xmlns="http://www.w3.org/2000/svg">
<path fill-rule="evenodd" clip-rule="evenodd" d="M35.1872 47.4185H16.6721C16.1771 47.4147 15.6962 47.2806 15.3014 47.0352L14.9993 46.8629C14.6903 46.6636 14.4438 46.4087 14.2788 46.1154C14.1187 45.8261 14.0234 45.5137 14.0001 45.1957L14.0002 16.1466C13.9979 15.9188 14.0445 15.6905 14.1395 15.476C14.3906 14.9088 14.911 14.4527 15.5802 14.2113L15.8823 14.1152C16.1426 14.0369 16.4188 13.9984 16.6955 14.0003H35.35C35.7471 13.9946 36.1399 14.0751 36.4883 14.2303C36.8693 14.4104 37.1947 14.6596 37.4409 14.9584L37.65 15.265C37.88 15.5564 38.0007 15.8956 37.9987 16.2425L37.9986 45.0232C37.996 45.4983 37.7823 45.9563 37.3944 46.3071L36.9527 46.7096C36.5208 47.1503 35.8746 47.409 35.1872 47.4185ZM17.908 43.7044H33.9979L33.998 17.715H17.9081L17.908 43.7044Z"/>
<path fill-rule="evenodd" clip-rule="evenodd" d="M63.1885 65.9897H44.6704C44.1754 65.9859 43.6945 65.8518 43.2997 65.6065L42.9976 65.4342C42.6886 65.2348 42.4421 64.98 42.2771 64.6867C42.117 64.3974 42.0217 64.085 41.9984 63.767L41.9985 42.1461C41.9962 41.9182 42.0428 41.69 42.1378 41.4754C42.3889 40.9082 42.9093 40.4521 43.5785 40.2107L43.8806 40.1146C44.1409 40.0363 44.4171 39.9978 44.6938 39.9997H63.3513C63.7484 39.994 64.1412 40.0745 64.4896 40.2297C64.8706 40.4099 65.196 40.659 65.4422 40.9578L65.6512 41.2644C65.8813 41.5558 66.002 41.895 66 42.242L65.9999 63.5945C65.9973 64.0696 65.7836 64.5276 65.3957 64.8784L64.954 65.2809C64.522 65.7216 63.8759 65.9802 63.1885 65.9897ZM45.9063 62.2757H61.9992L61.9993 43.7144H45.9064L45.9063 62.2757Z"/>
<path fill-rule="evenodd" clip-rule="evenodd" d="M35.1901 65.9897H16.672C16.177 65.9859 15.6961 65.8518 15.3013 65.6065L14.9992 65.4342C14.6902 65.2348 14.4437 64.98 14.2787 64.6867C14.1186 64.3974 14.0233 64.085 14 63.767L14.0001 53.2883C13.9978 53.0604 14.0444 52.8322 14.1394 52.6176C14.3905 52.0504 14.9109 51.5943 15.5801 51.3529L15.8822 51.2569C16.1425 51.1785 16.4187 51.1401 16.6954 51.142H35.3529C35.75 51.1363 36.1428 51.2167 36.4912 51.3719C36.8722 51.5521 37.1976 51.8012 37.4438 52.1L37.6529 52.4066C37.8829 52.698 38.0036 53.0372 38.0016 53.3842L38.0015 63.5945C37.9989 64.0696 37.7852 64.5276 37.3973 64.8784L36.9556 65.2809C36.5237 65.7216 35.8775 65.9802 35.1901 65.9897ZM17.9079 62.2757H34.0008L34.0009 54.8566H17.908L17.9079 62.2757Z"/>
<path fill-rule="evenodd" clip-rule="evenodd" d="M63.1885 36.2773H44.6704C44.1754 36.2735 43.6945 36.1394 43.2997 35.8941L42.9976 35.7218C42.6886 35.5224 42.4421 35.2676 42.2771 34.9742C42.117 34.685 42.0217 34.3726 41.9984 34.0546L41.9985 16.1477C41.9962 15.9199 42.0428 15.6916 42.1378 15.4771C42.3889 14.9099 42.9093 14.4538 43.5785 14.2124L43.8806 14.1163C44.1409 14.038 44.4171 13.9995 44.6938 14.0014H63.3513C63.7484 13.9957 64.1412 14.0762 64.4896 14.2314C64.8706 14.4115 65.196 14.6607 65.4422 14.9595L65.6512 15.2661C65.8813 15.5575 66.002 15.8967 66 16.2436L65.9999 33.8821C65.9973 34.3572 65.7836 34.8152 65.3957 35.166L64.954 35.5685C64.522 36.0092 63.8759 36.2678 63.1885 36.2773ZM45.9063 32.5633H61.9992L61.9993 17.7161H45.9064L45.9063 32.5633Z"/>
</svg>
