<svg width="100%" height="100%" viewBox="0 0 80 80" fill="none" xmlns="http://www.w3.org/2000/svg">
<path fill-rule="evenodd" clip-rule="evenodd" d="M17.4697 65.9999C16.8168 65.9973 16.1886 65.7376 15.7253 65.2759C14.7582 64.3023 14.7582 62.7296 15.7253 61.756L44.9797 32.4239C45.9564 31.4454 47.5414 31.4454 48.5181 32.4239C49.495 33.4025 49.495 34.9901 48.5181 35.9686L19.2389 65.2759C18.7679 65.7428 18.1325 66.0049 17.4697 65.9999Z"/>
<path fill-rule="evenodd" clip-rule="evenodd" d="M62.6215 65.9999C61.9587 66.0049 61.3233 65.7428 60.8523 65.2759L15.725 20.0666C14.8302 19.0207 14.9525 17.443 15.9965 16.5467C16.9283 15.7456 18.3065 15.7456 19.2383 16.5467L64.3158 61.756C65.2829 62.7296 65.2829 64.3023 64.3158 65.2759C63.8649 65.7253 63.2571 65.985 62.6215 65.9999Z"/>
<path fill-rule="evenodd" clip-rule="evenodd" d="M26.5394 56.8383C25.8766 56.8433 25.2412 56.5812 24.7702 56.1143C23.7936 55.1433 23.7862 53.563 24.7554 52.5844C24.7603 52.5795 24.7653 52.5745 24.7702 52.5695L48.3685 28.9539C52.3803 24.9349 56.5419 20.7658 58.3361 15.7732C58.7345 14.4526 60.1275 13.7087 61.4433 14.108C62.7615 14.5099 63.504 15.9031 63.1055 17.2234C63.0877 17.2809 63.0679 17.3384 63.0454 17.3958C60.9525 23.4868 56.1679 28.2549 51.9566 32.3739L28.3836 56.0145C27.9126 56.5362 27.2423 56.8359 26.5394 56.8383Z"/>
</svg>
