<svg width="100%" height="100%" viewBox="0 0 80 80" fill="none" xmlns="http://www.w3.org/2000/svg">
<path fill-rule="evenodd" clip-rule="evenodd" d="M51.3821 68H27.6111C24.5114 68 22 65.4918 22 62.3964V53.7314C22.0016 53.2534 22.1953 52.795 22.5377 52.4603C22.8711 52.1289 23.3229 51.9427 23.7926 51.9412H47.4382V23.2966H31.5549V48.3607C31.5549 49.3487 30.7517 50.1509 29.7623 50.1509C28.7727 50.1509 27.9696 49.3487 27.9696 48.3607V21.5064C27.9696 20.5181 28.7727 19.7161 29.7623 19.7161H49.2309C50.2205 19.7161 51.0237 20.5181 51.0237 21.5064V53.7314C51.0273 54.2076 50.8388 54.6643 50.5036 55.0025C50.1649 55.3372 49.7077 55.5252 49.2309 55.5216H25.5854V62.3964C25.5854 63.5135 26.4924 64.4193 27.6111 64.4193H51.3821C52.4919 64.4302 53.3972 63.5404 53.408 62.432C53.408 62.4195 53.408 62.4088 53.408 62.3964V17.6394C53.4187 16.5312 52.5277 15.6271 51.4179 15.6163C51.4055 15.6163 51.3945 15.6163 51.3821 15.6163H27.6111C26.851 15.6343 26.1625 16.0674 25.8183 16.7443C25.6748 17.0216 25.6014 17.3279 25.6032 17.6394V47.6444C25.6032 48.6327 24.8 49.4347 23.8106 49.4347C22.821 49.4347 22.0177 48.6327 22.0177 47.6444V17.6034C22.016 16.7478 22.2133 15.901 22.5915 15.1329C23.5415 13.2209 25.4922 12.0071 27.6289 12H51.4001C54.4996 12 57.0113 14.5081 57.0113 17.6034V62.3604C57.031 65.456 54.5354 67.9802 51.4359 68C51.4179 68 51.4001 68 51.3821 68Z"/>
<path fill-rule="evenodd" clip-rule="evenodd" d="M39.4963 57.4728C40.8728 57.4728 41.9885 57.4728 41.9885 57.4728V62.4321C41.9885 62.4321 40.8728 62.4321 39.4963 62.4321H39.5144V57.4728C38.1379 57.4728 37.0225 57.4728 37.0225 57.4728C37.0225 57.4728 38.1379 57.4728 39.5144 57.4728H39.4963Z"/>
<path fill-rule="evenodd" clip-rule="evenodd" d="M44.1395 38.5513L44.7492 38.6409L45.2691 38.9631L45.6097 39.554L45.771 40.0551L45.6097 40.7173L45.2691 41.2189L44.7492 41.5589L44.1395 41.8096L43.4584 41.5589L42.9384 41.2189L42.5978 40.7173L42.5081 40.0551L42.5978 39.554L42.9384 38.9631L43.4584 38.6409L44.1395 38.5513Z"/>
<path fill-rule="evenodd" clip-rule="evenodd" d="M37.5604 38.5513L38.1698 38.6409L38.6897 38.9631L39.0303 39.554L39.1917 40.0551L39.0303 40.7173L38.6897 41.2189L38.1698 41.5589L37.5604 41.8096L36.8791 41.5589L36.359 41.2189L36.0184 40.7173L35.9288 40.0551L36.0184 39.554L36.359 38.9631L36.8791 38.6409L37.5604 38.5513Z"/>
<path fill-rule="evenodd" clip-rule="evenodd" d="M43.9959 38.5493H37.3809L37.0761 38.4598L36.9149 38.2451L35.5883 32.7666H33.5446L33.3831 32.695L33.222 32.3906L33.3831 32.0684L33.5446 31.9251H35.8214L36.126 32.0684L36.2157 32.2295L36.5204 33.4648H44.7669H45L45.0895 33.626L45.1613 33.6977V33.9302L44.4621 38.2451L44.3008 38.4598L43.9959 38.5493Z"/>
</svg>
