<svg width="100%" height="100%" viewBox="0 0 80 80" fill="none" xmlns="http://www.w3.org/2000/svg">
<path fill-rule="evenodd" clip-rule="evenodd" d="M43.3628 67.9784H36.5989C36.4622 67.9942 36.324 67.9942 36.1873 67.9784L35.6278 67.836C35.2574 67.7442 34.9316 67.5323 34.7061 67.235L34.2784 66.6656C34.1071 66.4361 34.0002 66.1704 33.9655 65.8904L33.3731 60.0532L31.9084 59.6419L31.5629 59.4995L30.3944 58.8825L25.7533 62.3311C25.6808 62.396 25.5968 62.4497 25.5064 62.4894L24.9468 62.7741C24.713 62.8895 24.453 62.9496 24.1897 62.948C23.808 62.9512 23.431 62.8531 23.1036 62.6633L22.6758 62.3784C22.5753 62.309 22.4814 62.2299 22.3958 62.1413L17.7547 57.2058C17.7086 57.171 17.6693 57.1283 17.6397 57.0794L17.2117 56.5098C16.9318 56.1349 16.8349 55.662 16.9484 55.2127L17.0802 54.6433C17.1475 54.4265 17.2528 54.224 17.3929 54.042L20.997 49.5971L20.3056 48.2209C20.2744 48.164 20.2481 48.1069 20.2232 48.0468L19.7132 46.5916L14.1013 45.8638C13.8083 45.8306 13.5285 45.7198 13.2947 45.5474L12.7352 45.1203C12.4423 44.8941 12.235 44.5841 12.1428 44.2345L12.0112 43.6809C11.9963 43.5606 11.9963 43.4373 12.0112 43.317V36.5308C12.0128 36.3696 12.0408 36.2097 12.0934 36.0563L12.225 35.6292C12.3286 35.3286 12.523 35.0629 12.7845 34.8698L13.3441 34.4428C13.5778 34.2704 13.8577 34.1597 14.1506 34.1264L19.7626 33.3987L20.2729 31.9435C20.2975 31.8834 20.3238 31.8265 20.3551 31.7695L21.0464 30.3932L17.4421 25.9481C17.3023 25.7663 17.1968 25.5638 17.1295 25.347L16.9978 24.7776C16.8842 24.3283 16.9812 23.8553 17.2611 23.4804L17.689 22.911C17.7186 22.8619 17.758 22.8193 17.8041 22.7844L22.4453 17.849C22.5752 17.7067 22.7315 17.5897 22.9061 17.5011L23.4821 17.2162C23.956 16.9804 24.5221 16.9804 24.996 17.2162L25.5557 17.5011C25.6463 17.5404 25.7301 17.5942 25.8026 17.6592L30.4436 21.1077L31.6121 20.4908L31.9578 20.3483L33.4225 19.9372L34.0149 14.1001C34.0496 13.8201 34.1565 13.5543 34.3276 13.325L34.7555 12.7554C34.9811 12.458 35.3069 12.2461 35.6772 12.1543L36.2367 12.0119C36.3734 11.996 36.5115 11.996 36.6484 12.0119H43.4123C43.549 11.996 43.6871 11.996 43.8237 12.0119L44.3997 12.1543C44.9857 12.2999 45.4398 12.7443 45.5846 13.309L45.7163 13.8784L46.605 19.9687L47.8724 20.3642L48.1192 20.4591L49.4522 21.1234L54.1098 17.6592L54.3568 17.5011L54.9326 17.2162C55.4067 16.9804 55.9728 16.9804 56.4467 17.2162L57.0065 17.5011C57.1709 17.5833 57.3206 17.6891 57.4507 17.8175L62.2564 22.7686C62.444 22.9664 62.5805 23.2051 62.6513 23.4646L62.7829 24.034C62.8488 24.2778 62.8488 24.534 62.7829 24.7776L62.6513 25.347C62.5968 25.5479 62.5015 25.7362 62.3716 25.9007L58.8989 30.4566L60.051 33.4146L65.7287 34.1421C66.0186 34.174 66.2917 34.2831 66.5188 34.4585L67.0948 34.8858C67.2364 34.9979 67.3582 35.1324 67.4569 35.2811L67.7368 35.6924C67.9077 35.9471 68 36.243 68 36.5467V43.333C68.0018 43.5686 67.9456 43.8026 67.8355 44.0132L67.5556 44.5826C67.4455 44.7961 67.2874 44.9859 67.0948 45.1362L66.5188 45.5633C66.2917 45.7388 66.0186 45.848 65.7287 45.8797L60.051 46.6074L58.8989 49.5654L62.322 54.1054C62.452 54.27 62.5476 54.4582 62.6019 54.659L62.7337 55.2285C62.7994 55.4721 62.7994 55.7285 62.7337 55.9719L62.6019 56.5413C62.5311 56.8008 62.3944 57.0397 62.2069 57.2375L57.105 62.4734C56.7957 62.7852 56.3677 62.9623 55.92 62.9639H55.4922C55.1564 62.9623 54.8291 62.8641 54.5541 62.6792L54.1428 62.3945L49.4028 58.8825L48.0698 59.5471L47.823 59.6419L46.5558 60.0374L45.5354 66.6971C45.3906 67.2618 44.9363 67.7064 44.3505 67.8518L43.7743 67.9942C43.6377 68.0054 43.4995 68.0005 43.3628 67.9784ZM37.1749 64.8146H42.5401L43.4288 58.4873C43.5176 57.8893 43.9506 57.3927 44.5479 57.2058L46.6872 56.5413L48.8105 55.4659C49.3831 55.1779 50.0793 55.2397 50.5877 55.624L55.5251 59.3097L59.3269 55.4025L55.706 50.6569C55.3853 50.2314 55.3045 49.6794 55.4922 49.1858L56.3316 46.9238L57.3355 44.4877C57.5525 43.9499 58.0564 43.567 58.652 43.4911L64.692 42.7317V37.1003L58.652 36.3411C58.0564 36.2651 57.5525 35.8824 57.3355 35.3445L55.4922 30.5988C55.3045 30.1053 55.3853 29.5533 55.706 29.1278L59.3269 24.3821L55.5251 20.4749L50.5877 24.1606C50.0793 24.5451 49.3831 24.6067 48.8105 24.3189L46.6872 23.2431L44.5479 22.5788C43.9506 22.3921 43.5176 21.8955 43.4288 21.2975L42.5401 14.9699H37.1749L36.5494 21.1551C36.4819 21.799 36.0113 22.3385 35.3645 22.5156L33.0111 23.1799L31.0527 24.224C30.4733 24.5292 29.7606 24.4739 29.2422 24.0815L24.3051 20.3959L20.4868 24.4453L24.2391 29.0645C24.5915 29.5216 24.6605 30.1259 24.4202 30.6462L23.3339 32.8293L22.511 35.1388C22.3119 35.7067 21.7952 36.1164 21.1779 36.1988L15.2698 36.9422V42.6053L21.1779 43.3487C21.7952 43.431 22.3119 43.8406 22.511 44.4084L23.3339 46.7181L24.4202 48.9011C24.6605 49.4216 24.5915 50.0258 24.2391 50.4829L20.4868 55.102L24.3051 59.1516L29.2422 55.4659C29.7606 55.0736 30.4733 55.0182 31.0527 55.3234L33.0111 56.3675L35.3645 57.0319C36.0113 57.2089 36.4803 57.7484 36.5494 58.3924L37.1749 64.8146Z"/>
<path fill-rule="evenodd" clip-rule="evenodd" d="M39.9978 51.02C33.6355 51.0186 28.4774 46.0611 28.4792 39.9455C28.4807 33.83 33.6387 28.8724 40.001 28.8741C42.2394 28.8741 44.4285 29.5005 46.3012 30.6774C47.009 31.2247 47.1207 32.2213 46.5497 32.9015C46.0543 33.4948 45.1885 33.6625 44.4909 33.3034C40.6958 30.9005 35.5922 31.9114 33.0923 35.5591C30.5924 39.2068 31.6439 44.112 35.4392 46.515C39.2342 48.9163 44.3378 47.9071 46.8378 44.2593C47.7149 42.9779 48.1855 41.48 48.1939 39.9471C48.1955 39.335 48.1248 38.7243 47.98 38.1279C47.7743 37.2769 48.3272 36.4275 49.2127 36.2297H49.2143C50.0997 36.0336 50.9835 36.5635 51.1891 37.4145V37.4161C51.3868 38.2467 51.4871 39.0961 51.4855 39.9471C51.4855 46.0499 46.3474 51.0026 39.9978 51.02Z"/>
</svg>
