<svg width="100%" height="100%" viewBox="0 0 80 80" fill="none" xmlns="http://www.w3.org/2000/svg">
<path fill-rule="evenodd" clip-rule="evenodd" d="M17.8039 63.0189C16.0279 63.0376 14.2909 62.5037 12.833 61.4908C12.0565 60.9481 11.7827 59.9254 12.1832 59.0668C12.5378 58.2938 13.3968 57.887 14.2206 58.1008C14.7 58.2245 15.1145 58.5259 15.3798 58.9439C16.8271 59.7464 18.5959 59.6992 19.9994 58.821C20.8599 58.0132 20.895 57.3106 20.7722 55.3081C20.7722 54.869 20.5789 54.6932 19.1386 54.0785C18.6116 53.8503 18.0847 53.6217 17.593 53.3585C16.2916 52.6054 15.4641 51.2415 15.3975 49.7401C15.4009 48.1881 16.2123 46.7498 17.5402 45.9462C18.1023 45.5995 18.6908 45.2943 19.2967 45.0328C19.7639 44.8459 20.217 44.6225 20.6492 44.3653L20.8072 44.2423C20.8072 44.2423 20.8072 43.9964 20.8072 43.7682V43.1359C20.8072 41.5023 21.2816 40.8171 22.9326 40.1498L25.0227 39.3769L27.0954 38.6041C26.4824 37.9354 25.9255 37.2189 25.4267 36.4613C23.8197 34.3346 22.337 32.1177 20.9829 29.8218C20.8671 29.5811 20.8055 29.3167 20.8072 29.049V18.7561C20.8072 17.786 21.5942 16.9997 22.5636 16.9997C23.5332 16.9997 24.3202 17.786 24.3202 18.7561V28.6099C25.0227 29.8395 26.9547 32.5619 28.2896 34.4236C28.9395 35.3372 29.5368 36.1803 29.9409 36.7598C30.5345 37.6228 30.6978 38.7121 30.38 39.7106C30.0778 40.7203 29.3154 41.5283 28.3247 41.8888L26.2348 42.6614L24.3202 43.3816V43.8032C24.4765 45.2178 23.7896 46.5924 22.5636 47.3161C21.9734 47.6875 21.35 48.005 20.7019 48.2645C20.2382 48.448 19.7921 48.6713 19.367 48.932C19.0824 49.0774 18.8856 49.3526 18.8399 49.6698C18.8946 49.9565 19.0842 50.1988 19.3493 50.3198C19.7183 50.5306 20.1224 50.6885 20.5088 50.8643C22.5233 51.357 24.025 53.0403 24.2851 55.0973C24.7401 57.3721 24.0444 59.7255 22.4232 61.3853C21.1447 62.4942 19.4952 63.0779 17.8039 63.0189Z"/>
<path fill-rule="evenodd" clip-rule="evenodd" d="M51.2112 52.0762C43.6408 52.0762 34.2263 52.0762 33.6466 52.0762C32.6772 52.0762 31.8902 51.2898 31.8902 50.3197C31.8902 49.3495 32.6772 48.5633 33.6466 48.5633C33.875 48.5633 56.4805 48.6862 60.0988 48.5633C61.0561 48.6074 62.0115 48.4332 62.8917 48.0538C63.8436 47.2816 64.4127 46.1348 64.4547 44.9098V30.0151C64.4547 29.7341 64.4547 29.4354 64.4547 29.1368C64.5901 28.1781 64.4619 27.2009 64.0861 26.309C63.4185 24.9985 62.0416 24.206 60.5732 24.2892H38.2311V40.9227C38.2557 41.654 38.0203 42.3702 37.5634 42.9426C34.6391 46.4353 30.8819 49.1352 26.6383 50.7939C25.7549 51.1934 24.7132 50.8003 24.3146 49.9164C23.916 49.0324 24.3077 47.9921 25.1928 47.5926C25.2842 47.5508 25.3807 47.5171 25.4791 47.4917C29.043 46.0626 32.2116 43.7975 34.7181 40.8875V24.2189C34.7181 22.2786 36.2901 20.7058 38.2311 20.7058H60.5556C63.2552 20.6195 65.7757 22.0591 67.0719 24.4297C67.8236 25.8834 68.1292 27.5274 67.9502 29.1544C67.9502 29.4178 67.9502 29.6812 67.9502 29.9449V44.7693C67.9063 47.1964 66.7225 49.4611 64.7534 50.8817C63.3552 51.6236 61.7869 51.9869 60.2044 51.9357C58.9046 52.0586 55.3389 52.0762 51.2112 52.0762Z"/>
<path fill-rule="evenodd" clip-rule="evenodd" d="M57.5527 33.6333H44.7478C43.7784 33.6333 42.9915 32.8469 42.9915 31.8767C42.9915 30.9066 43.7784 30.1202 44.7478 30.1202H57.5527C58.5221 30.1202 59.3091 30.9066 59.3091 31.8767C59.3091 32.8469 58.5221 33.6333 57.5527 33.6333Z"/>
<path fill-rule="evenodd" clip-rule="evenodd" d="M57.5527 42.4155H44.7478C43.7784 42.4155 42.9915 41.6292 42.9915 40.6589C42.9915 39.6888 43.7784 38.9024 44.7478 38.9024H57.5527C58.5221 38.9024 59.3091 39.6888 59.3091 40.6589C59.3091 41.6292 58.5221 42.4155 57.5527 42.4155Z"/>
</svg>
