<svg width="100%" height="100%" viewBox="0 0 80 80" fill="none" xmlns="http://www.w3.org/2000/svg">
<path fill-rule="evenodd" clip-rule="evenodd" d="M35.8824 67.9998C22.69 67.9978 11.9973 57.2922 12 44.0915C12.0024 30.8887 22.699 20.1884 35.8915 20.1908C47.1919 20.193 56.9425 28.1183 59.2646 39.1851C59.4886 40.2724 58.7939 41.3371 57.7098 41.5696C56.6194 41.8038 55.5453 41.1087 55.311 40.0176C55.311 40.0096 55.3088 40.0016 55.307 39.9933C53.0575 29.2454 42.5259 22.3582 31.7856 24.6102C21.0457 26.862 14.1634 37.4007 16.4138 48.1488C18.6641 58.8968 29.1949 65.7832 39.935 63.5321C48.4154 61.7539 54.7657 54.6817 55.6301 46.0553C55.7472 44.946 56.7405 44.1398 57.8492 44.2571H57.8512C58.9516 44.3742 59.7531 45.3564 59.6483 46.4595C58.4791 58.7068 48.1771 68.0444 35.8824 67.9998Z"/>
<path fill-rule="evenodd" clip-rule="evenodd" d="M57.4275 42.1147C56.3129 42.1082 55.4142 41.1982 55.4204 40.0825C55.4244 39.312 55.8667 38.6113 56.5591 38.2755C62.3987 35.4924 64.8785 28.4988 62.0979 22.6551C59.3155 16.811 52.327 14.3299 46.4874 17.1129C45.4819 17.593 44.5489 18.214 43.717 18.958C42.8475 19.6565 41.5766 19.5171 40.8786 18.6467C40.2317 17.84 40.2978 16.6752 41.0315 15.9469C47.5415 10.1895 57.4821 10.8025 63.2348 17.3161C68.9875 23.8296 68.3756 33.7777 61.8659 39.5351C60.7895 40.4872 59.588 41.2873 58.2959 41.9127C58.0271 42.0481 57.7283 42.1173 57.4275 42.1147Z"/>
<path fill-rule="evenodd" clip-rule="evenodd" d="M22.0721 50.3203C20.3994 50.3203 19.0432 48.9625 19.0432 47.2892C19.0432 45.6161 20.3994 44.2581 22.0721 44.2581C23.745 44.2581 25.1012 45.6161 25.1012 47.2892C25.1012 48.9625 23.745 50.3203 22.0721 50.3203ZM22.0721 46.2787C21.5145 46.2787 21.0625 46.7317 21.0625 47.2892C21.0625 47.847 21.5145 48.2996 22.0721 48.2996C22.6296 48.2996 23.0819 47.847 23.0819 47.2892C23.0819 46.7317 22.6296 46.2787 22.0721 46.2787Z"/>
<path fill-rule="evenodd" clip-rule="evenodd" d="M35.8827 50.3203C34.21 50.3203 32.8538 48.9625 32.8538 47.2892C32.8538 45.6161 34.21 44.2581 35.8827 44.2581C37.5555 44.2581 38.9118 45.6161 38.9118 47.2892C38.9118 48.9625 37.5555 50.3203 35.8827 50.3203ZM35.8827 46.2787C35.3251 46.2787 34.8731 46.7317 34.8731 47.2892C34.8731 47.847 35.3251 48.2996 35.8827 48.2996C36.4402 48.2996 36.8924 47.847 36.8924 47.2892C36.8924 46.7317 36.4402 46.2787 35.8827 46.2787Z"/>
<path fill-rule="evenodd" clip-rule="evenodd" d="M42.6468 59.4331C40.9742 59.4331 39.6179 58.0751 39.6179 56.402C39.6179 54.7287 40.9742 53.3709 42.6468 53.3709C44.3188 53.3709 45.6759 54.7287 45.6759 56.402C45.6759 58.0751 44.3188 59.4331 42.6468 59.4331ZM42.6468 55.3916C42.0937 55.4016 41.6479 55.8482 41.6373 56.402C41.6373 56.9595 42.0893 57.4124 42.6468 57.4124C43.2044 57.4124 43.6566 56.9595 43.6566 56.402C43.6566 55.8442 43.2044 55.3916 42.6468 55.3916Z"/>
<path fill-rule="evenodd" clip-rule="evenodd" d="M46.3011 45.208C44.6294 45.208 43.2725 43.8503 43.2725 42.1772C43.2725 40.503 44.6294 39.146 46.3011 39.146C47.9731 39.146 49.3302 40.503 49.3302 42.1772C49.3302 43.8503 47.9731 45.208 46.3011 45.208ZM46.3011 41.1667C45.744 41.1667 45.2916 41.6192 45.2916 42.1772C45.2916 42.7349 45.744 43.1873 46.3011 43.1873C46.8587 43.1873 47.3109 42.7349 47.3109 42.1772C47.3109 41.6192 46.8587 41.1667 46.3011 41.1667Z"/>
<path fill-rule="evenodd" clip-rule="evenodd" d="M52.521 22.8789C50.8491 22.8789 49.4922 21.5216 49.4922 19.8478C49.4922 18.1736 50.8491 16.8167 52.521 16.8167C54.193 16.8167 55.5502 18.1736 55.5502 19.8478C55.5502 21.5216 54.193 22.8789 52.521 22.8789ZM52.521 18.8374C51.9639 18.8374 51.5115 19.2898 51.5115 19.8478C51.5115 20.4056 51.9639 20.8582 52.521 20.8582C53.0744 20.8473 53.5206 20.4013 53.5308 19.8478C53.5308 19.2898 53.0784 18.8374 52.521 18.8374Z"/>
<path fill-rule="evenodd" clip-rule="evenodd" d="M58.7196 30.6392C57.0476 30.6392 55.6909 29.2818 55.6909 27.6081C55.6909 25.9339 57.0476 24.577 58.7196 24.577C60.3915 24.577 61.7487 25.9339 61.7487 27.6081C61.7487 29.2818 60.3915 30.6392 58.7196 30.6392ZM58.7196 26.5976C58.1625 26.5976 57.71 27.0501 57.71 27.6081C57.71 28.1658 58.1625 28.6185 58.7196 28.6185C59.2771 28.6185 59.7293 28.1658 59.7293 27.6081C59.7293 27.0501 59.2771 26.5976 58.7196 26.5976Z"/>
<path fill-rule="evenodd" clip-rule="evenodd" d="M38.7916 33.4863C37.1189 33.4863 35.7627 32.1292 35.7627 30.4552C35.7627 28.7812 37.1189 27.4241 38.7916 27.4241C40.4642 27.4241 41.8205 28.7812 41.8205 30.4552C41.8205 32.1292 40.4642 33.4863 38.7916 33.4863ZM38.7916 29.4448C38.234 29.4448 37.782 29.8972 37.782 30.4552C37.7927 31.0088 38.2385 31.4548 38.7916 31.4657C39.3491 31.4657 39.8011 31.0132 39.8011 30.4552C39.8011 29.8972 39.3491 29.4448 38.7916 29.4448Z"/>
</svg>
