<svg width="100%" height="100%" viewBox="0 0 80 80" fill="none" xmlns="http://www.w3.org/2000/svg">
<path fill-rule="evenodd" clip-rule="evenodd" d="M40.2761 67C27.9785 66.9896 18.0117 57.0157 18.0012 44.7089C17.8768 32.8355 27.1776 22.9991 39.0317 22.4704C39.9992 22.4704 40.7844 23.2556 40.7844 24.2242C40.7844 25.193 39.9992 25.9782 39.0317 25.9782C29.114 26.5043 21.3802 34.7708 21.5064 44.7089C21.8235 55.0881 30.4881 63.2435 40.858 62.9277C50.7844 62.6245 58.7602 54.6427 59.0635 44.7089C59.0424 42.0346 58.4448 39.3966 57.311 36.9747C56.9148 36.0884 57.311 35.0478 58.1959 34.6507C59.0811 34.2537 60.1219 34.6501 60.5181 35.5364C65.5707 46.7716 60.5655 59.9795 49.3367 65.0359C46.4608 66.33 43.3431 67 40.1884 67H40.2761Z"/>
<path fill-rule="evenodd" clip-rule="evenodd" d="M49.4769 41.376C49.0422 41.375 48.6232 41.2125 48.3026 40.9201C43.9386 36.9741 38.4532 30.3971 37.3315 24.5394C37.1475 23.5706 37.7837 22.6364 38.7511 22.4524C39.7184 22.2684 40.6526 22.9042 40.8366 23.8728C41.6603 28.0646 45.6036 33.3435 49.5118 37.1669C55.3829 31.1512 58.1695 26.0478 57.8015 22.0139C57.3334 17.8099 53.8092 14.6138 49.582 14.5601C47.691 14.5888 45.8542 15.2015 44.3244 16.3139C43.5479 16.7787 43.0748 17.6188 43.0798 18.5236C43.1834 19.4752 43.6039 20.3644 44.2716 21.0493C44.7799 20.3938 45.3687 19.8047 46.0243 19.2953C47.4631 18.0302 49.468 17.629 51.2819 18.243C52.8365 18.7708 54.0177 20.0519 54.4189 21.6455C54.8817 23.5901 54.2017 25.6286 52.6664 26.907C51.0962 28.1066 48.9755 28.2975 47.2159 27.3981L46.2521 26.907C46.0732 27.641 45.4441 28.1783 44.6923 28.2399C43.7301 28.3211 42.8836 27.607 42.7996 26.644C42.719 25.9212 42.719 25.1919 42.7996 24.4693C41.0032 23.0395 39.8394 20.9614 39.5572 18.6817C39.4942 16.5759 40.5212 14.5873 42.2737 13.42C44.3698 11.894 46.8849 11.0491 49.4769 10.9998C55.5354 11.0147 60.5985 15.6131 61.2015 21.6455C61.692 27.1175 58.257 33.3961 50.6861 40.8149C50.3722 41.1541 49.9378 41.3559 49.4769 41.376ZM46.9179 23.3642C47.4789 23.7229 48.0641 24.0393 48.6706 24.3114C49.2121 24.6246 49.8815 24.6246 50.4231 24.3114C50.9139 23.8721 51.1172 23.1945 50.9489 22.5575C50.7823 22.1745 50.4546 21.8854 50.0551 21.7682C49.4015 21.5226 48.6654 21.6878 48.1799 22.1892C47.712 22.5276 47.2895 22.922 46.9179 23.3642Z"/>
<path fill-rule="evenodd" clip-rule="evenodd" d="M29.1822 63.704C28.7652 63.704 28.3605 63.555 28.0431 63.2831C27.307 62.6534 27.2212 61.5466 27.8503 60.8101C28.3551 60.2278 28.7302 59.5476 28.9546 58.8109C29.4539 57.0254 29.0562 55.1084 27.8853 53.6721C27.6224 53.3739 27.3246 53.0583 27.009 52.7428C25.7822 51.4622 24.0999 49.7086 24.5556 47.3234C25.0113 44.938 27.2195 43.8155 28.8492 43.079L29.1998 42.9037C31.1347 42.1657 32.5612 40.4937 32.9854 38.4665C32.9854 36.9581 32.1089 35.3272 29.9885 33.3451C28.8125 32.2429 27.519 31.2724 26.133 30.4515C25.2917 29.9673 25.0007 28.8914 25.4844 28.0486C25.9681 27.206 27.0442 26.9156 27.8853 27.3999C29.5187 28.3484 31.0366 29.4844 32.407 30.7846C34.1596 32.5385 36.6832 35.2042 36.5255 38.6242C36.1065 41.966 33.9036 44.8149 30.777 46.0604L30.3916 46.2535C29.3399 46.7445 28.1483 47.3056 28.0256 48.0071C27.903 48.7088 28.7617 49.4981 29.568 50.3398C29.9357 50.7081 30.2865 51.0941 30.6019 51.4622C32.519 53.7879 33.1746 56.9079 32.3544 59.8105C32.0092 61.0313 31.4115 62.1658 30.6019 63.1428C30.2392 63.5372 29.7168 63.7444 29.1822 63.704Z"/>
<path fill-rule="evenodd" clip-rule="evenodd" d="M45.586 55.232C44.2699 55.3022 43.0009 54.7268 42.1861 53.6886C41.6585 52.9152 41.3886 51.9943 41.4148 51.0578C41.4902 49.8513 41.7691 48.6637 42.2387 47.5501C42.3438 47.2344 42.4664 46.9014 42.5541 46.5856C42.9257 45.7683 42.9694 44.8389 42.6766 43.9899C42.5243 43.7561 42.3473 43.5386 42.151 43.3409C41.6007 42.806 41.1713 42.1605 40.8892 41.4468C40.4089 39.9396 40.7191 38.2918 41.7128 37.0621C42.1966 36.4193 42.7487 35.8313 43.3604 35.3083L43.9386 34.7647C44.6309 34.0866 45.7404 34.0983 46.4185 34.7909C47.0969 35.4836 47.0845 36.5947 46.3922 37.2726L45.7263 37.8866C45.2934 38.2642 44.8885 38.6747 44.517 39.1142C44.2523 39.4176 44.1313 39.82 44.184 40.2191C44.3296 40.4844 44.5116 40.7266 44.7273 40.9382C45.0955 41.3081 45.4196 41.7203 45.6911 42.1657C46.5675 43.8687 46.6446 45.8717 45.9013 47.6379C45.7962 47.9711 45.6561 48.3394 45.5336 48.6902C45.1987 49.4636 44.9901 50.2878 44.92 51.1279C44.9061 51.3158 44.943 51.5035 45.0253 51.6716C45.4967 51.8312 46.0084 51.8312 46.4798 51.6716C49.1999 50.8877 51.3731 48.8357 52.3158 46.1647C53.2622 43.5686 52.5734 40.6579 50.5634 38.7634C49.8133 38.1483 49.7028 37.0413 50.3179 36.2905C50.9331 35.5398 52.0389 35.4299 52.7891 36.0448C55.9263 38.862 57.0478 43.298 55.6283 47.2695C54.3138 51.0702 51.2241 53.9851 47.356 55.0741C46.7743 55.1988 46.1802 55.2514 45.586 55.232Z"/>
</svg>
