<svg width="100%" height="100%" viewBox="0 0 80 80" fill="none" xmlns="http://www.w3.org/2000/svg">
<path d="M49.1073 28.8823H66.1519C67.1787 28.8823 68 28.0527 68 27.0157C68 25.9786 67.1787 25.1489 66.1519 25.1489H49.1073C48.0805 25.1489 47.259 25.9786 47.259 27.0157C47.259 27.8453 48.0805 28.8823 49.1073 28.8823Z"/>
<path d="M66.1519 32.6147H49.1073C48.0805 32.6147 47.259 33.4443 47.259 34.4814C47.259 35.5184 48.0805 36.3481 49.1073 36.3481H66.1519C67.1787 36.3481 68 35.5184 68 34.4814C68 33.4443 67.1787 32.6147 66.1519 32.6147Z"/>
<path d="M66.1519 40.2891H49.1073C48.0805 40.2891 47.259 41.1188 47.259 42.1558C47.259 43.1928 48.0805 44.0225 49.1073 44.0225H66.1519C67.1787 44.0225 68 43.1928 68 42.1558C68 41.3262 67.1787 40.2891 66.1519 40.2891Z"/>
<path d="M48.9119 54.6212C47.0452 53.5899 44.5563 53.3837 42.4822 53.1774C41.2378 52.9712 39.7859 52.9713 39.3711 52.765C38.334 52.1462 37.0895 48.4336 37.5043 47.4023C38.9562 45.1335 40.6155 41.4209 41.4452 38.1208C42.897 32.3457 42.2748 28.0144 39.7859 24.9206C36.4674 20.7955 31.0747 21.0017 31.0747 21.0017C30.8673 21.0017 25.4746 21.0018 22.1561 24.9206C19.6671 28.0144 19.0448 32.3457 20.4967 38.1208C21.3263 41.4209 22.9857 45.1335 24.4375 47.4023C24.6449 48.4336 23.6078 52.1462 22.5708 52.765C21.9486 52.9713 20.7041 53.1774 19.4596 53.1774C17.3855 53.3837 14.8967 53.5899 13.03 54.6212C11.9929 55.0337 11.7855 56.2712 12.2003 57.3025C12.6151 58.3338 13.8597 58.5401 14.8967 58.1276C16.1412 57.5088 18.2152 57.3026 19.8745 57.0963C21.7412 56.89 23.1931 56.89 24.4375 56.2712C26.9264 55.0337 27.9635 51.5274 28.1709 50.4961C28.5857 48.8461 28.7932 46.7835 27.9635 45.3398C26.7191 43.4835 25.2671 40.1835 24.6449 37.2959C23.6078 32.7583 23.8153 29.4581 25.4746 27.3956C27.5487 24.7142 31.2821 24.7143 31.4895 24.9206C31.4895 24.9206 35.2229 24.9205 37.297 27.3956C38.9562 29.4581 39.371 32.7583 38.1265 37.2959C37.5043 40.1835 36.0525 43.4835 34.808 45.3398C33.771 46.5773 34.1858 48.8461 34.6007 50.4961C34.8081 51.5274 35.8451 55.0337 38.334 56.2712C39.5785 56.89 41.0304 57.0963 42.8971 57.0963C44.7637 57.3026 46.6304 57.5088 47.8748 58.1276C48.0822 58.3338 48.4971 58.3338 48.7045 58.3338C49.3267 58.3338 50.1564 57.9213 50.3638 57.3025C50.1564 56.2712 49.9489 55.0337 48.9119 54.6212Z"/>
</svg>
