<svg width="100%" height="100%" viewBox="0 0 80 80" fill="none" xmlns="http://www.w3.org/2000/svg">
<path fill-rule="evenodd" clip-rule="evenodd" d="M25.4525 58.326C23.9127 58.3802 22.3767 58.1383 20.9227 57.6154C15.981 55.6868 11.4182 50.6788 12.0607 44.8584C12.5877 40.2733 15.9646 37.211 18.6495 35.4513C19.8377 34.6765 21.0698 33.9759 22.3393 33.3534C22.4804 32.0083 22.9139 30.714 23.6076 29.5635C26.9111 24.415 32.4341 21.2257 38.4326 21.0024C39.3366 20.955 40.1092 21.664 40.1621 22.5927C40.2076 23.5268 39.5079 24.3203 38.5994 24.3675C38.5712 24.3694 38.5431 24.3694 38.515 24.3694C33.5834 24.5418 29.0369 27.1508 26.3091 31.3738C26.1425 31.6395 26.0043 31.9237 25.8973 32.2198C27.804 31.8443 29.7668 32.4804 31.119 33.9117C31.9604 35.0909 32.0255 36.6746 31.2837 37.9215C30.5911 39.495 29.0431 40.4831 27.3634 40.4255C25.3689 40.3613 23.5822 39.1413 22.7511 37.2787L22.6358 36.9739C21.8451 37.4141 20.9885 37.9047 20.2967 38.3785C18.1719 39.7489 15.5364 42.0668 15.1739 45.2984C14.7291 49.2236 18.2707 53.0643 21.9439 54.5025C23.5145 54.9727 25.16 55.1233 26.7868 54.9423H28.154H48.4805C52.6151 54.9423 56.6013 54.8068 59.83 53.0473C62.7949 51.4398 65.3316 47.9716 64.4422 44.2155C63.7503 41.8299 62.1534 39.8299 60.0111 38.666C59.0692 38.1366 58.0326 37.8083 56.9637 37.7016C56.8779 39.3156 56.1661 40.8267 54.9871 41.8976C54.2625 42.5135 53.2887 42.7214 52.3844 42.456C51.1308 42.1632 50.2293 41.0346 50.1937 39.7149C50.3911 37.7302 51.5238 35.9726 53.2246 35.0115C52.1539 31.3062 49.123 26.2135 46.125 26.4164C41.1835 26.7549 40.9034 33.0319 41.1834 39.9519C41.1834 40.2226 41.1834 40.4932 41.1834 40.7639H46.6522C47.3033 40.7691 47.8907 41.1667 48.1511 41.7791C48.4117 42.3865 48.3022 43.0955 47.8711 43.5895L40.7717 51.6938C40.318 52.2167 39.5974 52.3975 38.9597 52.1506C38.7055 52.0424 38.4797 51.8748 38.3008 51.6599C37.8231 51.1523 33.3592 46.6689 30.5753 43.8941C29.9295 43.236 29.9253 42.1649 30.5659 41.5017C30.8734 41.1837 31.2916 41.0024 31.7284 41.0008H35.7806C36.6903 41.0008 37.4277 41.7587 37.4277 42.6929C37.4277 43.6266 36.6903 44.3848 35.7806 44.3848C37.4277 46.0767 38.6796 47.2948 39.4703 48.1239L42.9624 44.1479H39.5691C38.6595 44.1479 37.9219 43.3897 37.9219 42.456C37.9219 41.7453 37.9219 40.95 37.9219 40.0704C37.7078 33.8949 37.3289 23.5741 45.9604 22.982C51.5114 22.5927 55.2836 29.8681 56.5026 34.2501C58.3095 34.2601 60.0843 34.7425 61.6583 35.6544C64.6129 37.2686 66.8011 40.0484 67.72 43.3526C69.0543 48.953 65.3974 53.8256 61.4442 55.9913C57.4909 58.1568 53.0434 58.326 48.4805 58.326H28.1374H26.7868H25.4525ZM25.8643 35.6882V35.8745C26.1777 36.5241 26.8067 36.9504 27.5115 36.9909C27.9 37.0062 28.2556 36.7694 28.401 36.3989C28.4913 36.2313 28.5473 36.0469 28.5658 35.8575C27.8016 35.5021 26.9457 35.4141 26.1279 35.6036L25.8643 35.6882Z"/>
</svg>
