<svg width="100%" height="100%" viewBox="0 0 80 80" fill="none" xmlns="http://www.w3.org/2000/svg">
<path fill-rule="evenodd" clip-rule="evenodd" d="M53.9557 67C52.9665 67 52.1634 66.197 52.1634 65.2076V29.5415H27.3943V63.4154H46.93C47.9192 63.4154 48.7223 64.2184 48.7223 65.2076C48.7223 66.197 47.9192 67 46.93 67H25.602C24.6127 67 23.8098 66.197 23.8098 65.2076V27.7493C23.8098 26.7599 24.6127 25.9571 25.602 25.9571H53.9557C54.945 25.9571 55.748 26.7599 55.748 27.7493V65.2076C55.748 66.197 54.945 67 53.9557 67Z"/>
<path fill-rule="evenodd" clip-rule="evenodd" d="M46.9199 24.3413C45.9307 24.3413 45.1278 23.5385 45.1278 22.5491V17.5846H34.374V22.5491C34.374 23.5385 33.5712 24.3413 32.5817 24.3413C31.5923 24.3413 30.7894 23.5385 30.7894 22.5491V15.7924C30.7894 14.8029 31.5923 14.0001 32.5817 14.0001H46.9199C47.9094 14.0001 48.7123 14.8029 48.7123 15.7924V22.5491C48.7123 23.5385 47.9094 24.3413 46.9199 24.3413Z"/>
<path fill-rule="evenodd" clip-rule="evenodd" d="M58.7526 24.3413H20.7922C19.8029 24.3413 19 23.5383 19 22.5489C19 21.5595 19.8029 20.7567 20.7922 20.7567H58.7526C59.7418 20.7567 60.5446 21.5595 60.5446 22.5489C60.5446 23.5383 59.7418 24.3413 58.7526 24.3413Z"/>
<path fill-rule="evenodd" clip-rule="evenodd" d="M46.899 57.5527C45.9097 57.5527 45.1069 56.7497 45.1069 55.7605V36.7982C45.1069 35.8087 45.9097 35.0058 46.899 35.0058C47.8886 35.0058 48.6915 35.8087 48.6915 36.7982V55.7605C48.6915 56.7497 47.8886 57.5527 46.899 57.5527Z"/>
<path fill-rule="evenodd" clip-rule="evenodd" d="M39.506 57.5527C38.5166 57.5527 37.7137 56.7497 37.7137 55.7605V36.7982C37.7137 35.8087 38.5166 35.0058 39.506 35.0058C40.4954 35.0058 41.2983 35.8087 41.2983 36.7982V55.7605C41.2983 56.7497 40.4954 57.5527 39.506 57.5527Z"/>
<path fill-rule="evenodd" clip-rule="evenodd" d="M32.6104 57.5527C31.6212 57.5527 30.8181 56.7497 30.8181 55.7605V36.7982C30.8181 35.8087 31.6212 35.0058 32.6104 35.0058C33.5998 35.0058 34.4029 35.8087 34.4029 36.7982V55.7605C34.4029 56.7497 33.5998 57.5527 32.6104 57.5527Z"/>
</svg>
