<svg width="100%" height="100%" viewBox="0 0 80 80" fill="none" xmlns="http://www.w3.org/2000/svg">
<path fill-rule="evenodd" clip-rule="evenodd" d="M40.6895 68.9929C39.9483 68.9947 39.2382 68.6988 38.718 68.171L31.033 60.4437C29.8611 60.8841 28.6307 61.1563 27.3821 61.2475C22.8332 62.0915 18.4594 59.0845 17.616 54.5322C17.4282 53.5221 17.4282 52.4846 17.616 51.4743C17.7092 50.2229 17.9866 48.9918 18.4375 47.8209L10.8255 40.3494C9.90922 39.4397 9.73569 38.0204 10.4056 36.9151C14.3669 30.3387 19.3685 28.4206 22.8733 27.9641C24.5563 27.7412 26.2667 27.8032 27.9298 28.1466C37.0568 19.5245 45.2712 16.5284 50.711 15.5419C54.2726 14.7784 57.9579 14.8223 61.4993 15.6699C62.5106 15.9805 63.259 16.8354 63.4344 17.8804C63.9016 21.6124 63.697 25.3994 62.8318 29.0601C61.3278 35.8502 58.2792 42.2017 53.9237 47.6199C53.2995 48.4126 52.1513 48.5461 51.3592 47.9215C50.5667 47.2967 50.4337 46.1475 51.0579 45.3548C55.0683 40.3731 57.8775 34.5348 59.2723 28.2928C59.9495 25.2623 60.1649 22.1458 59.9113 19.0495C57.0837 18.5452 54.1848 18.5762 51.368 19.1407C46.2934 20.0542 38.4077 22.9405 29.7552 31.4531C29.2787 31.9318 28.576 32.1071 27.9298 31.9098C26.4276 31.4897 24.8574 31.3782 23.3113 31.5809C19.3099 32.2458 15.8253 34.692 13.8375 38.2303L21.9606 46.3595C22.5429 46.9494 22.6543 47.8555 22.2344 48.5699C21.6941 49.6074 21.3783 50.7455 21.3036 51.9128C20.6482 54.4739 22.1923 57.0806 24.7499 57.7365C25.5239 57.9337 26.3343 57.9355 27.1083 57.7401C28.2748 57.6579 29.4119 57.3345 30.4488 56.7904C31.1662 56.3737 32.0735 56.4943 32.6577 57.0826L40.7259 65.1385C43.497 62.9684 45.6035 60.0639 46.8047 56.7537C47.3631 55.2229 47.4343 53.557 47.0054 51.9859C46.5965 51.0287 45.9721 50.1775 45.18 49.5015C44.8696 49.1909 44.5411 48.8803 44.2307 48.5149C41.2443 50.6267 37.4529 51.2405 33.9538 50.1774C29.1857 48.5387 26.6482 43.3434 28.2857 38.5719C29.9249 33.8004 35.1164 31.2613 39.8845 32.8998C42.7705 33.8936 44.9701 36.2628 45.7459 39.2169C45.8719 39.8177 45.9339 40.4299 45.9284 41.0436C46.3355 40.017 46.4615 38.9008 46.2934 37.8102C46.142 36.8128 46.8248 35.8812 47.8214 35.7276C47.823 35.7276 47.8251 35.7276 47.8269 35.7276C48.8199 35.5742 49.749 36.252 49.9078 37.2438C50.3241 40.5102 49.2524 43.7891 46.9873 46.1769C47.228 46.4527 47.4836 46.7137 47.7538 46.9623C48.9732 48.0145 49.9133 49.3499 50.4921 50.8534C51.204 53.1733 51.14 55.6613 50.3095 57.9412C48.7871 62.201 46.0214 65.9058 42.3687 68.5728C41.8687 68.8888 41.2791 69.035 40.6895 68.9929ZM37.0386 35.9104C36.2025 35.9086 35.3776 36.1022 34.6291 36.4766C31.8945 37.7702 30.7264 41.038 32.0206 43.7746C32.6613 45.1282 33.8278 46.1622 35.2495 46.6334C37.7633 47.3678 40.4741 46.8583 42.5513 45.2634C42.3524 44.2167 42.3031 43.1462 42.4054 42.0847C42.4911 41.3687 42.4911 40.6453 42.4054 39.9293C41.94 38.2158 40.6529 36.8456 38.9735 36.2757C38.3255 36.031 37.6391 35.9086 36.9472 35.9104H37.0386Z"/>
</svg>
