<svg width="100%" height="100%" viewBox="0 0 80 80" fill="none" xmlns="http://www.w3.org/2000/svg">
<path fill-rule="evenodd" clip-rule="evenodd" d="M33.6732 67.9993C33.2025 67.9981 32.7489 67.8239 32.4014 67.5111C25.9667 61.7669 14.4259 48.7389 12.0343 36.5934C11.835 35.5566 12.5241 34.5563 13.5717 34.3594C14.6195 34.1624 15.6314 34.8432 15.8306 35.88C17.7287 45.0973 26.1184 56.3604 33.7111 63.5126C46.4667 50.8789 52.275 40.5166 51.4777 31.8628C50.4642 22.9357 42.8885 16.1522 33.8059 16.038C29.8313 16.1575 25.9857 17.4667 22.7778 19.7922C20.7506 21.2453 19.3859 23.4312 18.9815 25.8744C18.4121 28.8967 20.3102 31.3184 23.2902 33.3832C24.4121 31.3349 25.9571 29.5435 27.8269 28.127C30.2488 26.01 33.6295 25.3369 36.6911 26.3625C39.1891 27.2158 41.0873 29.2546 41.7404 31.7878C42.9077 36.2118 40.2256 40.7334 35.7534 41.8872C33.713 42.4135 31.5453 42.1587 29.687 41.1738L29.1556 40.9297C28.0927 40.4229 26.8778 39.8597 25.6439 39.2027C25.6535 40.0822 25.7236 40.9606 25.8528 41.8308C25.9951 42.8676 25.2586 43.8214 24.2109 43.9614C23.1631 44.1015 22.1988 43.3743 22.0565 42.3378C21.7908 40.6101 21.7584 38.8549 21.9615 37.1188C17.7099 34.3407 14.0841 30.53 15.0903 25.1235C15.7243 21.7579 17.649 18.7651 20.4621 16.77C24.3305 13.9892 28.9676 12.4434 33.7492 12.3398C44.8211 12.3807 54.0707 20.6869 55.1792 31.5813C56.1283 41.6995 49.4846 53.4507 35.0019 67.5111C34.6392 67.8373 34.163 68.0124 33.6732 67.9993ZM26.3842 35.392C27.789 36.1429 29.2883 36.875 30.7878 37.5884L31.3195 37.8323C33.5156 39.0889 36.3248 38.3472 37.5966 36.1758C38.2306 35.091 38.3843 33.7953 38.0201 32.5949C37.6117 31.3157 36.5982 30.3139 35.3057 29.9103C33.4986 29.2997 31.4978 29.7258 30.1046 31.018C28.5406 32.1729 27.2669 33.6697 26.3842 35.392Z"/>
<path fill-rule="evenodd" clip-rule="evenodd" d="M50.0722 61.4485C49.6033 61.4525 49.1516 61.2853 48.8004 60.9792L43.7134 56.455C42.9693 55.7188 42.9693 54.5255 43.7134 53.7895C44.4573 53.0533 45.6646 53.0533 46.4087 53.7895L46.6555 54.0334L49.9583 56.943C59.9995 45.9989 64.6311 37.1008 64.1375 29.7609C63.4409 21.7422 56.5961 15.6199 48.4588 15.7382C46.8757 15.7622 45.3061 16.0348 43.8082 16.5453C42.7794 16.7429 41.7829 16.0782 41.5836 15.0605C41.4185 14.2273 41.8417 13.3889 42.6124 13.0161C44.4841 12.3811 46.4429 12.039 48.4209 12.0024C58.5798 11.8404 67.1233 19.5017 67.9529 29.5168C68.5603 38.2647 63.1694 48.5144 51.5147 60.8664C51.1409 61.2557 50.615 61.4676 50.0722 61.4485Z"/>
</svg>
