<svg width="100%" height="100%" viewBox="0 0 80 80" fill="none" xmlns="http://www.w3.org/2000/svg">
<path d="M28.3333 21.3333C28.3333 22.622 29.378 23.6667 30.6667 23.6667C31.9553 23.6667 33 22.622 33 21.3333C33 20.0447 31.9553 19 30.6667 19C29.378 19 28.3333 20.0447 28.3333 21.3333Z" stroke="#1E1E1E" stroke-width="2"/>
<path d="M47.0001 21.3333C47.0001 22.622 48.0448 23.6667 49.3334 23.6667C50.6221 23.6667 51.6667 22.622 51.6667 21.3333C51.6667 20.0447 50.6221 19 49.3334 19C48.0448 19 47.0001 20.0447 47.0001 21.3333Z" stroke="#1E1E1E" stroke-width="2"/>
<path d="M28.3333 39.9998C28.3333 41.2885 29.378 42.3332 30.6667 42.3332C31.9553 42.3332 33 41.2885 33 39.9998C33 38.7112 31.9553 37.6665 30.6667 37.6665C29.378 37.6665 28.3333 38.7112 28.3333 39.9998Z" stroke="#1E1E1E" stroke-width="2"/>
<path d="M47.0001 39.9998C47.0001 41.2885 48.0448 42.3332 49.3334 42.3332C50.6221 42.3332 51.6667 41.2885 51.6667 39.9998C51.6667 38.7112 50.6221 37.6665 49.3334 37.6665C48.0448 37.6665 47.0001 38.7112 47.0001 39.9998Z" stroke="#1E1E1E" stroke-width="2"/>
<path d="M28.3333 58.6668C28.3333 59.9555 29.378 61.0002 30.6667 61.0002C31.9553 61.0002 33 59.9555 33 58.6668C33 57.3782 31.9553 56.3335 30.6667 56.3335C29.378 56.3335 28.3333 57.3782 28.3333 58.6668Z" stroke="#1E1E1E" stroke-width="2"/>
<path d="M47.0001 58.6668C47.0001 59.9555 48.0448 61.0002 49.3334 61.0002C50.6221 61.0002 51.6667 59.9555 51.6667 58.6668C51.6667 57.3782 50.6221 56.3335 49.3334 56.3335C48.0448 56.3335 47.0001 57.3782 47.0001 58.6668Z" stroke="#1E1E1E" stroke-width="2"/>
</svg>
