<svg width="100%" height="100%" viewBox="0 0 80 80" fill="none" xmlns="http://www.w3.org/2000/svg">
<path d="M58.6667 28.3333C57.378 28.3333 56.3333 29.378 56.3333 30.6667C56.3333 31.9553 57.378 33 58.6667 33C59.9553 33 61 31.9553 61 30.6667C61 29.378 59.9553 28.3333 58.6667 28.3333Z" stroke="#1E1E1E" stroke-width="2"/>
<path d="M58.6667 47.0003C57.378 47.0003 56.3333 48.045 56.3333 49.3337C56.3333 50.6223 57.378 51.667 58.6667 51.667C59.9553 51.667 61 50.6223 61 49.3337C61 48.045 59.9553 47.0003 58.6667 47.0003Z" stroke="#1E1E1E" stroke-width="2"/>
<path d="M40 28.3333C38.7114 28.3333 37.6667 29.378 37.6667 30.6667C37.6667 31.9553 38.7114 33 40 33C41.2887 33 42.3334 31.9553 42.3334 30.6667C42.3334 29.378 41.2887 28.3333 40 28.3333Z" stroke="#1E1E1E" stroke-width="2"/>
<path d="M40 47.0003C38.7114 47.0003 37.6667 48.045 37.6667 49.3337C37.6667 50.6223 38.7114 51.667 40 51.667C41.2887 51.667 42.3334 50.6223 42.3334 49.3337C42.3334 48.045 41.2887 47.0003 40 47.0003Z" stroke="#1E1E1E" stroke-width="2"/>
<path d="M21.3333 28.3333C20.0446 28.3333 19 29.378 19 30.6667C19 31.9553 20.0446 33 21.3333 33C22.622 33 23.6666 31.9553 23.6666 30.6667C23.6666 29.378 22.622 28.3333 21.3333 28.3333Z" stroke="#1E1E1E" stroke-width="2"/>
<path d="M21.3333 47.0003C20.0446 47.0003 19 48.045 19 49.3337C19 50.6223 20.0446 51.667 21.3333 51.667C22.622 51.667 23.6666 50.6223 23.6666 49.3337C23.6666 48.045 22.622 47.0003 21.3333 47.0003Z" stroke="#1E1E1E" stroke-width="2"/>
</svg>
