<svg width="100%" height="100%" viewBox="0 0 80 80" fill="none" xmlns="http://www.w3.org/2000/svg">
<path fill-rule="evenodd" clip-rule="evenodd" d="M27.6267 67.9999C27.0959 67.9978 26.5882 67.7845 26.2165 67.4074C25.4466 66.6373 25.4466 65.3934 26.2165 64.6233L50.4479 40.9292L29.5931 20.4335L28.2227 19.1501C26.868 17.9225 25.6004 16.6029 24.429 15.2011C23.7482 14.3463 23.8932 13.1045 24.7534 12.4272C24.7578 12.4239 24.7624 12.4202 24.7668 12.417C25.6287 11.7493 26.871 11.8995 27.5474 12.7528C28.5902 14.0126 29.7254 15.194 30.9437 16.2871L32.3738 17.6497L54.6983 39.5471C55.0816 39.9211 55.298 40.4341 55.2941 40.9686C55.2923 41.4963 55.0777 42.0014 54.6983 42.3705L29.0368 67.4272C28.6622 67.7965 28.1548 68.0039 27.6267 67.9999Z"/>
</svg>
