<svg width="100%" height="100%" viewBox="0 0 80 80" fill="none" xmlns="http://www.w3.org/2000/svg">
<path fill-rule="evenodd" clip-rule="evenodd" d="M51.6674 12.0001C52.1981 12.0022 52.7058 12.2155 53.0775 12.5926C53.8474 13.3627 53.8474 14.6066 53.0775 15.3767L28.8461 39.0708L49.7009 59.5664L51.0714 60.8499C52.4261 62.0775 53.6937 63.3971 54.8651 64.7989C55.5458 65.6537 55.4008 66.8955 54.5407 67.5728C54.5363 67.5761 54.5317 67.5797 54.5273 67.583C53.6654 68.2507 52.4231 68.1005 51.7467 67.2472C50.7039 65.9874 49.5686 64.806 48.3504 63.7129L46.9203 62.3503L24.5958 40.4529C24.2125 40.0789 23.9961 39.5659 24 39.0314C24.0018 38.5037 24.2164 37.9986 24.5958 37.6295L50.2573 12.5728C50.6318 12.2035 51.1393 11.9961 51.6674 12.0001Z"/>
</svg>
