<svg width="100%" height="100%" viewBox="0 0 80 80" fill="none" xmlns="http://www.w3.org/2000/svg">
<path fill-rule="evenodd" clip-rule="evenodd" d="M12.0001 27.6267C12.0022 27.0959 12.2155 26.5882 12.5926 26.2165C13.3627 25.4466 14.6066 25.4466 15.3767 26.2165L39.0708 50.4479L59.5665 29.5931L60.8499 28.2227C62.0775 26.868 63.3971 25.6004 64.7989 24.429C65.6537 23.7482 66.8955 23.8932 67.5728 24.7534C67.5761 24.7578 67.5798 24.7624 67.583 24.7668C68.2507 25.6287 68.1005 26.871 67.2472 27.5474C65.9874 28.5902 64.806 29.7254 63.7129 30.9437L62.3503 32.3738L40.4529 54.6983C40.0789 55.0816 39.5659 55.298 39.0314 55.2941C38.5037 55.2923 37.9986 55.0777 37.6295 54.6983L12.5728 29.0368C12.2035 28.6622 11.9961 28.1548 12.0001 27.6267Z"/>
</svg>
