<svg width="100%" height="100%" viewBox="0 0 80 80" fill="none" xmlns="http://www.w3.org/2000/svg">
<path fill-rule="evenodd" clip-rule="evenodd" d="M67.9999 51.3733C67.9978 51.9041 67.7845 52.4118 67.4074 52.7835C66.6373 53.5534 65.3934 53.5534 64.6233 52.7835L40.9292 28.5521L20.4335 49.4069L19.1501 50.7773C17.9225 52.132 16.6029 53.3996 15.2011 54.571C14.3463 55.2518 13.1045 55.1067 12.4272 54.2466C12.4239 54.2422 12.4202 54.2376 12.417 54.2332C11.7493 53.3713 11.8995 52.129 12.7528 51.4526C14.0126 50.4098 15.194 49.2745 16.2871 48.0563L17.6497 46.6262L39.5471 24.3017C39.9211 23.9184 40.4341 23.702 40.9686 23.7059C41.4963 23.7077 42.0014 23.9223 42.3705 24.3017L67.4272 49.9632C67.7965 50.3378 68.0039 50.8452 67.9999 51.3733Z"/>
</svg>
