<svg width="100%" height="100%" viewBox="0 0 80 80" fill="none" xmlns="http://www.w3.org/2000/svg">
<path fill-rule="evenodd" clip-rule="evenodd" d="M16.7911 64C16.3104 63.9982 15.8493 63.8034 15.5127 63.4587C15.1095 63.0439 14.9276 62.4613 15.0265 61.8895L17.2591 48.8119C17.3222 48.442 17.4988 48.1028 17.7635 47.8376L51.9743 13.5652C54.0789 11.4783 57.4676 11.4783 59.5724 13.5652L65.3344 19.3194C67.4175 21.428 67.4175 24.8229 65.3344 26.9314L62.8495 29.511C62.1492 30.2181 61.0094 30.2234 60.3035 29.5217C60.2999 29.5183 60.2964 29.5146 60.2928 29.511C59.594 28.8075 59.594 27.6711 60.2928 26.9675L62.8495 24.4241C63.5248 23.7244 63.5248 22.6168 62.8495 21.9168L57.0877 16.1448C56.3892 15.4682 55.2836 15.4682 54.5851 16.1448L20.7164 49.9843L18.9158 59.9775L28.8909 58.2638L56.8717 30.2326C57.6261 29.585 58.7642 29.6734 59.4104 30.4291C59.9886 31.1037 59.9886 32.1012 59.4104 32.776L31.0336 61.2221C30.7618 61.4762 30.425 61.6514 30.0614 61.7272L17.0071 63.9639L16.7911 64Z"/>
<path fill-rule="evenodd" clip-rule="evenodd" d="M58.2222 33.309C57.7468 33.3019 57.2949 33.1069 56.9619 32.7679L46.2844 22.0893C45.5859 21.3858 45.5859 20.2494 46.2844 19.5459C46.985 18.8386 48.1245 18.8334 48.8304 19.535C48.834 19.5385 48.8376 19.5423 48.8411 19.5459L59.5008 30.2245C60.2065 30.926 60.2118 32.068 59.5115 32.7751C59.1711 33.1194 58.7065 33.3126 58.2222 33.309Z"/>
<path fill-rule="evenodd" clip-rule="evenodd" d="M50.8396 33.309C50.3679 33.307 49.9141 33.1194 49.5791 32.7858L42.593 25.7872L45.1499 23.2438L52.0461 30.2243C52.7518 30.9261 52.7571 32.068 52.0568 32.7751C51.7165 33.1194 51.252 33.3126 50.7675 33.309H50.8396Z"/>
<path fill-rule="evenodd" clip-rule="evenodd" d="M29.9177 61.4326C29.4367 61.4306 28.9759 61.2358 28.6393 60.8913L18.3039 50.5373C17.6054 49.834 17.6054 48.6976 18.3039 47.9941C19.0043 47.287 20.144 47.2816 20.8499 47.9831C20.8535 47.9869 20.8571 47.9903 20.8607 47.9941L31.196 58.3481C31.9017 59.0496 31.9073 60.1916 31.2068 60.8986C30.8664 61.2432 30.402 61.4361 29.9177 61.4326Z"/>
<path fill-rule="evenodd" clip-rule="evenodd" d="M19.0957 63.0767C18.6185 63.0659 18.1647 62.8638 17.8351 62.5175L16.0348 60.7135C15.3882 59.9578 15.4764 58.8176 16.2309 58.1701C16.9043 57.5911 17.9001 57.5911 18.5734 58.1701L20.374 59.9739C21.0708 60.6847 21.0585 61.8285 20.349 62.5249C20.014 62.8529 19.5639 63.0387 19.0957 63.0407V63.0767Z"/>
</svg>
