<svg width="100%" height="100%" viewBox="0 0 80 80" fill="none" xmlns="http://www.w3.org/2000/svg">
<path d="M40 13C25.096 13 13 25.096 13 40C13 54.904 25.096 67 40 67H53.5V61.6H40C28.282 61.6 18.4 51.718 18.4 40C18.4 28.282 28.282 18.4 40 18.4C51.718 18.4 61.6 28.282 61.6 40V43.861C61.6 45.994 59.683 48.1 57.55 48.1C55.417 48.1 53.5 45.994 53.5 43.861V40C53.5 32.548 47.452 26.5 40 26.5C32.548 26.5 26.5 32.548 26.5 40C26.5 47.452 32.548 53.5 40 53.5C43.726 53.5 47.128 51.988 49.558 49.531C51.313 51.934 54.337 53.5 57.55 53.5C62.869 53.5 67 49.18 67 43.861V40C67 25.096 54.904 13 40 13ZM40 48.1C35.518 48.1 31.9 44.482 31.9 40C31.9 35.518 35.518 31.9 40 31.9C44.482 31.9 48.1 35.518 48.1 40C48.1 44.482 44.482 48.1 40 48.1Z"/>
</svg>
