<svg width="100%" height="100%" viewBox="0 0 80 80" fill="none" xmlns="http://www.w3.org/2000/svg">
<path fill-rule="evenodd" clip-rule="evenodd" d="M40.4501 61.3997C40.0042 61.3979 39.5774 61.2214 39.2651 60.9094C38.618 60.2716 38.618 59.2417 39.2651 58.6042C51.1486 47.16 56.8399 37.776 56.6564 29.8305C56.3509 21.0322 48.8203 14.1428 39.8389 14.4424C31.8422 14.7092 25.2302 20.6305 24.2439 28.4083C22.9922 38.2174 32.7059 49.6614 36.9286 54.141C37.6016 54.758 37.6366 55.7924 37.0068 56.4518C36.3768 57.1109 35.3207 57.1453 34.6478 56.5283C34.5919 56.4773 34.5398 56.4223 34.4917 56.3643C28.8337 50.4299 19.554 38.855 20.9391 27.9995C22.177 17.4689 31.8957 9.91525 42.6462 11.1276C52.3686 12.2244 59.7758 20.1805 59.9943 29.7652C60.2113 38.6588 54.2028 48.8604 41.635 60.942C41.3174 61.2419 40.8913 61.4065 40.4501 61.3997Z"/>
<path d="M40.4 19.3999C34.2176 19.3999 29.2 24.4175 29.2 30.5999C29.2 36.7823 34.2176 41.7999 40.4 41.7999C40.4 41.7999 44.8121 41.7999 45.8303 41.7999C46.8485 41.4605 46.8485 40.1029 46 39.5599C44.5709 39.5599 40.4 39.5599 40.4 39.5599C35.5392 39.5599 31.44 35.4607 31.44 30.5999C31.44 25.7391 35.5392 21.6399 40.4 21.6399C45.2608 21.6399 49.36 25.7391 49.36 30.5999V32.2015C49.36 33.0863 48.5648 33.9599 47.68 33.9599C46.7952 33.9599 46 33.0863 46 32.2015V30.5999C46 27.5087 43.4912 24.9999 40.4 24.9999C37.3088 24.9999 34.8 27.5087 34.8 30.5999C34.8 33.6911 37.3088 36.1999 40.4 36.1999C41.9456 36.1999 43.3568 35.5727 44.3648 34.5535C45.0928 35.5503 46.3472 36.1999 47.68 36.1999C49.8864 36.1999 51.6 34.4079 51.6 32.2015V30.5999C51.6 24.4175 46.5824 19.3999 40.4 19.3999ZM40.4 33.9599C38.5408 33.9599 37.04 32.4591 37.04 30.5999C37.04 28.7407 38.5408 27.2399 40.4 27.2399C42.2592 27.2399 43.76 28.7407 43.76 30.5999C43.76 32.4591 42.2592 33.9599 40.4 33.9599Z"/>
<path fill-rule="evenodd" clip-rule="evenodd" d="M40.3575 67C29.5852 67 18 64.7653 18 59.8799C18 54.7326 30.3476 53.33 34.1416 53.0063C35.0766 52.9299 35.9031 53.5577 35.9877 54.4087C36.0725 55.26 35.3814 56.012 34.4462 56.0886C25.1476 56.8438 21.3876 59.0785 21.3876 59.8799C21.3876 61.0511 28.0271 63.9176 40.3575 63.9176C52.6883 63.9176 59.3278 61.0511 59.3278 59.8799C59.3278 59.7566 59.1924 59.2789 57.634 58.4928C56.0809 57.6472 54.2669 57.2899 52.4681 57.4757C52.2139 57.6007 51.9277 57.6644 51.6382 57.6607C51.1722 57.6472 50.7287 57.4705 50.4016 57.1673C49.868 56.6828 49.7496 55.9351 50.1136 55.3334C50.3814 54.9175 50.8302 54.6256 51.3502 54.532H51.4688C54.1313 54.1086 56.8736 54.5563 59.2092 55.7958C60.0899 56.2273 62.8 57.5219 62.8 59.9106C62.7154 64.8115 51.1298 67 40.3575 67Z"/>
</svg>
