<svg width="100%" height="100%" viewBox="0 0 80 80" fill="none" xmlns="http://www.w3.org/2000/svg">
<path fill-rule="evenodd" clip-rule="evenodd" d="M50.0069 58.3335C49.8275 58.3335 49.6483 58.303 49.4805 58.2421L33.1483 53.0958L29.6778 51.9843L29.8916 52.5781C30.4903 54.2287 29.9196 56.0482 28.4609 57.1458C27.3423 57.9421 25.9295 58.297 24.5298 58.1355C22.6712 57.9467 21.038 56.9129 20.1712 55.3798C19.13 53.5008 19.6596 51.2049 21.4375 49.8832C21.6267 49.7387 21.8308 49.6122 22.0463 49.5027L14.135 47.0971C13.459 46.8929 13 46.3098 13 45.6505L13 33.8202C12.9986 33.1653 13.4491 32.5839 14.1186 32.3737L49.4805 21.0916C49.6483 21.0306 49.8275 21.0002 50.0069 21.0002C53.1535 21.0093 55.6978 23.3707 55.6978 26.2835L55.6978 53.0501C55.6978 55.9629 53.1535 58.3243 50.0069 58.3335ZM27.6385 48.3911C28.1975 48.3819 28.7551 48.4642 29.2831 48.6347L34.2174 50.1574L50.2538 55.2122C51.4823 55.095 52.4148 54.1326 52.4082 52.9892L52.4082 26.2835C52.4148 25.1401 51.4823 24.1777 50.2538 24.0605L16.2895 34.9013L16.2895 44.5391L25.7633 47.4318C26.38 47.6374 26.9426 47.9647 27.4081 48.3911L27.6385 48.3911ZM25.9935 51.6341L25.7468 51.6341L24.6943 51.8168C24.2748 51.8656 23.8752 52.0057 23.5266 52.228C23.0167 52.6817 22.8768 53.3868 23.1809 53.9789C23.5511 54.5895 24.2205 54.9945 24.9737 55.06C25.5001 55.1331 26.0379 55.0127 26.4705 54.725C26.8719 54.4129 27.0183 53.8997 26.8324 53.4459C26.5659 52.8171 26.242 52.2112 25.862 51.6341L25.9935 51.6341Z"/>
<path fill-rule="evenodd" clip-rule="evenodd" d="M53.9955 32.7832C53.2982 32.7802 52.6797 32.3721 52.4496 31.7632C52.147 30.9697 52.5959 30.1004 53.4511 29.8203C53.4576 29.8173 53.4627 29.8156 53.4693 29.8143L60.8049 27.4846C61.652 27.1815 62.6042 27.5729 62.9316 28.3571C63.2572 29.1427 62.8362 30.0228 61.9875 30.3258C61.9512 30.3395 61.9119 30.3516 61.8741 30.3623L54.5385 32.6917C54.364 32.7497 54.1814 32.7817 53.9955 32.7832Z"/>
<path fill-rule="evenodd" clip-rule="evenodd" d="M61.3243 51.8439C61.1498 51.8653 60.9725 51.8653 60.798 51.8439L53.4623 49.4991C52.5923 49.2556 52.1022 48.4045 52.3653 47.6006C52.6302 46.7951 53.5477 46.3414 54.4162 46.5849C54.4557 46.5957 54.4937 46.6079 54.5314 46.6216L61.867 48.951C62.7304 49.213 63.201 50.0731 62.9164 50.8726C62.6927 51.5075 62.0462 51.9322 61.3243 51.9202L61.3243 51.8439Z"/>
<path fill-rule="evenodd" clip-rule="evenodd" d="M67.3553 41.188L53.9997 41.188C53.0919 41.188 52.3552 40.5058 52.3552 39.6653C52.3552 38.8247 53.0919 38.1428 53.9997 38.1428L67.3553 38.1428C68.2633 38.1428 69.0001 38.8247 69.0001 39.6653C69.0001 40.5058 68.2633 41.188 67.3553 41.188Z"/>
</svg>
