<svg width="100%" height="100%" viewBox="0 0 80 80" fill="none" xmlns="http://www.w3.org/2000/svg">
<path fill-rule="evenodd" clip-rule="evenodd" d="M40.0541 52.7744C39.1804 52.7744 38.4712 52.0647 38.4712 51.1904V14.5841C38.4712 13.7098 39.1804 13.0002 40.0541 13.0002C40.9279 13.0002 41.6371 13.7098 41.6371 14.5841V51.1904C41.6371 52.0647 40.9279 52.7744 40.0541 52.7744Z"/>
<path fill-rule="evenodd" clip-rule="evenodd" d="M39.7534 66.9983C39.0886 66.9952 38.4237 66.9224 37.7748 66.7766C35.3973 66.3141 33.5279 64.4735 33.0262 62.1039C32.8393 60.1857 33.6609 58.3086 35.1948 57.146C36.7854 56.0863 38.601 55.4131 40.4973 55.1818H40.798H40.8771C42.4601 54.865 43.0615 54.6749 43.4572 53.9938C43.8972 53.2461 44.8581 52.9911 45.6099 53.4236C46.3632 53.8591 46.6245 54.8207 46.1955 55.5778C45.8963 56.0989 45.5039 56.5598 45.04 56.94C45.2554 57.1144 45.4563 57.3044 45.6416 57.5102C46.9537 58.8361 47.4824 60.7512 47.0344 62.5631C46.5565 64.0016 45.5401 65.1989 44.2011 65.9055C42.8383 66.6515 41.3062 67.0285 39.7534 66.9983ZM41.0354 58.3023C39.6506 58.4528 38.3162 58.9073 37.1258 59.6329C36.4672 60.1001 36.0858 60.8685 36.1127 61.6761C36.2552 62.6583 37.4106 63.4343 38.4869 63.6879C39.8815 64 41.3409 63.786 42.5866 63.0859C43.2024 62.7818 43.6866 62.2638 43.9479 61.6286C44.0809 60.8889 43.8307 60.1317 43.2832 59.617C42.6625 58.9881 41.887 58.5352 41.0354 58.3023Z"/>
</svg>
