<svg width="100%" height="100%" viewBox="0 0 80 80" fill="none" xmlns="http://www.w3.org/2000/svg">
<path fill-rule="evenodd" clip-rule="evenodd" d="M56.5742 64H23.5399C19.4172 64 16.0746 60.655 16.0746 56.5292V23.4708C16.0746 22.4397 16.9108 21.6031 17.9409 21.6031C18.9712 21.6031 19.8074 22.4397 19.8074 23.4708V56.5292C19.8074 58.593 21.4775 60.2648 23.5399 60.2648H56.5742C58.6366 60.2648 60.3069 58.593 60.3069 56.5292V23.4708C60.3069 21.4068 58.6366 19.7354 56.5742 19.7354H17.8663C16.8362 19.7354 16 18.8986 16 17.8675C16 16.8366 16.8362 16 17.8663 16H56.5742C60.697 16 64.0394 19.345 64.0394 23.4708V56.5292C64.0394 60.655 60.697 64 56.5742 64Z"/>
<path fill-rule="evenodd" clip-rule="evenodd" d="M33.3571 37.5161C32.327 37.5161 31.4906 36.6793 31.4906 35.6484V26.8514C31.4906 25.8203 32.327 24.9836 33.3571 24.9836C34.3874 24.9836 35.2235 25.8203 35.2235 26.8514V35.5737C35.2647 36.6046 34.4641 37.4731 33.4336 37.5143C33.4075 37.5161 33.3835 37.5161 33.3571 37.5161Z"/>
<path fill-rule="evenodd" clip-rule="evenodd" d="M46.7571 37.5161C45.7269 37.5161 44.8906 36.6793 44.8906 35.6484V26.8514C44.8906 25.8203 45.7269 24.9836 46.7571 24.9836C47.7874 24.9836 48.6235 25.8203 48.6235 26.8514V35.5737C48.6645 36.6046 47.8637 37.4731 46.8336 37.5143C46.8075 37.5161 46.7833 37.5161 46.7571 37.5161Z"/>
<path fill-rule="evenodd" clip-rule="evenodd" d="M49.9484 54.4751C48.9181 54.4751 48.0818 53.6383 48.0818 52.6074C48.1175 48.1716 44.5526 44.5482 40.1201 44.5126C36.3594 44.4827 33.0824 47.0714 32.2367 50.7397H44.8159C45.8461 50.7397 46.6824 51.5763 46.6824 52.6074C46.6824 53.6383 45.8461 54.4751 44.8159 54.4751H30.1652C29.1349 54.4751 28.2987 53.6383 28.2987 52.6074C28.2987 46.1096 33.5638 40.8407 40.0568 40.8407C46.5498 40.8407 51.8146 46.1096 51.8146 52.6074C51.8146 53.6383 50.9784 54.4751 49.9484 54.4751Z"/>
</svg>
