<svg width="100%" height="100%" viewBox="0 0 80 80" fill="none" xmlns="http://www.w3.org/2000/svg">
<path fill-rule="evenodd" clip-rule="evenodd" d="M20.5342 67.251C19.9944 67.249 19.477 67.0309 19.0988 66.6452C18.3142 65.8577 18.3142 64.5858 19.0988 63.7983L29.5114 53.3998C30.1321 52.784 31.0783 52.6386 31.8566 53.0364C36.8669 55.5843 42.9508 54.6314 46.9399 50.6739L55.8764 41.7495C55.9433 41.6665 56.0261 41.598 56.1191 41.5477C55.5126 40.9216 54.8859 40.3159 54.2792 39.7301C53.436 38.9308 52.9064 37.8564 52.7829 36.7015C52.1441 36.7399 51.5071 36.6005 50.943 36.2978C47.6435 33.7739 44.7056 30.8139 42.2085 27.4943C42.0732 27.2015 41.9842 26.8867 41.9459 26.5655C41.2828 26.4747 40.6679 26.1617 40.207 25.677C39.5397 24.9704 38.6501 24.082 37.7808 23.2138C37.7179 23.3108 37.6433 23.3975 37.5586 23.4764L28.622 32.4009C26.1712 34.8077 24.7885 38.0948 24.7802 41.5272C24.76 44.6124 25.868 47.5989 27.8938 49.9268C28.5794 50.7326 28.5268 51.9299 27.7725 52.673L15.4596 64.9492C14.673 65.7407 13.393 65.7467 12.6007 64.9612C12.5966 64.9572 12.5925 64.9532 12.5883 64.9492C11.8039 64.1617 11.8039 62.8897 12.5883 62.1023L23.7287 50.977C19.1432 44.247 19.9927 35.2135 25.7508 29.453L33.3327 21.8811C32.6616 20.6332 32.8838 19.0947 33.8787 18.0851C35.1464 16.8981 37.1198 16.8981 38.3873 18.0851L39.8229 19.4987L42.8354 22.507C42.977 22.5212 43.1187 22.5212 43.26 22.507C45.6802 19.2946 48.6342 16.5224 51.9946 14.3093C52.9651 13.7238 55.917 11.8865 57.5549 13.9662C59.1922 16.0459 56.5637 18.2467 54.643 19.9024C52.0431 22.2285 49.1395 24.193 46.0097 25.7376V25.9396C48.0963 28.3727 50.3749 30.6342 52.8234 32.7037C53.165 32.6756 53.4986 32.5926 53.8141 32.4615C56.2809 27.8377 62.5487 23.1734 65.0355 22.729C65.9637 22.499 66.94 22.8403 67.5226 23.5975C68.8166 25.2732 67.1382 27.1915 66.5115 27.9184C63.6969 30.8523 60.4764 33.3681 56.9479 35.3892C56.6853 36.3381 56.9479 36.6208 57.1501 36.7822C58.1006 37.691 59.0103 38.6198 59.9405 39.5484L61.2345 40.861C62.4797 42.0926 62.488 44.0996 61.2546 45.3435C61.2466 45.3515 61.2405 45.3576 61.2345 45.3636C60.2254 46.3428 58.699 46.5631 57.4533 45.9087L49.8513 53.4805C46.673 56.6728 42.3481 58.4618 37.8415 58.4475C35.6458 58.4475 33.4702 58.0295 31.4322 57.2159L22.0103 66.6051C21.6302 67.0146 21.0943 67.249 20.5342 67.251Z"/>
</svg>
