<svg width="100%" height="100%" viewBox="0 0 80 80" fill="none" xmlns="http://www.w3.org/2000/svg">
<path fill-rule="evenodd" clip-rule="evenodd" d="M54.1025 52.4434C53.6418 52.4362 53.2038 52.2475 52.8811 51.9188C52.2039 51.2372 52.2039 50.1356 52.8811 49.454L62.7929 39.5068L52.8811 29.5599C52.197 28.8798 52.1918 27.7733 52.8705 27.088C52.8742 27.0846 52.8777 27.0811 52.8811 27.0775C53.5616 26.3993 54.661 26.3993 55.3414 27.0775L66.4923 38.2658C67.1693 38.9474 67.1693 40.0488 66.4923 40.7306L55.3414 51.9013C55.0187 52.2423 54.5721 52.4362 54.1025 52.4434Z"/>
<path fill-rule="evenodd" clip-rule="evenodd" d="M62.8628 41.2563H43.0568C42.0937 41.2563 41.312 40.4731 41.312 39.5083C41.312 38.5432 42.0937 37.7599 43.0568 37.7599H62.8628C63.8261 37.7599 64.6078 38.5432 64.6078 39.5083C64.6078 40.4731 63.8261 41.2563 62.8628 41.2563Z"/>
<path fill-rule="evenodd" clip-rule="evenodd" d="M43.0552 58.4214H34.3303C33.3669 58.4214 32.5852 57.6382 32.5852 56.6733C32.5852 55.7084 33.3669 54.9252 34.3303 54.9252H41.3102V21.7103H18.6252C17.6618 21.7103 16.8801 20.927 16.8801 19.962C16.8801 18.9971 17.6618 18.2139 18.6252 18.2139H43.0552C44.0184 18.2139 44.8001 18.9971 44.8001 19.962V56.6733C44.8001 57.6382 44.0184 58.4214 43.0552 58.4214Z"/>
<path fill-rule="evenodd" clip-rule="evenodd" d="M34.2793 66.4466C33.9949 66.45 33.7122 66.3852 33.4591 66.2541L17.8935 58.23C17.2933 57.9171 16.9111 57.3002 16.899 56.6218V19.9105C16.8867 19.2813 17.2131 18.6937 17.754 18.3722C18.2932 18.0593 18.9598 18.0593 19.499 18.3722L35.0646 26.3788C35.6527 26.7109 36.0243 27.3281 36.0418 28.0045V64.7158C36.0488 65.3399 35.7224 65.9185 35.1868 66.2366C34.9093 66.3871 34.5953 66.4604 34.2793 66.4466ZM20.3192 55.5904L32.5343 61.8664V29.0533L20.3192 22.7775V55.5904Z"/>
<path fill-rule="evenodd" clip-rule="evenodd" d="M34.2617 66.4467C33.9822 66.4485 33.7067 66.3821 33.4588 66.2543L14.0543 56.255C13.1696 55.8721 12.7613 54.8442 13.1433 53.9579C13.5256 53.0717 14.5517 52.6626 15.4364 53.0453C15.5131 53.0786 15.5882 53.1169 15.6596 53.1608L35.0641 63.1426C35.9228 63.5832 36.2613 64.6355 35.8216 65.4957C35.5213 66.0813 34.9194 66.4502 34.2617 66.4467Z"/>
<path fill-rule="evenodd" clip-rule="evenodd" d="M18.6438 62.4238C17.6806 62.4238 16.8989 61.6406 16.8989 60.6757V15.748C16.8989 14.783 17.6806 14 18.6438 14C19.6073 14 20.389 14.783 20.389 15.748V60.6757C20.389 61.6406 19.6073 62.4238 18.6438 62.4238Z"/>
<path fill-rule="evenodd" clip-rule="evenodd" d="M34.2972 29.77C33.8818 29.77 33.4788 29.6212 33.1628 29.3505L14.1597 19.5608C13.2889 19.1464 12.9173 18.1046 13.3309 17.2323C13.7444 16.3599 14.7846 15.9875 15.6553 16.4019C15.6867 16.4174 15.7179 16.4332 15.7477 16.449L35.0476 26.3962C35.6426 26.7229 36.0213 27.3418 36.0421 28.0219C36.0421 28.9868 35.2604 29.77 34.2972 29.77Z"/>
</svg>
