<svg width="100%" height="100%" viewBox="0 0 80 80" fill="none" xmlns="http://www.w3.org/2000/svg">
<path fill-rule="evenodd" clip-rule="evenodd" d="M22.4385 29.2388C21.3958 29.2388 20.5496 28.3921 20.5496 27.3486V16.6311C20.5496 14.0736 22.6219 12 25.1774 12H35.9439C36.9866 12 37.8327 12.8469 37.8327 13.8902C37.8327 14.9338 36.9866 15.7807 35.9439 15.7807H25.1774C24.7129 15.7901 24.3367 16.1662 24.3275 16.6311V27.3486C24.3275 28.3921 23.4812 29.2388 22.4385 29.2388Z"/>
<path fill-rule="evenodd" clip-rule="evenodd" d="M58.2509 29.2388C57.2082 29.2388 56.3622 28.3921 56.3622 27.3486V16.6311C56.3622 16.1681 55.9937 15.7901 55.5309 15.7807H44.8211C43.7786 15.7807 42.9324 14.9338 42.9324 13.8902C42.9324 12.8469 43.7786 12 44.8211 12H55.5309C58.0788 12.0115 60.1397 14.0813 60.1397 16.6311V27.3486C60.1397 28.3921 59.2936 29.2388 58.2509 29.2388Z"/>
<path fill-rule="evenodd" clip-rule="evenodd" d="M35.9439 51.3926H25.1774C22.6294 51.3926 20.5592 49.3303 20.5496 46.7805V36.063C20.5496 35.0195 21.3958 34.1728 22.4385 34.1728C23.4812 34.1728 24.3275 35.0195 24.3275 36.063V46.7805C24.3367 47.2435 24.7148 47.6124 25.1774 47.6124H35.9439C36.9866 47.6124 37.8327 48.459 37.8327 49.5024C37.8327 50.5459 36.9866 51.3926 35.9439 51.3926Z"/>
<path fill-rule="evenodd" clip-rule="evenodd" d="M55.5309 51.3926H44.8211C43.7786 51.3926 42.9324 50.5459 42.9324 49.5024C42.9324 48.459 43.7786 47.6124 44.8211 47.6124H55.5309C55.9899 47.6124 56.3622 47.2397 56.3622 46.7805V36.063C56.3622 35.0195 57.2082 34.1728 58.2509 34.1728C59.2936 34.1728 60.1397 35.0195 60.1397 36.063V46.7805C60.1397 49.3285 58.0772 51.3926 55.5309 51.3926Z"/>
<path fill-rule="evenodd" clip-rule="evenodd" d="M40.3451 46.9873C33.4128 46.9873 27.7654 40.1446 27.7654 31.6954C27.7654 23.2462 33.432 16.4035 40.3451 16.4035C42.1565 16.4035 43.9376 16.8668 45.5206 17.7455C46.4385 18.2673 46.7597 19.4355 46.2384 20.3541C45.7168 21.2726 44.5496 21.5941 43.6317 21.0723C42.6061 20.492 41.4482 20.1879 40.2695 20.1839C35.4152 20.1839 31.4674 25.3632 31.4674 31.6954C31.4674 38.0276 35.4152 43.2069 40.2695 43.2069C45.1239 43.2069 49.0716 38.0465 49.0716 31.6954C49.0847 29.6125 48.6333 27.5519 47.7493 25.6657C47.3054 24.7205 47.7116 23.5959 48.656 23.1516C49.5947 22.7055 50.7168 23.1025 51.1682 24.04C52.2827 26.4389 52.8567 29.051 52.8492 31.6954C52.9438 40.2202 47.2771 46.9873 40.3451 46.9873Z"/>
<path fill-rule="evenodd" clip-rule="evenodd" d="M62.3871 65C61.3444 65 60.4983 64.1533 60.4983 63.1098C60.4983 59.556 56.4371 56.5695 51.6396 56.5695H28.9735C24.176 56.5695 20.134 59.556 20.134 63.1098C20.134 64.1533 19.2876 65 18.245 65C17.2025 65 16.3562 64.1533 16.3562 63.1098C16.3562 57.4391 22.0227 52.7891 28.9735 52.7891H51.6396C58.6095 52.7891 64.2758 57.4202 64.2758 63.1098C64.2758 64.1533 63.4298 65 62.3871 65Z"/>
</svg>
