<svg width="100%" height="100%" viewBox="0 0 80 80" fill="none" xmlns="http://www.w3.org/2000/svg">
<path fill-rule="evenodd" clip-rule="evenodd" d="M24.4554 64.9033C22.6473 64.9033 21.1825 63.436 21.1825 61.6244V55.0668H16.2733C14.465 55.0668 13.0002 53.5997 13.0002 51.7881V45.2305C13.0002 44.3255 13.7333 43.591 14.6367 43.591C15.5401 43.591 16.2733 44.3255 16.2733 45.2305V51.7881H22.8191C23.7224 51.7881 24.4554 52.5226 24.4554 53.4275V61.6244L32.1467 52.3783C32.4576 52.0027 32.9207 51.7881 33.4067 51.7881H62.0935V35.099C62.0935 34.181 62.0935 33.2465 62.0935 32.3449C61.4404 32.3644 60.7875 32.3104 60.1461 32.1808C58.2265 31.7974 56.6146 30.5005 55.8258 28.7053C54.9587 26.9643 55.6639 24.8462 57.4018 23.9774C58.1446 23.6053 58.9957 23.5084 59.8026 23.7053C61.6827 24.2019 63.2735 25.461 64.1881 27.1807C64.391 27.5954 64.5661 28.0217 64.7118 28.4595C65.2959 28.189 65.8458 27.8479 66.3482 27.4429C67.0585 26.8824 68.0877 27.002 68.6473 27.7136C69.2071 28.425 69.0877 29.4562 68.3774 30.0169C67.4299 30.7283 66.3744 31.2809 65.2517 31.6562C65.3499 32.8038 65.35 33.9514 65.35 35.0335V51.7881C65.35 53.5997 63.8854 55.0668 62.0771 55.0668H34.1758L26.9756 63.7229C26.3521 64.472 25.429 64.9048 24.4554 64.9033ZM58.9189 26.902C58.8387 26.8955 58.7602 26.9249 58.7061 26.984C58.6732 27.1513 58.6732 27.325 58.7061 27.4922C59.0988 28.2741 59.84 28.8217 60.7025 28.9675C60.8956 29.0119 61.0936 29.0398 61.2916 29.0496C61.2376 28.9103 61.1786 28.7726 61.1117 28.6398C60.6403 27.8284 59.8891 27.2168 59.0007 26.9183L58.9189 26.902ZM14.6367 28.6233C13.7333 28.6233 13.0002 27.8888 13.0002 26.984V22.2789C13.0002 20.4673 14.465 19.0001 16.2733 19.0001H56.5623C57.4657 19.0001 58.1987 19.7345 58.1987 20.6395C58.1987 21.5445 57.4657 22.2789 56.5623 22.2789H16.2733V26.984C16.2733 27.8888 15.5401 28.6233 14.6367 28.6233Z"/>
<path fill-rule="evenodd" clip-rule="evenodd" d="M14.6365 51.2794C13.7332 51.2794 13.0001 50.5451 13.0001 49.6401V44.8204C12.9918 43.5694 13.4599 42.3612 14.3092 41.4431C13.4599 40.5251 12.9918 39.3167 13.0001 38.0659V36.6233C12.9918 35.3724 13.4599 34.164 14.3092 33.246C13.4599 32.328 12.9918 31.1198 13.0001 29.8689V25.0491C13.0001 24.1442 13.7332 23.4097 14.6365 23.4097C15.5399 23.4097 16.2731 24.1442 16.2731 25.0491V29.8689C16.2632 30.7951 16.9865 31.5624 17.9094 31.6067H49.5254C50.4287 31.6067 51.1619 32.3412 51.1619 33.246C51.1619 34.1511 50.4287 34.8855 49.5254 34.8855H17.9911C17.0684 34.9298 16.3451 35.6969 16.3549 36.6233V38.0659C16.3451 38.9922 17.0684 39.7594 17.9911 39.8038H36.3848C37.288 39.8038 38.021 40.5381 38.021 41.4431C38.021 42.348 37.288 43.0825 36.3848 43.0825H17.9911C17.0684 43.1269 16.3451 43.8941 16.3549 44.8204V49.6401C16.3563 50.5451 15.625 51.2812 14.72 51.2812C14.6922 51.2812 14.6643 51.2813 14.6365 51.2794Z"/>
</svg>
