<svg width="100%" height="100%" viewBox="0 0 80 80" fill="none" xmlns="http://www.w3.org/2000/svg">
<g clip-path="url(#clip0_8849_38319)">
<path d="M59.4403 38.5928H20.9196C19.9319 38.5928 18.7795 39.4224 18.7795 40.6668C18.7795 41.9111 19.9319 42.7407 20.9196 42.7407H59.4403C60.428 42.7407 61.5804 41.9111 61.5804 40.6668C61.5804 39.4224 60.428 38.5928 59.4403 38.5928Z"/>
<path d="M14.4989 26.148H65.86C67.144 26.148 68 25.3184 68 24.074C68 22.8296 67.144 22 65.86 22H14.4989C13.2149 22 12.3589 22.8296 12.3589 24.074C12.3589 25.3184 13.2149 26.148 14.4989 26.148Z"/>
<path d="M49.3814 55.1855H30.9864C30.4925 55.1855 29.479 56.0151 29.479 57.2595C29.479 58.5039 30.4832 59.3335 30.977 59.3335H49.3814C49.8753 59.3335 50.8794 58.5039 50.8794 57.2595C50.8794 56.0151 49.8753 55.1855 49.3814 55.1855Z"/>
</g>
<defs>
<clipPath id="clip0_8849_38319">
<rect width="56" height="37.3333" fill="white" transform="translate(12 22)"/>
</clipPath>
</defs>
</svg>
