<svg width="100%" height="100%" viewBox="0 0 80 80" fill="none" xmlns="http://www.w3.org/2000/svg">
<path fill-rule="evenodd" clip-rule="evenodd" d="M48.9159 38.8855H45.1969H44.7072C45.8847 37.1503 46.2799 35.0013 45.7956 32.9615C45.2859 30.3759 42.9911 28.5277 40.3535 28.5773C38.2129 28.5773 34.6027 29.4471 34.4577 34.8094C34.3743 37.299 35.8091 39.5908 38.0858 40.6064C37.8682 41.0841 37.8682 41.6327 38.0858 42.1102C38.4487 43.0386 39.4935 43.5001 40.4259 43.1428C41.0809 42.8862 41.6922 42.5319 42.2401 42.092C43.2087 42.3366 44.1991 42.4822 45.1969 42.5268H48.9339V40.1897C48.8759 39.7574 48.8687 39.3194 48.9159 38.8855ZM40.9885 37.8711H40.825C38.485 36.9833 38.0494 36.0595 38.0858 34.8818C38.0858 32.6354 38.9384 32.2007 40.4077 32.1825C41.3239 32.2395 42.0785 32.9248 42.2219 33.831C42.4595 35.3179 42.0043 36.8316 40.9885 37.9435V37.8711Z"/>
<path fill-rule="evenodd" clip-rule="evenodd" d="M66.204 16.9996H13.814C12.8128 16.9996 12 17.8106 12 18.8112V47.308C12 48.3086 12.8128 49.1196 13.814 49.1196H25.6779C26.3528 47.4183 27.7369 46.0956 29.4693 45.4962H15.6097V20.623H64.3719V45.3694H60.7439V48.9928H66.1858C67.1872 48.9928 68 48.1818 68 47.1812V18.8112C68 17.8178 67.1982 17.0094 66.204 16.9996Z"/>
<path fill-rule="evenodd" clip-rule="evenodd" d="M38.7928 45.4243C37.944 41.6733 34.608 39.01 30.7568 39.0112H26.4754C25.8569 37.1288 24.362 35.6633 22.4664 35.08V31.1669C24.4056 30.5628 25.9257 29.0459 26.5299 27.109H53.4867C54.0909 29.0459 55.611 30.5628 57.5504 31.1669V34.9351C58.8365 35.6174 59.8305 36.7443 60.3438 38.1054C60.8519 37.7799 61.1658 37.223 61.1784 36.6198V29.627C61.1784 28.6266 60.3658 27.8154 59.3644 27.8154C57.9713 27.8154 56.8428 26.6882 56.8428 25.2973C56.8428 24.2966 56.0301 23.4857 55.0287 23.4857H24.9879C23.9865 23.4857 23.1737 24.2966 23.1737 25.2973C23.1737 26.6882 22.0455 27.8154 20.6524 27.8154C19.651 27.8154 18.8382 28.6266 18.8382 29.627V36.6198C18.8382 37.6205 19.651 38.4316 20.6524 38.4316C22.0147 38.431 23.1267 39.5177 23.1557 40.8772C23.1557 41.8778 23.9685 42.6888 24.9697 42.6888H30.7568C32.627 42.69 34.3123 43.821 35.0196 45.5512C36.685 46.1955 38.002 47.5108 38.6478 49.1743H48.734V45.5512L38.7928 45.4243Z"/>
<path fill-rule="evenodd" clip-rule="evenodd" d="M54.6668 61.9102C50.6214 61.9102 47.2292 59.9898 46.195 57.1273C45.8577 56.1851 46.3493 55.1484 47.2927 54.8119C47.2963 54.8107 47.2981 54.8097 47.3017 54.8087C48.2433 54.4824 49.2717 54.9759 49.6056 55.9137C50.725 57.5761 52.6714 58.4881 54.6668 58.287C57.6783 58.287 59.8007 56.7651 59.8007 55.4064V54.8269C58.2116 55.6352 56.4502 56.0457 54.6668 56.0223C50.6214 56.0223 47.2292 54.1022 46.195 51.2397C46.1208 51.0365 46.0844 50.8219 46.0862 50.6058L46.195 44.6997C46.1824 43.8079 46.821 43.0396 47.7008 42.8882C48.5696 42.7404 49.4187 43.2368 49.7144 44.0658C50.801 45.758 52.7567 46.6856 54.7577 46.4571C57.7869 46.4571 59.8913 44.9354 59.8913 43.5767V42.7069C59.7335 43.2579 59.3218 43.7014 58.7849 43.9028C57.495 44.3717 56.1308 44.6109 54.7577 44.6091C49.8414 44.6091 45.9956 41.7467 45.9956 38.1056C45.9956 34.4642 49.8414 31.5835 54.7577 31.5835C59.6737 31.5835 63.338 34.3374 63.5195 37.8517V43.5767C63.5087 45.128 62.8519 46.6049 61.7055 47.6526C62.7067 47.6526 63.5195 48.4639 63.5195 49.4643V55.3522C63.4289 59.048 59.5649 61.9102 54.6668 61.9102ZM49.7326 50.2613C50.9026 51.7698 52.764 52.576 54.6668 52.3992C57.6783 52.3992 59.8007 50.8774 59.8007 49.5187C59.7627 49.3271 59.7627 49.1305 59.8007 48.9388C58.208 49.7386 56.4482 50.1487 54.6668 50.1347C52.9307 50.1537 51.2147 49.7626 49.66 48.9932L49.7326 50.2613ZM58.1498 40.4424C58.9027 40.4476 59.5739 40.9161 59.8369 41.6201V41.7467V37.997C59.8369 36.7469 57.6419 35.2613 54.703 35.2613C51.7644 35.2613 49.5691 36.7831 49.5691 38.16C49.5691 39.5366 51.6736 41.0404 54.703 41.0404C55.6374 41.048 56.5642 40.8885 57.4422 40.5693C57.6655 40.4761 57.9067 40.4328 58.1498 40.4424Z"/>
<path fill-rule="evenodd" clip-rule="evenodd" d="M32.0998 67.6533C28.0725 67.6533 24.68 65.7331 23.6462 62.8707C23.5718 62.6674 23.5354 62.4528 23.5372 62.2368L23.628 56.3307C23.6172 55.4333 24.2647 54.6626 25.1517 54.5191C26.0207 54.3713 26.8697 54.8678 27.1656 55.6968C28.2504 57.3924 30.2076 58.3209 32.2086 58.0881C35.2198 58.0881 37.3423 56.5662 37.3423 55.1895V54.3379C37.1792 54.882 36.7691 55.3181 36.2358 55.5156C34.9478 55.9975 33.5835 56.2429 32.2086 56.2401C27.2924 56.2401 23.4466 53.3777 23.4466 49.7183C23.4466 46.0589 27.2924 43.2146 32.2086 43.2146C37.1246 43.2146 40.789 45.9683 40.9707 49.4827V55.1895C40.9561 56.7454 40.2993 58.2263 39.1565 59.2836C40.1577 59.2836 40.9707 60.0949 40.9707 61.0954C40.8616 64.7909 37.0158 67.6533 32.0998 67.6533ZM27.1656 61.8923C28.3408 63.3952 30.1986 64.2004 32.0998 64.0301C35.1292 64.0301 37.2335 62.5084 37.2335 61.1497C37.2335 60.9455 37.2696 60.7428 37.3423 60.5518C34.1442 62.1203 30.3998 62.1203 27.2018 60.5518L27.1656 61.8923ZM35.6009 52.0734C36.3483 52.0756 37.0194 52.5359 37.2881 53.2329V53.3777V49.6279C37.2881 48.3778 35.0928 46.8923 32.1542 46.8923C29.2151 46.8923 27.0203 48.414 27.0203 49.7727C27.0203 51.1314 29.1245 52.6713 32.1542 52.6713C33.0902 52.6805 34.019 52.5145 34.8934 52.182C35.1218 52.1048 35.3615 52.068 35.6009 52.0734Z"/>
</svg>
