<svg width="100%" height="100%" viewBox="0 0 80 80" fill="none" xmlns="http://www.w3.org/2000/svg">
<path fill-rule="evenodd" clip-rule="evenodd" d="M46.5058 67.9995H33.4419C32.6052 68.0189 31.8731 67.4316 31.6977 66.6018L30.529 61.0815C30.4175 60.5577 30.546 60.0109 30.8779 59.5953C31.2066 59.1846 31.6992 58.944 32.221 58.9404H46.1743L46.5058 57.0119C44.0465 57.0119 41.1337 56.6934 39.529 53.6325C37.1569 56.9943 34.5407 57.1711 31.1745 56.9765H31.0872C30.8445 56.9589 30.6076 56.8915 30.3895 56.7819C29.7436 56.4474 29.3686 55.7433 29.4477 55.0126C29.4477 55.0126 29.4477 54.8534 29.4477 54.7825C29.4394 54.6817 29.4394 54.5826 29.4477 54.4818V49.1737C28.3901 46.3128 27.0274 43.5772 25.3838 41.0172C23.2756 37.6182 22.1069 33.7078 22 29.6933C22.2908 19.8806 30.1837 12.0619 39.8604 12C49.7151 12 58 20.1389 58 29.6933C57.8907 33.7715 56.6845 37.7419 54.5116 41.1762C52.9549 43.618 51.6235 46.2012 50.5349 48.8907C50.2223 49.8141 49.2304 50.3078 48.3191 49.9893C47.4475 49.6867 46.9588 48.7474 47.2034 47.8467C48.3967 44.8016 49.8867 41.8858 51.6511 39.1416C53.4674 36.2911 54.4918 32.9967 54.6162 29.605C54.6162 22.0321 47.9185 15.5918 39.965 15.4501C32.1993 15.4749 25.8465 21.7312 25.5931 29.605C25.7033 32.9312 26.6715 36.1709 28.4012 38.9999C28.5058 39.1594 33.0407 46.6789 33.0407 49.0854V53.4908C34.8133 53.6714 36.498 52.6701 37.2093 51.0139C37.6237 50.3256 37.9408 49.5806 38.1511 48.8023L37.7151 48.5545C34.8673 46.5021 32.9311 43.3933 32.3256 39.9024C32.0639 36.6822 33.7733 35.8683 34.5232 35.6559C36.2675 35.1782 38.4303 36.5408 39.7557 38.1155C40.2254 36.6308 41.2708 35.4047 42.6511 34.7183C43.8066 34.3432 45.0719 34.6812 45.8954 35.5852C47.3373 37.2058 47.8516 39.4671 47.2558 41.5656C46.6801 44.5382 44.7616 48.0944 42.1802 49.1207H42.0058C42.1278 49.8106 42.2849 50.4831 42.4593 51.12C43.1221 53.2787 44.2034 53.4555 47.5349 53.3847C48.4418 53.3847 49.4708 53.2962 50.0639 54.0041C50.3978 54.4056 50.5385 54.9382 50.4477 55.4549L49.4534 60.9575C49.3 61.8087 48.5622 62.4226 47.7092 62.4085H34.4186L34.8546 64.39H46.5058C47.469 64.39 48.25 65.1828 48.25 66.1593C48.25 67.1362 47.469 67.9288 46.5058 67.9288V67.9995ZM41.8139 43.8304C41.8139 44.2018 41.8139 44.5912 41.9185 44.9628C42.8422 43.795 43.4707 42.4166 43.75 40.9462C44.0094 40.0846 43.9346 39.1539 43.5407 38.3454C42.7232 39.7805 42.1789 41.3587 41.9361 42.9987C41.9011 43.2288 41.8139 43.4941 41.8139 43.8304ZM35.7442 39.354C35.7357 39.4548 35.7357 39.554 35.7442 39.6547C36.1657 41.4593 37.0574 43.1155 38.3256 44.4497V43.8479C38.1766 42.8926 37.8948 41.9636 37.4884 41.0879C37.0816 40.3449 36.4851 39.7291 35.7616 39.3008L35.7442 39.354Z"/>
</svg>
