<svg width="100%" height="100%" viewBox="0 0 80 80" fill="none" xmlns="http://www.w3.org/2000/svg">
<path fill-rule="evenodd" clip-rule="evenodd" d="M40.2878 71.8745C39.725 71.8725 39.1788 71.6834 38.7355 71.3368C30.9136 65.8676 24.2954 58.8529 19.291 50.7229C18.7306 49.7767 19.0423 48.5559 19.9876 47.9942C20.9329 47.4326 22.1534 47.7454 22.7142 48.6913C27.345 56.178 33.4371 62.655 40.6262 67.732C41.5219 67.3137 44.0295 65.6405 50.5775 59.1876L51.1746 58.61C55.5059 54.3617 59.4986 49.7787 63.116 44.9071H51.9109C48.627 44.9668 48.627 44.9668 46.6368 47.7352L45.8406 48.9103C45.4696 49.446 44.8599 49.7649 44.2088 49.7668C43.6001 49.7232 43.0374 49.4262 42.6562 48.9502C42.2384 48.3728 41.5219 47.2572 40.6661 45.9228C39.2531 43.7121 36.4269 39.3106 35.2527 37.9561C34.5087 39.139 33.9137 40.41 33.4813 41.7402C33.2365 42.4175 32.9576 43.0827 32.6455 43.7321C32.3104 44.4153 31.6153 44.8494 30.8543 44.8475H14.6538C13.92 44.8453 13.2469 44.4391 12.9023 43.7918C8.42429 35.3074 8.34463 23.9746 18.2958 17.7405C25.4185 13.3529 34.5991 14.3089 40.6661 20.0708C44.1645 17.0433 48.5835 15.2888 53.2046 15.0917H53.543C59.7336 15.3823 65.334 18.8558 68.3503 24.2732C70.7162 28.6688 70.526 34.0006 67.8528 38.2151C67.146 39.0576 65.8905 39.1671 65.0487 38.46C64.3991 37.9142 64.1663 37.0159 64.4693 36.2234C66.3529 33.2039 66.4818 29.4058 64.8077 26.2649C62.5023 22.0766 58.213 19.3637 53.4434 19.0749C48.1295 19.6525 44.4674 21.3853 42.2384 24.3729C41.8668 24.8827 41.2762 25.1854 40.6461 25.1895C40.0197 25.1895 39.43 24.8946 39.054 24.3927C34.5236 18.7782 26.5169 17.4359 20.4054 21.2658C13.0217 25.9065 12.8028 34.3311 15.8877 41.0232H29.5207C29.5207 40.8441 29.66 40.6648 29.7198 40.4658C30.6552 37.9761 31.71 35.1677 33.8396 34.2317C34.7532 33.8334 35.7918 33.8334 36.7055 34.2317C37.9594 34.7496 39.3326 36.5421 43.9898 43.8515C44.1092 44.0109 44.1887 44.1702 44.2883 44.3096C46.1392 41.7604 47.3931 41.0434 51.9109 41.0434H66.8377C67.5757 41.0493 68.2497 41.4635 68.5891 42.1188C68.9083 42.7562 68.863 43.5148 68.4697 44.1104C64.1368 50.3662 59.2184 56.1941 53.7818 61.5177L53.2245 62.0754C45.6616 69.5444 42.3379 71.8745 40.2878 71.8745Z"/>
</svg>
