<svg width="100%" height="100%" viewBox="0 0 80 80" fill="none" xmlns="http://www.w3.org/2000/svg">
<path fill-rule="evenodd" clip-rule="evenodd" d="M40.1934 54.4199C39.3161 54.4199 38.6041 53.7074 38.6041 52.8295V40.7266C38.6041 39.8487 39.3161 39.1364 40.1934 39.1364C41.0707 39.1364 41.7827 39.8487 41.7827 40.7266V52.8295C41.7827 53.7074 41.0707 54.4199 40.1934 54.4199Z"/>
<path fill-rule="evenodd" clip-rule="evenodd" d="M40.4644 68C39.1167 67.9984 37.7911 67.6469 36.6184 66.9822C35.4281 66.362 34.527 65.2996 34.1072 64.0241C33.6989 62.4082 34.163 60.6953 35.331 59.5073C35.4295 59.3992 35.536 59.2975 35.6489 59.2052C35.3263 58.9109 35.0531 58.5674 34.8384 58.1873C34.368 57.4462 34.5857 56.4634 35.3262 55.9925C36.0684 55.5202 37.0505 55.7398 37.5211 56.4809C37.5449 56.519 37.5672 56.5572 37.5877 56.597C37.8738 57.0899 38.3348 57.2172 39.5108 57.4558H39.6379H39.8922C41.5434 57.6418 43.1246 58.2255 44.501 59.1575C45.8629 60.1992 46.5893 61.8707 46.424 63.5788C45.971 65.6892 44.2991 67.3242 42.1807 67.7298C41.6196 67.8824 41.0443 67.973 40.4644 68ZM39.3994 60.6683C38.7464 60.8592 38.152 61.2091 37.6672 61.6862C37.2619 62.0568 37.0761 62.6085 37.1746 63.1493C37.3765 63.6232 37.7435 64.0066 38.2077 64.2308C39.1961 64.7889 40.3578 64.9593 41.4655 64.708C42.2761 64.5171 43.1818 63.9286 43.2771 63.2289C43.2946 62.6325 43.0149 62.0663 42.5302 61.7181C41.5672 61.1503 40.4945 60.7924 39.3836 60.6683H39.3994Z"/>
<path fill-rule="evenodd" clip-rule="evenodd" d="M40.1957 42.3125C39.3184 42.3125 38.6064 41.6001 38.6064 40.7221C38.6064 39.8443 39.3184 39.1317 40.1957 39.1317C46.8053 39.1414 52.169 33.7865 52.1783 27.1721C52.1863 20.5577 46.837 15.1902 40.2275 15.1806C33.6179 15.1711 28.2543 20.5258 28.2448 27.1404C28.2448 27.1514 28.2448 27.1611 28.2448 27.1721C28.2448 28.0499 27.5328 28.7625 26.6557 28.7625C25.7784 28.7625 25.0663 28.0499 25.0663 27.1721C25.0568 18.8019 31.8316 12.0093 40.1957 11.9998C48.5597 11.9902 55.3472 18.77 55.3567 27.1404C55.3648 35.5104 48.5914 42.303 40.2275 42.3125C40.2163 42.3125 40.2069 42.3125 40.1957 42.3125Z"/>
<path fill-rule="evenodd" clip-rule="evenodd" d="M44.1677 41.7281C43.4431 41.7584 42.7885 41.294 42.5786 40.599C42.3227 39.7593 42.7949 38.8701 43.6355 38.6141C43.6371 38.6125 43.6401 38.6125 43.6434 38.6111C49.9543 36.6739 53.4997 29.9847 51.5641 23.6693C49.6269 17.3556 42.9426 13.8058 36.6335 15.7446C30.3321 17.6783 26.7866 24.3501 28.7047 30.6591C28.9639 31.4971 28.4935 32.3877 27.6559 32.6471C26.8184 32.9063 25.9285 32.4355 25.6695 31.5973C23.2188 23.6041 27.7069 15.1354 35.6957 12.6814C43.6832 10.229 52.1457 14.7218 54.5978 22.7151C57.0485 30.7099 52.559 39.1788 44.5715 41.6312C44.5682 41.6312 44.5668 41.6326 44.565 41.6326C44.4397 41.6885 44.3044 41.7202 44.1677 41.7281Z"/>
</svg>
