<svg width="100%" height="100%" viewBox="0 0 80 80" fill="none" xmlns="http://www.w3.org/2000/svg">
<path fill-rule="evenodd" clip-rule="evenodd" d="M34.7055 55.6C31.6128 55.521 28.5671 54.814 25.7547 53.5213C22.933 52.3273 20.3083 50.7098 17.9701 48.7266C10.8821 42.7488 11.9121 41.1404 12.2604 40.5791C22.2455 25.9908 42.1462 22.2736 56.7084 32.2769C59.9586 34.5101 62.7678 37.3246 64.9956 40.5791C65.4499 41.3075 66.2224 42.5212 59.9371 48.1654C56.8885 50.7327 53.4399 52.7824 49.7294 54.2345C48.9509 54.5333 48.0786 54.1464 47.7756 53.3696C47.4713 52.5898 47.8559 51.7096 48.6359 51.4048C48.6419 51.4016 48.6479 51.4003 48.6539 51.3971C52.0119 50.0939 55.1377 48.255 57.9077 45.9503C59.3858 44.6181 60.7625 43.1782 62.0272 41.6412C52.5752 28.687 34.4283 25.8618 21.4974 35.331C19.0863 37.0971 16.9613 39.2257 15.1984 41.6412C16.6373 43.3633 18.2183 44.9625 19.9238 46.4206C22.0336 48.2109 24.4037 49.669 26.951 50.7447C33.5846 53.5973 38.7644 53.142 42.3082 49.3792C44.2937 47.1443 45.2933 44.2007 45.0799 41.2164C44.9753 40.3788 45.5689 39.6142 46.405 39.5095C47.2409 39.4048 48.0045 39.9995 48.1088 40.8371C48.4238 43.8246 47.7195 46.8301 46.1098 49.364C45.6765 50.1166 45.1691 50.8236 44.5951 51.4729C42.0386 54.201 38.4387 55.7031 34.7055 55.6Z"/>
<path fill-rule="evenodd" clip-rule="evenodd" d="M38.6272 50.8267C33.4324 50.8267 29.2222 46.6086 29.2222 41.4046C29.2222 36.2003 33.4324 31.9823 38.6272 31.9823C43.822 31.9823 48.0323 36.2003 48.0323 41.4046C48.0249 46.6041 43.8175 50.8175 38.6272 50.8267ZM38.6272 35.0169C35.1059 35.0169 32.2512 37.8768 32.2512 41.4046C32.2512 44.932 35.1059 47.7921 38.6272 47.7921C42.1485 47.7921 45.0033 44.932 45.0033 41.4046C44.9958 37.88 42.1455 35.0259 38.6272 35.0169Z"/>
<path fill-rule="evenodd" clip-rule="evenodd" d="M66.051 23.4108L15.3815 58.89C14.3058 59.6431 13.1119 59.7961 12.7165 59.2313C12.321 58.6665 12.873 57.5969 13.9487 56.8437L64.6182 21.3645C65.6941 20.6112 66.8882 20.4581 67.2836 21.0229C67.6791 21.5877 67.1269 22.6574 66.051 23.4108Z"/>
</svg>
