<svg width="100%" height="100%" viewBox="0 0 80 80" fill="none" xmlns="http://www.w3.org/2000/svg">
<path fill-rule="evenodd" clip-rule="evenodd" d="M40.5282 66C39.5213 66 38.7041 65.1832 38.7041 64.1757C38.7041 63.1682 39.5213 62.3514 40.5282 62.3514C53.4246 62.3514 63.8799 51.8966 63.8799 38.9999C63.8799 26.1034 53.4246 15.6486 40.5282 15.6486C39.5213 15.6486 38.7041 14.8318 38.7041 13.8243C38.7041 12.8168 39.5213 12 40.5282 12C55.4405 12 67.5286 24.0882 67.5286 38.9999C67.5286 53.9116 55.4405 66 40.5282 66Z"/>
<path fill-rule="evenodd" clip-rule="evenodd" d="M15.8258 64.1191H15.4426C14.4632 63.9092 13.8355 62.9481 14.0379 61.9665L16.4825 50.1631C16.6394 49.425 17.2341 48.8593 17.9785 48.74C18.2083 48.6956 18.4437 48.6956 18.6718 48.74L30.4385 51.1847C31.4455 51.3911 32.0949 52.3753 31.8888 53.3829C31.6826 54.3904 30.6974 55.0397 29.6905 54.8334L19.6932 52.7535L17.6136 62.7144C17.4184 63.5421 16.6758 64.1249 15.8258 64.1191Z"/>
<path fill-rule="evenodd" clip-rule="evenodd" d="M40.6388 65.9998C30.5284 66.035 21.2537 60.3967 16.6308 51.4054C16.2605 50.4682 16.7202 49.4088 17.6579 49.0387C18.4661 48.7196 19.3874 49.0152 19.86 49.7452C25.769 61.2083 39.8524 65.7104 51.3146 59.8012C58.5188 56.0878 63.2821 48.905 63.8987 40.8244C63.9772 39.8229 64.8494 39.0726 65.8509 39.1459C66.8562 39.223 67.6079 40.1 67.5312 41.1046C67.5292 41.1084 67.5291 41.1124 67.5291 41.1162C66.3745 55.1293 54.6988 65.934 40.6388 65.9998Z"/>
<path fill-rule="evenodd" clip-rule="evenodd" d="M18.2897 29.3122H18.0526C17.0565 29.1887 16.3467 28.2838 16.4654 27.2871C16.5895 26.2911 17.4945 25.5819 18.4903 25.7C19.4975 25.7554 20.2692 26.617 20.2145 27.6247C20.1598 28.6324 19.2966 29.4042 18.2897 29.3488V29.3122Z"/>
<path fill-rule="evenodd" clip-rule="evenodd" d="M65.7033 38.8174C64.7492 38.8204 63.9556 38.089 63.8792 37.1389C62.8447 24.284 51.5852 14.7019 38.729 15.7369C30.6802 16.3848 23.536 21.1465 19.84 28.3273C19.2928 29.1736 18.1636 29.416 17.317 28.8692C16.5873 28.3974 16.2919 27.4759 16.611 26.6673C23.4175 13.4112 39.6814 8.18318 52.9385 14.9901C61.2539 19.2598 66.767 27.5291 67.5096 36.8471C67.5935 37.8512 66.8472 38.7328 65.8419 38.8163C65.8385 38.8165 65.8347 38.8168 65.8311 38.8174H65.7033Z"/>
<path fill-rule="evenodd" clip-rule="evenodd" d="M40.5305 40.8242C40.0453 40.827 39.5801 40.6368 39.2353 40.2952L21.6489 22.7085C20.9335 21.9931 20.9335 20.8334 21.6489 20.1181C22.3639 19.4026 23.5241 19.4026 24.2393 20.1181L41.8257 37.7046C42.541 38.4141 42.5464 39.5692 41.8368 40.2847C41.833 40.2882 41.8294 40.2918 41.8257 40.2952C41.4811 40.6368 41.0158 40.827 40.5305 40.8242Z"/>
<path fill-rule="evenodd" clip-rule="evenodd" d="M40.5272 40.8242C40.0419 40.8268 39.5768 40.6366 39.2319 40.295C38.5167 39.5855 38.5113 38.4303 39.2211 37.715C39.2247 37.7114 39.2283 37.7078 39.2319 37.7044L48.0069 28.9477C48.662 28.1823 49.8149 28.0932 50.5794 28.7484C51.3437 29.4041 51.4331 30.5555 50.7782 31.3208C50.7179 31.3923 50.6505 31.4587 50.5794 31.52L41.8226 40.295C41.4776 40.6366 41.0124 40.8268 40.5272 40.8242Z"/>
</svg>
