<svg width="100%" height="100%" viewBox="0 0 80 80" fill="none" xmlns="http://www.w3.org/2000/svg">
<path fill-rule="evenodd" clip-rule="evenodd" d="M63.4627 64H47.0491C45.9334 64 45.0277 63.1868 45.0277 62.1849V45.7215H34.4559V62.1849C34.4559 63.1868 33.5505 64 32.4348 64H16.0214C14.9057 64 14 63.1868 14 62.1849V56.9572C14 55.9554 14.9057 55.1421 16.0214 55.1421C17.1371 55.1421 18.0425 55.9554 18.0425 56.9572V60.3698H30.4134V43.9064C30.4134 42.9043 31.3189 42.0911 32.4348 42.0911H47.0491C48.165 42.0911 49.0705 42.9043 49.0705 43.9064V60.3698H61.4411V25.6823L39.5701 12.0323L18.0425 25.6823V49.1339C18.0425 50.136 17.1371 50.949 16.0214 50.949C14.9057 50.949 14 50.136 14 49.1339V24.7384C13.996 24.1485 14.3135 23.593 14.8489 23.25L38.3775 8.32954C39.075 7.89015 40.0045 7.89015 40.702 8.32954L64.6147 23.25C65.1584 23.5894 65.4819 24.1449 65.4839 24.7384V62.1849C65.4839 63.1868 64.5784 64 63.4627 64Z"/>
</svg>
