<svg width="100%" height="100%" viewBox="0 0 80 80" fill="none" xmlns="http://www.w3.org/2000/svg">
<path fill-rule="evenodd" clip-rule="evenodd" d="M53.9785 64.3882H30.8927C29.8544 64.3882 29.0128 63.5453 29.0128 62.5067C29.0128 61.4681 29.8544 60.6254 30.8927 60.6254H53.9785C55.0167 60.6254 55.8585 61.4681 55.8585 62.5067C55.8585 63.5453 55.0167 64.3882 53.9785 64.3882Z"/>
<path fill-rule="evenodd" clip-rule="evenodd" d="M23.4294 67.9999C21.7777 68.0092 20.2284 67.1985 19.2936 65.8363C19.0879 65.5299 18.9767 65.1704 18.974 64.8018V64.1434C17.8264 63.8892 17.0072 62.8734 17 61.6976V25.2941C17.0199 21.9963 19.6644 19.3175 22.9593 19.2553H56.7983C59.825 19.2553 62.1749 21.3812 62.8141 24.8992C62.8241 25.0064 62.8241 25.1117 62.8141 25.2189V61.5657C62.8118 61.7708 62.78 61.972 62.7201 62.1677C62.438 63.0654 61.7361 63.7669 60.8401 64.0491V64.5949C60.8367 64.9258 60.7459 65.2512 60.5768 65.5355C59.6643 66.9953 58.0273 67.8401 56.3094 67.7366C54.681 67.759 53.1748 66.8749 52.3991 65.4413C52.265 65.1799 52.1941 64.8901 52.1923 64.5949V31.0888C52.1923 30.75 52.0232 30.5054 51.4405 30.3926H28.3171C27.9122 30.4791 27.5956 30.7971 27.5088 31.2015V64.7829C27.5059 65.0294 27.4546 65.272 27.3585 65.4977C26.7668 66.8937 25.4477 67.8438 23.9369 67.9624L23.4294 67.9999ZM22.7337 64.0491C22.9864 64.1884 23.2732 64.2524 23.561 64.2373H23.7489V31.0888C23.7397 30.9569 23.7397 30.8253 23.7489 30.6936C24.1189 28.7049 25.6729 27.1512 27.6593 26.7805H28.054H51.7976C53.9477 27.0119 55.6374 28.7277 55.8395 30.8817C55.8486 30.9569 55.8486 31.0322 55.8395 31.1074V64.0491C55.9872 64.115 56.1478 64.1471 56.3094 64.1434C56.536 64.1508 56.7612 64.1057 56.9674 64.0115V62.4501C56.9674 61.4115 57.809 60.5688 58.8474 60.5688H58.9789V25.4446C58.7909 24.4477 58.2269 23.0554 56.7418 22.999H23.0534C22.7842 23.0084 22.5179 23.0592 22.2638 23.1495C21.3461 23.5335 20.7467 24.4307 20.7411 25.426V60.4372H20.835C21.8733 60.4372 22.715 61.2799 22.715 62.3183L22.7337 64.0491Z"/>
<path fill-rule="evenodd" clip-rule="evenodd" d="M46.3831 40.8715H33.2234C30.8043 40.8715 28.8432 38.9093 28.8432 36.488C28.8432 34.0669 30.8043 32.1047 33.2234 32.1047H53.903C54.9411 32.1047 55.7828 32.9474 55.7828 33.9858C55.7828 35.0244 54.9411 35.8673 53.903 35.8673H33.2234C32.8808 35.8673 32.6031 36.1455 32.6031 36.488C32.6031 36.8305 32.8808 37.1089 33.2234 37.1089H46.3831C46.5483 37.1147 46.7074 37.0448 46.8155 36.9208C47.5466 36.1832 48.7369 36.1776 49.4741 36.9094C49.4777 36.9134 49.4814 36.9169 49.485 36.9208C50.2139 37.6543 50.2139 38.8397 49.485 39.5733C48.6708 40.4106 47.5505 40.8792 46.3831 40.8715Z"/>
<path fill-rule="evenodd" clip-rule="evenodd" d="M45.8758 23.0181H33.8819C32.8435 23.0181 32.0019 22.1752 32.0019 21.1368V18.5968C32.0019 17.5586 32.8435 16.7157 33.8819 16.7157C34.9202 16.7157 35.7618 17.5586 35.7618 18.5968V19.2554H43.9958V17.5246C44.1148 14.5805 46.4348 12.2025 49.3725 12.0124C50.4107 11.8938 51.3493 12.6388 51.4686 13.6774C51.588 14.7158 50.8431 15.6564 49.8049 15.775C49.4664 15.775 47.7557 16.1324 47.7557 17.5433V21.1556C47.7454 22.1865 46.9067 23.0181 45.8758 23.0181Z"/>
<path fill-rule="evenodd" clip-rule="evenodd" d="M49.579 15.7749H30.1781C29.1397 15.7749 28.2981 14.932 28.2981 13.8934C28.2981 12.855 29.1397 12.0121 30.1781 12.0121H49.579C50.6172 12.0121 51.459 12.855 51.459 13.8934C51.459 14.932 50.6172 15.7749 49.579 15.7749Z"/>
</svg>
