<svg width="100%" height="100%" viewBox="0 0 40 40" fill="none" xmlns="http://www.w3.org/2000/svg">
<path d="M19.6108 19.54C19.6108 21.5088 19.1961 22.9785 18.3666 23.9492C17.5372 24.9199 16.2817 25.4053 14.6 25.4053C14.0076 25.4053 13.5587 25.3734 13.2534 25.3096V23.6143C13.6362 23.71 14.0372 23.7578 14.4565 23.7578C15.1629 23.7578 15.7439 23.6553 16.1996 23.4502C16.6554 23.2406 17.004 22.9147 17.2455 22.4727C17.4871 22.026 17.6261 21.4131 17.6625 20.6338H17.5805C17.3162 21.0622 17.0108 21.363 16.6645 21.5361C16.3181 21.7093 15.8852 21.7959 15.3657 21.7959C14.4952 21.7959 13.8093 21.5179 13.308 20.9619C12.8067 20.4014 12.5561 19.6243 12.5561 18.6309C12.5561 17.5599 12.8592 16.7145 13.4653 16.0947C14.0759 15.4704 14.9054 15.1582 15.9536 15.1582C16.6918 15.1582 17.3367 15.3314 17.8881 15.6777C18.4441 16.0241 18.8702 16.5277 19.1664 17.1885C19.4627 17.8447 19.6108 18.6286 19.6108 19.54ZM15.9946 16.8535C15.5571 16.8535 15.2153 17.0039 14.9692 17.3047C14.7231 17.6055 14.6 18.0384 14.6 18.6035C14.6 19.0866 14.7117 19.4694 14.935 19.752C15.1583 20.0345 15.4978 20.1758 15.9536 20.1758C16.3819 20.1758 16.7488 20.0368 17.0541 19.7588C17.3595 19.4762 17.5121 19.1527 17.5121 18.7881C17.5121 18.2458 17.3686 17.7878 17.0815 17.4141C16.7989 17.0404 16.4366 16.8535 15.9946 16.8535ZM27.8088 19.54C27.8088 21.5088 27.3941 22.9785 26.5647 23.9492C25.7353 24.9199 24.4797 25.4053 22.7981 25.4053C22.2056 25.4053 21.7567 25.3734 21.4514 25.3096V23.6143C21.8342 23.71 22.2353 23.7578 22.6545 23.7578C23.3609 23.7578 23.942 23.6553 24.3977 23.4502C24.8534 23.2406 25.2021 22.9147 25.4436 22.4727C25.6851 22.026 25.8241 21.4131 25.8606 20.6338H25.7786C25.5142 21.0622 25.2089 21.363 24.8625 21.5361C24.5162 21.7093 24.0832 21.7959 23.5637 21.7959C22.6933 21.7959 22.0074 21.5179 21.5061 20.9619C21.0048 20.4014 20.7541 19.6243 20.7541 18.6309C20.7541 17.5599 21.0572 16.7145 21.6633 16.0947C22.274 15.4704 23.1034 15.1582 24.1516 15.1582C24.8899 15.1582 25.5347 15.3314 26.0862 15.6777C26.6422 16.0241 27.0683 16.5277 27.3645 17.1885C27.6607 17.8447 27.8088 18.6286 27.8088 19.54ZM24.1926 16.8535C23.7551 16.8535 23.4133 17.0039 23.1672 17.3047C22.9211 17.6055 22.7981 18.0384 22.7981 18.6035C22.7981 19.0866 22.9097 19.4694 23.133 19.752C23.3564 20.0345 23.6959 20.1758 24.1516 20.1758C24.58 20.1758 24.9468 20.0368 25.2522 19.7588C25.5575 19.4762 25.7102 19.1527 25.7102 18.7881C25.7102 18.2458 25.5666 17.7878 25.2795 17.4141C24.997 17.0404 24.6347 16.8535 24.1926 16.8535Z"/>
<rect x="1.41421" y="20" width="26.2843" height="26.2843" rx="1" transform="rotate(-45 1.41421 20)" stroke="#DDDDDD" stroke-width="2" stroke-linejoin="round"/>
</svg>
