<svg width="100%" height="100%" viewBox="0 0 80 80" fill="none" xmlns="http://www.w3.org/2000/svg">
<path d="M48.9145 50.6236C47.0477 49.5923 44.5586 49.386 42.4844 49.1797C41.2398 48.9734 39.7879 48.9735 39.373 48.7673C38.3359 48.1485 37.0913 44.4355 37.5061 43.4042C38.9581 41.1352 40.6176 37.4224 41.4473 34.122C42.8992 28.3465 42.277 24.0149 39.7879 20.9209C36.4691 16.7955 31.076 17.0017 31.076 17.0017C30.8686 17.0017 25.4756 17.0018 22.1568 20.9209C19.6677 24.0149 19.0453 28.3465 20.4973 34.122C21.327 37.4224 22.9864 41.1352 24.4384 43.4042C24.6458 44.4355 23.6087 48.1485 22.5715 48.7673C21.9493 48.9735 20.7047 49.1797 19.4602 49.1797C17.3859 49.386 14.8969 49.5923 13.0301 50.6236C11.9929 51.0362 11.7855 52.2737 12.2003 53.3051C12.6152 54.3364 13.8598 54.5428 14.8969 54.1302C16.1415 53.5114 18.2156 53.3051 19.875 53.0989C21.7419 52.8926 23.1939 52.8926 24.4384 52.2737C26.9275 51.0361 27.9646 47.5296 28.172 46.4982C28.5869 44.8481 28.7944 42.7854 27.9647 41.3415C26.7201 39.4851 25.2681 36.1848 24.6458 33.297C23.6087 28.7591 23.8161 25.4587 25.4755 23.396C27.5498 20.7145 31.2835 20.7146 31.4909 20.9209C31.4909 20.9209 35.2245 20.9208 37.2988 23.396C38.9582 25.4587 39.3729 28.7591 38.1284 33.297C37.5061 36.1848 36.0542 39.4851 34.8096 41.3415C33.7725 42.5791 34.1874 44.8481 34.6023 46.4982C34.8097 47.5296 35.8468 51.0361 38.3359 52.2737C39.5804 52.8926 41.0324 53.0989 42.8993 53.0989C44.7661 53.3051 46.6328 53.5114 47.8774 54.1302C48.0848 54.3365 48.4997 54.3364 48.7071 54.3364C49.3294 54.3364 50.1591 53.9239 50.3665 53.3051C50.1591 52.2737 49.9516 51.0362 48.9145 50.6236Z"/>
<path d="M55.0175 45.0242C51.6492 44.9795 49.0071 42.2642 49.0514 38.8929C49.0958 35.5216 51.8085 32.8774 55.1768 32.9221C58.5451 32.9668 61.1872 35.6821 61.1428 39.0534C61.0985 42.4247 58.3858 45.0689 55.0175 45.0242ZM60.9075 43.8055C61.961 42.5226 62.6736 40.8893 62.6974 39.074C62.7521 34.9247 59.4281 31.5087 55.2825 31.4537C51.1369 31.3987 47.7242 34.7253 47.6696 38.8746C47.615 43.0239 50.9389 46.4398 55.0845 46.4949C56.8982 46.5189 58.5472 45.9356 59.8575 44.829L66.5054 51.661C66.6758 51.8362 66.8474 51.9249 67.0201 51.9272C67.1929 51.9295 67.3667 51.8454 67.5417 51.6748C67.8043 51.4189 67.8111 50.9002 67.5554 50.6374L60.9075 43.8055Z" stroke="#1E1E1E" stroke-width="0.5"/>
</svg>
