<svg width="100%" height="100%" viewBox="0 0 80 80" fill="none" xmlns="http://www.w3.org/2000/svg">
<path fill-rule="evenodd" clip-rule="evenodd" d="M49.9968 68H30.6403C29.735 68 29 67.2647 29 66.3584C29 65.4523 29.735 64.7168 30.6403 64.7168C38.4321 64.7168 38.6782 61.171 38.6782 61.007V37.5486C38.6782 37.0725 38.5306 32.8373 34.7578 32.8373H30.7879C29.8824 32.8373 29.1474 32.1018 29.1474 31.1958C29.1474 30.2895 29.8824 29.5542 30.7879 29.5542H34.7578C40.4498 29.5542 41.959 34.7909 41.959 37.5486V60.9903C41.8966 62.3597 41.3489 63.663 40.4171 64.6676H49.9968C50.9024 64.6676 51.6373 65.403 51.6373 66.3092C51.6373 67.2153 50.9024 67.9508 49.9968 67.9508V68Z"/>
<path fill-rule="evenodd" clip-rule="evenodd" d="M39.9578 28.1586C39.1736 28.157 38.3912 28.0633 37.6284 27.8795C34.8366 27.3804 32.6254 25.2383 32.0348 22.4622C31.8166 20.2364 32.7746 18.0597 34.5609 16.7168C36.4555 15.4562 38.6175 14.6583 40.8765 14.3858H41.2372C43.0909 14.0246 43.9932 13.7949 44.518 12.8262C44.9708 12.0382 45.978 11.7658 46.7654 12.219C47.5528 12.6719 47.825 13.6798 47.3722 14.468C46.954 15.1671 46.3963 15.7697 45.7319 16.2409C46.0782 16.51 46.4012 16.807 46.6999 17.1272C48.2318 18.6604 48.8535 20.8816 48.3402 22.9877C47.7857 24.6539 46.6112 26.0426 45.0594 26.8618C43.4961 27.7187 41.741 28.1651 39.9578 28.1586ZM41.5983 17.6033C39.8577 17.7822 38.1764 18.3419 36.6772 19.2449C35.7978 19.8735 35.2975 20.9062 35.3483 21.9863C35.5288 23.3652 37.0707 24.3337 38.4323 24.662C40.1826 25.0609 42.0197 24.7917 43.583 23.907C44.3539 23.4638 44.9429 22.7596 45.2399 21.9206C45.4202 20.9324 45.1021 19.9178 44.3868 19.212C43.5913 18.4192 42.6103 17.8381 41.5326 17.5212L41.5983 17.6033Z"/>
</svg>
