<svg width="100%" height="100%" viewBox="0 0 80 80" fill="none" xmlns="http://www.w3.org/2000/svg">
<path fill-rule="evenodd" clip-rule="evenodd" d="M54.4583 61.3528H53.9101C51.8897 61.0779 50.1284 59.8187 49.1912 57.9809C48.7777 57.1936 48.4719 56.3555 48.2775 55.4857C47.5796 55.4857 46.8321 55.6206 46.0677 55.7386C45.1506 55.8734 44.2982 55.2277 44.1652 54.2969C44.0322 53.3665 44.6687 52.5015 45.5858 52.3666C46.2172 52.2823 46.8151 52.1981 47.4135 52.1474L47.2307 51.6247C46.9747 50.9032 46.4663 50.3029 45.8017 49.9388C45.0608 49.6099 44.2351 49.5206 43.4424 49.686C43.1568 49.7365 42.874 49.8056 42.595 49.8883C42.3108 50.2069 42.0052 50.5052 41.6812 50.7817C40.2372 51.9787 38.526 52.7948 36.6965 53.1589C35.1812 53.4456 33.626 53.4456 32.1108 53.1589C30.5786 52.9195 29.1149 52.343 27.8239 51.473C26.6359 50.6535 25.6606 49.5544 24.9829 48.2698C23.4574 48.5445 21.8856 48.3808 20.4466 47.7976C18.8482 47.1416 17.5175 45.9532 16.675 44.4257C16.5422 44.1727 16.4258 43.9198 16.3094 43.6501C15.0815 43.0329 14.0415 42.0889 13.302 40.9189C12.4929 39.6764 12.0425 38.2264 12.0061 36.7377C11.9429 35.1814 12.3749 33.6438 13.2355 32.3539C13.9418 31.3256 14.8905 30.4911 15.9937 29.9263C16.0701 29.348 16.2147 28.7833 16.4257 28.2404C17.0754 26.4701 18.2334 24.9375 19.7487 23.8399C21.2392 22.7475 22.9987 22.0932 24.8331 21.9517C25.2916 21.9095 25.7536 21.9095 26.2122 21.9517C27.8636 19.9672 30.1416 18.6269 32.6589 18.1582C35.1431 17.7452 37.6935 18.1465 39.9367 19.3046C41.5765 18.5712 43.3443 18.1801 45.137 18.1582C47.7991 18.1143 50.4441 18.5898 52.9297 19.5577C55.5084 20.4747 57.8014 22.068 59.5759 24.1772C60.5761 25.4063 61.2825 26.8561 61.6363 28.4089C62.9606 28.7528 64.1734 29.4374 65.1588 30.3984C66.0845 31.3004 66.8103 32.3928 67.2856 33.6017C67.7558 34.792 67.9983 36.0614 68 37.3446C68.0033 39.0423 67.5115 40.7014 66.5877 42.1157C67.0527 43.3922 67.2124 44.7612 67.0528 46.1115C66.9185 47.3795 66.5644 48.6119 66.0062 49.7534C64.8929 52.0294 63.5471 53.3107 62.0185 53.5636C60.6843 53.7525 59.3484 53.2449 58.4628 52.2148C57.2382 51.1072 56.5272 49.5292 56.5022 47.8651C56.5237 46.8045 57.0121 45.8098 57.8313 45.1506C57.7434 45.1354 57.6536 45.1354 57.5656 45.1506C56.8012 45.3327 56.0685 45.6277 55.389 46.0274C53.0263 47.6561 49.8875 47.511 47.6792 45.6732C46.6856 45.1454 46.1125 44.0564 46.2338 42.9252C46.5162 41.0705 48.7427 40.1433 51.1187 39.4351C51.6671 39.2666 52.1986 39.1317 52.7802 38.9968C55.3556 38.3899 56.419 37.9683 56.419 36.9062C56.3908 36.7089 56.2812 36.532 56.12 36.4172C55.57 35.9906 54.8788 35.7985 54.1925 35.8777C52.7985 36.2167 51.4942 36.8607 50.3712 37.766L49.9225 38.0863C46.3551 40.4704 42.4803 42.3418 38.4078 43.6501C35.6498 44.5268 33.4234 44.156 32.36 42.571C31.6405 41.6691 31.3929 40.4704 31.6952 39.3509C32.4098 36.8725 35.6498 35.5743 38.3415 34.5289C38.9729 34.2761 39.6209 34.0063 39.9034 33.8547L40.4185 33.5511C43.1101 32.0506 43.7415 31.3088 43.7415 30.9547C43.7415 30.6008 42.2626 29.4205 32.3101 34.0063L31.3464 34.4448C30.9809 34.6133 30.5321 34.8661 30.0337 35.1191C28.5483 35.9823 26.9631 36.6567 25.3148 37.1254C24.3978 37.331 23.4889 36.741 23.2879 35.8103C23.0852 34.8797 23.6667 33.9592 24.5838 33.7535C25.948 33.3555 27.2607 32.7891 28.4887 32.0675C29.0702 31.7639 29.5852 31.4942 30.0171 31.3088L30.9308 30.8705C35.5667 28.7461 44.2234 24.7672 46.6327 29.1845C47.0829 29.9769 47.1959 30.9194 46.9482 31.7978C46.3335 33.9896 43.7247 35.4394 41.9636 36.4005L41.4819 36.6702C40.8386 37.0158 40.1724 37.3143 39.4879 37.5636C36.5303 38.7439 34.9851 39.6206 34.8854 40.1939C34.9187 40.2967 34.9701 40.3944 35.035 40.4804C35.1678 40.6491 35.9821 40.784 37.3944 40.3288C41.176 39.125 44.7717 37.3885 48.0781 35.1697L48.5267 34.8661C50.0553 33.6557 51.843 32.8245 53.7439 32.4385C55.3757 32.2243 57.0205 32.6997 58.2967 33.7535C59.1754 34.5022 59.7007 35.5912 59.7421 36.7544C59.7421 40.7166 55.8707 41.6438 53.528 42.1833C53.0463 42.3013 52.5975 42.4025 52.1987 42.5374C51.544 42.7228 50.8995 42.9488 50.2714 43.2118C51.8 44.0378 52.5143 43.667 53.8768 42.9421C54.8422 42.3823 55.884 41.9741 56.9674 41.7281C58.5939 41.2628 60.3202 42.0063 61.1213 43.5152C61.6744 44.9972 61.2009 46.6715 59.9581 47.629C59.8817 47.6897 59.8385 47.7841 59.8418 47.8818C59.93 48.585 60.2739 49.2273 60.8056 49.686C61.1213 50.0063 61.3704 50.1411 61.4867 50.1242C61.6031 50.1073 62.3175 49.6185 63.0486 48.1349C63.4341 47.3542 63.6767 46.5078 63.7629 45.6394C63.9126 44.6431 63.7381 43.6248 63.2646 42.7397C62.8427 42.0923 62.9106 41.2357 63.4308 40.6661C64.2549 39.7033 64.7035 38.4675 64.6936 37.1929C64.6885 36.355 64.5325 35.5272 64.2284 34.7482C63.9242 33.9861 63.4656 33.2966 62.8826 32.725C62.1232 31.9646 61.1212 31.5044 60.0578 31.4267C59.2468 31.3645 58.6007 30.7154 58.5294 29.8925C58.4112 28.5235 57.8828 27.2236 57.0172 26.1667C55.6249 24.5379 53.8386 23.3054 51.8331 22.5922C49.763 21.7746 47.5564 21.3733 45.3366 21.4122C43.7931 21.3936 42.2725 21.7763 40.9168 22.5248C40.4035 22.8267 39.7688 22.8267 39.2554 22.5248C37.499 21.4391 35.4238 21.0159 33.3902 21.3278C31.3564 21.7443 29.5669 22.9565 28.4055 24.6997C28.02 25.2207 27.3735 25.4704 26.7438 25.3403C26.2654 25.224 25.772 25.1854 25.2817 25.2225C24.0821 25.3203 22.9324 25.7518 21.9588 26.4701C20.9717 27.1764 20.209 28.1611 19.7654 29.3025C19.5727 29.8437 19.4713 30.4135 19.4664 30.9885C19.4615 31.6881 19.0326 32.312 18.3862 32.5563C17.5025 32.8701 16.7398 33.4601 16.2098 34.2424C15.7495 34.9454 15.5236 35.7766 15.5617 36.6195C15.5849 37.4879 15.8442 38.3341 16.3094 39.0642C16.8212 39.8363 17.5588 40.4266 18.4196 40.7502C18.9146 40.9289 19.2969 41.3352 19.4497 41.846C19.5412 42.1564 19.664 42.4547 19.8152 42.7397C20.2888 43.6062 21.0381 44.284 21.9421 44.6617C22.8874 45.0494 23.9291 45.1201 24.9161 44.864C25.1488 44.8151 25.3764 44.746 25.5975 44.6617C26.016 44.4796 26.4913 44.4796 26.9102 44.6617C27.3239 44.864 27.6363 45.23 27.7741 45.6732C28.1413 46.8738 28.9038 47.9088 29.9341 48.6069C30.8278 49.2172 31.8431 49.62 32.9082 49.787C34.0065 49.991 35.1328 49.991 36.2313 49.787C37.519 49.5273 38.7234 48.9474 39.737 48.101C40.0329 47.8515 40.3054 47.5751 40.5513 47.2751C40.7389 47.0389 40.9851 46.8585 41.2658 46.7523C41.8557 46.5381 42.4606 46.3745 43.0767 46.2634C44.5607 45.9666 46.0974 46.1622 47.4632 46.8197C48.8242 47.516 49.8959 48.681 50.4873 50.1073C50.6037 50.4108 50.8364 51.1189 51.0357 51.7932C52.463 51.7899 53.887 51.9198 55.2892 52.181C56.2777 52.3227 57.2182 52.7038 58.0306 53.2938C59.6723 54.6326 60.0778 57.0013 58.9779 58.8238C58.0356 60.4373 56.3061 61.4067 54.4583 61.3528ZM51.7002 55.3844C51.7999 55.7183 51.9347 56.0404 52.099 56.3455C52.5129 57.2255 53.3154 57.8511 54.259 58.0315C54.8988 58.0937 55.5252 57.8206 55.9206 57.3066C56.1251 56.9406 56.0567 56.4821 55.7544 56.1937C55.3522 55.9559 54.9054 55.806 54.4419 55.7555C53.5362 55.5918 52.6191 55.4907 51.7002 55.4519V55.3844Z"/>
</svg>
