<svg width="100%" height="100%" viewBox="0 0 80 80" fill="none" xmlns="http://www.w3.org/2000/svg">
<path fill-rule="evenodd" clip-rule="evenodd" d="M28.3617 64.8027C19.3254 64.8027 12 57.4719 12 48.4291C12 39.3861 19.3254 32.0553 28.3617 32.0553H66.2203C67.1978 32.0506 67.9947 32.8402 68 33.8187C68.0017 34.1682 67.899 34.5102 67.7079 34.8021L60.6248 45.4343C60.2989 45.9295 59.7483 46.2283 59.1552 46.2318H46.0339C45.0562 46.2318 44.2631 45.4384 44.2631 44.4597C44.2631 43.4811 45.0562 42.6877 46.0339 42.6877H58.199L62.9446 35.5995H28.3617C21.2816 35.5995 15.5415 41.3437 15.5415 48.4291C15.5415 55.5155 21.2816 61.2586 28.3617 61.2586C36.3124 61.2586 40.4559 56.4209 40.4559 51.6541C40.4567 49.2867 39.4292 47.0363 37.6406 45.4876C35.0059 43.4162 31.707 42.3766 28.3617 42.5637C25.1246 42.5637 22.5006 45.1896 22.5006 48.4291C22.5006 51.6684 25.1246 54.2945 28.3617 54.2945C29.803 54.3087 31.1695 53.6548 32.0626 52.5224C32.969 51.188 33.1737 49.4976 32.6115 47.9861C32.335 47.0576 32.8558 46.0775 33.7802 45.7887C34.7142 45.5007 35.7049 46.0244 35.9937 46.9584C36.8994 49.5419 36.4897 52.4055 34.8959 54.6314C33.3539 56.6887 30.9318 57.8971 28.3617 57.8917C23.1688 57.8917 18.9591 53.6796 18.9591 48.4822C18.9591 43.2854 23.1688 39.0728 28.3617 39.0728C32.5744 38.8781 36.7127 40.2334 39.9955 42.8826C42.5553 45.1119 44.017 48.3475 43.9975 51.7428C43.9975 58.1932 38.632 64.8027 28.3617 64.8027Z"/>
<path fill-rule="evenodd" clip-rule="evenodd" d="M39.9081 29.9814C38.93 29.9814 38.1372 29.1881 38.1372 28.2094V17.7718C38.1372 16.7934 38.93 16 39.9081 16C40.8861 16 41.6789 16.7934 41.6789 17.7718V28.2094C41.6789 29.1881 40.8861 29.9814 39.9081 29.9814Z"/>
<path fill-rule="evenodd" clip-rule="evenodd" d="M30.6815 29.9814C30.0426 29.9805 29.4539 29.635 29.1409 29.0778L23.9526 20.0047C23.4637 19.1534 23.757 18.0663 24.6078 17.5771C25.4587 17.0878 26.5448 17.3813 27.0338 18.2327L32.1513 27.2349C32.6287 28.0864 32.328 29.1643 31.4782 29.6448C31.2445 29.8213 30.9707 29.9369 30.6815 29.9814Z"/>
<path fill-rule="evenodd" clip-rule="evenodd" d="M49.2211 29.9814C48.9147 29.9752 48.6171 29.8897 48.3533 29.7335C47.5035 29.2529 47.2024 28.175 47.6806 27.3233L52.798 18.3213C53.2867 17.4697 54.374 17.1765 55.2238 17.6656C56.0737 18.155 56.3678 19.2418 55.8791 20.0933L50.7615 29.0955C50.4446 29.6458 49.8567 29.984 49.2211 29.9814Z"/>
</svg>
