<svg width="100%" height="100%" viewBox="0 0 80 80" fill="none" xmlns="http://www.w3.org/2000/svg">
<path fill-rule="evenodd" clip-rule="evenodd" d="M64.6093 56.3154H24.0067C22.942 56.3154 22.0789 55.4942 22.0789 54.4822C22.0789 53.4702 22.942 52.6489 24.0067 52.6489H64.6093C65.674 52.6489 66.5372 53.4702 66.5372 54.4822C66.5372 55.4942 65.674 56.3154 64.6093 56.3154Z"/>
<path fill-rule="evenodd" clip-rule="evenodd" d="M65.0722 41.8506H24.4696C23.4049 41.8506 22.5417 41.0292 22.5417 40.0173C22.5417 39.0054 23.4049 38.1841 24.4696 38.1841H65.0722C66.1369 38.1841 67.0001 39.0054 67.0001 40.0173C67.0001 41.0292 66.1369 41.8506 65.0722 41.8506Z"/>
<path fill-rule="evenodd" clip-rule="evenodd" d="M64.6093 27.4067H24.0067C22.942 27.4067 22.0789 26.5855 22.0789 25.5735C22.0789 24.5615 22.942 23.7402 24.0067 23.7402H64.6093C65.674 23.7402 66.5372 24.5615 66.5372 25.5735C66.5372 26.5855 65.674 27.4067 64.6093 27.4067Z"/>
<path fill-rule="evenodd" clip-rule="evenodd" d="M18.7832 59.8916C15.5887 59.8916 12.9997 57.4279 13 54.3922C13.0003 51.3546 15.5903 48.8926 18.7847 48.8926C21.9791 48.8926 24.5681 51.3563 24.5678 54.3922C24.5678 54.4233 24.5677 54.4526 24.567 54.4837C24.5144 57.4847 21.9401 59.8916 18.7832 59.8916ZM18.7832 52.724C17.7183 52.724 16.8551 53.5452 16.8551 54.557C16.8551 55.569 17.7183 56.3902 18.7832 56.3902C19.8479 56.3902 20.711 55.569 20.711 54.557C20.711 53.5452 19.8479 52.724 18.7832 52.724Z"/>
<path fill-rule="evenodd" clip-rule="evenodd" d="M18.7838 45.4443C15.5895 45.4443 13 42.9824 13 39.9449C13 36.9073 15.5895 34.4453 18.7838 34.4453C21.9784 34.4453 24.5679 36.9073 24.5679 39.9449C24.5679 42.9824 21.9784 45.4443 18.7838 45.4443ZM18.7838 38.2767C17.7191 38.2784 16.8571 39.0997 16.8585 40.1116C16.8596 41.1253 17.724 41.9448 18.7887 41.9429C19.8536 41.9412 20.7156 41.12 20.7144 40.108C20.7142 40.0767 20.7134 40.0475 20.7119 40.0182C20.6605 39.041 19.8122 38.2748 18.7838 38.2767Z"/>
<path fill-rule="evenodd" clip-rule="evenodd" d="M18.7838 30.999C15.5895 30.999 13 28.5372 13 25.4996C13 22.462 15.5895 20 18.7838 20C21.9784 20 24.5679 22.462 24.5679 25.4996C24.5679 28.5372 21.9784 30.999 18.7838 30.999ZM18.7838 23.8314C17.7191 23.8314 16.8559 24.6526 16.8559 25.6644C16.8559 26.6764 17.7191 27.4976 18.7838 27.4976C19.8487 27.4976 20.7119 26.6764 20.7119 25.6644C20.7119 24.6526 19.8487 23.8314 18.7838 23.8314Z"/>
</svg>
