<svg width="100%" height="100%" viewBox="0 0 80 80" fill="none" xmlns="http://www.w3.org/2000/svg">
<path fill-rule="evenodd" clip-rule="evenodd" d="M40.1301 55.7097C37.3459 55.756 35.0509 53.5319 35.0048 50.7408C34.9601 47.9516 37.1806 45.6527 39.9647 45.608C42.749 45.5615 45.0437 47.786 45.09 50.5753C45.09 50.6033 45.09 50.6298 45.09 50.658C45.0818 53.4124 42.8795 55.6552 40.1301 55.7097ZM40.1301 48.9188C39.1728 48.8725 38.3593 49.6146 38.3131 50.5734C38.2683 51.5325 39.0075 52.3475 39.9647 52.3938C40.9221 52.4386 41.7357 51.6982 41.7816 50.7392C41.7834 50.7127 41.7834 50.6847 41.7834 50.658C41.8297 49.7439 41.127 48.967 40.2143 48.9207C40.1862 48.9188 40.1581 48.9188 40.1301 48.9188Z"/>
<path fill-rule="evenodd" clip-rule="evenodd" d="M53.1979 68H44.6836C43.7708 68 43.0302 67.2581 43.0302 66.3437C43.0302 65.4296 43.7708 64.6875 44.6836 64.6875H53.1979C54.175 64.6975 54.9736 63.9108 54.9834 62.9317C54.9834 62.927 54.9834 62.9204 54.9834 62.9153V38.4021C54.9834 37.4232 54.1917 36.6299 53.2144 36.6299C53.2096 36.6299 53.2028 36.6299 53.1979 36.6299H27.0757C26.0985 36.6299 25.3067 37.4232 25.3067 38.4021V62.9153C25.3067 63.8942 26.0985 64.6875 27.0757 64.6875H40.1369C41.0494 64.6875 41.79 65.4296 41.79 66.3437C41.79 67.2581 41.0494 68 40.1369 68H27.0757C24.2765 67.9902 22.0082 65.7195 22 62.9153V38.4021C22.0082 35.598 24.2765 33.3255 27.0757 33.3173H53.1979C56.0037 33.3173 58.2803 35.5914 58.2901 38.4021V62.9153C58.2819 65.726 56.0037 68 53.1979 68Z"/>
<path fill-rule="evenodd" clip-rule="evenodd" d="M29.0396 42.7407C28.1268 42.7407 27.3862 41.9988 27.3862 41.0845V24.7702C27.3862 17.7176 33.0936 12 40.1333 12C47.1731 12 52.8802 17.7176 52.8802 24.7702V34.9727C52.8802 35.8871 52.1394 36.629 51.2269 36.629C50.3144 36.629 49.5738 35.8871 49.5738 34.9727V24.7702C49.5738 19.546 45.3479 15.3125 40.1333 15.3125C34.9186 15.3125 30.6929 19.546 30.6929 24.7702V41.0845C30.6929 41.9988 29.9523 42.7407 29.0396 42.7407Z"/>
<path fill-rule="evenodd" clip-rule="evenodd" d="M40.134 67.9985C39.2213 67.9985 38.4807 67.2566 38.4807 66.3423V54.0526C38.4807 53.1382 39.2213 52.3962 40.134 52.3962C41.0468 52.3962 41.7874 53.1382 41.7874 54.0526V66.3423C41.7874 67.2566 41.0468 67.9985 40.134 67.9985Z"/>
</svg>
