<svg width="100%" height="100%" viewBox="0 0 80 80" fill="none" xmlns="http://www.w3.org/2000/svg">
<path fill-rule="evenodd" clip-rule="evenodd" d="M47.6888 60.23C46.6868 60.23 45.8735 59.4153 45.8735 58.4113C45.8735 57.4072 46.6868 56.5925 47.6888 56.5925H64.3921C64.3921 55.5922 64.3921 54.5737 64.3921 53.6461C64.3921 52.7183 64.3921 52.1909 64.3921 51.5907C64.5117 49.3881 64.2976 47.1801 63.7566 45.043C63.4116 43.9699 62.5945 43.6971 60.5611 43.2242L59.4537 42.9696C57.9595 42.6212 56.4435 42.3783 54.9149 42.242C53.8982 42.1146 52.8812 42.0055 51.8465 41.8237C50.8298 42.0055 49.8132 42.1146 48.7785 42.242C47.2571 42.3795 45.7465 42.6226 44.2577 42.9696L43.1503 43.2242C41.6252 43.5698 40.6629 43.8063 40.209 44.4792C39.6478 45.3231 38.5098 45.5505 37.6673 44.9883C36.8248 44.4259 36.5979 43.2859 37.1589 42.4422C38.4443 40.8759 40.2998 39.8876 42.3151 39.6958L43.3136 39.4594C44.205 39.2328 45.1073 39.0568 46.0187 38.9318C43.5496 36.7493 42.5874 33.3662 41.825 30.0196C40.6447 24.7816 41.0262 22.0897 43.4043 18.9613C47.237 14.3155 54.1034 13.662 58.7402 17.5013C59.2719 17.9406 59.7587 18.4296 60.1982 18.9613C62.5945 22.1444 62.9577 24.7269 61.7594 30.0196C61.015 33.3662 60.0528 36.7493 57.5838 38.9318C58.4952 39.0568 59.3973 39.2328 60.2888 39.4594L61.2874 39.6958C63.339 40.1323 66.135 40.7506 67.1517 43.9154C67.8234 46.4145 68.0992 49.0043 67.9685 51.5907C67.9685 52.1727 67.9685 52.8456 67.9685 53.5914C67.9685 55.1193 67.9685 56.8834 67.9685 58.4659C67.9685 59.47 67.155 60.2847 66.1529 60.2847L47.6888 60.23ZM51.6833 18.5977C49.579 18.6059 47.5856 19.5446 46.2366 21.1623C44.766 23.0902 44.2396 24.4543 45.3288 29.2194C46.0914 32.6569 47.0174 35.8399 49.6498 37.0402C50.2851 37.3313 50.8479 37.5496 51.302 37.7496L51.7376 37.9133L52.1735 37.7316C52.6272 37.5496 53.2082 37.3313 53.8255 37.0402C56.4763 35.8399 57.4566 32.6569 58.1647 29.2194C59.2357 24.4543 58.7091 23.0902 57.2386 21.1623C55.8917 19.5426 53.8962 18.6037 51.7921 18.5977H51.6833Z"/>
<path fill-rule="evenodd" clip-rule="evenodd" d="M42.6059 60.2305H13.8478C12.8457 60.2305 12.0322 59.4156 12.0322 58.4116C11.8999 55.8254 12.1757 53.2353 12.8493 50.7362C13.8842 47.5714 16.68 46.9532 18.7316 46.4983L19.7303 46.2803C20.6217 46.0528 21.5239 45.8764 22.4353 45.7527C19.9664 43.5519 19.004 40.1871 18.2416 36.8405C17.0433 31.5295 17.4062 28.9468 19.8028 25.7822C23.6299 21.1312 30.4945 20.4687 35.1367 24.302C35.6761 24.7467 36.1701 25.2424 36.6147 25.7822C39.0111 28.9468 39.3743 31.5295 38.176 36.8405C37.4136 40.1871 36.4693 43.5519 34.0002 45.7527C34.9116 45.8782 35.8139 46.0528 36.7054 46.2803L37.7039 46.4983C39.7373 46.9532 42.5513 47.5714 43.5682 50.7362C44.2417 53.2353 44.5176 55.8254 44.3851 58.4116C44.3851 59.4028 43.5936 60.2104 42.6059 60.2305ZM15.7178 56.5928H40.7904C40.8066 54.9868 40.5852 53.3879 40.1367 51.8458C39.81 50.7727 38.9931 50.4998 36.9597 50.0269L35.8341 49.7542C34.3453 49.4141 32.8346 49.1702 31.3134 49.0266C30.2967 48.9175 29.2618 48.7902 28.2451 48.6264C27.2284 48.7902 26.2115 48.9175 25.1768 49.0266C23.6553 49.172 22.1467 49.4141 20.6561 49.7542C20.2931 49.8631 19.9117 49.936 19.5487 50.0269C17.4969 50.4634 16.6983 50.7362 16.3533 51.8458C15.9048 53.3879 15.6797 54.9868 15.6815 56.5928H15.7178ZM28.0815 25.4002C25.9774 25.4062 23.9821 26.345 22.6351 27.9648C21.1645 29.9108 20.6379 31.2569 21.709 36.0402C22.4897 39.4777 23.3974 42.6607 26.0483 43.843C26.6836 44.1339 27.2465 44.3704 27.7004 44.5524L28.1361 44.7342L28.5718 44.5524C29.0257 44.3704 29.5886 44.1339 30.2241 43.843C32.8747 42.6607 33.8551 39.4777 34.5631 36.0402C35.6342 31.2569 35.1077 29.9108 33.6373 27.9648C32.2774 26.361 30.2911 25.4256 28.1906 25.4002H28.0815Z"/>
</svg>
