<svg width="100%" height="100%" viewBox="0 0 80 80" fill="none" xmlns="http://www.w3.org/2000/svg">
<path fill-rule="evenodd" clip-rule="evenodd" d="M57.3514 66H26.9578C26.3002 66.0015 25.698 65.6269 25.4088 65.0355L23.0682 60.2476C20.1252 54.3916 15.6504 45.5218 14.4629 42.611C13.5868 40.9781 13.9827 38.9533 15.4096 37.7715C17.924 36.213 21.1044 36.213 23.6189 37.7715C24.8614 38.6971 25.8975 39.8697 26.6652 41.2161L27.13 41.8877C28.6272 44.3498 30.4514 46.5978 32.5512 48.5703C33.4238 48.8513 33.923 49.7676 33.6871 50.6543C33.4358 51.5716 32.4876 52.1103 31.5717 51.8579C31.5529 51.8532 31.5358 51.8481 31.5186 51.8427C30.8989 51.6704 29.4188 51.2742 24.2902 43.8513L23.8081 43.1107C23.2644 42.1633 22.5535 41.3229 21.7085 40.6304C20.4402 39.9157 18.9101 39.8394 17.578 40.4237C17.578 40.4237 17.3543 40.5961 17.578 41.3021C18.7139 44.0923 23.1369 52.8762 26.0628 58.6802C26.82 60.2131 27.5084 61.5564 27.9902 62.5384H56.4048C56.7147 61.7116 57.1104 60.2647 57.2827 59.6276C57.4547 58.9903 57.472 58.9214 57.5407 58.7147C58.8194 54.6533 59.7351 50.4864 60.2772 46.2625L60.3977 45.3496C60.9312 41.664 61.1895 37.8404 59.1413 37.4443C58.2465 37.4228 57.3738 37.7221 56.6803 38.2881C56.2311 38.5955 55.6631 38.6722 55.1486 38.4947C54.6288 38.3161 54.226 37.9004 54.0642 37.3754C54.0642 37.3754 53.4103 35.3948 51.8613 35.257C51.4087 35.1761 50.9424 35.2492 50.5362 35.4637C50.4002 35.5677 50.2745 35.6831 50.1574 35.8081C49.538 36.5901 48.5689 37.0105 47.576 36.9275C46.9305 36.7789 46.3934 36.3312 46.1302 35.7218C45.6948 34.6785 44.867 33.8492 43.8241 33.414C43.1355 33.2762 42.4815 33.9306 41.5523 34.9296C41.0634 35.4595 40.3096 35.6546 39.6247 35.4291C38.9656 35.1995 38.5093 34.5941 38.4714 33.8963L38.3167 22.4601C38.437 20.0144 38.1962 15.726 36.9914 14.0382C36.7211 13.5708 36.1448 13.3785 35.6491 13.5903C34.5269 14.0031 33.7747 15.0638 33.7558 16.2598V18.275C33.7558 35.6704 33.7558 43.6962 33.7558 44.2646C33.718 45.2158 32.916 45.956 31.9661 45.918C31.016 45.8799 30.2758 45.0781 30.3138 44.1268C30.3138 43.5584 30.3138 34.8607 30.3138 18.2922V16.191C30.3379 13.5025 32.0452 11.1181 34.5819 10.2318C36.4942 9.59662 38.5955 10.2979 39.745 11.9541C42.034 15.1575 41.7416 21.7023 41.707 22.443L41.8103 30.2277C42.6364 29.8612 43.5589 29.7648 44.4435 29.9521C46.0184 30.3772 47.39 31.3478 48.3159 32.6907C49.4004 31.8653 50.7752 31.5228 52.1194 31.7433C53.8818 31.9295 55.46 32.9132 56.4048 34.4128C57.4479 33.9505 58.6008 33.801 59.7266 33.9824C65.3027 35.0329 64.2528 42.284 63.7537 45.763L63.6504 46.5724C63.1429 51.0261 62.2323 55.4244 60.9312 59.7136C60.9312 59.9032 60.7936 60.1958 60.7074 60.5403C59.7091 63.9506 59.21 66 57.3514 66Z"/>
</svg>
