<svg width="100%" height="100%" viewBox="0 0 80 80" fill="none" xmlns="http://www.w3.org/2000/svg">
<path fill-rule="evenodd" clip-rule="evenodd" d="M48.4671 62.2871H35.6834C34.2453 62.1567 33.168 60.9089 33.2452 59.465C33.2452 58.5737 33.1628 57.6989 33.13 56.8078C33.1085 55.3998 33.0081 53.9954 32.8335 52.5993C32.6522 50.6023 31.8583 48.7126 30.56 47.1861C30.0493 46.6546 29.499 46.1628 28.9126 45.7173C28.3361 45.2716 27.7595 44.8425 27.2652 44.3475C26.5207 43.4645 26.1911 42.3042 26.3591 41.1622V40.9807C26.3163 39.8666 26.4498 38.7526 26.7545 37.6798C26.9572 37.0808 27.2637 36.5214 27.6606 36.0295C28.0378 35.5658 28.4744 35.1549 28.962 34.8083C29.4365 34.4749 29.9439 34.1925 30.4777 33.9665C31.0114 33.7387 31.5632 33.5507 32.1249 33.4054C32.6687 33.2569 33.2288 33.1414 33.7725 33.0424C34.3161 32.9434 34.6949 32.8774 35.1562 32.8278C33.4249 30.8754 32.2832 28.4723 31.8615 25.8962C30.7742 21.3576 31.2355 17.7928 33.2452 15.3008C35.0592 13.185 37.7096 11.9787 40.4938 12.0001C41.4031 12.0001 42.1412 12.7394 42.1412 13.6505C42.1412 14.5616 41.4031 15.3008 40.4938 15.3008C38.7475 15.3273 37.087 16.0665 35.8976 17.3473C34.5632 18.9975 34.2502 21.6052 35.1396 25.0874C35.8316 27.9095 36.5731 30.3358 38.8135 31.2764L40.2302 31.8375C41.301 32.2501 42.3883 32.6629 42.2566 33.9831C42.1478 34.7438 41.563 35.3495 40.8068 35.485L39.5547 35.6334L37.4791 35.848L35.9305 36.0295L34.415 36.244C33.9537 36.343 33.4759 36.4255 33.0312 36.5576C32.6226 36.6697 32.2205 36.8085 31.8284 36.9702C31.504 37.1007 31.1942 37.2672 30.9061 37.4653C30.677 37.6271 30.4712 37.8219 30.2964 38.043C30.1334 38.2459 30.0048 38.4737 29.9174 38.7195C29.7379 39.431 29.6655 40.1653 29.7034 40.898V41.1622C29.6869 41.4312 29.6869 41.7017 29.7034 41.971C30.1102 42.344 30.5386 42.6922 30.9884 43.0107C31.7378 43.5584 32.4431 44.1658 33.0969 44.826C34.8697 46.8495 35.9701 49.3762 36.2435 52.0546C36.4577 53.5896 36.5071 55.1244 36.5731 56.6096C36.5731 57.3688 36.5731 58.1446 36.6719 58.9036H48.6154C49.5248 58.9036 50.263 59.643 50.263 60.5541C50.263 61.465 49.5248 62.2044 48.6154 62.2044L48.4671 62.2871Z"/>
<path fill-rule="evenodd" clip-rule="evenodd" d="M24.2014 57.9292C23.2919 57.9292 22.554 57.1898 22.554 56.2788C22.554 55.3677 23.2919 54.6284 24.2014 54.6284H26.6891V53.3246C26.7089 52.1661 26.7911 51.0092 26.9361 49.8589C27.1569 47.7745 28.0136 45.8088 29.3907 44.2311L29.6049 44.0166C30.2606 43.3778 31.3066 43.3927 31.9441 44.0496C32.5816 44.7064 32.5669 45.7543 31.9113 46.393L31.7959 46.5086C30.8635 47.583 30.2869 48.9214 30.1487 50.3374C30.0168 51.3673 29.9443 52.4021 29.9345 53.4402C29.9345 54.1004 29.9344 54.777 29.8354 55.4372C29.903 56.708 28.959 57.8071 27.6939 57.9292H24.2014Z"/>
<path fill-rule="evenodd" clip-rule="evenodd" d="M28.995 38.5376H28.6985L27.5947 38.3724L26.4414 38.2405L24.893 38.0756C24.5469 38.0756 24.1681 38.0756 23.921 37.9601C23.1614 37.856 22.5734 37.2404 22.5042 36.4746C22.3724 35.1708 23.509 34.7252 24.267 34.4447C24.5634 34.3291 24.9259 34.197 25.3212 34.0155C26.6887 33.4545 27.2487 32.0516 27.8254 29.6751C28.4018 27.2985 28.2536 25.384 27.3476 24.2453C26.5388 23.3821 25.4151 22.8887 24.2339 22.8756C23.3246 22.8756 22.5866 22.136 22.5866 21.2251C22.5866 20.314 23.3246 19.5748 24.2339 19.5748C26.4381 19.5482 28.5419 20.4956 29.9835 22.1658C31.631 24.1462 31.9603 26.9355 31.1037 30.4178C30.8054 32.1457 30.1169 33.7813 29.0937 35.2038H29.3575C30.2668 35.2814 30.9422 36.0835 30.8648 36.9944C30.7874 37.9055 29.9868 38.5822 29.0773 38.5047L28.995 38.5376Z"/>
<path fill-rule="evenodd" clip-rule="evenodd" d="M24.0857 57.9291H20.5766C19.2769 57.8499 18.2803 56.741 18.3362 55.4371C18.3362 54.7769 18.3362 54.1003 18.2539 53.4401C18.2292 52.402 18.1535 51.3672 18.0234 50.3375C17.8864 48.9199 17.3099 47.5815 16.3758 46.5087C15.9921 46.129 15.5802 45.7808 15.1402 45.469C14.6938 45.1338 14.2654 44.7757 13.8554 44.3962C13.1981 43.6715 12.8965 42.6912 13.0317 41.7225L14.6789 41.5575H13.0317C13.0102 40.7044 13.1221 39.8527 13.361 39.0324C13.6955 38.0801 14.3248 37.26 15.1569 36.6888C15.5324 36.4214 15.9361 36.1954 16.3594 36.0123C16.7762 35.834 17.2046 35.692 17.6444 35.5832C18.0661 35.4593 18.4961 35.3602 18.9294 35.2861H19.1928C18.1829 33.8553 17.4978 32.2229 17.183 30.4999C16.3429 26.9847 16.7053 24.1956 18.3031 22.2482C19.7482 20.5812 21.8501 19.6339 24.0528 19.657C24.9621 19.657 25.7 20.3965 25.7 21.3074C25.7 22.2185 24.9621 22.9579 24.0528 22.9579C22.8748 22.9593 21.7513 23.4562 20.9556 24.3275C20.0331 25.4664 19.8685 27.2817 20.4778 29.7574C21.0873 32.2327 21.6145 33.5366 22.9655 34.0978L24.0197 34.5269C24.8269 34.8239 25.9307 35.253 25.7989 36.5569C25.7 37.3143 25.1187 37.9184 24.3658 38.0421C24.1185 38.0421 23.7396 38.1248 23.4102 38.1577L21.8453 38.3226L20.7085 38.4549L19.5883 38.6198L18.5998 38.8344C18.3131 38.9136 18.0332 39.0126 17.7596 39.1315C17.5407 39.2207 17.3314 39.3311 17.1337 39.4613C16.9969 39.5638 16.8701 39.681 16.7547 39.8082C16.669 39.9303 16.603 40.0622 16.5571 40.2042C16.4417 40.6844 16.3923 41.1795 16.4088 41.6731V41.904C16.4005 42.0312 16.4005 42.1565 16.4088 42.2837C16.6657 42.5113 16.936 42.7277 17.216 42.9273C17.7959 43.3565 18.3478 43.8252 18.8634 44.33C20.257 45.8981 21.1153 47.8686 21.318 49.9578C21.4695 51.1082 21.5569 52.265 21.5816 53.4236C21.5816 53.8527 21.5816 54.2984 21.5816 54.7275H24.0691C24.9784 54.7275 25.7166 55.4669 25.7166 56.3778C25.7166 57.2889 24.9784 58.0283 24.0691 58.0283L24.0857 57.9291Z"/>
<path fill-rule="evenodd" clip-rule="evenodd" d="M47.0009 67.9984C46.2495 68.0315 45.5707 67.5478 45.3533 66.8266C44.1573 62.034 43.9497 57.0465 44.7438 52.1715C45.0041 49.4929 46.0996 46.9628 47.8738 44.9428C48.5328 44.2826 49.2444 43.6753 49.9989 43.1273C50.4272 42.7972 50.872 42.4671 51.2841 42.0874C51.3004 41.8185 51.3004 41.5478 51.2841 41.2787V41.0644C51.312 40.3199 51.2344 39.5756 51.0533 38.8529C50.9759 38.602 50.8524 38.3658 50.6909 38.1596C50.5063 37.9434 50.2954 37.7486 50.0648 37.5821C49.7767 37.384 49.467 37.2173 49.1425 37.0868C48.7552 36.9251 48.36 36.7865 47.9563 36.6744C47.4948 36.5421 47.0336 36.4598 46.556 36.3607L45.0568 36.1461L43.5082 35.9648L41.4326 35.7501L40.1641 35.6016C39.4096 35.4696 38.8279 34.8605 38.7309 34.0997C38.5991 32.7793 39.6863 32.4494 40.7408 31.9541C41.1361 31.8057 41.6302 31.6242 42.1738 31.3932C44.4144 30.4524 45.1558 28.0923 45.8311 25.2042C46.6711 21.7219 46.4242 19.1143 45.0898 17.464C43.9004 16.1717 42.2316 15.4306 40.477 15.4176C39.5677 15.4405 38.8115 14.7194 38.7885 13.8085C38.7654 12.8974 39.4853 12.14 40.3946 12.1167C43.1772 12.1018 45.8262 13.3083 47.6431 15.4176C49.6695 17.9096 50.1308 21.4742 49.0435 26.013C48.6134 28.5875 47.472 30.9889 45.7488 32.9444C46.2101 32.9444 46.6711 33.0765 47.1326 33.159C47.5939 33.2415 48.2528 33.3735 48.78 33.5222C49.3417 33.6673 49.8935 33.8555 50.4273 34.0832C50.961 34.3094 51.4684 34.5915 51.943 34.9251C52.4355 35.2715 52.8786 35.6808 53.2608 36.1461C53.6529 36.6397 53.9527 37.1975 54.1505 37.7964C54.4601 38.8347 54.5985 39.9155 54.5622 40.9983V41.2294C54.7155 42.373 54.3811 43.5299 53.6398 44.4145C53.1126 44.9097 52.5359 45.3387 51.9922 45.7843C51.4057 46.2299 50.854 46.7201 50.345 47.2531C49.0402 48.7748 48.2463 50.6679 48.0715 52.6665C47.3401 57.0565 47.513 61.5504 48.5822 65.8695C48.8376 66.7392 48.3451 67.6536 47.4785 67.9159C47.3235 67.9671 47.1639 67.9951 47.0009 67.9984Z"/>
<path fill-rule="evenodd" clip-rule="evenodd" d="M56.7531 57.9478H53.2606C51.9609 57.8685 50.9642 56.7594 51.0202 55.4557C51.0202 54.7955 50.9379 54.1189 50.9213 53.4586C50.9115 52.4207 50.839 51.3858 50.7072 50.3559C50.5622 48.9416 49.9873 47.6049 49.0599 46.5272C48.3744 45.928 48.3036 44.885 48.9015 44.1985C48.9215 44.177 48.9411 44.1556 48.9609 44.1342C49.5704 43.497 50.572 43.4541 51.2344 44.0351L51.4486 44.2661C52.8273 45.8357 53.6857 47.798 53.9031 49.8774C54.0481 51.0278 54.1305 52.1847 54.1503 53.3432V54.6469H56.6379C57.5472 54.6469 58.2852 55.3863 58.2852 56.2974C58.2852 57.2084 57.5472 57.9478 56.6379 57.9478H56.7531Z"/>
<path fill-rule="evenodd" clip-rule="evenodd" d="M51.9601 38.5548C51.0508 38.6373 50.2467 37.9638 50.1644 37.0529C50.082 36.142 50.7542 35.3367 51.6634 35.254H51.9435C50.9203 33.8315 50.2318 32.1959 49.9337 30.468C49.0771 26.9526 49.4559 24.1635 51.0541 22.2159C52.4987 20.5591 54.5909 19.6134 56.787 19.6249C57.6963 19.6249 58.4343 20.3643 58.4343 21.2754C58.4343 22.1863 57.6963 22.9256 56.787 22.9256C55.6074 22.9472 54.4872 23.4406 53.6733 24.2954C52.7673 25.4341 52.6025 27.2661 53.1956 29.7253C53.7886 32.1844 54.3322 33.5046 55.6997 34.0658C56.095 34.2473 56.4575 34.3792 56.754 34.4948C57.5119 34.7755 58.6484 35.2211 58.5167 36.525C58.4459 37.2956 57.8496 37.9128 57.0835 38.0102C56.8364 38.0102 56.4575 38.0928 56.1115 38.1257L54.5795 38.2907L53.4262 38.4228L52.3225 38.5879L51.9601 38.5548Z"/>
<path fill-rule="evenodd" clip-rule="evenodd" d="M56.8696 57.9478C55.9602 57.9478 55.2222 57.2085 55.2222 56.2974C55.2222 55.3863 55.9602 54.6471 56.8696 54.6471H59.4231C59.4231 54.2014 59.4231 53.7724 59.4231 53.3432C59.4478 52.1847 59.535 51.0278 59.6865 49.8774C59.8892 47.7882 60.7477 45.8176 62.1413 44.2497C62.6569 43.7446 63.2088 43.2759 63.7885 42.8469C64.0687 42.6471 64.3388 42.4309 64.5959 42.2033C64.6041 42.0761 64.6041 41.9508 64.5959 41.8236V41.6421C64.6141 41.1256 64.5645 40.6106 64.4476 40.1071C64.398 39.972 64.3323 39.8448 64.2498 39.7276C64.1346 39.6006 64.0078 39.4834 63.871 39.3812C63.6734 39.2507 63.4641 39.1401 63.2451 39.0511C62.9764 38.9355 62.7014 38.8365 62.4213 38.7538L61.4164 38.5393L60.2962 38.3743L59.1595 38.2423L57.6109 38.0773C57.265 38.0773 56.886 38.0773 56.6389 37.9617C55.8861 37.838 55.3045 37.2339 55.2057 36.4764C55.074 35.1727 56.2271 34.7271 56.985 34.4465L58.0392 34.0172C59.39 33.4562 59.9666 32.0533 60.5267 29.6768C61.0868 27.3003 60.9717 25.3861 60.0489 24.2472C59.2368 23.3906 58.115 22.8971 56.9354 22.8773C56.0262 22.8773 55.288 22.1381 55.288 21.227C55.288 20.3159 56.0262 19.5767 56.9354 19.5767C59.1364 19.5634 61.2351 20.509 62.6848 22.1677C64.3323 24.1481 64.6453 26.9372 63.8051 30.4195C63.4904 32.1425 62.8051 33.7747 61.7954 35.2056H62.059C62.4921 35.2799 62.9221 35.3791 63.3438 35.5028C63.7771 35.6118 64.202 35.7553 64.6122 35.9317C65.0425 36.1101 65.4525 36.3377 65.8315 36.6084C66.2317 36.8808 66.5876 37.2158 66.8857 37.5986C67.212 38.0013 67.4624 38.4601 67.6272 38.952C67.8661 39.7723 67.9779 40.6238 67.9565 41.477L66.3091 41.6915H67.9565C68.0917 42.6604 67.7903 43.6407 67.1328 44.3652C66.7275 44.7448 66.2977 45.0963 65.8478 45.4215C65.4129 45.7449 64.9996 46.098 64.6122 46.4776C63.6783 47.5503 63.1016 48.8887 62.965 50.3065C62.8167 51.3132 62.7837 52.3365 62.7345 53.4093C62.7345 54.0694 62.7344 54.7459 62.652 55.4063C62.7195 56.6837 61.7656 57.7845 60.4939 57.8982L56.8696 57.9478Z"/>
</svg>
