<svg width="100%" height="100%" viewBox="0 0 80 80" fill="none" xmlns="http://www.w3.org/2000/svg">
<path fill-rule="evenodd" clip-rule="evenodd" d="M39.9664 21.7734C39.0347 21.7734 38.2795 21.0177 38.2795 20.0855V13.6881C38.2795 12.7558 39.0347 12.0001 39.9664 12.0001C40.8981 12.0001 41.6533 12.7558 41.6533 13.6881V20.0855C41.6533 21.0177 40.8981 21.7734 39.9664 21.7734Z"/>
<path fill-rule="evenodd" clip-rule="evenodd" d="M39.9664 67.939C39.0347 67.939 38.2795 67.1827 38.2795 66.251V59.8534C38.2795 58.9217 39.0347 58.1656 39.9664 58.1656C40.8981 58.1656 41.6533 58.9217 41.6533 59.8534V66.251C41.6533 67.1827 40.8981 67.939 39.9664 67.939Z"/>
<path fill-rule="evenodd" clip-rule="evenodd" d="M20.0965 41.6582H13.6869C12.7552 41.6582 12 40.9025 12 39.9701C12 39.0378 12.7552 38.2821 13.6869 38.2821H20.0965C21.028 38.2821 21.7832 39.0378 21.7832 39.9701C21.7832 40.9025 21.028 41.6582 20.0965 41.6582Z"/>
<path fill-rule="evenodd" clip-rule="evenodd" d="M66.2288 41.6582H59.9203C58.9894 41.6582 58.2336 40.9025 58.2336 39.9701C58.2336 39.0378 58.9894 38.2821 59.9203 38.2821H66.3133C67.2442 38.2821 67.9999 39.0378 67.9999 39.9701C67.9999 40.9025 67.2442 41.6582 66.3133 41.6582H66.2288Z"/>
<path fill-rule="evenodd" clip-rule="evenodd" d="M39.9663 65.29C25.9928 65.2141 14.7272 53.8168 14.8036 39.8326C14.8622 29.0628 21.7224 19.5086 31.9034 16.0179C39.0554 13.9586 41.0458 17.858 41.5687 19.6303C41.9076 20.4987 41.4787 21.4774 40.611 21.8165C39.7431 22.1556 38.7651 21.7265 38.4262 20.8582C38.3925 20.7719 38.3661 20.683 38.3469 20.5922C38.1276 19.8666 37.5373 17.9084 32.9155 19.2419C21.4437 23.1253 15.2896 35.5796 19.1699 47.0597C23.0504 58.5398 35.4959 64.6991 46.9678 60.8152C58.4394 56.9329 64.5944 44.4772 60.7132 32.9977C58.4023 26.1587 52.8765 20.8952 45.9371 18.9212C45.0382 18.6649 44.517 17.7278 44.7735 16.8281C45.0298 15.9284 45.966 15.4071 46.8649 15.6636C60.2797 19.5776 67.9846 33.6335 64.073 47.0583C60.9442 57.7971 51.1443 65.2089 39.9663 65.29Z"/>
<path fill-rule="evenodd" clip-rule="evenodd" d="M39.966 43.3467C38.1027 43.3467 36.5925 41.8352 36.5925 39.9707C36.5925 38.1062 38.1027 36.5948 39.966 36.5948C41.8291 36.5948 43.3394 38.1062 43.3394 39.9707C43.3394 41.8352 41.8291 43.3467 39.966 43.3467Z"/>
</svg>
