<svg width="100%" height="100%" viewBox="0 0 80 80" fill="none" xmlns="http://www.w3.org/2000/svg">
<path fill-rule="evenodd" clip-rule="evenodd" d="M39.9695 52.938C39.6647 52.9352 39.3646 52.8545 39.0984 52.7031L15.9266 38.6858C15.1375 38.2078 14.8827 37.1807 15.357 36.3887C15.8346 35.5986 16.8617 35.3437 17.6524 35.8187L39.9695 49.2324L62.27 35.8187C63.0174 35.2714 64.0646 35.4337 64.6124 36.1805C65.1585 36.9276 64.9961 37.9767 64.2505 38.5241C64.1651 38.5864 64.0745 38.6405 63.979 38.6858L40.8074 52.7031C40.5545 52.8539 40.2646 52.9348 39.9695 52.938Z"/>
<path fill-rule="evenodd" clip-rule="evenodd" d="M61.0472 63H18.8756C16.1831 63 14 60.8156 14 58.1209V35.3345C14 34.4087 14.7507 33.658 15.6756 33.658C16.6003 33.658 17.351 34.4087 17.351 35.3345V58.1209C17.351 58.9635 18.033 59.6466 18.8756 59.6466H61.0472C61.8917 59.6466 62.5803 58.9661 62.5886 58.1209V35.3345C62.5886 34.4087 63.3393 33.658 64.2642 33.658C65.1889 33.658 65.9396 34.4087 65.9396 35.3345V58.1209C65.9296 60.8183 63.7432 63 61.0472 63Z"/>
<path fill-rule="evenodd" clip-rule="evenodd" d="M22.378 42.2427C21.4531 42.2427 20.7024 41.492 20.7024 40.5662V19.624C20.7024 17.0777 22.7649 15.0132 25.3099 15.0132H47.091C48.0159 15.0132 48.7666 15.7639 48.7666 16.6899C48.7666 17.6161 48.0159 18.3668 47.091 18.3668H25.3099C24.6197 18.3758 24.0617 18.9334 24.0534 19.624V40.5662C24.0534 41.492 23.3027 42.2427 22.378 42.2427Z"/>
<path fill-rule="evenodd" clip-rule="evenodd" d="M57.5627 42.2427C56.6379 42.2427 55.8873 41.492 55.8873 40.5662V19.6242C55.8788 18.927 55.3108 18.3668 54.6139 18.3668H52.5865C51.6618 18.3668 50.9111 17.6161 50.9111 16.6899C50.9111 15.7639 51.6618 15.0132 52.5865 15.0132H54.8149C54.9204 14.9958 55.0277 14.9958 55.1332 15.0132C57.4638 15.2769 59.2281 17.244 59.2382 19.5906V40.5662C59.2382 41.492 58.4876 42.2427 57.5627 42.2427Z"/>
<path fill-rule="evenodd" clip-rule="evenodd" d="M15.6756 37.5142C14.7507 37.5142 14 36.7635 14 35.8375C13.995 34.4549 14.7306 33.1754 15.9269 32.4841L21.506 29.1307C22.3491 28.7493 23.3426 29.1242 23.7228 29.9682C24.0496 30.6925 23.8233 31.5472 23.1817 32.0146L17.6023 35.368C17.4366 35.4548 17.3242 35.6178 17.3008 35.8039C17.3192 36.7236 16.5937 37.4868 15.6756 37.5142Z"/>
<path fill-rule="evenodd" clip-rule="evenodd" d="M64.2636 37.5142C63.3389 37.5142 62.5882 36.7635 62.5882 35.8375C62.5849 35.6322 62.4777 35.4429 62.3033 35.3344L56.7242 31.9812C55.9752 31.4367 55.8109 30.388 56.3539 29.639C56.8213 28.9962 57.6759 28.7699 58.3996 29.0973L63.9789 32.4506C65.1852 33.135 65.9274 34.4169 65.9224 35.804C65.9409 36.7299 65.2053 37.4953 64.2804 37.5138C64.2753 37.514 64.2686 37.5142 64.2636 37.5142Z"/>
<path fill-rule="evenodd" clip-rule="evenodd" d="M47.225 28.9116H22.378C21.4531 28.9116 20.7024 28.1608 20.7024 27.2348C20.7024 26.3087 21.4531 25.5579 22.378 25.5579H47.225C48.1501 25.5579 48.9005 26.3087 48.9005 27.2348C48.9005 28.1608 48.1501 28.9116 47.225 28.9116Z"/>
<path fill-rule="evenodd" clip-rule="evenodd" d="M47.225 35.333H22.378C21.4531 35.333 20.7024 34.5823 20.7024 33.6561C20.7024 32.7301 21.4531 31.9794 22.378 31.9794H47.225C48.1501 31.9794 48.9005 32.7301 48.9005 33.6561C48.9005 34.5823 48.1501 35.333 47.225 35.333Z"/>
</svg>
