<svg width="100%" height="100%" viewBox="0 0 80 80" fill="none" xmlns="http://www.w3.org/2000/svg">
<path fill-rule="evenodd" clip-rule="evenodd" d="M47.0522 67.9984C46.3294 67.9716 45.6942 67.5133 45.4421 66.8349L37.0878 44.7258C36.7371 43.802 37.2005 42.7672 38.1255 42.4163C38.5332 42.2606 38.9859 42.2606 39.3955 42.4163L61.5779 50.705C62.2559 50.9574 62.714 51.593 62.7407 52.3163C62.8069 53.0771 62.383 53.7967 61.6853 54.1064L56.5155 56.4875C55.6156 56.8974 54.5547 56.5017 54.1451 55.6013C53.7354 54.7007 54.1307 53.6392 55.0306 53.2293L56.2827 52.6386L41.8106 47.2679L47.1773 61.7506L49.7534 56.1473C50.1629 55.2468 51.2238 54.8512 52.1237 55.2611C53.0234 55.6711 53.4188 56.7327 53.0091 57.6332L48.6443 67.157C48.3042 67.703 47.6961 68.0253 47.0522 67.9984Z"/>
<path fill-rule="evenodd" clip-rule="evenodd" d="M58.537 65.6171C58.0681 65.6153 57.6173 65.4292 57.2847 65.098L50.129 57.9371C49.4349 57.2389 49.4349 56.1112 50.129 55.413C50.8268 54.7184 51.9535 54.7184 52.6513 55.413L59.807 62.5738C60.5009 63.272 60.5009 64.3997 59.807 65.098C59.4688 65.4328 59.0126 65.6207 58.537 65.6171Z"/>
<path fill-rule="evenodd" clip-rule="evenodd" d="M38.6797 63.3252H24.7799C21.0322 63.3145 18 60.2728 18 56.5224V18.803C18 15.0524 21.0322 12.0092 24.7799 12.0002H51.7386C55.4863 12.0109 58.5185 15.0524 58.5185 18.803V44.7251C58.5185 45.7133 57.7172 46.5153 56.7297 46.5153C55.7421 46.5153 54.9408 45.7133 54.9408 44.7251V18.803C54.9408 17.0307 53.5095 15.5895 51.7386 15.5807H24.7799C23.0088 15.5895 21.5779 17.0307 21.5779 18.803V56.5224C21.5779 58.2947 23.0088 59.734 24.7799 59.7449H38.6797C39.6671 59.7449 40.4686 60.5468 40.4686 61.535C40.4686 62.5231 39.6671 63.3252 38.6797 63.3252Z"/>
</svg>
