<svg width="100%" height="100%" viewBox="0 0 80 80" fill="none" xmlns="http://www.w3.org/2000/svg">
<path fill-rule="evenodd" clip-rule="evenodd" d="M40.0676 68C32.3294 68 28.2405 53.5775 28.2405 40C28.2405 26.4228 32.414 12 40.0676 12C47.7217 12 51.9794 26.4735 51.9794 40C51.9794 53.5266 47.8061 68 40.0676 68ZM40.0676 15.3819C36.0296 15.3819 31.6197 25.9156 31.6197 40C31.6197 54.0846 36.1142 64.6185 40.0676 64.6185C44.0215 64.6185 48.6003 54.0846 48.6003 40C48.6003 25.9156 44.0889 15.3819 40.0676 15.3819Z"/>
<path fill-rule="evenodd" clip-rule="evenodd" d="M56.1863 57.5869C49.9349 57.5869 41.4699 54.5772 34.1033 50.3333C22.3608 43.57 11.9529 32.7149 15.822 26.0023C19.691 19.2898 34.2723 22.8913 46.0149 29.6714C57.8421 36.4347 68.1655 47.2898 64.2963 54.0022C62.8601 56.5048 59.9033 57.5869 56.1863 57.5869ZM23.9152 25.8502C21.2963 25.8502 19.4546 26.4756 18.7449 27.693C16.7343 31.1762 23.594 40.3575 35.7929 47.3913C47.9917 54.4251 59.4472 55.8452 61.3734 52.3116C63.2993 48.7777 56.5241 39.6473 44.3254 32.6134C36.4012 28.0144 28.8149 25.8502 23.9152 25.8502Z"/>
<path fill-rule="evenodd" clip-rule="evenodd" d="M23.9321 57.5869C20.2149 57.5869 17.2751 56.5048 15.822 54.0022C11.9529 47.2389 22.3608 36.4684 34.1033 29.6714C45.9305 22.9081 60.427 19.2898 64.2963 26.0023C68.1655 32.7149 57.7746 43.5361 46.0149 50.3331C38.6653 54.5772 30.2006 57.5869 23.9321 57.5869ZM35.7591 32.6134C23.5602 39.6473 16.7007 48.8284 18.7112 52.3114C20.7219 55.7946 32.0929 54.4419 44.2917 47.3911C56.4906 40.3404 63.4346 31.1762 61.3734 27.693C59.3121 24.21 47.9917 25.5627 35.7929 32.6134H35.7591Z"/>
<path fill-rule="evenodd" clip-rule="evenodd" d="M40.0002 37.3301C39.0675 37.3301 38.3105 36.5731 38.3105 35.6393V28.47C38.3105 27.5362 39.0675 26.7792 40.0002 26.7792C40.9329 26.7792 41.6899 27.5362 41.6899 28.47V35.6393C41.6899 36.5731 40.9329 37.3301 40.0002 37.3301Z"/>
<path fill-rule="evenodd" clip-rule="evenodd" d="M40.0002 44.8555C36.9959 44.8555 34.5596 42.4179 34.5596 39.411C34.5614 38.8077 34.6576 38.2086 34.8469 37.6355C35.1173 36.742 36.0617 36.237 36.9538 36.5083C37.8476 36.7792 38.3512 37.7235 38.0809 38.617C38.0691 38.6567 38.0554 38.6959 38.0401 38.7346C37.9725 38.9535 37.9388 39.1816 37.9388 39.411C37.9388 40.5594 38.8699 41.4906 40.017 41.4906C41.1642 41.4904 42.0952 40.5592 42.0952 39.4107C42.0952 38.2621 41.1642 37.3309 40.017 37.3311C40.012 37.3311 40.0052 37.3311 40.0002 37.3311C39.0675 37.3311 38.3106 36.5741 38.3106 35.6403C38.3106 34.7065 39.0675 33.9495 40.0002 33.9495C43.0092 33.7816 45.5843 36.0871 45.7531 39.0987C45.9204 42.1103 43.6159 44.6881 40.6067 44.8555C40.4056 44.8672 40.2029 44.8672 40.0002 44.8555Z"/>
</svg>
