<svg width="100%" height="100%" viewBox="0 0 80 80" fill="none" xmlns="http://www.w3.org/2000/svg">
<path fill-rule="evenodd" clip-rule="evenodd" d="M59.7875 67H20.8542C19.8307 67 19 66.1706 19 65.1486V14.8996C18.9947 13.8776 19.8197 13.0427 20.8432 13.0371C21.3512 13.0333 21.8368 13.2389 22.1892 13.6037L28.4 20.0281L34.8888 27.8599C35.5653 27.5823 36.268 27.3656 36.9838 27.2118C39.3476 26.7435 41.8022 27.0565 43.9732 28.1008C44.7 28.4395 45.3747 28.8838 45.9756 29.4151C47.1195 29.2301 48.2911 29.4818 49.2569 30.1186C50.5363 30.8722 51.1146 32.4145 50.6475 33.8217C50.3081 34.7529 49.5204 35.4509 48.5526 35.6731C47.7794 35.8954 46.9542 35.8434 46.2166 35.5249C46.2166 36.2472 46.0868 36.9691 46.0496 37.6728V38.3393C46.0496 38.6909 46.0496 39.043 46.0496 39.376C46.6781 39.5056 47.2974 39.6798 47.9037 39.8945C50.0896 40.6832 51.7693 42.4643 52.4272 44.6897C53.1189 47.106 52.6313 49.7055 51.111 51.7068C49.7521 53.4659 47.8795 54.7581 45.7531 55.4097C45.4546 56.5652 44.8076 57.5983 43.8991 58.3721C42.6125 59.4646 40.9087 59.931 39.2457 59.6497C36.7335 59.1886 34.8256 57.1317 34.5551 54.595C32.0671 53.2694 29.937 51.3644 28.3444 49.0407C27.7398 48.2133 27.9234 47.0523 28.752 46.4487C29.5808 45.845 30.7433 46.0284 31.3476 46.856C32.2302 48.1094 33.298 49.2204 34.518 50.1516V45.9673C34.518 44.8563 34.518 43.616 34.7034 42.2644V42.0052C33.1459 41.5683 31.7369 40.7166 30.6245 39.5426C29.3954 38.1357 28.8467 36.2601 29.1229 34.4142C29.3621 32.5997 30.2668 30.9372 31.6627 29.7484L25.6187 22.4536L22.6897 19.4358V63.2599H57.915V19.4728L54.5966 22.8795C53.8863 23.6165 52.7129 23.6367 51.975 22.9275C51.9585 22.9128 51.9416 22.8962 51.9267 22.8795L46.7727 17.5658L41.6001 22.8795C41.2515 23.2442 40.7695 23.4515 40.2653 23.4535C39.7609 23.4515 39.279 23.2442 38.9303 22.8795L33.7764 17.5658L32.5526 18.8247C31.8297 19.5432 30.6617 19.5432 29.9386 18.8247C29.2191 18.1026 29.2191 16.9363 29.9386 16.2142L32.4786 13.5667C33.2277 12.8613 34.3992 12.8613 35.1482 13.5667L40.3022 18.899L45.4749 13.5667C45.8271 13.2093 46.3073 13.0075 46.8096 13.0112C47.3122 13.0075 47.7925 13.2093 48.1446 13.5667L53.2987 18.899L58.4712 13.5667C59.1814 12.8296 60.3549 12.8094 61.0927 13.5186C61.4579 13.8703 61.6638 14.3552 61.6601 14.8626V65.1116C61.6804 66.1334 60.8667 66.9796 59.8434 67C59.8246 67 59.8061 67 59.7875 67ZM38.1517 51.9661C38.76 52.1198 39.3809 52.2253 40.0056 52.2809C40.7214 52.3363 41.4406 52.3363 42.1564 52.2809V51.4292C42.1564 49.5777 42.1564 47.6335 42.1564 45.745V42.8013H39.876C39.5421 42.8013 39.0233 42.8013 38.3928 42.8013C38.3928 43.9492 38.2444 45.0601 38.226 46.0229L38.1517 51.9661ZM45.8085 43.1531V45.782C45.8085 47.6335 45.8085 49.4851 45.8085 51.3366C46.6911 50.9034 47.4604 50.27 48.0521 49.4851C48.8603 48.4314 49.1272 47.0616 48.775 45.782C48.4581 44.675 47.6219 43.79 46.5316 43.4121L45.8085 43.1531ZM38.5409 39.043H39.8203H42.1933V38.0244V37.3766C42.1933 36.3768 42.3418 35.3769 42.4716 34.3956V34.0993C42.5568 33.331 42.7237 32.5738 42.9721 31.8404C42.7347 31.6665 42.4808 31.5166 42.2119 31.3962C40.7769 30.689 39.1473 30.4744 37.577 30.7853L37.0396 30.9149C37.1508 31.0999 37.2432 31.3036 37.336 31.4888C38.2926 33.8865 38.7043 36.4674 38.5409 39.043ZM33.9246 32.7478C33.3035 33.3108 32.892 34.0681 32.7569 34.8956C32.6046 35.6973 32.8309 36.523 33.3686 37.1357C33.7836 37.5747 34.2827 37.9263 34.833 38.1727C34.9353 36.4359 34.6774 34.6957 34.0729 33.0626C34.0322 32.9534 33.9821 32.8498 33.9246 32.7478Z"/>
</svg>
