<svg width="100%" height="100%" viewBox="0 0 80 80" fill="none" xmlns="http://www.w3.org/2000/svg">
<path fill-rule="evenodd" clip-rule="evenodd" d="M57.9268 35.0312H36.2638C35.1337 35.0312 34.2163 34.1131 34.2163 32.9819C34.2163 31.8509 35.1337 30.9329 36.2638 30.9329H57.9268C59.0571 30.9329 59.9743 31.8509 59.9743 32.9819C59.9743 34.1131 59.0571 35.0312 57.9268 35.0312Z"/>
<path fill-rule="evenodd" clip-rule="evenodd" d="M57.9268 64.2305H36.2638C35.1337 64.2305 34.2163 63.3124 34.2163 62.1812C34.2163 61.05 35.1337 60.1321 36.2638 60.1321H57.9268C59.0571 60.1321 59.9743 61.05 59.9743 62.1812C59.9743 63.3124 59.0571 64.2305 57.9268 64.2305Z"/>
<path fill-rule="evenodd" clip-rule="evenodd" d="M32.4965 60.46C31.3662 60.46 30.4487 59.5419 30.4487 58.4107V36.7319C30.4487 35.6007 31.3662 34.6829 32.4965 34.6829C33.6268 34.6829 34.5442 35.6007 34.5442 36.7319V58.4107C34.5442 59.5419 33.6268 60.46 32.4965 60.46Z"/>
<path fill-rule="evenodd" clip-rule="evenodd" d="M61.6321 54.8042C60.5018 54.8042 59.5845 53.8861 59.5845 52.7552V36.8341C59.5845 35.7031 60.5018 34.7852 61.6321 34.7852C62.7624 34.7852 63.6798 35.7031 63.6798 36.8341V52.7552C63.6798 53.8861 62.7624 54.8042 61.6321 54.8042Z"/>
<path fill-rule="evenodd" clip-rule="evenodd" d="M33.4779 38.7808H31.4305C28.7707 38.7683 26.6187 36.6066 26.6187 33.945V31.9985C26.6187 29.3347 28.7707 27.1749 31.4305 27.1625H33.4779C36.1459 27.1625 38.3103 29.3286 38.3103 31.9985V33.945C38.3103 36.6148 36.1459 38.7808 33.4779 38.7808ZM31.4305 31.2608C31.031 31.271 30.7138 31.5989 30.7138 31.9985V33.945C30.7138 34.3445 31.031 34.6723 31.4305 34.6827H33.4779C33.8855 34.6827 34.2152 34.3528 34.2152 33.945V31.9985C34.2152 31.5905 33.8855 31.2608 33.4779 31.2608H31.4305Z"/>
<path fill-rule="evenodd" clip-rule="evenodd" d="M62.6562 38.7808H60.6087C57.9406 38.7808 55.7764 36.6148 55.7764 33.945V31.9985C55.7764 29.3286 57.9406 27.1625 60.6087 27.1625H62.6562C65.3241 27.1625 67.4882 29.3286 67.4882 31.9985V33.945C67.4882 36.6148 65.3241 38.7808 62.6562 38.7808ZM60.6087 31.2608C60.2012 31.2608 59.8714 31.5905 59.8714 31.9985V33.945C59.8714 34.3528 60.2012 34.6827 60.6087 34.6827H62.6562C63.0635 34.6827 63.3932 34.3528 63.3932 33.945V31.9985C63.3932 31.5905 63.0635 31.2608 62.6562 31.2608H60.6087Z"/>
<path fill-rule="evenodd" clip-rule="evenodd" d="M61.6316 68H59.8093C57.6347 67.9343 55.8902 66.1804 55.8369 64.0042V60.357C55.8351 58.14 57.5959 56.3246 59.8093 56.2589H63.4743C65.6879 56.3246 67.4487 58.14 67.4467 60.357V62.1807C67.4467 63.3117 66.5293 64.2298 65.3992 64.2298C64.2689 64.2298 63.3515 63.3117 63.3515 62.1807V60.357H59.8093L59.9321 63.9019L61.6316 63.7994C62.7619 63.7994 63.6793 64.7172 63.6793 65.8484C63.6793 66.9794 62.7619 67.8975 61.6316 67.8975V68Z"/>
<path fill-rule="evenodd" clip-rule="evenodd" d="M33.4779 68H31.4305C28.7707 67.9878 26.6187 65.8281 26.6187 63.1645V61.1154C26.6187 58.4536 28.7707 56.2919 31.4305 56.2795H33.4779C36.1459 56.2795 38.3103 58.4455 38.3103 61.1154V63.1645C38.3103 65.8342 36.1459 68 33.4779 68ZM31.4305 60.4595C31.031 60.4699 30.7138 60.7978 30.7138 61.1974V63.2464C30.7138 63.6459 31.031 63.9737 31.4305 63.9841H33.4779C33.8814 63.9737 34.2048 63.6499 34.2152 63.2464V61.1974C34.2048 60.7937 33.8814 60.4699 33.4779 60.4595H31.4305Z"/>
<path fill-rule="evenodd" clip-rule="evenodd" d="M43.3276 49.252H21.6646C20.5346 49.252 19.6172 48.3339 19.6172 47.2027C19.6172 46.0717 20.5346 45.1536 21.6646 45.1536H43.3276C44.4581 45.1536 45.3753 46.0717 45.3753 47.2027C45.3753 48.3339 44.4581 49.252 43.3276 49.252Z"/>
<path fill-rule="evenodd" clip-rule="evenodd" d="M43.3276 19.9707H21.6646C20.5346 19.9707 19.6172 19.0524 19.6172 17.9214C19.6172 16.7902 20.5346 15.8721 21.6646 15.8721H43.3276C44.4581 15.8721 45.3753 16.7902 45.3753 17.9214C45.3753 19.0524 44.4581 19.9707 43.3276 19.9707Z"/>
<path fill-rule="evenodd" clip-rule="evenodd" d="M47.0951 45.5024C45.9648 45.5024 45.0474 44.5841 45.0474 43.4531V21.7744C45.0474 20.6432 45.9648 19.7254 47.0951 19.7254C48.2254 19.7254 49.1428 20.6432 49.1428 21.7744V43.4531C49.1428 44.5841 48.2254 45.5024 47.0951 45.5024Z"/>
<path fill-rule="evenodd" clip-rule="evenodd" d="M17.8977 45.5015C16.7676 45.5015 15.8501 44.5834 15.8501 43.4524V27.6133C15.8501 26.4821 16.7676 25.5643 17.8977 25.5643C19.028 25.5643 19.9454 26.4821 19.9454 27.6133V43.4524C19.9454 44.5834 19.028 45.5015 17.8977 45.5015Z"/>
<path fill-rule="evenodd" clip-rule="evenodd" d="M48.0568 53.0215H46.0093C43.3414 53.0215 41.1772 50.8557 41.1772 48.186V46.1369C41.1772 43.467 43.3414 41.3012 46.0093 41.3012H48.0568C50.7249 41.3012 52.8891 43.467 52.8891 46.1369V48.186C52.8891 50.8557 50.7249 53.0215 48.0568 53.0215ZM46.0093 45.5018C45.602 45.5018 45.2723 45.8314 45.2723 46.2394V48.2883C45.2723 48.6963 45.602 49.0259 46.0093 49.0259H48.0568C48.4643 49.0259 48.7941 48.6963 48.7941 48.2883V46.2394C48.7941 45.8314 48.4643 45.5018 48.0568 45.5018H46.0093Z"/>
<path fill-rule="evenodd" clip-rule="evenodd" d="M18.8798 53.0215H16.8323C14.1642 53.0215 12 50.8557 12 48.186V46.1369C12 43.467 14.1642 41.3012 16.8323 41.3012H18.8798C21.5477 41.3012 23.7119 43.467 23.7119 46.1369V48.186C23.7119 50.8557 21.5477 53.0215 18.8798 53.0215ZM16.8323 45.5018C16.4248 45.5018 16.0951 45.8314 16.0951 46.2394V48.2883C16.0951 48.6963 16.4248 49.0259 16.8323 49.0259H18.8798C19.2871 49.0259 19.6167 48.6963 19.6167 48.2883V46.2394C19.6167 45.8314 19.2871 45.5018 18.8798 45.5018H16.8323Z"/>
<path fill-rule="evenodd" clip-rule="evenodd" d="M19.7399 23.8232H16.0749C13.9004 23.7575 12.1556 22.0033 12.1025 19.8274V17.9218C12.1025 16.7908 13.0199 15.873 14.15 15.873C15.2803 15.873 16.1977 16.7908 16.1977 17.9218V19.7455L19.7399 19.6429L19.6171 16.0983H17.8972C16.7669 16.0983 15.8496 15.1803 15.8496 14.0491C15.8496 12.9181 16.7669 12.0002 17.8972 12.0002H19.7399C21.9531 12.0657 23.712 13.8811 23.712 16.0983V19.7455C23.7019 21.9544 21.9452 23.7575 19.7399 23.8232Z"/>
<path fill-rule="evenodd" clip-rule="evenodd" d="M48.0568 23.8232H46.0093C43.3414 23.8232 41.1772 21.6575 41.1772 18.9877V16.9387C41.1772 14.2687 43.3414 12.103 46.0093 12.103H48.0568C50.7249 12.103 52.8891 14.2687 52.8891 16.9387V18.9877C52.8891 21.6575 50.7249 23.8232 48.0568 23.8232ZM46.0093 16.2828C45.602 16.2828 45.2723 16.6128 45.2723 17.0206V19.0697C45.2723 19.4772 45.602 19.8073 46.0093 19.8073H48.0568C48.4643 19.8073 48.7941 19.4772 48.7941 19.0697V17.0206C48.7941 16.6128 48.4643 16.2828 48.0568 16.2828H46.0093Z"/>
</svg>
