<svg width="100%" height="100%" viewBox="0 0 80 80" fill="none" xmlns="http://www.w3.org/2000/svg">
<path fill-rule="evenodd" clip-rule="evenodd" d="M23.6014 68H23.4662C22.5861 67.9288 21.9086 67.1909 21.9121 66.3075C21.9965 59.7243 28.5678 58.3029 33.8721 57.6598C30.9834 55.4427 29.8855 51.821 29.0239 48.2334C27.6388 42.4794 28.2129 37.9609 30.7132 34.8302C35.1257 29.8446 42.7393 29.386 47.7159 33.8064C48.0773 34.1279 48.4186 34.4681 48.7379 34.8302C51.2716 37.978 51.8462 42.4794 50.427 48.2334C49.7666 51.6824 48.138 54.869 45.731 57.4229L46.812 57.5244C49.5825 57.812 57.9612 58.6582 58.2822 65.986C58.4106 66.9119 57.7655 67.7664 56.8413 67.8949C56.0525 68.0049 55.2939 67.548 55.0219 66.7982C54.9595 66.624 54.9189 66.4413 54.9038 66.2567C54.8192 63.0921 52.2853 61.5181 46.4573 60.9259L45.241 60.8076C43.6869 60.6552 42.1159 60.5028 40.528 60.232C39.0533 60.5215 37.5648 60.7314 36.0683 60.8583C30.1221 61.4844 25.7972 62.2121 25.2568 65.6814C25.2735 65.8269 25.2735 65.9758 25.2568 66.1214V66.5952C25.1182 67.4043 24.4206 67.9948 23.6014 68ZM39.7507 34.1532C37.3234 34.1532 35.0073 35.1719 33.3654 36.9623C31.5408 39.2303 31.1694 42.7503 32.3011 47.4379C33.1964 51.0934 34.2437 54.4951 37.369 55.7813C38.396 56.1958 39.4587 56.5141 40.5447 56.7289C43.8051 55.7134 46.0011 52.6674 47.3019 47.4379C48.4169 42.7503 48.062 39.2303 46.2377 36.9623C44.6041 35.1804 42.3017 34.1618 39.886 34.1532H39.7507Z"/>
<path fill-rule="evenodd" clip-rule="evenodd" d="M40.14 26.7915C39.2074 26.7915 38.4507 26.0335 38.4507 25.0992C38.4507 24.1652 39.2074 23.4069 40.14 23.4069C42.3513 23.3967 44.1352 21.5912 44.1235 19.3758C44.1133 17.1606 42.3107 15.3752 40.1013 15.3854C37.89 15.3971 36.1061 17.2012 36.1161 19.4164C36.1228 20.5351 36.5941 21.6029 37.4203 22.3578C38.172 22.9111 38.3326 23.9705 37.7784 24.7235C37.2258 25.4767 36.1684 25.6374 35.4167 25.084C35.3221 25.013 35.2342 24.9335 35.1565 24.8453C32.1529 22.0836 31.9519 17.4059 34.7072 14.3969C37.4641 11.3862 42.1334 11.1848 45.1386 13.9468C48.1422 16.7086 48.3432 21.3862 45.5863 24.3952C44.1876 25.9253 42.211 26.7934 40.14 26.7915Z"/>
<path fill-rule="evenodd" clip-rule="evenodd" d="M40.14 34.1357C39.2076 34.1357 38.4507 33.3776 38.4507 32.4435V25.0987C38.4507 24.1645 39.2076 23.4064 40.14 23.4064C41.0726 23.4064 41.8295 24.1645 41.8295 25.0987V32.3926C41.8581 33.3269 41.1249 34.1069 40.1909 34.1357C40.1739 34.1357 40.1569 34.1357 40.14 34.1357Z"/>
<path fill-rule="evenodd" clip-rule="evenodd" d="M21.4057 36.2515C17.3194 36.2548 14.0034 32.9395 14 28.8457C13.9948 24.752 17.3043 21.43 21.3906 21.4266C25.4771 21.4233 28.793 24.7386 28.7982 28.8323C28.7999 30.802 28.0176 32.6925 26.6258 34.0852C25.9669 34.7419 24.9026 34.7419 24.2439 34.0852C23.5816 33.4271 23.5765 32.3557 24.2336 31.6923C24.2369 31.6889 24.2403 31.6856 24.2439 31.6822C25.8115 30.1201 25.8182 27.5799 24.2573 26.0095C24.2539 26.0061 24.2489 26.001 24.2439 25.9958C22.6559 24.4744 20.1557 24.4744 18.5677 25.9958C16.9984 27.5698 16.9984 30.1201 18.5694 31.6923C19.3684 32.4911 20.4647 32.9175 21.5916 32.8667C22.524 32.8244 23.3146 33.5487 23.3569 34.483C23.3992 35.4172 22.676 36.2092 21.7436 36.2515H21.4057Z"/>
<path fill-rule="evenodd" clip-rule="evenodd" d="M30.5618 39.736C30.1157 39.7293 29.6917 39.5466 29.3793 39.2284L24.2269 34.1516C23.5647 33.4932 23.5596 32.422 24.2167 31.7586C24.2201 31.7553 24.2234 31.7518 24.2269 31.7484C24.8857 31.0919 25.95 31.0919 26.6087 31.7484L31.7612 36.91C32.077 37.2299 32.2543 37.6613 32.251 38.1116C32.2493 38.555 32.0736 38.9814 31.7612 39.2961C31.4333 39.5941 31.0043 39.7532 30.5618 39.736Z"/>
<path fill-rule="evenodd" clip-rule="evenodd" d="M58.2321 36.2515C56.2691 36.25 54.3872 35.4714 52.9952 34.0852C52.3332 33.4218 52.3332 32.3456 52.9952 31.6822C53.6575 31.0188 54.7319 31.0188 55.3942 31.6822C56.9618 33.2307 59.4855 33.2138 61.0314 31.6433C62.5787 30.0746 62.5617 27.5445 60.9941 25.996C59.4264 24.4476 56.9026 24.4645 55.3552 26.035C54.5748 26.8269 54.1592 27.9117 54.2116 29.0253C54.2539 29.9594 53.5308 30.7513 52.5982 30.7938C51.6658 30.8361 50.8753 30.1118 50.833 29.1775C50.6473 25.089 53.8045 21.6213 57.8858 21.4352C61.9688 21.2474 65.4286 24.412 65.6162 28.5007C65.8018 32.5893 62.6447 36.0569 58.5617 36.2431C58.4467 36.2499 58.3318 36.2515 58.2152 36.2515H58.2321Z"/>
<path fill-rule="evenodd" clip-rule="evenodd" d="M49.0426 39.7368C48.11 39.7368 47.3533 38.9786 47.3533 38.0444C47.3551 37.5926 47.5375 37.1594 47.86 36.8429L52.9279 31.6815C53.5849 31.0181 54.6543 31.0129 55.3165 31.6711C55.3199 31.6746 55.3232 31.678 55.3268 31.6815C55.9888 32.3397 55.9939 33.4109 55.3368 34.0743C55.3335 34.0777 55.3299 34.0812 55.3268 34.0845L50.1745 39.1614C49.8856 39.493 49.4802 39.6996 49.0426 39.7368Z"/>
</svg>
