<svg width="100%" height="100%" viewBox="0 0 80 80" fill="none" xmlns="http://www.w3.org/2000/svg">
<path fill-rule="evenodd" clip-rule="evenodd" d="M16.8012 50.6387C16.458 50.6295 16.1241 50.53 15.8313 50.3492C14.9946 49.8118 14.7484 48.6937 15.2817 47.8507C15.2853 47.8453 15.2889 47.8396 15.2927 47.8344L30.7005 23.6821C30.9825 23.2508 31.4333 22.9611 31.9396 22.886C32.4442 22.8033 32.9614 22.9415 33.3583 23.2659L40.8828 29.5438L49.3231 18.3993L48.066 17.567C47.2381 17.0161 47.0117 15.8936 47.5577 15.0601C47.75 14.7699 48.0191 14.5409 48.3351 14.401L53.5611 12.1576C54.1035 11.9043 54.7392 11.9595 55.2311 12.3025C55.734 12.6275 56.0446 13.1837 56.0572 13.786V19.2134C56.0572 20.2126 55.2527 21.0227 54.2615 21.0227C53.5251 21.0233 52.8642 20.5714 52.5913 19.8828L42.5527 33.162C42.2549 33.5592 41.8057 33.8145 41.3136 33.8676C40.8289 33.9244 40.3441 33.7809 39.9669 33.4697L32.5862 27.2824L18.2197 49.7339C17.9252 50.2531 17.3937 50.5915 16.8012 50.6387Z"/>
<path fill-rule="evenodd" clip-rule="evenodd" d="M63.1679 62C62.1768 62 61.3721 61.1893 61.3721 60.1907V29.6521H54.8174V60.1907C54.8174 61.1893 54.0128 62 53.0217 62H44.9765C43.9852 62 43.1808 61.1893 43.1808 60.1907V41.6107H36.6261V60.1907C36.6261 61.1893 35.8216 62 34.8301 62H27.0185C26.0274 62 25.2228 61.1893 25.2228 60.1907V50.6386H18.6681V60.1907C18.6681 61.1893 17.8635 62 16.8724 62C15.881 62 15.0765 61.1893 15.0765 60.1907V48.8293C15.0765 47.8306 15.881 47.0201 16.8724 47.0201H27.0185C28.0098 47.0201 28.8145 47.8306 28.8145 48.8293V58.3815H33.0522V39.8016C33.0522 38.8023 33.8568 37.9924 34.8482 37.9924H44.9765C45.9678 37.9924 46.7722 38.8023 46.7722 39.8016V58.3815H51.2617V27.8431C51.2617 26.8438 52.0662 26.0339 53.0575 26.0339H63.2037C64.1953 26.0339 64.9996 26.8438 64.9996 27.8431V60.1907C64.9996 61.1893 64.1953 62 63.2037 62C63.1913 62 63.1806 62 63.1679 62Z"/>
</svg>
