<svg width="100%" height="100%" viewBox="0 0 80 80" fill="none" xmlns="http://www.w3.org/2000/svg">
<path fill-rule="evenodd" clip-rule="evenodd" d="M49.0588 23.3403H30.9413C30.5509 23.3403 30.2341 22.8256 30.2341 22.1914C30.2341 21.5572 30.5509 21.0425 30.9413 21.0425H49.0588C49.4492 21.0425 49.766 21.5572 49.766 22.1914C49.766 22.8256 49.4492 23.3403 49.0588 23.3403Z"/>
<path fill-rule="evenodd" clip-rule="evenodd" d="M40.5745 32.5317C39.9402 32.5317 39.4255 32.1369 39.4255 31.6503V13.8812C39.4255 13.3947 39.9402 12.9998 40.5745 12.9998C41.2087 12.9998 41.7234 13.3947 41.7234 13.8812V31.6503C41.7234 32.1369 41.2087 32.5317 40.5745 32.5317Z"/>
<path fill-rule="evenodd" clip-rule="evenodd" d="M28.393 51.8379H15.0743C13.9278 51.8379 13.0001 50.9091 13.0001 49.7621C13.0001 49.7566 13.0001 49.7494 13.0001 49.7438V27.8941C12.9891 26.7476 13.9098 25.8104 15.056 25.8C15.0615 25.8 15.0689 25.8 15.0743 25.8H28.393C29.5392 25.8 30.467 26.7294 30.467 27.8758C30.467 27.8818 30.467 27.8881 30.467 27.8941V49.7438C30.4782 50.8911 29.5575 51.8269 28.411 51.8379C28.4056 51.8379 28.3984 51.8379 28.393 51.8379ZM16.6389 48.1963H26.8282V29.4053H16.6389V48.1963Z"/>
<path fill-rule="evenodd" clip-rule="evenodd" d="M25.6813 29.4067H17.7847C16.6386 29.4167 15.7032 28.4956 15.6924 27.3491C15.6924 27.3431 15.6924 27.3371 15.6924 27.3311V17.553C15.6924 16.3966 16.6294 15.4592 17.7847 15.4592H25.6813C26.8368 15.4592 27.7738 16.3966 27.7738 17.553V27.3311C27.7738 28.4773 26.8458 29.4067 25.6995 29.4067C25.6941 29.4067 25.6869 29.4067 25.6813 29.4067ZM19.3314 25.7651H24.1347V19.1008H19.3314V25.7651Z"/>
<path fill-rule="evenodd" clip-rule="evenodd" d="M22.9522 59.2129H20.5142C17.8503 59.2129 15.6924 57.0534 15.6924 54.3877V50.2726C15.6924 49.1257 16.6204 48.197 17.7666 48.197C17.772 48.197 17.7795 48.197 17.7847 48.197H25.6813C26.8275 48.1859 27.7629 49.1072 27.7738 50.2545C27.7738 50.2599 27.7738 50.2673 27.7738 50.2726V54.4059C27.7647 57.0644 25.6087 59.2129 22.9522 59.2129ZM19.3131 51.9296V54.4059C19.3131 55.0596 19.8426 55.5895 20.4959 55.5895H22.9339C23.587 55.5895 24.1167 55.0596 24.1167 54.4059V51.8568L19.3131 51.9296Z"/>
<path fill-rule="evenodd" clip-rule="evenodd" d="M47.9424 66.5137H21.7335C20.7293 66.5137 19.9141 65.6977 19.9141 64.6927V57.4093C19.9141 56.4042 20.7293 55.5884 21.7335 55.5884C22.7379 55.5884 23.5531 56.4042 23.5531 57.4093V62.8719H47.9424C48.9468 62.8719 49.762 63.6875 49.762 64.6927C49.762 65.6977 48.9468 66.5137 47.9424 66.5137Z"/>
<path fill-rule="evenodd" clip-rule="evenodd" d="M64.726 51.8374H51.4074C50.2609 51.8374 49.3331 50.9086 49.3331 49.7616C49.3331 49.7561 49.3331 49.7489 49.3331 49.7433V27.8936C49.3221 26.7471 50.2428 25.8099 51.3891 25.7995C51.3945 25.7995 51.4017 25.7995 51.4074 25.7995H64.726C65.8723 25.7995 66.8 26.7289 66.8 27.8753C66.8 27.8814 66.8 27.8876 66.8 27.8936V49.7433C66.8111 50.8906 65.8905 51.8264 64.7441 51.8374C64.7387 51.8374 64.7312 51.8374 64.726 51.8374ZM52.9719 48.1958H63.1612V29.4048H52.9719V48.1958Z"/>
<path fill-rule="evenodd" clip-rule="evenodd" d="M62.0145 29.4052H54.1179C52.9716 29.4152 52.0362 28.4941 52.0254 27.3479C52.0254 27.3418 52.0254 27.3356 52.0254 27.3296V17.5518C52.0254 16.3953 52.9624 15.4579 54.1179 15.4579H60.468V14.8205C60.468 13.8151 61.2832 12.9999 62.2874 12.9999C63.2918 12.9999 64.107 13.8151 64.107 14.8205V15.4579H65.1804C66.1848 15.4579 67 16.2731 67 17.2788C67 18.2844 66.1848 19.0996 65.1804 19.0996H64.1798V27.3296C64.1816 28.4759 63.2536 29.4062 62.1074 29.4072C62.0763 29.4072 62.0454 29.4066 62.0145 29.4052ZM55.6644 25.7636H60.468V19.0996H55.6644V25.7636Z"/>
<path fill-rule="evenodd" clip-rule="evenodd" d="M59.2852 59.2114H56.8472C54.1833 59.2114 52.0254 57.0519 52.0254 54.3862V50.2711C52.0254 49.1242 52.9534 48.1955 54.0996 48.1955C54.1051 48.1955 54.1125 48.1955 54.1179 48.1955H62.0145C63.1605 48.1845 64.0959 49.1058 64.1068 50.253C64.1068 50.2585 64.1068 50.2659 64.1068 50.2711V54.4045C64.0977 57.0629 61.9417 59.2114 59.2852 59.2114ZM55.6461 51.9282V54.4045C55.6461 55.0582 56.1756 55.5881 56.8289 55.5881H59.2669C59.9202 55.5881 60.4497 55.0582 60.4497 54.4045V51.8554L55.6461 51.9282Z"/>
<path fill-rule="evenodd" clip-rule="evenodd" d="M58.0666 66.5132H43.347C42.3426 66.5132 41.5276 65.6972 41.5276 64.6922C41.5276 63.687 42.3426 62.8714 43.347 62.8714H56.247V57.4088C56.247 56.4038 57.0622 55.588 58.0666 55.588C59.071 55.588 59.8861 56.4038 59.8861 57.4088V64.6922C59.8861 65.6972 59.071 66.5132 58.0666 66.5132Z"/>
</svg>
