<svg width="100%" height="100%" viewBox="0 0 80 80" fill="none" xmlns="http://www.w3.org/2000/svg">
<path fill-rule="evenodd" clip-rule="evenodd" d="M52.8093 67H28.0242C24.9388 67.0116 22.3139 64.7444 21.8769 61.6878L16.0222 23.4285C15.8601 22.3505 16.6039 21.3444 17.681 21.1826C18.7583 21.0203 19.7633 21.7645 19.9251 22.8425L25.78 61.1018C25.9636 62.2308 26.9393 63.0608 28.083 63.0548H52.8093C53.9471 63.0432 54.9151 62.2228 55.1122 61.1018L59.2495 32.9982C59.4116 31.9201 60.4166 31.1761 61.4937 31.3382C62.571 31.5002 63.3145 32.5059 63.1527 33.5841L58.9762 61.7659C58.4649 64.7775 55.8635 66.9864 52.8093 67Z"/>
<path fill-rule="evenodd" clip-rule="evenodd" d="M40.3776 31.9824C28.6682 31.9824 16.061 29.2091 16.061 23.1353C16.061 20.4986 18.3446 17.8817 21.9159 16.4949C22.919 16.0966 24.0546 16.5849 24.4528 17.5888C24.8509 18.5925 24.3633 19.7292 23.36 20.1276C20.8425 21.1235 20.0032 22.6078 20.0032 23.1353C20.0032 24.5611 27.1657 28.0762 40.4168 28.0762C53.6679 28.0762 60.8497 24.5611 60.8497 23.1353C60.8497 21.7096 54.7024 18.7021 49.9403 17.784C43.6759 16.573 35.05 16.0068 29.5661 20.2057C28.7094 20.8638 27.4818 20.7018 26.8239 19.8444C26.1663 18.987 26.3283 17.7586 27.185 17.1005C32.4544 13.0772 40.573 11.9836 50.604 13.9564C50.7404 13.9564 64.6748 16.7491 64.6748 23.1353C64.7137 29.2091 52.1065 31.9824 40.3776 31.9824Z"/>
</svg>
