<svg width="100%" height="100%" viewBox="0 0 80 80" fill="none" xmlns="http://www.w3.org/2000/svg">
<path fill-rule="evenodd" clip-rule="evenodd" d="M61.0269 39.1325C61.0344 40.423 60.0132 41.4771 58.7462 41.4844C58.13 41.4864 57.5383 41.2387 57.1042 40.7925C47.663 31.18 32.364 31.18 22.9225 40.7925C22.0279 41.6993 20.5828 41.6993 19.6879 40.7925C18.7886 39.8829 18.7823 38.4032 19.6746 37.4868C19.6788 37.4822 19.6837 37.4775 19.6879 37.4729C30.9238 26.0607 49.1029 26.0607 60.3386 37.4729C60.7766 37.91 61.0246 38.5085 61.0269 39.1325Z"/>
<path fill-rule="evenodd" clip-rule="evenodd" d="M53.2249 47.0331C53.2322 48.3234 52.2111 49.3778 50.9443 49.3847C50.328 49.3871 49.736 49.1393 49.302 48.6929C44.1842 43.4634 35.8759 43.4518 30.7448 48.6671C30.7365 48.6764 30.7285 48.6834 30.7202 48.6929C29.8206 49.602 28.3676 49.5974 27.4742 48.6811C26.5808 47.7647 26.586 46.2827 27.4855 45.3733C34.4079 38.3348 45.6147 38.3348 52.5367 45.3733C52.9746 45.8104 53.2224 46.4089 53.2249 47.0331Z"/>
<path fill-rule="evenodd" clip-rule="evenodd" d="M68 31.2326C68.0072 32.5229 66.9861 33.577 65.7191 33.584C65.1028 33.5863 64.5111 33.3386 64.077 32.8921C50.8262 19.3365 29.2998 19.2919 15.9965 32.7964C15.9648 32.8266 15.9333 32.8596 15.9016 32.8921C15.0069 33.7992 13.5618 33.7992 12.6671 32.8921C11.7776 31.9804 11.7776 30.5077 12.6671 29.596C27.6918 14.2332 52.094 14.1889 67.1711 29.5003C67.2026 29.5307 67.2344 29.5632 67.2658 29.596C67.7149 30.0192 67.9791 30.6084 68 31.2326Z"/>
<path fill-rule="evenodd" clip-rule="evenodd" d="M44.9471 62C45.0818 61.9995 45.2114 61.9479 45.3069 61.8563C45.5064 61.663 45.5064 61.3508 45.3069 61.1576L39.2725 55.3351C39.071 55.1408 38.7441 55.1408 38.5426 55.3351C38.3411 55.5293 38.3411 55.8445 38.5426 56.0387L44.5822 61.8563C44.6793 61.949 44.8104 62.001 44.9471 62Z"/>
<path fill-rule="evenodd" clip-rule="evenodd" d="M35.6334 62C35.7701 62.001 35.9011 61.949 35.9983 61.8563L45.3069 52.8821C45.4915 52.6745 45.4663 52.3613 45.2509 52.1834C45.0587 52.0244 44.7744 52.0244 44.5822 52.1834L35.2839 61.1576C35.0844 61.3508 35.0844 61.663 35.2839 61.8563C35.3769 61.9455 35.5023 61.997 35.6334 62Z"/>
<path fill-rule="evenodd" clip-rule="evenodd" d="M43.0762 60.1807C43.2129 60.1816 43.3439 60.1296 43.4411 60.0369C43.6425 59.8442 43.6441 59.5305 43.4441 59.3362C43.4431 59.3353 43.4421 59.3343 43.4411 59.3333L38.5734 54.6455C37.7458 53.8477 36.8874 53.0202 36.5173 52.0291C36.4351 51.767 36.1478 51.6193 35.8764 51.6986C35.6045 51.7784 35.4513 52.0549 35.5335 52.317C35.5372 52.3284 35.5413 52.3398 35.5459 52.3512C35.9776 53.5603 36.9646 54.5068 37.8332 55.3244L42.6957 60.0171C42.7929 60.1207 42.9312 60.1802 43.0762 60.1807Z"/>
</svg>
