<svg width="100%" height="100%" viewBox="0 0 80 80" fill="none" xmlns="http://www.w3.org/2000/svg">
<path fill-rule="evenodd" clip-rule="evenodd" d="M17.7107 65.6616C15.6604 65.6616 14 63.9918 14 61.93V28.3442C14 26.2824 15.6604 24.6125 17.7107 24.6125H40.8697C41.8938 24.6125 42.725 25.4483 42.725 26.4784C42.725 27.5084 41.8938 28.3442 40.8697 28.3442H17.7107V61.93C35.0272 61.93 33.9291 61.93 51.2456 61.93V49.0742C51.2456 41.4053 51.2456 39.5208 51.2456 39.0915C51.1603 38.0654 51.9191 37.1625 52.9415 37.0764H52.9525C53.9712 37.0018 54.8581 37.7688 54.9377 38.7931C54.9377 39.6701 55.0491 43.0286 55.0491 49.0742V61.93C55.0491 63.9918 53.3887 65.6616 51.3385 65.6616C30.1615 65.6616 32.4269 65.6616 17.7107 65.6616Z"/>
<path fill-rule="evenodd" clip-rule="evenodd" d="M62.3777 35.1088C62.0188 35.4651 61.5326 35.6624 61.0312 35.6553C60.0179 35.6623 59.2051 34.8495 59.2119 33.8361L59.6151 20.0408L54.7797 20.4641L57.7919 21.4514C58.4166 21.6478 58.8837 22.1647 59.0162 22.8074C59.1538 23.426 58.9609 24.0772 58.5052 24.5312L36.099 46.9375C35.3733 47.6631 34.2068 47.6744 33.4942 46.9618C32.7817 46.2494 32.7929 45.0827 33.5185 44.357L53.7948 24.0807L45.0577 21.1804C44.0968 20.8639 43.5897 19.823 43.9249 18.8567C44.1698 18.1521 44.8085 17.6553 45.5472 17.5944L61.4218 16.2731C61.9394 16.2281 62.4485 16.4032 62.8236 16.7548C63.1904 17.1085 63.388 17.6031 63.3709 18.1171L62.9097 33.9317C62.8777 34.3728 62.6898 34.7896 62.3777 35.1088Z"/>
</svg>
