<svg width="100%" height="100%" viewBox="0 0 80 80" fill="none" xmlns="http://www.w3.org/2000/svg">
<path fill-rule="evenodd" clip-rule="evenodd" d="M15.8331 67H15.6864C14.7315 66.923 13.9964 66.1224 14 65.1639C14.1284 55.1751 24.7405 53.6697 33.025 52.7882C27.7465 49.7768 25.9319 43.9196 24.5388 38.0991C22.5228 29.7814 23.3843 23.2447 27.05 18.801C33.3569 11.6773 44.2346 11.0243 51.346 17.3427C51.8594 17.7993 52.3449 18.2864 52.8013 18.801C56.467 23.2813 57.2367 29.818 55.2207 38.1174C53.6077 44.8193 50.9868 49.5748 47.3029 52.4761L48.6225 52.5863L50.4552 52.7699C54.8359 53.2105 66.4744 54.404 66.9508 64.6681C67.0205 65.4449 66.5952 66.1792 65.8878 66.5042C64.9714 66.921 63.8918 66.5189 63.4686 65.6045C63.3532 65.3438 63.2907 65.0629 63.2851 64.7783C63.1387 59.8024 59.1979 57.2501 50.1437 56.3321L48.3108 56.1667C45.9648 55.928 43.6006 55.7075 41.2177 55.2853C38.9614 55.759 36.6778 56.095 34.3812 56.2953C25.4554 57.2318 18.509 58.425 17.7208 64.1539C17.7392 64.3431 17.7392 64.5341 17.7208 64.7231L17.611 65.4208C17.4844 66.3134 16.7328 66.9816 15.8331 67ZM39.7699 16.6712C35.9722 16.6661 32.3524 18.2821 29.8175 21.1145C26.9585 24.6584 26.3718 30.0935 28.0948 37.2544C29.451 42.873 31.0822 48.106 35.9574 50.1075C37.5742 50.7648 39.2492 51.2622 40.9612 51.5947C46.1299 50.0707 49.6121 45.3701 51.5733 37.236C53.2963 30.0751 52.7097 24.6402 49.8505 21.0963C47.2992 18.2775 43.6775 16.67 39.8798 16.6712H39.7699Z"/>
</svg>
