<svg width="100%" height="100%" viewBox="0 0 80 80" fill="none" xmlns="http://www.w3.org/2000/svg">
<path fill-rule="evenodd" clip-rule="evenodd" d="M54 67.9975C47.7995 67.9975 38.1563 62.895 38.0356 62.8346C37.0774 62.28 36.745 61.0558 37.2907 60.0916C37.8362 59.1236 39.0602 58.7806 40.0286 59.3252C44.055 61.685 53.4968 64.9119 55.1477 63.843C55.7919 63.1976 56.7783 62.411 57.9055 61.5034C59.5564 60.1926 62.9588 57.4699 63.2004 56.2799C63.4419 55.0899 62.5763 54.4849 60.8248 52.9117C60.2813 52.4479 59.7377 51.964 59.2544 51.4595C56.3756 48.5352 53.8793 46.0142 52.7922 46.0142C51.8661 46.0142 49.9537 48.0312 47.5378 50.6126L44.4173 53.9001L25.1915 34.9016L26.6612 33.4696C27.2853 32.8646 28.0905 32.2192 28.9561 31.4528C30.9693 29.92 34.0898 27.4191 33.8685 25.7251C33.6469 24.0309 26.2385 17.2949 24.3058 16.4073C23.3192 15.9435 23.0578 15.9839 23.0374 15.9839C22.5865 16.3429 22.1736 16.7483 21.8095 17.1939C21.3464 17.6981 20.823 18.283 20.1385 18.9282C15.8505 23.1234 15.5082 23.4662 16.3739 29.4159C18.0407 40.1635 24.1889 49.695 33.2846 55.6345C34.2068 56.2577 34.45 57.514 33.828 58.4378C33.2059 59.3616 31.9518 59.6056 31.0298 58.9824C20.9961 52.4277 14.2236 41.9021 12.4077 30.041C11.3205 22.6997 12.2266 21.0662 17.34 16.0847C17.9441 15.4999 18.4272 14.9553 18.85 14.5115C20.8632 12.3133 22.353 11.1031 25.9967 12.7973C28.2113 13.8259 37.3512 21.651 37.8543 25.2008C38.398 29.0931 34.5529 32.1788 31.4727 34.6394L31.0298 35.0024L44.3168 48.0916L44.6187 47.769C48.1618 44.0177 50.1146 41.9403 52.6716 41.9201C55.4092 41.9201 57.6238 44.1387 61.9721 48.5554C62.415 48.9992 62.8782 49.4228 63.3615 49.8462C65.3745 51.5606 67.6897 53.6983 67.0052 57.0261C66.5221 59.4462 63.905 61.685 60.2813 64.5892C59.2949 65.3959 58.268 66.1421 57.8049 66.6059C56.7621 67.5417 55.3992 68.0399 54 67.9975Z"/>
</svg>
