<svg width="100%" height="100%" viewBox="0 0 80 80" fill="none" xmlns="http://www.w3.org/2000/svg">
<path fill-rule="evenodd" clip-rule="evenodd" d="M40.4749 66.1717C30.1285 66.2077 20.6374 60.4275 15.907 51.21C15.444 50.2955 15.8006 49.1776 16.7097 48.7039C17.6244 48.2279 18.7521 48.5853 19.2262 49.5018C19.2281 49.5039 19.228 49.5061 19.2299 49.508C25.258 61.2582 39.6517 65.8884 51.3813 59.85C58.772 56.045 63.6558 48.6642 64.2773 40.3628C64.3576 39.3361 65.2501 38.5669 66.2749 38.6421C67.3035 38.7211 68.0728 39.6202 67.9944 40.65C67.9923 40.6539 67.9924 40.658 67.9924 40.6619C66.8107 55.0276 54.8628 66.1042 40.4749 66.1717Z"/>
<path fill-rule="evenodd" clip-rule="evenodd" d="M13.8742 40.5146H13.7249C12.6961 40.4354 11.9271 39.5365 12.0055 38.5065C12.0055 38.5065 12.0071 38.4987 12.0071 38.4946C13.202 23.2651 26.494 11.8895 41.6959 13.0867C51.2562 13.8396 59.7429 19.5074 64.1114 28.0589C64.554 28.9921 64.1563 30.1076 63.2247 30.5502C62.3323 30.9745 61.2644 30.6286 60.7884 29.7607C54.7698 18.0065 40.378 13.3663 28.6446 19.3966C21.2763 23.1833 16.3946 30.524 15.7409 38.7939C15.6625 39.7679 14.8504 40.5177 13.8742 40.5146Z"/>
<path fill-rule="evenodd" clip-rule="evenodd" d="M15.0871 64.2441H14.7139C13.7038 64.0378 13.0525 63.05 13.2578 62.0379V62.0373L15.7593 49.9369C15.9197 49.1803 16.5282 48.6003 17.29 48.478C17.5234 48.4325 17.7662 48.4325 17.9994 48.478L30.0408 50.9842C31.0432 51.1991 31.6854 52.1847 31.478 53.191C31.2728 54.2031 30.287 54.8563 29.2753 54.65V54.6498L19.0449 52.5178L16.9168 62.804C16.7169 63.6526 15.9571 64.2501 15.0871 64.2441Z"/>
<path fill-rule="evenodd" clip-rule="evenodd" d="M62.3935 30.7862C62.2702 30.8043 62.1434 30.8043 62.0201 30.7862L49.979 28.2801C48.9486 28.0734 48.28 27.0687 48.4853 26.0358C48.6907 25.0029 49.6951 24.3328 50.7255 24.5397L60.9748 26.6718L63.1027 16.4229C63.3082 15.39 64.3124 14.72 65.3431 14.9265C66.3735 15.1332 67.042 16.1381 66.8365 17.171L64.3164 29.2714C64.154 30.058 63.5081 30.6532 62.7109 30.7488L62.3935 30.7862Z"/>
</svg>
