<svg width="100%" height="100%" viewBox="0 0 80 80" fill="none" xmlns="http://www.w3.org/2000/svg">
<path d="M13.5641 40.0111C13.5641 54.6414 25.4024 66.5 40.0044 66.5C40.7324 66.5 41.3248 65.9082 41.3248 65.1764C41.3248 64.4447 40.7325 63.853 40.0044 63.853C26.8596 63.853 16.2047 53.1777 16.2047 40.0111C16.2047 26.8447 26.8596 16.1695 40.0044 16.1695C40.7325 16.1695 41.3248 15.5777 41.3248 14.846C41.3248 14.1143 40.7324 13.5224 40.0044 13.5224C25.4024 13.5224 13.5641 25.3809 13.5641 40.0111Z" stroke="#1E1E1E"/>
<path d="M62.1033 29.831L62.0821 29.834C62.0131 29.8438 61.9416 29.8444 61.8723 29.8358L50.1492 27.3959L50.1456 27.3951L50.1456 27.3951C49.4126 27.2482 48.935 26.5325 49.0816 25.7947L62.1033 29.831ZM62.1033 29.831L62.1246 29.8298M62.1033 29.831L62.1246 29.8298M62.1246 29.8298L62.4242 29.8131C62.9511 29.7189 63.3713 29.313 63.4833 28.7848L63.4836 28.7834L66.0311 16.9341C66.1756 16.1977 65.6985 15.484 64.9663 15.3372C64.2328 15.1901 63.5171 15.6669 63.3708 16.4032L63.3709 16.4032L63.3696 16.4089L61.2581 26.4204L61.1552 26.9083M62.1246 29.8298L61.1552 26.9083M61.1552 26.9083L60.667 26.8067M61.1552 26.9083L60.667 26.8067M60.667 26.8067L50.6773 24.7285C50.6767 24.7284 50.6762 24.7283 50.6757 24.7282M60.667 26.8067L50.6757 24.7282M50.6757 24.7282C49.943 24.5822 49.228 25.0588 49.0816 25.7946L50.6757 24.7282Z" stroke="#1E1E1E"/>
<path d="M62.8772 29.6607L62.8773 29.6606C63.534 29.3486 63.8161 28.563 63.5076 27.9036C59.3241 19.724 51.2064 14.3032 42.061 13.583C27.518 12.4377 14.8002 23.3173 13.6516 37.8873C13.6511 37.8983 13.6501 37.9115 13.6484 37.9251C13.6481 37.9281 13.6477 37.9312 13.6472 37.9344C13.6068 38.6473 14.1381 39.2641 14.8474 39.3281C15.517 39.3226 16.0771 38.8149 16.149 38.1442C16.7153 29.7003 21.7103 22.1907 29.2734 18.417C41.0277 12.5519 55.3011 17.3402 61.1592 29.1102C61.4985 29.7187 62.2496 29.9591 62.8772 29.6607Z" stroke="#1E1E1E"/>
<path d="M60.842 51.3901C60.7668 52.099 61.2656 52.7394 61.9669 52.8408H62.1512C62.8166 52.8386 63.3767 52.3405 63.4577 51.6762C63.5433 50.9534 63.0297 50.2979 62.3103 50.2078C61.5968 50.1239 60.9464 50.6284 60.8483 51.3428C60.8471 51.3563 60.8452 51.3722 60.842 51.3901Z" stroke="#1E1E1E"/>
<path d="M14.8242 40.6916L14.8288 40.6916C15.5072 40.6881 16.0772 41.2002 16.1483 41.8781C17.1869 54.9908 28.6384 64.7807 41.7295 63.7434C49.952 63.0923 57.2498 58.2195 61.0148 50.8686L61.0148 50.8686C61.0765 50.7481 61.1262 50.6256 61.1668 50.5037C61.4453 49.8324 62.2111 49.5102 62.8855 49.7821L14.8242 40.6916ZM14.8242 40.6916C14.788 40.6915 14.7528 40.6928 14.7143 40.6959C13.9883 40.7547 13.4466 41.3912 13.5042 42.1203M14.8242 40.6916L13.5042 42.1203M13.5042 42.1203C14.6626 55.8781 26.1291 66.4629 39.9101 66.498C49.8011 66.4825 58.8523 60.9256 63.3581 52.1037L63.622 51.5047C63.8911 50.8251 63.5621 50.0554 62.8857 49.7821L13.5042 42.1203Z" stroke="#1E1E1E"/>
</svg>
