<svg width="100%" height="100%" viewBox="0 0 80 80" fill="none" xmlns="http://www.w3.org/2000/svg">
<path fill-rule="evenodd" clip-rule="evenodd" d="M58.7021 57.7427H24.8879C23.7729 57.7427 22.8681 56.8391 22.8681 55.7255L22.3428 26.5565L13.455 23.9544C12.3843 23.6417 11.7684 22.5222 12.0816 21.453C12.3946 20.3838 13.5156 19.7687 14.5861 20.0813L24.9082 23.1071C25.7566 23.3532 26.3442 24.1217 26.3625 25.0034L26.8675 53.6882H57.1669L63.2267 33.516H33.5737C32.4588 33.516 31.5541 32.6122 31.5541 31.4988C31.5541 30.3853 32.4588 29.4815 33.5737 29.4815H65.9941C67.1089 29.4896 68.008 30.3993 68 31.5129C67.9977 31.7065 67.9694 31.8982 67.9131 32.0838L60.6411 56.2903C60.3907 57.1516 59.5989 57.7427 58.7021 57.7427Z"/>
<path fill-rule="evenodd" clip-rule="evenodd" d="M27.1911 67.4663C23.3653 67.4663 20.2627 64.3678 20.2627 60.5471C20.2627 56.7265 23.3653 53.628 27.1911 53.628C31.017 53.628 34.1197 56.7265 34.1197 60.5471C34.1197 64.3678 31.017 67.4663 27.1911 67.4663ZM27.1911 57.6825C25.5954 57.6825 24.3026 58.9736 24.3026 60.5672C24.3026 62.1609 25.5954 63.4519 27.1911 63.4519C28.7869 63.4519 30.0797 62.1609 30.0797 60.5672C30.0797 60.5613 30.0797 60.5532 30.0797 60.5471C30.0695 58.9615 28.7787 57.6825 27.1911 57.6825Z"/>
<path fill-rule="evenodd" clip-rule="evenodd" d="M56.3994 67.4663C52.5737 67.4784 49.4629 64.3879 49.4508 60.5672C49.4408 56.7466 52.5334 53.6401 56.359 53.6279C60.1849 53.6179 63.2956 56.7063 63.3079 60.5269C63.3079 60.533 63.3079 60.5411 63.3079 60.547C63.2976 64.3557 60.2133 67.444 56.3994 67.4663ZM56.3994 57.6825C54.8039 57.6706 53.5028 58.9534 53.4908 60.547C53.4805 62.1408 54.7633 63.4398 56.359 63.4519C57.9548 63.4621 59.2556 62.181 59.2679 60.5874C59.2679 60.5733 59.2679 60.5612 59.2679 60.547C59.2579 58.9695 57.9791 57.6927 56.3994 57.6825Z"/>
</svg>
