<svg width="100%" height="100%" viewBox="0 0 80 80" fill="none" xmlns="http://www.w3.org/2000/svg">
<path fill-rule="evenodd" clip-rule="evenodd" d="M31.4202 59.6465C27.0119 59.6465 21.7844 55.5967 19.589 53.3973C10.8157 44.6254 10.8016 30.3901 19.5592 21.601C28.3153 12.8119 42.5248 12.7979 51.2982 21.5713C60.0699 30.3429 60.0837 44.5784 51.3278 53.3675C48.8395 55.8656 45.7973 57.742 42.4501 58.8436C41.5248 59.109 40.5612 58.5712 40.2964 57.6444C40.0456 56.7662 40.5141 55.8429 41.3698 55.5268C51.3053 52.219 56.6825 41.4679 53.3806 31.5143C52.4552 28.7247 50.8973 26.1884 48.8274 24.1058C41.7356 16.4026 29.7529 15.9191 22.0633 23.0236C14.3737 30.13 13.8912 42.1328 20.983 49.8362C21.3279 50.2115 21.6885 50.5728 22.0633 50.9185C24.3109 53.1702 28.8239 56.3125 31.6117 56.1553C32.5737 56.1117 33.3892 56.8588 33.4328 57.8225C33.4762 58.786 32.7307 59.6031 31.7688 59.6465H31.4202Z"/>
<path fill-rule="evenodd" clip-rule="evenodd" d="M62.1395 65.9999C61.6831 65.9982 61.244 65.8166 60.9198 65.4938L48.8619 53.4314C48.1785 52.7473 48.1785 51.637 48.8619 50.9528C49.5448 50.2685 50.6531 50.2685 51.3361 50.9528L63.3766 63.0324C64.0528 63.7132 64.0528 64.813 63.3766 65.4938C63.0474 65.8203 62.603 66.0036 62.1395 65.9999Z"/>
<path fill-rule="evenodd" clip-rule="evenodd" d="M21.4877 38.1753C20.7542 38.1753 20.099 37.7143 19.8497 37.0231C18.3861 32.9436 18.5988 28.4469 20.4424 24.5243C22.3641 20.5532 25.694 17.4408 29.7818 15.7963C30.6775 15.4351 31.6952 15.868 32.0558 16.7652C32.4165 17.6624 31.9842 18.6818 31.0887 19.0432C27.0549 20.5463 23.9829 23.896 22.8296 28.0506C24.3002 26.0764 26.2009 24.465 28.3879 23.3376C29.2365 22.8818 30.2923 23.2012 30.7472 24.0515C30.7558 24.0689 30.7663 24.0862 30.7751 24.1054C31.2194 24.9609 30.885 26.0151 30.031 26.4586C30.0293 26.4604 30.0276 26.4603 30.0259 26.4621C26.1733 28.4136 23.6153 32.2384 23.2825 36.5519C23.2339 37.3757 22.6169 38.0531 21.8013 38.1753H21.4877Z"/>
</svg>
