<svg width="100%" height="100%" viewBox="0 0 80 80" fill="none" xmlns="http://www.w3.org/2000/svg">
<path fill-rule="evenodd" clip-rule="evenodd" d="M14.9724 35.7568C13.8837 35.7568 13 34.8727 13 33.7833V18.783C13 15.5894 15.5876 13 18.7786 13H33.768C34.8566 13 35.7402 13.8841 35.7402 14.9737C35.7402 16.0631 34.8566 16.9474 33.768 16.9474H18.7786C17.7651 16.9474 16.9446 17.7684 16.9446 18.783V33.7833C16.9446 34.8727 16.061 35.7568 14.9724 35.7568Z"/>
<path fill-rule="evenodd" clip-rule="evenodd" d="M65.0278 35.7568C63.9389 35.7568 63.0554 34.8727 63.0554 33.7833V18.783C63.0554 17.7684 62.2351 16.9474 61.2211 16.9474H46.2321C45.1433 16.9474 44.2596 16.0631 44.2596 14.9737C44.2596 13.8841 45.1433 13 46.2321 13H61.2211C64.4123 13 67 15.5894 67 18.783V33.7833C67 34.8727 66.1163 35.7568 65.0278 35.7568Z"/>
<path fill-rule="evenodd" clip-rule="evenodd" d="M33.768 66.7314H18.7786C15.5876 66.7314 13 64.142 13 60.9485V45.9481C13 44.8587 13.8837 43.9744 14.9724 43.9744C16.061 43.9744 16.9446 44.8587 16.9446 45.9481V60.9485C16.9446 61.963 17.7651 62.784 18.7786 62.784H33.768C34.8566 62.784 35.7402 63.6683 35.7402 64.7577C35.7402 65.8474 34.8566 66.7314 33.768 66.7314Z"/>
<path fill-rule="evenodd" clip-rule="evenodd" d="M61.2211 66.7314H46.2321C45.1433 66.7314 44.2596 65.8474 44.2596 64.7577C44.2596 63.6683 45.1433 62.784 46.2321 62.784H61.2211C62.2351 62.784 63.0554 61.963 63.0554 60.9485V45.9481C63.0554 44.8587 63.9389 43.9744 65.0278 43.9744C66.1163 43.9744 67 44.8587 67 45.9481V60.9485C67 64.142 64.4123 66.7314 61.2211 66.7314Z"/>
<path fill-rule="evenodd" clip-rule="evenodd" d="M36.7938 53.8101C33.9739 53.8101 30.63 51.2195 29.2256 49.8126C23.6135 44.2014 23.6045 35.0953 29.2066 29.473C34.8077 23.8508 43.8973 23.8418 49.5095 29.454C55.1205 35.0651 55.1294 44.1712 49.5284 49.7935C47.9367 51.3915 45.9906 52.5918 43.8494 53.2965C43.2576 53.4662 42.6412 53.1222 42.4718 52.5293C42.3114 51.9676 42.611 51.377 43.1584 51.1748C49.514 49.0588 52.9537 42.1815 50.8415 35.8144C50.2495 34.0299 49.253 32.4075 47.9289 31.0753C43.3924 26.1477 35.7273 25.8384 30.8084 30.383C25.8894 34.9289 25.5808 42.6068 30.1173 47.5346C30.3379 47.7747 30.5687 48.0058 30.8084 48.2269C32.2462 49.6673 35.133 51.6774 36.9163 51.5768C37.5317 51.5489 38.0533 52.0268 38.0812 52.6433C38.109 53.2596 37.6321 53.7823 37.0168 53.8101H36.7938Z"/>
<path fill-rule="evenodd" clip-rule="evenodd" d="M56.4447 57.872C56.1528 57.8709 55.8719 57.7548 55.6645 57.5482L47.9512 49.8322C47.5141 49.3946 47.5141 48.6843 47.9512 48.2466C48.3881 47.8089 49.0971 47.8089 49.534 48.2466L57.2361 55.9738C57.6686 56.4093 57.6686 57.1127 57.2361 57.5482C57.0255 57.7571 56.7412 57.8744 56.4447 57.872Z"/>
</svg>
