<svg width="100%" height="100%" viewBox="0 0 80 80" fill="none" xmlns="http://www.w3.org/2000/svg">
<path fill-rule="evenodd" clip-rule="evenodd" d="M57.279 65H49.7396C46.7238 65 46.4409 61.8788 46.3089 60.5438C46.2996 60.2152 46.262 59.888 46.1959 59.5661C45.4231 57.0463 42.2943 55.9182 39.5045 55.9182C36.7149 55.9182 33.586 57.0463 32.8132 59.5661C32.7563 59.8893 32.7185 60.2158 32.7 60.5438C32.5682 61.8788 32.2855 65 29.2698 65H21.6168H19.732C19.0045 64.9617 18.2866 64.8158 17.6021 64.5676C17.118 64.3828 16.7119 64.0376 16.4523 63.5898C16.2083 63.1145 16.0549 62.598 16 62.0667C16 61.6718 16 61.3335 16 60.9949C16 60.6566 16 60.3934 16 60.0925V51.6496C16 48.6413 19.2232 48.3592 20.5992 48.2465C20.9348 48.2257 21.2687 48.1818 21.5981 48.1149C22.8222 47.6692 23.8053 46.736 24.3123 45.5388C25.429 42.9808 25.4766 40.0839 24.4442 37.491C23.9639 36.1995 22.914 35.2007 21.5981 34.7834C21.2687 34.7162 20.9348 34.6725 20.5992 34.6518C19.2232 34.5389 16 34.2569 16 31.2484V23.8587C16 22.1102 16.2827 19.7972 17.7152 18.8946C19.3518 18.1738 21.1839 18.0215 22.9176 18.4622C23.4451 18.4622 23.9354 18.5938 24.2935 18.5938C24.6515 18.5938 25.4245 18.5938 26.1784 18.7442C27.1258 18.8932 28.085 18.9497 29.0434 18.9135C29.185 18.5144 29.2984 18.106 29.3828 17.6912C29.5142 17.1247 29.6778 16.5658 29.8727 16.0177C31.4959 10.7684 37.0775 7.82529 42.3398 9.44454C45.491 10.414 47.9564 12.8745 48.9289 16.0177C49.3436 17.6308 49.5961 19.2813 49.683 20.9442C49.683 21.8279 49.9091 23.0313 49.9657 23.2945C50.1958 24.3332 49.5361 25.3601 48.4953 25.5886C47.455 25.8171 46.426 25.1605 46.1959 24.122C46.1959 23.6707 46.0073 22.8246 45.8379 21.3578C45.6681 19.8913 45.4607 17.8416 45.31 17.3715C44.4306 14.0588 41.0255 12.0847 37.7046 12.9619C35.544 13.533 33.8567 15.2165 33.2842 17.3715C33.145 17.7519 33.0317 18.1417 32.945 18.5374C32.8085 19.907 32.1302 21.1657 31.0602 22.0349C29.3219 22.7222 27.4136 22.86 25.5941 22.4296C25.0287 22.4296 24.5384 22.2981 24.1616 22.2981C23.5305 22.2792 22.9009 22.2227 22.2765 22.1288C21.4603 21.9989 20.6339 21.9423 19.8075 21.9597C19.6746 22.5776 19.6115 23.208 19.6189 23.8398V30.7594C19.9582 30.7594 20.4672 30.8723 20.7877 30.9098C21.3794 30.9367 21.967 31.025 22.5405 31.1732C24.9283 31.9023 26.8555 33.6728 27.7805 35.9868C29.271 39.6127 29.2097 43.6889 27.6109 47.2685C26.646 49.4256 24.8217 51.0824 22.5783 51.8378C22.0028 51.9771 21.4162 52.0649 20.8253 52.1009L19.6568 52.2327V59.1523L17.7717 59.4156H19.6568V60.0173C19.6568 60.2805 19.6568 60.5438 19.6568 60.7881C19.6653 60.9447 19.6653 61.1016 19.6568 61.2583H19.9771C20.5613 61.2583 21.0891 61.2583 21.6357 61.2583H28.8173C28.8173 60.9386 28.9114 60.5061 28.9493 60.2053C28.9694 59.6328 29.058 59.0646 29.213 58.5129C30.3629 54.7522 34.4154 52.1762 39.5045 52.1762C44.5937 52.1762 48.6463 54.6584 49.7961 58.5129C49.9487 59.0719 50.0449 59.6454 50.0788 60.2239C50.0788 60.5061 50.0788 60.9386 50.192 61.2583H57.1472C57.7804 61.2651 58.4118 61.2021 59.032 61.0701C59.051 60.2448 58.9888 59.4196 58.8435 58.607C58.8435 57.8923 58.6739 57.2343 58.6739 56.7266C58.6739 56.219 58.6739 55.8618 58.5608 55.2976C58.1329 53.4836 58.2649 51.5829 58.9379 49.8448C59.8086 48.7773 61.0715 48.1006 62.4438 47.9644C62.8472 47.8778 63.2429 47.7649 63.6312 47.6259C66.2493 46.7352 68.0851 44.3781 68.3056 41.6277C68.0701 38.8801 66.2173 36.5363 63.5934 35.6671C63.2051 35.5281 62.8093 35.4151 62.4061 35.3285C61.0337 35.1921 59.771 34.5157 58.9 33.4484C58.2272 31.71 58.0952 29.8094 58.523 27.9954C58.523 27.4312 58.6363 26.9424 58.6363 26.5663C58.6363 26.1903 58.6363 25.7579 58.6363 25.3441L58.787 24.1407C58.787 23.7646 58.8248 23.3885 58.9 23.0127C58.919 22.7433 58.919 22.4731 58.9 22.204C58.9096 22.129 58.9096 22.0534 58.9 21.9784H58.3534H57.3734L56.1859 22.1288L54.9795 22.2606H53.8486H53.415C52.3745 22.3748 51.4377 21.6255 51.323 20.5868C51.2078 19.5486 51.9598 18.6141 53.0004 18.4997H53.3585C53.8486 18.4997 54.2067 18.4997 54.6401 18.4997L55.6016 18.387L57.0342 18.2177C57.5241 18.1896 58.0142 18.1896 58.5043 18.2177C59.0509 18.225 59.5918 18.3205 60.1064 18.4997C60.8547 18.7846 61.5069 19.273 61.9912 19.9099C62.3664 20.4718 62.5926 21.1183 62.651 21.7902C62.6907 22.2972 62.6907 22.8065 62.651 23.3133C62.651 23.7835 62.651 24.2348 62.5192 24.7047L62.3683 25.9083C62.3494 26.165 62.3494 26.4226 62.3683 26.6793C62.3552 27.3083 62.3043 27.9361 62.2174 28.5593C62.0835 29.506 62.0347 30.4625 62.0667 31.4177C62.4061 31.5304 62.9337 31.662 63.292 31.756C63.8536 31.8845 64.4077 32.0477 64.9505 32.245C68.9843 33.6769 71.7626 37.3825 72 41.6466C71.8173 45.9646 69.0296 49.7411 64.9505 51.1984C64.4077 51.3956 63.8536 51.5591 63.292 51.6874C62.9337 51.6874 62.3872 51.913 62.048 52.0257C62.0326 52.9813 62.0894 53.9367 62.2174 54.884C62.3043 55.5073 62.3552 56.1351 62.3683 56.7643C62.391 57.2243 62.44 57.6829 62.5192 58.1368C62.9603 59.8663 62.8075 61.694 62.0856 63.3265C61.2752 64.6992 59.051 65 57.279 65Z"/>
</svg>
