<svg width="100%" height="100%" viewBox="0 0 80 80" fill="none" xmlns="http://www.w3.org/2000/svg">
<path fill-rule="evenodd" clip-rule="evenodd" d="M40.6396 68C40.1278 67.9983 39.6388 67.8051 39.2856 67.4653L22.5469 51.4999C21.8177 50.8276 21.8177 49.7412 22.5469 49.0689C23.2783 48.3929 24.4692 48.3884 25.2067 49.0589C25.2103 49.0621 25.214 49.0657 25.2176 49.0689L40.508 63.6725L45.9246 57.9138L40.7338 61.1034C39.8731 61.6368 38.7041 61.4293 38.1224 60.6405C37.9116 60.3547 37.7992 60.0174 37.7998 59.6724C37.7998 59.6724 37.7998 32.0863 37.7998 13.7241C37.7998 12.7719 38.6418 12 39.6805 12C40.7193 12 41.5613 12.7719 41.5613 13.7241C41.5613 28.2415 41.5613 48.6034 41.5613 56.431L55.4036 47.9136C56.2775 47.3991 57.4409 47.6314 58.0026 48.4324C58.4455 49.0648 58.391 49.8871 57.8674 50.4655L42.0878 67.3964C41.7402 67.7595 41.2419 67.9723 40.7149 67.9827L40.6396 68Z"/>
</svg>
