<svg width="100%" height="100%" viewBox="0 0 80 80" fill="none" xmlns="http://www.w3.org/2000/svg">
<path fill-rule="evenodd" clip-rule="evenodd" d="M39.6613 12C40.1731 12.0017 40.6621 12.1949 41.0153 12.5347L57.754 28.5001C58.4832 29.1724 58.4832 30.2588 57.754 30.9311C57.0226 31.6071 55.8317 31.6116 55.0942 30.9411C55.0906 30.9379 55.0869 30.9343 55.0833 30.9311L39.7929 16.3275L34.3763 22.0862L39.5671 18.8966C40.4278 18.3632 41.5968 18.5707 42.1785 19.3595C42.3893 19.6453 42.5017 19.9826 42.5011 20.3276C42.5011 20.3276 42.5011 47.9137 42.5011 66.2759C42.5011 67.2281 41.6591 68 40.6204 68C39.5816 68 38.7396 67.2281 38.7396 66.2759C38.7396 51.7585 38.7396 31.3966 38.7396 23.569L24.8973 32.0864C24.0234 32.6009 22.86 32.3686 22.2983 31.5676C21.8554 30.9352 21.9099 30.1129 22.4335 29.5345L38.2131 12.6036C38.5607 12.2405 39.059 12.0277 39.586 12.0173L39.6613 12Z"/>
</svg>
