<svg width="100%" height="100%" viewBox="0 0 80 80" fill="none" xmlns="http://www.w3.org/2000/svg">
<path fill-rule="evenodd" clip-rule="evenodd" d="M22.267 46.0693C21.3439 46.0693 20.5947 45.3194 20.5947 44.3958C20.6098 33.6662 29.315 24.9818 40.0368 24.9967C49.0043 25.01 56.7967 31.1679 58.8868 39.8945C59.1593 40.7781 58.6661 41.7151 57.783 41.988C56.902 42.2606 55.9638 41.767 55.6913 40.8835C55.6714 40.8166 55.6546 40.7497 55.6428 40.6811C53.7618 32.0014 45.2069 26.491 36.5337 28.3735C29.0289 30.0016 23.7251 36.7135 23.8721 44.3958C23.8721 45.2944 23.1648 46.0325 22.267 46.0693Z"/>
<path fill-rule="evenodd" clip-rule="evenodd" d="M66.3279 53.0269H13.6723C12.7492 53.0269 12 52.2771 12 51.3535C12.0168 48.0737 13.8812 45.0833 16.8158 43.6225C17.6419 43.2124 18.6451 43.5489 19.0565 44.3756C19.4662 45.2022 19.1301 46.2062 18.304 46.6178C17.0483 47.2502 16.0883 48.3498 15.6285 49.6801H64.3883C63.659 47.5264 61.6443 46.074 59.3717 46.0657H22.267C21.3439 46.0657 20.5947 45.316 20.5947 44.3922C20.5947 43.4685 21.3439 42.7188 22.267 42.7188H59.3717C64.134 42.7289 67.9915 46.5877 68 51.3535C68 52.2771 67.2508 53.0269 66.3279 53.0269Z"/>
<path fill-rule="evenodd" clip-rule="evenodd" d="M40.0091 28.3145C39.0861 28.3145 38.3369 27.5647 38.3369 26.6411V20.3157C38.3369 19.3921 39.0861 18.6424 40.0091 18.6424C40.932 18.6424 41.6814 19.3921 41.6814 20.3157V26.6411C41.6814 27.5647 40.932 28.3145 40.0091 28.3145Z"/>
<path fill-rule="evenodd" clip-rule="evenodd" d="M40.0086 21.9914C39.0855 21.9914 38.3365 21.2416 38.3365 20.318C38.3365 19.3942 39.0855 18.6447 40.0086 18.6447C40.9317 18.6447 41.6807 17.8947 41.6807 16.9711C41.6807 16.0473 40.9317 15.2978 40.0086 15.2978C39.0855 15.2978 38.3365 16.0473 38.3365 16.9711C38.3198 17.1102 38.3198 17.2507 38.3365 17.3895C38.5689 18.2847 38.0321 19.1967 37.1375 19.4294C37.1358 19.4294 37.1341 19.4311 37.1327 19.4311C36.238 19.6603 35.3266 19.1215 35.0975 18.2261C35.0959 18.2213 35.094 18.2145 35.0925 18.2095C34.4372 15.5154 36.0875 12.7995 38.7796 12.1434C41.4718 11.4875 44.1856 13.1408 44.841 15.8332C45.4965 18.5274 43.8445 21.2435 41.1541 21.8992C40.7844 21.9897 40.4049 22.0363 40.0254 22.0415L40.0086 21.9914Z"/>
<path fill-rule="evenodd" clip-rule="evenodd" d="M40.0592 41.8052C37.8887 41.8052 36.1296 40.0446 36.1296 37.8726C36.1296 35.7007 37.8887 33.9403 40.0592 33.9403C42.2295 33.9403 43.9886 35.7007 43.9886 37.8726C43.9886 40.0446 42.2295 41.8052 40.0592 41.8052ZM40.0592 37.287C39.7448 37.2768 39.4841 37.5247 39.4739 37.8392C39.4739 37.8492 39.4739 37.861 39.4739 37.8726C39.4739 38.1957 39.7365 38.4583 40.0592 38.4583C40.3818 38.4583 40.6443 38.1957 40.6443 37.8726C40.6443 37.5497 40.3818 37.287 40.0592 37.287Z"/>
<path fill-rule="evenodd" clip-rule="evenodd" d="M48.7706 41.8052C46.6004 41.8052 44.8411 40.0446 44.8411 37.8726C44.8411 35.7007 46.6004 33.9403 48.7706 33.9403C50.9411 33.9403 52.7002 35.7007 52.7002 37.8726C52.7002 40.0446 50.9411 41.8052 48.7706 41.8052ZM48.7706 37.287C48.448 37.287 48.1854 37.5497 48.1854 37.8726C48.1854 38.1957 48.448 38.4583 48.7706 38.4583C49.0933 38.4583 49.3559 38.1957 49.3559 37.8726C49.3559 37.5497 49.0933 37.287 48.7706 37.287Z"/>
<path fill-rule="evenodd" clip-rule="evenodd" d="M31.3473 41.8052C29.1768 41.8052 27.4177 40.0446 27.4177 37.8726C27.4177 35.7007 29.1768 33.9403 31.3473 33.9403C33.5176 33.9403 35.2769 35.7007 35.2769 37.8726C35.2684 40.0412 33.5143 41.7967 31.3473 41.8052ZM31.3473 37.287C31.0246 37.2768 30.7552 37.533 30.7453 37.8558C30.7453 37.861 30.7453 37.8676 30.7453 37.8726C30.8004 38.2006 31.1116 38.4215 31.4393 38.3662C31.6917 38.3244 31.8907 38.1254 31.9325 37.8726C31.9325 37.5497 31.67 37.287 31.3473 37.287Z"/>
<path fill-rule="evenodd" clip-rule="evenodd" d="M40.059 64.2783C39.1361 64.2783 38.3867 63.5286 38.3867 62.605V51.3097C38.3867 50.3861 39.1361 49.6364 40.059 49.6364C40.982 49.6364 41.7312 50.3861 41.7312 51.3097V62.605C41.7312 63.5286 40.982 64.2783 40.059 64.2783Z"/>
<path fill-rule="evenodd" clip-rule="evenodd" d="M27.8695 61.145C27.6404 61.1432 27.4131 61.0963 27.2007 61.0111C26.358 60.6429 25.9699 59.664 26.3311 58.8187L29.8091 50.7029C30.0818 49.8195 31.0182 49.3259 31.8994 49.597C32.7822 49.8697 33.2771 50.8067 33.0046 51.6903C32.9712 51.8008 32.9261 51.9078 32.8691 52.0083L29.4079 60.1241C29.1453 60.7433 28.5401 61.145 27.8695 61.145Z"/>
<path fill-rule="evenodd" clip-rule="evenodd" d="M52.1321 61.145C51.4617 61.145 50.8565 60.7434 50.5939 60.1242L47.1159 52.0082C46.7228 51.1716 47.0807 50.1759 47.9167 49.7811C48.7529 49.3878 49.7494 49.7476 50.1423 50.5844C50.1608 50.6227 50.1776 50.6629 50.1927 50.7031L53.6538 58.8189C54.015 59.664 53.627 60.6431 52.7843 61.0111C52.577 61.0949 52.3561 61.1417 52.1321 61.145Z"/>
</svg>
