<svg width="100%" height="100%" viewBox="0 0 80 80" fill="none" xmlns="http://www.w3.org/2000/svg">
<path fill-rule="evenodd" clip-rule="evenodd" d="M36.7461 43.3681C35.6838 43.4852 34.7274 42.7177 34.6101 41.6541C34.4927 40.5905 35.2605 39.6335 36.3226 39.5166C38.4106 39.0347 40.3212 37.9811 41.8455 36.4738C42.5653 35.6057 43.2081 34.6782 43.77 33.7008C44.6224 32.2255 45.6346 30.8496 46.7911 29.5989C48.2808 27.9759 50.205 26.8131 52.3332 26.2482C53.738 25.8843 55.0486 25.228 56.182 24.3225C57.4251 22.6121 58.2505 20.6329 58.5873 18.5453C52.3776 20.7725 45.6 20.847 39.3438 18.757C37.3158 17.9818 35.1333 17.6981 32.9744 17.929C29.1257 18.8534 28.0672 20.1627 26.9703 23.5906C26.649 24.5981 25.5732 25.1573 24.565 24.8424C23.5509 24.5283 22.9811 23.4507 23.295 22.4351C24.182 18.0952 27.7054 14.7855 32.0893 14.1737C34.8679 13.7745 37.7044 14.0657 40.3446 15.021C46.0234 17.0066 52.2217 16.9113 57.837 14.7513C59.0743 14.2817 60.4693 14.5253 61.4739 15.3868C62.436 16.2278 62.8574 17.5305 62.5707 18.7763C61.8779 21.7803 60.6462 25.6704 58.722 27.288C57.2344 28.5249 55.5026 29.4368 53.6416 29.9649C52.1312 30.3361 50.7612 31.1388 49.697 32.2758C48.7077 33.3383 47.8496 34.515 47.1375 35.7806C46.4601 36.9284 45.6886 38.0172 44.8283 39.0351C42.7462 41.1996 40.0656 42.6946 37.131 43.3295C37.0039 43.3579 36.8749 43.371 36.7461 43.3681Z"/>
<path fill-rule="evenodd" clip-rule="evenodd" d="M42.9814 69.9998C42.2558 69.9977 41.5939 69.5882 41.2686 68.9407L18.1766 22.723C17.7322 21.7564 18.1556 20.613 19.1215 20.1691C20.0452 19.7443 21.1402 20.1122 21.6212 21.009L44.7133 67.2268C45.1867 68.1787 44.7982 69.3335 43.8473 69.8071C43.578 69.9381 43.2816 70.0041 42.9814 69.9998Z"/>
</svg>
