<svg width="100%" height="100%" viewBox="0 0 80 80" fill="none" xmlns="http://www.w3.org/2000/svg">
<path fill-rule="evenodd" clip-rule="evenodd" d="M66.0877 60.1533H13.9113C12.8561 60.1533 12 59.2955 12 58.2387V23.9848C12 22.9278 12.8561 22.0702 13.9113 22.0702C14.9664 22.0702 15.8225 22.9278 15.8225 23.9848V56.3239H64.1766V25.8994H19.3773C18.3222 25.8994 17.4661 25.0416 17.4661 23.9848C17.4661 22.9278 18.3222 22.0702 19.3773 22.0702H66.0877C67.1428 22.0702 67.9991 22.9278 67.9991 23.9848V58.2387C67.9991 59.2955 67.1428 60.1533 66.0877 60.1533Z"/>
<path fill-rule="evenodd" clip-rule="evenodd" d="M53.0148 31.0283C51.9597 31.0283 51.1035 30.1707 51.1035 29.1137V21.9146C51.1035 20.8576 51.9597 20 53.0148 20C54.0699 20 54.926 20.8576 54.926 21.9146V29.1137C54.926 30.1707 54.0699 31.0283 53.0148 31.0283Z"/>
<path fill-rule="evenodd" clip-rule="evenodd" d="M26.9269 31.0283C25.8718 31.0283 25.0156 30.1707 25.0156 29.1137V21.9146C25.0156 20.8576 25.8718 20 26.9269 20C27.982 20 28.8381 20.8576 28.8381 21.9146V29.1137C28.8381 30.1707 27.982 31.0283 26.9269 31.0283Z"/>
<path fill-rule="evenodd" clip-rule="evenodd" d="M39.9623 31.0283C38.9072 31.0283 38.051 30.1707 38.051 29.1137V21.9146C38.051 20.8576 38.9072 20 39.9623 20C41.0174 20 41.8735 20.8576 41.8735 21.9146V29.1137C41.8735 30.1707 41.0174 31.0283 39.9623 31.0283Z"/>
<path fill-rule="evenodd" clip-rule="evenodd" d="M66.0888 41.6001H39.962C38.9071 41.6001 38.051 40.7422 38.051 39.6852C38.051 38.6282 38.9071 37.7704 39.962 37.7704H66.0888C67.1439 37.7704 68 38.6282 68 39.6852C68 40.7422 67.1439 41.6001 66.0888 41.6001Z"/>
<path fill-rule="evenodd" clip-rule="evenodd" d="M66.0888 48.6997H39.962C38.9071 48.6997 38.051 47.8419 38.051 46.7848C38.051 45.7278 38.9071 44.8702 39.962 44.8702H66.0888C67.1439 44.8702 68 45.7278 68 46.7848C68 47.8419 67.1439 48.6997 66.0888 48.6997Z"/>
<path fill-rule="evenodd" clip-rule="evenodd" d="M19.3776 52.818H19.244C18.2406 52.7472 17.4647 51.9104 17.4666 50.9031C17.4666 47.9355 19.7026 46.7485 21.9197 46.1931C21.3635 45.182 20.9697 44.0909 20.7539 42.9573C19.9397 40.5657 20.3086 37.9292 21.7477 35.8538C24.1557 33.0889 28.3452 32.8016 31.1048 35.2143C31.3325 35.4132 31.5445 35.6259 31.7434 35.8538C33.1996 37.9216 33.5763 40.5638 32.7564 42.9573C32.5134 44.0219 32.1199 45.0463 31.5905 46.0017C34.6485 46.6528 36.2539 48.2034 36.3686 50.6736C36.5633 51.7304 35.8659 52.7472 34.8108 52.9423C33.7559 53.1377 32.741 52.439 32.546 51.382C32.5269 51.2039 32.5269 51.0239 32.546 50.8458C32.546 50.5588 32.546 49.8694 29.7365 49.6013H29.2013C28.5515 49.6013 27.8634 49.4672 27.1754 49.3523C26.5429 49.475 25.9064 49.5648 25.2644 49.6204C22.8943 49.8694 21.5757 50.1374 21.4419 50.8077C21.4516 50.8977 21.4516 50.9856 21.4419 51.0756H20.6772L21.4227 51.2288C21.2566 52.211 20.3678 52.9023 19.3776 52.818ZM26.7934 37.5003C26.0154 37.4871 25.2682 37.7992 24.7293 38.3619C24.1079 39.5454 24.0105 40.9333 24.4616 42.1914C24.8629 43.8763 25.2452 44.8528 26.0862 45.1974C26.3882 45.3317 26.7016 45.433 27.0226 45.5036C27.5577 45.2741 28.4753 44.5655 29.0483 42.1914C29.4996 40.9333 29.402 39.5454 28.7809 38.3619C28.2822 37.8335 27.596 37.5233 26.8696 37.5003H26.7934Z"/>
</svg>
