<svg width="100%" height="100%" viewBox="0 0 80 80" fill="none" xmlns="http://www.w3.org/2000/svg">
<path fill-rule="evenodd" clip-rule="evenodd" d="M39.9872 67.9433C34.7066 67.9501 29.5332 66.4563 25.0694 63.6356C24.1601 63.1521 23.8152 62.0228 24.2987 61.1136C24.7823 60.2045 25.9116 59.8595 26.8209 60.3432C26.8991 60.3847 26.9743 60.432 27.0459 60.4844C38.3628 67.6378 53.3368 64.2626 60.4898 52.9453C67.6431 41.6284 64.2679 26.655 52.9508 19.5016C41.6335 12.3482 26.6605 15.7234 19.5069 27.0405C13.9269 35.8684 14.6279 47.2779 21.2465 55.3562C21.9006 56.1543 21.7836 57.3317 20.9855 57.9855C20.1875 58.6396 19.0103 58.5227 18.3561 57.7244C8.55189 45.7866 10.2817 28.1608 22.2195 18.3565C34.1576 8.55215 51.7835 10.2817 61.5883 22.2197C71.3911 34.1578 69.6626 51.7835 57.7245 61.5878C52.7252 65.694 46.4558 67.9398 39.9872 67.9433Z"/>
<path fill-rule="evenodd" clip-rule="evenodd" d="M17.311 41.8389H13.8983C12.8683 41.8389 12.0334 41.004 12.0334 39.9739C12.0334 38.9441 12.8683 38.1092 13.8983 38.1092H17.311C18.3408 38.1092 19.1756 38.9441 19.1756 39.9739C19.1756 41.004 18.3408 41.8389 17.311 41.8389Z"/>
<path fill-rule="evenodd" clip-rule="evenodd" d="M66.1349 41.8389H62.7223C61.6931 41.8389 60.8577 41.004 60.8577 39.9739C60.8577 38.9441 61.6931 38.1092 62.7223 38.1092H66.1349C67.1643 38.1092 67.9998 38.9441 67.9998 39.9739C67.9998 41.004 67.1643 41.8389 66.1349 41.8389Z"/>
<path fill-rule="evenodd" clip-rule="evenodd" d="M40.0045 19.146C38.9747 19.146 38.1396 18.3111 38.1396 17.2811V13.8686C38.1396 12.8388 38.9747 12.0039 40.0045 12.0039C41.0345 12.0039 41.8694 12.8388 41.8694 13.8686V17.2811C41.8694 18.3111 41.0345 19.146 40.0045 19.146Z"/>
<path fill-rule="evenodd" clip-rule="evenodd" d="M40.0045 67.9434C38.9747 67.9434 38.1396 67.1085 38.1396 66.0784V62.666C38.1396 61.6361 38.9747 60.8013 40.0045 60.8013C41.0345 60.8013 41.8694 61.6361 41.8694 62.666V66.0784C41.8694 67.1085 41.0345 67.9434 40.0045 67.9434Z"/>
<path fill-rule="evenodd" clip-rule="evenodd" d="M52.4579 54.2216C51.9619 54.2245 51.4865 54.0302 51.1341 53.6809L26.109 28.6372C25.4393 27.855 25.5302 26.6777 26.3126 26.0079C27.0107 25.4101 28.0403 25.4101 28.7384 26.0079L53.7819 51.033C54.5129 51.7582 54.5185 52.9388 53.793 53.6701C53.7893 53.6736 53.7856 53.6774 53.7819 53.6809C53.4295 54.0302 52.9541 54.2245 52.4579 54.2216Z"/>
<path fill-rule="evenodd" clip-rule="evenodd" d="M39.9403 41.7075C38.9105 41.7134 38.0707 40.8835 38.0647 39.8537C38.0618 39.3527 38.2605 38.8716 38.6165 38.5188L48.5182 28.6356C49.2996 27.9657 50.4782 28.0568 51.1476 28.839C51.7462 29.5373 51.7462 30.5667 51.1476 31.2649L41.2458 41.1669C40.8983 41.5113 40.4295 41.7056 39.9403 41.7075Z"/>
</svg>
