<svg width="100%" height="100%" viewBox="0 0 80 80" fill="none" xmlns="http://www.w3.org/2000/svg">
<path fill-rule="evenodd" clip-rule="evenodd" d="M36.0074 54.3245C32.8736 54.2445 29.7874 53.5281 26.9376 52.2182C24.0784 51.0083 21.4188 49.3693 19.0495 47.3598C11.8672 41.3025 12.911 39.6727 13.2638 39.1039C23.3817 24.3216 43.5471 20.555 58.3028 30.6913C61.5963 32.9542 64.4428 35.8061 66.7003 39.1039C67.1606 39.842 67.9434 41.0718 61.5745 46.7911C58.4854 49.3925 54.9909 51.4695 51.2311 52.9408C50.4422 53.2436 49.5583 52.8516 49.2513 52.0645C48.9429 51.2743 49.3327 50.3824 50.123 50.0735C50.1291 50.0703 50.1352 50.069 50.1413 50.0658C53.5439 48.7452 56.7113 46.8819 59.5181 44.5465C61.0159 43.1966 62.4109 41.7376 63.6924 40.1801C54.1148 27.0536 35.7265 24.1909 22.6237 33.786C20.1806 35.5756 18.0273 37.7325 16.2409 40.1801C17.6989 41.9251 19.301 43.5456 21.0291 45.0231C23.167 46.8372 25.5686 48.3147 28.1499 49.4047C34.8716 52.2952 40.1203 51.8338 43.7112 48.021C45.7231 45.7564 46.736 42.7737 46.5197 39.7497C46.4138 38.901 47.0153 38.1262 47.8625 38.0201C48.7095 37.914 49.4832 38.5166 49.589 39.3654C49.9082 42.3926 49.1945 45.4381 47.5633 48.0056C47.1243 48.7682 46.6101 49.4846 46.0285 50.1426C43.4381 52.907 39.7903 54.429 36.0074 54.3245Z"/>
<path fill-rule="evenodd" clip-rule="evenodd" d="M39.9813 49.481C34.7174 49.481 30.4512 45.2068 30.4512 39.9336C30.4512 34.6601 34.7174 30.3861 39.9813 30.3861C45.2452 30.3861 49.5114 34.6601 49.5114 39.9336C49.5039 45.2022 45.2406 49.4716 39.9813 49.481ZM39.9813 33.461C36.4132 33.461 33.5205 36.3589 33.5205 39.9336C33.5205 43.508 36.4132 46.406 39.9813 46.406C43.5494 46.406 46.4421 43.508 46.4421 39.9336C46.4345 36.3621 43.5463 33.4701 39.9813 33.461Z"/>
</svg>
