<svg width="100%" height="100%" viewBox="0 0 80 80" fill="none" xmlns="http://www.w3.org/2000/svg">
<path fill-rule="evenodd" clip-rule="evenodd" d="M66.1829 58.8772H13.8439C12.8282 58.879 12.0018 58.0575 12 57.043C12 56.7471 12.0698 56.4567 12.206 56.1939L18.6473 43.7517C18.9637 43.1415 19.5968 42.7573 20.2852 42.7591H57.9014V19.6758H22.1255V35.7019L30.6463 29.7288C31.2167 29.3301 31.9656 29.286 32.5784 29.6186L38.7068 32.945L46.0682 27.5418L45.2216 26.5861C44.5517 25.8216 44.629 24.662 45.3947 23.9929C45.6668 23.7539 46.0037 23.6015 46.3625 23.5536L51.7363 22.837C52.7429 22.6936 53.6742 23.3919 53.8177 24.3972C53.8435 24.5736 53.8434 24.7538 53.8158 24.9319L52.8223 30.0596C52.7411 31.0741 51.8504 31.8313 50.8345 31.7505C49.8188 31.6695 49.0604 30.7801 49.1416 29.7656L39.9399 36.5105C39.3674 36.937 38.6001 36.9938 37.9707 36.6576L31.8055 33.3125L21.3155 40.664C20.4802 41.243 19.3336 41.0352 18.754 40.2009C18.5422 39.8938 18.4263 39.5302 18.4263 39.1569V17.8378C18.4263 16.8235 19.2508 16 20.2667 16H59.7234C60.7391 16 61.5637 16.8235 61.5637 17.8378V44.5969C61.5637 45.6116 60.7391 46.4348 59.7234 46.4348H21.4077L16.862 55.2015H63.2016C62.5205 53.8599 61.6556 52.1873 60.8459 50.625C60.3785 49.721 60.7318 48.6109 61.6373 48.1441C62.5428 47.6771 63.6543 48.0301 64.1217 48.9344C65.9622 52.3344 67.8024 56.2856 67.8024 56.2856C68.2606 57.1918 67.8945 58.2964 66.9872 58.754C66.7258 58.8845 66.4386 58.9525 66.1462 58.9506L66.1829 58.8772Z"/>
</svg>
