<svg width="100%" height="100%" viewBox="0 0 80 80" fill="none" xmlns="http://www.w3.org/2000/svg">
<path fill-rule="evenodd" clip-rule="evenodd" d="M23.7602 62.3124C23.2738 62.3161 22.8074 62.1238 22.462 61.7816C21.7451 61.0695 21.7395 59.9107 22.4509 59.1929C22.4545 59.1893 22.4581 59.1857 22.462 59.182C23.4311 58.2117 24.4735 57.3514 25.4792 56.5093C26.4851 55.6671 27.1068 55.1545 27.8749 54.4223C29.305 53.258 30.1754 51.5426 30.2705 49.6992C30.0695 47.3194 27.7286 45.7269 25.4427 44.2073L25.1684 44.0058C23.1202 42.6328 21.0171 40.912 20.8892 38.5139C20.8416 37.1482 21.4706 35.8448 22.5715 35.0356C24.3051 33.7506 26.2657 32.806 28.3504 32.2531L29.6489 31.8138C30.8193 31.3928 33.3061 30.4957 33.5806 29.6901C33.5806 29.4888 33.4892 29.0861 33.1782 28.6285C31.7793 26.6899 29.9999 25.0569 27.948 23.8321C27.0136 23.4477 26.5691 22.3769 26.9551 21.4414C27.339 20.5077 28.4089 20.0611 29.3415 20.4472C29.497 20.5113 29.6452 20.5972 29.7769 20.7017C32.2658 22.1881 34.4255 24.1708 36.1225 26.5231C37.1009 27.7113 37.4427 29.3022 37.037 30.7886C36.2322 33.3332 33.1783 34.45 30.9471 35.2188L29.466 35.7314C27.8291 36.1561 26.2822 36.8699 24.8942 37.8365C24.6016 38.0745 24.4919 38.2576 24.51 38.3126C24.5284 38.3674 24.7294 39.2645 27.18 40.8938L27.4544 41.0951C30.0145 42.816 33.5441 45.1774 33.8915 49.3331C33.9299 52.2913 32.6332 55.1106 30.3619 57.0035C29.5392 57.7906 28.6612 58.5228 27.7835 59.2552C26.8216 60.026 25.8998 60.8443 25.022 61.7082C24.6986 62.0691 24.2448 62.2868 23.7602 62.3124Z"/>
<path fill-rule="evenodd" clip-rule="evenodd" d="M40.0012 67.9882C24.5687 68.0212 12.0329 55.5232 12.0001 40.0745C11.9726 26.2567 22.0269 14.4872 35.6672 12.373C43.8232 11.1465 53.1861 12.8124 55.7829 19.3296C56.0773 20.296 55.5304 21.3193 54.5648 21.614C53.6981 21.8776 52.7712 21.4658 52.3815 20.6475C51.0466 17.2424 46.1457 15.7231 40.879 15.6681C41.8683 17.3542 43.0387 18.9267 44.3719 20.3546L45.3043 21.4347C46.3467 22.6613 48.523 25.2243 49.7299 25.4072C51.0812 25.3232 52.4071 24.9934 53.6433 24.4369L54.1004 24.254C55.4243 23.8364 56.6625 23.1849 57.7579 22.3316C58.3669 21.8667 59.1423 21.6744 59.8975 21.8008C61.397 22.0571 62.3478 23.4667 63.0978 24.6201C66.7553 30.478 68.5839 35.1098 67.8341 42.9265C66.3382 56.4569 55.3951 66.9813 41.8298 67.9334C41.2813 67.97 40.6412 67.9882 40.0012 67.9882ZM36.8009 15.906H36.2157C22.9668 18.057 13.9658 30.5512 16.1147 43.8164C18.1208 56.1969 29.199 65.0226 41.7019 64.1988C53.4751 63.3365 62.9441 54.165 64.1948 42.4141C64.8716 35.6406 63.3904 31.8876 60.062 26.5241C59.934 26.3591 59.6414 25.9199 59.3855 25.6086C58.1437 26.4746 56.7813 27.1517 55.3441 27.6223L54.9053 27.7871C53.1075 28.6456 51.1361 29.0703 49.1447 29.0319C46.5664 28.6474 44.189 25.8465 42.4517 23.7963C42.1408 23.4301 41.8663 23.1006 41.6104 22.8261C39.683 20.7666 38.0683 18.4361 36.8192 15.906H36.8009Z"/>
<path fill-rule="evenodd" clip-rule="evenodd" d="M45.4889 57.9355C44.7117 57.9339 43.9509 57.7124 43.2943 57.295C40.2223 55.3178 40.3136 49.8441 40.4052 48.233L40.7343 42.8509C40.7306 41.2766 41.0944 39.7225 41.795 38.311C43.2032 35.8579 46.1106 34.3752 50.4263 33.9173C52.0996 33.6537 53.8095 33.7928 55.4187 34.3202C58.0155 35.4241 59.7163 37.9594 59.7528 40.7824C59.7106 43.1749 58.9463 45.498 57.5583 47.4461C55.8009 50.5874 52.6446 52.6909 49.073 53.1027C48.0637 53.2143 47.1548 52.4839 47.0433 51.4734C46.9316 50.4629 47.6612 49.553 48.6709 49.4414C51.136 49.1338 53.2973 47.6456 54.4677 45.4505C55.4555 44.1086 56.0203 42.5032 56.0953 40.8374C56.1137 39.4844 55.322 38.2505 54.0838 37.707C53.0194 37.4047 51.9021 37.3425 50.8105 37.5238C47.8114 37.8533 45.7449 38.7504 44.977 40.0868C44.5745 41.0223 44.3752 42.0326 44.3915 43.0525L44.0624 48.4162C43.8797 51.3818 44.5379 53.7069 45.2695 54.1646C45.5254 54.3293 46.0558 54.1645 46.3667 53.9448C47.2518 53.4688 48.3527 53.7966 48.8355 54.6772C49.3164 55.565 48.9871 56.6762 48.1004 57.1595C48.0948 57.1613 48.0912 57.165 48.0857 57.1668C47.2976 57.6354 46.4051 57.901 45.4889 57.9355Z"/>
</svg>
