<svg width="100%" height="100%" viewBox="0 0 80 80" fill="none" xmlns="http://www.w3.org/2000/svg">
<circle cx="40" cy="40" r="39.5" fill="#FA0F00" stroke="#ECECEC"/>
<path d="M13.3333 21.6635C13.3333 17.0666 17.0667 13.3333 21.6635 13.3333H58.3354C62.9323 13.3333 66.6656 17.0666 66.6656 21.6635V58.3353C66.6656 62.9322 62.9323 66.6655 58.3354 66.6655H21.6635C17.0667 66.6655 13.3333 62.9322 13.3333 58.3353V21.6635Z" fill="#FA0F00"/>
<path d="M21.1431 16.6665H55.5236C59.8333 16.6665 63.3333 20.1666 63.3333 24.4762V58.8568C63.3333 63.1664 59.8333 66.6665 55.5236 66.6665H21.1431C16.8334 66.6665 13.3333 63.1664 13.3333 58.8568V24.4762C13.3333 20.1666 16.8334 16.6665 21.1431 16.6665Z" fill="#FA0F00"/>
<path d="M44.2138 25.3862L57.0346 54.6133H47.9357L40.0107 36.5331L35.1784 47.5518H40.8419L43.9357 54.6133H22.9648L35.7857 25.3862H44.2138Z" fill="white"/>
</svg>
