<svg width="100%" height="100%" viewBox="0 0 80 80" fill="none" xmlns="http://www.w3.org/2000/svg">
<circle cx="40" cy="40" r="39.5" fill="white" stroke="#ECECEC"/>
<path fill-rule="evenodd" clip-rule="evenodd" d="M39.7849 49.2254C38.2282 49.2254 36.779 48.7861 35.5444 48.0722V53.0694C36.8864 53.5087 38.3356 53.7831 39.7849 53.7831C47.085 53.7831 53.4726 48.237 53.4726 40.1647V3.59244C52.0233 3.04332 50.4667 2.32948 48.9637 2V40.2196C48.9637 45.8208 44.6158 49.2254 39.7849 49.2254ZM39.8922 31.2687C41.4489 31.2687 42.5761 31.708 43.8644 32.4219V27.3699C42.5224 26.8757 41.0732 26.6561 39.5702 26.6561C32.2701 26.6561 26.4192 32.8063 26.4192 40.2745V76.6272C27.8685 77.1763 29.4252 77.6705 30.9818 78V40.2196C30.9818 35.3323 35.0613 31.2687 39.8922 31.2687ZM58.6257 40.1647C58.6794 52.4104 49.9299 59.2746 39.7849 59.2746C38.3356 59.2746 36.8864 58.9451 35.5444 58.6156V60.4827C36.94 60.8122 38.3356 60.9769 39.7849 60.9769C50.9498 60.9769 60.2896 52.7399 60.236 40.2196C60.236 39.9451 60.236 6.94225 60.236 6.94225C59.5919 6.50293 59.2698 6.06362 58.6257 5.67923V40.1647ZM39.8386 21.2197C41.3416 21.2197 42.5761 21.2197 43.8644 21.659V19.9565C42.4688 19.627 41.0732 19.4624 39.5702 19.4624C28.4053 19.4624 19.7096 28.0288 19.7096 39.5056V73.1676C20.3537 73.552 20.6221 73.9364 21.3199 74.3208V40.2196C21.3199 29.9508 28.9958 21.2746 39.8386 21.2197ZM65.3353 40.2196C65.55 55.4855 54.5462 66.1387 39.8386 66.1387C38.3893 66.1387 36.94 65.9192 35.5981 65.6995V67.5665C36.9937 67.7861 38.3893 67.8959 39.8386 67.8959C54.7609 67.8959 67.1067 57.3526 66.9993 40.2745C66.9993 40.1098 66.9993 12.5433 66.9993 12.5433C66.3552 11.8844 66.0331 11.3352 65.389 10.6762V40.2196H65.3353ZM13.0536 67.6763C13.6977 68.3352 13.9662 68.9943 14.6103 69.5434V40C14.664 24.3497 24.9163 14.5201 38.7113 14.5201C40.1607 14.5201 41.932 14.6301 43.3276 14.9047V12.9277C41.932 12.708 40.4827 12.5982 39.0334 12.5982C24.1112 12.5982 13 23.4162 13 40.0549L13.0536 67.6763Z" fill="#21301F"/>
</svg>
