<svg width="100%" height="100%" viewBox="0 0 80 80" fill="none" xmlns="http://www.w3.org/2000/svg">
<circle cx="40" cy="40" r="39.5" fill="white" stroke="#ECECEC"/>
<path d="M62.9259 60.924C37.0697 73.2294 21.023 62.9338 10.751 56.6805C10.1154 56.2864 9.03508 56.7727 9.97242 57.8493C13.3945 61.9987 24.6095 71.9999 39.2483 71.9999C53.8972 71.9999 62.6119 64.0068 63.7021 62.6125C64.7849 61.2299 64.02 60.4673 62.9257 60.924H62.9259ZM70.1876 56.9137C69.4932 56.0095 65.9655 55.841 63.7453 56.1137C61.5217 56.3786 58.1842 57.7375 58.4743 58.5535C58.6232 58.8592 58.9272 58.7221 60.4547 58.5847C61.9864 58.4319 66.2773 57.8904 67.1714 59.0592C68.0696 60.2361 65.8028 65.8424 65.3888 66.7466C64.9888 67.6508 65.5416 67.8839 66.293 67.2817C67.034 66.6798 68.3755 65.1208 69.2758 62.9147C70.1699 60.6965 70.7151 57.6022 70.1873 56.9137H70.1876Z" fill="#FF9900"/>
<path fill-rule="evenodd" clip-rule="evenodd" d="M45.5406 35.8161C45.5406 39.0449 45.6221 41.7375 43.9902 44.6048C42.673 46.9363 40.5865 48.3699 38.2553 48.3699C35.073 48.3699 33.2197 45.9454 33.2197 42.367C33.2197 35.3031 39.5489 34.021 45.5406 34.021V35.8161ZM53.898 56.0166C53.3501 56.506 52.5575 56.5412 51.9398 56.2146C49.189 53.9301 48.6993 52.8694 47.184 50.6896C42.6381 55.3289 39.4209 56.7159 33.5229 56.7159C26.5524 56.7159 21.1204 52.4146 21.1204 43.8006C21.1204 37.0751 24.7691 32.494 29.9558 30.2562C34.4553 28.2744 40.7381 27.9247 45.5406 27.3771V26.3046C45.5406 24.3346 45.6919 22.0034 44.5381 20.3016C43.5238 18.7746 41.589 18.1451 39.887 18.1451C36.7283 18.1451 33.9074 19.7653 33.2197 23.1223C33.0796 23.8685 32.532 24.6029 31.786 24.6378L23.743 23.7754C23.0671 23.6235 22.3212 23.0758 22.5076 22.0383C24.361 12.2938 33.1612 9.3562 41.0408 9.3562C45.074 9.3562 50.3425 10.4287 53.5248 13.4827C57.558 17.2476 57.1732 22.2714 57.1732 27.7382V40.6535C57.1732 44.535 58.7818 46.2368 60.2971 48.335C60.8332 49.081 60.9499 49.9788 60.2737 50.538C58.5835 51.9483 55.5762 54.5711 53.9211 56.0399L53.8978 56.0166" fill="black"/>
<path d="M62.9259 60.924C37.0697 73.2294 21.023 62.9338 10.751 56.6805C10.1154 56.2864 9.03508 56.7727 9.97242 57.8493C13.3945 61.9987 24.6095 71.9999 39.2483 71.9999C53.8972 71.9999 62.6119 64.0068 63.7021 62.6125C64.7849 61.2299 64.02 60.4673 62.9257 60.924H62.9259ZM70.1876 56.9137C69.4932 56.0095 65.9655 55.841 63.7453 56.1137C61.5217 56.3786 58.1842 57.7375 58.4743 58.5535C58.6232 58.8592 58.9272 58.7221 60.4547 58.5847C61.9864 58.4319 66.2773 57.8904 67.1714 59.0592C68.0696 60.2361 65.8028 65.8424 65.3888 66.7466C64.9888 67.6508 65.5416 67.8839 66.293 67.2817C67.034 66.6798 68.3755 65.1208 69.2758 62.9147C70.1699 60.6965 70.7151 57.6022 70.1873 56.9137H70.1876Z" fill="#FF9900"/>
<path fill-rule="evenodd" clip-rule="evenodd" d="M45.5406 35.8161C45.5406 39.0449 45.6221 41.7375 43.9902 44.6048C42.673 46.9363 40.5865 48.3699 38.2553 48.3699C35.073 48.3699 33.2197 45.9454 33.2197 42.367C33.2197 35.3031 39.5489 34.021 45.5406 34.021V35.8161ZM53.898 56.0166C53.3501 56.506 52.5575 56.5412 51.9398 56.2146C49.189 53.9301 48.6993 52.8694 47.184 50.6896C42.6381 55.3289 39.4209 56.7159 33.5229 56.7159C26.5524 56.7159 21.1204 52.4146 21.1204 43.8006C21.1204 37.0751 24.7691 32.494 29.9558 30.2562C34.4553 28.2744 40.7381 27.9247 45.5406 27.3771V26.3046C45.5406 24.3346 45.6919 22.0034 44.5381 20.3016C43.5238 18.7746 41.589 18.1451 39.887 18.1451C36.7283 18.1451 33.9074 19.7653 33.2197 23.1223C33.0796 23.8685 32.532 24.6029 31.786 24.6378L23.743 23.7754C23.0671 23.6235 22.3212 23.0758 22.5076 22.0383C24.361 12.2938 33.1612 9.3562 41.0408 9.3562C45.074 9.3562 50.3425 10.4287 53.5248 13.4827C57.558 17.2476 57.1732 22.2714 57.1732 27.7382V40.6535C57.1732 44.535 58.7818 46.2368 60.2971 48.335C60.8332 49.081 60.9499 49.9788 60.2737 50.538C58.5835 51.9483 55.5762 54.5711 53.9211 56.0399L53.8978 56.0166" fill="black"/>
</svg>
