<svg width="100%" height="100%" viewBox="0 0 80 80" fill="none" xmlns="http://www.w3.org/2000/svg">
<circle cx="40" cy="40" r="39.5" fill="white" stroke="#ECECEC"/>
<path fill-rule="evenodd" clip-rule="evenodd" d="M39.0953 71L25.8135 66.2909V47.0589L39.0953 51.5289V71ZM41.5153 71L54.7971 66.2909V47.0589L41.5153 51.5325V71ZM27.1817 45.6149L40.5845 41.8751L53.0491 45.8485L40.5845 50.0297L27.1817 45.6149ZM23.2874 44.1433L10 39.4194V20.1598L23.2818 24.6298L23.2874 44.1433ZM25.7204 44.1433L39.0022 39.4341V20.1598L25.7167 24.6519L25.7204 44.1433ZM11.3868 18.7581L24.7897 15L37.2543 18.9733L24.7897 23.1545L11.3868 18.7581ZM54.2982 44.1433L41.0164 39.4341V20.1598L54.2982 24.6298V44.1433ZM56.7182 44.1433L70 39.4341V20.1598L56.7182 24.6298V44.1433ZM42.3846 18.7581L55.7874 15.0184L68.252 18.9917L55.7874 23.1729L42.3846 18.7581Z" fill="#FF9900"/>
</svg>
