<svg width="100%" height="100%" viewBox="0 0 80 80" fill="none" xmlns="http://www.w3.org/2000/svg">
<circle cx="40" cy="40" r="39.5" fill="white" stroke="#ECECEC"/>
<path d="M35.2498 18C34.9998 17.75 34.7498 17.5 34.4998 17.5C34.2498 17.5 34.1248 17.625 33.8748 17.75C31.7498 19.375 28.8748 26.5 26.4998 35.875H28.6248C32.7498 35.875 37.1248 36 41.3748 36C40.2498 31.75 39.2498 28 38.2498 25.125C36.7498 20.75 35.8748 18.875 35.2498 18Z" fill="#00A7CF"/>
<path d="M40 0C17.875 0 0 17.875 0 40C0 62.125 17.875 80 40 80C62.125 80 80 62.125 80 40C80 17.875 62.125 0 40 0ZM68.75 40.75L68.625 40.875H68.5H68.375C68.125 41 67.75 41.125 67.375 41.125H48.5C48.625 41.75 48.875 42.5 49 43.25C50 47.75 52.75 59.625 55.75 59.625H55.875C58.125 59.625 59.375 56.375 61.875 49.125V49C62.25 47.875 62.75 46.5 63.25 45.125L63.375 44.75C63.5 44.25 64 44 64.5 44.125C65 44.25 65.25 44.75 65.125 45.25L65 45.75C64.75 46.625 64.5 47.75 64.125 49.125C62.625 55.5 60.25 65 54.375 65C50.5 65 48.25 58.875 47.25 56.25C45.375 51.375 44 46.125 42.75 41.125H25.25L21.625 52.75C21.125 53.625 20 53.875 19.125 53.375C18.625 53 18.25 52.5 18.25 51.875V51.75L18.5 50.5C19 47.5 19.625 44.375 20.25 41.25H12.875C11.5 41 10.5 39.875 10.5 38.5C10.5 37.125 11.5 36 12.75 35.75C13 35.75 13.375 35.75 13.625 35.75H14C16.375 35.75 18.75 35.875 21.5 35.875C25.375 20.25 29.75 12.375 34.75 12.25C40 12.25 44 24.375 47.125 36.125C53.625 36.25 60.5 36.5 67.125 36.875H67.375C67.5 36.875 67.625 36.875 67.75 36.875C68.875 37.125 69.625 38.25 69.375 39.375C69.375 40 69.125 40.375 68.75 40.75Z" fill="#00A7CF"/>
<circle cx="40" cy="40" r="39.5" stroke="#ECECEC"/>
</svg>
