<svg width="100%" height="100%" viewBox="0 0 80 80" fill="none" xmlns="http://www.w3.org/2000/svg">
<circle cx="40" cy="40" r="39.5" fill="white" stroke="#ECECEC"/>
<g clip-path="url(#clip0_8870_32769)">
<path d="M43.7437 28.3711C37.0976 28.3711 32.0696 33.5429 32.0696 39.9499C32.0696 46.7041 37.3095 51.5286 43.7437 51.5286C50.178 51.5286 55.3987 46.7041 55.3987 39.9499C55.3987 33.5429 50.3899 28.3711 43.7437 28.3711ZM43.7437 34.4885C46.6141 34.4692 48.9644 36.9201 48.9644 39.9499C48.9644 42.9603 46.6141 45.4112 43.7437 45.4112C40.8734 45.4112 38.5231 42.9603 38.5231 39.9499C38.5231 36.9201 40.8734 34.4885 43.7437 34.4885Z" fill="black"/>
<path d="M76.9997 47.4754C76.9997 49.714 75.1888 51.528 72.9542 51.528C70.7195 51.528 68.9087 49.714 68.9087 47.4754C68.9087 45.2369 70.7195 43.4229 72.9542 43.4229C75.1888 43.4229 76.9997 45.2369 76.9997 47.4754Z" fill="black"/>
<path d="M65.2235 50.7569H58.8663V22.0029H65.2235V50.7569Z" fill="black"/>
<path fill-rule="evenodd" clip-rule="evenodd" d="M2.99969 50.7564L14.5583 22.0024H20.5302L31.8962 50.7564H23.8051L22.4566 46.7038H12.4392L11.0907 50.7564H2.99969ZM20.5302 40.7214H14.5583L17.5442 31.0725L20.5302 40.7214Z" fill="black"/>
</g>
<defs>
<clipPath id="clip0_8870_32769">
<rect width="74" height="29.6" fill="white" transform="translate(3 22)"/>
</clipPath>
</defs>
</svg>
