<svg width="100%" height="100%" viewBox="0 0 80 80" fill="none" xmlns="http://www.w3.org/2000/svg">
<circle cx="40" cy="40" r="39.5" fill="white" stroke="#ECECEC"/>
<g clip-path="url(#clip0_8870_32764)">
<path fill-rule="evenodd" clip-rule="evenodd" d="M45.6143 53.9259V64.8541H48.3603V59.8316L48.9268 59.842V64.8541H51.7039V53.926H48.9268V57.9806H48.3603V53.926L45.6143 53.9259Z" fill="black"/>
<path fill-rule="evenodd" clip-rule="evenodd" d="M55.1216 53.926H52.4469V64.8541H55.1216V53.926Z" fill="black"/>
<path fill-rule="evenodd" clip-rule="evenodd" d="M55.5595 53.926L57.6724 64.8541H60.8615L62.9743 53.926H60.1352L59.4353 58.6019C59.377 58.781 59.18 58.781 59.1448 58.6019L58.4453 53.9258L55.5595 53.926Z" fill="black"/>
<path fill-rule="evenodd" clip-rule="evenodd" d="M68.8514 53.926H63.5422V64.8541H68.8514V61.9886L65.8993 61.964L65.8993 60.7355H67.3057V57.8906H65.8993L65.8993 56.7915H68.8514V53.926Z" fill="black"/>
<path fill-rule="evenodd" clip-rule="evenodd" d="M45.6143 53.9259V64.8541H48.3603V59.8316L48.9268 59.842V64.8541H51.7039V53.926H48.9268V57.9806H48.3603V53.926L45.6143 53.9259Z" stroke="#FDEE21" stroke-width="0.1"/>
<path fill-rule="evenodd" clip-rule="evenodd" d="M55.1216 53.926H52.4469V64.8541H55.1216V53.926Z" stroke="#FDEE21" stroke-width="0.1"/>
<path fill-rule="evenodd" clip-rule="evenodd" d="M55.5595 53.926L57.6724 64.8541H60.8615L62.9743 53.926H60.1352L59.4353 58.6019C59.377 58.781 59.18 58.781 59.1448 58.6019L58.4453 53.9258L55.5595 53.926Z" stroke="#FDEE21" stroke-width="0.1"/>
<path fill-rule="evenodd" clip-rule="evenodd" d="M68.8514 53.926H63.5422V64.8541H68.8514V61.9886L65.8993 61.964L65.8993 60.7355H67.3057V57.8906H65.8993L65.8993 56.7915H68.8514V53.926Z" stroke="#FDEE21" stroke-width="0.1"/>
<path fill-rule="evenodd" clip-rule="evenodd" d="M40.1814 20.7851C39.7342 19.5886 24.352 13.7459 24.1554 14.3874C21.3308 15.1068 20.1812 18.2876 18.2382 20.3023L13.9235 20.0608C12.0227 22.4489 11.0254 24.8888 11.7045 27.4247C14.1406 30.6493 16.9686 33.3934 18.7312 37.4439C18.8705 39.3531 27.1887 37.6441 28.9717 37.2662C26.5361 38.9695 24.4151 41.6097 25.3266 49.2138C26.1587 52.7846 26.7278 56.7714 34.1078 60.81C35.0793 61.3417 37.0894 61.9551 38.3324 62.4023C39.5211 62.935 40.9111 63.1539 44.8325 61.9822C47.1017 61.0267 49.5516 60.451 51.7722 59.4977L49.1032 59.6201C45.4278 59.6982 42.5904 59.9661 41.7151 58.9628L38.3326 53.2576L40.3046 49.5153C43.0338 49.7888 43.9397 51.9512 46.3453 52.7747L49.1806 50.7225C57.416 55.472 60.6924 47.7123 61.6315 41.6688C61.5313 39.21 56.1823 42.4401 56.5065 41.2904C56.6321 38.6472 54.4269 35.1891 53.0021 32.4946L54.6511 26.2607C55.3993 25.6096 51.1873 18.6753 47.7479 17.8105C44.7301 17.0517 40.1812 20.7851 40.1812 20.7851L40.1814 20.7851Z" fill="#FDEE21"/>
<path fill-rule="evenodd" clip-rule="evenodd" d="M53.7105 34.0328C53.74 34.7023 53.7367 35.5167 53.8029 36.0246C53.7915 36.4121 53.4942 36.4263 53.2482 36.5075L54.8508 37.0809C55.1689 37.604 55.4246 38.1271 55.6829 38.6502C55.9825 39.937 55.7589 39.9738 55.5596 40.0686C54.9781 40.0744 54.3982 40.0755 53.8569 39.963C54.0994 40.088 54.1527 40.1792 54.1783 40.3394C54.2257 40.6347 54.031 41.038 53.7105 41.4267C54.1844 41.6836 55.0486 41.935 55.6906 42.1736L56.4225 40.5817C56.0911 38.243 55.0859 36.0875 53.7105 34.0327L53.7105 34.0328Z" fill="#C8C037"/>
<path fill-rule="evenodd" clip-rule="evenodd" d="M56.7014 41.8767C57.5902 42.2386 58.8181 42.1325 60.5206 41.2753C60.7738 41.0994 61.0096 41.2045 60.5565 41.4939C58.3236 43.4515 57.2548 42.4722 56.7014 41.8767L56.7014 41.8767Z" fill="#C8C037"/>
<path fill-rule="evenodd" clip-rule="evenodd" d="M60.6914 41.019C60.9554 41.513 60.7954 41.9147 60.7068 42.3318C60.4311 44.4539 59.7543 46.1317 58.4262 47.8848C54.1065 54.6701 49.7453 50.4245 46.2682 47.6613L44.8299 51.1824C44.7536 51.491 44.4361 51.7313 46.6823 52.6975L48.9705 51.1184C57.6972 57.6056 63.8811 42.0381 60.6911 41.0192L60.6914 41.019Z" fill="#C8C037"/>
<path fill-rule="evenodd" clip-rule="evenodd" d="M47.3207 47.0825C46.732 47.1236 44.9798 47.7057 44.9018 48.0428L45.7081 46.8691L47.3207 47.0825Z" fill="#C8C037"/>
<path fill-rule="evenodd" clip-rule="evenodd" d="M46.1757 39.8865C46.2836 39.8865 46.8014 40.0224 46.7459 39.9922C46.6664 39.949 46.737 40.7016 46.9 41.0937L46.2682 42.4367C47.4783 41.0731 49.3919 41.1639 51.1684 40.9881L50.3209 40.475C50.4681 39.9953 50.2947 39.6157 50.213 39.2075L46.1757 39.8865Z" fill="#C8C037"/>
<path fill-rule="evenodd" clip-rule="evenodd" d="M49.1493 35.8424C47.8509 36.2314 46.608 36.8667 45.7736 38.2211C46.4102 35.9887 46.5399 36.0735 46.7455 35.9631C47.6358 35.5741 48.3649 35.8166 49.1493 35.8424V35.8424Z" fill="#C8C037"/>
<path fill-rule="evenodd" clip-rule="evenodd" d="M42.2153 62.0063C40.6453 63.699 37.1421 61.8783 34.2328 60.9501C26.8401 56.3572 25.3959 52.0336 25.2956 47.7921C24.9155 41.7163 26.825 38.1859 29.2404 37.3501C27.6419 40.3607 26.8966 45.7651 27.6378 49.7839C28.2361 52.0197 28.2485 55.7906 32.0774 57.809C33.9524 58.8403 33.4445 59.6432 34.7124 60.6091C36.1018 61.6676 39.9757 62.6739 42.2153 62.0064L42.2153 62.0063Z" fill="#FCF6A0"/>
<path fill-rule="evenodd" clip-rule="evenodd" d="M44.5608 33.9292C41.9026 30.2464 38.164 28.8639 33.9479 28.7129C34.7929 28.4438 35.6378 28.3036 36.4828 27.9056C36.6897 27.6932 36.6221 27.3194 36.5444 26.9399C32.4862 25.9046 29.9249 24.6251 26.6827 23.439L35.4355 25.4911C41.3462 25.7106 40.8386 27.1363 44.5612 33.9294L44.5608 33.9292Z" fill="#FCF6A0"/>
<path fill-rule="evenodd" clip-rule="evenodd" d="M47.407 32.153C45.4425 29.4132 43.5372 26.088 40.951 23.9732C34.7079 21.2201 28.532 19.1754 21.2942 17.3148L23.6042 14.4126C31.2845 16.1255 38.4986 18.9917 44.9603 23.7167C46.0536 26.4174 46.7826 29.1217 47.4064 32.1527L47.407 32.153Z" fill="#FCF6A0"/>
<path fill-rule="evenodd" clip-rule="evenodd" d="M51.3672 27.3117C51.3672 27.3117 50.2659 24.8977 49.7297 23.9759C48.4858 22.6292 47.8569 20.1195 45.3093 18.937C46.1151 19.1496 46.6665 18.8963 48.3114 20.3532L50.9022 25.1548L51.3672 27.3117Z" fill="#FCF6A0"/>
<path fill-rule="evenodd" clip-rule="evenodd" d="M52.7372 31.4935C52.9911 29.402 53.4735 26.0472 52.92 24.7218C51.38 22.7031 49.8291 20.6165 48.2776 18.6794C48.0207 18.4458 47.8357 18.1287 47.6332 17.8813C49.8146 18.4335 52.0911 19.9153 55.1611 25.7654L52.7372 31.4935Z" fill="#FCF6A0"/>
<path fill-rule="evenodd" clip-rule="evenodd" d="M43.5662 31.7401C42.6973 31.072 41.923 28.709 40.6064 28.2177C39.3878 28.1181 38.941 27.7435 37.3385 28.0625C37.9197 27.778 38.4684 27.4139 39.0863 27.2191C39.5047 27.1225 39.8973 27.2295 40.2965 27.2833C40.3951 27.2377 40.4597 27.1811 40.4356 27.0955C38.8225 26.1216 35.5134 26.1077 33.2796 25.5518C35.8721 25.6365 38.7406 25.4961 40.6891 26.1066C42.2559 27.4651 42.7648 30.0233 43.5662 31.7401L43.5662 31.7401Z" fill="black"/>
<path fill-rule="evenodd" clip-rule="evenodd" d="M48.317 20.3452C48.6766 20.3771 50.6123 23.3686 50.7032 23.8663C50.8642 24.9544 51.2611 26.1742 51.3679 27.3127C51.0491 26.2208 50.7017 25.129 50.2674 24.037C50.1404 23.7364 49.8194 23.0566 48.9272 22.0951C48.5117 21.4175 48.422 20.8848 48.317 20.3453L48.317 20.3452Z" fill="black"/>
<path fill-rule="evenodd" clip-rule="evenodd" d="M54.8761 36.6377H54.048L54.9633 36.8724L54.8761 36.6377Z" fill="black"/>
<path fill-rule="evenodd" clip-rule="evenodd" d="M49.2257 35.8301C48.393 35.73 47.5384 35.7168 46.7057 35.8956C46.3663 36.341 46.3429 36.7941 46.1946 37.2128C47.2069 36.1228 47.6086 36.0561 49.2257 35.8301V35.8301Z" fill="black"/>
<path fill-rule="evenodd" clip-rule="evenodd" d="M60.5833 41.457C60.1199 41.8184 60.0736 42.1585 58.7034 42.5661C57.7042 42.797 57.1396 42.4057 56.6693 41.8795C57.3824 42.0791 57.4963 42.6054 59.4084 42.0153L60.5833 41.457Z" fill="black"/>
<path fill-rule="evenodd" clip-rule="evenodd" d="M56.4305 41.6821C56.097 42.5781 55.7374 43.4836 55.3749 44.3228C54.5117 45.3119 54.8796 44.7482 53.5874 46.2844C54.0009 45.6612 54.5386 45.0623 54.8202 44.4133C55.0179 43.9859 55.2641 43.5325 55.373 43.1528C55.0304 42.9856 54.3291 42.9724 54.234 43.0324C53.0851 43.6944 52.8778 44.3951 52.2006 45.0773C52.6915 44.3106 53.1108 43.4737 53.6799 42.7836C53.7447 42.6941 54.1661 42.6767 54.4251 42.6239C54.0226 42.5564 53.2775 42.4151 53.2175 42.4215C52.4681 42.5974 52.0481 43.2353 51.4917 43.6589C51.8973 43.0866 52.271 42.4908 52.7861 41.999C52.837 41.9411 54.2293 42.0603 54.9509 42.3416L54.9652 42.6221L55.3749 42.7836L55.683 42.0292L56.4305 41.6821Z" fill="black"/>
<path fill-rule="evenodd" clip-rule="evenodd" d="M47.3392 47.0845C47.1543 47.0227 45.5209 46.8175 45.5209 46.8657C44.8937 47.3017 44.7986 47.719 44.8121 48.0804C45.8554 47.0775 45.8166 47.0747 47.3392 47.0844L47.3392 47.0845Z" fill="black"/>
<path fill-rule="evenodd" clip-rule="evenodd" d="M46.0984 39.8711C46.0984 39.8711 47.2771 39.7033 47.2541 39.8108C47.1687 40.2103 47.3984 41.184 47.4236 41.0482L46.761 41.5763C48.1487 40.8946 49.6096 41.0316 51.091 40.9275C51.091 40.9275 49.8436 40.591 49.9199 40.5804C50.1982 40.5418 49.8458 39.3094 49.7504 39.2827C49.9877 39.2042 50.2195 39.1451 50.4592 39.0865C48.6754 38.6304 47.6439 38.8992 46.0983 39.8712L46.0984 39.8711Z" fill="black"/>
<path fill-rule="evenodd" clip-rule="evenodd" d="M56.2995 40.7307L56.0375 40.8589C56.0003 40.1092 55.1762 40.1642 54.4811 40.1573L53.911 40.0215C54.0843 40.1782 54.6203 40.166 54.4041 40.5044C54.2222 40.5994 54.1385 41.007 54.0343 41.3494L53.7261 41.3645C54.2705 41.5723 54.7756 41.7545 55.3749 41.9982L55.7293 42.051L56.5768 41.6059L56.2995 40.7307Z" fill="black"/>
<path fill-rule="evenodd" clip-rule="evenodd" d="M48.4869 40.226C48.3543 39.9696 47.6869 40.006 47.543 40.1719C47.4261 40.3067 47.5357 41.1716 47.6856 41.0258C47.9024 40.8396 48.1855 40.7618 48.5255 40.7768C48.5683 40.617 48.5532 40.4444 48.487 40.226L48.4869 40.226Z" fill="white"/>
<path fill-rule="evenodd" clip-rule="evenodd" d="M54.8873 41.5157C54.9501 41.4709 55.0827 41.0373 55.0399 40.9075C54.9522 40.6014 54.3316 40.6658 54.3316 40.6658C54.1802 40.7529 54.0474 41.2302 54.1028 41.3877C54.1292 41.521 54.7877 41.5635 54.8873 41.5157L54.8873 41.5157Z" fill="white"/>
<path fill-rule="evenodd" clip-rule="evenodd" d="M28.3482 56.4771L28.7403 56.5145C31.0644 57.6294 34.8912 59.2825 40.4313 58.3942L41.3006 59.7306C38.8607 60.889 36.2365 60.6225 33.7774 60.7037L28.3482 56.4771Z" fill="black"/>
<path fill-rule="evenodd" clip-rule="evenodd" d="M25.0115 47.6645L26.1757 52.4396C29.2926 54.3432 34.617 56.5236 39.0552 56.3477L38.0744 54.149C28.8101 52.2269 28.0265 49.797 25.0116 47.6641L25.0115 47.6645Z" fill="black"/>
<path fill-rule="evenodd" clip-rule="evenodd" d="M27.9085 37.8818C28.4775 41.5823 29.2371 44.3877 32.5305 46.7377C34.5492 48.1561 36.5529 49.5684 38.99 50.7341C38.99 50.7341 38.7764 51.8204 38.5977 51.801C31.3448 51.0139 26.0349 45.1382 25.3917 42.4544C26.0147 40.3958 26.9084 39.1099 27.9083 37.8818H27.9085Z" fill="black"/>
<path fill-rule="evenodd" clip-rule="evenodd" d="M31.3949 35.7859C32.3614 39.8872 34.6659 44.0411 36.9564 47.8095C37.7961 48.8504 38.0158 49.3097 39.31 49.9435C41.0592 50.4846 42.2962 50.3465 43.5659 50.2651C43.218 49.636 42.9088 48.9784 42.5093 48.3872C39.6662 46.1905 40.9802 44.1904 41.7353 42.9242C40.1545 42.5339 38.0599 41.7044 37.7713 40.6134C37.3074 37.0847 37.543 35.9653 38.0073 34.1528C35.8666 34.5938 33.6974 35.0308 31.3947 35.786L31.3949 35.7859Z" fill="black"/>
<path fill-rule="evenodd" clip-rule="evenodd" d="M23.5489 14.0083C22.8454 14.4574 22.1675 15.0995 21.4383 15.8293C20.2294 17.0519 19.4257 18.2445 18.1952 19.1286C17.9491 19.336 17.2584 19.6699 16.3902 19.7194C15.9812 19.7393 15.7147 19.8055 14.9632 19.7133C14.3003 19.3626 13.6706 19.5906 13.0561 20.3088C12.3822 21.2557 11.5287 23.0536 11.1738 24.1854C10.4423 27.0718 12.3072 29.45 14.0955 31.2829C15.6864 32.8013 16.6036 33.7503 17.2568 35.1423C17.7513 36.0452 18.1177 37.2842 18.5144 38.153C18.6574 38.4284 18.6277 38.427 19.0127 38.51C19.844 38.6833 20.9971 38.6847 22.0237 38.7709C22.4679 38.777 23.0779 38.7608 23.6559 38.7019C24.4523 38.555 25.3879 38.4111 26.1721 38.1461C26.9385 37.9617 27.6213 37.7064 28.2368 37.4713C28.1574 37.7345 27.571 37.9879 27.3512 38.3214C25.265 41.2392 24.6935 43.8356 25.0567 47.9321C25.2621 49.7478 25.6886 51.2531 26.3322 52.9753C26.6267 53.7634 27.2534 55.0115 27.8539 55.8406C29.6397 58.306 33.6349 61.4718 39.1964 62.6905C40.1667 62.8201 41.2678 62.7509 42.3035 62.4815C45.0484 61.6685 50.6427 59.7459 50.6427 59.7459C50.6427 59.7459 45.6768 60.1473 43.4026 59.9276C42.8761 59.8471 42.2959 59.8198 41.9291 59.4693C41.8676 59.3917 41.6441 58.9518 41.7884 58.9479C41.9853 58.9425 42.5506 58.7133 43.4235 58.6372C41.56 58.4412 41.5866 58.4435 41.4506 58.1119C41.239 57.5971 40.9153 56.8934 40.5819 56.2778C41.4007 56.3452 43.2137 56.4447 43.829 55.8243C43.829 55.8243 42.7561 55.9453 41.8081 55.8367C41.4887 55.8 40.9444 55.6103 40.7809 55.5516C40.3553 55.3897 40.0049 55.3394 39.9232 55.2338C39.7754 54.8663 39.6752 54.7426 39.4969 54.2503C39.2552 53.5984 39.2361 52.8712 39.1901 52.2056C39.8103 52.9524 40.6005 53.5812 41.6467 53.9022C41.6601 53.8746 43.0039 54.473 43.9798 54.1653L44.1822 54.1015C44.1822 54.1192 43.5356 54.1569 43.2984 54.0422C41.3137 53.2179 41.0149 52.4965 40.6945 52.1382L39.8374 50.884C40.0981 50.3762 40.2455 50.3569 40.5908 50.3522C41.6354 50.4656 42.09 50.5528 42.7256 50.403C43.1551 51.2666 43.2712 52.1354 44.249 52.7639C47.5066 53.7086 48.2144 52.4833 49.0034 51.4006C51.3473 53.0812 55.163 53.5995 57.813 51.4298C61.182 47.6211 62.2486 41.6168 61.9499 41.274C61.5291 40.5766 60.9771 39.8574 60.5031 39.9568C58.8135 40.4074 58.1905 41.2448 56.5164 41.0538C56.7158 41.0428 57.0511 41.0375 57.0537 41.0189C57.1827 39.6339 57.0433 38.9638 56.9811 38.8488C56.473 37.7541 55.8059 36.6022 55.341 35.7388C55.2211 35.5597 54.869 34.1995 54.2791 33.6621C54.0261 33.4511 53.4068 32.8945 53.4068 32.8945L53.3543 33.4861C53.3543 33.4861 53.5964 33.5218 53.6886 33.8882C54.0378 35.2775 55.8164 38.5624 55.947 38.7198C56.5773 39.714 56.011 40.9525 56.4903 41.6474C56.5363 41.7357 57.468 41.6397 58.1901 41.683C59.3775 41.4335 59.3274 40.9222 60.3531 40.8454C61.0441 40.7936 61.1134 42.0614 61.1043 42.1598C60.9755 43.5597 60.5397 45.1873 59.8726 46.6737C58.4857 49.2843 56.9325 51.629 54.7297 51.956C52.0428 52.4147 50.6466 51.267 49.19 50.5362L48.6328 51.0005C46.7399 52.8422 44.4923 52.6786 43.573 50.2723C43.1154 49.3388 42.519 48.7667 42.0084 47.9659L39.3005 49.8715C39.0751 50.3231 38.7979 51.0354 38.4612 51.831C38.2271 52.3841 38.0309 53.3341 38.0436 54.1235C37.6965 54.7012 39.2459 57.0442 40.225 58.4694C40.5139 58.8899 41.0531 59.6245 41.0712 59.6703C41.2653 60.1624 41.6906 60.5968 41.7164 60.6497C43.5339 62.9658 39.4236 62.4325 38.5747 62.2926C36.8999 62.0318 35.2617 61.3483 33.7218 60.4344C33.6325 60.3813 33.5434 60.3275 33.4548 60.273C31.6248 59.1472 29.9411 57.7069 28.5094 56.2823C27.6558 55.3379 26.843 53.4021 26.2426 52.0298C25.3429 48.7303 24.0516 43.0113 27.5495 38.6774C27.7712 38.4297 28.0105 38.0173 28.2142 37.9357C29.2534 37.2489 30.3819 36.7808 31.5955 36.5209L31.4729 35.7523C30.8669 35.8869 28.8262 36.6161 28.2492 36.9213C26.9371 37.293 25.8487 37.681 24.1765 38.0901C23.6329 38.1551 23.0982 38.1562 22.5769 38.087C21.3739 37.9274 19.3235 38.07 19.1927 37.9513C18.3781 36.8415 18.1551 34.853 17.4119 33.7888L17.4031 33.7782L17.3937 33.7681C16.9604 33.1991 16.4554 32.735 15.9581 32.2522C14.177 30.5233 12.6526 28.8517 12.2259 27.0803C12.1186 26.5572 11.8423 26.0155 11.9892 24.4679L11.9919 24.4604L11.9944 24.4528C12.4229 23.0071 13.12 21.8286 14.3032 20.6475C15.5344 20.6669 16.7531 20.6933 17.7024 20.8705C18.1379 20.9416 19.0436 21.0572 19.979 21.3977C22.3467 22.2594 25.4751 23.6762 25.4751 23.6762C23.1268 22.4162 20.5009 20.7797 18.8428 20.4494C18.5961 20.4153 18.4444 20.3054 18.3712 20.1134C20.8651 18.6818 21.3214 16.9962 22.9617 15.4845C23.7114 15.1657 24.0037 15.0029 24.6406 14.9353C30.5317 15.8454 34.2402 18.1378 37.1739 19.6707C38.3645 20.3034 39.4469 20.7817 40.4807 21.3579C41.3869 21.6491 44.1214 23.6661 44.9217 24.7536C45.7347 26.4307 46.3283 28.2422 46.8697 29.9902C47.2579 31.7682 47.5984 32.4894 47.5984 32.4894C47.5984 32.4894 47.2684 31.0023 47.3234 30.7351C47.6655 30.86 48.4742 31.1067 48.8094 31.0683C48.8094 31.0683 47.312 30.3121 47.1158 29.6437C46.4861 27.499 45.8546 24.1603 45.6843 23.9862C45.2045 23.3963 43.2033 21.9 41.9758 21.2079C41.5114 20.946 41.2605 20.7836 41.2409 20.6685C41.633 20.2815 42.1173 19.7695 42.5515 19.4442C42.9678 19.1323 43.3468 18.7807 43.9269 18.5702C46.4767 17.4482 47.9347 19.0019 48.2807 18.6873C48.2807 18.6873 47.7322 18.0729 47.9758 18.1741C48.2253 18.3061 49.0385 18.4618 49.1278 18.5429C50.0571 19.2532 52.4868 21.8491 53.9511 24.5881C54.3029 25.2591 54.4458 25.7008 54.2827 26.5087C54.1191 27.3174 53.9926 27.762 53.8142 28.3021C53.653 28.6631 52.7413 31.1347 52.7448 31.4668C52.5612 32.8229 53.3402 34.5207 53.3402 34.5207C53.3475 34.0599 53.3111 33.8143 53.3539 33.4847L53.4063 32.8958C53.4063 32.8958 53.3731 32.7392 53.3791 32.6771C53.4187 32.2698 53.5209 31.9274 53.5509 31.6942C53.8437 29.9231 54.3526 28.6481 54.9299 27.0939C55.1014 26.7017 55.3259 26.4835 55.3145 26.1849C55.3239 25.655 54.8386 24.9437 54.4878 24.249C54.134 23.5469 53.7112 22.7642 53.1562 21.9393C51.8906 20.1613 50.8118 18.7702 48.8363 17.8995C48.2836 17.6626 46.1086 17.4309 45.3575 17.5685C44.4463 17.754 43.6627 17.9369 43.0381 18.3278C42.055 18.9428 41.2824 19.8951 40.3764 20.4562C38.372 19.4769 37.4045 18.744 37.2241 18.6429C36.0328 18.0193 34.6025 17.2955 33.0638 16.6092C32.326 15.937 27.7446 14.3293 23.5495 14.0086L23.5489 14.0083ZM49.1896 50.5351C47.9542 49.5916 46.9142 48.6203 46.2287 47.6201C46.0049 48.7964 45.1926 49.6342 44.5648 50.4582C44.4398 50.6514 44.3497 50.9149 44.9651 51.7546C45.131 51.9784 45.7311 52.0166 46.1362 51.9961C45.7241 51.6917 45.097 51.3697 44.996 51.0907C45.721 51.573 46.3924 51.7116 46.9992 51.6339C47.1378 51.6187 47.31 51.4751 47.4432 51.2539C47.7137 50.6861 47.9255 50.5494 48.1395 50.3966L48.6326 51.0001L49.1896 50.5351Z" fill="black" stroke="black" stroke-width="0.11397"/>
</g>
<defs>
<clipPath id="clip0_8870_32764">
<rect width="58" height="51" fill="white" transform="translate(11 14)"/>
</clipPath>
</defs>
</svg>
