<svg width="100%" height="100%" viewBox="0 0 80 80" fill="none" xmlns="http://www.w3.org/2000/svg">
<circle cx="40" cy="40" r="39.5" fill="white" stroke="#ECECEC"/>
<path d="M5.6653 51.6049L18.7318 38.603C18.8137 38.5215 18.8293 38.3956 18.7611 38.3031C17.9662 37.2261 16.5004 37.0394 15.957 36.3159C14.3473 34.1725 13.9389 32.9593 13.2472 33.0346C13.1989 33.0398 13.1558 33.0651 13.1219 33.0988L8.40156 37.7958C5.68605 40.4978 5.29663 46.4471 5.22522 51.4287C5.22199 51.6538 5.50334 51.7659 5.6653 51.6049Z" fill="#017CEE"/>
<path d="M32.4078 51.2838L19.0136 38.5999C18.9297 38.5204 18.7999 38.5052 18.7046 38.5714C17.5951 39.343 17.4028 40.7659 16.6574 41.2935C14.4494 42.8559 13.1996 43.2524 13.2771 43.9239C13.2825 43.9708 13.3085 44.0126 13.3433 44.0454L18.182 48.6276C20.9656 51.2635 27.0944 51.6415 32.2263 51.7108C32.4582 51.7141 32.5737 51.441 32.4078 51.2838Z" fill="#00AD46"/>
<path fill-rule="evenodd" clip-rule="evenodd" d="M18.1819 48.6274C16.6614 47.1876 15.9559 44.339 18.8709 38.4648C14.1334 40.52 12.4733 43.2215 13.29 43.995L18.1819 48.6274Z" fill="#04D659"/>
<path d="M32.0763 25.3246L19.0098 38.3264C18.928 38.4078 18.9123 38.5338 18.9805 38.6263C19.7754 39.7033 21.2413 39.8899 21.7846 40.6135C23.3943 42.7569 23.8028 43.97 24.4944 43.8949C24.5427 43.8896 24.5857 43.8643 24.6198 43.8305L29.34 39.1336C32.0556 36.4315 32.445 30.4823 32.5164 25.5007C32.5196 25.2756 32.2382 25.1634 32.0763 25.3246Z" fill="#00C7D4"/>
<path fill-rule="evenodd" clip-rule="evenodd" d="M29.3401 39.1337C27.8567 40.6096 24.9222 41.2945 18.8708 38.4648C20.988 43.0635 23.771 44.6752 24.5678 43.8823L29.3401 39.1337Z" fill="#11E1EE"/>
<path d="M5.33426 25.646L18.7284 38.3298C18.8123 38.4092 18.942 38.4245 19.0373 38.3582C20.1468 37.5867 20.3391 36.1637 21.0844 35.6362C23.2926 34.0737 24.5423 33.6773 24.4648 33.0058C24.4594 32.9589 24.4333 32.9171 24.3986 32.8842L19.5599 28.3021C16.7763 25.6661 10.6476 25.2881 5.51572 25.2188C5.28381 25.2156 5.16825 25.4888 5.33426 25.646Z" fill="#E43921"/>
<path fill-rule="evenodd" clip-rule="evenodd" d="M19.5599 28.3022C21.0804 29.7421 21.7859 32.5906 18.8708 38.4649C23.6083 36.4097 25.2686 33.7081 24.4518 32.9348L19.5599 28.3022Z" fill="#FF7557"/>
<path fill-rule="evenodd" clip-rule="evenodd" d="M8.4017 37.7957C9.88504 36.3197 12.8195 35.6349 18.8709 38.4646C16.7538 33.8658 13.9707 32.2542 13.174 33.047L8.4017 37.7957Z" fill="#0CB6FF"/>
<path d="M18.8801 39.0301C19.2028 39.0262 19.4612 38.7691 19.4572 38.4559C19.4532 38.1427 19.1883 37.8919 18.8657 37.8958C18.543 37.8997 18.2847 38.1567 18.2887 38.47C18.2927 38.7832 18.5575 39.0339 18.8801 39.0301Z" fill="#4A4848"/>
<path d="M36.1569 33.8604C36.1294 33.8604 36.1052 33.8504 36.0846 33.8303C36.0639 33.8102 36.0536 33.7868 36.0536 33.76C36.0536 33.7333 36.0553 33.7149 36.0587 33.7049L37.3407 30.4584C37.3682 30.3848 37.4233 30.348 37.5061 30.348H37.8576C37.9402 30.348 37.9954 30.3848 38.023 30.4584L39.2998 33.7049L39.3101 33.76C39.3101 33.7868 39.2998 33.8102 39.2791 33.8303C39.2585 33.8504 39.2343 33.8604 39.2066 33.8604H38.9431C38.9051 33.8604 38.8759 33.852 38.8552 33.8353C38.8346 33.8152 38.8207 33.7952 38.8139 33.7751L38.5296 33.0626H36.8341L36.5498 33.7751C36.543 33.7952 36.5274 33.8152 36.5032 33.8353C36.4826 33.852 36.4551 33.8604 36.4206 33.8604H36.1569ZM38.3797 32.6311L37.6818 30.8498L36.984 32.6311H38.3797ZM39.9197 34.8137C39.8852 34.8137 39.8559 34.802 39.8318 34.7786C39.8111 34.7586 39.8008 34.7318 39.8008 34.6983V31.3666C39.8008 31.3332 39.8111 31.3064 39.8318 31.2863C39.8559 31.2629 39.8852 31.2512 39.9197 31.2512H40.1574C40.1919 31.2512 40.2194 31.2629 40.2401 31.2863C40.2642 31.3064 40.2763 31.3332 40.2763 31.3666V31.5874C40.4693 31.3298 40.7519 31.201 41.1239 31.201C41.4859 31.201 41.7564 31.3114 41.9355 31.5322C42.1181 31.753 42.2163 32.0373 42.2302 32.3852C42.2337 32.422 42.2354 32.4789 42.2354 32.5558C42.2354 32.6327 42.2337 32.6896 42.2302 32.7264C42.2163 33.0709 42.1181 33.3553 41.9355 33.5794C41.7529 33.8002 41.4824 33.9106 41.1239 33.9106C40.7657 33.9106 40.4864 33.7851 40.2866 33.5342V34.6983C40.2866 34.7318 40.2763 34.7586 40.2557 34.7786C40.235 34.802 40.2073 34.8137 40.1728 34.8137H39.9197ZM41.0154 33.5041C41.2602 33.5041 41.4375 33.4305 41.5478 33.2834C41.6616 33.1362 41.7236 32.9422 41.734 32.7013C41.7375 32.6679 41.7392 32.6194 41.7392 32.5558C41.7392 31.9236 41.4979 31.6075 41.0154 31.6075C40.7776 31.6075 40.5985 31.6844 40.4779 31.8383C40.3607 31.9888 40.297 32.1694 40.2866 32.3802L40.2814 32.5709L40.2866 32.7665C40.2935 32.9639 40.359 33.1362 40.4831 33.2834C40.6071 33.4305 40.7846 33.5041 41.0154 33.5041ZM43.6242 33.9106C43.4554 33.9106 43.2987 33.8771 43.1539 33.8102C43.0091 33.7433 42.8937 33.653 42.8076 33.5393C42.725 33.4222 42.6835 33.2934 42.6835 33.1529C42.6835 32.9321 42.7766 32.7515 42.9627 32.611C43.1522 32.4672 43.4071 32.3735 43.7277 32.33L44.4979 32.2246V32.0791C44.4979 31.7379 44.2962 31.5673 43.8932 31.5673C43.7415 31.5673 43.6174 31.5991 43.5209 31.6626C43.4244 31.7229 43.3521 31.7948 43.3038 31.8784C43.2935 31.9085 43.2797 31.9303 43.2625 31.9436C43.2487 31.957 43.228 31.9637 43.2005 31.9637H42.9781C42.9472 31.9637 42.9197 31.9537 42.8955 31.9336C42.8748 31.9102 42.8645 31.8834 42.8645 31.8533C42.8678 31.773 42.9058 31.6827 42.9781 31.5824C43.054 31.4787 43.1694 31.39 43.3245 31.3164C43.4796 31.2395 43.6708 31.201 43.8983 31.201C44.2842 31.201 44.5617 31.2897 44.7305 31.467C44.8993 31.6409 44.9838 31.8583 44.9838 32.1193V33.745C44.9838 33.7784 44.9717 33.8069 44.9476 33.8303C44.9269 33.8504 44.8993 33.8604 44.8649 33.8604H44.6272C44.5927 33.8604 44.5634 33.8504 44.5393 33.8303C44.5186 33.8069 44.5083 33.7784 44.5083 33.745V33.5292C44.4325 33.6363 44.3221 33.7266 44.1774 33.8002C44.0327 33.8738 43.8483 33.9106 43.6242 33.9106ZM43.7328 33.5342C43.9569 33.5342 44.1395 33.464 44.2808 33.3235C44.4255 33.1797 44.4979 32.9739 44.4979 32.7063V32.5658L43.8983 32.6511C43.6536 32.6846 43.4693 32.7414 43.3451 32.8217C43.2212 32.8987 43.159 32.9974 43.159 33.1178C43.159 33.2516 43.2159 33.3553 43.3297 33.4289C43.4434 33.4991 43.5778 33.5342 43.7328 33.5342ZM46.8124 33.9106C46.4437 33.9106 46.1541 33.8102 45.944 33.6095C45.7372 33.4055 45.6269 33.1211 45.6131 32.7565L45.608 32.5558L45.6131 32.3551C45.6269 31.9905 45.7372 31.7078 45.944 31.5071C46.1541 31.3031 46.4437 31.201 46.8124 31.201C47.0605 31.201 47.2706 31.2445 47.4429 31.3315C47.6152 31.4185 47.7429 31.5255 47.8255 31.6526C47.9117 31.7797 47.9582 31.9069 47.9651 32.034C47.9686 32.0674 47.9582 32.0942 47.9341 32.1142C47.9099 32.1343 47.8807 32.1443 47.8462 32.1443H47.5981C47.5636 32.1443 47.5377 32.1377 47.5205 32.1243C47.5033 32.1109 47.486 32.0841 47.4689 32.044C47.4102 31.8834 47.3276 31.7697 47.2207 31.7028C47.1139 31.6325 46.9795 31.5974 46.8175 31.5974C46.6039 31.5974 46.4334 31.6626 46.3057 31.7931C46.1817 31.9202 46.1145 32.1159 46.1042 32.3802L46.0991 32.5608L46.1042 32.7314C46.1145 32.999 46.1817 33.1964 46.3057 33.3235C46.4299 33.4506 46.6004 33.5142 46.8175 33.5142C46.9795 33.5142 47.1139 33.4807 47.2207 33.4138C47.3276 33.3436 47.4102 33.2282 47.4689 33.0676C47.486 33.0275 47.5033 33.0007 47.5205 32.9873C47.5377 32.9706 47.5636 32.9622 47.5981 32.9622H47.8462C47.8807 32.9622 47.9099 32.9739 47.9341 32.9974C47.9582 33.0174 47.9686 33.0442 47.9651 33.0776C47.9582 33.2014 47.9117 33.3285 47.8255 33.459C47.7429 33.5861 47.6152 33.6931 47.4429 33.7801C47.2741 33.8671 47.0639 33.9106 46.8124 33.9106ZM48.703 33.8604C48.6685 33.8604 48.6393 33.8504 48.6151 33.8303C48.5945 33.8069 48.5841 33.7784 48.5841 33.745V30.4133C48.5841 30.3798 48.5945 30.353 48.6151 30.333C48.6393 30.3095 48.6685 30.2979 48.703 30.2979H48.9615C48.9959 30.2979 49.0234 30.3095 49.0441 30.333C49.0683 30.353 49.0803 30.3798 49.0803 30.4133V31.5824C49.1803 31.4586 49.2975 31.3649 49.4318 31.3014C49.5662 31.2345 49.7333 31.201 49.9332 31.201C50.264 31.201 50.5208 31.3047 50.7034 31.5121C50.8896 31.7162 50.9825 31.9888 50.9825 32.33V33.745C50.9825 33.7784 50.9705 33.8069 50.9463 33.8303C50.9256 33.8504 50.8981 33.8604 50.8637 33.8604H50.6052C50.5707 33.8604 50.5415 33.8504 50.5173 33.8303C50.4967 33.8069 50.4863 33.7784 50.4863 33.745V32.3551C50.4863 32.1176 50.4259 31.9336 50.3055 31.8031C50.1882 31.6727 50.0176 31.6075 49.7937 31.6075C49.5766 31.6075 49.4025 31.6744 49.2716 31.8082C49.1441 31.9386 49.0803 32.1209 49.0803 32.3551V33.745C49.0803 33.7784 49.0683 33.8069 49.0441 33.8303C49.0234 33.8504 48.9959 33.8604 48.9615 33.8604H48.703ZM52.804 33.9106C52.4491 33.9106 52.1647 33.8052 51.9511 33.5945C51.7408 33.3804 51.6255 33.0893 51.6048 32.7214L51.5996 32.5508L51.6048 32.3852C51.6288 32.0239 51.7461 31.7362 51.9562 31.5222C52.1698 31.3081 52.4507 31.201 52.7988 31.201C53.1813 31.201 53.4778 31.3198 53.6879 31.5573C53.8981 31.7914 54.0032 32.1092 54.0032 32.5106V32.5959C54.0032 32.6294 53.9911 32.6578 53.967 32.6812C53.9463 32.7013 53.9188 32.7113 53.8843 32.7113H52.0958V32.7565C52.1061 32.9739 52.1733 33.1596 52.2975 33.3135C52.4249 33.464 52.592 33.5393 52.7988 33.5393C52.9574 33.5393 53.0866 33.5092 53.1864 33.4489C53.2899 33.3854 53.3657 33.3202 53.4139 33.2533C53.445 33.2131 53.4673 33.1897 53.4811 33.183C53.4984 33.173 53.5277 33.168 53.569 33.168H53.8223C53.8533 33.168 53.8791 33.1763 53.8997 33.193C53.9206 33.2098 53.9309 33.2332 53.9309 33.2633C53.9309 33.3369 53.8826 33.4255 53.7861 33.5292C53.6931 33.6329 53.5604 33.7232 53.3881 33.8002C53.2192 33.8738 53.0245 33.9106 52.804 33.9106ZM53.5121 32.3651V32.3501C53.5121 32.1193 53.4466 31.9319 53.3156 31.7881C53.1882 31.6409 53.0159 31.5673 52.7988 31.5673C52.5816 31.5673 52.4094 31.6409 52.2819 31.7881C52.1579 31.9319 52.0958 32.1193 52.0958 32.3501V32.3651H53.5121Z" fill="#51504F"/>
<path d="M36.0846 33.8303L36.0565 33.8576L36.0846 33.8303ZM36.0587 33.7048L36.0217 33.691L36.0211 33.6926L36.0587 33.7048ZM37.3408 30.4584L37.3778 30.4722L37.3781 30.4716L37.3408 30.4584ZM38.0231 30.4584L37.9857 30.4716L37.9859 30.4722L38.0231 30.4584ZM39.2998 33.7048L39.3389 33.6979C39.3385 33.6956 39.3378 33.6933 39.3369 33.6911L39.2998 33.7048ZM39.3102 33.76H39.3499C39.3499 33.7577 39.3496 33.7554 39.3493 33.7531L39.3102 33.76ZM39.2792 33.8303L39.3072 33.8576L39.2792 33.8303ZM38.8553 33.8353L38.8272 33.8626C38.828 33.8634 38.8289 33.8642 38.8299 33.8649L38.8553 33.8353ZM38.814 33.7751L38.8516 33.7629L38.851 33.7612L38.814 33.7751ZM38.5296 33.0626L38.5667 33.0487C38.5608 33.0338 38.546 33.024 38.5296 33.024V33.0626ZM36.8342 33.0626V33.024C36.8178 33.024 36.8031 33.0338 36.7972 33.0487L36.8342 33.0626ZM36.5499 33.7751L36.5128 33.7611L36.5122 33.7629L36.5499 33.7751ZM36.5033 33.8353L36.5287 33.8649L36.5292 33.8646L36.5033 33.8353ZM38.3797 32.6311V32.6696C38.3928 32.6696 38.405 32.6634 38.4125 32.653C38.4198 32.6425 38.4215 32.6292 38.4169 32.6173L38.3797 32.6311ZM37.6818 30.8498L37.719 30.8361C37.7131 30.8211 37.6984 30.8112 37.6818 30.8112C37.6655 30.8112 37.6507 30.8211 37.6448 30.8361L37.6818 30.8498ZM36.9841 32.6311L36.9469 32.6173C36.9423 32.6292 36.9439 32.6425 36.9513 32.653C36.9588 32.6634 36.9711 32.6696 36.9841 32.6696V32.6311ZM36.157 33.8218C36.1408 33.8218 36.1264 33.8163 36.1128 33.803L36.0565 33.8576C36.0842 33.8844 36.1182 33.899 36.157 33.899V33.8218ZM36.1128 33.803C36.0991 33.7897 36.0934 33.7759 36.0934 33.76H36.0139C36.0139 33.7977 36.0289 33.8307 36.0565 33.8576L36.1128 33.803ZM36.0934 33.76C36.0934 33.733 36.0953 33.7204 36.0966 33.717L36.0211 33.6926C36.0153 33.7093 36.0139 33.7336 36.0139 33.76H36.0934ZM36.0959 33.7186L37.3778 30.4722L37.3036 30.4446L36.0217 33.691L36.0959 33.7186ZM37.3781 30.4716C37.3897 30.4408 37.4058 30.4204 37.4253 30.4074C37.4449 30.3944 37.4709 30.3866 37.5062 30.3866V30.3095C37.4587 30.3095 37.4159 30.3201 37.3803 30.3438C37.3446 30.3676 37.3195 30.4025 37.3034 30.4452L37.3781 30.4716ZM37.5062 30.3866H37.8576V30.3095H37.5062V30.3866ZM37.8576 30.3866C37.8929 30.3866 37.919 30.3944 37.9385 30.4074C37.9579 30.4204 37.9741 30.4408 37.9857 30.4716L38.0604 30.4452C38.0444 30.4025 38.0193 30.3676 37.9835 30.3438C37.9479 30.3201 37.9051 30.3095 37.8576 30.3095V30.3866ZM37.9859 30.4722L39.2627 33.7186L39.3369 33.6911L38.0601 30.4447L37.9859 30.4722ZM39.2608 33.7117L39.2711 33.7669L39.3493 33.7531L39.3389 33.6979L39.2608 33.7117ZM39.2704 33.76C39.2704 33.7759 39.2647 33.7897 39.2511 33.803L39.3072 33.8576C39.3348 33.8307 39.3499 33.7977 39.3499 33.76H39.2704ZM39.2511 33.803C39.2374 33.8163 39.2231 33.8218 39.2067 33.8218V33.899C39.2455 33.899 39.2797 33.8844 39.3072 33.8576L39.2511 33.803ZM39.2067 33.8218H38.9432V33.899H39.2067V33.8218ZM38.9432 33.8218C38.9108 33.8218 38.8918 33.8147 38.8807 33.8057L38.8299 33.8649C38.8601 33.8894 38.8996 33.899 38.9432 33.899V33.8218ZM38.8834 33.808C38.8656 33.7908 38.8559 33.7757 38.8516 33.7629L38.7763 33.7873C38.7857 33.8146 38.8035 33.8396 38.8272 33.8626L38.8834 33.808ZM38.851 33.7612L38.5667 33.0487L38.4926 33.0765L38.7769 33.789L38.851 33.7612ZM38.5296 33.024H36.8342V33.1011H38.5296V33.024ZM36.7972 33.0487L36.5128 33.7612L36.5869 33.789L36.8712 33.0765L36.7972 33.0487ZM36.5122 33.7629C36.5084 33.774 36.4985 33.7885 36.4775 33.806L36.5292 33.8646C36.5564 33.8419 36.5775 33.8163 36.5875 33.7873L36.5122 33.7629ZM36.4779 33.8057C36.4663 33.8152 36.4485 33.8218 36.4206 33.8218V33.899C36.4618 33.899 36.4992 33.8889 36.5287 33.8649L36.4779 33.8057ZM36.4206 33.8218H36.157V33.899H36.4206V33.8218ZM38.4169 32.6173L37.719 30.8361L37.6448 30.8635L38.3426 32.6448L38.4169 32.6173ZM37.6448 30.8361L36.9469 32.6173L37.0213 32.6448L37.719 30.8635L37.6448 30.8361ZM36.9841 32.6696H38.3797V32.5925H36.9841V32.6696ZM39.8318 34.7786L39.8037 34.8059L39.8318 34.7786ZM39.8318 31.2863L39.86 31.3136L39.8318 31.2863ZM40.2401 31.2863L40.2099 31.3114C40.2114 31.3129 40.2128 31.3143 40.2142 31.3156L40.2401 31.2863ZM40.2764 31.5874H40.2366C40.2366 31.6041 40.2478 31.6189 40.2641 31.6241C40.2805 31.6292 40.2983 31.6236 40.3085 31.6101L40.2764 31.5874ZM41.9356 31.5322L41.9044 31.5561L41.9046 31.5563L41.9356 31.5322ZM42.2302 32.3852L42.1905 32.3867L42.1907 32.3887L42.2302 32.3852ZM42.2302 32.7264L42.1907 32.7229L42.1905 32.7249L42.2302 32.7264ZM41.9356 33.5794L41.9665 33.6035L41.9667 33.6033L41.9356 33.5794ZM40.2867 33.5342L40.3182 33.5106C40.3077 33.4976 40.2899 33.4924 40.2738 33.4977C40.2578 33.5031 40.247 33.5177 40.247 33.5342H40.2867ZM40.2557 34.7786L40.2276 34.7514C40.2268 34.752 40.2262 34.7528 40.2255 34.7535L40.2557 34.7786ZM41.5479 33.2834L41.5161 33.2602L41.5158 33.2607L41.5479 33.2834ZM41.734 32.7013L41.6944 32.6975C41.6944 32.6982 41.6943 32.699 41.6943 32.6997L41.734 32.7013ZM40.4779 31.8383L40.4463 31.8149V31.815L40.4779 31.8383ZM40.2867 32.3802L40.247 32.3783V32.3792L40.2867 32.3802ZM40.2815 32.5708L40.2417 32.5698V32.5718L40.2815 32.5708ZM40.2867 32.7665L40.247 32.7675V32.7678L40.2867 32.7665ZM40.4832 33.2834L40.5138 33.2589L40.4832 33.2834ZM39.9197 34.7752C39.8957 34.7752 39.8765 34.7674 39.86 34.7514L39.8037 34.8059C39.8353 34.8366 39.8747 34.8523 39.9197 34.8523V34.7752ZM39.86 34.7514C39.848 34.7398 39.8406 34.7235 39.8406 34.6983H39.7611C39.7611 34.7401 39.7743 34.7773 39.8037 34.8059L39.86 34.7514ZM39.8406 34.6983V31.3666H39.7611V34.6983H39.8406ZM39.8406 31.3666C39.8406 31.3414 39.848 31.3252 39.86 31.3136L39.8037 31.259C39.7743 31.2876 39.7611 31.3249 39.7611 31.3666H39.8406ZM39.86 31.3136C39.8765 31.2975 39.8957 31.2898 39.9197 31.2898V31.2126C39.8747 31.2126 39.8353 31.2283 39.8037 31.259L39.86 31.3136ZM39.9197 31.2898H40.1575V31.2126H39.9197V31.2898ZM40.1575 31.2898C40.1815 31.2898 40.1975 31.2973 40.2099 31.3114L40.2703 31.2612C40.2414 31.2285 40.2025 31.2126 40.1575 31.2126V31.2898ZM40.2142 31.3156C40.2289 31.3277 40.2366 31.3433 40.2366 31.3666H40.3161C40.3161 31.323 40.2997 31.2851 40.266 31.257L40.2142 31.3156ZM40.2366 31.3666V31.5874H40.3161V31.3666H40.2366ZM40.3085 31.6101C40.4929 31.3639 40.7626 31.2396 41.124 31.2396V31.1625C40.7411 31.1625 40.4458 31.2957 40.2443 31.5647L40.3085 31.6101ZM41.124 31.2396C41.477 31.2396 41.7347 31.3469 41.9044 31.5561L41.9669 31.5083C41.7782 31.276 41.4948 31.1625 41.124 31.1625V31.2396ZM41.9046 31.5563C42.0808 31.7693 42.177 32.0451 42.1905 32.3867L42.27 32.3837C42.256 32.0295 42.1557 31.7366 41.9665 31.508L41.9046 31.5563ZM42.1907 32.3887C42.194 32.4236 42.1957 32.4791 42.1957 32.5558H42.2752C42.2752 32.4786 42.2735 32.4203 42.2698 32.3817L42.1907 32.3887ZM42.1957 32.5558C42.1957 32.6325 42.194 32.6879 42.1907 32.7229L42.2698 32.7299C42.2735 32.6913 42.2752 32.6329 42.2752 32.5558H42.1957ZM42.1905 32.7249C42.177 33.063 42.0808 33.339 41.9044 33.5555L41.9667 33.6033C42.1557 33.3716 42.256 33.0789 42.27 32.7279L42.1905 32.7249ZM41.9046 33.5553C41.7313 33.7648 41.4735 33.872 41.124 33.872V33.9491C41.4915 33.9491 41.7747 33.8355 41.9665 33.6035L41.9046 33.5553ZM41.124 33.872C40.7766 33.872 40.5097 33.7511 40.3182 33.5106L40.2552 33.5578C40.4635 33.8192 40.7548 33.9491 41.124 33.9491V33.872ZM40.247 33.5342V34.6983H40.3264V33.5342H40.247ZM40.247 34.6983C40.247 34.7235 40.2395 34.7398 40.2276 34.7514L40.2838 34.8059C40.3133 34.7773 40.3264 34.7401 40.3264 34.6983H40.247ZM40.2255 34.7535C40.2131 34.7676 40.1969 34.7752 40.1729 34.7752V34.8523C40.2179 34.8523 40.257 34.8365 40.2859 34.8037L40.2255 34.7535ZM40.1729 34.7752H39.9197V34.8523H40.1729V34.7752ZM41.0155 33.5427C41.2686 33.5427 41.4602 33.4661 41.58 33.306L41.5158 33.2607C41.4152 33.3949 41.2518 33.4656 41.0155 33.4656V33.5427ZM41.5797 33.3065C41.6995 33.1514 41.7631 32.9492 41.7738 32.7029L41.6943 32.6997C41.6843 32.9351 41.6237 33.1209 41.5161 33.2602L41.5797 33.3065ZM41.7736 32.7051C41.7773 32.6697 41.779 32.6197 41.779 32.5558H41.6995C41.6995 32.619 41.6978 32.666 41.6944 32.6975L41.7736 32.7051ZM41.779 32.5558C41.779 32.236 41.7181 31.9892 41.5902 31.8216C41.4606 31.6518 41.2666 31.5689 41.0155 31.5689V31.646C41.2469 31.646 41.4147 31.7212 41.5263 31.8675C41.6396 32.016 41.6995 32.2433 41.6995 32.5558H41.779ZM41.0155 31.5689C40.768 31.5689 40.576 31.6495 40.4463 31.8149L40.5095 31.8616C40.6211 31.7192 40.7875 31.646 41.0155 31.646V31.5689ZM40.4463 31.815C40.3237 31.9725 40.2576 32.1608 40.247 32.3783L40.3264 32.382C40.3365 32.1781 40.3978 32.0051 40.5097 31.8615L40.4463 31.815ZM40.247 32.3792L40.2417 32.5698L40.3212 32.5719L40.3264 32.3812L40.247 32.3792ZM40.2417 32.5718L40.247 32.7675L40.3264 32.7655L40.3212 32.5699L40.2417 32.5718ZM40.247 32.7678C40.2541 32.9733 40.3226 33.1538 40.4523 33.3078L40.5138 33.2589C40.3956 33.1186 40.333 32.9545 40.3264 32.7652L40.247 32.7678ZM40.4523 33.3078C40.5854 33.4656 40.7751 33.5427 41.0155 33.5427V33.4656C40.7942 33.4656 40.6291 33.3955 40.5138 33.2589L40.4523 33.3078ZM43.154 33.8102L43.171 33.7754L43.154 33.8102ZM42.8077 33.5393L42.7749 33.5611L42.7757 33.5621L42.8077 33.5393ZM42.9628 32.611L42.9871 32.6414L42.9873 32.6414L42.9628 32.611ZM43.7278 32.33L43.7332 32.3682H43.7333L43.7278 32.33ZM44.498 32.2246L44.5036 32.2628C44.5231 32.2601 44.5377 32.2439 44.5377 32.2246H44.498ZM43.521 31.6626L43.5424 31.6951L43.5432 31.6946L43.521 31.6626ZM43.3039 31.8784L43.2692 31.8596C43.268 31.8617 43.267 31.8639 43.2662 31.8662L43.3039 31.8784ZM43.2626 31.9436L43.2378 31.9135C43.2365 31.9144 43.2355 31.9154 43.2344 31.9164L43.2626 31.9436ZM42.8956 31.9336L42.8654 31.9587C42.8666 31.9602 42.8681 31.9616 42.8696 31.9629L42.8956 31.9336ZM42.8646 31.8533L42.8248 31.8517V31.8533H42.8646ZM42.9782 31.5824L42.9458 31.56L42.9456 31.5602L42.9782 31.5824ZM43.3245 31.3164L43.342 31.3511L43.3427 31.3508L43.3245 31.3164ZM44.7305 31.467L44.7014 31.4931L44.7016 31.4934L44.7305 31.467ZM44.9476 33.8303L44.9758 33.8576L44.9476 33.8303ZM44.5393 33.8303L44.5091 33.8554C44.5104 33.8569 44.5118 33.8583 44.5134 33.8596L44.5393 33.8303ZM44.5083 33.5292H44.5481C44.5481 33.5123 44.5366 33.4974 44.5201 33.4924C44.5034 33.4874 44.4854 33.4934 44.4756 33.5074L44.5083 33.5292ZM44.1774 33.8002L44.159 33.766L44.1774 33.8002ZM44.2809 33.3235L44.2524 33.2965V33.2966L44.2809 33.3235ZM44.498 32.5658H44.5377C44.5377 32.5546 44.5326 32.544 44.5239 32.5366C44.5152 32.5293 44.5036 32.526 44.4921 32.5277L44.498 32.5658ZM43.8983 32.6511L43.9039 32.6893L43.904 32.6893L43.8983 32.6511ZM43.3452 32.8217L43.3667 32.8542L43.3673 32.8538L43.3452 32.8217ZM43.3298 33.4289L43.3077 33.461L43.3083 33.4614L43.3298 33.4289ZM43.6243 33.872C43.4611 33.872 43.3102 33.8397 43.171 33.7754L43.1368 33.845C43.2872 33.9145 43.4499 33.9491 43.6243 33.9491V33.872ZM43.171 33.7754C43.0316 33.7109 42.9216 33.6245 42.8396 33.5164L42.7757 33.5621C42.866 33.6815 42.9868 33.7757 43.1368 33.845L43.171 33.7754ZM42.8404 33.5174C42.7622 33.4067 42.7233 33.2855 42.7233 33.1529H42.6438C42.6438 33.3013 42.6877 33.4376 42.7749 33.5611L42.8404 33.5174ZM42.7233 33.1529C42.7233 32.9445 42.8104 32.7749 42.9871 32.6414L42.9383 32.5805C42.743 32.728 42.6438 32.9197 42.6438 33.1529H42.7233ZM42.9873 32.6414C43.1696 32.5029 43.4174 32.4111 43.7332 32.3682L43.7222 32.2918C43.3972 32.3359 43.1349 32.4314 42.9383 32.5806L42.9873 32.6414ZM43.7333 32.3682L44.5036 32.2628L44.4924 32.1864L43.7222 32.2918L43.7333 32.3682ZM44.5377 32.2246V32.0791H44.4583V32.2246H44.5377ZM44.5377 32.0791C44.5377 31.9011 44.4848 31.761 44.3729 31.6662C44.262 31.5723 44.0997 31.5287 43.8932 31.5287V31.6059C44.0898 31.6059 44.23 31.6476 44.3206 31.7243C44.4103 31.8002 44.4583 31.9159 44.4583 32.0791H44.5377ZM43.8932 31.5287C43.7359 31.5287 43.6035 31.5617 43.4987 31.6307L43.5432 31.6946C43.6315 31.6365 43.7472 31.6059 43.8932 31.6059V31.5287ZM43.4995 31.6302C43.3984 31.6933 43.321 31.7696 43.2692 31.8596L43.3385 31.8973C43.3832 31.82 43.4506 31.7524 43.5424 31.6951L43.4995 31.6302ZM43.2662 31.8662C43.2571 31.8925 43.2467 31.9065 43.2378 31.9135L43.2873 31.9738C43.3128 31.954 43.3299 31.9246 43.3415 31.8906L43.2662 31.8662ZM43.2344 31.9164C43.2308 31.92 43.222 31.9251 43.2006 31.9251V32.0023C43.2343 32.0023 43.2668 31.9941 43.2907 31.9709L43.2344 31.9164ZM43.2006 31.9251H42.9782V32.0023H43.2006V31.9251ZM42.9782 31.9251C42.9569 31.9251 42.9385 31.9186 42.9215 31.9043L42.8696 31.9629C42.9008 31.9888 42.9375 32.0023 42.9782 32.0023V31.9251ZM42.9258 31.9085C42.911 31.8919 42.9043 31.874 42.9043 31.8533H42.8248C42.8248 31.8929 42.8387 31.9285 42.8654 31.9587L42.9258 31.9085ZM42.9041 31.8549C42.9072 31.7849 42.9407 31.7017 43.0108 31.6045L42.9456 31.5602C42.8711 31.6637 42.8286 31.7612 42.8248 31.8517L42.9041 31.8549ZM43.0106 31.6047C43.0815 31.5076 43.191 31.4227 43.342 31.3511L43.3071 31.2818C43.148 31.3573 43.0265 31.4497 42.9458 31.56L43.0106 31.6047ZM43.3427 31.3508C43.4906 31.2773 43.6753 31.2396 43.8983 31.2396V31.1625C43.6664 31.1625 43.4685 31.2017 43.3064 31.2821L43.3427 31.3508ZM43.8983 31.2396C44.2793 31.2396 44.5433 31.3272 44.7014 31.4931L44.7598 31.4408C44.58 31.2521 44.2893 31.1625 43.8983 31.1625V31.2396ZM44.7016 31.4934C44.8629 31.6595 44.9441 31.8672 44.9441 32.1193H45.0236C45.0236 31.8495 44.9359 31.6223 44.7595 31.4405L44.7016 31.4934ZM44.9441 32.1193V33.745H45.0236V32.1193H44.9441ZM44.9441 33.745C44.9441 33.7683 44.9362 33.7869 44.9195 33.803L44.9758 33.8576C45.0074 33.8268 45.0236 33.7885 45.0236 33.745H44.9441ZM44.9195 33.803C44.9076 33.8146 44.8909 33.8218 44.865 33.8218V33.899C44.9079 33.899 44.9464 33.8861 44.9758 33.8576L44.9195 33.803ZM44.865 33.8218H44.6272V33.899H44.865V33.8218ZM44.6272 33.8218C44.6013 33.8218 44.5814 33.8145 44.5651 33.801L44.5134 33.8596C44.5454 33.8861 44.5841 33.899 44.6272 33.899V33.8218ZM44.5695 33.8052C44.5555 33.7894 44.5481 33.7701 44.5481 33.745H44.4686C44.4686 33.7868 44.4818 33.8244 44.5091 33.8554L44.5695 33.8052ZM44.5481 33.745V33.5292H44.4686V33.745H44.5481ZM44.4756 33.5074C44.4041 33.6082 44.2993 33.6947 44.159 33.766L44.1958 33.8343C44.3451 33.7585 44.4608 33.6643 44.5411 33.5511L44.4756 33.5074ZM44.159 33.766C44.0216 33.8358 43.8443 33.872 43.6243 33.872V33.9491C43.8525 33.9491 44.0437 33.9117 44.1958 33.8343L44.159 33.766ZM43.7329 33.5728C43.9663 33.5728 44.1596 33.4992 44.3093 33.3504L44.2524 33.2966C44.1194 33.4288 43.9474 33.4957 43.7329 33.4957V33.5728ZM44.3093 33.3505C44.4633 33.1973 44.5377 32.9806 44.5377 32.7063H44.4583C44.4583 32.9673 44.3877 33.162 44.2524 33.2965L44.3093 33.3505ZM44.5377 32.7063V32.5658H44.4583V32.7063H44.5377ZM44.4921 32.5277L43.8926 32.613L43.904 32.6893L44.5037 32.604L44.4921 32.5277ZM43.8927 32.6129C43.6456 32.6467 43.4544 32.7047 43.3233 32.7896L43.3673 32.8538C43.4841 32.7782 43.6617 32.7224 43.9039 32.6893L43.8927 32.6129ZM43.3239 32.7892C43.1909 32.8717 43.1193 32.9816 43.1193 33.1178H43.1988C43.1988 33.0131 43.2516 32.9256 43.3667 32.8542L43.3239 32.7892ZM43.1193 33.1178C43.1193 33.2643 43.1828 33.3801 43.3077 33.461L43.3517 33.3968C43.2492 33.3304 43.1988 33.2388 43.1988 33.1178H43.1193ZM43.3083 33.4614C43.4294 33.5362 43.5714 33.5728 43.7329 33.5728V33.4957C43.5842 33.4957 43.4574 33.4621 43.3511 33.3963L43.3083 33.4614ZM45.944 33.6095L45.9157 33.6366L45.9162 33.637L45.944 33.6095ZM45.6131 32.7565L45.5735 32.7575V32.7579L45.6131 32.7565ZM45.608 32.5558L45.5683 32.5548V32.5568L45.608 32.5558ZM45.6131 32.3551L45.5735 32.3537V32.3541L45.6131 32.3551ZM45.944 31.5071L45.9722 31.5344L45.944 31.5071ZM47.443 31.3315L47.4247 31.3657L47.443 31.3315ZM47.8256 31.6526L47.7919 31.6732L47.7923 31.6738L47.8256 31.6526ZM47.9651 32.0339L47.9254 32.036L47.9255 32.0378L47.9651 32.0339ZM47.9341 32.1142L47.96 32.1435L47.9341 32.1142ZM47.5206 32.1243L47.5454 32.0942L47.5206 32.1243ZM47.4689 32.044L47.4314 32.0569L47.4322 32.0588L47.4689 32.044ZM47.2208 31.7028L47.1985 31.7347L47.1992 31.7352L47.2208 31.7028ZM46.3058 31.7931L46.277 31.7666V31.7666L46.3058 31.7931ZM46.1042 32.3802L46.0645 32.3787V32.3791L46.1042 32.3802ZM46.0992 32.5608L46.0594 32.5597C46.0594 32.5605 46.0594 32.5612 46.0594 32.5619L46.0992 32.5608ZM46.1042 32.7314L46.0645 32.7325V32.7329L46.1042 32.7314ZM46.3058 33.3235L46.277 33.35L46.3058 33.3235ZM47.2208 33.4138L47.2423 33.4462L47.2431 33.4458L47.2208 33.4138ZM47.4689 33.0676L47.4322 33.0527L47.4314 33.0547L47.4689 33.0676ZM47.5206 32.9873L47.5454 33.0174C47.5465 33.0165 47.5476 33.0156 47.5487 33.0146L47.5206 32.9873ZM47.9341 32.9974L47.906 33.0246C47.9068 33.0253 47.9074 33.026 47.9082 33.0266L47.9341 32.9974ZM47.9651 33.0776L47.9255 33.0738L47.9254 33.0755L47.9651 33.0776ZM47.8256 33.459L47.792 33.4382L47.7919 33.4384L47.8256 33.459ZM47.443 33.7801L47.4247 33.7459L47.4244 33.746L47.443 33.7801ZM46.8125 33.872C46.4514 33.872 46.1729 33.7739 45.9718 33.582L45.9162 33.637C46.1356 33.8465 46.436 33.9491 46.8125 33.9491V33.872ZM45.9723 33.5825C45.7743 33.387 45.6664 33.1128 45.6529 32.7551L45.5735 32.7579C45.5875 33.1294 45.7002 33.4239 45.9157 33.6365L45.9723 33.5825ZM45.6529 32.7555L45.6478 32.5548L45.5683 32.5568L45.5735 32.7575L45.6529 32.7555ZM45.6478 32.5568L45.6529 32.3561L45.5735 32.3541L45.5683 32.5548L45.6478 32.5568ZM45.6529 32.3565C45.6664 31.9987 45.7743 31.7264 45.9722 31.5344L45.9159 31.4798C45.7002 31.6892 45.5875 31.9822 45.5735 32.3537L45.6529 32.3565ZM45.9722 31.5344C46.1732 31.3392 46.4515 31.2396 46.8125 31.2396V31.1625C46.4358 31.1625 46.1352 31.2669 45.9159 31.4798L45.9722 31.5344ZM46.8125 31.2396C47.0558 31.2396 47.2594 31.2823 47.4247 31.3657L47.4614 31.2973C47.282 31.2067 47.0652 31.1625 46.8125 31.1625V31.2396ZM47.4247 31.3657C47.5924 31.4503 47.7138 31.5532 47.7919 31.6732L47.8591 31.632C47.7718 31.4978 47.6383 31.3866 47.4614 31.2973L47.4247 31.3657ZM47.7923 31.6738C47.8753 31.7963 47.919 31.9169 47.9254 32.036L48.0049 32.0319C47.9975 31.8968 47.948 31.7631 47.8588 31.6314L47.7923 31.6738ZM47.9255 32.0378C47.9279 32.06 47.9216 32.0739 47.9082 32.085L47.96 32.1435C47.995 32.1144 48.0093 32.0748 48.0047 32.0301L47.9255 32.0378ZM47.9082 32.085C47.892 32.0985 47.8721 32.1058 47.8462 32.1058V32.1829C47.8893 32.1829 47.9279 32.1701 47.96 32.1435L47.9082 32.085ZM47.8462 32.1058H47.5981V32.1829H47.8462V32.1058ZM47.5981 32.1058C47.5679 32.1058 47.5525 32.0997 47.5454 32.0942L47.4958 32.1544C47.5229 32.1756 47.5593 32.1829 47.5981 32.1829V32.1058ZM47.5454 32.0942C47.5365 32.0872 47.5223 32.0683 47.5056 32.0292L47.4322 32.0588C47.4498 32.1 47.4702 32.1346 47.4958 32.1544L47.5454 32.0942ZM47.5064 32.0311C47.4459 31.8655 47.3589 31.7434 47.2423 31.6704L47.1992 31.7352C47.2963 31.796 47.3747 31.9013 47.4314 32.0569L47.5064 32.0311ZM47.2431 31.6709C47.1281 31.5953 46.9854 31.5588 46.8176 31.5588V31.636C46.9736 31.636 47.0997 31.6698 47.1985 31.7347L47.2431 31.6709ZM46.8176 31.5588C46.5949 31.5588 46.4132 31.6272 46.277 31.7666L46.3347 31.8197C46.4534 31.6981 46.613 31.636 46.8176 31.636V31.5588ZM46.277 31.7666C46.1437 31.9032 46.075 32.1097 46.0645 32.3787L46.144 32.3816C46.1542 32.1221 46.22 31.9372 46.3347 31.8196L46.277 31.7666ZM46.0645 32.3791L46.0594 32.5597L46.1387 32.5619L46.144 32.3812L46.0645 32.3791ZM46.0594 32.5619L46.0645 32.7325L46.144 32.7303L46.1387 32.5597L46.0594 32.5619ZM46.0645 32.7329C46.075 33.0051 46.1435 33.2133 46.277 33.35L46.3347 33.297C46.22 33.1795 46.1542 32.993 46.144 32.73L46.0645 32.7329ZM46.277 33.35C46.41 33.4864 46.592 33.5527 46.8176 33.5527V33.4756C46.609 33.4756 46.4498 33.4149 46.3347 33.297L46.277 33.35ZM46.8176 33.5527C46.9851 33.5527 47.1275 33.5181 47.2423 33.4462L47.1992 33.3814C47.1003 33.4433 46.974 33.4756 46.8176 33.4756V33.5527ZM47.2431 33.4458C47.3591 33.3695 47.4459 33.246 47.5064 33.0805L47.4314 33.0547C47.3747 33.2103 47.2961 33.3177 47.1985 33.3819L47.2431 33.4458ZM47.5056 33.0824C47.5223 33.0433 47.5365 33.0244 47.5454 33.0174L47.4958 32.9572C47.4702 32.977 47.4498 33.0116 47.4322 33.0528L47.5056 33.0824ZM47.5487 33.0146C47.5558 33.0076 47.5698 33.0008 47.5981 33.0008V32.9237C47.5576 32.9237 47.5198 32.9335 47.4924 32.96L47.5487 33.0146ZM47.5981 33.0008H47.8462V32.9237H47.5981V33.0008ZM47.8462 33.0008C47.8702 33.0008 47.8895 33.0085 47.906 33.0246L47.9623 32.9701C47.9305 32.9393 47.8911 32.9237 47.8462 32.9237V33.0008ZM47.9082 33.0266C47.9216 33.0377 47.9279 33.0516 47.9255 33.0738L48.0047 33.0815C48.0093 33.0368 47.995 32.9972 47.96 32.9681L47.9082 33.0266ZM47.9254 33.0755C47.919 33.1912 47.8755 33.3119 47.792 33.4382L47.8589 33.4798C47.948 33.3451 47.9974 33.2116 48.0049 33.0797L47.9254 33.0755ZM47.7919 33.4384C47.7138 33.5584 47.5924 33.6613 47.4247 33.7459L47.4614 33.8143C47.6383 33.725 47.7718 33.6138 47.8591 33.4796L47.7919 33.4384ZM47.4244 33.746C47.2628 33.8293 47.0595 33.872 46.8125 33.872V33.9491C47.0685 33.9491 47.2855 33.9049 47.4616 33.8142L47.4244 33.746ZM48.6152 33.8303L48.585 33.8554C48.5863 33.8569 48.5877 33.8583 48.5893 33.8596L48.6152 33.8303ZM48.6152 30.333L48.6433 30.3602L48.6152 30.333ZM49.0442 30.333L49.014 30.3581C49.0154 30.3596 49.0168 30.361 49.0183 30.3622L49.0442 30.333ZM49.0804 31.5824H49.0407C49.0407 31.5988 49.0513 31.6135 49.0674 31.6188C49.0834 31.6242 49.1012 31.6191 49.1117 31.6062L49.0804 31.5824ZM49.4318 31.3014L49.4493 31.3361L49.4499 31.3357L49.4318 31.3014ZM50.7035 31.5121L50.6733 31.5372L50.6738 31.5377L50.7035 31.5121ZM50.9464 33.8303L50.9182 33.803L50.9464 33.8303ZM50.5174 33.8303L50.4872 33.8554C50.4885 33.8569 50.49 33.8583 50.4915 33.8596L50.5174 33.8303ZM50.3055 31.8031L50.2755 31.8285L50.2758 31.8289L50.3055 31.8031ZM49.2716 31.8082L49.2428 31.7816V31.7816L49.2716 31.8082ZM49.0442 33.8303L49.016 33.803L49.0442 33.8303ZM48.7031 33.8218C48.6772 33.8218 48.6573 33.8145 48.6411 33.801L48.5893 33.8596C48.6212 33.8861 48.66 33.899 48.7031 33.899V33.8218ZM48.6454 33.8052C48.6314 33.7894 48.6239 33.7701 48.6239 33.745H48.5445C48.5445 33.7868 48.5576 33.8244 48.585 33.8554L48.6454 33.8052ZM48.6239 33.745V30.4133H48.5445V33.745H48.6239ZM48.6239 30.4133C48.6239 30.3881 48.6314 30.3718 48.6433 30.3602L48.5871 30.3057C48.5576 30.3343 48.5445 30.3715 48.5445 30.4133H48.6239ZM48.6433 30.3602C48.6598 30.3441 48.6789 30.3364 48.7031 30.3364V30.2593C48.6581 30.2593 48.6187 30.275 48.5871 30.3057L48.6433 30.3602ZM48.7031 30.3364H48.9615V30.2593H48.7031V30.3364ZM48.9615 30.3364C48.9855 30.3364 49.0016 30.344 49.014 30.3581L49.0744 30.3079C49.0454 30.2751 49.0065 30.2593 48.9615 30.2593V30.3364ZM49.0183 30.3622C49.0329 30.3743 49.0407 30.39 49.0407 30.4133H49.1201C49.1201 30.3696 49.1038 30.3317 49.0701 30.3037L49.0183 30.3622ZM49.0407 30.4133V31.5824H49.1201V30.4133H49.0407ZM49.1117 31.6062C49.2082 31.4866 49.3207 31.3968 49.4493 31.3361L49.4145 31.2667C49.2742 31.333 49.1524 31.4306 49.0491 31.5586L49.1117 31.6062ZM49.4499 31.3357C49.5773 31.2723 49.7378 31.2396 49.9333 31.2396V31.1625C49.729 31.1625 49.5553 31.1966 49.4137 31.2671L49.4499 31.3357ZM49.9333 31.2396C50.2548 31.2396 50.4996 31.3399 50.6733 31.5372L50.7337 31.4871C50.5422 31.2695 50.2734 31.1625 49.9333 31.1625V31.2396ZM50.6738 31.5377C50.8518 31.733 50.9429 31.9957 50.9429 32.33H51.0223C51.0223 31.9818 50.9273 31.6993 50.7332 31.4866L50.6738 31.5377ZM50.9429 32.33V33.745H51.0223V32.33H50.9429ZM50.9429 33.745C50.9429 33.7683 50.9349 33.7869 50.9182 33.803L50.9745 33.8576C51.0061 33.8268 51.0223 33.7885 51.0223 33.745H50.9429ZM50.9182 33.803C50.9065 33.8146 50.8896 33.8218 50.8637 33.8218V33.899C50.9066 33.899 50.9451 33.8861 50.9745 33.8576L50.9182 33.803ZM50.8637 33.8218H50.6053V33.899H50.8637V33.8218ZM50.6053 33.8218C50.5794 33.8218 50.5595 33.8145 50.5433 33.801L50.4915 33.8596C50.5234 33.8861 50.5622 33.899 50.6053 33.899V33.8218ZM50.5476 33.8052C50.5336 33.7894 50.5261 33.7701 50.5261 33.745H50.4467C50.4467 33.7868 50.4598 33.8244 50.4872 33.8554L50.5476 33.8052ZM50.5261 33.745V32.3551H50.4467V33.745H50.5261ZM50.5261 32.3551C50.5261 32.1115 50.4641 31.9171 50.3351 31.7774L50.2758 31.8289C50.3878 31.9501 50.4467 32.1237 50.4467 32.3551H50.5261ZM50.3354 31.7778C50.2089 31.6369 50.0259 31.5689 49.7937 31.5689V31.646C50.0094 31.646 50.1677 31.7085 50.2755 31.8285L50.3354 31.7778ZM49.7937 31.5689C49.5674 31.5689 49.3824 31.639 49.2428 31.7816L49.3004 31.8347C49.4228 31.7097 49.5858 31.646 49.7937 31.646V31.5689ZM49.2428 31.7816C49.1063 31.9212 49.0407 32.1141 49.0407 32.3551H49.1201C49.1201 32.1277 49.1818 31.956 49.3005 31.8347L49.2428 31.7816ZM49.0407 32.3551V33.745H49.1201V32.3551H49.0407ZM49.0407 33.745C49.0407 33.7683 49.0327 33.7869 49.016 33.803L49.0723 33.8576C49.1039 33.8268 49.1201 33.7885 49.1201 33.745H49.0407ZM49.016 33.803C49.0041 33.8146 48.9874 33.8218 48.9615 33.8218V33.899C49.0044 33.899 49.0429 33.8861 49.0723 33.8576L49.016 33.803ZM48.9615 33.8218H48.7031V33.899H48.9615V33.8218ZM51.9512 33.5945L51.9224 33.6211L51.9229 33.6215L51.9512 33.5945ZM51.6049 32.7214L51.5651 32.7225V32.7235L51.6049 32.7214ZM51.5996 32.5508L51.5599 32.5496C51.5599 32.5504 51.5599 32.5511 51.5599 32.5519L51.5996 32.5508ZM51.6049 32.3852L51.5651 32.3827V32.384L51.6049 32.3852ZM51.9563 31.5222L51.9278 31.4953L51.9275 31.4955L51.9563 31.5222ZM53.6879 31.5573L53.6577 31.5824L53.658 31.5826L53.6879 31.5573ZM53.967 32.6812L53.9952 32.7085L53.967 32.6812ZM52.0958 32.7113V32.6728C52.0739 32.6728 52.0561 32.69 52.0561 32.7113H52.0958ZM52.0958 32.7565H52.0561L52.0562 32.7583L52.0958 32.7565ZM52.2975 33.3135L52.2662 33.3372L52.2668 33.338L52.2975 33.3135ZM53.1865 33.4489L53.2074 33.4817L53.2078 33.4815L53.1865 33.4489ZM53.4139 33.2533L53.3821 33.2301L53.3815 33.2311L53.4139 33.2533ZM53.4811 33.183L53.4989 33.2175C53.4999 33.2171 53.5007 33.2166 53.5016 33.2161L53.4811 33.183ZM53.8998 33.193L53.8744 33.2227L53.8998 33.193ZM53.7862 33.5292L53.7566 33.5034L53.7561 33.5039L53.7862 33.5292ZM53.3882 33.8002L53.4044 33.8354L53.4047 33.8352L53.3882 33.8002ZM53.5121 32.3651V32.4037C53.5341 32.4037 53.5519 32.3864 53.5519 32.3651H53.5121ZM53.3157 31.7881L53.2853 31.8129L53.286 31.8136L53.3157 31.7881ZM52.2819 31.7881L52.2516 31.7633L52.2514 31.7633L52.2819 31.7881ZM52.0958 32.3651H52.0561C52.0561 32.3864 52.0739 32.4037 52.0958 32.4037V32.3651ZM52.8041 33.872C52.4579 33.872 52.1844 33.7696 51.9795 33.5674L51.9229 33.6215C52.1452 33.8408 52.4404 33.9491 52.8041 33.9491V33.872ZM51.98 33.5678C51.7778 33.3619 51.6648 33.0804 51.6444 32.7193L51.5651 32.7235C51.5863 33.0983 51.7042 33.3988 51.9224 33.6211L51.98 33.5678ZM51.6446 32.7202L51.6393 32.5496L51.5599 32.5519L51.5651 32.7225L51.6446 32.7202ZM51.6393 32.5519L51.6446 32.3864L51.5651 32.384L51.5599 32.5496L51.6393 32.5519ZM51.6444 32.3877C51.6681 32.0333 51.7827 31.7549 51.985 31.5488L51.9275 31.4955C51.7096 31.7176 51.5898 32.0145 51.5651 32.3827L51.6444 32.3877ZM51.9849 31.549C52.1899 31.3434 52.46 31.2396 52.7988 31.2396V31.1625C52.4417 31.1625 52.1499 31.2727 51.9278 31.4953L51.9849 31.549ZM52.7988 31.2396C53.1722 31.2396 53.4565 31.355 53.6577 31.5824L53.7181 31.5321C53.4989 31.2845 53.1906 31.1625 52.7988 31.1625V31.2396ZM53.658 31.5826C53.8602 31.8079 53.9635 32.1158 53.9635 32.5106H54.043C54.043 32.1027 53.936 31.775 53.718 31.5319L53.658 31.5826ZM53.9635 32.5106V32.5959H54.043V32.5106H53.9635ZM53.9635 32.5959C53.9635 32.6193 53.9556 32.6379 53.9389 32.654L53.9952 32.7085C54.0268 32.6778 54.043 32.6395 54.043 32.5959H53.9635ZM53.9389 32.654C53.9271 32.6655 53.9103 32.6728 53.8844 32.6728V32.7499C53.9273 32.7499 53.9658 32.7371 53.9952 32.7085L53.9389 32.654ZM53.8844 32.6728H52.0958V32.7499H53.8844V32.6728ZM52.0561 32.7113V32.7565H52.1356V32.7113H52.0561ZM52.0562 32.7583C52.0669 32.9828 52.1365 33.1763 52.2662 33.3372L52.3288 33.2897C52.2104 33.1428 52.1456 32.9651 52.1356 32.7547L52.0562 32.7583ZM52.2668 33.338C52.4021 33.4977 52.5806 33.5778 52.7988 33.5778V33.5007C52.6036 33.5007 52.4479 33.4303 52.3282 33.289L52.2668 33.338ZM52.7988 33.5778C52.9624 33.5778 53.0994 33.5468 53.2074 33.4817L53.1656 33.4162C53.0738 33.4715 52.9525 33.5007 52.7988 33.5007V33.5778ZM53.2078 33.4815C53.3138 33.4164 53.3942 33.3479 53.4465 33.2754L53.3815 33.2311C53.3373 33.2924 53.2661 33.3544 53.1653 33.4163L53.2078 33.4815ZM53.4457 33.2764C53.4608 33.2569 53.4732 33.2422 53.4832 33.2318C53.4881 33.2267 53.4921 33.223 53.4951 33.2204C53.4983 33.2178 53.4996 33.2172 53.4989 33.2175L53.4633 33.1485C53.4497 33.1552 53.4365 33.1672 53.4249 33.1793C53.4123 33.1924 53.3982 33.2095 53.3821 33.2301L53.4457 33.2764ZM53.5016 33.2161C53.509 33.2118 53.5288 33.2065 53.569 33.2065V33.1294C53.5266 33.1294 53.4878 33.1341 53.4608 33.1499L53.5016 33.2161ZM53.569 33.2065H53.8224V33.1294H53.569V33.2065ZM53.8224 33.2065C53.8456 33.2065 53.862 33.2126 53.8744 33.2227L53.9254 33.1634C53.8965 33.14 53.8612 33.1294 53.8224 33.1294V33.2065ZM53.8744 33.2227C53.8845 33.2309 53.8912 33.2427 53.8912 33.2633H53.9707C53.9707 33.2237 53.9565 33.1886 53.9254 33.1634L53.8744 33.2227ZM53.8912 33.2633C53.8912 33.3218 53.8518 33.4012 53.7566 33.5034L53.8157 33.5551C53.9135 33.4499 53.9707 33.3519 53.9707 33.2633H53.8912ZM53.7561 33.5039C53.6679 33.6023 53.5404 33.6897 53.3715 33.7651L53.4047 33.8352C53.5805 33.7567 53.7183 33.6635 53.8162 33.5546L53.7561 33.5039ZM53.3718 33.765C53.209 33.836 53.0201 33.872 52.8041 33.872V33.9491C53.0291 33.9491 53.2295 33.9116 53.4044 33.8354L53.3718 33.765ZM53.5519 32.3651V32.3501H53.4724V32.3651H53.5519ZM53.5519 32.3501C53.5519 32.1118 53.4842 31.9148 53.3456 31.7625L53.286 31.8136C53.4093 31.9491 53.4724 32.1267 53.4724 32.3501H53.5519ZM53.3462 31.7633C53.2103 31.6065 53.0264 31.5287 52.7988 31.5287V31.6059C53.0054 31.6059 53.1661 31.6753 53.2853 31.8129L53.3462 31.7633ZM52.7988 31.5287C52.5714 31.5287 52.3873 31.6065 52.2516 31.7633L52.3123 31.8129C52.4315 31.6753 52.5922 31.6059 52.7988 31.6059V31.5287ZM52.2514 31.7633C52.1201 31.9156 52.0561 32.1124 52.0561 32.3501H52.1356C52.1356 32.1261 52.1956 31.9483 52.3125 31.8129L52.2514 31.7633ZM52.0561 32.3501V32.3651H52.1356V32.3501H52.0561ZM52.0958 32.4037H53.5121V32.3266H52.0958V32.4037Z" fill="#51504F"/>
<path d="M35.0822 45.6447C35.0121 45.6447 34.9509 45.6191 34.8983 45.5682C34.8458 45.5171 34.8195 45.4577 34.8195 45.3897C34.8195 45.3216 34.8239 45.275 34.8327 45.2494L38.0895 37.0018C38.1594 36.8148 38.2996 36.7213 38.5097 36.7213H39.4027C39.6128 36.7213 39.7528 36.8148 39.8229 37.0018L43.0665 45.2494L43.0928 45.3897C43.0928 45.4577 43.0665 45.5171 43.0139 45.5682C42.9615 45.6191 42.9001 45.6447 42.8302 45.6447H42.1604C42.0641 45.6447 41.9897 45.6234 41.9371 45.581C41.8847 45.5299 41.8495 45.479 41.8321 45.4279L41.1098 43.6178H36.8026L36.0802 45.4279C36.0627 45.479 36.0233 45.5299 35.9621 45.581C35.9095 45.6234 35.8394 45.6447 35.752 45.6447H35.0822ZM40.729 42.5215L38.9562 37.9961L37.1834 42.5215H40.729ZM44.5232 37.7794C44.4357 37.7794 44.3613 37.7539 44.2999 37.7029C44.2473 37.6434 44.2211 37.5712 44.2211 37.4862V36.7978C44.2211 36.7128 44.2473 36.6406 44.2999 36.5811C44.3613 36.5216 44.4357 36.4919 44.5232 36.4919H45.3505C45.4381 36.4919 45.5125 36.5216 45.5737 36.5811C45.635 36.6406 45.6657 36.7128 45.6657 36.7978V37.4862C45.6657 37.5712 45.635 37.6434 45.5737 37.7029C45.5125 37.7539 45.4381 37.7794 45.3505 37.7794H44.5232ZM44.6283 45.6447C44.5407 45.6447 44.4663 45.6191 44.405 45.5682C44.3524 45.5086 44.3261 45.4364 44.3261 45.3514V39.3091C44.3261 39.2241 44.3524 39.1561 44.405 39.1051C44.4663 39.0456 44.5407 39.0159 44.6283 39.0159H45.2585C45.3461 39.0159 45.4162 39.0456 45.4686 39.1051C45.53 39.1561 45.5606 39.2241 45.5606 39.3091V45.3514C45.5606 45.4364 45.53 45.5086 45.4686 45.5682C45.4162 45.6191 45.3461 45.6447 45.2585 45.6447H44.6283ZM47.8087 45.6447C47.7211 45.6447 47.6467 45.6191 47.5854 45.5682C47.5329 45.5086 47.5067 45.4364 47.5067 45.3514V39.3218C47.5067 39.2368 47.5329 39.1646 47.5854 39.1051C47.6467 39.0456 47.7211 39.0159 47.8087 39.0159H48.4128C48.5002 39.0159 48.5748 39.0456 48.636 39.1051C48.6973 39.1646 48.728 39.2368 48.728 39.3218V39.8827C49.0869 39.3048 49.6998 39.0159 50.5665 39.0159H51.0786C51.1661 39.0159 51.2362 39.0456 51.2887 39.1051C51.35 39.1561 51.3805 39.2241 51.3805 39.3091V39.8317C51.3805 39.9167 51.35 39.9847 51.2887 40.0357C51.2362 40.0867 51.1661 40.1122 51.0786 40.1122H50.2907C49.8178 40.1122 49.4458 40.2482 49.1745 40.5201C48.903 40.7836 48.7672 41.1448 48.7672 41.6036V45.3514C48.7672 45.4364 48.7367 45.5086 48.6754 45.5682C48.614 45.6191 48.5396 45.6447 48.4521 45.6447H47.8087ZM53.4801 45.6447C53.3927 45.6447 53.3182 45.6191 53.257 45.5682C53.2044 45.5086 53.1782 45.4364 53.1782 45.3514V40.0357H52.0619C51.9743 40.0357 51.9 40.0102 51.8388 39.9592C51.7862 39.8997 51.7599 39.8275 51.7599 39.7425V39.3091C51.7599 39.2241 51.7862 39.1561 51.8388 39.1051C51.9 39.0456 51.9743 39.0159 52.0619 39.0159H53.1782V38.3785C53.1782 36.9338 53.9311 36.2114 55.4369 36.2114H56.1723C56.2598 36.2114 56.3299 36.2412 56.3824 36.3006C56.4437 36.3516 56.4744 36.4196 56.4744 36.5046V36.938C56.4744 37.023 56.4437 37.0953 56.3824 37.1547C56.3299 37.2057 56.2598 37.2312 56.1723 37.2312H55.4632C55.0692 37.2312 54.7935 37.3332 54.6358 37.5372C54.4783 37.7326 54.3995 38.0343 54.3995 38.4422V39.0159H57.2097V36.5046C57.2097 36.4196 57.2361 36.3516 57.2885 36.3006C57.3499 36.2412 57.4242 36.2114 57.5118 36.2114H58.1158C58.2034 36.2114 58.2735 36.2412 58.3259 36.3006C58.3873 36.3516 58.4179 36.4196 58.4179 36.5046V45.3514C58.4179 45.4364 58.3873 45.5086 58.3259 45.5682C58.2735 45.6191 58.2034 45.6447 58.1158 45.6447H57.5118C57.4242 45.6447 57.3499 45.6191 57.2885 45.5682C57.2361 45.5086 57.2097 45.4364 57.2097 45.3514V40.0357H54.3995V45.3514C54.3995 45.4364 54.3688 45.5086 54.3076 45.5682C54.255 45.6191 54.185 45.6447 54.0975 45.6447H53.4801ZM63.1666 45.7721C62.2036 45.7721 61.4551 45.5086 60.9211 44.9817C60.3958 44.4548 60.1156 43.7538 60.0806 42.8784L60.0674 42.3303L60.0806 41.7822C60.1156 40.9152 60.4001 40.2184 60.9341 39.6915C61.4682 39.1561 62.2123 38.8884 63.1666 38.8884C64.1209 38.8884 64.865 39.1561 65.3991 39.6915C65.9331 40.2184 66.2176 40.9152 66.2527 41.7822C66.2615 41.8757 66.2658 42.0583 66.2658 42.3303C66.2658 42.6022 66.2615 42.7849 66.2527 42.8784C66.2176 43.7538 65.9331 44.4548 65.3991 44.9817C64.8738 45.5086 64.1296 45.7721 63.1666 45.7721ZM63.1666 44.7906C63.7181 44.7906 64.1515 44.6206 64.4667 44.2807C64.7906 43.9408 64.9658 43.452 64.992 42.8146C65.0008 42.7296 65.0051 42.5682 65.0051 42.3303C65.0051 42.0923 65.0008 41.9309 64.992 41.8459C64.9658 41.2085 64.7906 40.7197 64.4667 40.3799C64.1515 40.0399 63.7181 39.87 63.1666 39.87C62.6151 39.87 62.1773 40.0399 61.8534 40.3799C61.5295 40.7197 61.3588 41.2085 61.3413 41.8459L61.3281 42.3303L61.3413 42.8146C61.3588 43.452 61.5295 43.9408 61.8534 44.2807C62.1773 44.6206 62.6151 44.7906 63.1666 44.7906ZM69.543 45.6447C69.4291 45.6447 69.3416 45.6191 69.2802 45.5682C69.219 45.5171 69.1664 45.4364 69.1227 45.3259L67.2579 39.4111L67.2316 39.2836C67.2316 39.2071 67.2579 39.1434 67.3105 39.0924C67.3717 39.0414 67.4373 39.0159 67.5074 39.0159H68.0852C68.1727 39.0159 68.2428 39.0414 68.2953 39.0924C68.3566 39.1349 68.396 39.1816 68.4135 39.2326L69.8712 44.0384L71.4339 39.2836C71.4515 39.2156 71.4908 39.1561 71.5521 39.1051C71.6135 39.0456 71.6966 39.0159 71.8017 39.0159H72.2481C72.3532 39.0159 72.4363 39.0456 72.4977 39.1051C72.559 39.1561 72.5983 39.2156 72.6159 39.2836L74.1786 44.0384L75.6362 39.2326C75.645 39.1901 75.6757 39.1434 75.7281 39.0924C75.7895 39.0414 75.8638 39.0159 75.9514 39.0159H76.5424C76.6125 39.0159 76.6736 39.0414 76.7262 39.0924C76.7787 39.1434 76.8049 39.2071 76.8049 39.2836L76.7787 39.4111L74.927 45.3259C74.8833 45.4364 74.8307 45.5171 74.7695 45.5682C74.7082 45.6191 74.6163 45.6447 74.4938 45.6447H73.9815C73.7452 45.6447 73.6007 45.5384 73.5482 45.3259L72.0248 40.7623L70.5015 45.3259C70.4316 45.5384 70.2827 45.6447 70.0551 45.6447H69.543Z" fill="#51504F"/>
</svg>
