<svg width="100%" height="100%" viewBox="0 0 80 80" fill="none" xmlns="http://www.w3.org/2000/svg">
<circle cx="40" cy="40" r="39.5" fill="white" stroke="#ECECEC"/>
<mask id="mask0_8870_32765" style="mask-type:alpha" maskUnits="userSpaceOnUse" x="0" y="0" width="80" height="80">
<circle cx="40" cy="40" r="39.5" fill="white" stroke="#D0D0CE"/>
</mask>
<g mask="url(#mask0_8870_32765)">
</g>
<path fill-rule="evenodd" clip-rule="evenodd" d="M68.0409 37.1514C67.9821 37.0234 67.9557 36.959 67.924 36.8975C67.0742 35.2496 66.2266 33.6016 65.3681 31.9536C65.282 31.7884 65.2929 31.6909 65.4107 31.5483C66.7629 29.9382 68.0977 28.3192 69.4521 26.7158C69.4999 26.6592 69.5425 26.5993 69.5604 26.4984C69.1672 26.6029 68.774 26.7062 68.3786 26.8124C66.7467 27.2534 65.1018 27.6921 63.4852 28.1397C63.3334 28.1814 63.2646 28.1362 63.1881 28.0074C62.2619 26.4285 61.3291 24.8451 60.3919 23.2863C60.3441 23.2045 60.2918 23.1252 60.1896 23.0569C60.1145 23.4778 60.0384 23.8964 59.9646 24.3173C59.7046 25.8027 59.4447 27.2792 59.1869 28.7713C59.1587 28.9314 59.1203 29.092 59.1067 29.2523C59.0938 29.4055 59.0163 29.4621 58.8795 29.5062C56.955 30.1231 55.0347 30.7444 53.1124 31.3657C53.028 31.3927 52.9452 31.4283 52.8546 31.5118C54.4274 32.1487 56.0003 32.7856 57.595 33.4337C57.5369 33.4807 57.4985 33.5172 57.4559 33.545C56.4728 34.1931 55.4876 34.8411 54.5067 35.4914C54.389 35.5698 54.2959 35.5809 54.1638 35.5201C52.9885 34.9812 51.8045 34.4512 50.6248 33.9167C50.0962 33.6762 49.6221 33.3578 49.2529 32.8945C48.4162 31.8523 48.5823 30.6676 49.6964 29.9327C50.0612 29.6944 50.4763 29.5184 50.8891 29.3804C52.7744 28.7546 54.6684 28.1511 56.5471 27.5453C56.7057 27.4939 56.7787 27.4217 56.8093 27.2469C57.0627 25.7593 57.3226 24.2628 57.5869 22.793C57.7276 21.9979 57.8019 21.1851 58.1811 20.4547C58.3264 20.1741 58.5001 19.9001 58.7098 19.6663C59.4613 18.8156 60.5077 18.7844 61.3094 19.5933C61.5781 19.8672 61.8075 20.1879 62.0063 20.5197C62.8801 21.9739 63.7408 23.437 64.6059 24.9068C64.7075 25.0799 64.7988 25.1146 64.986 25.0643C67.0941 24.4875 69.2022 23.9196 71.3212 23.3517C71.7581 23.2344 72.1972 23.1918 72.645 23.2771C73.6171 23.4624 74.0431 24.2169 73.7132 25.1767C73.564 25.6132 73.3047 25.9807 73.0142 26.3303C71.5418 28.0963 70.0651 29.8712 68.6014 31.6305C68.481 31.7748 68.4786 31.8777 68.5621 32.0403C69.4446 33.735 70.3185 35.4253 71.2054 37.1401C71.4153 37.5454 71.5768 37.9685 71.5811 38.4339C71.5914 39.494 70.8296 40.3625 69.7964 40.5184C69.2175 40.6046 68.6801 40.4785 68.1361 40.3079C66.8145 39.8915 65.4928 39.4817 64.1602 39.0742C64.0372 39.0368 63.9903 38.9871 63.9682 38.8524C63.8162 37.9015 63.6493 36.9528 63.4876 36.0018C63.4835 35.9758 63.4911 35.948 63.4955 35.8896C65.005 36.315 66.5101 36.7336 68.0612 37.1723" fill="#E25A1C"/>
<path fill-rule="evenodd" clip-rule="evenodd" d="M65.4199 51.0679C64.2271 51.0661 63.0388 51.0601 61.8373 51.0655C61.6793 51.0655 61.5904 51.0194 61.503 50.8826C60.0918 48.6913 58.6631 46.4955 57.265 44.313C57.2198 44.2436 57.172 44.1765 57.0918 44.0592C56.7881 46.4198 56.4888 48.7358 56.1896 51.0519H53.0657C53.1024 50.7423 53.1349 50.4417 53.1734 50.1433C53.477 47.7604 53.785 45.3998 54.0909 43.0169C54.3836 40.7454 54.6741 38.4739 54.9712 36.2024C54.9798 36.1354 55.0241 36.0492 55.0779 36.0135C56.1526 35.2987 57.2318 34.5905 58.311 33.8823C58.3265 33.8719 58.3485 33.871 58.404 33.8545C58.0785 36.3932 57.7552 38.9097 57.4297 41.4262C57.4426 41.4349 57.4553 41.4445 57.4682 41.4532C59.1612 39.5424 60.8542 37.6228 62.58 35.6853C62.6296 35.9793 62.6731 36.2309 62.7157 36.4825C62.8369 37.2019 62.9538 37.9256 63.0827 38.6449C63.1091 38.7901 63.0706 38.8788 62.9761 38.9812C61.8816 40.1482 60.7915 41.3195 59.6992 42.4998C59.6514 42.5513 59.6062 42.6043 59.5516 42.6653C59.5865 42.7216 59.6165 42.7767 59.6514 42.827C61.5323 45.5216 63.4088 48.2163 65.2875 50.9109C65.3216 50.9597 65.371 50.998 65.4129 51.0414V51.0839" fill="#3C3A3E"/>
<path fill-rule="evenodd" clip-rule="evenodd" d="M28.5009 43.9412C28.4531 43.694 28.419 43.3288 28.3107 42.9881C27.7864 41.3423 26.1327 40.4493 24.4222 40.8479C22.5413 41.2933 21.1891 42.801 21.0143 44.7674C20.8701 46.215 21.6347 47.618 23.0547 48.1302C24.1994 48.5511 25.3047 48.3751 26.3315 47.7493C27.6881 46.9209 28.4221 45.6894 28.516 43.9412H28.5009ZM20.2434 50.0654C20.1512 50.7736 20.0625 51.4394 19.9769 52.1075C19.8626 52.9939 19.7475 53.8824 19.6383 54.7799C19.6256 54.8835 19.5948 54.9296 19.4856 54.9287C18.627 54.9253 17.7685 54.9262 16.9078 54.9244C16.8881 54.9244 16.8685 54.914 16.8224 54.9002C16.8744 54.4815 16.9248 54.0606 16.9786 53.6419C17.168 52.1721 17.3565 50.7023 17.5487 49.2325C17.7694 47.5489 17.942 45.8698 18.2238 44.1995C18.7218 41.2377 21.1947 38.6989 24.0783 38.0531C25.7539 37.6834 27.3552 37.8547 28.8188 38.8169C30.2781 39.7745 31.1126 41.1775 31.3092 42.9146C31.5801 45.3865 30.6866 47.4353 28.9717 49.1501C27.8401 50.2658 26.4813 50.974 24.9303 51.2145C23.3203 51.4617 21.8064 51.1885 20.452 50.2213C20.4024 50.1857 20.3487 50.1545 20.2635 50.0997" fill="#3C3A3E"/>
<path fill-rule="evenodd" clip-rule="evenodd" d="M18.8014 36.0397C17.8402 36.7701 16.9118 37.4739 15.9834 38.1798C15.8333 37.9393 15.6994 37.6988 15.5421 37.4739C15.138 36.8971 14.6355 36.4673 13.9059 36.4161C13.2986 36.3724 12.7787 36.5759 12.3658 37.0329C11.9966 37.4405 11.9485 38.0217 12.2933 38.4827C12.6734 38.9904 13.0884 39.4715 13.5144 39.9414C14.22 40.7208 14.9562 41.4691 15.6553 42.2574C16.291 42.97 16.8 43.7673 16.9573 44.7516C17.1442 45.9097 16.9173 47.0009 16.3805 48.0253C15.3866 49.9071 13.8246 51.0094 11.7493 51.3435C10.8362 51.4938 9.9274 51.4644 9.04047 51.1972C7.85864 50.8431 7.03507 50.0525 6.50641 48.9479C6.31963 48.5537 6.17654 48.1373 6.00833 47.7142C7.04162 47.1508 8.04869 46.6007 9.06669 46.0462C9.10164 46.1324 9.1272 46.2045 9.15975 46.2733C9.33386 46.6274 9.47651 47.0038 9.69059 47.3311C10.3307 48.2999 11.3618 48.5938 12.3994 48.115C12.6681 47.9914 12.9281 47.8188 13.1487 47.6184C13.8216 47.0082 13.9483 46.1575 13.4502 45.3914C13.164 44.9505 12.8057 44.5541 12.4562 44.1599C11.6217 43.2157 10.7523 42.3004 9.944 41.3317C9.38257 40.668 9.00028 39.8975 8.87794 39.0156C8.74578 38.0446 8.93605 37.1316 9.43063 36.321C10.6605 34.2922 12.4453 33.2477 14.8046 33.3145C16.1525 33.3642 17.2294 34.0071 18.0596 35.0761C18.3064 35.3923 18.538 35.7197 18.7892 36.0626" fill="#3C3A3E"/>
<path fill-rule="evenodd" clip-rule="evenodd" d="M41.6078 46.8409C41.4507 48.0635 41.3019 49.2238 41.149 50.3818C41.1405 50.441 41.0953 50.521 41.0466 50.5437C38.7091 51.6438 35.6508 51.4902 33.7502 49.2766C32.7235 48.0873 32.2931 46.671 32.3565 45.1121C32.5057 41.4821 35.4585 38.2976 38.9975 37.8522C41.0619 37.5938 42.8641 38.1617 44.2622 39.7985C45.2147 40.912 45.656 42.2482 45.5904 43.718C45.5478 44.689 45.3984 45.6533 45.2802 46.6131C45.112 47.9805 44.9285 49.3523 44.7516 50.7107C44.7448 50.7584 44.7354 50.8072 44.7243 50.8691H41.9499C41.9866 50.5551 42.0207 50.2477 42.06 49.9404C42.2614 48.3615 42.4838 46.7781 42.6607 45.197C42.7708 44.2126 42.7016 43.235 42.2588 42.3242C41.7891 41.3554 41.0027 40.841 39.965 40.7296C37.8198 40.498 35.7707 42.0168 35.3338 44.1592C35.0323 45.58 35.5079 46.9429 36.6183 47.7001C37.6996 48.4328 38.8465 48.435 40.0262 47.9606C40.6247 47.7201 41.1316 47.3371 41.6165 46.8226" fill="#3C3A3E"/>
<path fill-rule="evenodd" clip-rule="evenodd" d="M53.404 38.2202C53.2769 39.2046 53.1506 40.1733 53.0239 41.1598C52.4341 41.1598 51.8573 41.1565 51.2806 41.1607C50.8131 41.1643 50.3871 41.4725 50.2451 41.9179C50.1905 42.0918 50.1702 42.2787 50.1462 42.4613C49.8534 44.7328 49.5629 46.982 49.2723 49.2313C49.1989 49.8014 49.1282 50.3715 49.0548 50.9505H46.1493C46.203 50.5162 46.2542 50.0953 46.3079 49.6744C46.4964 48.2091 46.6858 46.7348 46.8759 45.2873C47.0406 44.0202 47.1883 42.7486 47.3827 41.4792C47.6427 39.7867 49.2942 38.2724 50.9654 38.2055C51.7649 38.1699 52.5667 38.1995 53.3902 38.1995" fill="#3C3A3E"/>
<path d="M68.9146 51.068V49.8209H68.9078L68.4272 51.068H68.2745L67.7939 49.8209H67.7863V51.068H67.546V49.5737H67.9196L68.3565 50.7095L68.7868 49.5737H69.1582V51.068H68.9146ZM66.7869 49.7742V51.068H66.5466V49.7742H66.0878V49.574H67.2478V49.7742H66.7891" fill="#3C3A3E"/>
<path d="M22.6678 33.9456H23.3866L23.2166 32.8365L22.6678 33.9456ZM23.5002 34.6626H22.3052L21.9251 35.422H21.0775L22.9453 31.8589H23.7623L24.398 35.422H23.6137L23.501 34.6626" fill="#3C3A3E"/>
<path d="M27.7801 32.5841H27.3541L27.2108 33.4059H27.6368C27.8946 33.4059 28.0978 33.2337 28.0978 32.9092C28.0978 32.6943 27.9697 32.5841 27.7788 32.5841H27.7801ZM26.749 31.867H27.8675C28.453 31.867 28.8615 32.2233 28.8615 32.8335C28.8615 33.6041 28.3285 34.1207 27.5682 34.1207H27.0854L26.8582 35.4235H26.1286L26.7446 31.8604" fill="#3C3A3E"/>
<path d="M31.3411 33.9456H32.0598L31.89 32.8365L31.3411 33.9456ZM32.1712 34.6626H30.9762L30.5961 35.422H29.7485L31.6163 31.8589H32.4333L33.069 35.422H32.2848L32.1721 34.6626" fill="#3C3A3E"/>
<path d="M36.8024 35.3047C36.5556 35.4196 36.2847 35.4882 36.0116 35.4882C35.0875 35.4882 34.5086 34.7823 34.5086 33.8981C34.5086 32.7668 35.4414 31.8159 36.5512 31.8159C36.8286 31.8159 37.0799 31.8838 37.2852 31.9985L37.1828 32.8515C37.0292 32.6784 36.7808 32.5575 36.4749 32.5575C35.8392 32.5575 35.2734 33.1432 35.2734 33.8224C35.2734 34.3391 35.5924 34.7444 36.0948 34.7444C36.4029 34.7444 36.7 34.6235 36.9009 34.4571L36.8037 35.3034" fill="#3C3A3E"/>
<path d="M41.3898 33.9901H39.8715L39.6247 35.422H38.8972L39.5133 31.8589H40.2429L39.9982 33.2663H41.5165L41.7633 31.8589H42.4929L41.8769 35.422H41.1473L41.3919 33.9901" fill="#3C3A3E"/>
<path d="M44.0114 35.4162L44.6274 31.853H46.5629L46.4399 32.5701H45.2341L45.1111 33.2605H46.2186L46.0956 33.9776H44.9881L44.8651 34.6947H46.0709L45.948 35.4118H44.0125" fill="#3C3A3E"/>
</svg>
