<svg width="100%" height="100%" viewBox="0 0 80 80" fill="none" xmlns="http://www.w3.org/2000/svg">
<circle cx="40" cy="40" r="39.5" fill="white" stroke="#ECECEC"/>
<path d="M79.5 40C79.5 61.8153 61.8153 79.5 40 79.5C18.1848 79.5 0.5 61.8153 0.5 40C0.5 18.1848 18.1848 0.5 40 0.5C61.8153 0.5 79.5 18.1848 79.5 40Z" fill="white" stroke="#ECECEC"/>
<path d="M61.106 39.3257H2.69965V46.6429H61.106V39.3257Z" fill="#62CADD"/>
<path opacity="0.8" d="M77.2996 40.9619H47.7589V46.7085H77.2996V40.9619Z" fill="#008FCE"/>
<path opacity="0.6" d="M70.5752 37.645H39.8753V43.211H70.5752V37.645Z" fill="#00AA96"/>
<path d="M34.7073 27.6739L34.6695 27.6612C34.6442 27.6242 34.6206 27.5878 34.5985 27.5518C34.1082 26.7227 33.3108 26.1226 32.3811 25.883C31.6793 25.7024 30.9495 25.6594 30.2315 25.7562C29.3934 25.8438 28.59 26.1384 27.8926 26.6136C26.8171 27.349 26.1657 28.3855 25.7935 29.6169C25.5535 30.4621 25.456 31.3417 25.5049 32.2192C25.5213 33.0861 25.7039 33.9417 26.0427 34.7391C26.653 36.1274 27.6766 37.0371 29.1512 37.4048C30.0044 37.6105 30.8928 37.6203 31.7502 37.4333C32.3333 37.3255 32.8867 37.0937 33.3733 36.7534C33.8599 36.4131 34.2685 35.9722 34.5717 35.4602L34.6805 35.2843L34.7168 35.297V42.5016H36.2119V25.9781H34.712L34.7073 27.6739ZM56.4508 31.8943C56.4508 31.5551 56.4508 31.2382 56.4508 30.9212C56.4479 30.0894 56.2945 29.2651 55.9982 28.4885C55.7461 27.8146 55.3296 27.2152 54.787 26.7452C54.0618 26.1414 53.1629 25.7875 52.2226 25.7356C51.0098 25.6358 49.8664 25.8576 48.8397 26.528C47.2342 27.5851 46.4614 29.1351 46.2927 31.0131C46.2628 31.5164 46.2691 32.0211 46.3116 32.5235C46.355 33.2539 46.5303 33.9703 46.8289 34.6377C47.6317 36.4539 49.0716 37.3525 50.994 37.5395C51.6896 37.5977 52.3897 37.562 53.0758 37.4333C53.9855 37.2853 54.8546 36.9485 55.6276 36.4444C55.6491 36.4267 55.6667 36.4048 55.6795 36.38C55.6922 36.3552 55.6998 36.328 55.7017 36.3002C55.7017 35.9119 55.7017 35.5252 55.7017 35.1369C55.7017 35.1004 55.7017 35.0624 55.7017 35.0101C55.6575 35.0386 55.6244 35.0576 55.5929 35.0798C55.1915 35.3747 54.7594 35.6249 54.3044 35.8263C53.2579 36.3069 52.0912 36.4578 50.9578 36.2589C50.4328 36.1808 49.9325 35.9831 49.4952 35.681C49.0578 35.3788 48.695 34.9802 48.4344 34.5156C48.1102 33.9296 47.912 33.2817 47.8525 32.6138C47.8272 32.3824 47.8162 32.1495 47.7973 31.9038L56.4508 31.8943ZM21.2341 30.2001L19.9977 30.3586L17.7487 30.6676C17.0559 30.7468 16.3762 30.9163 15.7269 31.1716C15.1006 31.4042 14.5535 31.8116 14.1498 32.346C13.6214 33.0845 13.4827 33.9181 13.5962 34.8025C13.6464 35.2945 13.8226 35.7651 14.1075 36.1683C14.3925 36.5716 14.7765 36.8939 15.2222 37.1037C16.1206 37.5449 17.1373 37.6812 18.1193 37.492C18.7132 37.4046 19.2807 37.1873 19.7819 36.8554C20.283 36.5235 20.7056 36.0851 21.0196 35.5711C21.0796 35.4776 21.1363 35.3841 21.1947 35.289L21.2294 35.297V37.2938H22.7229C22.7229 37.2511 22.7324 37.2114 22.7324 37.1734C22.7324 34.7232 22.7324 32.272 22.7324 29.8197C22.7353 29.2713 22.6599 28.7253 22.5084 28.1985C22.2198 27.2238 21.6457 26.4948 20.7074 26.0795C20.1105 25.8312 19.4703 25.7051 18.8243 25.7087C18.1329 25.698 17.4433 25.7812 16.7741 25.9559C16.0867 26.1188 15.4271 26.3832 14.8169 26.7404C14.7697 26.764 14.7308 26.8016 14.7054 26.848C14.6801 26.8945 14.6694 26.9476 14.675 27.0003C14.6828 27.414 14.675 27.8276 14.675 28.2412C14.675 28.2809 14.675 28.3205 14.6828 28.3775C14.7838 28.3015 14.8658 28.2381 14.9494 28.1779C16.1874 27.2713 17.5547 26.8022 19.0987 26.9829C19.4443 27.0092 19.778 27.1209 20.0702 27.308C20.3624 27.4952 20.6041 27.7521 20.7736 28.0558C21.149 28.7151 21.2231 29.441 21.2341 30.2001ZM45.6477 21.8654V20.7148C45.6477 20.512 45.6477 20.512 45.46 20.4581C44.8008 20.2825 44.1105 20.2598 43.4413 20.3915C42.6822 20.5012 41.9934 20.898 41.5157 21.5009C40.9716 22.1998 40.776 23.016 40.7508 23.8782C40.7318 24.5264 40.7508 25.1746 40.7508 25.8244V25.9829H38.6706V27.2317H40.7523V37.2986H42.249V27.2127H45.2187V25.9686H42.249C42.249 25.9258 42.249 25.8957 42.249 25.8656C42.249 25.2602 42.2332 24.6532 42.2585 24.0493C42.2714 23.6807 42.3242 23.3145 42.4162 22.9574C42.5991 22.2553 43.036 21.7783 43.7662 21.6309C44.4013 21.4843 45.0675 21.5674 45.6477 21.8654ZM65.3283 27.3949V27.2507C65.3283 26.8545 65.3283 26.4583 65.3283 26.0621C65.3283 25.9448 65.2857 25.9036 65.1848 25.8751C64.8282 25.7817 64.4602 25.7401 64.0919 25.7515C63.5705 25.7551 63.0591 25.8949 62.6078 26.1572C61.9359 26.5585 61.4109 27.1672 61.1111 27.8926C61.0402 28.0511 60.9771 28.2096 60.9109 28.376H60.8809V25.9765H59.3953V37.2938H60.8793V37.1211C60.8793 35.3102 60.8793 33.4992 60.8793 31.6883C60.8784 31.1613 60.9339 30.6359 61.0449 30.1209C61.1741 29.4359 61.4397 28.7842 61.8256 28.2048C62.1416 27.7137 62.6169 27.3476 63.1708 27.1683C63.5261 27.0516 63.9019 27.0114 64.2736 27.0505C64.6454 27.0895 65.0048 27.2069 65.3283 27.3949Z" fill="white"/>
<path d="M34.7073 27.6512V25.9554H36.2071V42.4789H34.712V35.2742L34.6758 35.2616L34.567 35.4375C34.2638 35.9494 33.8552 36.3904 33.3686 36.7307C32.882 37.071 32.3286 37.3028 31.7455 37.4106C30.888 37.5976 29.9997 37.5878 29.1465 37.3821C27.6719 37.0144 26.6483 36.1047 26.038 34.7164C25.6991 33.919 25.5165 33.0634 25.5002 32.1965C25.4524 31.3176 25.5516 30.4369 25.7935 29.591C26.1657 28.3596 26.8171 27.3231 27.8927 26.5877C28.5917 26.1129 29.3968 25.8194 30.2362 25.7335C30.9542 25.6366 31.684 25.6797 32.3858 25.8603C33.3141 26.1014 34.1096 26.7019 34.5985 27.5307C34.6206 27.5677 34.6442 27.6041 34.6695 27.6401L34.7073 27.6512ZM34.6868 31.4215H34.7357C34.7105 30.9017 34.7215 30.3755 34.6537 29.8604C34.5588 29.0688 34.1722 28.3417 33.5702 27.8223C32.6492 27.0156 31.5547 26.7906 30.3782 26.9713C29.0061 27.1836 28.0661 27.984 27.511 29.2518C27.2065 29.9742 27.0458 30.7495 27.0379 31.534C27.0095 32.542 27.1356 33.5214 27.6088 34.4311C27.802 34.8291 28.072 35.1846 28.4031 35.4768C28.7342 35.769 29.1199 35.9921 29.5376 36.1332C30.2419 36.3619 30.9951 36.3926 31.7156 36.222C33.4362 35.8606 34.5165 34.5309 34.6774 32.832C34.7231 32.3645 34.6868 31.8922 34.6868 31.4215Z" fill="#0C2030"/>
<path d="M56.4512 31.8759H47.8071C47.826 32.1216 47.8371 32.3514 47.8623 32.5859C47.9218 33.2538 48.12 33.9017 48.4442 34.4877C48.7048 34.9524 49.0677 35.351 49.505 35.6531C49.9423 35.9552 50.4426 36.1529 50.9676 36.2311C52.101 36.4299 53.2678 36.279 54.3142 35.7984C54.7693 35.5971 55.2013 35.3468 55.6027 35.052C55.6343 35.0298 55.6674 35.0107 55.7115 34.9822C55.7115 35.0345 55.7115 35.0726 55.7115 35.109C55.7115 35.4973 55.7115 35.884 55.7115 36.2723C55.7096 36.3001 55.7021 36.3273 55.6893 36.3521C55.6766 36.3769 55.6589 36.3988 55.6374 36.4165C54.862 36.9217 53.9902 37.2585 53.0778 37.4054C52.3917 37.5341 51.6915 37.5698 50.996 37.5116C49.0735 37.3246 47.6336 36.426 46.8309 34.6098C46.5323 33.9424 46.357 33.226 46.3136 32.4956C46.2711 31.9933 46.2647 31.4885 46.2947 30.9853C46.4634 29.1072 47.2409 27.5572 48.8417 26.5002C49.8684 25.825 51.0118 25.6031 52.2246 25.7077C53.1649 25.7596 54.0638 26.1135 54.7889 26.7173C55.3316 27.1873 55.7481 27.7867 56.0001 28.4606C56.2965 29.2372 56.4499 30.0616 56.4528 30.8933C56.4544 31.2198 56.4512 31.5368 56.4512 31.8759ZM47.8497 30.6176H54.9104C54.915 29.9353 54.7763 29.2597 54.5035 28.6349C54.3443 28.2668 54.1079 27.9376 53.8104 27.6698C53.5129 27.402 53.1613 27.202 52.7797 27.0834C52.2394 26.9193 51.6697 26.8766 51.1111 26.9582C50.3875 27.0402 49.7092 27.3535 49.176 27.852C48.5326 28.4527 48.173 29.2134 47.9648 30.0565C47.9206 30.2388 47.8891 30.4258 47.8497 30.6176Z" fill="#0C2030"/>
<path d="M21.2344 30.1803C21.2233 29.4212 21.1492 28.6953 20.7707 28.0361C20.6026 27.7345 20.3635 27.4789 20.0742 27.2918C19.7849 27.1048 19.4544 26.9919 19.1116 26.9631C17.5676 26.7824 16.2003 27.2516 14.9622 28.1581C14.8787 28.2183 14.7966 28.2817 14.6957 28.3578C14.6957 28.3007 14.6878 28.2611 14.6878 28.2215C14.6878 27.8078 14.6878 27.3942 14.6878 26.9806C14.6823 26.9279 14.6929 26.8747 14.7183 26.8283C14.7437 26.7818 14.7826 26.7443 14.8298 26.7206C15.44 26.3634 16.0996 26.099 16.7869 25.9361C17.4562 25.7614 18.1458 25.6782 18.8372 25.6889C19.4832 25.6853 20.1234 25.8114 20.7202 26.0598C21.6586 26.475 22.2327 27.204 22.5213 28.1787C22.6723 28.7056 22.7472 29.2516 22.7437 29.8C22.7437 32.2512 22.7437 34.7024 22.7437 37.1536C22.7437 37.1917 22.7437 37.2313 22.7342 37.2741H21.2407V35.2772L21.206 35.2693C21.1476 35.3644 21.0909 35.4579 21.0309 35.5514C20.7169 36.0653 20.2943 36.5037 19.7932 36.8356C19.292 37.1675 18.7245 37.3848 18.1306 37.4722C17.1486 37.6614 16.1319 37.5251 15.2335 37.0839C14.7878 36.8741 14.4038 36.5518 14.1188 36.1486C13.8339 35.7453 13.6577 35.2747 13.6075 34.7827C13.494 33.8984 13.6327 33.0648 14.1611 32.3262C14.5648 31.7918 15.1119 31.3844 15.7382 31.1518C16.3878 30.8987 17.0675 30.7314 17.76 30.6542L20.009 30.3452L21.2344 30.1803ZM21.2218 31.3832C20.9347 31.4197 20.6603 31.453 20.3859 31.4894L18.4839 31.743C17.8603 31.8088 17.2438 31.9307 16.6419 32.1075C16.1955 32.2281 15.7965 32.483 15.4985 32.8381C15.2681 33.167 15.1363 33.5553 15.1184 33.957C15.0535 34.4139 15.1482 34.8793 15.3863 35.274C15.6244 35.6687 15.9911 35.9683 16.4242 36.1219C17.1095 36.3701 17.8545 36.3983 18.5565 36.2027C19.2481 36.0346 19.8681 35.6486 20.326 35.1013C20.8737 34.4571 21.1878 33.6453 21.217 32.7985C21.247 32.331 21.2218 31.8603 21.2218 31.3832Z" fill="#0C2030"/>
<path d="M45.6481 21.845C45.0653 21.5427 44.3947 21.4579 43.7556 21.6057C43.0254 21.7531 42.5885 22.2301 42.4056 22.9322C42.3137 23.2894 42.2608 23.6555 42.2479 24.0242C42.2227 24.628 42.24 25.235 42.2384 25.8404C42.2384 25.8705 42.2384 25.9006 42.2384 25.9434H45.2191V27.1923H42.2495V37.2703H40.7528V27.2034H38.671V25.9482H40.7465V25.7897C40.7465 25.1399 40.7323 24.4917 40.7465 23.8435C40.7717 22.9798 40.9673 22.1636 41.5114 21.4663C41.9891 20.8634 42.6779 20.4666 43.437 20.3569C44.1062 20.2251 44.7965 20.2479 45.4557 20.4234C45.6434 20.4773 45.6434 20.4773 45.6434 20.6802L45.6481 21.845Z" fill="#0C2030"/>
<path d="M65.3283 27.3767C65.0057 27.1881 64.647 27.0699 64.2759 27.0297C63.9047 26.9896 63.5293 27.0285 63.174 27.1438C62.6201 27.323 62.1448 27.6892 61.8288 28.1803C61.4429 28.7596 61.1773 29.4114 61.0481 30.0963C60.9371 30.6113 60.8816 31.1368 60.8825 31.6637C60.8825 33.4736 60.8825 35.2846 60.8825 37.0966V37.2693H59.3984V25.9583H60.8841V28.3578H60.914C60.9803 28.1993 61.0434 28.0329 61.1143 27.8744C61.4141 27.149 61.9391 26.5403 62.611 26.139C63.0623 25.8767 63.5737 25.7369 64.0951 25.7333C64.4634 25.7219 64.8314 25.7635 65.188 25.8569C65.2889 25.887 65.3331 25.9266 65.3315 26.0439C65.322 26.4385 65.3315 26.8363 65.3315 27.2325L65.3283 27.3767Z" fill="#0C2030"/>
</svg>
