<svg width="100%" height="100%" viewBox="0 0 80 80" fill="none" xmlns="http://www.w3.org/2000/svg">
<circle cx="40" cy="40" r="39.5" fill="white" stroke="#ECECEC"/>
<mask id="mask0_8870_32770" style="mask-type:alpha" maskUnits="userSpaceOnUse" x="0" y="0" width="80" height="80">
<circle cx="40" cy="40" r="39.5" fill="white" stroke="white"/>
</mask>
<g mask="url(#mask0_8870_32770)">
</g>
<g clip-path="url(#clip0_8870_32770)">
<path d="M24.4795 36.6183C24.4559 37.3353 24.5502 38.0524 24.7389 38.7455C24.9512 39.3431 25.2107 39.9167 25.4938 40.4664C25.5881 40.6338 25.6589 40.825 25.6589 41.0162C25.6353 41.303 25.4702 41.5898 25.2107 41.7332L23.7246 42.7371C23.5359 42.8566 23.3236 42.9522 23.1114 42.9522C22.8519 42.9283 22.5924 42.8088 22.4037 42.6176C22.0971 42.283 21.7904 41.9005 21.5545 41.4942C21.3186 41.0879 21.0827 40.6338 20.8233 40.084C18.9834 42.283 16.6717 43.3825 13.8883 43.3825C11.9069 43.3825 10.3264 42.8088 9.17062 41.6615C8.01479 40.5142 7.42508 38.9845 7.42508 37.0724C7.42508 35.0407 8.13273 33.3915 9.57162 32.1486C11.0105 30.9057 12.9212 30.2843 15.3508 30.2843C16.1764 30.2843 17.0255 30.356 17.8511 30.4755C18.7239 30.595 19.6203 30.7862 20.5638 31.0013V29.2565C20.5638 27.44 20.1864 26.1732 19.4552 25.4322C18.7239 24.6913 17.4266 24.3327 15.6102 24.3327C14.7611 24.3327 13.8883 24.4283 13.0627 24.6435C12.1899 24.8586 11.3408 25.1215 10.5152 25.4561C10.2557 25.5756 9.97262 25.6712 9.68956 25.7668C9.57162 25.8146 9.43009 25.8385 9.31215 25.8385C8.98191 25.8385 8.81679 25.5995 8.81679 25.0976V23.9264C8.79321 23.6396 8.86397 23.3528 8.98191 23.0898C9.17062 22.8747 9.38291 22.7074 9.64239 22.5879C10.5859 22.1099 11.5766 21.7513 12.6145 21.5123C13.8175 21.2016 15.0677 21.0582 16.2943 21.0582C19.1013 21.0582 21.1535 21.7035 22.4745 22.9942C23.7954 24.2849 24.4323 26.2449 24.4323 28.8741V36.6183H24.4795ZM14.9026 40.2513C15.7282 40.2513 16.5538 40.1079 17.3322 39.8211C18.205 39.5104 18.9598 38.9845 19.5731 38.2914C19.9505 37.8611 20.2336 37.3353 20.3751 36.7617C20.5402 36.0924 20.611 35.3754 20.611 34.6822V33.6783C19.9033 33.511 19.1721 33.3676 18.4409 33.272C17.7096 33.1764 16.9548 33.1286 16.2235 33.1286C14.6431 33.1286 13.4873 33.4393 12.7089 34.0847C11.9305 34.73 11.553 35.6383 11.553 36.8334C11.553 37.9568 11.8361 38.7933 12.4258 39.367C13.0155 39.9406 13.8175 40.2513 14.9026 40.2513ZM33.8441 42.8327C33.5374 42.8566 33.2072 42.7849 32.9477 42.5937C32.7118 42.3308 32.5231 42.0201 32.4523 41.6615L26.9091 23.1854C26.7911 22.8747 26.7204 22.564 26.6968 22.2294C26.6732 21.9426 26.8619 21.6796 27.145 21.6318H29.5982C30.0463 21.6318 30.353 21.7035 30.5181 21.8708C30.6832 22.0382 30.8483 22.3489 30.9899 22.803L34.9291 38.626L38.6089 22.803C38.7269 22.325 38.8684 22.0143 39.0571 21.8708C39.3402 21.7035 39.6704 21.6079 40.0006 21.6318H41.8877C42.3359 21.6318 42.6425 21.7035 42.8312 21.8708C43.0671 22.1338 43.2322 22.4445 43.2794 22.803L47.0064 38.8172L51.0872 22.803C51.1579 22.4445 51.3231 22.1338 51.5589 21.8708C51.842 21.7035 52.1486 21.6079 52.4789 21.6318H54.6726C54.9557 21.584 55.2151 21.7991 55.2623 22.086V22.2294C55.2623 22.3489 55.2387 22.4923 55.2151 22.6118C55.168 22.8269 55.1208 23.0181 55.05 23.2093L49.3652 41.6854C49.2237 42.1635 49.0586 42.4742 48.8699 42.6176C48.6104 42.7849 48.2802 42.8805 47.9735 42.8566H45.9449C45.4967 42.8566 45.1901 42.7849 45.0014 42.6176C44.7655 42.3547 44.6004 42.0201 44.5532 41.6615L40.897 26.2449L37.2644 41.6376C37.2172 41.9962 37.0521 42.3308 36.8162 42.5937C36.5331 42.7849 36.2029 42.8566 35.8727 42.8327H33.8441ZM64.1551 43.4781C62.9285 43.4781 61.7019 43.3347 60.5225 43.0478C59.3431 42.761 58.4232 42.4503 57.8099 42.0918C57.5032 41.9484 57.2437 41.7093 57.0786 41.4225C56.9843 41.2074 56.9371 40.9923 56.9371 40.7533V39.5343C56.9371 39.0323 57.1258 38.7933 57.4796 38.7933C57.6212 38.7933 57.7627 38.8172 57.9042 38.865C58.0457 38.9128 58.258 39.0084 58.4939 39.104C59.3195 39.4865 60.1923 39.7494 61.0886 39.9406C62.0086 40.1318 62.9521 40.2274 63.8957 40.2274C65.3817 40.2274 66.5376 39.9645 67.3396 39.4387C68.118 38.9606 68.5897 38.1002 68.5662 37.168C68.5897 36.5465 68.3539 35.949 67.9293 35.4949C67.5047 35.0407 66.7027 34.6344 65.5468 34.252L62.1265 33.1764C60.4046 32.6267 59.1308 31.814 58.3524 30.7384C57.5976 29.7345 57.173 28.5394 57.173 27.2727C57.1494 26.3405 57.3617 25.4322 57.8099 24.6196C58.2344 23.8547 58.8006 23.1854 59.5082 22.6596C60.2395 22.086 61.0651 21.6796 61.9614 21.4167C62.9285 21.1299 63.9193 20.9865 64.9336 21.0104C65.4525 21.0104 65.995 21.0343 66.514 21.106C67.0565 21.1777 67.5519 21.2733 68.0472 21.3689C68.5426 21.4645 68.9672 21.6079 69.3918 21.7513C69.7456 21.8708 70.0758 22.0143 70.3825 22.1816C70.6655 22.325 70.9014 22.5162 71.0901 22.7791C71.2552 23.0181 71.326 23.2811 71.3024 23.5679V24.6913C71.3024 25.1932 71.1137 25.4561 70.7599 25.4561C70.4532 25.4083 70.1466 25.3127 69.8635 25.1693C68.4482 24.5239 66.8914 24.2132 65.3345 24.2371C63.99 24.2371 62.9285 24.4522 62.1973 24.9064C61.4661 25.3605 61.0886 26.0537 61.0886 27.0336C61.0651 27.679 61.3245 28.3004 61.7963 28.7307C62.2681 29.1848 63.1408 29.6389 64.391 30.0453L67.7406 31.1208C69.4389 31.6706 70.6655 32.4354 71.3968 33.4154C72.128 34.3715 72.5054 35.5666 72.4818 36.7617C72.5054 37.7177 72.2931 38.6738 71.8685 39.5343C71.4439 40.3469 70.8542 41.064 70.1466 41.6376C69.3682 42.2591 68.4718 42.7132 67.5283 42.9761C66.4432 43.3108 65.311 43.4781 64.1551 43.4781Z" fill="#252F3E"/>
<path d="M68.6133 55.0981C60.8528 60.9063 49.5775 63.9896 39.8827 63.9896C26.2958 63.9896 14.0534 58.8985 4.80676 50.4372C4.07552 49.768 4.73599 48.8597 5.60876 49.3856C15.6102 55.2654 27.947 58.8268 40.7083 58.8268C49.9077 58.779 59.0129 56.8907 67.4811 53.2816C68.7785 52.684 69.8871 54.142 68.6133 55.0981Z" fill="#FF9900"/>
<path d="M71.845 51.3645C70.8543 50.0738 65.2874 50.743 62.7634 51.0538C62.0086 51.1494 61.8906 50.4801 62.5747 49.9782C67.0093 46.8231 74.2982 47.7314 75.1474 48.7831C75.9966 49.8348 74.9115 57.2443 70.7599 60.7818C70.123 61.3315 69.5097 61.0447 69.7928 60.3277C70.7363 57.9614 72.8357 52.6313 71.845 51.3645Z" fill="#FF9900"/>
</g>
<defs>
<clipPath id="clip0_8870_32770">
<rect width="71" height="43" fill="white" transform="translate(4.5 21)"/>
</clipPath>
</defs>
</svg>
