<svg width="100%" height="100%" viewBox="0 0 80 80" fill="none" xmlns="http://www.w3.org/2000/svg">
<circle cx="40" cy="40" r="39.5" fill="white" stroke="#ECECEC"/>
<g clip-path="url(#clip0_8870_32812)">
<path d="M38.5155 67.0016C37.585 66.6763 36.6112 66.4438 35.7334 66.0106C32.4491 64.389 30.6057 60.6587 31.2108 57.0094C31.8265 53.2979 34.742 50.353 38.3867 49.8892C39.5103 49.7472 40.6656 49.8669 41.9144 49.8669C43.3189 46.5652 45.7956 44.1558 49.3408 42.9217C51.89 42.0352 54.4755 42.0481 57.0375 42.8642C62.1816 44.501 66.5017 49.9022 65.3874 56.8192C66.0417 57.054 66.7276 57.2231 67.3362 57.5389C68.667 58.2294 69.505 59.346 69.8725 60.8114C69.9078 60.9206 69.9504 61.0273 70.0001 61.1307V62.892C69.7578 63.4791 69.5553 64.0861 69.2639 64.6462C68.6634 65.8004 67.6393 66.4826 66.4888 67.0016H38.5155ZM42.6939 51.755C42.317 51.6376 41.9858 51.5202 41.6499 51.4262C36.6264 49.9573 31.6837 54.4145 32.6013 59.5843C33.2427 63.1961 36.1524 65.6231 39.9235 65.6266C48.289 65.6352 56.6544 65.6294 65.0199 65.609C65.935 65.5975 66.8122 65.2408 67.477 64.6098C68.1417 63.9788 68.5453 63.1199 68.6073 62.2039C68.7185 60.3252 67.3666 58.6286 65.5232 58.3973C64.8841 58.3174 64.2263 58.3843 63.5089 58.3843C64.4827 55.4184 64.3961 52.5323 63.0103 49.7483C61.6151 46.9444 59.3889 45.0693 56.4242 44.1405C51.2814 42.5237 44.6684 45.0728 42.6939 51.755Z" fill="#0479D9"/>
<path d="M29.8501 59.961C27.0575 59.8068 24.2912 59.3377 21.6032 58.5626C19.3501 57.8992 17.1755 57.0549 15.2899 55.5954C13.8854 54.5129 13.0872 53.2154 13.0965 51.3168C13.1504 39.5375 13.1469 27.7567 13.086 15.9743C13.0708 13.7962 13.9907 12.379 15.6422 11.2377C18.0802 9.55278 20.8483 8.69799 23.6971 8.06746C27.3402 7.27641 31.0713 6.97084 34.794 7.15865C39.3411 7.36531 43.7888 8.09799 47.9485 10.0753C49.47 10.7986 50.8956 11.678 51.9408 13.0589C52.4491 13.7113 52.723 14.5169 52.718 15.345C52.7133 23.68 52.7152 32.0166 52.7238 40.3547C52.7238 40.7998 52.6068 40.9536 52.1503 40.9982C47.3153 41.4679 43.701 43.8467 41.3039 48.0737C41.0851 48.4589 40.8358 48.4459 40.501 48.426C35.9082 48.1383 31.9674 50.6757 30.3487 54.9849C29.8458 56.3271 29.6545 57.7667 29.7892 59.1943C29.8103 59.4232 29.8267 59.6534 29.8501 59.961ZM34.2743 10.0037C29.623 9.99427 26.3318 10.2772 23.1236 11.2037C21.8303 11.5771 20.5487 12.0256 19.5362 12.9649C18.566 13.8643 18.5215 14.853 19.5597 15.6526C20.3589 16.2698 21.251 16.7553 22.2025 17.0909C26.416 18.541 30.7771 18.763 35.1802 18.5598C38.0291 18.4271 40.8451 18.069 43.557 17.125C44.5729 16.7727 45.5631 16.3559 46.3461 15.581C47.1924 14.7438 47.1842 13.8702 46.3309 13.0318C45.4999 12.2158 44.4512 11.7837 43.3756 11.4291C39.9884 10.3148 36.4864 10.0166 34.2743 10.0037ZM35.5278 40.4052C35.6125 40.3294 35.7021 40.2592 35.7959 40.1951C37.0319 39.5234 37.7692 38.4643 38.1777 37.1422C38.8624 34.9289 38.1648 32.3176 36.573 31.0365C34.2146 29.1309 29.5821 29.4761 28.174 33.305C27.0808 36.2745 28.1869 39.7853 31.3986 40.5966C32.5432 40.8843 33.2713 41.496 33.9805 42.2898C34.2415 42.581 34.499 42.8769 34.7718 43.1528C34.8748 43.2585 35.0164 43.3982 35.1428 43.4005C36.3788 43.4193 37.6159 43.4123 39.0228 43.4123C37.7786 42.3356 36.6655 41.381 35.5278 40.4052ZM26.4734 32.8424C26.4734 32.1379 26.4933 31.3911 26.457 30.6514C26.4365 30.5586 26.3938 30.4722 26.3327 30.3996C26.2715 30.327 26.1937 30.2704 26.1059 30.2346C24.5129 29.8318 22.9188 29.7191 21.3399 30.3238C19.0318 31.2068 18.5156 34.1129 20.4269 35.6745C20.9279 36.0831 21.5833 36.3003 22.1627 36.6138C22.5361 36.8158 22.9492 36.9814 23.2582 37.2596C23.6819 37.6436 23.5309 38.26 22.9808 38.4138C22.6113 38.5296 22.2181 38.5474 21.8397 38.4655C21.0274 38.2401 20.2432 37.9113 19.4145 37.6131C19.4145 38.4044 19.4028 39.2393 19.4274 40.0788C19.4406 40.1578 19.4725 40.2325 19.5206 40.2965C19.5687 40.3605 19.6315 40.4119 19.7036 40.4463C21.5763 41.0123 23.4748 41.1908 25.2936 40.3172C27.5022 39.2604 27.6731 36.3637 25.6283 35.0111C24.9998 34.5954 24.2753 34.3266 23.5988 33.9837C23.1306 33.7489 22.5677 33.5739 22.7058 32.8694C22.7889 32.4479 23.3483 32.1896 24.1009 32.3058C24.8804 32.4221 25.6436 32.6487 26.4734 32.8424ZM43.1275 38.199V30.1172H40.0059V40.6635H46.7453V38.1978L43.1275 38.199Z" fill="#0479D9"/>
<path d="M31.0515 35.5052C31.2037 34.8488 31.2727 34.2794 31.4717 33.7616C31.7573 33.0218 32.3624 32.6414 33.1583 32.6297C33.8992 32.6179 34.427 32.9983 34.7079 33.6676C35.2382 34.9439 35.3119 36.2226 34.5359 37.4168C34.3794 37.6663 34.1603 37.8702 33.9005 38.008C33.6407 38.1458 33.3493 38.2126 33.0556 38.2018C32.7619 38.191 32.4762 38.1029 32.2272 37.9463C31.9782 37.7898 31.7745 37.5703 31.6367 37.3099C31.3254 36.7498 31.2271 36.0758 31.0515 35.5052Z" fill="#0479D9"/>
<path d="M42.069 60.1698L41.4439 58.4291H39.0503L38.438 60.1698H37.359L39.7012 53.876H40.8145L43.1566 60.1698H42.069ZM41.1741 57.5459L40.5875 55.8396C40.5447 55.7253 40.4848 55.5452 40.4077 55.2994C40.3335 55.0536 40.2821 54.8735 40.2535 54.7592C40.1765 55.1107 40.0637 55.4952 39.9153 55.9125L39.3501 57.5459H41.1741Z" fill="#0479D9"/>
<path d="M47.0403 60.1698H43.4478V59.5481L45.8414 56.1997H43.5934V55.428H46.9718V56.1311L44.6296 59.3981H47.0403V60.1698Z" fill="#0479D9"/>
<path d="M51.412 60.1698L51.2707 59.5481H51.2194C51.0795 59.7682 50.8797 59.9411 50.6199 60.0669C50.363 60.1927 50.069 60.2556 49.7378 60.2556C49.1641 60.2556 48.7359 60.1126 48.4533 59.8268C48.1707 59.541 48.0294 59.108 48.0294 58.5277V55.428H49.0442V58.352C49.0442 58.715 49.1184 58.9879 49.2668 59.1709C49.4153 59.3509 49.6479 59.441 49.9648 59.441C50.3873 59.441 50.697 59.3152 50.8939 59.0637C51.0938 58.8093 51.1937 58.3848 51.1937 57.7903V55.428H52.2042V60.1698H51.412Z" fill="#0479D9"/>
<path d="M56.0407 55.3422C56.2434 55.3422 56.4104 55.3565 56.5417 55.3851L56.4432 56.3241C56.3005 56.2898 56.1521 56.2726 55.9979 56.2726C55.5954 56.2726 55.2686 56.4041 55.0174 56.667C54.769 56.93 54.6448 57.2716 54.6448 57.6917V60.1698H53.6386V55.428H54.4265L54.5592 56.264H54.6106C54.7676 55.9811 54.9717 55.7567 55.2229 55.5909C55.4769 55.4251 55.7496 55.3422 56.0407 55.3422Z" fill="#0479D9"/>
<path d="M59.4919 60.2556C58.7554 60.2556 58.1788 60.0412 57.762 59.6124C57.3481 59.1809 57.1412 58.5878 57.1412 57.8332C57.1412 57.0586 57.3338 56.4498 57.7192 56.0068C58.1046 55.5638 58.6341 55.3422 59.3078 55.3422C59.9329 55.3422 60.4268 55.5323 60.7893 55.9125C61.1518 56.2926 61.3331 56.8157 61.3331 57.4816V58.0261H58.1774C58.1916 58.4863 58.3158 58.8407 58.5499 59.0894C58.784 59.3352 59.1137 59.4581 59.539 59.4581C59.8187 59.4581 60.0785 59.4324 60.3183 59.3809C60.5609 59.3266 60.8207 59.238 61.0976 59.1151V59.934C60.8521 60.0512 60.6037 60.1341 60.3525 60.1827C60.1013 60.2313 59.8145 60.2556 59.4919 60.2556ZM59.3078 56.1054C58.9881 56.1054 58.7312 56.2069 58.537 56.4098C58.3458 56.6127 58.2316 56.9086 58.1945 57.2973H60.344C60.3383 56.9057 60.2441 56.6099 60.0614 56.4098C59.8787 56.2069 59.6275 56.1054 59.3078 56.1054Z" fill="#0479D9"/>
</g>
<defs>
<clipPath id="clip0_8870_32812">
<rect width="57" height="60" fill="white" transform="translate(13 7)"/>
</clipPath>
</defs>
</svg>
