<svg width="100%" height="100%" viewBox="0 0 80 80" fill="none" xmlns="http://www.w3.org/2000/svg">
<circle cx="40" cy="40" r="39.5" fill="white" stroke="#ECECEC"/>
<path d="M56.0467 40.5998C57.1209 41.818 58.4046 42.9184 59.243 44.2807C65.3997 54.2101 59.5967 66.2878 48.9075 68.2265C40.5369 69.7591 32.8345 64.598 30.7778 56.175C32.9655 56.5549 35.1531 56.5418 37.3276 56.1095C37.4062 56.2667 37.4717 56.4239 37.5503 56.5811C39.227 60.4978 43.5629 62.8033 47.7678 62.0305C52.9028 61.0742 56.2956 56.1357 55.2345 51.0007C54.5403 47.6211 52.5098 45.2763 49.235 44.0711C49.1302 44.0056 49.0385 43.9008 48.9206 43.8615C47.5976 43.4423 46.2352 43.2851 44.8729 43.534C44.0738 43.6781 43.314 43.9925 42.5281 44.2414C40.1047 45.237 38.4279 46.953 37.4455 49.3764C35.2448 50.3719 33.0048 50.3588 30.7516 49.5729C30.9481 48.8786 31.1315 48.1843 31.3673 47.5163C32.3236 44.7785 34.0003 42.5254 36.1486 40.6129C38.0742 39.1457 40.1833 38.0585 42.5543 37.4952C44.7681 36.9974 46.995 36.9712 49.2219 37.3904C51.7501 37.9144 54.0032 39.0409 56.0467 40.5998Z" fill="#5799C9"/>
<path d="M42.5546 37.5073C40.1836 38.0706 38.0746 39.1578 36.149 40.625C35.1534 39.5377 34.0793 38.5029 33.1754 37.3501C31.944 35.7913 31.2891 33.9312 30.7651 32.0448C30.7389 31.8352 30.7127 31.6126 30.6865 31.403C30.5817 30.2764 30.4114 29.163 30.3983 28.0364C30.3852 27.1981 30.5555 26.3597 30.6341 25.5213C31.1057 23.7791 31.6428 22.0631 32.599 20.5043C35.232 16.2338 39.0309 13.6009 43.9825 12.9983C50.4536 12.2123 55.6803 14.6095 59.2827 20.0851C63.3828 26.3073 62.3349 34.6254 56.9903 39.8128C56.689 40.101 56.3615 40.3499 56.0471 40.625C54.0036 39.0661 51.7505 37.9396 49.2223 37.4156C49.2223 37.3894 49.2223 37.3632 49.2223 37.337C49.4843 37.2322 49.7463 37.1274 50.0082 37.0095C53.794 35.2149 55.9685 31.3637 55.3266 27.1981C54.5014 21.8404 49.7332 18.4214 44.4017 19.3908C40.9041 20.0196 38.4938 22.1155 37.3148 25.5213C37.1576 26.0977 36.9218 26.6741 36.8563 27.2505C36.673 28.9665 36.6992 30.6694 37.603 32.2413C38.52 34.5337 40.1443 36.1188 42.4105 37.0619C42.4629 37.1929 42.5022 37.3501 42.5546 37.5073Z" fill="#F4A152"/>
<path d="M30.634 25.4961C30.5423 26.3345 30.3851 27.1728 30.3982 28.0112C30.4244 29.1377 30.5816 30.2512 30.6864 31.3777C30.7126 31.5873 30.7388 31.81 30.765 32.0196C30.6864 32.0458 30.5947 32.0589 30.5161 32.0851C26.9662 33.4605 24.438 37.0235 24.569 41.2153C24.6869 44.8438 27.1889 48.302 30.765 49.5727C33.0181 50.3586 35.2581 50.3717 37.4588 49.3762C39.9084 48.4068 41.5851 46.6777 42.5414 44.2412C43.3142 44.0054 44.0871 43.6911 44.8862 43.5339C46.2485 43.285 47.6109 43.4291 48.9339 43.8614C49.0518 43.9007 49.1435 44.0055 49.2483 44.0709C49.1959 44.2412 49.1435 44.3984 49.1042 44.5687C48.4361 47.2279 47.1655 49.5465 45.2923 51.5507C43.1046 53.8823 40.4193 55.3233 37.354 56.1092C35.1795 56.5415 32.9919 56.5546 30.8043 56.1747C28.394 55.6246 26.154 54.6814 24.2284 53.1095C20.7177 50.2669 18.6742 46.6122 18.3206 42.0798C17.7049 34.2464 22.6958 27.3824 30.3327 25.5223C30.4113 25.5092 30.5292 25.5092 30.634 25.4961Z" fill="#E56580"/>
<path d="M42.5541 37.5088C42.5017 37.3516 42.4624 37.2075 42.41 37.0503C41.4407 34.8103 39.7902 33.2515 37.6026 32.2298C36.6987 30.6709 36.6725 28.9549 36.8559 27.2389C36.9214 26.6494 37.1572 26.0861 37.3144 25.5098C41.6503 26.5577 45.0692 28.9156 47.3092 32.793C48.1213 34.2078 48.5929 35.819 49.2217 37.3254C49.2217 37.3516 49.2217 37.3778 49.2217 37.404C46.9948 36.9718 44.7679 36.9979 42.5541 37.5088Z" fill="#E56581"/>
<path d="M42.5422 44.2441C41.5729 46.6806 39.9092 48.4098 37.4597 49.3791C38.429 46.9688 40.1188 45.2397 42.5422 44.2441Z" fill="#FEFDFE"/>
<path d="M37.6022 32.2314C39.7898 33.2532 41.4534 34.8121 42.4097 37.0522C40.1435 36.109 38.5191 34.5239 37.6022 32.2314Z" fill="#FEFEFD"/>
</svg>
