<svg width="100%" height="100%" viewBox="0 0 80 80" fill="none" xmlns="http://www.w3.org/2000/svg">
<circle cx="40" cy="40" r="39.5" fill="white" stroke="#ECECEC"/>
<path d="M67.9998 51.9393C67.9995 56.7164 66.217 61.3162 63.0106 64.8137C63.3473 64.4343 63.6498 64.025 63.9144 63.5907C64.1199 63.2598 64.3006 62.9136 64.4547 62.5552C64.5107 62.437 64.5603 62.3159 64.6033 62.1923C64.6534 62.0739 64.697 61.9528 64.7339 61.8295C64.7761 61.7154 64.8122 61.5971 64.8444 61.4789C64.8765 61.3607 64.9106 61.2343 64.9368 61.11L64.9508 61.0671C64.9789 60.9448 65.001 60.8225 65.0251 60.6982C65.0492 60.5739 65.0713 60.4434 65.0914 60.315C65.1095 60.1968 65.1236 60.0785 65.1336 59.9562C65.1619 59.6765 65.176 59.3955 65.1758 59.1144C65.1802 57.571 64.7675 56.0559 63.9827 54.7339C63.8115 54.4375 63.6202 54.1535 63.4103 53.8839C63.165 53.563 62.8965 53.2611 62.6068 52.9809C61.8864 52.271 61.0453 51.6992 60.1243 51.2931C59.7208 51.1121 59.3028 50.9661 58.875 50.8569H58.8569L58.7083 50.8059L56.537 50.0497L50.8589 48.0684C50.8408 48.0684 50.8167 48.0684 50.8026 48.0684L50.4471 47.9359C49.3077 47.4771 48.3616 46.6294 47.7718 45.5388L45.705 40.1615L43.3289 34.0138L42.8729 32.8274L42.7564 32.5869C42.6235 32.2583 42.5553 31.9066 42.5556 31.5514C42.5505 31.4597 42.5505 31.3679 42.5556 31.2762C42.5982 30.858 42.7369 30.4558 42.9605 30.1018C43.1841 29.7479 43.4863 29.4521 43.843 29.2382C44.1997 29.0243 44.6008 28.8983 45.0142 28.8702C45.4276 28.8422 45.8416 28.913 46.2232 29.0768L56.8062 34.5804L58.8931 35.6628C59.998 36.3288 61.0307 37.1111 61.9742 37.9968C65.4901 41.2651 67.6325 45.7807 67.9576 50.6082C67.9817 51.0546 67.9998 51.4949 67.9998 51.9393Z" fill="url(#paint0_linear_8874_32813)"/>
<path d="M65.1699 59.1054C65.17 59.6401 65.1215 60.1737 65.0253 60.6994C64.9972 60.8359 64.9691 60.9746 64.9369 61.107C64.8767 61.3517 64.8124 61.5881 64.7361 61.8266C64.6939 61.9489 64.6517 62.0712 64.6055 62.1894C64.5593 62.3077 64.5071 62.43 64.4569 62.5523C64.3027 62.9107 64.1221 63.2569 63.9166 63.5878C63.6517 64.0218 63.3492 64.4311 63.0127 64.8108C61.4702 66.5414 56.2339 69.6275 54.3037 70.8831L50.0195 73.533C46.8801 75.496 43.9115 76.8862 40.1776 76.9799C40.0008 76.9799 39.8281 76.9799 39.6554 76.9799C39.4143 76.9799 39.1753 76.9799 38.9383 76.9657C35.9148 76.8476 32.9651 75.9849 30.3435 74.4518C27.7218 72.9187 25.5071 70.7614 23.8903 68.166C22.3989 65.7831 21.4594 63.0881 21.1426 60.2835C21.3729 61.5879 21.9046 62.8182 22.6941 63.8736C23.4835 64.9291 24.5082 65.7796 25.6842 66.3555C26.8602 66.9313 28.1539 67.216 29.4593 67.1864C30.7646 67.1567 32.0445 66.8134 33.1939 66.1847L33.222 66.1704L33.6418 65.9156L35.347 64.8964L37.5183 63.5918V63.5307L37.7974 63.3615L57.2221 51.6836L58.7165 50.7847L58.8651 50.8356H58.8832C59.3112 50.9444 59.7291 51.0904 60.1325 51.2718C61.0535 51.6779 61.8946 52.2497 62.6151 52.9596C62.9046 53.2399 63.1732 53.5417 63.4185 53.8626C63.6281 54.1324 63.8194 54.4164 63.9909 54.7126C64.7708 56.0406 65.1784 57.5595 65.1699 59.1054Z" fill="url(#paint1_linear_8874_32813)"/>
<path d="M37.522 20.1312V63.6078L35.3427 64.9042L33.6354 65.9234L33.2157 66.1823C33.2059 66.1836 33.1968 66.1878 33.1895 66.1945C32.0403 66.8232 30.7606 67.1665 29.4554 67.1964C28.1501 67.2262 26.8565 66.9416 25.6806 66.366C24.5046 65.7904 23.4799 64.9401 22.6903 63.8849C21.9007 62.8297 21.3689 61.5996 21.1383 60.2954C21.1061 60.114 21.082 59.9265 21.0619 59.7451C21.0358 59.4026 21.0177 59.0663 21.0117 58.7259V9.80476C21.0122 9.29586 21.149 8.79667 21.4074 8.36058C21.6659 7.92449 22.0363 7.56792 22.4791 7.32901C22.9218 7.09011 23.4203 6.97786 23.921 7.00427C24.4218 7.03069 24.9061 7.19477 25.3221 7.47897L33.772 13.0804C33.8181 13.119 33.8671 13.1538 33.9186 13.1844C35.0322 13.9561 35.9427 14.9926 36.5708 16.2034C37.1989 17.4143 37.5254 18.7628 37.522 20.1312Z" fill="url(#paint2_linear_8874_32813)"/>
<g opacity="0.149">
<g opacity="0.149">
<path opacity="0.149" d="M65.1699 59.1054C65.17 59.6401 65.1215 60.1737 65.0253 60.6994C64.9972 60.8359 64.9691 60.9746 64.9369 61.107C64.8767 61.3517 64.8124 61.5881 64.7361 61.8266C64.6939 61.9489 64.6517 62.0712 64.6055 62.1894C64.5593 62.3077 64.5071 62.43 64.4569 62.5523C64.3027 62.9107 64.1221 63.2569 63.9166 63.5878C63.652 64.0221 63.3495 64.4314 63.0127 64.8108C61.4702 66.5414 56.2339 69.6275 54.3037 70.8831L50.0195 73.533C46.8801 75.496 43.9115 76.8862 40.1776 76.9799C40.0008 76.9799 39.8281 76.9799 39.6554 76.9799C39.4143 76.9799 39.1753 76.9799 38.9383 76.9657C35.9148 76.8476 32.9651 75.9849 30.3435 74.4518C27.7218 72.9187 25.5071 70.7614 23.8903 68.166C22.3989 65.7831 21.4594 63.0881 21.1426 60.2835C21.3729 61.5879 21.9046 62.8182 22.6941 63.8736C23.4835 64.9291 24.5082 65.7796 25.6842 66.3555C26.8602 66.9313 28.1539 67.216 29.4593 67.1864C30.7646 67.1567 32.0445 66.8134 33.1939 66.1847L33.222 66.1704L33.6418 65.9156L35.347 64.8964L37.5183 63.5918V63.5307L37.7974 63.3615L57.2221 51.6836L58.7165 50.7847L58.8651 50.8356H58.8832C59.3112 50.9444 59.7291 51.0904 60.1325 51.2718C61.0535 51.6779 61.8946 52.2497 62.6151 52.9596C62.9046 53.2399 63.1732 53.5417 63.4185 53.8626C63.6281 54.1324 63.8194 54.4164 63.9909 54.7126C64.7708 56.0406 65.1784 57.5595 65.1699 59.1054Z" fill="url(#paint3_linear_8874_32813)"/>
</g>
</g>
<g opacity="0.098">
<g opacity="0.098">
<path opacity="0.098" d="M37.522 20.1312V63.6078L35.3427 64.9042L33.6354 65.9234L33.2157 66.1823C33.2059 66.1836 33.1968 66.1878 33.1895 66.1945C32.0403 66.8232 30.7606 67.1665 29.4554 67.1964C28.1501 67.2262 26.8565 66.9416 25.6806 66.366C24.5046 65.7904 23.4799 64.9401 22.6903 63.8849C21.9007 62.8297 21.3689 61.5996 21.1383 60.2954C21.1061 60.114 21.082 59.9265 21.0619 59.7451C21.0358 59.4026 21.0177 59.0663 21.0117 58.7259V9.80476C21.0122 9.29586 21.149 8.79667 21.4074 8.36058C21.6659 7.92449 22.0363 7.56792 22.4791 7.32901C22.9218 7.09011 23.4203 6.97786 23.921 7.00427C24.4218 7.03069 24.9061 7.19477 25.3221 7.47897L33.772 13.0804C33.8181 13.119 33.8671 13.1538 33.9186 13.1844C35.0322 13.9561 35.9427 14.9926 36.5708 16.2034C37.1989 17.4143 37.5254 18.7628 37.522 20.1312Z" fill="url(#paint4_linear_8874_32813)"/>
</g>
</g>
<defs>
<linearGradient id="paint0_linear_8874_32813" x1="38.8794" y1="37.9113" x2="69.3522" y2="55.2645" gradientUnits="userSpaceOnUse">
<stop stop-color="#37BDFF"/>
<stop offset="0.18" stop-color="#33BFFD"/>
<stop offset="0.36" stop-color="#28C5F5"/>
<stop offset="0.53" stop-color="#15D0E9"/>
<stop offset="0.55" stop-color="#12D1E7"/>
<stop offset="0.59" stop-color="#1CD2E5"/>
<stop offset="0.77" stop-color="#42D8DC"/>
<stop offset="0.91" stop-color="#59DBD6"/>
<stop offset="1" stop-color="#62DCD4"/>
</linearGradient>
<linearGradient id="paint1_linear_8874_32813" x1="21.1512" y1="64.5242" x2="65.202" y2="64.5242" gradientUnits="userSpaceOnUse">
<stop stop-color="#39D2FF"/>
<stop offset="0.15" stop-color="#38CEFE"/>
<stop offset="0.29" stop-color="#35C3FA"/>
<stop offset="0.43" stop-color="#2FB0F3"/>
<stop offset="0.55" stop-color="#299AEB"/>
<stop offset="0.58" stop-color="#2692EC"/>
<stop offset="0.76" stop-color="#1A6CF1"/>
<stop offset="0.91" stop-color="#1355F4"/>
<stop offset="1" stop-color="#104CF5"/>
</linearGradient>
<linearGradient id="paint2_linear_8874_32813" x1="29.307" y1="68.4133" x2="29.307" y2="8.65705" gradientUnits="userSpaceOnUse">
<stop stop-color="#1B48EF"/>
<stop offset="0.12" stop-color="#1C51F0"/>
<stop offset="0.32" stop-color="#1E69F5"/>
<stop offset="0.57" stop-color="#2190FB"/>
<stop offset="1" stop-color="#26B8F4"/>
</linearGradient>
<linearGradient id="paint3_linear_8874_32813" x1="29.8926" y1="75.5385" x2="57.4994" y2="48.3849" gradientUnits="userSpaceOnUse">
<stop stop-color="white"/>
<stop offset="0.37" stop-color="#FDFDFD"/>
<stop offset="0.51" stop-color="#F6F6F6"/>
<stop offset="0.6" stop-color="#EBEBEB"/>
<stop offset="0.68" stop-color="#DADADA"/>
<stop offset="0.75" stop-color="#C4C4C4"/>
<stop offset="0.81" stop-color="#A8A8A8"/>
<stop offset="0.86" stop-color="#888888"/>
<stop offset="0.91" stop-color="#626262"/>
<stop offset="0.95" stop-color="#373737"/>
<stop offset="0.99" stop-color="#090909"/>
<stop offset="1"/>
</linearGradient>
<linearGradient id="paint4_linear_8874_32813" x1="-494.109" y1="40225.3" x2="-494.109" y2="39498.1" gradientUnits="userSpaceOnUse">
<stop stop-color="white"/>
<stop offset="0.37" stop-color="#FDFDFD"/>
<stop offset="0.51" stop-color="#F6F6F6"/>
<stop offset="0.6" stop-color="#EBEBEB"/>
<stop offset="0.68" stop-color="#DADADA"/>
<stop offset="0.75" stop-color="#C4C4C4"/>
<stop offset="0.81" stop-color="#A8A8A8"/>
<stop offset="0.86" stop-color="#888888"/>
<stop offset="0.91" stop-color="#626262"/>
<stop offset="0.95" stop-color="#373737"/>
<stop offset="0.99" stop-color="#090909"/>
<stop offset="1"/>
</linearGradient>
</defs>
</svg>
