<svg width="100%" height="100%" viewBox="0 0 80 80" fill="none" xmlns="http://www.w3.org/2000/svg">
<circle cx="40" cy="40" r="39.5" fill="white" stroke="#ECECEC"/>
<mask id="mask0_8870_32773" style="mask-type:alpha" maskUnits="userSpaceOnUse" x="0" y="0" width="80" height="80">
<circle cx="40" cy="40" r="39.5" fill="white" stroke="#D0D0CE"/>
</mask>
<g mask="url(#mask0_8870_32773)">
<path d="M8.01468 39.5136C8.01468 44.2246 8.06162 48.9357 8.01468 53.6467C7.92434 55.079 8.25233 56.5064 8.95746 57.7498C9.66259 58.9931 10.7134 59.9968 11.9779 60.6349C20.0698 65.3073 28.137 70.0456 36.1797 74.8499C37.3191 75.6006 38.6478 76 40.0055 76C41.3632 76 42.6918 75.6006 43.8312 74.8499C52.0661 69.9684 60.3346 65.1482 68.5963 60.3077C69.6532 59.7482 70.5332 58.8964 71.1347 57.8506C71.7362 56.8048 72.0349 55.6075 71.9962 54.3967C71.9962 44.4837 71.9962 34.5707 71.9962 24.6577C72.0372 23.4531 71.7446 22.261 71.1518 21.2172C70.5591 20.1734 69.6899 19.3198 68.6432 18.7536C60.2653 13.8448 51.8918 8.93376 43.5227 4.02045C42.4865 3.35386 41.2854 3 40.0591 3C38.8328 3 37.6317 3.35386 36.5955 4.02045C28.3136 8.87468 20.0452 13.7494 11.7432 18.5695C10.5683 19.1804 9.59282 20.1243 8.93467 21.2871C8.27652 22.4499 7.96395 23.7817 8.0348 25.1213C8.0415 29.9278 8.01468 34.7207 8.01468 39.5136ZM37.8093 70.582C37.5745 70.4661 37.4471 70.4183 37.3331 70.357L13.6209 56.442C13.2281 56.235 12.9037 55.9154 12.6879 55.5227C12.4722 55.13 12.3745 54.6816 12.4071 54.2331C12.4071 45.1177 12.4071 35.9956 12.4071 26.8735V25.8781L23.1366 32.1777C23.0628 32.4163 23.0159 32.5663 22.9623 32.7163C21.9639 35.3095 21.5531 38.0981 21.7602 40.8749C21.9674 43.6516 22.7872 46.3453 24.1589 48.7558C25.5306 51.1662 27.4188 53.2315 29.6833 54.7982C31.9478 56.3649 34.5304 57.3928 37.2392 57.8055C37.7958 57.901 37.8428 58.1669 37.8428 58.6305C37.8428 62.4143 37.8428 66.1982 37.8428 69.982C37.8361 70.1661 37.8227 70.3229 37.8093 70.582ZM56.8542 32.2118L67.5837 25.919C67.5837 26.1372 67.6306 26.2326 67.6306 26.3281V54.3489C67.6361 54.8015 67.5123 55.2459 67.2742 55.6283C67.0362 56.0107 66.6941 56.3147 66.2894 56.5033C58.515 61.0485 50.7473 65.5937 42.9863 70.1388C42.7381 70.282 42.4833 70.4047 42.1815 70.5683V58.0101C48.1096 57.076 52.7568 54.1444 55.7611 48.8607C58.7654 43.5769 59.0671 37.9864 56.8542 32.2118ZM14.6066 22.0738C14.8145 21.9238 14.9151 21.842 15.0224 21.7807L38.795 7.81113C39.176 7.58204 39.6138 7.46922 40.0561 7.48614C40.4985 7.50306 40.9267 7.64901 41.2896 7.90657C49.0104 12.4517 56.7312 16.9741 64.452 21.4738C64.7404 21.6443 65.022 21.8284 65.3976 22.067L54.668 28.3734C50.8926 23.5464 46.0106 20.9489 39.9954 20.9625C33.9802 20.9762 29.1049 23.5601 25.3697 28.3734L14.6066 22.0738ZM37.8093 53.5172C33.1151 52.5695 29.7286 50.1083 27.6095 45.9359C26.7002 44.1995 26.1696 42.2844 26.0539 40.3208C25.9381 38.3572 26.24 36.3914 26.9389 34.5571C27.0349 34.5694 27.1294 34.5923 27.2205 34.6253C30.5735 36.6024 33.9936 38.5795 37.36 40.5908C37.482 40.6948 37.5809 40.8239 37.6503 40.9696C37.7196 41.1153 37.7578 41.2743 37.7623 41.4362C37.8025 43.2565 37.7623 45.0836 37.7623 46.8903L37.8093 53.5172ZM53.0117 34.4821C54.554 38.9136 54.212 43.0452 51.8649 46.9381C50.8282 48.6874 49.4258 50.1835 47.757 51.3205C46.0882 52.4574 44.1939 53.2074 42.2084 53.5172C42.2084 49.3106 42.2084 45.2336 42.2084 41.1566C42.22 41.0555 42.2537 40.9584 42.3071 40.8722C42.3605 40.7861 42.4321 40.7132 42.5168 40.659C45.9704 38.6204 49.424 36.5956 53.0117 34.4821ZM29.2994 30.6642C34.6642 23.4578 45.8229 23.8464 50.7585 30.6642C47.2781 32.7095 43.8111 34.7548 40.324 36.8001C40.1929 36.8339 40.0564 36.8404 39.9227 36.8193C39.7891 36.7983 39.661 36.75 39.5461 36.6774C38.2049 35.907 36.8637 35.1093 35.5225 34.3184L29.2994 30.6642Z" fill="#090A8E"/>
</g>
</svg>
