<svg width="100%" height="100%" viewBox="0 0 80 80" fill="none" xmlns="http://www.w3.org/2000/svg">
<circle cx="40" cy="40" r="39.5" fill="white" stroke="#ECECEC"/>
<path d="M66.6593 41.6668C65.4225 41.9327 62.1562 42.0805 62.1562 42.0805L61.7545 43.2821C61.7545 43.2821 63.3718 43.1541 64.5557 43.2624C64.5557 43.2624 64.9363 43.2329 64.9785 43.6564C64.9997 44.0898 64.9468 44.5429 64.9468 44.5429C64.9468 44.5429 64.9151 44.8089 64.524 44.8778C64.0695 44.9467 61.004 45.0748 61.004 45.0748L60.5072 46.6311C60.5072 46.6311 60.3275 46.9857 60.7397 46.8872C61.1203 46.7887 64.3337 46.2174 64.7566 46.2962C65.2005 46.3947 65.7079 46.966 65.5599 47.4781C65.3908 48.0987 62.1773 50.0095 60.2323 49.8815C60.2323 49.8815 59.207 49.9406 58.3508 48.6503C57.5262 47.419 58.6362 45.1043 58.6362 45.1043C58.6362 45.1043 58.1393 44.0209 58.5093 43.6269C58.5093 43.6269 58.7207 43.4594 59.355 43.4102L60.1478 41.8933C60.1478 41.8933 59.2493 41.9426 58.7207 41.3319C58.2345 40.7409 58.1922 40.4848 58.5727 40.3272C58.9744 40.1302 62.6953 39.5097 65.2534 39.5885C65.2534 39.5885 66.1519 39.49 66.9447 40.9379C66.9447 40.9379 67.3041 41.5289 66.6698 41.6668H66.6593ZM57.0189 47.4978C56.7017 48.2169 55.8244 48.9753 54.7673 48.5124C53.6891 48.0396 51.9872 44.8089 51.9872 44.8089C51.9872 44.8089 51.353 43.6072 51.2262 43.6466C51.2262 43.6466 51.0887 43.4102 51.0148 44.7301C50.909 46.0401 51.0359 48.5912 50.4545 48.995C49.926 49.389 49.2917 49.2216 48.9323 48.7586C48.6364 48.2957 48.5095 47.1826 48.6786 45.2422C48.8689 43.3018 49.3446 41.2334 49.9471 40.5931C50.5814 39.9431 51.0887 40.4158 51.279 40.5931C51.279 40.5931 52.093 41.2826 53.4671 43.3215L53.6997 43.6958C53.6997 43.6958 54.947 45.6362 55.0739 45.6264C55.0739 45.6264 55.1796 45.7249 55.2641 45.6461C55.391 45.6165 55.3487 44.9861 55.3487 44.9861C55.3487 44.9861 55.1161 42.8881 53.9534 39.3422C53.9534 39.3422 53.7843 38.8891 53.9005 38.4557C54.0062 38.0617 54.4608 38.2587 54.4608 38.2587C54.4608 38.2587 56.2155 39.0467 57.0717 41.7062C57.9174 44.3656 57.3465 46.7788 57.0294 47.4978H57.0189ZM48.4144 40.6719C48.2452 40.9477 48.1713 41.3319 47.4419 41.4402C47.4419 41.4402 40.3596 41.9032 40.0107 42.3661C40.0107 42.3661 39.7782 42.6419 40.1587 42.7108C40.5604 42.7896 42.1671 42.9866 42.9282 43.026C43.7527 43.026 46.5222 43.0457 47.537 44.208C47.537 44.208 48.1184 44.7596 48.0973 46.0105C48.0761 47.291 47.833 47.7441 47.2939 48.207C46.7337 48.6404 41.9346 50.6498 38.8374 47.5766C38.8374 47.5766 37.4209 46.0992 39.3342 44.9763C39.3342 44.9763 40.7084 44.1883 44.2284 45.1043C44.2284 45.1043 45.2855 45.4589 45.2432 45.8234C45.1798 46.2174 44.3658 46.6114 43.1819 46.5917C42.0403 46.5621 41.1946 46.0499 41.3638 46.1386C41.5223 46.1878 40.127 45.5082 39.6936 45.9711C39.2708 46.4045 39.3765 46.6606 39.7993 46.9266C40.8564 47.4978 45.0106 47.291 46.2474 46.0007C46.2474 46.0007 46.7442 45.4786 45.9937 45.0551C45.2538 44.6611 43.0974 44.4149 42.2623 44.3853C41.4695 44.3459 38.4991 44.3853 38.0552 43.6663C38.0552 43.6663 37.6323 43.1541 38.0975 41.7554C38.5837 40.278 42.0403 39.7067 43.5413 39.5885C43.5413 39.5885 47.6639 39.4309 48.4355 40.2189C48.4355 40.2189 48.5412 40.3961 48.4144 40.6621V40.6719ZM36.7233 49.3299C36.2265 49.6746 35.1694 49.5269 34.8628 49.1329C34.5669 48.7882 34.4612 47.4289 34.514 45.2915C34.588 43.1048 34.6197 40.4257 35.1483 39.9923C35.6768 39.5688 35.9939 39.9431 36.2053 40.2287C36.4167 40.5242 36.6916 40.8492 36.7338 41.5289C36.7973 42.2184 36.977 45.7643 36.977 45.7643C36.977 45.7643 37.2095 48.995 36.7338 49.3299H36.7233ZM37.7803 37.8057C36.3216 38.2686 35.328 38.1208 34.4823 37.7761C34.1123 38.3966 33.8903 38.5838 33.6155 38.6232C33.1927 38.6626 32.8227 38.0322 32.7699 37.8352C32.6853 37.6875 32.4845 37.4215 32.7276 36.8207C31.9031 36.1312 31.8396 35.2053 31.9876 34.5848C32.1779 33.8559 33.5732 31.1176 37.8015 30.7926C37.8015 30.7926 39.8733 30.6547 40.2327 31.6791H40.2961C40.2961 31.6791 42.3046 31.6791 42.2623 33.3536C42.2623 35.028 40.0424 37.1162 37.7803 37.8352V37.8057ZM39.6619 33.0384C38.33 33.2354 36.2793 34.8901 35.2962 36.2592C36.8078 36.5153 39.4505 36.4168 40.6344 34.1908C40.6344 34.1908 41.1946 32.7921 39.6619 33.0384ZM33.8164 34.1218C33.3935 34.7621 33.3724 35.1462 33.5732 35.4023C34.07 34.7128 34.9474 33.6293 36.2687 32.7823C35.254 32.8808 34.3977 33.2748 33.8164 34.1218ZM69.8305 49.261C68.858 51.487 68.0334 53.7426 67.5578 57.1211C67.5578 57.1211 67.4521 57.781 66.8707 57.5643C66.2893 57.3673 65.3379 56.4808 65.1265 55.2299C64.9151 53.5949 65.6973 50.8369 67.2935 47.6653C66.8284 46.9758 66.5007 45.9514 66.765 44.5134C66.765 44.5134 67.1878 41.8539 70.0419 39.4506C70.0419 39.4506 70.3801 39.1846 70.5704 39.2733C70.8029 39.3718 70.7078 40.2189 70.5175 40.6522C70.3484 41.0659 69.0799 43.1147 69.0799 43.1147C69.0799 43.1147 68.2871 44.5134 68.5091 45.6067C70.0101 43.4594 73.4245 39.1058 75.5386 40.4848C76.8811 41.3713 76.8811 44.2277 75.8768 45.8825C75.084 47.1925 72.8431 49.9012 69.8516 49.2708L69.8305 49.261ZM74.249 42.573C73.4667 43.3609 72.0714 44.8581 70.9721 46.8872C72.1348 46.769 73.2659 46.1681 73.6147 45.8628C74.175 45.3998 75.4646 44.1489 75.2637 42.4942C75.2637 42.4942 75.1369 41.6274 74.249 42.573ZM26.8926 50.4232C23.1506 51.487 19.62 50.9945 17.6962 50.5217C17.6433 51.2506 17.5587 51.556 17.4319 51.6742C17.2839 51.8317 16.0577 52.4818 15.3812 51.556C15.0852 51.1127 14.9372 50.3149 14.8527 49.586C10.5187 47.7539 8.51029 45.0551 8.44687 44.9566C8.34116 44.8581 7.3581 43.9027 8.34116 42.7207C9.26081 41.6569 12.3051 40.5833 15.0324 40.1598C15.1381 37.9928 15.3918 36.3183 15.7195 35.5796C16.1106 34.6931 16.6074 35.4811 17.0514 36.0721C17.4108 36.5153 17.6327 38.4163 17.6539 39.9332C19.4297 39.8544 20.5079 39.9726 22.4847 40.3272C25.085 40.7409 26.8186 41.982 26.6812 43.3806C26.5543 44.7596 25.2013 45.3309 24.6728 45.3703C24.1442 45.4097 23.2986 45.0452 23.2986 45.0452C22.7066 44.7892 23.2457 44.5528 23.9328 44.277C24.6939 43.9322 24.5248 43.5875 24.5248 43.5875C24.2499 42.7995 20.8779 42.2775 17.527 42.2775C17.527 44.0012 17.601 46.8576 17.6539 48.5222C20.0006 48.9359 21.7553 48.8473 21.7553 48.8473C21.7553 48.8473 30.3175 48.6207 30.5606 43.5284C30.8249 38.4262 21.9984 33.5407 15.4975 32.0041C9.00711 30.4183 5.32854 31.5412 5.01142 31.6889C4.66259 31.8465 4.97971 31.9056 4.97971 31.9056C4.97971 31.9056 5.32854 31.9549 5.96278 32.1519C6.59701 32.3489 6.08962 32.6444 6.08962 32.6444C4.97971 32.999 3.74295 32.7921 3.49982 32.3193C3.2567 31.8564 3.65838 31.4328 4.13406 30.8123C4.57802 30.1721 5.08541 30.1918 5.08541 30.1918C13.1191 27.5816 22.9286 32.2602 22.9286 32.2602C32.1039 36.5744 33.6684 41.6471 33.4992 43.617C33.3512 45.5574 32.5479 48.8374 26.8926 50.4331V50.4232ZM9.23967 43.3806C8.33059 43.7746 8.96483 44.405 8.96483 44.405C10.6773 46.109 12.7703 47.1826 14.7787 47.8524C15.0112 44.8975 14.9901 43.8436 14.9901 42.3563C11.8823 42.5533 10.0853 43.026 9.23967 43.3806Z" fill="black"/>
</svg>
