<svg width="100%" height="100%" viewBox="0 0 80 80" fill="none" xmlns="http://www.w3.org/2000/svg">
<circle cx="40" cy="40" r="39.5" fill="white" stroke="#ECECEC"/>
<g clip-path="url(#clip0_8870_32774)">
<path d="M10 59.9761C10.0502 59.8583 10.1185 59.7496 10.1459 59.6273C10.424 58.5358 11.0486 57.6797 11.9149 56.9641C13 56.0673 14.2583 55.8091 15.6124 55.9133C16.5607 55.9857 17.427 56.3255 18.1747 56.9279C18.1838 56.9369 18.2021 56.9324 18.2522 56.9414C18.2568 56.869 18.2705 56.801 18.2705 56.7331C18.2659 55.2837 18.2385 53.8343 18.2659 52.3849C18.2796 51.6602 19.0091 51.4066 19.5835 51.6285C19.9255 51.7599 20.1078 52.018 20.1762 52.3668C20.1762 53.5897 20.1717 54.8126 20.1717 56.0356C20.1717 57.7703 20.1717 59.5051 20.1762 61.2443C20.0759 62.5941 19.5425 63.74 18.5303 64.6549C17.737 65.3751 16.8206 65.8326 15.7446 65.9548C15.7127 65.9594 15.6854 65.9866 15.6535 66.0001C15.6215 66.0001 15.5942 66.0001 15.5623 66.0001C15.5304 65.9866 15.503 65.973 15.4711 65.9594C15.4392 65.9594 15.4118 65.9548 15.3799 65.9548C15.3206 65.9548 15.2568 65.9548 15.1975 65.9548C15.12 65.9548 15.0425 65.9548 14.9696 65.9548C14.9103 65.9548 14.8465 65.9548 14.7872 65.9594C14.7553 65.973 14.7279 65.9866 14.696 66.0001C14.6367 66.0001 14.5729 66.0001 14.5136 66.0001C14.4681 65.982 14.4225 65.9594 14.3769 65.9503C12.2021 65.5699 10.8115 64.3152 10.1596 62.2317C10.0912 62.0143 10.0502 61.7833 10 61.5614C10 61.199 10 60.8367 10 60.4743C10.0137 60.4109 10.0274 60.352 10.041 60.2886C10.0274 60.2615 10.0137 60.2298 10 60.2026C10 60.1256 10 60.0531 10 59.9761ZM18.2705 60.9454C18.275 59.2061 16.8343 57.7703 15.0881 57.7703C13.3419 57.7703 11.9149 59.1835 11.9103 60.9227C11.9012 62.6801 13.3146 64.0978 15.0744 64.1023C16.8343 64.1023 18.2659 62.6892 18.2705 60.9454Z" fill="#2495EC"/>
<path d="M55.4559 66.0001C55.3419 65.9684 55.2234 65.9231 55.1049 65.905C53.9195 65.6831 52.9894 65.049 52.228 64.1431C51.7629 63.5905 51.4347 62.9655 51.2614 62.2634C51.2022 62.0234 51.1702 61.7788 51.1383 61.5342C51.1064 61.2987 51.0699 61.0587 51.0791 60.8186C51.1611 59.1745 51.8496 57.8474 53.1809 56.851C54.1885 56.0946 55.3328 55.8319 56.5638 55.9089C58.041 56.004 59.2355 56.6653 60.1793 57.7976C60.927 58.6944 61.2644 59.7316 61.2872 60.882C61.2963 61.421 61 61.7743 60.4665 61.8785C58.0912 61.8785 55.7204 61.8785 53.345 61.8785C53.2903 61.8785 53.2356 61.9011 53.1809 61.9147C53.304 62.4582 53.6231 62.884 54.0198 63.2554C55.2143 64.365 57.1656 64.4058 58.3419 63.2871C58.6337 63.0108 58.9802 62.9202 59.3678 63.0787C59.7553 63.2327 59.9377 63.5498 59.9468 63.9393C59.9605 64.3379 59.7234 64.6232 59.4225 64.8633C58.8252 65.3434 58.1596 65.6876 57.4164 65.8778C57.2477 65.9186 57.079 65.9548 56.9103 65.9956C56.8511 65.9956 56.7872 65.9956 56.728 65.9956C56.696 65.9956 56.6687 65.9956 56.6368 65.9956C56.2447 66.0001 55.8526 66.0001 55.4559 66.0001ZM53.1854 60.0033C55.2006 60.0033 57.2158 60.0033 59.2264 60.0033C59.076 58.8257 57.5304 57.7478 56.0714 57.793C54.421 57.8429 53.304 59.1518 53.1854 60.0033Z" fill="#2495EC"/>
<path d="M44.0441 59.4731C45.1748 58.7394 46.3055 58.0102 47.4362 57.2764C48.0608 56.8733 48.6763 56.4521 49.31 56.0626C49.962 55.664 50.7872 55.963 50.8647 56.7692C50.9012 57.1315 50.7553 57.4168 50.4362 57.6207C49.2325 58.3952 48.0289 59.1742 46.8298 59.9487C46.7979 59.9668 46.7705 59.9895 46.7158 60.0257C46.8663 60.1978 46.9985 60.3654 47.1444 60.5239C47.8146 61.2713 48.4894 62.0141 49.1596 62.7614C49.6429 63.3004 50.1261 63.8394 50.6094 64.3829C51.1246 64.9626 50.8374 65.7371 50.2173 65.9545C50.1991 65.959 50.19 65.9862 50.1763 65.9998C50.0258 65.9998 49.8708 65.9998 49.7204 65.9998C49.538 65.873 49.3283 65.7688 49.1824 65.6103C48.2477 64.5867 47.3313 63.5495 46.4058 62.5213C45.9726 62.0367 45.5395 61.5566 45.0973 61.0674C44.7736 61.2803 44.4635 61.4887 44.1489 61.6789C44.0213 61.7559 43.9848 61.8465 43.9848 61.9914C43.9894 62.9969 43.9894 63.9979 43.9848 65.0034C43.9848 65.4518 43.7432 65.8005 43.3602 65.9364C43.3055 65.9545 43.2508 65.9772 43.1961 65.9998C43.0593 65.9998 42.9225 65.9998 42.7857 65.9998C42.6398 65.9092 42.4666 65.8413 42.3571 65.719C42.2386 65.5831 42.1793 65.3929 42.0927 65.2298C42.0927 60.927 42.0927 56.6288 42.0927 52.3259C42.1292 51.95 42.503 51.6013 42.9088 51.5605C43.342 51.5197 43.7751 51.7689 43.921 52.1584C43.9438 52.2127 43.962 52.2716 43.9802 52.3259C43.9802 54.6404 43.9848 56.9549 43.9848 59.2693C43.9848 59.3373 43.9848 59.4052 43.9894 59.4731C43.9848 59.4731 44.0213 59.4731 44.0441 59.4731Z" fill="#2495EC"/>
<path d="M25.6383 66C25.3967 65.9502 25.1505 65.9185 24.9179 65.8505C24.2204 65.6467 23.5821 65.3523 23.0167 64.8677C22.5471 64.4691 22.1459 64.0297 21.8313 63.5043C21.5259 62.9925 21.3116 62.4445 21.2295 61.8511C21.1885 61.5431 21.1246 61.2306 21.1338 60.9226C21.1474 60.2432 21.2705 59.5864 21.535 58.9433C21.7903 58.3228 22.1778 57.7974 22.6429 57.3354C23.4316 56.5563 24.38 56.0671 25.5015 55.9403C26.7872 55.7909 27.9909 55.9901 29.0669 56.733C30.2888 57.5754 31.0775 58.7168 31.2781 60.1979C31.4787 61.6699 31.1459 63.0106 30.1565 64.1656C29.3496 65.1122 28.3374 65.7011 27.1155 65.9456C27.0198 65.9638 26.9195 65.9819 26.8192 66C26.7736 66 26.728 66 26.6824 66C26.6505 65.9864 26.6231 65.9728 26.5912 65.9592C26.5456 65.9592 26.5 65.9547 26.4544 65.9547C26.304 65.9547 26.149 65.9547 25.9985 65.9547C25.9666 65.9547 25.9392 65.9547 25.9073 65.9547C25.8754 65.9683 25.848 65.9819 25.8161 65.9955C25.7614 66 25.6976 66 25.6383 66ZM29.4271 60.9407C29.4271 59.2014 27.9818 57.7656 26.2401 57.7702C24.4939 57.7747 23.0714 59.1879 23.0532 60.9271C23.0395 62.6619 24.4803 64.1022 26.2356 64.1022C27.9955 64.1022 29.4271 62.6845 29.4271 60.9407Z" fill="#2495EC"/>
<path d="M36.7628 65.9997C36.5485 65.9544 36.3388 65.9046 36.1245 65.8593C35.3677 65.6872 34.7066 65.3384 34.1139 64.8447C33.6215 64.4371 33.2339 63.957 32.9057 63.4135C32.6184 62.9379 32.4406 62.4216 32.3494 61.8735C32.3038 61.5973 32.2628 61.3164 32.2537 61.0356C32.2446 60.7594 32.2537 60.4785 32.3038 60.2113C32.4178 59.6089 32.5637 59.0111 32.9011 58.4947C33.1427 58.1233 33.43 57.7791 33.7172 57.4349C34.1139 56.9593 34.6154 56.6196 35.1762 56.3569C36.0971 55.9266 37.0637 55.8315 38.0622 55.9448C38.892 56.0353 39.6351 56.3388 40.3054 56.8189C40.4512 56.9231 40.5971 57.0363 40.7248 57.1631C41.012 57.4349 41.0895 57.8787 40.93 58.2456C40.7841 58.5763 40.3737 58.8254 39.9953 58.8072C39.6853 58.7937 39.4619 58.608 39.2339 58.4313C38.1032 57.5662 36.5212 57.5889 35.4133 58.4404C34.6838 59.002 34.2826 59.7403 34.1914 60.6552C34.0272 62.331 35.1807 63.717 36.6944 64.0431C37.6519 64.2514 38.5364 64.0385 39.3069 63.4044C39.8221 62.9787 40.547 63.0647 40.8616 63.5856C41.1306 64.034 40.971 64.5594 40.4786 64.9398C39.8129 65.4562 39.0607 65.7778 38.2354 65.9453C38.1397 65.9635 38.0394 65.9816 37.9391 65.9997C37.9072 65.9997 37.8798 65.9997 37.8479 65.9997C37.8023 65.9861 37.7567 65.9725 37.7111 65.9589C37.6792 65.9589 37.6519 65.9589 37.6199 65.9589C37.5743 65.9589 37.5288 65.9589 37.4832 65.9544C37.4057 65.9544 37.3327 65.9544 37.2552 65.9544C37.1959 65.9544 37.1321 65.9589 37.0728 65.9589C37.0272 65.9725 36.9816 65.9861 36.9406 65.9997C36.8859 65.9997 36.8221 65.9997 36.7628 65.9997Z" fill="#2495EC"/>
<path d="M70.0001 57.3487C69.8405 57.7518 69.5988 58.0734 69.1247 58.0824C68.9332 58.087 68.7371 58.0281 68.5548 57.9601C66.7493 57.326 64.8344 58.2908 64.3328 60.098C64.2553 60.3833 64.2189 60.6913 64.2189 60.9903C64.2052 62.2585 64.1961 63.5267 64.2234 64.7904C64.2371 65.3973 64.0274 65.8049 63.4392 65.9952C63.2888 65.9952 63.1337 65.9952 62.9833 65.9952C62.6778 65.8457 62.4134 65.651 62.3404 65.2931C62.3222 65.2071 62.3131 65.121 62.3131 65.035C62.3131 62.2539 62.3085 59.4729 62.3131 56.6874C62.3131 56.4156 62.4635 56.1846 62.7006 56.0442C63.3435 55.6547 64.2006 56.0216 64.2143 56.8187C64.2143 56.8414 64.2234 56.864 64.2371 56.9229C64.3693 56.8414 64.4924 56.7735 64.611 56.6965C65.4134 56.1665 66.2979 55.8948 67.2554 55.8993C67.6976 55.9038 68.149 55.9265 68.5867 55.9944C69.1657 56.085 69.6809 56.3115 70.0001 56.8459C70.0001 57.018 70.0001 57.1811 70.0001 57.3487Z" fill="#2495EC"/>
<path d="M44.924 15C44.9878 15.1042 45.0517 15.2129 45.1155 15.3171C45.1155 16.5218 45.1155 17.7312 45.1155 18.936C45.038 19.0447 44.9559 19.1534 44.8784 19.2621C43.4513 19.2621 42.0241 19.2621 40.597 19.2621C40.5195 19.167 40.4374 19.0764 40.3599 18.9813C40.3599 17.7583 40.3599 16.54 40.3599 15.3171C40.4101 15.2129 40.4557 15.1042 40.5058 15C41.974 15 43.4513 15 44.924 15Z" fill="#2495EC"/>
<path d="M26.0031 65.9546C26.1535 65.9546 26.3085 65.9546 26.459 65.9546C26.459 65.9682 26.459 65.9818 26.459 65.9999C26.3085 65.9999 26.1535 65.9999 26.0031 65.9999C26.0031 65.9863 26.0031 65.9727 26.0031 65.9546Z" fill="#62B4F1"/>
<path d="M14.9696 65.9595C15.0471 65.9595 15.1246 65.9595 15.1976 65.9595C15.1976 65.9731 15.1976 65.9866 15.1976 66.0002C15.1201 66.0002 15.0471 66.0002 14.9696 66.0002C14.9696 65.9866 14.9696 65.9731 14.9696 65.9595Z" fill="#5CB0F0"/>
<path d="M37.2645 65.9595C37.342 65.9595 37.4149 65.9595 37.4924 65.9595C37.4924 65.9731 37.4924 65.9912 37.4924 66.0048C37.4149 66.0048 37.342 66.0048 37.2645 66.0048C37.2645 65.9866 37.2645 65.9731 37.2645 65.9595Z" fill="#5BB0F0"/>
<path d="M14.9696 65.9595C14.9696 65.9731 14.9696 65.9866 14.9696 66.0002C14.9103 66.0002 14.8465 66.0002 14.7872 66.0002C14.7872 65.9866 14.7872 65.9731 14.7872 65.9595C14.8465 65.9595 14.9058 65.9595 14.9696 65.9595Z" fill="#6EB9F2"/>
<path d="M10.041 60.2886C10.0274 60.352 10.0137 60.4109 10 60.4743C10 60.4154 10 60.352 10 60.2931C10.0137 60.2931 10.0274 60.2931 10.041 60.2886Z" fill="#99CEF5"/>
<path d="M15.1976 66.0002C15.1976 65.9866 15.1976 65.9731 15.1976 65.9595C15.2568 65.9595 15.3207 65.9595 15.3799 65.9595C15.3799 65.9731 15.3799 65.9866 15.3799 66.0002C15.3207 66.0002 15.2568 66.0002 15.1976 66.0002Z" fill="#6DB9F2"/>
<path d="M37.2644 65.9595C37.2644 65.9731 37.2644 65.9866 37.2644 66.0002C37.2052 66.0002 37.1413 66.0002 37.0821 66.0002C37.0821 65.9866 37.0821 65.9731 37.0775 65.9595C37.1413 65.9595 37.2006 65.9595 37.2644 65.9595Z" fill="#6DB9F2"/>
<path d="M26.459 65.9999C26.459 65.9863 26.459 65.9727 26.459 65.9546C26.5046 65.9546 26.5502 65.9591 26.5958 65.9591C26.5958 65.9727 26.5958 65.9863 26.5958 65.9999C26.5502 65.9999 26.5046 65.9999 26.459 65.9999Z" fill="#7CC0F3"/>
<path d="M37.0775 65.9595C37.0775 65.9731 37.0821 65.9866 37.0821 66.0002C37.0365 66.0002 36.9909 66.0002 36.9453 66.0002C36.9909 65.9866 37.0365 65.9731 37.0775 65.9595Z" fill="#94CBF5"/>
<path d="M37.4924 65.9999C37.4924 65.9863 37.4924 65.9682 37.4924 65.9546C37.538 65.9546 37.5836 65.9546 37.6292 65.9591C37.6292 65.9727 37.6292 65.9863 37.6292 65.9999C37.5836 65.9999 37.538 65.9999 37.4924 65.9999Z" fill="#69B7F2"/>
<path d="M37.7203 65.9595C37.7659 65.9731 37.8115 65.9866 37.8571 66.0002C37.8115 66.0002 37.7659 66.0002 37.7203 66.0002C37.7203 65.9866 37.7203 65.9731 37.7203 65.9595Z" fill="#9ACEF6"/>
<path d="M14.7872 65.9595C14.7872 65.9731 14.7872 65.9866 14.7872 66.0002C14.7553 66.0002 14.728 66.0002 14.696 66.0002C14.728 65.9866 14.7553 65.9731 14.7872 65.9595Z" fill="#8EC8F5"/>
<path d="M15.3799 66.0002C15.3799 65.9866 15.3799 65.9731 15.3799 65.9595C15.4118 65.9595 15.4392 65.964 15.4711 65.964C15.4711 65.9776 15.4711 65.9912 15.4711 66.0048C15.4392 66.0002 15.4118 66.0002 15.3799 66.0002Z" fill="#8DC8F5"/>
<path d="M15.4711 66.0002C15.4711 65.9866 15.4711 65.9731 15.4711 65.9595C15.503 65.9731 15.5304 65.9866 15.5623 66.0002C15.5304 66.0002 15.503 66.0002 15.4711 66.0002Z" fill="#ABD6F8"/>
<path d="M25.8207 66.0002C25.8526 65.9866 25.8799 65.9731 25.9119 65.9595C25.9119 65.9731 25.9119 65.9866 25.9119 66.0002C25.8799 66.0002 25.8526 66.0002 25.8207 66.0002Z" fill="#99CEF6"/>
<path d="M25.9119 66.0002C25.9119 65.9866 25.9119 65.9731 25.9119 65.9595C25.9438 65.9595 25.9711 65.9595 26.003 65.9595C26.003 65.9731 26.003 65.9866 26.003 66.0048C25.9711 66.0002 25.9438 66.0002 25.9119 66.0002Z" fill="#7CBFF4"/>
<path d="M10.041 60.2887C10.0274 60.2887 10.0137 60.2932 10 60.2932C10 60.2615 10 60.2343 10 60.2026C10.0137 60.2298 10.0274 60.2615 10.041 60.2887Z" fill="#FDFDFD"/>
<path d="M26.5958 66.0002C26.5958 65.9866 26.5958 65.9731 26.5958 65.9595C26.6277 65.9731 26.655 65.9866 26.687 66.0002C26.655 66.0002 26.6277 66.0002 26.5958 66.0002Z" fill="#9FD1F7"/>
<path d="M37.7203 65.9595C37.7203 65.9731 37.7203 65.9866 37.7203 66.0002C37.6884 66.0002 37.6611 66.0002 37.6292 66.0002C37.6292 65.9866 37.6292 65.9731 37.6292 65.9595C37.6611 65.9595 37.693 65.9595 37.7203 65.9595Z" fill="#7FC1F4"/>
<path d="M19.7113 33.3893C19.7022 32.8593 19.693 32.3294 19.6794 31.7995C19.6657 31.2197 20.0669 30.6853 20.614 30.5132C20.7052 30.486 20.8009 30.4633 20.8967 30.4407C21.1155 30.4407 21.3389 30.4362 21.5578 30.4362C31.3876 30.4362 41.2219 30.4362 51.0517 30.4362C51.1885 30.4362 51.3207 30.418 51.4575 30.4044C52.5335 30.3501 53.5639 30.1282 54.5487 29.639C54.1429 28.9505 53.8283 28.2485 53.6961 27.483C53.5958 26.8897 53.5457 26.2963 53.6186 25.6849C53.6916 25.0598 53.8101 24.4529 54.0062 23.8596C54.298 22.9763 54.7265 22.1565 55.2873 21.4092C55.3511 21.3231 55.4059 21.2733 55.529 21.3367C56.9697 22.0977 58.073 23.1892 58.766 24.6567C58.9986 25.1504 59.1217 25.6985 59.2767 26.2284C59.3314 26.4141 59.3587 26.5183 59.6095 26.473C60.0335 26.4005 60.4667 26.3688 60.8952 26.3552C62.2949 26.3145 63.6536 26.473 64.8709 27.2294C65.0487 27.3381 65.2129 27.4785 65.3724 27.6144C65.4044 27.6416 65.4135 27.7186 65.3998 27.7638C65.0852 28.8328 64.4788 29.7115 63.6399 30.4407C62.6095 31.3375 61.4059 31.8493 60.0518 32.0214C59.5685 32.0803 59.0806 32.0984 58.5928 32.1075C58.415 32.112 58.3466 32.1754 58.2782 32.3204C57.763 33.4663 57.2752 34.6258 56.7052 35.7491C55.9256 37.2845 54.9682 38.7112 53.8511 40.0293C52.7204 41.3654 51.4347 42.534 49.9986 43.544C48.8314 44.3684 47.5958 45.0704 46.2645 45.5913C45.184 46.017 44.0852 46.4202 42.9681 46.7282C41.9605 47.0044 40.9165 47.1539 39.8815 47.3306C39.3025 47.4302 38.7098 47.4619 38.1216 47.5208C37 47.6295 35.8739 47.6204 34.7478 47.6068C34.2873 47.6023 33.8268 47.6023 33.3709 47.5661C32.8602 47.5253 32.3496 47.4574 31.8435 47.3849C31.1779 47.2898 30.5076 47.2173 29.8602 47.0633C29.0715 46.8776 28.2827 46.6466 27.5168 46.3794C26.9332 46.1756 26.3633 45.9129 25.8253 45.6139C25.3693 45.3648 24.9408 45.0478 24.5304 44.7171C24.1292 44.3955 23.7462 44.0423 23.4088 43.6573C23.0031 43.1907 22.6246 42.697 22.2918 42.1762C21.9408 41.6327 21.6216 41.062 21.3617 40.4731C21.0608 39.7983 20.8101 39.1008 20.5912 38.3942C20.3769 37.6967 20.2174 36.981 20.0669 36.2699C19.9711 35.8215 19.921 35.3595 19.8572 34.9021C19.8025 34.5216 19.7569 34.1411 19.7113 33.7562C19.7022 33.6293 19.7113 33.507 19.7113 33.3893Z" fill="#2495EC"/>
<path d="M37.1049 24.4208C36.4529 24.4208 35.8009 24.4208 35.1444 24.4208C34.8936 24.4208 34.7705 24.2985 34.7705 24.0584C34.7705 22.8763 34.7705 21.6896 34.7705 20.5075C34.7705 20.2946 34.8526 20.1678 35.076 20.1542C35.1535 20.1496 35.2264 20.1406 35.3039 20.1406C36.5167 20.1406 37.7341 20.1406 38.9468 20.1406C39.0426 20.1406 39.1566 20.127 39.2341 20.1723C39.3389 20.2312 39.4301 20.3308 39.4939 20.435C39.535 20.5029 39.5304 20.6116 39.5304 20.6977C39.5304 21.7621 39.5304 22.8265 39.5304 23.8863C39.5304 24.3075 39.4164 24.4208 38.997 24.4208C38.3632 24.4208 37.7341 24.4208 37.1049 24.4208Z" fill="#2495EC"/>
<path d="M32.4315 24.4254C31.4969 24.4209 30.5668 24.4209 29.6322 24.4163C29.231 24.4163 29.1216 24.3076 29.117 23.9045C29.117 22.813 29.117 21.7169 29.117 20.6253C29.117 20.2494 29.231 20.1407 29.6048 20.1316C29.8465 20.1271 30.0881 20.1226 30.3343 20.1226C31.3054 20.1271 32.2765 20.1316 33.2476 20.1316C33.3297 20.1316 33.4163 20.1316 33.4984 20.1407C33.7674 20.1769 33.8723 20.2811 33.8723 20.5528C33.8768 21.6897 33.8768 22.8311 33.8723 23.9679C33.8723 24.2352 33.7127 24.439 33.4072 24.4163C33.0835 24.4028 32.7598 24.4254 32.4315 24.4254Z" fill="#2495EC"/>
<path d="M45.1155 24.1038C45.0517 24.3348 44.8966 24.4253 44.6596 24.4253C43.3692 24.4208 42.0789 24.4208 40.7885 24.4253C40.556 24.4253 40.3873 24.3665 40.3599 24.1038C40.3599 22.8809 40.3599 21.6625 40.3599 20.4396C40.3918 20.2629 40.4876 20.1587 40.6791 20.1587C40.7384 20.1587 40.7976 20.1406 40.8569 20.1406C42.0925 20.1406 43.3327 20.1406 44.5684 20.1406C44.924 20.1406 45.0334 20.2131 45.1155 20.4849C45.1155 21.6896 45.1155 22.8944 45.1155 24.1038Z" fill="#2495EC"/>
<path d="M46.2006 29.5483C46.1276 29.4487 45.9909 29.349 45.9909 29.2494C45.9772 28.0582 45.9863 26.867 45.9863 25.6712C45.9863 25.404 46.0957 25.2817 46.3647 25.2817C47.696 25.2772 49.0227 25.2772 50.354 25.2817C50.6139 25.2817 50.7461 25.4357 50.7461 25.7301C50.7507 26.6586 50.7461 27.5871 50.7461 28.5156C50.7461 28.7059 50.7461 28.8916 50.7461 29.0818C50.7507 29.272 50.7005 29.4396 50.5273 29.5483C49.0866 29.5438 47.6459 29.5438 46.2006 29.5483Z" fill="#2495EC"/>
<path d="M39.3161 29.5435C37.9346 29.548 36.5577 29.5526 35.1763 29.548C34.8845 29.548 34.7705 29.4167 34.7705 29.0997C34.766 28.3931 34.7705 27.682 34.7705 26.9755C34.7705 26.8939 34.766 26.8124 34.7614 26.7264C34.766 26.364 34.7705 26.0017 34.7705 25.6393C34.7705 25.4129 34.8754 25.2906 35.0988 25.2815C35.3404 25.2725 35.5866 25.277 35.8283 25.277C36.9042 25.277 37.9848 25.277 39.0607 25.277C39.3753 25.277 39.5258 25.4084 39.5258 25.7209C39.5303 26.8441 39.5303 27.9674 39.5258 29.0906C39.5258 29.2763 39.4848 29.4439 39.3161 29.5435Z" fill="#2495EC"/>
<path d="M33.886 25.9156C33.8815 26.9483 33.8769 27.981 33.8769 29.0182C33.8769 29.4711 33.7903 29.5572 33.3298 29.5572C32.0988 29.5572 30.8678 29.5572 29.6368 29.5572C29.2219 29.5572 29.1216 29.4575 29.1216 29.0544C29.1216 27.9583 29.1216 26.8668 29.1216 25.7707C29.1216 25.3948 29.2356 25.2815 29.6094 25.2815C30.8267 25.277 32.0395 25.277 33.2568 25.2725C33.307 25.277 33.3617 25.277 33.4119 25.2815C33.7447 25.286 33.8632 25.4038 33.8769 25.739C33.8769 25.7979 33.8815 25.8567 33.886 25.9156Z" fill="#2495EC"/>
<path d="M45.1155 29.2218C45.038 29.3305 44.9559 29.4392 44.8784 29.5479C43.4513 29.5479 42.0241 29.5479 40.597 29.5479C40.5195 29.4528 40.4374 29.3622 40.3599 29.2671C40.3599 28.0442 40.3599 26.8258 40.3599 25.6029C40.369 25.3628 40.5104 25.2813 40.7292 25.2858C42.0561 25.2858 43.3829 25.2858 44.7097 25.2858C44.9331 25.2858 45.0562 25.4036 45.1155 25.6074C45.1155 26.8077 45.1155 28.0125 45.1155 29.2218Z" fill="#2495EC"/>
<path d="M51.4575 30.4039C51.3207 30.413 51.1885 30.4356 51.0517 30.4356C41.2219 30.4356 31.3875 30.4356 21.5578 30.4356C21.3389 30.4356 21.1155 30.4356 20.8967 30.4402C20.9924 30.4266 21.0882 30.4039 21.1793 30.4039C26.8192 30.4039 32.4635 30.4039 38.1034 30.4039C38.2037 30.4039 38.2994 30.3994 38.3997 30.3994C41.3632 30.3994 44.3222 30.4039 47.2857 30.4039C48.6763 30.3994 50.0669 30.4039 51.4575 30.4039Z" fill="#FDFDFD"/>
<path d="M42.0882 52.3213C42.0882 56.6241 42.0882 60.9225 42.0882 65.2253C42.0745 65.1438 42.0517 65.0668 42.0517 64.9852C42.0517 60.8409 42.0517 56.7011 42.0517 52.5568C42.0517 52.4843 42.0745 52.4028 42.0882 52.3213Z" fill="#FDFDFD"/>
<path d="M20.1763 61.2441C20.1763 59.5094 20.1717 57.7747 20.1717 56.0354C20.1717 54.8125 20.1717 53.5896 20.1763 52.3667C20.19 52.4482 20.2128 52.5252 20.2128 52.6068C20.2128 55.4059 20.2128 58.205 20.2128 61.0041C20.2128 61.0811 20.1854 61.1626 20.1763 61.2441Z" fill="#FDFDFD"/>
<path d="M44.0441 59.4734C44.0213 59.4734 43.9848 59.4734 43.9848 59.4734C43.9803 59.4055 43.9803 59.3375 43.9803 59.2696C43.9803 56.9551 43.9757 54.6406 43.9757 52.3262C43.9894 52.4122 44.0122 52.4983 44.0122 52.5889C44.0122 54.7992 44.0122 57.0049 44.0167 59.2152C44.0122 59.2968 44.035 59.3874 44.0441 59.4734Z" fill="#FDFDFD"/>
<path d="M53.1808 61.9234C53.2356 61.9099 53.2903 61.8872 53.345 61.8872C55.7204 61.8872 58.0912 61.8872 60.4666 61.8872C60.3799 61.9008 60.2933 61.9234 60.2021 61.9234C57.8632 61.9234 55.5243 61.9234 53.1808 61.9234Z" fill="#FDFDFD"/>
<path d="M25.9119 29.5529C25.2827 29.5529 24.649 29.5529 24.0198 29.5529C23.655 29.5529 23.5502 29.4442 23.5502 29.0909C23.5502 27.9495 23.5502 26.8126 23.5502 25.6712C23.5502 25.4312 23.687 25.2817 23.9332 25.2817C25.2599 25.2772 26.5913 25.2772 27.9181 25.2817C28.146 25.2817 28.2691 25.3995 28.2965 25.6214C28.3056 25.6939 28.3056 25.7709 28.3056 25.8479C28.3056 26.9032 28.3056 27.9585 28.3056 29.0184C28.3056 29.4623 28.2144 29.5529 27.7767 29.5529C27.1612 29.5529 26.5366 29.5529 25.9119 29.5529Z" fill="#2495EC"/>
<path d="M66.5076 65.9229C66.1246 65.9274 65.8328 65.6511 65.8237 65.2798C65.8192 64.9175 66.111 64.6276 66.4894 64.6231C66.8678 64.6186 67.1642 64.8994 67.1688 65.2617C67.1733 65.633 66.8861 65.9229 66.5076 65.9229ZM66.4712 65.7825C66.763 65.7961 66.9818 65.5968 66.9955 65.3069C67.0092 65.008 66.8177 64.7816 66.535 64.7635C66.2432 64.7454 66.0061 64.9582 65.9924 65.2526C65.9787 65.5334 66.193 65.7689 66.4712 65.7825Z" fill="#2797EC"/>
<path d="M66.471 65.7824C66.1929 65.7688 65.9787 65.5333 65.9924 65.2525C66.0061 64.9581 66.2431 64.7497 66.5348 64.7633C66.8128 64.7814 67.0043 65.0034 66.9952 65.3068C66.9815 65.5967 66.7627 65.796 66.471 65.7824ZM66.7399 65.6375C66.7536 65.6193 66.7673 65.6058 66.7809 65.5876C66.7673 65.4699 66.7171 65.3385 66.749 65.2298C66.7946 65.0577 66.7673 64.9671 66.5849 64.9536C66.4755 64.9445 66.3661 64.9536 66.2613 64.9536C66.2203 65.5288 66.2248 65.574 66.3798 65.5967C66.3935 65.5197 66.4026 65.4427 66.4254 65.2842C66.5621 65.4336 66.6533 65.5378 66.7399 65.6375Z" fill="#FAFCFE"/>
<path d="M66.7402 65.6376C66.649 65.538 66.5623 65.4338 66.4256 65.2888C66.4028 65.4428 66.3891 65.5198 66.38 65.6014C66.2249 65.5742 66.2204 65.5334 66.2614 64.9581C66.3663 64.9581 66.4757 64.9491 66.5851 64.9581C66.7675 64.9762 66.7949 65.0668 66.7493 65.2345C66.7174 65.3432 66.7675 65.47 66.7812 65.5923C66.7721 65.6059 66.7584 65.6195 66.7402 65.6376Z" fill="#2897EC"/>
</g>
<defs>
<clipPath id="clip0_8870_32774">
<rect width="60" height="51" fill="white" transform="translate(10 15)"/>
</clipPath>
</defs>
</svg>
