<svg width="100%" height="100%" viewBox="0 0 80 80" fill="none" xmlns="http://www.w3.org/2000/svg">
<circle cx="40" cy="40" r="39.5" fill="white" stroke="#ECECEC"/>
<g clip-path="url(#clip0_8870_32776)">
<mask id="mask0_8870_32776" style="mask-type:alpha" maskUnits="userSpaceOnUse" x="-15" y="-9" width="104" height="103">
<path d="M87.5574 42.2935C87.5574 70.2959 64.9308 92.9935 37.0229 92.9935C9.11499 92.9935 -13.5116 70.2959 -13.5116 42.2935C-13.5116 14.2911 9.11499 -8.40649 37.0229 -8.40649C64.9308 -8.40649 87.5574 14.2911 87.5574 42.2935Z" fill="white" stroke="#D0D0CE"/>
</mask>
<g mask="url(#mask0_8870_32776)">
<path d="M23.01 15.5L40.0229 26.3723L23.01 37.2446L6 26.3723L23.01 15.5ZM57.0344 15.5L74.046 26.3733L57.0344 37.2466L40.0229 26.3723L57.0344 15.5ZM6 48.1189L23.01 37.2466L40.0229 48.1189L23.01 58.9912L6 48.1189ZM57.0344 37.2466L74.0457 48.1198L57.0343 58.993L40.0229 48.1189L57.0344 37.2466ZM23.0114 62.6388L40.0243 51.7665L57.0343 62.6388L40.0243 73.5111L23.0114 62.6388Z" fill="#0061FF"/>
</g>
</g>
<defs>
<clipPath id="clip0_8870_32776">
<rect width="74" height="64" fill="white" transform="translate(3 12)"/>
</clipPath>
</defs>
</svg>
