<svg width="100%" height="100%" viewBox="0 0 80 80" fill="none" xmlns="http://www.w3.org/2000/svg">
<circle cx="40" cy="40" r="40" fill="white"/>
<path d="M39.7776 0.444336C18.1443 0.444336 0.444336 18.1759 0.444336 40.0146C0.444336 59.7603 14.8403 76.1492 33.6416 79.111V51.4671H23.651V40.0146H33.6416V31.287C33.6416 21.3747 39.5023 15.9249 48.5096 15.9249C52.7969 15.9249 57.2809 16.6753 57.2809 16.6753V26.4296H52.3249C47.4476 26.4296 45.9136 29.4704 45.9136 32.5903V40.0146H56.8483L55.0783 51.4671H45.9136V79.111C55.1823 77.6413 63.6223 72.8932 69.71 65.7237C75.7977 58.5542 79.132 49.4358 79.1109 40.0146C79.1109 18.1759 61.4109 0.444336 39.7776 0.444336Z" fill="#395185"/>
<circle cx="40" cy="40" r="39.5" stroke="#ECECEC"/>
</svg>
