<svg width="100%" height="100%" viewBox="0 0 80 80" fill="none" xmlns="http://www.w3.org/2000/svg">
<circle cx="40" cy="40" r="39.5" fill="white" stroke="#ECECEC"/>
<path fill-rule="evenodd" clip-rule="evenodd" d="M36.9 69.4418C40.2052 71.6645 45.6173 73 50.8747 73C60.6454 73 68 68.8504 68 59.5018C68 51.4887 63.4964 47.6348 53.1265 45.4121C47.8691 44.0766 45.9169 42.4454 45.9169 39.6312C45.9169 36.8171 48.3233 34.5849 52.682 34.5849C57.4948 34.5849 61.3992 36.2161 65.3036 39.0303V29.9869C61.5442 27.7642 57.4852 26.7244 52.3824 26.7244C43.2205 26.7244 36.1559 31.1698 36.1559 40.2227C36.1559 47.94 40.2149 51.6413 49.5314 53.7209C55.388 55.1995 58.094 56.535 58.094 60.1027C58.094 63.6609 55.0884 65.1491 50.5848 65.1491C45.9266 65.1491 40.9687 63.2221 36.7647 60.1027L36.9 69.4418ZM34.7932 36.073H30.135V72.1128H20.0647V36.073H13V27.7642H20.0647V19.3123C20.0647 8.33252 26.2209 3 35.8466 3C39.4514 3 42.1574 3.74407 44.7088 5.22268V14.266C42.3024 12.6348 40.0506 11.7476 36.8904 11.7476C32.5317 11.7476 30.1253 13.8272 30.1253 19.3123V27.7642H41.0944C37.7988 29.3955 35.547 32.3622 34.7932 36.073Z" fill="black"/>
</svg>
