<svg width="100%" height="100%" viewBox="0 0 80 80" fill="none" xmlns="http://www.w3.org/2000/svg">
<circle cx="40" cy="40" r="39.5" fill="white" stroke="#ECECEC"/>
<g clip-path="url(#clip0_8870_32780)">
<path d="M12.3636 63.7333H22.5454V39.1499L8 28.3042V59.395C8 61.7919 9.95272 63.7333 12.3636 63.7333Z" fill="#4285F4"/>
<path d="M57.4547 63.7333H67.6366C70.0474 63.7333 72.0002 61.7919 72.0002 59.395V28.3042L57.4547 39.1499V63.7333Z" fill="#34A853"/>
<path d="M57.4547 20.35V39.149L72.0002 28.3034V22.519C72.0002 17.1577 65.8438 14.0956 61.5274 17.3132L57.4547 20.35Z" fill="#FBBC04"/>
<path d="M22.5453 39.1487V20.3496L39.9998 33.3643L57.4544 20.3496V39.1487L39.9998 52.1635L22.5453 39.1487Z" fill="#EA4335"/>
<path d="M8 22.519V28.3034L22.5454 39.149V20.35L18.4727 17.3132C14.1563 14.0956 8 17.1577 8 22.519Z" fill="#C5221F"/>
</g>
<defs>
<clipPath id="clip0_8870_32780">
<rect width="64" height="48.5161" fill="white" transform="translate(8 16)"/>
</clipPath>
</defs>
</svg>
