<svg width="100%" height="100%" viewBox="0 0 80 80" fill="none" xmlns="http://www.w3.org/2000/svg">
<circle cx="40" cy="40" r="39.5" fill="white" stroke="#DDDDDD"/>
<path d="M75.2975 32.9495H72.3979V32.8001H40V47.1991H60.344C57.376 55.5812 49.4008 61.5982 40 61.5982C28.0721 61.5982 18.4014 51.9274 18.4014 39.9996C18.4014 28.0718 28.0721 18.401 40 18.401C45.5058 18.401 50.5149 20.4781 54.3288 23.8709L64.5108 13.6889C58.0816 7.69711 49.4818 4.00195 40 4.00195C20.1203 4.00195 4.00232 20.1199 4.00232 39.9996C4.00232 59.8793 20.1203 75.9973 40 75.9973C59.8797 75.9973 75.9976 59.8793 75.9976 39.9996C75.9976 37.586 75.7492 35.2299 75.2975 32.9495Z" fill="#FFC107"/>
<path d="M8.15283 23.2445L19.9799 31.9181C23.1801 23.995 30.9303 18.401 40 18.401C45.5058 18.401 50.5149 20.4781 54.3288 23.8709L64.5108 13.6889C58.0816 7.69711 49.4817 4.00195 40 4.00195C26.1733 4.00195 14.1824 11.808 8.15283 23.2445Z" fill="#FF3D00"/>
<path d="M39.9999 75.9998C49.2981 75.9998 57.7468 72.4414 64.1345 66.6548L52.9933 57.227C49.2577 60.0679 44.693 61.6044 39.9999 61.6007C30.6369 61.6007 22.6868 55.6305 19.6918 47.2988L7.953 56.3432C13.9106 68.0011 26.0094 75.9998 39.9999 75.9998Z" fill="#4CAF50"/>
<path d="M75.2974 32.9526H72.3978V32.8032H39.9999V47.2023H60.344C58.9242 51.1916 56.3668 54.6775 52.9878 57.2294L52.9932 57.2258L64.1345 66.6536C63.3462 67.37 75.9975 58.0016 75.9975 40.0028C75.9975 37.5891 75.7491 35.2331 75.2974 32.9526Z" fill="#1976D2"/>
</svg>
