<svg width="100%" height="100%" viewBox="0 0 80 80" fill="none" xmlns="http://www.w3.org/2000/svg">
<circle cx="40" cy="40" r="39.5" fill="white" stroke="#ECECEC"/>
<g clip-path="url(#clip0_8870_32789)">
<path d="M53.4404 66.8833C49.7303 63.1732 49.7303 57.1543 53.4404 53.4409C46.0169 60.8644 33.9825 60.8644 26.559 53.4409C30.269 57.151 30.269 63.1699 26.559 66.8833C22.8489 70.5934 16.83 70.5934 13.1166 66.8833C27.9402 81.7069 52.0591 81.7069 66.8828 66.8833C63.1693 70.5934 57.1505 70.5934 53.4404 66.8833Z" fill="#FBBC04"/>
<path d="M66.883 13.1163C52.0593 -1.70738 27.9404 -1.70738 13.1168 13.1163C-1.70689 27.9399 -1.70689 52.0588 13.1168 66.8825C9.40668 63.1724 9.40668 57.1535 13.1168 53.4401C16.8268 49.73 22.8457 49.73 26.5591 53.4401C19.1356 46.0166 19.1356 33.9822 26.5591 26.5587C33.9827 19.1352 46.0171 19.1352 53.4406 26.5587C57.1507 30.2687 63.1695 30.2687 66.883 26.5587C70.593 22.8452 70.593 16.8297 66.883 13.1163Z" fill="#4184F3"/>
<path d="M19.836 69.6651C25.0858 69.6651 29.3415 65.4094 29.3415 60.1597C29.3415 54.91 25.0858 50.6543 19.836 50.6543C14.5863 50.6543 10.3306 54.91 10.3306 60.1597C10.3306 65.4094 14.5863 69.6651 19.836 69.6651Z" fill="#34A853"/>
<path d="M66.8831 13.1177C70.5932 16.8278 70.5932 22.8466 66.8831 26.5601C63.1731 30.2701 57.1542 30.2701 53.4408 26.5601C60.8643 33.9836 60.8643 46.018 53.4408 53.4415C49.7307 57.1516 49.7307 63.1705 53.4408 66.8839C57.1508 70.594 63.1697 70.594 66.8831 66.8839C81.7034 52.0602 81.7034 27.9413 66.8831 13.1177Z" fill="#EA4335"/>
</g>
<defs>
<clipPath id="clip0_8870_32789">
<rect width="76" height="76" fill="white" transform="translate(2 2)"/>
</clipPath>
</defs>
</svg>
