<svg width="100%" height="100%" viewBox="0 0 80 80" fill="none" xmlns="http://www.w3.org/2000/svg">
<circle cx="40" cy="40" r="39.5" fill="white" stroke="#ECECEC"/>
<g clip-path="url(#clip0_8870_32785)">
<path d="M19.0704 69.7283L3.89582 43.7896C3.3124 42.7924 3.00525 41.6611 3.00525 40.5096C3.00525 39.3581 3.3124 38.2269 3.89582 37.2296L19.0704 11.2915C19.6539 10.2941 20.4932 9.46589 21.5039 8.89008C22.5145 8.31426 23.661 8.01116 24.828 8.01123H55.1771C56.3441 8.01126 57.4904 8.31441 58.501 8.89022C59.5116 9.46603 60.3508 10.2942 60.9342 11.2915L76.1088 37.2296C76.6923 38.2269 76.9995 39.3583 76.9995 40.5099C76.9995 41.6615 76.6923 42.7929 76.1088 43.7902L60.9342 69.7283C60.3507 70.7255 59.5115 71.5536 58.5009 72.1293C57.4903 72.705 56.344 73.008 55.1771 73.008H24.828C23.661 73.0081 22.5145 72.705 21.5038 72.1292C20.4931 71.5534 19.6538 70.7252 19.0704 69.7277V69.7283Z" fill="url(#paint0_linear_8870_32785)"/>
<path opacity="0.07" d="M71.9289 53.3341L49.6128 31.31L40.0022 28.772L31.3698 31.9381L28.036 40.5096L30.7166 50.0532L54.3819 73.4076L59.4037 73.1874L71.9289 53.3341Z" fill="black"/>
<path d="M40.0029 27.2769C32.5978 27.2769 26.5945 33.2013 26.5945 40.5098C26.5945 47.8176 32.5978 53.7421 40.0029 53.7421C47.408 53.7421 53.4108 47.8176 53.4108 40.5098C53.4108 33.2013 47.4075 27.2769 40.0029 27.2769ZM40.0029 50.5497C34.384 50.5497 29.8288 46.0543 29.8288 40.5092C29.8288 34.9641 34.384 30.4693 40.0029 30.4693C45.6218 30.4693 50.177 34.9647 50.177 40.5098C50.177 46.0548 45.6218 50.5502 40.0029 50.5502" fill="white"/>
<path d="M33.6357 39.9982V44.1113C34.2524 45.1561 35.1225 46.0334 36.1677 46.6642V39.9982H33.6357ZM38.6564 36.5308V47.6044C39.0871 47.6825 39.5276 47.7299 39.9802 47.7299C40.393 47.7299 40.7953 47.6871 41.1901 47.6221V36.5308H38.6564ZM43.9117 41.7073V46.5918C44.9737 45.9254 45.8456 45.0025 46.4449 43.9105V41.7079L43.9117 41.7073ZM49.6492 48.6598L48.2601 50.0318C48.1424 50.1482 48.0764 50.3058 48.0764 50.4702C48.0764 50.6346 48.1424 50.7923 48.2601 50.9086L53.5293 56.1069C53.6472 56.223 53.807 56.2882 53.9736 56.2882C54.1401 56.2882 54.2999 56.223 54.4178 56.1069L55.807 54.7366C55.9239 54.6199 55.9895 54.4625 55.9895 54.2984C55.9895 54.1344 55.9239 53.9769 55.807 53.8603L50.5372 48.6598C50.4191 48.5441 50.2595 48.4792 50.0932 48.4792C49.9269 48.4792 49.7673 48.5441 49.6492 48.6598Z" fill="white"/>
</g>
<defs>
<linearGradient id="paint0_linear_8870_32785" x1="40.0026" y1="8.0118" x2="40.0026" y2="72.907" gradientUnits="userSpaceOnUse">
<stop stop-color="#4387FD"/>
<stop offset="1" stop-color="#4683EA"/>
</linearGradient>
<clipPath id="clip0_8870_32785">
<rect width="74" height="65" fill="white" transform="translate(3 8)"/>
</clipPath>
</defs>
</svg>
