<svg width="100%" height="100%" viewBox="0 0 80 80" fill="none" xmlns="http://www.w3.org/2000/svg">
<circle cx="40" cy="40" r="39.5" fill="white" stroke="#ECECEC"/>
<path d="M59.1876 71.6134H21.8125C19.4406 71.6134 17.5 69.6732 17.5 67.3018V12.6885C17.5 10.3172 19.4406 8.37695 21.8125 8.37695H47.6876L63.5001 24.1861V67.3018C63.5001 69.6732 61.5595 71.6134 59.1876 71.6134Z" fill="#0DC54C"/>
<path d="M47.6876 8.37695L63.5002 24.1861H47.6876V8.37695Z" fill="#08962D"/>
<path d="M26.125 33.167V53.2877H54.8751V33.167H26.125ZM29.7188 36.76H38.7032V41.4308H29.7188V36.76ZM29.7188 45.0238H38.7032V49.6947H29.7188V45.0238ZM51.2813 49.6947H42.2969V45.0238H51.2813V49.6947ZM51.2813 41.4308H42.2969V36.76H51.2813V41.4308Z" fill="#FDFFFF"/>
</svg>
