<svg width="100%" height="100%" viewBox="0 0 80 80" fill="none" xmlns="http://www.w3.org/2000/svg">
<circle cx="40" cy="40" r="39.5" fill="white" stroke="#ECECEC"/>
<path d="M49.856 25.9297H50.0935L49.9748 25.811L58.2873 17.4985V17.3203C51.281 11.1453 41.6029 9.00785 32.6373 11.6797C23.6717 14.3516 16.7842 21.4766 14.2904 30.5016C14.4092 30.4422 14.5873 30.3828 14.7654 30.3828C17.8529 28.3641 21.5342 27.1766 25.3935 27.1766C26.6998 27.1766 27.9467 27.2953 29.1935 27.5328C29.2529 27.4735 29.3123 27.4735 29.3717 27.4735C34.7154 21.5953 43.7404 20.8828 49.9154 25.9297H49.856Z" fill="#EA4535"/>
<path d="M66.1846 30.3797C64.819 25.3328 61.969 20.7609 57.9909 17.2578L49.5002 25.6891C53.0627 28.5984 55.1409 32.9922 55.0221 37.5641V39.0484C65.0565 39.0484 65.0565 54.0109 55.0221 54.0109H39.9408V65.8859H39.8815L39.9408 66.0047H55.0221C63.6909 66.0641 71.3502 60.4828 73.9034 52.2891C76.4565 44.0953 73.3096 35.1891 66.1846 30.3797Z" fill="#557EBF"/>
<path d="M25.1561 66.0639H40.7717V54.0701H25.1561C24.0279 54.0701 22.9592 53.8326 21.9498 53.417L12.9248 62.0857V62.2045C16.4873 64.7576 20.7623 66.1232 25.2154 66.1232L25.1561 66.0639Z" fill="#36A852"/>
<path d="M25.8687 26.8799C17.0218 26.9393 9.1843 32.4018 6.3343 40.4174C3.4843 48.4924 6.3343 57.3393 13.3405 62.5643L22.603 53.7174C17.4968 51.5205 16.3093 45.108 20.228 41.3674C24.1468 37.5674 30.7968 38.7549 33.1124 43.6236L42.3749 34.7768C38.4562 29.8486 32.3405 26.9393 25.8687 26.9986V26.8799Z" fill="#F9BC15"/>
</svg>
