<svg width="100%" height="100%" viewBox="0 0 80 80" fill="none" xmlns="http://www.w3.org/2000/svg">
<circle cx="40" cy="40" r="39.5" fill="white" stroke="#ECECEC"/>
<g clip-path="url(#clip0_8870_32788)">
<path d="M63.5662 33.3054C67.4005 30.9542 72.3946 32.1883 74.7194 36.0617C77.0469 39.9351 75.8253 44.98 71.9909 47.3285C71.8887 47.391 71.7864 47.4508 71.6842 47.5079L29.383 72.1155C25.5487 74.4667 20.5546 73.2327 18.2271 69.3593C15.8996 65.4859 17.1212 60.441 20.9556 58.0897C21.0578 58.0272 21.16 57.9674 21.2623 57.9103L63.5662 33.3054Z" fill="#81C995"/>
<path d="M33.1715 15.765C33.1903 11.2447 29.5766 7.5616 25.1019 7.54257C24.5261 7.53985 23.953 7.59965 23.3879 7.71925C19.5966 8.65974 16.9463 12.1173 17.0001 16.064V64.9395L33.1553 65.2358L33.1715 15.765Z" fill="#34A853"/>
<path d="M63.7492 47.5373C67.6588 49.5841 72.4699 48.2739 74.8324 44.5174C77.1034 40.6576 75.8468 35.667 72.0259 33.3729C71.9963 33.3566 71.9694 33.3403 71.9398 33.3212L29.3561 8.6701C25.5648 6.35693 20.6327 7.58555 18.3401 11.4155C18.2836 11.5106 18.2271 11.6084 18.1733 11.7063C15.9239 15.596 17.2208 20.5947 21.0713 22.8698C21.0982 22.8862 21.1251 22.8997 21.152 22.9161L63.7492 47.5373Z" fill="#5BB974"/>
<path d="M71.6601 47.5938L33.1581 69.3202V50.6572L63.7089 33.4485C67.7585 31.1815 72.8628 32.6602 75.1069 36.7538C75.3168 37.1343 75.4944 37.5312 75.6424 37.9389C76.7886 41.7036 75.115 45.7618 71.6601 47.5938Z" fill="#81C995"/>
<path d="M25.094 73.4986C29.5551 73.4986 33.1716 69.8453 33.1716 65.3387C33.1716 60.832 29.5551 57.1787 25.094 57.1787C20.6328 57.1787 17.0164 60.832 17.0164 65.3387C17.0164 69.8453 20.6328 73.4986 25.094 73.4986Z" fill="#1E8E3E"/>
</g>
<defs>
<clipPath id="clip0_8870_32788">
<rect width="59" height="66" fill="white" transform="translate(17 7.5)"/>
</clipPath>
</defs>
</svg>
