<svg width="100%" height="100%" viewBox="0 0 80 80" fill="none" xmlns="http://www.w3.org/2000/svg">
<circle cx="40" cy="40" r="39.5" fill="white" stroke="#ECECEC"/>
<path d="M7.56336 47.7748L30.1414 9.20361C33.0091 10.8884 47.4694 18.8745 49.8025 20.3931L27.2268 58.9643C24.7601 62.2191 4.43775 52.7144 7.56336 47.7748Z" fill="#FBBC04"/>
<path d="M72.4797 47.7744L49.904 9.2032C46.7479 3.96413 39.9504 2.05944 34.3674 5.15515C28.7844 8.25086 27.0845 14.9196 30.2406 20.395L52.8162 58.9662C55.9723 64.2053 62.7699 66.11 68.3529 63.0143C73.6943 59.9186 75.6358 53.0135 72.4797 47.7767V47.7744Z" fill="#4285F4"/>
<path d="M17.3325 64.5043C23.5912 64.5043 28.6649 59.5669 28.6649 53.4763C28.6649 47.3857 23.5912 42.4482 17.3325 42.4482C11.0738 42.4482 6.00012 47.3857 6.00012 53.4763C6.00012 59.5669 11.0738 64.5043 17.3325 64.5043Z" fill="#34A853"/>
</svg>
