<svg width="100%" height="100%" viewBox="0 0 80 80" fill="none" xmlns="http://www.w3.org/2000/svg">
<circle cx="40" cy="40" r="39.5" fill="white" stroke="#ECECEC"/>
<path d="M66.4071 62.3677C66.4137 63.4436 66.1488 64.5085 65.63 65.4917C65.1112 66.4749 64.3503 67.3539 63.3977 68.0706C62.4452 68.7872 61.3227 69.3251 60.1047 69.6486C58.8867 69.9721 57.6011 70.0738 56.3329 69.947C51.7164 69.3714 48.3336 65.9869 48.4462 62.0562V16.8654C48.3347 12.9306 51.7259 9.54414 56.3483 8.97484C57.6152 8.84987 58.8993 8.95296 60.1154 9.2773C61.3316 9.60164 62.4521 10.1398 63.403 10.8563C64.3538 11.5727 65.1133 12.4511 65.6312 13.4333C66.1491 14.4155 66.4135 15.4792 66.4071 16.5539V62.3677Z" fill="#F9AB00"/>
<path d="M19.4695 55.7172C23.3099 55.7172 26.4231 58.9146 26.4231 62.8584C26.4231 66.8025 23.3099 69.9997 19.4695 69.9997C15.6291 69.9997 12.516 66.8025 12.516 62.8586C12.516 58.9146 15.6291 55.7172 19.4695 55.7172ZM37.7657 34.0729C33.9073 34.2902 30.9134 37.6141 31.0032 41.5818V60.7639C31.0032 65.9698 33.2336 69.1301 36.5015 69.8037C37.5146 70.0146 38.5607 69.9913 39.564 69.7354C40.5673 69.4796 41.5025 68.9976 42.3019 68.3244C43.1012 67.6512 43.7447 66.8038 44.1855 65.8435C44.6264 64.8832 44.8536 63.8342 44.8506 62.7726V41.2512C44.8523 40.2998 44.6695 39.3575 44.3129 38.4795C43.9562 37.6014 43.4329 36.805 42.7734 36.1368C42.1139 35.4687 41.3314 34.9421 40.4717 34.5877C39.6119 34.2334 38.692 34.0585 37.7657 34.0731V34.0729Z" fill="#E37400"/>
</svg>
