<svg width="100%" height="100%" viewBox="0 0 80 80" fill="none" xmlns="http://www.w3.org/2000/svg">
<circle cx="40" cy="40" r="39.5" fill="white" stroke="#ECECEC"/>
<g clip-path="url(#clip0_8870_32779)">
<path d="M40.997 4C41.2939 4.19004 41.597 4.3645 41.8814 4.56701C43.3501 5.60756 44.472 6.93161 45.0908 8.63575C45.197 8.93172 45.3283 9.05945 45.647 9.10307C47.1158 9.31491 48.5252 9.74484 49.8908 10.3212C49.9408 10.343 50.0252 10.3337 50.0689 10.3025C51.4533 9.38657 52.9908 9.0688 54.6283 9.14668C54.6815 9.1498 54.7565 9.19653 54.7815 9.24326C55.2346 10.047 55.5221 10.9069 55.6471 11.8197C55.7471 12.5518 55.719 13.2777 55.5565 14.0005C55.544 14.0566 55.5784 14.1407 55.619 14.1874C56.1065 14.7482 56.619 15.2872 57.0877 15.8604C57.8284 16.767 58.4221 17.7764 58.9627 18.8138C59.0221 18.926 59.069 19.0444 59.119 19.1597C59.0565 19.1721 58.994 19.2002 58.9315 19.2002C57.9909 19.2033 57.0534 19.2033 56.1127 19.2033C55.8596 18.9447 55.6096 18.6799 55.3502 18.4244C53.4221 16.5396 51.1596 15.2249 48.5627 14.4865C47.5439 14.1968 46.5002 14.0254 45.4439 13.9694C44.722 13.932 43.997 13.9133 43.2751 13.9413C42.5033 13.9725 41.7376 14.0846 40.9782 14.2373C39.1345 14.608 37.3751 15.2093 35.7813 16.2156C34.7907 16.8418 33.9438 17.6424 33.2063 18.5521C33.0407 18.7578 32.8751 18.9634 32.7094 19.169C32.6501 19.1597 32.5876 19.141 32.5282 19.141C29.4 19.141 26.275 19.141 23.1469 19.141C23.0812 19.141 23.0156 19.1628 22.95 19.1752C22.5937 18.3746 22.3437 17.5365 22.1562 16.6798C21.8812 15.4243 21.7969 14.1563 21.8469 12.8727C21.8625 12.4553 21.8594 12.4521 22.2437 12.2933C23.3594 11.8291 24.5219 11.5393 25.7219 11.4085C26.6313 11.3088 27.5407 11.3088 28.45 11.4147C29.3563 11.5206 30.2438 11.72 31.0907 12.0689C31.2719 12.1437 31.3688 12.1126 31.5094 12.0191C32.5688 11.3057 33.6938 10.7106 34.8782 10.2402C35.397 10.0315 35.9345 9.86323 36.4595 9.67319C36.5032 9.65761 36.5532 9.60776 36.5657 9.56415C36.8657 8.40833 37.4595 7.40204 38.1907 6.47365C38.9251 5.53902 39.8064 4.76016 40.8001 4.10281C40.847 4.07165 40.8907 4.03427 40.9376 4.00312C40.9564 4 40.9751 4 40.997 4Z" fill="#F05B2A"/>
<path d="M9.03125 58.5166C9.05 58.4076 9.075 58.2985 9.0875 58.1895C9.35937 55.5258 11.425 53.2795 14.05 52.7904C15.9187 52.4415 17.5562 52.9555 19.0281 54.1051C19.1906 54.2328 19.3469 54.373 19.5219 54.5195C19.1969 54.9276 18.8781 55.3295 18.5594 55.7314C18.3844 55.5974 18.2219 55.4635 18.05 55.3388C17.3844 54.8622 16.6656 54.4945 15.8437 54.3699C14.6937 54.1923 13.6312 54.4478 12.6875 55.1052C11.3281 56.0492 10.6344 57.3732 10.7062 59.0244C10.7875 60.8688 11.6531 62.2645 13.3719 63.0153C15.4969 63.9437 17.9156 63.0122 18.9375 60.9311C19.1312 60.5385 19.2687 60.1273 19.35 59.6787C17.6812 59.6787 16.025 59.6787 14.3594 59.6787C14.3594 59.1864 14.3594 58.7098 14.3594 58.2206C16.6062 58.2206 18.8562 58.2206 21.1469 58.2206C21.1187 58.7316 21.125 59.2425 21.0562 59.7441C20.8531 61.1865 20.2156 62.4172 19.1437 63.4079C18.1781 64.2989 17.0312 64.8098 15.725 64.9656C15.6937 64.9687 15.6625 64.9874 15.6312 64.9999C15.6 64.9999 15.5687 64.9999 15.5375 64.9999C15.5156 64.9905 15.4969 64.9812 15.475 64.9718C15.4531 64.9812 15.4312 64.9905 15.4125 64.9999C15.1719 64.9999 14.9344 64.9999 14.6937 64.9999C14.6719 64.9999 14.6531 64.9999 14.6312 64.9999C14.5781 64.9999 14.5281 64.9999 14.475 64.9999C14.3625 64.9781 14.25 64.95 14.1344 64.9313C11.3937 64.4983 9.5 62.3611 9.125 59.8064C9.09375 59.5945 9.0625 59.3827 9.03125 59.1708C9.03125 58.9528 9.03125 58.7347 9.03125 58.5166Z" fill="#565656"/>
<path d="M45.9345 64.9967C45.7845 64.9655 45.6376 64.9344 45.4876 64.9063C43.5749 64.5543 42.1248 62.9062 42.0217 60.9653C41.906 58.825 43.4311 56.9246 45.5469 56.5913C46.822 56.3888 47.9471 56.719 48.9191 57.5695C48.9566 57.6038 48.9972 57.638 49.0597 57.691C49.0597 57.3359 49.0597 57.0056 49.0597 56.666C49.5472 56.666 50.0129 56.666 50.4879 56.666C50.4879 59.4014 50.4879 62.1274 50.4879 64.8627C50.016 64.8627 49.5504 64.8627 49.066 64.8627C49.066 64.5262 49.066 64.1929 49.066 63.8408C48.9003 63.9717 48.7597 64.0932 48.6097 64.2022C48.0128 64.6353 47.3439 64.8907 46.6095 64.9655C46.5814 64.9686 46.5564 64.9873 46.5314 64.9967C46.4908 64.9967 46.447 64.9967 46.4064 64.9967C46.3032 64.9967 46.197 64.9967 46.0939 64.9967C46.0376 64.9967 45.9845 64.9967 45.9345 64.9967ZM46.272 63.3517C47.6752 63.3517 48.8347 62.199 48.8378 60.8002C48.8409 59.3764 47.6815 58.2144 46.2532 58.2082C44.85 58.2019 43.6843 59.3578 43.6843 60.7566C43.6812 62.2053 44.8219 63.3486 46.272 63.3517Z" fill="#565656"/>
<path d="M31.2783 64.9965C31.1251 64.9653 30.9689 64.9342 30.8126 64.9061C29.0595 64.5821 27.672 63.1585 27.397 61.3984C27.0376 59.1056 28.5814 56.9623 30.872 56.5947C32.1689 56.386 33.3126 56.7349 34.2908 57.6103C34.3158 57.6321 34.3439 57.6539 34.3908 57.6913C34.3908 57.3392 34.3908 57.009 34.3908 56.6695C34.8689 56.6695 35.3345 56.6695 35.8095 56.6695C35.8095 59.4015 35.8095 62.1305 35.8095 64.8625C35.3408 64.8625 34.8814 64.8625 34.4033 64.8625C34.4033 64.5292 34.4033 64.1958 34.4033 63.8345C34.347 63.875 34.3126 63.8937 34.2845 63.9217C33.6158 64.5167 32.8408 64.8687 31.947 64.9653C31.9189 64.9684 31.8939 64.9871 31.8689 64.9965C31.8283 64.9965 31.7845 64.9965 31.7439 64.9965C31.6501 64.9965 31.5564 64.9965 31.4626 64.9965C31.4033 64.9965 31.3408 64.9965 31.2783 64.9965ZM31.6533 63.3516C33.0345 63.3485 34.2095 62.1772 34.2095 60.7971C34.2126 59.3672 33.0408 58.2021 31.6033 58.2084C30.2064 58.2146 29.0564 59.3672 29.0564 60.766C29.0595 62.2146 30.2033 63.3547 31.6533 63.3516Z" fill="#565656"/>
<path d="M64.3686 64.997C64.2186 64.9659 64.0717 64.9316 63.9217 64.9035C62.1905 64.5858 60.8061 63.1464 60.5186 61.4172C60.1436 59.1678 61.6592 56.9962 63.9749 56.5974C65.2561 56.3762 66.3968 56.7189 67.3749 57.5757C67.4124 57.61 67.4531 57.6412 67.4937 57.6723C67.4968 57.6754 67.503 57.6785 67.5062 57.6817C67.5093 57.6817 67.5156 57.6785 67.5156 57.6754C67.5187 57.5788 67.5218 57.4791 67.5249 57.3826C67.5249 57.152 67.5249 56.9183 67.5249 56.6878C68.0031 56.6878 68.4624 56.6878 68.9312 56.6878C68.9312 56.7408 68.9312 56.7844 68.9312 56.8249C68.9312 59.47 68.9312 62.1151 68.9312 64.7633C68.9312 64.8007 68.9281 64.835 68.9281 64.8724C68.4624 64.8724 67.9968 64.8724 67.5124 64.8724C67.5124 64.5266 67.5124 64.1932 67.5124 63.838C67.4624 63.8785 67.4343 63.9003 67.4093 63.9253C66.8687 64.4082 66.2468 64.7353 65.5374 64.8942C65.3499 64.9378 65.1561 64.9659 64.9655 65.0001C64.9124 65.0001 64.8624 65.0001 64.8093 65.0001C64.7374 64.9908 64.6624 64.9845 64.5905 64.9752C64.5593 64.9845 64.528 64.9908 64.4968 65.0001C64.453 64.997 64.4093 64.997 64.3686 64.997ZM62.1311 60.7785C62.1561 62.2615 63.3061 63.3707 64.7936 63.3489C66.1718 63.3302 67.303 62.1494 67.2812 60.7536C67.2593 59.3173 66.0812 58.1801 64.6374 58.2082C63.2592 58.2331 62.1092 59.4139 62.1311 60.7785Z" fill="#565656"/>
<path d="M68.9628 64.872C68.9503 64.872 68.9378 64.8689 68.9284 64.8689C68.9284 64.8315 68.9316 64.7972 68.9316 64.7598C68.9316 62.115 68.9316 59.4702 68.9316 56.8222C68.9316 56.7817 68.9316 56.7412 68.9316 56.6852C68.4628 56.6852 68.0035 56.6852 67.5254 56.6852C67.5254 56.9157 67.5254 57.1493 67.5254 57.3799C67.5254 57.4764 67.5191 57.5761 67.516 57.6727C67.516 57.6758 67.5097 57.6789 67.5066 57.6789C67.5035 57.6789 67.4973 57.6727 67.4941 57.6696C67.4941 57.3767 67.4973 57.0808 67.491 56.788C67.4879 56.6883 67.5098 56.6384 67.6254 56.6384C68.0691 56.6447 68.516 56.6447 68.9597 56.6447C68.9628 59.3892 68.9628 62.1306 68.9628 64.872Z" fill="#C2C2C2"/>
<path d="M64.5873 64.9717C64.6592 64.981 64.7342 64.9873 64.806 64.9966C64.7342 64.9966 64.6592 64.9966 64.5873 64.9966C64.5873 64.9873 64.5873 64.981 64.5873 64.9717Z" fill="#B0B0B0"/>
<path d="M64.5874 64.9717C64.5874 64.981 64.5874 64.9873 64.5874 64.9966C64.5563 64.9966 64.5252 64.9966 64.4941 64.9966C64.5252 64.9873 64.5563 64.981 64.5874 64.9717Z" fill="#BFBFBF"/>
<path d="M15.4064 64.9965C15.4282 64.9872 15.4501 64.9779 15.4688 64.9685C15.4688 64.9779 15.4688 64.9872 15.4688 64.9965C15.447 64.9965 15.4251 64.9965 15.4064 64.9965Z" fill="#9B9B9B"/>
<path d="M15.4688 64.9965C15.4688 64.9872 15.4688 64.9779 15.4688 64.9685C15.4906 64.9779 15.5094 64.9872 15.5313 64.9965C15.5094 64.9965 15.4875 64.9965 15.4688 64.9965Z" fill="#B4B4B4"/>
<path d="M52.266 56.666C52.7128 56.666 53.1472 56.666 53.5972 56.666C53.5972 56.8934 53.5972 57.1146 53.5972 57.3576C53.6472 57.3234 53.6753 57.3047 53.7003 57.2829C54.9377 56.2859 56.6501 56.2859 57.8938 57.2829C58.7656 57.9838 59.2187 58.9029 59.2312 60.012C59.25 61.6008 59.2375 63.1897 59.2375 64.7786C59.2375 64.8035 59.2344 64.8284 59.2312 64.8627C58.6844 64.8627 58.1469 64.8627 57.5938 64.8627C57.5938 64.7973 57.5938 64.7349 57.5938 64.6758C57.5938 63.1336 57.5969 61.5915 57.5938 60.0494C57.5938 59.1054 56.9626 58.3608 56.0314 58.1926C54.9752 58.0025 53.9221 58.8375 53.9096 59.9092C53.8909 61.3454 53.9034 62.7847 53.9034 64.224C53.9034 64.4328 53.9034 64.6384 53.9034 64.8596C53.3597 64.8596 52.8222 64.8596 52.2722 64.8596C52.266 62.1367 52.266 59.4076 52.266 56.666Z" fill="#565656"/>
<path d="M42.4094 53.4513C42.3907 53.5011 42.3719 53.5478 42.3532 53.5946C42.1719 54.012 41.9875 54.4295 41.8125 54.85C41.7657 54.9591 41.7094 54.9934 41.5938 54.9902C41.1969 54.984 40.8031 54.9871 40.4062 54.9871C39.6843 54.9871 39.1718 55.4544 39.1093 56.1678C39.0936 56.3361 39.1061 56.5074 39.1061 56.6975C39.9718 56.6975 40.8344 56.6975 41.7032 56.6975C41.7032 57.1772 41.7032 57.6352 41.7032 58.1181C40.8437 58.1181 39.9812 58.1181 39.103 58.1181C39.103 60.3767 39.103 62.6166 39.103 64.8628C38.5655 64.8628 38.0467 64.8628 37.5029 64.8628C37.5029 64.8098 37.5029 64.7538 37.5029 64.7008C37.5029 61.9126 37.5029 59.1243 37.5029 56.3392C37.5029 55.5136 37.7311 54.7722 38.3561 54.1927C38.8436 53.741 39.4343 53.4918 40.0874 53.4606C40.8562 53.4232 41.625 53.4513 42.4094 53.4513Z" fill="#565656"/>
<path d="M24.0594 64.8626C23.5032 64.8626 22.9688 64.8626 22.425 64.8626C22.425 62.1306 22.425 59.4016 22.425 56.6665C22.8688 56.6665 23.3032 56.6665 23.7594 56.6665C23.7594 56.8752 23.7594 57.0839 23.7594 57.33C24.125 56.9905 24.5282 56.8067 24.9751 56.7288C25.1782 56.6914 25.3876 56.6665 25.5938 56.6634C26.1876 56.654 26.7813 56.6602 27.3751 56.6602C27.3938 56.6602 27.4126 56.6665 27.4469 56.6727C27.4344 56.7163 27.4251 56.7568 27.4094 56.7942C27.2313 57.2428 27.0532 57.6883 26.8813 58.14C26.8469 58.2272 26.8063 58.2583 26.7126 58.2552C26.4063 58.2521 26.0969 58.2459 25.7907 58.2646C24.8219 58.3269 24.0657 59.1275 24.0625 60.0932C24.0594 61.6228 24.0625 63.1555 24.0625 64.6851C24.0594 64.7411 24.0594 64.7972 24.0594 64.8626Z" fill="#565656"/>
<path d="M28.1813 42.6217C28.2344 42.4379 28.2844 42.2541 28.3375 42.0703C30.8 42.0703 33.2624 42.0671 35.7249 42.0671C42.0029 42.0671 48.2809 42.0671 54.562 42.0671C54.3995 42.2665 54.237 42.4628 54.0745 42.6622C53.9901 42.6622 53.9089 42.6591 53.8245 42.6591C45.3466 42.6591 36.8686 42.6591 28.3906 42.656C28.3188 42.6591 28.25 42.6341 28.1813 42.6217Z" fill="#F6AB24"/>
<path d="M28.181 42.6221C28.2498 42.6345 28.3185 42.6594 28.3873 42.6594C36.8655 42.6625 45.3437 42.6625 53.8219 42.6625C53.9063 42.6625 53.9875 42.6657 54.0719 42.6657C53.8844 42.8618 53.6938 43.0579 53.5063 43.2571C53.4281 43.2571 53.35 43.254 53.2719 43.254C44.9281 43.254 36.5811 43.254 28.2373 43.254C28.1685 43.254 28.0998 43.2322 28.031 43.2229C28.0779 43.0205 28.131 42.8213 28.181 42.6221Z" fill="#F6AD24"/>
<path d="M27.8063 44.7992C27.8156 44.6684 27.825 44.5344 27.8375 44.4036C27.9156 44.4036 27.9938 44.4036 28.0719 44.4036C36.0375 44.4036 44.0031 44.4036 51.9719 44.4036C52.0531 44.4036 52.1344 44.4223 52.2156 44.4347C51.9688 44.6216 51.7219 44.8117 51.475 44.9986C51.3969 44.9986 51.3188 44.9955 51.2406 44.9955C43.5063 44.9955 35.7688 44.9955 28.0344 44.9955C27.9656 44.9955 27.8938 44.9955 27.8188 44.9955C27.8125 44.9114 27.8094 44.8553 27.8063 44.7992Z" fill="#F7B323"/>
<path d="M27.8064 44.7998C27.8095 44.8559 27.8126 44.912 27.8157 44.9961C27.8907 44.9961 27.9595 44.9961 28.0314 44.9961C35.7657 44.9961 43.5032 44.9961 51.2376 44.9961C51.3157 44.9961 51.3939 44.9992 51.472 44.9992C51.2314 45.1176 51.2282 45.3357 51.2376 45.5569C51.1657 45.5662 51.097 45.5849 51.0251 45.5849C43.2782 45.5849 35.5282 45.5849 27.7814 45.5849C27.7907 45.3263 27.8001 45.0646 27.8064 44.7998Z" fill="#F7B523"/>
<path d="M27.7844 45.5874C35.5311 45.5874 43.281 45.5874 51.0277 45.5874C51.0995 45.5874 51.1683 45.5687 51.2401 45.5593C51.2183 45.7681 51.1995 45.9737 51.1808 46.1824C43.3935 46.1824 35.603 46.1824 27.8157 46.1824C27.8032 45.983 27.7938 45.7868 27.7844 45.5874Z" fill="#F7B723"/>
<path d="M27.8126 46.1799C35.6001 46.1799 43.3907 46.1799 51.1782 46.1799C51.1376 46.376 51.1001 46.5752 51.0595 46.7713C43.3314 46.7713 35.6032 46.7713 27.8751 46.7713C27.8564 46.5752 27.8345 46.3791 27.8126 46.1799Z" fill="#F7B923"/>
<path d="M27.8469 44.2483C27.8657 44.1143 27.8875 43.9803 27.9063 43.8433C36.2469 43.8433 44.5907 43.8433 52.9313 43.8433C52.7751 43.9772 52.6188 44.1081 52.4594 44.242C52.4032 44.2327 52.35 44.2171 52.2938 44.2171C44.2094 44.2171 36.125 44.2171 28.0407 44.2171C27.9782 44.2202 27.9125 44.2389 27.8469 44.2483Z" fill="#F6B124"/>
<path d="M38.4529 23.9013C38.6341 23.6957 38.8154 23.49 38.9966 23.2844C39.056 23.2938 39.1154 23.3125 39.1748 23.3125C43.9217 23.3125 48.6718 23.3125 53.4188 23.3125C53.475 23.3125 53.5281 23.2969 53.5844 23.2907C53.7938 23.4963 54.0063 23.6988 54.2156 23.9044C54.175 23.9044 54.1313 23.9075 54.0906 23.9075C48.9281 23.9075 43.7655 23.9075 38.606 23.9075C38.556 23.9075 38.506 23.9044 38.4529 23.9013Z" fill="#F16B29"/>
<path d="M53.5876 23.2906C53.5314 23.2968 53.4782 23.3124 53.422 23.3124C48.6751 23.3124 43.9251 23.3124 39.1782 23.3124C39.1189 23.3124 39.0595 23.2937 39.0001 23.2844C39.2095 23.0881 39.4189 22.8918 39.6251 22.6987C39.6751 22.708 39.7251 22.7205 39.7751 22.7205C44.0689 22.7205 48.3595 22.7205 52.6532 22.7205C52.7064 22.7205 52.7595 22.6956 52.8126 22.6831C53.0251 22.8513 53.2407 23.0227 53.4532 23.1909C53.497 23.2252 53.5407 23.2595 53.5876 23.2906Z" fill="#F16929"/>
<path d="M38.5563 47.6468C38.1969 47.5689 37.8344 47.5066 37.4781 47.4131C37.0844 47.3072 36.6969 47.1764 36.3063 47.0549C36.3781 47.0549 36.4531 47.0518 36.525 47.0518C41.35 47.0518 46.1719 47.0518 50.9969 47.0518C50.9344 47.248 50.8719 47.4474 50.8094 47.6437C46.7219 47.6437 42.6375 47.6468 38.5563 47.6468Z" fill="#F7BC23"/>
<path d="M52.9313 43.8433C44.5906 43.8433 36.2467 43.8433 27.906 43.8433C27.9248 43.7403 27.9435 43.6342 27.9623 43.5312C28.0404 43.5312 28.1185 43.5312 28.1966 43.5312C36.4436 43.5312 44.6874 43.5312 52.9344 43.5312C53.0313 43.5312 53.1281 43.5531 53.225 43.5656C53.1281 43.6592 53.0313 43.7528 52.9313 43.8433Z" fill="#F6B024"/>
<path d="M30.4656 33.531C30.5469 33.7304 30.6281 33.9329 30.7125 34.1323C30.6531 34.1385 30.5906 34.1541 30.5313 34.1541C28.2469 34.1541 25.9594 34.1541 23.675 34.1541C21.7125 34.1541 19.75 34.1541 17.7875 34.151C17.6063 33.9547 17.425 33.7584 17.2438 33.5622C17.3156 33.5622 17.3906 33.5622 17.4625 33.5622C21.7344 33.5622 26.0031 33.5622 30.275 33.5622C30.3375 33.5622 30.4031 33.5435 30.4656 33.531Z" fill="#F48E26"/>
<path d="M30.4657 33.531C30.4001 33.5404 30.3376 33.5622 30.272 33.5622C26.0001 33.5622 21.7314 33.5622 17.4595 33.5622C17.3876 33.5622 17.3126 33.5622 17.2407 33.5622C17.2345 33.531 17.2157 33.4936 17.2251 33.4656C17.2907 33.2879 17.3626 33.1103 17.4314 32.9326C17.4845 32.9451 17.5376 32.9669 17.5907 32.9669C21.7564 32.97 25.922 32.97 30.0876 32.9669C30.1407 32.9669 30.1939 32.9451 30.247 32.9326C30.322 33.1352 30.3939 33.3316 30.4657 33.531Z" fill="#F48C26"/>
<path d="M52.8125 22.6862C52.7594 22.6987 52.7063 22.7236 52.6531 22.7236C48.3593 22.7267 44.0686 22.7267 39.7748 22.7236C39.7248 22.7236 39.6748 22.708 39.6248 22.7018C39.8841 22.5024 40.1435 22.3 40.4029 22.1006C40.4623 22.113 40.5216 22.1317 40.5779 22.1317C44.3092 22.1317 48.0374 22.1317 51.7687 22.1317C51.8219 22.1317 51.8781 22.113 51.9312 22.1037C52.225 22.2968 52.5188 22.49 52.8125 22.6862Z" fill="#F16729"/>
<path d="M19.4375 35.6184C19.1969 35.4221 18.9531 35.2258 18.7125 35.0296C18.7844 35.0296 18.8594 35.0296 18.9313 35.0296C22.9375 35.0296 26.9438 35.0296 30.95 35.0265C31.0188 35.0265 31.0875 35.0046 31.1563 34.9922C31.2688 35.1853 31.3813 35.3754 31.4969 35.5685C31.45 35.5872 31.4 35.6184 31.3532 35.6184C27.3813 35.6184 23.4094 35.6184 19.4375 35.6184Z" fill="#F49326"/>
<path d="M31.1563 34.9925C31.0875 35.005 31.0188 35.0268 30.95 35.0268C26.9438 35.0299 22.9375 35.0268 18.9313 35.0299C18.8594 35.0299 18.7844 35.0299 18.7125 35.0299C18.5063 34.8429 18.3032 34.6528 18.0969 34.4658C20.9719 34.4658 23.85 34.4658 26.725 34.4658C28.1094 34.4658 29.4938 34.4658 30.875 34.4626C30.9719 34.6403 31.0657 34.8149 31.1563 34.9925Z" fill="#F49126"/>
<path d="M29.8376 31.5091C29.8813 31.6836 29.9251 31.8612 29.9657 32.0356C29.9001 32.0575 29.8345 32.098 29.7688 32.098C25.8594 32.1011 21.95 32.1011 18.0406 32.1011C18 32.1011 17.9562 32.1073 17.9156 32.098C17.8875 32.0917 17.8656 32.0575 17.8406 32.0356C17.9437 31.8394 18.05 31.6431 18.1531 31.4468C18.2156 31.4655 18.275 31.5029 18.3375 31.5029C22.175 31.5091 26.0063 31.5091 29.8376 31.5091Z" fill="#F38727"/>
<path d="M32.097 36.4504C32.2501 36.6528 32.4032 36.8582 32.5595 37.0606C32.5001 37.0668 32.4376 37.0824 32.3782 37.0824C29.897 37.0824 27.4126 37.0824 24.9314 37.0824C23.9126 37.0824 22.8907 37.0855 21.872 37.0855C21.497 36.8894 21.122 36.6901 20.7501 36.494C20.822 36.494 20.897 36.4909 20.9689 36.4909C24.6126 36.4909 28.2564 36.4909 31.9001 36.4878C31.9595 36.4909 32.0282 36.466 32.097 36.4504Z" fill="#F59825"/>
<path d="M32.097 36.4504C32.0282 36.4629 31.9595 36.4909 31.8938 36.4909C28.25 36.494 24.6063 36.494 20.9625 36.494C20.8906 36.494 20.8156 36.494 20.7437 36.4972C20.4531 36.3102 20.1625 36.1231 19.8718 35.9361C23.7562 35.9361 27.6407 35.9361 31.522 35.933C31.5876 35.933 31.6501 35.9143 31.7157 35.9019C31.8438 36.0826 31.9688 36.2665 32.097 36.4504Z" fill="#F49626"/>
<path d="M50.9939 47.0517C46.1689 47.0517 41.347 47.0517 36.522 47.0517C36.4501 47.0517 36.3751 47.0517 36.3032 47.0549C36.2376 47.0549 36.1689 47.0549 36.1032 47.058C36.0314 47.058 35.9564 47.0549 35.8845 47.0549C33.297 47.0549 30.7095 47.0549 28.122 47.0549C28.0501 47.0549 27.9814 47.0362 27.9095 47.0268C27.897 46.9427 27.8876 46.8586 27.8751 46.7776C35.6032 46.7776 43.3314 46.7776 51.0595 46.7776C51.0376 46.8648 51.0157 46.9583 50.9939 47.0517Z" fill="#F7BA23"/>
<path d="M29.8374 31.5092C26.0062 31.5092 22.1718 31.5092 18.3406 31.5061C18.2781 31.5061 18.2187 31.4687 18.1562 31.45C18.2594 31.2817 18.3594 31.1134 18.4625 30.9451C18.4937 30.9451 18.525 30.9482 18.5562 30.9482C22.2218 30.9482 25.8905 30.9482 29.5561 30.9482C29.5936 30.9482 29.6311 30.9544 29.6655 30.942C29.6874 30.9326 29.703 30.9015 29.7217 30.8796C29.7592 31.0885 29.7999 31.2973 29.8374 31.5092Z" fill="#F38527"/>
<path d="M18.6844 30.6026C18.8282 30.4031 18.9751 30.2036 19.1188 30.0042C19.1876 30.0166 19.2563 30.0416 19.3251 30.0416C22.7594 30.0447 26.1907 30.0447 29.6251 30.0447C29.647 30.241 29.6657 30.4405 29.6876 30.6368C26.0845 30.6368 22.4813 30.6368 18.8813 30.6368C18.8126 30.6337 18.7501 30.6119 18.6844 30.6026Z" fill="#F38227"/>
<path d="M54.5594 42.0707C48.2813 42.0707 42.0032 42.0707 35.7219 42.0707C33.2594 42.0707 30.7969 42.0707 28.3344 42.0738C28.2719 42.0022 28.2094 41.9274 28.1438 41.8557C29.3563 41.8557 30.5688 41.8526 31.7813 41.8526C34.7313 41.8526 37.6813 41.8526 40.6313 41.8495C40.7188 41.8495 40.8094 41.7934 40.8969 41.7654C41.2532 41.809 41.6063 41.8651 41.9626 41.89C42.7563 41.943 43.5501 41.9523 44.3407 41.809C44.4313 41.7934 44.525 41.781 44.6157 41.7685C44.6813 41.7778 44.7469 41.7934 44.8125 41.7934C48.1313 41.7934 51.4532 41.7934 54.7719 41.7965C54.7063 41.8838 54.6344 41.9772 54.5594 42.0707Z" fill="#F6AA24"/>
<path d="M30.2498 32.9358C30.1967 32.9483 30.1436 32.9701 30.0904 32.9701C25.9249 32.9732 21.7594 32.9732 17.5938 32.9701C17.5407 32.9701 17.4876 32.9483 17.4344 32.9358C17.5001 32.7832 17.5657 32.6274 17.6313 32.4748C21.6844 32.4748 25.7374 32.4748 29.7873 32.4748C29.8904 32.4748 29.9967 32.4717 30.0998 32.4717C30.1498 32.6243 30.1998 32.7801 30.2498 32.9358Z" fill="#F48A26"/>
<path d="M27.8029 41.4788C27.6435 41.2918 27.4873 41.1049 27.3279 40.9211C27.406 40.9211 27.4841 40.918 27.5623 40.918C30.8905 40.918 34.2187 40.918 37.55 40.918C37.6156 40.918 37.6812 40.9024 37.7469 40.8931C38.1969 41.052 38.6469 41.214 39.0969 41.3697C39.1969 41.404 39.3 41.4227 39.4031 41.4507C39.3375 41.4601 39.2719 41.4788 39.2094 41.4788C36.5281 41.4788 33.8468 41.4788 31.1655 41.4788C30.0436 41.4756 28.9248 41.4788 27.8029 41.4788Z" fill="#F6A724"/>
<path d="M49.0254 39.6992C49.2535 39.4998 49.4816 39.3005 49.7098 39.1011C49.7785 39.1135 49.8473 39.1385 49.916 39.1385C53.3191 39.1416 56.7191 39.1416 60.1223 39.1416C59.8379 39.3378 59.5566 39.5341 59.2723 39.7304C55.9066 39.7304 52.5379 39.7304 49.1723 39.7304C49.1254 39.7304 49.0754 39.7117 49.0254 39.6992Z" fill="#F5A125"/>
<path d="M21.8656 37.0855C22.8844 37.0855 23.9062 37.0824 24.925 37.0824C27.4063 37.0824 29.8907 37.0824 32.372 37.0824C32.4314 37.0824 32.4939 37.0668 32.5532 37.0605C32.7345 37.2632 32.9189 37.469 33.1001 37.6717C33.0282 37.6717 32.9532 37.6748 32.8814 37.6748C29.7782 37.6748 26.6782 37.6748 23.575 37.6748C23.5031 37.6748 23.4281 37.6779 23.3562 37.6779C22.8625 37.4815 22.3656 37.285 21.8656 37.0855Z" fill="#F59A25"/>
<path d="M49.0249 39.7C49.0749 39.7093 49.1218 39.7311 49.1718 39.7311C52.5376 39.7311 55.9065 39.7311 59.2723 39.7311C58.8347 39.9365 58.3972 40.142 57.9597 40.3474C57.8941 40.3381 57.8284 40.3225 57.7628 40.3225C54.5689 40.3225 51.3719 40.3194 48.178 40.3194C48.4624 40.114 48.7436 39.9085 49.0249 39.7Z" fill="#F5A325"/>
<path d="M60.2155 38.2319C60.2592 38.4407 60.2999 38.6494 60.3436 38.8581C56.9405 38.8581 53.5374 38.8581 50.1342 38.8581C50.0874 38.8581 50.0405 38.8332 49.9905 38.8207C50.153 38.6338 50.3186 38.45 50.4811 38.2631C50.5124 38.2631 50.5436 38.2662 50.5749 38.2662C53.7405 38.2662 56.9061 38.2662 60.0686 38.2662C60.1186 38.2662 60.1686 38.2444 60.2155 38.2319Z" fill="#F59E25"/>
<path d="M37.7438 40.8926C37.6782 40.902 37.6125 40.9175 37.5469 40.9175C34.2188 40.9175 30.8907 40.9175 27.5594 40.9175C27.4813 40.9175 27.4032 40.9206 27.3251 40.9206C27.1719 40.7214 27.0188 40.5253 26.8625 40.3261C26.9344 40.3261 27.0094 40.323 27.0813 40.323C30.2282 40.323 33.3782 40.323 36.525 40.323C36.825 40.4724 37.1282 40.6249 37.4313 40.7712C37.5344 40.8179 37.6407 40.8522 37.7438 40.8926Z" fill="#F6A524"/>
<path d="M19.8439 29.1414C20.0532 28.9327 20.2595 28.7239 20.4689 28.5183C20.5345 28.5277 20.597 28.5495 20.6626 28.5495C23.6407 28.5495 26.6189 28.5495 29.597 28.5495C29.597 28.7582 29.597 28.9638 29.597 29.1726C26.4126 29.1726 23.2251 29.1726 20.0407 29.1726C19.972 29.1694 19.9064 29.1507 19.8439 29.1414Z" fill="#F37D27"/>
<path d="M29.622 30.0446C26.1876 30.0446 22.7563 30.0446 19.322 30.0415C19.2532 30.0415 19.1845 30.0166 19.1157 30.0041C19.2626 29.8204 19.4126 29.6398 19.5595 29.4561C19.6251 29.4654 19.6907 29.481 19.7563 29.481C23.0345 29.481 26.3126 29.481 29.5907 29.481C29.6032 29.6709 29.6126 29.8578 29.622 30.0446Z" fill="#F38027"/>
<path d="M38.5563 47.6467C42.6406 47.6467 46.725 47.6467 50.8063 47.6467C50.725 47.8555 50.6438 48.0673 50.5625 48.276C50.5031 48.2636 50.4469 48.2387 50.3875 48.2387C48.0813 48.2355 45.775 48.2355 43.4688 48.2387C43.4156 48.2387 43.3625 48.2574 43.3063 48.2698C43.1782 48.0081 42.9594 47.9801 42.6906 47.9801C41.9313 47.9801 41.1719 47.977 40.4156 47.9178C39.7938 47.8679 39.175 47.7402 38.5563 47.6467Z" fill="#F7BE23"/>
<path d="M40.8375 21.814C41.2125 21.6209 41.5907 21.4246 41.9656 21.2314C42.0188 21.2408 42.075 21.2564 42.1281 21.2564C44.7375 21.2564 47.3438 21.2564 49.9531 21.2564C50.0094 21.2564 50.0625 21.2408 50.1188 21.2314C50.5469 21.4277 50.9719 21.624 51.4 21.8203C51.35 21.8296 51.3031 21.8483 51.2531 21.8483C47.8344 21.8483 44.4156 21.8483 40.9969 21.8483C40.9438 21.8483 40.8906 21.8265 40.8375 21.814Z" fill="#F16429"/>
<path d="M60.2155 38.2321C60.1686 38.2446 60.1186 38.2664 60.0717 38.2664C56.9061 38.2695 53.7405 38.2664 50.578 38.2664C50.5468 38.2664 50.5155 38.2633 50.4843 38.2633C50.6436 38.0545 50.803 37.8458 50.9624 37.6401C51.0093 37.6526 51.0593 37.6744 51.1061 37.6744C54.0905 37.6744 57.078 37.6744 60.0624 37.6744C60.1124 37.8613 60.1655 38.0452 60.2155 38.2321Z" fill="#F59C25"/>
<path d="M36.5283 40.3224C33.3814 40.3224 30.2314 40.3224 27.0845 40.3224C27.0126 40.3224 26.9376 40.3224 26.8657 40.3255C26.722 40.1261 26.5782 39.9299 26.4376 39.7305C29.4064 39.7305 32.3751 39.7305 35.347 39.7305C35.397 39.7305 35.447 39.7149 35.497 39.7056C35.8407 39.9112 36.1845 40.1168 36.5283 40.3224Z" fill="#F5A325"/>
<path d="M54.778 41.7899C51.4592 41.7899 48.1373 41.7899 44.8186 41.7867C44.753 41.7867 44.6873 41.7712 44.6217 41.7618C45.2905 41.6436 45.9248 41.4101 46.5592 41.1704C46.6155 41.1797 46.6686 41.1953 46.7248 41.1953C49.553 41.1953 52.3842 41.1953 55.2123 41.1953C55.0686 41.3945 54.9217 41.5906 54.778 41.7899Z" fill="#F6A824"/>
<path d="M35.4969 39.7056C35.4469 39.7149 35.3969 39.7305 35.3469 39.7305C32.3782 39.7305 29.4094 39.7305 26.4375 39.7305C26.3 39.5218 26.1625 39.3162 26.025 39.1074C26.0969 39.1168 26.1688 39.1355 26.2375 39.1355C28.9969 39.1355 31.7563 39.1355 34.5157 39.1355C34.5719 39.1355 34.625 39.1199 34.6813 39.1137C34.9219 39.2912 35.1625 39.4719 35.4032 39.6495C35.4313 39.6744 35.4657 39.69 35.4969 39.7056Z" fill="#F5A125"/>
<path d="M32.4783 19.5179C32.3564 19.7048 32.2376 19.8886 32.1158 20.0756C29.2032 20.0756 26.2939 20.0756 23.3814 20.0756C23.2845 19.8793 23.1907 19.6799 23.0939 19.4836C23.1657 19.493 23.2345 19.5148 23.3064 19.5148C26.1501 19.5148 28.9939 19.5148 31.8376 19.5148C32.0501 19.5148 32.2657 19.5179 32.4783 19.5179Z" fill="#F05E2A"/>
<path d="M59.7155 36.7707C59.7999 36.9794 59.8842 37.1882 59.9686 37.3938C57.0782 37.3938 54.1877 37.3938 51.2973 37.3938C51.2473 37.3938 51.2004 37.372 51.1504 37.3626C51.2754 37.157 51.4004 36.9483 51.5254 36.7427C51.5816 36.7645 51.6379 36.8019 51.6941 36.8019C54.3127 36.805 56.9313 36.805 59.5499 36.8019C59.6061 36.8019 59.6593 36.7801 59.7155 36.7707Z" fill="#F59925"/>
<path d="M34.6844 39.1168C34.6282 39.1262 34.5751 39.1386 34.5188 39.1386C31.7594 39.1386 29.0001 39.1386 26.2407 39.1386C26.1688 39.1386 26.0969 39.1199 26.0282 39.1106C25.9126 38.9237 25.8001 38.7368 25.6844 38.5498C28.3813 38.5498 31.0813 38.5498 33.7782 38.5467C33.8407 38.5467 33.9063 38.5249 33.9688 38.5125C34.2063 38.715 34.4438 38.9143 34.6844 39.1168Z" fill="#F59F25"/>
<path d="M23.3812 20.0754C26.2938 20.0754 29.2032 20.0754 32.1157 20.0754C31.997 20.2748 31.8782 20.4742 31.7595 20.6705C31.697 20.6705 31.6345 20.6674 31.572 20.6674C28.9532 20.6674 26.3344 20.6674 23.7156 20.6674C23.6062 20.468 23.4937 20.2717 23.3812 20.0754Z" fill="#F0602A"/>
<path d="M33.9688 38.5123C33.9063 38.5247 33.8407 38.5465 33.7782 38.5465C31.0813 38.5496 28.3813 38.5496 25.6844 38.5496C25.5501 38.0983 25.1625 38.1045 24.8 38.0516C24.6625 38.0329 24.5282 37.9924 24.3938 37.9613C24.4657 37.9582 24.5407 37.9582 24.6125 37.9582C27.4563 37.9582 30.3032 37.9582 33.1469 37.9582C33.2126 37.9582 33.2782 37.9395 33.3407 37.9302C33.5501 38.1232 33.7594 38.3193 33.9688 38.5123Z" fill="#F59D25"/>
<path d="M51.3686 27.7081C51.1374 27.4185 50.9061 27.1288 50.678 26.8361C50.978 26.8361 51.2811 26.8329 51.5811 26.8329C53.203 26.8329 54.8217 26.8298 56.4436 26.8298C56.578 27.1101 56.7092 27.3873 56.8436 27.6676C56.7811 27.6801 56.7186 27.705 56.653 27.705C54.8905 27.7081 53.128 27.7081 51.3686 27.7081Z" fill="#F27728"/>
<path d="M29.6501 27.428C29.6376 27.5526 29.6282 27.6772 29.6157 27.8019C29.6001 27.8704 29.5844 27.9389 29.5688 28.0106C29.5188 28.0137 29.4719 28.0168 29.4251 28.0168C26.7001 28.0168 23.9751 28.0168 21.2501 28.0168C21.1969 28.0168 21.1438 27.995 21.0907 27.9857C21.3626 27.7863 21.6313 27.59 21.9032 27.3906C21.9657 27.4031 22.0313 27.4249 22.0938 27.4249C24.6126 27.428 27.1313 27.428 29.6501 27.428Z" fill="#F27928"/>
<path d="M28.0282 43.2202C28.097 43.2327 28.1657 43.2513 28.2345 43.2513C36.5781 43.2513 44.9248 43.2513 53.2684 43.2513C53.3465 43.2513 53.4246 43.2544 53.5027 43.2544C53.4371 43.3259 53.3715 43.3974 53.309 43.4689C53.2277 43.4596 53.1465 43.4378 53.0652 43.4378C44.9967 43.4378 36.9281 43.4378 28.8564 43.4347C28.5595 43.4347 28.2657 43.4161 27.9689 43.4036C27.9907 43.3446 28.0095 43.2824 28.0282 43.2202Z" fill="#F6AE24"/>
<path d="M21.0906 27.9856C21.1438 27.998 21.1969 28.0167 21.25 28.0167C23.9749 28.0198 26.6998 28.0167 29.4248 28.0167C29.4716 28.0167 29.5154 28.0136 29.5685 28.0105C29.5841 27.9357 29.5998 27.8672 29.6154 27.8018C29.606 28.051 29.5998 28.3002 29.5904 28.5495C26.6124 28.5495 23.6343 28.5495 20.6563 28.5495C20.5906 28.5495 20.5281 28.5308 20.4625 28.5183C20.675 28.3376 20.8844 28.1631 21.0906 27.9856Z" fill="#F27B28"/>
<path d="M27.8032 41.4782C28.922 41.4782 30.0407 41.4751 31.1625 41.4751C33.8437 41.4751 36.5249 41.4751 39.2061 41.4751C39.2717 41.4751 39.3374 41.4564 39.3999 41.447C39.8999 41.5529 40.3998 41.6558 40.8998 41.7617C40.8123 41.7897 40.7217 41.8458 40.6342 41.8458C37.6843 41.8489 34.7343 41.8489 31.7844 41.8489C30.5719 41.8489 29.3594 41.8489 28.147 41.852C28.0313 41.7274 27.9188 41.6028 27.8032 41.4782Z" fill="#F6A924"/>
<path d="M46.7464 35.5903C46.7026 35.6464 46.6714 35.7149 46.6151 35.7586C46.2589 36.0421 45.8714 36.2726 45.4309 36.4003C44.0091 36.4003 42.5873 36.4035 41.1687 36.4035C40.6031 36.2228 40.0781 35.958 39.5875 35.6215C41.8967 35.6215 44.2059 35.6215 46.5183 35.6184C46.5964 35.6184 46.6714 35.5997 46.7464 35.5903Z" fill="#F49526"/>
<path d="M30.0998 32.4718C29.9967 32.4718 29.8905 32.4749 29.7873 32.4749C25.7343 32.4749 21.6812 32.4749 17.6312 32.4749C17.7031 32.3285 17.7718 32.1821 17.8437 32.0356C17.8687 32.0575 17.8906 32.0886 17.9187 32.098C17.9562 32.1073 18 32.1011 18.0437 32.1011C21.9531 32.1011 25.8655 32.1011 29.7748 32.098C29.8405 32.098 29.9061 32.0575 29.9717 32.0356C30.0123 32.179 30.0561 32.3254 30.0998 32.4718Z" fill="#F38927"/>
<path d="M27.8467 44.2483C27.9123 44.2389 27.9779 44.2202 28.0435 44.2202C36.128 44.2202 44.2125 44.2202 52.2969 44.2202C52.3532 44.2202 52.4063 44.2358 52.4625 44.2451C52.3813 44.3106 52.2969 44.3729 52.2157 44.4383C52.1344 44.4289 52.0532 44.4071 51.9719 44.4071C44.0062 44.4071 36.0405 44.4071 28.0717 44.4071C27.9935 44.4071 27.9154 44.4071 27.8373 44.4071C27.8404 44.3511 27.8435 44.3012 27.8467 44.2483Z" fill="#F7B223"/>
<path d="M27.9094 47.0237C27.9813 47.033 28.0501 47.0517 28.1219 47.0517C30.7094 47.0517 33.2969 47.0517 35.8844 47.0517C35.9563 47.0517 36.0313 47.0548 36.1032 47.0548C35.8094 47.2511 35.5157 47.4474 35.225 47.6468C35.1532 47.6468 35.0782 47.6436 35.0063 47.6436C32.6813 47.6436 30.3563 47.6436 28.0282 47.6436C27.9876 47.438 27.95 47.2293 27.9094 47.0237Z" fill="#F7BC23"/>
<path d="M46.55 24.4994C46.3282 24.4682 46.1094 24.4308 45.8875 24.4028C45.1844 24.3156 44.4907 24.3748 43.7969 24.4994C43.7813 24.5025 43.7657 24.4994 43.75 24.4994C43.5063 24.4776 43.2594 24.4402 43.0157 24.4371C41.4219 24.4308 39.8282 24.434 38.2344 24.434C38.175 24.434 38.1156 24.4153 38.0563 24.4059C38.1188 24.3218 38.1813 24.2377 38.2407 24.1536C38.3 24.166 38.3563 24.1878 38.4156 24.1878C43.7188 24.1878 49.0219 24.1878 54.3219 24.1878C54.3782 24.1878 54.4313 24.1723 54.4875 24.166C54.5813 24.2657 54.6782 24.3654 54.7719 24.4682C54.7094 24.4807 54.6438 24.4994 54.5813 24.5025C51.9094 24.4994 49.2313 24.4994 46.55 24.4994Z" fill="#F16D29"/>
<path d="M54.4938 24.1631C54.4376 24.1724 54.3845 24.1849 54.3282 24.1849C49.025 24.1849 43.7218 24.1849 38.4217 24.1849C38.3623 24.1849 38.3061 24.1631 38.2467 24.1506C38.3155 24.0665 38.3842 23.9855 38.4561 23.9014C38.5092 23.9014 38.5592 23.9045 38.6123 23.9045C43.7749 23.9045 48.9375 23.9045 54.097 23.9045C54.1376 23.9045 54.1813 23.9045 54.222 23.9014C54.3095 23.9917 54.4032 24.0758 54.4938 24.1631Z" fill="#F16C29"/>
<path d="M52.6185 33.2846C52.6404 33.0136 52.6623 32.7458 52.6842 32.4749C54.3998 32.4749 56.1185 32.4749 57.8342 32.4749C57.8342 32.724 57.831 32.9732 57.831 33.2223C57.7654 33.2441 57.6998 33.2815 57.6373 33.2815C55.9654 33.2846 54.2935 33.2846 52.6185 33.2846Z" fill="#F48B26"/>
<path d="M48.8315 25.3745C48.3971 25.1752 47.9628 24.979 47.5284 24.7797C49.9627 24.7797 52.4 24.7797 54.8342 24.7797C54.8998 24.7797 54.9623 24.761 55.028 24.7485C55.1873 24.9572 55.3436 25.1627 55.5029 25.3714C55.1748 25.3714 54.8467 25.3714 54.5186 25.3714C52.6219 25.3714 50.7251 25.3714 48.8315 25.3745Z" fill="#F27028"/>
<path d="M58.8378 35.3159C58.9753 35.5091 59.1097 35.7022 59.2472 35.8954C59.1941 35.9078 59.1409 35.9265 59.0878 35.9265C56.7566 35.9296 54.4284 35.9296 52.0972 35.9265C52.0441 35.9265 51.9878 35.9078 51.9347 35.8985C52.0066 35.6991 52.0784 35.5028 52.1503 35.3035C52.2097 35.3159 52.2659 35.3377 52.3253 35.3377C54.4409 35.3409 56.5566 35.3409 58.6691 35.3377C58.7253 35.3377 58.7816 35.3253 58.8378 35.3159Z" fill="#F49426"/>
<path d="M55.2128 41.1947C52.3847 41.1947 49.5534 41.1947 46.7253 41.1947C46.6691 41.1947 46.6159 41.1791 46.5597 41.1698C46.9534 40.9766 47.3472 40.7835 47.7409 40.5903C47.7722 40.7212 47.8784 40.6963 47.9659 40.6963C49.4003 40.6963 50.8378 40.6963 52.2722 40.6963C53.3691 40.6963 54.4659 40.6994 55.5628 40.6994C55.4472 40.8645 55.3316 41.0296 55.2128 41.1947Z" fill="#F6A624"/>
<path d="M43.3097 48.2667C43.3628 48.2573 43.4159 48.2355 43.4722 48.2355C45.7783 48.2355 48.0844 48.2324 50.3904 48.2355C50.4498 48.2355 50.5061 48.2604 50.5654 48.2729C50.4779 48.4567 50.3904 48.6406 50.3061 48.8275C48.1406 48.8275 45.972 48.8306 43.8065 48.8306C43.6378 48.6437 43.4722 48.4567 43.3097 48.2667Z" fill="#F8C022"/>
<path d="M22.4031 27.079C22.5718 26.9855 22.7343 26.8796 22.9093 26.8017C23.0375 26.7425 23.1187 26.6646 23.1281 26.5244C25.3438 26.5244 27.5594 26.5244 29.7751 26.5244C29.7532 26.6895 29.7345 26.8578 29.7126 27.0229C29.6813 27.1132 29.6094 27.1163 29.5282 27.1163C27.2063 27.1132 24.8844 27.1163 22.5656 27.1132C22.5093 27.1132 22.4562 27.0914 22.4031 27.079Z" fill="#F27628"/>
<path d="M30.4717 23.5959C30.4154 23.7828 30.3592 23.9698 30.3029 24.1567C30.2311 24.166 30.1623 24.1847 30.0905 24.1847C27.903 24.1847 25.7156 24.1847 23.5282 24.1847C23.5782 23.976 23.6282 23.7642 23.6813 23.5554C23.7438 23.5679 23.8094 23.5897 23.8719 23.5897C26.0719 23.5959 28.2718 23.5959 30.4717 23.5959Z" fill="#F16C29"/>
<path d="M30.8782 34.4656C29.4938 34.4656 28.1095 34.4687 26.7282 34.4687C23.8532 34.4687 20.9751 34.4687 18.1001 34.4687C17.997 34.3659 17.8907 34.2599 17.7876 34.1571C19.7501 34.1571 21.7126 34.1571 23.6751 34.1602C25.9595 34.1602 28.247 34.1602 30.5313 34.1602C30.5907 34.1602 30.6532 34.1478 30.7126 34.1384C30.7688 34.2444 30.822 34.3534 30.8782 34.4656Z" fill="#F48F26"/>
<path d="M23.275 25.5432C23.3063 25.3593 23.3375 25.1724 23.3688 24.9885C23.4281 25.0135 23.4875 25.0571 23.5469 25.0571C25.7188 25.0602 27.8875 25.0602 30.0563 25.0602C30.0157 25.2472 29.9719 25.4341 29.9313 25.6211C29.8594 25.6304 29.7907 25.6491 29.7188 25.6491C27.6407 25.6522 25.5594 25.6491 23.4813 25.6491C23.4438 25.6491 23.4 25.6616 23.375 25.646C23.3344 25.6242 23.3094 25.5806 23.275 25.5432Z" fill="#F27128"/>
<path d="M24.1187 22.1284C24.1843 21.9416 24.2468 21.7547 24.3124 21.5679C26.6374 21.5679 28.9592 21.5679 31.2841 21.5679C31.1966 21.7547 31.1123 21.9416 31.0248 22.1284C28.7217 22.1315 26.4186 22.1284 24.1187 22.1284Z" fill="#F16529"/>
<path d="M23.7157 20.6675C26.3344 20.6675 28.9532 20.6675 31.5719 20.6675C31.6344 20.6675 31.6969 20.6706 31.7594 20.6706C31.6626 20.845 31.5657 21.0225 31.4688 21.1968C31.3938 21.1844 31.3157 21.1657 31.2407 21.1657C28.9313 21.1626 26.6251 21.1626 24.3157 21.1657C24.2282 21.1657 24.1407 21.1844 24.0563 21.1968C23.9438 21.0194 23.8313 20.845 23.7157 20.6675Z" fill="#F16229"/>
<path d="M24.1187 22.1287C26.4219 22.1287 28.722 22.1287 31.0252 22.1287C30.9533 22.3063 30.8783 22.4839 30.8065 22.6583C30.7346 22.6677 30.6658 22.6864 30.594 22.6864C28.4595 22.6895 26.3281 22.6864 24.1937 22.6864C24.1562 22.6864 24.1218 22.6864 24.0843 22.6864C23.9968 22.6895 23.9624 22.6428 23.9655 22.5617C24.0187 22.4215 24.0687 22.2751 24.1187 22.1287Z" fill="#F16729"/>
<path d="M30.4719 23.5959C28.2719 23.5959 26.0719 23.5959 23.8719 23.5928C23.8094 23.5928 23.7438 23.571 23.6813 23.5585C23.7313 23.3716 23.7844 23.1816 23.8344 22.9946C23.8907 23.0071 23.95 23.032 24.0063 23.0351C24.4844 23.0382 24.9625 23.0382 25.4406 23.0382C27.1813 23.0382 28.9219 23.0414 30.6625 23.0414C30.6 23.2252 30.5375 23.409 30.4719 23.5959Z" fill="#F16A29"/>
<path d="M58.8373 35.3161C58.7811 35.3223 58.7279 35.3379 58.6717 35.3379C56.5562 35.3379 54.4408 35.3379 52.3284 35.3379C52.2691 35.3379 52.2128 35.3161 52.1534 35.3036C52.2159 35.1167 52.2784 34.9329 52.3409 34.7459C54.2783 34.7459 56.2156 34.7459 58.1499 34.7459C58.203 34.7459 58.2561 34.7241 58.3092 34.7117C58.4842 34.9142 58.6592 35.1167 58.8373 35.3161Z" fill="#F49226"/>
<path d="M31.7157 35.8986C31.6501 35.908 31.5876 35.9298 31.5219 35.9298C27.6376 35.9329 23.7532 35.9329 19.8719 35.9329C19.7282 35.8301 19.5844 35.7242 19.4407 35.6214C23.4125 35.6214 27.3844 35.6214 31.3563 35.6214C31.4032 35.6214 31.4532 35.5871 31.5001 35.5715C31.5688 35.6775 31.6438 35.7896 31.7157 35.8986Z" fill="#F49426"/>
<path d="M29.7751 26.5243C27.5594 26.5243 25.3438 26.5243 23.1282 26.5243C23.1563 26.3374 23.1844 26.1505 23.2125 25.9604C25.4313 25.9604 27.6501 25.9604 29.8688 25.9636C29.8376 26.1505 29.8063 26.3374 29.7751 26.5243Z" fill="#F27428"/>
<path d="M55.6879 25.6084C55.8223 25.8078 55.9566 26.0103 56.0879 26.2097C56.0223 26.2221 55.9598 26.2408 55.8941 26.2408C53.9473 26.2439 52.0004 26.2439 50.0535 26.2439C49.7941 26.0477 49.5348 25.8483 49.2754 25.652C51.3441 25.652 53.416 25.652 55.4848 25.6489C55.5535 25.6489 55.6223 25.6209 55.6879 25.6084Z" fill="#F27328"/>
<path d="M50.1186 21.231C50.0623 21.2404 50.0092 21.2559 49.9529 21.2559C47.3436 21.2559 44.7373 21.2559 42.128 21.2559C42.0748 21.2559 42.0186 21.2404 41.9655 21.231C42.4623 21.0629 42.9561 20.8947 43.453 20.7266C45.1123 20.7266 46.7748 20.7266 48.4342 20.7297C48.9811 20.8355 49.5217 20.9757 50.0279 21.2123C50.0592 21.2217 50.0904 21.2248 50.1186 21.231Z" fill="#F16229"/>
<path d="M32.4782 19.518C32.2657 19.518 32.0532 19.5149 31.8375 19.5149C28.9938 19.5149 26.15 19.5149 23.3063 19.5149C23.2344 19.5149 23.1657 19.4962 23.0938 19.4837C23.0469 19.3808 23.0032 19.278 22.9563 19.1783C23.0219 19.1658 23.0875 19.144 23.1532 19.144C26.2782 19.1409 29.4063 19.1409 32.5313 19.1409C32.5907 19.1409 32.6532 19.1596 32.7125 19.1689C32.6344 19.2873 32.5563 19.4027 32.4782 19.518Z" fill="#F05D2A"/>
<path d="M51.9347 35.9016C51.9878 35.9109 52.044 35.9296 52.0971 35.9296C54.4282 35.9296 56.7562 35.9296 59.0873 35.9296C59.1404 35.9296 59.1935 35.9078 59.2467 35.8984C59.3435 36.0636 59.4373 36.2318 59.5341 36.3969C58.0842 36.3969 56.6343 36.4 55.1844 36.4C54.0251 36.4 52.8658 36.3969 51.7065 36.3969C51.7815 36.2318 51.8565 36.0667 51.9347 35.9016Z" fill="#F49626"/>
<path d="M55.5658 40.6996C54.4689 40.6996 53.3719 40.6964 52.275 40.6964C50.8406 40.6964 49.403 40.6964 47.9685 40.6964C47.881 40.6964 47.7717 40.7245 47.7435 40.5906C47.8904 40.5004 48.0373 40.4101 48.1811 40.323C51.375 40.323 54.572 40.323 57.7659 40.3261C57.8315 40.3261 57.8972 40.3417 57.9628 40.351C57.2659 40.6062 56.544 40.7213 55.8002 40.7058C55.7221 40.7027 55.6439 40.7027 55.5658 40.6996Z" fill="#F6A524"/>
<path d="M50.056 26.2438C52.0031 26.2438 53.9501 26.2438 55.8971 26.2406C55.9628 26.2406 56.0253 26.2188 56.0909 26.2095C56.2097 26.4183 56.3253 26.624 56.444 26.8328C54.822 26.8328 53.2032 26.8359 51.5812 26.8359C51.2811 26.8359 50.978 26.839 50.678 26.839C50.4686 26.6396 50.2623 26.4401 50.056 26.2438Z" fill="#F27528"/>
<path d="M18.6844 30.6025C18.75 30.615 18.8125 30.6337 18.8781 30.6337C22.4813 30.6337 26.0844 30.6337 29.6845 30.6337C29.697 30.7147 29.7064 30.7957 29.7189 30.8767C29.7001 30.8985 29.6845 30.9297 29.6626 30.939C29.6314 30.9515 29.5907 30.9453 29.5532 30.9453C25.8876 30.9453 22.2188 30.9453 18.5531 30.9453C18.5219 30.9453 18.4906 30.9453 18.4594 30.9421C18.5344 30.83 18.6094 30.7178 18.6844 30.6025Z" fill="#F38327"/>
<path d="M55.2626 32.6089C57.2749 32.6089 58.9061 32.4025 58.9061 32.1479C58.9061 31.8932 57.2749 31.6868 55.2626 31.6868C53.2504 31.6868 51.6191 31.8932 51.6191 32.1479C51.6191 32.4025 53.2504 32.6089 55.2626 32.6089Z" fill="#F38827"/>
<path d="M28.0282 47.6436C30.3532 47.6436 32.6782 47.6436 35.0063 47.6436C35.0782 47.6436 35.1532 47.6467 35.2251 47.6467C34.9001 47.8211 34.5751 47.9956 34.2469 48.1701C34.1969 48.1607 34.1501 48.142 34.1001 48.142C32.1188 48.142 30.1344 48.142 28.1532 48.142C28.1094 47.9769 28.0688 47.8118 28.0282 47.6436Z" fill="#F7BE23"/>
<path d="M58.3097 34.7151C58.2566 34.7276 58.2035 34.7463 58.1503 34.7494C56.2127 34.7494 54.275 34.7494 52.3405 34.7494C52.3936 34.5282 52.4436 34.31 52.4967 34.0887C52.5561 34.1105 52.6155 34.1542 52.678 34.1542C54.3094 34.1573 55.9408 34.1573 57.5722 34.1573C57.6222 34.1573 57.6753 34.1573 57.7253 34.1573C57.7472 34.0981 57.7628 34.0513 57.7784 34.0015C57.7409 34.1791 57.8284 34.2882 57.9628 34.3879C58.0847 34.4845 58.191 34.603 58.3097 34.7151Z" fill="#F49026"/>
<path d="M52.1436 29.1725C52.0499 28.9638 51.9592 28.7551 51.8655 28.5463C53.6375 28.5463 55.4127 28.5432 57.1847 28.5432C57.2472 28.7395 57.3097 28.9326 57.3722 29.1289C57.3097 29.1414 57.2472 29.1663 57.1816 29.1663C55.5064 29.1725 53.825 29.1725 52.1436 29.1725Z" fill="#F37D27"/>
<path d="M50.1472 49.1079C50.0253 49.3073 49.9035 49.5036 49.7847 49.7029C49.7128 49.7029 49.6378 49.6998 49.566 49.6998C47.9816 49.6998 46.3972 49.6998 44.8128 49.6998C44.5691 49.5036 44.3285 49.3073 44.0847 49.111C46.1066 49.111 48.1285 49.1079 50.1472 49.1079Z" fill="#F8C322"/>
<path d="M51.7029 36.3938C52.8623 36.3938 54.0217 36.3969 55.181 36.3969C56.631 36.3969 58.081 36.3969 59.531 36.3938C59.5904 36.5185 59.6529 36.6432 59.7123 36.7678C59.6592 36.7803 59.606 36.799 59.5498 36.799C56.931 36.8021 54.3123 36.8021 51.6935 36.799C51.6373 36.799 51.581 36.7616 51.5248 36.7398C51.5842 36.6276 51.6435 36.5122 51.7029 36.3938Z" fill="#F59725"/>
<path d="M51.3691 27.7082C53.1315 27.7082 54.8938 27.7082 56.653 27.7051C56.7155 27.7051 56.778 27.6802 56.8436 27.6677C56.928 27.8765 57.0124 28.0852 57.0999 28.2939C56.8874 28.2939 56.6749 28.297 56.4624 28.297C54.8876 28.297 53.3158 28.3002 51.741 28.3002C51.616 28.1039 51.491 27.9045 51.3691 27.7082Z" fill="#F27A28"/>
<path d="M23.5313 24.188C25.7187 24.188 27.9062 24.188 30.0936 24.188C30.1654 24.188 30.2342 24.1693 30.3061 24.1599C30.2592 24.3281 30.2123 24.4933 30.1623 24.6615C30.0904 24.6615 30.0154 24.6584 29.9436 24.6584C27.7749 24.6584 25.6031 24.6584 23.4344 24.6584C23.4657 24.4995 23.5001 24.3437 23.5313 24.188Z" fill="#F16E29"/>
<path d="M40.8373 21.814C40.8905 21.8264 40.9436 21.8482 40.9967 21.8482C44.4155 21.8514 47.8344 21.8514 51.2532 21.8482C51.3032 21.8482 51.3501 21.8295 51.4001 21.8202C51.5782 21.9137 51.7532 22.0071 51.9313 22.1006C51.8782 22.1099 51.822 22.1286 51.7688 22.1286C48.0375 22.1286 44.3093 22.1286 40.578 22.1286C40.5186 22.1286 40.4592 22.1068 40.403 22.0975C40.5467 22.004 40.6936 21.9074 40.8373 21.814Z" fill="#F16629"/>
<path d="M52.6191 33.285C54.2908 33.285 55.9657 33.285 57.6374 33.2819C57.703 33.2819 57.7686 33.2445 57.8311 33.2227C57.8124 33.4407 57.7967 33.6588 57.778 33.8769C56.1063 33.8769 54.4377 33.8769 52.766 33.8769C52.7254 33.8769 52.6754 33.8894 52.6441 33.8738C52.6066 33.8551 52.5848 33.8115 52.5566 33.7772C52.5785 33.6121 52.5973 33.447 52.6191 33.285Z" fill="#F48D26"/>
<path d="M52.144 29.1726C53.8251 29.1726 55.5031 29.1726 57.1842 29.1695C57.2467 29.1695 57.3092 29.1445 57.3748 29.1321C57.4279 29.3283 57.4779 29.5246 57.531 29.724C57.4748 29.7364 57.4154 29.7613 57.3592 29.7613C55.7499 29.7645 54.1376 29.7645 52.5284 29.7613C52.469 29.7613 52.4065 29.7427 52.3471 29.7333C52.2784 29.5464 52.2128 29.3595 52.144 29.1726Z" fill="#F37F27"/>
<path d="M29.5939 29.4841C26.3157 29.4841 23.0375 29.4841 19.7594 29.4841C19.6938 29.4841 19.6281 29.4685 19.5625 29.4591C19.6563 29.3532 19.75 29.2473 19.8406 29.1414C19.9063 29.1507 19.9688 29.1694 20.0344 29.1694C23.2188 29.1694 26.4063 29.1694 29.5908 29.1694C29.5939 29.2753 29.5939 29.3781 29.5939 29.4841Z" fill="#F37E27"/>
<path d="M52.3435 29.7332C52.4029 29.7426 52.4654 29.7612 52.5248 29.7612C54.1341 29.7644 55.7466 29.7644 57.356 29.7612C57.4123 29.7612 57.4716 29.7363 57.5279 29.7239C57.5654 29.9356 57.606 30.1443 57.6435 30.356C55.9935 30.356 54.3404 30.356 52.6904 30.3529C52.6248 30.3529 52.5591 30.3156 52.4966 30.2938C52.4466 30.1069 52.3966 29.9201 52.3435 29.7332Z" fill="#F38127"/>
<path d="M57.8373 31.8206C56.1218 31.8206 54.4032 31.8206 52.6878 31.8206C52.6784 31.6243 52.669 31.4249 52.6597 31.2286C54.3095 31.2286 55.9562 31.2286 57.6061 31.2255C57.6654 31.2255 57.7248 31.1788 57.7842 31.157C57.7998 31.3751 57.8185 31.5963 57.8373 31.8206Z" fill="#F38627"/>
<path d="M52.5004 30.2942C52.566 30.316 52.6316 30.3534 52.6941 30.3534C54.3441 30.3565 55.9972 30.3565 57.6472 30.3565C57.6785 30.5528 57.7129 30.7522 57.7441 30.9484C56.0379 30.9484 54.3285 30.9484 52.6222 30.9484C52.5816 30.7303 52.541 30.5123 52.5004 30.2942Z" fill="#F38327"/>
<path d="M33.4376 48.5197C32.8188 48.7066 32.2032 48.9215 31.5751 49.0709C30.6313 49.2983 29.6657 49.3575 28.6938 49.3325C28.5907 49.3294 28.5313 49.3076 28.497 49.2049C28.422 48.9744 28.3376 48.7471 28.2563 48.5166C29.9813 48.5166 31.7095 48.5166 33.4376 48.5197Z" fill="#F8C122"/>
<path d="M49.991 38.8208C50.0378 38.8333 50.0847 38.8582 50.1347 38.8582C53.5377 38.8582 56.9406 38.8582 60.3436 38.8582C60.3217 38.9113 60.3123 38.9737 60.278 39.0174C60.2373 39.0673 60.1748 39.1016 60.1217 39.1422C56.7188 39.1422 53.3189 39.1422 49.916 39.1391C49.8472 39.1391 49.7785 39.1141 49.7097 39.1016C49.8035 39.008 49.8972 38.9144 49.991 38.8208Z" fill="#F5A025"/>
<path d="M24.0594 21.1971C24.1469 21.1877 24.2344 21.1659 24.3188 21.1659C26.6282 21.1628 28.9344 21.1628 31.2438 21.1659C31.3188 21.1659 31.3969 21.1877 31.4719 21.1971C31.4094 21.3217 31.3469 21.4463 31.2844 21.5709C28.9594 21.5709 26.6376 21.5709 24.3126 21.5709C24.2251 21.4463 24.1407 21.3217 24.0594 21.1971Z" fill="#F16329"/>
<path d="M44.8129 49.7004C46.3972 49.7004 47.9816 49.7004 49.566 49.7004C49.6379 49.7004 49.7129 49.7036 49.7847 49.7036C49.6222 49.9308 49.4597 50.1581 49.2972 50.3853C48.191 50.3853 47.0879 50.3884 45.9816 50.3884C45.5941 50.1612 45.2035 49.9308 44.8129 49.7004Z" fill="#F8C522"/>
<path d="M36.6219 27.6737C36.7063 27.3716 36.7876 27.0695 36.8719 26.7705C36.9282 26.7923 36.9813 26.8328 37.0376 26.8328C38.0782 26.8359 39.1157 26.8359 40.1563 26.8359C39.9782 27.1256 39.8001 27.4183 39.6219 27.708C38.6813 27.708 37.7407 27.708 36.8001 27.708C36.7376 27.7049 36.6782 27.6831 36.6219 27.6737Z" fill="#F27828"/>
<path d="M23.4344 24.6521C25.6032 24.6521 27.7751 24.6521 29.9438 24.6521C30.0157 24.6521 30.0907 24.6552 30.1626 24.6552C30.1282 24.7892 30.0907 24.9231 30.0563 25.0571C27.8876 25.0571 25.7188 25.0571 23.5501 25.054C23.4907 25.054 23.4313 25.0104 23.3719 24.9854C23.3907 24.8764 23.4126 24.7643 23.4344 24.6521Z" fill="#F26F28"/>
<path d="M33.3407 37.9271C33.2751 37.9364 33.2094 37.9551 33.1469 37.9551C30.3032 37.9551 27.4563 37.9551 24.6125 37.9551C24.5407 37.9551 24.4657 37.9582 24.3938 37.9582C24.05 37.8648 23.7063 37.7713 23.3625 37.6779C23.4344 37.6779 23.5094 37.6747 23.5813 37.6747C26.6844 37.6747 29.7844 37.6747 32.8876 37.6747C32.9594 37.6747 33.0344 37.6716 33.1063 37.6716C33.1844 37.7589 33.2626 37.843 33.3407 37.9271Z" fill="#F59B25"/>
<path d="M42.1532 25.0913C41.8626 25.2782 41.5751 25.465 41.2845 25.655C40.0313 25.655 38.7782 25.655 37.5251 25.6519C37.4626 25.6519 37.4001 25.627 37.3345 25.6145C37.4407 25.4183 37.547 25.2252 37.6501 25.0291C37.7095 25.0384 37.7688 25.0602 37.8282 25.0602C39.197 25.0633 40.5688 25.0602 41.9376 25.0633C42.0126 25.0602 42.0813 25.0789 42.1532 25.0913Z" fill="#F27128"/>
<path d="M51.1504 37.3633C51.2004 37.3757 51.2473 37.3944 51.2973 37.3944C54.1879 37.3944 57.0785 37.3944 59.9691 37.3944C60.0004 37.4877 60.0316 37.581 60.0629 37.6743C57.0785 37.6743 54.091 37.6743 51.1066 37.6743C51.0598 37.6743 51.0098 37.6525 50.9629 37.6401C51.0254 37.5468 51.0879 37.4535 51.1504 37.3633Z" fill="#F59A25"/>
<path d="M27.9719 43.4067C28.2688 43.4161 28.5626 43.4379 28.8594 43.4379C36.9282 43.441 44.9969 43.4379 53.0688 43.441C53.1501 43.441 53.2313 43.4597 53.3126 43.4722C53.2844 43.5033 53.2563 43.5376 53.2282 43.5687C53.1313 43.5563 53.0344 43.5345 52.9376 43.5345C44.6907 43.5314 36.4469 43.5345 28.2001 43.5345C28.1219 43.5345 28.0438 43.5345 27.9657 43.5345C27.9657 43.4909 27.9688 43.4504 27.9719 43.4067Z" fill="#F6AF24"/>
<path d="M22.4032 27.079C22.4563 27.0914 22.5095 27.1132 22.5626 27.1132C24.8845 27.1164 27.2063 27.1132 29.5251 27.1164C29.6063 27.1164 29.6782 27.1132 29.7095 27.0229C29.6876 27.1568 29.6688 27.2907 29.647 27.4277C27.1282 27.4277 24.6095 27.4277 22.0876 27.4277C22.0251 27.4277 21.9595 27.4059 21.897 27.3934C22.0688 27.2876 22.2345 27.1817 22.4032 27.079Z" fill="#F27828"/>
<path d="M30.6657 23.038C28.925 23.038 27.1843 23.0349 25.4437 23.0349C24.9655 23.0349 24.4874 23.0349 24.0093 23.0318C23.953 23.0318 23.8937 23.0068 23.8374 22.9913C23.8812 22.848 23.9249 22.7078 23.9687 22.5645C23.9655 22.6455 23.9968 22.6922 24.0874 22.6891C24.1249 22.6891 24.1593 22.6891 24.1968 22.6891C26.3312 22.6891 28.4625 22.6891 30.5969 22.6891C30.6688 22.6891 30.7375 22.6704 30.8094 22.661C30.7594 22.7856 30.7125 22.9103 30.6657 23.038Z" fill="#F16829"/>
<path d="M46.7469 35.59C46.6719 35.5994 46.5938 35.6181 46.5188 35.6181C44.2094 35.6212 41.9 35.6181 39.5876 35.6212C39.4532 35.5277 39.3188 35.4343 39.1844 35.3409C40.0782 35.3409 40.9719 35.3409 41.8657 35.3409C42.1094 35.3409 42.3532 35.344 42.6 35.3378C42.6282 35.3378 42.6532 35.3004 42.6813 35.2817C42.9188 35.3378 43.1563 35.3907 43.3938 35.4468C43.4125 35.453 43.4344 35.4623 43.4532 35.4623C43.9657 35.4561 44.4844 35.5215 44.9844 35.3565C45.3563 35.2319 45.725 35.0949 46.0938 34.9579C46.2938 34.8831 46.5594 34.9361 46.7 35.0887C46.825 35.2163 46.8406 35.4001 46.7469 35.59Z" fill="#F49326"/>
<path d="M57.3093 20.6674C57.0749 20.3684 56.8436 20.0662 56.6093 19.7671C56.6686 19.7764 56.7311 19.7951 56.7905 19.7951C57.6624 19.7951 58.5311 19.7951 59.403 19.7951C59.5186 20.0849 59.6342 20.3746 59.753 20.6674C58.9374 20.6643 58.1217 20.6643 57.3093 20.6674Z" fill="#F0602A"/>
<path d="M37.3376 25.6116C37.4001 25.624 37.4626 25.649 37.5282 25.649C38.7813 25.6521 40.0344 25.6521 41.2876 25.6521C41.0751 25.8483 40.8657 26.0446 40.6532 26.2409C39.5188 26.2409 38.3876 26.2409 37.2532 26.2378C37.2001 26.2378 37.1438 26.1942 37.0907 26.1724C37.1719 25.9854 37.2532 25.7985 37.3376 25.6116Z" fill="#F27328"/>
<path d="M55.0248 24.7484C54.9592 24.7577 54.8967 24.7795 54.831 24.7795C52.3968 24.7795 49.9595 24.7795 47.5252 24.7795C47.2003 24.6861 46.8753 24.5958 46.5503 24.5024C49.2283 24.5024 51.9062 24.5024 54.5842 24.4993C54.6467 24.4993 54.7123 24.4775 54.7748 24.4651C54.8592 24.5585 54.9435 24.6519 55.0248 24.7484Z" fill="#F26F28"/>
<path d="M37.5532 33.5653C37.3907 33.2631 37.2251 32.9609 37.0626 32.6587C37.122 32.668 37.1845 32.6867 37.2439 32.6867C37.9344 32.6898 38.625 32.6898 39.3124 32.6867C39.3624 32.6867 39.4124 32.6743 39.4624 32.6649C39.653 32.9484 39.8436 33.235 40.0311 33.5185C39.9749 33.531 39.9155 33.559 39.8593 33.559C39.0906 33.5653 38.3219 33.5653 37.5532 33.5653Z" fill="#F48B26"/>
<path d="M33.4376 48.5191C31.7094 48.5191 29.9813 48.5191 28.2563 48.5191C28.2219 48.3946 28.1876 48.2702 28.1532 48.1458C30.1344 48.1458 32.1188 48.1458 34.1001 48.1458C34.1501 48.1458 34.1969 48.1644 34.2469 48.1738C33.9782 48.2889 33.7063 48.404 33.4376 48.5191Z" fill="#F8BF22"/>
<path d="M39.4628 32.668C39.4128 32.6743 39.3628 32.6898 39.3128 32.6898C38.6221 32.6898 37.9314 32.693 37.2439 32.6898C37.1845 32.6898 37.122 32.6711 37.0626 32.6618C36.9563 32.3814 36.8501 32.101 36.7469 31.8206C37.4814 31.8206 38.2158 31.8206 38.9503 31.8175C39.0097 31.8175 39.0659 31.7957 39.1253 31.7832C39.2378 32.0792 39.3503 32.3752 39.4628 32.668Z" fill="#F38927"/>
<path d="M29.8688 25.9638C27.65 25.9638 25.4313 25.9638 23.2125 25.9607C23.2344 25.8205 23.2563 25.6834 23.275 25.5432C23.3063 25.5775 23.3344 25.6242 23.375 25.646C23.4031 25.6616 23.4469 25.6491 23.4813 25.6491C25.5594 25.6491 27.6406 25.6491 29.7188 25.6491C29.7906 25.6491 29.8594 25.6304 29.9313 25.6211C29.9094 25.7333 29.8906 25.8485 29.8688 25.9638Z" fill="#F27328"/>
<path d="M37.0873 26.1755C37.1404 26.1973 37.1967 26.241 37.2498 26.241C38.3844 26.2441 39.5158 26.2441 40.6503 26.2441C40.4847 26.4403 40.319 26.6397 40.1534 26.836C39.1126 26.836 38.0749 26.836 37.0342 26.8329C36.9779 26.8329 36.9248 26.7924 36.8685 26.7706C36.9435 26.5712 37.0154 26.3718 37.0873 26.1755Z" fill="#F27528"/>
<path d="M42.1532 25.0911C42.0813 25.0817 42.0125 25.0599 41.9407 25.0599C40.5718 25.0568 39.1999 25.0599 37.8311 25.0568C37.7717 25.0568 37.7123 25.0381 37.653 25.0256C37.7342 24.901 37.8123 24.7733 37.8936 24.6487C37.9655 24.6487 38.0405 24.6518 38.1123 24.6518C39.8031 24.6518 41.4938 24.6518 43.1876 24.6518C42.8407 24.7982 42.4969 24.9446 42.1532 25.0911Z" fill="#F27028"/>
<path d="M42.6844 35.2788C42.6563 35.2975 42.6313 35.3349 42.6032 35.3349C42.3594 35.3381 42.1157 35.3381 41.8688 35.3381C40.9751 35.3381 40.0813 35.3381 39.1875 35.3381C38.9594 35.1417 38.7313 34.9422 38.5032 34.7459C39.4125 34.7459 40.325 34.7459 41.2344 34.7459C41.2782 34.7459 41.3251 34.7303 41.3688 34.7209C41.6126 34.8425 41.85 34.9765 42.1 35.0825C42.2875 35.1666 42.4907 35.2165 42.6844 35.2788Z" fill="#F49226"/>
<path d="M55.6873 25.6086C55.6185 25.6242 55.5529 25.6491 55.4842 25.6491C53.4156 25.6522 51.3439 25.6522 49.2753 25.6522C49.1284 25.5588 48.9784 25.4684 48.8315 25.3749C50.7251 25.3749 52.6219 25.3718 54.5155 25.3718C54.8436 25.3718 55.1717 25.3718 55.4998 25.3718C55.5623 25.4497 55.6248 25.5276 55.6873 25.6086Z" fill="#F27228"/>
<path d="M50.1472 49.1079C48.1251 49.1079 46.1062 49.1079 44.0842 49.1079C43.9904 49.0146 43.8936 48.9214 43.7998 48.8281C45.9656 48.8281 48.1345 48.825 50.3003 48.825C50.2503 48.9214 50.2003 49.0146 50.1472 49.1079Z" fill="#F8C122"/>
<path d="M59.403 19.7918C58.5313 19.7918 57.6626 19.7918 56.7909 19.7918C56.7315 19.7918 56.6691 19.7731 56.6097 19.7638C56.4472 19.5768 56.2816 19.3899 56.1191 19.1999C57.0596 19.1999 57.997 19.1999 58.9374 19.1968C58.9999 19.1968 59.0624 19.1718 59.1249 19.1562C59.2186 19.3712 59.3124 19.5831 59.403 19.7918Z" fill="#F05D2A"/>
<path d="M41.3688 34.7244C41.3251 34.7338 41.2782 34.7494 41.2345 34.7494C40.3251 34.7494 39.4126 34.7494 38.5032 34.7494C38.3282 34.553 38.1501 34.3566 37.9751 34.1572C38.8626 34.1572 39.747 34.1541 40.6345 34.1541C40.8563 34.3348 41.0782 34.5125 41.3001 34.6933C41.322 34.7057 41.347 34.712 41.3688 34.7244Z" fill="#F49026"/>
<path d="M36.4313 28.976C36.4438 28.8452 36.4532 28.7113 36.4657 28.5805C37.3344 28.5805 38.2063 28.5805 39.075 28.5805C39.1406 28.5805 39.2063 28.5618 39.2719 28.5525C39.2156 28.7611 39.1563 28.9698 39.1 29.1784C38.2125 29.1784 37.325 29.1753 36.4375 29.1753C36.4344 29.1068 36.4344 29.0414 36.4313 28.976Z" fill="#F37D27"/>
<path d="M39.2717 28.5492C39.2061 28.5586 39.1405 28.5773 39.0748 28.5773C38.2062 28.5804 37.3344 28.5773 36.4657 28.5773C36.4969 28.3779 36.5251 28.1786 36.5563 27.9824C36.6157 27.9949 36.6719 28.0167 36.7313 28.0167C37.5625 28.0198 38.3968 28.0167 39.228 28.0198C39.303 28.0198 39.3811 28.0385 39.4561 28.0509C39.3967 28.216 39.3342 28.3811 39.2717 28.5492Z" fill="#F27B28"/>
<path d="M45.9847 50.3889C47.091 50.3889 48.1941 50.3857 49.3004 50.3857C49.0879 50.6379 48.8816 50.8994 48.6535 51.1423C48.6066 51.1921 48.4785 51.2014 48.4004 51.1827C47.8972 51.0582 47.391 50.9368 46.8972 50.7811C46.5847 50.6815 46.2879 50.5227 45.9847 50.3889Z" fill="#F8C722"/>
<path d="M36.4376 29.1726C37.3251 29.1726 38.2126 29.1757 39.1001 29.1757C39.0657 29.3408 39.0282 29.506 38.9939 29.6711C38.9626 29.7614 38.8907 29.7645 38.8095 29.7645C38.0189 29.7614 37.2282 29.7645 36.4376 29.7645C36.4376 29.5652 36.4376 29.3689 36.4376 29.1726Z" fill="#F37F27"/>
<path d="M58.866 23.3156C58.7191 23.0258 58.5691 22.736 58.4222 22.4462C58.9879 22.4462 59.5504 22.4462 60.116 22.44C60.1722 22.44 60.2254 22.3994 60.2785 22.3745C60.341 22.6768 60.4035 22.976 60.4691 23.2782C60.4097 23.2907 60.3535 23.3125 60.2941 23.3125C59.816 23.3156 59.341 23.3156 58.866 23.3156Z" fill="#F16829"/>
<path d="M40.6347 34.151C39.7472 34.151 38.8627 34.1542 37.9751 34.1542C37.8345 33.9579 37.6939 33.7616 37.5532 33.5653C38.322 33.5653 39.094 33.5653 39.8628 33.5622C39.919 33.5622 39.9784 33.5373 40.0347 33.5217C40.1628 33.6682 40.2878 33.8177 40.4191 33.961C40.4816 34.0295 40.5629 34.0887 40.6347 34.151Z" fill="#F48E26"/>
<path d="M36.4374 29.1726C36.4374 29.3689 36.4374 29.5683 36.4374 29.7645C36.4342 30.1072 36.4092 30.0418 36.7124 30.0449C37.4625 30.0481 38.2157 30.0449 38.9658 30.0449C38.9627 30.1789 38.9627 30.316 38.9596 30.45C38.9439 30.506 38.9283 30.5652 38.9158 30.6182C38.9002 30.6244 38.8908 30.6307 38.8814 30.6307C38.1188 30.6307 37.3562 30.6338 36.5936 30.6307C36.553 30.6307 36.5124 30.5746 36.4718 30.5434C36.3561 30.0543 36.428 29.5589 36.4124 29.0667C36.4124 29.0386 36.4249 29.0075 36.4311 28.9763C36.4342 29.0417 36.4342 29.1072 36.4374 29.1726Z" fill="#F38227"/>
<path d="M52.5561 33.7771C52.5842 33.8114 52.6092 33.855 52.6436 33.8737C52.6779 33.8893 52.7248 33.8768 52.7655 33.8768C54.4375 33.8768 56.1064 33.8768 57.7785 33.8768C57.7753 33.9173 57.7722 33.9609 57.7691 34.0014C57.7534 34.0481 57.7378 34.0949 57.7159 34.1572C57.6659 34.1572 57.6159 34.1572 57.5628 34.1572C55.9314 34.1572 54.3 34.1572 52.6686 34.1541C52.6092 34.1541 52.5498 34.1104 52.4873 34.0886C52.5123 33.9827 52.5342 33.8799 52.5561 33.7771Z" fill="#F48E26"/>
<path d="M36.4719 30.5434C36.5125 30.5745 36.5532 30.6306 36.5938 30.6306C37.3563 30.6337 38.1188 30.6337 38.8813 30.6306C38.8907 30.6306 38.9 30.6244 38.9157 30.6181C38.9282 30.5652 38.9438 30.506 38.9594 30.45C38.9719 30.696 38.9875 30.942 39 31.1881C38.9407 31.2005 38.8844 31.2254 38.8251 31.2254C38.0751 31.2285 37.3282 31.2285 36.5782 31.2317C36.5438 31.0012 36.5094 30.7738 36.4719 30.5434Z" fill="#F38427"/>
<path d="M52.6248 30.9482C54.331 30.9482 56.0404 30.9482 57.7466 30.9482C57.7591 31.0168 57.7685 31.0884 57.781 31.157C57.7216 31.1819 57.6623 31.2255 57.6029 31.2255C55.9529 31.2286 54.306 31.2286 52.656 31.2286C52.6435 31.1352 52.6341 31.0417 52.6248 30.9482Z" fill="#F38527"/>
<path d="M36.5813 31.2318C37.3312 31.2318 38.078 31.2318 38.8279 31.2256C38.8873 31.2256 38.9436 31.2007 39.0029 31.1882C39.0435 31.3876 39.0842 31.5839 39.1248 31.7833C39.0654 31.7957 39.0092 31.8175 38.9498 31.8175C38.2155 31.8207 37.4812 31.8207 36.7469 31.8207C36.6907 31.6244 36.6344 31.4281 36.5813 31.2318Z" fill="#F38627"/>
<path d="M57.3097 20.6674C58.1253 20.6674 58.9409 20.6674 59.7534 20.6643C59.8128 20.8388 59.8753 21.0132 59.9347 21.1877C59.8816 21.2126 59.8284 21.2562 59.7722 21.2562C59.0847 21.2594 58.4003 21.2594 57.7128 21.2594C57.5784 21.06 57.4441 20.8637 57.3097 20.6674Z" fill="#F16229"/>
<path d="M51.7373 28.2999C53.3125 28.2999 54.8845 28.2968 56.4596 28.2968C56.6722 28.2968 56.8847 28.2968 57.0972 28.2937C57.1284 28.3779 57.1566 28.459 57.1878 28.5432C55.4158 28.5432 53.6406 28.5463 51.8686 28.5463C51.8248 28.4652 51.7811 28.3841 51.7373 28.2999Z" fill="#F27C28"/>
<path d="M57.7155 21.2594C58.403 21.2594 59.0873 21.2625 59.7748 21.2563C59.828 21.2563 59.8811 21.2127 59.9373 21.1877C59.9998 21.3871 60.0623 21.5834 60.1248 21.7828C60.0717 21.8077 60.0155 21.8482 59.9623 21.8513C59.3373 21.8575 58.7123 21.8544 58.0905 21.8544C57.9623 21.6519 57.8373 21.4557 57.7155 21.2594Z" fill="#F16429"/>
<path d="M43.1845 24.6552C41.4939 24.6552 39.8032 24.6552 38.1095 24.6552C38.0376 24.6552 37.9626 24.6521 37.8907 24.6521C37.947 24.5711 38.0032 24.4901 38.0564 24.406C38.1157 24.4154 38.1751 24.434 38.2345 24.434C39.8282 24.4372 41.422 24.434 43.0157 24.4372C43.2595 24.4372 43.5064 24.4777 43.7501 24.4995C43.5626 24.5524 43.3751 24.6023 43.1845 24.6552Z" fill="#F16E29"/>
<path d="M58.0873 21.851C58.7123 21.851 59.3373 21.851 59.9592 21.8479C60.0123 21.8479 60.0685 21.8042 60.1217 21.7793C60.1748 21.9788 60.2248 22.1751 60.2779 22.3746C60.2248 22.3964 60.1685 22.4369 60.1154 22.44C59.5498 22.4463 58.9873 22.4463 58.4217 22.4463C58.3092 22.2468 58.1967 22.0504 58.0873 21.851Z" fill="#F16629"/>
<path d="M41.1716 36.4033C42.5937 36.4033 44.0157 36.4001 45.4347 36.4001C44.9659 36.6059 44.4877 36.7681 43.9689 36.765C43.4907 36.7619 43.0125 36.7712 42.5374 36.7369C42.0686 36.7026 41.6092 36.5841 41.1716 36.4033Z" fill="#F59725"/>
<path d="M60.5592 23.8389C60.5905 24.085 60.6217 24.3311 60.6561 24.5772C60.6092 24.6021 60.5623 24.6458 60.5123 24.6489C60.2123 24.6551 59.9155 24.6551 59.6155 24.652C59.5561 24.652 59.4967 24.6333 59.4373 24.624C59.3436 24.3841 59.2467 24.1442 59.153 23.9074C59.5717 23.9074 59.9936 23.9105 60.4123 23.9043C60.4592 23.9043 60.5092 23.8607 60.5592 23.8389Z" fill="#F16D29"/>
<path d="M48.4373 20.7267C46.7781 20.7267 45.1157 20.7267 43.4565 20.7235C43.8128 20.6518 44.1627 20.5488 44.5221 20.5145C45.8219 20.396 47.1155 20.4459 48.3966 20.7048C48.4091 20.7111 48.4216 20.7204 48.4373 20.7267Z" fill="#F0612A"/>
<path d="M39.4594 28.0507C39.3844 28.0414 39.3063 28.0227 39.2313 28.0196C38.4001 28.0165 37.5657 28.0196 36.7344 28.0165C36.6751 28.0165 36.6188 27.9947 36.5594 27.9822C36.5813 27.8795 36.6032 27.7768 36.6219 27.6709C36.6813 27.6834 36.7407 27.702 36.7969 27.702C37.7376 27.7051 38.6782 27.702 39.6188 27.702C39.5657 27.8203 39.5126 27.9355 39.4594 28.0507Z" fill="#F27A28"/>
<path d="M60.5592 23.8387C60.5092 23.8605 60.4592 23.901 60.4092 23.901C59.9904 23.9072 59.5686 23.9041 59.1498 23.9041C59.0529 23.7079 58.9592 23.5117 58.8623 23.3155C59.3373 23.3155 59.8154 23.3155 60.2904 23.3123C60.3498 23.3123 60.4061 23.2905 60.4654 23.2781C60.4967 23.4649 60.5279 23.6518 60.5592 23.8387Z" fill="#F16B29"/>
<path d="M59.4373 24.6241C59.4967 24.6335 59.5561 24.6522 59.6155 24.6522C59.9156 24.6553 60.2126 24.6553 60.5127 24.649C60.5596 24.649 60.6065 24.6023 60.6565 24.5774C60.6784 24.8297 60.6971 25.079 60.719 25.3313C60.6721 25.3438 60.6252 25.3656 60.5783 25.3656C60.397 25.3687 60.2157 25.3718 60.0375 25.3656C59.9218 25.3625 59.803 25.3469 59.6874 25.3375C59.5998 25.1008 59.5185 24.864 59.4373 24.6241Z" fill="#F27028"/>
<path d="M59.6847 25.3402C59.8003 25.3496 59.9191 25.3651 60.0347 25.3683C60.2159 25.3745 60.3972 25.3714 60.5753 25.3683C60.6222 25.3683 60.669 25.3464 60.7159 25.334C60.7253 25.5926 60.7378 25.8512 60.7472 26.1068C60.7597 26.2158 60.7065 26.247 60.6003 26.2439C60.3878 26.2376 60.1753 26.2407 59.9628 26.2407C59.8691 25.9416 59.7753 25.6394 59.6847 25.3402Z" fill="#F27328"/>
<path d="M38.9658 30.045C38.2158 30.045 37.4626 30.0482 36.7126 30.045C36.4094 30.045 36.4344 30.1074 36.4376 29.7646C37.2282 29.7646 38.0189 29.7646 38.8096 29.7646C38.8908 29.7646 38.9627 29.7615 38.9939 29.6711C38.9846 29.7958 38.9752 29.9204 38.9658 30.045Z" fill="#F38127"/>
<path d="M59.9623 26.244C60.1749 26.244 60.3874 26.2378 60.6 26.2471C60.7063 26.2503 60.7563 26.2191 60.7469 26.1101C60.7595 26.2689 60.7782 26.4278 60.7813 26.5866C60.7845 26.7828 60.6782 26.923 60.5125 26.9541C60.3468 26.9853 60.153 26.8794 60.0905 26.705C60.0373 26.5555 60.006 26.3966 59.9623 26.244Z" fill="#F27528"/>
</g>
<defs>
<clipPath id="clip0_8870_32779">
<rect width="60" height="61" fill="white" transform="translate(9 4)"/>
</clipPath>
</defs>
</svg>
