<svg width="100%" height="100%" viewBox="0 0 84 84" fill="none" xmlns="http://www.w3.org/2000/svg">
<circle cx="42" cy="42" r="39.5" fill="white" stroke="#ECECEC"/>
<path d="M57.75 49C58.0577 46.69 58.2885 44.38 58.2885 42C58.2885 39.62 58.0577 37.3102 57.75 35H70.75C71.3654 37.24 71.75 39.585 71.75 42C71.75 44.415 71.3654 46.7599 70.75 49H57.75ZM50.75 68.25C52.9324 64.4304 54.6056 60.3012 55.7697 56H66.5C63.0081 61.6779 57.4432 66.0822 50.7504 68.25H50.75ZM51.884 49H33.866C33.481 46.69 33.25 44.38 33.25 42C33.25 39.62 33.481 37.2751 33.866 35H51.884C52.2305 37.275 52.5 39.62 52.5 42C52.5 44.38 52.2305 46.6898 51.884 49ZM42.0002 70C38.9583 65.7576 36.503 61.0554 35 56H49C47.4974 61.0557 45.042 65.7576 41.9998 70H42.0002ZM26.3956 26.25H15.75C19.2135 20.538 24.8278 16.1334 31.5 14C29.3125 17.8196 27.6719 21.9488 26.396 26.25H26.3956ZM15.7504 56H26.396C27.672 60.3012 29.3126 64.4304 31.5 68.25C24.8282 66.0822 19.2136 61.6775 15.75 56H15.7504ZM13.25 49C12.6346 46.76 12.25 44.415 12.25 42C12.25 39.585 12.6346 37.2401 13.25 35H26.25C25.9423 37.31 25.7115 39.62 25.7115 42C25.7115 44.38 25.9423 46.6898 26.25 49H13.25ZM41.9998 12.25C45.0417 16.4817 47.4971 21.2074 49 26.25H35C36.5026 21.207 38.958 16.4817 42.0002 12.25H41.9998ZM66.5 26.25H55.7697C54.6057 21.9488 52.9326 17.8196 50.75 14C57.4428 16.1679 63.008 20.538 66.4996 26.25H66.5ZM42 5.25C21.6774 5.25 5.25 21.7875 5.25 42C5.25 62.2965 21.7035 78.75 42 78.75C62.2965 78.75 78.75 62.2965 78.75 42C78.75 21.7035 62.2965 5.25 42 5.25Z" fill="#E53935"/>
</svg>
