<svg width="100%" height="100%" viewBox="0 0 80 80" fill="none" xmlns="http://www.w3.org/2000/svg">
<circle cx="40" cy="40" r="39.5" fill="white" stroke="#ECECEC"/>
<g clip-path="url(#clip0_8870_32793)">
<path d="M72.3971 42.3009C70.8821 39.7151 68.7206 37.5678 66.1247 36.07C64.1429 34.9183 62.0936 34.1868 59.7797 33.8703V25.585C60.9018 25.12 61.8586 24.329 62.5264 23.3144C63.1942 22.2998 63.5422 21.1082 63.5255 19.8936C63.5296 19.0735 63.3716 18.2605 63.0606 17.5016C62.7495 16.7427 62.2916 16.0527 61.7131 15.4713C61.1346 14.8899 60.4469 14.4285 59.6895 14.1137C58.9321 13.7989 58.12 13.6368 57.2998 13.6368C55.6385 13.6368 54.0449 14.2954 52.8682 15.4681C51.6915 16.6409 51.0277 18.2323 51.0222 19.8936C51.0222 22.4358 52.3711 24.6044 54.6902 25.585V33.8236C52.7692 34.1016 50.9054 34.6867 49.1701 35.5564L26.9911 18.7626C27.1468 18.1764 27.2816 17.5694 27.2816 16.9313C27.2816 13.1025 24.1792 10 20.3504 10C16.5216 10 13.4243 13.1025 13.4243 16.9313C13.4243 20.7601 16.5268 23.8625 20.3556 23.8625C21.663 23.8625 22.8718 23.4786 23.9146 22.8508L25.3672 23.9507L45.2635 38.2957C44.2103 39.2607 43.2298 40.3606 42.4464 41.5953C40.8588 44.1115 39.8887 46.8768 39.8887 49.8962V50.5188C39.8957 52.5665 40.2645 54.5969 40.9781 56.5162C41.58 58.1556 42.4619 59.6498 43.5566 60.9987L36.947 67.6239C34.9911 66.8975 32.7966 67.38 31.318 68.8586C30.3115 69.8599 29.746 71.2244 29.7512 72.6459C29.7564 74.0674 30.3115 75.4215 31.3232 76.4332C32.3348 77.4449 33.6889 78.0052 35.1104 78.0052C36.532 78.0052 37.8964 77.4449 38.8977 76.4332C39.899 75.4215 40.4697 74.0674 40.4645 72.6459C40.4641 72.1002 40.3801 71.5578 40.2155 71.0376L47.043 64.2101C47.9768 64.8586 48.9885 65.4034 50.078 65.8703C52.3173 66.8524 54.7353 67.3611 57.1805 67.3645H57.6474C60.5112 67.3645 63.2142 66.69 65.7512 65.3152C68.3589 63.9168 70.5499 61.853 72.1014 59.3333C73.6941 56.7912 74.5657 53.9741 74.5657 50.8768V50.7211C74.5657 47.6757 73.8601 44.869 72.3867 42.2957L72.3971 42.3009ZM64.0599 56.6303C62.2077 58.69 60.0754 59.9611 57.6682 59.9611H57.2116C55.8368 59.9611 54.4879 59.5824 53.1753 58.8872C51.7361 58.1388 50.5166 57.0284 49.637 55.6654C48.6824 54.3165 48.1636 52.8431 48.1636 51.2815V50.8145C48.1636 49.2789 48.4593 47.821 49.2012 46.4462C49.995 44.8898 51.0689 43.7743 52.4957 42.8457C53.9224 41.917 55.3906 41.4708 57.0612 41.4708H57.2168C58.7213 41.4708 60.1584 41.7665 61.5073 42.4566C62.8738 43.1752 64.0345 44.2305 64.8796 45.5227C65.7162 46.8185 66.2336 48.2942 66.3893 49.8288L66.4256 50.799C66.4256 52.9105 65.6163 54.8664 64.0028 56.6407L64.0599 56.6303Z" fill="#F8761F"/>
</g>
<defs>
<clipPath id="clip0_8870_32793">
<rect width="68" height="68" fill="white" transform="translate(10 10)"/>
</clipPath>
</defs>
</svg>
