<svg width="100%" height="100%" viewBox="0 0 80 80" fill="none" xmlns="http://www.w3.org/2000/svg">
<circle cx="40" cy="40" r="39.5" fill="white" stroke="#ECECEC"/>
<path d="M40.6348 45.9915C42.1098 43.8179 43.8627 41.8427 45.8496 40.1149L48.9278 37.7759C53.9449 34.4487 56.3561 32.6682 62.3796 32.6682C69.7577 32.6682 69.7577 46.8306 62.3796 46.8306H62.4002C56.3767 46.8247 53.9685 45.0413 48.9514 41.7171L46.313 39.8108L48.4939 38.2262L51.2061 40.1266C55.633 42.8398 57.2178 44.2753 62.4032 44.2753H62.3825C67.7509 44.2753 67.7509 35.2118 62.3825 35.2118C57.1972 35.2118 55.5947 36.6444 51.1855 39.3606L48.066 41.5679C45.8182 43.4588 43.8816 45.6851 42.3258 48.1667L40.6348 45.9915Z" fill="#D0C539"/>
<path d="M46.4073 39.6675C44.2134 38.206 42.2204 36.4684 40.4783 34.4984L38.1173 31.449C34.7558 26.4787 32.9614 24.0901 32.9614 18.1228C32.9614 10.8136 47.2573 10.8136 47.2573 18.1228V18.0994C47.2573 24.0696 45.46 26.4612 42.1015 31.4285L40.1772 34.0423L38.5777 31.8817L40.493 29.1948C43.2347 24.8093 44.6838 23.2393 44.6838 18.0848V18.1257C44.6838 12.8046 35.5349 12.8046 35.5349 18.1257C35.5349 23.2627 36.984 24.8502 39.7227 29.2182L41.945 32.3086C43.8519 34.5393 46.0982 36.4618 48.6031 38.0069L46.4073 39.6675Z" fill="#037E8E"/>
<path d="M34.369 40.2698C36.5637 41.7302 38.5577 43.4668 40.301 45.4359L42.662 48.4824C46.0205 53.4527 47.8179 55.8443 47.8179 61.8116C47.8179 69.1208 33.522 69.1208 33.522 61.8116V61.832C33.522 55.8648 35.3193 53.4732 38.6778 48.5029L40.602 45.892L42.2016 48.0527L40.2833 50.7395C37.5505 55.128 36.1043 56.6922 36.1043 61.832V61.8116C36.1043 67.1298 45.2532 67.1298 45.2532 61.8116C45.2532 56.6717 43.8042 55.0871 41.0624 50.7191L38.8402 47.6258C36.9327 45.3989 34.6864 43.4803 32.1821 41.9392L34.369 40.2698Z" fill="#92C7CD"/>
<path d="M40.1739 34.1096C38.6996 36.2828 36.9466 38.2572 34.9591 39.9833L31.8809 42.3222C26.8638 45.6523 24.4497 47.4299 18.4262 47.4299C11.048 47.4299 11.048 33.2705 18.4262 33.2705H18.3967C24.4202 33.2705 26.8372 35.051 31.8514 38.3782L34.4898 40.2873L32.3089 41.872L29.5967 39.9716C25.1698 37.2555 23.585 35.8228 18.3967 35.8228H18.4173C13.049 35.8228 13.049 44.8863 18.4173 44.8863C23.6056 44.8863 25.2052 43.4508 29.6321 40.7376L32.7515 38.536C35.0003 36.6461 36.937 34.4197 38.4917 31.9373L40.1739 34.1096Z" fill="#3C89B7"/>
</svg>
