<svg width="100%" height="100%" viewBox="0 0 80 80" fill="none" xmlns="http://www.w3.org/2000/svg">
<circle cx="40" cy="40" r="39.5" fill="white" stroke="#ECECEC"/>
<path d="M65.128 67H14.872C13.846 67 13 66.154 13 65.128V14.872C13 13.846 13.846 13 14.872 13H65.128C66.154 13 67 13.846 67 14.872V65.128C67 66.154 66.154 67 65.128 67Z" fill="#262626"/>
<path d="M67 52.5633H13V42.2312V26.0671H67V42.5552V52.5633Z" fill="black"/>
<path d="M19.9883 17.6431V18.7411H27.7823V17.6431H19.9883ZM28.8803 17.6431V18.7411H39.9863C39.9863 18.7411 38.8523 17.6431 37.3583 17.6431H28.8803ZM42.1643 17.6431V18.7411H48.8783L48.4823 17.6431H42.1643ZM53.7023 17.6431L53.3063 18.7411H59.9663V17.6431H53.7023ZM19.9883 19.7671V20.8651H27.7823V19.7671H19.9883ZM28.8803 19.7851V20.8831H41.2643C41.2643 20.8831 41.1203 20.0371 40.8683 19.7851H28.8803ZM42.1643 19.7851V20.8831H49.6163L49.2383 19.7851H42.1643ZM52.9103 19.7851L52.5323 20.8831H59.9483V19.7851H52.9103ZM22.2203 21.9091V23.0071H25.6043V21.9091H22.2203ZM31.1303 21.9091V23.0071H34.4963V21.9091H31.1303ZM37.7723 21.9091V23.0071H41.1383C41.1383 23.0071 41.3543 22.4311 41.3543 21.9091H37.7723ZM44.4143 21.9091V23.0071H50.3903L49.9943 21.9091H44.4143ZM52.1723 21.9091L51.7763 23.0071H57.7883V21.9091H52.1723ZM22.2203 24.0331V25.1311H25.6043V24.0331H22.2203ZM31.1303 24.0331V25.1311H39.7523C39.7523 25.1311 40.4723 24.5731 40.7063 24.0331H31.1303ZM44.4143 24.0331V25.1311H47.7803V24.5191L47.9963 25.1311H54.1703L54.4043 24.5191V25.1311H57.7703V24.0331H51.4343L51.0923 24.9691L50.7503 24.0331H44.4143ZM22.2203 26.1751V27.2731H25.6043V26.1751H22.2203ZM31.1303 26.1751V27.2731H40.7063C40.4723 26.7331 39.7523 26.1751 39.7523 26.1751H31.1303ZM44.4143 26.1751V27.2731H47.7803V26.1751H44.4143ZM48.3923 26.1751L48.8063 27.2731H53.4323L53.8283 26.1751H48.3923ZM54.4043 26.1751V27.2731H57.7703V26.1751H54.4043ZM22.2203 28.2991V29.3971H25.6043V28.2991H22.2203ZM31.1303 28.2991V29.3971H34.4963V28.2991H31.1303ZM37.7723 28.2991V29.3971H41.3543C41.3543 28.8751 41.1383 28.2991 41.1383 28.2991H37.7723ZM44.4143 28.2991V29.3971H47.7803V28.2991H44.4143ZM49.1663 28.2991L49.5623 29.3971H52.6763L53.0723 28.2991H49.1663ZM54.4043 28.2991V29.3971H57.7703V28.2991H54.4043ZM20.0423 30.4231V31.5211H27.8363V30.4231H20.0423ZM28.8803 30.4231V31.5211H40.8683C41.1203 31.2691 41.2643 30.4231 41.2643 30.4231H28.8803ZM42.2363 30.4231V31.5211H47.7803V30.4231H42.2363ZM49.9223 30.4231L50.3363 31.5211H51.9203L52.2983 30.4231H49.9223ZM54.4043 30.4231V31.5211H60.0203V30.4231H54.4043ZM20.0423 32.5651V33.6631H27.8363V32.5651H20.0423ZM28.8803 32.5651V33.6631H37.3403C38.8343 33.6631 39.9683 32.5651 39.9683 32.5651H28.8803ZM42.2363 32.5651V33.6631H47.7803V32.5651H42.2363ZM50.6963 32.5651L51.0923 33.6631H51.1643L51.5603 32.5651H50.6963ZM54.4043 32.5651V33.6631H60.0203V32.5651H54.4043Z" fill="white"/>
<path d="M65.038 66.9995H14.962C13.882 66.9995 13 66.1175 13 65.0375V38.6135L67 38.4875V65.0375C67 66.1175 66.118 66.9995 65.038 66.9995Z" fill="#019934"/>
<path d="M27.0025 43.959C28.2265 43.959 29.2345 44.157 29.9905 44.571C30.7465 44.967 31.3405 45.543 31.7545 46.299C32.1685 47.055 32.4565 47.937 32.6005 48.999C32.7445 50.043 32.8165 51.231 32.8165 52.527C32.8165 54.075 32.7265 55.407 32.5285 56.559C32.3305 57.693 32.0065 58.647 31.5565 59.385C31.0885 60.123 30.4765 60.681 29.7025 61.041C28.9285 61.401 27.9565 61.581 26.7685 61.581H21.2065V43.959H27.0025ZM26.3185 58.935C26.9485 58.935 27.4345 58.827 27.8125 58.611C28.1905 58.395 28.4965 58.053 28.7125 57.549C28.9285 57.045 29.0905 56.415 29.1625 55.605C29.2345 54.795 29.2705 53.805 29.2705 52.599C29.2705 51.591 29.2345 50.727 29.1805 49.971C29.1085 49.215 28.9825 48.585 28.7665 48.081C28.5685 47.577 28.2625 47.199 27.8485 46.947C27.4525 46.695 26.9125 46.569 26.2285 46.569H24.7345V58.935H26.3185Z" fill="white"/>
<path d="M41.0931 43.959C41.8131 43.959 42.4791 44.031 43.0911 44.175C43.7031 44.319 44.2431 44.571 44.6751 44.913C45.1251 45.255 45.4671 45.723 45.7011 46.299C45.9531 46.875 46.0791 47.577 46.0791 48.423C46.0791 49.377 45.8631 50.187 45.4131 50.871C44.9631 51.555 44.2971 52.023 43.4151 52.257V52.311C44.4051 52.437 45.1791 52.869 45.7551 53.571C46.3311 54.273 46.6191 55.227 46.6191 56.397C46.6191 57.081 46.5291 57.747 46.3491 58.359C46.1691 58.989 45.8631 59.529 45.4311 59.997C44.9991 60.465 44.4231 60.843 43.7391 61.113C43.0371 61.401 42.1731 61.527 41.1471 61.527H35.1711V43.959H41.0931ZM39.7071 51.177C40.6971 51.177 41.4171 50.997 41.8671 50.655C42.3171 50.295 42.5511 49.701 42.5511 48.873C42.5511 48.045 42.3531 47.451 41.9391 47.091C41.5251 46.749 40.8771 46.569 39.9951 46.569H38.7171V51.177H39.7071ZM40.0851 58.935C40.9311 58.935 41.6331 58.755 42.1551 58.377C42.6771 57.999 42.9471 57.297 42.9471 56.289C42.9471 55.785 42.8751 55.353 42.7311 55.029C42.5871 54.687 42.4071 54.417 42.1731 54.219C41.9391 54.021 41.6511 53.877 41.3271 53.787C41.0031 53.697 40.6431 53.661 40.2471 53.661H38.7171V58.953H40.0851V58.935Z" fill="white"/>
<path d="M48.0648 61.5439C48.0648 60.7699 48.1368 60.0499 48.2988 59.3839C48.4608 58.7179 48.6948 58.0699 49.0188 57.4579C49.3428 56.8459 49.7388 56.2519 50.2248 55.6759C50.7108 55.0999 51.2688 54.5059 51.9168 53.9119L53.3388 52.5799C53.7348 52.2379 54.0408 51.9139 54.2928 51.6259C54.5268 51.3379 54.7068 51.0319 54.8508 50.7439C54.9768 50.4559 55.0668 50.1319 55.1028 49.7899C55.1388 49.4479 55.1568 49.0519 55.1568 48.6019C55.1568 47.1619 54.5808 46.4419 53.4288 46.4419C52.9788 46.4419 52.6368 46.5319 52.3848 46.7119C52.1328 46.8919 51.9348 47.1439 51.7908 47.4499C51.6468 47.7559 51.5568 48.1159 51.5208 48.5299C51.4848 48.9439 51.4668 49.3759 51.4668 49.8259H48.0648V49.1599C48.0648 47.5399 48.4968 46.2799 49.3788 45.4159C50.2428 44.5519 51.6108 44.1199 53.4828 44.1199C55.2468 44.1199 56.5608 44.5339 57.4248 45.3439C58.2708 46.1719 58.7028 47.3419 58.7028 48.8719C58.7028 49.4299 58.6488 49.9519 58.5588 50.4379C58.4688 50.9239 58.3068 51.3919 58.0908 51.8239C57.8748 52.2739 57.6048 52.7059 57.2448 53.1199C56.9028 53.5339 56.4888 53.9659 55.9848 54.4159L54.0228 56.2339C53.5008 56.7019 53.0868 57.1699 52.7988 57.6199C52.5108 58.0699 52.3128 58.4659 52.2408 58.7899H58.8108V61.5439H48.0648Z" fill="white"/>
</svg>
