<svg width="100%" height="100%" viewBox="0 0 80 80" fill="none" xmlns="http://www.w3.org/2000/svg">
<circle cx="40" cy="40" r="39.5" fill="white" stroke="#ECECEC"/>
<path d="M6 26V27.9743H19.2387V26H6ZM21.0875 26V27.9743H39.949C39.949 27.9743 38.045 26 35.495 26H21.0875ZM43.6507 26V27.9743H55.062L54.382 26H43.6507ZM63.2433 26L62.5633 27.9743H73.8683V26H63.2433ZM6 29.8382V31.8125H19.2387V29.8382H6ZM21.0875 29.8405V31.8125H42.1378C42.1378 31.8125 41.8913 30.2935 41.4641 29.8405H21.0875ZM43.6507 29.8405V31.8125H56.3158L55.6889 29.8405H43.6507ZM61.8896 29.8405L61.2627 31.8125H73.8746V29.8405H61.8896ZM9.825 33.6764V35.653H15.5561V33.6764H9.825ZM24.9125 33.6764V35.653H30.65V33.6764H24.9125ZM36.2175 33.6764V35.653H41.9507C41.9507 35.653 42.312 34.6095 42.312 33.6764H36.2175ZM47.4715 33.6764V35.653H57.6375L56.9575 33.6764H47.4715ZM60.6571 33.6764L59.9771 35.653H70.1559V33.6764H60.6571ZM9.825 37.4943V39.4686H15.5561V37.4943H9.825ZM24.9125 37.4943V39.4686H39.575C39.575 39.4686 40.799 38.4544 41.19 37.4943H24.9125ZM47.4757 37.4943V39.4686H53.2069V38.3958L53.5681 39.4934H64.0656L64.4566 38.3958V39.4934H70.1516V37.5191H59.3906L58.8169 39.1914L58.2431 37.5191L47.4757 37.4943ZM9.825 41.3573V43.3316H15.5561V41.3573H9.825ZM24.9125 41.3573V43.3316H41.1688C40.7778 42.3738 39.5538 41.3573 39.5538 41.3573H24.9125ZM47.4757 41.3573V43.3316H53.2069V41.3573H47.4757ZM54.2502 41.3573L54.943 43.3316H62.8161L63.4536 41.3573H54.2502ZM64.463 41.3573V43.3316H70.175V41.3573H64.463ZM9.825 45.1955V47.1698H15.5561V45.1955H9.825ZM24.9125 45.1955V47.1698H30.65V45.1955H24.9125ZM36.2175 45.1955V47.1698H42.3162C42.3162 46.239 41.955 45.1955 41.955 45.1955H36.2175ZM47.4715 45.1955V47.1698H53.2026V45.1955H47.4715ZM55.5465 45.1955L56.218 47.1698H61.4965L62.1765 45.1955H55.5465ZM64.4587 45.1955V47.1698H70.1538V45.1955H64.4587ZM6.10624 49.0337V51.0103H19.345V49.0337H6.10624ZM21.1151 49.0337V51.0103H41.5151C41.9444 50.5595 42.1888 49.0337 42.1888 49.0337H21.1151ZM43.7804 49.0337V51.0103H53.2154V49.0337H43.7804ZM56.8597 49.0337L57.5504 51.0103H60.2364L60.8845 49.0337H56.8597ZM64.4673 49.0337V51.0103H74V49.0337H64.4673ZM6.10624 52.8742V54.8485H19.345V52.8742H6.10624ZM21.1151 52.8742V54.8462H35.5014C38.0514 54.8462 39.9809 52.8742 39.9809 52.8742H21.1151ZM43.7804 52.8742V54.8485H53.2154V52.8742H43.7804ZM58.1666 52.8742L58.8318 54.8417L58.9465 54.844L59.6222 52.8719L58.1666 52.8742ZM64.4651 52.8742V54.8485H74V52.8742H64.4651Z" fill="black"/>
</svg>
