<svg width="100%" height="100%" viewBox="0 0 80 80" fill="none" xmlns="http://www.w3.org/2000/svg">
<circle cx="40" cy="40" r="39.5" fill="white" stroke="#ECECEC"/>
<path d="M36.425 44.0561C36.3806 44.1014 36.3362 44.1165 36.3214 44.1467C35.6997 44.962 34.856 45.3093 33.8642 45.3546C32.9465 45.3999 32.0732 45.2338 31.2887 44.7204C30.5337 44.2373 30.0157 43.5428 29.6604 42.7275C29.2756 41.8367 29.1423 40.9006 29.1719 39.9344C29.2015 38.8322 29.4532 37.7753 30.1045 36.8544C30.6818 36.0391 31.4367 35.5106 32.3988 35.2993C33.3166 35.0879 34.2195 35.1181 35.1076 35.4653C35.5813 35.6465 36.0106 35.9334 36.3362 36.341C36.4102 36.4316 36.4546 36.4316 36.4842 36.3108C36.6915 35.6012 37.2095 35.2842 37.8608 35.1483C38.2013 35.0879 38.5417 35.0728 38.8822 35.0426C39.0006 35.0275 39.119 35.0426 39.1338 35.2087C39.1486 35.3597 39.1338 35.4653 38.9562 35.5257C38.5417 35.6767 38.2309 36.0844 38.2457 36.5373C38.2457 39.0436 38.2457 41.5499 38.2457 44.0712C38.2457 44.6903 38.2309 45.2942 38.1717 45.9132C38.1125 46.5624 37.8608 47.1361 37.5056 47.6797C37.0911 48.2987 36.5286 48.7365 35.8625 49.0536C35.2556 49.3253 34.6192 49.4914 33.9679 49.5367C32.9021 49.6273 31.8807 49.4461 30.889 49.0838C30.8298 49.0687 30.7558 48.963 30.7558 48.9026C30.741 48.3893 30.7558 47.8608 30.7558 47.3475C30.7558 47.2116 30.8298 47.1965 30.9482 47.2418C31.2591 47.3626 31.5699 47.4834 31.8955 47.5891C32.458 47.7703 33.0353 47.8306 33.6126 47.8004C34.1307 47.7702 34.6488 47.6797 35.1224 47.4381C35.7737 47.1059 36.203 46.5926 36.3214 45.8679C36.4102 45.3244 36.4102 44.7506 36.4546 44.192C36.4546 44.1467 36.4398 44.1165 36.425 44.0561ZM36.4842 40.2514C36.499 39.7381 36.4694 39.2399 36.3214 38.7567C36.1734 38.2585 35.9513 37.7904 35.5369 37.4583C34.9892 37.0053 34.3379 36.8846 33.657 36.8997C32.5764 36.9148 31.6883 37.564 31.3627 38.6057C30.9926 39.7985 31.0222 40.9761 31.5403 42.1236C31.7623 42.6218 32.1176 42.9993 32.5764 43.271C33.0649 43.5579 33.583 43.6183 34.1307 43.5881C35.1668 43.5277 35.9365 42.8785 36.2474 41.9122C36.425 41.3687 36.5138 40.8101 36.4842 40.2514Z" fill="black"/>
<path d="M75.1024 38.5654C75.132 39.3052 74.9839 40.0299 74.7767 40.7395C74.7027 40.966 74.5991 41.1774 74.4955 41.4038C74.4067 41.6001 74.3475 41.6001 74.1846 41.4793C73.933 41.2831 73.6962 41.0868 73.4593 40.8754C73.2817 40.7395 73.1189 40.5886 72.9413 40.4527C72.8376 40.3772 72.8228 40.2866 72.8525 40.1658C73.0449 39.5317 73.1485 38.8674 73.1041 38.2031C73.0597 37.4633 72.8969 36.7688 72.586 36.1044C72.2456 35.4099 71.7867 34.8211 71.1946 34.3531C70.7654 34.0058 70.2769 33.7642 69.7588 33.5831C68.8855 33.2962 67.9974 33.266 67.0945 33.4472C66.5616 33.5529 66.0731 33.7642 65.629 34.0511C64.8593 34.5342 64.2673 35.1835 63.8676 36.0138C63.5864 36.5876 63.4087 37.1915 63.3495 37.8256C63.2903 38.4295 63.3051 39.0486 63.4235 39.6374C63.5864 40.4376 63.8824 41.1623 64.3709 41.8115C64.9926 42.657 65.7919 43.2307 66.754 43.578C67.0352 43.6837 67.3461 43.7591 67.6421 43.7591C68.1454 43.7742 68.6487 43.744 69.1371 43.7138C69.3296 43.6987 69.4776 43.6837 69.6404 43.8195C70.0401 44.1517 70.4545 44.4688 70.8542 44.7858C71.0318 44.9368 71.0318 44.9972 70.8098 45.0878C69.4924 45.6162 68.1602 45.737 66.7688 45.4501C65.6883 45.2237 64.7409 44.7556 63.8824 44.0611C63.3199 43.6082 62.8611 43.0646 62.4762 42.4456C62.121 41.887 61.8545 41.2831 61.6473 40.6489C61.4697 40.0752 61.3957 39.5015 61.3513 38.9127C61.2921 38.037 61.3809 37.1915 61.6177 36.346C61.8989 35.3797 62.3726 34.5191 63.0387 33.7642C63.7196 32.9942 64.5189 32.4054 65.4662 32.0129C66.5024 31.575 67.5977 31.3938 68.7079 31.5146C69.2407 31.575 69.7588 31.6505 70.2769 31.7864C70.8542 31.9374 71.387 32.194 71.8903 32.5262C72.2604 32.7678 72.6304 33.0244 72.9561 33.3415C73.4001 33.7793 73.7998 34.2474 74.1106 34.7909C74.5251 35.4854 74.8211 36.2252 74.9543 37.0254C75.0431 37.5237 75.0728 38.037 75.132 38.5503C75.132 38.5654 75.1172 38.5654 75.1024 38.5654Z" fill="black"/>
<path d="M42.5229 37.0057C42.5969 36.9453 42.6413 36.9152 42.6561 36.8699C43.0854 36.2508 43.6479 35.7979 44.3435 35.4959C44.98 35.2242 45.6461 35.1638 46.327 35.2091C46.7562 35.2393 47.1855 35.3148 47.5852 35.4959C48.3548 35.8432 48.7989 36.4773 49.0505 37.2775C49.2282 37.8814 49.2726 38.4853 49.2726 39.1044C49.2874 40.735 49.2726 42.3655 49.2874 43.9961C49.2874 44.4944 49.539 44.8567 49.9831 45.0379C50.1607 45.0983 50.2051 45.2191 50.1607 45.3701C50.1459 45.4304 50.0719 45.5059 50.0127 45.5059C49.4502 45.521 48.8877 45.4908 48.3696 45.2493C47.8072 44.9926 47.5259 44.5397 47.4519 43.9357C47.4371 43.7697 47.4371 43.6036 47.4371 43.4375C47.4371 42.0334 47.4371 40.6444 47.4371 39.2403C47.4371 38.742 47.3927 38.2589 47.1559 37.8059C46.9487 37.3983 46.6082 37.1416 46.1642 37.0812C44.9948 36.9001 44.0031 37.2624 43.2482 38.1834C42.7893 38.742 42.5081 39.3761 42.5229 40.1461C42.5525 41.7918 42.5377 43.4375 42.5377 45.0832C42.5377 45.1738 42.5377 45.2644 42.5377 45.355C42.5525 45.521 42.4785 45.5814 42.3009 45.5814C41.8568 45.5663 41.4276 45.5814 40.9835 45.5814C40.7319 45.5814 40.7023 45.5512 40.7023 45.2946C40.7023 44.2075 40.7171 43.1355 40.7023 42.0485C40.7023 39.2855 40.7023 36.5226 40.6875 33.7597C40.6875 33.5181 40.6727 33.2765 40.6283 33.0501C40.5543 32.6877 40.3174 32.4461 39.977 32.3253C39.7994 32.265 39.7698 32.1442 39.7846 31.9932C39.7994 31.8271 39.9178 31.812 40.051 31.812C40.5987 31.8271 41.1463 31.8422 41.6496 32.0838C42.1381 32.3102 42.4637 32.6877 42.4785 33.2463C42.5081 34.1069 42.5081 34.9675 42.5081 35.8281C42.5081 36.1602 42.5081 36.4924 42.5081 36.8246C42.4933 36.8397 42.5081 36.9001 42.5229 37.0057Z" fill="black"/>
<path d="M9.01167 37.2065C9.2781 36.9046 9.50013 36.6026 9.75177 36.3459C10.3734 35.7118 11.1283 35.3344 12.0017 35.2438C12.7122 35.1683 13.4227 35.1834 14.1035 35.4703C14.7252 35.7269 15.1989 36.1648 15.4801 36.7989C15.8058 37.5236 15.8946 38.2936 15.8946 39.0636C15.9094 40.7243 15.9242 42.4002 15.9094 44.061C15.9094 44.4686 16.2646 44.9518 16.6051 45.0424C16.7235 45.0726 16.7827 45.148 16.7975 45.2688C16.8123 45.4198 16.7679 45.5104 16.5903 45.5104C15.9686 45.5255 15.3617 45.4802 14.814 45.1782C14.296 44.8763 14.0443 44.378 14.0443 43.759C14.0443 42.4606 14.0443 41.1471 14.0443 39.8487C14.0443 39.29 14.0591 38.7465 13.9111 38.203C13.7335 37.5387 13.319 37.1612 12.6529 37.0555C11.7352 36.9348 10.9063 37.1612 10.1958 37.7651C9.69256 38.1879 9.36691 38.7465 9.17449 39.3806C8.99687 39.9091 8.95246 40.4677 8.96726 41.0263C8.98206 42.4606 8.96726 43.8798 8.98206 45.3141C8.98206 45.5708 8.96726 45.5859 8.71563 45.5859C8.27157 45.5859 7.84231 45.5859 7.39825 45.5859C7.17623 45.5859 7.13182 45.5255 7.13182 45.3141C7.13182 42.5814 7.14662 39.8487 7.14662 37.1159C7.14662 36.7083 7.07261 36.3308 6.71737 36.0893C6.64336 36.0289 6.55454 35.9836 6.46573 35.9534C6.28811 35.893 6.2437 35.8175 6.2585 35.6212C6.27331 35.4401 6.39172 35.4552 6.52494 35.4552C6.9986 35.4703 7.45746 35.4854 7.91632 35.6212C8.43439 35.7873 8.78964 36.1195 8.90805 36.663C8.93766 36.7989 8.95246 36.9348 8.96726 37.0706C8.96726 37.1008 8.98206 37.1461 9.01167 37.2065Z" fill="black"/>
<path d="M21.2524 45.8122C20.4087 45.7971 19.5945 45.6763 18.7804 45.4649C18.44 45.3894 18.0995 45.2837 17.7739 45.1781C17.6999 45.1479 17.6111 45.0422 17.6111 44.9818C17.5963 44.5288 17.6111 44.0759 17.6111 43.6229C17.6111 43.5022 17.6851 43.472 17.7739 43.5173C18.0551 43.6078 18.3216 43.6984 18.6028 43.7739C19.6685 44.0759 20.7491 44.3175 21.874 44.1816C22.1405 44.1514 22.4365 44.0306 22.6438 43.8645C23.221 43.4267 23.2062 42.6265 22.5993 42.2339C22.1701 41.947 21.6816 41.7357 21.2228 41.5092C20.7343 41.2827 20.231 41.0713 19.7426 40.8449C19.2541 40.6184 18.81 40.3164 18.4548 39.9088C17.9515 39.3502 17.7591 38.6707 17.8627 37.9309C17.9071 37.6441 17.9959 37.3572 18.0995 37.0854C18.292 36.6023 18.662 36.2399 19.1061 35.9833C19.7722 35.5907 20.4827 35.4397 21.2376 35.4397C22.4513 35.4246 23.295 36.0437 23.9907 36.9797C24.124 37.1609 24.272 37.3421 24.2424 37.5988C24.2424 37.6592 24.2128 37.7346 24.1684 37.7648C24.1388 37.7799 24.0499 37.7497 24.0203 37.7196C23.5171 37.2817 22.9102 37.0854 22.2737 36.9797C21.8296 36.9042 21.3708 36.859 20.9119 36.9797C20.5863 37.0703 20.2754 37.1609 20.0386 37.4327C19.6241 37.9158 19.5205 38.6707 20.2606 39.1086C20.7639 39.3954 21.2968 39.6219 21.8296 39.8484C22.5845 40.1655 23.3691 40.4523 24.0055 40.9959C24.642 41.5243 24.9529 42.2037 24.9233 43.0643C24.8937 43.9853 24.4644 44.6798 23.7391 45.1781C23.0878 45.6461 22.3329 45.8122 21.5336 45.8273C21.4596 45.8122 21.356 45.8122 21.2524 45.8122Z" fill="black"/>
<path d="M53.3434 40.6761C53.3434 41.7632 53.3434 42.8502 53.3434 43.9373C53.3434 44.4959 53.5802 44.8432 54.0983 45.0395C54.2759 45.1149 54.2315 45.2508 54.2315 45.3867C54.2315 45.5226 54.1279 45.5226 54.039 45.5226C53.6098 45.4773 53.1805 45.4924 52.7809 45.3867C51.9372 45.1602 51.5079 44.5563 51.5079 43.6202C51.5079 42.4275 51.5079 41.2348 51.5079 40.042C51.5079 39.121 51.5079 38.2001 51.5079 37.2791C51.5079 37.113 51.4635 37.0526 51.3007 37.0677C50.975 37.0828 50.6494 37.0677 50.3237 37.0677C50.1609 37.0677 50.0869 37.0073 50.0869 36.8261C50.0869 36.4789 50.0869 36.1316 50.0869 35.7995C50.0869 35.6032 50.1461 35.5428 50.3533 35.5428C50.679 35.5428 51.0046 35.5428 51.3303 35.5428C51.4783 35.5428 51.5079 35.4975 51.5079 35.3465C51.5079 34.9238 51.5079 34.5161 51.5079 34.0934C51.5079 33.5499 51.2711 33.1875 50.7826 33.0063C50.605 32.9459 50.6198 32.8252 50.6346 32.6893C50.6494 32.5534 50.753 32.5232 50.8714 32.5232C51.3747 32.5081 51.878 32.5534 52.3516 32.7346C53.0325 33.0063 53.3138 33.4593 53.3582 34.1538C53.3878 34.5312 53.373 34.9087 53.3582 35.2861C53.3582 35.4673 53.4174 35.5126 53.5802 35.5126C54.1575 35.4975 54.7347 35.5126 55.2972 35.5126C55.6525 35.5126 55.6525 35.5126 55.6525 35.8901C55.6525 36.2071 55.6377 36.5242 55.6525 36.8563C55.6525 37.0073 55.6081 37.0526 55.46 37.0526C54.8236 37.0526 54.1871 37.0526 53.5654 37.0526C53.4026 37.0526 53.3434 37.0979 53.3434 37.264C53.3434 38.3963 53.3434 39.5438 53.3434 40.6761Z" fill="black"/>
<path d="M57.3997 38.4726C57.3997 36.5853 57.4145 34.7131 57.3849 32.8259C57.3849 32.3881 57.0741 32.1012 56.704 31.9049C56.6596 31.8898 56.6004 31.8747 56.5708 31.8445C56.5412 31.7992 56.4968 31.7388 56.5116 31.6935C56.5116 31.6482 56.5708 31.603 56.6152 31.5879C56.6744 31.5728 56.7485 31.5728 56.8225 31.5728C57.8882 31.5728 58.9391 31.5728 60.0048 31.5728C60.1084 31.5728 60.2269 31.5879 60.2269 31.7086C60.2269 31.769 60.1381 31.8596 60.064 31.8898C59.6348 32.0861 59.3832 32.388 59.3684 32.8712C59.3536 34.5169 59.3388 36.1626 59.3388 37.8082C59.3388 39.9069 59.324 42.0055 59.3536 44.1041C59.3536 44.5571 59.6644 44.8439 60.064 45.0402C60.1381 45.0704 60.2121 45.161 60.2269 45.2365C60.2713 45.4328 60.1825 45.5083 59.99 45.5083C58.9095 45.5083 57.829 45.5083 56.7633 45.5083C56.6596 45.5083 56.5412 45.5233 56.5116 45.3724C56.4968 45.2365 56.482 45.0855 56.6596 45.0251C57.0297 44.9043 57.2221 44.6175 57.3701 44.2702C57.3849 44.2249 57.3997 44.1645 57.3997 44.1192C57.3997 42.2471 57.3997 40.3598 57.3997 38.4726Z" fill="black"/>
<path d="M26.1073 40.2861C26.1073 39.184 26.1073 38.0818 26.1073 36.9797C26.1073 36.4361 25.8853 36.104 25.3821 35.9077C25.234 35.8473 25.2044 35.7416 25.2192 35.5906C25.234 35.4397 25.3376 35.4246 25.4561 35.4397C25.9001 35.4548 26.3442 35.4548 26.7734 35.5756C27.4247 35.7718 27.8984 36.1644 27.9428 37.0401C27.9576 37.4175 27.9576 37.795 27.9576 38.1573C27.9576 40.0748 27.9576 41.9922 27.9576 43.9096C27.9576 44.4834 28.1796 44.8306 28.7125 45.042C28.8605 45.1024 28.8753 45.2081 28.8605 45.3288C28.8457 45.4496 28.7717 45.4949 28.6681 45.4949C28.1648 45.4949 27.6615 45.4647 27.1879 45.2836C26.4922 45.0118 26.1665 44.4834 26.1517 43.7587C26.1221 42.6414 26.1369 41.5242 26.1369 40.4069C26.1221 40.3767 26.1221 40.3314 26.1073 40.2861C26.1221 40.2861 26.1221 40.2861 26.1073 40.2861Z" fill="black"/>
<path d="M2.88334 40.361C2.88334 39.2286 2.88334 38.0963 2.88334 36.9639C2.88334 36.5714 2.70571 36.2543 2.39487 36.0278C2.33566 35.9825 2.27645 35.9523 2.20244 35.9372C2.01001 35.8768 1.9212 35.7259 1.99521 35.5296C2.01001 35.4843 2.08402 35.439 2.12843 35.439C2.73531 35.4239 3.357 35.439 3.91948 35.7259C4.42275 35.9825 4.65958 36.4204 4.68919 36.979C4.71879 37.4018 4.70399 37.8245 4.70399 38.2472C4.70399 40.1345 4.70399 42.0067 4.70399 43.8939C4.70399 44.4526 4.91122 44.8602 5.45889 45.0414C5.60692 45.0867 5.60692 45.2226 5.59211 45.3434C5.57731 45.4037 5.5033 45.5094 5.44409 45.5094C4.8076 45.5396 4.15631 45.4943 3.59383 45.1471C3.09056 44.8451 2.88334 44.3469 2.88334 43.7732C2.86853 42.6257 2.88334 41.4933 2.88334 40.361Z" fill="black"/>
<path d="M74.2883 42.9448C74.1847 42.975 74.0811 43.0203 73.9626 43.0354C73.6518 43.0807 73.3558 43.1109 73.0449 43.1713C72.9709 43.1864 72.8969 43.2317 72.8377 43.277C72.8229 43.2921 72.8821 43.3978 72.9265 43.4582C73.4594 44.1376 74.0071 44.8321 74.5547 45.5115C74.688 45.6776 74.8212 45.8436 74.9396 45.9946C74.9396 46.0248 74.9396 46.0399 74.9396 46.055C74.7472 46.3419 74.7916 46.4325 74.4215 46.1305C73.9922 45.7832 73.563 45.4662 73.1337 45.1189C72.6304 44.7264 72.1568 44.3187 71.6535 43.9111C71.1206 43.4884 70.573 43.0656 70.0253 42.6278C69.9069 42.5372 69.8032 42.4466 69.6996 42.356C69.6552 42.3258 69.6256 42.2503 69.6256 42.205C69.6256 42.1748 69.7144 42.1295 69.7588 42.1144C70.1141 42.0541 70.4693 41.9937 70.8246 41.9333C71.0318 41.888 71.0614 41.7974 70.9282 41.6162C70.3509 40.8915 69.7736 40.1668 69.2112 39.4421C69.1668 39.3817 69.1223 39.3364 69.0779 39.276C68.9151 39.0948 68.9447 38.9288 69.1668 38.8382C69.2112 38.8231 69.3 38.8382 69.3444 38.8835C70.0697 39.4723 70.795 40.0611 71.5203 40.6499C72.3196 41.2841 73.1189 41.9182 73.9182 42.5523C74.0515 42.658 74.1847 42.7637 74.3179 42.8844C74.2883 42.9146 74.2883 42.9297 74.2883 42.9448Z" fill="black"/>
<path d="M55.1789 49.751C55.1789 49.6453 55.1937 49.5547 55.1937 49.449C55.1937 48.9206 55.1937 48.3922 55.1937 47.8637C55.1937 47.5769 55.2825 47.5014 55.5638 47.5014C55.623 47.5014 55.697 47.5014 55.7562 47.5014C55.8746 47.4863 55.9338 47.5618 55.9486 47.6675C55.9634 47.7732 55.9338 47.8788 55.8302 47.8939C55.6674 47.9241 55.6526 48.0147 55.6526 48.1506C55.6526 48.9357 55.6674 49.7057 55.6526 50.4908C55.6526 50.5663 55.623 50.7021 55.5638 50.7323C55.4306 50.7927 55.2825 50.8078 55.1789 50.6568C54.9865 50.3851 54.7941 50.1133 54.6017 49.8265C54.3204 49.4188 54.0392 49.0112 53.7728 48.6186C53.7432 48.5582 53.7135 48.513 53.6691 48.4526C53.6395 48.4677 53.6247 48.4828 53.5951 48.4979C53.5803 48.5582 53.5803 48.6186 53.5803 48.679C53.5803 49.2527 53.5803 49.8265 53.5951 50.4002C53.5951 50.6417 53.4915 50.7474 53.2547 50.7625C53.1955 50.7625 53.1363 50.7625 53.0771 50.7625C52.9883 50.7474 52.855 50.8078 52.8402 50.6417C52.8254 50.5059 52.8106 50.3851 52.9883 50.3247C53.0475 50.3096 53.1215 50.2039 53.1215 50.1284C53.1363 49.3584 53.1215 48.6035 53.1363 47.8336C53.1363 47.7279 53.1659 47.5618 53.2399 47.5165C53.3583 47.441 53.5359 47.4561 53.6395 47.6071C53.8468 47.909 54.054 48.211 54.2612 48.4979C54.5276 48.8904 54.7941 49.2829 55.0605 49.6755C55.0753 49.7057 55.1049 49.7208 55.1345 49.7359C55.1345 49.7661 55.1641 49.7661 55.1789 49.751Z" fill="black"/>
<path d="M59.5158 49.0877C59.5306 50.0389 58.8497 50.7636 57.9468 50.8089C57.0143 50.8542 56.2594 50.0842 56.2446 49.1632C56.2446 48.1969 56.8959 47.5175 57.7544 47.4571C58.7017 47.3665 59.5454 48.1214 59.5158 49.0877ZM57.8728 47.8949C57.2215 47.8949 56.7479 48.4234 56.7479 49.133C56.7331 49.8124 57.2955 50.3862 57.9172 50.356C58.5389 50.3258 59.0422 49.8426 59.0422 49.1028C59.0422 48.4234 58.5241 47.8949 57.8728 47.8949Z" fill="black"/>
<path d="M65.4516 49.1322C65.4368 50.1589 64.6671 50.8384 63.7495 50.8082C62.817 50.778 62.1657 49.9778 62.1953 49.0869C62.2249 48.1357 62.965 47.4261 63.8679 47.4412C64.756 47.4714 65.5108 48.2716 65.4516 49.1322ZM63.8827 47.8941C63.2018 47.8639 62.6986 48.3622 62.669 49.0718C62.6393 49.7513 63.1426 50.3401 63.7791 50.3703C64.3711 50.3854 64.9336 49.8872 64.9632 49.2077C65.0076 48.483 64.5191 47.9092 63.8827 47.8941Z" fill="black"/>
<path d="M49.6727 49.2998C49.6727 48.9073 49.6727 48.5148 49.6727 48.1223C49.6727 48.0015 49.6579 47.9109 49.5099 47.8958C49.4655 47.8958 49.4062 47.7599 49.4062 47.6844C49.4062 47.6241 49.4803 47.5184 49.5247 47.5033C49.6431 47.4731 49.7911 47.4882 49.9095 47.5033C50.0723 47.5335 50.1463 47.6844 50.1463 47.8807C50.1463 48.1525 50.1463 48.4393 50.1463 48.7111C50.1463 48.862 50.2055 48.9073 50.3536 48.9073C50.7532 48.9073 51.1529 48.9073 51.5377 48.9073C51.6709 48.9073 51.7449 48.862 51.7449 48.7111C51.7449 48.4091 51.7449 48.1223 51.7449 47.8203C51.7449 47.5939 51.8486 47.4882 52.0706 47.4882C52.1594 47.4882 52.2334 47.4882 52.3222 47.4882C52.4258 47.4882 52.4998 47.5335 52.4998 47.6391C52.5146 47.7448 52.5146 47.8505 52.3814 47.8807C52.2334 47.9109 52.2038 48.0166 52.2038 48.1675C52.2038 48.9526 52.2186 49.7226 52.2186 50.5076C52.2186 50.7492 52.189 50.7643 51.967 50.7643C51.8337 50.7643 51.7597 50.6888 51.7597 50.5529C51.7597 50.2208 51.7449 49.8735 51.7597 49.5414C51.7597 49.3753 51.7153 49.3149 51.5525 49.3149C51.1677 49.33 50.768 49.33 50.3832 49.3149C50.2352 49.3149 50.1759 49.3753 50.1907 49.5112C50.1907 49.8433 50.1907 50.1604 50.1907 50.4925C50.1907 50.719 50.1611 50.7492 49.9687 50.7492C49.7763 50.7643 49.7023 50.6888 49.6875 50.4925C49.6579 50.1 49.6579 49.7075 49.6727 49.2998C49.6579 49.2998 49.6579 49.2998 49.6727 49.2998Z" fill="black"/>
<path d="M68.2494 50.5024C68.1754 50.5326 68.1162 50.5628 68.057 50.593C67.0653 51.1667 65.8959 50.5326 65.7626 49.355C65.7182 48.9323 65.7774 48.5096 66.0143 48.1623C66.3251 47.7245 66.7692 47.4528 67.3169 47.4377C67.6425 47.4226 67.9534 47.5132 68.2346 47.6641C68.3383 47.7245 68.4715 47.8 68.4123 47.951C68.3383 48.1321 68.205 48.1774 68.0274 48.0567C67.6425 47.8151 67.2429 47.8151 66.8432 47.9963C66.4139 48.2076 66.1771 48.7058 66.2215 49.2191C66.2659 49.7777 66.6656 50.2608 67.1837 50.3363C67.5537 50.3967 67.8794 50.291 68.1606 50.0646C68.3531 49.9136 68.3087 49.6569 68.0866 49.506C68.0274 49.4607 67.983 49.3399 67.9978 49.2644C67.9978 49.2191 68.1014 49.1587 68.1606 49.1286C68.2198 49.0984 68.2939 49.1135 68.3679 49.1286C68.5899 49.1436 68.7083 49.2493 68.7083 49.4758C68.7083 49.823 68.7083 50.1702 68.7083 50.5024C68.7083 50.6232 68.6787 50.7137 68.5455 50.7439C68.4123 50.759 68.3087 50.7288 68.2791 50.5779C68.2791 50.5628 68.279 50.5477 68.2494 50.5024Z" fill="black"/>
<path d="M43.9594 49.284C43.9594 48.9065 43.9594 48.5291 43.9594 48.1668C43.9594 48.0309 43.9298 47.9403 43.7818 47.895C43.7226 47.8799 43.693 47.744 43.6782 47.6686C43.6782 47.5629 43.7374 47.5176 43.8558 47.5176C44.4035 47.5176 44.9511 47.5176 45.484 47.5176C45.7652 47.5176 45.854 47.6384 45.8244 47.9252C45.7948 48.197 45.78 48.2272 45.5728 48.2121C45.4692 48.2121 45.41 48.1668 45.3952 48.0611C45.3804 47.9403 45.3212 47.9101 45.2175 47.9101C45.0103 47.9101 44.8179 47.9101 44.6107 47.9101C44.4775 47.9101 44.4183 47.9705 44.4183 48.0913C44.4183 48.3177 44.4183 48.5442 44.4183 48.7556C44.4183 48.9216 44.5515 48.9065 44.6551 48.9065C44.8771 48.9216 45.0991 48.9065 45.3064 48.9065C45.4988 48.9065 45.558 48.9971 45.5284 49.1783C45.4988 49.2991 45.4396 49.3142 45.336 49.3142C45.0843 49.3142 44.8327 49.3142 44.5959 49.3142C44.4775 49.3142 44.4183 49.3595 44.4331 49.4803C44.4331 49.7067 44.4331 49.9332 44.4331 50.1445C44.4331 50.2804 44.4923 50.3408 44.6255 50.3257C44.8475 50.3106 45.0695 50.3257 45.2768 50.3257C45.41 50.3257 45.4988 50.2804 45.5284 50.1596C45.5728 50.0238 45.6616 50.0087 45.78 50.0238C45.8984 50.0389 45.9428 50.1143 45.9576 50.2502C46.002 50.6428 45.7948 50.7635 45.4692 50.7484C45.0843 50.7333 44.6995 50.7484 44.3147 50.7484C44.0039 50.7484 43.915 50.6579 43.915 50.3559C43.9594 50.0087 43.9594 49.6463 43.9594 49.284Z" fill="black"/>
<path d="M70.8102 49.2499C70.8102 48.8724 70.8102 48.495 70.8102 48.1175C70.8102 47.9967 70.7954 47.9061 70.6474 47.9061C70.5438 47.9061 70.5142 47.8306 70.5142 47.7401C70.5142 47.6344 70.529 47.5438 70.6474 47.5287C70.751 47.5136 70.8546 47.5287 70.9434 47.5287C71.3875 47.5287 71.8464 47.5287 72.2905 47.5287C72.6162 47.5287 72.7938 47.8306 72.6606 48.1326C72.631 48.193 72.5125 48.2232 72.4237 48.2232C72.3793 48.2232 72.2905 48.1628 72.2757 48.1024C72.2461 47.9665 72.1721 47.9212 72.0537 47.9212C71.8612 47.9212 71.6688 47.9212 71.4615 47.9212C71.3283 47.9212 71.2543 47.9665 71.2543 48.1326C71.2543 48.3289 71.2691 48.5251 71.2543 48.7063C71.2395 48.8724 71.3283 48.9328 71.4763 48.9328C71.6984 48.9328 71.9204 48.9328 72.1277 48.9328C72.2757 48.9328 72.3645 48.963 72.3645 49.1442C72.3645 49.3253 72.2609 49.3555 72.1277 49.3404C71.9056 49.3404 71.6836 49.3404 71.4763 49.3253C71.3283 49.3253 71.2543 49.3857 71.2543 49.5367C71.2543 49.7481 71.2543 49.9444 71.2543 50.1557C71.2543 50.2916 71.3135 50.352 71.4467 50.352C71.6836 50.352 71.9352 50.352 72.1721 50.352C72.2757 50.352 72.3497 50.3218 72.3645 50.2161C72.3941 50.05 72.5273 50.05 72.6458 50.0651C72.779 50.0802 72.7938 50.1859 72.7938 50.2916C72.779 50.3973 72.7938 50.5332 72.7494 50.6238C72.6902 50.6993 72.5569 50.7748 72.4533 50.7748C72.0092 50.7899 71.58 50.7899 71.1359 50.7748C70.899 50.7748 70.7954 50.6691 70.7954 50.4124C70.7954 50.0199 70.7954 49.6273 70.8102 49.2499Z" fill="black"/>
<path d="M46.2242 49.1895C46.2094 48.0269 47.1715 47.2418 48.2077 47.4985C48.4742 47.5589 48.7258 47.6494 48.9183 47.8759C49.0515 48.0269 49.0219 48.2232 48.9923 48.3893C48.9923 48.4346 48.8591 48.4799 48.7851 48.4799C48.711 48.4648 48.5926 48.4044 48.5926 48.3591C48.5482 48.1024 48.3854 48.0118 48.1781 47.9514C47.7489 47.8306 47.3492 47.9061 47.0235 48.2232C46.6979 48.5553 46.6238 48.9479 46.7275 49.4009C46.8163 49.7783 47.0087 50.0652 47.3344 50.2313C47.8081 50.4728 48.2374 50.337 48.637 50.0803C48.7703 49.9897 48.8591 49.9595 48.9627 50.1105C49.0515 50.2464 49.0367 50.3521 48.8739 50.4577C48.2374 50.9107 47.364 50.9711 46.7571 50.4275C46.387 50.0652 46.1946 49.6122 46.2242 49.1895Z" fill="black"/>
<path d="M74.081 50.794C73.7553 50.8242 73.474 50.6732 73.2076 50.492C73.104 50.4165 73.0448 50.3108 73.1484 50.1901C73.2668 50.0391 73.3408 50.024 73.4889 50.1297C73.7553 50.341 74.0514 50.4618 74.3918 50.3108C74.6879 50.175 74.7323 49.7824 74.4807 49.5861C74.3474 49.4804 74.1846 49.4049 74.0366 49.3294C73.8737 49.2388 73.6813 49.1482 73.5185 49.0426C73.2372 48.8463 73.0744 48.5896 73.1188 48.2423C73.178 47.8649 73.4148 47.6384 73.7553 47.5327C74.1846 47.4119 74.5695 47.4421 74.91 47.7743C74.9692 47.8347 75.0284 47.9403 75.0432 48.046C75.0728 48.1668 75.0876 48.3027 74.9248 48.348C74.7619 48.3933 74.6583 48.3329 74.5991 48.1668C74.5103 47.9554 74.1994 47.8347 73.9181 47.9253C73.7109 47.9856 73.5629 48.2121 73.6221 48.4084C73.6813 48.6349 73.8885 48.7104 74.0662 48.8161C74.3178 48.952 74.5843 49.0577 74.8063 49.2388C75.1172 49.4804 75.206 49.8277 75.0876 50.1901C74.9692 50.5675 74.6583 50.794 74.2586 50.8242C74.1994 50.794 74.1402 50.794 74.081 50.794Z" fill="black"/>
<path d="M42.301 49.3595C42.301 49.7671 42.301 50.1747 42.301 50.5824C42.301 50.673 42.301 50.7636 42.1825 50.7636C42.0641 50.7636 41.9013 50.8239 41.8569 50.6277C41.8421 50.5522 41.8421 50.4616 41.8421 50.371C41.8421 49.6312 41.8421 48.9066 41.8569 48.1668C41.8569 47.9554 41.8125 47.895 41.5905 47.895C41.5017 47.895 41.4129 47.895 41.3241 47.895C41.2056 47.895 41.1168 47.9403 41.102 48.0762C41.0724 48.2423 40.9392 48.197 40.8504 48.197C40.806 48.197 40.7616 48.0913 40.7172 48.046C40.7172 48.0309 40.7172 48.0158 40.7172 48.0158C40.6876 47.5629 40.732 47.5176 41.176 47.5176C41.8273 47.5176 42.4638 47.5176 43.115 47.5176C43.2482 47.5176 43.3963 47.5176 43.4111 47.6686C43.4407 47.8346 43.4111 48.0007 43.3815 48.1668C43.3815 48.197 43.2482 48.2272 43.1742 48.2121C43.1298 48.2121 43.0558 48.1517 43.041 48.1064C43.0114 47.9554 42.9226 47.9252 42.7746 47.9252C42.2417 47.9403 42.2713 47.8497 42.2713 48.4234C42.3009 48.7254 42.301 49.0424 42.301 49.3595Z" fill="black"/>
<path d="M60.5962 48.9633C60.5962 49.3256 60.5962 49.7031 60.5962 50.0654C60.5962 50.2617 60.6702 50.3372 60.8626 50.3372C61.0551 50.3372 61.2475 50.3372 61.4251 50.3372C61.5435 50.3372 61.6175 50.307 61.6471 50.1862C61.6915 50.0352 61.7952 50.005 61.9284 50.0352C62.0616 50.0654 62.0912 50.1711 62.0764 50.2768C62.0764 50.3372 62.0764 50.3976 62.0764 50.458C62.0616 50.6542 61.9728 50.7448 61.7804 50.7599C61.3067 50.7599 60.8478 50.7599 60.3742 50.7599C60.2262 50.7599 60.1225 50.6391 60.1225 50.4429C60.1225 50.2315 60.1225 50.0352 60.1225 49.8238C60.1225 49.2803 60.1225 48.7368 60.1225 48.1933C60.1225 48.0423 60.1225 47.8913 59.9153 47.8611C59.8709 47.8611 59.8413 47.7101 59.8413 47.6346C59.8413 47.5893 59.9153 47.544 59.9597 47.4836H59.9893C60.5222 47.4535 60.5814 47.4987 60.5814 48.0423C60.5962 48.3593 60.5962 48.6613 60.5962 48.9633Z" fill="black"/>
<path d="M69.6255 50.7637C69.5071 50.7637 69.3886 50.7637 69.2702 50.7637C69.1518 50.7637 69.1074 50.7033 69.1074 50.5976C69.1074 50.4919 69.0778 50.3711 69.2258 50.356C69.3886 50.3409 69.4182 50.2503 69.4182 50.1144C69.4182 49.4501 69.4182 48.8009 69.433 48.1366C69.433 48.0007 69.4034 47.895 69.2406 47.895C69.1222 47.895 69.1074 47.7893 69.1074 47.6988C69.1074 47.5931 69.137 47.5176 69.2554 47.5176C69.5071 47.5176 69.7587 47.5176 70.0251 47.5176C70.1583 47.5176 70.1731 47.6082 70.1731 47.7139C70.1731 47.8195 70.1435 47.9101 70.0251 47.895C69.8623 47.895 69.8475 47.9856 69.8475 48.1215C69.8475 48.7858 69.8475 49.4501 69.8475 50.1144C69.8475 50.2503 69.8919 50.3409 70.0251 50.3409C70.1583 50.3409 70.1583 50.4466 70.1583 50.5523C70.1583 50.658 70.1139 50.7486 70.0103 50.7637C69.8771 50.7637 69.7439 50.7637 69.6255 50.7637Z" fill="black"/>
<path d="M76.1679 32.2243C76.2419 32.028 76.316 31.8317 76.3752 31.6354C76.4344 31.4694 76.538 31.4543 76.686 31.4694C76.834 31.4845 76.8488 31.6052 76.8488 31.726C76.8636 32.028 76.8932 32.3148 76.908 32.6017C76.908 32.7074 76.908 32.8131 76.7748 32.8131C76.7304 32.8131 76.6416 32.7376 76.6416 32.6772C76.612 32.5111 76.6268 32.3601 76.612 32.1941C76.612 32.1488 76.5676 32.1186 76.538 32.0733C76.5084 32.1035 76.4492 32.1337 76.4344 32.179C76.39 32.3148 76.3456 32.4658 76.3012 32.6168C76.2716 32.7225 76.1975 32.8433 76.0791 32.798C76.0051 32.7678 75.9311 32.6772 75.8867 32.6017C75.8127 32.4356 75.7683 32.2545 75.7091 32.0733C75.6943 32.0733 75.6795 32.0733 75.6499 32.0733C75.6351 32.1941 75.6055 32.3299 75.5907 32.4507C75.5759 32.5564 75.5759 32.6621 75.5462 32.7527C75.5314 32.7829 75.4574 32.8282 75.413 32.8282C75.3686 32.8131 75.3242 32.7527 75.3242 32.7074C75.339 32.3601 75.3538 32.0129 75.3834 31.6656C75.3834 31.6052 75.487 31.5297 75.5611 31.4996C75.6647 31.4694 75.7979 31.4543 75.8571 31.5901C75.9163 31.7411 75.9607 31.877 76.0051 32.028C76.0347 32.1035 76.0791 32.179 76.1235 32.2696C76.1235 32.2394 76.1383 32.2243 76.1679 32.2243Z" fill="black"/>
<path d="M74.5549 32.2826C74.5549 32.1619 74.5549 32.0562 74.5549 31.9354C74.5697 31.7844 74.4957 31.7089 74.3477 31.7089C74.3033 31.7089 74.2589 31.7089 74.2293 31.6938C74.1849 31.6636 74.1553 31.6183 74.1553 31.573C74.1553 31.5428 74.2145 31.4824 74.2441 31.4824C74.5401 31.4824 74.8214 31.4824 75.1174 31.4824C75.1618 31.4824 75.2062 31.5428 75.2506 31.5881C75.2062 31.6334 75.1766 31.6787 75.1174 31.7089C75.0286 31.7542 74.8954 31.7391 74.851 31.7995C74.8066 31.875 74.8362 31.9958 74.8362 32.1015C74.8362 32.2826 74.8362 32.4487 74.8362 32.6299C74.8362 32.7507 74.777 32.8413 74.6585 32.8262C74.6141 32.8262 74.5697 32.7054 74.5697 32.645C74.5401 32.5091 74.5549 32.3883 74.5549 32.2826Z" fill="black"/>
</svg>
