<svg width="100%" height="100%" viewBox="0 0 80 80" fill="none" xmlns="http://www.w3.org/2000/svg">
<circle cx="40" cy="40" r="39.5" fill="white" stroke="#ECECEC"/>
<path d="M29.3359 40C29.3359 34.1092 34.1102 29.3325 40.0013 29.3325C45.8923 29.3325 50.6692 34.1092 50.6692 40C50.6692 45.8908 45.8923 50.6675 40.0013 50.6675C34.1102 50.6675 29.3359 45.8908 29.3359 40ZM23.569 40C23.569 49.0752 30.9257 56.4316 40.0013 56.4316C49.0768 56.4316 56.4336 49.0752 56.4336 40C56.4336 30.9248 49.0768 23.5684 40.0013 23.5684C30.9257 23.5684 23.569 30.9248 23.569 40ZM53.2439 22.9169C53.2431 25.0376 54.9617 26.7576 57.0825 26.7584C59.2034 26.7592 60.9234 25.0407 60.9242 22.9199C60.9251 20.7992 59.2065 19.0792 57.0856 19.0784H57.0841C54.9642 19.0794 53.2458 20.7971 53.2439 22.9169ZM27.0728 66.0472C23.9528 65.9052 22.257 65.3855 21.13 64.9464C19.6359 64.3648 18.5699 63.6721 17.4491 62.5528C16.3283 61.4336 15.6345 60.3686 15.0554 58.8746C14.6161 57.7482 14.0964 56.052 13.9545 52.9321C13.7994 49.559 13.7684 48.5458 13.7684 40.0003C13.7684 31.4547 13.802 30.4443 13.9545 27.0684C14.0966 23.9485 14.6202 22.2556 15.0554 21.1259C15.637 19.6319 16.3298 18.5659 17.4491 17.4451C18.5684 16.3244 19.6334 15.6306 21.13 15.0515C22.2564 14.6122 23.9528 14.0925 27.0728 13.9507C30.446 13.7956 31.4592 13.7646 40.0013 13.7646C48.5433 13.7646 49.5576 13.7981 52.9336 13.9507C56.0536 14.0928 57.7466 14.6163 58.8764 15.0515C60.3705 15.6306 61.4365 16.3259 62.5573 17.4451C63.6781 18.5644 64.3694 19.6319 64.951 21.1259C65.3903 22.2523 65.91 23.9485 66.0519 27.0684C66.207 30.4443 66.238 31.4547 66.238 40.0003C66.238 48.5458 66.207 49.5562 66.0519 52.9321C65.9098 56.052 65.3875 57.7477 64.951 58.8746C64.3694 60.3686 63.6766 61.4346 62.5573 62.5528C61.438 63.671 60.3705 64.3648 58.8764 64.9464C57.75 65.3857 56.0536 65.9054 52.9336 66.0472C49.5604 66.2024 48.5472 66.2333 40.0013 66.2333C31.4554 66.2333 30.4449 66.2024 27.0728 66.0472ZM26.8078 8.19379C23.4011 8.34893 21.0732 8.88909 19.0402 9.68013C16.9348 10.497 15.1524 11.593 13.3714 13.3711C11.5903 15.1493 10.4971 16.9344 9.6802 19.0397C8.88912 21.0739 8.34894 23.4004 8.1938 26.807C8.0361 30.219 8 31.3098 8 40C8 48.6902 8.0361 49.781 8.1938 53.193C8.34894 56.5998 8.88912 58.9261 9.6802 60.9603C10.4971 63.0643 11.5905 64.8515 13.3714 66.6289C15.1522 68.4063 16.9348 69.5007 19.0402 70.3199C21.077 71.1109 23.4011 71.6511 26.8078 71.8062C30.2217 71.9613 31.3108 72 40.0013 72C48.6918 72 49.7827 71.9639 53.1948 71.8062C56.6018 71.6511 58.9281 71.1109 60.9624 70.3199C63.0665 69.5007 64.8501 68.407 66.6312 66.6289C68.4123 64.8507 69.5031 63.0643 70.3224 60.9603C71.1134 58.9261 71.6562 56.5996 71.8088 53.193C71.9639 49.7784 72 48.6902 72 40C72 31.3098 71.9639 30.219 71.8088 26.807C71.6536 23.4002 71.1134 21.0726 70.3224 19.0397C69.5031 16.9357 68.4095 15.1521 66.6312 13.3711C64.853 11.5901 63.0665 10.497 60.9649 9.68013C58.9281 8.88909 56.6015 8.34637 53.1973 8.19379C49.7852 8.03866 48.6944 8 40.0038 8C31.3133 8 30.2217 8.0361 26.8078 8.19379Z" fill="url(#paint0_radial_8870_32794)"/>
<defs>
<radialGradient id="paint0_radial_8870_32794" cx="0" cy="0" r="1" gradientUnits="userSpaceOnUse" gradientTransform="translate(16.5031 72.3023) scale(83.55)">
<stop offset="0.09" stop-color="#FA8F21"/>
<stop offset="0.78" stop-color="#D82D7E"/>
</radialGradient>
</defs>
</svg>
