<svg width="100%" height="100%" viewBox="0 0 80 80" fill="none" xmlns="http://www.w3.org/2000/svg">
<circle cx="40" cy="40" r="39.5" fill="white" stroke="#ECECEC"/>
<g clip-path="url(#clip0_8870_32797)">
<path fill-rule="evenodd" clip-rule="evenodd" d="M25.4179 6.32495C22.8802 6.32495 20.8254 8.44071 20.8254 11.0634C20.8254 13.6796 22.8802 15.8026 25.4179 15.8026C27.9555 15.8026 30.0102 13.6796 30.0102 11.0634C30.0102 8.44071 27.9575 6.32495 25.4179 6.32495Z" fill="#264970"/>
<path fill-rule="evenodd" clip-rule="evenodd" d="M55.5894 6.32369C53.0505 6.32369 50.9983 8.43945 50.9983 11.0621C50.9983 13.6783 53.0505 15.8014 55.5894 15.8014C58.1211 15.8014 60.1809 13.6783 60.1809 11.0621C60.1809 8.43945 58.1211 6.3272 55.5894 6.32369ZM40.5037 2C37.9661 2 35.9113 4.11528 35.9113 6.73883C35.9113 9.35499 37.9661 11.4785 40.5037 11.4785C43.0413 11.4785 45.0953 9.35499 45.0953 6.73883C45.0953 4.11528 43.0431 2 40.5037 2ZM66.4462 19.5276C66.1904 19.3275 65.8835 19.2234 65.5719 19.2234C65.3962 19.2236 65.222 19.257 65.0587 19.3219C61.9491 20.5477 58.7914 21.4785 55.9094 22.1708C55.3215 22.3122 54.8465 22.7622 54.6498 23.3026C52.5499 29.2325 47.188 34.8792 41.5623 40.7933C41.3365 41.0143 41.0204 41.3059 40.5054 41.3059C39.9905 41.3059 39.6785 41.0235 39.4484 40.7933C33.8236 34.8792 28.4617 29.2521 26.3609 23.3219C26.1639 22.7818 25.689 22.3319 25.1023 22.19C22.2185 21.4976 19.0528 20.5381 15.947 19.3123C15.7808 19.247 15.6059 19.2143 15.4325 19.2143C15.1175 19.2137 14.8115 19.32 14.5647 19.5159C14.1662 19.8292 13.9594 20.3375 14.0066 20.8257C14.4828 25.7569 16.373 30.5776 19.7839 35.6293C22.9901 40.3787 27.1722 44.775 31.2155 49.026C38.6655 56.8601 45.7031 64.2592 46.3205 72.8391C46.3764 73.6128 47.0019 74.2129 47.7561 74.2129H56.5087C56.9029 74.2129 57.2795 74.0458 57.5518 73.7512C57.8241 73.4567 57.9662 73.0619 57.9464 72.6555C57.6712 66.9193 55.5772 61.1747 51.5449 55.0955C50.6999 53.8211 49.7949 52.5809 48.8486 51.3672C48.464 50.8728 48.6248 50.2589 48.9191 49.9491L49.7956 49.026C53.8395 44.7746 58.0207 40.3787 61.2277 35.6293C64.6383 30.5772 66.5276 25.7848 67.0042 20.8544C67.0518 20.3588 66.8336 19.8332 66.4462 19.5276ZM31.113 55.7C30.9061 55.4768 30.6018 55.2487 30.091 55.2487C29.4377 55.2487 29.0501 55.7144 28.9036 55.945C25.2222 61.7208 23.3206 67.172 23.0577 72.6503C23.0387 73.0541 23.183 73.4552 23.454 73.7503C23.7249 74.0454 24.1079 74.2129 24.5013 74.2129H33.239C33.9909 74.2129 34.6239 73.6063 34.6793 72.8334C34.8695 70.1934 35.6669 67.5467 37.1185 64.7656C37.6216 63.8035 37.2308 62.8997 36.9413 62.5133C35.5011 60.5824 33.7371 58.5228 31.113 55.7Z" fill="#264970"/>
<path fill-rule="evenodd" clip-rule="evenodd" d="M40.5131 23.9485L45.4061 23.7788C46.0832 23.7788 46.7301 24.3505 46.7301 25.1513C46.7301 25.385 46.6767 25.5521 46.6235 25.6996C46.2597 26.7022 44.6016 30.3096 41.5148 33.4041C41.1687 33.7512 40.7762 33.8161 40.506 33.8161H40.5026C40.2329 33.8161 39.8408 33.7512 39.4947 33.4041C36.4079 30.3096 34.7495 26.7022 34.3864 25.6996C34.3329 25.5521 34.2793 25.385 34.2793 25.1513C34.2793 24.3505 34.9271 23.7788 35.6042 23.7788L40.4951 23.9485H40.5131Z" fill="#264970"/>
</g>
<defs>
<clipPath id="clip0_8870_32797">
<rect width="53" height="72" fill="white" transform="translate(14 2)"/>
</clipPath>
</defs>
</svg>
