<svg width="100%" height="100%" viewBox="0 0 80 80" fill="none" xmlns="http://www.w3.org/2000/svg">
<circle cx="40" cy="40" r="39.5" fill="white" stroke="#ECECEC"/>
<path d="M62.2405 10.8511C62.2736 11.6183 62.0803 12.3781 61.6851 13.0344C61.29 13.6908 60.7107 14.2142 60.0205 14.5384C59.3303 14.8626 58.5603 14.9731 57.8078 14.8559C57.0554 14.7386 56.3543 14.3989 55.7933 13.8798C55.2323 13.3606 54.8366 12.6853 54.6563 11.9393C54.4759 11.1933 54.519 10.4101 54.7801 9.6888C55.0412 8.96749 55.5086 8.34051 56.1231 7.88715C56.7376 7.4338 57.4717 7.17445 58.2324 7.14192C59.2514 7.09834 60.246 7.46451 60.9975 8.16001C61.7491 8.8555 62.1961 9.82342 62.2405 10.8511Z" fill="#767677"/>
<path d="M39.7998 56.4895C29.5519 56.4895 20.602 52.7343 15.9563 47.1763C17.6865 52.1636 20.9112 56.4852 25.184 59.5428C29.4569 62.6004 34.5664 64.2429 39.8055 64.2429C45.0447 64.2429 50.1542 62.6004 54.4271 59.5428C58.6998 56.4852 61.9245 52.1636 63.6548 47.1763C58.9976 52.7343 50.0478 56.4895 39.7998 56.4895Z" fill="#F37726"/>
<path d="M39.796 20.3355C50.0441 20.3355 58.9939 24.0906 63.6396 29.6487C61.9094 24.6614 58.6847 20.3398 54.412 17.2822C50.1391 14.2245 45.0296 12.582 39.7904 12.582C34.5512 12.582 29.4417 14.2245 25.1689 17.2822C20.8961 20.3398 17.6714 24.6614 15.9412 29.6487C20.5983 24.1021 29.5481 20.3355 39.796 20.3355Z" fill="#F37726"/>
<path d="M25.7327 67.2983C25.7748 68.2655 25.5313 69.2236 25.0331 70.0512C24.5349 70.8787 23.8044 71.5386 22.9341 71.9473C22.0639 72.3559 21.0929 72.495 20.1443 72.3468C19.1956 72.1986 18.3119 71.7699 17.605 71.1149C16.898 70.4598 16.3997 69.608 16.1731 68.6672C15.9465 67.7264 16.0018 66.739 16.3319 65.8299C16.6621 64.9208 17.2523 64.1309 18.0278 63.5603C18.8033 62.9897 19.7293 62.664 20.6885 62.6245C21.9715 62.5715 23.2229 63.0338 24.1684 63.9099C25.114 64.7861 25.6765 66.0045 25.7327 67.2983Z" fill="#989798"/>
<path d="M17.1223 19.079C16.5596 19.1035 16.0023 18.9591 15.5209 18.664C15.0396 18.369 14.6559 17.9365 14.4183 17.4214C14.1808 16.9063 14.1001 16.3317 14.1865 15.7703C14.2729 15.209 14.5225 14.6861 14.9037 14.2679C15.2849 13.8496 15.7806 13.5549 16.328 13.4209C16.8754 13.2869 17.4499 13.3196 17.9788 13.5151C18.5077 13.7105 18.9672 14.0598 19.2992 14.5187C19.6312 14.9777 19.8207 15.5256 19.8437 16.0932C19.8746 16.8529 19.6054 17.5939 19.0952 18.1536C18.585 18.7134 17.8755 19.0462 17.1223 19.079Z" fill="#6F7070"/>
</svg>
