<svg width="100%" height="100%" viewBox="0 0 80 80" fill="none" xmlns="http://www.w3.org/2000/svg">
<circle cx="40" cy="40" r="39.5" fill="white" stroke="#ECECEC"/>
<path d="M31.4731 15.9079L32.3912 38.7694L48.916 17.6992C49.1623 17.3857 49.543 17.1842 49.946 17.117C50.3491 17.0722 50.7521 17.1842 51.0656 17.4305L61.3656 25.6929L58.0069 11.0042L31.4731 15.9079Z" fill="#5172B8"/>
<path d="M32.9727 42.9827H47.617L38.6154 35.7727L32.9727 42.9827Z" fill="#253D98"/>
<path d="M50.3493 20.7915L40.4971 33.3754L50.9986 41.7946L60.9404 29.3002L50.3493 20.7915Z" fill="#3357A7"/>
<path d="M28.7191 13.7119L37.3846 2.85205L23.4124 9.56946L19.9641 24.6836L28.7191 13.7119Z" fill="#C2DBF2"/>
<path d="M20.1429 29.3214L29.4354 40.9647L28.5397 18.7976L20.1429 29.3214Z" fill="#799BD0"/>
<path d="M55.2968 8.42632L41.9515 2L33.6219 12.4344L55.2968 8.42632Z" fill="#A6C1E5"/>
<path d="M18.4637 52.5222H16.0678L11.9926 57.1796V52.5222H9.99976V63.2701H11.9926V59.8666L12.933 58.8142L16.3365 63.2701H18.7548L14.2317 57.314L18.4637 52.5222Z" fill="#5172B8"/>
<path d="M23.7038 60.764C23.7038 61.0551 23.5919 61.2342 23.3456 61.3909C23.0545 61.57 22.7186 61.6596 22.2932 61.6596C21.8901 61.6596 21.5542 61.57 21.2632 61.3909C21.0169 61.2342 20.9049 61.0327 20.9049 60.764V55.3903H18.9792V60.7192C18.9792 61.5924 19.3375 62.2865 20.054 62.7791C20.7258 63.2493 21.4871 63.4732 22.3156 63.4732C23.144 63.4732 23.9053 63.2269 24.5771 62.7567C25.2936 62.2641 25.6519 61.57 25.6519 60.6968V55.3679H23.7262V60.764H23.7038Z" fill="#5172B8"/>
<path d="M33.2643 56.484C33.018 56.0809 32.6374 55.7675 32.1895 55.5212C31.7417 55.2749 31.2267 55.1629 30.6221 55.1629C30.0848 55.1629 29.5026 55.2525 28.898 55.4316V51.8042H26.9948V63.2686H29.5698C31.07 63.2686 32.1895 62.9103 32.9061 62.1938C33.6226 61.4773 34.0032 60.4249 34.0032 59.0814C34.0032 58.6336 33.9361 58.1633 33.8241 57.7379C33.6898 57.2901 33.5106 56.8646 33.2643 56.484ZM29.5698 61.4549H28.898V57.2229C29.3906 57.0662 29.9504 56.9766 30.6221 56.9766C31.1148 56.9766 31.4506 57.1557 31.6745 57.514C31.9208 57.9394 32.0552 58.432 32.0552 59.0142C32.0552 59.8875 31.8761 60.5144 31.4954 60.8951C31.1371 61.2757 30.4878 61.4549 29.5698 61.4549Z" fill="#5172B8"/>
<path d="M41.8393 59.7589C41.8393 57.6765 41.2571 55.1687 38.4807 55.1687C37.3836 55.1687 36.4656 55.5494 35.7939 56.3107C35.1222 57.0496 34.7864 58.0572 34.7864 59.3111C34.7864 59.8709 34.8759 60.4083 35.0327 60.8785C35.1894 61.3711 35.4357 61.8189 35.7715 62.1996C36.1074 62.6026 36.5552 62.9161 37.0926 63.14C37.6299 63.3639 38.2568 63.4759 38.9509 63.4759C39.7346 63.4759 40.5406 63.3192 41.2795 63.0281L41.5034 62.9385V61.0128L40.9884 61.2368C40.3839 61.5055 39.645 61.6622 38.7718 61.6622C38.0777 61.6622 37.6075 61.4831 37.2717 61.1024C37.0254 60.7889 36.8463 60.4755 36.7567 60.1172H41.8169V59.7589H41.8393ZM38.5031 56.9824C38.9286 56.9824 39.242 57.1391 39.4659 57.4526C39.6674 57.7213 39.8018 58.0796 39.8689 58.4826H36.8463C36.9358 58.0796 37.115 57.7437 37.3612 57.475C37.6747 57.1391 38.0553 56.9824 38.5031 56.9824Z" fill="#5172B8"/>
<path d="M44.3696 52.4347C43.9665 52.8377 43.7426 53.3751 43.7426 54.0469V55.3904H42.623V57.2042H43.7426V63.2724H45.6683V57.2042H47.5715V55.3904H45.6683V54.6963C45.6683 54.0693 45.7802 53.8678 45.825 53.8006C45.8474 53.7558 46.0041 53.6438 46.5191 53.6438H47.997V51.8301H45.8698C45.2876 51.8301 44.7726 52.0316 44.3696 52.4347Z" fill="#253D98"/>
<path d="M50.819 51.8042H48.8933V63.2462H50.819V51.8042Z" fill="#253D98"/>
<path d="M56.2823 55.1819C55.0731 55.1819 54.043 55.5849 53.2593 56.391C52.4756 57.1971 52.0725 58.1823 52.0725 59.3467C52.0725 60.511 52.4756 61.4962 53.2369 62.3023C54.0207 63.1084 55.0283 63.5115 56.2599 63.5115C57.4691 63.5115 58.4767 63.1084 59.2605 62.3023C60.0442 61.4962 60.4473 60.511 60.4473 59.3691C60.4473 58.2271 60.0442 57.2195 59.2605 56.4358C58.4991 55.5849 57.4915 55.1819 56.2823 55.1819ZM56.2823 61.6754C55.5881 61.6754 55.0507 61.4515 54.6476 61.0036C54.2222 60.5558 54.0207 59.996 54.0207 59.3243C54.0207 58.6525 54.2222 58.0928 54.6476 57.6449C55.0507 57.1971 55.5881 56.9732 56.2823 56.9732C56.9764 56.9732 57.4915 57.1971 57.9169 57.6449C58.3424 58.0928 58.5439 58.6525 58.5439 59.3243C58.5439 59.996 58.3424 60.5558 57.9169 61.0036C57.5139 61.4515 56.9764 61.6754 56.2823 61.6754Z" fill="#253D98"/>
<path d="M69.9624 55.3894L68.5741 60.1364L67.2082 55.3894H65.4616L64.0733 60.1364L62.7074 55.3894H60.6697L63.1328 63.2712H65.1257L66.3797 58.7481L67.6336 63.2712H69.5369L72.0001 55.3894H69.9624Z" fill="#253D98"/>
</svg>
