<svg width="100%" height="100%" viewBox="0 0 80 80" fill="none" xmlns="http://www.w3.org/2000/svg">
<circle cx="40" cy="40" r="39.5" fill="white" stroke="#ECECEC"/>
<path d="M71.3514 18.339C70.9169 16.9484 69.874 15.8186 68.5703 15.1233L42.063 2.43455C41.3677 2.08691 40.5855 2 39.8902 2C39.195 2 38.4128 2 37.7175 2.17382L11.2102 14.9495C9.90652 15.5579 8.95052 16.6877 8.60288 18.1652L2.08468 46.7584C1.82395 48.2359 2.17159 49.7133 3.04068 50.9301L21.3786 73.6134C22.4215 74.6564 23.8989 75.3516 25.3764 75.4385H54.5779C56.1423 75.6124 57.6198 74.9171 58.5758 73.6134L76.9136 50.9301C77.7827 49.7133 78.1304 48.2359 77.9565 46.7584L71.3514 18.339Z" fill="#326DE6"/>
<path d="M67.2697 45.6261C67.1828 45.6261 67.0959 45.6261 67.0959 45.5392C67.0959 45.4523 66.922 45.4523 66.7482 45.4523C66.4006 45.3654 66.0529 45.3654 65.7053 45.3654C65.5315 45.3654 65.3577 45.3654 65.1838 45.2785H65.0969C64.1409 45.1916 63.098 45.0178 62.142 44.7571C61.8813 44.6701 61.6205 44.4094 61.5336 44.1487C61.6205 44.1487 61.5336 44.1487 61.5336 44.1487L60.8384 43.9749C61.186 41.4545 61.0122 38.8472 60.4907 36.3268C59.8824 33.8065 58.8394 31.373 57.4489 29.2003L57.9703 28.6788V28.5919C57.9703 28.3312 58.0572 27.9835 58.2311 27.8097C59.0133 27.1144 59.7954 26.593 60.6645 26.0715C60.8384 25.9846 61.0122 25.8977 61.186 25.8108C61.5336 25.637 61.7944 25.4632 62.142 25.2893C62.2289 25.2024 62.3158 25.2024 62.4027 25.1155C62.4896 25.0286 62.4027 25.0286 62.4027 24.9417C63.1849 24.3333 63.3587 23.2904 62.7504 22.5082C62.4896 22.1606 61.9682 21.8999 61.5336 21.8999C61.0991 21.8999 60.6645 22.0737 60.3169 22.3344L60.23 22.4213C60.1431 22.5082 60.0562 22.5952 59.9693 22.5952C59.7085 22.8559 59.4478 23.1166 59.274 23.3773C59.1871 23.5512 59.0133 23.6381 58.9263 23.725C58.318 24.4202 57.5358 25.1155 56.7536 25.637C56.5798 25.7239 56.406 25.8108 56.2321 25.8108C56.1452 25.8108 55.9714 25.8108 55.8845 25.7239H55.7976L55.1023 26.1584C54.407 25.4632 53.6249 24.7679 52.9296 24.0726C49.7139 21.5522 45.7161 19.9879 41.6313 19.5533L41.5444 18.858V18.945C41.2837 18.7711 41.1968 18.5104 41.1099 18.2497C41.1099 17.2937 41.1099 16.3377 41.2837 15.2948V15.2078C41.2837 15.034 41.3706 14.8602 41.3706 14.6864C41.4575 14.3388 41.4575 13.9911 41.5444 13.6435V13.122C41.6313 12.2529 40.936 11.3838 40.0669 11.2969C39.5455 11.21 39.024 11.4707 38.5895 11.9053C38.2418 12.2529 38.068 12.6875 38.068 13.122V13.5566C38.068 13.9042 38.1549 14.2518 38.2418 14.5995C38.3288 14.7733 38.3288 14.9471 38.3288 15.1209V15.2078C38.5026 16.1639 38.5026 17.1199 38.5026 18.1628C38.4157 18.4235 38.3288 18.6842 38.068 18.858V19.0319L37.9811 19.7271C37.0251 19.814 36.0691 19.9879 35.0262 20.1617C30.9414 21.0308 27.2043 23.2035 24.3363 26.2453L23.8148 25.8977H23.7279C23.641 25.8977 23.5541 25.9846 23.3803 25.9846C23.2065 25.9846 23.0327 25.8977 22.8588 25.8108C22.0766 25.2024 21.2945 24.5072 20.6861 23.8119C20.5992 23.6381 20.4254 23.5512 20.3385 23.4642C20.0777 23.2035 19.9039 22.9428 19.6432 22.6821C19.5563 22.5951 19.4694 22.5952 19.3825 22.5082C19.2955 22.4213 19.2955 22.4213 19.2955 22.4213C18.9479 22.1606 18.5134 21.9868 18.0788 21.9868C17.5573 21.9868 17.1228 22.1606 16.8621 22.5952C16.3406 23.3773 16.5144 24.4202 17.2097 25.0286C17.2966 25.0286 17.2966 25.1155 17.2966 25.1155C17.2966 25.1155 17.4704 25.2893 17.5573 25.2893C17.8181 25.4632 18.1657 25.637 18.5134 25.8108C18.6872 25.8977 18.861 25.9846 19.0348 26.0715C19.9039 26.593 20.773 27.1144 21.4683 27.8097C21.6421 27.9835 21.8159 28.3312 21.729 28.5919V28.505L22.2505 29.0264C22.1636 29.2003 22.0766 29.2872 21.9897 29.461C19.2955 33.7196 18.1657 38.7603 18.9479 43.7141L18.2526 43.888C18.2526 43.9749 18.1657 43.9749 18.1657 43.9749C18.0788 44.2356 17.8181 44.4094 17.5573 44.5832C16.6013 44.844 15.6453 45.0178 14.6024 45.1047C14.4286 45.1047 14.2548 45.1047 14.081 45.1916C13.7333 45.1916 13.3857 45.2785 13.038 45.2785C12.9511 45.2785 12.8642 45.3654 12.6904 45.3654C12.6035 45.3654 12.6035 45.3654 12.5166 45.4523C11.5606 45.6261 10.9522 46.4952 11.126 47.4512C11.2999 48.2334 12.082 48.7549 12.8642 48.668C13.038 48.668 13.125 48.668 13.2988 48.5811C13.3857 48.5811 13.3857 48.5811 13.3857 48.4942C13.3857 48.4072 13.6464 48.4942 13.7333 48.4942C14.081 48.4072 14.4286 48.2334 14.6893 48.1465C14.8631 48.0596 15.037 47.9727 15.2108 47.9727H15.2977C16.2537 47.6251 17.1228 47.3643 18.1657 47.1905H18.2526C18.5134 47.1905 18.7741 47.2774 18.9479 47.4512C19.0348 47.4512 19.0348 47.5382 19.0348 47.5382L19.817 47.4512C21.1206 51.4491 23.5541 55.0124 26.9436 57.6196C27.7258 58.228 28.4211 58.7495 29.2902 59.184L28.8556 59.7924C28.8556 59.8793 28.9425 59.8793 28.9425 59.8793C29.1163 60.14 29.1163 60.4877 29.0294 60.7484C28.6818 61.6175 28.1603 62.4866 27.6389 63.2688V63.3557C27.552 63.5295 27.465 63.6164 27.2912 63.7902C27.1174 63.964 26.9436 64.3117 26.6829 64.6593C26.596 64.7462 26.596 64.8331 26.509 64.92C26.509 64.92 26.509 65.0069 26.4221 65.0069C25.9876 65.876 26.3352 66.919 27.1174 67.3535C27.2912 67.4404 27.552 67.5273 27.7258 67.5273C28.4211 67.5273 29.0294 67.0928 29.3771 66.4844C29.3771 66.4844 29.3771 66.3975 29.464 66.3975C29.464 66.3106 29.5509 66.2237 29.6378 66.1368C29.7247 65.7891 29.8985 65.5284 29.9854 65.1808L30.1592 64.6593C30.42 63.7033 30.8545 62.8342 31.2891 61.9651C31.4629 61.7044 31.7236 61.5306 31.9844 61.4437C32.0713 61.4437 32.0713 61.4437 32.0713 61.3568L32.4189 60.6615C34.8524 61.6175 37.3728 62.052 39.98 62.052C41.5444 62.052 43.1088 61.8782 44.6732 61.4437C45.6292 61.2698 46.5852 60.9222 47.4543 60.6615L47.8019 61.2698C47.8888 61.2698 47.8888 61.2698 47.8888 61.3568C48.1495 61.4437 48.4103 61.6175 48.5841 61.8782C49.0186 62.7473 49.4532 63.6164 49.7139 64.5724V64.6593L49.8877 65.1808C49.9747 65.5284 50.0616 65.876 50.2354 66.1368C50.3223 66.2237 50.3223 66.3106 50.4092 66.3975C50.4092 66.3975 50.4092 66.4844 50.4961 66.4844C50.8437 67.0928 51.4521 67.5273 52.1474 67.5273C52.4081 67.5273 52.5819 67.4404 52.8427 67.3535C53.1903 67.1797 53.5379 66.832 53.6249 66.3975C53.7118 65.9629 53.7118 65.5284 53.5379 65.0939C53.5379 65.0069 53.451 65.0069 53.451 65.0069C53.451 64.92 53.3641 64.8331 53.2772 64.7462C53.1034 64.3986 52.9296 64.1379 52.6688 63.8771C52.5819 63.7033 52.495 63.6164 52.3212 63.4426V63.2688C51.7128 62.4866 51.2783 61.6175 50.9307 60.7484C50.8437 60.4877 50.8437 60.14 51.0176 59.8793C51.0176 59.7924 51.1045 59.7924 51.1045 59.7924L50.8438 59.0971C55.2761 56.4029 58.6656 52.2313 60.23 47.2774L60.9253 47.3643C61.0122 47.3643 61.0122 47.2774 61.0122 47.2774C61.186 47.1036 61.4467 47.0167 61.7075 47.0167H61.7944C62.7504 47.1905 63.7064 47.4512 64.5755 47.7989H64.6624C64.8362 47.8858 65.01 47.9727 65.1838 47.9727C65.5315 48.1465 65.7922 48.3203 66.1399 48.4072C66.2268 48.4072 66.3137 48.4942 66.4875 48.4942C66.5744 48.4942 66.5744 48.4942 66.6613 48.5811C66.8351 48.668 66.922 48.668 67.0959 48.668C67.878 48.668 68.5733 48.1465 68.8341 47.4512C68.7471 46.4952 68.0519 45.8 67.2697 45.6261ZM42.1528 42.932L39.8062 44.0618L37.4597 42.932L36.8513 40.4116L38.5026 38.3258H41.1099L42.7611 40.4116L42.1528 42.932ZM56.3191 37.2828C56.7536 39.1079 56.8405 40.933 56.6667 42.7581L48.4103 40.4116C47.6281 40.2378 47.1935 39.4556 47.3674 38.6734C47.4543 38.4127 47.5412 38.2388 47.715 38.065L54.2332 32.1552C55.1892 33.7196 55.8845 35.4577 56.3191 37.2828ZM51.6259 28.9395L44.4993 33.9803C43.891 34.3279 43.0219 34.241 42.5873 33.6326C42.4135 33.4588 42.3266 33.285 42.3266 33.0243L41.8051 24.2464C45.6292 24.681 49.0186 26.3323 51.6259 28.9395ZM35.8953 24.5072L37.6335 24.1595L37.1989 32.8505C37.1989 33.6326 36.5037 34.241 35.7215 34.241C35.4607 34.241 35.2869 34.1541 35.0262 34.0672L27.8127 28.9395C30.0723 26.7668 32.8534 25.2024 35.8953 24.5072ZM25.2923 32.1552L31.7236 37.8912C32.332 38.4127 32.4189 39.2818 31.8974 39.8901C31.7236 40.1509 31.5498 40.2378 31.2022 40.3247L22.7719 42.7581C22.5112 39.1079 23.3803 35.3708 25.2923 32.1552ZM23.8148 46.8429L32.4189 45.3654C33.1142 45.3654 33.8095 45.8 33.8964 46.4952C33.9833 46.756 33.9833 47.1036 33.8095 47.3643L30.5069 55.36C27.465 53.3611 25.0316 50.3193 23.8148 46.8429ZM43.5433 57.6196C42.3266 57.8804 41.1099 58.0542 39.8062 58.0542C37.9811 58.0542 36.0691 57.7066 34.3309 57.1851L38.5895 49.4502C39.024 48.9287 39.7193 48.7549 40.3277 49.1025C40.5884 49.2763 40.7622 49.4502 41.023 49.7109L45.1946 57.272C44.6732 57.3589 44.1517 57.4458 43.5433 57.6196ZM54.1463 50.0585C52.8427 52.1444 51.0176 53.9694 48.9317 55.2731L45.5423 47.1036C45.3684 46.4083 45.7161 45.7131 46.3244 45.4523C46.5852 45.3654 46.8459 45.2785 47.1066 45.2785L55.7976 46.756C55.363 47.9727 54.8416 49.1025 54.1463 50.0585Z" fill="white"/>
</svg>
