<svg width="100%" height="100%" viewBox="0 0 80 80" fill="none" xmlns="http://www.w3.org/2000/svg">
<circle cx="40" cy="40" r="39.5" fill="white" stroke="#ECECEC"/>
<g clip-path="url(#clip0_8870_32802)">
<path d="M40.0002 -0.00488281C17.9087 -0.00488281 0.000244141 17.9035 0.000244141 39.995C0.000244141 62.0865 17.9087 79.995 40.0002 79.995C62.0917 79.995 80.0002 62.0865 80.0002 39.995C80.0001 17.9035 62.0913 -0.00488281 40.0002 -0.00488281ZM29.3281 59.3332H20.5457V30.9598H29.3281V59.3332ZM24.8951 27.2441C22.0268 27.2441 19.7016 24.8999 19.7016 22.0087C19.7016 19.1172 22.0272 16.7732 24.8951 16.7732C27.763 16.7732 30.0882 19.1172 30.0882 22.0087C30.0883 24.9001 27.7631 27.2441 24.8951 27.2441ZM62.2401 59.3332H53.5003V44.4395C53.5003 40.3546 51.9486 38.0744 48.7186 38.0744C45.2032 38.0744 43.3668 40.4492 43.3668 44.4395V59.3332H34.9434V30.9598H43.3668V34.7812C43.3668 34.7812 45.9005 30.0943 51.9168 30.0943C57.9333 30.0943 62.2403 33.7679 62.2403 41.3675L62.2401 59.3332Z" fill="url(#paint0_linear_8870_32802)"/>
<circle cx="40" cy="40" r="39.5" stroke="#ECECEC"/>
</g>
<defs>
<linearGradient id="paint0_linear_8870_32802" x1="11.7159" y1="11.7108" x2="68.2844" y2="68.2793" gradientUnits="userSpaceOnUse">
<stop stop-color="#2489BE"/>
<stop offset="1" stop-color="#0575B3"/>
</linearGradient>
<clipPath id="clip0_8870_32802">
<rect width="80" height="80" fill="white"/>
</clipPath>
</defs>
</svg>
