<svg width="100%" height="100%" viewBox="0 0 80 80" fill="none" xmlns="http://www.w3.org/2000/svg">
<circle cx="40" cy="40" r="39.5" fill="white" stroke="#ECECEC"/>
<path d="M30.7482 53.7559L17.0322 72.7938C23.005 76.9971 30.3053 79.4297 38.0611 79.6376V56.1897C35.407 55.9682 32.9595 55.3187 30.7607 53.7559H30.7482Z" fill="#48555C"/>
<path d="M38.0474 23.6693V0C30.3053 0.2215 22.9913 2.65412 17.0186 6.84375L30.7358 25.8818C32.9482 24.554 35.3809 23.8908 38.0362 23.6693H38.0474Z" fill="#B2AD4B"/>
<path d="M61.4966 6.84375C55.5239 2.65412 48.2099 0.2215 40.4951 0V23.4479C43.1492 23.6693 45.5967 24.5678 47.7955 25.8818L61.4966 6.84375Z" fill="#E4B33A"/>
<path d="M24.3186 46.2319L2.19727 53.3246C4.85139 60.6249 9.28989 66.8178 15.2625 71.2425L28.9774 52.2047C26.9865 50.6567 25.4385 48.6658 24.3324 46.2319H24.3186Z" fill="#4E5C5A"/>
<path d="M28.7571 27.4293L15.2625 8.40625C9.28989 13.0513 4.86502 19.2318 2.19727 26.5459L24.3186 33.845C25.1896 31.1909 26.9728 29.2 28.7434 27.4293H28.7571Z" fill="#9F9540"/>
<path d="M23.2264 39.8171C23.2264 38.4894 23.4479 37.1629 23.6693 36.0568L1.54787 28.7427C0.428 32.2964 0 36.0568 0 39.8171C0 43.7988 0.443 47.3377 1.54787 51.0992L23.6693 43.7988C23.2264 42.4712 23.2264 41.3649 23.2264 39.8171Z" fill="#6A7B54"/>
<path d="M49.7725 52.4271L63.4872 71.4651C69.46 66.8201 73.8847 60.6396 76.5526 53.3256L54.4312 46.0127C53.3113 48.4466 51.7771 50.6577 49.7861 52.4283L49.7725 52.4271Z" fill="#D55641"/>
<path d="M40.7029 56.1902V79.6381C48.445 79.4166 55.759 76.984 61.7318 72.7943L48.002 53.7563C45.7897 55.084 43.357 55.9687 40.7017 56.1902H40.7029Z" fill="#993428"/>
<path d="M77.2024 28.7427L55.0811 36.043C55.3026 37.3707 55.5241 38.6972 55.5241 40.0248C55.5241 41.3524 55.3026 42.6789 55.0811 43.7988L77.2024 51.0992C78.3223 47.5604 78.7503 43.7988 78.7503 40.0248C78.7503 36.043 78.3074 32.2828 77.2024 28.7427Z" fill="#E8703E"/>
<path d="M54.4312 33.6228L76.5526 26.3224C73.8985 19.022 69.46 12.829 63.4872 8.4043L49.7725 27.4423C51.7633 29.2117 53.3113 31.2025 54.4175 33.6364L54.4312 33.6228Z" fill="#F2A838"/>
</svg>
