<svg width="100%" height="100%" viewBox="0 0 80 80" fill="none" xmlns="http://www.w3.org/2000/svg">
<circle cx="40" cy="40" r="39.5" fill="white" stroke="#ECECEC"/>
<path d="M22.9118 41.5386C22.1118 41.5751 21.3374 41.5898 20.6361 41.5898C18.9485 41.5898 17.3485 41.4656 17.3485 38.4958V27.5264H18.448V37.6337C18.448 39.8474 18.7475 40.2894 20.5849 40.2894H22.8972V41.5386H22.9118ZM23.814 28.6149C23.814 27.8222 23.9528 27.541 24.4387 27.541C24.9245 27.541 25.0633 27.8222 25.0633 28.6149C25.0633 29.4076 24.9391 29.6706 24.4387 29.6706C23.9382 29.6706 23.814 29.4076 23.814 28.6149ZM23.9273 30.8322H24.9537V41.5569H23.9163L23.9273 30.8322ZM30.2759 40.6583C30.0896 41.3633 29.8521 41.6957 29.4649 41.6957C29.0631 41.6957 28.8147 41.3633 28.6284 40.6583L25.94 30.8322H27.0541L29.4905 39.957L31.9525 30.8322H33.0155L30.2759 40.6583ZM33.2127 36.1945C33.2127 32.3079 34.0383 30.6934 36.5514 30.6934C39.1376 30.6934 39.839 32.5928 39.839 35.5297C39.839 35.8292 39.828 36.2347 39.8134 36.5489C38.9367 36.7607 37.1249 37.0055 36.0766 37.0603L34.2757 37.1662C34.3999 39.3652 34.8748 40.4903 36.7998 40.4903C37.7861 40.4903 38.7139 40.3332 39.4883 40.1907L39.576 41.3669C38.6993 41.5423 37.8263 41.7176 36.3871 41.7176C33.8776 41.6957 33.2127 39.3761 33.2127 36.1945ZM36.2519 35.895C36.9277 35.8585 38.0637 35.7197 38.7651 35.5955C38.776 35.3836 38.7906 35.0695 38.7906 34.8576C38.7906 33.0458 38.2281 31.8878 36.5514 31.8878C34.6264 31.8878 34.2246 33.2577 34.2246 36.0375L36.2519 35.895Z" fill="#809FB4"/>
<path d="M43.426 41.558H41.4023V27.7759C42.2644 27.5457 43.4516 27.3887 44.6388 27.3887C46.8378 27.3887 48.6386 28.0023 48.6386 31.8013C48.6386 34.2816 47.9007 35.4395 46.7245 35.9509L49.0112 41.558H46.6734L44.6351 36.2833C44.2223 36.2833 43.7584 36.2468 43.4114 36.2322L43.426 41.558ZM43.426 33.9455C43.8388 34.0149 44.2516 34.0149 44.6497 34.0149C45.899 34.0149 46.6368 33.5583 46.6368 31.783C46.6368 30.2342 46.1364 29.6206 44.6862 29.6206C44.2844 29.6206 43.8242 29.6571 43.4114 29.7447L43.426 33.9455ZM49.6139 38.2704C49.6139 36.371 50.202 35.1948 51.7252 34.8587C52.5252 34.6834 53.3252 34.6286 54.1617 34.5957C54.1617 33.3647 53.7489 32.8022 52.7626 32.8022C51.8385 32.8022 50.8376 32.9446 50.0742 33.0834L49.9244 31.0963C50.7244 30.9027 51.7983 30.6908 52.9124 30.6908C54.611 30.6908 56.0246 31.3593 56.0246 34.1354V38.654C56.0246 39.3919 55.9991 40.0092 55.9625 40.6923C55.0858 41.4119 53.9242 41.6932 52.5617 41.6932C50.4504 41.6968 49.6139 40.5535 49.6139 38.2704ZM54.1653 36.3527C53.5918 36.3892 52.9416 36.4221 52.401 36.5975C51.7252 36.8276 51.4768 37.1235 51.4768 38.2485C51.4768 39.3736 51.9408 39.6731 52.7626 39.6731C53.1864 39.6731 53.6868 39.6366 54.0996 39.3736C54.1251 38.9353 54.1507 38.4239 54.1507 37.9307L54.1653 36.3527ZM59.1405 41.558H57.252V33.7154C57.252 32.9775 57.2775 32.3602 57.3141 31.6771C58.1652 31.0452 59.3524 30.6762 60.5395 30.6762C61.376 30.6762 61.9641 30.9063 62.3769 31.2899C63.0527 30.921 63.9001 30.6762 64.7147 30.6762C67.1511 30.6762 67.5164 32.5209 67.5164 34.7199V41.5397H65.6279V34.9464C65.6279 33.5583 65.3905 32.8022 64.3275 32.8022C64.028 32.8022 63.5896 32.9081 63.239 33.1528C63.3157 33.6277 63.3376 34.1537 63.3376 34.6834V41.5032H61.4491V34.9098C61.4491 33.54 61.2226 32.7656 60.1742 32.7656C59.8491 32.7656 59.4364 32.8898 59.1989 33.0469C59.1734 33.4852 59.1478 33.9966 59.1478 34.4898L59.1405 41.558ZM70.7747 46.5843H68.8862V33.7154C68.8862 32.9775 68.9118 32.3602 68.9483 31.6771C69.8104 30.9721 70.9866 30.6762 72.024 30.6762C74.5627 30.6762 75.6367 31.9766 75.6367 36.1774C75.6367 40.327 74.5993 41.6785 72.2505 41.6785C71.7866 41.6785 71.2496 41.5909 70.8003 41.4484L70.7747 46.5843ZM71.8377 39.6037C73.6641 39.6037 73.7007 38.1609 73.7007 36.2103C73.7007 34.4715 73.624 32.7985 72.0021 32.7985C71.5784 32.7985 71.1035 32.9044 70.8149 33.0798C70.7894 33.5181 70.7638 34.0295 70.7638 34.5226V39.3736C71.0889 39.4978 71.5126 39.6037 71.8377 39.6037Z" fill="#809FB4"/>
<path d="M5.73603 41.8726L2.63843 46.4605H6.64923L5.73603 41.8726Z" fill="#809FB4"/>
<path d="M6.34998 41.7354L7.28875 46.4621H15.5624V44.8293L6.34998 41.7354Z" fill="#3B7E3E"/>
<path d="M6.72559 40.9612L15.5508 43.9492V36.6362L6.72559 40.9612Z" fill="#73BF6A"/>
<path d="M7.06213 39.8851L15.5513 35.7209V27.334L7.06213 39.8851Z" fill="#A2D397"/>
<path d="M77.6383 31.8907C77.6383 32.0477 77.6127 32.1902 77.5762 32.3144C77.5397 32.4386 77.4885 32.5591 77.4155 32.6322C77.3388 32.7199 77.2767 32.7893 77.189 32.8441C77.1013 32.8952 77.0137 32.9135 76.915 32.9135C76.8018 32.9135 76.7141 32.8769 76.6265 32.8258C76.5388 32.7747 76.4511 32.7016 76.4 32.5957C76.3379 32.4897 76.2868 32.4021 76.2502 32.2779C76.2137 32.1537 76.1991 32.0149 76.1991 31.8724C76.1991 31.7153 76.2247 31.5729 76.2612 31.4487C76.2977 31.3245 76.3489 31.2039 76.4219 31.1309C76.4986 31.0432 76.5607 30.9738 76.6484 30.919C76.7361 30.8679 76.8237 30.8496 76.9224 30.8496C77.021 30.8496 77.1086 30.8861 77.1963 30.919C77.284 30.9519 77.357 31.0432 77.4228 31.1309C77.4849 31.2185 77.547 31.3245 77.5835 31.4487C77.6127 31.5911 77.6383 31.7299 77.6383 31.8907ZM77.4776 31.8907C77.4776 31.7665 77.4666 31.6459 77.4411 31.54C77.4155 31.4341 77.3643 31.3464 77.3169 31.277C77.2657 31.2076 77.2036 31.1345 77.1415 31.1017C77.0648 31.0651 77.0027 31.0505 76.915 31.0505C76.8274 31.0505 76.7543 31.0688 76.6886 31.1017C76.6119 31.1382 76.5644 31.2076 76.5132 31.277C76.4621 31.3647 76.4256 31.4523 76.389 31.54C76.3635 31.6459 76.3525 31.7701 76.3525 31.8907C76.3525 31.9966 76.3635 32.1208 76.389 32.2231C76.4146 32.3254 76.4511 32.4167 76.5023 32.4861C76.5534 32.5737 76.6155 32.6285 76.6776 32.6614C76.7397 32.6979 76.8274 32.7308 76.915 32.7308C76.9918 32.7308 77.0648 32.7126 77.1415 32.6797C77.2182 32.6432 77.2657 32.5737 77.3169 32.5043C77.368 32.4349 77.4045 32.329 77.4411 32.2413C77.463 32.1171 77.4776 32.0112 77.4776 31.8907ZM76.7653 32.4678H76.6411V31.3062H76.9552C77.0539 31.3062 77.1306 31.3427 77.1817 31.3939C77.2328 31.445 77.2584 31.5363 77.2584 31.6386C77.2584 31.7446 77.2328 31.814 77.1963 31.8688C77.1598 31.9235 77.1086 31.9382 77.0466 31.9564L77.273 32.4678H77.1233L76.9114 31.9747H76.7872L76.7653 32.4678ZM76.915 31.8359C76.9406 31.8359 76.9662 31.8359 76.9918 31.8359C77.0173 31.8359 77.0283 31.8176 77.0539 31.7993C77.0794 31.7811 77.0794 31.7628 77.0904 31.7482C77.1013 31.7117 77.116 31.6971 77.116 31.6423C77.116 31.6057 77.105 31.5911 77.0904 31.5546C77.0794 31.5363 77.0648 31.5181 77.0539 31.5181C77.0429 31.5181 77.0283 31.4816 77.0027 31.4816C76.9771 31.4816 76.9662 31.4816 76.9406 31.4816H76.7799V31.814H76.9187V31.8359H76.915Z" fill="#80A1B6"/>
</svg>
