<svg width="100%" height="100%" viewBox="0 0 80 80" fill="none" xmlns="http://www.w3.org/2000/svg">
<path d="M80 40C80 62.0914 62.0914 80 40 80C17.9086 80 0 62.0914 0 40C0 17.9086 17.9086 0 40 0C62.0914 0 80 17.9086 80 40Z" fill="#FFE01B"/>
<g clip-path="url(#clip0_8870_32805)">
<path d="M37.7517 11.1113H38.7325C38.8822 11.1344 39.0319 11.1571 39.1817 11.1808C40.1354 11.332 40.9965 11.6972 41.6991 12.3845C42.6194 13.2858 43.5244 14.2014 44.4313 15.116C44.5199 15.2055 44.5843 15.2162 44.6965 15.1654C45.8257 14.6701 46.9523 14.1677 48.1293 13.7951C50.1773 13.1476 52.2592 12.752 54.4157 12.9506C55.3438 13.0361 56.2436 13.2457 57.0828 13.6733C58.8633 14.5809 59.7098 16.0694 59.68 18.0859C59.6627 19.2729 59.3351 20.3875 58.8571 21.4574C58.0486 23.2696 56.8876 24.8318 55.555 26.2705C55.5152 26.3136 55.4789 26.36 55.4481 26.396C55.6495 26.6297 55.8506 26.8427 56.0288 27.0733C56.9272 28.2373 57.4277 29.5862 57.7563 31.0123C58.0228 32.1672 58.0385 33.3489 58.077 34.5253C58.1039 35.3364 58.1222 36.1476 58.1395 36.9591C58.1418 37.0592 58.1745 37.1016 58.2703 37.1276C58.6907 37.2415 59.1108 37.3583 59.527 37.4875C60.6187 37.826 61.6812 38.2362 62.6329 38.8925C64.522 40.1923 65.0787 42.5136 63.9979 44.5602C63.9103 44.7271 63.753 44.8847 63.7435 45.0536C63.7337 45.2298 63.8727 45.4114 63.9302 45.596C64.1332 46.2466 64.3278 46.8998 64.5311 47.5501C64.5484 47.6059 64.606 47.6836 64.6511 47.689C65.0006 47.725 65.2978 47.8752 65.5665 48.0969C66.0461 48.4941 66.3218 49.0222 66.4872 49.6174C66.7209 50.4596 66.6866 51.3158 66.5742 52.167C66.3015 54.2329 65.7127 56.1997 64.7472 58.0437C62.5721 62.1976 59.3161 65.1384 55.0934 66.9824C52.0467 68.3126 48.846 68.8734 45.5468 68.8894C43.9452 68.8994 42.3462 68.7565 40.7706 68.4625C38.6664 68.0679 36.6463 67.411 34.7223 66.4516C32.1296 65.1585 29.8754 63.414 27.9962 61.1735C26.737 59.6721 25.7006 57.99 24.9203 56.181C24.868 56.0605 24.8053 56.0141 24.6804 56.0108C24.43 56.0064 24.18 55.9892 23.9314 55.9591C22.5337 55.7701 21.2639 55.2394 20.1104 54.4235C18.6065 53.3574 17.4511 51.9867 16.8022 50.2269C16.0541 48.1957 16.1133 46.1458 16.7894 44.1042C16.8332 43.9707 16.8159 43.9006 16.7109 43.8115C16.145 43.3321 15.5889 42.8411 15.0249 42.3591C14.1811 41.6377 13.6711 40.7184 13.4599 39.6218C13.4046 39.3344 13.3716 39.0423 13.3291 38.7539V37.7158C13.3441 37.5846 13.3598 37.4534 13.3739 37.3219C13.4965 36.1723 13.7849 35.0637 14.1697 33.9792C14.9641 31.7406 16.0813 29.671 17.3671 27.6956C20.1505 23.4118 23.5532 19.583 27.4593 16.3394C29.2248 14.8707 31.0919 13.5615 33.1428 12.5387C34.2855 11.9685 35.4641 11.5039 36.7208 11.2652C37.0618 11.2005 37.4081 11.1621 37.7517 11.1113ZM61.9182 51.196L61.9624 51.226C61.9382 51.2911 61.9297 51.3705 61.8872 51.4193C61.5432 51.8122 61.2205 52.2304 60.841 52.5829C59.6745 53.6625 58.3154 54.4319 56.868 55.0444C54.9881 55.8399 53.0291 56.3035 51.0031 56.4798C49.697 56.5933 48.3935 56.6197 47.0972 56.3733C45.9761 56.16 44.9087 55.8028 43.9321 55.1799C42.0365 53.9722 41.7992 51.6356 42.7257 50.1188C43.3246 49.1377 44.1881 48.6877 45.3369 48.8199C46.1965 48.9201 47.0596 49.0015 47.923 49.0472C49.0179 49.1053 50.1109 49.0285 51.2002 48.9057C52.9925 48.7037 54.7446 48.3189 56.4414 47.6926C57.9427 47.1389 59.3724 46.4385 60.6494 45.4461C61.2912 44.9474 61.8672 44.3813 62.2465 43.6405C62.6431 42.8658 62.7169 42.0853 62.2367 41.3132C62.0036 40.9387 61.6691 40.672 61.3059 40.4403C60.6448 40.0191 59.918 39.749 59.1788 39.5184C58.4923 39.3037 57.8024 39.1028 57.1165 38.8878C56.6719 38.7483 56.4031 38.4342 56.3041 37.9722C56.2653 37.8101 56.239 37.6453 56.2253 37.4791C56.1599 36.3028 56.0922 35.1265 56.0376 33.9498C55.9928 32.9817 55.9523 32.0164 55.7012 31.0757C55.5377 30.4685 55.3033 29.8944 54.8538 29.446C54.211 28.8048 53.4447 28.6883 52.5979 28.92C52.0928 29.0585 51.6825 29.3539 51.3022 29.7014C49.9945 30.8978 48.4759 31.4669 46.7173 31.3304C45.7783 31.2576 44.8407 31.1662 43.9017 31.0911C43.3482 31.0467 42.794 31.0059 42.2421 31.1244C40.7598 31.4385 39.594 32.2594 38.7508 33.5172C37.4028 35.5297 37.2845 37.6971 38.1296 39.9383C38.5402 41.0275 39.2412 41.9325 39.9899 42.7997C40.3531 43.2206 40.7186 43.6416 41.0531 44.0862C41.3594 44.4938 41.3238 44.7965 40.9897 45.1764C40.9606 45.2098 40.9311 45.2432 40.9011 45.2745C40.2114 46.012 39.6452 46.8603 39.2252 47.7854C38.3692 49.6621 38.0502 51.6342 38.2336 53.6938C38.3539 55.0448 38.7109 56.3236 39.3412 57.5193C40.4067 59.5391 42.0221 60.9528 44.0318 61.9229C45.6175 62.688 47.2966 63.0778 49.0424 63.1743C51.1626 63.2915 53.225 62.976 55.2216 62.2517C57.5464 61.4091 59.6267 60.172 61.3432 58.3251C62.971 56.5736 64.1166 54.5724 64.5798 52.188C64.6913 51.6135 64.7816 51.0384 64.6939 50.4502C64.6027 49.8404 64.2415 49.4708 63.6458 49.3904C63.5078 49.372 63.3672 49.373 63.2208 49.365C63.0324 48.3058 62.766 47.27 62.3315 46.2893C62.3182 46.2903 62.305 46.2929 62.2923 46.297C62.1739 46.3858 62.0569 46.4769 61.9375 46.564C59.1556 48.5949 56.0317 49.7289 52.6685 50.2336C51.2002 50.4532 49.7261 50.5627 48.2405 50.51C47.6376 50.4883 47.036 50.4232 46.4338 50.3785C45.9192 50.3404 45.404 50.2696 44.8897 50.2746C44.3012 50.2803 43.8108 50.763 43.7624 51.3028C43.7749 51.3131 43.7887 51.3219 43.8033 51.3288C44.0096 51.3996 44.2149 51.473 44.4225 51.5388C45.5629 51.8951 46.7357 52.1325 47.923 52.2474C49.0935 52.3701 50.272 52.3918 51.4461 52.3122C51.7828 52.2885 52.1183 52.2454 52.4547 52.2251C52.523 52.2214 52.627 52.2718 52.6587 52.3292C52.712 52.426 52.6456 52.5068 52.5462 52.5479C52.5214 52.5582 52.4962 52.5692 52.4707 52.5789C51.365 53.0129 50.2096 53.1821 49.0353 53.2272C47.5732 53.2839 46.133 53.106 44.7141 52.7472C44.3571 52.657 44.0024 52.5562 43.6258 52.4547C43.6541 52.7642 43.7582 53.0614 43.9285 53.319C44.2675 53.8531 44.7609 54.1885 45.315 54.4452C46.2592 54.8832 47.2642 55.0665 48.2859 55.1703C49.9402 55.3372 51.5834 55.2297 53.2103 54.8992C56.2848 54.2727 59.1154 53.0376 61.7397 51.2988C61.7969 51.261 61.8587 51.23 61.9182 51.196ZM17.712 42.2165C17.7614 42.1581 17.7843 42.1347 17.8029 42.1084C18.9145 40.5648 20.4106 39.6359 22.227 39.2199C22.3281 39.1969 22.383 39.1532 22.4203 39.053C23.2022 36.9197 24.152 34.8544 25.2604 32.8776C26.9277 29.904 28.9221 27.1822 31.3087 24.7681C32.2506 23.816 33.2661 22.9522 34.2917 22.0976C36.5057 20.2456 38.8417 18.5786 41.2826 17.0594C41.6949 16.8024 42.113 16.5547 42.5455 16.2917C42.336 16.0527 42.1362 15.8194 41.9309 15.5907C41.3078 14.899 40.6915 14.1987 39.9618 13.6212C39.7924 13.4825 39.5964 13.3817 39.3864 13.3255C39.0786 13.2547 38.7642 13.2182 38.4487 13.2167C37.4502 13.207 36.4975 13.4583 35.5661 13.8005C33.817 14.4424 32.2205 15.3807 30.6918 16.4446C28.2329 18.1547 26.0198 20.1575 23.9811 22.3677C21.6555 24.8869 19.6246 27.6311 17.9484 30.6434C17.0784 32.2066 16.3068 33.8166 15.7962 35.544C15.4669 36.6576 15.2443 37.7892 15.3891 38.9609C15.4643 39.5671 15.5994 40.1656 16.043 40.6142C16.5831 41.157 17.1458 41.6741 17.712 42.2159V42.2165ZM29.1454 47.9971C29.1202 47.714 29.0878 47.1646 29.0205 46.6198C28.906 45.6925 28.652 44.8059 28.2178 43.9774C27.1968 42.0293 25.1221 40.7421 22.773 41.2855C21.1475 41.6617 19.8875 42.5473 19.0835 44.0581C18.6121 44.9444 18.4035 45.9044 18.3682 46.9059C18.3378 47.7738 18.4234 48.6273 18.7425 49.4428C19.3706 51.0474 20.4678 52.2291 21.9285 53.0666C22.8989 53.6231 23.9382 53.9459 25.0652 53.8791C26.7228 53.7813 27.8867 52.9411 28.5657 51.4016C29.0048 50.4048 29.1342 49.345 29.1454 47.9971ZM50.4646 24.017C50.4919 24.0081 50.5162 23.9917 50.5349 23.9696C50.6144 23.8481 50.5189 23.8027 50.4349 23.7586C48.8705 22.9415 47.2083 22.5045 45.4546 22.4234C45.3942 22.4207 45.3353 22.39 45.2758 22.374C45.2967 22.3099 45.3 22.2281 45.3412 22.1841C45.6165 21.8923 45.9009 21.6096 46.1791 21.3212C46.221 21.2778 46.2462 21.2184 46.2792 21.1666C46.2184 21.1432 46.1546 21.0942 46.0967 21.0999C45.7453 21.1396 45.3922 21.1746 45.0453 21.2431C43.271 21.5885 41.5785 22.2798 40.0605 23.2793C40.0164 23.3083 39.952 23.305 39.897 23.317C39.8885 23.2613 39.8598 23.1985 39.8751 23.1501C39.9732 22.845 40.0742 22.5396 40.1919 22.2415C40.275 22.0308 40.3881 21.8332 40.4822 21.6263C40.5012 21.5839 40.4858 21.5261 40.4862 21.4744C40.4407 21.4767 40.3914 21.4684 40.3502 21.4837C40.2851 21.5123 40.2221 21.5458 40.1618 21.5839C37.549 23.0466 35.349 25.0178 33.3936 27.2907C33.3609 27.3304 33.3642 27.4038 33.3504 27.4616C33.408 27.4542 33.477 27.4656 33.5204 27.4369C33.8497 27.2196 34.1655 26.9802 34.5013 26.7743C37.4839 24.9457 40.7036 23.8524 44.1757 23.559C45.8757 23.4151 47.5706 23.5059 49.2543 23.7887C49.6463 23.8544 50.0357 23.9356 50.4646 24.017Z" fill="black"/>
<path d="M54.6186 38.4051C54.2443 38.4051 53.8912 38.4101 53.5397 38.4005C53.5051 38.3962 53.4716 38.3847 53.4414 38.3669C53.4111 38.3491 53.3848 38.3252 53.3638 38.2966C53.03 37.8053 52.824 37.2535 52.7171 36.6727C52.6253 36.172 52.5808 35.6626 52.5376 35.1548C52.5236 34.9879 52.5592 34.81 52.6057 34.6471C52.7829 34.0232 53.5054 33.8436 53.9579 34.305C54.1906 34.5436 54.3201 34.8441 54.4195 35.1572C54.6611 35.9163 54.8242 36.6897 54.7916 37.4955C54.7791 37.8073 54.7409 38.1127 54.6186 38.4051Z" fill="black"/>
<path d="M47.4981 39.8218C47.4327 39.8007 47.3141 39.7674 47.198 39.7216C46.7135 39.5347 46.242 39.3164 45.7503 39.1602C44.933 38.9015 44.112 39.0086 43.3022 39.2316C42.935 39.3317 42.5735 39.4556 42.2073 39.5617C42.098 39.5953 41.9849 39.6138 41.8709 39.6168C41.694 39.6168 41.5998 39.4916 41.6747 39.3284C41.7506 39.157 41.856 39.001 41.9859 38.8678C43.4245 37.4774 45.8683 37.3362 47.3552 38.9011C47.5308 39.0804 47.658 39.3164 47.7656 39.5501C47.843 39.717 47.7342 39.8311 47.4981 39.8218Z" fill="black"/>
<path d="M47.2322 41.1378C46.8742 41.1094 46.5176 41.0664 46.1579 41.0547C45.5796 41.038 45.0238 41.1679 44.482 41.3691C44.3507 41.4221 44.2147 41.4623 44.076 41.4893C44.0011 41.5017 43.886 41.4846 43.8471 41.4339C43.8082 41.3832 43.8004 41.2543 43.8344 41.1902C43.9089 41.0425 44.0052 40.9074 44.1201 40.7897C44.4565 40.4605 44.8776 40.2956 45.3265 40.2008C45.9399 40.0713 46.5303 40.1341 47.0802 40.4542C47.2084 40.5271 47.3236 40.6214 47.4212 40.7332C47.4797 40.802 47.5294 40.9395 47.4997 41.0093C47.467 41.0871 47.3395 41.1231 47.2532 41.1762C47.2453 41.1659 47.2388 41.1518 47.2322 41.1378Z" fill="black"/>
<path d="M53.6121 40.7808C53.6163 40.5018 53.6745 40.2567 53.8239 40.0398C54.1084 39.6265 54.5827 39.6208 54.8737 40.0271C55.1729 40.4447 55.1454 41.1457 54.8145 41.5386C54.5507 41.8517 54.1646 41.8627 53.8896 41.5613C53.6859 41.3369 53.6193 41.0605 53.6121 40.7808Z" fill="black"/>
<path d="M51.7051 42.7264C51.3065 42.7017 50.9636 42.5451 50.7105 42.213C50.5363 41.9843 50.4552 41.7253 50.5902 41.4512C50.7252 41.1772 50.9891 41.0941 51.2666 41.1021C51.4528 41.1038 51.6363 41.1475 51.8039 41.2302C51.9716 41.3128 52.1192 41.4323 52.2363 41.5801C52.4247 41.8138 52.5201 42.0778 52.3851 42.3676C52.254 42.6486 51.9931 42.713 51.7051 42.7264Z" fill="black"/>
<path d="M26.3541 46.3051C26.3515 46.8336 26.1252 47.4381 25.8764 48.0409C25.7594 48.326 25.6407 48.6188 25.5868 48.9199C25.4671 49.5908 25.9621 50.0548 26.6189 49.9213C26.7244 49.8945 26.8314 49.8741 26.9393 49.8602C27.1976 49.8382 27.3257 50.0331 27.2044 50.2694C27.0884 50.4958 26.8938 50.6386 26.6679 50.7368C25.8212 51.1003 24.9152 50.6393 24.6102 49.6973C24.4026 49.0554 24.4889 48.4255 24.6622 47.7946C24.7498 47.4751 24.874 47.1567 24.9002 46.8309C24.9616 46.0685 24.4994 45.4199 23.7928 45.1979C23.0863 44.9759 22.3239 45.254 21.9492 45.9016C21.8015 46.1566 21.7148 46.4487 21.5988 46.7234C21.5366 46.8703 21.4827 47.0238 21.4026 47.1597C21.3176 47.3052 21.1836 47.3994 21.006 47.3633C20.8285 47.3273 20.7886 47.173 20.7595 47.0252C20.6742 46.5946 20.7409 46.1719 20.8576 45.7567C21.0495 45.068 21.3768 44.4548 21.9309 44.0032C23.2475 42.927 25.1111 43.3022 25.9879 44.807C26.2455 45.2496 26.3662 45.6943 26.3541 46.3051Z" fill="black"/>
</g>
<circle cx="40" cy="40" r="39.5" stroke="#ECECEC"/>
<defs>
<clipPath id="clip0_8870_32805">
<rect width="53.3333" height="57.7778" fill="white" transform="translate(13.3334 11.1113)"/>
</clipPath>
</defs>
</svg>
