<svg width="100%" height="100%" viewBox="0 0 80 80" fill="none" xmlns="http://www.w3.org/2000/svg">
<circle cx="40" cy="40" r="39.5" fill="white" stroke="#ECECEC"/>
<path d="M12.1794 15.0986H67.9277V64.795H12.1794V15.0986Z" fill="#E6E6E1"/>
<path d="M67.9272 15.0984H12.1794L40.055 56.1162L67.9272 15.0981" fill="#D8D8D3"/>
<path d="M34.1594 64.796H45.9557L40.0578 56.1182L34.1592 64.796" fill="#B4B6B4"/>
<path d="M40.0662 41.1712L28.1744 23.5981V38.6831L34.9649 48.7251L40.0546 41.1862L40.0662 41.1712Z" fill="#1A1918"/>
<path d="M40.066 41.1712L45.1873 48.7412L51.9343 38.8089V23.5981L40.066 41.1714" fill="#ED9D4A"/>
<path d="M40.0546 41.1861L34.9647 48.7254L40.0713 56.2741L45.1874 48.7415L40.066 41.1714L40.0544 41.1861" fill="#BB7731"/>
<path d="M19.729 56.2932H28.1744V38.6825L19.729 26.2012V56.2932Z" fill="#4CB2D4"/>
<path d="M19.729 23.5981V26.2021L28.1744 38.6829V23.5981H19.729Z" fill="#1B82AD"/>
<path d="M51.9346 38.8081V56.2928H60.3769V26.3823L51.9346 38.8081Z" fill="#C02439"/>
<path d="M60.3767 23.5981H51.9346V38.8087L60.3769 26.3831V23.5981" fill="#8F202F"/>
</svg>
