<svg width="100%" height="100%" viewBox="0 0 80 80" fill="none" xmlns="http://www.w3.org/2000/svg">
<circle cx="40" cy="40" r="39.5" fill="white" stroke="#ECECEC"/>
<path d="M6.93364 53.2834C8.50298 51.3081 10.5774 51.7882 12.6235 52.0135C14.1093 52.2115 15.5385 52.5779 17.0513 52.5779C18.0049 52.6064 18.6207 52.2115 19.2376 51.5333C20.4149 50.235 21.2554 48.6877 22.4892 47.4404C24.4472 45.4561 26.8364 43.9575 29.4683 43.0629C33.9796 41.4824 38.6052 40.2173 43.0613 38.4056C46.8169 36.8535 49.6754 34.3743 51.6932 30.8173C53.0106 28.5029 54.2998 26.16 55.9315 24.0151C58.146 21.192 61.0045 19.7241 64.5646 19.7467C66.4483 19.7751 68.0671 18.9558 69.7212 18.2788H70.1414C70.8478 18.5325 71.0668 19.0969 71.0668 19.8036C71.0668 21.722 70.4216 23.3879 68.9642 24.6293C67.9835 25.4486 66.9463 26.2109 65.9032 26.9449C64.4739 27.961 63.6051 29.2878 63.1848 31.0094C62.3725 34.5379 61.7273 38.1234 60.6065 41.6223C59.6259 44.7276 58.4203 47.719 56.1222 50.1757C55.4177 50.9382 54.5941 51.5794 53.684 52.074C53.1507 52.3277 52.8705 52.3277 52.9553 51.6223C53.0196 51.0767 53.0005 50.5245 52.8988 49.9848C52.5903 50.6619 52.3101 51.3116 52.0017 51.9886C49.9273 56.2227 46.8722 59.2153 42.1925 60.2883C42.1313 60.3203 42.0645 60.3396 41.9959 60.3452C41.4637 60.4022 40.735 60.6843 40.483 60.2883C40.1746 59.7809 40.9539 59.4702 41.2389 59.0754C43.4757 56.1681 45.0509 53.0059 45.3594 49.2521C45.0227 49.2236 45.0509 49.5058 44.9944 49.6469C44.9124 49.8094 44.8469 49.9798 44.799 50.1556C44.4905 51.0022 44.2386 51.8487 43.7618 52.6111C43.285 53.4008 42.6128 53.7968 41.6874 53.8252C39.2775 53.881 36.8676 53.5988 34.513 53.2597C32.4103 52.9775 30.2747 52.8091 28.1556 52.9775C25.7445 53.147 23.643 54.2485 21.7087 55.5753C19.4718 57.0989 17.0843 58.3415 14.6449 59.4702C13.5512 59.9777 12.3739 60.3168 11.2249 60.6274H8.67133C8.30754 60.063 8.47472 59.5271 8.78906 59.0469C9.23761 58.3687 9.68616 57.6917 10.163 57.0431C10.4149 56.704 10.6668 56.3649 10.163 56.0543C9.04218 55.3773 8.17216 54.3327 6.96778 53.8015C6.94333 53.6299 6.93192 53.4567 6.93364 53.2834Z" fill="#24525E"/>
</svg>
