<svg width="100%" height="100%" viewBox="0 0 80 80" fill="none" xmlns="http://www.w3.org/2000/svg">
<circle cx="40" cy="40" r="39.5" fill="white" stroke="#ECECEC"/>
<g clip-path="url(#clip0_8870_32809)">
<path d="M26.328 52.825V45.6691H23.5289L23.1406 44.874H29.7258V45.6691H27.2988V52.825H26.328Z" fill="#222222"/>
<path d="M33.9325 44.874H33.1235V52.825H33.9325V44.874Z" fill="#222222"/>
<path d="M37.9775 52.825V44.874H38.7865V52.0299H42.6696V52.825H37.9775Z" fill="#222222"/>
<path d="M46.0674 52.825V44.874H46.8764V52.0299H50.7595V52.825H46.0674Z" fill="#222222"/>
<path d="M54.9663 44.7153H54.1573V52.8253H54.9663V44.7153Z" fill="#2D8825"/>
<path d="M62.4576 53.0002C61.3088 53.0002 60.3865 52.6185 59.7232 51.8553C59.0598 51.1079 58.7362 50.0742 58.7362 48.7862C58.7362 47.4981 59.076 46.4804 59.7394 45.733C60.4027 44.9856 61.325 44.604 62.4737 44.604C63.6387 44.604 64.5447 44.9856 65.2081 45.733C65.8553 46.4804 66.1951 47.514 66.1951 48.7862C66.1951 50.0583 65.8553 51.092 65.2081 51.8394C64.5447 52.6185 63.6225 53.0002 62.4576 53.0002ZM62.4737 45.4309C61.5677 45.4309 60.8719 45.7171 60.3865 46.2896C59.9012 46.8621 59.6423 47.7049 59.6423 48.7862C59.6423 49.8675 59.885 50.7262 60.3704 51.2987C60.8558 51.8871 61.5353 52.1733 62.4576 52.1733C63.3798 52.1733 64.0594 51.8871 64.5447 51.3146C65.0301 50.7421 65.2728 49.8834 65.2728 48.7862C65.2728 47.689 65.0301 46.8462 64.5447 46.2737C64.0755 45.7171 63.396 45.4309 62.4737 45.4309Z" fill="#2D8825"/>
<path d="M75.0291 44.874H75.9999V52.825H75.1424L70.7738 46.337C70.8062 46.9413 70.8223 47.307 70.8223 47.6409V52.825H69.8516V44.874H70.7576L75.0938 51.3461" fill="#222222"/>
<path d="M11.7016 44.874H10.6822L7.93169 50.3602V50.392L5.16494 44.874H4V52.825H4.97079V46.8459C4.97079 46.5914 4.92225 46.2893 4.92225 46.0508L7.62427 51.5528H7.91551H8.17438H8.20674L10.8602 46.0826C10.844 46.3052 10.7955 46.5596 10.7955 46.7663V46.83V52.825H11.7016H11.7663V44.874H11.7016Z" fill="#222222"/>
<path d="M20.9726 52.8251H21.9272L18.6588 44.5562H18.0926L14.7595 52.8251H15.6979L16.7335 50.2808H19.9532L20.9726 52.8251ZM18.1735 46.7506C18.2382 46.5916 18.3029 46.4008 18.3676 46.2258C18.4323 46.4167 18.497 46.6075 18.5456 46.7506L19.5973 49.5016H17.1056L18.1735 46.7506Z" fill="#222222"/>
<path d="M26.7325 39.3244L44.6435 21.7051L40.8736 18L19.1765 39.3244H26.7325Z" fill="#2D8825"/>
<path d="M41.812 39.3245L48.4133 32.8365L55.0147 39.3245H62.5545L48.4133 25.4263L34.2722 39.3245H41.812Z" fill="#2D8825"/>
</g>
<defs>
<clipPath id="clip0_8870_32809">
<rect width="72" height="35" fill="white" transform="translate(4 18)"/>
</clipPath>
</defs>
</svg>
