<svg width="100%" height="100%" viewBox="0 0 80 80" fill="none" xmlns="http://www.w3.org/2000/svg">
<circle cx="40" cy="40" r="39.5" fill="white" stroke="#ECECEC"/>
<path d="M43.9375 12.25H22.3544C21.6388 12.2501 20.9526 12.5344 20.4466 13.0403C19.9406 13.5463 19.6563 14.2325 19.6562 14.9481V26.125H43.9375V12.25Z" fill="#21A366"/>
<path d="M65.5206 12.25H43.9375V26.125H68.2187V14.9481C68.2187 14.2325 67.9344 13.5463 67.4284 13.0403C66.9224 12.5344 66.2362 12.2501 65.5206 12.25Z" fill="#33C481"/>
<path d="M68.2187 40H43.9375V53.875H68.2187V40Z" fill="#107C41"/>
<path d="M43.9375 53.875V40H19.6562V65.0519C19.6563 65.7675 19.9406 66.4537 20.4466 66.9597C20.9526 67.4657 21.6388 67.7499 22.3544 67.75H65.5206C66.2362 67.7499 66.9224 67.4657 67.4284 66.9597C67.9344 66.4537 68.2187 65.7675 68.2188 65.0519V53.875H43.9375Z" fill="#185C37"/>
<path d="M43.9375 26.125H19.6562V40H43.9375V26.125Z" fill="#107C41"/>
<path d="M68.2187 26.125H43.9375V40H68.2187V26.125Z" fill="#21A366"/>
<path opacity="0.2" d="M38.1562 26.5067V56.9621C38.1588 57.1175 38.1433 57.2727 38.11 57.4245C38.0048 58.05 37.6809 58.6178 37.1958 59.0266C36.7108 59.4354 36.0964 59.6585 35.4621 59.6563H19.6562V23.8125H35.4621C35.8161 23.8119 36.1667 23.8811 36.4938 24.0163C36.821 24.1515 37.1182 24.3499 37.3685 24.6002C37.6188 24.8505 37.8172 25.1478 37.9524 25.4749C38.0876 25.8021 38.1569 26.1527 38.1562 26.5067Z" fill="black"/>
<path opacity="0.1" d="M39.3125 26.5067V54.6496C39.303 55.6678 38.8942 56.6417 38.1742 57.3617C37.4542 58.0817 36.4803 58.4905 35.4621 58.5H19.6562V22.6562H35.4621C36.4822 22.6598 37.4595 23.0666 38.1808 23.7879C38.9021 24.5093 39.3089 25.4866 39.3125 26.5067Z" fill="black"/>
<path opacity="0.2" d="M38.1562 26.5067V54.6496C38.1569 55.0036 38.0876 55.3542 37.9524 55.6813C37.8173 56.0085 37.6188 56.3057 37.3685 56.556C37.1182 56.8063 36.821 57.0048 36.4938 57.1399C36.1667 57.2751 35.8161 57.3444 35.4621 57.3438H19.6562V23.8125H35.4621C35.8161 23.8119 36.1667 23.8811 36.4938 24.0163C36.821 24.1515 37.1182 24.3499 37.3685 24.6002C37.6188 24.8505 37.8173 25.1478 37.9524 25.4749C38.0876 25.8021 38.1569 26.1527 38.1562 26.5067Z" fill="black"/>
<path opacity="0.1" d="M37 26.5067V54.6496C37.0006 55.0036 36.9314 55.3542 36.7962 55.6813C36.661 56.0085 36.4626 56.3057 36.2123 56.556C35.962 56.8063 35.6647 57.0048 35.3376 57.1399C35.0104 57.2751 34.6598 57.3444 34.3058 57.3438H19.6562V23.8125H34.3058C34.6598 23.8119 35.0104 23.8811 35.3376 24.0163C35.6647 24.1515 35.962 24.3499 36.2123 24.6002C36.4626 24.8505 36.661 25.1478 36.7962 25.4749C36.9314 25.8021 37.0006 26.1527 37 26.5067Z" fill="black"/>
<path d="M34.302 23.8125H7.32291C5.8329 23.8125 4.625 25.0204 4.625 26.5104V53.4895C4.625 54.9796 5.8329 56.1875 7.32291 56.1875H34.302C35.7921 56.1875 37 54.9796 37 53.4895V26.5104C37 25.0204 35.7921 23.8125 34.302 23.8125Z" fill="#107C41"/>
<path d="M12.9797 48.7707L18.6541 39.9779L13.4567 31.2339H17.6391L20.4763 36.8227C20.7371 37.3527 20.9165 37.7482 21.0144 38.0089H21.0511C21.2385 37.5851 21.4342 37.1734 21.6381 36.7738L24.6709 31.2339H28.5109L23.179 39.9289L28.6455 48.7707H24.5609L21.2834 42.6316C21.129 42.3706 20.998 42.0964 20.8921 41.8123H20.8432C20.7475 42.0908 20.6203 42.3575 20.4641 42.6072L17.0888 48.7707H12.9797Z" fill="white"/>
</svg>
