<svg width="100%" height="100%" viewBox="0 0 80 80" fill="none" xmlns="http://www.w3.org/2000/svg">
<circle cx="40" cy="40" r="39.5" fill="white" stroke="#ECECEC"/>
<path d="M68.1762 41.1982C68.1774 40.9596 68.1167 40.7249 67.9999 40.5169C67.8832 40.3089 67.7144 40.1348 67.5101 40.0116V40.0115L67.5028 40.0073L67.4765 39.9919L45.8174 27.3008C45.7239 27.2386 45.627 27.1817 45.527 27.1305H45.5269C45.1145 26.9194 44.6579 26.8093 44.1946 26.8093C43.7314 26.8093 43.2747 26.9194 42.8623 27.1305H42.8622C42.7622 27.1817 42.6653 27.2386 42.5719 27.3008L20.9128 39.992L20.8865 40.0073L20.8792 40.0115V40.0117C20.673 40.1375 20.5031 40.3149 20.3863 40.5264C20.2695 40.7379 20.2099 40.9761 20.2133 41.2177C20.2167 41.4593 20.283 41.6958 20.4057 41.9039C20.5284 42.112 20.7032 42.2846 20.9129 42.4045L42.5719 55.0956C42.6654 55.1578 42.7623 55.2146 42.8622 55.2658L42.8623 55.2659C43.2747 55.477 43.7314 55.5871 44.1946 55.5871C44.6579 55.5871 45.1145 55.477 45.5269 55.2659L45.527 55.2658C45.6269 55.2146 45.7239 55.1578 45.8174 55.0956L67.4764 42.4045C67.6899 42.284 67.8673 42.1086 67.9904 41.8965C68.1134 41.6845 68.1775 41.4434 68.1762 41.1982Z" fill="#123B6D"/>
<path d="M37 32.8079H22.6111V45.9977H37V32.8079Z" fill="#0364B8"/>
<path d="M65.9062 20.3434V14.9475C65.8998 14.2256 65.6069 13.5358 65.0919 13.0299C64.5769 12.524 63.8821 12.2433 63.1602 12.2496H24.7148C23.9929 12.2433 23.2981 12.524 22.7831 13.0299C22.2681 13.5358 21.9752 14.2256 21.9688 14.9475V20.3434H65.9062Z" fill="#0358A7"/>
<path d="M37 19.1875H21.9688V33.0625H37V19.1875Z" fill="#0078D4"/>
<path d="M52.0312 19.1875H37V33.0625H52.0312V19.1875Z" fill="#28A8EA"/>
<path d="M65.9062 19.1875H52.0312V33.0625H65.9062V19.1875Z" fill="#50D9FF"/>
<path d="M65.9062 33.0625H52.0312V46.9375H65.9062V33.0625Z" fill="#28A8EA"/>
<path d="M52.0312 33.0625H37V46.9375H52.0312V33.0625Z" fill="#0078D4"/>
<path d="M52.0312 46.9375H37V60.8125H52.0312V46.9375Z" fill="#0364B8"/>
<path d="M37 45.9937H22.6111V57.9844H37V45.9937Z" fill="#14447D"/>
<path d="M65.9062 46.9375H52.0312V59.6562H65.9062V46.9375Z" fill="#0078D4"/>
<path d="M67.5441 42.2515V42.2527L67.5175 42.2674L67.5107 42.2708L45.5804 53.9992C45.4854 54.0566 45.3874 54.109 45.2868 54.1562C44.8642 54.3527 44.4036 54.4541 43.9375 54.4531C43.9109 54.4531 43.8861 54.4452 43.8596 54.4447L42.6299 53.7694C42.529 53.7211 42.4308 53.6672 42.3358 53.6079L20.3659 41.5458L20.3591 41.5424L20.3484 41.5362L19.6568 41.1562H19.6562V64.9006C19.6817 65.6807 20.0156 66.4188 20.5846 66.953C21.1536 67.4872 21.9113 67.7738 22.6914 67.75H65.266C65.9091 67.7519 66.5369 67.5538 67.0625 67.1832L67.0163 67.1583C67.3828 66.9057 67.6833 66.5688 67.8926 66.176C68.1018 65.7831 68.2137 65.3457 68.2188 64.9006V41.1562C68.2159 41.3828 68.1516 41.6043 68.0328 41.7971C67.914 41.99 67.7451 42.1471 67.5441 42.2515Z" fill="url(#paint0_linear_8874_32816)"/>
<path d="M67.5443 42.2518V42.2528L67.5175 42.2671L67.5108 42.2707L45.5807 53.999C45.4856 54.0567 45.3875 54.1092 45.2867 54.1562H45.2866C44.8638 54.3518 44.4035 54.4531 43.9377 54.4531C43.4718 54.4531 43.0115 54.3518 42.5887 54.1562L42.5886 54.1562C42.4879 54.1091 42.3897 54.0566 42.2947 53.999L20.3646 42.2707L20.3578 42.2671L20.331 42.2528V42.2518C20.1301 42.1472 19.9613 41.9901 19.8425 41.7972C19.7238 41.6043 19.6595 41.3828 19.6566 41.1562H19.6562V64.9007C19.6817 65.6807 20.0155 66.4189 20.5845 66.9531C21.1536 67.4873 21.9113 67.7739 22.6914 67.75H65.1836C65.9637 67.7739 66.7214 67.4873 67.2905 66.9531C67.8595 66.4189 68.1933 65.6807 68.2188 64.9007V41.1564C68.2158 41.3829 68.1515 41.6044 68.0328 41.7972C67.914 41.9901 67.7452 42.1472 67.5443 42.2518Z" fill="#1490DF"/>
<path d="M22.6969 67.75H65.266C65.9091 67.7519 66.5369 67.5539 67.0625 67.1834L42.6297 53.7692C42.5288 53.7208 42.4307 53.6669 42.3357 53.6078L20.3658 41.5458L20.3591 41.5422L20.3486 41.5364L19.6562 41.1562V64.8196C19.6711 65.6113 19.9998 66.3647 20.5699 66.9142C21.1401 67.4637 21.9052 67.7643 22.6969 67.75Z" fill="#28A8EA"/>
<path opacity="0.5" d="M65.9062 41.8152V43.1222L45.5793 54.0021C45.4867 54.0603 45.3828 54.1066 45.2902 54.1529C44.8678 54.3539 44.4053 54.4566 43.9375 54.4532H43.8681L42.6311 53.7712C42.5272 53.725 42.4346 53.6668 42.3302 53.6092L21.9688 42.4284V41.1101L42.897 52.5919C43.0009 52.6613 43.0703 52.6958 43.1279 52.7302L44.1458 53.2857C44.3702 53.2661 44.5893 53.2073 44.7933 53.1119C44.8509 53.0774 61.5009 44.174 65.9062 41.8152Z" fill="#0A2767"/>
<path opacity="0.2" d="M38.1562 26.5067V56.9621C38.1588 57.1175 38.1433 57.2727 38.11 57.4245C38.0048 58.05 37.6809 58.6178 37.1958 59.0266C36.7108 59.4354 36.0964 59.6585 35.4621 59.6563H19.6562V41.1563L20.2457 41.4803C20.2231 41.3894 20.2116 41.2962 20.2112 41.2025C20.2099 40.9628 20.2711 40.7268 20.3887 40.518C20.5063 40.3091 20.6763 40.1344 20.882 40.0113C20.8933 40 20.9051 40 20.9164 39.9887L22.6163 38.9939V33.0625H21.9687V23.8125H35.4621C35.8161 23.8119 36.1667 23.8811 36.4938 24.0163C36.821 24.1515 37.1182 24.3499 37.3685 24.6002C37.6188 24.8505 37.8172 25.1478 37.9524 25.4749C38.0876 25.8021 38.1569 26.1527 38.1562 26.5067Z" fill="black"/>
<path opacity="0.1" d="M39.3125 26.5067V54.6496C39.303 55.6678 38.8942 56.6417 38.1742 57.3617C37.4542 58.0817 36.4803 58.4905 35.4621 58.5H19.6562V41.1562L20.2457 41.4803C20.2231 41.3894 20.2116 41.2962 20.2112 41.2025C20.2099 40.9628 20.2711 40.7268 20.3887 40.518C20.5063 40.3091 20.6763 40.1344 20.882 40.0113C20.8933 40 20.9051 40 20.9164 39.9887L22.6163 38.9939V33.0625H21.9688V22.6562H35.4621C36.4822 22.6598 37.4595 23.0666 38.1808 23.7879C38.9021 24.5093 39.3089 25.4866 39.3125 26.5067Z" fill="black"/>
<path opacity="0.2" d="M38.1562 26.5067V54.6496C38.1569 55.0036 38.0876 55.3542 37.9524 55.6813C37.8173 56.0085 37.6188 56.3057 37.3685 56.556C37.1182 56.8063 36.821 57.0048 36.4938 57.1399C36.1667 57.2751 35.8161 57.3444 35.4621 57.3438H19.6562V41.1563L20.2457 41.4803C20.2231 41.3894 20.2116 41.2962 20.2112 41.2025C20.2099 40.9628 20.2711 40.7268 20.3887 40.518C20.5063 40.3091 20.6763 40.1344 20.882 40.0113C20.8933 40 20.9051 40 20.9164 39.9887L22.6163 38.9939V33.0625H21.9688V23.8125H35.4621C35.8161 23.8119 36.1667 23.8811 36.4938 24.0163C36.821 24.1515 37.1182 24.3499 37.3685 24.6002C37.6188 24.8505 37.8173 25.1478 37.9524 25.4749C38.0876 25.8021 38.1569 26.1527 38.1562 26.5067Z" fill="black"/>
<path opacity="0.1" d="M37 26.5067V54.6496C37.0006 55.0036 36.9314 55.3542 36.7962 55.6813C36.661 56.0085 36.4626 56.3057 36.2123 56.556C35.962 56.8063 35.6647 57.0048 35.3376 57.1399C35.0104 57.2751 34.6598 57.3444 34.3058 57.3438H19.6562V41.1563L20.2457 41.4803C20.2231 41.3894 20.2116 41.2962 20.2112 41.2025C20.2099 40.9628 20.2711 40.7268 20.3887 40.518C20.5063 40.3091 20.6763 40.1344 20.882 40.0113C20.8933 40 20.9051 40 20.9164 39.9887L22.6163 38.9939V33.0625H21.9688V23.8125H34.3058C34.6598 23.8119 35.0104 23.8811 35.3376 24.0163C35.6647 24.1515 35.962 24.3499 36.2123 24.6002C36.4626 24.8505 36.661 25.1478 36.7962 25.4749C36.9314 25.8021 37.0006 26.1527 37 26.5067Z" fill="black"/>
<path d="M34.3021 23.8125H7.32291C5.8329 23.8125 4.625 25.0204 4.625 26.5104V53.4896C4.625 54.9796 5.8329 56.1875 7.32291 56.1875H34.3021C35.7921 56.1875 37 54.9796 37 53.4896V26.5104C37 25.0204 35.7921 23.8125 34.3021 23.8125Z" fill="#0F78D4"/>
<path d="M13.564 35.655C14.1852 34.3314 15.1879 33.2236 16.4434 32.4741C17.8342 31.6779 19.4178 31.281 21.0197 31.3271C22.5039 31.2948 23.9684 31.6711 25.2531 32.415C26.4621 33.1349 27.4357 34.1908 28.0556 35.454C28.7304 36.8458 29.0667 38.3774 29.0371 39.9239C29.07 41.5404 28.7237 43.1421 28.026 44.6007C27.3924 45.9086 26.3893 47.0022 25.1407 47.7461C23.8062 48.5133 22.2867 48.8998 20.7477 48.8636C19.2317 48.8996 17.7347 48.5192 16.4198 47.7638C15.201 47.0425 14.2157 45.9854 13.5818 44.7189C12.9024 43.3473 12.5617 41.8327 12.5885 40.3023C12.5587 38.6994 12.8922 37.1106 13.564 35.655ZM16.6326 43.1225C16.9641 43.9592 17.5258 44.6849 18.2526 45.2155C18.993 45.7336 19.8798 46.0009 20.7832 45.9783C21.7453 46.0159 22.6936 45.7399 23.4852 45.1919C24.2035 44.6612 24.7503 43.9314 25.0579 43.093C25.4034 42.1585 25.5738 41.1684 25.5605 40.1722C25.5713 39.1671 25.4114 38.1675 25.0875 37.2159C24.8015 36.3592 24.2738 35.6036 23.568 35.0401C22.7968 34.4646 21.851 34.1723 20.8896 34.2124C19.9669 34.1888 19.0604 34.4579 18.2999 34.981C17.559 35.5132 16.9848 36.2453 16.6445 37.0918C15.8918 39.0308 15.8875 41.1806 16.6326 43.1225H16.6326Z" fill="white"/>
<path opacity="0.05" d="M46.7322 53.3809L45.5805 53.9968C45.0851 54.2964 44.5166 54.4535 43.9376 54.4507L43.8738 54.4496L67.0225 67.1593C67.3474 66.928 67.6195 66.6304 67.8208 66.2862C68.0222 65.942 68.1482 65.5589 68.1906 65.1624L46.7322 53.3809Z" fill="black"/>
<path opacity="0.05" d="M67.0265 67.1639C67.3528 66.9303 67.6278 66.6323 67.8344 66.2882L45.5156 54.0364C45.441 54.0787 45.3654 54.1194 45.2869 54.1561C44.8643 54.3526 44.4037 54.454 43.9376 54.453L43.8738 54.4519L67.0265 67.1639Z" fill="black"/>
<defs>
<linearGradient id="paint0_linear_8874_32816" x1="43.9375" y1="41.1562" x2="43.9375" y2="67.75" gradientUnits="userSpaceOnUse">
<stop stop-color="#35B8F1"/>
<stop offset="1" stop-color="#28A8EA"/>
</linearGradient>
</defs>
</svg>
