<svg width="100%" height="100%" viewBox="0 0 80 80" fill="none" xmlns="http://www.w3.org/2000/svg">
<circle cx="40" cy="40" r="39.5" fill="white" stroke="#ECECEC"/>
<g clip-path="url(#clip0_8874_32818)">
<path d="M50.082 8L12 15.1466V65.7572L50.082 72.9688V8ZM55.164 18.0052C54.24 18.0052 53.448 18.2001 52.59 18.46V32.4932C53.448 32.8181 54.24 32.948 55.164 32.948C58.002 32.948 60.444 31.4537 61.764 29.2448C63.744 30.3492 65.394 32.0384 66.582 33.9875C64.338 35.2869 62.754 37.6907 62.754 40.4844C62.754 43.278 64.338 45.6819 66.582 46.9813C65.394 48.9303 63.744 50.5545 61.764 51.724C60.444 49.515 58.002 47.9558 55.164 47.9558C54.24 47.9558 53.448 48.1507 52.59 48.4106V62.5088C53.448 62.7687 54.24 62.9636 55.164 62.9636C59.256 62.9636 62.622 59.7801 62.754 55.752C66.186 54.1278 69.024 51.3342 70.674 47.9558C74.766 47.8258 78 44.5124 78 40.4844C78 36.4563 74.766 33.1429 70.674 32.948C69.024 29.5696 66.186 26.8409 62.754 25.1518C62.622 21.1887 59.256 18.0052 55.164 18.0052ZM30.744 27.6855C32.064 27.6855 33.186 27.7505 34.242 27.8804C35.232 28.0753 36.156 28.2703 37.014 28.5951V33.7926C36.552 33.4678 36.156 33.2079 35.628 32.948C35.1 32.6881 34.572 32.5582 34.044 32.4282C33.516 32.2983 33.054 32.1684 32.526 32.1034C32.064 32.0384 31.536 32.0384 31.074 32.0384C30.414 32.0384 29.82 32.1034 29.292 32.1684C28.764 32.2983 28.302 32.5582 27.972 32.7531C27.642 32.948 27.378 33.2079 27.18 33.5327C26.982 33.8576 26.85 34.1824 26.85 34.5722C26.85 34.962 26.916 35.2869 27.18 35.6117C27.378 35.9366 27.708 36.2614 28.104 36.5863C28.5 36.8461 29.028 37.171 29.622 37.4308C30.216 37.6907 30.876 38.0156 31.602 38.2754C32.592 38.7302 33.516 39.12 34.308 39.6398C35.1 40.0946 35.76 40.6143 36.354 41.199C36.948 41.7837 37.344 42.4334 37.608 43.2131C37.938 43.9927 38.07 44.8373 38.07 45.8768C38.07 47.2411 37.872 48.3456 37.278 49.3201C36.75 50.2297 36.09 51.0093 35.166 51.594C34.242 52.1138 33.186 52.5686 31.998 52.8284C30.81 53.0883 29.424 53.2183 28.104 53.2183C26.718 53.2183 25.464 53.1533 24.21 52.8934C22.956 52.6335 21.9 52.2437 20.976 51.7889V46.3316C21.966 47.1762 23.088 47.7609 24.276 48.2157C25.464 48.6704 26.652 48.8004 27.84 48.8004C28.566 48.8004 29.226 48.8004 29.754 48.6704C30.282 48.5405 30.744 48.3456 31.14 48.1507C31.47 47.8908 31.734 47.6309 31.932 47.3711C32.13 47.1112 32.13 46.6564 32.13 46.3316C32.13 45.8768 32.064 45.357 31.734 45.0322C31.404 44.7073 31.074 44.3175 30.546 43.9927C30.084 43.6678 29.49 43.343 28.83 43.0831C28.17 42.7583 27.444 42.4334 26.652 42.1086C24.738 41.329 23.286 40.3544 22.296 39.25C21.372 38.0805 20.91 36.6512 20.91 35.027C20.91 33.7276 21.174 32.5582 21.702 31.6486C22.23 30.7391 22.89 29.9594 23.814 29.3747C24.738 28.79 25.728 28.3352 26.916 28.0753C28.104 27.8155 29.424 27.6855 30.744 27.6855Z" fill="#0078D4"/>
</g>
<defs>
<clipPath id="clip0_8874_32818">
<rect width="66" height="64.9688" fill="white" transform="translate(12 8)"/>
</clipPath>
</defs>
</svg>
