<svg width="100%" height="100%" viewBox="0 0 80 80" fill="none" xmlns="http://www.w3.org/2000/svg">
<circle cx="40" cy="40" r="39.5" fill="white" stroke="#ECECEC"/>
<path fill-rule="evenodd" clip-rule="evenodd" d="M53.1746 53.414C53.263 53.2439 53.3478 53.0937 53.42 52.9382C53.4656 52.8388 53.5357 52.8189 53.6347 52.8215C54.2277 52.8383 54.8208 52.8566 55.4144 52.8623C55.9184 52.8676 56.4235 52.8581 56.9281 52.8524C57.4966 52.8456 58.065 52.8157 58.633 52.832C59.3893 52.854 60.1263 53.0021 60.8105 53.3387C61.6276 53.7412 62.2457 54.3541 62.6671 55.1618C62.932 55.6739 63.0974 56.2316 63.1544 56.8054C63.2445 57.6471 63.1853 58.4694 62.9184 59.2744C62.5875 60.2721 61.9594 61.0358 61.0868 61.6079C60.4153 62.0481 59.6788 62.3083 58.8895 62.4569C58.054 62.6145 57.216 62.5637 56.378 62.5663C55.4588 62.57 54.5402 62.5501 53.6211 62.5396C53.4604 62.5381 53.4373 62.5077 53.4797 62.3544L53.519 62.213C53.6085 61.9314 53.6566 61.9188 53.9424 61.8717C54.145 61.8398 54.3388 61.7662 54.5114 61.6556C54.6077 61.5917 54.6475 61.4252 54.6852 61.297C54.7177 61.185 54.7192 61.062 54.7203 60.9437C54.7334 59.1509 54.747 57.3587 54.7543 55.5669C54.7563 55.1138 54.745 54.6606 54.7203 54.2081C54.7025 53.8914 54.5334 53.6747 54.1565 53.5999C53.8634 53.5418 53.5682 53.4967 53.2735 53.4449L53.1746 53.414ZM61.5893 57.7549C61.5496 57.3979 61.5302 57.0378 61.4663 56.686C61.3135 55.8417 60.9439 55.1063 60.2949 54.53C59.2454 53.5988 57.9818 53.4554 56.6575 53.5664C56.356 53.5915 56.2911 53.6946 56.2864 54.0045C56.2791 54.4442 56.2717 54.8839 56.2712 55.3235C56.2691 56.718 56.2691 58.1124 56.2712 59.5069C56.2717 59.9036 56.2759 60.3004 56.2874 60.6961C56.3 61.1012 56.4471 61.4441 56.8439 61.6011C57.4694 61.8487 58.1273 61.878 58.7837 61.777C59.8322 61.6163 60.5655 61.0055 61.0575 60.09C61.447 59.3634 61.5569 58.5704 61.5893 57.7549ZM64.138 62.503C64.1254 62.2858 64.2144 62.1062 64.3243 61.9414C64.3541 61.8969 64.4567 61.899 64.5274 61.8848L65.1273 61.766C65.3393 61.721 65.4507 61.5786 65.4806 61.3708C65.5005 61.2337 65.5193 61.095 65.5209 60.9562C65.5351 59.8586 65.5454 58.761 65.5518 57.6633C65.557 56.5641 65.5528 55.4649 65.5528 54.3656L65.5481 54.1557C65.5266 53.8024 65.356 53.6192 65.0053 53.5674L64.2447 53.4517C64.151 53.4392 64.117 53.3941 64.151 53.3109C64.2097 53.1691 64.2657 53.022 64.3484 52.8943C64.3793 52.8472 64.4834 52.8288 64.5536 52.8304C64.9168 52.8356 65.2801 52.8629 65.6434 52.8623L68.8055 52.8435C69.4147 52.843 70.0031 52.9492 70.5496 53.2408C71.151 53.5611 71.4876 54.0568 71.5839 54.7321C71.6844 55.4413 71.4692 56.0391 70.951 56.5138C70.738 56.7096 70.4621 56.8373 70.2151 56.9964L70.1345 57.0467C70.3637 57.131 70.582 57.2037 70.7945 57.2906C71.4164 57.5455 71.911 57.9439 72.1727 58.5798C72.3795 59.0818 72.3795 59.6053 72.257 60.1256C72.0665 60.94 71.53 61.4818 70.8322 61.8916C70.1774 62.2764 69.4687 62.5004 68.7139 62.5381C68.0177 62.5731 67.3184 62.5601 66.6206 62.5679L66.2165 62.57C65.5441 62.5546 64.8716 62.5378 64.1992 62.5198L64.138 62.503ZM67.0362 59.3158H67.043C67.043 59.6602 67.0383 60.0046 67.0446 60.3491C67.0488 60.572 67.041 60.8013 67.0891 61.0159C67.1613 61.3368 67.3079 61.6262 67.668 61.7184C68.1495 61.8449 68.6524 61.867 69.1431 61.7833C69.7592 61.676 70.2507 61.3671 70.5202 60.7804C70.7202 60.3443 70.75 59.8822 70.6815 59.41C70.5904 58.7882 70.2601 58.337 69.711 58.0412C69.3509 57.847 68.9667 57.7282 68.5574 57.7125C68.0988 57.6952 67.6398 57.6942 67.1812 57.6801C67.0525 57.6764 67.0347 57.7418 67.0352 57.8476C67.0378 58.3364 67.0362 58.8259 67.0362 59.3158ZM68.0125 56.9734C68.2632 56.9609 68.5469 56.9572 68.829 56.9289C69.3692 56.875 69.7497 56.6033 69.9481 56.0867C70.0491 55.8245 70.045 55.5544 70.0476 55.2817C70.0554 54.5714 69.6409 53.9893 68.9662 53.7485C68.4453 53.5627 67.9083 53.5596 67.3681 53.5742C67.1493 53.58 67.0514 53.6758 67.0483 53.8961L67.0158 56.7693C67.0143 56.8834 67.0635 56.9326 67.1744 56.9362L68.0125 56.9734Z" fill="#94795D"/>
<path fill-rule="evenodd" clip-rule="evenodd" d="M13.0188 61.9539L12.9806 62.448C12.6247 62.448 12.2965 62.4454 11.9683 62.449C11.3501 62.4553 10.7319 62.4653 10.1132 62.4742L10.0535 62.4778C9.96507 62.4673 9.80437 62.4673 9.80019 62.4412C9.77401 62.2941 9.78239 62.1397 9.78919 61.9874C9.78972 61.9701 9.84991 61.9481 9.88498 61.9397L10.366 61.8324C10.666 61.7544 10.7717 61.6251 10.7858 61.3153C10.802 60.9661 10.8183 60.6165 10.8198 60.2673C10.8246 59.4079 10.8193 58.5494 10.823 57.6899C10.8235 57.4889 10.7539 57.3392 10.5665 57.2576C10.3438 57.1587 10.1196 57.0635 9.89388 56.9718C9.7871 56.9289 9.64839 56.9053 9.66095 56.7619C9.67351 56.6158 9.80804 56.5776 9.93471 56.5488C10.4592 56.429 10.9842 56.3122 11.5071 56.1845C11.6757 56.1432 11.8369 56.0736 12.0384 56.0034C12.0489 56.1123 12.0682 56.2159 12.0661 56.3196L12.0353 56.8121C12.0347 56.8676 12.0635 56.9419 12.1049 56.9728C12.13 56.9922 12.2143 56.9571 12.2562 56.9247C12.7032 56.5844 13.1764 56.2908 13.716 56.1196C14.552 55.8542 15.2696 56.1003 15.7721 56.821C15.949 57.0749 15.9495 57.0749 16.195 56.8974C16.6164 56.5912 17.0571 56.3211 17.5502 56.1432C18.6327 55.7522 19.6727 56.2484 20.0491 57.3387C20.1862 57.7344 20.2386 58.1432 20.2375 58.5609L20.2276 61.3341C20.2271 61.5628 20.303 61.6932 20.5207 61.7644C20.7652 61.8445 21.0185 61.8994 21.2938 61.9717L21.23 62.4485C20.917 62.4485 20.6291 62.4464 20.3412 62.449C19.6377 62.4553 18.9342 62.459 18.2312 62.4752C18.1087 62.4783 18.0768 62.448 18.0705 62.3333C18.0501 61.9664 18.0469 61.9669 18.3924 61.8842L18.5086 61.8544C18.8462 61.7623 18.9588 61.6586 18.9614 61.3163C18.9692 60.3333 18.9897 59.3477 18.9399 58.3667C18.8881 57.3492 18.0804 56.8074 17.0943 57.0681C16.776 57.1552 16.4762 57.2996 16.2097 57.4942C16.1181 57.5596 16.1008 57.635 16.1081 57.7496C16.1359 58.183 16.1531 58.6169 16.1568 59.0509C16.1631 59.8104 16.1537 60.5699 16.1568 61.3299C16.1579 61.6377 16.2631 61.7555 16.5672 61.8267L17.0189 61.9308L17.1027 61.9497C17.1089 62.0941 17.1147 62.2386 17.1079 62.3831C17.1037 62.4736 17.0336 62.4815 16.9551 62.4799C16.5159 62.4689 16.0762 62.4543 15.637 62.4553C15.1026 62.4564 14.5687 62.4715 14.0348 62.481H13.9092C13.9092 62.3276 13.9018 62.181 13.9144 62.035C13.917 61.9999 13.9788 61.9507 14.0212 61.9397L14.5478 61.8282C14.7713 61.7733 14.8781 61.6586 14.8906 61.4315C14.9503 60.3794 14.9932 59.3267 14.8943 58.2751C14.8702 58.0674 14.8125 57.865 14.7236 57.6758C14.4541 57.0801 13.8474 56.8315 13.1476 57.0105C12.8152 57.0953 12.5153 57.2476 12.2316 57.4397C12.1697 57.4778 12.1189 57.5314 12.0842 57.5953C12.0494 57.6591 12.032 57.7309 12.0337 57.8035C12.0337 58.853 12.0374 59.9025 12.0405 60.9515L12.0463 61.3561C12.0525 61.6382 12.1724 61.7869 12.4524 61.8476C12.6325 61.8884 12.8147 61.9162 13.0188 61.9539Z" fill="#50382B"/>
<path fill-rule="evenodd" clip-rule="evenodd" d="M44.6642 56.1107C44.7454 56.5054 44.7438 56.8602 44.4538 57.1293C44.1659 57.3968 43.8016 57.3067 43.4462 57.2471C43.4792 57.4345 43.5158 57.5936 43.5336 57.7548C43.6629 58.9529 43.1473 59.8423 42.0361 60.3505C41.6163 60.5421 41.1708 60.6133 40.716 60.6499C40.4898 60.6677 40.292 60.8405 40.2705 61.0263C40.2485 61.2147 40.3668 61.4084 40.6034 61.4649C40.8824 61.5314 41.1734 61.5502 41.4598 61.5832C42.0743 61.6534 42.6956 61.6853 43.3028 61.7952C44.2209 61.9606 44.7333 62.762 44.5716 63.6843C44.4277 64.505 43.9524 65.1023 43.2897 65.5603C42.1732 66.3339 40.9484 66.5601 39.644 66.1654C38.8981 65.9393 38.372 65.4488 38.1904 64.6553C38.0993 64.258 38.1961 63.8984 38.495 63.6288C38.8504 63.3095 39.2373 63.0248 39.6094 62.7233L39.7298 62.6024L39.5916 62.5055C39.2121 62.3255 38.9085 62.0789 38.7908 61.6507C38.7505 61.5058 38.7923 61.4105 38.9153 61.3362C39.1247 61.21 39.333 61.0818 39.5398 60.9514C39.6372 60.8907 39.7335 60.8279 39.824 60.7578C39.9476 60.6635 39.9366 60.5934 39.789 60.539C39.4456 60.4123 39.1404 60.2286 38.9038 59.9459C38.5086 59.4743 38.3966 58.9126 38.4291 58.3196C38.4798 57.3931 38.9829 56.7828 39.8005 56.3902C40.7725 55.9238 41.7477 55.8945 42.7385 56.3195C43.1049 56.4766 43.4912 56.5101 43.8843 56.4828C44.178 56.4619 44.4345 56.3509 44.6642 56.1107ZM41.0824 62.7484C40.3527 62.7421 40.124 62.8321 39.6958 63.2682C39.2163 63.7571 39.2189 64.4349 39.6974 64.9259C40.0606 65.2981 40.5139 65.4724 41.018 65.5247C41.6069 65.5854 42.1868 65.5608 42.7218 65.2661C43.2923 64.9505 43.576 64.3642 43.4478 63.7738C43.3415 63.2865 42.9824 63.0635 42.5454 62.9353C42.0481 62.7897 41.5341 62.762 41.0824 62.7484ZM39.6492 58.0856C39.6759 58.2882 39.6869 58.4934 39.7319 58.6918C39.8486 59.2058 40.0721 59.6575 40.5835 59.8862C41.1839 60.1558 41.9508 60.0401 42.2135 59.1974C42.393 58.6366 42.3721 58.0308 42.1544 57.4837C42.0621 57.2336 41.896 57.0174 41.678 56.8639C41.1567 56.5001 40.2161 56.452 39.8329 57.256C39.7083 57.5172 39.6597 57.7951 39.6492 58.0856Z" fill="#4F382B"/>
<path fill-rule="evenodd" clip-rule="evenodd" d="M32.2846 55.9829C32.304 56.0725 32.3427 56.174 32.3437 56.2761C32.3453 56.4703 32.3244 56.6645 32.3134 56.8587V57.0272L32.4777 56.9016C32.9279 56.531 33.4116 56.2153 33.9748 56.0452C34.9913 55.739 36.0068 56.2954 36.3381 57.3308C36.4637 57.7244 36.5134 58.129 36.5182 58.5405C36.5286 59.4544 36.5349 60.3683 36.5443 61.2822C36.5475 61.6104 36.5852 61.669 36.8956 61.7638C37.0722 61.8165 37.2524 61.8566 37.4347 61.8837C37.5347 61.8994 37.5776 61.9386 37.5724 62.0365L37.5734 62.1265C37.5697 62.505 37.5436 62.5222 37.1766 62.5212C36.2983 62.5196 35.4205 62.5249 34.5422 62.5322C34.2805 62.5343 34.2799 62.5421 34.2538 62.2836L34.2485 62.1349C34.2648 61.9119 34.27 61.914 34.4893 61.8816C34.6369 61.8596 34.7835 61.8256 34.9274 61.7879C35.0756 61.7497 35.1468 61.6403 35.1666 61.4937C35.1766 61.4194 35.1897 61.345 35.1892 61.2707C35.1766 60.272 35.1928 59.2722 35.1384 58.2751C35.0944 57.4685 34.4788 56.9879 33.6691 57.0429C33.2788 57.0699 32.9035 57.2046 32.5851 57.4318C32.3689 57.5831 32.3254 57.8014 32.3265 58.0364C32.3307 58.9702 32.3396 59.904 32.3495 60.8384C32.3516 61.043 32.3574 61.2477 32.3767 61.4508C32.3971 61.6727 32.4751 61.7622 32.6929 61.8104C32.9012 61.8564 33.1137 61.8831 33.3362 61.9203L33.355 62.092C33.3624 62.4924 33.3205 62.5222 32.9316 62.5207C32.0234 62.517 31.1152 62.5228 30.2076 62.5327C30.0647 62.5348 30.004 62.4898 30.0076 62.3506L30.0056 62.2909C29.982 61.9302 29.9925 61.9166 30.3337 61.858L30.495 61.8256C30.8645 61.7423 30.9593 61.6439 30.9645 61.2686C30.9818 60.0799 30.988 58.8917 31.0001 57.703C31.0017 57.5323 30.9373 57.3999 30.7781 57.3292C30.5548 57.2314 30.3303 57.1365 30.1045 57.0445C29.9799 56.9932 29.8375 56.9607 29.8328 56.7885C29.8297 56.6671 29.9595 56.5598 30.1369 56.5237C30.4934 56.4514 30.853 56.3912 31.2053 56.3028C31.556 56.2154 31.9004 56.0981 32.2846 55.9829Z" fill="#4F372B"/>
<path fill-rule="evenodd" clip-rule="evenodd" d="M51.9212 59.0874C51.9044 60.1976 51.616 61.0953 50.8309 61.7689C49.8363 62.6237 48.2849 62.9142 47.0166 62.2751C46.4754 62.0024 46.0775 61.5842 45.8184 61.0414C45.4212 60.2065 45.3217 59.3287 45.529 58.4294C45.7342 57.5401 46.2728 56.8957 47.0789 56.4786C47.908 56.0499 48.7811 55.8824 49.7018 56.1074C50.8665 56.3917 51.7035 57.3412 51.8699 58.5503C51.8997 58.7623 51.9113 58.9769 51.9212 59.0874ZM50.5723 59.6888L50.5273 59.6836C50.5273 59.5789 50.533 59.4742 50.5262 59.3695C50.488 58.7173 50.3415 58.096 49.9635 57.55C49.605 57.0329 49.1166 56.7277 48.4812 56.6832C47.7698 56.633 47.1721 57.0308 46.9622 57.7573C46.647 58.8482 46.7538 59.9113 47.3076 60.9105C47.5489 61.346 47.9064 61.6674 48.3854 61.8365C49.3239 62.1668 50.1562 61.7391 50.4006 60.7781C50.4906 60.4232 50.5168 60.0521 50.5723 59.6888Z" fill="#4F382B"/>
<path fill-rule="evenodd" clip-rule="evenodd" d="M28.8664 59.17C28.8471 59.9667 28.6592 60.7031 28.1671 61.3433C27.64 62.029 26.9156 62.3954 26.0917 62.5498C25.1176 62.732 24.2026 62.5666 23.4201 61.9128C23.0484 61.6019 22.7946 61.2035 22.6271 60.7502C22.3523 60.007 22.2837 59.2454 22.4528 58.4691C22.6334 57.6384 23.1023 57.0035 23.8294 56.5774C24.67 56.0859 25.5772 55.8666 26.546 56.0875C27.7918 56.3722 28.511 57.1841 28.7769 58.4131C28.8303 58.6612 28.8377 58.9177 28.8664 59.17ZM27.5024 59.6955L27.4663 59.6903V59.5406C27.4458 58.8099 27.3029 58.1137 26.8669 57.5065C26.544 57.0558 26.1116 56.7732 25.5573 56.6941C24.6538 56.5654 24.0634 57.1014 23.8676 57.8295C23.6122 58.7805 23.6923 59.7201 24.0875 60.622C24.334 61.1842 24.7234 61.6223 25.3217 61.8348C26.2545 62.1661 27.0993 61.7275 27.3354 60.7701C27.4223 60.42 27.4485 60.0546 27.5024 59.6955Z" fill="#4F372B"/>
<path fill-rule="evenodd" clip-rule="evenodd" d="M50.6114 18.5586C51.2537 20.4152 51.7154 22.3106 51.8677 24.2745C52.0561 26.7117 51.9703 29.132 51.4563 31.5289L51.3903 31.7204C51.2291 31.721 51.0647 31.7005 50.9072 31.7251C49.5761 31.9345 48.2466 32.1512 46.9165 32.3669C45.5414 32.5899 44.1653 32.8039 42.7929 33.0416C42.3066 33.1253 41.7046 33.0254 41.5084 33.6975L41.4141 33.7294L41.4806 29.7104L41.4131 20.0132L42.0538 19.9033C43.1012 19.7321 44.1486 19.5578 45.1975 19.3909C46.4485 19.1925 47.7006 18.9988 48.9527 18.8051C49.5054 18.7203 50.0587 18.6413 50.6114 18.5586Z" fill="#439934"/>
<path fill-rule="evenodd" clip-rule="evenodd" d="M40.0918 45.4455C39.416 44.8644 38.7167 44.3091 38.0692 43.6977C34.5841 40.4105 32.0345 36.5407 30.7788 31.8753C30.4328 30.5919 30.2025 29.287 30.1281 27.9606C30.0758 27.032 30.0009 26.0956 30.0669 25.1717C30.2412 22.7152 30.5966 20.2823 31.3169 17.9158L31.3566 17.8608C31.4268 17.954 31.5273 18.0367 31.5629 18.1419C32.2664 20.2126 32.9641 22.2855 33.6587 24.3598C35.8409 30.8772 38.0205 37.396 40.2064 43.9123C40.2493 44.0395 40.3598 44.1437 40.4393 44.2583L40.0918 45.4455Z" fill="#45A538"/>
<path fill-rule="evenodd" clip-rule="evenodd" d="M50.6111 18.5581C50.0578 18.6403 49.5046 18.7199 48.9523 18.8047C47.7003 18.9984 46.4482 19.192 45.1972 19.3904C44.1488 19.5569 43.1014 19.7312 42.0534 19.9029L41.4127 20.0128L41.4075 19.5951C41.386 19.2517 41.3505 18.9083 41.3457 18.565L41.274 11.9937C41.2573 10.6228 41.2322 9.25195 41.2044 7.88159C41.1903 7.02986 41.1657 6.17834 41.1306 5.32722C41.1097 4.87026 41.0359 4.41539 41.0066 3.95843C40.9893 3.69566 41.0123 3.4308 41.0181 3.16699C41.3447 3.79983 41.6645 4.43737 42 5.0655C42.5303 6.05846 43.3756 6.79023 44.1372 7.58847C47.1449 10.7453 49.28 14.4136 50.6111 18.5581Z" fill="#46A037"/>
<path fill-rule="evenodd" clip-rule="evenodd" d="M41.4146 33.7264L41.5088 33.6944C41.7051 33.0223 42.3071 33.1223 42.7933 33.0386C44.1658 32.8009 45.5419 32.5868 46.917 32.3639C48.247 32.1487 49.5766 31.932 50.9077 31.7221C51.0652 31.6975 51.2296 31.7179 51.3908 31.7174C51.1422 32.6052 50.9464 33.5123 50.6308 34.3754C50.2722 35.3543 49.8388 36.31 49.3787 37.247C48.6895 38.6442 47.8368 39.9547 46.8385 41.1508C46.0711 42.0731 45.2158 42.9268 44.3589 43.769C43.8847 44.2344 43.3267 44.6139 42.8064 45.0326L42.6714 44.9405L42.1861 44.5259L41.6842 43.4246C41.3412 42.1403 41.154 40.8195 41.1267 39.4905L41.1361 39.2664L41.2047 38.296C41.2272 37.9646 41.2576 37.6338 41.2717 37.3025C41.322 36.1111 41.367 34.9188 41.4146 33.7264Z" fill="#409433"/>
<path fill-rule="evenodd" clip-rule="evenodd" d="M41.4143 33.7286C41.3672 34.921 41.3222 36.1139 41.2714 37.3063C41.2573 37.6381 41.2274 37.9689 41.2044 38.2998L40.8987 38.4154C40.2193 36.4154 39.5393 34.4363 38.8746 32.4524C37.7748 29.17 36.6887 25.8828 35.5905 22.5992C34.7037 19.9493 33.8108 17.3014 32.9116 14.6556C32.8692 14.532 32.7488 14.4347 32.665 14.3253L34.6227 10.7256C34.6902 10.8423 34.7787 10.9517 34.8211 11.0773C35.7266 13.7573 36.6306 16.4379 37.5267 19.121C38.6929 22.6123 39.8513 26.1052 41.0165 29.5971C41.0631 29.7363 41.1395 29.8651 41.2128 30.0216L41.4808 29.7096L41.4143 33.7286Z" fill="#4FAA41"/>
<path fill-rule="evenodd" clip-rule="evenodd" d="M32.6646 14.3271C32.7488 14.4365 32.8692 14.5339 32.9111 14.6574C33.8103 17.3032 34.7033 19.9511 35.59 22.6011C36.6882 25.8846 37.7743 29.1718 38.8741 32.4543C39.5389 34.4381 40.2188 36.4167 40.8982 38.4173L41.2039 38.3016L41.1353 39.2721L41.0731 39.4956C40.9668 40.5576 40.8773 41.6218 40.7475 42.6818C40.6826 43.213 40.5439 43.7344 40.4386 44.2599C40.3596 44.1453 40.2486 44.0411 40.2057 43.9139C38.0193 37.3977 35.8402 30.8788 33.658 24.3614C32.9637 22.2874 32.2651 20.2147 31.5622 18.1435C31.5266 18.0383 31.4261 17.9556 31.356 17.8624L32.6646 14.3271Z" fill="#4AA73C"/>
<path fill-rule="evenodd" clip-rule="evenodd" d="M41.4804 29.7131L41.2124 30.025C41.1391 29.8685 41.0627 29.7398 41.0161 29.6005C39.8509 26.1087 38.6926 22.6158 37.5263 19.1244C36.6292 16.4416 35.7273 13.7604 34.8207 11.0808C34.7783 10.9552 34.6898 10.8458 34.6223 10.729L37.0432 7.54443C37.1196 7.64598 37.2285 7.73654 37.2678 7.85117C37.9399 9.81929 38.6057 11.789 39.2683 13.7603C39.8871 15.6017 40.4963 17.4453 41.1224 19.2836C41.1642 19.4066 41.3103 19.4935 41.4076 19.5982L41.4129 20.0159L41.4804 29.7131Z" fill="#57AE47"/>
<path fill-rule="evenodd" clip-rule="evenodd" d="M41.4079 19.596C41.31 19.4919 41.1645 19.405 41.1226 19.2814C40.4971 17.4431 39.8873 15.5996 39.2686 13.7581C38.6064 11.7868 37.9396 9.81713 37.268 7.84903C37.2288 7.7344 37.1199 7.64385 37.0435 7.5423C37.8307 6.77128 38.5934 5.97251 39.4125 5.23708C40.1406 4.58383 40.7258 3.88347 40.7531 2.85073L40.8106 2.64502L41.0179 3.16741C41.0127 3.43122 40.9891 3.69608 41.0064 3.95885C41.0362 4.41581 41.11 4.87068 41.1305 5.32764C41.1687 6.17822 41.187 7.03038 41.2043 7.88201C41.232 9.25237 41.2571 10.6233 41.2739 11.9941L41.3456 18.5654C41.3508 18.9093 41.3869 19.2526 41.4079 19.596Z" fill="#60B24F"/>
<path fill-rule="evenodd" clip-rule="evenodd" d="M40.4394 44.2597C40.5446 43.7342 40.6833 43.2129 40.7482 42.6816C40.878 41.6221 40.9675 40.5575 41.0738 39.4954L41.1005 39.4912L41.1267 39.4959C41.154 40.8249 41.3411 42.1458 41.6841 43.4301C41.6135 43.5233 41.5145 43.6054 41.4768 43.7101C41.1863 44.5298 40.9121 45.3563 40.62 46.1755C40.5802 46.2875 40.4682 46.375 40.3902 46.4728L40.0913 45.4469L40.4394 44.2597Z" fill="#A9AA88"/>
<path fill-rule="evenodd" clip-rule="evenodd" d="M40.3904 46.471C40.4684 46.3726 40.5804 46.2857 40.6202 46.1737C40.9122 45.3545 41.1865 44.528 41.477 43.7083C41.5142 43.6036 41.6136 43.5214 41.6843 43.4282L42.1863 44.5295C42.0874 44.6698 41.9502 44.797 41.8953 44.9535L40.9342 47.7759C40.8944 47.8895 40.7599 47.969 40.6688 48.0648L40.3904 46.471Z" fill="#B6B598"/>
<path fill-rule="evenodd" clip-rule="evenodd" d="M40.6687 48.0651C40.7593 47.9693 40.8943 47.8897 40.9341 47.7761L41.8951 44.9538C41.9496 44.7973 42.0872 44.6701 42.1861 44.5298L42.6719 44.9438C42.4374 45.1757 42.3071 45.4437 42.3856 45.7824L42.238 46.2655C42.171 46.3482 42.0736 46.4204 42.0406 46.5152C41.7051 47.4762 41.3853 48.4425 41.0471 49.403C41.0042 49.5244 40.8854 49.6202 40.8022 49.728L40.6687 48.0651Z" fill="#C2C1A7"/>
<path fill-rule="evenodd" clip-rule="evenodd" d="M40.8015 49.7262C40.8852 49.6184 41.0041 49.5226 41.0465 49.4011C41.3846 48.4406 41.705 47.4744 42.04 46.5134C42.0729 46.4186 42.1703 46.3469 42.2373 46.2637L42.0337 48.4809C41.9792 48.5438 41.9007 48.5987 41.8745 48.6715L41.1972 50.6124C41.1496 50.7448 41.0585 50.8631 40.9873 50.9872C40.924 50.9045 40.8109 50.8244 40.8057 50.7385C40.7858 50.4025 40.7999 50.0638 40.8015 49.7262Z" fill="#CECDB7"/>
<path fill-rule="evenodd" clip-rule="evenodd" d="M40.988 50.9877C41.0592 50.8636 41.1503 50.7453 41.1979 50.6129L41.8753 48.672C41.9014 48.5987 41.9805 48.5443 42.0344 48.4814L42.0396 49.9366L41.5523 51.1861L40.988 50.9877Z" fill="#DBDAC7"/>
<path fill-rule="evenodd" clip-rule="evenodd" d="M41.552 51.1879L42.0393 49.9385L42.1398 51.4167L41.552 51.1879Z" fill="#EBE9DC"/>
<path fill-rule="evenodd" clip-rule="evenodd" d="M42.385 45.7795C42.307 45.4413 42.4368 45.1733 42.6713 44.9409L42.8064 45.033L42.385 45.7795Z" fill="#CECDB7"/>
<path fill-rule="evenodd" clip-rule="evenodd" d="M41.1268 39.497L41.1007 39.4923L41.074 39.4965L41.1363 39.2729L41.1268 39.497Z" fill="#4FAA41"/>
</svg>
