<svg width="100%" height="100%" viewBox="0 0 80 87" fill="none" xmlns="http://www.w3.org/2000/svg">
<circle cx="40" cy="47" r="39.5" fill="white" stroke="#ECECEC"/>
<path d="M4.18809 53.7082H6.62722V44.0758L10.4035 52.4732C10.8488 53.4897 11.4586 53.8489 12.655 53.8489C13.8514 53.8489 14.438 53.4897 14.8833 52.4732L18.6596 44.0758V53.7082H21.0987V44.0918C21.0987 43.1537 20.7234 42.6995 19.9492 42.4656C18.0961 41.8872 16.8528 42.3878 16.2899 43.6388L12.5843 51.9264L8.99628 43.6382C8.45656 42.3878 7.19009 41.8872 5.337 42.465C4.56275 42.6995 4.1875 43.1531 4.1875 44.0912V53.7082H4.18809ZM23.1275 45.8671H25.5661V51.1741C25.5435 51.4621 25.6587 52.1389 26.9946 52.1603C27.6762 52.171 32.2564 52.1603 32.2992 52.1603V45.841H34.7437C34.7549 45.841 34.7413 54.4587 34.7413 54.4943C34.7543 56.62 32.1044 57.0813 30.8825 57.1169H23.1804V55.4758C23.1934 55.4758 30.8772 55.4776 30.8962 55.4752C32.4666 55.3096 32.2808 54.5294 32.2802 54.2669V53.6269H27.0962C24.6843 53.6049 23.1477 52.5522 23.1281 51.3409C23.1269 51.2299 23.181 45.9206 23.1275 45.8671Z" fill="#00618A"/>
<path d="M36.624 53.7088H43.6374C44.4586 53.7088 45.2566 53.5372 45.8895 53.2403C46.9446 52.7558 47.4606 52.0991 47.4606 51.2382V49.4557C47.4606 48.7521 46.8745 48.0949 45.725 47.6579C45.1152 47.4227 44.3642 47.2987 43.6368 47.2987H40.6811C39.6961 47.2987 39.227 47.0018 39.1101 46.3451C39.0869 46.2667 39.0869 46.2044 39.0869 46.126V45.0157C39.0869 44.9533 39.0869 44.8904 39.1101 44.8126C39.227 44.3121 39.4853 44.1714 40.3534 44.093L40.5879 44.0776H47.5544V42.4519H40.7055C39.7204 42.4519 39.2045 42.5142 38.7354 42.6549C37.2813 43.1086 36.6472 43.8276 36.6472 45.0786V46.5012C36.6472 47.5961 37.8911 48.5342 39.9781 48.7533C40.2132 48.7682 40.4472 48.7848 40.6817 48.7848H43.2152C43.3091 48.7848 43.4029 48.7848 43.4735 48.7997C44.2478 48.862 44.5755 49.0033 44.8106 49.2841C44.8709 49.3398 44.9187 49.4075 44.9509 49.483C44.9832 49.5584 44.9991 49.6397 44.9977 49.7217V51.145C44.9977 51.3166 44.8807 51.5356 44.6462 51.7233C44.4354 51.9109 44.0833 52.0362 43.6142 52.0676L43.356 52.0831H36.624V53.7088ZM62.6784 50.879C62.6784 52.5516 63.9217 53.4897 66.4309 53.6779C66.6654 53.6933 66.8999 53.7088 67.1345 53.7088H73.4912V52.0831H67.0882C65.6572 52.0831 65.1181 51.7233 65.1181 50.8629V42.4507H62.679V50.879H62.6784ZM49.0174 50.9633V45.1653C49.0174 43.6928 50.0517 42.7992 52.0966 42.5172C52.3145 42.4859 52.5343 42.4703 52.7544 42.4703H57.3851C57.6202 42.4703 57.8316 42.4857 58.0661 42.5172C60.111 42.7992 61.1459 43.6922 61.1459 45.1653V50.9633C61.1459 52.1591 60.7065 52.798 59.6942 53.2148L62.0977 55.3837H59.2649L57.321 53.6286L55.364 53.7527H52.7544C52.2697 53.7496 51.7876 53.6811 51.3211 53.5491C49.7697 53.1263 49.0174 52.3111 49.0174 50.9633ZM51.6501 50.8226C51.6501 50.9009 51.6732 50.9799 51.697 51.0737C51.8377 51.7476 52.473 52.1235 53.4361 52.1235H55.6519L53.6166 50.2858H56.4493L58.2241 51.8889C58.5518 51.7138 58.7668 51.4478 58.8422 51.1052C58.8653 51.0268 58.8653 50.9484 58.8653 50.8701V45.3078C58.8653 45.2455 58.8653 45.1665 58.8422 45.0881C58.7008 44.4611 58.0661 44.1013 57.1262 44.1013H53.4355C52.3548 44.1013 51.6495 44.5716 51.6495 45.3078V50.8226H51.6501Z" fill="#E48E00"/>
<path d="M75.6368 39.7523C74.1376 39.7114 72.9923 39.8509 72.0126 40.2636C71.7341 40.3811 71.2906 40.3841 71.2455 40.7326C71.3981 40.8935 71.4218 41.1328 71.5435 41.3299C71.7775 41.7081 72.1723 42.2152 72.5244 42.4806C72.9086 42.771 73.3052 43.0821 73.7184 43.3338C74.4517 43.7815 75.2711 44.0368 75.9782 44.4845C76.3945 44.7493 76.8077 45.0818 77.2144 45.3805C77.4157 45.5271 77.5499 45.7569 77.8117 45.849V45.8068C77.6746 45.6322 77.639 45.3924 77.5131 45.2095L76.9585 44.6549C76.4164 43.9353 75.7289 43.3041 74.9968 42.7793C74.4137 42.3607 73.1086 41.7948 72.8652 41.1162L72.8225 41.074C73.2357 41.0271 73.7202 40.8775 74.1014 40.7754C74.7426 40.6032 75.3156 40.6477 75.9777 40.4767L76.873 40.2202V40.0504C76.5387 39.7072 76.2995 39.2524 75.9349 38.9419C74.9807 38.129 73.9381 37.3168 72.8652 36.6387C72.2703 36.2635 71.5346 36.0194 70.9035 35.7012C70.6921 35.5937 70.3192 35.5385 70.1785 35.3598C69.8466 34.9376 69.6667 34.4026 69.4108 33.9104C68.8642 32.8471 68.3523 31.7663 67.8759 30.6697C67.5529 29.9305 67.3415 29.2014 66.9384 28.5382C65.0022 25.3551 62.9181 23.4337 59.6899 21.5456C59.0029 21.1436 58.1758 20.9857 57.3024 20.7785L55.8952 20.693C55.6096 20.5736 55.3116 20.2233 55.0426 20.0535C53.9727 19.3778 51.2295 17.9083 50.4375 19.8409C49.9375 21.0605 51.1856 22.2504 51.6315 22.8685C51.9444 23.3019 52.3458 23.7876 52.5696 24.2751C52.7169 24.5957 52.7418 24.9169 52.8683 25.2559C53.1776 26.0907 53.4478 26.9998 53.8486 27.7711C54.051 28.1617 54.2749 28.5732 54.5308 28.9223C54.6875 29.1361 54.9571 29.2311 54.9993 29.5618C54.7362 29.9299 54.7208 30.5023 54.573 30.9684C53.9068 33.0697 54.1579 35.6816 55.1275 37.2366C55.425 37.7146 56.1256 38.7382 57.0887 38.3451C57.9312 38.002 57.7436 36.9386 57.9846 35.9998C58.0393 35.7879 58.0054 35.6311 58.1123 35.4886V35.5314L58.88 37.0662C59.4482 37.9812 60.4558 38.9365 61.3102 39.5819C61.7532 39.9162 62.1023 40.4951 62.6747 40.6905V40.6471H62.6325C62.5209 40.4743 62.3481 40.4031 62.2056 40.2636C61.8719 39.9364 61.5008 39.5303 61.2253 39.155C60.4481 38.1005 59.7617 36.9457 59.1359 35.7439C58.8373 35.1704 58.5778 34.5374 58.326 33.9532C58.2287 33.7281 58.2299 33.3873 58.028 33.2716C57.7513 33.6991 57.3458 34.0452 57.132 34.5505C56.7912 35.358 56.7473 36.343 56.6208 37.3643L56.5353 37.4064C55.941 37.2633 55.7325 36.6518 55.5117 36.1275C54.9535 34.8016 54.8496 32.6659 55.3413 31.1394C55.4683 30.744 56.0425 29.5001 55.8097 29.1349C55.6987 28.7709 55.3324 28.5607 55.1281 28.2817C54.8601 27.9083 54.6315 27.5081 54.4459 27.0876C53.9887 26.0539 53.7755 24.8931 53.2952 23.8476C53.0648 23.3476 52.6765 22.8423 52.3571 22.3982C52.0038 21.9054 51.6078 21.5432 51.3334 20.9483C51.2361 20.7369 51.1037 20.3979 51.2479 20.1806C51.2937 20.0339 51.3596 19.9727 51.5044 19.9246C51.7514 19.7341 52.4402 19.9882 52.6979 20.0951C53.3819 20.3795 53.9525 20.6496 54.532 21.0332C54.8099 21.2178 55.0907 21.5741 55.4274 21.6726H55.8109C56.4112 21.8104 57.0839 21.7148 57.6444 21.8852C58.636 22.1868 59.5242 22.6553 60.3305 23.1647C62.7881 24.7168 64.7967 26.9256 66.1719 29.5606C66.3927 29.9851 66.4889 30.3895 66.6831 30.8396C67.0761 31.7468 67.5713 32.6808 67.962 33.5684C68.3521 34.4537 68.7327 35.3473 69.2843 36.0841C69.5741 36.4713 70.6939 36.6791 71.2027 36.894C71.5596 37.0448 72.1438 37.2022 72.4816 37.4052C73.1271 37.7947 73.7529 38.2585 74.3579 38.6848C74.6601 38.8997 75.5905 39.367 75.6368 39.7523ZM56.578 23.5079C56.3195 23.5037 56.0616 23.5324 55.8103 23.5934V23.6356H55.8531C56.0021 23.9426 56.2651 24.1397 56.4498 24.4033L56.8767 25.2987L56.9189 25.2565C57.1831 25.0707 57.3036 24.7732 57.3024 24.3184C57.1961 24.2068 57.1807 24.0672 57.0893 23.9348C56.9681 23.7567 56.7318 23.657 56.578 23.5079Z" fill="#00618A"/>
</svg>
