<svg width="100%" height="100%" viewBox="0 0 80 80" fill="none" xmlns="http://www.w3.org/2000/svg">
<circle cx="40" cy="40" r="39.5" fill="white" stroke="#ECECEC"/>
<mask id="mask0_8874_32822" style="mask-type:alpha" maskUnits="userSpaceOnUse" x="0" y="0" width="80" height="80">
<circle cx="40" cy="40" r="39.5" fill="white" stroke="#D0D0CE"/>
</mask>
<g mask="url(#mask0_8874_32822)">
</g>
<g clip-path="url(#clip0_8874_32822)">
<path d="M13 66.8056C13 48.8776 13 30.928 13 13C31.0072 13 48.9928 13 67 13C67 30.9928 67 48.9856 67 66.9568C66.8709 66.9568 66.7418 66.9568 66.6128 66.9568C48.8853 66.9568 31.1793 66.9568 13.4518 66.9568C13.3012 66.9568 13.1506 66.8704 13 66.8056ZM19.3036 54.6664C19.3466 59.548 23.1331 63.0472 27.5004 63.22C30.0606 63.3064 32.2765 62.3992 34.0406 60.52C35.7187 58.7272 36.4717 56.5672 36.3211 54.1264C36.192 51.7936 35.2239 49.828 33.4813 48.2728C31.7171 46.696 29.6088 46.0048 27.2637 46.1344C23.09 46.372 19.3251 49.936 19.3036 54.6664ZM42.5386 18.0328C42.5386 19.5664 42.5386 21.1 42.5386 22.612C42.5386 22.6984 42.5817 22.7848 42.6247 22.8496C45.8948 22.8496 49.1004 22.8496 52.3275 22.8496C55.5546 22.8496 58.7602 22.8712 62.0518 22.8496C62.0518 22.288 62.0518 21.8128 62.0518 21.3376C62.0518 20.3656 62.0518 19.3936 62.0518 18.4216C62.0518 18.076 62.0088 17.9896 61.6215 17.9896C55.404 17.9896 49.1865 17.9896 42.9689 17.9896C42.8183 17.968 42.6892 18.0112 42.5386 18.0328ZM37.5259 18.0112C37.3753 17.9896 37.2247 17.968 37.0956 17.968C30.9426 17.968 24.8112 17.968 18.6582 17.968C18.5721 17.968 18.4645 17.9896 18.3785 17.9896C18.0988 17.9896 18.0558 18.1408 18.0558 18.4C18.0773 19.696 18.0558 21.0136 18.0558 22.3096C18.0558 22.4176 18.0773 22.5472 18.1203 22.6552C18.1418 22.72 18.2279 22.7632 18.2709 22.7848C18.5936 22.8064 18.9163 22.8496 19.239 22.8496C22.7028 22.8496 26.1665 22.8496 29.6303 22.8496C32.1689 22.8496 34.7076 22.8064 37.2462 22.8064C37.4614 22.8064 37.5259 22.72 37.5259 22.5472C37.5259 21.0352 37.5259 19.5448 37.5259 18.0112ZM52.2414 32.6344C55.361 32.6344 58.4805 32.6344 61.5785 32.6344C62.0088 32.6344 62.0303 32.6128 62.0303 32.1592C62.0303 30.9064 62.0303 29.632 62.0303 28.3792C62.0303 28.2712 61.9873 28.1848 61.9873 28.0768C62.0088 27.8392 61.8797 27.796 61.6645 27.796C55.3825 27.796 49.0789 27.796 42.7968 27.796C42.5817 27.796 42.4956 27.8608 42.4956 28.0768C42.4956 29.4808 42.5171 30.8848 42.4956 32.2888C42.4956 32.548 42.5817 32.6128 42.8183 32.6128C45.9809 32.6128 49.1219 32.6344 52.2414 32.6344ZM42.6247 52.1824C42.7968 52.1608 42.9259 52.1608 43.055 52.1608C49.251 52.1608 55.4255 52.1608 61.6215 52.1608C61.7076 52.1608 61.7721 52.1824 61.8582 52.1608C61.9227 52.1392 61.9873 52.0744 62.0088 52.0312C62.0518 51.8584 62.0733 51.6856 62.0733 51.5344C62.0733 50.3248 62.0733 49.1152 62.0733 47.9056C62.0733 47.344 62.0733 47.344 61.5139 47.344C55.49 47.344 49.4877 47.344 43.4637 47.344C43.1626 47.344 42.8829 47.3872 42.5817 47.3872C42.4526 48.1864 42.5171 52.0096 42.6247 52.1824ZM18.0558 32.5696C18.1849 32.5912 18.3139 32.6344 18.4215 32.6344C24.6821 32.6344 30.9426 32.6344 37.2247 32.6344C37.4398 32.6344 37.5474 32.5696 37.5474 32.332C37.5259 30.9496 37.5474 29.5456 37.5474 28.1632C37.5474 27.8392 37.5259 27.8176 37.2032 27.8176C30.9641 27.8176 24.7466 27.8176 18.5076 27.8176C18.0773 27.8176 18.0773 27.8824 18.0773 28.228C18.0558 29.6536 18.0558 31.1008 18.0558 32.5696ZM52.263 37.6024C49.1219 37.6024 46.0024 37.6024 42.8614 37.6024C42.5171 37.6024 42.5171 37.6024 42.5171 37.9264C42.5171 39.2872 42.5171 40.648 42.5171 42.0088C42.5171 42.3544 42.5171 42.3544 42.8614 42.3544C49.1004 42.3544 55.361 42.3544 61.6 42.3544C62.0088 42.3544 62.0518 42.3328 62.0518 41.9008C62.0518 40.5832 62.0518 39.2656 62.0518 37.948C62.0518 37.6456 62.0088 37.6024 61.6861 37.6024C58.545 37.6024 55.404 37.6024 52.263 37.6024ZM27.8446 42.3544C30.9426 42.3544 34.0621 42.3544 37.1602 42.3544C37.5044 42.3544 37.5259 42.3328 37.5259 41.9872C37.5259 40.648 37.5259 39.3304 37.5259 37.9912C37.5259 37.624 37.4614 37.5808 37.1171 37.5808C32.1904 37.5808 27.2422 37.5808 22.3155 37.5808C21.0677 37.5808 19.7984 37.5808 18.5506 37.5808C18.0988 37.5808 18.0558 37.624 18.0558 38.056C18.0558 39.3304 18.0558 40.5832 18.0558 41.8576C18.0558 42.3112 18.0988 42.3544 18.5506 42.3544C21.6486 42.3544 24.7466 42.3544 27.8446 42.3544Z" fill="#FF8C00"/>
<path d="M13 66.8052C13.1506 66.8484 13.3012 66.9564 13.4733 66.9564C31.2008 66.9564 48.9068 66.9564 66.6343 66.9564C66.7634 66.9564 66.8924 66.9564 67.0215 66.9564C67.0215 66.978 67 66.9996 67 66.9996C66.9355 66.9996 66.8709 66.9996 66.8279 66.9996C48.8853 66.9996 30.9641 66.9996 13.0215 66.9996C13 66.9564 13 66.87 13 66.8052Z" fill="white"/>
<path d="M19.3035 54.6684C19.325 49.9164 23.0899 46.374 27.2851 46.1364C29.6302 46.0068 31.7385 46.698 33.5027 48.2748C35.2453 49.83 36.2134 51.7956 36.3425 54.1284C36.4716 56.5692 35.7401 58.7292 34.062 60.522C32.2979 62.4012 30.0604 63.3084 27.5218 63.222C23.1114 63.0708 19.3465 59.5716 19.3035 54.6684Z" fill="white"/>
<path d="M42.5386 18.0345C42.6892 18.0129 42.8398 17.9697 42.9689 17.9697C49.1864 17.9697 55.4039 17.9697 61.6215 17.9697C62.0087 17.9697 62.0517 18.0561 62.0517 18.4017C62.0302 19.3737 62.0517 20.3457 62.0517 21.3177C62.0517 21.7929 62.0517 22.2681 62.0517 22.8297C58.7601 22.8513 55.5545 22.8297 52.3274 22.8297C49.1003 22.8297 45.8732 22.8297 42.6246 22.8297C42.6031 22.7649 42.5386 22.6785 42.5386 22.5921C42.5386 21.0801 42.5386 19.5681 42.5386 18.0345Z" fill="white"/>
<path d="M37.5258 18.0112C37.5258 19.5448 37.5258 21.0352 37.5258 22.504C37.5258 22.6984 37.4612 22.7632 37.2461 22.7632C34.7075 22.7632 32.1688 22.8064 29.6302 22.8064C26.1664 22.8064 22.7027 22.8064 19.2389 22.8064C18.9162 22.8064 18.5935 22.7848 18.2708 22.7416C18.2063 22.7416 18.1417 22.6768 18.1202 22.612C18.0772 22.504 18.0557 22.3744 18.0557 22.2664C18.0557 20.9704 18.0557 19.6528 18.0557 18.3568C18.0557 18.0976 18.0987 17.9464 18.3784 17.9464C18.4644 17.9464 18.572 17.9248 18.6581 17.9248C24.811 17.9248 30.9425 17.9248 37.0955 17.9248C37.2246 17.968 37.3752 18.0112 37.5258 18.0112Z" fill="white"/>
<path d="M52.2411 32.6361C49.1001 32.6361 45.9806 32.6361 42.8396 32.6361C42.6029 32.6361 42.5168 32.5713 42.5168 32.3121C42.5384 30.9081 42.5168 29.5041 42.5168 28.1001C42.5168 27.8625 42.5814 27.8193 42.818 27.8193C49.1001 27.8193 55.4037 27.8193 61.6858 27.8193C61.9009 27.8193 62.0085 27.8409 62.0085 28.1001C62.0085 28.2081 62.0515 28.2945 62.0515 28.4025C62.0515 29.6553 62.0515 30.9297 62.0515 32.1825C62.0515 32.6145 62.03 32.6577 61.5997 32.6577C58.4802 32.6361 55.3607 32.6361 52.2411 32.6361Z" fill="white"/>
<path d="M42.6247 52.1831C42.5172 52.0103 42.4741 48.1871 42.5602 47.3879C42.8614 47.3663 43.1411 47.3447 43.4423 47.3447C49.4662 47.3447 55.4686 47.3447 61.4925 47.3447C62.0518 47.3447 62.0518 47.3447 62.0518 47.9063C62.0518 49.1159 62.0518 50.3255 62.0518 51.5351C62.0518 51.7079 62.0303 51.8807 61.9873 52.0319C61.9658 52.0751 61.9012 52.1399 61.8367 52.1615C61.7721 52.1831 61.6861 52.1615 61.6 52.1615C55.404 52.1615 49.2295 52.1615 43.0335 52.1615C42.9259 52.1615 42.7753 52.1615 42.6247 52.1831Z" fill="white"/>
<path d="M18.0559 32.5713C18.0559 31.1025 18.0344 29.6769 18.0559 28.2297C18.0559 27.8841 18.0559 27.8193 18.4862 27.8193C24.7253 27.8193 30.9428 27.8193 37.1818 27.8193C37.483 27.8193 37.5261 27.8409 37.5261 28.1649C37.5261 29.5473 37.5261 30.9513 37.5261 32.3337C37.5261 32.5713 37.44 32.6361 37.2034 32.6361C30.9428 32.6361 24.6822 32.6361 18.4002 32.6361C18.3141 32.6145 18.185 32.5929 18.0559 32.5713Z" fill="white"/>
<path d="M52.2627 37.6001C55.4037 37.6001 58.5447 37.6001 61.6858 37.6001C61.987 37.6001 62.0515 37.6433 62.0515 37.9457C62.0515 39.2633 62.0515 40.5809 62.0515 41.8985C62.0515 42.3305 62.0085 42.3521 61.5997 42.3521C55.3607 42.3521 49.1001 42.3521 42.8611 42.3521C42.5168 42.3521 42.5168 42.3521 42.5168 42.0065C42.5168 40.6457 42.5168 39.2849 42.5168 37.9241C42.5168 37.6001 42.5168 37.6001 42.8611 37.6001C46.0021 37.6001 49.1431 37.6001 52.2627 37.6001Z" fill="white"/>
<path d="M27.8445 42.3532C24.7465 42.3532 21.6485 42.3532 18.5505 42.3532C18.0772 42.3532 18.0557 42.31 18.0557 41.8564C18.0557 40.582 18.0557 39.3292 18.0557 38.0548C18.0557 37.6228 18.0987 37.5796 18.5505 37.5796C19.7983 37.5796 21.0676 37.5796 22.3154 37.5796C27.2421 37.5796 32.1903 37.5796 37.117 37.5796C37.4612 37.5796 37.5258 37.6228 37.5258 37.99C37.5258 39.3292 37.5258 40.6468 37.5258 41.986C37.5258 42.3316 37.5043 42.3532 37.16 42.3532C34.062 42.3532 30.9425 42.3532 27.8445 42.3532Z" fill="white"/>
</g>
<defs>
<clipPath id="clip0_8874_32822">
<rect width="54" height="54" fill="white" transform="translate(13 13)"/>
</clipPath>
</defs>
</svg>
