<svg width="100%" height="100%" viewBox="0 0 80 80" fill="none" xmlns="http://www.w3.org/2000/svg">
<circle cx="40" cy="40" r="39.5" fill="white" stroke="#ECECEC"/>
<mask id="mask0_8874_32835" style="mask-type:alpha" maskUnits="userSpaceOnUse" x="0" y="0" width="80" height="80">
<circle cx="40" cy="40" r="39.5" fill="white" stroke="white"/>
</mask>
<g mask="url(#mask0_8874_32835)">
<path d="M34.8816 40.4697H39.894L37.2464 36.162L32.3787 43.9424H30.1652L36.0854 34.6079C36.2144 34.4216 36.3859 34.2692 36.5855 34.1635C36.785 34.0577 37.0068 34.0017 37.2323 34C37.4577 33.9984 37.6803 34.0513 37.8813 34.1541C38.0823 34.257 38.256 34.4069 38.3877 34.5913L44.3242 43.9424H42.1108L41.0682 42.2028H35.9966L34.8915 40.4697H34.8816ZM57.8912 42.2028V34.0943H56.01V43.0014C56.0096 43.1251 56.0342 43.2477 56.0823 43.3616C56.1303 43.4755 56.2008 43.5784 56.2895 43.6641C56.3786 43.7559 56.485 43.8287 56.6025 43.8782C56.72 43.9277 56.8462 43.953 56.9736 43.9524H65.5249L66.6399 42.2127H57.8814L57.8912 42.2028ZM26.7875 40.7547C27.6641 40.7547 28.5049 40.4038 29.1247 39.7793C29.7446 39.1548 30.0929 38.3077 30.0929 37.4245C30.0929 36.5412 29.7446 35.6942 29.1247 35.0697C28.5049 34.4451 27.6641 34.0943 26.7875 34.0943H18.565V43.9424H20.443V35.8372H26.6724C27.0919 35.8372 27.4943 36.0052 27.791 36.3041C28.0877 36.603 28.2543 37.0084 28.2543 37.4311C28.2543 37.8538 28.0877 38.2592 27.791 38.5581C27.4943 38.857 27.0919 39.025 26.6724 39.025H21.3738L26.9848 43.9424H29.7114L25.9422 40.7547H26.7875ZM7.01418 43.9424H12.6942C13.9681 43.9091 15.1786 43.3759 16.0679 42.4564C16.9572 41.5369 17.4549 40.3038 17.4549 39.02C17.4549 37.7362 16.9572 36.5031 16.0679 35.5836C15.1786 34.6641 13.9681 34.1309 12.6942 34.0976H7.01418C6.36191 34.0805 5.71285 34.1952 5.10528 34.4349C4.49771 34.6746 3.94393 35.0345 3.4766 35.4933C3.00928 35.9521 2.63786 36.5005 2.38426 37.1062C2.13065 37.7119 2 38.3626 2 39.02C2 39.6774 2.13065 40.3281 2.38426 40.9338C2.63786 41.5395 3.00928 42.0879 3.4766 42.5467C3.94393 43.0055 4.49771 43.3654 5.10528 43.6051C5.71285 43.8448 6.36191 43.9595 7.01418 43.9424ZM12.566 42.2094H7.13916C6.31811 42.1827 5.53954 41.8353 4.96811 41.2407C4.39667 40.6462 4.07717 39.851 4.07717 39.0233C4.07717 38.1957 4.39667 37.4005 4.96811 36.8059C5.53954 36.2113 6.31811 35.8639 7.13916 35.8372H12.566C12.9898 35.8235 13.4121 35.8957 13.8077 36.0496C14.2033 36.2035 14.5642 36.436 14.8689 36.7332C15.1736 37.0304 15.4158 37.3863 15.5813 37.7797C15.7467 38.1731 15.8319 38.596 15.8319 39.0233C15.8319 39.4506 15.7467 39.8735 15.5813 40.2669C15.4158 40.6603 15.1736 41.0162 14.8689 41.3134C14.5642 41.6106 14.2033 41.8431 13.8077 41.997C13.4121 42.1509 12.9898 42.2232 12.566 42.2094ZM48.248 43.9424H54.0464L55.145 42.2094H48.3763C47.9524 42.2232 47.5301 42.1509 47.1345 41.997C46.7389 41.8431 46.378 41.6106 46.0733 41.3134C45.7687 41.0162 45.5264 40.6603 45.361 40.2669C45.1955 39.8735 45.1103 39.4506 45.1103 39.0233C45.1103 38.596 45.1955 38.1731 45.361 37.7797C45.5264 37.3863 45.7687 37.0304 46.0733 36.7332C46.378 36.436 46.7389 36.2035 47.1345 36.0496C47.5301 35.8957 47.9524 35.8235 48.3763 35.8372H53.8853L54.997 34.0976H48.248C47.5957 34.0805 46.9467 34.1952 46.3391 34.4349C45.7315 34.6746 45.1777 35.0345 44.7104 35.4933C44.2431 35.9521 43.8717 36.5005 43.6181 37.1062C43.3645 37.7119 43.2338 38.3626 43.2338 39.02C43.2338 39.6774 43.3645 40.3281 43.6181 40.9338C43.8717 41.5395 44.2431 42.0879 44.7104 42.5467C45.1777 43.0055 45.7315 43.3654 46.3391 43.6051C46.9467 43.8448 47.5957 43.9595 48.248 43.9424ZM71.228 42.2094C70.5389 42.2097 69.8686 41.9832 69.3188 41.5646C68.7691 41.1459 68.3701 40.5579 68.1824 39.8898H76.2141L77.3192 38.1535H68.1824C68.3696 37.4852 68.7685 36.8968 69.3183 36.4781C69.8682 36.0593 70.5388 35.8331 71.228 35.8339H76.7403L77.8421 34.0943H71.0997C69.8259 34.1276 68.6153 34.6608 67.7261 35.5803C66.8368 36.4998 66.3391 37.7329 66.3391 39.0167C66.3391 40.3005 66.8368 41.5336 67.7261 42.4531C68.6153 43.3726 69.8259 43.9058 71.0997 43.9391H76.8982L78 42.2061H71.2247" fill="#C74634"/>
</g>
</svg>
