<svg width="100%" height="100%" viewBox="0 0 80 80" fill="none" xmlns="http://www.w3.org/2000/svg">
<circle cx="40" cy="40" r="39.5" fill="white" stroke="#ECECEC"/>
<g clip-path="url(#clip0_8874_32836)">
<path d="M74.5781 26.3433H74.8292C74.9965 26.4127 74.9965 26.5484 74.9965 26.6178V26.6857C74.9965 26.7212 74.9562 26.789 74.871 26.8584H74.8292L75.0817 27.2671H74.871L74.6603 26.8924H74.5348V27.2671H74.3674V26.3433H74.5781ZM74.6603 26.7536C74.7036 26.7536 74.7873 26.7536 74.8292 26.6857V26.6178C74.8292 26.5484 74.7873 26.5145 74.7455 26.4806H74.5348V26.7536H74.6603ZM74.0312 26.823C74.0312 26.4466 74.3256 26.1721 74.6603 26.1721C75.0383 26.1721 75.3327 26.4466 75.3327 26.823C75.3327 27.1654 75.0383 27.4723 74.6603 27.4723C74.3256 27.4723 74.0312 27.1654 74.0312 26.823ZM74.6603 27.6435C75.1235 27.6435 75.5016 27.2671 75.5016 26.823C75.5016 26.3788 75.1235 26.0024 74.6603 26.0024C74.1985 26.0024 73.822 26.3788 73.822 26.823C73.822 27.2671 74.1985 27.6435 74.6603 27.6435Z" fill="#E12925"/>
<path d="M66.7459 33.9529C65.4428 33.9529 64.3505 33.0969 64.0158 31.9001H71.2391L72.2478 30.3609H64.0158C64.3505 29.1625 65.4428 28.2725 66.7459 28.2725H71.7024L72.7095 26.7349H66.6188C64.1831 26.7349 62.2495 28.6843 62.2495 31.1135C62.2495 33.5427 64.1831 35.4906 66.6188 35.4906H71.8697L72.835 33.9529H66.7459ZM46.038 35.4906C43.6024 35.4906 41.6284 33.5427 41.6284 31.1135C41.6284 28.6843 43.6024 26.7349 46.038 26.7349H52.1288L51.1201 28.2725H46.1651C44.5692 28.2725 43.308 29.5403 43.308 31.1135C43.308 32.6867 44.5692 33.9529 46.1651 33.9529H52.2558L51.2471 35.4906H46.038ZM13.9095 33.9529C15.4621 33.9529 16.7636 32.6867 16.7636 31.1135C16.7636 29.5403 15.4621 28.2725 13.9095 28.2725H8.99483C7.44077 28.2725 6.13927 29.5403 6.13927 31.1135C6.13927 32.6867 7.44077 33.9529 8.99483 33.9529H13.9095ZM8.91116 35.4906C6.47394 35.4906 4.5 33.5427 4.5 31.1135C4.5 28.6843 6.47394 26.7349 8.91116 26.7349H13.9932C16.4289 26.7349 18.4028 28.6843 18.4028 31.1135C18.4028 33.5427 16.4289 35.4906 13.9932 35.4906H8.91116ZM26.7185 32.6527C28.3562 32.6527 29.7011 31.3526 29.7011 29.71C29.7011 28.069 28.3562 26.7349 26.7185 26.7349H19.3263V35.4906H21.0058V28.2725H26.593C27.3909 28.2725 28.0215 28.9234 28.0215 29.71C28.0215 30.4981 27.3909 31.1135 26.593 31.1135H21.8472L26.8858 35.4906H29.323L25.9205 32.6527H26.7185ZM54.7333 33.9529V26.7349H53.0104V34.6701C53.0104 34.8752 53.1359 35.0804 53.2614 35.2516C53.4318 35.4228 53.6828 35.4906 53.892 35.4906H61.6204L62.6291 33.9529H54.7333ZM33.9852 32.4137H38.5203L36.1265 28.581L31.7587 35.4906H29.7414L35.076 27.179C35.2867 26.8366 35.7066 26.667 36.1265 26.667C36.5464 26.667 36.9244 26.8366 37.177 27.179L42.5116 35.4906H40.4943L39.5708 33.9529H34.9939" fill="#E20619"/>
<path d="M4.5 41.1638H72.9122V40.2754H4.5V41.1638Z" fill="#5E5E5D"/>
<path d="M5.66608 47.1714V52.3179H7.19222C7.97321 52.3179 8.51775 51.9345 8.82585 51.1677C8.99422 50.7468 9.07841 50.2457 9.07841 49.6644C9.07841 48.8619 8.95123 48.2467 8.69688 47.8187C8.4461 47.3871 7.94455 47.1714 7.19222 47.1714H5.66608ZM7.47166 45.8018C7.96246 45.809 8.37087 45.866 8.69688 45.973C9.25216 46.1549 9.70177 46.4884 10.0457 46.9734C10.3215 47.3657 10.5096 47.7902 10.6099 48.2467C10.7102 48.7032 10.7604 49.1383 10.7604 49.552C10.7604 50.6006 10.549 51.4887 10.1263 52.2162C9.55309 53.197 8.66822 53.6874 7.47166 53.6874H4.05933V45.8018H7.47166Z" fill="#19171B"/>
<path d="M15.6653 50.7076H17.6751L16.6863 47.6047L15.6653 50.7076ZM15.7674 45.8018H17.6375L20.4426 53.6874H18.6478L18.1373 52.0664H15.2193L14.6712 53.6874H12.9408L15.7674 45.8018Z" fill="#19171B"/>
<path d="M27.8786 45.8018V47.1981H25.5087V53.6874H23.8429V47.1981H21.4623V45.8018H27.8786Z" fill="#19171B"/>
<path d="M31.6872 50.7076H33.697L32.7083 47.6047L31.6872 50.7076ZM31.7893 45.8018H33.6594L36.4645 53.6874H34.6697L34.1592 52.0664H31.2412L30.6931 53.6874H28.9628L31.7893 45.8018Z" fill="#19171B"/>
<path d="M40.5688 47.1714V48.9101H42.5141C42.8616 48.9101 43.1428 48.8459 43.3577 48.7175C43.5763 48.5855 43.6855 48.3537 43.6855 48.022C43.6855 47.6546 43.5422 47.4121 43.2556 47.2944C43.0084 47.2124 42.6932 47.1714 42.3098 47.1714H40.5688ZM40.5688 50.2154V52.3179H42.5141C42.8616 52.3179 43.132 52.2715 43.3255 52.1788C43.6766 52.0076 43.8521 51.6795 43.8521 51.1944C43.8521 50.7843 43.6819 50.5025 43.3416 50.3492C43.1517 50.2636 42.8848 50.219 42.5409 50.2154H40.5688ZM42.8365 45.8018C43.8073 45.8161 44.4952 46.0961 44.9 46.6417C45.1436 46.977 45.2654 47.3782 45.2654 47.8454C45.2654 48.3269 45.1436 48.7139 44.9 49.0064C44.7639 49.1704 44.5632 49.3202 44.2981 49.4557C44.703 49.602 45.0075 49.8338 45.2117 50.1512C45.4195 50.4686 45.5234 50.8538 45.5234 51.3068C45.5234 51.774 45.4051 52.1931 45.1687 52.564C45.0182 52.8101 44.8301 53.0169 44.6044 53.1846C44.3501 53.3772 44.0492 53.5091 43.7017 53.5804C43.3577 53.6518 42.9834 53.6874 42.5785 53.6874H38.9889V45.8018H42.8365Z" fill="#19171B"/>
<path d="M50.568 50.7076H52.5778L51.589 47.6047L50.568 50.7076ZM50.6701 45.8018H52.5402L55.3453 53.6874H53.5504L53.0399 52.0664H50.122L49.5739 53.6874H47.8435L50.6701 45.8018Z" fill="#19171B"/>
<path d="M59.0411 51.2533C59.0913 51.6135 59.1898 51.8828 59.3367 52.0611C59.6053 52.3857 60.0657 52.5479 60.7177 52.5479C61.1082 52.5479 61.4253 52.5051 61.6689 52.4195C62.131 52.2555 62.3621 51.9505 62.3621 51.5047C62.3621 51.2444 62.2474 51.0429 62.0182 50.9002C61.7889 50.7611 61.4288 50.638 60.938 50.5311L60.0997 50.3438C59.2758 50.1583 58.7061 49.9568 58.3909 49.7393C57.8571 49.3755 57.5902 48.8066 57.5902 48.0327C57.5902 47.3265 57.8481 46.7398 58.364 46.2726C58.8799 45.8054 59.6376 45.5718 60.6371 45.5718C61.4718 45.5718 62.183 45.7929 62.7705 46.2352C63.3616 46.6738 63.6715 47.3122 63.7001 48.1504H62.1095C62.0809 47.676 61.8731 47.339 61.4862 47.1393C61.2282 47.0073 60.9076 46.9413 60.5243 46.9413C60.0979 46.9413 59.7576 47.0269 59.5032 47.1981C59.2489 47.3693 59.1217 47.6083 59.1217 47.915C59.1217 48.1968 59.2471 48.4072 59.4979 48.5463C59.6591 48.639 60.003 48.7478 60.5296 48.8726L61.8946 49.199C62.4928 49.3416 62.9442 49.5324 63.2488 49.7714C63.7216 50.1423 63.9581 50.6791 63.9581 51.3817C63.9581 52.1021 63.6804 52.7013 63.1252 53.1792C62.5735 53.6536 61.7925 53.8907 60.7822 53.8907C59.7504 53.8907 58.939 53.6571 58.3479 53.1899C57.7568 52.7191 57.4612 52.0736 57.4612 51.2533H59.0411Z" fill="#19171B"/>
<path d="M72.5279 47.1981H68.3364V48.8726H72.184V50.2422H68.3364V52.2697H72.7214V53.6874H66.7189V45.8018H72.5279V47.1981Z" fill="#19171B"/>
</g>
<defs>
<clipPath id="clip0_8874_32836">
<rect width="71" height="28.1912" fill="white" transform="translate(4.5 26)"/>
</clipPath>
</defs>
</svg>
