<svg width="100%" height="100%" viewBox="0 0 80 80" fill="none" xmlns="http://www.w3.org/2000/svg">
<circle cx="40" cy="40" r="39.5" fill="white" stroke="#ECECEC"/>
<path d="M64.8207 11.3593C61.506 7.67481 55.5143 6.09521 47.8494 6.09521H25.6031C24.0349 6.09521 22.7023 7.2075 22.4568 8.71565L13.194 66.008C13.0098 67.1376 13.9068 68.1611 15.081 68.1611H28.8148L32.2641 46.8249L32.1572 47.4931C32.4028 45.9849 33.7254 44.8726 35.2917 44.8726H41.818C54.6391 44.8726 64.6781 39.794 67.6106 25.1025C67.6977 24.6681 67.773 24.2452 67.8383 23.8319C67.468 23.6407 67.468 23.6407 67.8383 23.8319C68.7115 18.4018 67.832 14.7058 64.8207 11.3593Z" fill="#003087"/>
<path d="M64.8207 11.3593C61.506 7.67481 55.5143 6.09521 47.8494 6.09521H25.6031C24.0349 6.09521 22.7023 7.2075 22.4568 8.71565L13.194 66.008C13.0098 67.1376 13.9068 68.1611 15.081 68.1611H28.8148L32.2641 46.8249L32.1572 47.4931C32.4028 45.9849 33.7254 44.8726 35.2917 44.8726H41.818C54.6391 44.8726 64.6781 39.794 67.6106 25.1025C67.6977 24.6681 67.773 24.2452 67.8383 23.8319C67.468 23.6407 67.468 23.6407 67.8383 23.8319C68.7115 18.4018 67.832 14.7058 64.8207 11.3593Z" fill="#003087"/>
<path d="M35.9711 23.9024C36.1176 22.9948 36.7156 22.2513 37.5195 21.8748C37.8858 21.7049 38.2937 21.6102 38.7214 21.6102H56.162C58.2272 21.6102 60.1538 21.7415 61.9141 22.0177C62.4191 22.0968 62.9081 22.1876 63.3834 22.2919C63.8586 22.3942 64.3199 22.5101 64.7674 22.6375C64.9912 22.7012 65.211 22.767 65.4268 22.8364C66.2921 23.1184 67.098 23.4467 67.8385 23.8309C68.7118 18.3989 67.8322 14.7048 64.8209 11.3583C61.5043 7.67384 55.5145 6.09424 47.8496 6.09424H25.6014C24.0352 6.09424 22.7026 7.20652 22.457 8.71467L13.1942 66.0051C13.0101 67.1367 13.907 68.1582 15.0793 68.1582H28.8151L32.2644 46.822L35.9711 23.9024Z" fill="#002F86"/>
<path d="M67.839 23.8315C67.7717 24.2467 67.6983 24.6677 67.6113 25.1022C64.6788 39.7917 54.6398 44.8723 41.8187 44.8723H35.2904C33.7242 44.8723 32.4015 45.9845 32.1579 47.4927L28.8155 68.1588L27.8671 74.0215C27.7067 75.0102 28.4908 75.9062 29.5165 75.9062H41.094C42.4642 75.9062 43.6305 74.9329 43.8444 73.614L43.9573 73.0386L46.1394 59.5521L46.28 58.8067C46.4939 57.4878 47.6601 56.5146 49.0303 56.5146H50.7629C61.9781 56.5146 70.7598 52.0712 73.326 39.2201C74.3972 33.8498 73.8428 29.3659 71.0093 26.2164C70.1499 25.2625 69.0826 24.4746 67.8392 23.8315" fill="#009CDE"/>
<path d="M64.7687 22.6367C64.3212 22.5092 63.8598 22.3934 63.3846 22.291C62.9094 22.1886 62.4183 22.0979 61.9154 22.0188C60.1531 21.7407 58.2285 21.6094 56.1613 21.6094H38.7227C38.293 21.6094 37.8851 21.7041 37.5208 21.8759C36.7149 22.2524 36.1189 22.9939 35.9723 23.9035L32.2656 46.8231L32.1587 47.4912C32.4022 45.9831 33.7249 44.8708 35.2912 44.8708H41.8195C54.6405 44.8708 64.6796 39.7921 67.6121 25.1007C67.6992 24.6662 67.7724 24.2453 67.8398 23.8301C67.0972 23.4477 66.2933 23.1175 65.428 22.8375C65.2122 22.768 64.9924 22.7003 64.7687 22.6367Z" fill="#012069"/>
</svg>
