<svg width="100%" height="100%" viewBox="0 0 80 80" fill="none" xmlns="http://www.w3.org/2000/svg">
<circle cx="40" cy="40" r="39.5" fill="white" stroke="#ECECEC"/>
<path d="M24 9.75394V8H45.8834C50.9656 8 55.2407 9.68898 58.7085 13.0669C62.2362 16.3799 64 20.8622 64 26.5138C64 32.1653 62.2362 36.6801 58.7085 40.0581C55.2407 43.371 50.9656 45.0275 45.8834 45.0275H36.8251V68.8819C36.8251 69.7913 36.8251 70.2461 36.8251 70.2461H42.6667V72H24V70.2461H29.4709C29.4709 70.2461 29.4709 69.7913 29.4709 68.8819C29.4709 68.8819 29.4709 33.5575 29.4709 10.9232C29.4709 10.4666 29.4709 9.75394 29.4709 9.75394H24ZM45.435 10.7283H36.8251V42.2992H45.435C48.9626 42.2992 51.7429 40.7401 53.7758 37.622C55.8087 34.439 56.8251 30.7362 56.8251 26.5138C56.8251 22.2913 55.8087 18.6211 53.7758 15.5029C51.7429 12.3199 48.9626 10.7283 45.435 10.7283Z" fill="#01395A"/>
</svg>
