<svg width="100%" height="100%" viewBox="0 0 80 80" fill="none" xmlns="http://www.w3.org/2000/svg">
<circle cx="40" cy="40" r="39.5" fill="white" stroke="#ECECEC"/>
<path d="M40.0329 0C17.9242 0 0 17.8947 0 39.9671C0 56.9079 10.5436 71.3816 25.4365 77.2039C25.0741 74.0461 24.7775 69.1776 25.5683 65.7237C26.2932 62.5987 30.247 45.8553 30.247 45.8553C30.247 45.8553 29.0609 43.4539 29.0609 39.9342C29.0609 34.375 32.2899 30.2303 36.3096 30.2303C39.7363 30.2303 41.3838 32.7961 41.3838 35.8553C41.3838 39.2763 39.2091 44.4079 38.0559 49.1776C37.1004 53.1579 40.0658 56.4145 43.9867 56.4145C51.1037 56.4145 56.5732 48.9145 56.5732 38.125C56.5732 28.5526 49.6869 21.875 39.8352 21.875C28.4349 21.875 21.7462 30.3947 21.7462 39.2105C21.7462 42.6316 23.0642 46.3158 24.7116 48.3224C25.0411 48.7171 25.0741 49.0789 24.9752 49.4737C24.6787 50.7237 23.9868 53.4539 23.855 54.0132C23.6902 54.7368 23.2619 54.9013 22.5041 54.5395C17.4958 52.2039 14.3657 44.9342 14.3657 39.0461C14.3657 26.4474 23.5255 14.8684 40.8236 14.8684C54.6951 14.8684 65.5023 24.7368 65.5023 37.9605C65.5023 51.7434 56.8038 62.8289 44.7445 62.8289C40.6918 62.8289 36.8698 60.7237 35.5848 58.2237C35.5848 58.2237 33.5749 65.8553 33.0807 67.7303C32.191 71.2171 29.7528 75.5592 28.1054 78.2237C31.8615 79.375 35.8154 80 39.967 80C62.0756 80 79.9998 62.1053 79.9998 40.0329C80.0657 17.8947 62.1415 0 40.0329 0Z" fill="#E60023"/>
<circle cx="40" cy="40" r="39.5" stroke="#ECECEC"/>
</svg>
