<svg width="100%" height="100%" viewBox="0 0 80 80" fill="none" xmlns="http://www.w3.org/2000/svg">
<circle cx="40" cy="40" r="39.5" fill="white" stroke="#ECECEC"/>
<g clip-path="url(#clip0_8874_32846)">
<path d="M39.9988 1C18.4598 1 0.998779 18.4598 0.998779 40C0.998779 61.5402 18.461 79 39.9988 79C61.5365 79 78.9988 61.539 78.9988 40C78.9988 18.461 61.5365 1 39.9988 1ZM39.9988 73.9909C33.8709 73.9909 28.9021 69.8959 28.9021 64.8503H51.0833C51.0833 69.8984 46.1145 73.9909 39.9866 73.9909H39.9988ZM58.341 61.8242H21.6688V55.1771H58.341V61.8242ZM58.2093 51.7573H21.7748L21.4128 51.338C17.6591 46.7799 16.7767 44.3912 15.9187 41.978C15.9041 41.8976 20.4695 42.9116 23.7065 43.6392C23.7065 43.6392 25.3726 44.0243 27.8064 44.4679C25.4688 41.7257 24.0807 38.2438 24.0807 34.6814C24.0807 26.8631 30.0769 20.032 27.9137 14.5111C30.0197 14.6817 32.2707 18.9546 32.423 25.6334C34.6619 22.5402 35.5979 16.8925 35.5979 13.4288C35.5979 9.84325 37.9622 5.67756 40.3242 5.53497C38.2157 9.00841 40.8702 11.9822 43.2272 19.3678C44.1121 22.1417 43.9987 26.8095 44.6812 29.7698C44.9079 23.6212 45.9646 14.6512 49.8658 11.5544C48.1449 15.4544 50.1217 20.3355 51.4721 22.6816C53.6537 26.467 54.9736 29.3359 54.9736 34.7472C54.9736 38.3839 53.6305 41.8074 51.3661 44.4972C53.9413 44.0133 55.7194 43.5783 55.7194 43.5783L64.0825 41.9451C64.0825 41.9439 62.8674 46.942 58.1984 51.7561L58.2093 51.7573Z" fill="#DA4E31"/>
</g>
<defs>
<clipPath id="clip0_8874_32846">
<rect width="78" height="78" fill="white" transform="translate(1 1)"/>
</clipPath>
</defs>
</svg>
