<svg width="100%" height="100%" viewBox="0 0 80 80" fill="none" xmlns="http://www.w3.org/2000/svg">
<circle cx="40" cy="40" r="39.5" fill="white" stroke="#ECECEC"/>
<path d="M62.3789 21.0698L54.8306 49.011H54.7637L46.681 21.0698H28.7787L22.6331 32.4559L16.1536 21.0698H7.06886L17.6231 38.9522L6 59H14.3499L21.7648 45.7279L29.4467 59H43.2074V32.6654H43.2742C43.4746 33.7831 43.675 34.6912 43.8086 35.5294C43.9422 36.3676 44.1426 37.0662 44.2762 37.6949C44.4098 38.3934 44.6102 39.022 44.8106 39.5809C45.011 40.1397 45.2114 40.8382 45.345 41.5368L50.7557 58.9301H57.8365L63.2473 41.5368C63.6481 40.1397 64.0488 38.8125 64.3828 37.4853C64.7836 36.0184 65.0509 34.5515 65.2513 33.0845H65.3181V59H73V21L62.3789 21.0698ZM26.6411 39.022L36.1267 22.6066V55.1581L26.6411 39.022Z" fill="url(#paint0_linear_8874_32847)"/>
<defs>
<linearGradient id="paint0_linear_8874_32847" x1="14.8848" y1="21.3943" x2="38.0339" y2="76.2577" gradientUnits="userSpaceOnUse">
<stop offset="0.042" stop-color="#21DBAA"/>
<stop offset="0.358" stop-color="#00B4EF"/>
<stop offset="0.433" stop-color="#01A7EC"/>
<stop offset="0.568" stop-color="#0487E4"/>
<stop offset="0.68" stop-color="#0768DD"/>
<stop offset="0.965" stop-color="#5F1AE5"/>
</linearGradient>
</defs>
</svg>
