<svg width="100%" height="100%" viewBox="0 0 80 80" fill="none" xmlns="http://www.w3.org/2000/svg">
<circle cx="40" cy="40" r="39.5" fill="white" stroke="#ECECEC"/>
<g clip-path="url(#clip0_8874_32906)">
<path d="M39.6528 3C40.3727 3.0765 41.0935 3.14567 41.8118 3.23031C47.2423 3.86751 52.2022 5.73926 56.6223 8.91634C63.5619 13.9041 67.8783 20.5855 69.482 28.9245C70.4891 34.1621 70.1122 39.3411 68.4584 44.4217C68.4378 44.486 68.4156 44.5495 68.3909 44.6121C68.3662 44.6533 68.3388 44.6927 68.3087 44.7302L55.5766 41.6906C55.9205 40.3706 56.3615 39.1312 56.5565 37.856C57.6262 30.8369 55.4647 24.9434 49.9922 20.3421C46.4961 17.4027 42.3598 16.0632 37.7718 16.1055C29.1595 16.1869 21.5099 22.3929 19.7524 30.7271C17.6542 40.6465 23.7051 50.2225 33.6331 52.6802C35.8327 53.2281 38.1173 53.359 40.3662 53.0659C40.6196 53.0334 40.8129 53.0228 40.9717 53.3101C43.0485 57.0807 45.1329 60.8467 47.2251 64.6081C47.2761 64.7009 47.3189 64.7977 47.402 64.967C46.3085 65.2249 45.2561 65.5277 44.1832 65.7181C34.688 67.4051 26.023 65.474 18.3758 59.6309C11.8123 54.6121 7.87518 47.9561 6.43691 39.8693C6.25013 38.8179 6.19007 37.7437 6.07158 36.68C6.05677 36.5474 6.02468 36.4163 6 36.2845V33.0293C6.02468 32.8975 6.05595 32.7664 6.07158 32.633C6.22051 31.4123 6.29127 30.1712 6.52495 28.9644C8.14917 20.5979 12.4494 13.9071 19.4257 8.89193C23.8376 5.72868 28.7868 3.86426 34.2033 3.23031C34.9216 3.14893 35.6424 3.0765 36.3616 3H39.6528Z" fill="black"/>
<path d="M42.5668 44.1079C43.2407 44.2592 44.2165 44.4676 45.1874 44.6954C54.3897 46.8553 63.5919 49.0176 72.7942 51.1823C72.9944 51.2215 73.1869 51.2924 73.3644 51.3922C74.0366 51.813 74.1107 52.0083 73.8852 52.7586C72.5153 57.3159 70.5776 61.5973 67.4937 65.2977C65.0327 68.251 62.1117 70.6989 58.9028 72.8196C58.3737 73.1679 57.8356 73.0052 57.4686 72.3916C52.6612 64.3914 47.8544 56.3903 43.0481 48.3885C42.6367 47.7016 42.213 47.0197 41.8188 46.3222C41.6316 45.9915 41.4763 45.6441 41.3548 45.2846C41.0882 44.479 41.3902 44.0973 42.5668 44.1079Z" fill="black"/>
</g>
<defs>
<clipPath id="clip0_8874_32906">
<rect width="68" height="70" fill="white" transform="translate(6 3)"/>
</clipPath>
</defs>
</svg>
