<svg width="100%" height="100%" viewBox="0 0 80 80" fill="none" xmlns="http://www.w3.org/2000/svg">
<circle cx="40" cy="40" r="39.5" fill="white" stroke="#ECECEC"/>
<path d="M40 80C62.0914 80 80 62.0914 80 40C80 17.9086 62.0914 0 40 0C17.9086 0 0 17.9086 0 40C0 62.0914 17.9086 80 40 80Z" fill="#2CA01C"/>
<path d="M11.1338 40.0012C11.1338 48.5785 18.0616 55.5888 26.7214 55.5888H28.9482V49.8157H26.7214C21.3606 49.8157 16.907 45.4445 16.907 40.0012C16.907 34.6404 21.2781 30.1868 26.7214 30.1868H32.0822V60.4548C32.0822 63.6713 34.6389 66.228 37.8554 66.228V24.4961H26.7214C18.0616 24.4961 11.1338 31.4239 11.1338 40.0012ZM53.3606 24.4961H51.1338V30.2693H53.3606C58.7214 30.2693 63.175 34.6404 63.175 40.0837C63.175 45.527 58.7214 49.8157 53.3606 49.8157H47.9998V19.5476C47.9998 16.3311 45.4431 13.7744 42.2266 13.7744V55.5888H53.3606C61.9379 55.5888 68.9482 48.661 68.9482 40.0012C68.9482 31.4239 61.9379 24.4961 53.3606 24.4961Z" fill="white"/>
<circle cx="40" cy="40" r="39.5" stroke="#ECECEC"/>
</svg>
