<svg width="100%" height="100%" viewBox="0 0 80 80" fill="none" xmlns="http://www.w3.org/2000/svg">
<circle cx="40" cy="40" r="39.5" fill="white" stroke="#ECECEC"/>
<path d="M26.691 35.2435C26.8197 35.1923 26.8969 35.1667 26.9999 35.1412C27.7464 34.8599 28.493 34.5786 29.291 34.6041C29.5227 34.6041 29.6514 34.5274 29.7286 34.2972C30.0375 33.3254 30.3464 32.3536 30.6553 31.3818C30.8613 30.6913 31.0415 30.0009 31.2732 29.3104C31.6335 28.134 31.9939 26.9576 32.3543 25.7556C32.3801 25.6789 32.3286 25.4999 32.2514 25.4487C31.6593 25.0651 31.2732 24.5281 30.8613 23.991C30.6811 23.7608 30.5009 23.6074 30.192 23.812C30.1147 23.8631 29.986 23.8631 29.9088 23.8887C29.3682 24.0166 28.8534 24.1445 28.3128 24.2723C27.4375 24.4769 26.588 24.7071 25.7128 24.9372C24.8633 25.1418 23.988 25.372 23.1385 25.5766C22.5979 25.7045 22.0573 25.8579 21.5167 25.9602C20.8989 26.0881 20.8217 26.1904 20.693 26.8041C20.59 27.3156 20.4098 27.8271 20.2039 28.313C20.1009 28.5431 20.1009 28.671 20.2811 28.85C21.1563 29.7195 22.0316 30.589 22.9068 31.4586C24.091 32.6605 25.2494 33.8881 26.4336 35.09C26.5108 35.1412 26.6137 35.1923 26.691 35.2435Z" fill="white"/>
<path d="M40 79C61.5391 79 79 61.5391 79 40C79 18.4609 61.5391 1 40 1C18.4609 1 1 18.4609 1 40C1 61.5391 18.4609 79 40 79Z" fill="#8CC63F"/>
<path d="M1.412 36.7016C1.66942 35.8577 2.00407 35.3973 2.41595 34.8347C3.16249 33.7862 4.14071 33.0445 5.35061 32.5331C6.58625 31.996 7.87338 31.9193 9.16051 32.0983C10.7565 32.3541 12.1209 33.0957 13.2021 34.3232C13.7427 34.937 14.1288 35.6019 14.4377 36.318C14.5665 36.6504 14.6694 37.0085 14.7466 37.3409C14.7981 37.52 14.9011 37.5967 15.0813 37.6223C17.2437 37.9036 19.4318 38.1593 21.5942 38.4406C22.0833 38.4918 22.5981 38.5941 23.0872 38.6452C23.216 38.6708 23.4219 38.6196 23.4734 38.5173C23.6021 38.3639 23.4219 38.236 23.2932 38.1337C22.4694 37.3154 21.6457 36.4714 20.8219 35.6531C19.8952 34.7324 18.9942 33.8118 18.0674 32.8911C17.7585 32.5842 17.4754 32.2262 17.1665 31.9193C17.0635 31.817 16.8318 31.7403 16.7031 31.7914C15.3387 32.3285 13.9486 32.3796 12.5328 32.0472C11.5803 31.8426 10.7565 31.4078 10.01 30.8196C8.46546 29.6432 7.61595 28.0577 7.35853 26.1652C7.17833 24.7842 7.4615 23.4544 8.10507 22.2268C8.74863 20.9737 9.72685 20.0019 10.9625 19.337C12.2496 18.6465 13.6655 18.4163 15.1328 18.6209C16.6001 18.8 17.81 19.4137 18.8912 20.36C19.2259 20.6668 19.509 21.0249 19.7922 21.3573C19.9467 21.5364 20.1011 21.5619 20.307 21.5108C21.7229 21.1527 23.1387 20.7947 24.5546 20.4367C26.0734 20.0531 27.5665 19.6695 29.0853 19.2603C29.1368 19.2603 29.1625 19.2347 29.214 19.2347C29.8318 19.2603 30.012 18.9023 30.115 18.3908C30.4496 16.6773 31.4278 15.3475 32.8437 14.3757C34.7486 13.0714 36.8338 12.7645 39.0734 13.5318C41.0556 14.2223 42.4457 15.5777 43.2179 17.4957C43.4239 18.0327 43.5269 18.6209 43.6298 19.1836C43.8358 20.3088 43.6556 21.4085 43.2437 22.457C42.8575 23.4544 42.2655 24.3495 41.416 25.0911C40.2575 26.1141 38.9189 26.6767 37.4001 26.8301C37.2714 26.8301 37.0912 26.958 37.0655 27.0603C36.7823 27.8531 36.5506 28.6714 36.2932 29.4898C35.9585 30.5895 35.6239 31.6891 35.2892 32.7888C35.0318 33.6327 34.7486 34.4767 34.4912 35.3206C34.414 35.5764 34.4655 35.7042 34.6714 35.8577C36.01 36.9062 37.0655 38.1593 37.5288 39.8216C37.8635 41.0236 37.9665 42.2511 37.709 43.4786C37.4001 45.0131 36.6793 46.3429 35.5467 47.417C35.3665 47.5704 35.3665 47.6983 35.4694 47.9285C36.2932 49.5141 37.0655 51.1252 37.8635 52.7363C37.9665 52.9154 38.0179 53.1455 38.1467 53.299C38.2496 53.4013 38.4298 53.5036 38.5843 53.478C40.8496 53.299 42.7546 54.0406 44.2991 55.6518C45.509 56.9305 46.0754 58.4905 46.0754 60.255C46.0754 61.0223 45.9981 61.7639 45.7665 62.48C45.4575 63.4006 44.9684 64.219 44.2991 64.935C42.7803 66.5206 40.9269 67.2878 38.7387 67.1344C37.1684 67.0321 35.7268 66.4695 34.5684 65.3186C34.0278 64.7816 33.513 64.219 33.1526 63.5285C32.1486 61.5849 32.0971 59.5901 32.9209 57.5698C33.1526 56.9816 33.5645 56.4701 33.9249 55.9331C34.1051 55.6773 34.1308 55.4727 34.0021 55.217C33.3585 53.9639 32.715 52.7108 32.0971 51.4321C31.814 50.895 31.5566 50.358 31.2991 49.8209C31.1962 49.5908 31.0417 49.5141 30.7843 49.5396C29.111 49.6419 27.5665 49.3095 26.1506 48.3888C26.0734 48.3377 25.8932 48.3632 25.816 48.4144C24.812 49.2839 23.8338 50.1534 22.8298 51.0229C22.5981 51.2275 22.4952 51.4577 22.4952 51.7901C22.5724 53.0944 22.0318 54.1173 21.0793 54.9613C20.6932 55.3193 20.2556 55.6262 19.7407 55.7541C18.6853 56.0609 17.6298 56.0609 16.6001 55.6262C15.7506 55.2682 15.0813 54.68 14.6437 53.8872C14.0001 52.7108 13.9229 51.4832 14.412 50.2301C14.8754 49.0537 15.7506 48.2865 16.909 47.8518C17.5526 47.6216 18.2476 47.6216 18.917 47.7239C19.3288 47.775 19.612 47.6983 19.9467 47.417C20.8991 46.5475 21.8773 45.7036 22.8556 44.8596C23.0358 44.7062 23.0872 44.5527 23.01 44.3226C22.907 44.0157 22.8556 43.7088 22.7526 43.4019C22.7011 43.2741 22.5724 43.1462 22.4694 43.1206C21.208 42.9416 19.9467 42.7882 18.6853 42.6347C17.707 42.5068 16.7031 42.3278 15.7249 42.2C15.2615 42.1232 14.7981 42.0465 14.3348 42.0209C14.2061 42.0209 14.0516 42.1488 13.9486 42.2767C13.5625 42.737 13.2536 43.2741 12.816 43.6832C11.2457 45.1154 9.39219 45.7803 7.22982 45.5245C5.14467 45.2944 3.54863 44.2714 2.33873 42.6091C1.87536 41.9698 1.54071 41.6885 1.33477 40.3586C1.00011 38.6963 1.18031 37.5455 1.412 36.7016Z" fill="white"/>
<path d="M39.6138 38.9508C39.6138 39.6413 39.6396 40.3318 39.6138 41.0223C39.6138 41.4315 39.6396 41.4826 40.0515 41.4826C41.2871 41.4826 42.497 41.4826 43.7327 41.4826C44.2733 41.4826 44.8139 41.4315 45.3287 41.2013C45.9723 40.92 46.4614 40.4852 46.7445 39.8203C46.9762 39.2833 46.9247 38.7206 46.8218 38.1836C46.7445 37.8256 46.5901 37.4931 46.3841 37.1862C45.8693 36.4702 45.0713 36.3167 44.2475 36.3167C42.8059 36.2911 41.3901 36.3167 39.9485 36.2911C39.6911 36.2911 39.6138 36.419 39.6138 36.6747C39.6138 37.4675 39.6138 38.2092 39.6138 38.9508ZM45.4832 41.8406C46.3841 42.1475 46.8733 42.7613 46.9505 43.6819C47.0277 44.6793 47.1049 45.6767 47.1822 46.6741C47.1822 46.7764 47.1049 46.8787 47.0792 46.9554C47.002 46.8787 46.8733 46.8019 46.8733 46.6997C46.796 46.1882 46.7445 45.6767 46.6931 45.1397C46.6673 44.6538 46.6673 44.1678 46.6416 43.6819C46.5901 42.8892 46.0237 42.1987 45.2515 42.0452C44.6594 41.9174 44.0416 41.8662 43.4237 41.8662C42.2911 41.8406 41.1584 41.8662 40.0257 41.8662C39.7168 41.8662 39.6396 42.0197 39.6396 42.301C39.6396 43.7331 39.6396 45.1397 39.6396 46.5718C39.6396 46.6997 39.5366 46.8019 39.4851 46.9298C39.4079 46.8019 39.3049 46.6997 39.3049 46.5718C39.3049 43.2472 39.3049 39.9226 39.3049 36.5725C39.3049 36.0865 39.3564 36.0354 39.8455 36.0354C40.798 36.0354 41.7505 36.0354 42.703 36.0354C43.398 36.061 44.1188 36.0865 44.8139 36.1377C46.1267 36.24 47.002 37.1095 47.1564 38.4138C47.2851 39.539 47.0277 40.4852 46.0495 41.1501C45.7663 41.3547 45.4059 41.457 45.0198 41.636C45.2 41.6872 45.3287 41.7895 45.4832 41.8406Z" fill="white"/>
<path d="M49.936 36.598C49.936 36.061 49.9618 36.0354 50.5024 36.0354C52.6134 36.0354 54.7501 36.0354 56.8611 36.0354C56.964 36.0354 57.067 36.1377 57.17 36.2144C57.067 36.2656 56.9898 36.3934 56.8868 36.3934C54.7758 36.3934 52.6906 36.3934 50.5796 36.3679C50.2707 36.3679 50.2192 36.4957 50.2192 36.7259C50.2192 37.4164 50.2192 38.1069 50.2192 38.8229C50.2192 39.4367 50.2192 40.0761 50.2192 40.6898C50.2192 41.1246 50.2707 41.1757 50.7083 41.1757C52.4074 41.1757 54.1322 41.1757 55.8313 41.1757C56.0373 41.1757 56.2175 41.1501 56.4234 41.1501C56.5264 41.1501 56.6036 41.2524 56.6809 41.3036C56.6036 41.3547 56.5264 41.4826 56.4492 41.4826C56.166 41.5082 55.8828 41.4826 55.5739 41.4826C54.0035 41.4826 52.4332 41.4826 50.8628 41.4826C50.2192 41.4826 50.2192 41.4826 50.2192 42.1219C50.2192 43.5029 50.2192 44.9095 50.2192 46.2905C50.2192 46.5206 50.2707 46.6996 50.5539 46.6741C52.5104 46.6741 54.4412 46.6741 56.3977 46.6741C56.6036 46.6741 56.7838 46.6485 56.9898 46.6741C57.067 46.6741 57.1442 46.7764 57.2215 46.8275C57.1442 46.8787 57.0928 46.981 57.0155 47.0065C56.8868 47.0321 56.7581 47.0065 56.6294 47.0065C54.5441 47.0065 52.4589 47.0065 50.3737 47.0065C50.0905 47.0065 49.9618 46.9042 49.9618 46.6229C49.9618 44.9095 49.9618 43.2216 49.9618 41.5082C49.936 39.8715 49.936 38.2347 49.936 36.598Z" fill="white"/>
<path d="M65.2535 42.0442C64.1723 41.7629 63.0911 41.5327 62.01 41.2259C61.3406 41.0468 60.6971 40.8167 60.1565 40.3819C58.9208 39.359 59.2298 37.1085 60.6456 36.3668C61.6238 35.8554 62.6278 35.7275 63.709 35.8042C64.5327 35.8554 65.305 36.0344 65.9486 36.597C66.6179 37.1596 66.9268 37.9268 67.004 38.7708C67.004 38.8475 66.9268 38.9498 66.8753 39.0265C66.8238 38.9498 66.7208 38.8731 66.6951 38.7708C66.6436 38.2337 66.5149 37.7478 66.206 37.3131C65.7684 36.6737 65.1763 36.3157 64.4555 36.1622C63.5545 35.9832 62.6278 36.0088 61.7268 36.1878C60.903 36.3668 60.208 36.8016 59.8991 37.5944C59.4872 38.6685 59.6674 39.8193 60.8258 40.4331C61.5981 40.8423 62.4733 40.9701 63.3228 41.1747C64.301 41.4304 65.3307 41.5839 66.2317 42.1721C66.901 42.6068 67.1842 43.2462 67.2614 43.9878C67.3901 45.42 66.4634 46.4685 65.2535 46.9032C64.1466 47.2868 63.0139 47.2868 61.907 47.0823C60.4654 46.8009 59.307 45.778 59.1525 44.2436C59.1268 44.039 59.0496 43.8344 59.0496 43.6554C59.0496 43.5786 59.1525 43.4763 59.204 43.3996C59.2555 43.4763 59.3327 43.5531 59.3585 43.6298C59.4872 44.1413 59.5644 44.6783 59.7446 45.1642C60.002 45.8803 60.5941 46.2895 61.2634 46.5964C62.2416 47.0311 63.2713 46.9032 64.2753 46.8521C65.202 46.8009 65.9743 46.4173 66.5406 45.6757C66.8753 45.2409 67.0298 44.7295 66.9525 44.2691C66.9268 43.1695 66.2575 42.3 65.2535 42.0442Z" fill="white"/>
<path d="M73.1308 46.6253C73.1308 46.7532 73.0278 46.8555 72.9763 46.9833C72.9248 46.881 72.8218 46.7787 72.8218 46.6509C72.8218 44.1702 72.8476 41.6896 72.8476 39.2089C72.8476 38.3906 72.8476 37.5978 72.8218 36.7794C72.8218 36.3958 72.7446 36.3447 72.3327 36.3447C71.303 36.3702 70.2991 36.3702 69.2694 36.3447C69.1664 36.3447 69.0634 36.2424 68.9604 36.1657C69.0634 36.1145 69.1664 36.0122 69.2694 36.0122C71.7407 36.0122 74.2119 36.0122 76.6832 36.0122C76.7862 36.0122 76.9149 36.1145 77.0179 36.1912C76.9149 36.2424 76.8119 36.3447 76.6832 36.3447C75.602 36.3447 74.5208 36.3447 73.4397 36.3191C73.1565 36.3191 73.105 36.447 73.105 36.6771C73.105 38.3394 73.105 39.9761 73.105 41.6384C73.1308 43.3263 73.1565 44.963 73.1308 46.6253Z" fill="white"/>
<path d="M26.691 35.242C26.6137 35.1909 26.5108 35.1398 26.4336 35.063C25.2494 33.8611 24.091 32.6336 22.9068 31.4316C22.0573 30.5621 21.1821 29.6926 20.2811 28.8231C20.1009 28.6441 20.1009 28.5162 20.2039 28.2861C20.4098 27.8002 20.59 27.2887 20.693 26.7772C20.8217 26.1635 20.8989 26.0612 21.5167 25.9333C22.0573 25.831 22.5979 25.6776 23.1385 25.5497C23.988 25.3451 24.8633 25.1405 25.7128 24.9104C26.588 24.7058 27.4375 24.4756 28.3128 24.2455C28.8534 24.1176 29.3682 23.9897 29.9088 23.8619C30.0118 23.8363 30.1147 23.8363 30.192 23.7851C30.5009 23.5806 30.6811 23.734 30.8613 23.9642C31.2732 24.5012 31.685 25.0382 32.2514 25.4218C32.3286 25.473 32.3801 25.652 32.3543 25.7287C31.9939 26.9051 31.6335 28.0815 31.2732 29.2834C31.0672 29.9739 30.887 30.6644 30.6553 31.3549C30.3464 32.3267 30.0375 33.2985 29.7286 34.2703C29.6514 34.4748 29.5227 34.5771 29.291 34.5771C28.493 34.5516 27.7464 34.8329 26.9999 35.1142C26.8969 35.1653 26.8197 35.1909 26.691 35.242Z" fill="#8CC63F"/>
</svg>
