<svg width="100%" height="100%" viewBox="0 0 80 80" fill="none" xmlns="http://www.w3.org/2000/svg">
<circle cx="40" cy="40" r="39.5" fill="white" stroke="#ECECEC"/>
<path d="M33.7694 19.668C36.1655 17.1713 39.5015 15.6229 43.1907 15.6229C48.0954 15.6229 52.3744 18.3578 54.6529 22.4177C56.6912 21.5073 58.8989 21.038 61.1313 21.0407C69.9771 21.0407 77.1484 28.2744 77.1484 37.1978C77.1484 46.1218 69.9771 53.3555 61.1313 53.3555C60.0518 53.3555 58.9966 53.2478 57.9763 53.0412C55.9695 56.6206 52.1457 59.0391 47.7567 59.0391C45.9817 59.0413 44.2297 58.638 42.6344 57.8599C40.6002 62.6447 35.8608 66.0001 30.337 66.0001C24.5848 66.0001 19.6827 62.36 17.8008 57.2557C16.9786 57.4303 16.1266 57.5215 15.2524 57.5215C8.40387 57.5215 2.85159 51.9117 2.85159 44.9917C2.84666 42.7985 3.4166 40.6423 4.5046 38.7379C5.59261 36.8336 7.16069 35.2476 9.05258 34.1381C8.26699 32.3297 7.86271 30.3786 7.86497 28.4069C7.86497 20.448 14.3263 13.9963 22.2962 13.9963C26.9752 13.9963 31.1336 16.2211 33.7697 19.668" fill="#009ED8"/>
<path d="M13.6127 40.9626C13.5662 41.0847 13.6296 41.1099 13.6447 41.1311C13.7841 41.2328 13.9259 41.3054 14.0688 41.3871C14.8268 41.7891 15.542 41.9068 16.2904 41.9068C17.8144 41.9068 18.7606 41.0963 18.7606 39.791V39.7657C18.7606 38.5592 17.6927 38.1208 16.6904 37.8048L16.5603 37.7621C15.8046 37.5166 15.1527 37.3051 15.1527 36.8074V36.7813C15.1527 36.3557 15.5336 36.0422 16.1242 36.0422C16.7805 36.0422 17.5593 36.2604 18.061 36.5376C18.061 36.5376 18.208 36.6328 18.2621 36.4902C18.2917 36.4138 18.5456 35.7302 18.5723 35.6561C18.6008 35.5757 18.55 35.5164 18.4983 35.4847C17.9257 35.1364 17.134 34.8982 16.3148 34.8982L16.1622 34.8994C14.7675 34.8994 13.7937 35.7418 13.7937 36.9495V36.9748C13.7937 38.2481 14.868 38.6606 15.8744 38.9485L16.0365 38.9985C16.7697 39.2239 17.4019 39.4174 17.4019 39.9339V39.9595C17.4019 40.4313 16.9911 40.7828 16.3284 40.7828C16.0713 40.7828 15.2512 40.7776 14.3651 40.2175C14.2582 40.155 14.1958 40.1097 14.1133 40.06C14.0697 40.0324 13.961 39.9845 13.9134 40.1286L13.6127 40.9626Z" fill="white"/>
<path d="M35.9235 40.9626C35.877 41.0847 35.9404 41.1099 35.9555 41.1311C36.0949 41.2328 36.2367 41.3054 36.3796 41.3871C37.1373 41.7891 37.8528 41.9068 38.6012 41.9068C40.1252 41.9068 41.0714 41.0963 41.0714 39.791V39.7657C41.0714 38.5592 40.0035 38.1208 39.0012 37.8048L38.871 37.7621C38.1154 37.5166 37.4632 37.3051 37.4632 36.8074V36.7813C37.4632 36.3557 37.8444 36.0422 38.435 36.0422C39.0912 36.0422 39.8701 36.2604 40.3718 36.5376C40.3718 36.5376 40.5188 36.6328 40.5729 36.4902C40.6025 36.4138 40.8564 35.7302 40.8828 35.6561C40.9116 35.5757 40.8608 35.5164 40.8088 35.4847C40.2364 35.1364 39.4445 34.8982 38.6256 34.8982L38.473 34.8994C37.078 34.8994 36.1045 35.7418 36.1045 36.9495V36.9748C36.1045 38.2481 37.1785 38.6606 38.1851 38.9485L38.347 38.9985C39.0805 39.2239 39.7135 39.4174 39.7135 39.9339V39.9595C39.7135 40.4313 39.3016 40.7828 38.6392 40.7828C38.3821 40.7828 37.5617 40.7776 36.6759 40.2175C36.569 40.155 36.5054 40.1117 36.4252 40.06C36.3976 40.042 36.2683 39.992 36.2239 40.1286L35.9235 40.9626Z" fill="white"/>
<path d="M51.1551 38.4054C51.1551 39.1433 51.0174 39.7243 50.7466 40.1348C50.4788 40.5416 50.0735 40.7391 49.5082 40.7391C48.9419 40.7391 48.5387 40.5424 48.2752 40.1348C48.0085 39.7252 47.8732 39.1433 47.8732 38.4054C47.8732 37.669 48.0085 37.0888 48.2752 36.6827C48.5387 36.2803 48.9419 36.0845 49.5082 36.0845C50.0735 36.0845 50.4785 36.2803 50.7475 36.6824C51.0177 37.0891 51.1551 37.669 51.1551 38.4054ZM52.4272 37.0383C52.3023 36.6159 52.1077 36.2434 51.8482 35.9332C51.5888 35.6223 51.2608 35.3725 50.8712 35.1903C50.4828 35.0093 50.0235 34.9172 49.5082 34.9172C48.9916 34.9172 48.5323 35.0093 48.1439 35.1903C47.7546 35.3722 47.4263 35.622 47.166 35.9332C46.9078 36.2443 46.7128 36.617 46.5871 37.0383C46.4633 37.4583 46.4011 37.9176 46.4011 38.4054C46.4011 38.8935 46.4633 39.3539 46.5871 39.7729C46.7131 40.1941 46.9066 40.5668 47.1672 40.878C47.4263 41.1888 47.7555 41.4378 48.1439 41.6144C48.5332 41.7913 48.9916 41.8811 49.5082 41.8811C50.0235 41.8811 50.482 41.7911 50.8712 41.6144C51.2597 41.4378 51.5888 41.1891 51.8482 40.878C52.1077 40.5677 52.3023 40.1953 52.4272 39.7729C52.5521 39.3528 52.6146 38.8926 52.6146 38.4054C52.6146 37.9188 52.5521 37.4583 52.4272 37.0383Z" fill="white"/>
<path d="M62.8745 40.5429C62.8324 40.4192 62.7127 40.4656 62.7127 40.4656C62.5276 40.5368 62.3307 40.6022 62.1212 40.635C61.8903 40.6693 61.6571 40.686 61.4237 40.685C60.8078 40.685 60.3186 40.502 59.9682 40.1397C59.617 39.7777 59.42 39.1926 59.4221 38.401C59.4244 37.6802 59.5981 37.1384 59.9101 36.7256C60.2204 36.3148 60.6922 36.1042 61.322 36.1042C61.847 36.1042 62.247 36.1646 62.6662 36.2968C62.6662 36.2968 62.7667 36.3404 62.8144 36.2091C62.9253 35.8999 63.0081 35.6789 63.1267 35.339C63.1604 35.2428 63.0779 35.2016 63.0482 35.1899C62.8832 35.1251 62.4936 35.0206 62.1994 34.9761C61.9242 34.9337 61.6026 34.9116 61.2447 34.9116C60.7102 34.9116 60.234 35.0026 59.8264 35.1847C59.42 35.3654 59.0752 35.6152 58.8021 35.9264C58.529 36.2375 58.3216 36.6102 58.183 37.0315C58.0453 37.4516 57.9756 37.9129 57.9756 38.401C57.9756 39.4561 58.2603 40.3091 58.8221 40.9337C59.3852 41.56 60.2311 41.8787 61.3336 41.8787C61.9855 41.8787 62.6546 41.7465 63.1348 41.5568C63.1348 41.5568 63.2272 41.5124 63.1871 41.4057L62.8745 40.5429Z" fill="white"/>
<path d="M65.1001 37.6986C65.1602 37.289 65.2736 36.9482 65.4481 36.6827C65.7116 36.2795 66.1137 36.0581 66.679 36.0581C67.2441 36.0581 67.6177 36.2803 67.8855 36.6827C68.0633 36.9482 68.1406 37.3038 68.1711 37.6986H65.1001ZM69.3831 36.798C69.2751 36.3904 69.0072 35.9788 68.8317 35.7902C68.5543 35.4919 68.2835 35.2833 68.0145 35.1671C67.6242 35.0016 67.2044 34.9166 66.7804 34.9172C66.243 34.9172 65.7549 35.0073 65.3593 35.1932C64.9624 35.3797 64.6289 35.6336 64.3674 35.9503C64.106 36.2655 63.9093 36.6411 63.7844 37.0679C63.6583 37.492 63.595 37.9548 63.595 38.4426C63.595 38.9391 63.6606 39.4013 63.7908 39.8173C63.9218 40.2365 64.1315 40.6058 64.4154 40.9117C64.6978 41.2196 65.0618 41.461 65.4978 41.6292C65.9307 41.7966 66.4565 41.8834 67.0608 41.8823C68.3045 41.8779 68.9598 41.6005 69.2294 41.4514C69.2771 41.4253 69.3227 41.3785 69.2655 41.2452L68.984 40.4567C68.9418 40.3391 68.8221 40.3826 68.8221 40.3826C68.5142 40.4968 68.0761 40.7022 67.0547 40.7002C66.3868 40.699 65.8915 40.502 65.5815 40.1941C65.2628 39.8789 65.1074 39.4152 65.0798 38.7613L69.3863 38.7654C69.3863 38.7654 69.4996 38.7633 69.5112 38.6532C69.5153 38.6067 69.6594 37.7683 69.3831 36.798Z" fill="white"/>
<path d="M30.6115 37.6986C30.6728 37.289 30.785 36.9482 30.9599 36.6827C31.2234 36.2795 31.6254 36.0581 32.1905 36.0581C32.7558 36.0581 33.1294 36.2803 33.3981 36.6827C33.5751 36.9482 33.6523 37.3038 33.6828 37.6986H30.6115ZM34.8937 36.798C34.7856 36.3904 34.5189 35.9788 34.3432 35.7902C34.066 35.4919 33.795 35.2833 33.5263 35.1671C33.1359 35.0016 32.7161 34.9166 32.2922 34.9172C31.7556 34.9172 31.2666 35.0073 30.871 35.1932C30.4738 35.3797 30.1406 35.6336 29.8792 35.9503C29.6177 36.2655 29.421 36.6411 29.2961 37.0679C29.1712 37.492 29.1067 37.9548 29.1067 38.4426C29.1067 38.9391 29.1721 39.4013 29.3025 39.8173C29.4335 40.2365 29.6433 40.6058 29.9268 40.9117C30.2095 41.2196 30.5735 41.461 31.0095 41.6292C31.4424 41.7966 31.9682 41.8834 32.5725 41.8823C33.8162 41.8779 34.4713 41.6005 34.7412 41.4514C34.7888 41.4253 34.8341 41.3785 34.7772 41.2452L34.4969 40.4567C34.4533 40.3391 34.3339 40.3826 34.3339 40.3826C34.0259 40.4968 33.5887 40.7022 32.5652 40.7002C31.8985 40.699 31.4032 40.502 31.0932 40.1941C30.7745 39.8789 30.6188 39.4152 30.5915 38.7613L34.8978 38.7654C34.8978 38.7654 35.0111 38.7633 35.0227 38.6532C35.027 38.6067 35.1708 37.7683 34.8937 36.798Z" fill="white"/>
<path d="M21.3032 40.5182C21.1347 40.3837 21.1115 40.3497 21.0545 40.2632C20.9697 40.131 20.9264 39.9425 20.9264 39.7034C20.9264 39.3245 21.0513 39.0526 21.3105 38.8696C21.3076 38.8705 21.6809 38.5465 22.5597 38.5582C23.1764 38.5669 23.7278 38.6578 23.7278 38.6578V40.6159H23.729C23.729 40.6159 23.1817 40.7332 22.5658 40.7701C21.6893 40.823 21.3 40.5174 21.3032 40.5182ZM23.0167 37.4926C22.8421 37.4798 22.6158 37.4722 22.3447 37.4722C21.9752 37.4722 21.6184 37.5187 21.2843 37.6088C20.9473 37.6988 20.6449 37.8397 20.3846 38.0259C20.1246 38.2114 19.9108 38.4544 19.76 38.736C19.6078 39.0198 19.5305 39.3542 19.5305 39.7286C19.5305 40.1098 19.5959 40.441 19.7272 40.712C19.8552 40.9799 20.0485 41.2114 20.2893 41.3851C20.5284 41.5594 20.8239 41.6878 21.1667 41.7651C21.5043 41.8424 21.8872 41.8813 22.3064 41.8813C22.7479 41.8813 23.1881 41.8456 23.6145 41.7724C23.9775 41.7099 24.3392 41.64 24.6993 41.5629C24.8422 41.5289 25.0012 41.4857 25.0012 41.4857C25.1081 41.4592 25.0994 41.3448 25.0994 41.3448L25.0973 37.4069C25.0973 36.5432 24.8667 35.9029 24.4126 35.506C23.9608 35.1101 23.295 34.9099 22.4345 34.9099C22.112 34.9099 21.592 34.9547 21.2811 35.0168C21.2811 35.0168 20.3399 35.199 19.9526 35.5017C19.9526 35.5017 19.8681 35.5546 19.9146 35.6731L20.2196 36.4923C20.2574 36.5981 20.3602 36.5621 20.3602 36.5621C20.3602 36.5621 20.393 36.5496 20.4311 36.5272C21.2596 36.0763 22.3075 36.0903 22.3075 36.0903C22.7732 36.0903 23.1308 36.1832 23.3723 36.3686C23.6073 36.5484 23.7267 36.8203 23.7267 37.3941V37.5759C23.3563 37.5231 23.0167 37.4926 23.0167 37.4926Z" fill="white"/>
<path d="M57.7502 35.2734C57.7564 35.259 57.7597 35.2436 57.7598 35.2279C57.7599 35.2123 57.7568 35.1968 57.7507 35.1823C57.7447 35.1679 57.7358 35.1548 57.7246 35.1439C57.7133 35.133 57.7 35.1245 57.6854 35.1189C57.6125 35.0901 57.2462 35.0128 56.9635 34.9948C56.4229 34.962 56.1222 35.0529 55.8535 35.1738C55.5868 35.2943 55.2904 35.4893 55.1251 35.7103V35.1868C55.1251 35.1136 55.0734 35.0555 55.0014 35.0555H53.8974C53.8257 35.0555 53.7737 35.1136 53.7737 35.1868V41.6101C53.7737 41.6818 53.8329 41.7411 53.905 41.7411H55.0362C55.0709 41.7409 55.104 41.7271 55.1284 41.7025C55.1528 41.6779 55.1665 41.6447 55.1664 41.6101V38.4008C55.1664 37.9699 55.214 37.5403 55.3093 37.2704C55.4023 37.0037 55.5295 36.7899 55.6861 36.6365C55.8357 36.4892 56.0183 36.3797 56.2186 36.3169C56.4185 36.2553 56.6399 36.2356 56.7965 36.2356C57.0219 36.2356 57.2694 36.2937 57.2694 36.2937C57.3519 36.303 57.3987 36.2521 57.4263 36.1772C57.5001 35.9802 57.7098 35.3908 57.7499 35.2734" fill="white"/>
<path d="M47.1302 32.2967C46.9904 32.2545 46.8483 32.2205 46.7046 32.195C46.5112 32.1633 46.3154 32.1486 46.1195 32.1509C45.3403 32.1509 44.7264 32.3708 44.2959 32.8048C43.8671 33.2365 43.576 33.8939 43.4302 34.7585L43.377 35.0496H42.3992C42.3992 35.0496 42.2806 35.0452 42.2554 35.1745L42.0956 36.0708C42.0839 36.1556 42.1208 36.2096 42.235 36.2096H43.1867L42.2214 41.5986C42.1464 42.0326 42.0595 42.3894 41.9631 42.6602C41.869 42.9268 41.7772 43.127 41.6627 43.2731C41.5523 43.4126 41.4489 43.5166 41.2688 43.5767C41.1206 43.6264 40.9492 43.6499 40.7618 43.6499C40.6581 43.6499 40.5195 43.6328 40.417 43.6116C40.3366 43.596 40.2584 43.5709 40.184 43.5366C40.184 43.5366 40.073 43.4942 40.0286 43.6055C39.9937 43.6976 39.7395 44.3948 39.709 44.4805C39.6794 44.5662 39.7215 44.633 39.7755 44.6531C39.9025 44.6975 39.9966 44.7272 40.1692 44.7684C40.4086 44.8245 40.6108 44.8277 40.8002 44.8277C41.1959 44.8277 41.5578 44.7716 41.8573 44.6638C42.158 44.5546 42.4204 44.3652 42.6534 44.1089C42.9041 43.8318 43.0618 43.5419 43.212 43.145C43.3613 42.7534 43.4894 42.2665 43.5908 41.6991L44.5614 36.2096H45.9797C45.9797 36.2096 46.0991 36.2137 46.1235 36.0835L46.2845 35.1882C46.2949 35.1025 46.2592 35.0496 46.1436 35.0496H44.7665C44.7741 35.0188 44.8366 34.5342 44.9943 34.0781C45.062 33.8844 45.1889 33.7266 45.2959 33.6185C45.3967 33.5161 45.5205 33.4392 45.657 33.3943C45.7935 33.3498 45.9489 33.3286 46.1195 33.3286C46.2484 33.3286 46.3766 33.3434 46.4727 33.3635C46.6064 33.3922 46.6581 33.407 46.6929 33.4175C46.8338 33.4599 46.8527 33.4187 46.8803 33.3507L47.2095 32.4472C47.2435 32.3496 47.1598 32.3083 47.1302 32.2967Z" fill="white"/>
<path d="M27.8926 41.6109C27.8926 41.6826 27.8406 41.741 27.7688 41.741H26.6268C26.5547 41.741 26.5039 41.6829 26.5039 41.6109V32.4199C26.5039 32.3482 26.5547 32.2898 26.6268 32.2898H27.7685C27.8406 32.2898 27.8926 32.3479 27.8926 32.4199V41.6109Z" fill="white"/>
</svg>
