<svg width="100%" height="100%" viewBox="0 0 80 80" fill="none" xmlns="http://www.w3.org/2000/svg">
<circle cx="40" cy="40" r="39.5" fill="white" stroke="#ECECEC"/>
<path d="M43.3656 37.5485V40.9564H43.9211C43.9253 40.8928 43.9311 40.8428 43.9314 40.7917C43.9314 40.1953 43.9314 39.5989 43.9314 39.0025C43.9314 38.7026 44.0127 38.4286 44.2162 38.2073C44.469 37.9333 44.7831 37.86 45.1343 37.956C45.4604 38.0452 45.595 38.2999 45.6462 38.612C45.6659 38.7504 45.6745 38.8902 45.6719 39.0301C45.6744 39.6676 45.6719 40.3049 45.6719 40.9484H46.2416V40.6696C46.2416 40.126 46.2383 39.5824 46.2435 39.0389C46.2474 38.664 46.3638 38.3272 46.6677 38.096C46.9443 37.8867 47.257 37.8515 47.5681 38.0017C47.9 38.1613 47.9799 38.4845 47.9879 38.8171C48.0029 39.439 47.9929 40.0615 47.9935 40.684V40.9499H48.5507C48.5507 40.1595 48.5869 39.3879 48.541 38.6211C48.4901 37.7691 47.8566 37.321 47.035 37.471C46.6357 37.5428 46.3555 37.7785 46.131 38.1148C45.7939 37.3576 44.6813 37.1432 43.9131 37.9665C43.8932 37.8194 43.875 37.6871 43.8562 37.5485H43.3656ZM42.536 40.9584C42.536 40.1183 42.5661 39.295 42.5252 38.4757C42.4975 37.9296 42.0943 37.5499 41.5625 37.465C40.9624 37.3693 40.484 37.5758 40.1342 38.1287C39.9218 37.6598 39.5571 37.457 39.0814 37.4423C38.6179 37.4278 38.2363 37.6087 37.9277 37.9887C37.9 37.8183 37.8796 37.6831 37.8591 37.5536H37.3741V40.9561H37.9415C37.9415 40.8488 37.9415 40.7545 37.9415 40.6602C37.9443 40.0553 37.9291 39.4495 37.9556 38.8458C37.98 38.2908 38.4075 37.8992 38.9141 37.9168C39.4039 37.9341 39.6649 38.2633 39.6699 38.8759C39.6729 39.2266 39.6699 39.5773 39.6699 39.9281V40.9481H40.2407C40.2407 40.3393 40.2274 39.7517 40.2473 39.1653C40.2538 38.9217 40.3026 38.6812 40.3914 38.4553C40.559 38.0463 40.9743 37.8518 41.3869 37.9401C41.7644 38.021 41.9726 38.2917 41.9843 38.7731C41.9992 39.3953 41.9909 40.0181 41.9926 40.6406C41.9926 40.7431 41.9926 40.8456 41.9926 40.9595L42.536 40.9584ZM77.9994 40.9555V36.2217H77.4352V37.8558C77.3523 37.797 77.3119 37.7677 77.271 37.7379C76.4483 37.1395 75.3369 37.4539 74.9541 38.4042C74.7122 39.0056 74.724 39.6205 74.9702 40.2194C75.1991 40.7761 75.6234 41.0527 76.2146 41.0683C76.7027 41.0813 77.1239 40.9368 77.4552 40.5034L77.5309 40.9578L77.9994 40.9555ZM60.9007 39.4691C60.8703 39.1567 60.8686 38.8753 60.8113 38.6069C60.6612 37.9029 60.1875 37.4957 59.4997 37.4445C58.7663 37.39 58.1834 37.7541 57.9359 38.4266C57.7853 38.8396 57.7528 39.2882 57.8421 39.7196C57.9605 40.3285 58.265 40.8002 58.8711 40.9808C59.5398 41.1796 60.167 41.0612 60.7544 40.6383L60.5069 40.2782C59.38 40.9717 58.385 40.4943 58.3994 39.4691H60.9007ZM49.7735 39.4711H51.6717C52.3136 39.4711 52.3136 39.4711 52.23 38.8142C52.1244 37.9824 51.604 37.4735 50.828 37.4426C50.0064 37.4096 49.3928 37.8859 49.2398 38.7049C49.1886 38.9712 49.1741 39.2436 49.197 39.514C49.2584 40.1754 49.5288 40.7252 50.1812 40.9555C50.8725 41.1995 51.524 41.0691 52.1369 40.6431L51.8902 40.2811C50.6847 40.9927 49.7711 40.4458 49.7735 39.4711ZM36.7336 39.2354C36.7303 38.1846 36.1686 37.5275 35.2063 37.4463C34.2439 37.365 33.5531 37.8859 33.3949 38.8341C33.3608 39.068 33.3555 39.3054 33.3792 39.5407C33.4436 40.2995 33.9187 40.8647 34.599 41.0174C35.8282 41.2941 36.7375 40.5349 36.7336 39.2354ZM67.3565 39.232C67.3537 40.2711 67.9209 40.9771 68.8244 41.0592C69.8163 41.1492 70.5201 40.6358 70.6893 39.6705C70.7331 39.4114 70.7371 39.147 70.7012 38.8867C70.6086 38.2068 70.2671 37.703 69.5926 37.5212C68.4391 37.2111 67.3457 37.7882 67.3565 39.232ZM73.671 37.551C73.6668 37.6485 73.6596 37.7339 73.6594 37.8197C73.6594 38.3459 73.6818 38.8736 73.6489 39.3976C73.6306 39.6661 73.5568 39.9275 73.4323 40.1643C73.2318 40.5383 72.8071 40.6826 72.4061 40.5781C72.0801 40.4929 71.8594 40.1995 71.8439 39.7545C71.822 39.1238 71.8298 38.4922 71.8251 37.8609C71.8251 37.7586 71.8251 37.6567 71.8251 37.5587H71.2756C71.2756 38.3672 71.251 39.1559 71.2847 39.942C71.3055 40.4248 71.5436 40.8289 72.0225 40.9842C72.5394 41.1518 73.0416 41.1089 73.4647 40.7076C73.5366 40.6395 73.6005 40.5631 73.6801 40.4776C73.7401 41.0243 73.7595 41.039 74.2268 40.9405V37.5522L73.671 37.551ZM65.2777 40.3095C65.0983 40.3847 64.9459 40.4645 64.7833 40.5142C64.0496 40.7386 63.4559 40.4111 63.3265 39.6702C63.2765 39.3512 63.2877 39.0252 63.3594 38.7106C63.4816 38.1551 63.9216 37.862 64.4777 37.9361C64.7429 37.9716 64.999 38.0781 65.2954 38.1616L65.4785 37.8308C64.8024 37.2628 63.6774 37.3307 63.1354 37.9501C62.5364 38.6348 62.5652 40.0022 63.1907 40.6372C63.7416 41.1955 64.8803 41.2171 65.4611 40.6696L65.2777 40.3095ZM57.5941 37.8333C56.9304 37.2722 55.8206 37.3267 55.2687 37.9293C54.6581 38.5956 54.6664 39.9627 55.2853 40.6167C55.8317 41.1944 56.9605 41.2273 57.5786 40.6735L57.3933 40.31C57.2152 40.3841 57.0615 40.4631 56.9005 40.5131C56.1746 40.736 55.5842 40.4222 55.4479 39.698C55.3924 39.3801 55.3989 39.054 55.4669 38.7387C55.5917 38.1517 56.0363 37.8546 56.6149 37.9395C56.8784 37.9782 57.1323 38.0835 57.4063 38.163L57.5941 37.8333ZM32.9613 40.3089C32.7694 40.3887 32.6154 40.4693 32.4522 40.5176C31.7636 40.7224 31.2186 40.4407 31.0303 39.7849C30.9239 39.4214 30.9286 39.0332 31.0438 38.6725C31.1799 38.2369 31.4622 37.9449 31.9149 37.9475C32.2609 37.9495 32.6063 38.0565 32.9517 38.1179C32.9517 38.1449 33.0957 37.9506 33.1651 37.8294C32.4356 37.2466 31.3098 37.3389 30.7706 38.0083C30.1804 38.741 30.2803 40.1467 30.9642 40.7232C31.5399 41.2091 32.7011 41.1776 33.1405 40.6588L32.9613 40.3089ZM66.6842 40.9587V36.2217H66.1463V40.9587H66.6842ZM53.389 37.5564H52.8879V40.9499H53.4593C53.4593 40.3614 53.4593 39.7932 53.4593 39.2249C53.4593 38.3368 53.7549 38.0103 54.6141 37.9447C54.6288 37.94 54.643 37.9337 54.6564 37.9259C54.6661 37.7839 54.6766 37.6317 54.6885 37.4582C54.1531 37.4034 53.7386 37.5508 53.4344 38.0585C53.4161 37.8521 53.404 37.7155 53.389 37.5564Z" fill="white"/>
<path d="M43.3655 37.5461H43.8563C43.8751 37.6847 43.8934 37.8171 43.9133 37.9642C44.6815 37.1406 45.7938 37.3559 46.1323 38.1124C46.3554 37.7762 46.6356 37.5404 47.0349 37.4689C47.8565 37.3189 48.49 37.7668 48.5409 38.619C48.5868 39.3858 48.5506 40.1583 48.5506 40.9478H47.9934V40.682C47.9934 40.0595 48.0028 39.4369 47.9878 38.815C47.9798 38.4827 47.8988 38.1593 47.568 37.9997C47.2569 37.8494 46.9428 37.8846 46.6676 38.0939C46.3634 38.3254 46.2473 38.6619 46.2434 39.0382C46.2382 39.5812 46.2415 40.1248 46.2415 40.6683V40.9472H45.6738C45.6738 40.3037 45.6751 39.6664 45.6738 39.0288C45.6763 38.889 45.6677 38.7492 45.648 38.6108C45.5969 38.2984 45.4622 38.0428 45.1362 37.9548C44.785 37.8588 44.4708 37.9321 44.218 38.2061C44.0145 38.4268 43.9338 38.7008 43.9332 39.0013C43.9332 39.5977 43.9332 40.1941 43.9332 40.7904C43.9332 40.841 43.9271 40.8915 43.923 40.9552H43.3655V37.5461Z" fill="#7C868D"/>
<path d="M42.5354 40.9612H41.9906C41.9906 40.8476 41.9906 40.7448 41.9906 40.6423C41.9889 40.0198 41.9972 39.397 41.9823 38.7748C41.9707 38.2934 41.7625 38.0228 41.385 37.9418C40.9735 37.8535 40.5581 38.0481 40.3894 38.457C40.3007 38.683 40.2519 38.9234 40.2454 39.167C40.2255 39.7534 40.2387 40.341 40.2387 40.9499H39.6696V39.9309C39.6696 39.5802 39.6718 39.2295 39.6696 38.8787C39.6646 38.2662 39.4036 37.937 38.9138 37.9197C38.4072 37.9021 37.9797 38.2937 37.9553 38.8486C37.9277 39.4524 37.944 40.0581 37.9412 40.663C37.9412 40.7573 37.9412 40.8516 37.9412 40.959H37.3738V37.5565H37.8588C37.8793 37.686 37.9003 37.82 37.9274 37.9915C38.236 37.6116 38.6188 37.4307 39.0811 37.4451C39.5568 37.4599 39.9215 37.6627 40.1339 38.1315C40.4829 37.5786 40.9635 37.3722 41.5622 37.4679C42.094 37.5531 42.4975 37.9325 42.5249 38.4786C42.5661 39.2979 42.5354 40.1212 42.5354 40.9612Z" fill="#7C868D"/>
<path d="M77.9999 40.9555H77.5298L77.454 40.5011C77.1222 40.9345 76.7016 41.0791 76.2135 41.066C75.6222 41.0504 75.198 40.7738 74.969 40.2172C74.7229 39.6182 74.711 39.0034 74.953 38.4019C75.3357 37.4502 76.4463 37.1373 77.2699 37.7356C77.3108 37.7655 77.3528 37.7947 77.4341 37.8535V36.2217H77.9991L77.9999 40.9555ZM77.4703 39.036C77.4394 38.8066 77.4759 38.5314 77.363 38.3576C77.1302 37.9986 76.7395 37.8819 76.3224 37.9182C75.9261 37.9526 75.6626 38.1872 75.5097 38.5524C75.3457 38.9449 75.3385 39.355 75.4336 39.7619C75.5719 40.356 75.9402 40.6341 76.503 40.5969C77.0143 40.5631 77.3727 40.1893 77.4261 39.6162C77.4438 39.4257 77.4565 39.0372 77.4703 39.036Z" fill="#7C868D"/>
<path d="M60.9003 39.4694H58.399C58.3846 40.4946 59.3796 40.972 60.5065 40.2785L60.754 40.6386C60.1667 41.0614 59.5395 41.1807 58.8708 40.9811C58.2646 40.8005 57.9602 40.3279 57.8418 39.7199C57.7525 39.2885 57.785 38.8399 57.9355 38.4269C58.183 37.7544 58.7652 37.3903 59.4994 37.4448C60.1871 37.4959 60.6608 37.9032 60.811 38.6072C60.8682 38.8756 60.8702 39.1567 60.9003 39.4694ZM60.2997 39.0025C60.342 38.3581 59.9734 37.908 59.4051 37.8949C58.7815 37.8816 58.3777 38.3167 58.3877 39.0025H60.2997Z" fill="#7C868D"/>
<path d="M49.7734 39.4707C49.7709 40.4453 50.6846 40.9923 51.89 40.2806L52.1367 40.6427C51.5239 41.0686 50.8715 41.199 50.181 40.955C49.5286 40.7247 49.2582 40.175 49.1968 39.5136C49.174 39.2432 49.1884 38.9708 49.2396 38.7045C49.3939 37.8856 50.0062 37.4093 50.8278 37.4425C51.6038 37.4735 52.1242 37.9821 52.2299 38.8142C52.3128 39.471 52.3128 39.471 51.6715 39.471H49.7734V39.4707ZM49.7631 38.9968H51.6964C51.6881 38.2899 51.3239 37.8864 50.7189 37.8952C50.1459 37.9037 49.7584 38.3464 49.7631 38.9968Z" fill="#7C868D"/>
<path d="M36.7334 39.236C36.7373 40.5355 35.8281 41.2947 34.5988 41.018C33.9186 40.865 33.4435 40.2998 33.379 39.5413C33.3553 39.306 33.3606 39.0686 33.3948 38.8347C33.553 37.8865 34.2438 37.3651 35.2061 37.4468C36.1685 37.5286 36.7301 38.1861 36.7334 39.236ZM36.1804 39.2107C36.1422 39.0239 36.1201 38.795 36.0471 38.5842C35.8845 38.1131 35.533 37.8973 35.004 37.9086C34.5167 37.9191 34.194 38.156 34.0402 38.6237C33.9165 39 33.9069 39.406 34.0126 39.7881C34.1605 40.3481 34.517 40.6131 35.0858 40.6017C35.6251 40.5909 35.9735 40.3012 36.1013 39.7452C36.1381 39.5836 36.15 39.4172 36.1795 39.2107H36.1804Z" fill="#7C868D"/>
<path d="M67.356 39.2307C67.3453 37.7857 68.4387 37.2086 69.5921 37.5199C70.2666 37.7016 70.6082 38.2054 70.7008 38.8853C70.7367 39.1456 70.7327 39.4101 70.6889 39.6691C70.5197 40.6347 69.8159 41.1479 68.8239 41.0579C67.9218 40.9769 67.3533 40.2709 67.356 39.2307ZM70.1709 39.2051C70.1317 39.0157 70.1084 38.7865 70.0354 38.5755C69.8775 38.118 69.5258 37.8993 69.0122 37.9056C68.5181 37.9115 68.1926 38.139 68.0347 38.6013C67.9011 38.9924 67.8983 39.3925 68.0029 39.7896C68.1469 40.3365 68.5006 40.6038 69.0537 40.5984C69.5966 40.5935 69.9541 40.3087 70.086 39.7612C70.1286 39.5939 70.1402 39.4184 70.1709 39.2062V39.2051Z" fill="#7C868D"/>
<path d="M73.6706 37.5508H74.227V40.9404C73.7596 41.039 73.7403 41.0242 73.6803 40.4775C73.6006 40.5627 73.5368 40.6394 73.4649 40.7075C73.0417 41.1088 72.5395 41.1517 72.0227 40.9841C71.5437 40.8288 71.3056 40.4261 71.2849 39.9418C71.2511 39.1557 71.2758 38.367 71.2758 37.5584H71.8252C71.8252 37.6564 71.8252 37.7573 71.8252 37.8606C71.8299 38.492 71.8222 39.1236 71.844 39.7544C71.8595 40.1983 72.0802 40.4928 72.4063 40.578C72.8072 40.6825 73.2331 40.5388 73.4325 40.1654C73.5569 39.9285 73.6308 39.667 73.649 39.3985C73.6819 38.8745 73.6584 38.3477 73.6595 37.8206C73.6593 37.7337 73.6664 37.6482 73.6706 37.5508Z" fill="#7C868D"/>
<path d="M65.2773 40.3077L65.4606 40.6678C64.8799 41.2153 63.74 41.1937 63.1891 40.6355C62.5625 40.0005 62.5337 38.6331 63.1338 37.9485C63.6759 37.3291 64.8008 37.2627 65.477 37.8292L65.2947 38.16C64.9983 38.0748 64.7416 37.9701 64.477 37.9346C63.9209 37.8604 63.4814 38.1535 63.3587 38.709C63.2874 39.0236 63.2766 39.3496 63.3269 39.6685C63.4555 40.4094 64.05 40.7368 64.7837 40.5125C64.9449 40.4628 65.0978 40.383 65.2773 40.3077Z" fill="#7C868D"/>
<path d="M57.5942 37.8321L57.4064 38.1615C57.1323 38.082 56.8785 37.9766 56.6149 37.938C56.0364 37.8528 55.5917 38.1501 55.467 38.7371C55.3989 39.0525 55.3925 39.3785 55.4479 39.6965C55.5843 40.4206 56.1747 40.7345 56.9006 40.5115C57.0621 40.4615 57.2153 40.3826 57.3934 40.3085L57.5787 40.672C56.9606 41.226 55.8318 41.1931 55.2853 40.6152C54.6664 39.962 54.6581 38.594 55.2687 37.9278C55.8207 37.3254 56.9305 37.2712 57.5942 37.8321Z" fill="#7C868D"/>
<path d="M32.9608 40.308L33.1392 40.6567C32.6998 41.1752 31.5386 41.2071 30.9628 40.7212C30.2798 40.1447 30.1799 38.739 30.7692 38.0064C31.3085 37.337 32.4343 37.2447 33.1638 37.8275C33.0944 37.9487 32.9509 38.143 32.9503 38.116C32.6046 38.0558 32.259 37.9487 31.9136 37.9456C31.4609 37.943 31.1785 38.235 31.0425 38.6706C30.9273 39.0312 30.9226 39.4194 31.0289 39.7829C31.2172 40.4386 31.7623 40.72 32.4509 40.5156C32.6149 40.4684 32.7689 40.3878 32.9608 40.308Z" fill="#7C868D"/>
<path d="M66.6839 40.9587H66.146V36.2217H66.6839V40.9587Z" fill="#7C868D"/>
<path d="M53.389 37.5578C53.4037 37.7183 53.4167 37.8549 53.4349 38.0613C53.7391 37.5536 54.1539 37.4062 54.689 37.461C54.6772 37.6345 54.6666 37.7864 54.657 37.9287C54.6436 37.9365 54.6294 37.9428 54.6147 37.9475C53.7554 38.0122 53.4593 38.3382 53.4593 39.2263C53.4593 39.7942 53.4593 40.3622 53.4593 40.9512H52.8879V37.5578H53.389Z" fill="#7C868D"/>
<path d="M60.2999 39.0043H58.3879C58.3779 38.3196 58.7817 37.8845 59.4053 37.8967C59.9735 37.9098 60.3422 38.3599 60.2999 39.0043Z" fill="white"/>
<path d="M49.763 38.9958C49.7583 38.3454 50.1457 37.9027 50.7187 37.8942C51.3238 37.8854 51.688 38.2889 51.6963 38.9958H49.763Z" fill="white"/>
<path d="M13.0136 33.0722C13.8671 32.16 15.0554 31.5943 16.3696 31.5943C18.1168 31.5943 19.641 32.5935 20.4527 34.0768C21.1788 33.7442 21.9652 33.5727 22.7604 33.5737C25.9115 33.5737 28.4661 36.2166 28.4661 39.4769C28.4661 42.7373 25.9115 45.3802 22.7604 45.3802C22.3759 45.3802 22 45.3408 21.6366 45.2654C20.9217 46.5731 19.5596 47.4568 17.9961 47.4568C17.3638 47.4575 16.7397 47.3102 16.1714 47.0259C15.4468 48.7741 13.7586 50 11.7909 50C9.74183 50 7.9956 48.6701 7.32522 46.8052C7.03235 46.8689 6.72882 46.9023 6.41743 46.9023C3.97784 46.9023 2.00001 44.8527 2.00001 42.3244C1.99825 41.5231 2.20128 40.7353 2.58885 40.0395C2.97642 39.3438 3.535 38.7643 4.20893 38.359C3.92909 37.6982 3.78507 36.9854 3.78588 36.265C3.78588 33.3572 6.08752 31 8.92657 31C10.5933 31 12.0746 31.8128 13.0137 33.0722" fill="#009ED8"/>
<path d="M5.83385 40.849C5.81729 40.8936 5.83985 40.9028 5.84524 40.9106C5.89491 40.9477 5.94541 40.9742 5.99633 41.0041C6.26632 41.151 6.52111 41.194 6.78769 41.194C7.33058 41.194 7.66763 40.8978 7.66763 40.4209V40.4117C7.66763 39.9709 7.28722 39.8107 6.93019 39.6952L6.88383 39.6796C6.61466 39.59 6.38243 39.5127 6.38243 39.3309V39.3213C6.38243 39.1658 6.5181 39.0513 6.72849 39.0513C6.96227 39.0513 7.23972 39.131 7.41844 39.2323C7.41844 39.2323 7.4708 39.2671 7.49005 39.215C7.50061 39.187 7.59105 38.9373 7.60057 38.9102C7.61072 38.8808 7.5926 38.8592 7.57418 38.8476C7.37021 38.7203 7.08821 38.6333 6.79638 38.6333L6.74205 38.6337C6.24521 38.6337 5.89832 38.9415 5.89832 39.3828V39.392C5.89832 39.8572 6.28102 40.0079 6.63949 40.1131L6.69724 40.1314C6.95844 40.2137 7.18363 40.2844 7.18363 40.4732V40.4825C7.18363 40.6549 7.0373 40.7833 6.80124 40.7833C6.70966 40.7833 6.41752 40.7814 6.10188 40.5767C6.0638 40.5539 6.04155 40.5374 6.01216 40.5192C5.99664 40.5091 5.95793 40.4916 5.94096 40.5443L5.83385 40.849Z" fill="white"/>
<path d="M13.7811 40.849C13.7646 40.8936 13.7871 40.9028 13.7925 40.9106C13.8422 40.9477 13.8927 40.9742 13.9436 41.0041C14.2135 41.151 14.4684 41.194 14.735 41.194C15.2778 41.194 15.6149 40.8978 15.6149 40.4209V40.4117C15.6149 39.9709 15.2345 39.8107 14.8775 39.6952L14.8311 39.6796C14.5619 39.59 14.3296 39.5127 14.3296 39.3309V39.3213C14.3296 39.1658 14.4654 39.0513 14.6758 39.0513C14.9095 39.0513 15.187 39.131 15.3657 39.2323C15.3657 39.2323 15.4181 39.2671 15.4373 39.215C15.4479 39.187 15.5383 38.9373 15.5477 38.9102C15.558 38.8808 15.5399 38.8592 15.5213 38.8476C15.3175 38.7203 15.0354 38.6333 14.7436 38.6333L14.6893 38.6337C14.1924 38.6337 13.8456 38.9415 13.8456 39.3828V39.392C13.8456 39.8572 14.2282 40.0079 14.5868 40.1131L14.6444 40.1314C14.9057 40.2137 15.1312 40.2844 15.1312 40.4732V40.4825C15.1312 40.6549 14.9845 40.7833 14.7485 40.7833C14.6569 40.7833 14.3647 40.7814 14.0491 40.5767C14.0111 40.5539 13.9884 40.5381 13.9598 40.5192C13.95 40.5126 13.904 40.4944 13.8881 40.5443L13.7811 40.849Z" fill="white"/>
<path d="M19.2061 39.9195C19.2061 40.1891 19.1571 40.4013 19.0606 40.5513C18.9652 40.6999 18.8209 40.7721 18.6195 40.7721C18.4178 40.7721 18.2741 40.7002 18.1803 40.5513C18.0853 40.4017 18.0371 40.1891 18.0371 39.9195C18.0371 39.6504 18.0853 39.4384 18.1803 39.29C18.2741 39.143 18.4178 39.0715 18.6195 39.0715C18.8209 39.0715 18.9651 39.143 19.061 39.2899C19.1572 39.4385 19.2061 39.6504 19.2061 39.9195ZM19.6593 39.42C19.6148 39.2656 19.5455 39.1296 19.4531 39.0162C19.3607 38.9026 19.2438 38.8113 19.105 38.7448C18.9667 38.6787 18.8031 38.645 18.6195 38.645C18.4355 38.645 18.2719 38.6787 18.1335 38.7448C17.9948 38.8112 17.8779 38.9025 17.7852 39.0162C17.6932 39.1299 17.6237 39.2661 17.5789 39.42C17.5348 39.5734 17.5127 39.7412 17.5127 39.9195C17.5127 40.0978 17.5348 40.266 17.5789 40.4191C17.6238 40.573 17.6928 40.7091 17.7856 40.8228C17.8779 40.9364 17.9951 41.0274 18.1335 41.0919C18.2722 41.1565 18.4355 41.1893 18.6195 41.1893C18.8031 41.1893 18.9664 41.1564 19.105 41.0919C19.2434 41.0274 19.3607 40.9365 19.4531 40.8228C19.5455 40.7095 19.6148 40.5734 19.6593 40.4191C19.7038 40.2656 19.7261 40.0975 19.7261 39.9195C19.7261 39.7417 19.7038 39.5734 19.6593 39.42Z" fill="white"/>
<path d="M23.3801 40.6971C23.3651 40.6519 23.3225 40.6689 23.3225 40.6689C23.2565 40.6949 23.1864 40.7187 23.1118 40.7307C23.0295 40.7433 22.9464 40.7494 22.8633 40.749C22.6439 40.749 22.4696 40.6821 22.3448 40.5498C22.2197 40.4175 22.1495 40.2037 22.1503 39.9145C22.1511 39.6512 22.213 39.4532 22.3241 39.3024C22.4347 39.1523 22.6027 39.0754 22.8271 39.0754C23.0141 39.0754 23.1566 39.0974 23.3059 39.1457C23.3059 39.1457 23.3417 39.1617 23.3587 39.1137C23.3982 39.0007 23.4277 38.92 23.4699 38.7958C23.4819 38.7606 23.4525 38.7456 23.442 38.7413C23.3832 38.7177 23.2444 38.6795 23.1396 38.6632C23.0416 38.6477 22.927 38.6396 22.7995 38.6396C22.6091 38.6396 22.4395 38.6729 22.2943 38.7394C22.1495 38.8054 22.0267 38.8967 21.9294 39.0104C21.8322 39.1241 21.7583 39.2603 21.7089 39.4142C21.6598 39.5676 21.635 39.7362 21.635 39.9145C21.635 40.3 21.7364 40.6116 21.9366 40.8398C22.1371 41.0687 22.4385 41.1851 22.8312 41.1851C23.0634 41.1851 23.3018 41.1368 23.4728 41.0675C23.4728 41.0675 23.5057 41.0513 23.4915 41.0123L23.3801 40.6971Z" fill="white"/>
<path d="M24.1743 39.6612C24.1958 39.5116 24.2361 39.3871 24.2983 39.29C24.3922 39.1427 24.5354 39.0618 24.7368 39.0618C24.9381 39.0618 25.0712 39.143 25.1666 39.29C25.2299 39.3871 25.2574 39.517 25.2683 39.6612H24.1743ZM25.7 39.3322C25.6616 39.1833 25.5661 39.0329 25.5036 38.964C25.4048 38.855 25.3084 38.7788 25.2125 38.7363C25.0735 38.6758 24.9239 38.6448 24.7729 38.645C24.5815 38.645 24.4076 38.6779 24.2667 38.7459C24.1253 38.814 24.0065 38.9068 23.9134 39.0225C23.8202 39.1376 23.7502 39.2749 23.7057 39.4308C23.6607 39.5857 23.6382 39.7548 23.6382 39.933C23.6382 40.1144 23.6616 40.2833 23.7079 40.4353C23.7546 40.5885 23.8293 40.7234 23.9304 40.8351C24.031 40.9476 24.1607 41.0358 24.316 41.0973C24.4702 41.1584 24.6575 41.1902 24.8728 41.1898C25.3158 41.1882 25.5493 41.0868 25.6453 41.0323C25.6623 41.0228 25.6785 41.0057 25.6581 40.957L25.5579 40.6689C25.5429 40.6259 25.5002 40.6419 25.5002 40.6419C25.3905 40.6836 25.2345 40.7586 24.8706 40.7579C24.6327 40.7574 24.4562 40.6855 24.3458 40.573C24.2323 40.4578 24.1769 40.2884 24.1671 40.0495L25.7012 40.051C25.7012 40.051 25.7415 40.0502 25.7457 40.01C25.7471 39.993 25.7985 39.6867 25.7 39.3322Z" fill="white"/>
<path d="M11.8894 39.6612C11.9112 39.5116 11.9512 39.3871 12.0135 39.29C12.1073 39.1427 12.2506 39.0618 12.4519 39.0618C12.6533 39.0618 12.7864 39.143 12.8821 39.29C12.9451 39.3871 12.9727 39.517 12.9835 39.6612H11.8894ZM13.4149 39.3322C13.3764 39.1833 13.2814 39.0329 13.2188 38.964C13.12 38.855 13.0235 38.7788 12.9278 38.7363C12.7887 38.6758 12.6391 38.6448 12.4881 38.645C12.2969 38.645 12.1228 38.6779 11.9818 38.7459C11.8403 38.814 11.7216 38.9068 11.6285 39.0225C11.5353 39.1376 11.4653 39.2749 11.4208 39.4308C11.3762 39.5857 11.3533 39.7548 11.3533 39.933C11.3533 40.1144 11.3766 40.2833 11.423 40.4353C11.4697 40.5885 11.5444 40.7234 11.6454 40.8351C11.7461 40.9476 11.8758 41.0358 12.0312 41.0973C12.1854 41.1584 12.3727 41.1902 12.588 41.1898C13.031 41.1882 13.2644 41.0868 13.3606 41.0323C13.3775 41.0228 13.3937 41.0057 13.3734 40.957L13.2735 40.6689C13.258 40.6259 13.2155 40.6419 13.2155 40.6419C13.1058 40.6836 12.95 40.7586 12.5854 40.7579C12.3479 40.7574 12.1714 40.6855 12.061 40.573C11.9474 40.4578 11.892 40.2884 11.8822 40.0495L13.4164 40.051C13.4164 40.051 13.4567 40.0502 13.4609 40.01C13.4624 39.993 13.5136 39.6867 13.4149 39.3322Z" fill="white"/>
<path d="M8.57337 40.6887C8.51335 40.6396 8.50507 40.6271 8.48478 40.5955C8.45457 40.5472 8.43915 40.4783 8.43915 40.391C8.43915 40.2526 8.48365 40.1532 8.57595 40.0864C8.57492 40.0867 8.7079 39.9683 9.02095 39.9726C9.24065 39.9758 9.43706 40.009 9.43706 40.009V40.7244H9.43748C9.43748 40.7244 9.24251 40.7672 9.02312 40.7807C8.7109 40.8 8.57223 40.6884 8.57337 40.6887ZM9.18373 39.5832C9.12153 39.5786 9.04092 39.5758 8.94437 39.5758C8.81273 39.5758 8.68565 39.5928 8.56664 39.6257C8.4466 39.6586 8.33887 39.7101 8.24614 39.7781C8.15351 39.8459 8.07738 39.9347 8.02365 40.0375C7.96942 40.1412 7.94189 40.2634 7.94189 40.4002C7.94189 40.5395 7.96518 40.6605 8.01195 40.7595C8.05756 40.8574 8.12642 40.942 8.2122 41.0054C8.29737 41.0691 8.40262 41.116 8.52473 41.1443C8.64498 41.1725 8.78138 41.1867 8.93071 41.1867C9.08801 41.1867 9.24479 41.1737 9.3967 41.1469C9.526 41.1241 9.65483 41.0986 9.78312 41.0704C9.83404 41.058 9.89064 41.0422 9.89064 41.0422C9.92873 41.0325 9.92562 40.9907 9.92562 40.9907L9.9249 39.5519C9.9249 39.2364 9.84273 39.0024 9.68098 38.8575C9.52006 38.7128 9.28287 38.6396 8.97634 38.6396C8.86147 38.6396 8.67623 38.656 8.5655 38.6787C8.5655 38.6787 8.23021 38.7453 8.09226 38.8559C8.09226 38.8559 8.06215 38.8752 8.0787 38.9185L8.18736 39.2178C8.20082 39.2564 8.23745 39.2433 8.23745 39.2433C8.23745 39.2433 8.24915 39.2387 8.2627 39.2305C8.55784 39.0658 8.93112 39.0709 8.93112 39.0709C9.09701 39.0709 9.2244 39.1049 9.3104 39.1726C9.39412 39.2383 9.43665 39.3376 9.43665 39.5473V39.6137C9.30471 39.5944 9.18373 39.5832 9.18373 39.5832Z" fill="white"/>
<path d="M21.5556 38.7747C21.5578 38.7694 21.559 38.7638 21.559 38.7581C21.559 38.7523 21.5579 38.7467 21.5558 38.7414C21.5536 38.7361 21.5504 38.7314 21.5464 38.7274C21.5424 38.7234 21.5377 38.7203 21.5325 38.7182C21.5065 38.7077 21.376 38.6795 21.2753 38.6729C21.0826 38.6609 20.9755 38.6941 20.8797 38.7383C20.7847 38.7823 20.6791 38.8535 20.6202 38.9343V38.743C20.6202 38.7163 20.6018 38.6951 20.5761 38.6951H20.1828C20.1572 38.6951 20.1387 38.7163 20.1387 38.743V41.0898C20.1387 41.116 20.1598 41.1377 20.1855 41.1377H20.5885C20.6009 41.1376 20.6127 41.1326 20.6214 41.1236C20.6301 41.1146 20.635 41.1025 20.6349 41.0898V39.9173C20.6349 39.7599 20.6519 39.6029 20.6859 39.5043C20.719 39.4068 20.7643 39.3287 20.8201 39.2727C20.8734 39.2189 20.9385 39.1789 21.0099 39.1559C21.0811 39.1334 21.16 39.1262 21.2157 39.1262C21.2961 39.1262 21.3843 39.1474 21.3843 39.1474C21.4137 39.1508 21.4303 39.1323 21.4402 39.1049C21.4665 39.0329 21.5412 38.8176 21.5555 38.7747" fill="white"/>
<path d="M17.7738 37.6833C17.724 37.6678 17.6734 37.6554 17.6221 37.6461C17.5533 37.6345 17.4835 37.6291 17.4137 37.63C17.1362 37.63 16.9175 37.7103 16.7641 37.8689C16.6114 38.0266 16.5077 38.2668 16.4558 38.5827L16.4368 38.689H16.0885C16.0885 38.689 16.0463 38.6875 16.0373 38.7347L15.9803 39.0621C15.9762 39.0931 15.9893 39.1129 16.03 39.1129H16.369L16.0251 41.0818C15.9984 41.2404 15.9675 41.3707 15.9331 41.4696C15.8996 41.5671 15.8669 41.6402 15.8261 41.6936C15.7868 41.7445 15.75 41.7825 15.6858 41.8045C15.633 41.8226 15.572 41.8312 15.5052 41.8312C15.4683 41.8312 15.4189 41.825 15.3824 41.8172C15.3538 41.8116 15.3259 41.8024 15.2994 41.7899C15.2994 41.7899 15.2599 41.7744 15.244 41.815C15.2316 41.8487 15.1411 42.1034 15.1302 42.1347C15.1196 42.166 15.1346 42.1904 15.1539 42.1978C15.1991 42.214 15.2326 42.2248 15.2941 42.2399C15.3794 42.2604 15.4514 42.2615 15.5189 42.2615C15.6598 42.2615 15.7888 42.2411 15.8955 42.2017C16.0026 42.1618 16.096 42.0926 16.179 41.9989C16.2683 41.8977 16.3245 41.7918 16.378 41.6468C16.4312 41.5037 16.4769 41.3258 16.513 41.1185L16.8587 39.1129H17.364C17.364 39.1129 17.4065 39.1144 17.4152 39.0668L17.4725 38.7397C17.4762 38.7084 17.4635 38.689 17.4223 38.689H16.9318C16.9345 38.6778 16.9567 38.5008 17.0129 38.3341C17.037 38.2633 17.0823 38.2057 17.1203 38.1662C17.1563 38.1288 17.2004 38.1007 17.249 38.0843C17.2976 38.068 17.353 38.0603 17.4137 38.0603C17.4597 38.0603 17.5053 38.0657 17.5396 38.073C17.5872 38.0835 17.6056 38.0889 17.618 38.0927C17.6682 38.1082 17.6749 38.0932 17.6848 38.0683L17.802 37.7382C17.8141 37.7026 17.7843 37.6875 17.7738 37.6833Z" fill="white"/>
<path d="M10.9207 41.0886C10.9207 41.1149 10.9022 41.1362 10.8766 41.1362H10.4698C10.4441 41.1362 10.426 41.115 10.426 41.0886V37.7307C10.426 37.7044 10.4441 37.6831 10.4698 37.6831H10.8765C10.9022 37.6831 10.9207 37.7043 10.9207 37.7307V41.0886Z" fill="white"/>
</svg>
