<svg width="100%" height="100%" viewBox="0 0 80 80" fill="none" xmlns="http://www.w3.org/2000/svg">
<circle cx="40" cy="40" r="39.5" fill="white" stroke="#ECECEC"/>
<g clip-path="url(#clip0_8874_32921)">
<path d="M17.7694 40.6174C17.7694 40.6174 17.3529 40.5586 16.9364 40.5586C16.2819 40.5586 16.0439 40.794 16.0439 40.794C15.8653 40.9117 15.7463 41.1471 15.7463 41.3825C15.7463 41.559 15.8058 41.6767 15.8653 41.7944C15.9248 41.8533 15.9248 41.8533 16.0439 41.971C16.0439 41.971 16.3414 42.2064 16.9364 42.1475C17.3529 42.1475 17.7694 42.0298 17.7694 42.0298V40.6174Z" fill="#009ED8"/>
<path d="M23.839 38.7336C23.4225 38.7336 23.125 38.9102 22.9465 39.2044C22.8275 39.381 22.768 39.6164 22.7085 39.9106H24.9101C24.9101 39.6164 24.8506 39.381 24.7316 39.2044C24.5531 38.9102 24.2556 38.7336 23.839 38.7336Z" fill="#009ED8"/>
<path d="M36.3329 38.7336C35.9164 38.7336 35.6188 38.8513 35.4403 39.1456C35.2618 39.4398 35.1428 39.8518 35.1428 40.3814C35.1428 40.911 35.2618 41.323 35.4403 41.6172C35.6188 41.9115 35.9164 42.0292 36.3329 42.0292C36.7494 42.0292 37.0469 41.9115 37.2254 41.6172C37.4039 41.323 37.5229 40.911 37.5229 40.3814C37.5229 39.8518 37.4039 39.4398 37.2254 39.1456C37.0469 38.9102 36.7494 38.7336 36.3329 38.7336Z" fill="#009ED8"/>
<path d="M48.7101 38.7336C48.2936 38.7336 47.9961 38.9102 47.8176 39.2044C47.6986 39.381 47.6391 39.6164 47.5796 39.9106H49.7812C49.7812 39.6164 49.7217 39.381 49.6027 39.2044C49.4242 38.9102 49.1267 38.7336 48.7101 38.7336Z" fill="#009ED8"/>
<path d="M44.7234 28.0234C43.0574 28.0234 41.4508 28.3765 40.0227 29.0238C38.3566 26.1402 35.2625 24.1394 31.7518 24.1394C29.0742 24.1394 26.6941 25.2575 24.9685 27.023C23.0645 24.5513 20.0893 22.9624 16.6977 22.9624C10.9259 22.9624 6.28469 27.5526 6.28469 33.2609C6.28469 34.7322 6.58221 36.0857 7.11773 37.3804C4.44011 38.9104 2.65503 41.8529 2.65503 45.1484C2.65503 50.0917 6.64171 54.0934 11.5804 54.0934C12.235 54.0934 12.83 54.0346 13.425 53.9169C14.7936 57.5655 18.3042 60.1548 22.4694 60.1548C26.4561 60.1548 29.8478 57.742 31.3353 54.3288C32.4659 54.8584 33.7154 55.1527 35.0245 55.1527C38.1781 55.1527 40.9748 53.4461 42.4028 50.8567C43.1169 50.9744 43.8904 51.0921 44.6639 51.0921C51.0307 51.0921 56.2075 45.9134 56.2075 39.5578C56.267 33.2021 51.0902 28.0234 44.7234 28.0234ZM14.139 41.4409C14.139 42.3825 13.4845 42.971 12.354 42.971C11.8184 42.971 11.2829 42.9121 10.7474 42.6179C10.6284 42.5591 10.5689 42.5002 10.4499 42.4414C10.4499 42.4414 10.3904 42.3825 10.4499 42.3237L10.6879 41.7352C10.7474 41.6175 10.8069 41.6763 10.8069 41.6763C10.8664 41.7352 10.9259 41.7352 10.9854 41.794C11.6399 42.206 12.235 42.206 12.4135 42.206C12.8895 42.206 13.187 41.9706 13.187 41.6175C13.187 41.2644 12.711 41.0878 12.1755 40.9701L12.0565 40.9113C11.3424 40.7347 10.5689 40.3816 10.5689 39.4989C10.5689 38.6162 11.2829 38.0277 12.2945 38.0277H12.4135C13.0085 38.0277 13.6035 38.2042 13.9605 38.4396C14.02 38.4396 14.02 38.4985 14.02 38.5573C14.02 38.6162 13.8415 39.087 13.782 39.1458C13.7225 39.2635 13.663 39.2047 13.663 39.2047C13.306 39.0281 12.711 38.8516 12.2945 38.8516C11.8779 38.8516 11.5804 39.087 11.5804 39.3812C11.5804 39.7343 12.0565 39.9109 12.592 40.0874L12.711 40.1463C13.3655 40.2051 14.139 40.5582 14.139 41.4409ZM18.6613 42.6179C18.6613 42.6179 18.5422 42.6768 18.4232 42.6768C18.3042 42.6768 17.9472 42.7944 17.6497 42.8533C17.3522 42.9121 16.9952 42.9121 16.6977 42.9121C16.4002 42.9121 16.1026 42.9121 15.8646 42.8533C15.6266 42.7944 15.3886 42.7356 15.2101 42.5591C15.0316 42.4414 14.9126 42.2648 14.7936 42.0883C14.6746 41.9117 14.6746 41.6763 14.6746 41.3821C14.6746 41.0878 14.7341 40.8524 14.8531 40.6759C14.9721 40.4993 15.0911 40.3228 15.3291 40.1463C15.5076 40.0286 15.7456 39.9109 15.9836 39.852C16.2216 39.7932 16.4597 39.7343 16.7572 39.7343C16.9357 39.7343 17.1142 39.7343 17.2332 39.7343C17.2332 39.7343 17.4712 39.7343 17.7687 39.7932V39.6755C17.7687 39.2635 17.7092 39.087 17.5307 38.9693C17.3522 38.8516 17.1142 38.7927 16.7572 38.7927C16.7572 38.7927 15.9836 38.7927 15.3886 39.087H15.3291C15.3291 39.087 15.2696 39.087 15.2101 39.0281L14.9721 38.4396C14.9126 38.3808 14.9721 38.3219 14.9721 38.3219C15.2696 38.0865 15.9241 37.9688 15.9241 37.9688C16.1621 37.91 16.5192 37.91 16.7572 37.91C17.3522 37.91 17.8877 38.0277 18.1852 38.3219C18.5422 38.6162 18.6613 39.087 18.6613 39.6755V42.5002C18.7208 42.5002 18.7208 42.6179 18.6613 42.6179ZM20.7438 42.7356C20.7438 42.7944 20.6843 42.8533 20.6843 42.8533H19.8513C19.7918 42.8533 19.7918 42.7944 19.7918 42.7356V36.1445C19.7918 36.0857 19.8513 36.0268 19.8513 36.0268H20.6843C20.7438 36.0268 20.7438 36.0857 20.7438 36.1445V42.7356ZM25.9206 40.617C25.9206 40.6759 25.8016 40.6759 25.8016 40.6759H22.7074C22.7074 41.1467 22.8264 41.4998 23.0645 41.6763C23.3025 41.9117 23.6595 42.0294 24.1355 42.0294C24.8495 42.0294 25.2065 41.9117 25.3851 41.794C25.3851 41.794 25.4446 41.7352 25.5041 41.8529L25.6826 42.4414C25.7421 42.5591 25.6826 42.5591 25.6826 42.6179C25.5041 42.7356 25.028 42.9121 24.1355 42.9121C23.719 42.9121 23.3025 42.8533 23.0049 42.7356C22.7074 42.6179 22.4099 42.4414 22.2314 42.206C22.0529 41.9706 21.8744 41.7352 21.7554 41.4409C21.6364 41.1467 21.6364 40.7936 21.6364 40.4405C21.6364 40.0874 21.6959 39.7343 21.7554 39.4401C21.8744 39.1458 21.9934 38.8516 22.1719 38.6162C22.3504 38.3808 22.5884 38.2042 22.8859 38.0865C23.1835 37.9688 23.5405 37.91 23.8975 37.91C24.2545 37.91 24.552 37.9688 24.79 38.0865C24.9685 38.1454 25.2065 38.3219 25.3851 38.5573C25.5041 38.675 25.6826 38.9693 25.8016 39.2635C25.9801 39.9697 25.9206 40.5582 25.9206 40.617ZM26.8726 42.5591C26.7536 42.5002 26.6941 42.4414 26.5751 42.3825C26.5751 42.3825 26.5156 42.3237 26.5751 42.2648L26.8131 41.6763C26.8726 41.5586 26.9321 41.6175 26.9321 41.6175C26.9916 41.6763 27.0511 41.6763 27.1106 41.7352C27.7652 42.1471 28.3602 42.1471 28.5387 42.1471C29.0147 42.1471 29.3122 41.9117 29.3122 41.5586C29.3122 41.2055 28.8362 41.029 28.3007 40.9113L28.1817 40.8524C27.4677 40.6759 26.6941 40.3228 26.6941 39.4401C26.6941 38.5573 27.4081 37.9688 28.4197 37.9688H28.5387C29.1337 37.9688 29.7288 38.1454 30.0858 38.3808C30.1453 38.3808 30.1453 38.4396 30.1453 38.4985C30.1453 38.5573 29.9668 39.0281 29.9073 39.087C29.8478 39.2047 29.7883 39.1458 29.7883 39.1458C29.4312 38.9693 28.8362 38.7927 28.4197 38.7927C28.0032 38.7927 27.7057 39.0281 27.7057 39.3224C27.7057 39.6755 28.1817 39.852 28.7172 40.0286L28.8362 40.0874C29.5502 40.3228 30.3238 40.617 30.3238 41.4998C30.3238 42.4414 29.6693 43.0298 28.5387 43.0298C27.9437 42.9121 27.4081 42.8533 26.8726 42.5591ZM33.8939 38.7339C33.8939 38.8516 33.7749 38.8516 33.7749 38.8516H32.7634L32.0494 42.7944C31.9899 43.2064 31.8709 43.5595 31.7518 43.8537C31.6328 44.148 31.5138 44.3245 31.3353 44.5599C31.1568 44.7365 30.9783 44.8542 30.7403 44.9719C30.5023 45.0307 30.2643 45.0896 29.9668 45.0896C29.8478 45.0896 29.6693 45.0896 29.4907 45.0307C29.3717 45.0307 29.3122 44.9719 29.1932 44.9719C29.1337 44.9719 29.1337 44.913 29.1337 44.8542C29.1337 44.7953 29.3122 44.2657 29.3717 44.2068C29.4312 44.148 29.4907 44.148 29.4907 44.148C29.5502 44.148 29.6097 44.2068 29.6693 44.2068C29.7288 44.2068 29.8478 44.2068 29.9073 44.2068C30.0263 44.2068 30.1453 44.2068 30.2643 44.148C30.3833 44.0891 30.4428 44.0303 30.5618 43.9126C30.6213 43.7949 30.6808 43.6772 30.7998 43.5006C30.8593 43.3241 30.9188 43.0298 30.9783 42.7356L31.6923 38.9104H30.9783C30.9188 38.9104 30.8593 38.8516 30.8593 38.7927L30.9783 38.1454C30.9783 38.0277 31.0973 38.0277 31.0973 38.0277H31.8113L31.8708 37.7923C31.9899 37.145 32.1684 36.733 32.4659 36.3799C32.7634 36.0857 33.2394 35.9091 33.7749 35.9091C33.9534 35.9091 34.0725 35.9091 34.1915 35.968C34.3105 35.968 34.37 36.0268 34.489 36.0268C34.489 36.0268 34.5485 36.0857 34.5485 36.1445L34.3105 36.7919C34.3105 36.8507 34.251 36.8507 34.1915 36.8507C34.1915 36.8507 34.132 36.8507 34.0129 36.7919C33.9534 36.7919 33.8344 36.7919 33.7749 36.7919C33.6559 36.7919 33.5369 36.7919 33.4179 36.8507C33.2989 36.9096 33.2394 36.9096 33.1799 37.0273C33.1204 37.0861 33.0014 37.2038 32.9419 37.3804C32.8229 37.7335 32.7634 38.0277 32.7634 38.0865H33.8939C33.9534 38.0865 34.0129 38.1454 34.0129 38.2042L33.8939 38.7339ZM38.4756 41.3821C38.3566 41.6763 38.2376 41.9706 38.0591 42.1471C37.8806 42.3825 37.6426 42.5591 37.3451 42.6768C37.0476 42.7944 36.7501 42.8533 36.3336 42.8533C35.917 42.8533 35.6195 42.7944 35.322 42.6768C35.0245 42.5591 34.7865 42.3825 34.608 42.1471C34.4295 41.9117 34.251 41.6763 34.1915 41.3821C34.0725 41.0878 34.0725 40.7347 34.0725 40.3816C34.0725 40.0286 34.132 39.6755 34.1915 39.3812C34.3105 39.087 34.4295 38.7927 34.608 38.6162C34.7865 38.3808 35.0245 38.2042 35.322 38.0865C35.6195 37.9688 35.917 37.91 36.3336 37.91C36.6906 37.91 37.0476 37.9688 37.3451 38.0865C37.6426 38.2042 37.8806 38.3808 38.0591 38.6162C38.2376 38.8516 38.4161 39.087 38.4756 39.3812C38.5947 39.6755 38.5947 40.0286 38.5947 40.3816C38.5947 40.7936 38.5351 41.0878 38.4756 41.3821ZM42.0458 38.8516C42.0458 38.9104 41.9863 38.9693 41.9268 38.9104C41.9268 38.9104 41.7483 38.8516 41.5698 38.8516C41.4508 38.8516 41.2723 38.8516 41.1533 38.9104C41.0343 38.9693 40.8558 39.0281 40.7963 39.1458C40.6772 39.2635 40.6177 39.3812 40.4987 39.6166C40.4392 39.7932 40.3797 40.0874 40.3797 40.4405V42.7356C40.3797 42.7944 40.3202 42.8533 40.2607 42.8533H39.4277C39.3682 42.8533 39.3087 42.7944 39.3087 42.7356V38.1454C39.3087 38.0865 39.3682 38.0277 39.3682 38.0277H40.1417C40.2012 38.0277 40.2012 38.0865 40.2012 38.1454V38.4985C40.3202 38.3219 40.5582 38.2042 40.7368 38.0865C40.9153 38.0277 41.1533 37.91 41.5103 37.9688C41.6888 37.9688 41.9863 38.0277 42.0458 38.0277C42.0458 38.0277 42.1053 38.0865 42.1053 38.1454C42.2838 38.2631 42.1053 38.675 42.0458 38.8516ZM46.1515 42.6768C45.7945 42.7944 45.3185 42.9121 44.8424 42.9121C44.0689 42.9121 43.4144 42.6768 43.0574 42.2648C42.6408 41.794 42.4623 41.2055 42.4623 40.4405C42.4623 40.0874 42.5218 39.7343 42.6408 39.4401C42.7598 39.1458 42.8788 38.8516 43.1169 38.675C43.2954 38.4396 43.5334 38.2631 43.8309 38.1454C44.1284 38.0277 44.4854 37.9688 44.8424 37.9688C45.0804 37.9688 45.3185 37.9688 45.5565 38.0277C45.7945 38.0865 46.0325 38.1454 46.1515 38.2042C46.1515 38.2042 46.211 38.2631 46.211 38.3219C46.1515 38.5573 46.092 38.7339 45.973 38.9693C45.9135 39.087 45.854 39.0281 45.854 39.0281C45.5565 38.9104 45.259 38.9104 44.9019 38.9104C44.4259 38.9104 44.1284 39.087 43.8904 39.3812C43.6524 39.6755 43.5334 40.0874 43.5334 40.5582C43.5334 41.1467 43.6524 41.5586 43.9499 41.794C44.1879 42.0294 44.5449 42.206 45.0209 42.206C45.1995 42.206 45.378 42.206 45.497 42.1471C45.6755 42.1471 45.7945 42.0883 45.9135 42.0294C45.9135 42.0294 45.973 41.9706 46.0325 42.0883L46.2705 42.6768C46.2705 42.6179 46.1515 42.6768 46.1515 42.6768ZM50.7927 40.617C50.7927 40.6759 50.6737 40.6759 50.6737 40.6759H47.5796C47.5796 41.1467 47.6986 41.4998 47.9366 41.6763C48.1746 41.9117 48.5316 42.0294 49.0076 42.0294C49.7217 42.0294 50.0787 41.9117 50.2572 41.794C50.2572 41.794 50.3167 41.7352 50.3762 41.8529L50.5547 42.4414C50.6142 42.5591 50.5547 42.5591 50.5547 42.6179C50.3762 42.7356 49.9002 42.9121 49.0076 42.9121C48.5911 42.9121 48.1746 42.8533 47.8771 42.7356C47.5796 42.6179 47.282 42.4414 47.1035 42.206C46.925 41.9706 46.7465 41.7352 46.6275 41.4409C46.5085 41.1467 46.5085 40.7936 46.5085 40.4405C46.5085 40.0874 46.568 39.7343 46.6275 39.4401C46.7465 39.1458 46.8655 38.8516 47.044 38.6162C47.2225 38.3808 47.4606 38.2042 47.7581 38.0865C48.0556 37.9688 48.4126 37.91 48.7696 37.91C49.1266 37.91 49.4241 37.9688 49.6622 38.0865C49.8407 38.1454 50.0787 38.3219 50.2572 38.5573C50.3762 38.675 50.5547 38.9693 50.6737 39.2635C50.9117 39.9697 50.7927 40.5582 50.7927 40.617Z" fill="#009ED8"/>
<g clip-path="url(#clip1_8874_32921)">
<path d="M65.7835 37.2441L65.2979 37.7621C65.0658 37.5644 64.7975 37.4109 64.5071 37.3097C64.2063 37.2022 63.8881 37.1482 63.5676 37.1504C62.7561 37.1504 62.145 37.3962 61.7342 37.8879C61.3234 38.3796 61.118 39.0266 61.118 39.8288C61.118 40.6319 61.3238 41.278 61.7355 41.767C62.1473 42.256 62.752 42.5018 63.5498 42.5045C63.8968 42.5059 64.2406 42.4395 64.5607 42.3091C64.8676 42.1821 65.1475 42.0005 65.386 41.7737L65.8908 42.3091C65.5928 42.5956 65.2381 42.8201 64.8482 42.969C64.4241 43.1324 63.9715 43.2143 63.5154 43.2099C62.8954 43.2279 62.2822 43.0803 61.7424 42.7829C61.2575 42.5024 60.8699 42.087 60.6297 41.5903C60.3677 41.0373 60.2383 40.4336 60.2514 39.8248C60.238 39.2159 60.3674 38.6121 60.6297 38.0592C60.8701 37.562 61.2601 37.1475 61.7479 36.8706C62.2938 36.5751 62.9117 36.4289 63.536 36.4476C63.96 36.4445 64.3814 36.5138 64.7808 36.6524C65.1532 36.7807 65.4945 36.982 65.7835 37.2441Z" fill="#818B91"/>
<path d="M71.5484 38.7089C71.5625 39.122 71.4484 39.5297 71.221 39.8788C71.0087 40.1926 70.7085 40.4406 70.3559 40.5936C69.9927 40.7525 69.5986 40.8333 69.2005 40.8305H67.7797V43.0659H66.9475V36.6155H69.1826C69.874 36.6155 70.4411 36.7855 70.884 37.1255C71.3269 37.4654 71.5484 37.9933 71.5484 38.7089ZM67.77 37.262V40.1746H69.1262C69.5333 40.1868 69.9309 40.054 70.2445 39.8012C70.5461 39.554 70.697 39.193 70.697 38.7183C70.697 38.2079 70.5461 37.838 70.2445 37.6087C69.9172 37.3699 69.5157 37.2475 69.107 37.262H67.77Z" fill="#818B91"/>
<path d="M78.2083 39.8293C78.2083 40.8787 77.9075 41.6818 77.306 42.2386C76.7045 42.7955 75.8673 43.0712 74.7944 43.0659H72.6611V36.6155H74.7752C75.8755 36.6155 76.7219 36.8832 77.3143 37.4186C77.9066 37.954 78.2046 38.7576 78.2083 39.8293ZM73.485 37.2861V42.3912H74.7105C75.5707 42.3912 76.2267 42.182 76.6788 41.7635C77.1309 41.345 77.3551 40.7002 77.3514 39.8293C77.3514 38.1338 76.472 37.2861 74.7133 37.2861H73.485Z" fill="#818B91"/>
</g>
</g>
<defs>
<clipPath id="clip0_8874_32921">
<rect width="79" height="38.4872" fill="white" transform="translate(0.800049 22)"/>
</clipPath>
<clipPath id="clip1_8874_32921">
<rect width="17.9482" height="6.76226" fill="white" transform="translate(60.2603 36.4534)"/>
</clipPath>
</defs>
</svg>
