<svg width="100%" height="100%" viewBox="0 0 81 80" fill="none" xmlns="http://www.w3.org/2000/svg">
<circle cx="40" cy="40" r="39.5" fill="white" stroke="#ECECEC"/>
<path d="M39.4949 36.8894C39.4949 36.6962 39.4949 36.5029 39.4949 36.3483C39.4949 36.1937 39.4949 36.0392 39.4949 35.8846H40.1519C40.1519 36.0005 40.1519 36.1165 40.1519 36.2324C40.1519 36.3483 40.1519 36.4643 40.1519 36.5802C40.1905 36.4643 40.2678 36.387 40.3451 36.271C40.4224 36.1937 40.5384 36.0778 40.6543 36.0005C40.7702 35.9232 40.9248 35.8846 41.0408 35.8073C41.1954 35.7686 41.35 35.73 41.5046 35.73C41.7364 35.73 41.9297 35.7686 42.0843 35.8073C42.2389 35.8459 42.3548 35.9232 42.4707 36.0005C42.5867 36.0778 42.664 36.1551 42.7026 36.271C42.7413 36.3483 42.8186 36.4256 42.8572 36.5029C43.0118 36.271 43.2051 36.0778 43.3983 35.9232C43.5915 35.7686 43.8621 35.73 44.1712 35.73C44.4804 35.73 44.7123 35.7686 44.9056 35.8459C45.0988 35.9232 45.2534 36.0392 45.408 36.1937C45.5239 36.3483 45.6399 36.5416 45.6785 36.7348C45.7172 36.9667 45.7558 37.1986 45.7558 37.4691V39.9812H45.0601V37.5078C45.0601 37.3532 45.0601 37.2372 45.0215 37.0826C44.9828 36.928 44.9442 36.8121 44.8669 36.7348C44.7896 36.6189 44.6737 36.5416 44.5577 36.4643C44.4418 36.387 44.2485 36.3483 44.0553 36.3483C43.9007 36.3483 43.7848 36.387 43.6302 36.4256C43.5142 36.5029 43.3983 36.5802 43.2823 36.6575C43.1664 36.7735 43.0891 36.8894 43.0505 37.044C43.0118 37.1986 42.9732 37.3532 42.9732 37.5464V39.9425H42.2775V37.5851C42.2775 37.1213 42.2002 36.8121 42.0843 36.6189C41.9683 36.4256 41.7364 36.3483 41.4659 36.3483C41.234 36.3483 41.0408 36.387 40.8862 36.4643C40.7316 36.5416 40.577 36.6575 40.4997 36.8121C40.3838 36.9667 40.3065 37.1213 40.2678 37.3145C40.2292 37.5078 40.1905 37.7396 40.1905 37.9715V39.9812H39.4949V36.8894Z" fill="#818B91"/>
<path d="M47.0313 36.4627C47.2632 36.2308 47.4951 36.0762 47.8042 35.9603C48.1134 35.8443 48.384 35.8057 48.6931 35.8057C49.3115 35.8057 49.7366 35.9603 50.0458 36.2308C50.3163 36.54 50.4709 36.9651 50.4709 37.5448V39.3226C50.4709 39.4385 50.4709 39.5545 50.4709 39.709C50.4709 39.825 50.5096 39.9409 50.5096 40.0569H49.8526C49.8139 39.9796 49.8139 39.8636 49.8139 39.7477C49.8139 39.6318 49.8139 39.5158 49.8139 39.4385C49.6593 39.6704 49.5047 39.825 49.2728 39.9796C49.041 40.1342 48.7704 40.1728 48.4613 40.1728C48.2294 40.1728 48.0361 40.1342 47.8429 40.0955C47.6497 40.0569 47.4951 39.9796 47.3405 39.8636C47.1859 39.7477 47.1086 39.6317 46.9927 39.4772C46.9154 39.3226 46.8767 39.1293 46.8767 38.9361C46.8767 38.5883 46.954 38.3177 47.1472 38.1245C47.3405 37.9313 47.5337 37.7767 47.8042 37.6994C48.0748 37.6221 48.3453 37.5448 48.6545 37.5061C48.9637 37.4675 49.2342 37.4675 49.5047 37.4675H49.7753V37.3516C49.7753 37.0424 49.698 36.8105 49.5047 36.6559C49.3115 36.5013 49.0796 36.424 48.7318 36.424C48.4999 36.424 48.268 36.4627 48.0748 36.54C47.8429 36.6173 47.6497 36.7332 47.4951 36.8878L47.0313 36.4627ZM49.041 38.0859C48.5772 38.0859 48.2294 38.1632 47.9975 38.2791C47.7269 38.395 47.611 38.6269 47.611 38.8975C47.611 39.168 47.6883 39.3612 47.8815 39.4385C48.0748 39.5545 48.268 39.5931 48.5385 39.5931C48.7318 39.5931 48.925 39.5545 49.0796 39.4772C49.2342 39.3999 49.3501 39.3226 49.4661 39.2066C49.582 39.0907 49.6593 38.9747 49.698 38.8202C49.7366 38.6656 49.7753 38.511 49.7753 38.3177V38.0472H49.041V38.0859Z" fill="#818B91"/>
<path d="M51.6689 36.8894C51.6689 36.6962 51.6689 36.5029 51.6689 36.3483C51.6689 36.1937 51.6689 36.0392 51.6689 35.8846H52.326C52.326 36.0005 52.326 36.1165 52.326 36.2324C52.326 36.3483 52.326 36.4643 52.326 36.5802C52.3646 36.4643 52.4419 36.387 52.5192 36.271C52.5965 36.1551 52.7124 36.0778 52.8284 36.0005C52.9443 35.9232 53.0989 35.8846 53.2148 35.8073C53.3694 35.7686 53.524 35.73 53.6786 35.73C53.7173 35.73 53.7559 35.73 53.8332 35.73C53.9105 35.73 53.9105 35.73 53.9878 35.7686L53.9491 36.4643C53.8332 36.4256 53.7173 36.4256 53.5627 36.4256C53.1375 36.4256 52.8284 36.5802 52.6351 36.8508C52.4419 37.1213 52.3646 37.5078 52.3646 37.9715V39.9812H51.6689V36.8894Z" fill="#818B91"/>
<path d="M54.7993 33.3691H55.495V37.7749L57.3887 35.9585H58.3935L56.3839 37.8522L58.5868 40.1324H57.5819L55.5336 37.9295V40.1324H54.838V33.3691H54.7993Z" fill="#818B91"/>
<path d="M62.9926 39.3226C62.7608 39.6317 62.4902 39.8636 62.1811 39.9796C61.8719 40.0955 61.524 40.1728 61.1376 40.1728C60.8284 40.1728 60.5192 40.0955 60.2487 40.0182C59.9782 39.9023 59.7849 39.7477 59.5917 39.5545C59.3984 39.3612 59.2825 39.1293 59.1666 38.8588C59.0506 38.5883 59.012 38.3177 59.012 38.0086C59.012 37.6994 59.0506 37.3902 59.1666 37.1197C59.2825 36.8491 59.4371 36.6173 59.6303 36.424C59.8236 36.2308 60.0554 36.0762 60.2873 35.9603C60.5579 35.8443 60.8284 35.8057 61.1376 35.8057C61.4467 35.8057 61.6786 35.8443 61.9492 35.9603C62.1811 36.0762 62.4129 36.1921 62.5675 36.3854C62.7221 36.5786 62.8767 36.8105 62.954 37.081C63.0313 37.3516 63.1086 37.6607 63.1086 38.0086V38.2404H59.7463C59.7463 38.4337 59.7849 38.5883 59.8622 38.7429C59.9395 38.8974 60.0168 39.052 60.1327 39.168C60.2487 39.2839 60.4033 39.3999 60.5579 39.4385C60.7124 39.5158 60.9057 39.5545 61.0989 39.5545C61.4081 39.5545 61.64 39.5158 61.8719 39.3999C62.0651 39.2839 62.2583 39.1293 62.4129 38.9361L62.9926 39.3226ZM62.3743 37.6221C62.3743 37.2743 62.2583 36.9651 62.0265 36.7718C61.7946 36.54 61.524 36.4627 61.1376 36.4627C60.7511 36.4627 60.4419 36.5786 60.21 36.7718C59.9782 37.0037 59.8236 37.2743 59.7849 37.6221H62.3743Z" fill="#818B91"/>
<path d="M66.4711 36.4995H65.2344V38.5864C65.2344 38.741 65.2344 38.857 65.2344 38.9729C65.2344 39.0888 65.273 39.2048 65.3117 39.2821C65.3503 39.3594 65.4276 39.4367 65.5049 39.4753C65.5822 39.514 65.6981 39.5526 65.8527 39.5526C65.9687 39.5526 66.046 39.5526 66.1619 39.514C66.2778 39.4753 66.3551 39.4367 66.4711 39.398L66.5097 40.0164C66.3938 40.055 66.2779 40.0937 66.1233 40.1323C65.9687 40.171 65.8527 40.171 65.6981 40.171C65.4663 40.171 65.2344 40.1323 65.1184 40.055C64.9638 39.9777 64.8479 39.9004 64.7706 39.7845C64.6933 39.6686 64.616 39.514 64.616 39.3594C64.5774 39.1661 64.5774 38.9729 64.5774 38.7797V36.4995H63.6885V35.9198H64.5774V34.7217H65.273V35.9198H66.5097V36.4995H66.4711Z" fill="#818B91"/>
<path d="M67.2434 34.2993C67.2434 34.1447 67.2821 34.0288 67.398 33.9515C67.5139 33.8355 67.6299 33.7969 67.7458 33.7969C67.9004 33.7969 68.0164 33.8355 68.0937 33.9515C68.2096 34.0674 68.2483 34.1833 68.2483 34.2993C68.2483 34.4539 68.2096 34.5698 68.0937 34.6471C68.0164 34.7244 67.8618 34.8017 67.7458 34.8017C67.6299 34.8017 67.4753 34.7631 67.398 34.6471C67.2821 34.5698 67.2434 34.4539 67.2434 34.2993ZM67.398 35.9225H68.0937V40.0964H67.398V35.9225Z" fill="#818B91"/>
<path d="M69.4853 36.8894C69.4853 36.6962 69.4853 36.5029 69.4853 36.3483C69.4853 36.1937 69.4853 36.0392 69.4853 35.8846H70.1423C70.1423 36.0005 70.1423 36.1165 70.1423 36.2324C70.1423 36.3483 70.1423 36.4643 70.1423 36.5802C70.1809 36.4643 70.2582 36.387 70.3355 36.271C70.4128 36.1551 70.5287 36.0778 70.6447 36.0005C70.7606 35.9232 70.9152 35.8846 71.0312 35.8073C71.1857 35.7686 71.3403 35.73 71.4949 35.73C71.7655 35.73 71.9973 35.7686 72.1906 35.8459C72.3838 35.9232 72.5384 36.0392 72.693 36.1937C72.8089 36.3483 72.9249 36.5029 72.9635 36.7348C73.0408 36.928 73.0408 37.1599 73.0408 37.4305V39.9812H72.3452V37.4691C72.3452 37.1213 72.2679 36.8508 72.1133 36.6575C71.9587 36.4643 71.7268 36.3483 71.379 36.3483C71.1471 36.3483 70.9539 36.387 70.7993 36.4643C70.6447 36.5416 70.4901 36.6575 70.4128 36.8121C70.2968 36.9667 70.2196 37.1213 70.1809 37.3145C70.1423 37.5078 70.1036 37.7396 70.1036 37.9715V39.9812H69.408V36.8894H69.4853Z" fill="#818B91"/>
<path d="M78.5669 39.9023C78.5669 40.6752 78.3736 41.255 77.9871 41.6414C77.6007 42.0279 77.021 42.2211 76.2867 42.2211C75.8615 42.2211 75.5137 42.1439 75.1659 42.0279C74.8181 41.912 74.5089 41.7187 74.2384 41.4096L74.7408 40.8298C74.9727 41.0617 75.2045 41.255 75.4364 41.3709C75.6683 41.4868 75.9775 41.5641 76.2867 41.5641C76.5958 41.5641 76.8664 41.5255 77.0596 41.4096C77.2528 41.3323 77.4074 41.1777 77.562 41.0231C77.7166 40.8685 77.7553 40.6752 77.7939 40.482C77.8326 40.2888 77.8712 40.0569 77.8712 39.8637V39.3226C77.7166 39.5931 77.4847 39.7864 77.2142 39.9023C76.9437 40.0182 76.6731 40.0955 76.4026 40.0955C76.0934 40.0955 75.7843 40.0569 75.5137 39.9409C75.2432 39.825 75.0113 39.6704 74.8181 39.5158C74.6248 39.3612 74.4702 39.0907 74.3543 38.8588C74.2384 38.5883 74.1997 38.3178 74.1997 38.0086C74.1997 37.6607 74.2384 37.3516 74.3543 37.081C74.4702 36.8105 74.6248 36.5786 74.8181 36.3854C75.0113 36.1921 75.2432 36.0375 75.5137 35.9603C75.7843 35.8443 76.0934 35.8057 76.4026 35.8057C76.5572 35.8057 76.6731 35.8057 76.8277 35.8443C76.9823 35.883 77.0983 35.9216 77.2528 35.9989C77.3688 36.0762 77.5234 36.1535 77.6007 36.2694C77.7166 36.3854 77.7939 36.5013 77.8712 36.6173V35.9216H78.5669V39.9023ZM74.934 38.0086C74.934 38.2405 74.9727 38.4337 75.0499 38.5883C75.1272 38.7815 75.2432 38.9361 75.3591 39.0521C75.4751 39.168 75.6297 39.2839 75.8229 39.3612C76.0161 39.4385 76.2094 39.4772 76.4026 39.4772C76.6345 39.4772 76.8664 39.4385 77.021 39.3612C77.1756 39.2839 77.3688 39.168 77.4847 39.0134C77.6007 38.8588 77.7166 38.7042 77.7553 38.5496C77.7939 38.395 77.8712 38.1632 77.8712 37.9699C77.8712 37.738 77.8326 37.5448 77.7553 37.3516C77.678 37.1583 77.6007 37.0037 77.4461 36.8491C77.3301 36.6946 77.1756 36.6173 76.9823 36.54C76.7891 36.4627 76.5958 36.424 76.364 36.424C76.1321 36.424 75.9388 36.4627 75.7456 36.54C75.5524 36.6173 75.3978 36.7332 75.2818 36.8878C75.1659 37.0424 75.0499 37.197 74.9727 37.3902C74.9727 37.5834 74.934 37.7767 74.934 38.0086Z" fill="#818B91"/>
<path d="M42.4707 46.4732C42.3161 46.28 42.1615 46.1641 42.0069 46.0868C41.8523 46.0095 41.6591 45.9708 41.4272 45.9708C41.1953 45.9708 41.0021 46.0095 40.8088 46.0868C40.6156 46.1641 40.4997 46.28 40.3837 46.4346C40.2678 46.5892 40.1905 46.7438 40.1132 46.937C40.0359 47.1302 40.0359 47.3235 40.0359 47.5554C40.0359 47.7872 40.0745 47.9805 40.1518 48.1737C40.2291 48.367 40.3064 48.5215 40.4224 48.6761C40.5383 48.8307 40.6929 48.9467 40.8475 49.024C41.0021 49.1013 41.1953 49.1399 41.4272 49.1399C41.891 49.1399 42.2388 48.9853 42.4707 48.6375L42.9731 49.1399C42.7798 49.3718 42.548 49.5264 42.2774 49.6423C42.0069 49.7583 41.7364 49.7969 41.4272 49.7969C41.118 49.7969 40.8088 49.7583 40.5383 49.6423C40.2678 49.5264 40.0359 49.3718 39.8426 49.1786C39.6494 48.9853 39.4948 48.7534 39.4175 48.4829C39.3402 48.2124 39.2629 47.9418 39.2629 47.594C39.2629 47.2848 39.3016 46.9757 39.4175 46.7051C39.5335 46.4346 39.6494 46.2027 39.8426 46.0095C40.0359 45.8162 40.2678 45.6616 40.5383 45.5457C40.8088 45.4298 41.0794 45.3911 41.4272 45.3911C41.7364 45.3911 42.0455 45.4298 42.3161 45.5457C42.5866 45.6616 42.8185 45.8162 43.0504 46.0481L42.4707 46.4732Z" fill="#818B91"/>
<path d="M43.8618 42.8794H44.5575V49.604H43.8618V42.8794Z" fill="#818B91"/>
<path d="M45.6785 47.5115C45.6785 47.2023 45.7171 46.8931 45.8331 46.6226C45.949 46.3521 46.1036 46.1202 46.2968 45.9269C46.4901 45.7337 46.722 45.5791 46.9925 45.4632C47.2631 45.3472 47.5722 45.3086 47.8814 45.3086C48.1906 45.3086 48.4998 45.3472 48.7703 45.4632C49.0409 45.5791 49.2728 45.7337 49.466 45.9269C49.6592 46.1202 49.8138 46.3521 49.9298 46.6226C50.0457 46.8931 50.0844 47.2023 50.0844 47.5115C50.0844 47.8207 50.0457 48.1298 49.9298 48.4004C49.8138 48.6709 49.6592 48.9028 49.466 49.096C49.2728 49.2893 49.0409 49.4438 48.7703 49.5598C48.4998 49.6757 48.1906 49.7144 47.8814 49.7144C47.5722 49.7144 47.2631 49.6757 46.9925 49.5598C46.722 49.4438 46.4901 49.2893 46.2968 49.096C46.1036 48.9028 45.949 48.6709 45.8331 48.4004C45.7171 48.1298 45.6785 47.8207 45.6785 47.5115ZM46.4128 47.5115C46.4128 47.7434 46.4514 47.9366 46.5287 48.1298C46.606 48.3231 46.6833 48.4777 46.8379 48.6323C46.9925 48.7868 47.1085 48.8641 47.3017 48.9801C47.4949 49.0574 47.6882 49.096 47.9201 49.096C48.152 49.096 48.3452 49.0574 48.5384 48.9801C48.7317 48.9028 48.8863 48.7868 49.0022 48.6323C49.1182 48.4777 49.2341 48.3231 49.3114 48.1298C49.3887 47.9366 49.4274 47.7434 49.4274 47.5115C49.4274 47.2796 49.3887 47.0864 49.3114 46.8931C49.2341 46.6999 49.1568 46.5453 49.0022 46.3907C48.8863 46.2361 48.7317 46.1588 48.5384 46.0429C48.3452 45.9269 48.152 45.9269 47.9201 45.9269C47.6882 45.9269 47.4949 45.9656 47.3017 46.0429C47.1085 46.1202 46.9539 46.2361 46.8379 46.3907C46.722 46.5453 46.606 46.6999 46.5287 46.8931C46.4514 47.0864 46.4128 47.2796 46.4128 47.5115Z" fill="#818B91"/>
<path d="M54.8382 48.5928C54.8382 48.786 54.8382 48.9793 54.8382 49.1339C54.8382 49.2884 54.8382 49.443 54.8382 49.5976H54.2198C54.2198 49.4817 54.2198 49.3657 54.2198 49.2498C54.2198 49.1339 54.2198 49.0179 54.2198 48.902C54.1812 49.0179 54.1039 49.0952 54.0266 49.2112C53.9493 49.2884 53.8334 49.4044 53.7174 49.4817C53.6015 49.559 53.4469 49.5976 53.3309 49.6749C53.1764 49.7136 53.0218 49.7522 52.8672 49.7522C52.5966 49.7522 52.3648 49.7136 52.1715 49.6363C51.9783 49.559 51.8237 49.443 51.6691 49.2884C51.5532 49.1339 51.4372 48.9793 51.3986 48.7474C51.3213 48.5541 51.3213 48.3223 51.3213 48.0517V45.501H52.0169V48.0131C52.0169 48.3609 52.0942 48.6314 52.2488 48.8247C52.4034 49.0179 52.6353 49.1339 52.9831 49.1339C53.215 49.1339 53.4082 49.0952 53.5628 49.0179C53.7174 48.9406 53.872 48.8247 53.9493 48.6701C54.0652 48.5155 54.1425 48.3609 54.1812 48.1677C54.2198 47.9744 54.2585 47.7425 54.2585 47.5107V45.501H54.9541V48.5928H54.8382Z" fill="#818B91"/>
<path d="M59.5918 48.8697C59.4372 49.1016 59.244 49.2949 58.9735 49.4881C58.7029 49.6427 58.3551 49.72 58.0073 49.72C57.6981 49.72 57.4276 49.6813 57.1957 49.5654C56.9252 49.4494 56.7319 49.2949 56.5387 49.1016C56.3455 48.9084 56.1909 48.6765 56.1136 48.406C55.9976 48.1354 55.959 47.8649 55.959 47.5171C55.959 47.1693 55.9976 46.8987 56.1136 46.6282C56.2295 46.3577 56.3841 46.1258 56.5773 45.9325C56.7706 45.7393 57.0025 45.5847 57.273 45.4688C57.5435 45.3528 57.8527 45.3142 58.1619 45.3142C58.471 45.3142 58.7416 45.3915 59.0121 45.5074C59.2826 45.6234 59.4759 45.8166 59.6691 46.0485V42.8794H60.3648V49.604H59.6691V48.8697H59.5918ZM59.5918 47.5171C59.5918 47.2852 59.5532 47.092 59.4759 46.8987C59.3986 46.7055 59.3213 46.5509 59.1667 46.3963C59.0508 46.2417 58.8962 46.1644 58.7029 46.0485C58.5097 45.9712 58.3165 45.9325 58.0846 45.9325C57.8527 45.9325 57.6595 45.9712 57.4662 46.0485C57.273 46.1258 57.1184 46.2417 57.0025 46.3963C56.8865 46.5509 56.7706 46.7055 56.6933 46.8987C56.616 47.092 56.5773 47.2852 56.5773 47.5171C56.5773 47.749 56.616 47.9422 56.6933 48.1354C56.7706 48.3287 56.8479 48.4833 57.0025 48.6379C57.157 48.7924 57.273 48.8697 57.4662 48.9857C57.6595 49.063 57.8527 49.1016 58.0846 49.1016C58.3165 49.1016 58.5097 49.063 58.7029 48.9857C58.8962 48.9084 59.0508 48.7924 59.1667 48.6379C59.2826 48.4833 59.3986 48.3287 59.4759 48.1354C59.5532 47.9422 59.5918 47.749 59.5918 47.5171Z" fill="#818B91"/>
<path d="M11.4759 40.9024C11.4759 40.9024 11.2053 40.8638 10.9348 40.8638C10.5097 40.8638 10.3551 41.0184 10.3551 41.0184C10.2392 41.0957 10.1619 41.2502 10.1619 41.4048C10.1619 41.5208 10.2005 41.5981 10.2392 41.6754C10.2778 41.714 10.2778 41.714 10.3551 41.7913C10.3551 41.7913 10.5483 41.9459 10.9348 41.9073C11.2053 41.9073 11.4759 41.83 11.4759 41.83V40.9024Z" fill="#009ED8"/>
<path d="M15.4184 39.6699C15.1478 39.6699 14.9546 39.7859 14.8387 39.9791C14.7614 40.095 14.7227 40.2496 14.6841 40.4429H16.114C16.114 40.2496 16.0754 40.095 15.9981 39.9791C15.8821 39.7859 15.6889 39.6699 15.4184 39.6699Z" fill="#009ED8"/>
<path d="M23.5339 39.6699C23.2634 39.6699 23.0702 39.7472 22.9542 39.9405C22.8383 40.1337 22.761 40.4042 22.761 40.752C22.761 41.0999 22.8383 41.3704 22.9542 41.5636C23.0702 41.7569 23.2634 41.8342 23.5339 41.8342C23.8045 41.8342 23.9977 41.7569 24.1136 41.5636C24.2296 41.3704 24.3069 41.0999 24.3069 40.752C24.3069 40.4042 24.2296 40.1337 24.1136 39.9405C23.9977 39.7859 23.8045 39.6699 23.5339 39.6699Z" fill="#009ED8"/>
<path d="M31.5724 39.6699C31.3019 39.6699 31.1087 39.7859 30.9927 39.9791C30.9154 40.095 30.8768 40.2496 30.8381 40.4429H32.2681C32.2681 40.2496 32.2294 40.095 32.1521 39.9791C32.0362 39.7859 31.843 39.6699 31.5724 39.6699Z" fill="#009ED8"/>
<path d="M28.9831 32.6347C27.901 32.6347 26.8575 32.8666 25.93 33.2917C24.8478 31.398 22.8382 30.084 20.558 30.084C18.8188 30.084 17.2729 30.8183 16.1522 31.9777C14.9155 30.3545 12.9831 29.311 10.7802 29.311C7.0314 29.311 4.01691 32.3255 4.01691 36.0743C4.01691 37.0405 4.21015 37.9294 4.55797 38.7796C2.81884 39.7845 1.65942 41.7168 1.65942 43.8811C1.65942 47.1275 4.2488 49.7555 7.45652 49.7555C7.88165 49.7555 8.26812 49.7168 8.65459 49.6395C9.54348 52.0357 11.8237 53.7361 14.529 53.7361C17.1184 53.7361 19.3213 52.1516 20.2874 49.9101C21.0217 50.2579 21.8333 50.4511 22.6836 50.4511C24.7319 50.4511 26.5483 49.3304 27.4758 47.6299C27.9396 47.7072 28.442 47.7845 28.9444 47.7845C33.0797 47.7845 36.442 44.3835 36.442 40.2096C36.4807 36.0357 33.1184 32.6347 28.9831 32.6347ZM9.11836 41.4463C9.11836 42.0647 8.69324 42.4511 7.95894 42.4511C7.61111 42.4511 7.26329 42.4125 6.91546 42.2192C6.83817 42.1806 6.79952 42.1419 6.72223 42.1033C6.72223 42.1033 6.68358 42.0647 6.72223 42.026L6.87681 41.6395C6.91546 41.5622 6.95411 41.6009 6.95411 41.6009C6.99276 41.6395 7.0314 41.6395 7.07005 41.6782C7.49517 41.9487 7.88165 41.9487 7.99759 41.9487C8.30677 41.9487 8.5 41.7941 8.5 41.5622C8.5 41.3304 8.19082 41.2144 7.843 41.1371L7.7657 41.0985C7.30194 40.9825 6.79952 40.7506 6.79952 40.1709C6.79952 39.5912 7.26329 39.2048 7.92029 39.2048H7.99759C8.38406 39.2048 8.77053 39.3207 9.00242 39.4753C9.04107 39.4753 9.04107 39.5139 9.04107 39.5526C9.04107 39.5912 8.92512 39.9004 8.88648 39.9391C8.84783 40.0163 8.80918 39.9777 8.80918 39.9777C8.5773 39.8618 8.19082 39.7458 7.92029 39.7458C7.64976 39.7458 7.45652 39.9004 7.45652 40.0936C7.45652 40.3255 7.7657 40.4415 8.11353 40.5574L8.19082 40.5961C8.61594 40.6347 9.11836 40.8666 9.11836 41.4463ZM12.0556 42.2192C12.0556 42.2192 11.9783 42.2579 11.901 42.2579C11.8237 42.2579 11.5918 42.3352 11.3986 42.3738C11.2053 42.4125 10.9734 42.4125 10.7802 42.4125C10.587 42.4125 10.3937 42.4125 10.2391 42.3738C10.0845 42.3352 9.92995 42.2965 9.81401 42.1806C9.69807 42.1033 9.62078 41.9874 9.54348 41.8714C9.46619 41.7555 9.46619 41.6009 9.46619 41.4076C9.46619 41.2144 9.50483 41.0598 9.58213 40.9439C9.65942 40.8279 9.73672 40.712 9.89131 40.5961C10.0072 40.5188 10.1618 40.4415 10.3164 40.4028C10.471 40.3642 10.6256 40.3255 10.8188 40.3255C10.9348 40.3255 11.0507 40.3255 11.128 40.3255C11.128 40.3255 11.2826 40.3255 11.4758 40.3642V40.2869C11.4758 40.0163 11.4372 39.9004 11.3213 39.8231C11.2053 39.7458 11.0507 39.7072 10.8188 39.7072C10.8188 39.7072 10.3164 39.7072 9.92995 39.9004H9.89131C9.89131 39.9004 9.85266 39.9004 9.81401 39.8618L9.65942 39.4753C9.62078 39.4366 9.65942 39.398 9.65942 39.398C9.85266 39.2434 10.2778 39.1661 10.2778 39.1661C10.4324 39.1275 10.6643 39.1275 10.8188 39.1275C11.2053 39.1275 11.5531 39.2048 11.7464 39.398C11.9783 39.5912 12.0556 39.9004 12.0556 40.2869V42.1419C12.0942 42.1419 12.0942 42.2192 12.0556 42.2192ZM13.4082 42.2965C13.4082 42.3352 13.3696 42.3738 13.3696 42.3738H12.8285C12.7899 42.3738 12.7899 42.3352 12.7899 42.2965V37.968C12.7899 37.9294 12.8285 37.8907 12.8285 37.8907H13.3696C13.4082 37.8907 13.4082 37.9294 13.4082 37.968V42.2965ZM16.7705 40.9052C16.7705 40.9439 16.6932 40.9439 16.6932 40.9439H14.6836C14.6836 41.2531 14.7609 41.4849 14.9155 41.6009C15.0701 41.7555 15.3019 41.8328 15.6111 41.8328C16.0749 41.8328 16.3068 41.7555 16.4227 41.6782C16.4227 41.6782 16.4614 41.6395 16.5 41.7168L16.6159 42.1033C16.6546 42.1806 16.6159 42.1806 16.6159 42.2192C16.5 42.2965 16.1908 42.4125 15.6111 42.4125C15.3406 42.4125 15.0701 42.3738 14.8768 42.2965C14.6836 42.2192 14.4903 42.1033 14.3744 41.9487C14.2585 41.7941 14.1425 41.6395 14.0652 41.4463C13.9879 41.2531 13.9879 41.0212 13.9879 40.7893C13.9879 40.5574 14.0266 40.3255 14.0652 40.1323C14.1425 39.9391 14.2198 39.7458 14.3358 39.5912C14.4517 39.4366 14.6063 39.3207 14.7995 39.2434C14.9928 39.1661 15.2246 39.1275 15.4565 39.1275C15.6884 39.1275 15.8816 39.1661 16.0362 39.2434C16.1522 39.282 16.3068 39.398 16.4227 39.5526C16.5 39.6299 16.6159 39.8231 16.6932 40.0163C16.8092 40.4801 16.7705 40.8666 16.7705 40.9052ZM17.3889 42.1806C17.3116 42.1419 17.2729 42.1033 17.1957 42.0647C17.1957 42.0647 17.157 42.026 17.1957 41.9874L17.3502 41.6009C17.3889 41.5236 17.4275 41.5622 17.4275 41.5622C17.4662 41.6009 17.5048 41.6009 17.5435 41.6395C17.9686 41.9101 18.3551 41.9101 18.471 41.9101C18.7802 41.9101 18.9734 41.7555 18.9734 41.5236C18.9734 41.2917 18.6643 41.1758 18.3164 41.0985L18.2391 41.0598C17.7754 40.9439 17.2729 40.712 17.2729 40.1323C17.2729 39.5526 17.7367 39.1661 18.3937 39.1661H18.471C18.8575 39.1661 19.244 39.282 19.4758 39.4366C19.5145 39.4366 19.5145 39.4753 19.5145 39.5139C19.5145 39.5526 19.3986 39.8618 19.3599 39.9004C19.3213 39.9777 19.2826 39.9391 19.2826 39.9391C19.0507 39.8231 18.6643 39.7072 18.3937 39.7072C18.1232 39.7072 17.93 39.8618 17.93 40.055C17.93 40.2869 18.2391 40.4028 18.587 40.5188L18.6643 40.5574C19.128 40.712 19.6304 40.9052 19.6304 41.4849C19.6304 42.1033 19.2053 42.4898 18.471 42.4898C18.0845 42.4125 17.7367 42.3738 17.3889 42.1806ZM21.9493 39.6685C21.9493 39.7458 21.872 39.7458 21.872 39.7458H21.215L20.7512 42.3352C20.7126 42.6057 20.6353 42.8376 20.558 43.0308C20.4807 43.2241 20.4034 43.34 20.2874 43.4946C20.1715 43.6105 20.0556 43.6878 19.901 43.7651C19.7464 43.8038 19.5918 43.8424 19.3986 43.8424C19.3213 43.8424 19.2053 43.8424 19.0894 43.8038C19.0121 43.8038 18.9734 43.7651 18.8961 43.7651C18.8575 43.7651 18.8575 43.7265 18.8575 43.6878C18.8575 43.6492 18.9734 43.3014 19.0121 43.2627C19.0507 43.2241 19.0894 43.2241 19.0894 43.2241C19.128 43.2241 19.1667 43.2627 19.2053 43.2627C19.244 43.2627 19.3213 43.2627 19.3599 43.2627C19.4372 43.2627 19.5145 43.2627 19.5918 43.2241C19.6691 43.1854 19.7077 43.1468 19.785 43.0695C19.8237 42.9922 19.8623 42.9149 19.9396 42.799C19.9783 42.683 20.0169 42.4898 20.0556 42.2965L20.5193 39.7845H20.0556C20.0169 39.7845 19.9783 39.7458 19.9783 39.7072L20.0556 39.282C20.0556 39.2048 20.1329 39.2048 20.1329 39.2048H20.5966L20.6353 39.0502C20.7126 38.625 20.8285 38.3545 21.0217 38.1226C21.215 37.9294 21.5242 37.8134 21.872 37.8134C21.9879 37.8134 22.0652 37.8134 22.1425 37.8521C22.2198 37.8521 22.2585 37.8907 22.3358 37.8907C22.3358 37.8907 22.3744 37.9294 22.3744 37.968L22.2198 38.3932C22.2198 38.4318 22.1812 38.4318 22.1425 38.4318C22.1425 38.4318 22.1039 38.4318 22.0266 38.3932C21.9879 38.3932 21.9106 38.3932 21.872 38.3932C21.7947 38.3932 21.7174 38.3932 21.6401 38.4318C21.5628 38.4705 21.5242 38.4705 21.4855 38.5477C21.4469 38.5864 21.3696 38.6637 21.3309 38.7796C21.2536 39.0115 21.215 39.2048 21.215 39.2434H21.9493C21.9879 39.2434 22.0266 39.282 22.0266 39.3207L21.9493 39.6685ZM24.9251 41.4076C24.8478 41.6009 24.7705 41.7941 24.6546 41.9101C24.5386 42.0647 24.3841 42.1806 24.1908 42.2579C23.9976 42.3352 23.8043 42.3738 23.5338 42.3738C23.2633 42.3738 23.07 42.3352 22.8768 42.2579C22.6836 42.1806 22.529 42.0647 22.413 41.9101C22.2971 41.7555 22.1812 41.6009 22.1425 41.4076C22.0652 41.2144 22.0652 40.9825 22.0652 40.7506C22.0652 40.5188 22.1039 40.2869 22.1425 40.0936C22.2198 39.9004 22.2971 39.7072 22.413 39.5912C22.529 39.4366 22.6836 39.3207 22.8768 39.2434C23.07 39.1661 23.2633 39.1275 23.5338 39.1275C23.7657 39.1275 23.9976 39.1661 24.1908 39.2434C24.3841 39.3207 24.5386 39.4366 24.6546 39.5912C24.7705 39.7458 24.8865 39.9004 24.9251 40.0936C25.0024 40.2869 25.0024 40.5188 25.0024 40.7506C25.0024 41.0212 24.9638 41.2144 24.9251 41.4076ZM27.244 39.7458C27.244 39.7845 27.2053 39.8231 27.1667 39.7845C27.1667 39.7845 27.0507 39.7458 26.9348 39.7458C26.8575 39.7458 26.7415 39.7458 26.6643 39.7845C26.587 39.8231 26.471 39.8618 26.4324 39.9391C26.3551 40.0163 26.3164 40.0936 26.2391 40.2482C26.2005 40.3642 26.1618 40.5574 26.1618 40.7893V42.2965C26.1618 42.3352 26.1232 42.3738 26.0845 42.3738H25.5435C25.5048 42.3738 25.4662 42.3352 25.4662 42.2965V39.282C25.4662 39.2434 25.5048 39.2048 25.5048 39.2048H26.0072C26.0459 39.2048 26.0459 39.2434 26.0459 39.282V39.5139C26.1232 39.398 26.2778 39.3207 26.3937 39.2434C26.5097 39.2048 26.6643 39.1275 26.8961 39.1661C27.0121 39.1661 27.2053 39.2048 27.244 39.2048C27.244 39.2048 27.2826 39.2434 27.2826 39.282C27.3986 39.3593 27.2826 39.6299 27.244 39.7458ZM29.9106 42.2579C29.6787 42.3352 29.3696 42.4125 29.0604 42.4125C28.558 42.4125 28.1329 42.2579 27.901 41.9874C27.6304 41.6782 27.5145 41.2917 27.5145 40.7893C27.5145 40.5574 27.5531 40.3255 27.6304 40.1323C27.7077 39.9391 27.785 39.7458 27.9396 39.6299C28.0556 39.4753 28.2101 39.3593 28.4034 39.282C28.5966 39.2048 28.8285 39.1661 29.0604 39.1661C29.215 39.1661 29.3696 39.1661 29.5242 39.2048C29.6787 39.2434 29.8333 39.282 29.9106 39.3207C29.9106 39.3207 29.9493 39.3593 29.9493 39.398C29.9106 39.5526 29.872 39.6685 29.7947 39.8231C29.756 39.9004 29.7174 39.8618 29.7174 39.8618C29.5242 39.7845 29.3309 39.7845 29.099 39.7845C28.7899 39.7845 28.5966 39.9004 28.442 40.0936C28.2874 40.2869 28.2101 40.5574 28.2101 40.8666C28.2101 41.2531 28.2874 41.5236 28.4807 41.6782C28.6353 41.8328 28.8671 41.9487 29.1763 41.9487C29.2923 41.9487 29.4082 41.9487 29.4855 41.9101C29.6014 41.9101 29.6787 41.8714 29.756 41.8328C29.756 41.8328 29.7947 41.7941 29.8333 41.8714L29.9879 42.2579C29.9879 42.2192 29.9106 42.2579 29.9106 42.2579ZM32.9251 40.9052C32.9251 40.9439 32.8478 40.9439 32.8478 40.9439H30.8382C30.8382 41.2531 30.9155 41.4849 31.07 41.6009C31.2246 41.7555 31.4565 41.8328 31.7657 41.8328C32.2295 41.8328 32.4614 41.7555 32.5773 41.6782C32.5773 41.6782 32.6159 41.6395 32.6546 41.7168L32.7705 42.1033C32.8092 42.1806 32.7705 42.1806 32.7705 42.2192C32.6546 42.2965 32.3454 42.4125 31.7657 42.4125C31.4952 42.4125 31.2246 42.3738 31.0314 42.2965C30.8382 42.2192 30.6449 42.1033 30.529 41.9487C30.413 41.7941 30.2971 41.6395 30.2198 41.4463C30.1425 41.2531 30.1425 41.0212 30.1425 40.7893C30.1425 40.5574 30.1812 40.3255 30.2198 40.1323C30.2971 39.9391 30.3744 39.7458 30.4903 39.5912C30.6063 39.4366 30.7609 39.3207 30.9541 39.2434C31.1473 39.1661 31.3792 39.1275 31.6111 39.1275C31.843 39.1275 32.0362 39.1661 32.1908 39.2434C32.3068 39.282 32.4614 39.398 32.5773 39.5526C32.6546 39.6299 32.7705 39.8231 32.8478 40.0163C33.0024 40.4801 32.9251 40.8666 32.9251 40.9052Z" fill="#009ED8"/>
</svg>
