<svg width="100%" height="100%" viewBox="0 0 81 80" fill="none" xmlns="http://www.w3.org/2000/svg">
<circle cx="40" cy="40" r="39.5" fill="white" stroke="#ECECEC"/>
<path d="M17.0452 30.3236C18.2475 29.0955 19.9213 28.3338 21.7724 28.3338C24.2334 28.3338 26.3803 29.6791 27.5236 31.6762C28.5463 31.2283 29.6541 30.9975 30.7742 30.9988C35.2126 30.9988 38.8109 34.5571 38.8109 38.9466C38.8109 43.3363 35.2126 46.8946 30.7742 46.8946C30.2325 46.8946 29.7031 46.8416 29.1912 46.74C28.1842 48.5007 26.2656 49.6903 24.0634 49.6903C23.1728 49.6914 22.2937 49.493 21.4932 49.1103C20.4726 51.4639 18.0946 53.1145 15.3229 53.1145C12.4368 53.1145 9.97712 51.3239 9.03284 48.8131C8.62032 48.8989 8.19279 48.9438 7.75418 48.9438C4.31788 48.9438 1.532 46.1843 1.532 42.7804C1.52952 41.7015 1.81549 40.6409 2.36141 39.7041C2.90732 38.7674 3.69411 37.9873 4.64338 37.4415C4.24921 36.5519 4.04635 35.5922 4.04749 34.6223C4.04749 30.7073 7.28948 27.5337 11.2884 27.5337C13.6361 27.5337 15.7226 28.628 17.0453 30.3236" fill="#0097D8"/>
<path d="M6.93175 40.7985C6.90843 40.8586 6.94021 40.871 6.94779 40.8814C7.01775 40.9314 7.08889 40.9672 7.1606 41.0073C7.54091 41.2051 7.89979 41.263 8.27528 41.263C9.03997 41.263 9.51473 40.8643 9.51473 40.2222V40.2098C9.51473 39.6163 8.97889 39.4007 8.476 39.2452L8.4107 39.2242C8.03156 39.1034 7.70446 38.9994 7.70446 38.7546V38.7417C7.70446 38.5324 7.89556 38.3782 8.1919 38.3782C8.52119 38.3782 8.91199 38.4855 9.16372 38.6218C9.16372 38.6218 9.23748 38.6687 9.26459 38.5985C9.27946 38.561 9.40686 38.2247 9.42027 38.1883C9.43456 38.1487 9.40905 38.1195 9.3831 38.104C9.0958 37.9326 8.69858 37.8154 8.28752 37.8154L8.211 37.816C7.51117 37.816 7.02256 38.2304 7.02256 38.8245V38.8369C7.02256 39.4633 7.56161 39.6662 8.06654 39.8078L8.14788 39.8324C8.51579 39.9433 8.83298 40.0384 8.83298 40.2925V40.3051C8.83298 40.5372 8.62687 40.7101 8.29437 40.7101C8.16537 40.7101 7.75387 40.7075 7.30929 40.432C7.25564 40.4013 7.2243 40.379 7.18291 40.3545C7.16104 40.341 7.10653 40.3174 7.08262 40.3883L6.93175 40.7985Z" fill="white"/>
<path d="M18.1263 40.7985C18.103 40.8586 18.1348 40.871 18.1424 40.8814C18.2123 40.9314 18.2835 40.9672 18.3552 41.0073C18.7353 41.2051 19.0944 41.263 19.4699 41.263C20.2345 41.263 20.7093 40.8643 20.7093 40.2222V40.2098C20.7093 39.6163 20.1735 39.4007 19.6706 39.2452L19.6053 39.2242C19.2261 39.1034 18.8989 38.9994 18.8989 38.7546V38.7417C18.8989 38.5324 19.0901 38.3782 19.3865 38.3782C19.7158 38.3782 20.1066 38.4855 20.3583 38.6218C20.3583 38.6218 20.4321 38.6687 20.4592 38.5985C20.474 38.561 20.6014 38.2247 20.6147 38.1883C20.6291 38.1487 20.6036 38.1195 20.5775 38.104C20.2904 37.9326 19.893 37.8154 19.4821 37.8154L19.4056 37.816C18.7056 37.816 18.2171 38.2304 18.2171 38.8245V38.8369C18.2171 39.4633 18.756 39.6662 19.2611 39.8078L19.3423 39.8324C19.7104 39.9433 20.028 40.0384 20.028 40.2925V40.3051C20.028 40.5372 19.8213 40.7101 19.489 40.7101C19.36 40.7101 18.9483 40.7075 18.5039 40.432C18.4502 40.4013 18.4183 40.38 18.3781 40.3545C18.3642 40.3457 18.2994 40.3211 18.2771 40.3883L18.1263 40.7985Z" fill="white"/>
<path d="M25.7684 39.5401C25.7684 39.903 25.6993 40.1888 25.5634 40.3908C25.429 40.5908 25.2257 40.688 24.942 40.688C24.6579 40.688 24.4556 40.5913 24.3234 40.3908C24.1896 40.1893 24.1217 39.903 24.1217 39.5401C24.1217 39.1778 24.1896 38.8924 24.3234 38.6926C24.4556 38.4947 24.6579 38.3984 24.942 38.3984C25.2257 38.3984 25.4289 38.4947 25.5639 38.6925C25.6994 38.8926 25.7684 39.1778 25.7684 39.5401ZM26.4067 38.8676C26.344 38.6598 26.2463 38.4766 26.1162 38.324C25.986 38.171 25.8214 38.0481 25.626 37.9585C25.4311 37.8695 25.2006 37.8242 24.942 37.8242C24.6829 37.8242 24.4524 37.8695 24.2575 37.9585C24.0622 38.048 23.8975 38.1709 23.7669 38.324C23.6373 38.477 23.5395 38.6603 23.4763 38.8676C23.4143 39.0742 23.3831 39.3001 23.3831 39.5401C23.3831 39.7801 23.4143 40.0066 23.4763 40.2127C23.5396 40.4199 23.6367 40.6033 23.7674 40.7563C23.8975 40.9092 24.0626 41.0317 24.2575 41.1186C24.4528 41.2056 24.6829 41.2498 24.942 41.2498C25.2006 41.2498 25.4306 41.2055 25.626 41.1186C25.8209 41.0317 25.986 40.9094 26.1162 40.7563C26.2463 40.6037 26.344 40.4205 26.4067 40.2127C26.4694 40.0061 26.5007 39.7797 26.5007 39.5401C26.5007 39.3007 26.4694 39.0742 26.4067 38.8676Z" fill="white"/>
<path d="M31.649 40.5913C31.6278 40.5305 31.5678 40.5533 31.5678 40.5533C31.4749 40.5883 31.3761 40.6205 31.271 40.6366C31.1551 40.6535 31.0381 40.6617 30.921 40.6612C30.612 40.6612 30.3665 40.5712 30.1907 40.393C30.0145 40.2149 29.9157 39.9271 29.9167 39.5377C29.9179 39.1832 30.005 38.9166 30.1616 38.7136C30.3173 38.5115 30.554 38.4079 30.87 38.4079C31.1334 38.4079 31.3341 38.4376 31.5445 38.5027C31.5445 38.5027 31.5949 38.5241 31.6188 38.4595C31.6745 38.3074 31.716 38.1987 31.7755 38.0315C31.7924 37.9842 31.751 37.9639 31.7361 37.9582C31.6534 37.9263 31.4579 37.8749 31.3102 37.853C31.1722 37.8321 31.0108 37.8213 30.8312 37.8213C30.563 37.8213 30.3241 37.866 30.1196 37.9556C29.9157 38.0445 29.7426 38.1674 29.6056 38.3205C29.4686 38.4735 29.3645 38.6568 29.295 38.8641C29.2259 39.0707 29.1909 39.2976 29.1909 39.5377C29.1909 40.0567 29.3338 40.4763 29.6157 40.7835C29.8982 41.0916 30.3226 41.2484 30.8758 41.2484C31.2029 41.2484 31.5386 41.1834 31.7796 41.0901C31.7796 41.0901 31.8259 41.0682 31.8058 41.0158L31.649 40.5913Z" fill="white"/>
<path d="M32.7657 39.1924C32.7959 38.9909 32.8527 38.8233 32.9403 38.6926C33.0726 38.4943 33.2743 38.3854 33.558 38.3854C33.8415 38.3854 34.0289 38.4947 34.1633 38.6926C34.2525 38.8233 34.2913 38.9982 34.3066 39.1924H32.7657ZM34.9147 38.7494C34.8605 38.5489 34.7261 38.3464 34.6381 38.2536C34.4989 38.1069 34.363 38.0043 34.228 37.9471C34.0322 37.8657 33.8216 37.8239 33.6088 37.8242C33.3392 37.8242 33.0943 37.8685 32.8957 37.96C32.6966 38.0517 32.5293 38.1766 32.3981 38.3324C32.2669 38.4874 32.1682 38.6722 32.1055 38.8821C32.0423 39.0908 32.0105 39.3184 32.0105 39.5584C32.0105 39.8026 32.0434 40.0299 32.1087 40.2346C32.1745 40.4408 32.2797 40.6224 32.4221 40.7729C32.5638 40.9244 32.7465 41.0431 32.9653 41.1259C33.1825 41.2082 33.4463 41.2509 33.7495 41.2503C34.3735 41.2482 34.7024 41.1117 34.8376 41.0384C34.8615 41.0255 34.8844 41.0025 34.8557 40.9369L34.7145 40.5491C34.6933 40.4912 34.6333 40.5127 34.6333 40.5127C34.4788 40.5688 34.2589 40.6699 33.7464 40.6689C33.4113 40.6683 33.1628 40.5714 33.0072 40.4199C32.8473 40.2649 32.7694 40.0368 32.7555 39.7151L34.9163 39.7171C34.9163 39.7171 34.9732 39.7161 34.979 39.662C34.9811 39.6391 35.0534 39.2267 34.9147 38.7494Z" fill="white"/>
<path d="M15.4609 39.1924C15.4916 38.9909 15.5479 38.8233 15.6357 38.6926C15.7679 38.4943 15.9696 38.3854 16.2531 38.3854C16.5368 38.3854 16.7242 38.4947 16.8591 38.6926C16.9478 38.8233 16.9866 38.9982 17.0019 39.1924H15.4609ZM17.6095 38.7494C17.5552 38.5489 17.4214 38.3464 17.3332 38.2536C17.1942 38.1069 17.0582 38.0043 16.9234 37.9471C16.7275 37.8657 16.5169 37.8239 16.3041 37.8242C16.0349 37.8242 15.7896 37.8685 15.591 37.96C15.3918 38.0517 15.2246 38.1766 15.0934 38.3324C14.9622 38.4874 14.8635 38.6722 14.8009 38.8821C14.7382 39.0908 14.7058 39.3184 14.7058 39.5584C14.7058 39.8026 14.7386 40.0299 14.8041 40.2346C14.8698 40.4408 14.975 40.6224 15.1173 40.7729C15.2591 40.9244 15.4418 41.0431 15.6606 41.1259C15.8778 41.2082 16.1416 41.2509 16.4448 41.2503C17.0688 41.2482 17.3975 41.1117 17.5329 41.0384C17.5569 41.0255 17.5796 41.0025 17.551 40.9369L17.4104 40.5491C17.3885 40.4912 17.3286 40.5127 17.3286 40.5127C17.1741 40.5688 16.9547 40.6699 16.4412 40.6689C16.1066 40.6683 15.8581 40.5714 15.7026 40.4199C15.5427 40.2649 15.4645 40.0368 15.4508 39.7151L17.6115 39.7171C17.6115 39.7171 17.6684 39.7161 17.6742 39.662C17.6764 39.6391 17.7485 39.2267 17.6095 38.7494Z" fill="white"/>
<path d="M10.7903 40.58C10.7058 40.5139 10.6941 40.4972 10.6656 40.4546C10.623 40.3896 10.6013 40.2968 10.6013 40.1792C10.6013 39.9929 10.664 39.8591 10.794 39.7691C10.7925 39.7695 10.9798 39.6102 11.4208 39.6159C11.7302 39.6202 12.0069 39.6649 12.0069 39.6649V40.6281H12.0075C12.0075 40.6281 11.7329 40.6858 11.4238 40.7039C10.9841 40.73 10.7887 40.5796 10.7903 40.58ZM11.6501 39.0917C11.5625 39.0854 11.4489 39.0817 11.3129 39.0817C11.1275 39.0817 10.9485 39.1046 10.7809 39.1489C10.6118 39.1932 10.46 39.2625 10.3294 39.3541C10.199 39.4453 10.0917 39.5648 10.016 39.7033C9.93965 39.8429 9.90088 40.0074 9.90088 40.1916C9.90088 40.3791 9.93368 40.542 9.99956 40.6754C10.0638 40.8072 10.1608 40.921 10.2816 41.0065C10.4016 41.0922 10.5498 41.1554 10.7218 41.1934C10.8912 41.2314 11.0833 41.2506 11.2937 41.2506C11.5152 41.2506 11.7361 41.233 11.9501 41.197C12.1322 41.1662 12.3136 41.1319 12.4944 41.0939C12.5661 41.0772 12.6458 41.0559 12.6458 41.0559C12.6994 41.0429 12.6951 40.9866 12.6951 40.9866L12.6941 39.0495C12.6941 38.6247 12.5783 38.3097 12.3505 38.1145C12.1238 37.9198 11.7897 37.8213 11.358 37.8213C11.1962 37.8213 10.9352 37.8433 10.7793 37.8739C10.7793 37.8739 10.307 37.9635 10.1127 38.1124C10.1127 38.1124 10.0703 38.1384 10.0936 38.1967L10.2466 38.5997C10.2656 38.6517 10.3172 38.634 10.3172 38.634C10.3172 38.634 10.3337 38.6278 10.3528 38.6168C10.7685 38.395 11.2943 38.4019 11.2943 38.4019C11.5279 38.4019 11.7074 38.4476 11.8285 38.5388C11.9464 38.6273 12.0063 38.761 12.0063 39.0433V39.1327C11.8205 39.1067 11.6501 39.0917 11.6501 39.0917Z" fill="white"/>
<path d="M29.078 38.0002C29.0811 37.9932 29.0828 37.9856 29.0828 37.9779C29.0829 37.9702 29.0813 37.9625 29.0783 37.9554C29.0752 37.9483 29.0708 37.9419 29.0651 37.9365C29.0595 37.9312 29.0528 37.927 29.0455 37.9242C29.0089 37.9101 28.8251 37.8721 28.6833 37.8632C28.412 37.847 28.2611 37.8918 28.1263 37.9512C27.9925 38.0105 27.8438 38.1064 27.7609 38.2152V37.9577C27.7609 37.9216 27.7349 37.8931 27.6988 37.8931H27.1449C27.1089 37.8931 27.0828 37.9216 27.0828 37.9577V41.1173C27.0828 41.1526 27.1125 41.1817 27.1486 41.1817H27.7163C27.7336 41.1816 27.7503 41.1748 27.7625 41.1627C27.7748 41.1506 27.7816 41.1343 27.7816 41.1173V39.5386C27.7816 39.3267 27.8055 39.1153 27.8533 38.9826C27.8999 38.8514 27.9638 38.7462 28.0423 38.6707C28.1174 38.5983 28.209 38.5444 28.3095 38.5135C28.4098 38.4833 28.5209 38.4735 28.5995 38.4735C28.7126 38.4735 28.8368 38.5021 28.8368 38.5021C28.8782 38.5067 28.9016 38.4817 28.9155 38.4448C28.9525 38.3479 29.0578 38.058 29.0779 38.0002" fill="white"/>
<path d="M23.749 36.5357C23.6789 36.5149 23.6076 36.4982 23.5355 36.4857C23.4384 36.4701 23.3402 36.4628 23.2419 36.464C22.851 36.464 22.5429 36.5722 22.3269 36.7857C22.1118 36.998 21.9657 37.3214 21.8925 37.7467L21.8659 37.8899H21.3752C21.3752 37.8899 21.3157 37.8877 21.3031 37.9513L21.2229 38.3922C21.2171 38.4339 21.2356 38.4605 21.2929 38.4605H21.7704L21.286 41.1114C21.2484 41.3249 21.2048 41.5003 21.1564 41.6335C21.1092 41.7647 21.0631 41.8632 21.0057 41.9351C20.9503 42.0036 20.8984 42.0548 20.808 42.0844C20.7337 42.1088 20.6477 42.1204 20.5537 42.1204C20.5016 42.1204 20.4321 42.112 20.3807 42.1015C20.3403 42.0939 20.3011 42.0815 20.2637 42.0647C20.2637 42.0647 20.2081 42.0438 20.1858 42.0985C20.1683 42.1438 20.0407 42.4868 20.0254 42.529C20.0106 42.5711 20.0317 42.604 20.0588 42.6138C20.1225 42.6357 20.1697 42.6503 20.2563 42.6706C20.3764 42.6982 20.4779 42.6997 20.5729 42.6997C20.7715 42.6997 20.9531 42.6722 21.1034 42.6191C21.2542 42.5654 21.3859 42.4722 21.5028 42.3462C21.6286 42.2099 21.7077 42.0672 21.7831 41.872C21.858 41.6794 21.9223 41.4399 21.9731 41.1608L22.4602 38.4605H23.1718C23.1718 38.4605 23.2317 38.4625 23.2439 38.3985L23.3247 37.958C23.3299 37.9159 23.312 37.8899 23.254 37.8899H22.5631C22.5669 37.8747 22.5982 37.6364 22.6773 37.412C22.7113 37.3167 22.775 37.2391 22.8287 37.1859C22.8792 37.1356 22.9414 37.0977 23.0098 37.0756C23.0784 37.0537 23.1563 37.0433 23.2419 37.0433C23.3066 37.0433 23.3709 37.0506 23.4192 37.0605C23.4862 37.0746 23.5121 37.0819 23.5296 37.087C23.6003 37.1079 23.6098 37.0876 23.6237 37.0542L23.7888 36.6097C23.8059 36.5617 23.7639 36.5414 23.749 36.5357Z" fill="white"/>
<path d="M14.0964 41.1183C14.0964 41.1536 14.0703 41.1823 14.0343 41.1823H13.4613C13.4252 41.1823 13.3997 41.1537 13.3997 41.1183V36.5972C13.3997 36.5619 13.4252 36.5332 13.4613 36.5332H14.0342C14.0703 36.5332 14.0964 36.5618 14.0964 36.5972V41.1183Z" fill="white"/>
<g clip-path="url(#clip0_8874_32923)">
<path d="M45.3449 41.6564H44.6431C44.6044 41.428 44.5832 41.1968 44.5797 40.965H44.5619C44.2235 41.5105 43.6846 41.7835 42.9451 41.7839C42.3055 41.7839 41.8155 41.5595 41.4749 41.1107C41.1344 40.6618 40.9652 40.0764 40.9673 39.3544C40.9614 38.923 41.048 38.4955 41.2211 38.1023C41.3773 37.7443 41.6281 37.4383 41.9451 37.2189C42.2747 36.998 42.6619 36.8846 43.0556 36.8937C43.6596 36.8937 44.1512 37.094 44.5302 37.4947V35.209H45.2827V40.6293C45.2832 40.9727 45.304 41.3156 45.3449 41.6564ZM44.5277 39.6621V38.205C44.3678 37.9898 44.1629 37.814 43.928 37.6905C43.688 37.5744 43.425 37.5167 43.1596 37.522C42.7209 37.522 42.376 37.692 42.1247 38.032C41.8734 38.372 41.7476 38.8121 41.7472 39.3525C41.7472 39.911 41.8686 40.3529 42.1114 40.6781C42.3542 41.0033 42.688 41.1657 43.1127 41.1653C43.5391 41.1653 43.8811 41.0242 44.1387 40.7419C44.3988 40.4589 44.5277 40.0998 44.5277 39.6621Z" fill="#14377D"/>
<path d="M46.1426 40.3891C46.1426 39.788 46.3541 39.3706 46.7771 39.1369C47.2001 38.9032 47.8395 38.7863 48.6953 38.7863C48.903 38.7863 49.0599 38.7893 49.1661 38.7954V38.5313C49.1661 38.1844 49.0743 37.9264 48.8907 37.7573C48.7071 37.5882 48.4248 37.5042 48.0436 37.5055C47.5641 37.5048 47.0938 37.6398 46.6845 37.8958L46.418 37.3755C46.9189 37.0558 47.498 36.8883 48.088 36.8922C48.7226 36.8922 49.186 37.0439 49.4783 37.3475C49.7706 37.651 49.9172 38.1124 49.918 38.7317V40.6278C49.9192 40.9716 49.9403 41.315 49.9815 41.6562H49.2873C49.2511 41.4486 49.2299 41.2386 49.2238 41.0278H49.1972C49.0403 41.2692 48.8243 41.4641 48.5709 41.5931C48.3196 41.7206 47.9954 41.7841 47.5982 41.7837C47.1604 41.7837 46.808 41.664 46.5411 41.4246C46.2741 41.1852 46.1413 40.84 46.1426 40.3891ZM49.1629 39.9435V39.3425L48.7632 39.3327C48.4072 39.3245 48.0513 39.3553 47.7016 39.4244C47.4381 39.4847 47.2426 39.5877 47.1153 39.7334C46.988 39.8791 46.9245 40.0825 46.925 40.3435C46.925 40.6111 47.0019 40.816 47.1559 40.9582C47.3099 41.1005 47.5231 41.1718 47.7955 41.1722C48.0532 41.1794 48.308 41.1149 48.5328 40.9855C48.7272 40.8742 48.8896 40.7125 49.0037 40.5166C49.1058 40.3436 49.1609 40.1457 49.1629 39.9435Z" fill="#14377D"/>
<path d="M51.9878 37.0212H53.187V37.6125H51.9878V40.4095C51.9878 40.9069 52.2099 41.1556 52.654 41.1556C52.8044 41.1565 52.9541 41.1346 53.0982 41.0905L53.2137 41.6642C52.9887 41.747 52.7509 41.7868 52.5119 41.782C52.1155 41.782 51.8031 41.6681 51.5747 41.4405C51.3463 41.2128 51.2325 40.89 51.2333 40.4719V37.6099H50.4338V37.1097L51.2245 37.0186V35.8803L51.9859 35.6064L51.9878 37.0212Z" fill="#14377D"/>
<path d="M58.0735 39.3292C58.0814 39.7714 57.9884 40.2093 57.8019 40.608C57.6308 40.97 57.359 41.2719 57.0208 41.4758C56.6799 41.6817 56.2727 41.7847 55.7994 41.7847C55.326 41.7847 54.9201 41.68 54.5817 41.4706C54.2428 41.2667 53.9708 40.9639 53.8006 40.6009C53.6168 40.2039 53.5254 39.7686 53.5335 39.3292C53.5335 38.5886 53.7318 37.9982 54.1286 37.558C54.5254 37.1179 55.0832 36.8967 55.8019 36.8945C56.2807 36.8945 56.6907 36.9964 57.0316 37.2002C57.3677 37.3979 57.6385 37.6943 57.8089 38.0511C57.9938 38.4499 58.0844 38.8878 58.0735 39.3292ZM54.3152 39.3292C54.3152 39.8817 54.4381 40.3262 54.6839 40.6627C54.9296 40.9992 55.3023 41.167 55.8019 41.1661C56.3049 41.1661 56.6807 40.9975 56.9294 40.6601C57.1782 40.3227 57.3025 39.8782 57.3025 39.3266C57.3025 38.7737 57.1782 38.3334 56.9294 38.0055C56.6807 37.6777 56.3049 37.5138 55.8019 37.5138C55.2981 37.5138 54.925 37.6777 54.6826 38.0055C54.4402 38.3334 54.3177 38.7746 54.3152 39.3292Z" fill="#14377D"/>
<path d="M59.0146 38.0595C59.0141 37.7116 58.9929 37.364 58.9512 37.0188H59.6726C59.7063 37.2631 59.7275 37.5091 59.7361 37.7557H59.7538C60.0149 37.1794 60.4886 36.8911 61.1752 36.8906C61.2615 36.8945 61.3476 36.9038 61.4328 36.9186L61.3884 37.5827C61.2973 37.5687 61.2051 37.5628 61.113 37.5652C60.6811 37.5652 60.3495 37.7137 60.1181 38.0107C59.8867 38.3078 59.7712 38.6935 59.7716 39.1679V41.6533H59.0165L59.0146 38.0595Z" fill="#14377D"/>
<path d="M61.4141 40.3905C61.4141 39.7895 61.6256 39.3721 62.0486 39.1384C62.4716 38.9046 63.1097 38.7878 63.963 38.7878C64.1702 38.7878 64.3274 38.7908 64.4344 38.7969V38.5328C64.4344 38.1859 64.3424 37.9279 64.1584 37.7587C63.9744 37.5896 63.6933 37.5057 63.3151 37.507C62.8361 37.5065 62.3662 37.6415 61.9572 37.8973L61.6901 37.3769C62.1912 37.0572 62.7705 36.8896 63.3608 36.8936C63.9953 36.8936 64.4587 37.0454 64.751 37.349C65.0433 37.6525 65.1899 38.1139 65.1908 38.7331V40.6292C65.1916 40.973 65.2128 41.3165 65.2542 41.6576H64.5588C64.5222 41.4501 64.501 41.2401 64.4953 41.0293H64.4687C64.3115 41.2704 64.0956 41.4652 63.8424 41.5945C63.5886 41.722 63.2643 41.7856 62.8697 41.7851C62.4314 41.7851 62.0788 41.6654 61.8119 41.4261C61.545 41.1867 61.4124 40.8415 61.4141 40.3905ZM64.4344 39.945V39.3439L64.034 39.3342C63.678 39.3259 63.3221 39.3566 62.9725 39.4259C62.7085 39.4862 62.5131 39.5892 62.3862 39.7349C62.2593 39.8806 62.1958 40.0839 62.1958 40.345C62.1958 40.6126 62.2728 40.8175 62.4268 40.9597C62.5808 41.1019 62.794 41.1733 63.0664 41.1737C63.3241 41.1807 63.5788 41.1162 63.8037 40.987C63.998 40.8757 64.1604 40.714 64.2745 40.518C64.3757 40.3447 64.4301 40.1469 64.4319 39.945H64.4344Z" fill="#14377D"/>
<path d="M66.3879 38.0596C66.3874 37.7117 66.3662 37.3641 66.3245 37.0188H67.044C67.0793 37.2355 67.1005 37.4543 67.1075 37.6739H67.1252C67.2747 37.4363 67.4812 37.2421 67.7249 37.1099C68 36.96 68.3081 36.8854 68.6196 36.8933C69.0049 36.8933 69.3188 36.9768 69.5612 37.1437C69.8042 37.3109 69.9904 37.5514 70.0942 37.8319H70.112C70.2584 37.5488 70.4762 37.3111 70.7427 37.1437C71.0335 36.9704 71.3658 36.8837 71.7021 36.8933C72.0752 36.8933 72.3861 36.9768 72.6348 37.1437C72.8768 37.3026 73.0683 37.5305 73.1856 37.7994C73.306 38.079 73.3666 38.3817 73.3633 38.6873V41.656H72.6082V38.794C72.6082 38.4362 72.5236 38.1359 72.3544 37.8931C72.1852 37.6502 71.9132 37.5295 71.5384 37.5308C71.2889 37.5251 71.0442 37.6017 70.8404 37.7493C70.6426 37.8988 70.4889 38.1014 70.3962 38.3347C70.2948 38.5829 70.2434 38.8495 70.2452 39.1185V41.6586H69.4901V38.7783C69.5006 38.4616 69.4102 38.1499 69.2325 37.8905C69.0633 37.6511 68.7938 37.5312 68.4241 37.5308C68.0332 37.5308 67.7223 37.6719 67.4914 37.9542C67.2572 38.2469 67.1342 38.6166 67.1449 38.995V41.6541H66.3898L66.3879 38.0596Z" fill="#14377D"/>
<path d="M74.0811 40.3891C74.0811 39.788 74.2926 39.3706 74.7156 39.1369C75.1386 38.9032 75.7767 38.7863 76.63 38.7863C76.8372 38.7863 76.9942 38.7893 77.1008 38.7954V38.5313C77.1008 38.1844 77.009 37.9264 76.8254 37.7573C76.6418 37.5882 76.3601 37.5042 75.9802 37.5055C75.5007 37.5048 75.0304 37.6398 74.621 37.8958L74.3545 37.3755C74.8555 37.0558 75.4346 36.8883 76.0246 36.8922C76.6592 36.8922 77.1226 37.0439 77.4149 37.3475C77.7072 37.651 77.8538 38.1124 77.8546 38.7317V40.6278C77.8557 40.9716 77.8769 41.315 77.9181 41.6562H77.2258C77.1896 41.4486 77.1684 41.2386 77.1623 41.0278H77.1357C76.9788 41.2692 76.7628 41.4641 76.5094 41.5931C76.2581 41.7206 75.9339 41.7841 75.5367 41.7837C75.0988 41.7837 74.7465 41.664 74.4795 41.4246C74.2126 41.1852 74.0798 40.84 74.0811 40.3891ZM77.1014 39.9435V39.3425L76.7017 39.3327C76.3456 39.3245 75.9898 39.3553 75.6401 39.4244C75.3766 39.4847 75.1811 39.5877 75.0538 39.7334C74.9265 39.8791 74.863 40.0825 74.8634 40.3435C74.8634 40.6111 74.9404 40.816 75.0944 40.9582C75.2484 41.1005 75.4616 41.1718 75.734 41.1722C75.9917 41.1794 76.2465 41.1149 76.4713 40.9855C76.6657 40.8742 76.8281 40.7125 76.9422 40.5166C77.0443 40.3436 77.0993 40.1457 77.1014 39.9435Z" fill="#14377D"/>
</g>
<defs>
<clipPath id="clip0_8874_32923">
<rect width="36.9548" height="6.57491" fill="white" transform="translate(40.9644 35.209)"/>
</clipPath>
</defs>
</svg>
