<svg width="100%" height="100%" viewBox="0 0 80 80" fill="none" xmlns="http://www.w3.org/2000/svg">
<circle cx="40" cy="40" r="39.5" fill="white" stroke="#ECECEC"/>
<path d="M3.13477 29.6304V50.3648H24.7291L45.8661 29.6327H3.13477V29.6304Z" fill="url(#paint0_linear_8874_32933)"/>
<path d="M30.4868 48.2457V49.7921H30.7247V49.121H30.9924L31.4238 49.7921H31.6915L31.2304 49.121C31.4608 49.093 31.6469 48.9616 31.6469 48.6834C31.6469 48.3785 31.4567 48.2457 31.0817 48.2457H30.4868ZM30.7247 48.45H31.0519C31.2128 48.45 31.394 48.4756 31.394 48.6688C31.394 48.9101 31.2106 48.9314 31.0073 48.9314H30.7247V48.45ZM31.0222 47.6768C30.2673 47.6768 29.624 48.2473 29.624 49.0189C29.624 49.7961 30.2673 50.3756 31.0222 50.3756C31.7666 50.3756 32.3906 49.7962 32.3906 49.0189C32.3906 48.2473 31.7666 47.6768 31.0222 47.6768ZM31.0222 47.8956C31.6381 47.8956 32.1228 48.3836 32.1228 49.0189C32.1228 49.665 31.6381 50.1422 31.0222 50.1422C30.3958 50.1422 29.8918 49.665 29.8918 49.0189C29.8918 48.3836 30.3958 47.8956 31.0222 47.8956Z" fill="#1870C5"/>
<path fill-rule="evenodd" clip-rule="evenodd" d="M28.7392 39.5511H27.813V36.2287H28.7392C29.9757 36.2287 30.96 36.6283 30.96 37.8687C30.96 39.1497 29.9757 39.5511 28.7392 39.5511ZM18.7704 41.9264C18.2802 41.9264 17.8204 41.8386 17.423 41.692L18.7571 37.5652H18.7857L20.0921 41.7032C19.6985 41.8414 19.2507 41.9264 18.7719 41.9264H18.7704ZM28.4936 33.5295H24.2877V43.339L20.6133 33.5295H16.9713L13.832 41.7308C13.5002 39.6637 11.317 38.948 9.60077 38.4144C8.46943 38.0573 7.26528 37.5326 7.27623 36.9514C7.28574 36.4761 7.92304 36.0354 9.18003 36.1013C10.0272 36.1433 10.7745 36.2105 12.258 36.914L13.7192 34.4174C12.3656 33.7391 10.4898 33.3133 8.95538 33.3101H8.94586C7.15581 33.3101 5.66418 33.8824 4.73893 34.8193C4.09592 35.4748 3.748 36.3039 3.7323 37.2268C3.7085 38.491 4.18302 39.3882 5.17633 40.1057C6.01686 40.7098 7.08918 41.0987 8.03632 41.39C9.20478 41.7434 10.1586 42.052 10.1476 42.7097C10.1381 42.9492 10.0472 43.1738 9.87063 43.3512C9.57983 43.6476 9.13291 43.7573 8.51465 43.7709C7.32287 43.7942 6.43903 43.6121 5.03117 42.7961L3.7323 45.3277C5.13588 46.1116 6.79742 46.57 8.49323 46.57H8.71265C10.1881 46.542 11.3799 46.1288 12.3323 45.3782L12.4865 45.246L12.0657 46.3552H15.8852L16.5268 44.4417C17.1979 44.6644 17.9623 44.7895 18.7714 44.7895C19.561 44.7895 20.3059 44.6728 20.965 44.4599L21.5819 46.3552H27.814V42.3918H29.1738C32.4578 42.3918 34.4026 40.7523 34.4026 38.0008C34.4026 34.9384 32.514 33.5337 28.4932 33.5337" fill="white"/>
<path d="M38.5 47V34H39.8665V39.3383H45.2378V34H46.6042V47H45.2378V40.8724H39.8665V47H38.5Z" fill="#F7941E"/>
<path d="M47.7902 47L51.7607 34H53.2303L57.4586 47H55.8944L54.6913 43.0628H50.377L49.2426 47H47.7902ZM50.7724 41.6617H54.2702L53.1959 38.0614C52.8636 36.9559 52.6201 36.0573 52.4654 35.3656C52.3336 36.1992 52.1474 37.0268 51.9068 37.8486L50.7724 41.6617Z" fill="#F7941E"/>
<path d="M58.5071 47V34H59.9079L65.3394 44.2067V34H66.6457V47H65.2448L59.8219 36.7844V47H58.5071Z" fill="#F7941E"/>
<path d="M67.8316 47L71.8021 34H73.2717L77.5 47H75.9359L74.7327 43.0628H70.4185L69.284 47H67.8316ZM70.8138 41.6617H74.3116L73.2373 38.0614C72.905 36.9559 72.6615 36.0573 72.5068 35.3656C72.3751 36.1992 72.1889 37.0268 71.9482 37.8486L70.8138 41.6617Z" fill="#F7941E"/>
<defs>
<linearGradient id="paint0_linear_8874_32933" x1="24.4854" y1="29.6416" x2="24.4854" y2="50.3655" gradientUnits="userSpaceOnUse">
<stop stop-color="#00B8F1"/>
<stop offset="0.219864" stop-color="#06A5E5"/>
<stop offset="0.794312" stop-color="#1870C5"/>
<stop offset="1" stop-color="#1D61BC"/>
</linearGradient>
</defs>
</svg>
