<svg width="100%" height="100%" viewBox="0 0 80 80" fill="none" xmlns="http://www.w3.org/2000/svg">
<circle cx="40" cy="40" r="39.5" fill="white" stroke="#ECECEC"/>
<mask id="mask0_8874_32932" style="mask-type:alpha" maskUnits="userSpaceOnUse" x="0" y="0" width="80" height="80">
<circle cx="40" cy="40" r="39.5" fill="white" stroke="#D0D0CE"/>
</mask>
<g mask="url(#mask0_8874_32932)">
</g>
<path d="M6.02393 24.0303V57.9593H40.8694L74.9767 24.0341H6.02393V24.0303Z" fill="url(#paint0_linear_8874_32932)"/>
<path d="M50.1607 54.493V57.0234H50.5447V55.9253H50.9766L51.6727 57.0234H52.1047L51.3607 55.9253C51.7325 55.8795 52.0327 55.6645 52.0327 55.2092C52.0327 54.7104 51.7258 54.493 51.1207 54.493H50.1607ZM50.5447 54.8272H51.0726C51.3323 54.8272 51.6247 54.8693 51.6247 55.1853C51.6247 55.5803 51.3286 55.615 51.0007 55.615H50.5447V54.8272ZM51.0247 53.562C49.8066 53.562 48.7686 54.4956 48.7686 55.7582C48.7686 57.0301 49.8065 57.9783 51.0247 57.9783C52.2259 57.9783 53.2328 57.0302 53.2328 55.7582C53.2328 54.4956 52.2259 53.562 51.0247 53.562ZM51.0247 53.9201C52.0185 53.9201 52.8007 54.7186 52.8007 55.7582C52.8007 56.8156 52.0185 57.5963 51.0247 57.5963C50.0139 57.5963 49.2006 56.8156 49.2006 55.7582C49.2006 54.7186 50.0139 53.9201 51.0247 53.9201Z" fill="#1870C5"/>
<path fill-rule="evenodd" clip-rule="evenodd" d="M47.3403 40.2644H45.8457V34.8277H47.3403C49.3356 34.8277 50.9238 35.4816 50.9238 37.5113C50.9238 39.6075 49.3356 40.2644 47.3403 40.2644ZM31.2543 44.1512C30.4632 44.1512 29.7213 44.0076 29.08 43.7677L31.2328 37.0148H31.2789L33.387 43.7861C32.7519 44.0122 32.0292 44.1512 31.2566 44.1512H31.2543ZM46.944 30.4108H40.1571V46.4628L34.228 30.4108H28.3512L23.2854 43.8311C22.7501 40.4485 19.2272 39.2775 16.4578 38.4043C14.6322 37.8199 12.6891 36.9613 12.7068 36.0102C12.7222 35.2326 13.7505 34.5115 15.7788 34.6192C17.1459 34.6879 18.3517 34.7979 20.7456 35.9491L23.1034 31.8637C20.9191 30.7538 17.8924 30.0571 15.4163 30.0518H15.401C12.5125 30.0518 10.1055 30.9883 8.61254 32.5215C7.57495 33.594 7.01354 34.9507 6.98819 36.4609C6.94979 38.5296 7.7155 39.9978 9.31834 41.172C10.6746 42.1605 12.405 42.7968 13.9333 43.2735C15.8188 43.8518 17.3579 44.3567 17.3402 45.4331C17.3249 45.8249 17.1782 46.1924 16.8932 46.4827C16.424 46.9677 15.7028 47.1473 14.7052 47.1694C12.7821 47.2076 11.3559 46.9097 9.08409 45.5744L6.98819 49.717C9.25306 50.9996 11.9342 51.7498 14.6706 51.7498H15.0247C17.4055 51.704 19.3286 51.0279 20.8654 49.7996L21.1142 49.5834L20.4353 51.3984H26.5986L27.6339 48.2672C28.7168 48.6315 29.9502 48.8363 31.2558 48.8363C32.5299 48.8363 33.7319 48.6453 34.7956 48.2969L35.7909 51.3984H45.8473V44.9128H48.0415C53.3407 44.9128 56.4788 42.23 56.4788 37.7275C56.4788 32.7163 53.4314 30.4177 46.9432 30.4177" fill="white"/>
<defs>
<linearGradient id="paint0_linear_8874_32932" x1="40.4761" y1="24.0486" x2="40.4761" y2="57.9605" gradientUnits="userSpaceOnUse">
<stop stop-color="#00B8F1"/>
<stop offset="0.219864" stop-color="#06A5E5"/>
<stop offset="0.794312" stop-color="#1870C5"/>
<stop offset="1" stop-color="#1D61BC"/>
</linearGradient>
</defs>
</svg>
