<svg width="100%" height="100%" viewBox="0 0 80 80" fill="none" xmlns="http://www.w3.org/2000/svg">
<circle cx="40" cy="40" r="39.5" fill="white" stroke="#ECECEC"/>
<path d="M12.9985 48.9607H31.0301V30.9292H12.9985V48.9607Z" fill="white"/>
<path d="M12.9985 48.9607H31.0301V30.9292H12.9985V48.9607Z" fill="#99E1F4"/>
<path d="M31.0291 66.8985H48.9593V48.9683H31.0291V66.8985Z" fill="white"/>
<path d="M31.0291 66.8985H48.9593V48.9683H31.0291V66.8985Z" fill="#99E1F4"/>
<path d="M12.9985 66.9998H31.0301V66.8985H12.9985V66.9998ZM12.9985 66.8985H31.0301V48.9683H12.9985V66.8985Z" fill="#1A82E2"/>
<path d="M31.0291 30.9288H48.9593V12.9985H31.0291V30.9288ZM48.9678 48.9603H66.9993V31.0301H48.9678V48.9603Z" fill="#00B3E3"/>
<path d="M31.0291 30.9292H48.9593V48.9692H31.0291V30.9292Z" fill="#009DD9"/>
<path d="M48.97 30.9288H67.0015V12.9985H48.97V30.9288Z" fill="#1A82E2"/>
<path d="M48.97 31.0305H67.0015V30.9292H48.97V31.0305Z" fill="#1A82E2"/>
</svg>
