<svg width="100%" height="100%" viewBox="0 0 80 80" fill="none" xmlns="http://www.w3.org/2000/svg">
<circle cx="40" cy="40" r="39.5" fill="white" stroke="#ECECEC"/>
<mask id="mask0_8874_32934" style="mask-type:alpha" maskUnits="userSpaceOnUse" x="0" y="0" width="80" height="80">
<circle cx="40" cy="40" r="39.5" fill="white" stroke="#D0D0CE"/>
</mask>
<g mask="url(#mask0_8874_32934)">
</g>
<g clip-path="url(#clip0_8874_32934)">
<path fill-rule="evenodd" clip-rule="evenodd" d="M20.4896 37.4141C19.673 37.4141 18.9731 37.7032 18.3899 38.1659V37.5297H16.4067V44.9907H18.4482V40.2481C18.7398 39.8432 19.4397 39.3227 20.3146 39.3227C20.6063 39.3227 20.8979 39.3805 21.1312 39.4384V37.5297C20.8979 37.4719 20.6646 37.4141 20.4896 37.4141Z" fill="#293E40"/>
<path fill-rule="evenodd" clip-rule="evenodd" d="M2.93323 42.676C3.45817 43.1387 4.27475 43.4278 4.97467 43.4278C5.49962 43.4278 5.96623 43.1387 5.96623 42.7916C5.96623 41.6349 2.29163 42.0398 2.29163 39.6685C2.29163 38.2225 3.69148 37.355 5.14965 37.355C6.14121 37.355 7.1911 37.702 7.71604 38.1069L6.78281 39.5528C6.37452 39.3214 5.9079 39.0322 5.32464 39.0322C4.74137 39.0322 4.33308 39.2636 4.33308 39.6685C4.33308 40.6517 8.00767 40.2468 8.00767 42.8495C8.00767 44.2954 6.60783 45.1629 5.033 45.1629C3.98312 45.1629 2.8749 44.8159 2 44.1797L2.93323 42.676Z" fill="#293E40"/>
<path fill-rule="evenodd" clip-rule="evenodd" d="M15.5318 41.1722C15.5318 39.0901 14.0737 37.355 11.9739 37.355C9.75749 37.355 8.29932 39.2058 8.29932 41.23C8.29932 43.6014 9.9908 45.1051 12.2072 45.1051C13.3738 45.1051 14.5403 44.6424 15.2985 43.7749L14.132 42.6181C13.782 43.023 13.0821 43.4857 12.2655 43.4857C11.2157 43.4857 10.3408 42.7338 10.2241 41.6927H15.4152C15.5318 41.5771 15.5318 41.4036 15.5318 41.1722ZM10.3991 40.3047C10.5157 39.6106 11.2157 38.9744 12.0322 38.9744C12.8488 38.9744 13.4321 39.6106 13.5487 40.3047H10.3991Z" fill="#293E40"/>
<path fill-rule="evenodd" clip-rule="evenodd" d="M29.9963 37.5303L26.555 44.9912H25.1552L21.7139 37.5303H23.7553L25.8551 42.0994L27.8965 37.5303H29.9963Z" fill="#293E40"/>
<path fill-rule="evenodd" clip-rule="evenodd" d="M31.6882 34.0005C32.4465 34.0005 33.0297 34.5789 33.0297 35.2729C33.0297 36.0248 32.4465 36.5453 31.6882 36.5453C30.93 36.5453 30.405 35.9669 30.405 35.2729C30.405 34.521 30.93 34.0005 31.6882 34.0005Z" fill="#293E40"/>
<path d="M32.7382 37.5298H30.6968V44.9907H32.7382V37.5298Z" fill="#293E40"/>
<path fill-rule="evenodd" clip-rule="evenodd" d="M41.021 43.4278C40.1461 44.5846 39.0379 45.1051 37.6381 45.1051C35.305 45.1051 33.6135 43.37 33.6135 41.23C33.6135 39.0322 35.3633 37.355 37.6381 37.355C38.9796 37.355 40.0878 37.9912 40.7877 38.8587L39.4462 40.0733C39.0379 39.5528 38.4547 39.2058 37.7547 39.2058C36.5882 39.2058 35.7133 40.1311 35.7133 41.23C35.7133 42.3868 36.5299 43.2543 37.7547 43.2543C38.5713 43.2543 39.2129 42.7916 39.5629 42.2711L41.021 43.4278Z" fill="#293E40"/>
<path fill-rule="evenodd" clip-rule="evenodd" d="M48.3117 43.7749C47.5535 44.6424 46.3869 45.1051 45.2204 45.1051C43.004 45.1051 41.3125 43.6014 41.3125 41.23C41.3125 39.1479 42.7123 37.355 44.9871 37.355C47.0285 37.355 48.5451 39.0901 48.5451 41.1722C48.5451 41.4036 48.545 41.5771 48.4867 41.7506H43.2373C43.3539 42.7916 44.2288 43.5435 45.2787 43.5435C46.0953 43.5435 46.7952 43.0808 47.1452 42.676L48.3117 43.7749ZM46.4453 40.3047C46.3869 39.6685 45.8037 38.9744 44.9288 38.9744C44.1122 38.9744 43.4123 39.6106 43.2956 40.3047H46.4453Z" fill="#293E40"/>
<path fill-rule="evenodd" clip-rule="evenodd" d="M49.303 44.9897V37.5288H51.2278V38.165C51.811 37.7023 52.511 37.4131 53.3275 37.4131C54.3774 37.4131 55.3107 37.8758 55.9523 38.6277C56.4189 39.206 56.7688 39.9579 56.7688 41.2303V45.0475H54.7274V41.0568C54.7274 40.3049 54.5524 39.9001 54.2608 39.6687C53.9691 39.3795 53.6192 39.206 53.0942 39.206C52.2777 39.206 51.5777 39.7266 51.2278 40.1314V44.9897H49.303Z" fill="#293E40"/>
<path fill-rule="evenodd" clip-rule="evenodd" d="M61.96 37.3564C59.5102 37.3564 57.5854 39.2651 57.5854 41.6942C57.5854 42.9666 58.1104 44.1233 58.927 44.9331C59.2186 45.2222 59.7435 45.2222 60.0935 44.9909C60.5601 44.586 61.26 44.3547 61.96 44.3547C62.7182 44.3547 63.3015 44.586 63.8264 44.9909C64.1764 45.2801 64.643 45.2222 64.993 44.8752C65.8095 44.0655 66.3345 42.9666 66.3345 41.6942C66.2762 39.3229 64.3514 37.3564 61.96 37.3564ZM61.9016 43.9498C60.5601 43.9498 59.6852 42.9666 59.6852 41.752C59.6852 40.5375 60.5601 39.5542 61.9016 39.5542C63.2432 39.5542 64.1181 40.5375 64.1181 41.752C64.1181 42.9666 63.2432 43.9498 61.9016 43.9498Z" fill="#81B5A1"/>
<path fill-rule="evenodd" clip-rule="evenodd" d="M65.8096 37.5303H67.7927L69.4258 41.8102L71.059 37.5303H72.7505L74.3253 41.8102L75.9585 37.5303H77.9999L75.0252 44.9912H73.5087L71.8756 40.7691L70.3008 44.9912H68.7843L65.8096 37.5303Z" fill="#293E40"/>
</g>
<defs>
<clipPath id="clip0_8874_32934">
<rect width="76" height="11.1765" fill="white" transform="translate(2 34)"/>
</clipPath>
</defs>
</svg>
