<svg width="100%" height="100%" viewBox="0 0 80 80" fill="none" xmlns="http://www.w3.org/2000/svg">
<circle cx="40" cy="40" r="39.5" fill="white" stroke="#ECECEC"/>
<path d="M54.1066 73.9103H26.8934C25.6674 73.9103 24.6736 72.9165 24.6736 71.6905C24.6736 70.4645 25.6674 69.4707 26.8934 69.4707H54.1066C55.3326 69.4707 56.3264 70.4645 56.3264 71.6905C56.3264 72.9165 55.3326 73.9103 54.1066 73.9103Z" fill="#656766"/>
<path d="M42.7196 71.4514V58.0826C42.7196 56.8566 41.7258 55.8628 40.4998 55.8628C39.2739 55.8628 38.28 56.8566 38.28 58.0826V71.4514H42.7196Z" fill="#656766"/>
<path d="M71.0922 55.6169V24.681C71.0922 21.9627 68.8886 19.759 66.1702 19.759H41.1842C39.6179 19.759 38.1451 19.0135 37.2177 17.7512L36.1717 16.3276C35.2443 15.0653 33.7715 14.3198 32.2052 14.3198H14.8294C12.1111 14.3198 9.90747 16.5235 9.90747 19.2418V55.6169C9.90747 58.3352 12.1111 60.5388 14.8294 60.5388H66.1702C68.8886 60.5388 71.0922 58.3352 71.0922 55.6169Z" fill="#FFC966"/>
<path d="M27.3498 37.2666C27.1817 37.4048 27.0971 37.589 27.0971 37.818C27.0971 38.0471 27.2004 38.2288 27.4058 38.3632C27.6124 38.4989 28.0892 38.6583 28.8361 38.8425C29.5829 39.0267 30.163 39.3018 30.5751 39.669C30.9883 40.0375 31.195 40.574 31.195 41.2798C31.195 41.9856 30.9298 42.557 30.4008 42.9964C29.8717 43.4358 29.1759 43.6549 28.3132 43.6549C27.0672 43.6549 25.9444 43.1931 24.946 42.2707L25.9929 40.9873C26.8419 41.7304 27.6261 42.1014 28.3468 42.1014C28.6693 42.1014 28.9219 42.0317 29.1062 41.8935C29.2904 41.7541 29.3825 41.5661 29.3825 41.3296C29.3825 41.0944 29.2842 40.9064 29.09 40.767C28.8946 40.6288 28.5074 40.4881 27.9298 40.345C27.0137 40.1271 26.3439 39.8446 25.9207 39.4948C25.4962 39.1462 25.2846 38.5985 25.2846 37.8516C25.2846 37.1048 25.5523 36.5284 26.0888 36.1239C26.6253 35.718 27.295 35.5151 28.0991 35.5151C28.6244 35.5151 29.1497 35.606 29.675 35.7853C30.2003 35.9658 30.6584 36.2209 31.0481 36.5508L30.1593 37.8342C29.4759 37.3164 28.7701 37.0574 28.0419 37.0574C27.7494 37.0574 27.5191 37.1272 27.3498 37.2666Z" fill="white"/>
<path d="M39.2213 35.6953V37.2376H35.574V38.938H39.0421V40.4804H35.574V43.565H33.8176V35.6953H39.2213Z" fill="white"/>
<path d="M45.1668 37.2152V43.565H43.4104V37.2152H41.1809V35.6953H47.395V37.2152H45.1668Z" fill="white"/>
<path d="M55.2248 36.3986C55.7763 36.8679 56.0526 37.5887 56.0526 38.5609C56.0526 39.5331 55.7688 40.2438 55.2024 40.6945C54.636 41.1438 53.7709 41.3691 52.6082 41.3691H51.5601V43.565H49.8049V35.6953H52.5846C53.7933 35.6953 54.6734 35.9293 55.2248 36.3986ZM53.9364 39.4945C54.1456 39.258 54.2514 38.9131 54.2514 38.4588C54.2514 38.0057 54.1144 37.682 53.8406 37.4903C53.5667 37.2999 53.141 37.204 52.5622 37.204H51.5601V39.8492H52.7427C53.3277 39.8492 53.7261 39.731 53.9364 39.4945Z" fill="white"/>
<path d="M40.4998 77.6792C43.8085 77.6792 46.4907 74.997 46.4907 71.6882C46.4907 68.3795 43.8085 65.6973 40.4998 65.6973C37.191 65.6973 34.5088 68.3795 34.5088 71.6882C34.5088 74.997 37.191 77.6792 40.4998 77.6792Z" fill="#EC6E62"/>
</svg>
