<svg width="100%" height="100%" viewBox="0 0 80 80" fill="none" xmlns="http://www.w3.org/2000/svg">
<circle cx="40" cy="40" r="39.5" fill="white" stroke="#ECECEC"/>
<path d="M61.4469 15.3558C61.3998 15.0158 61.1 14.8277 60.8523 14.8069C59.0256 14.6705 57.1988 14.5352 55.3719 14.401C55.3719 14.401 51.7375 10.8159 51.3386 10.4191C50.9394 10.0225 50.1599 10.1431 49.8573 10.2316C49.8128 10.2446 49.0632 10.4745 47.8234 10.8557C46.6093 7.38445 44.4667 4.19451 40.6972 4.19451C40.5932 4.19451 40.4861 4.1987 40.3789 4.20475C39.3069 2.79608 37.9789 2.18408 36.8319 2.18408C28.0511 2.18408 23.856 13.0909 22.5407 18.6333C19.1286 19.6838 16.7047 20.4307 16.3951 20.5273C14.4906 21.1209 14.4304 21.1805 14.1803 22.9637C13.9921 24.3137 9.00879 62.6053 9.00879 62.6053L47.8396 69.8343L68.8794 65.3118C68.8794 65.3118 61.4936 15.6958 61.4471 15.3558H61.4469ZM45.6772 11.5152L42.3915 12.5257C42.3927 12.2956 42.3939 12.0692 42.3939 11.8217C42.3939 9.66432 42.0925 7.92729 41.6089 6.55029C43.5512 6.79248 44.8447 8.98827 45.6772 11.5152ZM39.1996 6.97808C39.7396 8.32248 40.0907 10.2519 40.0907 12.8554C40.0907 12.9886 40.0895 13.1104 40.0883 13.2336C37.9515 13.8913 35.6296 14.6053 33.3025 15.3216C34.6091 10.311 37.0583 7.89096 39.1996 6.97808ZM36.5907 4.52426C36.9697 4.52426 37.3515 4.65211 37.7169 4.90199C34.9028 6.21774 31.8864 9.53158 30.6125 16.1492L25.2486 17.7999C26.7407 12.7523 30.2835 4.52426 36.5905 4.52426H36.5907Z" fill="#95BF46"/>
<path d="M60.8522 14.803C59.0255 14.6666 57.1987 14.5313 55.3718 14.3971C55.3718 14.3971 51.7373 10.8119 51.3384 10.4151C51.1891 10.2675 50.9878 10.1918 50.7773 10.1592L47.8413 69.8299L68.8793 65.3079C68.8793 65.3079 61.4932 15.6919 61.4468 15.3519C61.3997 15.0119 61.0999 14.8237 60.8522 14.803Z" fill="#5E8E3E"/>
<path d="M40.6968 26.3569L38.1025 34.0246C38.1025 34.0246 35.8296 32.8192 33.0433 32.8192C28.9586 32.8192 28.7531 35.3662 28.7531 36.008C28.7531 39.51 37.9406 40.8518 37.9406 49.0547C37.9406 55.5084 33.821 59.6641 28.2663 59.6641C21.6006 59.6641 18.1919 55.5422 18.1919 55.5422L19.9767 49.683C19.9767 49.683 23.4806 52.672 26.4372 52.672C28.3692 52.672 29.155 51.1606 29.155 50.0563C29.155 45.4882 21.6175 45.2844 21.6175 37.7781C21.6175 31.4604 26.1813 25.3467 35.3936 25.3467C38.9432 25.3467 40.6968 26.3569 40.6968 26.3569Z" fill="white"/>
</svg>
