<svg width="100%" height="100%" viewBox="0 0 80 80" fill="none" xmlns="http://www.w3.org/2000/svg">
<circle cx="40" cy="40" r="39.5" fill="white" stroke="#ECECEC"/>
<mask id="mask0_8874_32938" style="mask-type:alpha" maskUnits="userSpaceOnUse" x="0" y="0" width="80" height="80">
<circle cx="40" cy="40" r="39.5" fill="white" stroke="white"/>
</mask>
<g mask="url(#mask0_8874_32938)">
<path d="M-63.1704 -43.7031H143.254V111.117H-63.1695L-63.1704 -43.7031Z" fill="#BDCF31"/>
<path d="M64.7712 36.0489C64.1383 36.0489 63.5127 36.1361 62.9231 36.279C60.595 27.062 52.8898 19.9968 43.3455 18.5847C43.2017 16.9757 43.8174 14.4525 47.8417 12.0211L47.7213 11.7847C47.7213 11.7847 40.9815 13.9168 39.4579 18.1253C39.5244 16.8112 39.0462 14.8373 36.1195 13.4332C36.1195 13.4332 35.8885 13.5123 36.0053 13.6184C36.586 14.155 38.435 15.9438 37.6503 18.4346C27.5019 19.3577 19.1963 26.6503 16.7622 36.2808C16.1576 36.1305 15.5371 36.0532 14.9141 36.0507C10.6552 36.0507 7.18823 39.5096 7.18823 43.7811C7.18823 48.0444 10.6561 51.5087 14.9141 51.5087C15.9118 51.5087 16.8628 51.311 17.7365 50.9676C18.3952 52.6138 19.2374 54.1806 20.2471 55.6381L26.6885 51.2948L26.6058 51.2426C24.9096 49.0629 23.8732 45.853 23.6988 42.6584C23.5064 39.1348 24.3658 35.6355 26.6157 33.5779C31.2539 29.6292 36.3037 31.4296 39.4696 35.2139H40.3145C43.4804 31.5042 48.4736 29.7802 53.075 33.6858C55.2952 35.7298 56.1635 39.1689 55.9945 42.6458C55.8417 45.871 54.799 49.1321 53.0956 51.3271L59.4453 55.6372C60.4504 54.1776 61.2903 52.6108 61.9496 50.9658C62.8233 51.3074 63.7725 51.5069 64.7694 51.5069C69.039 51.5069 72.497 48.0417 72.497 43.7766C72.4975 42.7617 72.298 41.7566 71.9098 40.8188C71.5217 39.8811 70.9526 39.029 70.2351 38.3113C69.5175 37.5935 68.6655 37.0242 67.7279 36.6359C66.7902 36.2476 65.7852 36.0478 64.7703 36.048L64.7712 36.0489ZM15.1774 45.3244C14.3271 45.3244 13.6314 44.635 13.6314 43.7748C13.6306 43.4924 13.707 43.2151 13.8523 42.973C13.9976 42.7309 14.2063 42.533 14.4559 42.4009C14.7055 42.2688 14.9864 42.2073 15.2683 42.2232C15.5503 42.2391 15.8225 42.3318 16.0556 42.4912C16.0646 43.3119 16.1276 44.1199 16.2219 44.9181C15.9369 45.1796 15.5642 45.3246 15.1774 45.3244ZM64.5033 45.328C64.1219 45.3274 63.754 45.1867 63.4696 44.9325C63.5622 44.1289 63.6251 43.3172 63.635 42.493C63.884 42.3258 64.1833 42.2251 64.5051 42.2251C65.359 42.2251 66.0565 42.9217 66.0565 43.7802C66.0565 44.6413 65.3554 45.3289 64.5042 45.3289" fill="white"/>
<path d="M67.2529 0C74.2917 0 80 5.70708 80 12.7482V67.2529C80 74.2918 74.2917 80 67.2529 80H12.7482C5.70825 80 0 74.2918 0 67.2529V12.7482C0 5.70708 5.70825 0 12.7482 0H67.2529Z" fill="#FFFC00"/>
<path d="M40.2947 67.4697C40.1433 67.4697 39.9955 67.465 39.8465 67.458C39.7514 67.4662 39.6529 67.4697 39.5543 67.4697C36.0824 67.4697 33.8543 65.8951 31.6989 64.371C30.2111 63.3197 28.8066 62.327 27.1522 62.0513C26.345 61.9175 25.5412 61.8506 24.7657 61.8506C23.3659 61.8506 22.263 62.0665 21.4569 62.2238C20.9676 62.32 20.5452 62.4021 20.2237 62.4021C19.8881 62.4021 19.5256 62.3294 19.3672 61.7896C19.2299 61.3215 19.1313 60.8697 19.0351 60.4309C18.7887 59.3045 18.6139 58.6111 18.1422 58.5383C12.6358 57.6877 11.0588 56.5272 10.708 55.7047C10.6587 55.5874 10.6294 55.4689 10.6235 55.3527C10.6059 55.0359 10.8289 54.7567 11.1421 54.7062C19.6065 53.3123 23.4023 44.6602 23.5607 44.2929C23.5642 44.2835 23.5689 44.273 23.5736 44.2636C24.0922 43.2135 24.1931 42.3018 23.8763 41.5544C23.2955 40.1863 21.4006 39.5844 20.1463 39.1866C19.84 39.0892 19.549 38.9977 19.3191 38.9062C16.8164 37.9171 16.6087 36.9021 16.7072 36.3847C16.875 35.5023 18.0531 34.8875 19.007 34.8875C19.2674 34.8875 19.4974 34.9345 19.691 35.0248C20.8174 35.5516 21.8312 35.8191 22.7076 35.8191C23.9173 35.8191 24.4453 35.3111 24.5099 35.2442C24.4782 34.6716 24.4407 34.0732 24.4019 33.4549C24.1497 29.4538 23.8364 24.4801 25.1036 21.6418C28.8981 13.134 36.9448 12.4722 39.3208 12.4722C39.3818 12.4722 40.3627 12.4617 40.3627 12.4617H40.5035C42.8842 12.4617 50.9497 13.1234 54.7466 21.6371C56.0126 24.4766 55.6993 29.4538 55.447 33.4525L55.4365 33.6274C55.4013 34.1835 55.3672 34.7244 55.3391 35.243C55.4001 35.3052 55.8859 35.7722 56.9818 35.8145H56.9829C57.8172 35.7828 58.7746 35.5164 59.8259 35.0248C60.1333 34.8805 60.4759 34.85 60.7082 34.85C61.0649 34.85 61.4251 34.9192 61.7243 35.0436L61.7431 35.0518C62.5926 35.3533 63.1499 35.9482 63.1617 36.5712C63.1734 37.1579 62.7252 38.0391 60.5299 38.9062C60.3023 38.9965 60.0113 39.088 59.7027 39.1866C58.4472 39.5844 56.5535 40.1863 55.9727 41.5544C55.6559 42.3018 55.7568 43.2123 56.2754 44.2624C56.2801 44.273 56.2848 44.2824 56.2895 44.2929C56.4467 44.6602 60.2389 53.31 68.708 54.7051C69.0201 54.7567 69.2442 55.0359 69.2266 55.3516C69.2196 55.4701 69.1902 55.5898 69.1398 55.7059C68.7901 56.5226 67.2155 57.6818 61.7079 58.5325C61.2574 58.6017 61.0825 59.1884 60.8138 60.418C60.7165 60.8651 60.6179 61.305 60.4818 61.7673C60.3645 62.1686 60.1145 62.3564 59.6933 62.3564H59.6253C59.3331 62.3564 58.9189 62.3036 58.3933 62.2003C57.4605 62.0184 56.415 61.8506 55.0845 61.8506C54.3077 61.8506 53.504 61.9175 52.6956 62.0513C51.0435 62.327 49.6402 63.3173 48.1548 64.3674C45.9959 65.8951 43.7677 67.4697 40.2947 67.4697Z" fill="white"/>
<path d="M40.5025 13.0764C42.7565 13.0764 50.5204 13.6819 54.1788 21.8846C55.3839 24.5844 55.0753 29.4772 54.8277 33.4079C54.7878 34.0321 54.7503 34.6364 54.7198 35.2136L54.7057 35.4612L54.8723 35.6466C54.938 35.7205 55.5645 36.3752 56.9573 36.4292L56.9808 36.4304L57.0031 36.4292C57.9241 36.394 58.9613 36.1089 60.0889 35.5809C60.2532 35.5034 60.4749 35.4659 60.7084 35.4659C60.9748 35.4659 61.2576 35.5152 61.491 35.6137L61.5262 35.6278C62.1164 35.8343 62.5341 36.225 62.5412 36.5782C62.5447 36.7789 62.3945 37.4969 60.3013 38.3241C60.096 38.4051 59.8261 38.4907 59.514 38.5893C58.1517 39.0223 56.0937 39.6746 55.4003 41.3056C55.0107 42.2266 55.1163 43.312 55.7183 44.5322C55.9658 45.1083 59.8531 53.8696 68.6061 55.3116C68.6038 55.3527 68.5932 55.3984 68.5698 55.4524C68.4219 55.8021 67.4786 57.0082 61.6119 57.9129C60.6932 58.0548 60.4691 59.0839 60.2074 60.2807C60.1147 60.7077 60.0173 61.1395 59.8859 61.5866C59.846 61.7215 59.839 61.7297 59.6935 61.7297H59.6243C59.365 61.7297 58.9684 61.6757 58.5108 61.5866C57.6789 61.4235 56.5396 61.224 55.0835 61.224C54.2715 61.224 53.4338 61.2956 52.5937 61.434C50.7985 61.7332 49.3377 62.7658 47.7912 63.8581C45.7156 65.3271 43.5684 66.8443 40.2936 66.8443C40.1517 66.8443 40.012 66.8396 39.8712 66.8325L39.8349 66.8314L39.7973 66.8337C39.7175 66.8407 39.6366 66.8443 39.5533 66.8443C36.2785 66.8443 34.1313 65.3271 32.0557 63.8593C30.5092 62.7658 29.0484 61.7332 27.2544 61.434C26.4143 61.2956 25.5765 61.224 24.7646 61.224C23.3085 61.224 22.1692 61.4458 21.3361 61.6089C20.8785 61.6992 20.4831 61.7755 20.2226 61.7755C20.0114 61.7755 20.0067 61.7637 19.9622 61.61C19.8307 61.163 19.7334 60.7195 19.6407 60.2924C19.379 59.0956 19.1526 58.0607 18.2362 57.9187C12.3684 57.0129 11.4262 55.8044 11.2772 55.4559C11.2537 55.4019 11.2443 55.3538 11.242 55.3128C19.9938 53.8708 23.8823 45.1107 24.1298 44.5322C24.7306 43.312 24.8373 42.2278 24.4466 41.3067C23.7544 39.6746 21.6963 39.0223 20.3329 38.5893C20.0208 38.4907 19.751 38.4051 19.5468 38.3241C17.7774 37.6248 17.2342 36.922 17.3163 36.4949C17.409 36.0033 18.262 35.5034 19.0059 35.5034C19.1725 35.5034 19.3192 35.5293 19.4271 35.5809C20.6356 36.1464 21.7398 36.4339 22.7066 36.4339C24.2272 36.4339 24.9054 35.7264 24.977 35.6454L25.1424 35.4612L25.1283 35.2148C25.0978 34.6375 25.0591 34.0344 25.0204 33.4114C24.7728 29.4796 24.4642 24.5903 25.6692 21.8893C29.3136 13.7171 37.0388 13.087 39.3198 13.087C39.3761 13.087 40.3676 13.0776 40.3676 13.0776C40.4098 13.0764 40.4544 13.0764 40.5025 13.0764ZM40.5025 11.8362H40.5001H40.3535C40.3535 11.8362 39.3949 11.8456 39.3186 11.8456C36.8499 11.8456 28.4829 12.5343 24.5358 21.3836C23.2076 24.3615 23.5256 29.4186 23.7813 33.4818C23.8119 33.9605 23.8435 34.458 23.8705 34.9391C23.6664 35.0517 23.2932 35.1925 22.7066 35.1925C21.9228 35.1925 20.997 34.9461 19.9539 34.4568C19.677 34.3278 19.3579 34.2621 19.0059 34.2621C17.7845 34.2621 16.3237 35.0658 16.0972 36.2626C15.9329 37.125 16.319 38.3828 19.0904 39.4775C19.3403 39.5772 19.6407 39.6723 19.9586 39.772C21.1038 40.1358 22.8345 40.6849 23.305 41.7913C23.5479 42.3651 23.4505 43.1031 23.0163 43.9831C23.007 44.003 22.9976 44.023 22.9894 44.0441C22.8368 44.3985 19.1737 52.749 11.0401 54.0878C10.4148 54.1911 9.96772 54.7496 10.0029 55.382C10.0135 55.5709 10.0581 55.7575 10.1343 55.9393C10.7456 57.3661 13.3199 58.4127 18.0086 59.1402C18.1658 59.3514 18.3289 60.1 18.4286 60.5564C18.526 61.0069 18.6269 61.4704 18.7712 61.9609C18.912 62.4419 19.2793 63.0169 20.2226 63.0169C20.604 63.0169 21.0545 62.9289 21.5743 62.8268C22.3558 62.6742 23.4258 62.4654 24.7646 62.4654C25.5073 62.4654 26.277 62.5299 27.0514 62.6578C28.5638 62.9101 29.8498 63.8194 31.3376 64.8707C33.4695 66.3785 35.8843 68.0845 39.5533 68.0845C39.6542 68.0845 39.7551 68.0821 39.856 68.0739C39.9745 68.0798 40.1294 68.0845 40.2936 68.0845C43.9638 68.0845 46.3785 66.3785 48.5081 64.8719C49.9994 63.8182 51.2842 62.9101 52.7967 62.6578C53.5711 62.5299 54.3408 62.4654 55.0835 62.4654C56.3612 62.4654 57.3715 62.6273 58.2726 62.8033C58.8381 62.9148 59.2922 62.9711 59.6243 62.9711H59.6595H59.6935C60.3905 62.9711 60.8821 62.6027 61.0769 61.935C61.2188 61.4552 61.3197 61.0034 61.4195 60.5458C61.5192 60.0906 61.6811 59.3455 61.8372 59.1343C66.527 58.4068 69.1013 57.3626 69.7114 55.9417C69.7888 55.7598 69.8346 55.5709 69.8452 55.3808C69.8804 54.7472 69.4333 54.1911 68.8079 54.0878C60.6709 52.7467 57.0101 44.3973 56.8587 44.0429C56.8505 44.023 56.8411 44.003 56.8306 43.9831C56.3964 43.1019 56.3002 42.3651 56.5431 41.7913C57.0124 40.6849 58.7431 40.1357 59.8883 39.7732C60.2086 39.6711 60.509 39.5749 60.7565 39.4775C62.7852 38.6761 63.8025 37.6929 63.7814 36.5536C63.7638 35.6583 63.0668 34.8605 61.9592 34.465L61.9557 34.4639C61.5837 34.309 61.1414 34.2245 60.7084 34.2245C60.4116 34.2245 59.9728 34.2644 59.5621 34.4568C58.5976 34.9086 57.7305 35.155 56.9831 35.1878C56.4868 35.1655 56.1629 35.04 55.9776 34.9379C56.001 34.5261 56.028 34.1013 56.055 33.6578L56.0656 33.4853C56.3225 29.4197 56.6405 24.358 55.3123 21.3789C51.3628 12.5249 42.9782 11.8362 40.5025 11.8362Z" fill="#030303"/>
</g>
<circle cx="40" cy="40" r="39.5" stroke="#ECECEC"/>
</svg>
