<svg width="100%" height="100%" viewBox="0 0 80 80" fill="none" xmlns="http://www.w3.org/2000/svg">
<circle cx="40" cy="40" r="39.5" fill="white" stroke="#ECECEC"/>
<path d="M10.0307 36.6237C10.2545 36.4001 10.3666 36.1388 10.3666 35.8029V31.5113C10.3666 30.9143 9.88135 30.4292 9.28428 30.4292C8.68714 30.4292 8.20204 30.9143 8.20204 31.5113V33.9745L6.11229 32.7428C5.58987 32.4071 4.91807 32.5563 4.61968 33.0787C4.28382 33.6013 4.43298 34.2729 4.9554 34.5715C4.99273 34.5715 4.99272 34.6087 5.0302 34.6087L8.76194 36.7731C9.13505 37.0343 9.6948 36.9598 10.0307 36.6237ZM8.426 39.2361C8.426 38.8255 8.2393 38.4524 7.86611 38.2656L4.13452 36.1012C3.61195 35.7655 2.9403 35.9147 2.64176 36.4371C2.30583 36.9597 2.45521 37.6313 2.97763 37.9299C3.01495 37.9299 3.01495 37.9672 3.0522 37.9672L5.17928 39.1987L3.0522 40.4303C2.52978 40.7287 2.30583 41.3632 2.60444 41.923C2.90305 42.4828 3.53737 42.6692 4.09704 42.3707C4.13452 42.3707 4.13452 42.3707 4.17162 42.3707L7.90358 40.2064C8.23929 40.0198 8.426 39.6466 8.426 39.2361ZM10.3666 42.632V46.9609C10.3666 47.558 9.88135 48.043 9.28428 48.043C8.68714 48.043 8.20204 47.5579 8.20204 46.9609V44.5352L6.07496 45.7667C5.55254 46.1025 4.88075 45.9533 4.58236 45.4309C4.24642 44.9084 4.39565 44.2367 4.91807 43.9381C4.95532 43.9381 4.95532 43.9008 4.99265 43.9008L8.72461 41.7364C9.24703 41.4378 9.95608 41.6244 10.2545 42.1842C10.3291 42.296 10.4037 42.4828 10.3666 42.632ZM12.307 42.744V46.9608C12.307 47.5579 12.7921 48.0429 13.3892 48.0429C13.9862 48.0429 14.4713 47.5578 14.4713 46.9608V44.5351L16.5611 45.7293C17.0835 46.0651 17.7553 45.9159 18.0538 45.3935C18.3897 44.8708 18.2404 44.1993 17.7179 43.9007C17.6806 43.9007 17.6806 43.8634 17.6434 43.8634L13.9116 41.699C13.3891 41.4004 12.7173 41.587 12.4188 42.1095C12.3443 42.296 12.2696 42.5574 12.307 42.744ZM14.2476 39.2361C14.2476 38.8255 14.434 38.4524 14.8072 38.2656L18.539 36.1012C19.0615 35.7655 19.7333 35.9147 20.0318 36.4371C20.3675 36.9597 20.2184 37.6313 19.6959 37.9299C19.6586 37.9299 19.6586 37.9672 19.6213 37.9672L17.4941 39.1987L19.6213 40.4302C20.1437 40.7286 20.3675 41.3631 20.0691 41.923C19.7705 42.4454 19.136 42.6691 18.5763 42.3706C18.539 42.3706 18.539 42.3333 18.5017 42.3333L14.77 40.1688C14.434 40.0198 14.2102 39.6466 14.2476 39.2361ZM12.307 35.7283V31.5113C12.307 30.9143 12.7921 30.4292 13.3892 30.4292C13.9862 30.4292 14.4713 30.9143 14.4713 31.5113V33.937L16.5611 32.7428C17.0835 32.407 17.7553 32.5562 18.0538 33.0786C18.3897 33.6012 18.2404 34.2728 17.7179 34.5714C17.6806 34.5714 17.6806 34.6086 17.6434 34.6086L13.9116 36.773C13.3891 37.0716 12.7173 36.885 12.4188 36.3626C12.3443 36.1761 12.2696 35.9521 12.307 35.7283ZM11.7845 37.2955C11.71 37.221 11.6352 37.1836 11.5233 37.1836H11.1501C11.0382 37.1836 10.9635 37.221 10.8889 37.2955L9.39619 38.7883C9.32161 38.8629 9.28428 38.9375 9.28428 39.0494V39.4227C9.28428 39.5347 9.32161 39.6092 9.39619 39.6838L10.8889 41.1766C10.9635 41.2512 11.0382 41.2885 11.1501 41.2885H11.5233C11.6352 41.2885 11.71 41.2512 11.7845 41.1766L13.2772 39.6838C13.3145 39.6092 13.3519 39.4973 13.3519 39.4227V39.0494C13.3519 38.9374 13.3145 38.8628 13.2398 38.7883L11.7845 37.2955ZM11.5606 38.6018C11.5233 38.5643 11.4487 38.527 11.374 38.527C11.2992 38.527 11.2247 38.5643 11.1875 38.6018L10.7396 39.0494C10.7022 39.0868 10.6649 39.1616 10.6649 39.2361C10.6649 39.3108 10.7022 39.3855 10.7396 39.4228L11.1875 39.8705C11.2246 39.9078 11.2992 39.9453 11.374 39.9453C11.4486 39.9453 11.5233 39.9078 11.5606 39.8705L12.0084 39.4228C12.0456 39.3855 12.0831 39.3108 12.0831 39.2361C12.0831 39.1616 12.0456 39.0868 12.0084 39.0494L11.5606 38.6018Z" fill="#31BEF0"/>
<path d="M23.5614 42.11C23.9746 42.2977 24.463 42.4105 24.9137 42.4105C25.4772 42.4481 26.078 42.2604 26.5288 41.9222C26.9795 41.6216 27.2426 41.0959 27.2426 40.57C27.2426 39.3304 26.1533 39.0676 25.0264 38.6919C24.2752 38.4289 23.4488 38.2411 23.4488 37.6027C23.4488 36.8138 24.4254 36.4758 24.9512 36.4758C26.2284 36.4758 26.5288 37.4899 26.8669 37.1895C27.2049 36.889 25.9654 35.9123 25.0264 35.9123C24.463 35.8748 23.8995 36.025 23.4488 36.3256C22.9981 36.5885 22.6976 37.0768 22.7351 37.6401C22.6976 38.9549 24.3127 39.1803 25.0264 39.4431C25.74 39.7061 26.5288 39.9692 26.5664 40.6077C26.5664 41.5092 25.4395 41.8096 24.9512 41.8096C23.5239 41.8096 23.1107 40.9831 22.8477 41.2462C22.5849 41.5091 22.8853 41.7719 23.5614 42.11ZM33.1772 42.11C33.2147 42.2977 33.365 42.4105 33.5153 42.4105C33.6654 42.4105 33.7782 42.2604 33.8157 42.11V38.5791C33.8157 37.1142 32.6512 35.9499 31.1864 35.9499C30.3976 35.9499 29.6464 36.2879 29.1581 36.889V36.2503C29.1581 36.0626 29.008 35.9499 28.8576 35.9499C28.7074 35.9499 28.557 36.1001 28.557 36.2503V42.1851C28.557 42.1851 28.557 42.1851 28.557 42.2227V42.2604C28.5948 42.3355 28.6699 42.4105 28.7824 42.4481H28.8952C29.0079 42.4481 29.083 42.4105 29.1204 42.3355C29.158 42.2978 29.1956 42.2604 29.1956 42.1851V38.5791C29.1956 37.4899 30.0971 36.5884 31.2238 36.5884C32.3133 36.5884 33.2146 37.4899 33.2146 38.5791L33.1772 42.11ZM34.9801 39.1803C35.0553 40.8704 36.5201 42.1851 38.2104 42.0726C39.9008 41.9973 41.2154 40.5324 41.1026 38.8423C41.0275 37.1896 39.6754 35.9123 38.0226 35.9123C36.3324 35.9873 34.9426 37.4148 34.9801 39.1803ZM54.3619 33.809H54.3243C54.0236 33.7714 53.7232 33.8465 53.4978 34.0718C53.2726 34.4099 53.1974 34.7854 53.235 35.1611V35.8372H54.1365C54.3243 35.8372 54.437 35.9499 54.4744 36.1377C54.4744 36.3256 54.3243 36.4758 54.1365 36.4758H53.235V42.11C53.235 42.2977 53.1224 42.4105 52.9344 42.448C52.7467 42.448 52.5965 42.3354 52.5965 42.1475C52.5965 42.1475 52.5965 42.1475 52.5965 42.1099V36.4757H51.7323C51.5446 36.4757 51.3944 36.3256 51.3944 36.1376C51.3944 35.9499 51.5445 35.8371 51.6949 35.8371H52.5588V35.161C52.5211 34.6351 52.6715 34.0718 52.9719 33.6586C53.31 33.3204 53.7983 33.1326 54.2489 33.1702H54.4368C54.6246 33.1702 54.7749 33.3204 54.7749 33.5082C54.7749 33.6961 54.6246 33.8463 54.4368 33.8463L54.3619 33.809ZM35.6188 38.9173C35.6939 37.565 36.8582 36.4758 38.2104 36.5509C39.5627 36.6261 40.5767 37.8655 40.5016 39.2178C40.4265 40.4949 39.2622 41.509 37.9851 41.509C36.5953 41.4339 35.5811 40.307 35.6188 38.9173ZM44.3328 42.4105C44.4454 42.4105 44.5583 42.3354 44.5958 42.2227C44.5958 42.2227 44.5958 42.2227 44.5958 42.1851L46.0982 38.6168L47.6007 42.2227C47.6382 42.3354 47.7509 42.4105 47.8638 42.4481H47.9013C47.9764 42.4481 48.0515 42.4105 48.0892 42.373C48.1266 42.3354 48.1643 42.2977 48.2017 42.2227L50.3804 36.4007C50.4555 36.2504 50.3804 36.0627 50.1925 35.9874C50.0423 35.9123 49.8545 35.9874 49.7794 36.1753L47.9013 41.3212L46.3989 37.7529C46.3236 37.6401 46.2111 37.565 46.0983 37.565C45.9857 37.565 45.8354 37.6401 45.7978 37.7529L44.2954 41.3212L42.4173 36.1753C42.3423 36.025 42.1543 35.9499 42.004 35.9874C41.8539 36.0627 41.7788 36.2504 41.8539 36.4007L44.0324 42.2227C44.0701 42.2978 44.1075 42.3354 44.1451 42.373L44.1827 42.4105C44.2577 42.373 44.2954 42.373 44.3328 42.4105ZM56.0896 42.0725C56.0896 42.2603 56.2398 42.4104 56.4277 42.4104C56.6154 42.4104 56.7657 42.2603 56.7657 42.0725V33.4333C56.7657 33.2454 56.6154 33.0953 56.4277 33.0953C56.2398 33.0953 56.0896 33.2454 56.0896 33.4333V42.0725ZM63.8274 35.9123C63.6397 35.9123 63.5268 36.0626 63.4894 36.2128V37.1519C62.926 36.3632 62.0244 35.8749 61.0478 35.8749C59.2448 35.95 57.8552 37.4901 57.9678 39.2929C58.0429 40.9831 59.3951 42.2978 61.0478 42.3731C62.0244 42.3731 62.9259 41.8847 63.4894 41.0959V42.0726C63.5268 42.2605 63.6772 42.3732 63.8274 42.3732C63.9776 42.3732 64.0903 42.2228 64.1279 42.0726V36.2129C64.1279 36.0626 63.9776 35.9123 63.8274 35.9123ZM61.2733 41.8096C59.8083 41.9222 58.6439 40.7954 58.5313 39.3304C58.4186 37.8654 59.4328 36.6637 60.8599 36.5509C62.3248 36.4382 63.4143 37.5276 63.4894 38.9924C63.4894 39.0676 63.4894 39.1427 63.4894 39.1803C63.5268 40.57 62.4376 41.7343 61.0478 41.772H61.2733V41.8096ZM65.5928 42.0725C65.5928 42.2603 65.7429 42.4104 65.9308 42.4104C66.1186 42.4104 66.2689 42.2603 66.2689 42.0725V40.57L67.5835 39.2553L70.0626 42.2603C70.1002 42.3354 70.2128 42.3729 70.3255 42.3729C70.5133 42.3729 70.626 42.2603 70.6636 42.0724C70.6636 41.9972 70.6259 41.8845 70.5883 41.847L68.0717 38.8045L70.5883 36.4006C70.701 36.2502 70.701 36.0625 70.5508 35.9498C70.4382 35.8371 70.2504 35.8371 70.1376 35.9498L66.2689 39.706V33.4332C66.2689 33.2453 66.1186 33.0952 65.9308 33.0952C65.7429 33.0952 65.5928 33.2453 65.5928 33.4332V42.0725ZM77.2368 40.7953C77.3119 40.6451 77.2744 40.4573 77.1242 40.3446C76.9739 40.2695 76.7861 40.307 76.711 40.4572C76.2979 41.2085 75.5091 41.7343 74.6076 41.7719H74.3069C72.9548 41.7343 71.8279 40.645 71.8279 39.2927H77.1618C77.3119 39.2927 77.4623 39.1801 77.4623 39.0299V38.9548C77.2745 37.2268 75.7345 35.9498 74.0065 36.1375C72.2788 36.3255 71.0016 37.8654 71.1895 39.5932C71.3398 41.2084 72.6921 42.4103 74.307 42.448H74.6077C75.7344 42.3354 76.711 41.7343 77.2368 40.7953ZM74.3446 36.7011C75.5465 36.7011 76.5984 37.4523 76.7861 38.6542H71.8655C72.091 37.4523 73.1051 36.7011 74.3446 36.7011Z" fill="#31BEF0"/>
</svg>
