<svg width="100%" height="100%" viewBox="0 0 80 80" fill="none" xmlns="http://www.w3.org/2000/svg">
<circle cx="40" cy="40" r="39.5" fill="white" stroke="#ECECEC"/>
<path d="M2.09546 42.7605L3.27938 41.3205C4.10048 42.0117 4.95978 42.4341 6.01003 42.4341C6.83114 42.4341 7.32762 42.1077 7.32762 41.5701V41.5509C7.32762 41.0325 7.02209 40.7829 5.47536 40.3796C3.66129 39.8996 2.45827 39.3812 2.45827 37.5572V37.538C2.45827 35.8675 3.79496 34.7539 5.66631 34.7539C7.003 34.7539 8.12963 35.1763 9.06531 35.9251L8.01506 37.442C7.21305 36.8852 6.41104 36.5396 5.62812 36.5396C4.8643 36.5396 4.4442 36.9044 4.4442 37.346V37.3652C4.4442 37.9796 4.84521 38.1716 6.41104 38.5748C8.2633 39.0548 9.31355 39.7268 9.31355 41.3397V41.3589C9.31355 43.1829 7.91958 44.2197 5.95275 44.2197C4.59697 44.2197 3.203 43.7397 2.09546 42.7605ZM10.5738 34.8883H14.3166C16.4934 34.8883 17.8301 36.1939 17.8301 38.0756V38.0948C17.8301 40.226 16.1879 41.3397 14.1256 41.3397H12.598V44.1045H10.5738V34.8883ZM14.1829 39.5348C15.195 39.5348 15.7869 38.9204 15.7869 38.1332V38.114C15.7869 37.2116 15.1568 36.7124 14.1447 36.7124H12.5789V39.5348H14.1829ZM20.6754 34.8307H22.5276L26.4613 44.1045H24.3608L23.5206 42.0309H19.6442L18.804 44.1045H16.7608L20.6754 34.8307ZM22.795 40.2452L21.5728 37.25L20.3507 40.2452H22.795ZM27.4161 34.8883H31.598C32.7628 34.8883 33.6603 35.2147 34.2713 35.8291C34.7869 36.3475 35.0542 37.058 35.0542 37.9412V37.9604C35.0542 39.4388 34.2522 40.3796 33.0874 40.8213L35.3216 44.1045H32.9728L31.006 41.1669H29.4211V44.1045H27.397V34.8883H27.4161ZM31.4643 39.362C32.4382 39.362 33.011 38.8436 33.011 38.0564V38.0372C33.011 37.1732 32.4 36.7124 31.4261 36.7124H29.4211V39.362H31.4643ZM45.7668 34.8883H49.0894C51.1135 34.8883 52.4884 35.9251 52.4884 37.7108V37.73C52.4884 39.6692 50.8271 40.6677 48.9176 40.6677H46.4543V44.1045H45.7668V34.8883ZM48.9558 40.034C50.6553 40.034 51.801 39.1316 51.801 37.7684V37.7492C51.801 36.2899 50.6743 35.5219 49.0321 35.5219H46.4352V40.034H48.9558ZM63.3919 42.7605L63.8311 42.2421C64.8432 43.1829 65.7598 43.6053 67.1156 43.6053C68.4904 43.6053 69.4261 42.8373 69.4261 41.7813V41.7621C69.4261 40.7829 68.9105 40.226 66.8291 39.8036C64.6331 39.362 63.7357 38.6132 63.7357 37.2116V37.1924C63.7357 35.8291 64.9769 34.7731 66.6764 34.7731C68.013 34.7731 68.8914 35.1379 69.808 35.8867L69.3688 36.4243C68.5095 35.6755 67.6502 35.3875 66.6382 35.3875C65.2824 35.3875 64.404 36.1555 64.404 37.1156V37.1348C64.404 38.114 64.9005 38.7092 67.0774 39.1508C69.197 39.5924 70.0944 40.3412 70.0944 41.6853V41.7045C70.0944 43.1829 68.8341 44.2197 67.0583 44.2197C65.607 44.2197 64.4804 43.7397 63.3919 42.7605ZM74.0281 35.5219H70.8392V34.8883H77.9045V35.5219H74.7156V44.1045H74.0281V35.5219ZM38.4532 38.7668L41.6231 34.8883H44.0864L40.3628 39.266L44.3537 44.1045H41.7568L38.4532 39.9764V44.0853H36.4482V34.8691H38.4532V38.7668Z" fill="#55555A"/>
<path d="M61.2915 32.7954C60.2794 33.5634 60.0694 34.9267 60.0503 35.8483C58.4463 33.9667 63.0292 28.4561 57.8161 25.0576C61.0433 29.2625 53.2141 33.4098 53.2141 39.6116C53.2141 42.0501 54.7227 44.1813 58.0453 44.9301C61.2915 44.2389 62.9146 42.0501 62.9146 39.6116C62.8955 35.9827 60.6423 34.7731 61.2915 32.7954ZM58.0453 42.9333C56.2694 42.9333 54.8372 41.4932 54.8372 39.7076C54.8372 37.922 56.2694 36.4819 58.0453 36.4819C59.8211 36.4819 61.2533 37.922 61.2533 39.7076C61.2533 41.4932 59.802 42.9333 58.0453 42.9333Z" fill="#FA6423"/>
</svg>
