<svg width="100%" height="100%" viewBox="0 0 80 80" fill="none" xmlns="http://www.w3.org/2000/svg">
<circle cx="40" cy="40" r="39.5" fill="white" stroke="#ECECEC"/>
<path d="M59.8123 10.1831H20.057C14.5505 10.1831 10.0869 14.6467 10.0869 20.1532V59.9085C10.0869 65.415 14.5505 69.8786 20.057 69.8786H59.8123C65.3188 69.8786 69.7824 65.415 69.7824 59.9085V20.1532C69.7824 14.6467 65.3188 10.1831 59.8123 10.1831ZM58.9363 55.8829C58.9363 57.6141 57.5179 59.0325 55.7867 59.0325H24.0826C22.3514 59.0325 20.9331 57.6141 20.9331 55.8829V24.1788C20.9331 22.4476 22.3514 21.0292 24.0826 21.0292H55.7867C57.5179 21.0292 58.9363 22.4476 58.9363 24.1788V55.8829Z" fill="black"/>
<path d="M33.5939 48.1446C32.5928 48.1446 31.7793 47.3311 31.7793 46.3299V33.6691C31.7793 32.668 32.5928 31.8545 33.5939 31.8545H46.2756C47.2768 31.8545 48.0902 32.668 48.0902 33.6691V46.3299C48.0902 47.3311 47.2768 48.1446 46.2756 48.1446H33.5939Z" fill="black"/>
</svg>
