<svg width="100%" height="100%" viewBox="0 0 80 80" fill="none" xmlns="http://www.w3.org/2000/svg">
<circle cx="40" cy="40" r="39.5" fill="white" stroke="#ECECEC"/>
<path d="M62.4 12H17.6C14.5072 12 12 14.5072 12 17.6V62.4C12 65.4928 14.5072 68 17.6 68H62.4C65.4928 68 68 65.4928 68 62.4V17.6C68 14.5072 65.4928 12 62.4 12Z" fill="#6772E5"/>
<path fill-rule="evenodd" clip-rule="evenodd" d="M37.4986 32.9433C37.4986 31.4873 38.6932 30.9273 40.6719 30.9273C43.5092 30.9273 47.0932 31.7859 49.9306 33.3166V24.5433C46.8319 23.3113 43.7706 22.8259 40.6719 22.8259C33.0932 22.8259 28.0532 26.7833 28.0532 33.3913C28.0532 43.6953 42.2399 42.0526 42.2399 46.4953C42.2399 48.2126 40.7466 48.7726 38.6559 48.7726C35.5572 48.7726 31.5999 47.5033 28.4639 45.7859V54.6713C31.9359 56.1646 35.4452 56.7993 38.6559 56.7993C46.4212 56.7993 51.7599 52.9539 51.7599 46.2713C51.7226 35.1459 37.4986 37.1246 37.4986 32.9433Z" fill="white"/>
</svg>
