<svg width="100%" height="100%" viewBox="0 0 80 80" fill="none" xmlns="http://www.w3.org/2000/svg">
<circle cx="40" cy="40" r="39.5" fill="white" stroke="#ECECEC"/>
<g clip-path="url(#clip0_8874_32943)">
<path d="M9.99031 33.125L3.12061 35.8618V37.6863L9.99031 40.4646L16.8198 37.6863V35.8618L9.99031 33.125ZM3.12061 42.7038V44.4868L9.99031 47.2651L16.8198 44.4868V42.7038L9.99031 45.4406L3.12061 42.7038Z" fill="#101820"/>
<path d="M3.12061 39.2606V41.0851L9.99031 43.8634L16.8198 41.0851V39.2606L9.99031 42.0389L3.12061 39.2606ZM24.252 41.9974C24.252 41.7071 24.1315 41.4583 23.8904 41.3339C23.6494 41.1681 23.2476 41.0437 22.6852 40.9193C22.1228 40.7949 21.6809 40.629 21.3193 40.4631C20.5158 40.0485 20.1141 39.4679 20.1141 38.7215C20.1141 38.0581 20.3953 37.519 20.9176 37.1043C21.4398 36.6897 22.1228 36.4409 22.9263 36.4409C23.8101 36.4409 24.493 36.6482 25.0153 37.1043C25.5375 37.5605 25.8188 38.0995 25.8188 38.8045H24.2118C24.2118 38.4727 24.0913 38.2239 23.8502 38.0166C23.6092 37.8093 23.328 37.6849 22.9263 37.6849C22.5647 37.6849 22.2835 37.7678 22.0424 37.9337C21.8014 38.0995 21.721 38.3483 21.721 38.5971C21.721 38.8459 21.8416 39.0533 22.0424 39.1777C22.2433 39.3021 22.6852 39.4679 23.328 39.5923C23.9708 39.7167 24.4529 39.9241 24.8144 40.0899C25.176 40.2973 25.4572 40.5461 25.6179 40.7949C25.7786 41.0851 25.8991 41.4169 25.8991 41.8315C25.8991 42.495 25.6179 43.0341 25.0956 43.4487C24.5734 43.8634 23.8502 44.0707 22.9664 44.0707C22.3638 44.0707 21.8416 43.9463 21.3996 43.739C20.9176 43.5317 20.556 43.1999 20.315 42.8267C20.0739 42.4535 19.9132 42.0389 19.9132 41.5827H21.48C21.5202 41.9974 21.6407 42.2877 21.9219 42.495C22.2031 42.7023 22.5245 42.8267 22.9664 42.8267C23.4083 42.8267 23.7297 42.7438 23.9306 42.5779C24.1315 42.495 24.252 42.2462 24.252 41.9974ZM31.6439 43.2829C31.1619 43.8634 30.4789 44.1537 29.5951 44.1537C28.7916 44.1537 28.2292 43.9049 27.8274 43.4487C27.4257 42.9926 27.2248 42.2877 27.2248 41.3754V36.5653H28.8318V41.3754C28.8318 42.3291 29.1933 42.7853 29.9566 42.7853C30.7601 42.7853 31.2824 42.495 31.5636 41.9145V36.5653H33.1705V44.0293H31.6439V43.2829ZM34.6168 40.2143C34.6168 39.0533 34.898 38.141 35.4203 37.4361C35.9425 36.7311 36.6657 36.3994 37.5093 36.3994C38.353 36.3994 38.9957 36.6897 39.4376 37.2702L39.518 36.5238H40.9642V43.7805C40.9642 44.7757 40.683 45.5221 40.0804 46.1026C39.4778 46.6831 38.6743 46.9319 37.67 46.9319C37.1477 46.9319 36.6255 46.8075 36.1032 46.6002C35.581 46.3928 35.2194 46.0611 34.9382 45.6879L35.7015 44.6927C36.1836 45.3147 36.8264 45.605 37.5495 45.605C38.0717 45.605 38.5137 45.4391 38.835 45.1489C39.1564 44.8586 39.3171 44.4025 39.3171 43.8219V43.3658C38.835 43.9049 38.2324 44.1537 37.429 44.1537C36.5853 44.1537 35.9024 43.8219 35.3399 43.117C34.8578 42.4121 34.6168 41.4583 34.6168 40.2143ZM36.2238 40.3802C36.2238 41.1266 36.3844 41.7071 36.6657 42.1633C36.9469 42.5779 37.3888 42.8267 37.911 42.8267C38.5538 42.8267 39.0359 42.5365 39.3573 41.9559V38.6801C39.0359 38.0995 38.5538 37.8507 37.911 37.8507C37.3888 37.8507 36.9469 38.0581 36.6657 38.5142C36.3844 38.8874 36.2238 39.5094 36.2238 40.3802ZM46.9903 44.0293C46.91 43.9049 46.8698 43.6561 46.7894 43.3243C46.2672 43.8634 45.6244 44.1537 44.9013 44.1537C44.1782 44.1537 43.5755 43.9463 43.1336 43.5317C42.6917 43.117 42.4507 42.5779 42.4507 41.9559C42.4507 41.1681 42.7319 40.5461 43.2943 40.1314C43.8568 39.7167 44.7004 39.5094 45.7449 39.5094H46.7493V39.0118C46.7493 38.6386 46.6287 38.3069 46.4279 38.0995C46.227 37.8922 45.9056 37.7678 45.4637 37.7678C45.1021 37.7678 44.7808 37.8507 44.5397 38.0581C44.2987 38.2654 44.1781 38.4727 44.1781 38.8045H42.5712C42.5712 38.3898 42.6917 38.0166 42.9729 37.6434C43.2542 37.2702 43.5755 37.0214 44.0576 36.8141C44.4995 36.6067 45.0218 36.5238 45.5842 36.5238C46.4279 36.5238 47.1108 36.7311 47.5929 37.1873C48.075 37.6434 48.3562 38.2654 48.3562 39.0533V42.4121C48.3562 43.0755 48.4366 43.6146 48.6374 44.0293V44.1537H46.9903V44.0293ZM45.1825 42.8267C45.5039 42.8267 45.8253 42.7438 46.1065 42.5779C46.3877 42.4121 46.5886 42.2047 46.7493 41.9145V40.5046H45.8654C45.2628 40.5046 44.8209 40.629 44.4995 40.8363C44.1782 41.0437 44.0576 41.3754 44.0576 41.7486C44.0576 42.0803 44.1781 42.3291 44.379 42.5365C44.5799 42.7023 44.8611 42.8267 45.1825 42.8267ZM53.86 38.0581C53.6591 38.0166 53.4181 38.0166 53.2172 38.0166C52.4539 38.0166 51.9719 38.3069 51.7308 38.8874V43.9878H50.1239V36.5238H51.6906L51.7308 37.3531C52.1325 36.6897 52.6548 36.3994 53.3779 36.3994C53.619 36.3994 53.8198 36.4409 53.9404 36.4823L53.86 38.0581ZM57.7569 43.4487C58.3193 43.4487 58.8014 43.2829 59.1629 42.9511C59.5245 42.6194 59.7254 42.2047 59.7656 41.7071H60.5289C60.4887 42.1633 60.3682 42.5779 60.1271 42.9511C59.8861 43.3243 59.5245 43.6146 59.1228 43.8219C58.721 44.0293 58.239 44.1537 57.7569 44.1537C56.7927 44.1537 56.0696 43.8219 55.5071 43.117C54.9447 42.4535 54.6635 41.4998 54.6635 40.3802V40.1314C54.6635 39.385 54.784 38.763 55.0251 38.1825C55.2661 37.6019 55.6277 37.1873 56.1097 36.8555C56.5918 36.5653 57.1141 36.3994 57.7569 36.3994C58.5603 36.3994 59.2031 36.6482 59.7254 37.1458C60.2476 37.6434 60.5289 38.2654 60.569 39.0533H59.8057C59.7655 38.4727 59.5647 38.0166 59.2031 37.6434C58.8416 37.2702 58.3595 37.1043 57.797 37.1043C57.0739 37.1043 56.5115 37.3531 56.1097 37.8922C55.708 38.4313 55.5071 39.1777 55.5071 40.1729V40.4217C55.5071 41.3754 55.708 42.1218 56.1097 42.6609C56.4713 43.1999 57.0337 43.4487 57.7569 43.4487ZM65.5104 37.2702C65.3497 37.2287 65.1488 37.2287 64.9881 37.2287C64.5061 37.2287 64.0641 37.3531 63.7026 37.6434C63.341 37.9337 63.1 38.3483 62.9795 38.8874V44.0293H62.176V36.5653H62.9393V37.7678C63.3812 36.897 64.024 36.4409 64.9881 36.4409C65.2292 36.4409 65.3899 36.4823 65.5104 36.5238V37.2702ZM67.4789 36.5653L67.5191 37.7678C67.8003 37.3117 68.1217 36.9799 68.5234 36.7726C68.9252 36.5653 69.3671 36.4409 69.8492 36.4409C70.974 36.4409 71.6972 36.9385 72.0185 37.8922C72.2596 37.4361 72.6211 37.0629 73.063 36.8141C73.505 36.5653 73.987 36.4409 74.5093 36.4409C76.0761 36.4409 76.8394 37.3117 76.8796 39.0533V44.0293H76.0761V39.0947C76.0761 38.4313 75.9154 37.9337 75.6743 37.6019C75.3931 37.2702 74.9512 37.1043 74.3486 37.1043C73.7862 37.1043 73.3041 37.3117 72.9024 37.6849C72.5006 38.0581 72.2998 38.5142 72.2596 39.0533V43.9878H71.4561V39.0118C71.4561 38.3898 71.2954 37.8922 71.0142 37.5605C70.733 37.2287 70.2911 37.1043 69.6885 37.1043C69.1662 37.1043 68.7645 37.2702 68.4029 37.5605C68.0413 37.8507 67.7601 38.3069 67.5994 38.8874V44.0293H66.796V36.5653H67.4789Z" fill="#101820"/>
</g>
<defs>
<clipPath id="clip0_8874_32943">
<rect width="74" height="14.3889" fill="white" transform="translate(3 33)"/>
</clipPath>
</defs>
</svg>
