<svg width="100%" height="100%" viewBox="0 0 80 80" fill="none" xmlns="http://www.w3.org/2000/svg">
<circle cx="40" cy="40" r="39.5" fill="white" stroke="#ECECEC"/>
<mask id="mask0_8874_32944" style="mask-type:alpha" maskUnits="userSpaceOnUse" x="0" y="0" width="80" height="80">
<circle cx="40" cy="40" r="39.5" fill="white" stroke="white"/>
</mask>
<g mask="url(#mask0_8874_32944)">
<path d="M-63.1704 -43.7034H143.254V111.116H-63.1695L-63.1704 -43.7034Z" fill="#BDCF31"/>
<path d="M64.7714 36.0492C64.1386 36.0492 63.513 36.1364 62.9233 36.2793C60.5952 27.0622 52.8901 19.997 43.3458 18.5849C43.202 16.9759 43.8177 14.4528 47.842 12.0213L47.7215 11.7849C47.7215 11.7849 40.9817 13.917 39.4581 18.1256C39.5247 16.8114 39.0465 14.8375 36.1197 13.4335C36.1197 13.4335 35.8887 13.5126 36.0056 13.6186C36.5862 14.1552 38.4352 15.944 37.6505 18.4348C27.5022 19.3579 19.1966 26.6505 16.7624 36.2811C16.1578 36.1307 15.5373 36.0534 14.9143 36.051C10.6554 36.051 7.18848 39.5099 7.18848 43.7813C7.18848 48.0447 10.6563 51.509 14.9143 51.509C15.9121 51.509 16.8631 51.3112 17.7368 50.9678C18.3955 52.6141 19.2376 54.1808 20.2474 55.6384L26.6887 51.295L26.606 51.2429C24.9098 49.0631 23.8734 45.8532 23.699 42.6586C23.5067 39.135 24.366 35.6357 26.6159 33.5782C31.2541 29.6294 36.304 31.4299 39.4698 35.2141H40.3148C43.4806 31.5045 48.4739 29.7804 53.0752 33.686C55.2954 35.7301 56.1638 39.1692 55.9948 42.646C55.842 45.8712 54.7993 49.1323 53.0959 51.3274L59.4456 55.6375C60.4507 54.1778 61.2906 52.6111 61.9498 50.966C62.8235 51.3076 63.7728 51.5072 64.7696 51.5072C69.0393 51.5072 72.4972 48.042 72.4972 43.7768C72.4977 42.7619 72.2982 41.7569 71.9101 40.8191C71.522 39.8813 70.9529 39.0292 70.2353 38.3115C69.5177 37.5938 68.6658 37.0245 67.7281 36.6361C66.7904 36.2478 65.7854 36.048 64.7705 36.0483L64.7714 36.0492ZM15.1777 45.3247C14.3274 45.3247 13.6316 44.6352 13.6316 43.775C13.6308 43.4926 13.7072 43.2154 13.8525 42.9733C13.9979 42.7311 14.2066 42.5333 14.4561 42.4012C14.7057 42.269 14.9866 42.2076 15.2686 42.2235C15.5505 42.2394 15.8228 42.332 16.0559 42.4914C16.0649 43.3121 16.1278 44.1202 16.2222 44.9184C15.9372 45.1798 15.5644 45.3248 15.1777 45.3247ZM64.5035 45.3283C64.1221 45.3277 63.7542 45.1869 63.4698 44.9328C63.5624 44.1292 63.6253 43.3175 63.6352 42.4932C63.8842 42.326 64.1835 42.2254 64.5053 42.2254C65.3593 42.2254 66.0568 42.922 66.0568 43.7804C66.0568 44.6415 65.3557 45.3292 64.5044 45.3292" fill="white"/>
</g>
<circle cx="40" cy="40" r="39.5" stroke="#ECECEC"/>
</svg>
