<svg width="100%" height="100%" viewBox="0 0 80 80" fill="none" xmlns="http://www.w3.org/2000/svg">
<circle cx="40" cy="40" r="39.5" fill="white" stroke="#ECECEC"/>
<path d="M38.0735 50.3502H41.9262V40.1117H51.6164V36.4714H41.9262V26.2329H38.0735V36.4714H28.5V40.1117H38.0735V50.3502Z" fill="#E8762D"/>
<path d="M20.2108 65.139H23.4797V56.0381H32.1192V53.1941H23.4797V43.9795H20.2108V53.1941H11.5713V56.0381H20.2108V65.139Z" fill="#C72037"/>
<path d="M56.5203 32.2616H59.7893V23.1607H68.5455V20.4304H59.7893V11.2158H56.5203V20.4304H47.8809V23.1607H56.5203V32.2616Z" fill="#5B879B"/>
<path d="M38.6573 72.3059H41.4593V65.8216H47.4135V63.4326H41.4593V56.9482H38.6573V63.4326H32.8198V65.8216H38.6573V72.3059Z" fill="#5C6692"/>
<path d="M20.3275 32.2616H23.363V23.0469H32.1192V20.4304H23.363V11.2158H20.3275V20.4304H11.5713V23.0469H20.3275V32.2616Z" fill="#EB9129"/>
<path d="M66.4439 45.9129H69.2459V39.5423H75.2002V37.0396H69.2459V30.6689H66.4439V37.0396H60.6064V39.5423H66.4439V45.9129Z" fill="#5C6692"/>
<path fill-rule="evenodd" clip-rule="evenodd" d="M56.5203 65.139H59.7893V56.0381H68.5455V53.1941H59.7893V43.9795H56.5203V53.1941H47.8809V56.0381H56.5203V65.139Z" fill="#1F457E"/>
<path d="M46.9464 12.8087V10.8748H41.1089V4.61792H39.0074V10.8748H33.17V12.8087H39.0074V19.0655H41.1089V12.8087H46.9464ZM10.6373 45.4581H12.7388V39.2012H18.5763V37.2673H12.7388V31.1242H10.6373V37.2673H4.7998V39.315L10.6373 39.2012V45.4581Z" fill="#7199A6"/>
</svg>
