<svg width="100%" height="100%" viewBox="0 0 80 80" fill="none" xmlns="http://www.w3.org/2000/svg">
<circle cx="40" cy="40" r="39.5" fill="white" stroke="#ECECEC"/>
<g clip-path="url(#clip0_8874_32946)">
<path d="M25.4057 34.1152L18.6263 30.2168C18.1842 31.0088 17.7728 31.77 17.3404 32.5173C15.776 35.2242 14.2079 37.9293 12.6361 40.6325C11.2564 43.0069 9.86273 45.3675 8.48866 47.742C7.21113 49.9502 5.96998 52.1795 4.66587 54.3724C4.40001 54.8193 4.45598 54.9939 4.87436 55.2314C6.83333 56.3423 8.78763 57.468 10.7373 58.6087C11.0171 58.7708 11.1808 58.7777 11.3404 58.4956C12.1379 57.0835 12.9327 55.6686 13.7401 54.2606C14.325 53.2396 14.9281 52.2297 15.5353 51.1961C15.6543 51.252 15.7228 51.2785 15.7872 51.3149C17.6156 52.3615 19.4449 53.4081 21.2751 54.4548C24.0037 56.0275 26.7299 57.6031 29.4538 59.1814C31.9809 60.6396 34.5103 62.0936 37.042 63.5435C39.2668 64.8117 41.5658 65.8453 44.1587 66.1694C46.1008 66.4124 47.9367 66.1582 49.6508 65.2964C51.6075 64.3015 53.2629 62.8034 54.446 60.9567C55.1961 59.8099 55.8677 58.6101 56.5603 57.4271C57.3999 55.994 58.2241 54.5539 59.079 53.0776L52.4045 49.2546C52.1834 49.622 52.0197 49.8832 51.8686 50.1514C50.8164 52.0118 49.8928 53.9603 48.6881 55.7174C46.7151 58.5976 44.8219 58.5417 42.2347 57.4271C40.7864 56.8027 39.4641 55.8906 38.0873 55.1001C35.5602 53.6502 33.0341 52.1981 30.5089 50.7436C28.4324 49.5452 26.36 48.337 24.2835 47.1372C22.6996 46.2223 21.1128 45.3144 19.4743 44.373L25.4057 34.1152ZM61.399 50.0843C61.4586 49.9017 61.5296 49.723 61.6117 49.5494C62.7311 47.6107 63.8505 45.6738 64.9699 43.7389C66.8244 40.5487 68.6808 37.3589 70.539 34.1697C72.1509 31.3957 73.761 28.6208 75.3692 25.845C75.5497 25.5349 75.5847 25.324 75.1775 25.1089C74.198 24.5949 73.2675 24.0083 72.3118 23.4593C71.1616 22.7973 70.0072 22.1436 68.8403 21.4801L64.448 29.0855C62.8094 28.1622 61.1891 27.2697 59.5869 26.3436C56.6905 24.6675 53.8108 22.9649 50.9115 21.2916C48.4726 19.8836 46.0001 18.5344 43.5766 17.1013C41.556 15.9057 39.4865 14.8553 37.1819 14.3231C35.3013 13.8901 33.4039 13.8329 31.5849 14.453C29.1096 15.2911 27.138 16.9183 25.7248 19.0847C24.1856 21.4452 22.8255 23.9244 21.3871 26.3478C21.2234 26.6272 21.0722 26.9065 20.9127 27.1859L27.5662 31.0102C27.7607 30.675 27.9314 30.3956 28.0867 30.1093C29.3125 27.8535 30.3116 25.4567 32.1082 23.5445C32.8736 22.7344 33.7496 22.205 34.9347 22.1841C36.4865 22.1575 37.7892 22.7931 39.0709 23.525C41.1377 24.7052 43.189 25.8995 45.2515 27.0923C47.5729 28.4276 49.9026 29.7461 52.2226 31.087C54.232 32.2477 56.2315 33.4266 58.2395 34.5915C58.9839 35.0245 59.7381 35.4435 60.5105 35.8793L54.5748 46.1455L61.399 50.0843Z" fill="#EA3B25"/>
<path d="M25.4025 34.122L19.471 44.3826C21.1095 45.324 22.6963 46.2319 24.2803 47.1467C26.3568 48.3466 28.4291 49.5548 30.5056 50.7532C33.0299 52.2086 35.556 53.6608 38.084 55.1097C39.4609 55.8988 40.7832 56.8123 42.2314 57.4367C44.8186 58.5541 46.709 58.6072 48.6848 55.727C49.8896 53.9699 50.8131 52.0214 51.8653 50.161C52.0165 49.8928 52.1802 49.6316 52.4012 49.2642L59.0757 53.0844C58.2208 54.5607 57.3966 56.0008 56.5571 57.4339C55.8644 58.6169 55.1928 59.8167 54.4428 60.9635C53.2581 62.8109 51.6007 64.3091 49.6419 65.3032C47.932 66.165 46.092 66.4206 44.1498 66.1762C41.557 65.8521 39.2524 64.8185 37.0331 63.5503C34.4986 62.1051 31.9692 60.6511 29.4449 59.1882C26.7182 57.6155 23.992 56.0399 21.2663 54.4616C19.4397 53.4093 17.6104 52.3627 15.7783 51.3217C15.714 51.2853 15.6454 51.2588 15.5265 51.2029C14.9192 52.2365 14.3161 53.2464 13.7312 54.2674C12.9238 55.6754 12.1291 57.0903 11.3315 58.5024C11.172 58.7817 11.0027 58.7817 10.7284 58.6155C8.78622 57.4758 6.83192 56.35 4.86549 55.2382C4.44571 55.0007 4.39114 54.8191 4.657 54.3792C5.95971 52.1863 7.20226 49.957 8.47979 47.7488C9.85386 45.3743 11.2475 43.0109 12.6272 40.6393C14.199 37.9389 15.7671 35.2338 17.3315 32.5241C17.7639 31.7768 18.1711 31.0156 18.6174 30.2236L25.4025 34.122Z" fill="#EA3B25"/>
<path d="M61.3977 50.0908L54.5693 46.1673L60.505 35.9011C59.7326 35.4653 58.9784 35.0463 58.234 34.6133C56.226 33.4484 54.2265 32.2695 52.2171 31.1088C49.8972 29.7707 47.5674 28.455 45.246 27.1141C43.1835 25.9283 41.1322 24.727 39.0655 23.5468C37.7837 22.8149 36.481 22.1794 34.9292 22.2059C33.7441 22.2269 32.8681 22.7562 32.1027 23.5663C30.3061 25.4715 29.3042 27.8684 28.0812 30.1311C27.9259 30.4174 27.7552 30.6968 27.5607 31.032L20.9072 27.2077C21.0667 26.9283 21.2179 26.642 21.3816 26.3696C22.8172 23.9421 24.1801 21.4628 25.7193 19.1065C27.1325 16.9401 29.1041 15.3185 31.5794 14.4748C33.3984 13.8547 35.3 13.9161 37.1765 14.3449C39.481 14.8771 41.5506 15.9275 43.5711 17.1231C45.9946 18.5562 48.4685 19.9054 50.906 21.3134C53.8053 22.9895 56.685 24.6907 59.5815 26.3654C61.1836 27.2915 62.7998 28.1812 64.4425 29.1073L68.8418 21.5019C70.0088 22.1654 71.1632 22.8191 72.3133 23.4811C73.269 24.0301 74.2051 24.6167 75.179 25.1307C75.5862 25.3458 75.5512 25.5567 75.3707 25.8668C73.7606 28.6417 72.1506 31.4166 70.5405 34.1915C68.6851 37.3817 66.8287 40.5714 64.9714 43.7607C63.852 45.6957 62.7326 47.6325 61.6132 49.5712C61.5307 49.7398 61.4588 49.9133 61.3977 50.0908Z" fill="#EA3B25"/>
</g>
<defs>
<clipPath id="clip0_8874_32946">
<rect width="71" height="52.2639" fill="white" transform="translate(4.5 14)"/>
</clipPath>
</defs>
</svg>
