<svg width="100%" height="100%" viewBox="0 0 80 80" fill="none" xmlns="http://www.w3.org/2000/svg">
<circle cx="40" cy="40" r="39.5" fill="white" stroke="#ECECEC"/>
<path d="M23.8516 5.2002V16.3697H35.2655V45.6048H46.2926V16.1755V5.2002H23.8516Z" fill="#009BDF"/>
<path d="M17.8547 42.9835C17.8547 34.2421 22.6911 26.6663 29.849 22.7812H13.5019C9.34258 28.4146 6.82764 35.4077 6.82764 42.9835C6.82764 58.0381 16.5005 70.7617 30.0425 75.3266V63.38C22.7878 59.495 17.8547 51.822 17.8547 42.9835Z" fill="#009BDF"/>
<path d="M51.8062 10.7383V22.7819C58.9641 26.667 63.8005 34.2428 63.8005 42.9842C63.8005 55.7078 53.5473 66.0032 40.8758 66.0032C38.9413 66.0032 37.1034 65.8089 35.3623 65.3233V76.5899C37.1034 76.8813 38.9413 77.0756 40.8758 77.0756C59.6412 77.0756 74.8276 61.8267 74.8276 42.9842C74.7308 28.0268 65.1547 15.4003 51.8062 10.7383Z" fill="#009BDF"/>
</svg>
