<svg width="100%" height="100%" viewBox="0 0 80 80" fill="none" xmlns="http://www.w3.org/2000/svg">
<circle cx="40" cy="40" r="39.5" fill="white" stroke="#ECECEC"/>
<path d="M40.0002 69.4584C23.7307 69.4584 10.5416 56.2693 10.5416 40.0002C10.5416 23.7307 23.7307 10.5419 40.0002 10.5419C56.2693 10.5419 69.4581 23.7307 69.4581 40.0002C69.4581 56.2693 56.2693 69.4584 40.0002 69.4584ZM40.0002 0C17.9087 0 0 17.909 0 40.0002C0 62.0916 17.9087 80 40.0002 80C62.0913 80 80 62.0916 80 40.0002C80 17.909 62.0913 0 39.9998 0H40.0002Z" fill="#CF272D"/>
<path d="M41.6446 30.0357C41.6446 25.4425 45.3684 21.7188 49.9619 21.7188C54.5554 21.7188 58.2788 25.4425 58.2788 30.0357C58.2788 34.6295 54.5554 38.353 49.9619 38.353C45.3684 38.353 41.6446 34.6295 41.6446 30.0357ZM41.6446 49.9594C41.6446 45.3663 45.3684 41.6422 49.9619 41.6422C54.5554 41.6422 58.2788 45.3663 58.2788 49.9594C58.2788 54.5529 54.5554 58.2767 49.9619 58.2767C45.3684 58.2767 41.6446 54.5529 41.6446 49.9594ZM21.7212 49.9594C21.7212 45.3663 25.4453 41.6422 30.0384 41.6422C34.6319 41.6422 38.3557 45.3663 38.3557 49.9594C38.3557 54.5529 34.6319 58.2767 30.0384 58.2767C25.4453 58.2767 21.7212 54.5529 21.7212 49.9594ZM21.7212 30.036C21.7212 25.4425 25.4453 21.7191 30.0384 21.7191C34.6319 21.7191 38.3557 25.4425 38.3557 30.036C38.3557 34.6298 34.6319 38.3533 30.0384 38.3533C25.4453 38.3533 21.7212 34.6298 21.7212 30.036Z" fill="#CF272D"/>
<circle cx="40" cy="40" r="39.5" stroke="#ECECEC"/>
</svg>
