<svg width="100%" height="100%" viewBox="0 0 80 80" fill="none" xmlns="http://www.w3.org/2000/svg">
<circle cx="40" cy="40" r="39.5" fill="white" stroke="#ECECEC"/>
<path d="M65.2777 28.3265C65.3164 28.8902 65.3164 29.454 65.3164 30.023C65.3164 47.3597 52.2067 67.3542 28.2351 67.3542V67.3438C21.1538 67.3542 14.2196 65.3121 8.2583 61.4619C9.28798 61.5866 10.3228 61.6489 11.3602 61.6515C17.2286 61.6567 22.9293 59.6744 27.546 56.0242C21.9693 55.9176 17.0789 52.257 15.3706 46.9128C17.3241 47.2921 19.337 47.2142 21.2544 46.6868C15.1744 45.4501 10.8002 40.0722 10.8002 33.8265C10.8002 33.7694 10.8002 33.7148 10.8002 33.6602C12.6118 34.6761 14.6402 35.2398 16.7151 35.3022C10.9886 31.4493 9.22346 23.7799 12.6815 17.7836C19.2983 25.9804 29.0609 30.9635 39.5409 31.4909C38.4906 26.9339 39.9254 22.1587 43.3112 18.9553C48.5602 13.9879 56.8157 14.2425 61.7499 19.5243C64.6686 18.9449 67.466 17.8668 70.026 16.3391C69.0531 19.3762 67.017 21.9561 64.297 23.5954C66.8802 23.2889 69.4041 22.5926 71.7809 21.53C70.0312 24.1696 67.8273 26.4689 65.2777 28.3265Z" fill="#1D9BF0"/>
</svg>
