<svg width="100%" height="100%" viewBox="0 0 80 80" fill="none" xmlns="http://www.w3.org/2000/svg">
<circle cx="40" cy="40" r="39.5" fill="white" stroke="#ECECEC"/>
<path d="M28.3095 17.0604C42.9411 17.0604 54.119 27.9673 54.119 42.2515C54.119 56.5358 42.9411 67.4468 28.3095 67.4468C13.6779 67.4468 2.5 56.5354 2.5 42.2515C2.5 27.9673 13.6779 17.0601 28.3095 17.0601V17.0604Z" fill="#6B0094"/>
<path d="M27.2007 33.6115C27.2598 32.7373 27.3232 31.8676 27.446 30.9976H7.81152V33.6115C9.7837 33.7349 11.7013 33.9228 13.678 34.0462C17.3812 38.5873 21.0844 43.1285 24.8513 47.7292V54.7603C22.7521 54.9478 20.653 55.0712 18.5534 55.2591V57.5572H37.9426V55.2591C35.8431 55.1311 33.7439 55.0715 31.6447 55.0077C31.708 52.5217 31.7672 49.972 31.8308 47.4818C35.4704 44.2453 39.0557 41.0137 42.6364 37.7772C44.4858 37.6535 46.3393 37.5301 48.2523 37.3426V34.2936C42.7589 34.3574 37.3243 34.4174 31.8308 34.5408V37.0951C33.8663 37.2185 35.9067 37.2784 37.9426 37.3422C35.2888 39.6449 32.6308 41.8834 29.977 44.1857C27.2595 40.8258 24.5427 37.4064 21.8252 34.0462C23.6157 33.8586 25.4056 33.7349 27.2003 33.6115H27.2007Z" fill="white"/>
<path d="M72.0894 19.5558C67.0869 19.3045 62.1474 19.0573 57.2083 18.8057C56.9584 30.6891 56.7131 42.6321 56.4678 54.5156C58.8123 54.763 61.2208 55.0105 63.5653 55.2618C66.4057 43.3192 69.2495 31.4354 72.0898 19.5558H72.0894ZM55.7862 67.3882H64.3061V60.2373C61.2208 59.9863 58.1352 59.7389 55.0454 59.4917C55.2907 62.1649 55.5409 64.7788 55.7862 67.3882Z" fill="#6B0094"/>
</svg>
