<svg width="100%" height="100%" viewBox="0 0 80 80" fill="none" xmlns="http://www.w3.org/2000/svg">
<circle cx="40" cy="40" r="39.5" fill="white" stroke="#ECECEC"/>
<g clip-path="url(#clip0_8874_32951)">
<path d="M51.0835 40.1144C44.7366 36.7285 32.4473 30.3657 32.4473 30.3657L48.8321 41.3593C48.8334 41.3593 45.8475 43.0119 51.0835 40.1144Z" fill="#E8E0E0"/>
<path d="M33.6415 65.0289C20.4584 64.7866 15.9557 64.5687 13.1881 63.9994C11.3156 63.6212 9.68839 62.7815 8.4953 61.5635C7.57318 60.6417 6.83986 59.2353 6.27092 57.284C5.7829 55.6584 5.59282 54.3058 5.32184 51.002C4.90702 43.5456 4.80813 37.4494 5.32184 30.6379C5.74565 26.8764 5.95114 22.411 8.76628 19.8058C10.0955 18.5866 11.6418 17.802 13.3781 17.4776C16.0905 16.9635 27.6465 16.5571 39.6096 16.5571C51.5457 16.5571 63.1273 16.9635 65.8423 17.4776C68.0114 17.8841 70.0457 19.102 71.2401 20.6725C73.8087 24.7058 73.8536 29.7212 74.1143 33.6443C74.2222 35.5135 74.2222 46.1276 74.1143 47.9969C73.7085 54.1969 73.3823 56.3905 72.4602 58.6648C71.89 60.1007 71.4032 60.8584 70.5607 61.6982C69.2394 62.9904 67.555 63.85 65.7318 64.1623C54.3236 65.0187 44.6362 65.2046 33.6415 65.0289ZM51.1116 40.1161C44.7647 36.7302 38.6875 33.5905 32.4754 30.3405V49.784C39.0124 46.2366 45.9038 42.9866 51.1386 40.0892L51.1116 40.1161Z" fill="#CD201F"/>
</g>
<defs>
<clipPath id="clip0_8874_32951">
<rect width="72" height="50" fill="white" transform="translate(4.5 16)"/>
</clipPath>
</defs>
</svg>
