<svg width="100%" height="100%" viewBox="0 0 80 80" fill="none" xmlns="http://www.w3.org/2000/svg">
<circle cx="40" cy="40" r="39.5" fill="white" stroke="#ECECEC"/>
<mask id="mask0_8874_32953" style="mask-type:alpha" maskUnits="userSpaceOnUse" x="0" y="0" width="80" height="80">
<circle cx="40" cy="40" r="39.5" fill="white" stroke="#D0D0CE"/>
</mask>
<g mask="url(#mask0_8874_32953)">
</g>
<g clip-path="url(#clip0_8874_32953)">
<path d="M38.5613 15.5058V36.4219H21.0499L38.5613 15.5058ZM38.5613 8C38.5613 10.2974 37.6388 12.5006 35.9968 14.1251C34.3548 15.7496 32.1278 16.6622 29.8056 16.6622C27.4835 16.6622 25.2564 15.7496 23.6144 14.1251C21.9724 12.5006 21.0499 10.2974 21.0499 8L38.5613 8ZM41.4462 36.4238C41.4462 34.1264 42.3686 31.9231 44.0107 30.2987C45.6527 28.6742 47.8797 27.7615 50.2019 27.7615C52.524 27.7615 54.7511 28.6742 56.3931 30.2987C58.0351 31.9231 58.9576 34.1264 58.9576 36.4238H41.4462ZM41.4462 28.918V8H58.9613L41.4462 28.9161V28.918ZM51.2397 54.3191C52.1402 54.339 53.0122 54.0059 53.6656 53.3924L54.8682 54.6768C54.0739 55.4848 52.9725 56.0852 51.2603 56.0852C48.3248 56.0852 46.4272 54.1578 46.4272 51.5521C46.4153 50.9549 46.5251 50.3615 46.7501 49.8071C46.9751 49.2528 47.3106 48.749 47.7366 48.3258C48.1627 47.9026 48.6706 47.5686 49.2299 47.3437C49.7893 47.1189 50.3887 47.0078 50.9924 47.0171C53.9072 47.0171 55.5594 49.2114 55.4133 52.2545H48.5234C48.7669 53.5185 49.6661 54.3246 51.234 54.3246L51.2397 54.3191ZM53.3321 50.8034C53.1448 49.6229 52.4329 48.7537 51.0093 48.7537C49.6848 48.7537 48.7613 49.495 48.5234 50.8034H53.334H53.3321ZM6 54.2208L11.3014 48.8908H6.12551V47.2191H13.761V48.9242L8.45961 54.2524H13.8359V55.9259H6V54.2208ZM19.7873 54.3172C20.6879 54.3371 21.5599 54.0041 22.2132 53.3906L23.4159 54.6749C22.6216 55.4829 21.5201 56.0834 19.8079 56.0834C16.8725 56.0834 14.9749 54.156 14.9749 51.5503C14.963 50.9531 15.0728 50.3596 15.2978 49.8053C15.5227 49.251 15.8583 48.7472 16.2843 48.3239C16.7104 47.9007 17.2182 47.5667 17.7776 47.3419C18.3369 47.117 18.9364 47.006 19.5401 47.0153C22.4549 47.0153 24.1071 49.2096 23.961 52.2527H17.0748C17.3183 53.5166 18.2175 54.3228 19.7855 54.3228L19.7873 54.3172ZM21.8835 50.8015C21.6962 49.621 20.9844 48.7518 19.5607 48.7518C18.2363 48.7518 17.3127 49.4931 17.0748 50.8015H21.8854H21.8835ZM35.4142 51.5484C35.4142 48.7685 37.5179 47.019 39.8351 47.019C40.3912 47.0117 40.9421 47.1248 41.4492 47.3506C41.9563 47.5763 42.4073 47.9091 42.7706 48.3256V43.1883H44.6439V55.9018H42.7706V54.7027C42.4143 55.1363 41.9639 55.4851 41.4528 55.7231C40.9418 55.9611 40.3831 56.0824 39.8183 56.0778C37.5704 56.0778 35.4161 54.3172 35.4161 51.5503L35.4142 51.5484ZM42.8755 51.5317C42.8607 50.9882 42.6843 50.461 42.3683 50.0161C42.0523 49.5712 41.6107 49.2283 41.0988 49.0304C40.5868 48.8325 40.0273 48.7883 39.4901 48.9034C38.9529 49.0185 38.462 49.2877 38.0786 49.6773C37.6953 50.067 37.4366 50.5599 37.3349 51.0942C37.2332 51.6286 37.293 52.1808 37.5069 52.6817C37.7207 53.1826 38.0791 53.6101 38.5372 53.9105C38.9953 54.211 39.5328 54.3711 40.0824 54.371C41.6934 54.371 42.8736 53.0996 42.8736 51.5317H42.8755ZM56.6385 54.0522L58.3356 53.1812C58.56 53.5769 58.8894 53.9045 59.2882 54.1285C59.687 54.3526 60.1401 54.4646 60.5986 54.4525C61.6588 54.4525 62.2096 53.9151 62.2096 53.3035C62.2096 52.6066 61.1849 52.451 60.0703 52.223C58.5717 51.9079 57.0112 51.4205 57.0112 49.6284C57.0112 48.2514 58.3356 46.9782 60.4206 46.9968C62.0635 46.9968 63.2867 47.6417 63.9798 48.6832L62.4063 49.5357C62.1889 49.2172 61.893 48.9588 61.5465 48.785C61.2 48.6112 60.8144 48.5277 60.4262 48.5424C59.4184 48.5424 58.9051 49.0298 58.9051 49.5876C58.9051 50.2141 59.7181 50.3883 60.992 50.6681C62.4419 50.9832 64.0829 51.452 64.0829 53.2627C64.0829 54.4636 63.0226 56.0834 60.5124 56.0667C58.6766 56.0667 57.384 55.3347 56.6403 54.0466L56.6385 54.0522ZM69.1726 52.0321L67.687 53.6352V55.8962H65.8138V43.1827H67.687V51.5095L71.664 47.1913H73.9457L70.4988 50.9164L74.0356 55.8981H71.915L69.1744 52.0321H69.1726ZM29.7532 47.0171C27.524 47.0171 25.6601 48.4442 25.6601 50.8164V55.9036H27.5708V51.0517C27.5708 49.6247 28.4007 48.7685 29.8187 48.7685C31.2368 48.7685 31.9412 49.621 31.9412 51.0517V55.9036H33.8407V50.8164C33.8407 48.4479 31.9674 47.0171 29.7475 47.0171" fill="#03363D"/>
</g>
<defs>
<clipPath id="clip0_8874_32953">
<rect width="68" height="48" fill="white" transform="translate(6 8)"/>
</clipPath>
</defs>
</svg>
