<svg width="100%" height="100%" viewBox="0 0 80 80" fill="none" xmlns="http://www.w3.org/2000/svg">
<circle cx="40" cy="40" r="39.5" fill="white" stroke="#ECECEC"/>
<mask id="mask0_8874_32954" style="mask-type:alpha" maskUnits="userSpaceOnUse" x="0" y="0" width="80" height="80">
<circle cx="40" cy="40" r="39.5" fill="white" stroke="#D0D0CE"/>
</mask>
<g mask="url(#mask0_8874_32954)">
</g>
<g clip-path="url(#clip0_8874_32954)">
<path d="M76.0002 32.3374V49.5287L73.6802 51.8656V35.0327L76.0002 32.3374Z" fill="#DC7E28"/>
<path d="M73.6801 35.0317H58.0645V51.8647H73.6801V35.0317Z" fill="url(#paint0_linear_8874_32954)"/>
<path d="M60.5113 32.3477L58.0645 35.0327H73.6801L76.0001 32.3374L60.5113 32.3477Z" fill="#FDD600"/>
<path d="M41.1709 33.0853L56.5304 30.9365L55.2462 34.6437L40.0967 36.7254L41.1709 33.0853Z" fill="#90C7EA"/>
<path d="M55.2462 34.644L57.3742 49.724L42.2285 51.8663L40.0967 36.7258L55.2462 34.644Z" fill="url(#paint1_linear_8874_32954)"/>
<path d="M55.2461 34.6437L57.3741 49.7236L58.5341 46.4689L56.5431 31.0268L56.5303 30.9365" fill="#0B98D5"/>
<path d="M28.1976 31.7993L41.7953 37.9762L35.6597 51.9991L22.062 45.8223L28.1976 31.7993Z" fill="url(#paint2_linear_8874_32954)"/>
<path d="M26.7861 27L28.1984 31.8002L41.7961 37.9771L40.6527 33.3908L26.7861 27Z" fill="#95CEA0"/>
<path d="M26.7859 27L21.3135 40.0768L22.0625 45.8231L28.1981 31.8002L26.7859 27Z" fill="#69BF6D"/>
<path d="M19.2008 34.6216L21.4414 49.4617L6.41353 51.8335L4 36.965L19.2008 34.6216Z" fill="url(#paint3_linear_8874_32954)"/>
<path d="M20.2293 29.2188L22.4533 44.202L21.4418 49.4624L19.2012 34.6222L20.2293 29.2188Z" fill="#761216"/>
<path d="M71.2973 41.0902C70.9855 40.304 70.519 39.5893 69.926 38.9891C69.3732 38.4132 68.7103 37.9559 67.9772 37.6447C67.2374 37.3402 66.4449 37.1869 65.6457 37.1936C64.8398 37.1869 64.0405 37.3402 63.2936 37.6447C62.5594 37.9531 61.8964 38.4108 61.3461 38.9891C60.7523 39.5824 60.2875 40.2935 59.9812 41.0773C59.6725 41.8942 59.5183 42.762 59.5267 43.636C59.519 44.5066 59.6749 45.3708 59.9864 46.183C60.2932 46.9763 60.7556 47.6992 61.3461 48.3085C61.8879 48.8791 62.5421 49.3296 63.2667 49.631C64.0213 49.9352 64.8278 50.0872 65.6405 50.0783C66.4377 50.0842 67.2281 49.9322 67.967 49.631C68.7015 49.3269 69.3677 48.8772 69.926 48.3085C70.5188 47.7032 70.9851 46.9844 71.2973 46.1946C71.9153 44.5509 71.9153 42.7365 71.2973 41.0928V41.0902ZM68.0874 46.6329C67.4894 47.3611 66.6789 47.7221 65.6444 47.7233C64.6098 47.7246 63.7878 47.3624 63.1861 46.638C62.5843 45.9136 62.2898 44.9172 62.2821 43.6385C62.2821 42.3341 62.5855 41.3184 63.1784 40.5927C63.7712 39.8669 64.5868 39.4996 65.6405 39.4983C66.6943 39.497 67.4856 39.8618 68.0835 40.5927C68.6815 41.3235 68.9798 42.3341 68.9798 43.6385C68.9875 44.9108 68.6879 45.9059 68.0874 46.6329ZM17.5864 47.0892C17.4602 46.9428 17.2969 46.8337 17.114 46.7734C16.8793 46.6985 16.634 46.6632 16.388 46.6689C16.0792 46.6733 15.7712 46.7035 15.4674 46.7592L11.4982 47.4411C11.5847 47.0185 11.7433 46.6142 11.9668 46.2462C12.3587 45.5522 12.8004 44.8879 13.2882 44.2585L13.7465 43.6424C13.8221 43.547 13.9284 43.4091 14.0641 43.2248C14.9719 42.0273 15.534 41.0515 15.7491 40.2859C15.8711 39.8575 15.9467 39.4171 15.9744 38.9724C15.9821 38.8525 15.9847 38.7326 15.9847 38.6141C15.9849 38.3014 15.9592 37.9892 15.9078 37.6808C15.8725 37.4399 15.8026 37.2055 15.7004 36.9848C15.6249 36.8154 15.5033 36.671 15.3496 36.5684C15.1376 36.4599 14.9006 36.4109 14.6633 36.4266C14.3669 36.4317 14.0714 36.4614 13.7798 36.5156L9.19606 37.3057C8.64037 37.4011 8.23065 37.5635 7.96945 37.8136C7.86776 37.9079 7.7871 38.0228 7.7328 38.1508C7.67851 38.2788 7.65181 38.4169 7.65448 38.556C7.65497 38.6352 7.66225 38.7141 7.67625 38.7919C7.69561 38.9697 7.76056 39.1393 7.86471 39.2842C7.96887 39.429 8.10865 39.5441 8.27034 39.6182C8.49171 39.7104 8.72997 39.7543 8.96943 39.7471C9.17467 39.7446 9.37936 39.7252 9.58146 39.6891L13.4226 39.0381C13.4303 39.1057 13.4341 39.1737 13.4341 39.2418C13.433 39.4838 13.3896 39.7238 13.3061 39.9507C13.1921 40.2704 12.9079 40.7241 12.4534 41.308C12.3253 41.467 12.1286 41.7141 11.8631 42.0492C10.8226 43.309 10.0795 44.3857 9.63395 45.2794C9.33083 45.8523 9.10847 46.4648 8.97327 47.0995C8.90455 47.4293 8.86894 47.7653 8.867 48.1023C8.86625 48.326 8.88467 48.5494 8.92206 48.77C8.96039 49.0354 9.03808 49.2935 9.15253 49.5357C9.2364 49.7191 9.37342 49.8728 9.54561 49.9765C9.75725 50.067 9.98705 50.1063 10.2165 50.0912C10.7387 50.0767 11.2589 50.0202 11.7722 49.9224L15.936 49.2108C16.6735 49.0819 17.1857 48.9066 17.4827 48.6604C17.5986 48.5663 17.6914 48.4465 17.7538 48.3103C17.8162 48.1742 17.8466 48.0253 17.8425 47.8754C17.842 47.7916 17.8347 47.708 17.8207 47.6254C17.7914 47.4308 17.7104 47.2478 17.5864 47.0956V47.0892ZM36.4491 37.0608C35.8989 36.4852 35.2356 36.0313 34.5016 35.728C33.7792 35.4128 33.0008 35.2483 32.2135 35.2446H32.1777C31.3782 35.2541 30.5895 35.4324 29.8628 35.768C29.0772 36.1086 28.3692 36.6073 27.7821 37.2335C26.5652 38.5716 25.842 40.2899 25.7335 42.1008C25.7335 42.1987 25.7271 42.2967 25.7271 42.3947C25.7273 43.1629 25.8599 43.9252 26.1189 44.6478C26.3804 45.398 26.7976 46.0835 27.343 46.6586C27.905 47.2408 28.5801 47.7002 29.3263 48.0082C30.0465 48.3228 30.8228 48.4864 31.6079 48.489H31.6271C32.4232 48.4808 33.2094 48.3103 33.9382 47.9876C34.7275 47.6355 35.4408 47.1315 36.038 46.504C36.6518 45.8475 37.1417 45.084 37.4836 44.2508C37.8413 43.4256 38.0453 42.5413 38.0854 41.6419C38.0854 41.5581 38.0854 41.4743 38.0854 41.3918C38.0848 40.6112 37.946 39.8368 37.6757 39.1052C37.4094 38.3486 36.9919 37.6551 36.4491 37.0673V37.0608ZM34.96 43.1693C34.4478 44.3836 33.7705 45.2175 32.9331 45.679C32.5112 45.9193 32.0351 46.0466 31.5503 46.0489C31.1092 46.0434 30.6737 45.9482 30.2699 45.7692C29.3186 45.3606 28.7258 44.7032 28.4697 43.7777C28.383 43.4586 28.3399 43.129 28.3417 42.7981C28.3617 42.0256 28.5359 41.2651 28.8538 40.5617C29.3775 39.3178 30.0612 38.4697 30.9024 38.0044C31.3246 37.7632 31.8012 37.6354 32.2865 37.6331C32.7331 37.639 33.1739 37.7359 33.5823 37.918C34.5285 38.3227 35.1187 38.9814 35.3671 39.9108C35.452 40.2242 35.4951 40.5475 35.4952 40.8724C35.4892 41.5701 35.3108 42.3379 34.96 43.1758V43.1693ZM52.6702 37.5236C52.6011 37.0557 52.4423 36.6986 52.185 36.464C51.9779 36.277 51.7077 36.1765 51.4296 36.183C51.352 36.1834 51.2745 36.1894 51.1978 36.2011C51.0198 36.218 50.848 36.2757 50.6955 36.3698C50.5431 36.4639 50.414 36.5918 50.3182 36.7437C50.1797 36.9818 50.1105 37.2542 50.1184 37.53C50.1192 37.653 50.1291 37.7758 50.1479 37.8974L50.6997 41.8211L46.3464 42.4656L45.7946 38.5406C45.7267 38.0843 45.5705 37.7298 45.317 37.4901C45.1151 37.2965 44.8455 37.1909 44.5667 37.1962C44.4974 37.2003 44.4285 37.2093 44.3605 37.2232C44.1786 37.2397 44.0026 37.2964 43.845 37.3893C43.6874 37.4822 43.5521 37.6091 43.4489 37.7607C43.3069 37.9984 43.2362 38.2724 43.2453 38.5496C43.2463 38.6751 43.2557 38.8005 43.2735 38.9247L44.7639 49.1309C44.833 49.6001 44.9956 49.9559 45.2632 50.1866C45.4779 50.3681 45.7512 50.4639 46.0315 50.456C46.1172 50.4557 46.2027 50.4493 46.2875 50.4367C46.4594 50.4191 46.6248 50.3612 46.7705 50.2677C46.9161 50.1741 47.038 50.0474 47.1262 49.8979C47.2563 49.6617 47.3205 49.3944 47.3118 49.1245C47.3116 48.9998 47.3022 48.8753 47.2837 48.752L46.6755 44.72L51.0288 44.0755L51.6383 48.1075C51.7061 48.5702 51.8674 48.9247 52.1312 49.158C52.3433 49.3451 52.6175 49.445 52.8994 49.4377C52.9774 49.4373 53.0553 49.4313 53.1325 49.4197C53.309 49.4033 53.4794 49.3462 53.6304 49.2527C53.7814 49.1593 53.9089 49.032 54.0031 48.8809C54.137 48.6459 54.2035 48.3782 54.1952 48.1075C54.1944 47.9823 54.1846 47.8574 54.1657 47.7337L52.6702 37.5236Z" fill="white"/>
<path d="M4 36.9656L4.29705 35.4729L5.05504 31.6665L20.2289 29.2188L19.2008 34.6222L4 36.9656Z" fill="#EC473F"/>
</g>
<defs>
<linearGradient id="paint0_linear_8874_32954" x1="57.9057" y1="34.6128" x2="73.5084" y2="51.6872" gradientUnits="userSpaceOnUse">
<stop offset="0.01" stop-color="#F8C51B"/>
<stop offset="1" stop-color="#E78F24"/>
</linearGradient>
<linearGradient id="paint1_linear_8874_32954" x1="40.6396" y1="36.7103" x2="56.6974" y2="49.5184" gradientUnits="userSpaceOnUse">
<stop offset="0.01" stop-color="#1F8ACA"/>
<stop offset="1" stop-color="#01659E"/>
</linearGradient>
<linearGradient id="paint2_linear_8874_32954" x1="31.9287" y1="37.409" x2="31.9287" y2="51.5003" gradientUnits="userSpaceOnUse">
<stop stop-color="#269F49"/>
<stop offset="1" stop-color="#008A54"/>
</linearGradient>
<linearGradient id="paint3_linear_8874_32954" x1="11.6221" y1="36.0305" x2="14.0622" y2="50.6565" gradientUnits="userSpaceOnUse">
<stop stop-color="#D81F32"/>
<stop offset="1" stop-color="#BB2637"/>
</linearGradient>
<clipPath id="clip0_8874_32954">
<rect width="72" height="25" fill="white" transform="translate(4 27)"/>
</clipPath>
</defs>
</svg>
