<svg width="144" height="127" viewBox="0 0 144 127" fill="none" xmlns="http://www.w3.org/2000/svg">
<path opacity="0.5" fill-rule="evenodd" clip-rule="evenodd" d="M59.246 101.304C46.8459 98.5468 32.6514 100.842 22.9983 92.9891C12.8545 84.7372 6.49783 71.4271 9.18783 60.5818C11.8156 49.9874 28.8103 48.9776 36.0141 40.5135C43.3248 31.9238 39.3105 15.7531 50.8401 11.6425C62.1625 7.60585 75.2848 17.5677 87.4867 22.1624C99.3756 26.6394 112.794 29.1277 121.006 38.0643C129.445 47.2492 132.162 59.1969 131.632 70.2045C131.124 80.7291 126.305 90.4771 118.139 97.556C110.587 104.103 99.6836 106.851 88.5385 107.56C78.6211 108.191 69.2415 103.526 59.246 101.304Z" fill="url(#paint0_linear)"/>
<g clip-path="url(#clip0)">
<path d="M30.2032 37.4379L33.3209 34.1643C33.3209 34.1643 36.7504 29.0201 39.2445 30.4231C41.7387 31.8261 35.6592 35.0996 35.6592 35.0996L32.5415 40.2438L30.2032 37.4379Z" fill="#A0616A"/>
<path d="M20.3825 100.883C20.3825 100.883 18.0442 105.403 19.759 105.715C21.4737 106.027 29.8915 106.495 30.0474 106.027C30.2032 105.559 31.4503 104 30.515 103.377C29.5797 102.753 25.8385 102.286 25.8385 102.286L24.5914 101.039L20.3825 100.883Z" fill="#2A415C"/>
<path d="M19.1354 56.7679C19.1354 56.7679 14.1471 63.0033 18.2001 69.3946L19.1354 80.1506C19.1354 80.1506 17.4207 94.9596 19.603 99.9479L19.9148 101.663H25.3708L23.9678 88.5684C23.9678 88.5684 24.1237 87.0095 24.5914 86.6978C25.059 86.386 32.6974 69.5505 32.6974 69.5505C32.6974 69.5505 31.4503 67.2122 31.9179 66.7445C32.3856 66.2769 31.4503 56.9238 30.9826 56.6121C30.515 56.3003 19.1354 56.7679 19.1354 56.7679Z" fill="#2A415C"/>
<path d="M28.0209 99.48L28.6444 103.065L22.5649 102.754L23.3444 98.8564L28.0209 99.48Z" fill="#A0616A"/>
<path d="M26.9297 35.8794C29.5125 35.8794 31.6062 33.7857 31.6062 31.2029C31.6062 28.6201 29.5125 26.5264 26.9297 26.5264C24.3469 26.5264 22.2532 28.6201 22.2532 31.2029C22.2532 33.7857 24.3469 35.8794 26.9297 35.8794Z" fill="#A0616A"/>
<path d="M22.7208 31.9824L22.2532 37.5943L27.2415 39.9325C27.2415 39.9325 26.3841 34.7104 27.0077 33.3074L22.7208 31.9824Z" fill="#A0616A"/>
<path d="M27.865 39.621L27.3973 37.7504L21.0061 35.4121C21.0061 35.4121 20.3825 35.4121 20.5384 36.5033C20.6943 37.5945 20.6943 37.4386 20.6943 37.4386C20.6943 37.4386 18.5119 38.3739 18.356 39.9328C18.2001 41.4916 15.706 41.9593 15.8619 44.2975C16.0178 46.6358 16.7972 47.8829 16.7972 47.8829C16.7972 47.8829 16.0178 49.7535 17.2648 50.8447C17.2648 50.8447 18.5119 53.0271 17.8884 54.5859C17.2648 56.1447 16.4854 58.7948 18.2001 58.3271C19.9149 57.8595 31.7621 57.08 31.7621 57.08C31.7621 57.08 33.4768 50.6888 31.6062 48.3505C31.6062 48.3505 31.6062 46.9476 30.2032 44.1416C28.8003 41.3357 27.865 39.621 27.865 39.621Z" fill="#0076A8"/>
<path d="M19.603 57.2354C19.603 57.2354 21.6295 65.809 24.1237 66.7443C24.1237 66.7443 24.5913 72.9797 27.2414 72.6679C29.8914 72.3562 27.2414 66.7443 27.2414 66.7443L24.2796 55.9883L19.603 57.2354Z" fill="#A0616A"/>
<path d="M27.5532 40.0882C27.5532 40.0882 29.8915 36.347 30.515 36.9705C31.1386 37.594 34.2563 39.4646 34.1004 40.7117C33.9445 41.9588 32.5415 41.9588 32.5415 41.9588L29.268 44.453L27.5532 40.0882Z" fill="#0076A8"/>
<path d="M30.8267 67.9922L32.6974 69.3368L33.9444 82.6453C33.9444 82.6453 29.4238 100.728 28.1767 100.884C26.9296 101.04 21.7855 101.04 21.9413 100.572C22.0972 100.104 22.8766 98.2338 22.8766 97.7661C22.8766 97.2985 24.5024 93.5586 24.5024 93.5586L26.6179 84.8277L26.1502 77.9688L30.8267 67.9922Z" fill="#2A415C"/>
<path d="M28.4884 101.818C28.4884 101.818 21.9413 99.7919 21.6295 100.26C21.3177 100.727 19.2382 105.441 22.1486 105.968C25.059 106.495 35.5032 107.43 35.5032 106.027C35.5032 104.624 35.1914 103.689 34.2561 103.689C33.3208 103.689 29.112 101.662 28.8002 101.195C28.4884 100.727 28.4884 101.818 28.4884 101.818Z" fill="#2A415C"/>
<path d="M22.4954 31.51C22.3007 31.1094 22.7323 30.6733 23.1199 30.8928L23.1281 30.8976C23.264 30.9801 23.3725 31.1008 23.4401 31.2447C23.5078 31.3885 23.5315 31.5491 23.5085 31.7064C24.0706 31.1455 23.6563 30.0206 24.2637 29.5091C24.5448 29.2723 25.0012 29.2202 25.1456 28.8822C25.2297 28.6854 25.1725 28.4522 25.2467 28.2514C25.3567 27.9534 25.7083 27.8289 26.0226 27.782C27.0109 27.6346 28.0103 27.8854 28.9781 28.1343C29.3339 28.2258 29.7081 28.3274 29.9673 28.5879C30.2403 28.8621 30.3353 29.2607 30.5027 29.6096C30.6701 29.9585 31.768 29.927 32.1518 29.8776C32.2853 29.4986 31.2998 29.47 31.2193 29.0763C30.9995 28.0002 31.7652 26.856 31.3895 25.8239C31.1632 25.202 30.5719 24.7903 29.9766 24.5012C28.3228 23.7062 26.435 23.5451 24.6704 24.0484C24.4908 24.088 24.323 24.1692 24.1804 24.2853C23.9538 24.4968 23.9118 24.8364 23.7609 25.1071C23.4172 25.724 22.6018 25.8706 22.0521 26.3138C21.2195 26.985 21.1256 28.197 21.0986 29.2662C21.0851 29.8046 21.0755 30.3641 21.296 30.8555C21.5165 31.3469 22.0392 31.7473 22.5678 31.6443C22.5428 31.6037 22.5188 31.5582 22.4954 31.51Z" fill="#2A415C"/>
<path d="M23.3087 41.6074C22.7053 41.1886 21.98 40.9817 21.2465 41.0189C20.5129 41.0562 19.8123 41.3356 19.2545 41.8134C18.1801 42.7264 17.0244 44.0344 17.109 45.3884C17.2649 47.8826 18.2002 58.1709 19.4473 58.3268C20.6943 58.4827 25.215 57.2356 25.215 56.4562C25.215 55.6768 24.1238 54.7415 24.1238 54.7415L25.4487 46.7921C25.7761 44.8277 24.9949 42.8207 23.3787 41.6571C23.3555 41.6405 23.3322 41.6239 23.3087 41.6074Z" fill="#0076A8"/>
<g opacity="0.5">
<path opacity="0.5" d="M82.1568 43.1148C86.5897 43.1148 90.1834 39.5211 90.1834 35.0881C90.1834 30.6552 86.5897 27.0615 82.1568 27.0615C77.7238 27.0615 74.1301 30.6552 74.1301 35.0881C74.1301 39.5211 77.7238 43.1148 82.1568 43.1148Z" fill="url(#paint1_linear)"/>
</g>
<path d="M82.1725 42.8935C86.512 42.8935 90.0299 39.3757 90.0299 35.0361C90.0299 30.6966 86.512 27.1787 82.1725 27.1787C77.8329 27.1787 74.3151 30.6966 74.3151 35.0361C74.3151 39.3757 77.8329 42.8935 82.1725 42.8935Z" fill="#F5F5F5"/>
<path d="M82.1786 42.925C83.7139 42.9274 85.216 42.4779 86.4976 41.6325C86.2081 40.0502 85.1063 39.96 85.1063 39.96H79.031C79.031 39.96 77.9913 40.0453 77.6665 41.5009C78.9874 42.4301 80.5636 42.9275 82.1786 42.925Z" fill="#0076A8"/>
<path d="M82.0964 38.6633C84.191 38.6633 85.889 36.9653 85.889 34.8707C85.889 32.7761 84.191 31.0781 82.0964 31.0781C80.0018 31.0781 78.3038 32.7761 78.3038 34.8707C78.3038 36.9653 80.0018 38.6633 82.0964 38.6633Z" fill="#72351C"/>
<path opacity="0.1" d="M80.8723 38.0303H83.3024V40.0421C83.3024 40.3464 83.1816 40.6382 82.9664 40.8534C82.7512 41.0686 82.4594 41.1894 82.1551 41.1894H82.0196C81.7153 41.1894 81.4235 41.0686 81.2084 40.8534C80.9932 40.6382 80.8723 40.3464 80.8723 40.0421V38.0303Z" fill="#333333"/>
<path d="M81.0912 37.9395H83.0836C83.1416 37.9395 83.1973 37.9625 83.2383 38.0036C83.2794 38.0446 83.3024 38.1003 83.3024 38.1583V39.9513C83.3024 40.2556 83.1816 40.5474 82.9664 40.7626C82.7512 40.9777 82.4594 41.0986 82.1551 41.0986H82.0196C81.7153 41.0986 81.4235 40.9777 81.2084 40.7626C80.9932 40.5474 80.8723 40.2556 80.8723 39.9513V38.1583C80.8723 38.1003 80.8954 38.0446 80.9364 38.0036C80.9775 37.9625 81.0331 37.9395 81.0912 37.9395Z" fill="#FDA57D"/>
<path opacity="0.1" d="M80.8768 38.9471C81.66 39.2397 82.5222 39.2421 83.307 38.9538V38.6553H80.8768V38.9471Z" fill="#333333"/>
<path d="M82.0965 39.1099C84.0202 39.1099 85.5796 37.5504 85.5796 35.6267C85.5796 33.703 84.0202 32.1436 82.0965 32.1436C80.1728 32.1436 78.6133 33.703 78.6133 35.6267C78.6133 37.5504 80.1728 39.1099 82.0965 39.1099Z" fill="#FDA57D"/>
<path opacity="0.1" d="M79.6152 32.4584C79.6152 32.4584 81.0832 35.4381 85.2241 33.7073L84.2601 32.1955L82.5511 31.582L79.6152 32.4584Z" fill="#333333"/>
<path d="M79.6152 32.4145C79.6152 32.4145 81.0832 35.3942 85.2241 33.6633L84.2601 32.1516L82.5511 31.5381L79.6152 32.4145Z" fill="#72351C"/>
<path d="M79.6024 32.2133C79.7013 31.9068 79.8723 31.6286 80.1011 31.402C80.7864 30.7248 81.9094 30.5818 82.4856 29.8096C82.5169 29.8642 82.5365 29.9248 82.543 29.9875C82.5495 30.0501 82.5428 30.1135 82.5234 30.1734C82.5039 30.2333 82.4721 30.2885 82.43 30.3353C82.3879 30.3822 82.3365 30.4198 82.279 30.4455C82.8303 30.442 83.4707 30.3937 83.7827 29.9392C83.8598 30.1187 83.8844 30.3165 83.8536 30.5095C83.8227 30.7025 83.7378 30.8828 83.6086 31.0294C84.0978 31.0516 84.6198 31.3836 84.6514 31.8723C84.6725 32.1979 84.4683 32.5062 84.2008 32.6929C83.9228 32.8655 83.6137 32.9819 83.2909 33.0356C82.3608 33.2407 78.9955 34.1002 79.6024 32.2133Z" fill="#72351C"/>
<path d="M85.5796 35.6572H85.4872L83.6906 37.2566C81.9597 36.446 80.689 37.2566 80.689 37.2566L78.8047 35.723L78.6147 35.7468C78.6405 36.661 79.0248 37.5284 79.6846 38.1617C80.3444 38.7949 81.2268 39.1433 82.1413 39.1315C83.0557 39.1198 83.9289 38.7488 84.5722 38.0988C85.2155 37.4487 85.5773 36.5718 85.5796 35.6572V35.6572ZM82.0912 37.8701C81.4136 37.8701 80.8643 37.7328 80.8643 37.5634C80.8643 37.394 81.4136 37.2566 82.0912 37.2566C82.7688 37.2566 83.3181 37.394 83.3181 37.5634C83.3181 37.7328 82.7688 37.8701 82.0912 37.8701Z" fill="#72351C"/>
<path d="M78.6119 36.2307C78.7908 36.2307 78.9359 35.9587 78.9359 35.6232C78.9359 35.2876 78.7908 35.0156 78.6119 35.0156C78.4329 35.0156 78.2878 35.2876 78.2878 35.6232C78.2878 35.9587 78.4329 36.2307 78.6119 36.2307Z" fill="#FDA57D"/>
<path d="M85.5793 36.2307C85.7582 36.2307 85.9033 35.9587 85.9033 35.6232C85.9033 35.2876 85.7582 35.0156 85.5793 35.0156C85.4003 35.0156 85.2552 35.2876 85.2552 35.6232C85.2552 35.9587 85.4003 36.2307 85.5793 36.2307Z" fill="#FDA57D"/>
<g opacity="0.5">
<path opacity="0.5" d="M65.1613 56.2827C69.5942 56.2827 73.1879 52.6891 73.1879 48.2561C73.1879 43.8231 69.5942 40.2295 65.1613 40.2295C60.7283 40.2295 57.1346 43.8231 57.1346 48.2561C57.1346 52.6891 60.7283 56.2827 65.1613 56.2827Z" fill="url(#paint2_linear)"/>
</g>
<path d="M65.1615 56.0703C69.501 56.0703 73.0189 52.5524 73.0189 48.2129C73.0189 43.8734 69.501 40.3555 65.1615 40.3555C60.822 40.3555 57.3041 43.8734 57.3041 48.2129C57.3041 52.5524 60.822 56.0703 65.1615 56.0703Z" fill="#F5F5F5"/>
<path d="M62.0947 48.2822C62.0947 48.2822 61.2037 52.671 60.7177 52.4279C60.7177 52.4279 65.4069 56.4782 69.5471 52.4279C69.5471 52.4279 68.8181 49.3353 67.765 48.2822H62.0947Z" fill="#333333"/>
<path d="M65.1833 56.0939C66.7186 56.0964 68.2207 55.6469 69.5023 54.8014C69.2128 53.2191 68.111 53.1289 68.111 53.1289H62.0356C62.0356 53.1289 60.9959 53.2143 60.6711 54.6698C61.9921 55.599 63.5683 56.0965 65.1833 56.0939Z" fill="#0076A8"/>
<path d="M65.1007 51.523C67.0244 51.523 68.5839 49.9635 68.5839 48.0398C68.5839 46.1161 67.0244 44.5566 65.1007 44.5566C63.177 44.5566 61.6176 46.1161 61.6176 48.0398C61.6176 49.9635 63.177 51.523 65.1007 51.523Z" fill="#333333"/>
<path opacity="0.1" d="M63.8768 51.1982H66.307V53.2101C66.307 53.5144 66.1861 53.8062 65.9709 54.0214C65.7558 54.2365 65.4639 54.3574 65.1597 54.3574H65.0241C64.7199 54.3574 64.428 54.2365 64.2129 54.0214C63.9977 53.8062 63.8768 53.5144 63.8768 53.2101V51.1982Z" fill="#333333"/>
<path d="M64.0957 51.1084H66.0881C66.1461 51.1084 66.2018 51.1315 66.2429 51.1725C66.2839 51.2136 66.307 51.2692 66.307 51.3273V53.1203C66.307 53.4245 66.1861 53.7164 65.9709 53.9315C65.7558 54.1467 65.4639 54.2676 65.1597 54.2676H65.0241C64.7199 54.2676 64.428 54.1467 64.2129 53.9315C63.9977 53.7164 63.8768 53.4245 63.8768 53.1203V51.3273C63.8768 51.2692 63.8999 51.2136 63.9409 51.1725C63.982 51.1315 64.0377 51.1084 64.0957 51.1084H64.0957Z" fill="#BE7C5E"/>
<path opacity="0.1" d="M63.8813 52.116C64.6645 52.4087 65.5267 52.411 66.3115 52.1227V51.8242H63.8813V52.116Z" fill="#333333"/>
<path d="M65.1007 52.2789C67.0244 52.2789 68.5839 50.7194 68.5839 48.7957C68.5839 46.872 67.0244 45.3125 65.1007 45.3125C63.177 45.3125 61.6176 46.872 61.6176 48.7957C61.6176 50.7194 63.177 52.2789 65.1007 52.2789Z" fill="#BE7C5E"/>
<path d="M61.7706 47.4721H68.413C68.413 47.4721 67.8459 44.79 65.3348 44.961C62.8237 45.132 61.7706 47.4721 61.7706 47.4721Z" fill="#333333"/>
<path d="M61.6896 49.2541C61.8686 49.2541 62.0136 48.9821 62.0136 48.6466C62.0136 48.3111 61.8686 48.0391 61.6896 48.0391C61.5107 48.0391 61.3656 48.3111 61.3656 48.6466C61.3656 48.9821 61.5107 49.2541 61.6896 49.2541Z" fill="#BE7C5E"/>
<path d="M68.4941 49.2541C68.673 49.2541 68.8181 48.9821 68.8181 48.6466C68.8181 48.3111 68.673 48.0391 68.4941 48.0391C68.3151 48.0391 68.17 48.3111 68.17 48.6466C68.17 48.9821 68.3151 49.2541 68.4941 49.2541Z" fill="#BE7C5E"/>
<path opacity="0.1" d="M61.7706 47.5619H68.413C68.413 47.5619 67.8459 44.8798 65.3348 45.0508C62.8237 45.2218 61.7706 47.5619 61.7706 47.5619Z" fill="#333333"/>
<path d="M65.1613 40.9405C66.6083 40.9405 68.0228 41.3696 69.2259 42.1734C70.429 42.9773 71.3667 44.1199 71.9204 45.4567C72.4741 46.7936 72.619 48.2646 72.3367 49.6837C72.0544 51.1029 71.3576 52.4064 70.3345 53.4296C69.3113 54.4527 68.0078 55.1495 66.5886 55.4318C65.1695 55.7141 63.6985 55.5692 62.3616 55.0155C61.0248 54.4618 59.8822 53.5241 59.0784 52.321C58.2745 51.1178 57.8454 49.7034 57.8454 48.2564C57.8454 47.2957 58.0346 46.3443 58.4023 45.4567C58.77 44.5691 59.3088 43.7626 59.9882 43.0833C60.6675 42.4039 61.474 41.865 62.3617 41.4974C63.2493 41.1297 64.2006 40.9405 65.1613 40.9405ZM65.1613 39.1338C63.3571 39.1338 61.5933 39.6688 60.0931 40.6712C58.5929 41.6736 57.4236 43.0984 56.7331 44.7654C56.0426 46.4323 55.862 48.2666 56.214 50.0362C56.566 51.8058 57.4348 53.4313 58.7107 54.7071C59.9865 55.9829 61.612 56.8518 63.3816 57.2038C65.1512 57.5558 66.9855 57.3751 68.6524 56.6847C70.3194 55.9942 71.7441 54.8249 72.7465 53.3247C73.749 51.8245 74.284 50.0607 74.284 48.2564C74.2812 45.8378 73.3192 43.519 71.609 41.8088C69.8988 40.0985 67.58 39.1365 65.1613 39.1338Z" fill="#AFCAE2"/>
<path d="M65.9492 37.001H63.8107V39.252H65.9492V37.001Z" fill="#AFCAE2"/>
<path d="M69.7631 37.9132L68.6038 39.8428L70.4368 40.9442L71.5962 39.0147L69.7631 37.9132Z" fill="#AFCAE2"/>
<path d="M74.3182 41.5991L72.3494 42.6904L73.3861 44.5608L75.355 43.4695L74.3182 41.5991Z" fill="#AFCAE2"/>
<path d="M73.5137 51.8446L72.3805 53.6582L74.2895 54.8511L75.4227 53.0375L73.5137 51.8446Z" fill="#AFCAE2"/>
<path d="M56.0045 41.5994L54.9678 43.4697L56.9366 44.5611L57.9734 42.6907L56.0045 41.5994Z" fill="#AFCAE2"/>
<path d="M56.8089 51.8452L54.8999 53.0381L56.0331 54.8516L57.9421 53.6588L56.8089 51.8452Z" fill="#AFCAE2"/>
<path d="M60.5596 37.9132L58.7266 39.0146L59.8859 40.9442L61.719 39.8428L60.5596 37.9132Z" fill="#AFCAE2"/>
<path d="M65.9492 57.2607H63.8107V59.5118H65.9492V57.2607Z" fill="#AFCAE2"/>
<path d="M70.4368 55.5685L68.6038 56.6699L69.7631 58.5995L71.5962 57.498L70.4368 55.5685Z" fill="#AFCAE2"/>
<path d="M59.8859 55.5685L58.7266 57.498L60.5596 58.5995L61.719 56.6699L59.8859 55.5685Z" fill="#AFCAE2"/>
<path d="M56.2696 47.3555H53.6809V49.2689H56.2696V47.3555Z" fill="#AFCAE2"/>
<path d="M74.053 49.2695H76.6417V47.3561H74.053V49.2695Z" fill="#AFCAE2"/>
<path d="M82.1568 27.7715C83.6038 27.7715 85.0182 28.2006 86.2213 29.0045C87.4244 29.8084 88.3622 30.951 88.9159 32.2878C89.4696 33.6246 89.6145 35.0956 89.3322 36.5147C89.0499 37.9339 88.3531 39.2375 87.33 40.2606C86.3068 41.2838 85.0033 41.9806 83.5841 42.2629C82.165 42.5451 80.694 42.4003 79.3571 41.8465C78.0203 41.2928 76.8777 40.3551 76.0739 39.152C75.27 37.9489 74.8409 36.5344 74.8409 35.0875C74.8409 33.1472 75.6117 31.2863 76.9837 29.9143C78.3557 28.5423 80.2165 27.7715 82.1568 27.7715ZM82.1568 25.9648C80.3525 25.9648 78.5888 26.4999 77.0886 27.5023C75.5883 28.5047 74.4191 29.9295 73.7286 31.5964C73.0381 33.2633 72.8575 35.0976 73.2095 36.8672C73.5615 38.6368 74.4303 40.2623 75.7061 41.5382C76.982 42.814 78.6075 43.6828 80.3771 44.0348C82.1467 44.3868 83.981 44.2062 85.6479 43.5157C87.3149 42.8252 88.7396 41.656 89.742 40.1558C90.7444 38.6555 91.2795 36.8918 91.2795 35.0875C91.2767 32.6689 90.3147 30.3501 88.6045 28.6398C86.8943 26.9296 84.5755 25.9676 82.1568 25.9648Z" fill="#AFCAE2"/>
<path d="M82.9447 23.832H80.8062V26.0831H82.9447V23.832Z" fill="#AFCAE2"/>
<path d="M86.7584 24.7443L85.599 26.6738L87.432 27.7752L88.5914 25.8457L86.7584 24.7443Z" fill="#AFCAE2"/>
<path d="M91.3137 28.4311L89.3448 29.5225L90.3816 31.3928L92.3504 30.3015L91.3137 28.4311Z" fill="#AFCAE2"/>
<path d="M90.5093 38.6767L89.3761 40.4902L91.2851 41.6831L92.4183 39.8696L90.5093 38.6767Z" fill="#AFCAE2"/>
<path d="M73 28.4314L71.9633 30.3018L73.9321 31.3931L74.9688 29.5227L73 28.4314Z" fill="#AFCAE2"/>
<path d="M73.8044 38.6763L71.8954 39.8691L73.0286 41.6827L74.9376 40.4898L73.8044 38.6763Z" fill="#AFCAE2"/>
<path d="M77.5552 24.7443L75.7222 25.8457L76.8816 27.7752L78.7146 26.6738L77.5552 24.7443Z" fill="#AFCAE2"/>
<path d="M82.9447 44.0918H80.8062V46.3429H82.9447V44.0918Z" fill="#AFCAE2"/>
<path d="M87.4326 42.3996L85.5995 43.501L86.7589 45.4305L88.5919 44.3291L87.4326 42.3996Z" fill="#AFCAE2"/>
<path d="M76.8816 42.4005L75.7222 44.3301L77.5552 45.4315L78.7146 43.502L76.8816 42.4005Z" fill="#AFCAE2"/>
<path d="M73.2651 34.1875H70.6764V36.1009H73.2651V34.1875Z" fill="#AFCAE2"/>
<path d="M91.0485 36.1006H93.6372V34.1872H91.0485V36.1006Z" fill="#AFCAE2"/>
<g opacity="0.5">
<path opacity="0.5" d="M48.1639 42.5415C52.5969 42.5415 56.1906 38.9479 56.1906 34.5149C56.1906 30.0819 52.5969 26.4883 48.1639 26.4883C43.731 26.4883 40.1373 30.0819 40.1373 34.5149C40.1373 38.9479 43.731 42.5415 48.1639 42.5415Z" fill="url(#paint3_linear)"/>
</g>
<path d="M48.1796 42.3213C52.5191 42.3213 56.037 38.8034 56.037 34.4639C56.037 30.1243 52.5191 26.6064 48.1796 26.6064C43.84 26.6064 40.3221 30.1243 40.3221 34.4639C40.3221 38.8034 43.84 42.3213 48.1796 42.3213Z" fill="#F5F5F5"/>
<path d="M52.5021 35.2384C52.5021 37.8521 50.6241 39.1383 48.1859 39.1383C45.7477 39.1383 43.6725 37.8521 43.6725 35.2384C43.6725 32.6247 45.6491 30.5059 48.0873 30.5059C50.5255 30.5059 52.5021 32.6247 52.5021 35.2384Z" fill="#333333"/>
<path d="M48.1858 42.3527C49.7212 42.3552 51.2233 41.9056 52.5048 41.0602C52.2153 39.4779 51.1135 39.3877 51.1135 39.3877H45.0382C45.0382 39.3877 43.9985 39.4731 43.6737 40.9286C44.9946 41.8578 46.5708 42.3552 48.1858 42.3527Z" fill="#0076A8"/>
<path opacity="0.1" d="M46.8795 37.457H49.3096V39.4689C49.3096 39.7732 49.1888 40.065 48.9736 40.2802C48.7584 40.4953 48.4666 40.6162 48.1623 40.6162H48.0268C47.7225 40.6162 47.4307 40.4953 47.2156 40.2802C47.0004 40.065 46.8795 39.7732 46.8795 39.4689V37.457H46.8795Z" fill="#333333"/>
<path d="M47.0984 37.3672H49.0908C49.1488 37.3672 49.2045 37.3903 49.2455 37.4313C49.2866 37.4723 49.3096 37.528 49.3096 37.5861V39.3791C49.3096 39.6833 49.1888 39.9752 48.9736 40.1903C48.7584 40.4055 48.4666 40.5264 48.1623 40.5264H48.0268C47.7225 40.5264 47.4307 40.4055 47.2156 40.1903C47.0004 39.9752 46.8795 39.6833 46.8795 39.3791V37.5861C46.8795 37.528 46.9026 37.4723 46.9436 37.4313C46.9847 37.3902 47.0403 37.3672 47.0984 37.3672V37.3672Z" fill="#FDA57D"/>
<path opacity="0.1" d="M46.8839 38.3748C47.6671 38.6674 48.5292 38.6698 49.314 38.3815V38.083H46.8839V38.3748Z" fill="#333333"/>
<path d="M48.1035 38.5377C50.0273 38.5377 51.5867 36.9782 51.5867 35.0545C51.5867 33.1308 50.0273 31.5713 48.1035 31.5713C46.1798 31.5713 44.6204 33.1308 44.6204 35.0545C44.6204 36.9782 46.1798 38.5377 48.1035 38.5377Z" fill="#FDA57D"/>
<path opacity="0.1" d="M44.0887 35.282C44.0887 35.282 46.2578 35.0191 47.901 32.9158C47.901 32.9158 50.0701 35.3039 51.5819 35.041C51.5819 35.041 52.4583 34.1208 51.5819 33.2006C50.7055 32.2804 50.0263 31.1192 48.8651 31.2725C47.7039 31.4259 46.2797 31.4916 45.6663 32.0394C45.0528 32.5871 44.0887 35.282 44.0887 35.282Z" fill="#333333"/>
<path d="M44.0887 35.2381C44.0887 35.2381 46.2578 34.9752 47.901 32.8718C47.901 32.8718 50.0701 35.26 51.5819 34.9971C51.5819 34.9971 52.4583 34.0769 51.5819 33.1566C50.7055 32.2364 50.0263 31.0752 48.8651 31.2286C47.7039 31.382 46.2797 31.4477 45.6663 31.9954C45.0528 32.5432 44.0887 35.2381 44.0887 35.2381Z" fill="#333333"/>
<path d="M44.6189 35.6584C44.7979 35.6584 44.943 35.3864 44.943 35.0509C44.943 34.7154 44.7979 34.4434 44.6189 34.4434C44.44 34.4434 44.2949 34.7154 44.2949 35.0509C44.2949 35.3864 44.44 35.6584 44.6189 35.6584Z" fill="#FDA57D"/>
<path d="M51.5862 35.6584C51.7652 35.6584 51.9102 35.3864 51.9102 35.0509C51.9102 34.7154 51.7652 34.4434 51.5862 34.4434C51.4073 34.4434 51.2622 34.7154 51.2622 35.0509C51.2622 35.3864 51.4073 35.6584 51.5862 35.6584Z" fill="#FDA57D"/>
<path d="M48.1613 27.209C48.2471 27.209 48.3333 27.2105 48.4197 27.2135C50.3364 27.2801 52.1503 28.0968 53.4709 29.4876C54.7915 30.8784 55.5132 32.7321 55.4805 34.6497C55.4478 36.5673 54.6634 38.3954 53.2962 39.7405C51.929 41.0855 50.0883 41.8398 48.1704 41.8411C48.0846 41.8411 47.9984 41.8396 47.912 41.8366C45.9953 41.77 44.1814 40.9534 42.8608 39.5626C41.5402 38.1718 40.8185 36.318 40.8512 34.4004C40.8839 32.4828 41.6683 30.6547 43.0355 29.3097C44.4027 27.9647 46.2434 27.2103 48.1613 27.209ZM48.1618 25.4023V27.209L48.1617 25.4023C45.77 25.4035 43.4743 26.3438 41.7691 28.0208C40.0639 29.6979 39.0855 31.9775 39.0446 34.3689C39.0036 36.7602 39.9034 39.072 41.5502 40.8064C43.197 42.5409 45.4591 43.5592 47.8494 43.6422C47.956 43.6459 48.0641 43.6478 48.1704 43.6478C50.5621 43.6466 52.8577 42.7062 54.5628 41.0291C56.268 39.352 57.2463 37.0724 57.2872 34.6811C57.3281 32.2898 56.4283 29.978 54.7814 28.2436C53.1346 26.5092 50.8726 25.4909 48.4824 25.4079C48.3757 25.4042 48.2678 25.4023 48.1618 25.4023Z" fill="#AFCAE2"/>
<path d="M47.2065 23.2298L47.1284 25.4795L49.2656 25.5537L49.3437 23.304L47.2065 23.2298Z" fill="#AFCAE2"/>
<path d="M53.1238 24.3472L51.8982 26.2354L53.6919 27.3997L54.9176 25.5116L53.1238 24.3472Z" fill="#AFCAE2"/>
<path d="M57.5481 28.1895L55.5426 29.2119L56.5139 31.1171L58.5194 30.0948L57.5481 28.1895Z" fill="#AFCAE2"/>
<path d="M56.3887 38.4007L55.1932 40.1738L57.0597 41.4322L58.2552 39.6591L56.3887 38.4007Z" fill="#AFCAE2"/>
<path d="M39.2456 27.5544L38.1445 29.3877L40.0743 30.5467L41.1753 28.7134L39.2456 27.5544Z" fill="#AFCAE2"/>
<path d="M39.694 37.8213L37.7448 38.9473L38.8144 40.799L40.7636 39.6731L39.694 37.8213Z" fill="#AFCAE2"/>
<path d="M43.9258 24.0283L42.0557 25.0654L43.1474 27.034L45.0176 25.9969L43.9258 24.0283Z" fill="#AFCAE2"/>
<path d="M46.5036 43.4769L46.4255 45.7266L48.5628 45.8008L48.6409 43.5511L46.5036 43.4769Z" fill="#AFCAE2"/>
<path d="M53.1844 42.0156L51.3142 43.0527L52.4059 45.0213L54.2761 43.9842L53.1844 42.0156Z" fill="#AFCAE2"/>
<path d="M42.6401 41.6499L41.4144 43.5381L43.2082 44.7024L44.4338 42.8143L42.6401 41.6499Z" fill="#AFCAE2"/>
<path d="M39.3109 33.3164L36.7238 33.2266L36.6574 35.1388L39.2445 35.2286L39.3109 33.3164Z" fill="#AFCAE2"/>
<path d="M57.0171 35.8457L59.6042 35.9355L59.6706 34.0233L57.0835 33.9335L57.0171 35.8457Z" fill="#AFCAE2"/>
<g opacity="0.5">
<path opacity="0.5" d="M51.8536 73.2984C56.2866 73.2984 59.8803 69.7047 59.8803 65.2717C59.8803 60.8388 56.2866 57.2451 51.8536 57.2451C47.4207 57.2451 43.827 60.8388 43.827 65.2717C43.827 69.7047 47.4207 73.2984 51.8536 73.2984Z" fill="url(#paint4_linear)"/>
</g>
<path d="M51.8693 73.0781C56.2088 73.0781 59.7267 69.5602 59.7267 65.2207C59.7267 60.8812 56.2088 57.3633 51.8693 57.3633C47.5297 57.3633 44.0118 60.8812 44.0118 65.2207C44.0118 69.5602 47.5297 73.0781 51.8693 73.0781Z" fill="#F5F5F5"/>
<path d="M56.1918 65.9952C56.1918 68.6089 54.3138 69.8951 51.8756 69.8951C49.4374 69.8951 47.3622 68.6089 47.3622 65.9952C47.3622 63.3815 49.3388 61.2627 51.777 61.2627C54.2152 61.2627 56.1918 63.3815 56.1918 65.9952Z" fill="#333333"/>
<path d="M51.8755 73.1095C53.4109 73.112 54.913 72.6625 56.1946 71.817C55.905 70.2348 54.8032 70.1445 54.8032 70.1445H48.7279C48.7279 70.1445 47.6882 70.2299 47.3634 71.6855C48.6843 72.6146 50.2605 73.1121 51.8755 73.1095Z" fill="#0076A8"/>
<path opacity="0.1" d="M50.5692 68.2139H52.9993V70.2257C52.9993 70.53 52.8785 70.8218 52.6633 71.037C52.4481 71.2522 52.1563 71.373 51.852 71.373H51.7165C51.4122 71.373 51.1204 71.2522 50.9053 71.037C50.6901 70.8218 50.5692 70.53 50.5692 70.2257V68.2139H50.5692Z" fill="#333333"/>
<path d="M50.7881 68.124H52.7805C52.8385 68.124 52.8942 68.1471 52.9352 68.1881C52.9763 68.2292 52.9993 68.2849 52.9993 68.3429V70.1359C52.9993 70.4402 52.8785 70.732 52.6633 70.9472C52.4481 71.1623 52.1563 71.2832 51.852 71.2832H51.7165C51.4122 71.2832 51.1204 71.1623 50.9053 70.9472C50.6901 70.732 50.5692 70.4402 50.5692 70.1359V68.3429C50.5692 68.2849 50.5923 68.2292 50.6333 68.1881C50.6744 68.1471 50.73 68.124 50.7881 68.124V68.124Z" fill="#FDA57D"/>
<path opacity="0.1" d="M50.5736 69.1316C51.3568 69.4243 52.2189 69.4267 53.0037 69.1384V68.8398H50.5736V69.1316Z" fill="#333333"/>
<path d="M51.7932 69.2945C53.7169 69.2945 55.2764 67.735 55.2764 65.8113C55.2764 63.8876 53.7169 62.3281 51.7932 62.3281C49.8695 62.3281 48.3101 63.8876 48.3101 65.8113C48.3101 67.735 49.8695 69.2945 51.7932 69.2945Z" fill="#FDA57D"/>
<path opacity="0.1" d="M47.7784 66.0389C47.7784 66.0389 49.9475 65.7759 51.5907 63.6726C51.5907 63.6726 53.7598 66.0608 55.2716 65.7978C55.2716 65.7978 56.148 64.8776 55.2716 63.9574C54.3952 63.0372 53.716 61.876 52.5548 62.0294C51.3935 62.1827 49.9694 62.2485 49.3559 62.7962C48.7425 63.344 47.7784 66.0389 47.7784 66.0389Z" fill="#333333"/>
<path d="M47.7784 65.9949C47.7784 65.9949 49.9475 65.732 51.5907 63.6287C51.5907 63.6287 53.7598 66.0168 55.2716 65.7539C55.2716 65.7539 56.148 64.8337 55.2716 63.9135C54.3952 62.9933 53.716 61.8321 52.5548 61.9854C51.3935 62.1388 49.9694 62.2045 49.3559 62.7523C48.7425 63.3 47.7784 65.9949 47.7784 65.9949Z" fill="#333333"/>
<path d="M48.3086 66.4153C48.4876 66.4153 48.6327 66.1433 48.6327 65.8077C48.6327 65.4722 48.4876 65.2002 48.3086 65.2002C48.1297 65.2002 47.9846 65.4722 47.9846 65.8077C47.9846 66.1433 48.1297 66.4153 48.3086 66.4153Z" fill="#FDA57D"/>
<path d="M55.2759 66.4153C55.4549 66.4153 55.5999 66.1433 55.5999 65.8077C55.5999 65.4722 55.4549 65.2002 55.2759 65.2002C55.097 65.2002 54.9519 65.4722 54.9519 65.8077C54.9519 66.1433 55.097 66.4153 55.2759 66.4153Z" fill="#FDA57D"/>
<path d="M51.851 57.9659C51.9368 57.9659 52.023 57.9674 52.1094 57.9704C54.0261 58.037 55.84 58.8536 57.1606 60.2444C58.4812 61.6352 59.2029 63.489 59.1702 65.4066C59.1375 67.3242 58.3531 69.1523 56.9859 70.4973C55.6187 71.8423 53.778 72.5966 51.8601 72.5979C51.7743 72.5979 51.6881 72.5964 51.6017 72.5934C49.685 72.5268 47.8711 71.7102 46.5505 70.3194C45.2299 68.9286 44.5082 67.0748 44.5409 65.1572C44.5736 63.2396 45.358 61.4115 46.7252 60.0665C48.0924 58.7215 49.9331 57.9672 51.851 57.9659ZM51.8515 56.1592V57.9659L51.8513 56.1592C49.4596 56.1603 47.164 57.1006 45.4588 58.7777C43.7536 60.4547 42.7752 62.7343 42.7342 65.1257C42.6933 67.517 43.5931 69.8288 45.2399 71.5633C46.8867 73.2977 49.1488 74.3161 51.5391 74.3991C51.6457 74.4028 51.7537 74.4046 51.8601 74.4046C54.2518 74.4034 56.5474 73.463 58.2525 71.786C59.9576 70.1089 60.936 67.8293 60.9769 65.4379C61.0178 63.0466 60.1179 60.7349 58.4711 59.0005C56.8243 57.2661 54.5623 56.2477 52.1721 56.1648C52.0654 56.1611 51.9575 56.1592 51.8515 56.1592Z" fill="#AFCAE2"/>
<path d="M50.8963 53.9866L50.8182 56.2363L52.9555 56.3105L53.0336 54.0608L50.8963 53.9866Z" fill="#AFCAE2"/>
<path d="M56.8135 55.104L55.5879 56.9922L57.3816 58.1565L58.6073 56.2684L56.8135 55.104Z" fill="#AFCAE2"/>
<path d="M61.2378 58.9464L59.2323 59.9688L60.2036 61.874L62.209 60.8516L61.2378 58.9464Z" fill="#AFCAE2"/>
<path d="M60.0784 69.1575L58.8829 70.9307L60.7494 72.1891L61.9449 70.4159L60.0784 69.1575Z" fill="#AFCAE2"/>
<path d="M42.9353 58.3113L41.8342 60.1445L43.764 61.3035L44.865 59.4702L42.9353 58.3113Z" fill="#AFCAE2"/>
<path d="M43.3837 68.5782L41.4344 69.7041L42.5041 71.5559L44.4533 70.43L43.3837 68.5782Z" fill="#AFCAE2"/>
<path d="M47.6155 54.7851L45.7454 55.8223L46.8371 57.7909L48.7073 56.7537L47.6155 54.7851Z" fill="#AFCAE2"/>
<path d="M50.1933 74.2337L50.1152 76.4834L52.2524 76.5576L52.3305 74.3079L50.1933 74.2337Z" fill="#AFCAE2"/>
<path d="M56.8741 72.7724L55.0039 73.8096L56.0956 75.7782L57.9658 74.741L56.8741 72.7724Z" fill="#AFCAE2"/>
<path d="M46.3297 72.4068L45.1041 74.2949L46.8979 75.4593L48.1235 73.5711L46.3297 72.4068Z" fill="#AFCAE2"/>
<path d="M43.0006 64.0732L40.4135 63.9834L40.3471 65.8956L42.9342 65.9855L43.0006 64.0732Z" fill="#AFCAE2"/>
<path d="M60.7068 66.6026L63.2939 66.6924L63.3603 64.7801L60.7732 64.6903L60.7068 66.6026Z" fill="#AFCAE2"/>
</g>
<g opacity="0.5">
<path opacity="0.5" d="M116.377 43.1138C120.81 43.1138 124.403 39.5201 124.403 35.0872C124.403 30.6542 120.81 27.0605 116.377 27.0605C111.944 27.0605 108.35 30.6542 108.35 35.0872C108.35 39.5201 111.944 43.1138 116.377 43.1138Z" fill="url(#paint5_linear)"/>
</g>
<path d="M116.392 42.8935C120.732 42.8935 124.25 39.3757 124.25 35.0361C124.25 30.6966 120.732 27.1787 116.392 27.1787C112.053 27.1787 108.535 30.6966 108.535 35.0361C108.535 39.3757 112.053 42.8935 116.392 42.8935Z" fill="#F5F5F5"/>
<path d="M116.398 42.924C117.934 42.9264 119.436 42.4769 120.718 41.6315C120.428 40.0492 119.326 39.959 119.326 39.959H113.251C113.251 39.959 112.211 40.0444 111.886 41.4999C113.207 42.4291 114.783 42.9265 116.398 42.924Z" fill="#0076A8"/>
<path d="M116.316 38.6633C118.411 38.6633 120.109 36.9653 120.109 34.8707C120.109 32.7761 118.411 31.0781 116.316 31.0781C114.222 31.0781 112.524 32.7761 112.524 34.8707C112.524 36.9653 114.222 38.6633 116.316 38.6633Z" fill="#72351C"/>
<path opacity="0.1" d="M115.092 38.0293H117.522V40.0412C117.522 40.3454 117.401 40.6373 117.186 40.8524C116.971 41.0676 116.679 41.1885 116.375 41.1885H116.239C115.935 41.1885 115.643 41.0676 115.428 40.8524C115.213 40.6373 115.092 40.3454 115.092 40.0412V38.0293Z" fill="#333333"/>
<path d="M115.311 37.9395H117.303C117.361 37.9395 117.417 37.9625 117.458 38.0036C117.499 38.0446 117.522 38.1003 117.522 38.1583V39.9513C117.522 40.2556 117.401 40.5474 117.186 40.7626C116.971 40.9777 116.679 41.0986 116.375 41.0986H116.239C115.935 41.0986 115.643 40.9777 115.428 40.7626C115.213 40.5474 115.092 40.2556 115.092 39.9513V38.1583C115.092 38.1003 115.115 38.0446 115.156 38.0036C115.197 37.9625 115.253 37.9395 115.311 37.9395Z" fill="#FDA57D"/>
<path opacity="0.1" d="M115.097 38.9471C115.88 39.2397 116.742 39.2421 117.527 38.9538V38.6553H115.097V38.9471Z" fill="#333333"/>
<path d="M116.316 39.1099C118.24 39.1099 119.799 37.5504 119.799 35.6267C119.799 33.703 118.24 32.1436 116.316 32.1436C114.392 32.1436 112.833 33.703 112.833 35.6267C112.833 37.5504 114.392 39.1099 116.316 39.1099Z" fill="#FDA57D"/>
<path opacity="0.1" d="M113.835 32.4584C113.835 32.4584 115.303 35.4381 119.444 33.7073L118.48 32.1955L116.771 31.582L113.835 32.4584Z" fill="#333333"/>
<path d="M113.835 32.4145C113.835 32.4145 115.303 35.3942 119.444 33.6633L118.48 32.1516L116.771 31.5381L113.835 32.4145Z" fill="#72351C"/>
<path d="M113.822 32.2133C113.921 31.9068 114.092 31.6286 114.321 31.402C115.006 30.7248 116.129 30.5818 116.705 29.8096C116.737 29.8642 116.756 29.9248 116.763 29.9875C116.769 30.0501 116.763 30.1135 116.743 30.1734C116.724 30.2333 116.692 30.2885 116.65 30.3353C116.608 30.3822 116.556 30.4198 116.499 30.4455C117.05 30.442 117.69 30.3937 118.002 29.9392C118.08 30.1187 118.104 30.3165 118.073 30.5095C118.042 30.7025 117.958 30.8828 117.828 31.0294C118.318 31.0516 118.84 31.3836 118.871 31.8723C118.892 32.1979 118.688 32.5062 118.421 32.6929C118.143 32.8655 117.833 32.9819 117.511 33.0356C116.581 33.2407 113.215 34.1002 113.822 32.2133Z" fill="#72351C"/>
<path d="M119.799 35.6562H119.707L117.91 37.2557C116.179 36.445 114.909 37.2557 114.909 37.2557L113.024 35.722L112.834 35.7459C112.86 36.66 113.245 37.5274 113.904 38.1607C114.564 38.794 115.447 39.1423 116.361 39.1306C117.275 39.1188 118.149 38.7478 118.792 38.0978C119.435 37.4478 119.797 36.5708 119.799 35.6563V35.6562ZM116.311 37.8691C115.633 37.8691 115.084 37.7318 115.084 37.5624C115.084 37.393 115.633 37.2557 116.311 37.2557C116.989 37.2557 117.538 37.393 117.538 37.5624C117.538 37.7318 116.989 37.8691 116.311 37.8691Z" fill="#72351C"/>
<path d="M112.832 36.2307C113.011 36.2307 113.156 35.9587 113.156 35.6232C113.156 35.2876 113.011 35.0156 112.832 35.0156C112.653 35.0156 112.508 35.2876 112.508 35.6232C112.508 35.9587 112.653 36.2307 112.832 36.2307Z" fill="#FDA57D"/>
<path d="M119.799 36.2307C119.978 36.2307 120.123 35.9587 120.123 35.6232C120.123 35.2876 119.978 35.0156 119.799 35.0156C119.62 35.0156 119.475 35.2876 119.475 35.6232C119.475 35.9587 119.62 36.2307 119.799 36.2307Z" fill="#FDA57D"/>
<g opacity="0.5">
<path opacity="0.5" d="M99.3811 56.2827C103.814 56.2827 107.408 52.6891 107.408 48.2561C107.408 43.8231 103.814 40.2295 99.3811 40.2295C94.9481 40.2295 91.3545 43.8231 91.3545 48.2561C91.3545 52.6891 94.9481 56.2827 99.3811 56.2827Z" fill="url(#paint6_linear)"/>
</g>
<path d="M99.3812 56.0693C103.721 56.0693 107.239 52.5514 107.239 48.2119C107.239 43.8724 103.721 40.3545 99.3812 40.3545C95.0417 40.3545 91.5238 43.8724 91.5238 48.2119C91.5238 52.5514 95.0417 56.0693 99.3812 56.0693Z" fill="#F5F5F5"/>
<path d="M96.3144 48.2822C96.3144 48.2822 95.4234 52.671 94.9374 52.4279C94.9374 52.4279 99.6266 56.4782 103.767 52.4279C103.767 52.4279 103.038 49.3353 101.985 48.2822H96.3144Z" fill="#333333"/>
<path d="M99.403 56.0929C100.938 56.0954 102.44 55.6459 103.722 54.8004C103.433 53.2182 102.331 53.1279 102.331 53.1279H96.2554C96.2554 53.1279 95.2156 53.2133 94.8909 54.6689C96.2118 55.598 97.788 56.0955 99.403 56.0929Z" fill="#0076A8"/>
<path d="M99.3206 51.522C101.244 51.522 102.804 49.9625 102.804 48.0388C102.804 46.1151 101.244 44.5557 99.3206 44.5557C97.3969 44.5557 95.8374 46.1151 95.8374 48.0388C95.8374 49.9625 97.3969 51.522 99.3206 51.522Z" fill="#333333"/>
<path opacity="0.1" d="M98.0967 51.1982H100.527V53.2101C100.527 53.5144 100.406 53.8062 100.191 54.0214C99.9756 54.2365 99.6838 54.3574 99.3795 54.3574H99.244C98.9397 54.3574 98.6479 54.2365 98.4327 54.0214C98.2176 53.8062 98.0967 53.5144 98.0967 53.2101V51.1982Z" fill="#333333"/>
<path d="M98.3156 51.1084H100.308C100.366 51.1084 100.422 51.1315 100.463 51.1725C100.504 51.2136 100.527 51.2692 100.527 51.3273V53.1203C100.527 53.4245 100.406 53.7164 100.191 53.9315C99.9756 54.1467 99.6838 54.2676 99.3795 54.2676H99.244C98.9397 54.2676 98.6479 54.1467 98.4327 53.9315C98.2176 53.7164 98.0967 53.4245 98.0967 53.1203V51.3273C98.0967 51.2692 98.1197 51.2136 98.1608 51.1725C98.2018 51.1315 98.2575 51.1084 98.3156 51.1084H98.3156Z" fill="#BE7C5E"/>
<path opacity="0.1" d="M98.1011 52.116C98.8843 52.4087 99.7464 52.411 100.531 52.1227V51.8242H98.1011V52.116Z" fill="#333333"/>
<path d="M99.3206 52.2789C101.244 52.2789 102.804 50.7194 102.804 48.7957C102.804 46.872 101.244 45.3125 99.3206 45.3125C97.3969 45.3125 95.8374 46.872 95.8374 48.7957C95.8374 50.7194 97.3969 52.2789 99.3206 52.2789Z" fill="#BE7C5E"/>
<path d="M95.9904 47.4721H102.633C102.633 47.4721 102.066 44.79 99.5545 44.961C97.0434 45.132 95.9904 47.4721 95.9904 47.4721Z" fill="#333333"/>
<path d="M95.9095 49.2541C96.0884 49.2541 96.2335 48.9821 96.2335 48.6466C96.2335 48.3111 96.0884 48.0391 95.9095 48.0391C95.7305 48.0391 95.5854 48.3111 95.5854 48.6466C95.5854 48.9821 95.7305 49.2541 95.9095 49.2541Z" fill="#BE7C5E"/>
<path d="M102.714 49.2541C102.893 49.2541 103.038 48.9821 103.038 48.6466C103.038 48.3111 102.893 48.0391 102.714 48.0391C102.535 48.0391 102.39 48.3111 102.39 48.6466C102.39 48.9821 102.535 49.2541 102.714 49.2541Z" fill="#BE7C5E"/>
<path opacity="0.1" d="M95.9904 47.5619H102.633C102.633 47.5619 102.066 44.8798 99.5545 45.0508C97.0434 45.2218 95.9904 47.5619 95.9904 47.5619Z" fill="#333333"/>
<path d="M99.3811 40.9405C100.828 40.9405 102.242 41.3696 103.446 42.1734C104.649 42.9773 105.586 44.1199 106.14 45.4567C106.694 46.7936 106.839 48.2646 106.556 49.6837C106.274 51.1029 105.577 52.4064 104.554 53.4296C103.531 54.4527 102.227 55.1495 100.808 55.4318C99.3892 55.7141 97.9182 55.5692 96.5814 55.0155C95.2446 54.4618 94.102 53.5241 93.2981 52.3209C92.4942 51.1178 92.0651 49.7034 92.0651 48.2564C92.0651 47.2957 92.2544 46.3443 92.622 45.4567C92.9897 44.5691 93.5286 43.7626 94.2079 43.0833C94.8873 42.4039 95.6938 41.865 96.5814 41.4974C97.469 41.1297 98.4203 40.9405 99.3811 40.9405ZM99.3811 39.1338C97.5768 39.1338 95.813 39.6688 94.3128 40.6712C92.8126 41.6736 91.6433 43.0984 90.9528 44.7653C90.2624 46.4323 90.0817 48.2666 90.4337 50.0362C90.7857 51.8058 91.6546 53.4313 92.9304 54.7071C94.2062 55.9829 95.8317 56.8518 97.6013 57.2038C99.371 57.5558 101.205 57.3751 102.872 56.6847C104.539 55.9942 105.964 54.8249 106.966 53.3247C107.969 51.8245 108.504 50.0607 108.504 48.2564C108.501 45.8378 107.539 43.519 105.829 41.8088C104.118 40.0985 101.8 39.1365 99.3811 39.1338Z" fill="#AFCAE2"/>
<path d="M100.169 37.001H98.0304V39.252H100.169V37.001Z" fill="#AFCAE2"/>
<path d="M103.983 37.9123L102.823 39.8418L104.657 40.9432L105.816 39.0137L103.983 37.9123Z" fill="#AFCAE2"/>
<path d="M108.538 41.5991L106.569 42.6904L107.606 44.5608L109.575 43.4695L108.538 41.5991Z" fill="#AFCAE2"/>
<path d="M107.733 51.8446L106.6 53.6582L108.509 54.8511L109.642 53.0375L107.733 51.8446Z" fill="#AFCAE2"/>
<path d="M90.2243 41.5994L89.1875 43.4697L91.1563 44.5611L92.1931 42.6907L90.2243 41.5994Z" fill="#AFCAE2"/>
<path d="M91.0286 51.8442L89.1196 53.0371L90.2529 54.8507L92.1619 53.6578L91.0286 51.8442Z" fill="#AFCAE2"/>
<path d="M94.7793 37.9123L92.9463 39.0137L94.1057 40.9432L95.9387 39.8418L94.7793 37.9123Z" fill="#AFCAE2"/>
<path d="M100.169 57.2607H98.0304V59.5118H100.169V57.2607Z" fill="#AFCAE2"/>
<path d="M104.657 55.5685L102.823 56.6699L103.983 58.5995L105.816 57.498L104.657 55.5685Z" fill="#AFCAE2"/>
<path d="M94.1057 55.5685L92.9463 57.498L94.7793 58.5995L95.9387 56.6699L94.1057 55.5685Z" fill="#AFCAE2"/>
<path d="M90.4895 47.3555H87.9008V49.2689H90.4895V47.3555Z" fill="#AFCAE2"/>
<path d="M108.273 49.2686H110.861V47.3552H108.273V49.2686Z" fill="#AFCAE2"/>
<path d="M116.377 27.7715C117.824 27.7715 119.238 28.2006 120.441 29.0045C121.644 29.8084 122.582 30.951 123.136 32.2878C123.689 33.6246 123.834 35.0956 123.552 36.5147C123.27 37.9339 122.573 39.2375 121.55 40.2606C120.527 41.2838 119.223 41.9806 117.804 42.2629C116.385 42.5451 114.914 42.4003 113.577 41.8465C112.24 41.2928 111.097 40.3551 110.294 39.152C109.49 37.9489 109.061 36.5344 109.061 35.0875C109.061 33.1472 109.831 31.2863 111.203 29.9143C112.575 28.5423 114.436 27.7715 116.377 27.7715ZM116.377 25.9648C114.572 25.9648 112.808 26.4999 111.308 27.5023C109.808 28.5047 108.639 29.9295 107.948 31.5964C107.258 33.2633 107.077 35.0976 107.429 36.8672C107.781 38.6368 108.65 40.2623 109.926 41.5382C111.202 42.814 112.827 43.6828 114.597 44.0348C116.366 44.3868 118.201 44.2062 119.868 43.5157C121.535 42.8252 122.959 41.656 123.962 40.1558C124.964 38.6555 125.499 36.8918 125.499 35.0875C125.496 32.6689 124.534 30.3501 122.824 28.6398C121.114 26.9296 118.795 25.9676 116.377 25.9648Z" fill="#AFCAE2"/>
<path d="M117.164 23.832H115.026V26.0831H117.164V23.832Z" fill="#AFCAE2"/>
<path d="M120.978 24.7443L119.819 26.6738L121.652 27.7752L122.811 25.8457L120.978 24.7443Z" fill="#AFCAE2"/>
<path d="M125.533 28.4301L123.565 29.5215L124.601 31.3919L126.57 30.3005L125.533 28.4301Z" fill="#AFCAE2"/>
<path d="M124.729 38.6757L123.596 40.4893L125.505 41.6821L126.638 39.8686L124.729 38.6757Z" fill="#AFCAE2"/>
<path d="M107.22 28.4304L106.183 30.3008L108.152 31.3921L109.189 29.5217L107.22 28.4304Z" fill="#AFCAE2"/>
<path d="M108.024 38.6763L106.115 39.8691L107.248 41.6827L109.157 40.4898L108.024 38.6763Z" fill="#AFCAE2"/>
<path d="M111.775 24.7433L109.942 25.8447L111.101 27.7743L112.934 26.6728L111.775 24.7433Z" fill="#AFCAE2"/>
<path d="M117.164 44.0918H115.026V46.3429H117.164V44.0918Z" fill="#AFCAE2"/>
<path d="M121.652 42.3996L119.819 43.501L120.979 45.4305L122.812 44.3291L121.652 42.3996Z" fill="#AFCAE2"/>
<path d="M111.101 42.3996L109.942 44.3291L111.775 45.4305L112.934 43.501L111.101 42.3996Z" fill="#AFCAE2"/>
<path d="M107.485 34.1865H104.896V36.0999H107.485V34.1865Z" fill="#AFCAE2"/>
<path d="M125.268 36.0996H127.857V34.1862H125.268V36.0996Z" fill="#AFCAE2"/>
<defs>
<linearGradient id="paint0_linear" x1="96.8014" y1="136.902" x2="1.76763" y2="85.1449" gradientUnits="userSpaceOnUse">
<stop stop-color="#00ABAB"/>
<stop offset="1" stop-color="#0076A8"/>
</linearGradient>
<linearGradient id="paint1_linear" x1="10089.2" y1="3030.69" x2="10089.2" y2="605.819" gradientUnits="userSpaceOnUse">
<stop stop-color="#808080" stop-opacity="0.25"/>
<stop offset="0.53514" stop-color="#808080" stop-opacity="0.12"/>
<stop offset="1" stop-color="#808080" stop-opacity="0.1"/>
</linearGradient>
<linearGradient id="paint2_linear" x1="7504.96" y1="5033.01" x2="7504.96" y2="2608.14" gradientUnits="userSpaceOnUse">
<stop stop-color="#808080" stop-opacity="0.25"/>
<stop offset="0.53514" stop-color="#808080" stop-opacity="0.12"/>
<stop offset="1" stop-color="#808080" stop-opacity="0.1"/>
</linearGradient>
<linearGradient id="paint3_linear" x1="48.1639" y1="42.5415" x2="48.1639" y2="26.4883" gradientUnits="userSpaceOnUse">
<stop stop-color="#808080" stop-opacity="0.25"/>
<stop offset="0.53514" stop-color="#808080" stop-opacity="0.12"/>
<stop offset="1" stop-color="#808080" stop-opacity="0.1"/>
</linearGradient>
<linearGradient id="paint4_linear" x1="51.8536" y1="73.2984" x2="51.8536" y2="57.2451" gradientUnits="userSpaceOnUse">
<stop stop-color="#808080" stop-opacity="0.25"/>
<stop offset="0.53514" stop-color="#808080" stop-opacity="0.12"/>
<stop offset="1" stop-color="#808080" stop-opacity="0.1"/>
</linearGradient>
<linearGradient id="paint5_linear" x1="10123.4" y1="3030.69" x2="10123.4" y2="605.818" gradientUnits="userSpaceOnUse">
<stop stop-color="#808080" stop-opacity="0.25"/>
<stop offset="0.53514" stop-color="#808080" stop-opacity="0.12"/>
<stop offset="1" stop-color="#808080" stop-opacity="0.1"/>
</linearGradient>
<linearGradient id="paint6_linear" x1="7539.18" y1="5033.01" x2="7539.18" y2="2608.14" gradientUnits="userSpaceOnUse">
<stop stop-color="#808080" stop-opacity="0.25"/>
<stop offset="0.53514" stop-color="#808080" stop-opacity="0.12"/>
<stop offset="1" stop-color="#808080" stop-opacity="0.1"/>
</linearGradient>
<clipPath id="clip0">
<rect width="77.7824" height="83.5355" fill="white" transform="translate(15.8549 23.2295)"/>
</clipPath>
</defs>
</svg>
