<svg width="158" height="119" viewBox="0 0 158 119" fill="none" xmlns="http://www.w3.org/2000/svg">
<path opacity="0.2" fill-rule="evenodd" clip-rule="evenodd" d="M78.4358 95.1005C66.795 92.5125 53.4697 94.667 44.4077 87.2952C34.885 79.5486 28.9176 67.0534 31.4429 56.8723C33.9097 46.9266 49.8637 45.9787 56.6265 38.0328C63.4895 29.9691 59.721 14.7886 70.5446 10.9298C81.1737 7.14027 93.4925 16.4921 104.947 20.8055C116.108 25.0083 128.705 27.3443 136.414 35.7337C144.337 44.3561 146.887 55.5722 146.389 65.9057C145.913 75.7859 141.388 84.937 133.722 91.5824C126.633 97.7281 116.397 100.308 105.935 100.974C96.6245 101.566 87.8193 97.1867 78.4358 95.1005Z" fill="url(#paint0_linear)"/>
<path d="M123.345 97.2512C141.698 97.2512 156.577 96.538 156.577 95.6583C156.577 94.7786 141.698 94.0654 123.345 94.0654C104.992 94.0654 90.1132 94.7786 90.1132 95.6583C90.1132 96.538 104.992 97.2512 123.345 97.2512Z" fill="#AFCAE2"/>
<path d="M123.263 63.3963L125.767 73.134C125.767 73.134 125.86 79.9968 126.416 82.6862C126.973 85.3757 128.827 91.8675 128.827 91.8675L131.053 92.2384L130.589 83.1499C130.589 83.1499 130.589 77.6783 130.126 76.4726C129.662 75.267 128.735 62.9326 128.735 62.9326L123.263 63.3963Z" fill="#FFB8B8"/>
<path opacity="0.1" d="M123.263 63.3963L125.767 73.134C125.767 73.134 125.86 79.9968 126.416 82.6862C126.973 85.3757 128.827 91.8675 128.827 91.8675L131.053 92.2384L130.589 83.1499C130.589 83.1499 130.589 77.6783 130.126 76.4726C129.662 75.267 128.735 62.9326 128.735 62.9326L123.263 63.3963Z" fill="black"/>
<path d="M130.205 22.582H130.205C127.114 22.582 124.608 25.3631 124.608 28.7938V33.1525H125.948L126.724 31.5375L126.53 33.1525H135.147L135.852 31.6843L135.676 33.1525H136.646V29.7301C136.646 25.7823 133.762 22.582 130.205 22.582Z" fill="#2F2E41"/>
<path d="M120.898 61.8662C120.898 61.8662 119.785 66.5959 121.269 67.0596C122.753 67.5233 122.382 61.8662 122.382 61.8662H120.898Z" fill="#FFB8B8"/>
<path d="M122.753 37.8467L122.011 38.6814L122.196 54.7253L120.527 62.3301L124.237 62.701L126.091 47.3989L125.535 39.6088L122.753 37.8467Z" fill="#3F3D56"/>
<path opacity="0.1" d="M122.753 37.8467L122.011 38.6814L122.196 54.7253L120.527 62.3301L124.237 62.701L126.091 47.3989L125.535 39.6088L122.753 37.8467Z" fill="black"/>
<path d="M129.71 32.5436C131.91 32.5436 133.694 30.7596 133.694 28.5589C133.694 26.3582 131.91 24.5742 129.71 24.5742C127.509 24.5742 125.725 26.3582 125.725 28.5589C125.725 30.7596 127.509 32.5436 129.71 32.5436Z" fill="#FFB8B8"/>
<path d="M127.425 30.9495C127.425 30.9495 128.594 37.0062 128.063 37.6438C127.532 38.2813 133.695 36.4749 133.695 36.4749C133.695 36.4749 131.676 32.3309 132.738 29.9932L127.425 30.9495Z" fill="#FFB8B8"/>
<path d="M137.498 57.5078C137.498 57.5078 138.611 62.2375 137.127 62.7012C135.644 63.1649 136.015 57.5078 136.015 57.5078H137.498Z" fill="#FFB8B8"/>
<path d="M128.92 62.2842C128.92 62.2842 127.343 71.7436 127.436 73.1347C127.529 74.5258 127.436 74.7113 127.436 74.7113C127.436 74.7113 125.86 78.7919 125.396 81.1104C124.932 83.4289 123.912 86.3965 123.912 86.3965C123.912 86.3965 122.706 89.086 123.726 89.086C124.747 89.086 126.138 88.715 126.138 88.715C126.134 87.6438 126.494 86.603 127.158 85.7625C128.271 84.3563 131.609 77.7717 131.609 76.9371C131.609 76.1024 132.166 73.6912 132.166 73.6912L134.299 63.3971L128.92 62.2842Z" fill="#FFB8B8"/>
<path d="M122.428 55.9775C122.428 55.9775 120.852 63.9532 122.243 64.1387C123.634 64.3241 125.581 62.933 128.085 64.5096C130.589 66.0862 134.763 65.7152 134.763 65.7152C134.763 65.7152 137.637 58.3888 135.041 56.6267C132.444 54.8647 122.428 55.9775 122.428 55.9775Z" fill="#2F2E41"/>
<path d="M124.19 87.9723C124.598 87.7946 125.047 87.7305 125.489 87.7868C125.911 87.8494 126.342 87.75 126.694 87.5086C126.694 87.5086 125.952 90.198 126.045 91.2182C126.138 92.2383 125.767 96.5971 123.819 96.1334C121.872 95.6697 121.315 94.2786 122.057 91.8673C122.799 89.4561 122.614 86.6739 122.614 86.6739C122.614 86.6739 123.967 85.2759 124.218 85.4648C124.468 85.6538 124.19 87.9723 124.19 87.9723Z" fill="#2F2E41"/>
<path d="M130.404 91.4048C130.404 91.4048 129.476 89.3645 128.363 91.2193C127.251 93.0741 127.158 93.5378 127.158 93.5378C127.158 93.5378 124.005 96.4127 126.23 96.691C128.456 96.9692 130.218 96.5982 130.218 96.1345C130.218 95.6708 131.331 95.7636 131.424 95.3926C131.517 95.0216 131.238 91.5903 131.238 91.5903L130.404 91.4048Z" fill="#2F2E41"/>
<path d="M132.49 34.0443C132.49 34.0443 128.595 34.7862 128.132 34.6935C128.027 34.675 127.922 34.6638 127.815 34.6599C126.909 34.6187 126.009 34.8417 125.227 35.3019C123.935 36.0521 122.011 37.3872 122.011 38.6813C122.011 40.6288 124.515 43.9675 124.515 43.9675C124.515 43.9675 122.196 51.9431 122.382 52.685C122.567 53.4269 120.991 55.9309 122.011 56.7656C123.031 57.6002 132.769 56.7656 134.531 57.6002C136.293 58.4349 135.458 46.4714 135.458 46.4714C135.458 46.4714 140.188 35.6209 137.777 34.6007C136.996 34.2706 136.323 34.0182 135.769 33.8278C135.235 33.6442 134.671 33.5687 134.108 33.6059C133.545 33.6431 132.995 33.7921 132.49 34.0443Z" fill="#3F3D56"/>
<path d="M136.107 34.6943L138.235 35.046C138.235 35.046 139.168 35.9927 139.168 36.4564C139.168 36.9201 138.982 56.9519 138.704 57.6011C138.426 58.2502 135.365 57.972 135.365 57.972L135.922 46.565L136.107 34.6943Z" fill="#3F3D56"/>
<path d="M131.796 24.2933C131.527 23.9316 131.178 23.6368 130.776 23.4319C130.374 23.2269 129.931 23.1172 129.48 23.1113H129.37C127.251 23.1113 125.534 25.0286 125.534 27.3936V27.3936H126.244L126.358 26.5209L126.526 27.3936H130.737L131.09 26.6553L131.002 27.3936H131.83C132.217 29.3133 131.661 31.2329 130.164 33.1526H131.575L132.28 31.6759L132.104 33.1526H134.794L135.323 29.7563C135.323 27.2127 133.845 25.0559 131.796 24.2933Z" fill="#2F2E41"/>
<path d="M132.57 24.6509C133.727 24.6509 134.666 23.7123 134.666 22.5544C134.666 21.3966 133.727 20.458 132.57 20.458C131.412 20.458 130.473 21.3966 130.473 22.5544C130.473 23.7123 131.412 24.6509 132.57 24.6509Z" fill="#2F2E41"/>
<path d="M102.584 23.1504H14.2465V79.6694H102.584V23.1504Z" fill="#3F3D56"/>
<path d="M100.072 33.3545H60.299V79.6163H100.072V33.3545Z" fill="#0076A8"/>
<path d="M97.8736 37.6592H73.7515V38.6318H97.8736V37.6592Z" fill="white"/>
<path d="M97.8736 39.7998H73.7515V40.7725H97.8736V39.7998Z" fill="white"/>
<path d="M81.9219 41.9385H73.7515V42.9111H81.9219V41.9385Z" fill="white"/>
<path d="M48.3394 58.5771H24.2173V59.5498H48.3394V58.5771Z" fill="white"/>
<path d="M48.3394 60.7168H24.2173V61.6895H48.3394V60.7168Z" fill="white"/>
<path d="M32.3877 62.8574H24.2173V63.8301H32.3877V62.8574Z" fill="white"/>
<path d="M92.2217 49.5918H68.0996V50.5645H92.2217V49.5918Z" fill="white"/>
<path d="M92.2217 51.7314H68.0996V52.7041H92.2217V51.7314Z" fill="white"/>
<path d="M92.2217 53.8242H68.0996V54.7969H92.2217V53.8242Z" fill="white"/>
<path d="M92.2217 55.917H68.0996V56.8897H92.2217V55.917Z" fill="white"/>
<path d="M92.2217 58.0107H68.0996V58.9834H92.2217V58.0107Z" fill="white"/>
<path d="M92.2217 60.1045H68.0996V61.0772H92.2217V60.1045Z" fill="white"/>
<path d="M92.2217 62.1973H68.0996V63.1699H92.2217V62.1973Z" fill="white"/>
<path d="M92.2217 64.291H68.0996V65.2637H92.2217V64.291Z" fill="white"/>
<path d="M92.2217 66.3838H68.0996V67.3565H92.2217V66.3838Z" fill="white"/>
<path d="M92.2217 68.4775H68.0996V69.4502H92.2217V68.4775Z" fill="white"/>
<path d="M92.2217 70.5703H68.0996V71.543H92.2217V70.5703Z" fill="white"/>
<path d="M45.0681 43.11C45.0695 44.4204 44.7772 45.7145 44.2127 46.8971C43.6481 48.0797 42.8256 49.1207 41.8057 49.9436C41.4285 50.25 41.0262 50.5241 40.6031 50.7631C40.3477 50.9081 40.085 51.0398 39.816 51.1577C38.9244 51.5512 37.973 51.7921 37.0016 51.8704C36.763 51.8903 36.5219 51.9001 36.2784 51.8997C35.7965 51.9003 35.3155 51.8607 34.8403 51.7815C34.6728 51.7553 34.5074 51.7229 34.3442 51.6852C34.0587 51.6217 33.7768 51.5434 33.4995 51.4507C32.3593 51.0704 31.3094 50.4598 30.415 49.6568C30.1846 49.4525 29.9662 49.2352 29.7609 49.0058C28.8039 47.9476 28.1188 46.6725 27.7649 45.2903C27.411 43.9082 27.3989 42.4607 27.7296 41.0729C28.0604 39.685 28.724 38.3986 29.6631 37.3246C30.6023 36.2506 31.7889 35.4214 33.1202 34.9086C34.4516 34.3958 35.8878 34.2149 37.3047 34.3813C38.7217 34.5478 40.0768 35.0567 41.2531 35.8642C42.4293 36.6716 43.3913 37.7532 44.056 39.0156C44.7207 40.278 45.0681 41.6833 45.0681 43.11Z" fill="#0076A8"/>
<path d="M102.531 47.9023C98.645 47.9023 94.9179 49.4461 92.1699 52.1941C89.4219 54.9421 87.8781 58.6692 87.8781 62.5554V62.5554C87.8781 63.6935 87.426 64.785 86.6212 65.5898C85.8165 66.3946 84.725 66.8467 83.5869 66.8467H76.4697C74.7928 66.8467 73.1323 67.177 71.5831 67.8187C70.0339 68.4604 68.6263 69.4009 67.4405 70.5866C66.2548 71.7724 65.3143 73.18 64.6726 74.7292C64.0308 76.2785 63.7006 77.9389 63.7006 79.6158V79.6158H102.531V47.9023H102.531Z" fill="#3F3D56"/>
<path d="M59.3046 23.1504H57.4207V79.6694H59.3046V23.1504Z" fill="#2F2E41"/>
<path d="M11.1175 91.065C11.1353 92.8839 10.0601 93.5294 8.72642 93.5424C8.69544 93.5427 8.66461 93.5427 8.63392 93.5423C8.57209 93.5416 8.5109 93.5393 8.45033 93.5356C7.24576 93.4621 6.30395 92.8037 6.28745 91.1121C6.27037 89.3616 8.48613 87.1306 8.65233 86.9656L8.65262 86.9655C8.65893 86.9592 8.66217 86.9561 8.66217 86.9561C8.66217 86.9561 11.0998 89.2463 11.1175 91.065Z" fill="#AFCAE2"/>
<path d="M8.68847 93.8995C13.487 93.8995 17.3769 93.6249 17.3769 93.2862C17.3769 92.9474 13.487 92.6729 8.68847 92.6729C3.88996 92.6729 0 92.9474 0 93.2862C0 93.6249 3.88996 93.8995 8.68847 93.8995Z" fill="#AFCAE2"/>
<defs>
<linearGradient id="paint0_linear" x1="113.692" y1="128.519" x2="24.477" y2="79.9313" gradientUnits="userSpaceOnUse">
<stop stop-color="#00ABAB"/>
<stop offset="1" stop-color="#0076A8"/>
</linearGradient>
</defs>
</svg>
