<svg width="31" height="30" viewBox="0 0 31 30" fill="none" xmlns="http://www.w3.org/2000/svg">
<path fill-rule="evenodd" clip-rule="evenodd" d="M3.22836 27.699C2.67742 27.699 2.2303 27.251 2.2303 26.6991V25.0076L0.603052 24.1691C0.0970273 23.9501 -0.136561 23.3621 0.0819423 22.8551C0.300665 22.3482 0.887601 22.1142 1.39363 22.3331C1.43755 22.3522 1.48047 22.3741 1.52131 22.3992L2.23022 22.7638V3.98737L0.66295 3.17997C0.164851 2.94297 -0.0477015 2.34702 0.188854 1.84804C0.42541 1.34906 1.02038 1.13605 1.51848 1.37304C1.53642 1.38196 1.55424 1.39099 1.5713 1.40002L2.2303 1.73966V0.999925C2.2303 0.447888 2.67742 0 3.22836 0C3.77951 0 4.22665 0.447888 4.22665 0.999925V2.40963H17.1925C17.7435 2.40963 18.1906 2.85763 18.1906 3.40956V13.5895H27.4854L22.8123 8.89972C22.4209 8.51071 22.418 7.87775 22.8062 7.48577L22.8123 7.47972C23.2015 7.09181 23.8304 7.09181 24.2196 7.47972L30.598 13.8796C30.9853 14.2695 30.9853 14.8995 30.598 15.2895L24.2196 21.6792C24.035 21.8743 23.7795 21.9852 23.5109 21.9893C23.2474 21.9852 22.9969 21.8773 22.8123 21.6892C22.4249 21.2994 22.4249 20.6693 22.8123 20.2794L27.4855 15.5895H18.1906V24.4089C18.1906 24.9608 17.7435 25.4088 17.1925 25.4088H13.1801V29.009C13.1841 29.366 12.9974 29.697 12.6911 29.879C12.5323 29.965 12.3527 30.007 12.1719 29.9991C12.14 29.9994 12.1081 29.9983 12.0764 29.9957C12.0289 29.9919 11.9817 29.9846 11.9354 29.974C11.8549 29.9556 11.7766 29.9272 11.7028 29.889L11.2485 29.6548L4.22665 26.0364V26.6991C4.22665 27.251 3.77951 27.699 3.22836 27.699ZM4.22665 5.04039V23.7908L11.1738 27.3644V8.60966L4.22665 5.04039ZM12.6212 7.07981L7.43007 4.40962H16.1944V23.4089H13.1801V8.00972C13.1701 7.6228 12.9576 7.2698 12.6212 7.07981Z" fill="#AFCAE2"/>
</svg>
