<svg width="26" height="26" viewBox="0 0 26 26" fill="none" xmlns="http://www.w3.org/2000/svg">
<path d="M24.565 26.0001C25.3574 26.0001 26 25.3576 26 24.5651V1.43498C26 0.642383 25.3574 0 24.565 0H1.43498C0.642281 0 0 0.642383 0 1.43498V24.5651C0 25.3576 0.642281 26.0001 1.43498 26.0001H24.565Z" fill="#395185"/>
<path d="M17.9394 26.0009V15.9323H21.3191L21.8251 12.0085H17.9394V9.50311C17.9394 8.36703 18.2549 7.59282 19.8841 7.59282L21.962 7.59191V4.08241C21.6024 4.03458 20.3691 3.92773 18.9342 3.92773C15.9383 3.92773 13.8874 5.75637 13.8874 9.11463V12.0085H10.499V15.9323H13.8874V26.0009H17.9394Z" fill="white"/>
</svg>
